<?xml version="1.0" encoding="UTF-8" ?>
<!DOCTYPE svg PUBLIC "-//W3C//DTD SVG 1.1//EN" "http://www.w3.org/Graphics/SVG/1.1/DTD/svg11.dtd">
<svg width="180pt" height="180pt" viewBox="0 0 180 180" version="1.1" xmlns="http://www.w3.org/2000/svg">
<g id="#ffffffff">
<path fill="#ffffff" opacity="1.00" d=" M 52.29 10.96 C 54.22 8.02 56.26 5.13 58.95 2.81 C 59.72 5.28 60.22 7.82 60.73 10.36 C 62.69 7.41 64.94 4.47 68.74 4.10 C 68.88 6.65 68.70 9.21 68.69 11.76 C 71.39 9.35 73.20 4.08 77.63 5.58 C 77.69 9.39 77.41 13.19 77.26 17.00 C 76.99 19.45 75.73 22.57 72.83 22.63 C 63.16 23.15 53.43 22.29 43.77 23.19 C 43.40 21.50 42.59 19.82 42.90 18.05 C 43.61 13.76 43.17 9.40 43.57 5.09 C 44.65 4.79 45.74 4.49 46.82 4.20 C 48.78 6.34 50.64 8.57 52.29 10.96 M 52.93 15.51 C 50.64 13.52 48.44 11.43 46.31 9.28 C 45.73 13.18 45.24 17.10 44.41 20.96 C 54.40 19.42 64.57 21.04 74.56 19.63 C 74.52 15.96 74.58 12.30 74.85 8.65 C 72.62 12.27 70.37 16.08 66.62 18.32 C 65.81 15.11 65.64 11.81 65.44 8.53 C 64.09 10.29 62.79 12.08 61.50 13.87 C 60.66 13.66 59.82 13.45 58.99 13.24 C 58.45 11.49 57.91 9.74 57.31 8.02 C 55.83 10.50 54.49 13.07 52.93 15.51 Z" />
<path fill="#ffffff" opacity="1.00" d=" M 26.98 29.89 C 28.87 25.92 34.01 25.22 37.92 25.60 C 43.24 27.58 48.37 32.74 47.68 38.82 C 49.31 38.72 51.32 38.96 52.20 37.22 C 55.68 31.99 61.92 29.56 67.98 29.13 C 72.95 27.84 77.94 30.28 81.88 33.10 C 84.76 36.56 88.68 39.03 91.28 42.71 C 93.63 51.42 94.67 61.12 90.44 69.43 C 89.67 70.90 88.33 72.14 88.02 73.81 C 91.90 76.97 96.53 79.89 101.72 79.69 C 113.12 79.01 124.87 78.69 135.87 82.27 C 135.68 83.16 135.48 84.05 135.29 84.94 C 145.18 88.67 151.56 98.21 154.46 107.97 C 154.64 111.74 154.38 115.63 153.09 119.20 C 151.21 121.34 148.71 122.75 146.47 124.47 C 144.93 126.67 143.69 129.07 142.52 131.49 C 140.63 135.42 137.27 138.42 135.37 142.34 C 133.85 148.54 133.99 155.22 131.01 161.01 C 128.59 165.74 129.70 171.47 127.05 176.14 C 126.87 175.12 126.67 174.10 126.70 173.06 C 127.40 166.48 128.73 159.98 130.28 153.55 C 131.01 149.71 132.60 145.98 132.41 142.01 C 135.00 133.66 141.52 127.41 146.03 120.09 C 147.06 117.89 149.94 117.90 151.40 116.18 C 152.74 112.82 150.54 109.57 150.16 106.25 C 148.99 98.95 143.97 91.60 136.66 89.61 C 139.82 93.07 144.13 95.42 146.51 99.59 C 148.19 101.54 147.17 104.25 146.98 106.51 C 145.81 103.62 145.27 100.31 142.99 98.01 C 140.40 95.29 137.20 92.81 136.20 89.00 C 131.02 87.80 126.30 84.05 120.72 85.48 C 121.19 84.64 121.66 83.81 122.13 82.97 C 120.24 82.54 118.37 82.05 116.51 81.51 C 115.95 82.62 115.38 83.74 114.83 84.86 C 114.75 83.75 114.70 82.64 114.65 81.53 C 108.69 82.51 102.41 83.40 96.56 81.41 C 92.65 80.22 89.45 77.59 86.26 75.15 C 82.91 78.06 78.25 78.39 74.01 78.31 C 68.90 77.51 64.60 73.11 63.41 68.15 C 63.81 66.74 64.44 65.42 64.98 64.06 C 64.38 65.17 63.76 66.28 63.14 67.39 C 61.84 62.03 60.14 56.67 56.84 52.18 C 55.24 52.46 53.64 52.73 52.04 52.97 C 51.31 52.10 50.59 51.21 49.88 50.33 C 48.71 50.55 47.54 50.77 46.37 50.98 C 46.41 50.25 46.48 48.81 46.52 48.09 C 49.06 47.63 51.64 47.40 54.20 47.09 C 50.86 44.64 48.33 39.71 43.55 40.63 C 38.45 44.39 34.13 49.22 28.69 52.56 L 27.85 52.36 C 26.05 51.21 24.32 49.97 22.47 48.92 C 22.01 49.87 21.55 50.82 21.11 51.78 C 22.02 52.43 22.94 53.08 23.86 53.72 C 24.83 53.44 25.81 53.25 26.81 53.16 C 27.51 56.12 29.15 58.43 32.34 58.89 C 29.55 60.94 26.15 60.84 22.87 60.52 C 23.19 61.31 23.84 62.87 24.17 63.66 C 27.52 64.97 31.25 63.64 34.69 64.76 C 34.50 64.16 34.12 62.97 33.94 62.37 C 35.23 63.94 36.83 65.19 38.47 66.38 C 34.47 66.48 30.48 66.55 26.49 66.81 C 28.90 69.46 33.43 69.23 34.92 72.74 C 30.97 71.92 26.44 70.82 24.18 67.16 C 22.65 69.42 20.87 72.07 17.94 72.47 C 14.33 73.09 11.05 70.77 8.51 68.50 C 4.07 63.36 5.87 55.97 8.30 50.34 C 9.97 50.52 11.65 50.66 13.34 50.78 C 12.21 51.85 11.08 52.90 9.95 53.97 C 10.89 56.28 11.87 58.56 12.71 60.90 C 14.44 60.37 16.05 59.44 17.83 59.13 C 19.20 61.55 20.67 63.92 21.86 66.44 C 19.13 65.61 17.42 63.31 15.45 61.43 C 14.47 65.02 17.26 67.35 19.56 69.56 C 20.54 68.52 21.52 67.49 22.51 66.46 C 20.13 62.85 21.60 58.59 22.88 54.90 C 22.14 54.68 20.66 54.24 19.92 54.02 C 20.49 55.26 22.43 57.66 20.03 58.19 C 19.55 58.20 18.60 58.22 18.12 58.22 L 17.28 57.80 C 17.62 53.85 19.93 50.43 20.59 46.54 C 22.66 40.97 23.91 35.04 26.98 29.89 M 33.87 27.86 C 30.97 28.48 28.89 30.68 26.89 32.70 C 28.87 33.06 30.85 33.41 32.80 33.89 C 32.69 32.57 32.61 31.26 32.56 29.94 C 35.58 32.88 39.69 30.55 43.37 31.28 C 40.44 29.68 37.49 26.27 33.87 27.86 M 68.29 31.29 C 71.15 35.22 71.00 40.18 71.32 44.80 C 72.09 44.85 73.64 44.95 74.42 45.00 C 74.53 40.74 74.40 36.49 73.53 32.30 C 74.68 33.20 76.35 33.82 76.58 35.47 C 77.12 39.35 76.34 43.25 76.26 47.13 C 79.17 43.56 80.02 38.94 79.82 34.44 C 76.16 32.74 72.51 30.43 68.29 31.29 M 63.86 31.45 C 65.66 35.54 68.57 40.36 66.86 44.84 C 66.58 44.81 66.02 44.75 65.75 44.73 C 64.96 40.87 64.00 37.05 62.64 33.35 C 61.86 33.28 60.31 33.16 59.53 33.09 C 61.94 36.90 63.33 41.18 64.90 45.37 C 66.15 45.94 67.57 45.61 68.88 45.44 C 68.80 42.01 68.75 38.55 68.10 35.17 C 67.45 33.28 66.14 31.24 63.86 31.45 M 36.40 33.41 C 35.62 35.98 36.00 38.63 36.50 41.22 C 38.78 39.97 41.16 38.89 43.46 37.68 C 41.10 38.12 38.76 38.68 36.40 39.16 C 38.62 35.41 43.03 35.26 46.77 36.38 C 44.16 33.47 40.03 33.33 36.40 33.41 M 26.91 34.66 C 27.78 38.22 30.57 40.63 32.50 43.60 C 30.02 43.40 28.02 41.86 25.79 40.93 C 27.72 42.68 29.95 44.05 31.96 45.71 C 34.17 43.09 33.95 39.83 33.30 36.68 C 31.17 36.01 29.04 35.32 26.91 34.66 M 56.32 34.83 C 58.83 38.87 61.17 42.99 63.10 47.35 C 61.98 43.24 60.52 39.16 58.48 35.42 C 57.94 35.27 56.86 34.98 56.32 34.83 M 81.83 36.84 C 81.87 39.98 81.41 43.09 79.83 45.85 C 78.68 47.49 80.10 49.26 80.41 50.94 C 83.72 50.48 86.73 48.98 89.93 48.12 C 89.67 46.07 89.22 44.05 88.42 42.14 C 86.04 44.34 84.38 48.47 80.97 48.90 C 81.39 45.79 84.71 43.84 86.19 41.11 C 84.69 39.73 83.23 38.31 81.83 36.84 M 52.29 39.82 C 55.08 42.81 57.39 46.27 60.69 48.75 C 60.20 44.43 57.52 40.88 55.19 37.38 C 54.22 38.20 53.26 39.01 52.29 39.82 M 24.94 45.01 C 24.69 45.79 24.43 46.58 24.16 47.35 C 25.66 47.93 27.16 48.53 28.75 48.85 C 31.46 46.28 26.76 45.72 24.94 45.01 M 64.06 47.80 C 65.26 48.56 66.47 49.29 67.66 50.06 C 65.33 50.45 62.97 50.66 60.64 51.03 C 61.43 54.29 65.28 53.36 67.76 53.80 C 66.23 55.21 64.90 56.81 63.56 58.40 C 63.87 59.54 64.16 60.69 64.43 61.85 C 65.30 60.88 65.67 58.95 67.30 59.15 C 67.92 63.17 71.58 66.34 75.73 65.81 C 79.42 64.81 79.64 60.28 79.53 57.13 C 78.73 54.16 78.21 50.53 75.35 48.80 C 72.16 46.10 67.80 47.67 64.06 47.80 M 80.02 51.82 C 80.36 52.26 81.03 53.14 81.36 53.58 C 84.53 53.63 87.65 52.90 90.82 52.78 C 90.73 52.07 90.55 50.67 90.47 49.96 C 87.15 51.32 83.62 52.07 80.02 51.82 M 79.92 55.73 C 83.07 58.74 87.88 58.53 91.17 61.44 C 91.10 59.32 91.81 56.68 89.65 55.33 C 86.40 55.14 83.15 55.42 79.92 55.73 M 8.94 56.46 C 7.99 59.47 8.19 62.64 8.65 65.71 C 11.66 63.19 9.80 59.52 8.94 56.46 M 81.07 59.66 C 82.25 63.84 86.09 66.38 88.05 70.15 C 88.88 68.19 89.64 66.19 90.36 64.17 C 87.62 62.02 84.62 60.06 81.07 59.66 M 11.46 63.10 C 11.39 64.69 11.30 66.28 11.23 67.88 C 13.04 68.67 14.85 69.45 16.67 70.21 C 15.41 68.02 14.33 65.74 13.48 63.36 C 12.97 63.30 11.97 63.17 11.46 63.10 M 77.65 68.12 C 78.27 70.72 78.57 73.38 78.62 76.05 C 79.73 75.71 80.84 75.36 81.95 75.03 C 81.62 72.30 80.54 69.73 80.14 67.04 C 80.45 67.03 81.06 67.03 81.37 67.03 C 83.05 69.30 83.65 72.13 84.91 74.62 C 87.00 70.53 82.93 67.39 81.17 64.08 C 80.05 65.47 78.85 66.79 77.65 68.12 M 66.42 64.10 C 66.56 66.33 66.92 68.55 67.40 70.74 C 68.31 69.52 69.17 68.26 69.98 66.97 C 68.81 66.00 67.62 65.04 66.42 64.10 M 71.30 68.32 C 70.02 68.55 69.29 71.22 70.94 71.40 C 72.26 71.18 72.95 68.51 71.30 68.32 M 73.75 69.07 C 73.69 71.35 73.61 73.63 73.59 75.91 C 74.29 75.90 75.68 75.89 76.37 75.88 C 76.32 73.31 76.25 70.75 76.15 68.18 C 75.55 68.40 74.35 68.85 73.75 69.07 M 69.41 73.05 C 68.45 74.36 70.68 75.95 71.61 74.62 C 72.61 73.30 70.35 71.79 69.41 73.05 Z" />
<path fill="#ffffff" opacity="1.00" d=" M 36.67 69.05 C 39.46 72.69 43.06 75.62 47.29 77.43 C 46.45 77.42 44.78 77.39 43.94 77.37 C 45.45 82.32 46.37 87.43 47.93 92.37 C 51.20 89.96 50.36 86.06 50.59 82.56 C 51.70 88.24 52.23 94.29 50.19 99.83 C 50.98 98.95 51.73 98.04 52.47 97.11 C 52.68 99.97 54.01 102.55 54.55 105.33 C 56.74 109.84 60.25 113.42 64.31 116.27 C 62.13 116.74 62.10 118.65 62.09 120.47 C 65.42 120.97 69.39 122.97 72.28 120.29 C 73.09 122.10 73.89 123.91 74.62 125.76 C 75.01 125.02 75.40 124.28 75.79 123.55 C 77.11 126.48 78.40 129.47 80.57 131.90 C 82.16 126.15 85.43 120.81 90.25 117.23 C 92.28 115.72 94.83 115.30 97.31 115.41 C 91.84 119.33 85.32 123.28 83.77 130.39 C 87.22 126.99 89.26 122.22 93.68 119.82 C 91.47 123.74 87.80 126.63 85.90 130.75 C 88.65 129.36 90.28 126.66 92.32 124.47 C 92.94 129.33 91.11 133.93 90.01 138.58 C 88.87 135.79 89.80 132.95 90.96 130.36 C 88.91 131.80 86.58 132.54 84.08 132.57 C 85.36 137.14 88.40 141.11 88.35 146.03 C 90.84 156.41 89.58 167.19 87.97 177.62 C 86.39 172.17 88.49 166.51 87.19 161.04 C 86.15 156.98 87.07 152.69 86.15 148.66 C 83.84 144.47 85.06 138.81 80.97 135.61 C 79.37 137.75 78.31 140.22 77.68 142.82 C 77.32 141.78 76.95 140.76 76.57 139.73 C 74.10 144.84 74.59 150.55 73.73 156.00 C 73.28 162.11 74.37 168.29 73.16 174.35 C 72.36 171.90 71.95 169.35 71.70 166.79 C 71.40 168.74 70.86 170.65 69.95 172.42 C 69.21 168.66 68.29 164.89 68.46 161.03 C 68.24 154.93 70.90 149.15 70.75 143.05 C 67.88 147.30 67.01 152.46 65.22 157.19 C 64.89 161.94 66.19 166.66 65.53 171.40 C 62.82 168.64 63.24 164.57 62.84 161.02 C 62.54 149.58 63.05 138.13 62.46 126.69 C 61.77 122.23 57.99 119.04 56.87 114.72 C 56.72 115.11 56.42 115.90 56.28 116.29 C 54.23 114.50 52.66 112.31 52.33 109.55 C 51.88 106.00 48.28 104.24 47.15 100.99 C 44.84 94.70 44.54 87.89 42.59 81.51 C 40.01 78.75 36.97 76.43 34.52 73.53 C 35.27 72.05 36.00 70.57 36.67 69.05 M 64.31 123.38 C 64.83 126.02 65.35 128.65 65.75 131.31 C 66.96 129.21 68.19 127.11 69.51 125.07 C 67.77 124.54 66.04 123.93 64.31 123.38 M 65.80 142.23 C 68.51 137.97 72.40 133.79 72.08 128.39 C 68.39 132.07 66.95 137.30 65.80 142.23 M 65.98 148.30 C 67.45 146.21 68.58 143.87 69.12 141.36 C 67.41 143.32 66.55 145.81 65.98 148.30 Z" />
<path fill="#ffffff" opacity="1.00" d=" M 94.40 122.31 C 96.11 122.28 95.25 124.71 93.99 124.71 C 92.38 124.77 93.20 122.30 94.40 122.31 Z" />
<path fill="#ffffff" opacity="1.00" d=" M 98.63 134.74 C 101.15 130.24 102.15 124.42 106.69 121.40 C 105.83 125.42 103.64 128.92 101.86 132.56 C 104.00 131.92 106.02 130.48 108.34 130.74 C 112.78 131.12 117.20 130.25 121.64 130.51 C 122.08 129.91 122.96 128.72 123.40 128.12 C 123.90 129.33 124.36 130.55 124.82 131.78 C 126.42 131.72 128.02 131.71 129.63 131.79 C 128.45 132.74 127.20 133.61 125.93 134.44 C 126.91 139.80 129.18 145.62 126.78 150.89 C 123.97 159.87 122.04 169.11 120.40 178.35 C 119.97 178.71 119.11 179.42 118.68 179.78 C 118.16 174.37 120.27 169.28 120.86 163.99 C 121.46 159.42 123.10 155.09 124.48 150.72 C 126.66 145.16 124.37 139.16 123.08 133.64 C 122.66 134.17 121.83 135.23 121.41 135.76 C 121.21 139.76 120.50 143.70 119.46 147.57 C 117.31 157.10 115.21 166.64 113.02 176.16 C 112.15 174.60 111.37 173.00 110.53 171.43 C 110.46 173.89 110.45 176.36 110.28 178.83 C 107.52 177.61 108.55 174.43 108.48 172.08 C 108.99 159.30 108.77 146.49 108.74 133.70 C 106.26 134.22 103.73 134.42 101.21 134.63 C 99.59 138.45 98.19 142.41 97.75 146.56 C 96.46 157.72 92.89 168.48 92.27 179.73 C 90.44 177.00 91.41 173.62 91.43 170.57 C 91.60 164.62 93.61 158.97 94.51 153.14 C 95.90 147.00 95.48 140.39 98.63 134.74 M 111.09 152.19 C 111.08 156.15 111.21 160.12 111.43 164.08 C 112.13 160.54 112.96 157.04 113.88 153.56 C 112.95 153.11 112.01 152.65 111.09 152.19 Z" />
</g>
</svg>
