<?xml version="1.0" encoding="UTF-8" ?>
<!DOCTYPE svg PUBLIC "-//W3C//DTD SVG 1.1//EN" "http://www.w3.org/Graphics/SVG/1.1/DTD/svg11.dtd">
<svg width="200pt" height="200pt" viewBox="0 0 200 200" version="1.1" xmlns="http://www.w3.org/2000/svg">
<g id="#ffffffff">
<path fill="#ffffff" opacity="1.00" d=" M 17.14 44.90 C 21.02 45.13 23.63 48.25 26.43 50.54 C 31.51 54.95 36.18 59.74 40.94 64.48 C 40.47 64.85 39.55 65.59 39.08 65.96 C 40.37 65.72 41.65 65.48 42.94 65.22 C 45.64 68.16 48.08 71.45 51.70 73.33 C 54.78 76.64 59.79 79.15 59.61 84.34 C 60.02 83.16 60.40 81.97 60.81 80.80 C 65.45 86.19 72.01 89.40 76.84 94.58 C 70.08 92.97 66.19 86.67 60.60 83.10 C 60.91 83.83 61.51 85.31 61.82 86.05 C 68.19 89.06 72.03 95.73 78.74 98.17 C 78.28 96.92 77.82 95.66 77.37 94.40 C 79.00 95.63 80.49 97.05 82.26 98.08 C 93.82 98.74 105.42 98.60 116.98 97.94 C 120.04 97.76 121.98 95.00 124.62 93.79 C 132.09 90.10 138.16 84.14 145.59 80.38 C 146.01 78.58 146.38 76.78 146.81 74.99 C 148.04 75.67 149.25 76.39 150.45 77.13 C 151.13 76.64 152.48 75.67 153.15 75.18 C 153.27 75.86 153.52 77.21 153.64 77.89 C 153.03 78.84 152.40 79.78 151.75 80.70 C 153.20 79.84 154.36 78.61 155.91 77.89 C 155.42 76.94 153.77 76.06 154.40 74.85 C 160.06 70.76 166.24 67.46 172.12 63.70 C 174.02 64.63 175.99 65.39 177.81 66.47 C 175.44 70.28 171.54 72.58 168.17 75.36 C 167.69 77.06 167.95 78.85 167.90 80.59 C 169.76 78.94 171.18 76.83 173.15 75.30 C 174.28 75.24 174.98 75.76 175.24 76.87 C 176.80 82.25 177.30 88.02 176.04 93.52 C 173.01 93.24 170.00 93.52 167.02 94.02 C 162.33 94.84 157.70 93.35 153.01 93.35 C 150.42 93.42 148.01 92.41 145.82 91.14 C 142.68 93.18 139.19 94.79 136.63 97.60 C 142.38 97.16 148.44 96.90 153.87 99.12 C 157.93 99.66 162.07 99.29 166.12 100.07 C 168.58 99.72 171.07 99.50 173.56 99.89 C 173.13 100.43 172.27 101.49 171.84 102.02 C 166.44 103.56 160.91 102.03 155.42 102.17 C 153.58 104.88 151.07 107.02 148.72 109.26 C 149.29 110.33 149.85 111.40 150.40 112.48 C 154.47 113.14 158.59 111.95 162.61 113.07 C 161.34 114.41 159.78 115.40 158.07 116.09 C 160.66 115.83 163.26 115.67 165.84 115.27 C 165.65 116.12 165.46 116.98 165.27 117.84 C 173.01 117.12 181.67 118.81 188.58 114.51 C 182.43 114.23 176.26 115.34 170.13 114.40 C 169.77 113.73 169.06 112.41 168.70 111.74 C 173.71 111.17 178.76 111.71 183.78 111.30 C 180.42 108.50 176.05 107.27 173.33 103.66 C 173.71 103.12 174.46 102.02 174.83 101.48 C 178.90 106.30 185.54 107.78 191.36 109.42 C 191.33 110.56 191.30 111.70 191.25 112.84 C 190.22 112.60 188.15 112.13 187.11 111.89 C 188.30 112.46 189.51 112.98 190.72 113.51 C 191.79 112.36 192.82 111.17 193.89 110.01 C 196.29 110.82 196.48 114.12 194.42 115.41 C 187.88 119.78 179.70 121.25 171.95 120.43 C 167.30 121.39 162.54 121.75 157.80 121.43 C 153.76 122.71 149.82 124.69 145.49 124.59 C 140.15 126.03 134.72 127.72 129.13 127.52 C 126.76 127.71 124.48 128.42 122.16 128.91 C 123.21 129.19 124.33 129.29 125.29 129.83 C 129.62 132.38 134.18 134.66 137.85 138.16 C 142.95 139.51 147.03 142.95 151.76 145.15 C 154.55 147.19 157.19 149.47 160.37 150.93 C 162.84 153.35 164.83 156.24 166.81 159.06 C 170.37 161.49 175.49 163.00 176.83 167.52 C 175.05 167.59 173.23 167.35 171.85 166.13 C 161.73 160.02 151.74 153.71 141.77 147.34 C 137.23 145.39 133.65 141.83 129.11 139.88 C 124.81 136.35 119.72 133.94 115.54 130.23 C 113.51 130.80 111.49 131.38 109.46 131.95 C 109.51 133.60 109.56 135.25 109.61 136.91 C 105.50 136.83 106.38 131.44 105.08 128.62 C 107.38 129.10 109.88 129.76 111.84 127.98 C 109.28 125.97 106.73 123.87 103.65 122.71 C 103.10 124.09 102.55 125.46 101.99 126.83 C 101.40 125.51 100.80 124.20 100.21 122.88 C 98.05 124.42 95.86 125.92 93.64 127.38 C 96.25 127.62 99.10 127.10 101.31 128.85 C 102.00 132.14 101.20 135.52 101.28 138.84 C 101.47 142.09 102.19 145.27 102.90 148.43 C 104.59 145.73 106.54 143.06 106.97 139.81 C 105.76 139.39 104.55 138.96 103.35 138.51 C 103.48 136.22 103.54 133.87 105.05 131.99 C 105.30 134.43 105.41 136.89 105.76 139.33 C 106.94 138.20 108.11 136.29 109.67 138.15 C 110.46 142.51 108.42 146.66 105.95 150.10 C 104.79 152.24 101.79 151.32 100.60 149.69 C 96.26 144.48 95.12 137.16 95.70 130.60 C 93.30 130.54 90.86 129.98 88.47 130.40 C 83.18 133.13 78.28 136.59 72.83 139.02 C 66.85 141.86 61.80 146.41 55.48 148.59 C 47.07 152.21 39.20 157.42 30.27 159.70 C 30.50 158.38 30.71 156.82 32.18 156.32 C 36.92 153.48 43.47 151.31 44.37 145.05 C 47.65 143.84 50.90 142.46 53.65 140.26 C 50.83 141.10 48.14 142.31 45.29 143.06 C 45.16 142.85 44.88 142.44 44.74 142.23 C 41.72 145.80 36.08 147.26 31.62 146.25 C 34.63 142.25 39.91 142.37 43.88 139.90 C 50.64 136.52 57.86 134.06 64.13 129.74 C 63.65 130.65 62.70 132.45 62.22 133.35 C 63.94 130.37 66.83 128.46 69.54 126.46 C 69.44 122.88 69.21 119.28 69.77 115.73 C 70.83 118.71 71.88 121.70 72.83 124.72 C 73.24 124.59 74.07 124.33 74.49 124.20 C 74.15 120.22 72.42 116.28 73.71 112.29 C 69.61 109.63 71.05 104.30 71.55 100.24 C 67.50 98.49 63.16 96.49 58.68 97.60 C 54.96 99.52 50.74 99.43 46.69 99.79 C 45.15 97.60 43.18 95.79 41.19 94.02 C 40.45 94.40 39.71 94.78 38.97 95.16 C 43.53 95.97 45.75 100.34 49.03 103.10 C 44.75 105.53 39.80 106.92 36.22 110.46 C 36.31 112.03 35.85 114.78 37.91 115.16 C 38.47 112.89 39.00 110.61 40.58 108.79 C 40.24 109.73 39.90 110.65 39.53 111.58 C 40.45 112.80 41.36 114.04 42.24 115.29 C 42.45 113.51 42.59 111.72 42.82 109.94 C 45.91 112.11 47.63 117.04 44.87 120.06 C 44.19 118.79 43.55 117.52 42.98 116.20 C 41.58 116.36 40.15 116.45 38.83 116.97 L 38.10 117.30 C 38.35 117.84 38.84 118.93 39.09 119.47 C 43.58 118.34 46.87 122.24 51.17 122.53 C 50.51 124.36 49.75 126.15 48.99 127.94 C 50.90 126.33 52.86 124.77 54.73 123.11 C 55.59 123.79 56.45 124.46 57.31 125.13 C 57.53 120.91 57.74 116.69 57.77 112.46 C 63.42 114.58 58.18 121.98 61.95 125.44 C 56.76 128.57 52.73 133.33 47.80 136.78 C 45.25 136.32 42.54 135.91 40.31 134.51 C 38.26 132.96 40.18 130.59 40.63 128.72 C 41.21 126.26 43.79 125.23 45.47 123.64 C 42.20 122.74 38.81 122.39 35.42 122.39 C 26.60 126.31 19.68 134.40 9.73 135.62 C 8.58 131.60 11.89 128.82 13.88 125.81 C 14.88 124.29 15.94 122.82 17.21 121.51 C 14.42 119.34 11.92 116.83 9.28 114.48 C 10.11 111.38 12.54 109.53 15.56 108.75 C 15.89 109.39 16.55 110.66 16.89 111.30 C 17.29 110.40 17.71 109.50 18.17 108.63 C 14.49 108.26 10.89 108.81 7.41 110.01 C 8.06 110.43 9.36 111.28 10.01 111.71 C 9.31 112.45 8.60 113.18 7.89 113.91 C 6.20 112.81 4.47 111.73 3.17 110.15 C 7.78 105.43 14.67 104.09 21.03 104.34 C 25.44 104.79 29.65 106.39 34.09 106.64 C 37.50 105.56 40.45 103.33 44.01 102.61 C 40.74 100.69 37.61 98.50 34.93 95.81 C 36.03 93.53 36.87 91.13 38.04 88.88 C 40.59 87.79 43.12 86.24 45.99 86.35 C 51.44 88.23 56.58 90.97 62.05 92.86 C 59.74 90.12 56.36 88.68 53.86 86.15 C 51.51 83.80 48.83 81.83 46.22 79.78 C 39.45 73.24 31.53 67.97 25.08 61.05 C 25.62 60.51 26.71 59.43 27.25 58.89 C 30.07 61.30 32.79 63.89 36.30 65.29 C 32.56 62.14 29.13 58.66 25.98 54.92 C 22.32 52.39 18.58 49.26 17.14 44.90 M 36.39 65.97 C 36.63 69.37 39.25 64.38 36.39 65.97 M 44.25 69.21 C 44.82 69.83 44.82 69.83 44.25 69.21 M 162.27 84.69 C 160.66 84.56 159.05 84.37 157.43 84.41 C 154.81 86.67 151.13 87.06 148.63 89.52 C 156.73 90.53 164.87 90.11 172.99 89.60 C 172.75 86.34 172.62 83.08 172.65 79.81 C 171.47 82.57 170.03 85.20 168.50 87.77 C 167.25 87.74 166.00 87.71 164.76 87.67 C 164.61 84.91 165.21 82.21 165.62 79.50 C 164.46 81.20 163.39 82.96 162.27 84.69 M 44.56 89.17 C 44.29 90.77 43.92 92.35 43.44 93.90 C 47.83 95.43 52.37 97.72 57.12 96.38 C 53.85 95.41 50.52 94.67 47.23 93.78 C 45.43 93.43 46.42 91.33 46.38 90.13 C 45.77 89.81 45.17 89.49 44.56 89.17 M 92.19 101.83 C 92.25 103.25 92.31 104.67 92.38 106.10 C 93.87 106.89 95.34 107.72 96.75 108.65 C 96.42 106.85 96.13 105.04 95.90 103.23 C 98.95 103.56 99.72 106.89 101.03 109.14 C 103.49 108.00 103.82 105.48 103.96 103.04 C 105.23 103.54 106.48 104.08 107.73 104.61 C 109.11 103.49 110.53 102.42 111.97 101.38 C 105.42 102.81 98.80 101.61 92.19 101.83 M 137.63 101.14 C 137.45 103.55 137.32 105.97 137.14 108.38 C 133.74 107.84 134.15 104.38 134.40 101.81 C 133.13 101.73 131.86 101.67 130.59 101.65 C 130.44 104.21 130.17 106.76 129.72 109.28 C 131.06 113.04 130.92 117.10 130.22 120.98 C 127.20 118.16 127.22 113.85 127.59 110.04 C 126.84 108.34 125.90 106.73 125.06 105.07 C 123.38 107.81 123.17 111.25 124.37 114.22 C 123.39 112.35 122.24 110.58 121.15 108.77 C 120.48 109.15 119.15 109.92 118.48 110.30 C 119.91 113.34 121.34 116.44 121.73 119.82 C 118.30 118.61 116.96 115.14 116.06 111.92 C 113.77 114.00 111.15 115.65 108.55 117.30 C 109.50 118.89 113.71 119.88 111.88 121.88 C 110.79 121.70 109.70 121.47 108.63 121.19 C 110.26 122.03 111.93 122.78 113.52 123.69 C 113.73 120.74 112.80 117.90 112.15 115.07 C 112.82 115.17 114.16 115.35 114.83 115.45 C 116.12 118.90 115.77 124.03 120.02 125.37 C 122.50 124.96 124.97 123.76 127.52 124.41 C 130.55 124.96 133.57 123.97 136.55 123.54 C 135.05 119.22 134.20 114.61 135.63 110.16 C 136.02 110.20 136.81 110.27 137.21 110.30 C 137.46 114.51 137.59 118.74 138.55 122.87 C 139.66 122.77 140.77 122.67 141.88 122.58 C 141.46 119.20 142.06 115.59 140.53 112.45 C 139.14 109.37 139.43 105.89 139.76 102.61 C 139.05 102.12 138.34 101.63 137.63 101.14 M 142.28 102.50 C 142.74 108.81 143.14 115.20 145.08 121.26 C 148.78 123.30 152.35 118.62 156.05 118.52 C 157.42 118.60 158.77 118.85 160.14 118.97 C 155.83 117.28 151.27 116.44 146.86 115.13 C 143.49 111.93 143.19 106.78 143.55 102.42 C 144.23 102.40 145.57 102.37 146.24 102.36 C 146.30 103.95 146.37 105.55 146.44 107.15 C 147.68 105.59 149.00 104.10 150.37 102.65 C 147.68 102.31 144.96 101.87 142.28 102.50 M 75.81 104.28 C 75.94 107.00 75.48 109.71 74.39 112.21 C 76.83 115.12 76.57 119.11 77.51 122.59 C 80.80 121.20 80.58 117.55 80.97 114.56 C 81.49 116.27 82.06 117.96 82.72 119.63 C 85.20 118.32 87.62 116.91 90.03 115.50 C 89.68 113.80 89.06 112.16 88.04 110.75 C 85.50 110.55 86.73 113.53 86.25 115.06 C 82.53 113.15 84.29 108.06 80.99 106.14 C 80.54 108.04 80.36 109.98 80.15 111.91 C 76.81 110.59 77.65 107.22 77.70 104.36 C 77.23 104.34 76.28 104.30 75.81 104.28 M 20.78 110.46 C 22.95 110.39 25.11 110.27 27.27 110.16 C 26.16 109.45 25.05 108.74 23.93 108.04 C 22.89 108.85 21.84 109.65 20.78 110.46 M 92.29 108.51 C 91.65 109.81 93.25 112.19 94.73 111.60 C 95.35 110.31 93.71 108.02 92.29 108.51 M 108.54 108.23 C 107.32 108.25 105.18 110.11 107.17 110.82 C 109.04 111.88 111.44 107.36 108.54 108.23 M 19.29 111.25 C 17.63 114.16 22.64 111.54 19.29 111.25 M 103.14 111.10 C 102.87 111.41 102.33 112.02 102.06 112.33 C 102.88 115.71 106.95 110.46 103.14 111.10 M 19.75 122.85 C 24.84 120.97 29.53 117.04 35.23 117.66 C 34.51 116.08 33.75 114.52 32.92 113.00 C 29.84 117.88 23.83 119.14 19.75 122.85 M 79.66 125.90 C 83.81 125.20 87.34 122.79 91.11 121.07 C 90.82 120.53 90.24 119.44 89.95 118.90 C 86.90 121.81 82.96 123.34 79.66 125.90 M 24.19 124.36 C 22.65 124.67 23.26 127.21 24.78 126.34 C 26.23 125.94 25.75 123.50 24.19 124.36 M 13.33 132.34 C 15.71 131.22 18.52 130.12 19.40 127.36 C 16.80 128.16 14.32 129.68 13.33 132.34 M 42.99 129.44 C 41.58 129.24 40.79 131.63 42.51 131.69 C 43.81 131.88 44.63 129.41 42.99 129.44 M 45.57 132.85 C 44.68 134.00 46.71 135.40 47.52 134.22 C 48.46 132.98 46.45 131.71 45.57 132.85 M 66.23 134.22 C 66.82 134.82 66.82 134.82 66.23 134.22 M 54.45 138.95 C 54.12 140.35 54.65 140.80 56.05 140.29 C 56.38 138.91 55.85 138.46 54.45 138.95 Z" />
<path fill="#ffffff" opacity="1.00" d=" M 60.33 99.20 C 61.70 99.83 61.69 100.49 60.29 101.16 C 58.93 100.51 58.95 99.86 60.33 99.20 Z" />
<path fill="#ffffff" opacity="1.00" d=" M 66.80 99.72 C 67.60 100.50 68.46 101.22 69.13 102.12 C 69.50 106.30 69.20 110.51 68.39 114.63 C 64.66 110.62 66.61 104.61 66.80 99.72 Z" />
<path fill="#ffffff" opacity="1.00" d=" M 49.79 102.31 C 50.48 102.30 51.86 102.28 52.55 102.27 C 53.12 106.71 54.75 111.01 54.55 115.52 C 51.38 114.47 51.56 111.13 51.42 108.43 C 50.30 106.56 49.49 104.53 49.79 102.31 Z" />
<path fill="#ffffff" opacity="1.00" d=" M 63.08 111.30 C 60.85 108.66 59.30 104.73 61.95 101.81 C 64.53 104.19 65.30 108.41 63.08 111.30 Z" />
<path fill="#ffffff" opacity="1.00" d=" M 168.55 103.84 C 169.16 103.59 170.40 103.07 171.02 102.82 C 172.75 102.82 173.89 104.23 173.30 105.91 C 172.23 106.79 170.79 106.70 169.51 106.90 C 169.27 106.14 168.79 104.61 168.55 103.84 Z" />
<path fill="#ffffff" opacity="1.00" d=" M 55.26 104.85 C 55.76 104.66 56.76 104.27 57.26 104.07 C 57.77 106.69 58.66 109.21 59.82 111.60 C 59.02 111.66 57.41 111.79 56.60 111.85 C 55.73 109.61 55.37 107.24 55.26 104.85 Z" />
<path fill="#ffffff" opacity="1.00" d=" M 47.69 106.99 C 49.33 110.58 50.64 114.31 52.32 117.89 C 52.04 118.38 51.49 119.36 51.22 119.85 C 48.67 116.10 46.34 111.64 47.69 106.99 Z" />
<path fill="#ffffff" opacity="1.00" d=" M 64.21 110.91 C 66.24 113.53 65.82 116.89 65.60 119.97 C 65.11 119.74 64.14 119.29 63.65 119.07 C 63.47 116.33 63.11 113.53 64.21 110.91 Z" />
<path fill="#ffffff" opacity="1.00" d=" M 40.50 124.03 C 41.93 123.50 42.32 123.96 41.67 125.39 C 40.26 125.93 39.87 125.48 40.50 124.03 Z" />
<path fill="#ffffff" opacity="1.00" d=" M 62.71 125.02 C 64.16 123.23 67.11 125.27 69.16 124.86 C 68.79 125.53 68.06 126.89 67.69 127.56 C 65.90 127.21 63.23 127.21 62.71 125.02 Z" />
<path fill="#ffffff" opacity="1.00" d=" M 163.33 152.52 C 167.45 155.29 172.67 157.07 175.32 161.54 C 170.98 159.11 166.00 156.97 163.33 152.52 Z" />
</g>
</svg>
