<?xml version="1.0" encoding="UTF-8" ?>
<!DOCTYPE svg PUBLIC "-//W3C//DTD SVG 1.1//EN" "http://www.w3.org/Graphics/SVG/1.1/DTD/svg11.dtd">
<svg width="180pt" height="180pt" viewBox="0 0 180 180" version="1.1" xmlns="http://www.w3.org/2000/svg">
<g id="#ffffffff">
<path fill="#ffffff" opacity="1.00" d=" M 64.06 51.10 C 66.47 48.12 69.14 45.19 69.87 41.29 C 73.41 44.99 73.84 50.12 74.96 54.86 C 76.79 51.99 77.92 48.78 78.89 45.54 C 80.37 45.52 81.85 45.48 83.33 45.37 C 82.51 52.46 87.73 59.50 84.26 66.33 C 81.39 61.59 82.98 55.68 80.20 50.92 C 78.96 53.53 77.75 56.16 76.51 58.77 C 75.91 58.78 74.71 58.80 74.11 58.81 C 72.80 54.81 72.07 50.67 71.10 46.59 C 68.73 50.21 66.96 54.19 66.03 58.43 C 64.69 58.45 63.34 58.47 62.00 58.46 C 61.77 55.65 60.36 53.09 60.21 50.26 C 62.45 52.31 63.35 55.25 63.89 58.14 C 64.91 56.69 65.91 55.22 66.95 53.78 C 65.97 52.89 65.01 52.00 64.06 51.10 Z" />
<path fill="#ffffff" opacity="1.00" d=" M 56.66 42.29 C 56.99 42.41 57.67 42.64 58.01 42.76 C 58.97 45.31 60.15 47.79 60.68 50.48 C 58.23 49.81 58.45 47.22 58.01 45.23 C 57.46 45.66 56.37 46.54 55.82 46.97 C 54.14 51.46 52.16 55.83 50.30 60.25 C 47.52 59.26 45.49 57.08 43.29 55.23 C 44.25 60.10 44.69 65.13 46.55 69.77 C 55.08 67.63 63.90 67.12 72.58 65.75 C 76.65 65.36 81.52 64.08 84.74 67.44 C 81.80 67.50 78.86 67.34 75.93 67.54 C 65.21 69.23 54.39 70.88 43.50 70.55 C 44.52 62.77 39.83 55.95 39.28 48.42 C 42.95 51.39 45.63 55.40 49.31 58.39 C 51.51 52.90 53.37 47.27 56.66 42.29 Z" />
<path fill="#ffffff" opacity="1.00" d=" M 64.27 80.19 C 69.93 75.47 77.51 73.21 84.82 73.39 C 82.59 75.49 79.58 75.40 76.75 75.72 C 73.41 76.72 70.31 78.45 67.56 80.58 C 63.12 83.97 58.02 86.30 53.44 89.46 C 53.38 90.26 53.26 91.86 53.20 92.66 C 55.84 89.87 59.23 88.08 62.58 86.31 C 61.50 89.18 58.52 90.43 56.15 92.06 C 56.43 93.07 56.71 94.08 56.97 95.10 C 55.97 94.53 54.98 93.95 54.00 93.37 C 49.48 94.98 46.41 98.53 43.11 101.80 C 43.51 103.23 43.92 104.66 44.45 106.04 C 42.62 106.63 41.89 108.48 40.91 109.96 C 40.37 109.03 39.83 108.11 39.28 107.19 C 34.85 106.61 31.21 109.35 27.54 111.36 C 24.01 113.29 22.53 117.55 18.79 119.25 C 18.40 118.38 17.62 116.65 17.23 115.78 C 15.66 117.99 14.37 120.42 12.41 122.32 C 9.67 124.81 9.58 128.78 9.05 132.19 C 6.91 125.74 10.89 119.61 14.51 114.58 C 17.86 111.72 21.99 109.57 26.28 108.59 C 30.85 108.57 35.44 107.00 38.48 103.48 C 42.65 101.11 43.44 95.92 47.00 92.98 C 49.60 90.55 51.54 87.47 54.42 85.36 C 57.74 83.70 61.33 82.52 64.27 80.19 M 20.24 114.71 C 19.32 115.41 19.01 116.30 19.32 117.37 C 21.07 118.54 22.80 113.84 20.24 114.71 Z" />
<path fill="#ffffff" opacity="1.00" d=" M 85.26 74.44 C 89.61 73.76 93.35 76.41 97.41 77.44 C 100.58 78.09 102.79 80.51 105.35 82.27 C 105.36 81.50 105.38 79.95 105.39 79.17 C 107.81 80.24 110.27 81.23 112.54 82.59 C 114.74 83.82 115.55 86.37 116.86 88.37 C 116.31 88.96 115.77 89.55 115.22 90.14 C 119.00 93.55 119.23 99.00 121.83 103.19 C 122.38 108.24 124.55 113.05 124.37 118.17 C 124.02 118.68 123.31 119.70 122.95 120.21 C 120.76 116.38 120.93 111.84 120.25 107.61 C 119.30 103.96 118.19 100.24 115.85 97.21 C 114.50 95.61 114.16 93.52 113.41 91.63 C 111.19 89.83 108.79 88.22 107.31 85.69 C 99.77 82.33 92.02 79.24 85.26 74.44 Z" />
<path fill="#ffffff" opacity="1.00" d=" M 77.07 78.28 C 80.53 78.34 75.51 81.17 77.07 78.28 Z" />
<path fill="#ffffff" opacity="1.00" d=" M 68.25 87.25 C 70.61 86.37 69.47 90.06 67.78 89.87 C 66.36 89.61 67.32 87.55 68.25 87.25 Z" />
<path fill="#ffffff" opacity="1.00" d=" M 72.72 99.92 C 73.55 99.71 74.38 99.50 75.20 99.28 C 75.64 100.13 76.09 100.99 76.55 101.83 C 77.52 101.42 79.47 100.60 80.44 100.19 C 79.81 101.48 79.19 102.77 78.58 104.06 C 79.90 103.57 81.22 103.08 82.55 102.60 C 81.63 104.36 80.59 106.06 79.76 107.86 C 82.01 106.39 83.75 104.33 85.79 102.59 C 84.82 104.87 83.50 107.02 83.00 109.47 C 85.01 108.22 86.68 106.53 88.22 104.75 C 88.61 105.09 89.38 105.79 89.77 106.14 C 88.10 107.69 86.43 109.25 85.00 111.03 C 83.75 110.61 82.51 110.18 81.27 109.76 C 81.58 110.46 82.20 111.86 82.52 112.56 C 86.17 111.94 90.02 113.57 93.28 111.22 C 91.52 113.63 92.07 117.49 89.04 118.87 C 87.19 119.94 85.26 120.87 83.22 121.50 C 84.05 122.17 84.86 122.85 85.66 123.56 C 80.95 124.33 78.30 118.92 78.19 114.94 C 75.90 114.09 73.64 113.15 71.38 112.23 C 72.46 112.31 74.62 112.45 75.71 112.53 C 76.01 111.37 76.29 110.21 76.56 109.04 C 77.56 109.26 78.57 109.48 79.57 109.69 C 79.48 107.60 79.41 105.44 78.13 103.67 C 77.70 104.52 76.85 106.22 76.43 107.07 C 75.28 106.04 74.12 105.02 72.92 104.06 C 73.53 105.94 74.26 107.80 74.72 109.73 C 73.29 109.65 71.87 109.57 70.44 109.52 C 72.24 106.62 72.70 103.27 72.72 99.92 M 80.33 111.29 C 78.70 111.20 78.68 114.04 80.35 113.93 C 82.09 114.07 81.94 111.27 80.33 111.29 M 79.58 116.09 C 79.83 116.87 80.33 118.43 80.58 119.20 C 84.40 120.70 86.99 116.92 89.95 115.14 C 86.75 112.48 82.41 113.34 79.58 116.09 Z" />
<path fill="#ffffff" opacity="1.00" d=" M 27.38 118.13 C 27.66 115.04 30.59 114.19 33.26 114.32 C 31.73 116.18 29.54 117.19 27.38 118.13 Z" />
<path fill="#ffffff" opacity="1.00" d=" M 83.06 115.33 C 85.02 114.54 84.97 117.34 83.27 117.52 C 81.31 118.49 81.37 115.47 83.06 115.33 Z" />
<path fill="#ffffff" opacity="1.00" d=" M 62.38 117.06 C 63.79 117.64 63.76 118.24 62.29 118.87 C 60.90 118.34 60.93 117.74 62.38 117.06 Z" />
<path fill="#ffffff" opacity="1.00" d=" M 65.59 122.14 C 66.14 121.26 66.69 120.38 67.24 119.50 C 67.71 121.85 68.26 124.18 68.44 126.58 C 69.73 126.13 71.03 125.72 72.34 125.34 C 70.46 126.35 68.48 127.18 66.50 127.98 C 66.48 125.99 66.75 123.88 65.59 122.14 Z" />
<path fill="#ffffff" opacity="1.00" d=" M 124.35 121.27 C 126.12 121.52 125.91 125.59 123.83 124.72 C 122.95 123.82 123.19 121.81 124.35 121.27 Z" />
<path fill="#ffffff" opacity="1.00" d=" M 108.17 122.32 C 109.56 122.37 109.62 124.83 108.18 124.84 C 106.77 124.80 106.75 122.35 108.17 122.32 Z" />
<path fill="#ffffff" opacity="1.00" d=" M 87.44 133.42 C 90.01 129.91 89.65 125.22 92.18 121.73 C 92.43 123.83 92.37 125.95 92.18 128.06 C 93.02 128.50 93.86 128.94 94.70 129.37 C 94.69 132.72 94.03 136.41 96.65 139.01 C 95.38 140.50 94.15 142.03 92.73 143.38 C 93.31 141.92 94.05 140.54 94.83 139.18 C 93.65 137.46 92.22 135.77 92.19 133.58 C 91.75 133.57 90.86 133.54 90.42 133.53 C 90.53 134.22 90.76 135.61 90.87 136.30 C 88.55 136.97 86.85 138.57 85.34 140.38 C 82.44 141.92 79.30 143.00 75.97 142.63 C 76.59 141.09 77.25 139.56 77.94 138.04 C 79.11 139.11 80.29 140.16 81.58 141.08 C 80.61 139.71 79.48 138.48 78.36 137.24 C 79.59 134.99 80.69 132.69 81.84 130.40 C 82.11 131.17 82.65 132.70 82.91 133.46 C 82.17 134.29 81.42 135.11 80.67 135.94 C 81.54 137.11 82.42 138.28 83.32 139.43 C 83.28 138.07 83.21 136.71 83.15 135.36 C 85.20 135.34 87.25 135.38 89.29 135.67 C 88.67 134.92 88.06 134.17 87.44 133.42 Z" />
<path fill="#ffffff" opacity="1.00" d=" M 93.35 128.18 C 94.04 126.04 94.47 123.44 97.00 122.76 C 96.65 125.09 96.34 128.01 93.35 128.18 Z" />
<path fill="#ffffff" opacity="1.00" d=" M 15.50 129.68 C 14.44 126.37 17.39 124.68 19.86 123.33 C 20.35 123.76 21.31 124.61 21.80 125.03 C 21.71 125.65 21.54 126.87 21.45 127.48 C 19.48 128.24 17.49 128.95 15.50 129.68 Z" />
<path fill="#ffffff" opacity="1.00" d=" M 82.05 127.64 C 83.41 126.58 84.75 125.51 86.11 124.47 C 86.27 125.19 86.59 126.62 86.75 127.34 C 85.18 127.45 83.62 127.53 82.05 127.64 Z" />
<path fill="#ffffff" opacity="1.00" d=" M 45.58 138.62 C 50.43 136.02 52.42 130.62 56.09 126.80 C 56.32 127.84 56.54 128.89 56.78 129.93 C 55.96 130.79 55.12 131.64 54.29 132.50 C 55.19 133.01 56.11 133.51 57.02 134.01 C 53.41 134.22 51.54 138.72 47.63 137.43 C 47.57 138.32 47.52 139.22 47.46 140.12 C 44.48 140.99 41.53 141.95 38.51 142.66 C 39.33 139.42 43.15 139.90 45.58 138.62 Z" />
<path fill="#ffffff" opacity="1.00" d=" M 113.77 127.78 C 115.18 129.30 116.79 130.61 118.50 131.78 C 117.55 131.26 115.65 130.22 114.70 129.70 C 115.52 131.78 116.47 133.80 117.47 135.80 C 119.13 134.85 120.83 133.99 122.61 133.30 C 122.62 135.62 122.85 137.94 122.66 140.26 C 123.83 140.98 124.99 141.73 126.19 142.42 C 125.49 141.31 123.82 140.59 123.96 139.10 C 125.59 137.98 127.26 139.43 128.96 139.54 C 132.14 139.03 135.12 137.73 138.23 136.98 C 143.51 136.06 148.84 135.52 154.11 134.56 C 159.55 134.28 164.99 131.48 170.37 133.87 C 168.73 135.21 167.34 137.10 165.34 137.86 C 163.11 137.69 160.88 137.69 158.65 137.60 C 159.73 138.51 160.78 139.46 161.82 140.42 C 161.50 139.87 160.86 138.78 160.54 138.23 C 161.95 138.27 164.78 138.34 166.19 138.37 C 165.14 139.72 164.09 141.06 163.04 142.40 C 165.35 138.32 170.22 138.66 174.17 137.61 C 172.48 137.53 169.71 139.18 168.83 137.06 C 169.35 133.47 173.59 134.99 176.10 134.70 C 176.77 136.46 177.42 138.22 177.97 140.02 C 175.00 140.92 172.16 142.49 169.00 142.52 C 163.19 142.93 157.53 144.56 151.70 144.76 C 149.20 144.81 147.30 147.22 144.72 146.70 C 136.57 146.25 128.35 147.15 120.25 145.91 C 115.24 145.21 110.09 145.86 105.13 144.88 C 103.53 142.30 107.38 140.30 107.30 137.65 C 107.31 135.03 107.57 132.43 107.74 129.83 C 109.20 130.21 110.68 130.56 112.16 130.88 C 111.47 132.28 110.77 133.66 110.12 135.07 C 111.44 135.65 112.76 136.24 114.08 136.82 C 112.19 134.00 111.94 130.70 113.77 127.78 M 108.47 135.29 C 107.76 136.42 108.02 138.56 109.50 138.94 C 111.56 138.67 110.36 134.41 108.47 135.29 M 114.90 139.89 C 113.31 139.58 111.73 139.29 110.13 139.07 C 111.38 140.11 112.67 141.09 113.97 142.07 C 115.88 139.41 118.87 137.97 121.25 135.82 C 118.80 136.58 116.73 138.13 114.90 139.89 Z" />
<path fill="#ffffff" opacity="1.00" d=" M 57.97 135.12 C 60.22 132.34 63.32 130.30 66.78 129.39 C 65.54 131.46 64.22 133.49 63.31 135.74 C 61.54 135.41 59.75 135.28 57.97 135.12 Z" />
<path fill="#ffffff" opacity="1.00" d=" M 7.43 132.33 C 10.05 131.88 11.86 133.86 13.76 135.30 C 11.68 136.69 9.36 137.73 6.86 137.96 C 6.52 137.26 5.85 135.84 5.52 135.14 C 6.00 134.44 6.96 133.03 7.43 132.33 Z" />
<path fill="#ffffff" opacity="1.00" d=" M 9.39 137.68 C 11.73 137.41 14.19 137.31 16.09 138.93 C 19.01 141.48 22.56 137.48 25.60 139.23 C 29.71 141.14 34.31 141.23 38.74 141.60 C 36.92 142.74 35.24 144.59 32.92 144.54 C 30.66 144.35 28.51 143.56 26.28 143.29 C 24.00 144.15 21.70 145.66 19.19 145.40 C 15.18 144.00 10.07 142.67 9.39 137.68 Z" />
<path fill="#ffffff" opacity="1.00" d=" M 58.23 138.99 C 59.75 137.77 62.03 140.43 59.79 141.19 C 58.09 142.52 56.13 140.03 58.23 138.99 Z" />
<path fill="#ffffff" opacity="1.00" d=" M 54.50 141.95 C 55.32 140.77 57.44 142.05 56.41 143.27 C 55.60 144.56 53.55 143.16 54.50 141.95 Z" />
<path fill="#ffffff" opacity="1.00" d=" M 44.60 144.82 C 46.11 144.45 47.58 143.98 49.03 143.42 C 49.29 143.58 49.81 143.90 50.07 144.06 C 47.97 145.12 45.91 146.28 44.08 147.76 C 44.26 146.78 44.43 145.80 44.60 144.82 Z" />
<path fill="#ffffff" opacity="1.00" d=" M 38.43 146.12 C 39.43 145.42 40.42 144.69 41.42 143.99 C 41.93 144.99 42.43 146.00 42.92 147.01 C 42.03 146.58 41.14 146.14 40.26 145.70 C 40.46 147.31 40.44 148.93 40.30 150.55 C 41.01 150.65 42.42 150.84 43.12 150.94 C 42.00 151.55 40.17 152.82 42.15 153.77 C 44.94 152.77 47.60 151.43 50.47 150.64 C 49.36 147.72 51.45 145.04 53.64 143.31 C 53.73 145.72 53.40 148.13 52.69 150.44 C 51.47 151.51 50.11 152.42 48.84 153.43 C 52.48 153.74 56.14 153.50 59.78 153.78 C 61.15 152.58 62.50 151.36 63.85 150.13 C 64.58 150.35 65.31 150.57 66.05 150.79 C 70.20 149.72 72.87 145.88 77.06 145.07 C 75.74 150.25 70.19 151.59 66.38 154.41 C 60.96 157.58 54.51 159.01 49.98 163.64 C 49.35 163.12 48.73 162.62 48.10 162.11 C 49.25 160.37 50.39 158.61 51.69 156.98 C 48.62 159.32 45.01 160.79 41.67 162.68 C 41.46 162.03 41.03 160.73 40.82 160.08 C 42.38 159.15 43.94 158.24 45.46 157.24 C 42.80 157.31 40.16 157.63 37.52 157.89 C 37.50 157.30 37.46 156.12 37.44 155.53 C 41.03 155.07 39.40 151.71 39.60 149.28 C 39.63 148.12 38.84 147.15 38.43 146.12 Z" />
<path fill="#ffffff" opacity="1.00" d=" M 93.94 144.01 C 97.11 145.56 100.74 143.98 103.93 145.12 C 104.46 146.43 104.94 147.75 105.47 149.06 C 102.29 152.68 99.25 157.09 94.34 158.38 C 91.64 158.96 89.89 161.15 87.86 162.81 C 87.74 161.81 87.51 159.82 87.40 158.82 C 88.93 157.60 90.35 156.22 91.36 154.53 C 86.95 156.50 83.69 160.50 78.88 161.80 C 77.16 161.18 75.90 159.71 74.42 158.67 C 69.34 161.05 63.60 160.17 58.33 161.84 C 61.29 157.83 66.68 158.88 70.49 156.27 C 70.45 157.31 69.26 159.06 71.00 159.24 C 71.96 158.79 72.82 158.19 73.59 157.45 C 74.71 157.46 75.83 157.48 76.95 157.47 C 76.71 156.01 76.43 154.55 76.16 153.09 C 78.43 151.66 80.57 149.86 83.28 149.33 C 87.21 148.41 90.52 146.03 93.94 144.01 M 77.89 156.93 C 79.79 158.75 82.17 156.30 84.23 155.91 C 83.35 155.28 82.48 154.65 81.61 154.02 C 80.31 154.91 78.99 155.80 77.89 156.93 M 76.92 158.34 C 76.51 159.64 77.05 160.10 78.54 159.71 C 78.96 158.37 78.42 157.91 76.92 158.34 Z" />
</g>
</svg>
