<?xml version="1.0" encoding="UTF-8" ?>
<!DOCTYPE svg PUBLIC "-//W3C//DTD SVG 1.1//EN" "http://www.w3.org/Graphics/SVG/1.1/DTD/svg11.dtd">
<svg width="128pt" height="128pt" viewBox="0 0 128 128" version="1.1" xmlns="http://www.w3.org/2000/svg">
<g id="#ffffffff">
<path fill="#ffffff" opacity="1.00" d=" M 103.45 9.88 C 104.81 9.21 106.19 8.56 107.59 7.98 C 109.15 16.45 108.95 26.24 103.49 33.37 C 105.14 34.89 106.82 36.38 108.43 37.94 C 109.45 35.93 110.45 33.91 111.54 31.93 C 110.71 33.95 109.80 35.94 108.93 37.94 C 110.49 39.35 111.84 41.71 114.24 41.57 C 116.47 41.53 119.27 41.19 120.36 43.68 C 120.78 45.75 122.49 48.94 120.05 50.32 C 117.17 50.26 114.34 50.65 111.69 51.82 C 110.04 51.57 108.51 50.82 106.94 50.28 C 106.32 51.32 105.73 52.37 105.13 53.42 C 103.83 52.07 102.53 50.75 101.20 49.44 C 100.99 49.56 100.58 49.80 100.38 49.91 C 101.05 50.35 102.37 51.24 103.04 51.68 C 101.25 56.85 98.37 61.69 93.99 65.07 C 91.24 68.01 86.48 68.77 85.19 73.02 C 84.58 72.85 83.38 72.50 82.77 72.33 C 83.03 75.91 82.00 79.59 83.47 83.00 C 83.26 86.37 83.63 89.72 83.84 93.07 C 83.16 98.76 83.21 104.61 84.91 110.12 C 81.83 110.73 78.78 111.72 75.61 111.65 C 74.54 108.56 73.83 105.32 74.43 102.05 C 73.99 101.84 73.13 101.44 72.69 101.24 C 72.31 105.19 72.14 109.20 73.33 113.05 C 72.09 113.92 70.82 114.75 69.56 115.58 C 68.93 113.62 67.70 111.85 67.40 109.80 C 67.39 102.60 64.37 95.60 65.59 88.37 C 63.97 84.89 64.15 80.92 62.57 77.45 C 58.13 73.08 51.87 71.04 45.79 70.41 C 46.20 69.87 47.03 68.79 47.44 68.25 C 45.46 68.77 43.46 69.32 41.40 69.43 C 41.40 69.73 41.38 70.31 41.37 70.61 C 42.81 69.97 44.25 69.32 45.73 68.78 C 46.02 74.65 41.50 78.99 37.63 82.75 C 37.55 85.36 37.11 88.27 34.93 90.01 C 32.54 91.77 31.41 95.38 33.34 97.90 C 33.28 96.86 33.16 94.77 33.09 93.73 C 36.08 96.97 37.70 101.14 40.43 104.56 C 42.10 106.74 43.52 109.09 44.96 111.43 C 42.76 112.20 40.50 112.74 38.18 112.94 C 36.60 110.54 35.53 107.46 32.61 106.38 C 29.70 105.14 29.43 101.78 28.03 99.33 C 27.39 102.73 26.98 106.21 25.29 109.31 C 24.53 112.43 20.62 111.36 18.28 111.43 C 18.68 109.63 19.43 107.94 20.42 106.39 C 20.69 103.95 20.87 101.51 21.34 99.10 C 20.75 98.18 19.95 97.43 19.25 96.61 C 19.96 94.23 20.38 91.79 20.28 89.30 C 20.92 89.16 22.21 88.88 22.85 88.74 C 22.04 88.22 21.23 87.69 20.42 87.17 C 21.26 85.18 22.22 83.21 22.73 81.10 C 22.06 78.66 21.25 76.25 20.78 73.75 C 21.36 73.37 22.52 72.60 23.10 72.22 C 21.61 71.44 20.13 70.63 18.81 69.60 C 17.37 70.04 15.94 70.48 14.51 70.92 C 14.04 70.07 13.59 69.21 13.16 68.35 C 11.21 70.19 8.51 69.83 6.11 69.29 C 9.13 66.11 12.05 62.86 15.09 59.71 C 14.64 57.86 14.05 56.05 13.43 54.24 C 15.99 51.54 17.54 47.62 21.31 46.35 C 24.95 45.42 28.43 43.85 32.15 43.27 C 34.57 43.35 36.48 45.12 38.59 46.12 C 42.81 47.15 47.26 47.40 51.13 49.39 C 56.45 46.97 62.39 47.07 68.11 47.60 C 71.28 47.57 74.46 47.31 77.50 48.41 C 78.04 49.72 77.68 52.15 79.74 51.89 C 82.71 47.69 86.57 44.27 90.19 40.65 C 88.76 36.86 86.67 33.39 84.89 29.78 C 83.68 26.97 86.44 24.68 88.09 22.79 C 88.46 23.37 89.19 24.53 89.56 25.11 C 88.48 26.01 87.49 27.00 86.91 28.29 C 88.59 27.76 90.19 27.02 91.79 26.29 C 93.90 27.89 96.53 31.99 99.41 29.62 C 103.39 24.00 106.41 16.67 103.45 9.88 M 119.22 45.14 C 119.86 45.78 119.86 45.78 119.22 45.14 M 22.02 50.34 C 20.63 53.33 25.47 50.20 22.02 50.34 M 20.34 63.15 C 24.16 60.41 27.09 56.76 30.14 53.23 C 30.98 53.91 31.82 54.58 32.68 55.25 C 32.30 54.75 31.54 53.77 31.17 53.28 C 31.36 52.36 31.75 50.54 31.95 49.63 C 26.36 52.38 23.64 58.24 20.34 63.15 M 53.84 60.28 C 55.00 59.93 56.15 59.58 57.31 59.23 C 57.52 58.19 57.73 57.15 57.94 56.11 C 56.16 57.07 54.50 58.27 53.84 60.28 M 95.15 59.15 C 95.80 59.78 95.80 59.78 95.15 59.15 M 15.62 67.15 C 14.30 68.60 16.78 69.82 17.58 68.30 C 18.98 66.85 16.38 65.55 15.62 67.15 M 74.38 88.96 C 74.85 89.13 75.81 89.48 76.28 89.65 C 76.25 87.39 76.31 85.13 76.29 82.87 C 75.40 84.81 74.65 86.83 74.38 88.96 M 26.29 97.95 C 26.41 101.36 29.25 96.38 26.29 97.95 M 76.18 104.54 C 76.42 106.72 76.13 109.41 78.68 110.28 C 78.69 108.17 78.58 106.06 78.48 103.96 C 77.91 104.10 76.76 104.39 76.18 104.54 Z" />
</g>
</svg>
