<?xml version="1.0" encoding="UTF-8" ?>
<!DOCTYPE svg PUBLIC "-//W3C//DTD SVG 1.1//EN" "http://www.w3.org/Graphics/SVG/1.1/DTD/svg11.dtd">
<svg width="64pt" height="128pt" viewBox="0 0 64 128" version="1.1" xmlns="http://www.w3.org/2000/svg">
<g id="#ffffffff">
<path fill="#ffffff" opacity="1.00" d=" M 42.18 21.13 C 43.70 19.05 44.49 16.44 46.49 14.72 C 45.44 22.57 39.60 28.65 36.76 35.89 C 40.92 30.37 44.95 24.70 49.86 19.82 C 51.31 18.26 53.33 17.45 55.29 16.73 C 51.83 22.88 46.55 27.84 42.62 33.72 C 45.32 32.23 48.52 31.86 50.89 29.77 C 54.31 28.01 57.34 25.44 61.06 24.36 C 59.55 27.08 56.52 28.23 54.35 30.30 C 54.50 31.20 54.68 32.10 54.90 32.99 C 56.57 32.24 58.22 31.44 59.94 30.81 C 57.06 35.11 51.41 36.51 47.71 40.09 C 53.29 38.02 57.86 33.56 63.70 32.30 C 62.03 35.56 58.05 36.15 55.38 38.34 C 51.81 41.27 47.56 43.20 43.94 46.08 C 47.38 44.87 50.71 42.88 54.49 43.95 C 53.36 44.89 52.20 45.80 51.03 46.68 C 52.57 46.57 54.11 46.50 55.65 46.47 C 54.04 48.88 51.03 49.30 48.53 50.31 C 50.12 50.43 51.72 50.52 53.30 50.75 C 51.70 51.78 50.01 52.67 48.35 53.61 C 50.07 53.70 51.78 53.82 53.49 53.97 C 51.16 55.71 48.36 56.53 45.74 57.70 C 48.31 57.70 50.87 57.55 53.44 57.41 C 52.76 58.37 52.04 59.30 51.32 60.23 C 51.76 60.99 52.19 61.74 52.63 62.50 C 51.34 63.61 50.24 64.92 48.94 66.02 C 44.32 67.48 39.51 68.24 34.82 69.44 C 40.20 69.90 45.34 67.82 50.69 67.80 C 49.67 70.72 46.07 70.03 43.69 71.09 C 45.93 71.32 48.19 71.40 50.43 71.61 C 49.66 72.99 48.96 74.40 48.07 75.71 C 46.69 75.73 45.32 75.64 43.95 75.58 C 45.04 76.35 46.10 77.14 47.16 77.95 C 46.14 78.23 44.10 78.79 43.07 79.06 C 44.61 79.74 46.17 80.35 47.67 81.12 C 45.81 81.36 43.94 81.53 42.06 81.61 C 43.21 83.19 44.34 84.78 45.42 86.42 C 43.95 86.43 42.48 86.44 41.01 86.43 C 40.87 87.59 40.72 88.76 40.58 89.92 C 37.35 88.73 34.16 87.45 30.93 86.27 C 33.67 87.87 37.31 88.53 38.72 91.72 C 36.80 91.28 34.93 90.71 33.04 90.17 C 34.66 91.48 35.80 93.81 38.11 93.89 C 43.27 94.27 48.29 95.59 53.43 96.19 C 53.01 98.35 53.68 100.45 54.19 102.53 C 50.17 103.46 46.44 101.58 42.74 100.34 C 45.39 101.98 48.30 103.14 51.33 103.87 C 50.76 104.59 49.61 106.02 49.03 106.73 C 42.38 105.71 37.77 99.43 30.87 99.38 C 37.89 101.10 42.52 106.94 46.13 112.80 C 40.21 112.93 41.26 104.19 35.23 104.68 C 36.32 107.64 38.54 109.81 40.74 111.95 C 39.60 111.57 38.48 111.14 37.37 110.69 C 37.51 111.55 37.77 113.28 37.91 114.14 C 35.89 112.59 36.14 109.92 35.31 107.76 C 33.40 104.96 29.65 106.00 26.83 105.13 C 19.26 104.28 13.97 97.10 12.78 90.00 C 12.22 88.30 13.52 87.17 14.82 86.38 C 13.40 86.43 11.93 86.44 10.90 85.29 C 8.32 83.11 4.96 82.11 2.49 79.79 C 6.60 78.28 11.02 78.94 15.26 79.44 C 10.69 74.46 6.65 68.90 0.87 65.21 C 1.75 65.27 3.51 65.38 4.40 65.43 C 3.65 64.12 2.93 62.80 2.24 61.46 C 3.95 62.18 7.15 61.56 6.94 64.23 C 8.92 62.64 11.10 61.31 13.47 60.36 C 12.28 63.75 8.69 65.37 7.90 68.99 C 10.71 71.91 13.69 74.68 15.99 78.04 C 16.68 79.40 18.30 79.40 19.57 79.83 C 20.38 78.83 21.19 77.83 21.99 76.82 C 19.72 75.86 17.27 75.11 15.43 73.39 C 18.27 73.65 20.83 75.02 23.56 75.70 C 23.49 75.01 23.34 73.64 23.26 72.95 C 19.93 72.62 16.49 72.64 13.31 71.44 C 16.75 71.06 20.25 71.22 23.49 72.51 C 23.70 66.08 21.66 59.76 22.39 53.38 C 24.99 46.13 29.43 39.77 33.07 33.04 C 34.87 29.59 37.07 26.37 39.06 23.03 C 39.69 21.90 41.19 21.84 42.18 21.13 M 12.07 80.88 C 11.63 82.53 12.21 83.12 13.80 82.66 C 14.23 81.01 13.65 80.42 12.07 80.88 Z" />
<path fill="#ffffff" opacity="1.00" d=" M 4.07 58.60 C 5.48 58.23 7.04 60.65 6.11 61.80 C 4.49 62.41 3.24 59.82 4.07 58.60 Z" />
<path fill="#ffffff" opacity="1.00" d=" M 10.21 66.20 C 13.76 64.74 17.89 66.60 21.58 67.03 C 21.61 67.52 21.67 68.49 21.70 68.97 C 17.51 70.34 12.99 69.22 9.09 67.45 C 9.37 67.14 9.93 66.51 10.21 66.20 Z" />
<path fill="#ffffff" opacity="1.00" d=" M 45.26 109.03 C 48.33 107.49 45.34 112.40 45.26 109.03 Z" />
</g>
</svg>
