<?xml version="1.0" encoding="UTF-8" ?>
<!DOCTYPE svg PUBLIC "-//W3C//DTD SVG 1.1//EN" "http://www.w3.org/Graphics/SVG/1.1/DTD/svg11.dtd">
<svg width="128pt" height="128pt" viewBox="0 0 128 128" version="1.1" xmlns="http://www.w3.org/2000/svg">
<g id="#ffffffff">
<path fill="#ffffff" opacity="1.00" d=" M 90.48 1.67 C 94.28 0.89 97.84 2.02 101.08 3.97 C 104.64 7.44 104.76 13.16 108.66 16.36 C 110.17 18.01 112.28 18.80 114.32 19.58 C 115.23 23.60 119.23 25.44 121.79 28.28 C 121.11 28.63 119.75 29.34 119.07 29.69 C 112.31 24.09 105.43 18.50 97.71 14.26 C 95.41 12.92 92.69 13.23 90.16 13.40 C 89.39 17.17 92.05 20.12 93.73 23.19 C 97.60 29.72 98.75 38.03 96.26 45.24 C 94.82 49.89 94.38 54.86 91.96 59.16 C 89.73 59.02 88.38 60.59 87.37 62.35 C 86.35 62.58 85.36 62.87 84.37 63.20 C 82.60 66.10 81.67 69.50 79.29 72.01 C 78.74 70.70 78.23 69.39 77.73 68.06 C 79.60 66.51 81.64 64.98 82.39 62.55 C 80.44 62.96 79.58 64.66 79.15 66.42 C 78.06 66.68 76.97 66.95 75.89 67.23 C 76.53 68.50 77.21 69.75 77.87 71.01 C 76.99 73.04 76.55 75.51 74.31 76.53 C 74.58 74.23 75.39 72.05 76.01 69.84 C 74.69 70.75 74.03 73.22 72.15 72.83 C 71.72 71.21 73.20 69.97 73.71 68.55 C 70.35 70.91 69.31 76.28 64.92 76.97 C 65.26 73.27 68.99 71.46 70.17 68.16 C 65.07 69.17 62.40 74.27 58.63 77.39 C 58.58 79.93 58.39 82.49 57.86 84.98 C 55.36 97.17 55.93 109.67 55.29 122.03 C 54.97 122.57 54.32 123.64 54.00 124.17 C 53.41 122.19 52.53 120.15 52.96 118.04 C 53.92 110.40 52.63 102.67 53.77 95.05 C 54.87 89.65 53.91 84.12 54.90 78.70 C 52.14 82.30 52.76 86.99 52.09 91.21 C 51.46 95.98 49.20 100.43 49.20 105.30 C 49.30 112.10 48.63 119.35 44.99 125.26 C 44.14 122.12 45.71 119.15 46.05 116.08 C 47.10 111.19 45.73 106.14 47.05 101.29 C 48.04 97.50 47.92 93.55 48.73 89.74 C 49.73 86.04 47.77 82.05 49.63 78.49 C 50.30 76.40 52.31 75.36 53.92 74.11 C 44.36 77.48 34.69 80.73 25.80 85.68 C 21.99 87.49 18.80 90.35 15.06 92.26 C 13.76 90.99 13.56 88.98 13.26 87.27 C 14.62 85.09 16.49 83.30 18.16 81.36 C 16.44 81.97 12.81 84.32 12.23 81.32 C 15.66 77.17 20.77 74.45 23.74 69.80 C 21.01 73.08 17.88 76.08 14.08 78.07 C 12.65 77.58 10.99 75.90 11.32 74.28 C 15.70 70.36 23.45 69.31 24.72 62.67 C 31.16 54.35 39.38 47.24 48.80 42.51 C 54.92 40.64 60.37 36.81 66.89 36.36 C 71.20 37.99 75.66 39.87 78.27 43.89 C 81.02 43.28 84.64 43.83 86.56 41.42 C 87.70 37.94 87.21 34.03 89.42 30.90 C 85.16 26.89 82.27 21.81 79.86 16.54 C 77.24 22.35 78.29 28.95 79.60 34.96 C 77.72 31.40 75.69 27.50 76.62 23.33 C 77.64 19.26 78.17 15.00 80.07 11.21 C 80.99 9.32 83.39 8.81 84.26 6.85 C 81.12 7.28 78.77 9.67 77.03 12.13 C 75.95 14.77 75.08 17.50 73.61 19.96 C 72.93 14.88 75.18 9.42 79.50 6.59 C 82.43 5.17 85.52 3.83 88.81 3.59 C 89.37 2.95 89.92 2.31 90.48 1.67 M 94.23 3.10 C 93.25 3.37 92.44 5.37 93.81 5.66 C 95.58 5.95 96.58 2.26 94.23 3.10 M 97.20 8.04 C 95.67 9.33 96.77 12.55 99.01 11.56 C 102.31 10.98 98.49 5.58 97.20 8.04 M 82.18 15.00 C 81.65 16.42 82.10 16.89 83.53 16.40 C 84.03 14.94 83.58 14.47 82.18 15.00 M 35.92 54.26 C 34.23 57.13 39.31 54.53 35.92 54.26 M 28.07 71.21 C 26.70 71.92 26.64 72.61 27.88 73.30 C 29.17 72.56 29.23 71.86 28.07 71.21 Z" />
<path fill="#ffffff" opacity="1.00" d=" M 71.17 73.83 C 73.01 73.90 72.34 76.46 70.97 76.74 C 69.49 76.73 69.76 73.72 71.17 73.83 Z" />
</g>
</svg>
