<?xml version="1.0" encoding="UTF-8" ?>
<!DOCTYPE svg PUBLIC "-//W3C//DTD SVG 1.1//EN" "http://www.w3.org/Graphics/SVG/1.1/DTD/svg11.dtd">
<svg width="128pt" height="128pt" viewBox="0 0 128 128" version="1.1" xmlns="http://www.w3.org/2000/svg">
<g id="#ffffffff">
<path fill="#ffffff" opacity="1.00" d=" M 82.24 19.47 C 85.17 20.24 87.75 19.07 89.99 17.22 C 94.21 17.62 98.42 19.75 100.34 23.65 C 101.82 28.34 103.61 33.05 103.56 38.04 C 100.65 37.14 100.44 34.01 99.34 31.66 C 99.82 34.09 100.85 36.47 100.59 39.00 C 100.44 40.82 100.43 42.68 101.47 44.27 C 101.50 42.36 101.37 40.45 101.19 38.55 C 101.93 38.56 103.42 38.58 104.16 38.59 C 105.76 43.95 108.05 49.15 111.08 53.86 C 113.76 57.96 119.33 59.59 120.76 64.56 C 121.58 66.79 123.85 68.02 124.82 70.17 C 125.67 71.87 126.19 73.71 126.87 75.48 C 118.04 72.74 113.56 63.89 105.96 59.28 C 107.61 58.64 109.24 57.93 110.83 57.15 C 108.71 57.65 106.53 57.74 104.36 57.61 C 101.09 55.35 98.63 52.20 96.32 49.01 C 96.69 46.95 97.13 44.86 96.95 42.75 C 96.69 44.53 96.45 46.32 96.23 48.11 C 92.20 44.39 90.81 38.62 86.40 35.24 C 86.81 38.92 88.36 42.28 89.93 45.59 C 91.07 47.83 89.52 50.81 91.54 52.66 C 91.04 53.40 90.54 54.14 90.05 54.89 C 91.18 57.16 93.75 58.02 95.25 59.81 C 96.23 64.89 99.65 68.94 101.22 73.80 C 102.48 77.59 105.89 80.28 106.69 84.23 C 106.96 87.93 105.87 91.50 104.78 94.98 C 104.20 98.26 100.86 99.99 97.96 100.87 C 95.89 100.88 93.74 99.82 91.76 100.78 C 88.76 101.98 85.68 102.97 82.58 103.89 C 81.52 101.91 81.02 99.32 78.87 98.18 C 74.63 98.26 68.67 100.55 66.11 95.90 C 62.65 97.75 59.12 99.47 55.49 100.98 C 55.43 99.01 55.37 97.04 55.26 95.08 C 62.00 92.55 67.70 87.71 74.87 86.30 C 66.60 87.54 59.31 92.11 51.78 95.47 C 51.13 95.47 49.82 95.48 49.17 95.49 C 49.58 94.10 50.12 92.75 50.74 91.45 C 47.70 92.07 44.51 95.42 41.60 93.09 C 43.58 91.51 45.89 90.21 47.21 87.96 C 42.97 88.80 39.18 91.18 34.85 91.62 C 33.64 91.71 32.14 92.18 31.44 90.83 C 31.50 89.63 31.61 88.43 31.74 87.23 C 30.08 88.32 28.44 89.56 26.41 89.83 C 26.39 88.15 26.06 85.68 28.19 85.15 C 32.82 83.23 36.82 80.10 41.48 78.24 C 43.47 77.54 45.03 76.10 46.26 74.43 C 44.74 75.41 43.31 76.51 41.87 77.60 C 41.28 77.63 40.69 77.67 40.10 77.71 C 33.88 81.21 27.46 84.41 20.91 87.26 C 20.68 86.30 20.45 85.33 20.23 84.37 C 21.62 83.45 23.01 82.55 24.38 81.61 C 24.00 81.31 23.24 80.70 22.86 80.39 C 20.11 81.20 17.59 82.60 14.95 83.68 C 13.18 83.64 11.42 83.49 9.64 83.49 C 9.54 80.18 8.98 76.69 10.77 73.70 C 7.11 75.22 4.87 78.83 1.19 80.18 C 1.54 79.01 1.13 77.21 2.58 76.68 C 6.97 74.74 10.36 71.22 14.73 69.24 C 14.32 70.97 13.81 72.67 13.52 74.43 C 14.33 72.58 14.78 70.59 15.66 68.78 C 17.31 67.47 19.49 67.26 21.38 66.44 C 29.95 61.72 39.49 59.32 48.64 56.00 C 49.09 56.88 49.53 57.76 49.96 58.66 C 53.14 57.79 56.01 59.61 58.49 61.37 C 63.91 64.07 69.33 66.78 74.82 69.34 C 81.13 71.98 87.63 74.17 93.90 76.93 C 92.53 71.53 89.37 66.90 87.13 61.89 C 84.76 51.99 78.73 43.28 77.61 33.03 C 77.84 30.39 78.22 27.76 78.55 25.14 C 79.64 23.16 81.07 21.40 82.24 19.47 M 89.46 29.94 C 89.89 31.21 90.40 32.44 91.00 33.64 C 92.82 32.86 94.62 32.04 96.41 31.21 C 95.69 29.25 94.71 27.40 93.07 26.06 C 91.70 27.18 90.11 28.21 89.46 29.94 M 86.04 48.60 C 85.62 50.03 86.09 50.56 87.46 50.19 C 87.88 48.78 87.41 48.25 86.04 48.60 M 99.24 49.22 C 99.81 49.82 99.81 49.82 99.24 49.22 M 37.09 66.96 C 40.87 66.34 46.41 66.14 47.35 61.43 C 43.59 62.50 40.14 64.54 37.09 66.96 M 46.04 65.58 C 45.63 66.98 46.12 67.47 47.53 67.04 C 47.94 65.62 47.45 65.14 46.04 65.58 M 68.39 71.07 C 66.34 71.21 65.24 73.08 63.88 74.36 C 66.61 73.54 69.36 72.81 72.13 72.15 C 70.90 71.73 69.68 71.26 68.39 71.07 M 83.40 75.83 C 82.72 77.27 85.14 78.36 86.18 77.55 C 86.85 76.17 84.41 74.98 83.40 75.83 M 97.35 77.05 C 96.43 78.12 97.80 80.32 99.17 79.53 C 100.20 78.51 98.62 76.32 97.35 77.05 M 66.53 78.45 C 65.56 78.49 63.82 79.53 64.55 80.66 C 65.83 81.63 68.82 78.96 66.53 78.45 M 27.44 79.22 C 26.27 79.02 24.46 80.25 25.31 81.52 C 26.66 82.54 30.05 79.73 27.44 79.22 M 90.44 91.07 C 90.35 94.48 93.45 89.66 90.44 91.07 M 76.49 94.19 C 74.94 93.99 72.73 97.13 75.49 96.67 C 77.40 97.35 79.21 93.83 76.49 94.19 M 83.08 95.37 C 83.21 96.48 83.33 97.58 83.45 98.69 C 85.67 98.57 87.90 98.18 89.78 96.91 C 87.47 96.76 85.15 96.49 83.08 95.37 M 80.14 97.26 C 80.77 97.89 80.77 97.89 80.14 97.26 Z" />
<path fill="#ffffff" opacity="1.00" d=" M 92.12 54.43 C 93.33 53.66 94.52 55.73 93.64 56.63 C 92.44 57.35 91.11 55.32 92.12 54.43 Z" />
<path fill="#ffffff" opacity="1.00" d=" M 6.47 79.19 C 7.03 79.25 8.14 79.37 8.70 79.42 C 8.85 80.11 9.16 81.49 9.31 82.18 C 8.56 82.17 7.05 82.16 6.30 82.15 C 6.34 81.41 6.43 79.93 6.47 79.19 Z" />
</g>
</svg>
