<?xml version="1.0" encoding="UTF-8" ?>
<!DOCTYPE svg PUBLIC "-//W3C//DTD SVG 1.1//EN" "http://www.w3.org/Graphics/SVG/1.1/DTD/svg11.dtd">
<svg width="128pt" height="64pt" viewBox="0 0 128 64" version="1.1" xmlns="http://www.w3.org/2000/svg">
<g id="#ffffffff">
<path fill="#ffffff" opacity="1.00" d=" M 23.53 4.68 C 27.40 3.15 31.33 1.66 35.45 0.93 C 36.62 2.22 38.00 3.27 39.47 4.20 C 38.43 7.08 36.15 9.00 33.50 10.37 C 35.93 12.76 38.85 14.52 41.75 16.26 C 46.24 18.95 50.16 22.48 53.55 26.47 C 57.51 29.28 61.92 31.39 66.06 33.93 C 69.20 35.66 72.18 38.16 75.94 38.26 C 79.72 38.39 83.67 38.74 87.28 37.36 C 93.05 35.34 98.58 32.18 104.77 31.70 C 105.11 32.24 105.80 33.31 106.15 33.85 C 97.53 39.70 87.29 42.40 77.57 45.82 C 83.53 48.50 88.27 53.27 94.41 55.58 C 101.81 58.47 109.48 60.89 117.43 61.58 C 114.49 64.01 110.47 62.39 107.14 61.89 C 102.20 60.29 97.10 59.25 92.16 57.68 C 85.67 55.02 79.20 52.30 72.88 49.24 C 68.80 46.95 64.24 49.84 59.95 49.72 C 61.28 47.21 64.19 46.56 66.37 45.07 C 64.35 45.75 62.45 46.75 60.46 47.53 C 60.35 51.54 55.93 51.87 52.94 52.81 C 46.77 50.37 42.25 59.24 35.86 56.36 C 38.42 53.69 41.82 52.15 44.89 50.18 C 42.83 46.54 38.49 49.22 35.36 47.60 C 28.36 45.57 23.70 39.34 20.70 33.04 C 19.96 30.77 18.59 28.28 19.65 25.88 C 20.75 22.97 21.21 19.87 21.46 16.78 C 19.28 17.35 17.17 18.09 15.03 18.78 C 14.91 18.07 14.66 16.64 14.54 15.92 C 16.57 14.51 18.71 13.25 20.77 11.89 C 19.90 9.11 20.92 6.08 23.53 4.68 M 22.51 10.55 C 24.81 8.80 26.78 6.67 28.83 4.65 C 26.01 5.70 23.11 7.32 22.51 10.55 M 24.87 12.45 C 26.01 13.08 27.14 13.73 28.27 14.39 C 29.21 12.74 31.84 10.41 29.33 8.84 C 26.78 6.96 25.29 10.43 24.87 12.45 M 36.21 16.42 C 35.61 17.61 37.27 19.64 38.54 18.92 C 39.20 17.70 37.46 15.80 36.21 16.42 M 36.35 25.40 C 35.94 26.71 36.46 29.50 38.12 29.59 C 38.89 28.29 37.85 25.60 36.35 25.40 M 23.34 26.40 C 25.17 31.81 28.83 36.30 31.95 41.00 C 29.54 35.90 26.94 30.78 23.34 26.40 M 99.39 34.31 C 98.50 34.35 96.30 35.81 97.96 36.47 C 99.49 37.12 102.24 33.81 99.39 34.31 M 53.75 35.73 C 53.31 37.34 53.90 37.91 55.51 37.46 C 55.93 35.83 55.34 35.25 53.75 35.73 M 68.73 39.64 C 70.70 40.42 72.68 41.30 74.77 41.73 C 76.15 41.30 77.41 40.57 78.64 39.84 C 75.31 39.83 71.99 40.82 68.73 39.64 M 41.44 45.64 C 43.72 46.85 46.15 47.99 48.71 46.80 C 47.02 46.22 45.31 45.67 43.62 45.10 C 43.51 44.25 43.28 42.55 43.17 41.69 C 42.61 43.02 42.08 44.35 41.44 45.64 Z" />
</g>
</svg>
