<?xml version="1.0" encoding="UTF-8" ?>
<!DOCTYPE svg PUBLIC "-//W3C//DTD SVG 1.1//EN" "http://www.w3.org/Graphics/SVG/1.1/DTD/svg11.dtd">
<svg width="180pt" height="180pt" viewBox="0 0 180 180" version="1.1" xmlns="http://www.w3.org/2000/svg">
<g id="#ffffffff">
<path fill="#ffffff" opacity="1.00" d=" M 128.04 18.19 C 130.01 15.52 131.22 11.36 135.09 11.09 C 135.26 11.90 135.59 13.51 135.76 14.32 C 135.37 14.74 134.58 15.58 134.19 15.99 C 135.22 15.41 136.27 14.83 137.32 14.27 C 137.00 16.12 136.66 18.01 135.70 19.65 C 133.12 24.60 130.91 29.80 127.62 34.33 C 126.97 34.49 125.68 34.80 125.03 34.96 C 125.80 33.14 126.73 31.39 127.35 29.51 C 122.79 35.37 119.10 41.90 115.48 48.37 C 112.21 51.62 110.43 55.94 107.80 59.65 C 104.06 64.75 101.89 70.77 98.32 75.98 C 101.34 74.90 102.20 71.61 103.86 69.20 C 106.45 63.80 109.73 58.75 112.21 53.29 C 113.44 53.41 114.68 53.53 115.92 53.66 C 115.29 53.34 114.02 52.70 113.39 52.38 C 117.35 46.93 120.66 41.02 124.30 35.35 C 125.11 35.30 126.72 35.21 127.52 35.16 C 119.97 48.84 112.16 62.38 104.86 76.20 C 107.33 78.40 110.70 78.93 113.52 80.52 C 116.14 82.24 119.02 83.58 122.02 84.49 C 123.41 84.20 124.66 83.50 125.97 82.99 C 126.87 84.10 127.75 85.21 128.65 86.32 C 133.10 85.83 137.23 87.91 141.57 88.46 C 144.79 89.08 149.66 91.72 147.71 95.65 C 145.51 96.72 144.63 93.83 143.02 92.91 C 140.96 91.88 138.69 91.37 136.42 91.01 C 137.80 93.72 142.09 94.05 142.02 97.63 C 139.16 97.67 136.30 97.43 133.46 97.72 C 133.14 96.18 132.83 94.64 132.51 93.10 C 129.64 94.13 126.82 96.90 123.61 95.49 C 121.57 95.26 117.61 93.58 120.56 91.54 C 124.39 93.67 128.88 92.39 132.96 91.83 C 132.80 91.27 132.49 90.15 132.33 89.59 C 128.67 89.15 125.10 89.76 121.61 90.88 C 121.57 89.97 121.49 88.15 121.46 87.24 C 120.30 88.40 119.39 89.98 117.88 90.67 C 115.78 90.61 113.69 90.46 111.59 90.39 C 111.44 96.01 108.67 101.33 109.88 107.04 C 111.09 105.67 112.25 104.25 113.36 102.80 C 112.78 105.44 114.83 107.38 115.79 109.61 C 119.17 109.67 122.52 110.31 125.86 110.75 C 136.10 114.16 146.89 115.30 157.53 116.79 C 157.38 116.20 157.08 115.01 156.93 114.42 C 154.55 114.21 152.05 113.18 149.84 114.61 C 146.89 111.01 141.83 113.13 138.29 110.70 C 136.19 109.67 134.10 108.45 133.74 105.95 C 133.10 109.76 128.86 110.43 125.75 109.38 C 120.27 108.80 117.00 103.94 115.10 99.26 C 116.12 100.63 117.00 102.29 118.76 102.82 C 123.16 104.49 128.02 107.54 132.73 105.29 C 130.37 102.91 127.24 102.29 124.04 102.06 C 121.96 102.17 120.73 99.38 123.05 98.56 C 126.81 98.27 130.77 99.02 133.99 101.04 C 136.79 103.53 139.05 106.73 142.41 108.53 C 145.70 108.94 149.09 108.65 152.27 109.75 C 157.32 111.32 162.33 113.27 167.67 113.59 C 167.83 113.94 168.16 114.65 168.32 115.00 C 166.66 117.83 164.07 121.53 160.25 120.73 C 153.20 119.70 145.99 119.78 139.09 117.88 C 133.75 116.54 127.97 116.37 123.19 113.37 C 120.82 115.35 117.74 114.03 115.03 113.74 C 116.75 117.25 119.66 119.89 122.22 122.77 C 130.40 132.25 140.05 140.27 148.63 149.36 C 152.35 153.31 156.97 156.34 160.45 160.55 C 162.71 163.26 166.55 164.90 167.22 168.69 C 166.49 168.75 165.04 168.86 164.32 168.91 C 158.08 162.92 151.37 157.46 144.94 151.67 C 146.80 154.81 149.67 157.12 151.91 159.96 C 151.60 161.88 149.19 162.63 148.08 160.91 C 138.16 150.84 128.03 140.96 118.67 130.36 C 117.08 128.78 115.53 127.17 113.93 125.60 C 108.70 126.40 103.27 125.21 98.83 122.33 C 98.06 122.49 97.30 122.66 96.54 122.84 C 95.23 119.77 92.20 119.23 89.16 119.37 C 88.16 118.29 87.14 117.23 86.12 116.17 C 81.99 118.80 81.34 124.08 79.01 128.05 C 78.05 127.25 77.07 126.46 76.09 125.69 C 77.19 126.93 78.32 128.14 79.38 129.42 C 78.53 129.50 76.83 129.66 75.98 129.74 C 76.55 129.79 77.68 129.87 78.24 129.92 C 74.98 135.83 73.46 142.44 70.51 148.48 C 68.38 152.87 68.11 158.07 64.98 161.95 C 63.91 160.56 63.39 158.88 64.15 157.22 C 65.52 151.32 68.23 145.75 68.86 139.70 C 67.17 142.63 66.36 145.94 64.97 149.01 C 62.75 150.45 60.73 152.17 58.61 153.76 C 56.82 157.04 55.74 160.65 53.93 163.92 C 53.26 163.76 51.93 163.45 51.27 163.29 C 54.82 152.30 59.86 141.87 64.05 131.12 C 66.07 127.09 67.45 122.73 69.93 118.94 C 67.26 115.58 63.35 113.58 59.75 111.39 C 59.63 110.01 59.49 108.64 59.29 107.27 C 56.20 107.70 53.23 109.06 50.04 108.68 C 41.33 108.71 32.69 107.56 24.03 106.80 C 24.12 106.33 24.30 105.38 24.39 104.91 C 24.01 105.54 23.63 106.17 23.25 106.80 C 18.69 106.24 13.75 107.63 9.54 105.38 C 6.58 104.03 2.63 104.70 0.73 101.50 C 2.77 99.95 4.73 98.29 6.52 96.45 C 10.46 94.64 14.41 92.10 18.91 92.23 C 22.74 92.63 26.14 90.25 29.96 90.30 C 32.63 89.54 34.78 91.42 37.08 92.41 C 36.58 91.66 35.58 90.16 35.08 89.41 C 37.07 89.44 39.05 89.60 41.03 89.74 C 43.14 88.30 44.65 85.11 47.61 85.55 C 51.56 85.93 55.02 83.53 58.84 82.99 C 61.03 82.35 63.73 82.40 65.30 80.51 C 67.64 77.60 71.66 77.76 75.01 77.14 C 70.65 72.65 67.52 67.19 63.42 62.49 C 54.93 51.26 46.77 39.78 38.77 28.20 C 37.40 25.05 33.38 22.91 34.21 19.10 C 34.64 18.96 35.50 18.68 35.92 18.54 C 38.67 21.78 40.95 25.39 43.23 28.97 C 44.00 28.81 45.53 28.50 46.30 28.34 C 44.08 25.57 39.94 23.16 40.48 19.12 C 43.29 22.42 45.98 25.83 48.48 29.36 C 48.53 30.14 48.54 30.92 48.51 31.69 C 51.99 34.17 53.75 38.24 56.71 41.25 C 59.60 46.00 62.92 50.46 65.87 55.17 C 70.87 60.91 74.66 67.56 79.85 73.15 C 82.43 77.67 88.48 76.21 92.80 76.15 C 96.88 68.83 101.85 62.03 105.68 54.56 C 112.86 42.27 119.83 29.83 128.04 18.19 M 75.58 80.40 C 75.17 80.68 74.35 81.22 73.94 81.50 C 72.73 83.14 75.74 82.83 76.40 82.15 C 78.28 81.75 77.06 79.43 75.58 80.40 M 85.50 79.73 C 85.80 80.42 86.41 81.79 86.72 82.48 C 87.22 82.61 88.23 82.85 88.73 82.98 C 89.27 81.93 89.81 80.88 90.35 79.83 C 88.73 79.80 87.12 79.76 85.50 79.73 M 56.47 87.62 C 55.76 91.52 55.60 95.50 54.75 99.38 C 57.99 95.14 60.07 90.17 62.88 85.64 C 64.95 85.51 67.03 85.19 69.10 85.56 C 66.56 87.29 64.91 89.81 63.80 92.63 C 63.11 92.72 61.73 92.91 61.04 93.01 C 61.91 93.17 62.80 93.33 63.68 93.48 C 66.19 89.43 71.08 88.89 75.01 86.95 C 76.07 88.03 77.13 89.10 78.21 90.16 C 77.42 90.75 76.63 91.35 75.84 91.95 C 76.80 92.18 77.75 92.40 78.71 92.61 C 79.92 91.12 81.27 89.73 82.60 88.34 C 81.90 87.08 81.25 85.81 80.64 84.51 C 77.76 84.51 74.87 84.40 72.07 83.69 C 72.35 82.92 72.91 81.38 73.19 80.61 C 67.37 82.38 62.47 86.40 56.47 87.62 M 101.98 81.00 C 100.65 83.25 99.75 85.68 101.05 88.17 C 98.34 88.59 96.54 90.58 96.16 93.26 C 97.28 93.74 98.41 94.22 99.54 94.69 C 99.86 96.04 100.20 97.38 100.53 98.73 C 101.26 97.82 102.00 96.92 102.75 96.04 C 103.17 97.15 103.60 98.26 104.00 99.38 C 104.38 99.51 105.13 99.75 105.51 99.88 C 106.30 98.25 107.14 96.65 107.95 95.04 C 107.06 95.31 105.28 95.86 104.39 96.14 C 106.25 94.40 105.34 91.73 105.71 89.51 C 106.44 90.64 107.16 91.79 107.86 92.95 C 109.60 89.37 113.46 87.49 115.09 83.88 C 112.80 83.57 110.15 84.57 108.27 82.83 C 106.48 81.42 104.15 81.30 101.98 81.00 M 47.65 89.95 C 47.69 94.36 47.14 98.71 46.22 103.01 C 48.12 102.59 49.99 102.07 51.88 101.62 C 51.62 97.32 52.00 93.01 52.75 88.78 C 51.08 89.30 49.40 89.77 47.65 89.95 M 67.08 95.06 C 65.16 99.47 64.67 104.66 61.16 108.20 C 64.93 109.93 67.67 113.21 71.40 115.01 C 70.42 113.78 69.31 112.68 68.14 111.65 C 68.30 111.01 68.46 110.36 68.63 109.73 C 68.08 109.78 66.98 109.88 66.43 109.93 C 64.99 101.11 76.33 96.92 75.51 88.31 C 74.35 92.25 70.29 93.27 67.08 95.06 M 79.57 95.02 C 74.35 98.18 72.56 104.24 69.99 109.37 C 70.76 110.33 71.51 111.30 72.26 112.27 C 75.64 107.74 77.59 102.37 80.42 97.51 C 81.91 94.63 83.71 91.90 84.97 88.90 C 81.96 89.65 82.44 93.88 79.57 95.02 M 41.07 92.14 C 41.75 92.83 42.43 93.52 43.11 94.22 C 41.58 96.62 40.42 99.58 37.59 100.72 C 37.54 98.96 37.64 97.19 37.50 95.44 C 36.95 94.13 35.39 93.63 34.40 92.70 C 34.18 96.26 33.74 99.80 33.51 103.35 C 37.16 103.64 40.96 105.19 44.35 103.07 C 44.25 99.15 44.67 95.24 44.88 91.33 C 43.61 91.60 42.34 91.88 41.07 92.14 M 28.04 103.48 C 29.24 103.55 30.44 103.62 31.64 103.70 C 31.08 100.12 31.23 96.50 31.53 92.91 C 27.79 94.94 29.11 99.95 28.04 103.48 M 18.05 102.50 C 18.88 102.97 19.70 103.44 20.52 103.93 C 19.74 100.91 20.35 97.85 20.45 94.80 C 17.82 96.27 18.74 99.98 18.05 102.50 M 22.86 103.04 C 24.11 102.80 25.36 102.57 26.61 102.35 C 24.86 99.73 26.22 96.84 26.95 94.11 C 22.57 95.01 23.53 99.71 22.86 103.04 M 85.07 102.76 C 87.59 101.54 89.13 99.19 90.75 97.02 C 90.12 96.35 89.51 95.68 88.89 95.01 C 87.87 97.72 86.22 100.11 85.07 102.76 M 13.23 103.42 C 16.51 102.60 15.03 98.26 15.55 95.77 C 12.76 97.12 13.85 100.93 13.23 103.42 M 3.77 101.24 C 5.19 101.89 6.70 101.85 8.20 101.53 C 9.00 102.22 9.79 102.94 10.57 103.66 C 10.31 101.31 10.65 98.97 11.02 96.65 C 9.04 98.82 6.36 99.98 3.77 101.24 M 96.63 98.12 C 98.00 99.87 99.19 102.64 101.82 101.36 C 100.07 100.30 98.36 99.19 96.63 98.12 M 89.10 106.52 C 91.20 106.23 93.82 107.23 95.30 105.19 C 97.21 103.45 93.95 102.05 92.94 100.95 C 91.36 102.59 90.12 104.50 89.10 106.52 M 60.66 102.81 C 59.65 103.15 58.35 106.48 60.39 105.40 C 61.75 105.15 62.88 101.65 60.66 102.81 M 93.66 111.28 C 94.41 110.97 95.92 110.36 96.67 110.05 C 96.77 110.83 96.95 112.38 97.04 113.16 C 97.16 112.50 97.40 111.17 97.52 110.51 C 98.45 110.47 100.32 110.37 101.25 110.32 C 100.40 109.37 99.52 108.44 98.67 107.49 C 96.76 108.43 94.85 109.44 93.66 111.28 M 88.13 108.98 C 87.26 110.62 86.38 112.25 85.49 113.88 C 85.87 114.56 86.63 115.92 87.01 116.61 C 88.64 116.23 90.31 115.99 91.96 116.38 C 93.88 116.30 96.14 116.09 95.70 118.80 C 96.03 118.11 96.36 117.43 96.70 116.75 C 99.77 120.19 104.70 121.17 108.77 123.10 C 107.26 121.25 105.04 120.28 103.22 118.80 C 101.74 117.60 100.86 115.78 99.26 114.72 C 97.52 113.99 95.59 113.88 93.84 113.17 C 92.11 111.55 90.37 109.89 88.13 108.98 M 160.97 115.85 C 160.13 117.18 162.50 118.03 163.28 117.02 C 164.07 115.74 161.71 114.93 160.97 115.85 M 113.36 115.96 C 112.94 117.18 114.13 119.55 115.57 119.13 C 115.95 117.91 114.75 115.58 113.36 115.96 M 122.93 126.47 C 122.68 127.86 123.25 128.40 124.64 128.10 C 124.90 126.70 124.33 126.15 122.93 126.47 M 131.22 134.26 C 131.86 134.91 131.86 134.91 131.22 134.26 M 69.03 136.84 C 68.49 138.45 69.02 139.06 70.62 138.67 C 71.12 136.99 70.59 136.38 69.03 136.84 M 140.23 147.23 C 140.82 147.81 140.82 147.81 140.23 147.23 Z" />
<path fill="#ffffff" opacity="1.00" d=" M 147.09 56.99 C 150.94 57.89 150.74 62.53 151.82 65.52 C 153.65 63.05 155.30 60.45 157.21 58.04 C 161.66 63.26 160.30 70.73 160.16 77.07 C 156.18 79.28 151.42 78.48 147.05 78.85 C 141.34 79.27 135.80 77.56 130.13 77.36 C 128.59 77.28 127.20 76.54 125.78 76.03 C 124.30 70.50 123.34 64.76 123.89 59.02 C 128.37 58.87 130.74 63.35 133.29 66.32 C 134.62 63.60 136.02 60.92 137.39 58.22 C 138.00 58.19 139.22 58.14 139.83 58.11 C 140.84 60.30 141.89 62.47 143.09 64.57 C 144.68 62.18 145.12 59.13 147.09 56.99 M 142.86 71.09 C 141.14 68.96 140.01 66.47 139.05 63.93 C 137.56 66.49 135.85 68.91 133.89 71.13 C 131.59 69.56 129.65 67.55 127.71 65.56 C 128.16 68.12 128.52 70.70 128.89 73.28 C 137.96 73.30 146.99 75.26 156.06 74.22 C 156.36 71.45 156.57 68.67 156.73 65.89 C 155.74 67.25 154.83 68.68 153.68 69.92 C 152.32 70.85 150.55 70.71 149.01 71.10 C 148.34 68.75 148.17 66.32 147.95 63.90 C 146.55 66.49 144.84 68.91 142.86 71.09 Z" />
<path fill="#ffffff" opacity="1.00" d=" M 69.29 83.66 C 70.10 82.36 72.57 83.73 71.54 85.06 C 70.58 86.36 68.26 85.16 69.29 83.66 Z" />
<path fill="#ffffff" opacity="1.00" d=" M 102.97 85.72 C 104.33 85.87 105.69 86.04 107.05 86.24 C 106.35 87.53 105.60 88.77 104.82 90.01 C 103.92 88.71 103.40 87.22 102.97 85.72 Z" />
<path fill="#ffffff" opacity="1.00" d=" M 147.39 96.44 C 148.05 95.92 149.35 94.88 150.00 94.36 C 153.65 96.46 157.86 98.13 160.32 101.74 C 159.79 102.25 158.72 103.26 158.18 103.77 C 154.65 101.23 151.00 98.87 147.39 96.44 Z" />
<path fill="#ffffff" opacity="1.00" d=" M 159.97 102.87 C 161.03 101.12 162.96 102.07 164.53 102.33 C 166.61 102.87 168.77 102.67 170.89 102.78 C 173.01 103.75 174.88 105.17 176.92 106.30 C 178.55 110.23 176.21 113.77 176.00 117.69 C 173.96 121.51 168.70 120.97 165.39 119.29 C 166.96 118.14 168.49 116.84 170.39 116.26 C 169.79 115.72 169.09 115.20 169.07 114.32 C 171.29 113.96 173.39 113.12 174.31 110.89 C 173.94 109.58 173.38 108.33 172.87 107.07 C 168.92 105.69 164.51 107.24 160.77 105.04 C 160.57 104.50 160.17 103.41 159.97 102.87 Z" />
</g>
</svg>
