<?xml version="1.0" encoding="UTF-8" ?>
<!DOCTYPE svg PUBLIC "-//W3C//DTD SVG 1.1//EN" "http://www.w3.org/Graphics/SVG/1.1/DTD/svg11.dtd">
<svg width="128pt" height="128pt" viewBox="0 0 128 128" version="1.1" xmlns="http://www.w3.org/2000/svg">
<g id="#ffffffff">
<path fill="#ffffff" opacity="1.00" d=" M 3.27 14.23 C 6.70 10.81 8.15 5.44 13.01 3.51 C 16.90 3.39 20.72 4.71 23.11 7.89 C 24.85 7.75 26.59 7.61 28.34 7.52 C 28.48 8.19 28.75 9.53 28.89 10.20 C 30.56 10.72 32.13 11.58 33.88 11.83 C 35.76 10.77 37.20 8.90 39.42 8.47 C 41.59 8.07 43.32 6.76 44.91 5.30 C 48.92 5.50 52.95 5.91 56.86 6.88 C 59.04 7.90 59.20 10.75 60.37 12.63 C 63.01 17.43 62.71 23.23 61.26 28.34 C 60.32 30.40 58.48 32.63 56.01 32.55 C 50.99 32.60 45.72 33.60 41.15 30.89 C 43.15 28.88 46.05 30.16 48.47 29.35 C 50.31 28.53 51.92 27.31 53.55 26.16 C 52.57 22.53 52.94 16.22 47.95 15.79 C 45.14 15.68 42.46 17.08 39.83 17.95 C 38.52 20.16 38.17 22.82 37.51 25.28 C 36.60 27.92 38.39 30.29 39.50 32.56 C 40.81 35.42 44.38 35.24 47.00 35.84 C 49.87 36.10 53.03 37.36 55.76 35.90 C 58.98 33.49 63.17 34.43 66.94 34.26 C 73.01 36.82 79.19 40.47 86.06 39.66 C 93.04 40.01 99.06 35.56 106.01 35.59 C 108.35 35.74 111.23 35.24 113.11 36.87 C 116.15 40.97 119.96 44.39 123.36 48.18 C 123.87 50.32 122.00 52.58 123.49 54.57 C 125.29 57.27 123.98 60.55 124.91 63.48 C 125.84 65.80 124.68 68.16 124.31 70.48 C 123.75 70.75 122.64 71.31 122.08 71.58 C 121.85 70.36 121.60 69.14 121.32 67.92 C 122.07 71.43 121.82 75.04 119.46 77.91 C 118.33 82.03 115.73 85.95 116.36 90.39 C 117.20 97.05 113.98 103.37 114.43 110.04 C 112.78 111.21 111.20 112.49 109.54 113.66 C 109.54 111.98 109.63 110.30 109.74 108.63 C 109.15 108.53 107.96 108.33 107.37 108.23 C 107.58 102.16 108.67 96.12 108.51 90.03 C 110.23 89.23 111.98 88.40 113.33 87.03 C 109.21 88.17 105.40 91.99 100.92 90.34 C 99.83 94.73 100.83 99.31 99.73 103.69 C 98.80 107.13 100.80 110.49 100.46 113.93 C 99.89 116.63 99.16 119.31 98.08 121.85 C 97.61 121.32 96.68 120.25 96.21 119.72 C 95.71 110.25 93.99 100.41 97.79 91.34 C 97.31 91.25 96.35 91.07 95.86 90.98 C 95.74 93.83 96.38 96.88 94.96 99.51 C 93.74 97.34 93.46 94.86 93.11 92.44 C 89.66 92.81 85.93 92.01 82.78 93.85 C 78.52 96.21 73.37 96.17 68.91 94.42 C 66.71 98.69 63.98 102.96 63.68 107.89 C 63.31 111.29 62.35 114.59 62.19 118.02 C 61.72 120.17 62.31 123.13 59.91 124.28 C 59.49 121.54 59.35 118.77 59.41 116.01 C 59.68 113.14 56.68 110.99 57.61 108.05 C 58.77 102.76 56.78 97.21 58.35 92.04 C 54.73 94.81 50.43 93.31 46.43 92.57 C 47.17 96.68 47.79 100.83 47.78 105.02 L 46.99 105.33 C 44.56 105.01 45.25 101.82 44.34 100.10 C 44.78 103.06 46.17 105.97 45.20 108.98 C 45.26 107.70 45.86 106.90 47.00 106.57 C 47.33 106.78 47.97 107.21 48.30 107.42 C 48.07 112.37 49.39 117.72 47.70 122.44 C 44.60 123.83 44.99 118.91 44.26 117.09 C 41.59 109.21 40.97 100.76 37.32 93.23 C 38.04 93.32 39.49 93.49 40.21 93.58 C 40.09 92.94 39.83 91.68 39.70 91.04 C 38.42 90.73 37.14 90.41 35.86 90.07 C 35.26 90.73 34.67 91.40 34.07 92.08 C 30.85 89.66 25.98 88.70 24.63 84.49 C 26.58 84.47 28.27 85.39 29.88 86.37 C 27.40 83.38 24.45 80.68 22.93 77.02 C 21.31 73.23 18.33 70.12 17.19 66.13 C 19.01 66.20 20.56 66.92 21.89 68.14 C 20.72 66.73 18.87 65.32 19.43 63.24 C 20.85 55.04 20.78 46.72 21.80 38.48 C 19.15 38.66 16.50 38.76 13.86 38.52 C 14.60 37.42 15.63 36.67 16.96 36.26 C 15.01 36.55 13.05 36.43 11.09 36.34 C 11.86 37.26 12.64 38.15 13.42 39.06 C 12.27 39.47 11.11 39.87 9.96 40.26 C 8.91 37.57 8.88 34.67 8.59 31.85 C 10.79 30.23 13.32 29.12 15.45 27.42 C 18.10 22.25 15.69 16.17 17.89 10.88 C 16.56 10.33 15.25 9.72 13.90 9.23 C 10.66 10.59 8.13 13.34 6.01 16.10 C 7.53 18.06 9.78 19.11 11.93 20.21 C 9.59 21.80 6.35 21.70 4.58 19.35 C 4.05 17.67 3.71 15.94 3.27 14.23 M 52.37 8.28 C 51.84 9.89 52.39 10.48 54.01 10.05 C 54.56 8.47 54.02 7.88 52.37 8.28 M 20.17 11.79 C 18.80 12.19 19.06 14.70 20.67 13.81 C 22.11 13.50 21.73 10.87 20.17 11.79 M 23.82 16.23 C 22.22 18.12 20.49 19.94 19.34 22.16 C 21.55 19.80 22.94 15.99 26.96 17.10 C 27.01 18.63 26.45 19.84 25.29 20.73 C 27.38 19.41 28.58 21.88 30.00 23.01 C 31.56 20.71 34.02 19.41 36.63 18.67 C 36.64 17.95 36.66 16.52 36.67 15.80 C 35.47 16.69 34.43 17.81 33.10 18.50 C 32.00 17.67 30.95 16.78 29.87 15.92 C 28.21 16.33 26.55 16.71 24.89 17.09 C 24.53 16.81 24.17 16.52 23.82 16.23 M 31.72 31.53 C 33.31 29.76 34.60 27.74 35.73 25.65 C 33.65 26.98 32.23 29.12 31.72 31.53 M 35.37 35.27 C 35.46 36.93 35.55 38.59 35.71 40.24 C 36.56 38.77 36.68 37.09 36.74 35.43 C 36.40 35.39 35.72 35.31 35.37 35.27 M 107.02 37.17 C 108.27 38.18 109.52 39.19 110.80 40.17 C 110.71 39.57 110.54 38.37 110.45 37.76 C 109.31 37.57 108.16 37.37 107.02 37.17 M 57.25 38.49 C 62.49 39.28 67.85 39.99 73.15 39.36 C 68.03 36.98 62.60 38.49 57.25 38.49 M 22.22 60.25 C 21.23 61.46 23.17 63.61 24.47 62.71 C 25.48 61.41 23.61 59.33 22.22 60.25 M 30.30 80.36 C 29.71 81.71 30.96 84.53 32.69 83.77 C 33.55 82.42 31.81 79.94 30.30 80.36 M 109.59 84.65 C 110.95 84.43 112.31 84.19 113.67 83.95 C 113.31 83.00 112.95 82.04 112.60 81.08 C 111.58 82.26 110.57 83.44 109.59 84.65 M 73.09 84.11 C 72.50 85.46 72.94 85.92 74.41 85.48 C 74.96 84.10 74.52 83.64 73.09 84.11 M 59.55 108.50 C 61.56 105.75 63.35 102.75 63.96 99.36 C 60.97 101.45 60.12 105.12 59.55 108.50 Z" />
<path fill="#ffffff" opacity="1.00" d=" M 112.08 116.94 C 112.13 114.52 112.79 112.18 114.25 110.22 C 114.69 111.86 115.13 113.50 115.57 115.14 C 114.41 115.74 113.24 116.34 112.08 116.94 Z" />
</g>
</svg>
