<?xml version="1.0" encoding="UTF-8" ?>
<!DOCTYPE svg PUBLIC "-//W3C//DTD SVG 1.1//EN" "http://www.w3.org/Graphics/SVG/1.1/DTD/svg11.dtd">
<svg width="200pt" height="200pt" viewBox="0 0 200 200" version="1.1" xmlns="http://www.w3.org/2000/svg">
<g id="#ffffffff">
<path fill="#ffffff" opacity="1.00" d=" M 160.81 80.90 C 162.48 78.22 164.22 75.48 166.95 73.75 C 167.68 75.94 168.15 78.20 168.56 80.46 C 169.86 78.80 171.15 77.13 172.49 75.49 C 173.03 75.46 174.13 75.40 174.67 75.37 C 176.75 81.14 177.45 87.51 176.01 93.52 C 170.96 92.87 166.01 94.81 160.96 94.12 C 156.17 93.26 151.19 93.72 146.56 92.04 C 146.44 86.65 146.00 81.27 146.29 75.89 C 148.32 74.29 149.71 76.89 151.06 78.09 C 152.64 79.67 152.83 82.00 152.93 84.10 C 154.83 80.91 155.52 76.51 159.01 74.66 C 160.00 76.62 160.67 78.70 160.81 80.90 M 162.10 84.73 C 160.99 84.48 159.87 84.41 158.82 84.91 C 158.37 83.69 157.97 82.46 157.49 81.25 C 157.54 83.52 156.60 86.74 153.83 86.64 C 151.56 87.04 150.92 84.27 149.68 82.95 C 149.59 85.21 149.67 87.48 149.51 89.74 C 157.34 90.33 165.16 90.18 172.97 89.59 C 172.75 86.34 172.61 83.09 172.65 79.84 C 171.48 82.59 170.04 85.21 168.49 87.76 C 167.27 87.75 166.05 87.73 164.83 87.71 C 164.52 84.95 165.18 82.26 165.65 79.57 C 164.46 81.28 163.34 83.05 162.10 84.73 Z" />
<path fill="#ffffff" opacity="1.00" d=" M 38.05 88.88 C 41.08 87.71 44.36 85.29 47.67 86.89 C 54.39 90.17 61.86 91.97 68.20 95.91 C 78.82 99.05 90.01 98.23 100.95 98.51 C 108.97 98.81 117.03 96.88 125.01 98.20 C 126.32 98.06 127.60 97.63 128.93 97.71 C 137.23 98.09 145.93 95.84 153.87 99.11 C 160.39 99.73 166.94 99.83 173.48 99.83 C 173.07 100.42 172.24 101.59 171.82 102.18 C 166.38 103.31 160.92 102.16 155.44 102.18 C 153.57 104.87 151.08 107.01 148.74 109.27 C 149.31 110.32 149.87 111.38 150.41 112.45 C 154.46 113.18 158.58 111.91 162.59 113.07 C 161.35 114.45 159.79 115.42 158.08 116.09 C 160.63 115.84 163.19 115.68 165.72 115.27 C 165.61 116.12 165.51 116.97 165.40 117.83 C 171.38 117.29 177.49 118.17 183.36 116.59 C 185.13 116.09 187.22 116.02 188.46 114.46 C 182.36 114.30 176.23 115.33 170.15 114.40 C 169.78 113.74 169.03 112.42 168.66 111.76 C 173.67 111.15 178.72 111.71 183.74 111.30 C 181.15 108.63 177.04 108.15 174.85 105.07 C 173.62 104.11 174.39 102.56 174.45 101.30 C 178.79 106.05 185.32 107.82 191.33 109.40 C 191.32 110.54 191.29 111.68 191.26 112.83 C 190.23 112.61 188.16 112.17 187.13 111.95 C 188.31 112.49 189.51 112.98 190.70 113.48 C 191.84 112.30 192.95 111.08 194.01 109.83 C 195.62 111.06 196.73 113.32 194.94 114.94 C 189.65 119.04 182.74 120.48 176.16 120.72 C 170.97 119.80 165.92 122.00 160.70 121.56 C 156.81 120.86 153.43 123.36 149.74 124.14 C 142.82 124.59 136.27 127.90 129.22 127.55 C 122.44 128.01 115.86 129.92 109.45 132.08 C 109.51 133.67 109.57 135.26 109.63 136.85 C 109.03 136.74 107.85 136.51 107.25 136.40 C 106.31 133.92 105.76 131.31 105.10 128.75 C 106.60 128.75 108.11 128.89 109.60 128.75 C 111.31 127.98 112.75 126.54 114.72 126.52 C 119.29 126.11 123.66 123.44 128.30 124.51 C 131.07 124.79 133.79 123.95 136.49 123.47 C 135.10 119.17 134.09 114.59 135.62 110.18 C 136.02 110.21 136.81 110.26 137.21 110.29 C 137.47 114.50 137.60 118.73 138.56 122.85 C 139.66 122.76 140.76 122.67 141.86 122.59 C 141.48 119.25 142.04 115.68 140.57 112.56 C 139.14 109.45 139.42 105.94 139.74 102.63 C 139.04 102.13 138.34 101.62 137.65 101.12 C 137.46 103.52 137.32 105.93 137.14 108.34 C 133.81 107.89 134.11 104.52 134.40 102.01 C 133.14 101.75 131.88 101.50 130.63 101.25 C 130.20 104.14 131.02 107.51 128.82 109.84 C 124.89 108.74 125.45 103.45 125.54 100.10 C 124.80 100.34 123.31 100.84 122.56 101.08 C 124.47 105.27 123.08 109.89 124.40 114.17 C 123.49 112.31 122.19 110.65 121.35 108.76 C 121.26 106.19 121.30 103.60 120.70 101.07 C 119.26 101.17 117.83 101.29 116.39 101.39 C 117.56 103.70 117.67 106.28 117.85 108.81 C 119.26 112.44 121.42 115.84 121.72 119.83 C 117.13 118.08 116.10 112.76 115.38 108.47 C 114.61 106.16 114.10 103.79 113.99 101.36 C 112.71 101.52 111.43 101.67 110.15 101.80 C 113.18 105.91 113.52 111.11 115.01 115.84 C 115.63 118.81 117.09 121.72 116.43 124.82 C 113.33 124.72 113.41 121.32 112.86 119.09 C 112.34 117.18 112.38 115.24 112.89 113.34 C 109.38 110.72 109.34 105.65 109.71 101.65 C 103.92 102.89 98.09 101.44 92.26 101.85 C 91.75 108.31 93.10 114.65 93.31 121.09 C 92.59 120.98 91.14 120.76 90.42 120.65 C 89.33 117.07 90.33 113.24 88.98 109.74 C 88.19 107.00 88.92 104.17 89.63 101.51 C 86.90 101.64 84.17 101.77 81.47 102.25 C 80.69 105.49 81.33 109.42 78.99 112.04 C 76.72 108.84 77.72 104.86 78.26 101.29 C 77.78 101.22 76.82 101.09 76.35 101.02 C 75.95 104.77 75.92 108.64 74.44 112.18 C 77.98 115.84 75.13 123.07 80.40 125.29 C 86.57 126.19 92.65 127.79 98.97 127.59 C 102.74 128.51 101.43 132.62 101.43 135.43 C 100.87 139.83 101.98 144.20 102.92 148.47 C 104.56 145.74 106.55 143.10 106.93 139.84 C 105.74 139.39 104.56 138.93 103.38 138.46 C 103.48 136.20 103.48 133.85 105.05 132.03 C 105.30 134.43 105.42 136.84 105.72 139.24 C 106.81 138.48 108.48 136.17 109.65 138.19 C 110.47 143.00 108.10 147.88 104.80 151.24 C 101.07 152.05 99.20 147.84 97.73 145.21 C 96.09 140.59 95.04 135.52 95.66 130.61 C 90.49 130.01 85.11 130.76 80.18 128.74 C 76.72 127.28 72.90 127.37 69.25 127.77 C 69.65 123.76 69.12 119.72 69.77 115.73 C 71.16 119.43 71.76 123.90 75.44 126.13 C 73.94 121.75 72.57 116.93 73.68 112.31 C 69.64 109.61 71.04 104.32 71.53 100.25 C 67.48 98.53 63.17 96.49 58.69 97.61 C 54.98 99.53 50.76 99.44 46.71 99.79 C 45.12 97.65 43.16 95.84 41.20 94.04 C 40.46 94.41 39.72 94.77 38.97 95.14 C 43.52 95.99 45.76 100.32 49.03 103.10 C 44.65 105.47 39.87 107.14 36.04 110.43 C 36.34 112.33 36.34 114.64 38.05 115.89 C 38.28 113.32 38.94 110.88 40.49 108.78 C 40.22 109.73 39.93 110.67 39.62 111.60 C 40.50 112.81 41.36 114.03 42.21 115.27 C 42.44 113.50 42.59 111.73 42.83 109.96 C 45.91 112.09 47.65 117.05 44.88 120.02 C 44.19 118.79 43.53 117.54 42.94 116.26 C 41.36 116.49 39.75 116.40 38.19 116.68 C 38.42 117.37 38.90 118.75 39.14 119.43 C 43.59 118.42 46.91 122.15 51.16 122.54 C 50.52 124.36 49.77 126.14 49.01 127.92 C 50.90 126.32 52.84 124.78 54.70 123.14 C 55.57 123.78 56.44 124.41 57.32 125.04 C 57.52 120.90 57.73 116.77 57.78 112.62 C 63.39 114.49 58.30 121.92 61.90 125.44 C 57.01 128.85 52.39 132.77 48.18 136.99 C 45.02 136.07 41.28 135.98 39.07 133.20 C 39.98 130.61 40.93 128.03 42.05 125.52 C 41.24 125.41 39.62 125.18 38.82 125.07 C 40.78 124.11 42.88 124.66 44.92 124.97 C 44.82 124.56 44.64 123.74 44.55 123.32 C 41.58 122.56 38.48 122.48 35.43 122.40 C 26.60 126.30 19.69 134.45 9.73 135.60 C 9.71 134.71 9.67 132.94 9.64 132.05 C 11.82 128.35 14.47 124.91 17.08 121.50 C 14.42 119.27 11.92 116.84 9.31 114.54 C 9.97 111.35 12.42 109.54 15.48 108.81 C 15.84 109.41 16.57 110.61 16.94 111.21 C 17.30 110.35 17.68 109.50 18.09 108.66 C 14.46 108.28 10.92 108.80 7.50 110.01 C 8.12 110.42 9.36 111.25 9.98 111.67 C 9.29 112.41 8.61 113.15 7.91 113.89 C 6.36 112.87 4.78 111.89 3.24 110.87 C 6.07 106.12 11.94 104.98 16.99 104.40 C 22.83 103.65 28.33 106.30 34.09 106.63 C 37.49 105.55 40.44 103.34 43.98 102.59 C 40.72 100.68 37.59 98.51 34.93 95.80 C 36.02 93.52 36.85 91.12 38.05 88.88 M 44.58 89.13 C 44.30 90.74 43.94 92.33 43.46 93.89 C 47.82 95.44 52.35 97.68 57.09 96.41 C 53.50 95.35 49.87 94.43 46.24 93.56 C 46.24 92.43 46.29 91.30 46.35 90.17 C 45.75 89.83 45.16 89.48 44.58 89.13 M 142.28 102.52 C 142.64 108.97 143.47 115.37 144.99 121.64 C 148.73 122.42 151.84 119.70 155.17 118.51 C 156.89 118.44 158.58 118.80 160.29 118.95 C 155.91 117.34 151.31 116.46 146.86 115.13 C 143.49 111.94 143.17 106.78 143.57 102.42 C 144.23 102.41 145.56 102.39 146.22 102.38 C 146.30 103.95 146.38 105.53 146.46 107.11 C 147.70 105.57 149.01 104.08 150.37 102.64 C 147.68 102.32 144.96 101.89 142.28 102.52 M 20.94 110.51 C 23.06 110.38 25.18 110.26 27.30 110.14 C 26.16 109.44 25.01 108.74 23.87 108.05 C 22.90 108.88 21.92 109.69 20.94 110.51 M 19.28 111.26 C 17.65 114.18 22.63 111.51 19.28 111.26 M 19.77 122.84 C 24.84 120.94 29.53 117.06 35.22 117.63 C 34.51 116.07 33.75 114.53 32.92 113.03 C 29.82 117.87 23.86 119.16 19.77 122.84 M 24.19 124.36 C 22.65 124.66 23.26 127.21 24.78 126.34 C 26.23 125.94 25.75 123.50 24.19 124.36 M 13.37 132.31 C 15.71 131.20 18.52 130.13 19.35 127.39 C 16.79 128.18 14.33 129.68 13.37 132.31 M 42.99 129.44 C 41.58 129.24 40.79 131.63 42.52 131.69 C 43.81 131.88 44.63 129.42 42.99 129.44 M 45.57 132.85 C 44.68 134.00 46.71 135.40 47.51 134.22 C 48.46 132.99 46.45 131.71 45.57 132.85 Z" />
<path fill="#ffffff" opacity="1.00" d=" M 60.32 99.20 C 61.70 99.83 61.69 100.48 60.29 101.16 C 58.93 100.52 58.94 99.86 60.32 99.20 Z" />
<path fill="#ffffff" opacity="1.00" d=" M 66.74 99.89 C 67.54 100.50 68.35 101.11 69.16 101.73 C 69.20 106.08 69.70 110.56 68.23 114.76 C 64.91 110.50 66.49 104.81 66.74 99.89 Z" />
<path fill="#ffffff" opacity="1.00" d=" M 49.86 102.29 C 50.53 102.28 51.87 102.27 52.54 102.26 C 53.14 106.69 54.74 110.98 54.57 115.49 C 51.33 114.54 51.58 111.10 51.41 108.43 C 50.29 106.56 49.42 104.52 49.86 102.29 Z" />
<path fill="#ffffff" opacity="1.00" d=" M 63.08 111.25 C 60.89 108.74 59.23 104.71 61.93 101.93 C 64.64 104.09 65.26 108.49 63.08 111.25 Z" />
<path fill="#ffffff" opacity="1.00" d=" M 86.41 115.12 C 82.32 112.51 82.00 106.23 84.94 102.70 C 85.89 103.39 86.48 104.42 86.30 105.62 C 86.34 108.78 86.49 111.95 86.41 115.12 Z" />
<path fill="#ffffff" opacity="1.00" d=" M 103.76 103.05 C 104.48 103.24 105.93 103.61 106.65 103.79 C 106.43 107.06 105.45 110.57 107.02 113.66 C 108.16 116.21 108.80 119.01 108.33 121.80 C 104.29 120.17 106.04 115.28 105.03 111.94 C 103.97 109.07 103.07 106.14 103.76 103.05 Z" />
<path fill="#ffffff" opacity="1.00" d=" M 168.64 104.12 C 169.19 103.69 170.29 102.83 170.84 102.40 C 171.62 102.74 173.19 103.42 173.97 103.76 C 173.42 106.08 171.76 107.16 169.44 106.83 C 169.24 106.15 168.84 104.80 168.64 104.12 Z" />
<path fill="#ffffff" opacity="1.00" d=" M 55.30 104.79 C 55.79 104.62 56.77 104.28 57.27 104.11 C 57.83 106.78 58.78 109.34 59.79 111.86 C 58.66 111.78 57.54 111.65 56.42 111.47 C 55.47 109.38 55.43 107.04 55.30 104.79 Z" />
<path fill="#ffffff" opacity="1.00" d=" M 95.67 103.38 C 98.88 103.16 99.87 106.80 100.79 109.21 C 102.31 114.54 103.96 120.16 103.01 125.74 C 102.44 125.75 101.30 125.76 100.72 125.76 C 100.86 120.41 98.83 115.41 97.99 110.20 C 97.21 110.48 95.64 111.04 94.85 111.32 C 98.13 109.47 96.27 106.15 95.67 103.38 Z" />
<path fill="#ffffff" opacity="1.00" d=" M 47.63 106.98 C 49.48 110.87 51.02 114.92 52.57 118.94 C 49.79 119.33 49.22 116.22 48.05 114.38 C 47.41 111.99 47.02 109.43 47.63 106.98 Z" />
<path fill="#ffffff" opacity="1.00" d=" M 64.21 110.95 C 66.36 113.51 65.78 116.96 65.58 120.02 C 65.10 119.78 64.14 119.29 63.66 119.04 C 63.46 116.32 63.08 113.53 64.21 110.95 Z" />
<path fill="#ffffff" opacity="1.00" d=" M 127.31 111.49 C 128.05 111.15 129.54 110.47 130.29 110.13 C 130.92 113.71 130.87 117.38 130.23 120.95 C 127.61 118.55 127.18 114.85 127.31 111.49 Z" />
<path fill="#ffffff" opacity="1.00" d=" M 95.26 112.48 C 96.88 111.93 97.44 112.47 96.94 114.12 C 95.33 114.68 94.77 114.13 95.26 112.48 Z" />
<path fill="#ffffff" opacity="1.00" d=" M 80.96 114.62 C 82.00 117.75 83.12 120.92 82.66 124.28 C 78.29 123.20 80.92 117.72 80.96 114.62 Z" />
<path fill="#ffffff" opacity="1.00" d=" M 93.57 122.79 C 94.02 120.69 94.44 118.49 96.00 116.89 C 96.73 119.77 96.63 122.76 96.46 125.70 C 95.49 124.73 94.54 123.76 93.57 122.79 Z" />
<path fill="#ffffff" opacity="1.00" d=" M 84.33 123.05 C 84.72 121.03 85.26 118.96 86.54 117.30 C 86.59 119.67 86.54 122.04 86.60 124.42 C 86.03 124.08 84.90 123.39 84.33 123.05 Z" />
<path fill="#ffffff" opacity="1.00" d=" M 62.63 125.02 C 64.14 123.31 67.03 125.23 69.08 124.85 C 68.84 125.57 68.36 126.99 68.12 127.71 C 66.18 127.32 63.32 127.31 62.63 125.02 Z" />
</g>
</svg>
