<?xml version="1.0" encoding="UTF-8" ?>
<!DOCTYPE svg PUBLIC "-//W3C//DTD SVG 1.1//EN" "http://www.w3.org/Graphics/SVG/1.1/DTD/svg11.dtd">
<svg width="200pt" height="200pt" viewBox="0 0 200 200" version="1.1" xmlns="http://www.w3.org/2000/svg">
<g id="#ffffffff">
<path fill="#ffffff" opacity="1.00" d=" M 26.52 32.93 C 27.58 29.93 29.92 32.63 31.64 33.44 C 31.71 33.97 31.79 34.51 31.86 35.05 C 34.36 37.25 37.26 39.00 39.53 41.45 C 38.65 41.56 36.90 41.76 36.03 41.86 C 37.15 41.87 38.27 41.83 39.39 41.79 C 46.03 47.74 52.15 54.23 58.54 60.45 C 61.37 63.25 64.80 65.46 67.10 68.78 C 66.72 69.97 66.37 71.17 66.04 72.38 C 67.14 71.38 68.20 70.32 69.30 69.31 C 69.52 70.98 69.32 72.59 68.70 74.14 C 69.39 74.46 70.75 75.11 71.44 75.43 C 70.82 74.07 70.22 72.69 69.64 71.31 C 74.68 74.98 79.24 79.24 84.06 83.16 C 81.79 82.59 79.60 81.75 77.35 81.11 C 79.39 82.78 81.22 85.04 83.83 85.79 C 84.27 85.46 85.15 84.80 85.59 84.47 C 89.68 88.31 95.85 87.24 100.99 87.43 C 111.18 85.76 121.57 86.21 131.78 84.73 C 138.53 81.95 144.19 77.13 150.55 73.61 C 147.77 69.15 150.42 63.83 149.93 58.95 C 150.53 59.43 151.72 60.39 152.32 60.87 C 151.43 59.96 150.55 59.05 149.66 58.14 C 150.24 57.27 151.39 55.53 151.96 54.66 C 153.89 56.35 155.62 58.24 156.99 60.41 C 158.05 58.00 158.38 54.73 161.00 53.46 C 164.32 54.46 165.09 58.16 165.50 61.14 C 167.16 58.39 168.73 54.53 172.66 55.18 C 172.87 56.99 173.04 58.81 173.19 60.63 C 175.56 58.96 178.01 57.35 180.81 56.52 C 182.56 57.94 184.35 59.32 185.98 60.89 C 184.12 62.39 182.11 63.72 180.32 65.31 C 177.91 68.78 179.61 74.12 176.83 77.35 C 172.61 77.35 168.47 76.27 164.26 76.17 C 162.26 77.07 160.60 78.55 158.83 79.82 C 155.31 82.59 150.76 83.89 147.73 87.32 C 153.33 86.10 159.35 85.87 164.69 88.22 C 166.93 89.13 168.48 91.07 170.45 92.38 C 172.67 92.84 174.93 93.15 177.06 93.93 C 183.62 96.24 190.51 97.73 196.77 100.82 C 197.44 104.42 193.67 103.21 191.45 103.62 C 191.42 102.99 191.38 101.72 191.36 101.08 C 190.92 101.27 190.04 101.63 189.60 101.82 C 189.59 102.55 189.59 103.28 189.59 104.02 C 191.33 104.61 194.06 104.40 194.28 106.81 C 186.63 112.38 176.35 112.10 167.39 110.72 C 163.83 109.64 160.39 111.54 156.83 111.44 C 157.19 113.61 156.03 115.44 154.59 116.94 C 155.18 119.65 156.59 122.66 155.18 125.35 C 153.87 128.47 152.33 132.06 153.39 135.42 C 158.49 139.11 164.56 142.03 168.15 147.38 C 168.29 146.81 168.56 145.67 168.69 145.10 C 172.55 148.01 176.67 150.57 180.41 153.63 C 176.45 154.20 173.97 150.63 171.18 148.48 C 170.94 149.11 170.45 150.37 170.21 151.00 C 173.67 153.51 177.59 155.37 180.89 158.06 C 181.27 160.39 178.78 159.78 177.30 159.88 C 171.94 156.18 166.52 152.61 161.30 148.73 C 154.56 145.89 149.35 140.65 143.30 136.70 C 142.03 135.78 140.36 136.46 138.93 136.35 C 138.52 134.85 138.46 132.93 136.83 132.18 C 130.08 127.78 123.79 122.66 117.00 118.34 C 112.72 118.23 108.43 118.67 104.16 118.22 C 105.01 122.09 107.07 125.96 106.12 130.00 C 105.56 132.68 104.66 135.28 103.99 137.93 C 99.01 134.96 96.42 129.41 95.28 123.95 C 94.91 121.82 95.31 119.72 96.58 117.96 C 89.72 123.17 81.66 126.27 74.01 130.07 C 67.62 134.57 59.78 136.10 53.10 140.03 C 47.50 142.36 41.89 144.73 36.25 146.92 C 35.79 146.46 34.89 145.54 34.44 145.08 C 37.85 143.06 41.24 140.69 45.21 139.95 C 46.02 137.59 48.18 136.17 49.27 133.98 C 49.65 132.74 51.12 132.75 52.13 132.34 C 54.64 131.24 56.94 129.75 59.07 128.03 C 56.08 129.11 53.25 130.63 50.11 131.27 C 50.38 129.95 50.76 128.67 51.25 127.43 C 58.11 122.10 68.22 121.99 73.85 115.05 C 72.04 116.96 69.77 117.57 67.31 116.61 C 64.27 116.98 61.25 116.40 58.26 115.98 C 58.27 115.07 58.31 113.24 58.32 112.33 C 65.58 114.00 73.03 113.48 80.41 113.61 C 80.33 112.59 80.25 111.58 80.16 110.58 C 85.41 111.43 89.93 108.37 94.23 105.85 C 95.32 106.45 96.39 107.11 97.43 107.83 C 93.75 110.15 89.75 111.86 86.12 114.25 C 92.55 114.19 97.86 109.91 103.36 107.13 C 101.04 105.88 97.75 107.97 96.05 105.83 C 96.46 105.34 97.27 104.35 97.68 103.86 C 94.08 100.52 89.94 97.87 86.00 94.98 C 83.05 92.40 80.35 89.34 76.58 87.92 C 77.30 89.54 78.04 91.14 78.81 92.74 C 77.35 92.63 75.90 92.57 74.45 92.49 C 74.35 91.93 74.15 90.81 74.06 90.25 C 71.87 91.98 69.26 91.82 67.05 90.23 C 66.88 90.53 66.54 91.13 66.37 91.42 C 62.48 90.93 58.54 91.41 54.74 92.25 C 52.29 93.26 50.05 90.80 47.54 91.91 C 47.06 90.11 46.50 88.33 46.06 86.53 C 45.59 86.50 44.64 86.45 44.17 86.43 C 44.43 87.31 44.70 88.19 44.98 89.07 C 44.40 90.42 43.86 91.80 43.35 93.18 C 40.63 94.16 38.16 95.67 35.58 96.96 C 37.10 93.20 40.57 91.45 44.09 89.98 C 41.86 87.87 39.55 90.77 37.42 91.60 C 36.96 91.07 36.50 90.54 36.04 90.00 C 34.76 90.74 33.40 91.28 32.58 89.60 C 31.12 88.58 33.38 87.19 33.78 86.10 C 29.56 83.83 31.28 77.73 35.58 76.73 C 35.55 76.10 35.50 74.85 35.47 74.22 C 36.56 74.29 37.66 74.36 38.76 74.44 C 39.07 73.84 39.71 72.65 40.03 72.05 C 46.09 75.04 50.45 80.63 56.13 84.29 C 55.20 85.41 54.40 86.75 52.88 87.10 C 50.23 85.04 47.69 82.85 45.15 80.66 C 43.93 79.33 42.08 79.79 40.48 79.66 C 40.15 80.09 39.48 80.93 39.14 81.36 C 37.95 81.70 36.77 82.10 35.63 82.61 C 38.27 83.05 40.46 81.22 43.06 81.23 C 43.71 82.11 44.36 83.00 45.00 83.89 C 47.36 84.59 49.48 85.87 51.51 87.24 C 50.31 87.66 49.11 88.08 47.91 88.48 C 50.03 88.35 52.17 88.31 54.30 88.31 C 55.27 87.10 56.44 85.86 58.09 85.75 C 63.48 85.05 68.94 84.96 74.37 84.69 C 68.17 80.31 62.39 75.32 57.02 69.96 C 51.00 65.04 45.38 59.63 39.91 54.10 C 38.12 52.35 35.82 51.11 34.43 48.96 C 34.08 47.46 36.51 46.03 37.66 47.20 C 39.94 48.81 41.73 51.05 44.11 52.55 C 42.97 50.81 41.57 49.27 40.17 47.75 C 34.95 43.49 30.65 38.18 26.52 32.93 M 45.38 53.26 C 43.79 56.17 48.73 53.52 45.38 53.26 M 55.20 59.98 C 55.36 63.38 58.13 58.41 55.20 59.98 M 158.74 64.02 C 158.56 63.67 158.18 62.97 158.00 62.62 C 157.78 63.16 157.34 64.23 157.12 64.77 C 155.65 63.87 154.28 62.84 152.85 61.87 C 152.93 64.99 152.78 68.11 152.21 71.19 C 156.65 71.19 159.92 68.09 163.69 66.24 C 162.47 63.98 161.92 61.46 161.21 59.02 C 160.37 60.68 159.57 62.35 158.74 64.02 M 59.25 63.24 C 59.87 63.84 59.87 63.84 59.25 63.24 M 61.49 65.10 C 61.08 66.54 61.56 67.05 62.94 66.63 C 63.32 65.22 62.84 64.71 61.49 65.10 M 64.30 69.15 C 64.95 69.80 64.95 69.80 64.30 69.15 M 169.33 73.18 C 171.17 73.10 173.01 72.91 174.84 72.72 C 175.04 71.39 175.22 70.05 175.38 68.72 C 173.28 70.09 171.23 71.54 169.33 73.18 M 72.18 75.78 C 72.34 79.16 75.16 74.19 72.18 75.78 M 76.24 79.21 C 76.87 79.84 76.87 79.84 76.24 79.21 M 32.42 81.12 C 32.11 82.50 32.66 82.95 34.06 82.47 C 34.39 81.11 33.84 80.66 32.42 81.12 M 39.12 87.33 C 39.78 88.00 39.78 88.00 39.12 87.33 M 132.30 96.27 C 126.54 99.95 121.06 104.04 115.10 107.40 C 114.98 109.58 117.63 110.10 118.98 111.29 C 118.67 112.17 118.37 113.06 118.07 113.96 C 118.49 113.48 119.33 112.51 119.75 112.03 C 121.40 112.95 122.94 114.67 125.02 114.06 C 129.31 113.45 133.65 113.97 137.93 113.32 C 141.21 112.95 144.63 111.36 147.81 113.07 C 147.42 112.26 146.65 110.64 146.26 109.83 C 147.69 109.51 149.14 109.21 150.59 108.93 C 149.27 106.78 148.12 104.51 147.58 102.03 C 147.98 98.01 150.35 92.32 155.41 93.63 C 154.43 95.31 153.31 96.90 152.07 98.40 C 152.71 100.85 153.07 103.47 154.45 105.64 C 155.47 106.74 157.02 107.11 158.30 107.83 C 158.59 107.41 159.16 106.56 159.45 106.14 C 165.34 106.40 171.10 108.47 177.04 108.28 C 180.64 107.81 184.30 107.42 187.75 106.19 C 187.50 104.42 187.55 102.62 187.28 100.86 C 180.38 98.98 173.78 96.21 166.95 94.13 C 166.36 95.06 165.80 96.01 165.28 96.98 C 164.26 96.90 163.24 96.78 162.22 96.61 C 160.36 94.64 163.41 93.11 164.40 91.57 C 161.96 90.92 159.63 89.52 157.05 89.79 C 152.48 90.20 147.95 89.14 143.39 89.38 C 139.92 92.04 135.80 93.65 132.30 96.27 M 95.13 91.09 C 94.60 92.65 95.17 93.17 96.86 92.65 C 97.38 91.06 96.80 90.55 95.13 91.09 M 106.24 91.24 C 106.82 91.85 106.82 91.85 106.24 91.24 M 91.02 92.39 C 90.21 93.88 93.71 95.89 94.38 94.10 C 94.07 92.75 92.28 91.93 91.02 92.39 M 100.91 91.93 C 101.54 92.94 102.17 93.96 102.79 94.98 C 101.59 94.71 100.38 94.45 99.18 94.18 C 99.20 94.61 99.25 95.46 99.27 95.89 C 102.08 95.53 104.91 95.05 107.41 93.65 C 105.10 93.54 102.71 93.64 100.91 91.93 M 104.01 98.47 C 104.13 99.59 104.76 100.18 105.90 100.23 C 107.70 98.66 109.25 96.81 111.13 95.32 C 108.83 96.53 106.41 97.48 104.01 98.47 M 107.68 103.12 C 111.26 102.22 115.29 101.10 117.60 98.01 C 114.27 99.64 110.57 100.71 107.68 103.12 M 100.29 100.14 C 100.95 100.80 100.95 100.80 100.29 100.14 M 102.80 115.19 C 103.11 115.65 103.72 116.57 104.02 117.03 C 105.86 114.17 109.61 115.03 112.48 114.51 C 111.02 113.45 109.51 112.46 108.07 111.37 C 106.46 112.83 104.67 114.07 102.80 115.19 M 147.81 113.07 C 142.87 118.46 134.84 116.74 128.32 117.86 C 132.04 121.60 136.70 124.15 140.75 127.48 C 143.37 122.04 146.51 116.86 149.61 111.68 C 149.16 112.03 148.26 112.73 147.81 113.07 M 149.02 117.33 C 148.34 119.44 149.28 121.97 147.69 123.79 C 149.20 123.34 150.74 122.99 152.28 122.66 C 151.82 119.22 152.78 115.89 153.92 112.68 C 150.81 111.71 149.68 114.91 149.02 117.33 M 60.22 127.26 C 60.86 127.90 60.86 127.90 60.22 127.26 M 169.29 147.14 C 169.94 147.80 169.94 147.80 169.29 147.14 Z" />
<path fill="#ffffff" opacity="1.00" d=" M 20.07 96.08 C 26.13 95.65 30.97 89.78 37.31 91.52 C 36.64 93.01 35.68 94.33 34.48 95.44 C 34.47 98.26 34.43 101.09 34.86 103.89 C 36.19 107.85 38.85 111.26 39.33 115.53 C 39.92 115.50 41.10 115.43 41.69 115.39 C 41.10 119.45 40.48 124.15 42.95 127.71 C 48.39 124.21 51.61 118.53 55.12 113.30 C 55.91 113.34 57.50 113.43 58.29 113.47 C 56.78 117.38 55.86 121.76 52.64 124.70 C 50.70 126.43 50.40 129.11 49.43 131.39 C 45.80 133.09 41.86 133.96 37.88 134.18 C 36.97 131.99 40.27 131.03 41.71 129.94 C 39.05 129.52 38.12 126.88 37.58 124.58 C 36.62 118.11 34.03 112.00 33.26 105.49 C 32.95 103.73 30.75 103.39 29.36 102.86 C 29.73 104.84 30.21 106.80 30.56 108.79 C 32.56 109.54 33.42 111.18 33.45 113.25 C 24.97 113.47 20.06 121.62 15.23 127.49 C 14.56 126.24 13.88 125.00 13.19 123.76 C 15.36 121.54 17.32 119.14 19.17 116.66 C 16.66 118.58 13.73 118.87 10.68 118.46 C 11.79 119.24 12.93 119.98 14.07 120.72 C 13.74 121.75 13.42 122.79 13.10 123.82 C 13.69 125.20 14.30 126.57 14.79 128.00 C 13.85 128.33 12.91 128.62 11.95 128.88 C 11.70 127.57 11.44 126.26 11.17 124.95 C 8.97 125.49 6.77 126.00 4.56 126.47 C 5.62 121.65 8.65 117.43 12.01 113.91 C 12.32 114.62 12.93 116.05 13.24 116.77 C 14.68 116.08 16.19 115.57 17.75 115.26 C 17.32 115.01 16.46 114.53 16.04 114.29 C 18.41 112.43 20.64 110.33 23.38 108.99 C 22.70 111.13 21.73 113.15 20.78 115.18 C 23.06 112.88 25.80 111.16 28.81 109.97 C 28.64 107.42 28.66 104.86 28.57 102.30 C 29.28 102.47 30.68 102.82 31.39 102.99 C 31.50 100.19 32.43 97.55 33.30 94.92 C 31.56 96.40 28.47 97.29 29.35 100.19 C 28.52 99.45 27.80 97.18 26.40 98.26 C 24.17 99.79 20.60 100.73 20.36 103.90 C 21.93 104.71 23.62 105.22 25.25 105.89 C 21.96 108.60 18.16 110.54 14.63 112.88 C 11.68 114.56 8.23 114.65 5.08 113.47 C 5.77 111.04 7.36 109.17 9.45 107.82 C 7.86 107.01 6.31 106.13 4.84 105.13 C 5.59 103.96 6.36 102.80 7.13 101.64 C 6.23 101.57 4.42 101.43 3.52 101.37 C 3.78 100.57 4.31 98.97 4.58 98.17 C 5.64 98.20 6.70 98.24 7.76 98.31 C 7.00 97.72 5.48 96.56 4.72 95.98 C 9.84 95.27 14.94 96.73 20.07 96.08 M 10.48 105.87 C 13.37 105.70 16.08 104.69 18.54 103.19 C 15.73 103.60 12.00 102.80 10.48 105.87 M 13.59 107.79 C 12.60 107.32 11.61 106.83 10.62 106.36 C 10.99 108.65 10.64 110.93 9.01 112.68 C 12.61 109.86 16.99 108.09 20.19 104.76 C 17.85 105.44 15.66 106.52 13.59 107.79 Z" />
<path fill="#ffffff" opacity="1.00" d=" M 71.19 92.36 C 75.46 94.66 79.06 98.03 82.71 101.18 C 82.28 101.39 81.43 101.81 81.00 102.02 C 76.94 99.89 71.76 97.52 71.19 92.36 Z" />
<path fill="#ffffff" opacity="1.00" d=" M 37.49 99.35 C 37.94 99.34 38.85 99.33 39.30 99.33 C 38.68 103.55 42.93 106.88 41.26 110.95 C 38.18 108.04 35.46 103.59 37.49 99.35 Z" />
<path fill="#ffffff" opacity="1.00" d=" M 177.91 102.84 C 180.95 102.56 183.99 102.26 187.05 102.28 C 184.34 104.87 180.78 104.50 177.36 104.23 C 177.50 103.88 177.77 103.19 177.91 102.84 Z" />
<path fill="#ffffff" opacity="1.00" d=" M 43.90 110.74 C 46.35 110.39 48.80 110.05 51.26 109.83 C 50.67 111.04 49.88 112.10 48.88 113.01 C 46.82 114.11 45.45 111.69 43.90 110.74 Z" />
<path fill="#ffffff" opacity="1.00" d=" M 41.83 110.90 C 43.26 109.77 45.10 112.37 44.20 113.59 C 42.66 114.45 40.41 112.34 41.83 110.90 Z" />
<path fill="#ffffff" opacity="1.00" d=" M 51.88 110.29 C 52.60 110.47 54.04 110.85 54.76 111.04 C 51.16 116.34 48.71 122.51 43.79 126.84 C 42.77 126.15 42.12 125.20 41.82 123.99 C 43.09 120.59 46.05 118.04 47.02 114.42 C 49.49 114.17 51.08 112.60 51.88 110.29 Z" />
</g>
</svg>
