<?xml version="1.0" encoding="UTF-8" ?>
<!DOCTYPE svg PUBLIC "-//W3C//DTD SVG 1.1//EN" "http://www.w3.org/Graphics/SVG/1.1/DTD/svg11.dtd">
<svg width="200pt" height="200pt" viewBox="0 0 200 200" version="1.1" xmlns="http://www.w3.org/2000/svg">
<g id="#ffffffff">
<path fill="#ffffff" opacity="1.00" d=" M 133.93 55.64 C 135.82 51.64 133.33 46.96 135.87 43.13 C 137.82 46.08 139.92 48.94 142.38 51.50 C 143.43 49.03 144.58 46.58 146.14 44.39 C 148.93 45.98 149.53 49.16 150.46 51.96 C 151.80 49.61 153.06 47.20 154.65 45.00 C 155.84 45.73 157.03 46.46 158.22 47.18 C 158.25 49.32 158.28 51.47 158.56 53.59 C 160.43 50.78 161.53 47.46 164.01 45.07 C 165.61 46.62 167.71 48.45 167.18 50.94 C 167.37 55.73 166.18 60.83 168.40 65.29 C 167.00 65.78 165.63 66.79 164.08 66.44 C 155.08 65.42 146.09 64.00 137.01 64.40 C 132.73 63.96 132.49 58.77 133.93 55.64 M 142.90 56.71 C 141.02 55.91 139.82 54.33 138.73 52.68 C 138.48 55.29 138.20 57.91 137.52 60.45 C 145.98 60.08 154.45 60.99 162.80 62.33 C 162.66 59.79 162.58 57.26 162.55 54.72 C 160.69 56.27 158.45 56.93 156.08 57.12 C 155.47 55.74 154.89 54.36 154.32 52.97 C 152.89 54.62 151.35 56.36 149.03 56.61 C 147.30 55.83 147.15 53.55 146.30 52.04 C 145.21 53.63 144.07 55.19 142.90 56.71 Z" />
<path fill="#ffffff" opacity="1.00" d=" M 107.31 62.24 C 111.04 63.66 115.30 62.92 118.68 65.29 C 122.21 66.85 125.32 69.21 127.14 72.68 C 130.22 70.76 133.59 72.46 136.84 72.81 C 142.77 74.14 148.63 75.74 154.47 77.41 C 158.54 78.74 161.41 82.37 165.66 83.30 C 168.09 83.72 168.80 86.33 169.74 88.23 C 174.72 89.47 179.83 90.37 184.55 92.46 C 184.79 93.88 185.83 95.44 184.83 96.81 C 182.52 99.32 179.06 100.25 176.55 102.50 C 174.07 104.67 171.35 106.68 169.59 109.53 C 175.05 107.28 178.91 102.59 183.87 99.53 C 185.45 98.67 185.85 96.81 186.66 95.36 C 187.78 97.09 189.47 99.18 188.53 101.35 C 186.85 103.72 185.22 106.16 183.19 108.23 C 176.51 112.83 169.34 116.99 161.25 118.42 C 154.88 119.28 148.68 121.43 142.20 121.33 C 139.69 121.63 136.29 121.19 135.41 124.25 C 130.94 130.14 126.91 136.66 120.48 140.67 C 117.87 142.67 114.54 140.93 111.82 140.10 C 108.40 139.05 106.36 135.56 102.71 135.06 C 102.64 134.57 102.50 133.59 102.42 133.10 C 105.84 130.85 109.38 128.78 113.02 126.90 C 99.58 126.43 85.87 126.54 72.87 122.63 C 67.12 127.00 59.99 128.78 53.44 131.58 C 51.23 132.67 48.73 132.56 46.34 132.45 C 46.41 131.52 46.55 129.68 46.62 128.75 C 46.21 129.80 45.81 130.85 45.43 131.91 C 41.44 131.79 36.65 131.27 35.26 126.82 C 36.55 127.24 37.84 127.67 39.13 128.11 C 35.86 126.45 36.34 122.80 36.43 119.70 C 35.14 120.83 33.83 121.95 32.63 123.18 C 34.08 131.04 30.22 138.57 28.01 145.95 C 27.49 148.40 25.91 150.29 23.97 151.78 C 23.02 151.10 22.13 150.35 21.30 149.53 C 18.77 143.39 17.41 136.75 14.04 130.97 C 9.44 124.24 4.47 117.49 2.43 109.47 C 2.02 108.45 2.18 106.84 3.47 106.57 C 9.74 104.66 15.78 102.00 22.12 100.34 C 23.75 99.74 24.92 101.15 25.95 102.16 C 19.85 105.87 12.47 106.79 6.09 110.02 C 6.53 110.55 7.40 111.62 7.83 112.16 C 12.89 108.20 18.72 105.15 25.15 104.23 C 23.46 109.30 17.18 109.38 13.50 112.36 C 16.22 112.22 18.91 112.76 21.63 112.70 C 23.49 110.58 24.30 107.81 25.17 105.19 C 26.46 105.29 27.76 105.41 29.06 105.54 C 28.12 106.37 27.17 107.17 26.20 107.96 C 26.42 108.64 26.84 109.99 27.06 110.67 C 27.80 108.88 28.70 107.14 30.06 105.74 C 28.11 104.93 25.68 103.71 26.42 101.14 C 28.70 99.47 31.30 98.31 33.72 96.85 C 35.62 95.46 38.14 97.07 40.15 95.99 C 42.68 95.06 44.77 92.59 47.68 93.50 C 48.13 92.33 48.60 91.17 49.09 90.02 C 50.10 90.61 51.10 91.21 52.09 91.84 C 52.78 90.76 53.48 89.69 54.16 88.60 C 51.05 89.24 47.91 89.89 44.71 89.81 C 42.70 87.27 46.07 86.70 47.77 85.68 C 50.74 84.51 54.11 85.09 57.12 84.09 C 60.08 82.42 63.15 80.83 65.60 78.44 C 66.23 78.82 66.87 79.22 67.50 79.62 C 67.50 78.88 67.49 77.42 67.49 76.68 C 64.77 79.31 61.12 79.81 57.49 79.76 C 58.21 80.36 59.66 81.57 60.38 82.17 C 56.03 83.32 50.82 84.01 46.98 81.11 C 48.55 80.11 50.27 79.43 52.13 79.25 C 51.87 78.63 51.35 77.39 51.09 76.78 C 52.36 76.66 53.62 76.55 54.89 76.46 C 54.80 75.76 54.61 74.35 54.52 73.64 C 57.62 73.72 60.73 73.65 63.83 73.57 C 62.66 72.59 61.46 71.62 60.25 70.68 C 61.66 69.48 62.93 67.91 64.90 67.71 C 70.84 68.44 77.49 68.58 81.71 73.50 C 87.42 72.42 93.15 73.03 98.85 73.85 C 97.68 71.86 96.68 69.78 95.86 67.63 C 96.46 67.19 97.66 66.32 98.26 65.88 C 101.39 68.69 105.28 70.51 109.30 71.67 C 106.87 69.48 104.12 67.64 102.14 64.99 C 102.76 64.55 104.00 63.68 104.63 63.24 C 105.80 64.31 106.99 65.37 108.17 66.44 C 107.81 65.05 107.52 63.65 107.31 62.24 M 105.75 75.46 C 104.62 74.53 103.50 73.58 102.38 72.64 C 101.91 74.71 100.76 76.43 99.40 78.03 C 100.98 77.75 102.54 77.39 104.10 77.06 C 104.32 78.40 104.77 79.68 105.32 80.92 C 104.51 82.11 103.71 83.31 102.99 84.56 C 105.37 82.72 107.58 80.65 109.58 78.41 C 108.33 78.59 107.08 78.79 105.83 79.01 C 105.35 78.21 104.88 77.41 104.40 76.61 C 106.18 76.12 107.94 75.35 109.83 75.54 C 115.02 75.45 120.17 74.26 125.37 74.87 C 125.37 74.18 125.37 72.80 125.36 72.12 C 118.88 73.55 112.08 73.29 105.75 75.46 M 74.05 73.05 C 73.94 73.78 73.71 75.23 73.60 75.96 C 72.54 75.67 71.48 75.39 70.43 75.09 C 71.21 76.00 71.97 76.93 72.72 77.87 C 73.83 74.95 77.03 74.84 79.55 73.79 C 77.77 73.54 75.78 71.96 74.05 73.05 M 129.90 73.36 C 129.47 74.72 129.97 75.17 131.42 74.72 C 131.83 73.35 131.32 72.90 129.90 73.36 M 84.02 81.33 C 84.25 80.65 84.71 79.29 84.94 78.61 C 84.27 78.72 82.94 78.95 82.27 79.07 C 82.34 80.47 82.32 81.87 82.18 83.27 C 81.41 81.69 80.78 79.96 78.91 79.45 C 79.21 80.71 79.54 81.97 79.87 83.22 C 79.15 82.39 78.43 81.56 77.71 80.73 C 76.16 82.07 74.68 83.49 73.15 84.86 C 73.48 83.09 73.87 81.32 74.21 79.56 C 72.99 80.57 71.82 81.65 70.77 82.83 C 69.08 82.24 67.34 81.84 65.55 81.70 C 67.26 82.90 69.13 83.83 70.82 85.06 C 69.00 84.82 67.20 84.42 65.39 84.12 C 64.93 85.12 64.48 86.13 64.03 87.14 C 66.11 88.44 67.02 90.69 67.60 92.98 C 66.15 92.76 64.71 92.50 63.27 92.19 C 62.77 93.04 62.21 93.85 61.60 94.64 C 59.79 95.19 59.68 92.93 58.96 91.84 C 58.45 93.01 57.99 94.21 57.35 95.32 C 53.89 96.52 50.52 97.93 47.04 99.09 C 44.38 100.25 41.21 100.67 39.28 103.07 C 39.20 106.04 41.82 102.14 42.65 101.44 C 42.13 103.00 41.60 104.56 41.19 106.16 C 40.08 105.20 38.97 104.24 37.86 103.28 C 36.86 104.00 35.87 104.72 34.88 105.46 C 35.98 105.56 38.16 105.76 39.26 105.87 C 37.41 106.92 35.49 106.35 33.79 105.34 C 30.41 109.19 27.05 113.12 24.34 117.47 C 25.81 117.15 27.28 116.81 28.74 116.45 C 28.59 115.63 28.45 114.81 28.31 113.99 C 30.40 113.33 32.40 112.36 34.60 112.04 C 33.69 109.98 35.33 109.32 37.02 108.88 C 38.28 110.71 37.29 112.59 36.54 114.38 C 39.03 113.15 41.38 111.28 44.29 111.24 C 44.89 110.02 45.52 108.81 46.12 107.59 C 43.64 108.51 41.18 109.52 38.64 110.30 C 39.90 109.00 41.18 107.71 42.57 106.55 C 43.82 106.39 45.09 106.59 46.35 106.59 C 46.65 107.55 46.97 108.51 47.30 109.47 C 48.71 109.39 50.11 109.32 51.52 109.28 C 52.16 107.85 52.80 106.43 53.49 105.02 C 55.22 105.31 56.89 105.83 58.51 106.52 C 58.65 105.90 58.94 104.68 59.09 104.07 C 59.92 104.19 61.57 104.44 62.40 104.57 C 61.24 106.62 60.26 109.22 57.40 108.81 C 57.62 110.71 57.80 112.62 58.24 114.49 C 58.24 113.20 58.20 111.91 58.13 110.63 C 60.33 109.82 62.55 109.07 64.79 108.37 C 65.58 109.45 66.39 110.51 67.21 111.57 C 66.28 112.38 65.34 113.19 64.42 114.01 C 65.63 114.64 66.84 115.26 68.04 115.92 C 68.39 115.61 68.75 115.31 69.10 115.00 C 71.32 116.56 74.02 116.90 76.61 117.41 C 76.59 115.93 76.58 114.45 76.56 112.97 C 76.89 113.34 77.56 114.10 77.90 114.47 C 77.58 115.26 77.26 116.06 76.94 116.85 C 79.75 117.84 82.72 119.02 85.74 118.14 C 87.74 117.51 89.86 117.60 91.91 117.86 C 94.09 118.62 95.54 120.47 97.27 121.89 C 99.16 121.50 100.85 120.54 102.65 119.89 C 102.21 118.99 101.31 117.20 100.87 116.31 C 102.66 117.29 104.24 118.59 105.80 119.90 C 105.76 119.22 105.67 117.86 105.63 117.18 C 106.30 118.21 106.99 119.23 107.68 120.25 C 105.75 120.69 103.85 121.26 102.06 122.13 C 105.61 122.75 109.19 123.50 112.81 123.48 C 117.25 122.86 121.44 121.13 125.72 119.83 C 128.17 119.15 129.72 116.58 132.37 116.43 C 135.02 116.23 137.51 115.25 140.09 114.63 C 143.55 114.38 147.04 114.44 150.52 114.26 C 152.85 112.53 155.58 112.28 158.41 112.10 C 155.30 110.82 152.05 109.76 149.31 107.73 C 146.23 105.53 142.53 103.19 141.62 99.26 C 140.75 95.46 138.72 91.97 138.53 88.01 C 137.81 86.01 139.87 85.29 141.14 84.32 C 140.96 90.77 144.47 96.28 148.32 101.12 C 148.44 99.95 148.68 97.59 148.80 96.42 C 146.96 95.52 145.27 94.31 144.62 92.27 C 148.34 94.95 154.27 95.80 155.61 100.77 C 153.78 99.74 152.08 98.52 150.35 97.34 C 150.24 98.94 150.21 100.55 150.14 102.15 C 152.82 103.38 155.69 104.41 157.84 106.52 C 157.78 105.69 157.66 104.05 157.60 103.22 C 158.72 104.58 159.75 106.01 160.83 107.41 C 163.28 107.30 165.92 107.11 167.94 108.79 C 168.37 108.44 169.24 107.74 169.67 107.40 C 169.52 106.26 169.36 105.13 169.21 104.01 C 169.73 103.85 170.76 103.54 171.28 103.39 C 170.85 102.60 170.43 101.81 170.02 101.02 C 171.57 99.85 173.17 98.76 174.69 97.57 C 174.79 96.26 174.64 94.94 174.63 93.64 C 171.63 91.95 168.79 90.03 166.30 87.65 C 167.11 89.51 167.89 91.38 168.61 93.27 C 166.95 94.41 165.26 95.91 163.09 95.65 C 160.44 95.95 158.66 92.83 159.28 90.47 C 160.83 88.41 163.44 87.96 165.74 87.19 C 160.00 85.64 154.48 82.98 148.52 82.45 C 143.30 80.81 138.14 77.83 132.48 78.68 C 129.51 79.12 126.58 78.42 123.71 77.73 C 119.28 77.84 114.40 76.64 110.66 79.73 C 111.79 80.61 112.89 81.53 113.95 82.49 C 115.25 81.25 116.68 80.16 118.14 79.11 C 120.99 79.86 123.92 79.56 126.82 79.62 C 128.97 80.35 131.16 80.98 133.33 81.68 C 131.72 84.86 128.62 86.74 125.91 88.87 C 125.21 87.85 124.53 86.82 123.85 85.80 C 121.03 87.69 117.91 86.13 114.85 86.29 C 113.75 87.09 112.68 87.95 111.65 88.85 C 110.98 88.04 110.32 87.22 109.67 86.41 C 108.41 87.38 107.25 88.49 105.88 89.31 C 104.00 89.39 102.13 89.52 100.26 89.74 C 100.36 88.57 100.47 87.40 100.61 86.23 C 99.04 88.96 96.71 91.08 93.94 92.56 C 93.30 91.70 92.66 90.83 92.03 89.96 C 91.01 90.74 89.99 91.51 88.96 92.29 C 86.86 90.91 84.65 91.44 82.53 92.47 C 82.19 91.27 81.86 90.07 81.53 88.87 C 80.23 89.85 78.92 90.84 77.60 91.80 C 76.97 90.96 76.36 90.11 75.75 89.25 C 74.24 90.25 72.70 91.19 71.09 92.02 C 70.15 90.45 69.53 88.75 69.21 86.96 C 72.24 86.75 75.17 85.96 77.31 83.68 C 78.50 84.15 79.69 84.61 80.87 85.09 C 82.58 83.92 86.89 80.79 86.82 84.83 C 87.98 84.07 89.15 83.32 90.38 82.66 C 92.87 83.17 95.40 83.25 97.94 83.22 C 97.78 81.87 97.58 80.52 97.31 79.19 C 97.80 78.90 98.78 78.31 99.27 78.02 C 94.12 77.05 87.89 77.36 84.02 81.33 M 174.88 94.06 C 175.29 94.92 175.71 95.77 176.12 96.62 C 177.31 96.02 178.53 95.48 179.79 95.02 C 178.14 94.78 176.51 94.42 174.88 94.06 M 54.06 107.15 C 52.93 108.15 54.68 110.26 55.90 109.46 C 57.03 108.37 55.38 106.32 54.06 107.15 M 7.89 113.50 C 9.30 116.43 10.50 119.57 12.75 121.99 C 14.58 120.67 16.43 119.36 18.22 117.99 C 16.19 118.55 14.32 119.99 12.14 119.87 C 10.53 117.96 12.23 115.45 12.53 113.29 C 10.99 113.40 9.44 113.45 7.89 113.50 M 32.21 114.04 C 32.89 114.72 32.89 114.72 32.21 114.04 M 38.77 120.11 C 42.63 118.98 46.38 117.51 50.33 116.70 C 50.47 117.90 50.63 119.10 50.81 120.30 C 52.80 119.13 54.81 117.95 57.02 117.21 C 55.12 116.53 53.21 115.77 51.81 114.25 C 47.46 116.09 41.53 115.68 38.77 120.11 M 158.40 114.04 C 158.56 115.40 159.26 115.61 160.51 114.67 C 160.35 113.30 159.65 113.09 158.40 114.04 M 53.22 124.21 C 51.91 124.93 50.66 125.74 49.37 126.49 C 48.89 124.24 50.26 122.40 51.22 120.50 C 49.91 121.57 48.66 122.73 47.39 123.85 C 46.50 123.58 45.61 123.30 44.72 123.02 C 44.58 125.64 41.87 126.18 39.97 127.25 C 41.20 127.75 42.44 128.24 43.67 128.73 C 45.26 127.38 46.90 126.08 48.64 124.93 C 48.40 126.23 48.13 127.52 47.83 128.81 C 55.85 127.36 63.22 123.64 70.62 120.35 C 67.79 119.65 64.93 119.02 62.05 118.57 C 58.43 119.20 56.42 122.72 53.22 124.21 M 86.21 119.84 C 85.56 121.19 87.84 121.95 88.64 121.07 C 89.17 119.77 86.98 118.77 86.21 119.84 M 28.36 120.98 C 27.36 122.17 29.42 123.39 30.37 122.56 C 31.16 121.45 29.30 119.87 28.36 120.98 M 15.10 124.35 C 15.27 125.34 15.51 126.31 15.74 127.29 C 16.01 127.52 16.55 127.97 16.82 128.19 C 17.12 128.92 17.74 130.38 18.05 131.11 C 19.01 128.92 20.12 126.80 21.08 124.62 C 20.27 125.69 19.50 126.79 18.77 127.92 C 18.17 127.34 16.98 126.18 16.38 125.60 C 17.25 124.27 18.11 122.94 18.91 121.58 C 17.58 122.41 16.12 123.12 15.10 124.35 M 129.44 122.73 C 129.01 124.64 127.94 126.27 126.18 127.20 C 121.64 129.87 118.18 133.90 113.97 137.02 C 114.75 137.59 115.52 138.16 116.29 138.73 C 120.26 132.37 127.62 129.04 131.13 122.35 C 130.71 122.45 129.86 122.63 129.44 122.73 M 20.00 134.15 C 20.26 134.93 20.77 136.49 21.03 137.27 C 22.72 132.73 24.53 128.23 26.79 123.95 C 24.46 127.30 21.90 130.52 20.00 134.15 M 108.65 133.58 C 109.26 134.17 110.47 135.35 111.07 135.94 C 113.92 132.44 118.36 130.48 120.66 126.55 C 116.64 128.87 112.74 131.39 108.65 133.58 M 24.45 138.32 C 23.87 140.54 22.38 142.98 23.97 145.13 C 25.62 139.35 28.40 133.84 29.02 127.81 C 26.41 130.77 25.89 134.78 24.45 138.32 Z" />
<path fill="#ffffff" opacity="1.00" d=" M 113.05 79.14 C 114.54 78.43 115.34 80.67 113.87 81.21 C 112.52 81.86 111.44 79.48 113.05 79.14 Z" />
<path fill="#ffffff" opacity="1.00" d=" M 133.58 85.24 C 134.33 86.33 135.10 87.43 135.63 88.66 C 134.94 89.32 134.23 89.96 133.51 90.58 C 133.46 88.80 133.49 87.02 133.58 85.24 Z" />
<path fill="#ffffff" opacity="1.00" d=" M 128.16 92.44 C 129.82 92.20 131.15 93.47 132.56 94.12 C 131.33 94.71 130.10 95.28 128.87 95.84 C 129.86 96.80 132.97 97.56 131.32 99.25 C 125.72 100.42 120.22 101.99 114.77 103.72 C 114.29 104.11 113.32 104.89 112.83 105.29 C 115.32 105.47 117.95 105.98 120.39 105.25 C 123.32 103.57 126.29 101.95 129.51 100.88 C 129.98 101.89 130.45 102.91 130.93 103.93 C 125.94 105.71 121.53 109.79 115.91 108.81 C 112.59 109.43 109.98 107.43 107.93 105.08 C 106.85 103.60 104.93 104.42 103.41 104.26 C 103.33 106.13 103.24 108.00 103.17 109.88 C 104.22 109.34 105.27 108.78 106.33 108.23 C 103.28 112.11 100.91 116.55 97.03 119.72 C 97.20 118.32 97.41 116.94 97.67 115.57 C 99.43 113.10 102.82 111.59 102.98 108.25 C 102.20 108.27 100.64 108.32 99.86 108.35 C 101.56 107.23 102.00 105.46 101.68 103.55 C 103.32 103.59 104.96 103.62 106.59 103.65 C 106.22 102.64 105.48 100.62 105.11 99.62 C 107.28 97.83 109.32 95.55 112.18 94.91 C 117.46 93.85 122.76 92.71 128.16 92.44 M 108.04 100.89 C 108.63 101.28 109.79 102.07 110.38 102.46 C 114.50 101.30 118.05 98.60 121.86 96.68 C 117.04 97.32 112.47 98.93 108.04 100.89 Z" />
<path fill="#ffffff" opacity="1.00" d=" M 156.60 99.29 C 159.00 98.81 161.03 99.77 161.59 102.27 C 159.87 101.38 158.19 100.41 156.60 99.29 Z" />
<path fill="#ffffff" opacity="1.00" d=" M 33.22 108.03 C 34.54 108.63 34.49 109.27 33.08 109.94 C 31.78 109.34 31.83 108.70 33.22 108.03 Z" />
<path fill="#ffffff" opacity="1.00" d=" M 81.54 115.03 C 82.54 114.07 84.93 115.14 84.56 116.56 C 83.56 117.24 81.02 116.51 81.54 115.03 Z" />
</g>
</svg>
