<?xml version="1.0" encoding="UTF-8" ?>
<!DOCTYPE svg PUBLIC "-//W3C//DTD SVG 1.1//EN" "http://www.w3.org/Graphics/SVG/1.1/DTD/svg11.dtd">
<svg width="180pt" height="180pt" viewBox="0 0 180 180" version="1.1" xmlns="http://www.w3.org/2000/svg">
<g id="#ffffffff">
<path fill="#ffffff" opacity="1.00" d=" M 132.88 18.91 C 135.30 15.99 136.45 11.78 140.04 10.01 C 141.12 11.65 142.11 13.35 142.97 15.12 C 142.86 19.54 138.88 22.37 137.33 26.27 C 135.37 29.13 134.46 34.47 130.00 33.76 C 131.89 30.75 134.15 27.99 136.23 25.10 C 132.96 27.26 131.14 30.80 128.84 33.83 C 125.86 36.94 123.83 40.81 121.70 44.51 C 125.09 41.84 126.44 37.56 129.33 34.50 C 130.08 34.39 131.58 34.16 132.33 34.04 C 129.14 41.72 123.23 47.82 119.95 55.46 C 125.65 51.43 132.15 48.79 138.84 46.93 C 139.11 43.97 139.37 41.01 139.77 38.06 C 140.86 34.37 144.10 32.01 146.99 29.75 C 147.33 31.30 147.62 32.87 147.87 34.44 C 149.18 33.50 150.57 32.67 152.07 32.03 C 152.71 35.77 152.49 39.57 152.68 43.34 C 155.10 45.75 159.20 45.45 162.16 47.15 C 160.62 48.48 159.08 49.81 157.32 50.84 C 157.99 51.61 158.64 52.40 159.29 53.20 C 157.32 53.24 155.46 52.61 153.65 51.91 C 154.80 50.92 155.98 49.97 157.14 49.00 C 153.79 48.18 151.07 46.07 148.43 43.97 C 148.86 42.13 149.27 40.29 149.52 38.42 C 144.55 40.58 143.30 46.20 142.50 51.01 C 142.20 53.79 140.58 56.13 139.35 58.57 C 138.07 56.55 136.60 54.66 134.95 52.93 C 136.24 52.03 137.58 51.20 138.70 50.09 C 133.67 52.88 127.85 54.16 123.33 57.86 C 125.23 60.59 127.11 63.35 128.87 66.18 C 125.35 64.95 122.16 62.89 121.07 59.11 C 119.39 60.52 117.47 61.57 115.57 62.64 C 111.65 67.50 109.01 73.30 105.83 78.68 C 102.99 82.10 101.09 86.12 99.19 90.10 C 101.13 92.37 103.39 94.34 106.00 95.80 C 105.30 92.81 104.36 89.88 103.63 86.89 C 104.78 86.30 106.48 86.35 107.12 85.07 C 108.00 82.37 108.73 79.60 110.21 77.14 C 110.26 78.14 110.35 80.13 110.40 81.12 C 111.70 80.11 112.97 79.07 114.24 78.03 C 114.16 79.22 114.07 80.41 113.98 81.60 C 112.99 81.50 112.01 81.41 111.02 81.34 C 113.06 84.75 111.39 88.38 111.23 92.02 C 110.13 90.93 109.04 89.82 107.93 88.74 C 108.26 91.01 108.58 93.32 109.42 95.47 C 111.18 97.32 113.28 98.80 115.52 100.03 C 115.64 99.49 115.87 98.43 115.99 97.90 C 113.73 97.70 111.59 96.88 112.30 94.10 C 114.92 94.33 117.38 97.09 119.95 95.93 C 120.92 93.61 121.02 90.49 123.81 89.56 C 123.26 91.31 122.05 93.16 123.66 94.72 C 123.40 95.23 122.88 96.24 122.62 96.75 C 121.19 97.47 119.61 97.61 118.04 97.74 C 121.16 101.24 121.95 106.47 126.04 109.05 C 129.49 111.90 131.53 116.16 135.28 118.69 C 135.76 118.73 136.72 118.80 137.20 118.83 C 132.94 112.22 128.50 105.69 124.42 98.94 C 126.21 97.66 127.84 96.17 129.39 94.61 C 128.07 94.54 126.75 94.50 125.43 94.44 C 125.45 92.91 125.43 91.38 125.37 89.85 C 126.14 89.75 127.68 89.54 128.45 89.44 C 128.49 90.05 128.56 91.27 128.60 91.88 C 129.58 91.12 130.58 90.38 131.61 89.69 C 131.49 88.60 131.30 87.51 131.36 86.42 C 132.48 85.33 134.12 85.17 135.51 84.60 C 134.91 84.35 133.70 83.84 133.10 83.59 C 133.50 82.43 134.02 81.32 134.51 80.20 C 135.82 80.82 137.05 81.72 138.55 81.77 C 137.50 77.36 136.04 73.13 133.13 69.57 C 135.06 70.95 138.00 71.61 138.34 74.34 C 138.74 76.32 140.56 77.43 141.82 78.84 C 143.60 78.05 145.53 76.87 147.55 77.44 C 147.59 81.01 144.35 83.63 142.06 86.06 C 138.51 88.65 136.80 92.87 133.63 95.84 C 133.23 94.96 132.82 94.09 132.38 93.23 C 132.51 93.84 132.78 95.06 132.91 95.67 C 131.76 97.44 130.46 99.10 129.25 100.83 C 133.10 107.13 137.19 113.27 141.50 119.26 C 141.37 123.64 145.55 126.29 146.25 130.48 C 149.47 130.12 153.16 129.58 154.95 133.00 C 151.73 135.60 147.26 134.74 143.46 134.37 C 140.36 133.74 140.63 130.00 140.48 127.58 C 139.79 127.52 138.41 127.39 137.71 127.32 C 133.71 122.35 129.84 117.16 124.87 113.08 C 122.75 111.34 121.23 108.91 118.66 107.76 C 119.43 109.19 120.38 110.52 121.24 111.89 C 122.70 115.51 122.21 120.00 125.08 122.96 C 126.48 124.72 128.56 126.23 128.76 128.65 C 135.51 132.72 139.32 140.13 145.56 144.89 C 145.44 145.76 145.18 147.51 145.06 148.38 C 145.43 147.77 146.18 146.55 146.56 145.94 C 149.99 150.43 154.14 154.27 157.96 158.42 C 158.16 158.42 158.57 158.42 158.77 158.42 C 160.77 161.77 163.68 164.39 166.25 167.28 C 166.89 169.21 166.17 169.97 164.11 169.56 C 160.43 166.67 158.07 162.38 154.14 159.80 C 150.82 157.32 148.40 153.83 145.03 151.42 C 147.19 154.48 149.73 157.25 152.11 160.13 C 151.59 160.63 150.55 161.65 150.03 162.16 C 144.99 157.45 140.13 152.54 135.93 147.06 C 130.94 142.57 126.94 137.18 122.62 132.08 C 119.98 133.08 117.31 134.05 114.84 135.46 C 114.45 135.28 113.66 134.92 113.27 134.74 C 112.81 130.79 114.72 127.08 114.91 123.20 C 109.85 116.37 104.50 109.71 99.14 103.11 C 96.91 109.28 93.71 115.03 90.92 120.93 C 93.20 124.60 95.51 128.25 97.12 132.29 C 98.31 132.16 99.50 131.94 100.68 131.75 C 102.30 134.04 106.04 134.60 106.10 137.80 C 103.80 136.82 101.68 134.91 99.02 135.25 C 97.16 135.78 95.37 136.50 93.49 136.97 C 90.09 132.84 87.27 128.12 85.83 122.94 C 85.35 121.73 86.93 121.24 87.50 120.44 C 84.61 121.72 85.35 118.58 85.03 116.77 C 78.17 127.64 73.44 139.61 68.29 151.35 C 67.29 153.40 67.38 156.53 64.92 157.48 C 62.26 155.32 64.85 151.92 65.57 149.35 C 63.27 149.48 60.78 148.59 58.61 149.51 C 57.03 153.12 55.54 156.79 53.36 160.09 C 52.84 159.71 51.81 158.94 51.30 158.56 C 52.39 155.26 53.55 151.97 54.88 148.76 C 55.58 148.50 56.96 147.98 57.66 147.72 C 56.29 147.78 54.92 147.85 53.55 147.92 C 52.24 141.18 52.95 134.09 55.67 127.79 C 55.12 126.92 54.37 126.13 54.14 125.10 C 54.49 123.04 56.44 121.93 57.84 120.61 C 57.91 118.16 57.86 115.70 57.59 113.25 C 60.08 110.97 61.73 108.02 63.22 105.03 C 60.33 103.50 57.36 102.12 54.72 100.17 C 55.99 102.50 58.55 104.28 58.72 107.08 C 56.57 108.73 54.75 105.96 53.50 104.47 C 51.87 102.71 51.80 99.02 48.77 99.15 C 49.11 97.40 49.48 95.66 49.89 93.93 C 50.22 94.25 50.88 94.89 51.21 95.21 C 52.22 93.52 52.60 90.67 55.19 91.20 C 56.23 92.81 56.76 94.67 57.75 96.29 C 59.76 98.67 62.60 100.11 65.04 102.00 C 66.15 101.40 67.26 100.78 68.36 100.16 C 68.58 102.87 70.25 105.01 71.52 107.31 C 69.70 107.42 67.88 107.38 66.07 107.22 C 64.14 111.65 61.28 115.85 61.30 120.88 C 64.87 118.95 67.18 115.44 70.67 113.46 C 72.20 111.59 73.87 109.77 74.70 107.46 C 77.37 101.93 73.89 95.20 77.69 90.02 C 78.57 91.92 79.03 93.97 78.50 96.04 C 79.55 93.77 81.08 91.78 82.52 89.75 C 83.28 90.33 84.04 90.92 84.80 91.52 C 85.74 90.00 86.71 88.50 87.72 87.02 C 82.87 81.60 79.76 74.93 74.99 69.44 C 74.00 70.10 73.01 70.76 72.01 71.39 C 68.81 74.88 67.06 79.50 63.34 82.53 C 63.82 82.88 64.79 83.57 65.27 83.91 C 63.47 84.80 61.67 85.68 59.89 86.61 C 61.45 83.15 62.30 79.12 65.98 77.25 C 65.81 75.89 65.64 74.52 65.45 73.16 C 62.05 75.52 60.01 79.26 57.28 82.30 C 55.26 84.66 53.07 88.49 55.98 91.04 C 55.40 90.83 54.23 90.42 53.64 90.21 C 53.21 88.72 52.76 87.24 52.32 85.75 C 46.34 89.25 45.73 97.18 40.41 101.33 C 37.12 104.47 36.55 109.30 33.73 112.76 C 31.86 115.60 28.55 118.16 29.33 121.97 C 26.32 124.45 23.53 127.19 21.10 130.24 C 20.32 129.87 19.54 129.50 18.76 129.12 C 18.29 130.79 17.66 132.39 17.17 134.05 C 18.23 132.83 19.12 131.48 20.04 130.15 C 21.74 131.57 21.00 133.48 20.46 135.26 C 21.99 137.68 25.47 139.65 24.30 142.93 C 24.04 144.34 23.50 145.67 23.00 147.01 C 22.42 146.74 21.24 146.20 20.65 145.93 C 20.77 144.42 20.84 142.91 20.86 141.40 C 19.90 143.06 19.14 144.83 18.32 146.56 C 16.34 145.38 14.23 144.46 12.15 143.51 C 13.36 141.34 14.51 139.15 15.51 136.88 C 14.07 137.41 12.63 137.96 11.18 138.45 C 11.95 137.25 12.76 136.07 13.56 134.89 C 13.06 134.17 12.56 133.44 12.07 132.71 C 15.97 129.40 20.16 126.12 22.57 121.49 C 25.68 116.99 28.82 112.49 32.21 108.18 C 35.92 102.89 38.55 96.84 43.01 92.08 C 45.71 89.32 46.88 85.38 50.05 83.06 C 53.59 79.60 56.76 75.77 60.10 72.12 C 61.75 70.28 64.32 70.17 66.54 69.56 C 68.80 68.46 70.97 67.19 73.26 66.16 C 69.85 62.33 66.96 58.07 64.27 53.71 C 61.85 49.84 58.61 46.53 56.61 42.39 C 51.04 33.87 45.41 25.39 40.21 16.65 C 39.90 15.18 40.03 13.52 41.94 13.56 C 45.11 16.74 46.49 21.13 48.93 24.82 C 49.56 24.60 50.83 24.16 51.46 23.94 C 49.18 21.12 46.97 18.09 46.03 14.53 C 51.67 19.70 54.55 26.95 58.55 33.30 C 60.63 35.99 62.97 38.52 64.45 41.63 C 68.59 49.45 74.03 56.44 78.85 63.84 C 82.81 62.94 87.31 60.45 91.22 62.62 C 94.68 62.58 98.08 61.70 101.53 61.46 C 101.36 62.29 101.01 63.94 100.83 64.77 C 95.37 65.91 89.79 66.25 84.22 66.44 C 83.13 66.47 82.28 66.94 81.67 67.87 C 84.94 72.18 88.28 76.44 91.74 80.59 C 94.92 76.37 97.17 71.54 100.40 67.35 C 101.65 66.09 101.31 64.25 101.46 62.65 C 108.44 59.06 110.25 50.65 114.90 44.88 C 118.25 41.06 120.09 36.20 123.23 32.22 C 126.12 27.55 129.41 23.15 132.88 18.91 M 52.26 25.15 C 52.93 25.82 52.93 25.82 52.26 25.15 M 115.22 52.38 C 114.34 53.11 113.10 54.65 113.99 55.77 C 115.55 56.37 116.65 52.65 115.22 52.38 M 112.74 56.29 C 111.66 57.01 110.22 58.48 110.60 59.86 C 112.14 60.43 114.56 56.82 112.74 56.29 M 67.17 74.31 C 67.84 74.98 67.84 74.98 67.17 74.31 M 101.21 77.18 C 101.85 77.82 101.85 77.82 101.21 77.18 M 140.55 79.79 C 138.99 80.45 138.49 85.59 140.66 82.68 C 142.10 82.20 142.83 78.79 140.55 79.79 M 109.23 86.25 C 109.86 86.87 109.86 86.87 109.23 86.25 M 107.16 87.25 C 107.84 87.93 107.84 87.93 107.16 87.25 M 82.23 92.16 C 80.64 95.03 85.60 92.39 82.23 92.16 M 90.13 95.74 C 91.08 95.60 92.03 95.45 92.98 95.29 C 92.37 94.14 91.75 93.00 91.13 91.86 C 90.77 93.15 90.44 94.44 90.13 95.74 M 42.19 95.44 C 40.60 98.30 45.55 95.63 42.19 95.44 M 102.55 99.72 C 106.20 106.70 112.79 111.53 116.94 118.20 C 116.22 115.77 115.39 113.38 114.76 110.92 C 111.59 109.50 109.52 106.58 107.04 104.29 C 110.35 103.99 111.93 107.29 114.21 109.05 C 113.81 106.84 114.04 104.24 112.60 102.39 C 110.72 101.06 108.67 99.98 106.55 99.09 C 107.34 100.57 108.26 101.96 109.20 103.35 C 108.30 103.41 107.40 103.48 106.50 103.55 C 105.40 102.07 104.09 100.75 102.55 99.72 M 61.24 131.37 C 60.40 130.22 59.51 129.12 58.77 127.90 C 59.37 125.97 60.76 124.48 62.11 123.05 C 61.76 122.48 61.40 121.90 61.04 121.33 C 59.97 123.44 58.09 125.19 57.52 127.52 C 57.22 132.82 56.94 138.11 56.54 143.40 C 56.92 143.48 57.66 143.64 58.04 143.72 C 59.18 140.23 59.48 136.59 59.61 132.94 C 60.55 133.12 61.49 133.31 62.43 133.49 C 63.92 128.49 67.39 124.44 68.85 119.48 C 63.70 121.35 63.32 127.12 61.24 131.37 M 124.43 124.87 C 123.86 125.96 125.41 127.80 126.50 126.93 C 126.96 125.88 125.52 123.94 124.43 124.87 M 119.97 129.33 C 118.30 132.22 123.39 129.62 119.97 129.33 M 70.12 133.66 C 69.68 135.09 70.14 135.59 71.51 135.17 C 71.95 133.75 71.49 133.24 70.12 133.66 M 132.21 133.26 C 132.86 133.91 132.86 133.91 132.21 133.26 M 66.28 145.64 C 68.49 142.91 68.82 139.15 70.31 136.01 C 68.03 138.75 65.90 141.87 66.28 145.64 M 137.28 139.22 C 135.64 142.06 140.65 139.59 137.28 139.22 M 144.25 150.16 C 144.86 150.79 144.86 150.79 144.25 150.16 Z" />
<path fill="#ffffff" opacity="1.00" d=" M 97.30 32.17 C 97.07 28.41 97.67 22.10 102.86 22.71 C 104.56 24.92 104.99 27.76 106.10 30.26 C 107.55 27.66 107.64 24.49 109.58 22.15 C 110.29 22.53 111.70 23.30 112.41 23.69 C 112.49 29.52 113.88 35.19 114.42 40.97 C 114.75 43.59 111.44 44.01 109.62 44.75 C 100.73 46.27 91.87 48.07 82.91 49.17 C 81.11 48.91 79.36 48.45 77.56 48.20 C 79.03 43.86 77.62 39.35 77.75 34.91 C 77.94 31.79 76.60 28.25 79.04 25.70 C 82.38 27.39 84.89 30.23 87.47 32.86 C 88.65 30.13 88.91 27.03 90.54 24.50 C 91.81 24.29 93.10 24.33 94.39 24.30 C 95.71 26.79 96.63 29.44 97.30 32.17 M 92.27 30.72 C 91.49 33.42 90.68 36.10 89.68 38.72 C 86.50 38.45 84.67 35.69 82.42 33.81 C 82.85 37.71 84.81 42.18 82.08 45.68 C 91.11 43.24 100.38 42.06 109.55 40.27 C 109.41 38.14 109.32 36.00 109.27 33.86 C 107.72 34.48 106.28 35.79 104.50 35.58 C 102.87 34.42 102.42 32.37 101.59 30.67 C 100.34 32.81 100.10 36.62 97.13 36.99 C 94.17 36.24 93.39 33.15 92.27 30.72 Z" />
<path fill="#ffffff" opacity="1.00" d=" M 160.08 49.58 C 161.00 49.28 162.85 48.69 163.77 48.39 C 163.77 49.85 163.61 51.30 163.30 52.73 C 164.66 52.35 166.09 51.99 167.49 52.46 C 168.27 53.31 168.64 54.43 169.16 55.45 C 170.05 55.04 170.95 54.65 171.85 54.26 C 172.99 55.74 174.19 57.23 174.89 58.99 C 172.11 61.92 168.13 63.35 164.63 65.23 C 160.45 65.58 156.02 66.45 153.27 69.94 C 152.59 69.40 151.92 68.85 151.26 68.30 C 151.52 69.15 151.78 70.00 152.04 70.85 C 149.62 73.11 147.79 76.38 144.50 77.42 C 144.51 73.70 146.61 70.62 149.60 68.58 C 153.58 63.83 159.75 62.26 165.20 59.88 C 166.77 59.39 169.55 60.55 169.83 58.23 C 167.21 55.99 163.88 54.92 160.68 53.79 C 160.49 52.38 160.29 50.98 160.08 49.58 Z" />
<path fill="#ffffff" opacity="1.00" d=" M 67.52 82.65 C 67.08 79.29 70.29 77.62 72.52 75.84 C 70.10 79.26 69.59 83.55 66.87 86.85 C 66.34 85.32 65.80 83.80 65.25 82.27 C 65.82 82.37 66.95 82.56 67.52 82.65 Z" />
<path fill="#ffffff" opacity="1.00" d=" M 129.19 88.18 C 129.87 88.86 129.87 88.86 129.19 88.18 Z" />
<path fill="#ffffff" opacity="1.00" d=" M 111.23 92.25 C 111.91 92.93 111.91 92.93 111.23 92.25 Z" />
<path fill="#ffffff" opacity="1.00" d=" M 124.79 95.23 C 126.30 94.73 126.79 95.15 126.26 96.49 C 124.75 97.02 124.25 96.60 124.79 95.23 Z" />
<path fill="#ffffff" opacity="1.00" d=" M 44.92 103.43 C 46.66 102.71 47.90 100.17 49.98 100.94 C 53.44 106.30 49.98 112.53 50.69 118.35 C 50.09 122.46 51.82 126.24 53.02 130.07 C 51.69 131.20 50.44 132.41 49.24 133.68 C 47.48 132.50 45.49 131.85 43.47 131.30 C 44.80 126.42 41.43 121.18 44.01 116.64 C 45.47 117.30 46.84 118.15 48.23 118.97 C 48.29 117.71 48.36 116.45 48.43 115.19 C 47.00 114.11 45.23 113.12 45.21 111.10 C 45.84 109.66 47.07 108.63 48.09 107.47 C 46.95 107.42 45.82 107.39 44.68 107.36 C 45.40 106.41 46.13 105.48 46.85 104.54 C 46.37 104.26 45.40 103.71 44.92 103.43 Z" />
<path fill="#ffffff" opacity="1.00" d=" M 42.27 130.60 C 45.50 133.17 45.38 137.60 46.72 141.18 C 44.84 141.89 43.00 142.71 41.07 143.25 C 38.43 141.08 38.51 137.47 39.02 134.41 C 40.15 134.19 41.28 133.97 42.42 133.74 C 42.34 132.70 42.29 131.65 42.27 130.60 M 42.23 136.28 C 40.41 138.97 45.60 136.78 42.23 136.28 Z" />
<path fill="#ffffff" opacity="1.00" d=" M 24.30 144.35 C 25.58 142.48 25.59 138.72 28.57 138.90 C 28.47 139.92 28.26 141.96 28.16 142.98 C 29.55 141.56 30.99 140.18 32.40 138.77 C 33.15 140.40 33.71 142.12 33.85 143.93 C 34.41 141.60 37.41 141.50 38.67 143.34 C 38.71 144.28 38.72 145.23 38.68 146.17 C 34.01 147.95 27.77 148.76 24.30 144.35 Z" />
</g>
</svg>
