<?xml version="1.0" encoding="UTF-8" ?>
<!DOCTYPE svg PUBLIC "-//W3C//DTD SVG 1.1//EN" "http://www.w3.org/Graphics/SVG/1.1/DTD/svg11.dtd">
<svg width="200pt" height="200pt" viewBox="0 0 200 200" version="1.1" xmlns="http://www.w3.org/2000/svg">
<g id="#ffffffff">
<path fill="#ffffff" opacity="1.00" d=" M 131.00 25.02 C 132.06 23.36 133.41 21.91 135.11 20.88 C 136.09 22.70 137.13 24.49 138.33 26.18 C 130.77 39.63 123.89 53.48 115.68 66.56 C 113.13 70.84 110.74 75.21 108.51 79.67 C 111.07 81.10 113.92 82.32 115.51 84.93 C 112.35 87.14 109.57 84.60 107.11 82.65 C 103.24 88.74 100.16 95.35 95.94 101.21 C 98.18 104.22 100.30 107.36 101.53 110.93 C 98.59 110.06 97.16 107.12 94.65 105.58 C 95.43 108.07 97.72 109.57 99.34 111.49 C 110.06 111.76 120.78 111.40 131.50 111.48 C 135.72 111.16 139.73 113.10 143.96 112.59 C 147.70 112.87 152.31 111.67 155.14 114.77 C 155.29 114.45 155.57 113.80 155.71 113.48 C 153.70 112.34 151.70 111.19 149.63 110.16 C 149.48 108.77 149.35 107.37 149.20 105.98 C 146.65 105.47 144.38 104.32 143.12 101.94 C 143.82 101.57 145.22 100.82 145.91 100.44 C 146.97 101.28 148.03 102.11 149.10 102.94 C 150.60 101.37 151.56 99.47 152.14 97.40 C 154.48 94.60 158.41 93.58 161.93 93.99 C 161.11 97.58 158.12 100.94 154.60 102.10 C 157.26 104.09 153.08 108.90 157.23 109.78 C 156.97 109.04 156.46 107.55 156.20 106.81 C 159.51 108.56 162.97 110.22 166.84 109.84 C 168.94 108.78 170.57 106.44 173.07 106.41 C 178.70 106.94 183.80 103.91 189.02 102.29 C 186.22 100.88 183.25 99.98 180.12 99.73 C 179.02 99.34 176.52 99.62 176.72 97.89 C 177.00 97.28 177.55 96.05 177.83 95.44 C 180.88 95.90 184.17 96.26 186.34 98.72 C 190.51 97.85 194.53 98.63 198.63 99.31 C 198.63 99.90 198.62 101.09 198.62 101.68 C 196.41 103.37 193.92 104.61 191.45 105.83 C 192.74 108.59 193.80 111.44 194.60 114.38 C 193.40 114.79 191.94 115.12 190.94 114.08 C 190.31 112.31 190.03 110.45 189.55 108.64 C 188.02 111.20 187.16 114.25 184.61 116.05 C 184.04 112.88 185.36 110.00 186.94 107.35 C 182.74 109.21 178.22 109.82 173.74 110.58 C 170.86 112.30 167.78 113.59 164.43 113.97 C 164.49 113.20 164.62 111.66 164.68 110.89 C 164.53 111.51 164.23 112.75 164.08 113.36 C 162.10 113.54 160.12 113.72 158.14 113.96 C 158.27 115.82 158.51 117.80 157.57 119.51 C 155.55 123.42 154.42 128.00 151.03 131.02 C 149.73 132.24 147.88 131.38 146.34 131.42 C 147.14 129.64 147.95 127.87 148.72 126.07 C 145.78 127.24 143.34 129.09 141.85 131.93 C 139.47 129.19 138.18 124.99 139.35 121.47 C 142.56 119.06 146.79 118.49 150.24 116.41 C 146.82 115.91 143.37 116.57 139.95 116.12 C 134.01 115.47 127.87 114.49 122.00 116.09 C 117.39 117.75 112.94 120.78 110.81 125.34 C 112.11 125.00 113.41 124.62 114.72 124.26 C 117.37 130.32 124.54 133.27 126.67 139.67 C 130.89 141.78 133.61 145.88 136.94 149.10 C 136.34 150.01 135.67 150.88 135.09 151.80 C 136.01 151.22 136.93 150.64 137.86 150.07 C 144.35 155.90 150.03 162.58 156.72 168.19 C 158.77 170.12 160.39 172.44 162.46 174.35 C 163.79 175.80 166.03 177.09 165.39 179.41 C 164.83 179.44 163.71 179.49 163.14 179.52 C 156.09 173.24 149.27 166.70 142.19 160.45 C 144.82 164.18 148.37 167.13 151.12 170.77 C 150.57 171.29 149.46 172.35 148.91 172.88 C 143.90 168.30 139.05 163.52 134.65 158.34 C 128.14 151.84 121.93 145.06 115.71 138.29 C 111.23 131.88 105.19 126.76 100.84 120.26 C 99.96 119.07 99.30 117.51 97.78 117.00 C 93.44 116.83 89.95 119.67 86.06 121.10 C 87.31 124.13 84.86 126.02 83.13 128.07 C 80.46 133.12 77.97 138.26 75.39 143.36 C 73.08 147.74 72.39 152.79 69.85 157.07 C 68.56 157.50 67.23 157.70 65.84 157.65 C 66.38 155.04 67.30 152.54 68.36 150.11 C 68.23 149.87 67.97 149.39 67.84 149.15 C 66.42 152.03 65.36 155.07 64.17 158.05 C 61.88 159.40 59.69 160.93 57.71 162.75 C 55.93 165.79 54.95 169.21 53.25 172.28 C 52.29 172.63 51.29 172.85 50.26 172.93 C 52.82 163.28 57.51 154.35 60.99 145.02 C 62.50 140.23 65.73 136.32 67.56 131.68 C 69.84 126.64 72.30 121.69 74.66 116.69 C 70.60 117.32 66.30 117.09 62.40 118.37 C 57.78 122.01 54.41 127.29 48.61 129.30 C 48.60 128.53 48.59 127.00 48.58 126.23 C 47.65 126.88 46.73 127.52 45.79 128.15 C 43.22 125.24 47.55 122.24 48.33 119.34 C 46.63 119.38 44.92 119.38 43.23 119.55 C 40.56 121.44 37.69 123.08 35.18 125.17 C 33.78 127.30 32.90 129.73 31.54 131.89 C 30.79 130.70 30.06 129.49 29.33 128.28 C 27.08 130.68 24.61 132.93 22.86 135.76 C 24.80 134.07 26.62 132.18 29.05 131.19 C 29.31 131.92 29.83 133.38 30.09 134.11 C 27.29 135.83 25.06 138.50 21.93 139.65 C 19.79 138.62 17.59 137.77 15.28 137.24 C 16.07 132.71 18.01 128.47 18.60 123.87 C 14.29 124.37 11.21 120.87 7.35 119.65 C 4.11 118.51 1.45 116.02 0.95 112.51 C 3.93 112.85 6.70 111.71 9.58 111.19 C 8.58 110.09 7.69 108.89 6.87 107.65 C 14.71 106.23 22.68 106.93 30.57 107.37 C 32.56 107.36 34.48 108.49 34.83 110.55 C 36.99 108.09 40.62 107.58 43.57 108.79 C 43.82 105.20 46.88 102.16 50.61 103.50 C 49.81 104.70 48.91 105.83 48.04 106.97 C 48.76 107.06 50.21 107.24 50.94 107.34 C 51.01 108.46 51.08 109.59 51.16 110.72 C 48.06 110.62 44.96 110.68 41.89 110.21 C 42.29 113.17 39.61 114.32 37.39 115.41 C 37.90 114.16 38.42 112.91 38.95 111.67 C 36.19 112.88 33.74 114.64 31.73 116.89 C 30.14 117.45 28.63 116.50 27.10 116.17 C 25.44 117.45 23.75 118.71 22.12 120.04 C 23.42 124.14 21.12 128.15 21.23 132.29 C 24.28 130.04 23.39 125.58 25.82 122.89 C 27.52 121.05 29.16 118.68 31.66 117.98 C 31.36 119.18 31.06 120.38 30.75 121.57 C 31.80 120.87 32.86 120.19 33.93 119.52 C 33.18 120.77 32.39 122.01 31.78 123.34 C 34.97 121.94 37.43 119.40 40.23 117.39 C 41.76 117.67 43.31 117.67 44.84 117.45 C 44.79 115.42 44.59 113.40 43.61 111.60 C 44.13 112.09 44.66 112.59 45.19 113.08 C 45.32 114.18 45.43 115.29 45.53 116.40 C 50.07 115.11 54.89 115.73 59.34 114.10 C 65.15 113.41 71.05 113.94 76.86 112.96 C 78.25 108.84 81.93 105.41 81.54 100.82 C 82.12 100.51 83.29 99.88 83.88 99.57 C 81.99 96.48 80.52 92.68 77.04 91.06 C 77.17 92.29 77.31 93.53 77.48 94.76 C 76.40 94.81 75.32 94.87 74.25 94.94 C 74.69 94.35 75.57 93.16 76.01 92.57 C 73.74 91.89 71.48 91.18 69.23 90.41 C 69.39 91.65 69.55 92.89 69.71 94.14 C 66.45 97.66 59.37 97.88 57.47 92.88 C 56.74 97.91 51.26 99.75 48.11 103.10 C 46.52 98.22 43.41 93.97 42.29 88.90 C 43.02 88.60 44.47 87.98 45.20 87.68 C 46.50 90.98 48.27 94.09 49.27 97.51 C 51.85 95.93 54.62 94.45 56.35 91.86 C 52.32 92.99 48.54 90.47 45.73 87.83 C 48.61 86.78 51.42 88.11 54.11 89.03 C 58.31 90.30 61.54 94.45 66.33 93.36 C 65.05 91.51 63.79 89.66 62.82 87.64 C 66.42 85.96 70.35 87.10 74.03 87.86 C 75.28 88.05 76.02 89.17 76.90 89.95 C 72.41 83.23 67.11 77.09 62.54 70.42 C 59.16 66.35 56.87 61.54 53.53 57.45 C 50.02 53.20 47.46 48.27 43.97 44.01 C 40.78 40.03 38.45 35.46 35.21 31.52 C 33.96 30.16 34.12 26.59 36.73 27.84 C 39.45 30.98 41.35 34.73 44.00 37.91 C 44.65 37.78 45.95 37.53 46.59 37.41 C 43.95 34.43 41.68 31.16 39.38 27.92 C 44.33 29.77 46.00 35.42 49.59 38.90 C 48.73 38.70 47.03 38.30 46.18 38.10 C 54.32 45.81 61.15 54.92 66.13 64.97 C 70.97 70.51 74.52 77.06 79.81 82.23 C 82.45 84.40 86.83 84.12 88.70 87.14 C 87.67 89.71 83.83 87.99 81.71 89.40 C 82.82 89.31 83.93 89.20 85.03 89.05 C 86.08 90.37 87.11 91.71 88.13 93.05 C 89.05 91.61 89.99 90.18 90.81 88.69 C 91.06 86.83 89.91 84.79 90.89 83.08 C 92.37 82.12 94.15 81.67 95.52 80.54 C 108.39 62.72 117.62 42.52 131.00 25.02 M 130.16 37.23 C 130.76 37.86 130.76 37.86 130.16 37.23 M 123.73 45.67 C 120.37 49.82 118.34 54.82 115.45 59.27 C 109.45 66.60 103.86 74.54 100.52 83.47 C 105.53 78.97 106.33 71.50 111.32 66.99 C 111.72 65.77 111.25 63.75 112.84 63.32 C 113.56 63.37 114.99 63.47 115.71 63.52 C 115.28 63.05 114.42 62.10 113.99 61.62 C 114.57 61.54 115.74 61.39 116.33 61.31 C 116.10 61.00 115.64 60.37 115.41 60.05 C 120.07 52.61 125.42 45.53 129.31 37.65 C 126.81 39.85 125.47 42.92 123.73 45.67 M 84.21 112.87 C 85.75 112.32 87.48 111.87 88.56 110.54 C 89.14 108.96 89.42 107.29 89.76 105.64 C 87.13 107.36 85.04 109.79 84.21 112.87 M 91.50 109.61 C 91.04 110.89 90.61 112.18 90.13 113.46 C 90.66 113.02 91.72 112.15 92.25 111.72 C 92.44 112.87 92.63 114.02 92.82 115.17 C 93.59 114.40 94.37 113.65 95.15 112.90 C 93.99 111.75 92.81 110.60 91.50 109.61 M 6.79 114.85 C 7.21 115.82 7.63 116.79 8.04 117.77 C 9.84 115.52 12.72 115.28 15.25 114.39 C 12.42 114.48 9.61 114.72 6.79 114.85 M 79.73 121.08 C 80.47 122.60 80.50 124.30 80.53 125.95 C 81.62 123.49 82.94 121.15 84.32 118.84 C 82.77 119.56 81.26 120.33 79.73 121.08 M 142.05 122.78 C 142.44 124.15 142.78 125.53 143.15 126.90 C 145.23 124.19 147.44 121.40 150.75 120.16 C 147.85 121.04 145.00 122.08 142.05 122.78 M 112.52 125.75 C 112.01 126.97 113.52 129.06 114.81 128.77 C 115.10 127.58 114.01 125.04 112.52 125.75 M 115.61 129.72 C 117.24 131.96 119.38 133.81 121.60 135.45 C 120.68 132.63 118.03 131.10 115.61 129.72 M 122.18 136.43 C 121.84 137.85 122.36 138.40 123.73 138.10 C 124.08 136.67 123.56 136.12 122.18 136.43 M 68.17 146.56 C 67.74 148.00 68.20 148.52 69.56 148.12 C 69.98 146.69 69.51 146.17 68.17 146.56 Z" />
<path fill="#ffffff" opacity="1.00" d=" M 143.84 59.98 C 147.80 59.97 148.80 64.04 150.89 66.61 C 151.73 64.86 152.56 63.11 153.46 61.39 C 155.08 61.32 156.70 61.26 158.33 61.26 C 158.67 63.24 159.10 65.20 159.75 67.11 C 161.63 64.71 163.33 62.18 165.02 59.65 C 167.66 61.14 166.63 64.26 166.83 66.74 C 168.94 64.69 170.62 62.26 172.66 60.14 C 173.28 60.90 173.91 61.66 174.54 62.41 C 174.45 65.96 174.53 69.50 174.60 73.05 C 176.25 73.91 179.66 76.96 176.04 77.53 C 166.41 77.99 156.77 77.25 147.14 77.38 C 147.31 76.76 147.65 75.52 147.82 74.90 C 148.52 73.69 149.55 73.16 150.92 73.33 C 157.49 73.53 164.03 74.97 170.61 74.00 C 170.73 72.37 170.88 70.75 171.06 69.13 C 169.59 69.70 168.17 70.83 166.51 70.56 C 165.67 69.81 164.93 68.97 164.16 68.16 C 162.73 69.91 160.72 70.73 158.51 70.89 C 157.36 69.65 156.24 68.38 155.14 67.10 C 154.04 68.36 152.92 69.62 151.79 70.86 C 150.16 70.28 148.56 69.66 146.94 69.08 C 147.18 71.02 147.47 72.97 147.82 74.90 C 147.05 74.75 146.27 74.59 145.51 74.44 C 145.47 75.15 145.40 76.58 145.36 77.29 C 144.88 76.77 143.92 75.73 143.44 75.21 C 144.04 70.14 143.14 65.04 143.84 59.98 Z" />
<path fill="#ffffff" opacity="1.00" d=" M 115.67 86.62 C 114.87 83.13 116.27 78.01 120.65 78.30 C 119.42 82.12 118.22 86.19 115.09 88.93 C 114.60 88.79 113.62 88.52 113.13 88.38 C 113.77 87.94 115.04 87.06 115.67 86.62 Z" />
<path fill="#ffffff" opacity="1.00" d=" M 131.25 79.17 C 133.89 79.56 134.76 82.81 137.06 83.90 C 138.23 84.39 139.45 84.74 140.66 85.12 C 141.17 83.88 141.68 82.64 142.19 81.40 C 142.89 81.44 144.29 81.52 144.99 81.57 C 146.75 84.16 148.67 86.63 150.64 89.05 C 150.89 90.86 150.06 91.66 148.15 91.46 C 146.72 90.31 145.70 88.76 144.61 87.32 C 140.30 90.42 134.09 87.52 132.52 82.74 C 131.68 84.53 130.78 86.30 129.88 88.06 C 125.81 88.21 120.65 85.65 120.97 80.95 C 123.60 81.78 125.96 83.21 128.20 84.79 C 129.13 82.87 129.95 80.88 131.25 79.17 Z" />
<path fill="#ffffff" opacity="1.00" d=" M 152.55 88.38 C 155.75 88.59 159.14 88.03 162.07 89.67 C 166.50 92.22 171.34 93.88 176.18 95.45 C 176.09 95.82 175.90 96.55 175.81 96.91 C 171.54 97.40 165.87 96.54 163.88 92.17 C 160.05 92.29 156.20 91.84 152.43 92.71 C 152.48 91.26 152.51 89.82 152.55 88.38 Z" />
<path fill="#ffffff" opacity="1.00" d=" M 185.89 95.00 C 187.73 93.18 189.66 91.46 191.75 89.92 C 192.19 90.45 193.09 91.52 193.53 92.05 C 191.49 93.84 189.44 95.63 187.70 97.73 C 187.10 96.81 186.50 95.90 185.89 95.00 Z" />
<path fill="#ffffff" opacity="1.00" d=" M 99.78 99.13 C 101.70 96.64 103.89 94.09 107.01 93.15 C 107.24 93.97 107.45 94.80 107.66 95.63 C 106.04 96.91 104.57 98.37 103.04 99.77 C 105.03 101.25 106.64 103.15 108.06 105.17 C 104.10 106.35 100.57 102.78 99.78 99.13 Z" />
<path fill="#ffffff" opacity="1.00" d=" M 137.42 92.84 C 138.21 93.45 139.02 94.07 139.83 94.66 C 138.28 95.80 136.69 96.87 135.08 97.91 C 136.69 100.34 138.68 102.50 140.15 105.03 C 134.85 106.75 133.22 100.41 130.81 97.13 C 133.14 95.90 135.29 94.38 137.42 92.84 Z" />
<path fill="#ffffff" opacity="1.00" d=" M 111.17 96.48 C 112.64 95.16 114.51 94.44 116.18 93.44 C 117.20 94.23 118.21 95.04 119.22 95.85 C 117.15 97.21 115.11 98.61 112.93 99.79 C 111.35 99.83 109.07 97.67 111.17 96.48 Z" />
<path fill="#ffffff" opacity="1.00" d=" M 125.03 95.05 C 126.22 94.54 127.49 92.70 128.87 93.64 C 130.39 93.88 129.54 96.12 128.57 96.57 C 127.23 97.53 125.79 98.31 124.40 99.17 C 125.70 101.20 127.49 102.95 128.32 105.26 C 124.94 105.86 121.79 103.06 121.12 99.87 C 121.07 97.56 123.45 96.31 125.03 95.05 Z" />
<path fill="#ffffff" opacity="1.00" d=" M 141.33 101.03 C 140.29 97.34 144.16 93.69 147.80 94.82 C 148.04 98.23 143.93 99.77 141.33 101.03 Z" />
<path fill="#ffffff" opacity="1.00" d=" M 75.57 96.63 C 76.82 96.65 78.07 96.69 79.33 96.74 C 78.09 98.51 76.75 100.21 75.38 101.89 C 76.85 103.30 81.24 104.46 78.97 106.97 C 76.79 108.23 75.07 105.58 73.48 104.43 C 70.71 101.89 74.20 98.87 75.57 96.63 Z" />
<path fill="#ffffff" opacity="1.00" d=" M 61.10 98.71 C 61.93 99.22 62.78 99.69 63.64 100.15 C 63.39 100.57 62.88 101.42 62.62 101.84 C 62.03 101.98 60.86 102.26 60.27 102.40 C 62.57 104.96 64.54 107.82 66.14 110.86 C 62.10 110.70 59.07 106.99 59.03 103.08 C 59.36 101.48 60.38 100.15 61.10 98.71 Z" />
<path fill="#ffffff" opacity="1.00" d=" M 67.83 98.72 C 68.28 98.66 69.19 98.54 69.65 98.47 C 69.50 100.03 69.29 101.58 69.04 103.13 C 70.80 104.30 72.55 105.52 73.95 107.13 C 71.01 108.77 67.72 107.29 65.83 104.82 C 64.90 102.51 66.93 100.66 67.83 98.72 Z" />
<path fill="#ffffff" opacity="1.00" d=" M 173.18 97.91 C 174.94 98.55 175.58 100.36 176.15 101.97 C 174.85 102.30 173.55 102.64 172.24 102.86 C 171.28 102.10 170.72 101.00 170.05 100.02 C 171.08 99.30 172.10 98.55 173.18 97.91 Z" />
<path fill="#ffffff" opacity="1.00" d=" M 51.45 104.99 C 52.26 103.48 53.21 102.05 54.09 100.58 C 54.83 100.65 56.31 100.79 57.05 100.86 C 56.66 102.31 56.11 103.70 55.55 105.09 C 56.44 105.75 57.33 106.42 58.21 107.08 C 58.24 107.81 58.29 109.26 58.31 109.99 C 55.39 109.61 51.85 108.39 51.45 104.99 Z" />
<path fill="#ffffff" opacity="1.00" d=" M 111.81 100.67 C 115.47 99.06 116.46 103.72 118.19 105.89 C 117.18 106.46 116.14 106.96 115.07 107.39 C 113.02 105.70 112.15 103.22 111.81 100.67 Z" />
<path fill="#ffffff" opacity="1.00" d=" M 143.80 131.21 C 145.52 131.32 147.04 131.94 148.35 133.07 C 146.62 133.93 144.85 134.71 143.08 135.48 C 143.33 134.05 143.57 132.63 143.80 131.21 Z" />
<path fill="#ffffff" opacity="1.00" d=" M 65.30 159.56 C 65.71 157.66 68.22 157.97 69.64 157.46 C 67.71 162.01 66.95 167.06 64.26 171.26 C 63.83 170.65 62.96 169.42 62.53 168.81 C 63.30 165.68 64.19 162.59 65.30 159.56 Z" />
</g>
</svg>
