<?xml version="1.0" encoding="UTF-8" ?>
<!DOCTYPE svg PUBLIC "-//W3C//DTD SVG 1.1//EN" "http://www.w3.org/Graphics/SVG/1.1/DTD/svg11.dtd">
<svg width="128pt" height="128pt" viewBox="0 0 128 128" version="1.1" xmlns="http://www.w3.org/2000/svg">
<g id="#ffffffff">
<path fill="#ffffff" opacity="1.00" d=" M 96.63 10.13 C 96.92 9.67 97.48 8.75 97.76 8.30 C 101.83 12.65 107.28 15.37 111.31 19.72 C 112.39 22.53 112.72 25.56 112.50 28.55 C 109.80 28.83 107.42 27.53 104.94 26.75 C 102.33 27.00 100.24 28.78 97.94 29.87 C 99.77 31.19 101.74 32.38 103.26 34.07 C 103.38 38.68 103.61 43.30 103.73 47.91 C 102.33 53.03 101.89 58.50 99.21 63.17 C 96.66 68.45 94.34 74.02 90.44 78.47 C 88.78 80.88 84.24 79.55 85.39 76.31 C 80.17 82.57 72.61 86.09 66.16 90.84 C 69.72 95.80 68.52 102.36 71.52 107.60 C 75.07 107.58 78.52 108.36 82.04 108.68 C 83.35 110.55 86.37 111.79 85.48 114.49 C 80.80 114.24 76.45 111.80 71.72 111.50 C 72.83 114.75 75.13 117.74 74.56 121.34 C 75.50 121.39 76.45 121.45 77.39 121.51 C 77.31 122.91 77.22 124.30 77.13 125.70 C 71.08 123.83 70.65 116.99 67.49 112.51 C 66.75 105.58 65.65 98.71 64.36 91.86 C 62.31 92.44 60.32 94.30 58.11 93.41 C 57.21 91.84 56.67 90.10 56.03 88.42 C 54.34 90.52 50.03 92.51 51.81 95.71 C 54.54 98.67 52.50 102.91 54.38 106.29 C 53.86 106.52 53.34 106.74 52.82 106.97 C 56.67 111.57 62.73 113.08 67.25 116.80 C 67.52 118.08 67.52 119.39 67.60 120.69 C 63.24 120.53 60.59 116.48 56.94 114.60 C 56.19 114.90 54.70 115.51 53.95 115.82 C 58.37 118.05 62.01 121.88 62.93 126.87 C 57.92 125.62 56.06 120.30 52.38 117.24 C 53.21 115.93 53.96 114.59 54.64 113.20 C 51.08 114.35 49.71 118.23 46.58 120.03 C 46.09 117.71 46.30 115.38 47.49 113.31 C 48.56 113.36 49.64 113.40 50.71 113.46 C 50.38 106.51 48.72 99.58 49.60 92.61 C 46.65 92.61 43.71 92.45 40.76 92.37 C 40.45 91.74 39.84 90.48 39.53 89.85 C 41.88 88.56 44.10 87.04 45.96 85.09 C 46.66 85.25 48.07 85.59 48.78 85.75 C 47.87 84.98 46.97 84.22 46.09 83.42 C 45.16 84.70 44.16 85.93 43.18 87.18 C 42.11 86.14 41.06 85.09 40.02 84.03 C 36.95 88.52 34.36 93.32 32.13 98.27 C 30.90 97.84 29.66 97.43 28.42 97.05 C 29.81 93.83 31.64 90.83 33.14 87.67 C 30.72 90.19 28.87 93.20 26.39 95.67 C 25.30 93.69 24.15 91.69 22.28 90.34 C 23.48 88.68 24.58 86.96 25.42 85.09 C 22.06 88.31 17.72 90.14 14.18 93.12 C 12.16 92.63 9.00 92.99 10.27 89.91 C 13.44 87.99 16.44 85.82 19.36 83.53 C 20.90 82.36 22.01 80.39 24.10 80.18 C 26.09 80.91 26.67 83.05 26.97 84.93 C 27.12 84.56 27.42 83.80 27.57 83.43 C 26.52 81.98 25.43 80.57 24.34 79.16 C 26.77 77.37 29.34 75.65 31.18 73.21 C 32.37 71.41 30.89 69.71 30.09 68.12 C 32.77 65.78 35.38 63.36 37.92 60.87 C 38.55 61.55 39.17 62.24 39.80 62.93 C 39.74 60.04 38.57 56.95 39.93 54.20 C 41.71 50.17 43.74 46.04 47.01 43.01 C 51.26 39.45 55.61 36.00 60.67 33.65 C 64.27 31.32 69.05 31.97 72.58 29.64 C 75.46 25.43 78.11 21.05 80.93 16.80 C 82.05 15.28 82.44 13.43 82.83 11.62 C 87.18 10.28 92.24 8.02 96.63 10.13 M 93.32 16.32 C 91.23 18.36 92.93 21.75 95.23 22.90 C 96.69 22.72 97.76 21.62 98.78 20.66 C 99.18 17.78 96.17 13.72 93.32 16.32 M 84.37 32.32 C 87.60 31.43 88.50 28.28 88.76 25.34 C 87.03 27.50 85.23 29.64 84.37 32.32 M 74.15 38.70 C 75.53 37.32 77.42 36.30 78.18 34.42 C 78.21 33.30 78.68 31.49 76.99 31.51 C 75.40 33.60 74.87 36.22 74.15 38.70 M 55.53 51.85 C 58.09 50.27 60.96 49.24 63.40 47.48 C 65.21 45.66 65.30 42.86 66.04 40.53 C 62.25 44.02 58.40 47.53 55.53 51.85 M 98.65 41.68 C 98.05 45.00 98.63 48.28 100.05 51.32 C 101.06 48.01 100.16 44.67 98.65 41.68 M 88.68 47.40 C 90.13 47.41 91.59 47.47 93.05 47.62 C 92.51 52.10 90.29 56.03 87.84 59.73 C 88.35 59.61 89.39 59.38 89.91 59.26 C 91.53 56.45 92.73 53.39 94.57 50.70 C 94.89 48.18 94.31 45.63 93.94 43.14 C 91.10 42.96 89.83 45.22 88.68 47.40 M 76.41 44.26 C 74.64 44.53 74.97 47.95 76.90 47.20 C 78.76 46.73 78.61 43.55 76.41 44.26 M 96.02 60.36 C 95.17 61.54 95.44 62.23 96.83 62.42 C 97.70 61.22 97.43 60.53 96.02 60.36 M 30.36 86.32 C 29.05 86.80 27.78 88.01 27.28 89.32 C 28.31 91.24 32.25 87.38 30.36 86.32 Z" />
<path fill="#ffffff" opacity="1.00" d=" M 20.24 102.07 C 20.81 98.93 22.94 96.59 25.93 95.52 C 25.08 97.88 24.12 100.20 23.28 102.57 C 22.27 102.40 21.25 102.23 20.24 102.07 Z" />
</g>
</svg>
