<?xml version="1.0" encoding="UTF-8" ?>
<!DOCTYPE svg PUBLIC "-//W3C//DTD SVG 1.1//EN" "http://www.w3.org/Graphics/SVG/1.1/DTD/svg11.dtd">
<svg width="128pt" height="128pt" viewBox="0 0 128 128" version="1.1" xmlns="http://www.w3.org/2000/svg">
<g id="#ffffffff">
<path fill="#ffffff" opacity="1.00" d=" M 46.41 5.26 C 50.14 5.62 48.47 10.65 47.74 13.01 C 46.64 15.24 50.30 16.40 51.25 14.44 C 52.59 11.85 55.45 10.74 57.16 8.45 C 58.95 9.30 61.48 10.34 60.85 12.81 C 59.12 17.23 53.92 18.08 50.32 20.47 C 49.47 24.20 49.13 28.11 49.64 31.90 C 51.03 34.48 52.60 36.98 53.52 39.79 C 54.09 41.89 56.28 42.74 57.93 43.83 C 58.00 45.49 57.27 46.94 56.40 48.31 C 57.24 47.16 58.07 46.00 59.08 45.00 C 58.22 43.97 57.42 42.91 56.65 41.82 C 58.29 40.05 60.92 40.67 63.06 40.50 C 67.24 40.74 71.43 40.17 75.61 40.41 C 77.80 41.26 79.54 43.11 81.99 43.33 C 84.28 44.22 85.03 41.01 87.10 40.84 C 90.32 40.63 93.59 40.61 96.80 41.01 C 104.61 45.11 108.06 54.52 107.63 62.94 C 107.71 67.43 105.36 71.45 103.32 75.29 C 99.33 81.21 102.32 88.51 102.34 95.03 C 101.68 100.03 102.22 105.21 103.34 110.10 C 102.72 110.30 102.11 110.50 101.49 110.70 C 100.16 107.43 101.52 103.36 98.50 100.88 C 99.49 97.22 99.33 93.41 97.97 89.87 C 95.36 84.71 93.37 79.27 91.12 73.96 C 89.71 73.43 88.36 72.77 87.02 72.10 C 87.87 72.69 88.73 73.28 89.59 73.87 C 89.13 75.55 88.21 77.21 88.47 79.00 C 88.58 81.80 90.99 83.69 92.13 86.10 C 92.27 87.66 90.39 88.44 89.68 89.67 C 88.84 91.66 88.40 93.79 87.99 95.91 C 86.27 101.47 88.49 107.51 86.06 112.96 C 84.38 112.28 82.04 111.35 82.68 109.06 C 81.93 101.65 85.91 94.88 85.63 87.50 C 82.37 84.86 79.56 81.47 78.28 77.42 C 76.79 77.63 75.51 78.44 74.24 79.18 C 73.80 81.01 73.13 82.76 72.38 84.47 C 71.31 86.98 72.21 89.82 71.27 92.37 C 70.60 93.86 69.53 95.10 68.72 96.51 C 67.98 100.80 66.93 105.06 66.66 109.41 C 66.26 114.46 64.14 119.49 60.13 122.71 C 59.21 121.66 58.25 120.65 57.40 119.54 C 56.80 114.04 58.18 108.53 57.71 103.02 C 57.32 98.99 58.45 94.83 57.00 90.93 C 55.55 87.21 55.77 83.20 55.61 79.29 C 54.26 76.80 51.57 75.26 50.23 72.73 C 48.85 70.14 47.37 67.62 45.89 65.10 C 46.75 64.47 47.62 63.87 48.50 63.27 C 45.68 58.23 40.04 54.66 39.40 48.53 C 39.57 46.12 36.61 45.24 36.58 42.91 C 36.18 39.70 35.28 36.54 35.39 33.29 C 36.08 33.01 37.47 32.44 38.16 32.15 C 39.09 33.46 39.95 34.81 40.87 36.12 C 40.28 34.13 39.60 32.16 39.28 30.10 C 37.53 30.63 35.82 31.29 34.10 31.94 C 31.46 27.91 26.37 28.20 22.35 29.67 C 22.01 29.27 21.34 28.48 21.00 28.08 C 21.60 27.42 22.20 26.76 22.81 26.10 C 22.59 25.15 22.39 24.19 22.21 23.23 C 23.37 23.48 24.52 23.76 25.67 24.04 C 25.39 23.51 24.82 22.45 24.54 21.91 C 24.89 20.49 26.72 20.41 27.74 19.60 C 29.90 18.57 30.88 16.21 32.50 14.57 C 34.20 13.19 36.50 13.26 38.56 12.98 C 38.30 11.06 38.26 9.11 38.33 7.17 C 41.39 6.29 41.67 9.79 42.21 11.85 C 45.53 11.35 46.01 8.01 46.41 5.26 M 94.27 48.32 C 93.09 48.35 92.08 50.75 93.79 50.73 C 94.98 50.72 95.99 48.27 94.27 48.32 M 62.21 50.26 C 60.47 53.05 65.63 50.58 62.21 50.26 M 51.22 70.24 C 51.83 70.84 51.83 70.84 51.22 70.24 M 79.01 70.18 C 77.47 73.15 82.42 70.20 79.01 70.18 M 62.41 78.18 C 61.78 85.45 60.22 92.71 60.86 100.03 C 60.48 106.58 61.13 113.42 58.27 119.56 C 61.47 117.95 62.86 114.38 63.13 111.00 C 64.12 102.54 65.97 94.21 66.65 85.70 C 64.90 81.66 65.69 77.06 63.39 73.19 C 62.55 74.71 62.63 76.50 62.41 78.18 Z" />
</g>
</svg>
