<?xml version="1.0" encoding="UTF-8" ?>
<!DOCTYPE svg PUBLIC "-//W3C//DTD SVG 1.1//EN" "http://www.w3.org/Graphics/SVG/1.1/DTD/svg11.dtd">
<svg width="128pt" height="128pt" viewBox="0 0 128 128" version="1.1" xmlns="http://www.w3.org/2000/svg">
<g id="#ffffffff">
<path fill="#ffffff" opacity="1.00" d=" M 107.40 37.35 C 110.50 36.94 113.68 37.35 116.81 37.32 C 119.72 38.07 120.86 41.17 122.93 43.02 C 124.54 44.05 126.32 44.78 128.00 45.69 L 128.00 48.35 C 126.16 48.84 124.32 49.35 122.48 49.84 C 121.70 54.53 121.18 59.28 121.50 64.04 C 121.07 70.75 117.94 77.43 112.67 81.71 C 108.65 85.63 102.81 86.18 97.66 87.62 C 92.50 89.03 87.12 88.48 81.90 87.82 C 84.60 89.95 87.94 91.00 91.14 92.13 C 93.59 92.36 96.02 91.71 98.47 91.66 C 96.78 92.91 94.92 93.89 93.01 94.76 C 97.79 94.34 102.74 93.95 107.34 95.65 C 112.14 97.12 118.32 93.12 122.14 97.26 C 112.40 97.38 102.72 98.87 92.97 98.67 C 83.61 98.20 74.33 99.92 65.00 100.25 C 57.85 99.44 50.58 100.05 43.51 98.42 C 43.37 97.89 43.07 96.83 42.92 96.30 C 46.35 96.51 49.92 97.16 53.26 96.05 C 55.53 95.27 57.86 94.69 60.22 94.30 C 59.25 94.18 57.31 93.93 56.34 93.81 C 57.36 91.62 59.97 91.99 61.96 91.86 C 67.48 91.92 73.07 91.63 78.39 90.03 C 75.31 88.22 71.69 87.90 68.37 86.75 C 71.04 84.94 74.32 85.39 77.36 85.12 C 75.25 84.60 73.07 84.57 70.92 84.31 C 65.45 83.34 60.87 79.78 55.40 78.77 C 50.80 77.84 46.31 76.46 41.74 75.39 C 29.50 74.38 18.57 81.39 6.69 82.98 C 7.43 81.67 8.31 80.40 9.83 79.97 C 14.66 78.17 19.56 76.56 24.20 74.29 C 16.92 74.36 9.64 76.12 2.41 74.38 C 3.21 73.59 3.97 72.59 5.22 72.64 C 15.40 71.11 25.70 70.72 35.97 70.40 C 41.62 70.78 46.83 68.28 52.26 67.16 C 55.51 66.52 58.53 65.09 61.22 63.17 C 66.13 59.56 72.88 59.76 77.31 55.36 C 82.63 50.42 91.51 53.05 96.14 47.13 C 99.47 43.43 103.26 40.12 107.40 37.35 M 82.58 54.34 C 81.29 54.53 79.77 55.05 79.15 56.29 C 79.69 57.96 84.78 55.37 82.58 54.34 M 115.24 75.15 C 115.87 75.77 115.87 75.77 115.24 75.15 M 67.03 77.28 C 65.35 80.09 70.49 77.49 67.03 77.28 M 71.86 79.84 C 74.41 80.12 76.59 78.81 78.24 76.98 C 75.92 77.45 73.69 78.32 71.86 79.84 Z" />
</g>
</svg>
