<?xml version="1.0" encoding="UTF-8" ?>
<!DOCTYPE svg PUBLIC "-//W3C//DTD SVG 1.1//EN" "http://www.w3.org/Graphics/SVG/1.1/DTD/svg11.dtd">
<svg width="128pt" height="128pt" viewBox="0 0 128 128" version="1.1" xmlns="http://www.w3.org/2000/svg">
<g id="#ffffffff">
<path fill="#ffffff" opacity="1.00" d=" M 3.78 20.72 C 8.49 20.38 13.22 20.39 17.86 19.42 C 23.44 21.36 29.30 22.22 34.98 23.77 C 48.03 27.46 61.38 29.95 74.42 33.67 C 74.00 35.29 73.45 36.89 73.34 38.56 C 74.86 39.74 76.89 40.28 78.02 41.92 C 82.32 47.96 86.64 54.42 87.64 61.93 C 87.05 62.50 85.86 63.64 85.26 64.21 C 88.12 67.58 90.21 71.53 93.45 74.56 C 94.46 76.94 96.72 78.17 98.66 79.70 C 98.21 77.42 98.35 75.09 98.25 72.78 C 97.76 74.18 97.52 75.64 97.32 77.11 C 93.87 75.98 96.43 71.95 94.05 69.90 C 94.62 68.18 95.15 66.44 95.66 64.70 C 92.79 63.91 90.78 61.79 91.20 58.70 C 91.95 58.61 93.45 58.42 94.20 58.33 C 93.82 59.52 93.43 60.70 93.06 61.89 C 94.40 60.57 95.76 59.25 96.97 57.81 C 95.26 56.42 93.53 55.07 91.81 53.70 C 92.83 53.19 93.85 52.70 94.88 52.22 C 93.98 51.73 93.11 51.20 92.27 50.62 C 92.25 49.21 92.32 47.81 92.34 46.40 C 90.78 45.96 88.89 45.73 88.95 43.68 C 92.08 43.96 95.20 44.85 97.91 46.48 C 98.51 46.31 99.71 45.96 100.31 45.78 C 99.03 43.96 97.04 43.25 94.90 43.17 C 94.61 42.26 94.32 41.36 94.00 40.47 C 95.48 42.33 98.02 42.37 100.14 42.96 C 101.71 45.34 103.96 47.13 106.03 49.06 C 104.51 48.58 103.01 48.01 101.49 47.54 C 102.52 48.89 103.68 50.12 104.79 51.40 C 103.33 50.92 101.88 50.44 100.42 49.94 C 100.64 51.90 101.82 53.12 103.78 53.27 C 102.83 56.42 103.80 59.75 103.01 62.92 C 101.91 67.57 102.05 72.68 104.78 76.76 C 102.88 77.88 103.50 80.36 103.18 82.20 C 104.48 81.21 104.62 79.73 104.52 78.21 C 105.32 79.03 106.13 79.85 106.93 80.69 C 110.61 78.73 114.71 79.61 118.55 80.50 C 119.20 82.63 120.01 84.76 121.85 86.16 C 123.59 87.31 123.23 89.58 123.54 91.37 C 120.91 90.88 119.01 88.93 116.99 87.35 C 113.16 89.64 109.04 91.27 105.66 94.27 C 106.01 95.06 106.35 95.87 106.66 96.68 C 101.43 96.80 96.32 98.75 91.43 100.54 C 88.43 101.54 87.59 104.70 86.21 107.16 C 84.27 108.18 82.00 110.16 79.92 108.34 C 81.34 107.80 82.83 107.51 84.36 107.51 C 85.64 103.36 87.70 98.92 85.24 94.74 C 84.17 95.81 83.10 96.88 82.02 97.94 C 81.02 97.39 80.04 96.84 79.05 96.27 C 77.48 100.43 74.22 103.46 70.49 105.74 C 70.55 105.24 70.65 104.24 70.70 103.74 C 74.47 101.19 75.09 96.35 78.32 93.35 C 80.64 91.89 83.30 90.93 85.25 88.90 C 81.81 88.15 78.57 86.44 75.04 86.18 C 70.89 86.81 66.88 88.11 62.75 88.79 C 63.35 87.58 64.07 86.42 64.82 85.30 C 61.87 84.33 60.35 80.62 63.08 78.50 C 59.94 79.98 56.87 78.17 53.95 77.07 C 57.26 73.48 62.68 74.05 66.54 71.59 C 62.86 70.76 58.91 72.02 55.35 70.76 C 55.08 70.18 54.53 69.03 54.25 68.46 C 53.07 67.99 51.89 67.51 50.72 67.00 C 53.05 65.38 55.83 65.28 58.56 65.51 C 58.60 64.97 58.68 63.90 58.72 63.36 C 55.40 62.82 52.06 62.44 48.72 62.07 C 49.67 59.65 52.38 59.52 54.49 58.76 C 52.08 58.04 49.60 57.65 47.10 57.52 C 47.16 56.94 47.28 55.80 47.34 55.22 C 49.36 54.93 51.40 54.72 53.42 54.41 C 51.49 52.78 48.93 52.78 46.61 52.18 C 44.48 51.13 42.29 50.14 40.34 48.77 C 40.13 45.35 45.04 46.89 47.19 46.55 C 45.47 45.72 43.77 44.85 42.37 43.54 C 38.06 40.56 32.27 40.47 28.45 36.66 C 22.27 35.57 16.23 33.79 9.98 33.17 C 8.07 33.08 6.77 31.81 5.76 30.32 C 10.44 30.84 15.11 31.38 19.81 31.52 C 20.30 30.81 20.79 30.11 21.28 29.41 C 20.13 29.61 18.98 29.81 17.83 30.02 C 17.59 28.86 17.35 27.69 17.12 26.53 C 23.35 28.41 29.70 29.92 35.86 32.04 C 35.31 32.95 34.79 33.89 34.32 34.85 C 35.71 34.77 35.92 33.13 36.82 32.35 C 37.66 32.32 39.34 32.24 40.18 32.21 C 37.08 30.24 33.46 29.37 30.30 27.52 C 22.26 22.71 12.36 23.93 3.78 20.72 M 42.57 39.73 C 47.24 42.55 52.60 43.98 57.95 44.79 C 56.79 43.24 55.46 41.77 53.74 40.83 C 49.98 40.87 46.28 40.26 42.57 39.73 M 77.52 46.44 C 79.26 50.69 80.55 55.69 84.53 58.44 C 82.59 54.31 81.47 49.14 77.52 46.44 M 54.45 49.23 C 55.81 50.58 57.81 50.37 59.55 50.68 C 59.56 50.33 59.57 49.63 59.58 49.28 C 57.87 49.22 56.16 49.17 54.45 49.23 M 74.23 55.23 C 74.82 55.81 74.82 55.81 74.23 55.23 M 75.46 58.23 C 74.52 59.70 76.93 61.32 78.05 60.06 C 79.00 58.66 76.49 56.98 75.46 58.23 M 70.33 58.84 C 69.53 60.13 71.60 61.77 72.65 60.65 C 73.48 59.37 71.36 57.73 70.33 58.84 M 73.36 62.85 C 72.90 64.45 73.49 65.00 75.12 64.49 C 75.57 62.89 74.98 62.34 73.36 62.85 M 99.30 66.06 C 97.96 66.73 97.92 67.38 99.19 68.02 C 100.57 67.35 100.61 66.70 99.30 66.06 M 74.75 67.28 C 77.03 69.48 80.36 69.40 83.29 69.79 C 81.08 67.20 77.99 66.68 74.75 67.28 M 83.11 72.53 C 81.87 73.59 83.74 75.55 84.97 74.68 C 86.27 73.63 84.31 71.71 83.11 72.53 M 77.78 80.56 C 78.68 83.22 81.96 82.90 84.15 83.78 C 82.39 82.07 80.35 80.60 77.78 80.56 M 113.44 85.40 C 112.28 85.82 111.08 86.59 110.42 87.66 C 110.92 90.03 115.26 86.50 113.44 85.40 M 86.25 94.24 C 86.80 94.82 86.80 94.82 86.25 94.24 Z" />
<path fill="#ffffff" opacity="1.00" d=" M 90.26 38.99 C 91.59 38.00 93.42 40.32 92.73 41.59 C 91.37 42.38 89.50 40.34 90.26 38.99 Z" />
</g>
</svg>
