<?xml version="1.0" encoding="UTF-8" ?>
<!DOCTYPE svg PUBLIC "-//W3C//DTD SVG 1.1//EN" "http://www.w3.org/Graphics/SVG/1.1/DTD/svg11.dtd">
<svg width="128pt" height="128pt" viewBox="0 0 128 128" version="1.1" xmlns="http://www.w3.org/2000/svg">
<g id="#ffffffff">
<path fill="#ffffff" opacity="1.00" d=" M 81.32 44.41 C 86.88 41.86 92.81 39.62 99.01 39.58 C 102.29 39.76 103.40 43.23 105.17 45.40 C 111.32 44.06 117.57 43.02 123.89 43.35 C 124.08 43.76 124.45 44.60 124.64 45.02 C 118.97 48.59 111.99 49.28 105.96 52.01 C 101.78 55.49 97.32 58.58 92.89 61.73 C 96.73 65.09 100.23 68.90 102.51 73.51 C 104.01 75.41 103.81 77.91 103.31 80.13 C 100.64 81.12 97.82 81.64 94.99 81.87 C 94.39 81.39 93.80 80.90 93.21 80.41 C 93.50 81.27 93.77 82.13 94.03 83.00 C 92.59 83.83 91.07 84.57 89.40 84.75 C 88.82 83.49 90.27 80.67 88.48 80.34 C 88.71 81.60 88.96 82.86 89.21 84.12 C 88.08 85.53 85.76 86.75 84.28 85.12 C 84.94 83.90 85.78 82.79 86.60 81.68 C 83.77 83.12 80.89 84.56 77.87 85.51 C 66.57 86.38 55.32 88.11 43.96 87.80 C 37.37 87.33 30.73 89.17 24.21 87.52 C 24.13 86.84 23.97 85.50 23.89 84.82 C 27.33 83.81 30.94 84.73 34.42 84.05 C 36.72 83.62 39.06 83.26 41.41 83.46 C 40.78 82.28 40.26 81.04 39.79 79.79 C 39.80 80.72 39.78 81.65 39.72 82.58 C 33.71 83.54 27.05 85.07 21.45 81.94 C 17.33 81.70 12.97 85.10 8.87 82.94 C 10.85 81.49 13.13 80.55 15.17 79.20 C 10.68 79.62 6.41 81.48 1.89 81.52 C 1.03 80.31 0.41 78.95 0.00 77.52 L 0.00 76.59 C 1.57 75.48 2.79 73.45 4.95 73.53 C 10.17 73.32 15.33 72.31 20.56 72.31 C 25.85 72.22 29.95 68.24 35.03 67.26 C 40.96 66.09 46.92 64.49 52.99 64.54 C 56.85 66.07 60.99 66.30 64.99 67.20 C 67.52 67.50 68.87 69.82 70.52 71.46 C 72.61 71.82 74.73 72.07 76.85 72.23 C 76.61 62.71 74.65 52.23 79.66 43.56 C 80.08 43.77 80.91 44.20 81.32 44.41 M 93.81 50.17 C 94.66 50.47 95.53 50.60 96.43 50.55 C 97.43 49.37 98.02 47.90 97.58 46.35 C 96.96 46.17 95.71 45.80 95.09 45.61 C 93.61 46.68 92.82 48.47 93.81 50.17 Z" />
</g>
</svg>
