<?xml version="1.0" encoding="UTF-8" ?>
<!DOCTYPE svg PUBLIC "-//W3C//DTD SVG 1.1//EN" "http://www.w3.org/Graphics/SVG/1.1/DTD/svg11.dtd">
<svg width="180pt" height="180pt" viewBox="0 0 180 180" version="1.1" xmlns="http://www.w3.org/2000/svg">
<g id="#ffffffff">
<path fill="#ffffff" opacity="1.00" d=" M 109.00 32.15 C 109.11 30.79 109.81 29.84 111.08 29.32 C 113.99 31.01 114.72 34.65 116.41 37.34 C 118.04 35.57 119.25 33.49 120.42 31.40 C 121.05 31.35 122.29 31.26 122.91 31.22 C 123.87 33.38 124.52 35.65 125.30 37.88 C 128.19 37.00 128.23 32.55 131.14 31.31 C 133.25 33.36 132.55 36.49 132.89 39.13 C 134.53 37.65 136.23 36.20 138.37 35.53 C 138.79 39.00 139.73 42.48 139.17 46.00 C 138.72 49.79 138.06 53.74 139.55 57.40 C 134.32 57.14 129.25 55.52 123.99 55.29 C 118.37 54.48 112.62 54.61 107.10 53.12 C 107.40 46.10 108.12 39.12 109.00 32.15 M 112.15 37.85 C 111.55 42.47 112.05 47.28 110.18 51.67 C 118.73 51.92 127.24 52.80 135.72 53.86 C 135.54 49.47 135.12 45.06 136.04 40.71 C 134.60 42.40 133.39 44.27 131.82 45.84 C 128.59 46.17 129.59 41.96 129.22 39.95 C 127.97 41.15 126.75 42.38 125.55 43.63 C 124.95 43.67 123.75 43.76 123.15 43.80 C 122.64 42.22 122.22 40.61 121.70 39.04 C 119.69 39.64 119.36 42.10 117.98 43.46 C 114.94 43.31 114.05 39.73 112.15 37.85 Z" />
<path fill="#ffffff" opacity="1.00" d=" M 62.94 58.09 C 68.55 56.08 74.72 57.44 80.25 55.25 C 82.77 54.32 85.45 55.29 88.03 55.32 C 91.45 55.73 94.95 55.08 98.33 55.80 C 100.88 58.27 103.56 60.74 106.87 62.14 C 108.38 62.65 109.20 64.08 110.22 65.19 C 113.02 62.71 116.21 60.45 120.08 60.22 C 117.82 63.78 112.51 63.80 110.85 67.96 C 115.09 66.40 118.82 63.03 123.58 63.25 C 125.42 64.28 127.09 65.63 127.57 67.80 C 129.59 67.49 131.66 67.36 133.61 66.67 C 136.35 65.12 138.66 62.93 141.28 61.18 C 142.07 63.36 143.73 67.66 141.18 68.89 C 139.19 68.47 139.63 66.45 139.58 64.92 C 139.26 65.28 138.64 66.01 138.33 66.37 C 138.87 67.25 139.38 68.16 139.85 69.09 C 137.23 71.87 135.16 75.18 132.06 77.48 C 131.40 76.19 130.74 74.91 130.13 73.61 C 132.60 71.80 135.55 70.40 137.28 67.78 C 134.14 69.59 130.91 72.07 127.05 71.50 C 124.52 71.03 121.99 70.63 119.42 71.05 C 121.12 69.49 123.00 68.16 124.96 66.94 C 122.41 67.73 118.82 67.76 117.94 70.87 C 116.25 76.28 115.05 82.38 110.27 86.02 C 110.17 81.85 112.95 78.26 112.82 74.09 C 111.94 70.97 109.33 68.76 107.64 66.08 C 107.22 66.90 106.39 68.54 105.97 69.35 C 106.94 69.43 108.87 69.59 109.83 69.67 C 108.35 73.85 106.51 77.92 105.28 82.20 C 107.38 79.04 108.36 75.15 111.24 72.54 C 111.90 75.32 110.17 77.73 109.28 80.24 C 108.17 82.52 109.04 85.32 107.47 87.43 C 106.71 89.11 105.39 90.40 104.01 91.58 C 103.73 90.94 103.18 89.66 102.90 89.02 C 102.40 89.22 101.39 89.63 100.89 89.83 C 98.05 86.08 97.73 81.32 96.85 76.88 C 95.35 71.73 99.55 67.58 101.91 63.44 C 100.11 62.16 98.40 60.73 96.50 59.59 C 90.23 59.47 83.81 58.46 77.69 60.28 C 72.85 60.67 67.91 60.47 63.23 61.98 C 61.53 64.95 59.57 67.75 57.62 70.56 C 56.41 70.52 55.20 70.52 54.00 70.53 C 54.23 72.61 56.54 72.21 58.03 72.64 C 60.21 69.55 63.48 67.26 67.23 66.55 C 63.35 71.62 57.12 73.98 52.67 78.45 C 52.44 76.69 52.24 74.93 52.03 73.18 C 50.69 74.04 49.32 74.86 47.92 75.62 C 52.66 74.46 49.56 79.94 47.03 79.59 C 40.32 76.68 32.68 79.80 27.35 84.17 C 27.37 84.81 27.41 86.09 27.43 86.73 C 26.71 86.29 25.99 85.85 25.26 85.42 C 20.24 89.34 15.76 93.91 11.51 98.64 C 10.14 99.90 11.13 101.60 11.41 103.09 C 11.12 103.55 10.52 104.46 10.23 104.92 C 11.12 107.20 12.23 109.44 12.64 111.88 C 12.15 119.41 11.76 127.28 14.82 134.36 C 18.96 130.24 13.85 124.58 14.72 119.64 C 15.39 119.54 16.74 119.33 17.42 119.23 C 17.61 117.69 17.96 116.18 18.55 114.75 C 19.29 116.24 19.98 117.76 20.76 119.23 C 20.51 115.96 20.38 112.65 19.53 109.46 C 18.33 107.39 17.02 105.38 15.79 103.32 C 16.51 103.35 17.95 103.40 18.67 103.43 C 19.48 105.77 20.58 108.00 22.05 110.00 C 24.03 112.62 23.91 116.05 24.74 119.11 C 25.10 117.97 25.39 116.81 25.64 115.64 C 26.15 115.65 27.18 115.66 27.70 115.66 C 27.39 114.76 27.08 113.86 26.76 112.96 C 28.23 112.64 29.70 112.33 31.17 112.00 C 29.94 114.42 28.81 116.90 28.18 119.55 C 31.69 118.39 32.89 113.73 37.00 114.06 C 36.78 114.93 36.55 115.81 36.32 116.69 C 36.89 116.69 38.02 116.69 38.58 116.69 C 36.94 119.13 35.16 121.48 33.33 123.79 C 33.05 123.80 32.49 123.83 32.21 123.85 C 31.97 123.20 31.49 121.90 31.25 121.25 C 30.22 122.88 29.22 124.54 28.16 126.15 C 29.33 125.69 30.43 124.36 31.77 125.14 C 31.76 125.93 31.72 126.72 31.65 127.51 C 33.17 130.19 35.25 132.45 37.26 134.77 C 38.22 133.30 39.11 131.76 40.33 130.48 C 39.87 132.45 38.99 134.28 38.23 136.14 C 39.95 136.83 41.71 137.44 43.47 138.02 C 43.05 137.07 42.63 136.12 42.21 135.18 C 44.99 130.59 47.05 125.66 49.13 120.74 C 50.38 125.23 45.75 128.69 45.35 133.07 C 49.14 129.90 51.43 125.31 54.37 121.38 C 54.96 121.44 56.12 121.55 56.71 121.61 C 56.25 128.66 49.44 132.97 46.66 139.09 C 53.19 140.10 59.77 140.94 66.39 140.27 C 66.58 138.89 66.85 137.52 67.20 136.18 C 68.74 135.45 69.34 137.27 70.10 138.22 C 71.16 142.72 71.44 147.51 73.61 151.68 C 75.77 150.32 78.27 150.27 80.75 150.42 C 79.06 146.91 76.39 143.96 74.59 140.57 C 74.69 136.09 73.00 131.78 73.21 127.30 C 73.45 124.44 72.17 121.70 72.49 118.83 C 74.86 120.53 74.44 123.56 75.22 126.04 C 77.24 124.61 75.12 122.68 74.70 120.98 C 75.00 120.07 75.35 119.17 75.74 118.29 C 78.37 119.19 81.14 119.62 83.73 120.64 C 83.84 121.04 84.06 121.83 84.18 122.22 C 82.18 122.51 80.39 121.26 78.49 120.92 C 79.41 122.15 80.42 123.32 81.39 124.53 C 84.84 122.48 88.68 119.68 92.89 120.77 C 94.73 122.52 93.33 124.74 92.46 126.56 C 90.00 125.44 87.38 124.81 84.74 124.29 C 85.11 125.48 85.52 126.67 85.94 127.86 C 88.09 127.66 90.94 126.31 92.50 128.51 C 94.38 130.80 96.49 132.86 98.81 134.72 C 98.37 135.28 97.51 136.40 97.08 136.96 C 98.04 136.68 99.00 136.40 99.96 136.11 C 101.39 137.55 102.71 139.12 104.39 140.28 C 103.25 137.65 100.39 136.37 99.08 133.83 C 97.53 131.07 94.83 129.14 93.58 126.19 C 94.36 126.31 95.94 126.56 96.72 126.68 C 98.07 125.92 99.40 125.15 100.74 124.38 C 102.25 125.32 103.82 126.18 105.40 126.99 C 105.26 129.51 106.06 132.15 105.15 134.58 C 103.03 134.06 103.76 131.23 103.07 129.68 C 102.64 130.93 102.35 132.22 102.10 133.52 C 102.83 134.12 103.55 134.71 104.29 135.31 C 104.71 135.29 105.56 135.26 105.98 135.25 C 105.94 136.03 105.83 136.81 105.67 137.58 C 108.57 140.30 110.92 143.59 114.29 145.79 C 116.62 146.70 115.66 150.04 113.83 150.84 C 110.38 152.01 106.71 152.58 103.07 152.22 C 103.26 151.15 103.45 150.08 103.65 149.02 C 102.12 148.75 100.57 148.60 99.06 148.24 C 96.75 145.73 96.38 142.13 94.67 139.27 C 93.04 136.46 91.45 133.63 89.90 130.78 C 87.06 132.62 85.81 136.17 82.57 137.54 C 80.88 139.01 78.64 138.20 76.65 138.14 C 76.79 138.77 77.07 140.02 77.21 140.65 C 80.20 144.77 83.51 148.90 84.85 153.91 C 79.81 152.58 74.51 153.92 69.50 152.42 C 67.81 150.15 67.67 147.08 67.06 144.39 C 61.30 144.30 55.39 144.97 49.78 143.34 C 46.99 142.55 44.08 142.51 41.23 142.15 C 36.79 139.66 32.43 136.64 29.83 132.13 C 29.07 130.44 27.24 130.39 25.68 130.71 C 25.30 130.59 24.53 130.37 24.14 130.25 C 23.20 131.21 22.24 132.15 21.27 133.08 C 21.76 136.48 22.80 139.80 22.97 143.25 C 19.31 144.99 21.73 138.37 18.33 138.13 C 18.42 139.08 18.61 140.97 18.70 141.91 C 21.17 143.81 23.71 145.65 25.80 147.99 C 22.56 151.05 17.65 148.50 14.35 151.49 C 13.86 147.46 15.05 143.26 13.58 139.37 C 11.91 134.34 11.21 129.06 9.75 123.98 C 9.34 117.94 10.83 111.60 8.30 105.85 C 8.89 102.76 8.50 99.66 8.50 96.55 C 16.99 86.12 27.93 75.99 41.78 74.12 C 42.05 74.48 42.59 75.20 42.86 75.56 C 48.53 68.57 57.02 64.75 62.94 58.09 M 101.80 70.62 C 101.52 73.44 101.55 76.29 101.27 79.11 C 102.53 77.04 103.81 74.84 103.42 72.31 C 102.92 69.75 104.86 67.80 105.83 65.64 C 103.94 66.78 102.78 68.70 101.80 70.62 M 112.52 69.85 C 113.44 71.02 114.34 72.21 115.23 73.41 C 115.97 70.83 116.57 68.21 117.52 65.70 C 115.94 67.18 114.27 68.57 112.52 69.85 M 34.54 117.40 C 33.46 117.98 32.87 119.60 33.34 120.72 C 34.71 121.05 36.55 117.48 34.54 117.40 M 16.62 120.94 C 15.99 122.38 16.34 124.40 17.28 125.63 C 18.91 125.13 18.58 120.49 16.62 120.94 M 98.40 138.29 C 97.76 139.67 99.03 142.50 100.75 141.92 C 101.36 140.60 100.02 137.74 98.40 138.29 M 16.42 145.96 C 16.40 146.42 16.38 147.34 16.36 147.81 C 18.04 147.79 19.71 147.74 21.39 147.62 C 20.02 146.34 18.18 146.14 16.42 145.96 Z" />
<path fill="#ffffff" opacity="1.00" d=" M 66.20 63.11 C 69.06 61.47 66.36 66.61 66.20 63.11 Z" />
<path fill="#ffffff" opacity="1.00" d=" M 137.92 73.04 C 138.98 72.01 139.11 69.89 140.94 69.91 C 142.66 70.75 140.65 73.69 140.03 75.07 C 137.52 76.49 134.99 78.08 134.99 81.30 C 138.59 80.63 140.69 83.87 143.12 85.90 C 145.57 87.78 144.02 91.68 146.30 93.70 C 147.72 95.33 149.59 96.65 150.25 98.80 C 151.40 101.95 155.41 102.21 157.55 104.46 C 158.92 106.02 160.85 107.62 160.54 109.93 C 161.60 109.79 162.67 109.67 163.74 109.57 C 164.49 110.97 165.26 112.35 166.07 113.71 C 165.25 114.50 164.45 115.31 163.66 116.14 C 165.11 115.66 166.53 115.11 167.96 114.58 C 169.03 115.78 170.13 116.96 171.28 118.09 C 169.81 122.05 167.65 125.76 165.17 129.18 C 163.29 131.36 160.25 131.50 157.59 131.25 C 156.23 134.78 152.85 136.69 150.40 139.35 C 149.38 140.71 147.60 140.83 146.10 141.27 C 149.47 137.52 151.56 132.50 156.11 129.97 C 157.32 129.21 157.37 127.58 157.90 126.37 C 156.89 125.90 155.88 125.44 154.86 125.00 C 155.28 122.50 156.09 120.10 156.72 117.65 C 155.26 119.95 154.16 122.45 152.85 124.84 C 153.60 125.56 154.34 126.29 155.08 127.03 C 153.30 126.83 151.53 126.63 149.75 126.53 C 151.58 127.63 154.43 127.55 155.13 129.92 C 149.88 129.73 145.29 126.96 140.31 125.64 C 137.31 124.49 133.75 123.91 131.82 121.07 C 133.99 121.27 136.10 121.82 138.19 122.44 C 139.49 118.32 137.19 114.72 135.75 111.05 C 141.41 111.22 144.69 116.73 145.64 121.71 C 146.81 122.17 147.99 122.63 149.17 123.10 C 149.37 117.40 153.68 113.34 157.64 109.80 C 154.67 106.51 150.03 105.23 147.43 101.57 C 145.47 98.76 142.42 96.89 140.76 93.85 C 140.34 92.10 140.41 90.29 140.47 88.51 C 138.15 86.77 136.02 84.78 133.52 83.28 C 132.38 82.70 132.34 81.21 131.99 80.13 C 133.29 77.26 135.89 75.36 137.92 73.04 M 140.67 116.02 C 140.90 118.46 140.75 120.91 139.83 123.20 C 140.87 123.54 141.92 123.87 142.97 124.19 C 142.97 121.28 142.49 118.38 140.67 116.02 M 145.33 123.95 C 144.78 125.47 147.38 126.69 148.48 125.79 C 149.08 124.27 146.42 122.95 145.33 123.95 Z" />
<path fill="#ffffff" opacity="1.00" d=" M 49.44 80.21 C 50.22 78.79 53.05 79.68 51.54 81.23 C 50.77 82.58 48.01 81.73 49.44 80.21 Z" />
<path fill="#ffffff" opacity="1.00" d=" M 56.00 94.04 C 59.56 90.43 63.86 86.47 69.40 87.76 C 64.17 89.18 59.57 92.48 56.25 96.73 C 57.44 96.47 58.63 96.20 59.82 95.90 C 58.75 98.80 58.13 101.90 56.66 104.63 C 55.23 105.55 53.68 106.28 52.13 106.97 C 52.25 106.28 52.49 104.89 52.61 104.19 C 51.88 104.19 50.42 104.19 49.69 104.19 C 50.92 101.63 53.21 99.89 55.62 98.52 C 55.56 97.02 54.64 95.23 56.00 94.04 Z" />
<path fill="#ffffff" opacity="1.00" d=" M 71.94 90.35 C 76.14 91.88 78.75 95.74 81.05 99.34 C 82.23 100.65 81.53 103.68 79.40 102.61 C 77.71 99.98 76.34 97.10 74.04 94.92 C 72.69 93.76 72.38 91.97 71.94 90.35 Z" />
<path fill="#ffffff" opacity="1.00" d=" M 124.26 93.12 C 127.93 93.24 131.22 95.27 132.11 98.97 C 128.23 100.51 123.82 100.85 120.47 97.95 C 121.58 96.25 122.24 93.99 124.26 93.12 Z" />
<path fill="#ffffff" opacity="1.00" d=" M 116.05 101.42 C 118.97 102.95 121.46 105.95 125.02 105.74 C 126.85 105.57 128.62 105.06 130.43 104.78 C 128.57 106.68 126.44 108.29 124.64 110.26 C 125.76 110.36 126.89 110.43 128.01 110.50 C 127.61 111.38 127.21 112.27 126.80 113.15 C 127.29 113.22 128.26 113.37 128.74 113.45 C 126.22 116.51 126.01 120.66 123.38 123.57 C 122.82 121.22 121.91 118.98 120.64 116.93 C 121.00 116.43 121.72 115.44 122.08 114.94 C 121.57 114.49 120.54 113.60 120.02 113.16 C 122.07 111.21 123.80 108.98 125.55 106.78 C 123.07 106.64 120.59 106.59 118.11 106.67 C 117.41 104.93 116.69 103.19 116.05 101.42 Z" />
<path fill="#ffffff" opacity="1.00" d=" M 56.18 107.09 C 59.18 105.40 56.27 110.54 56.18 107.09 Z" />
<path fill="#ffffff" opacity="1.00" d=" M 31.49 108.29 C 32.05 108.17 33.16 107.93 33.72 107.82 C 33.35 108.80 32.99 109.78 32.63 110.76 C 31.99 110.92 30.72 111.23 30.08 111.39 C 30.55 110.35 31.02 109.32 31.49 108.29 Z" />
<path fill="#ffffff" opacity="1.00" d=" M 54.30 111.32 C 55.58 110.17 57.08 109.33 58.74 108.89 C 58.54 110.06 58.21 111.20 57.77 112.31 C 62.50 111.62 62.88 117.04 65.27 119.77 C 67.61 122.99 70.91 127.62 67.48 131.28 C 67.98 132.79 70.03 135.44 67.02 135.25 C 66.61 135.14 65.79 134.92 65.38 134.81 C 65.50 129.36 62.83 124.29 59.85 119.89 C 60.53 118.83 61.19 117.76 61.84 116.69 C 60.52 116.67 59.19 116.66 57.87 116.66 C 57.31 115.74 56.73 114.82 56.13 113.93 C 56.95 113.20 57.42 112.33 57.54 111.31 C 56.73 111.31 55.11 111.32 54.30 111.32 Z" />
<path fill="#ffffff" opacity="1.00" d=" M 38.58 116.69 C 37.69 115.30 39.24 112.57 40.97 113.31 C 41.53 114.60 39.70 116.48 38.58 116.69 Z" />
<path fill="#ffffff" opacity="1.00" d=" M 47.07 113.16 C 47.75 113.83 47.75 113.83 47.07 113.16 Z" />
<path fill="#ffffff" opacity="1.00" d=" M 113.64 118.75 C 115.34 118.47 116.94 117.85 118.56 117.30 C 118.22 117.76 117.53 118.69 117.19 119.16 C 113.86 120.77 110.56 122.48 107.79 124.96 C 111.03 124.09 114.29 123.26 117.62 122.76 C 117.59 123.58 117.53 125.21 117.49 126.03 C 118.34 124.96 119.18 123.88 120.00 122.79 C 120.60 123.13 121.82 123.82 122.42 124.16 C 122.03 126.39 121.48 128.59 121.02 130.82 C 122.77 129.08 124.85 127.75 127.10 126.75 C 125.50 129.36 123.51 131.95 124.79 135.16 C 126.35 133.59 127.98 132.08 129.77 130.78 C 129.46 130.38 128.83 129.58 128.52 129.18 C 130.03 128.01 131.48 126.77 133.02 125.64 C 131.78 127.90 130.40 130.14 130.06 132.75 C 131.85 132.33 133.64 131.96 135.45 131.64 C 134.20 133.06 132.78 134.32 131.58 135.78 C 133.83 134.62 135.95 133.21 138.32 132.29 C 138.01 131.53 137.38 130.02 137.07 129.26 C 138.76 130.08 138.95 131.95 139.52 133.53 C 140.82 133.53 142.12 133.51 143.43 133.52 C 144.20 132.51 144.99 131.50 145.77 130.50 C 146.60 130.57 148.26 130.71 149.09 130.78 C 149.64 131.84 150.16 132.91 150.63 134.01 C 149.30 136.52 147.08 138.33 144.58 139.61 C 144.54 139.03 144.47 137.86 144.43 137.28 C 144.07 137.71 143.33 138.58 142.97 139.01 C 142.55 138.55 141.72 137.63 141.30 137.17 C 138.32 140.05 134.81 137.36 131.50 136.85 C 129.40 136.05 127.19 137.01 125.05 137.14 C 125.23 138.89 125.45 140.65 125.61 142.41 C 121.89 142.51 122.79 137.78 122.46 135.29 C 122.18 135.25 121.62 135.16 121.34 135.11 C 121.16 136.91 120.94 138.71 120.67 140.51 C 119.82 139.73 119.01 138.93 118.21 138.12 C 118.31 139.87 118.29 141.63 118.21 143.39 C 114.90 142.76 115.65 139.15 115.62 136.71 C 115.24 138.12 114.90 139.53 114.58 140.96 C 114.06 139.94 113.57 138.92 113.10 137.88 C 112.56 139.16 112.16 141.04 110.54 139.57 C 110.14 136.44 109.96 133.29 109.65 130.16 L 109.00 130.16 C 109.18 133.45 109.43 136.75 109.19 140.05 C 108.01 138.96 106.16 137.85 106.31 135.99 C 106.38 132.09 106.73 128.21 106.83 124.31 C 105.67 124.54 104.51 124.75 103.35 124.94 C 104.49 122.88 106.87 122.62 108.94 122.23 C 108.68 121.64 108.17 120.45 107.91 119.86 C 106.28 120.50 104.65 121.18 103.03 121.85 C 103.13 121.32 103.32 120.25 103.42 119.71 C 106.38 119.56 109.24 118.77 112.05 117.90 C 111.37 119.08 110.65 120.26 110.01 121.47 C 111.40 120.81 112.52 119.77 113.64 118.75 M 112.25 134.83 L 112.79 134.79 C 112.73 131.73 112.94 128.64 112.57 125.59 C 111.84 128.62 112.26 131.75 112.25 134.83 M 117.40 127.27 C 117.70 130.29 117.85 133.34 118.56 136.30 C 119.77 133.55 119.58 130.50 119.51 127.56 C 118.99 127.49 117.93 127.35 117.40 127.27 Z" />
<path fill="#ffffff" opacity="1.00" d=" M 134.29 128.07 C 135.96 127.12 136.10 129.76 134.67 130.05 C 133.03 131.02 132.84 128.30 134.29 128.07 Z" />
</g>
</svg>
