<?xml version="1.0" encoding="UTF-8" ?>
<!DOCTYPE svg PUBLIC "-//W3C//DTD SVG 1.1//EN" "http://www.w3.org/Graphics/SVG/1.1/DTD/svg11.dtd">
<svg width="128pt" height="128pt" viewBox="0 0 128 128" version="1.1" xmlns="http://www.w3.org/2000/svg">
<g id="#ffffffff">
<path fill="#ffffff" opacity="1.00" d=" M 10.86 13.58 C 12.92 13.63 14.98 13.64 17.04 13.55 C 18.61 18.20 20.78 22.68 21.70 27.54 C 22.65 30.94 23.23 34.65 25.44 37.51 C 32.35 40.67 39.55 43.22 46.39 46.55 C 50.46 47.69 53.90 50.21 57.14 52.83 C 58.51 53.96 58.64 55.90 59.46 57.38 C 60.85 59.95 63.24 61.76 65.43 63.60 C 83.34 78.01 103.85 88.70 124.59 98.39 C 124.14 99.81 123.70 101.24 123.30 102.67 C 124.88 103.66 126.46 104.66 128.00 105.71 L 128.00 108.56 C 124.06 105.33 119.43 102.89 114.47 101.71 C 109.03 99.64 104.05 96.55 98.72 94.23 C 88.67 89.38 78.44 84.92 68.09 80.76 C 65.66 79.57 63.17 81.35 60.83 81.93 C 59.21 80.84 57.61 79.74 56.01 78.65 C 51.17 81.77 46.01 84.68 40.25 85.64 C 41.16 88.93 42.15 92.27 44.24 95.03 C 43.62 95.48 43.01 95.92 42.39 96.36 C 45.09 96.60 47.78 97.04 50.25 98.19 C 47.61 98.94 44.87 98.61 42.17 98.76 C 40.10 99.46 38.18 100.55 36.08 101.15 C 33.17 101.17 35.52 98.92 36.06 97.52 C 32.40 99.15 28.54 100.61 24.45 100.21 C 26.04 96.89 29.64 95.46 32.85 94.21 C 32.10 87.75 28.61 81.89 28.52 75.36 C 26.80 74.33 25.05 73.37 23.24 72.52 C 24.31 74.83 25.58 77.05 26.54 79.41 C 23.26 77.11 20.72 73.91 18.37 70.70 C 11.62 59.88 10.70 46.62 10.51 34.19 C 11.80 34.61 13.09 35.03 14.38 35.46 C 13.09 34.43 10.93 33.88 10.87 31.91 C 10.53 28.17 9.72 24.50 8.62 20.91 C 6.36 21.98 4.15 23.14 1.81 24.01 C 2.43 22.14 2.77 19.84 4.62 18.73 C 6.94 17.31 9.30 15.88 10.86 13.58 M 11.89 17.47 C 11.87 20.43 14.40 21.35 16.93 20.57 C 16.64 19.74 16.05 18.07 15.75 17.23 C 14.46 17.31 13.18 17.39 11.89 17.47 M 35.08 46.36 C 33.54 47.81 37.24 50.02 37.73 47.92 C 37.93 46.56 36.16 45.71 35.08 46.36 M 20.14 66.30 C 18.62 69.34 23.56 66.35 20.14 66.30 M 32.58 68.21 C 32.06 69.43 32.79 71.49 34.24 71.70 C 36.42 71.11 34.29 67.48 32.58 68.21 M 31.07 74.45 C 32.14 75.54 33.33 76.49 34.67 77.23 C 34.58 76.58 34.38 75.28 34.29 74.64 C 33.21 74.57 32.14 74.51 31.07 74.45 M 34.06 83.18 C 34.54 86.63 35.28 90.04 35.61 93.51 C 36.48 93.32 38.22 92.93 39.09 92.74 C 37.75 89.44 38.37 84.17 34.06 83.18 M 111.17 95.62 C 110.79 97.16 114.52 98.35 114.62 96.52 C 113.91 95.54 112.26 95.10 111.17 95.62 Z" />
</g>
</svg>
