<?xml version="1.0" encoding="UTF-8" ?>
<!DOCTYPE svg PUBLIC "-//W3C//DTD SVG 1.1//EN" "http://www.w3.org/Graphics/SVG/1.1/DTD/svg11.dtd">
<svg width="128pt" height="128pt" viewBox="0 0 128 128" version="1.1" xmlns="http://www.w3.org/2000/svg">
<g id="#ffffffff">
<path fill="#ffffff" opacity="1.00" d=" M 64.68 5.69 C 65.28 5.67 66.48 5.63 67.08 5.61 C 67.28 11.31 67.63 17.36 71.29 22.06 C 72.01 16.02 73.71 9.85 78.51 5.74 C 76.29 11.55 73.27 17.26 73.18 23.64 C 76.45 27.46 80.39 31.44 85.75 31.55 C 89.30 29.73 92.69 27.11 94.28 23.33 C 95.36 21.50 95.64 18.86 97.89 18.03 C 97.16 24.35 92.72 29.42 88.50 33.85 C 88.93 35.40 89.29 36.97 89.60 38.55 C 90.38 38.50 91.94 38.38 92.72 38.33 C 92.10 39.38 91.48 40.44 90.95 41.55 C 92.81 40.52 94.23 38.24 96.57 38.42 C 98.92 38.65 100.92 37.25 102.89 36.20 C 104.99 34.82 107.63 35.62 109.98 35.32 C 108.47 33.72 106.79 32.30 105.31 30.68 C 103.18 28.92 105.42 26.25 105.67 24.12 C 106.29 24.53 107.53 25.34 108.15 25.74 C 107.39 24.81 106.59 23.93 105.79 23.04 C 106.03 20.56 105.77 18.06 105.46 15.59 C 108.39 15.87 110.62 17.56 111.73 20.27 C 112.12 18.29 112.39 16.27 112.99 14.32 C 114.72 15.12 116.29 16.22 118.01 17.06 C 118.65 21.47 118.48 25.93 118.87 30.36 C 123.39 28.69 120.95 22.58 123.10 19.28 C 123.43 19.59 124.10 20.20 124.43 20.51 C 125.18 24.22 123.75 27.87 122.72 31.38 C 124.71 28.51 126.91 25.57 127.34 22.00 C 127.53 19.08 127.05 16.11 128.00 13.28 L 128.00 27.60 C 125.83 31.12 123.19 34.48 119.73 36.81 C 115.24 37.44 110.58 37.25 106.31 39.01 C 109.19 42.35 112.07 45.62 115.93 47.86 C 117.98 51.75 122.72 53.78 123.97 58.04 C 122.85 61.13 121.36 64.66 118.27 66.21 C 114.60 67.07 110.86 65.58 107.15 65.65 C 102.37 69.37 97.42 73.12 94.68 78.70 C 94.31 78.37 93.56 77.71 93.19 77.39 C 93.17 78.13 93.14 79.62 93.12 80.36 C 92.06 77.82 91.58 75.09 90.96 72.42 C 88.01 73.95 86.46 77.00 84.62 79.61 C 82.09 83.65 79.11 87.40 76.73 91.53 C 76.16 96.59 76.45 101.87 74.59 106.70 C 73.02 110.80 73.95 115.27 73.40 119.53 C 72.70 121.06 70.95 121.75 69.77 122.86 C 67.92 112.69 71.61 102.62 71.54 92.45 C 70.63 91.13 68.99 90.50 68.23 89.04 C 68.93 90.47 69.57 91.93 70.22 93.38 C 68.89 93.71 67.48 93.75 66.19 94.25 C 67.40 94.15 68.60 94.00 69.79 93.80 C 67.91 101.23 64.64 108.20 62.54 115.55 C 62.06 116.76 61.57 119.62 59.62 118.46 C 59.06 114.33 60.40 110.27 61.15 106.25 C 62.77 100.41 62.69 94.32 63.53 88.35 C 58.96 89.34 54.50 90.80 49.90 91.65 C 43.70 92.16 37.40 91.90 31.31 90.58 C 30.58 96.33 30.73 102.16 29.77 107.87 C 29.29 111.27 27.36 114.17 25.93 117.22 C 22.90 115.09 24.92 111.01 24.57 107.98 C 24.01 103.71 24.50 99.41 24.58 95.13 C 24.66 92.68 22.55 91.01 21.07 89.36 C 18.27 95.57 15.32 101.76 13.33 108.29 C 11.60 114.78 10.17 121.35 9.22 128.00 L 6.67 128.00 C 7.09 122.07 5.25 116.14 5.82 110.28 C 7.41 110.05 8.96 109.60 10.55 109.34 C 11.08 107.11 11.71 104.89 11.87 102.59 C 9.68 104.98 10.19 109.87 6.09 110.02 C 6.31 106.64 8.13 103.77 9.23 100.67 C 10.40 93.84 8.96 86.94 8.23 80.14 C 7.05 73.60 7.19 66.90 7.49 60.29 C 9.20 55.49 13.41 52.31 17.04 49.00 C 18.61 47.39 20.97 47.23 23.04 46.74 C 29.12 46.82 35.25 45.87 41.29 46.94 C 45.42 47.67 49.50 49.26 53.75 48.82 C 56.23 47.36 58.05 45.04 60.45 43.47 C 63.88 41.20 67.79 39.79 71.67 38.52 C 72.99 39.95 74.29 41.58 75.94 42.60 C 78.78 40.97 82.08 41.24 85.22 40.84 C 81.08 35.71 74.13 34.02 69.95 29.02 C 66.58 22.21 61.56 16.08 59.59 8.65 C 63.23 8.88 63.85 13.38 65.68 15.90 C 65.13 12.53 64.48 9.13 64.68 5.69 M 97.63 46.59 C 97.50 47.91 97.42 49.23 97.36 50.55 C 98.72 50.64 100.10 50.82 101.44 50.47 C 101.75 49.14 101.95 47.78 101.51 46.46 C 100.21 46.39 98.91 46.36 97.63 46.59 M 8.29 64.02 C 8.24 67.53 11.25 62.50 8.29 64.02 Z" />
<path fill="#ffffff" opacity="1.00" d=" M 93.42 80.94 C 94.75 80.54 95.22 81.09 94.81 82.58 C 93.43 82.91 92.96 82.36 93.42 80.94 Z" />
</g>
</svg>
