<?xml version="1.0" encoding="UTF-8" ?>
<!DOCTYPE svg PUBLIC "-//W3C//DTD SVG 1.1//EN" "http://www.w3.org/Graphics/SVG/1.1/DTD/svg11.dtd">
<svg width="128pt" height="64pt" viewBox="0 0 128 64" version="1.1" xmlns="http://www.w3.org/2000/svg">
<g id="#ffffffff">
<path fill="#ffffff" opacity="1.00" d=" M 33.93 0.00 L 36.28 0.00 C 37.21 1.24 38.14 2.47 39.07 3.71 C 43.42 4.12 47.58 5.98 52.01 5.54 C 56.70 5.31 61.12 3.11 65.86 3.45 C 69.97 4.00 74.44 2.02 78.02 4.86 C 81.66 6.87 86.02 7.06 89.46 9.46 C 92.85 12.10 97.79 11.02 100.96 14.01 C 102.52 15.45 104.08 16.92 105.37 18.62 C 107.42 23.46 108.29 28.70 108.75 33.90 C 110.68 38.74 112.56 43.60 114.34 48.50 C 115.53 52.90 114.54 57.59 111.99 61.32 C 108.45 57.39 106.10 52.62 103.55 48.04 C 102.41 52.56 101.75 57.20 100.44 61.68 C 96.23 62.67 94.93 58.01 93.78 54.97 C 93.26 50.81 95.79 46.38 93.88 42.35 C 93.77 43.84 93.70 45.34 93.66 46.83 C 93.03 46.30 92.41 45.77 91.79 45.24 C 88.83 45.58 85.90 46.07 82.96 46.49 C 77.98 46.44 73.04 45.42 68.05 45.78 C 66.25 46.22 65.36 44.52 64.30 43.43 C 64.41 43.99 64.62 45.09 64.73 45.64 C 61.78 45.53 58.77 45.79 56.02 46.92 C 51.12 49.65 54.80 57.92 49.03 59.85 C 48.30 56.72 47.80 53.54 47.19 50.39 C 45.03 52.77 44.19 55.92 42.76 58.72 C 41.79 60.83 39.51 61.74 37.72 63.00 C 35.44 57.00 38.15 50.72 38.94 44.69 C 31.73 45.97 24.75 48.93 17.30 48.53 C 19.31 45.38 21.59 42.42 23.57 39.25 C 19.44 39.89 15.65 41.65 12.06 43.71 C 10.58 41.58 8.98 39.51 7.18 37.63 C 7.85 36.74 8.51 35.86 9.18 34.99 C 10.00 36.03 10.81 37.10 11.64 38.14 C 11.12 36.87 10.58 35.60 10.09 34.31 C 12.21 32.47 15.38 31.27 16.13 28.28 C 17.79 24.30 17.40 19.87 18.88 15.83 C 19.95 12.35 19.86 7.53 23.93 6.07 C 27.62 4.66 30.71 2.20 33.93 0.00 M 25.38 18.43 C 25.51 20.45 26.39 22.26 27.43 23.96 C 28.44 23.33 29.44 22.69 30.39 21.98 C 30.67 20.34 30.07 18.73 29.76 17.14 C 28.22 17.28 26.74 17.71 25.38 18.43 M 53.37 44.18 C 51.24 44.98 53.31 47.32 54.77 46.07 C 56.73 45.15 54.85 42.73 53.37 44.18 Z" />
</g>
</svg>
