<?xml version="1.0" encoding="UTF-8" ?>
<!DOCTYPE svg PUBLIC "-//W3C//DTD SVG 1.1//EN" "http://www.w3.org/Graphics/SVG/1.1/DTD/svg11.dtd">
<svg width="128pt" height="128pt" viewBox="0 0 128 128" version="1.1" xmlns="http://www.w3.org/2000/svg">
<g id="#ffffffff">
<path fill="#ffffff" opacity="1.00" d=" M 46.92 2.89 C 47.44 2.47 48.47 1.64 48.98 1.23 C 54.42 4.20 58.30 9.24 63.54 12.47 C 67.79 13.37 71.80 10.77 75.98 10.36 C 77.97 10.73 79.30 12.56 80.93 13.63 C 86.47 9.64 93.40 8.38 99.99 7.29 C 99.87 7.86 99.62 8.98 99.49 9.55 C 95.98 12.14 92.78 15.09 89.82 18.31 C 91.18 20.78 93.17 23.11 93.56 25.96 C 93.40 30.83 94.79 36.34 91.11 40.30 C 93.03 42.90 94.69 45.68 96.66 48.24 C 99.70 51.62 100.04 56.60 100.19 60.92 C 98.11 65.80 97.51 71.12 95.71 76.09 C 91.99 83.10 91.92 91.26 90.38 98.88 C 89.29 102.74 89.56 106.99 87.32 110.49 C 84.90 116.15 78.23 118.75 76.86 124.97 C 72.99 124.11 72.90 120.01 72.12 116.85 C 67.75 117.88 63.29 118.65 58.79 118.63 C 58.37 122.34 57.03 125.92 53.70 127.99 C 53.13 125.60 53.66 123.19 53.94 120.81 C 52.72 123.29 51.64 125.88 49.82 128.00 L 49.01 128.00 C 48.56 126.18 48.13 124.35 47.66 122.53 C 44.10 121.62 41.14 119.38 37.76 118.06 C 36.50 119.50 35.22 120.92 33.84 122.24 C 32.47 119.00 32.17 115.52 32.11 112.04 C 32.20 110.02 29.30 109.34 29.52 107.26 C 29.47 94.11 27.78 81.06 27.61 67.92 C 27.56 64.80 27.07 61.52 28.30 58.54 C 28.79 57.23 29.36 55.61 31.08 55.80 C 31.58 56.19 32.58 56.97 33.08 57.35 C 33.48 56.75 33.87 56.14 34.26 55.54 C 33.54 55.38 32.09 55.08 31.37 54.93 L 30.97 54.38 C 33.20 51.25 36.02 48.60 38.78 45.94 C 39.22 46.17 40.10 46.64 40.54 46.87 C 41.40 46.38 42.25 45.89 43.11 45.40 C 41.67 45.58 40.22 45.73 38.77 45.87 C 41.73 42.57 45.33 39.78 47.61 35.93 C 47.67 32.52 47.06 29.03 48.09 25.71 C 48.98 21.99 51.46 18.95 53.57 15.86 C 50.18 12.22 48.11 7.67 46.92 2.89 M 53.51 11.86 C 54.30 14.13 55.64 16.13 56.96 18.11 C 57.28 16.80 57.58 15.48 57.89 14.16 C 56.47 13.32 55.03 12.51 53.51 11.86 M 61.55 21.53 C 60.37 23.51 59.68 26.16 60.65 28.35 C 62.03 29.07 63.52 29.55 65.05 29.84 C 67.81 28.88 69.78 25.61 68.17 22.89 C 66.94 20.52 63.63 19.90 61.55 21.53 M 78.25 21.62 C 78.45 23.59 78.42 25.58 78.57 27.56 C 79.35 28.51 80.64 28.56 81.73 28.89 C 82.97 27.02 84.24 25.13 84.80 22.92 C 83.97 21.90 83.12 20.89 82.25 19.90 C 80.91 20.46 79.58 21.04 78.25 21.62 M 86.23 62.24 C 86.82 62.81 86.82 62.81 86.23 62.24 M 79.29 79.20 C 81.72 75.10 82.30 70.11 83.50 65.54 C 80.54 69.39 80.84 74.72 79.29 79.20 M 92.30 74.17 C 93.47 72.17 94.50 70.07 95.07 67.82 C 93.09 69.33 92.86 71.93 92.30 74.17 M 83.16 77.52 C 82.26 78.75 82.50 79.41 83.89 79.50 C 84.79 78.27 84.54 77.61 83.16 77.52 M 57.12 115.22 C 59.10 113.73 58.41 111.07 58.53 108.95 C 56.81 110.46 57.47 113.17 57.12 115.22 M 63.17 110.34 C 61.66 111.32 63.16 113.91 64.68 112.68 C 66.18 111.74 64.66 109.09 63.17 110.34 M 76.24 110.86 C 76.49 112.85 75.45 115.92 77.64 117.05 C 77.46 114.94 77.36 112.72 76.24 110.86 M 44.13 113.38 C 43.98 113.75 43.67 114.50 43.51 114.87 C 45.23 118.02 47.54 111.82 44.13 113.38 Z" />
</g>
</svg>
