<?xml version="1.0" encoding="UTF-8" ?>
<!DOCTYPE svg PUBLIC "-//W3C//DTD SVG 1.1//EN" "http://www.w3.org/Graphics/SVG/1.1/DTD/svg11.dtd">
<svg width="128pt" height="128pt" viewBox="0 0 128 128" version="1.1" xmlns="http://www.w3.org/2000/svg">
<g id="#ffffffff">
<path fill="#ffffff" opacity="1.00" d=" M 81.95 7.93 C 85.97 5.78 91.74 3.99 95.50 7.56 C 98.16 9.57 97.99 13.15 99.15 15.98 C 100.18 19.35 103.30 23.10 100.11 26.29 C 98.84 23.68 98.00 20.34 94.81 19.51 C 93.76 24.72 95.65 29.80 95.70 34.99 C 96.03 38.33 96.43 41.67 96.35 45.04 C 95.70 53.94 91.57 62.01 88.03 70.04 C 86.41 73.55 84.13 76.73 81.54 79.58 C 78.45 83.09 73.36 83.48 69.76 86.21 C 69.20 87.88 68.89 89.61 68.42 91.31 C 68.63 89.90 68.86 88.49 69.11 87.09 C 67.83 87.63 66.57 88.20 65.32 88.79 C 67.93 93.91 70.48 99.06 72.43 104.47 C 76.21 108.17 81.87 112.97 79.11 118.88 C 76.24 117.58 76.31 114.48 75.67 111.85 C 75.63 114.33 75.67 116.82 75.25 119.28 C 73.97 118.85 73.18 118.01 72.87 116.76 C 71.99 113.61 70.92 110.48 69.08 107.74 C 70.89 112.10 73.58 117.63 70.15 121.91 C 67.39 120.59 68.63 117.39 68.30 115.02 C 67.82 112.50 65.52 111.05 63.84 109.35 C 62.00 110.83 58.88 115.02 57.28 111.06 C 58.85 109.23 60.85 107.85 62.71 106.34 C 60.89 103.67 59.11 100.96 57.71 98.04 C 55.44 98.82 53.17 99.65 50.76 99.86 C 49.67 101.95 48.88 104.42 46.79 105.75 C 46.34 105.13 45.45 103.87 45.00 103.25 C 44.23 103.90 43.46 104.56 42.68 105.19 C 43.02 105.40 43.71 105.82 44.06 106.03 C 44.11 106.35 44.20 106.99 44.24 107.31 C 42.38 109.61 41.58 112.52 40.02 115.01 C 37.23 116.88 35.00 119.41 33.15 122.20 C 32.01 122.84 30.79 123.30 29.60 123.82 C 29.08 121.17 28.42 118.53 28.10 115.84 C 27.26 115.75 26.43 115.65 25.59 115.55 C 26.40 113.94 27.49 112.46 28.05 110.75 C 27.76 109.61 27.35 108.51 26.95 107.41 C 26.81 108.38 26.54 110.31 26.40 111.28 C 25.61 110.80 24.04 109.85 23.25 109.38 C 24.18 106.62 25.07 103.85 25.60 100.98 C 27.26 100.48 28.98 100.11 30.53 99.30 C 28.97 99.50 27.45 99.91 25.93 100.29 C 27.00 95.84 29.19 91.86 31.04 87.72 C 32.14 82.49 34.17 77.52 35.56 72.36 C 36.89 67.78 39.54 63.60 39.78 58.73 C 44.81 49.90 49.40 40.72 55.78 32.76 C 57.64 30.28 58.47 26.97 61.20 25.21 C 63.75 23.41 66.27 21.56 68.94 19.94 C 70.58 18.92 72.71 19.42 74.38 18.47 C 77.55 15.44 80.65 12.22 81.95 7.93 M 89.29 12.96 C 89.83 14.85 91.01 16.20 92.96 16.65 C 93.77 15.45 94.47 14.17 95.23 12.94 C 94.20 12.11 93.17 11.26 92.06 10.54 C 91.10 11.30 90.17 12.11 89.29 12.96 M 92.36 48.56 C 92.20 48.92 91.90 49.65 91.74 50.01 C 93.63 52.94 95.92 46.99 92.36 48.56 M 39.22 75.46 C 41.45 72.82 42.85 69.60 44.02 66.38 C 41.51 68.84 39.24 71.77 39.22 75.46 M 44.30 77.26 C 42.88 80.28 47.70 77.18 44.30 77.26 M 60.35 93.92 C 62.04 97.98 64.24 101.82 66.50 105.59 C 67.05 105.68 68.17 105.86 68.73 105.95 C 68.22 99.25 61.47 94.20 63.59 87.25 C 61.21 88.64 60.28 91.26 60.35 93.92 M 30.21 93.52 C 29.30 94.19 29.37 96.65 30.81 96.47 C 31.70 95.80 31.64 93.33 30.21 93.52 M 55.27 94.38 C 53.97 95.41 55.65 97.54 56.98 96.63 C 58.05 95.66 56.55 93.39 55.27 94.38 M 46.22 95.03 C 44.99 95.38 44.48 98.57 46.37 97.52 C 47.82 97.21 48.18 94.19 46.22 95.03 Z" />
<path fill="#ffffff" opacity="1.00" d=" M 56.03 109.12 C 57.31 107.14 57.35 103.44 60.24 103.26 C 59.31 105.52 57.54 107.25 56.03 109.12 Z" />
<path fill="#ffffff" opacity="1.00" d=" M 52.18 104.30 C 54.08 104.92 51.51 107.70 50.26 106.60 C 49.57 105.42 51.05 104.20 52.18 104.30 Z" />
<path fill="#ffffff" opacity="1.00" d=" M 19.59 121.54 C 21.71 118.14 22.39 114.07 22.82 110.15 C 24.30 110.69 25.79 111.21 27.30 111.71 C 26.20 113.22 23.27 114.45 24.99 116.58 C 25.67 116.56 27.03 116.54 27.71 116.52 C 27.56 117.99 27.38 119.45 27.17 120.90 C 24.98 118.17 21.97 120.22 19.59 121.54 Z" />
</g>
</svg>
