<?xml version="1.0" encoding="UTF-8" ?>
<!DOCTYPE svg PUBLIC "-//W3C//DTD SVG 1.1//EN" "http://www.w3.org/Graphics/SVG/1.1/DTD/svg11.dtd">
<svg width="128pt" height="128pt" viewBox="0 0 128 128" version="1.1" xmlns="http://www.w3.org/2000/svg">
<g id="#ffffffff">
<path fill="#ffffff" opacity="1.00" d=" M 10.84 22.79 C 14.84 20.38 19.92 19.98 24.17 21.96 C 26.39 23.79 28.90 25.17 31.37 26.63 C 33.80 28.85 35.97 31.36 38.59 33.38 C 40.83 35.06 42.41 38.03 45.43 38.34 C 50.34 38.83 55.52 39.45 59.73 42.24 C 62.84 44.12 65.99 45.98 69.29 47.50 C 70.51 47.48 71.68 47.08 72.87 46.86 C 79.17 51.71 85.15 57.10 92.33 60.67 C 94.68 61.58 95.21 64.44 97.26 65.73 C 100.04 67.60 102.81 69.46 105.41 71.57 C 112.50 74.96 120.02 77.38 127.38 80.14 C 127.36 80.69 127.32 81.79 127.30 82.34 C 123.90 82.54 120.16 81.11 117.60 78.82 C 113.76 79.93 110.54 76.57 106.99 75.64 C 101.91 75.57 97.13 77.76 92.05 77.76 C 86.44 78.03 80.80 78.37 75.26 79.34 C 73.94 79.42 72.71 80.62 72.93 81.99 C 73.25 84.47 71.04 86.46 71.61 88.96 C 72.09 92.68 70.92 96.65 72.97 100.05 C 72.06 102.73 69.00 103.49 66.83 104.86 C 64.63 105.86 62.65 107.70 60.12 107.68 C 59.30 106.43 59.42 104.70 60.89 104.00 C 63.27 102.25 66.07 101.20 68.53 99.59 C 68.41 95.68 68.96 91.83 69.47 87.97 C 69.62 86.18 68.81 85.50 67.05 85.93 C 65.95 89.42 65.58 93.08 64.59 96.59 C 64.19 98.72 61.74 99.03 60.18 100.01 C 57.46 101.11 54.35 103.23 51.39 101.80 C 51.22 100.27 50.21 98.56 51.08 97.10 C 54.44 96.03 58.17 96.08 61.34 94.47 C 62.95 91.93 63.39 88.83 64.25 85.97 C 62.19 84.93 60.20 83.77 58.16 82.71 C 54.28 82.01 50.25 82.63 46.43 81.58 C 44.98 80.35 43.97 78.37 41.93 78.08 C 38.23 77.11 34.50 75.84 31.43 73.48 C 31.07 72.64 31.18 71.73 31.15 70.85 C 30.12 70.86 28.84 70.97 28.23 69.92 C 26.16 67.24 24.25 64.42 22.51 61.52 C 20.53 57.44 22.22 52.95 21.52 48.69 C 21.31 46.86 21.63 45.03 21.70 43.21 C 20.21 43.54 19.31 44.83 18.21 45.77 C 14.32 41.63 11.06 36.93 9.83 31.29 C 6.55 31.41 2.75 33.68 0.00 30.92 L 0.00 28.33 C 2.29 28.36 4.62 28.51 6.88 28.01 C 9.36 27.53 9.48 24.49 10.84 22.79 M 17.69 30.36 C 19.28 31.78 21.38 29.98 22.65 28.92 C 22.34 26.49 20.94 24.00 18.07 24.57 C 15.60 25.62 17.17 28.55 17.69 30.36 M 32.22 36.42 C 31.17 37.21 32.17 39.64 33.45 38.54 C 34.40 37.76 33.44 35.59 32.22 36.42 M 17.23 41.29 C 17.83 41.81 17.83 41.81 17.23 41.29 M 76.19 55.04 C 79.99 58.86 83.81 63.09 88.78 65.40 C 88.99 65.17 89.42 64.71 89.64 64.48 C 89.28 64.41 88.55 64.27 88.19 64.20 C 84.15 61.20 80.63 57.45 76.19 55.04 M 35.17 66.39 C 34.80 67.83 35.30 68.33 36.65 67.90 C 37.01 66.50 36.52 65.99 35.17 66.39 M 35.19 71.30 C 34.15 72.63 36.63 74.34 37.79 73.57 C 38.51 72.12 36.56 70.31 35.19 71.30 M 40.34 74.08 C 40.01 75.45 40.52 75.96 41.85 75.63 C 42.24 74.20 41.74 73.68 40.34 74.08 M 48.09 75.20 C 46.70 76.77 49.80 78.02 50.68 76.63 C 51.71 75.13 49.03 73.95 48.09 75.20 Z" />
</g>
</svg>
