<?xml version="1.0" encoding="UTF-8" ?>
<!DOCTYPE svg PUBLIC "-//W3C//DTD SVG 1.1//EN" "http://www.w3.org/Graphics/SVG/1.1/DTD/svg11.dtd">
<svg width="128pt" height="128pt" viewBox="0 0 128 128" version="1.1" xmlns="http://www.w3.org/2000/svg">
<g id="#ffffffff">
<path fill="#ffffff" opacity="1.00" d=" M 108.24 48.02 C 108.47 45.23 107.48 41.62 109.80 39.52 C 111.35 42.34 113.00 45.12 114.45 47.99 C 115.99 47.67 117.66 47.73 119.08 47.01 C 120.63 45.41 121.92 43.39 124.21 42.78 C 123.82 46.58 119.22 50.29 122.05 53.98 C 123.57 56.39 126.06 57.93 127.84 60.13 C 124.85 62.05 121.12 61.60 117.94 63.02 C 115.97 67.96 113.88 73.16 109.59 76.59 C 107.72 78.05 105.41 78.92 103.72 80.61 C 102.65 82.92 101.66 85.28 100.64 87.62 C 98.85 92.05 101.53 97.83 98.03 101.52 C 96.89 96.36 96.96 91.02 95.76 85.89 C 93.40 89.58 91.23 93.37 89.31 97.30 C 88.26 97.72 87.20 98.07 86.11 98.34 C 87.60 92.63 89.25 86.85 88.88 80.87 C 84.34 79.47 79.68 78.52 75.01 77.72 C 73.03 81.08 72.19 85.01 70.65 88.59 C 68.89 92.68 68.21 97.70 64.36 100.48 C 65.70 95.99 65.55 91.27 66.25 86.67 C 64.37 88.31 61.75 90.10 62.14 92.97 C 62.38 96.07 62.58 99.33 61.06 102.18 C 60.40 98.26 57.52 95.21 57.23 91.23 L 58.02 90.86 C 58.40 90.92 59.16 91.02 59.53 91.08 C 59.54 90.12 59.55 89.17 59.57 88.22 C 58.98 88.77 58.38 89.31 57.77 89.85 C 57.41 89.79 56.67 89.68 56.30 89.62 C 57.54 85.99 60.19 83.05 62.15 79.79 C 58.88 77.18 56.47 73.84 54.61 70.11 C 55.23 69.47 55.86 68.84 56.49 68.22 C 55.40 67.80 54.32 67.33 53.19 67.01 C 47.54 71.23 42.60 76.47 36.34 79.84 C 36.72 78.38 37.16 76.94 37.64 75.51 C 34.14 78.55 30.21 81.03 26.01 82.99 C 22.13 81.23 17.91 83.42 13.84 82.71 C 14.34 82.11 15.34 80.92 15.84 80.33 C 12.30 79.94 8.23 80.09 5.37 77.67 C 4.50 75.15 2.05 70.99 5.42 69.42 C 10.08 69.12 14.22 72.96 18.98 72.39 C 21.64 72.05 24.25 71.42 26.88 70.89 C 26.26 70.36 25.65 69.83 25.04 69.30 C 28.49 67.47 31.60 65.09 34.51 62.52 C 39.97 59.77 46.04 58.72 51.97 57.49 C 53.10 58.95 54.41 60.26 55.82 61.46 C 54.78 62.31 53.72 63.13 52.77 64.08 C 55.12 62.67 57.49 61.22 59.46 59.31 C 58.31 59.86 57.20 60.49 56.12 61.16 C 55.14 60.28 54.16 59.41 53.17 58.54 C 57.85 57.39 62.08 54.67 67.00 54.49 C 70.79 54.80 74.62 56.57 78.42 55.38 C 80.30 54.72 82.25 55.37 84.14 55.59 C 88.64 56.43 93.22 56.53 97.72 57.37 C 100.16 57.20 102.68 57.52 105.08 56.91 C 107.50 54.72 108.77 51.28 108.24 48.02 M 115.27 52.44 C 115.26 53.49 115.25 54.55 115.24 55.60 C 115.83 55.58 116.99 55.54 117.57 55.52 C 117.61 54.47 117.65 53.41 117.69 52.36 C 117.09 52.38 115.88 52.42 115.27 52.44 M 80.32 76.18 C 80.50 79.60 83.19 74.60 80.32 76.18 Z" />
</g>
</svg>
