<?xml version="1.0" encoding="UTF-8" ?>
<!DOCTYPE svg PUBLIC "-//W3C//DTD SVG 1.1//EN" "http://www.w3.org/Graphics/SVG/1.1/DTD/svg11.dtd">
<svg width="128pt" height="128pt" viewBox="0 0 128 128" version="1.1" xmlns="http://www.w3.org/2000/svg">
<g id="#ffffffff">
<path fill="#ffffff" opacity="1.00" d=" M 19.44 16.35 C 21.36 14.12 24.16 13.14 26.99 12.68 C 30.35 11.55 33.06 14.59 34.95 16.94 C 34.39 17.49 33.83 18.03 33.26 18.57 C 34.00 19.58 35.11 20.55 34.85 21.95 C 34.17 27.99 32.30 33.81 30.58 39.61 C 38.16 37.17 46.12 35.79 54.07 35.29 C 55.16 35.08 55.87 36.15 56.70 36.65 C 56.92 36.07 57.36 34.92 57.59 34.34 C 66.91 35.24 76.33 35.20 85.59 36.71 C 89.81 37.30 93.92 38.89 97.31 41.50 C 97.78 40.17 98.29 38.85 98.83 37.55 C 105.63 42.17 111.30 48.14 117.08 53.92 C 119.44 56.49 122.70 58.19 124.51 61.26 C 122.76 61.14 121.00 60.71 119.28 61.25 C 120.24 62.52 121.02 63.89 121.62 65.37 C 119.84 64.81 118.09 64.15 116.30 63.65 C 118.71 67.29 122.68 70.37 122.39 75.22 C 121.22 74.54 120.03 73.89 119.04 72.96 C 113.24 67.44 107.67 61.68 101.85 56.19 C 107.25 62.43 113.19 68.22 118.58 74.49 C 118.81 74.97 119.27 75.95 119.50 76.43 C 115.34 75.50 113.62 70.85 110.14 68.68 C 111.90 71.83 115.14 74.33 115.54 78.09 C 114.24 77.61 112.96 77.11 111.68 76.59 C 112.54 78.05 113.41 79.52 114.03 81.11 C 113.32 81.06 111.91 80.96 111.20 80.92 C 104.00 74.82 98.05 67.39 90.88 61.24 C 88.22 61.67 85.53 61.82 82.85 62.03 C 82.39 61.28 81.91 60.54 81.43 59.80 C 83.49 65.74 88.51 69.88 92.52 74.49 C 94.70 76.72 96.61 79.64 99.90 80.26 C 99.77 81.57 99.64 82.88 99.50 84.19 C 97.89 83.19 96.36 82.06 94.75 81.06 C 96.05 82.70 97.47 84.24 98.69 85.95 C 97.86 86.06 96.20 86.27 95.38 86.38 C 90.51 89.91 85.43 93.13 80.51 96.59 C 79.56 101.96 81.08 107.58 80.05 112.99 C 79.40 116.61 79.59 120.31 79.42 123.97 C 77.97 122.87 75.38 122.36 75.73 120.05 C 75.68 113.62 75.03 107.24 74.04 100.90 C 69.50 103.42 64.71 105.54 60.63 108.82 C 60.19 107.66 58.89 106.54 59.29 105.20 C 62.53 100.91 67.56 98.68 71.84 95.64 C 71.39 85.25 67.85 75.27 66.99 64.93 C 57.38 60.65 47.92 56.02 38.37 51.60 C 36.81 50.83 35.01 50.99 33.34 50.67 C 32.27 49.26 32.01 47.55 32.76 45.93 C 28.88 42.56 22.90 43.02 19.61 38.99 C 20.77 38.28 21.95 37.60 23.12 36.90 C 22.40 36.29 21.68 35.67 20.96 35.06 C 23.81 30.55 27.31 25.43 26.32 19.85 C 20.06 22.55 13.31 24.60 8.03 29.09 C 6.94 30.00 5.61 30.49 4.29 30.96 C 8.80 25.60 13.42 20.04 19.44 16.35 M 25.24 15.49 C 23.65 16.45 25.32 19.04 26.81 17.77 C 28.34 16.81 26.71 14.26 25.24 15.49 M 18.60 18.94 C 17.39 19.66 15.91 20.23 15.18 21.51 C 15.86 23.52 22.03 18.85 18.60 18.94 M 22.97 38.18 C 20.91 38.79 23.55 41.42 24.81 40.53 C 25.48 39.40 24.13 38.03 22.97 38.18 M 60.33 57.11 C 60.64 60.50 63.11 55.42 60.33 57.11 M 93.57 60.74 C 96.91 64.64 100.44 68.54 104.60 71.58 C 102.31 67.54 99.15 64.01 95.96 60.66 C 95.36 60.68 94.17 60.72 93.57 60.74 M 74.88 63.98 C 75.90 73.06 78.05 81.96 78.91 91.05 C 83.64 88.19 88.57 85.72 93.55 83.33 C 87.31 76.87 81.94 69.61 74.88 63.98 M 105.00 72.42 C 104.00 73.38 105.69 75.13 106.78 74.55 C 107.68 73.56 106.14 71.81 105.00 72.42 Z" />
</g>
</svg>
