<?xml version="1.0" encoding="UTF-8" ?>
<!DOCTYPE svg PUBLIC "-//W3C//DTD SVG 1.1//EN" "http://www.w3.org/Graphics/SVG/1.1/DTD/svg11.dtd">
<svg width="128pt" height="128pt" viewBox="0 0 128 128" version="1.1" xmlns="http://www.w3.org/2000/svg">
<g id="#ffffffff">
<path fill="#ffffff" opacity="1.00" d=" M 26.42 28.65 C 32.20 27.87 38.68 27.83 43.55 31.50 C 48.87 37.13 48.57 45.45 48.84 52.68 C 49.10 57.40 47.18 61.80 46.28 66.35 C 43.50 68.32 41.32 70.94 41.43 74.57 C 51.21 75.57 61.04 73.49 70.81 74.58 C 75.25 75.91 79.67 77.96 84.42 77.68 C 86.00 77.39 87.00 78.88 88.23 79.57 C 89.70 79.61 91.23 78.90 92.65 79.40 C 94.20 80.57 95.58 81.94 97.12 83.11 C 101.99 83.32 106.89 82.13 111.75 82.99 C 112.98 83.93 114.04 85.08 115.27 86.02 C 118.72 86.67 122.29 86.16 125.78 86.54 C 126.41 88.65 126.93 90.80 128.00 92.74 L 128.00 93.27 C 121.88 94.65 115.15 94.26 109.64 97.59 C 103.83 98.67 97.89 98.89 92.00 98.87 C 69.77 99.53 46.95 101.18 25.36 94.65 C 23.50 93.92 21.50 94.19 19.55 94.06 C 16.68 90.86 15.63 86.52 14.15 82.59 C 13.08 80.49 14.70 78.44 15.57 76.59 C 17.69 72.48 22.30 70.63 24.96 67.02 C 26.16 61.85 26.85 56.47 26.81 51.16 C 25.22 45.76 20.28 42.35 16.35 38.70 C 10.82 38.14 5.22 37.55 0.00 35.43 L 0.00 33.69 C 6.08 33.81 12.38 35.38 18.30 33.32 C 21.02 31.79 23.16 29.07 26.42 28.65 M 27.45 34.49 C 25.12 35.61 26.49 40.02 29.15 39.60 C 31.20 39.84 33.50 37.09 32.11 35.27 C 30.98 33.58 29.06 33.42 27.45 34.49 M 23.63 77.08 C 24.73 74.86 24.54 72.31 24.68 69.91 C 23.09 72.05 22.86 74.55 23.63 77.08 M 41.04 76.65 C 40.88 78.92 45.70 78.72 46.54 77.46 C 44.72 77.33 42.81 75.92 41.04 76.65 Z" />
</g>
</svg>
