<?xml version="1.0" encoding="UTF-8" ?>
<!DOCTYPE svg PUBLIC "-//W3C//DTD SVG 1.1//EN" "http://www.w3.org/Graphics/SVG/1.1/DTD/svg11.dtd">
<svg width="180pt" height="180pt" viewBox="0 0 180 180" version="1.1" xmlns="http://www.w3.org/2000/svg">
<g id="#ffffffff">
<path fill="#ffffff" opacity="1.00" d=" M 64.88 17.12 C 64.05 15.53 64.46 13.72 64.55 12.02 C 67.74 13.21 68.46 16.62 69.55 19.44 C 71.57 26.26 74.77 32.82 75.48 39.97 C 74.62 42.89 72.48 45.33 71.60 48.31 C 66.53 49.73 64.14 54.87 60.47 58.19 C 65.14 57.52 66.88 62.65 66.78 66.45 C 70.36 67.51 71.71 71.33 74.59 73.33 C 78.38 73.37 82.19 73.27 85.98 73.48 C 93.54 71.84 101.33 72.95 108.98 71.93 C 114.88 71.09 120.76 72.47 126.65 72.44 C 132.65 71.93 138.56 73.27 144.53 73.54 C 145.99 75.03 146.78 77.26 148.86 78.05 C 153.47 80.34 158.99 84.22 158.60 90.00 C 158.00 91.45 156.45 91.53 155.13 91.77 C 155.22 92.86 155.30 93.95 155.38 95.05 C 156.81 94.34 158.22 93.61 159.68 92.99 C 158.74 99.24 153.85 103.50 149.98 108.07 C 149.41 107.61 148.27 106.70 147.70 106.24 C 148.36 107.05 149.04 107.85 149.73 108.64 C 144.27 113.05 145.13 120.48 145.96 126.64 C 145.20 126.58 143.67 126.47 142.91 126.41 C 142.63 132.65 140.53 138.78 141.42 145.07 C 141.95 148.30 140.73 151.44 139.29 154.27 C 136.66 152.67 137.06 149.45 136.47 146.84 C 136.26 140.62 137.69 134.45 137.75 128.23 C 136.60 124.25 133.66 121.03 131.36 117.65 C 130.93 117.63 130.51 117.60 130.09 117.58 C 130.90 119.42 131.65 121.29 132.48 123.13 C 131.99 123.70 131.02 124.85 130.53 125.43 C 131.62 125.70 132.71 125.99 133.80 126.29 C 133.61 127.49 133.42 128.69 133.22 129.89 C 130.88 130.17 129.35 128.66 128.19 126.83 C 126.84 133.81 125.73 140.85 124.30 147.81 C 123.81 147.75 122.83 147.62 122.34 147.56 C 121.46 141.62 123.75 135.85 123.83 129.93 C 123.88 124.32 123.71 118.45 121.15 113.33 C 117.62 116.22 113.11 115.30 109.12 114.08 C 105.62 117.20 101.55 119.82 98.74 123.63 C 97.43 126.84 95.29 129.91 95.31 133.49 C 95.30 139.65 95.07 145.81 95.30 151.97 C 95.25 155.91 96.65 159.70 96.66 163.64 C 96.02 163.59 94.75 163.48 94.11 163.42 C 90.97 157.62 91.09 150.84 90.47 144.45 C 89.79 143.39 88.90 142.49 88.09 141.54 C 88.46 137.24 90.02 133.16 90.54 128.89 C 90.71 125.45 90.63 121.99 90.47 118.54 C 88.67 118.51 86.86 118.45 85.06 118.37 C 83.42 124.47 77.69 128.06 75.40 133.82 C 74.66 137.77 70.90 139.92 68.73 143.04 C 69.20 149.03 69.35 155.04 69.47 161.05 C 69.60 163.54 68.94 166.32 66.85 167.89 C 64.81 165.49 65.20 162.22 64.86 159.31 C 64.65 154.41 63.92 149.49 64.54 144.59 C 64.85 142.72 64.37 140.87 64.22 139.02 C 66.67 132.82 70.72 127.45 73.59 121.47 C 74.85 118.45 69.83 115.46 72.69 112.74 C 74.93 114.22 77.02 115.92 79.23 117.44 C 76.53 114.71 73.25 112.66 70.00 110.65 C 65.63 107.36 62.18 102.91 60.04 97.87 C 56.95 92.52 54.75 86.70 53.32 80.69 C 52.50 78.68 55.20 78.34 56.31 77.31 C 54.33 77.42 52.36 77.53 50.38 77.51 C 47.45 78.64 44.57 79.89 41.62 80.97 C 40.80 79.10 38.71 77.43 39.32 75.20 C 39.39 73.08 41.92 72.52 42.65 70.77 C 43.51 68.80 44.36 66.83 45.64 65.09 C 44.23 62.58 44.96 59.75 46.28 57.38 C 47.72 55.47 50.08 54.69 52.12 53.63 C 51.66 50.27 49.32 47.23 46.04 46.22 C 43.00 45.27 40.36 43.15 37.06 43.10 C 31.07 42.59 24.97 42.12 19.32 39.88 C 19.58 37.33 18.39 33.81 20.90 32.13 C 23.40 32.84 22.82 35.73 23.36 37.72 C 24.00 37.89 25.29 38.23 25.94 38.39 C 25.14 34.66 21.91 31.13 22.93 27.25 C 23.39 27.25 24.30 27.23 24.75 27.23 C 26.98 30.51 28.61 34.41 28.72 38.41 C 32.15 37.53 34.89 39.78 38.21 39.99 C 37.37 31.76 37.74 23.36 39.83 15.33 C 40.76 15.35 41.70 15.38 42.63 15.42 C 42.85 23.56 40.60 31.70 41.95 39.83 C 42.39 41.27 44.11 41.58 45.24 42.31 C 46.03 37.11 45.78 31.65 47.59 26.66 C 48.62 26.43 49.65 26.25 50.69 26.10 C 50.21 31.77 49.84 37.47 48.67 43.03 C 49.12 43.87 49.77 44.57 50.35 45.31 C 51.10 41.57 52.91 38.02 52.52 34.12 C 53.23 31.10 54.06 28.10 55.14 25.19 C 55.78 25.24 57.06 25.35 57.70 25.40 C 57.03 29.19 55.72 32.81 54.70 36.51 C 54.21 37.64 55.16 38.70 55.30 39.80 C 54.88 42.22 54.25 44.61 53.46 46.94 C 55.34 49.27 56.17 52.15 56.92 54.99 C 61.18 53.94 62.97 49.62 66.23 47.16 C 68.01 45.75 69.06 43.69 70.39 41.90 C 66.11 40.29 61.63 39.31 57.26 37.96 C 57.68 37.47 58.54 36.49 58.96 36.00 C 57.91 38.54 55.25 37.69 55.92 35.18 C 59.38 33.91 63.05 36.09 66.27 37.35 C 63.59 34.69 61.11 31.81 59.21 28.54 C 59.66 28.23 60.57 27.62 61.02 27.31 C 64.63 30.85 69.19 33.64 71.64 38.19 C 69.27 31.20 67.84 23.91 64.88 17.12 M 51.38 57.25 C 52.43 61.84 48.58 65.02 47.04 68.94 C 46.34 70.90 44.87 72.35 43.26 73.60 C 44.15 74.26 45.04 74.94 45.91 75.64 C 49.38 73.47 53.69 74.76 57.49 73.50 C 57.42 74.45 57.28 76.33 57.22 77.27 C 58.29 76.32 59.36 75.35 60.44 74.39 C 61.25 75.39 62.03 76.39 62.77 77.44 C 65.35 77.92 67.71 76.89 70.09 76.05 C 69.52 81.83 64.98 85.96 63.63 91.49 C 64.93 90.01 65.92 88.29 67.10 86.72 C 67.14 86.33 67.22 85.54 67.26 85.15 C 67.65 84.97 68.43 84.60 68.82 84.41 C 70.46 87.95 66.47 91.62 67.55 95.35 C 69.67 97.51 71.87 99.60 74.01 101.74 C 74.39 98.57 73.17 95.91 70.23 94.60 C 70.36 91.07 70.91 87.55 72.33 84.30 C 72.93 84.28 74.13 84.25 74.73 84.23 C 74.80 87.02 74.14 89.74 73.44 92.42 C 74.96 90.03 76.45 87.59 78.37 85.48 C 78.76 85.64 79.53 85.94 79.92 86.09 C 81.98 89.29 75.21 90.99 76.50 94.44 C 76.60 96.59 77.60 98.43 79.64 99.28 C 79.22 96.58 78.53 93.93 78.10 91.23 C 78.85 91.37 80.36 91.65 81.11 91.78 C 81.54 93.22 81.91 94.66 82.22 96.13 C 82.65 93.20 81.76 90.45 80.69 87.76 C 81.13 87.53 81.58 87.30 82.03 87.08 C 81.74 86.79 81.15 86.20 80.86 85.91 C 80.60 82.80 80.88 79.67 80.63 76.56 C 78.17 76.45 75.73 76.78 73.27 76.79 C 69.80 74.28 67.71 70.42 65.38 66.93 C 64.28 69.56 62.54 71.82 59.86 72.96 C 60.75 70.12 62.04 67.43 63.63 64.92 C 63.22 64.65 62.41 64.11 62.00 63.84 C 61.30 65.63 60.25 67.23 59.21 68.84 C 58.25 68.67 57.28 68.51 56.32 68.36 C 54.86 70.85 52.03 71.55 49.35 71.89 C 49.36 70.83 49.37 69.77 49.37 68.71 C 51.35 68.19 55.38 68.06 54.97 65.18 C 54.23 64.97 52.75 64.55 52.01 64.34 C 52.78 62.15 54.40 60.93 56.77 61.10 C 56.54 62.37 56.20 63.64 56.12 64.94 L 56.54 65.45 C 59.60 64.01 60.23 60.43 59.72 57.41 C 56.94 57.35 54.16 57.17 51.38 57.25 M 122.32 80.24 C 121.58 79.51 120.82 78.78 120.07 78.06 C 118.56 78.54 117.07 79.08 115.59 79.62 C 114.50 78.48 113.38 77.38 112.21 76.34 C 111.46 77.55 110.72 78.77 109.97 79.98 C 109.04 79.58 108.13 79.15 107.22 78.69 C 107.31 77.58 108.21 76.86 108.85 76.05 C 104.76 76.80 100.56 76.29 96.44 76.91 C 98.61 79.06 102.71 77.25 103.72 80.72 C 100.56 80.11 97.09 78.11 94.29 80.68 C 92.54 81.20 90.82 82.13 90.63 84.17 C 90.88 87.60 91.31 91.02 91.70 94.44 C 92.59 99.83 87.41 103.72 87.41 109.02 C 87.80 111.00 86.04 111.84 84.69 112.81 C 83.12 110.01 83.01 106.68 81.69 103.76 C 82.53 107.50 83.60 111.46 82.09 115.20 C 80.98 113.45 80.25 111.52 79.56 109.58 C 78.10 109.56 76.64 109.49 75.19 109.35 C 77.66 111.46 79.57 114.09 81.45 116.71 C 82.01 115.70 82.55 114.67 83.05 113.63 C 84.94 113.64 86.73 113.09 88.44 112.32 C 88.94 113.38 89.44 114.44 89.94 115.50 C 91.39 114.03 94.07 113.28 94.20 110.90 C 94.73 105.99 95.98 101.14 98.36 96.78 C 97.92 92.23 96.89 87.73 95.53 83.36 C 99.89 83.39 102.10 87.99 105.12 90.55 C 106.02 90.14 106.93 89.74 107.84 89.36 C 112.26 94.12 118.95 93.74 124.82 94.83 C 127.07 92.11 129.19 88.91 132.91 88.13 C 132.24 92.32 128.26 96.05 130.18 100.49 C 129.90 96.65 131.32 93.25 133.79 90.38 C 135.23 92.58 136.36 94.97 136.82 97.58 C 138.43 97.46 140.20 97.65 141.63 96.75 C 143.01 95.32 143.74 93.41 144.56 91.64 C 143.64 87.57 142.02 83.68 140.41 79.84 C 140.86 79.00 141.78 77.33 142.23 76.49 C 138.65 74.92 134.74 75.96 130.98 75.59 C 130.10 76.62 129.22 77.65 128.37 78.71 C 127.87 78.00 127.36 77.29 126.85 76.58 C 125.92 77.33 125.01 78.10 124.09 78.88 C 123.73 77.10 123.34 75.34 122.93 73.58 C 122.59 75.78 122.26 78.00 122.32 80.24 M 84.26 77.18 C 84.90 77.83 84.90 77.83 84.26 77.18 M 91.10 78.11 C 89.45 80.37 95.22 79.94 94.42 77.95 C 93.29 77.27 92.18 77.32 91.10 78.11 M 83.83 79.22 C 82.34 82.27 87.21 79.24 83.83 79.22 M 59.15 90.19 C 61.84 87.95 63.44 84.77 65.01 81.71 C 62.61 84.18 60.15 86.82 59.15 90.19 M 146.35 103.32 C 145.44 103.87 144.50 104.35 143.52 104.77 C 143.51 105.23 143.48 106.17 143.47 106.63 C 144.48 106.63 145.49 106.63 146.50 106.63 C 148.00 101.48 149.89 96.44 151.50 91.32 C 148.93 94.90 148.22 99.39 146.35 103.32 M 64.19 97.05 C 65.04 101.49 68.42 104.44 72.44 106.09 C 70.07 102.74 67.81 99.20 64.19 97.05 M 153.20 97.29 C 151.53 97.80 150.92 100.13 151.33 101.64 C 152.65 101.50 154.90 98.13 153.20 97.29 M 127.23 102.27 C 127.84 102.87 127.84 102.87 127.23 102.27 M 98.98 102.51 C 98.74 104.26 98.55 106.01 98.33 107.76 C 99.25 108.16 100.18 108.56 101.11 108.96 C 100.69 106.73 100.18 104.48 98.98 102.51 M 127.19 103.07 C 126.12 105.59 125.59 108.39 123.81 110.55 C 125.29 110.62 126.76 110.71 128.23 110.83 C 128.80 108.16 128.57 105.48 127.19 103.07 M 101.85 112.26 C 100.35 115.24 105.24 112.38 101.85 112.26 Z" />
<path fill="#ffffff" opacity="1.00" d=" M 28.86 18.02 C 29.48 18.47 30.72 19.38 31.34 19.84 C 31.23 25.80 32.47 31.67 33.23 37.55 C 32.38 37.46 30.69 37.29 29.84 37.20 C 29.92 36.64 30.07 35.51 30.15 34.95 C 29.82 35.25 29.16 35.83 28.83 36.13 C 29.17 30.04 26.42 23.92 28.86 18.02 Z" />
<path fill="#ffffff" opacity="1.00" d=" M 86.62 24.87 C 86.78 23.68 87.46 23.14 88.64 23.25 C 92.49 26.44 95.60 30.41 98.05 34.75 C 99.53 30.83 100.67 26.14 104.50 23.83 C 107.02 27.16 108.32 31.15 109.83 34.99 C 112.02 31.06 114.26 27.14 115.95 22.96 C 116.53 23.37 117.70 24.20 118.29 24.62 C 119.46 30.02 119.26 35.62 120.20 41.06 C 120.47 43.17 120.87 45.33 120.47 47.46 C 115.10 48.87 109.57 49.63 104.00 49.59 C 98.52 49.46 93.02 50.22 87.55 49.61 C 87.45 41.36 85.14 33.11 86.62 24.87 M 90.18 30.43 C 90.49 35.81 90.81 41.20 90.48 46.60 C 98.70 43.73 107.50 45.32 115.92 43.87 C 115.16 40.20 115.21 36.48 115.84 32.79 C 113.74 35.30 111.25 39.35 107.50 38.50 C 105.43 36.37 105.08 33.23 104.04 30.56 C 102.26 33.78 100.36 36.95 97.86 39.69 C 93.82 38.19 92.84 33.43 90.18 30.43 Z" />
<path fill="#ffffff" opacity="1.00" d=" M 104.19 78.13 C 104.87 78.81 104.87 78.81 104.19 78.13 Z" />
<path fill="#ffffff" opacity="1.00" d=" M 122.20 148.37 C 125.18 146.74 122.45 151.76 122.20 148.37 Z" />
</g>
</svg>
