<?xml version="1.0" encoding="UTF-8" ?>
<!DOCTYPE svg PUBLIC "-//W3C//DTD SVG 1.1//EN" "http://www.w3.org/Graphics/SVG/1.1/DTD/svg11.dtd">
<svg width="128pt" height="128pt" viewBox="0 0 128 128" version="1.1" xmlns="http://www.w3.org/2000/svg">
<g id="#ffffffff">
<path fill="#ffffff" opacity="1.00" d=" M 64.12 1.23 C 64.75 1.24 66.00 1.27 66.62 1.28 C 67.74 3.63 67.85 6.16 67.18 8.65 C 68.81 9.75 70.94 10.42 71.91 12.26 C 72.11 14.73 69.62 15.65 67.99 16.91 C 71.71 20.37 73.31 25.37 74.57 30.14 C 73.36 31.29 72.90 32.92 72.60 34.51 C 73.00 33.90 73.80 32.69 74.20 32.08 C 76.30 34.72 78.43 37.59 80.94 40.01 C 84.23 44.71 89.18 47.79 92.67 52.32 C 95.29 54.32 96.59 57.33 97.61 60.38 C 97.05 60.60 95.94 61.06 95.38 61.29 C 96.31 61.19 97.24 61.08 98.17 60.98 C 99.69 64.55 99.38 68.47 99.66 72.25 C 99.97 74.45 98.31 76.16 97.45 78.02 C 97.98 77.90 99.05 77.66 99.58 77.54 C 100.38 81.82 101.15 86.11 101.54 90.45 C 102.13 97.52 104.56 104.33 104.67 111.44 C 106.34 115.21 107.18 119.28 108.90 123.04 C 107.73 124.24 106.60 125.49 105.61 126.85 C 104.24 126.37 102.88 125.88 101.51 125.42 C 99.75 121.38 97.12 117.81 95.04 113.96 C 91.21 111.79 88.94 107.99 86.30 104.63 C 87.19 106.19 88.20 107.68 89.12 109.23 C 82.73 109.43 79.58 103.01 76.30 98.58 C 72.97 96.16 68.35 98.09 66.19 101.21 C 63.91 103.82 65.00 108.74 61.35 110.12 C 60.77 106.52 61.67 103.01 63.67 100.00 C 61.79 100.35 59.91 100.68 58.01 100.89 C 56.81 103.51 56.66 106.39 56.46 109.22 C 55.73 108.62 54.26 107.43 53.52 106.84 C 53.90 105.86 54.29 104.88 54.66 103.90 C 52.94 104.22 51.94 103.59 51.65 102.02 C 52.22 100.52 53.35 99.33 54.25 98.03 C 53.61 95.92 53.50 93.73 53.26 91.56 C 49.29 85.60 44.27 80.30 41.26 73.73 C 37.61 65.98 33.44 57.77 34.35 48.94 C 34.17 46.74 34.45 44.55 34.44 42.35 C 32.43 37.94 30.93 32.94 31.86 28.06 C 33.02 24.44 35.36 21.36 37.49 18.26 C 35.97 16.09 33.95 13.75 34.37 10.90 C 34.65 8.17 34.45 5.43 34.44 2.69 C 36.97 3.62 39.05 5.44 40.31 7.81 C 41.69 10.40 44.40 11.77 46.30 13.91 C 50.01 12.59 53.87 12.48 57.75 12.35 C 57.55 11.17 57.36 9.99 57.18 8.80 C 58.53 8.48 59.88 8.19 61.24 7.92 C 62.30 5.73 63.21 3.48 64.12 1.23 M 57.56 22.33 C 56.39 24.83 55.38 27.73 56.69 30.40 C 60.00 32.22 62.34 28.45 63.79 26.06 C 63.09 24.79 62.37 23.54 61.63 22.31 C 60.27 22.30 58.91 22.30 57.56 22.33 M 39.59 24.68 C 38.38 26.91 40.09 29.09 41.09 31.00 C 43.79 30.41 48.29 27.54 45.69 24.53 C 44.40 21.89 41.19 23.00 39.59 24.68 Z" />
<path fill="#ffffff" opacity="1.00" d=" M 45.86 106.52 C 47.10 104.51 48.81 102.86 50.29 101.04 C 52.27 103.61 51.14 106.87 51.28 109.82 C 50.91 110.07 50.17 110.56 49.80 110.81 C 49.70 108.92 49.63 107.03 49.57 105.14 C 45.84 105.77 47.83 109.94 48.53 112.18 C 47.89 112.39 47.24 112.60 46.59 112.81 C 46.57 110.69 46.32 108.59 45.86 106.52 Z" />
</g>
</svg>
