<?xml version="1.0" encoding="UTF-8" ?>
<!DOCTYPE svg PUBLIC "-//W3C//DTD SVG 1.1//EN" "http://www.w3.org/Graphics/SVG/1.1/DTD/svg11.dtd">
<svg width="128pt" height="128pt" viewBox="0 0 128 128" version="1.1" xmlns="http://www.w3.org/2000/svg">
<g id="#ffffffff">
<path fill="#ffffff" opacity="1.00" d=" M 77.73 5.73 C 78.93 6.75 80.22 7.69 81.25 8.89 C 83.91 13.54 88.56 16.68 90.60 21.78 C 96.21 21.71 102.25 19.29 107.26 23.04 C 107.29 26.25 103.65 25.24 101.58 25.69 C 99.80 26.84 98.15 28.20 96.64 29.67 C 95.56 33.70 97.28 37.77 97.62 41.79 C 97.57 43.30 98.94 44.21 99.78 45.27 C 99.55 50.19 98.09 54.96 98.15 59.90 C 92.74 64.11 90.35 70.89 86.35 76.30 C 84.79 80.16 82.36 83.46 79.58 86.51 C 78.64 92.56 73.11 95.73 69.46 99.97 C 69.52 103.33 69.96 106.70 69.56 110.06 C 67.67 109.37 66.96 107.49 66.14 105.83 C 63.80 108.87 63.84 112.76 63.49 116.39 C 63.60 117.97 62.11 118.80 61.18 119.82 C 60.71 118.29 60.03 116.74 60.25 115.11 C 60.69 110.13 60.56 105.13 60.74 100.14 C 58.92 101.35 55.31 104.66 54.30 100.99 C 56.51 97.54 60.82 96.38 63.92 93.88 C 67.28 91.19 71.36 89.31 74.09 85.89 C 65.97 89.69 59.40 96.22 51.45 100.40 C 49.97 101.40 48.60 99.77 47.29 99.23 C 45.97 100.61 44.85 102.31 42.99 102.99 C 39.30 104.33 37.75 109.57 33.23 108.80 C 33.33 108.19 33.53 106.97 33.63 106.36 C 37.48 98.55 43.56 92.23 47.70 84.61 C 50.68 81.13 52.36 76.87 54.79 73.03 C 56.17 73.26 57.56 73.48 58.95 73.69 C 58.10 72.90 57.25 72.11 56.42 71.30 C 58.25 67.58 59.72 63.63 62.33 60.35 C 65.10 57.19 65.54 52.86 66.98 49.06 C 67.87 45.77 69.88 42.93 70.92 39.70 C 72.03 34.87 72.82 29.77 75.46 25.49 C 77.38 23.58 79.44 21.82 81.33 19.88 C 76.59 15.51 68.87 14.93 65.61 8.82 C 66.80 8.59 68.17 7.73 69.28 8.69 C 72.11 10.60 75.04 12.34 78.18 13.71 C 77.72 12.01 77.22 10.32 76.43 8.75 C 76.76 7.99 77.41 6.49 77.73 5.73 M 86.05 20.18 C 84.40 23.07 89.59 20.30 86.05 20.18 M 81.29 25.58 C 82.20 27.31 83.50 28.77 85.60 28.82 C 87.49 26.80 86.92 23.85 84.18 23.10 C 83.23 23.94 82.27 24.78 81.29 25.58 M 79.46 29.23 C 79.56 29.99 79.76 31.51 79.86 32.27 C 78.44 32.89 76.98 33.38 75.49 33.77 C 75.14 34.55 74.80 35.32 74.45 36.10 C 75.58 36.41 76.63 36.91 77.59 37.58 C 76.27 40.39 75.22 43.32 74.33 46.29 C 77.05 42.97 77.78 38.59 79.88 34.92 C 81.12 33.18 79.92 31.05 79.46 29.23 M 82.68 36.23 C 81.34 40.21 79.44 44.08 79.20 48.34 C 81.03 44.73 81.81 40.70 83.54 37.04 C 83.32 36.84 82.89 36.43 82.68 36.23 M 91.02 40.63 C 93.17 40.80 95.49 40.26 94.30 37.54 C 93.08 38.43 92.00 39.49 91.02 40.63 M 88.19 55.18 C 86.77 57.72 85.77 60.46 85.07 63.28 C 88.56 59.15 90.57 54.06 93.49 49.55 C 95.16 47.27 94.71 44.38 94.62 41.76 C 92.05 46.02 90.58 50.82 88.19 55.18 M 72.20 60.21 C 71.11 60.28 69.80 61.62 70.51 62.71 C 71.91 63.86 73.98 60.78 72.20 60.21 M 53.07 82.29 C 51.50 85.14 56.59 82.33 53.07 82.29 Z" />
</g>
</svg>
