<?xml version="1.0" encoding="UTF-8" ?>
<!DOCTYPE svg PUBLIC "-//W3C//DTD SVG 1.1//EN" "http://www.w3.org/Graphics/SVG/1.1/DTD/svg11.dtd">
<svg width="128pt" height="128pt" viewBox="0 0 128 128" version="1.1" xmlns="http://www.w3.org/2000/svg">
<g id="#ffffffff">
<path fill="#ffffff" opacity="1.00" d=" M 84.11 16.08 C 85.51 13.71 88.38 12.94 90.93 12.65 C 96.22 12.57 101.57 14.41 105.37 18.16 C 105.46 18.95 105.64 20.53 105.73 21.32 C 104.94 21.13 103.35 20.76 102.55 20.57 C 103.69 21.00 104.86 21.39 106.02 21.79 C 107.03 26.42 109.35 31.02 107.97 35.84 C 107.14 39.53 105.11 43.98 101.12 44.93 C 101.11 42.28 101.49 39.60 100.86 36.98 C 101.78 35.93 102.74 34.90 103.65 33.84 C 99.00 37.44 97.54 43.49 94.01 48.00 C 91.69 50.20 93.51 54.31 90.29 55.81 C 90.95 59.49 87.63 62.16 86.23 65.25 C 84.63 68.70 81.24 71.69 82.31 75.81 C 77.18 81.66 70.97 86.37 64.26 90.28 C 63.12 95.26 62.32 100.39 60.01 105.01 C 64.00 105.78 67.84 107.91 70.40 111.00 L 69.98 111.90 C 67.38 112.11 64.90 111.26 62.56 110.23 C 62.23 112.74 63.00 114.98 64.37 117.08 C 62.71 116.62 61.11 115.97 59.58 115.17 C 59.21 115.70 58.46 116.77 58.09 117.30 C 56.59 115.13 54.99 113.02 53.57 110.80 C 54.09 109.01 55.42 107.24 54.66 105.32 C 53.65 102.27 54.27 99.06 54.28 95.93 C 50.34 98.06 45.90 99.00 41.86 100.91 C 37.50 102.49 34.01 105.63 30.49 108.54 C 29.45 108.77 28.40 108.94 27.33 109.06 C 24.24 113.05 21.17 117.10 17.72 120.79 C 15.54 120.63 13.55 121.46 11.51 122.09 C 14.10 114.85 20.99 110.39 24.84 103.90 C 21.80 106.43 19.83 110.90 15.60 111.48 C 16.25 108.05 19.67 106.31 21.70 103.72 C 25.67 99.11 30.24 95.02 33.93 90.18 C 27.77 97.31 20.46 103.27 13.01 109.00 C 12.18 109.81 11.21 110.06 10.10 109.78 C 9.21 108.41 9.45 106.77 10.94 105.97 C 15.47 101.82 20.19 97.88 24.72 93.72 C 27.64 90.85 28.12 86.51 30.17 83.10 C 37.80 71.14 45.37 59.13 53.33 47.39 C 56.70 42.44 61.23 38.48 65.35 34.20 C 66.53 32.85 68.12 34.88 69.32 35.25 C 73.19 28.12 79.59 22.78 84.11 16.08 M 91.45 15.26 C 91.59 16.65 92.27 16.87 93.49 15.91 C 93.34 14.54 92.66 14.32 91.45 15.26 M 88.29 17.26 C 88.43 20.65 91.31 15.59 88.29 17.26 M 93.16 19.44 C 93.91 20.84 93.94 22.38 92.88 23.63 C 91.23 25.48 93.50 28.51 95.78 27.82 C 97.93 26.32 99.65 24.25 101.23 22.18 C 100.02 23.10 98.89 24.11 97.73 25.09 C 96.50 23.16 97.79 21.32 98.83 19.70 C 97.71 20.57 96.60 21.44 95.49 22.32 C 95.15 21.51 94.46 19.90 94.11 19.10 C 94.49 18.50 95.25 17.30 95.64 16.70 C 94.79 17.60 93.95 18.50 93.16 19.44 M 102.86 41.20 C 104.74 39.98 105.43 37.86 106.02 35.83 C 104.11 37.02 102.78 38.87 102.86 41.20 M 76.06 63.34 C 74.71 66.36 79.44 63.15 76.06 63.34 M 30.23 105.12 C 36.01 99.76 42.11 94.40 46.34 87.70 C 39.70 92.23 35.86 99.55 30.23 105.12 Z" />
</g>
</svg>
