<?xml version="1.0" encoding="UTF-8" ?>
<!DOCTYPE svg PUBLIC "-//W3C//DTD SVG 1.1//EN" "http://www.w3.org/Graphics/SVG/1.1/DTD/svg11.dtd">
<svg width="200pt" height="200pt" viewBox="0 0 200 200" version="1.1" xmlns="http://www.w3.org/2000/svg">
<g id="#ffffffff">
<path fill="#ffffff" opacity="1.00" d=" M 151.55 27.94 C 152.43 25.72 152.42 22.51 155.03 21.53 C 156.63 21.15 157.03 23.33 157.83 24.27 C 159.34 27.97 161.28 31.48 162.80 35.16 C 162.04 39.93 157.22 41.64 153.48 43.60 C 149.58 45.80 145.40 47.49 141.65 49.97 C 141.45 49.59 141.03 48.85 140.82 48.47 C 140.69 49.02 140.42 50.11 140.29 50.66 C 138.61 50.20 136.64 49.92 135.50 48.44 C 132.31 44.67 130.36 40.00 127.08 36.27 C 127.20 35.43 127.42 33.73 127.53 32.89 C 130.23 34.08 132.97 35.17 135.73 36.21 C 135.28 33.36 133.87 30.22 135.51 27.50 C 138.92 26.12 141.35 30.16 143.95 31.70 C 144.16 28.45 143.85 23.19 148.33 22.95 C 149.40 24.62 150.47 26.28 151.55 27.94 M 147.79 29.34 C 147.49 31.52 147.14 33.69 146.53 35.80 C 143.57 36.28 141.14 34.95 139.14 32.89 C 139.17 34.91 139.34 36.92 139.25 38.93 C 138.24 40.57 136.30 40.34 134.66 40.56 C 136.26 42.65 137.78 44.80 139.24 47.00 C 145.66 43.74 151.88 40.14 158.24 36.75 C 157.39 34.84 156.56 32.91 155.85 30.95 C 154.85 32.22 153.88 33.51 152.90 34.79 C 150.73 33.46 149.15 31.47 147.79 29.34 Z" />
<path fill="#ffffff" opacity="1.00" d=" M 179.86 47.57 C 181.75 47.64 183.28 46.43 184.92 45.68 C 185.53 47.10 186.56 48.42 186.69 50.01 C 183.01 58.85 176.59 66.21 170.89 73.80 C 168.11 76.12 165.48 78.61 162.84 81.09 C 164.09 80.34 165.33 79.57 166.57 78.80 C 166.88 83.41 165.51 87.89 165.60 92.49 C 165.61 96.19 164.38 99.77 162.89 103.12 C 161.70 102.69 160.54 102.18 159.33 101.80 C 157.15 102.05 155.27 103.25 153.29 104.08 C 152.02 102.09 150.55 100.21 148.68 98.73 C 149.13 96.83 149.54 94.91 149.86 92.97 C 143.64 95.69 139.07 100.86 133.35 104.38 C 129.50 107.68 124.74 109.38 120.10 111.20 C 121.53 117.53 122.17 124.73 118.45 130.44 C 115.80 134.46 109.93 136.39 106.08 132.86 C 106.63 131.01 105.47 128.11 106.99 126.94 C 109.49 126.46 108.65 129.96 109.36 131.45 C 109.94 131.47 111.10 131.50 111.68 131.51 C 115.36 125.88 114.64 118.78 117.37 112.72 C 116.08 113.34 114.79 113.95 113.50 114.55 C 113.38 116.00 113.25 117.45 113.04 118.90 C 111.33 118.76 109.84 118.10 109.01 116.55 C 108.84 116.69 108.50 116.97 108.33 117.11 C 109.85 118.43 111.35 119.77 112.85 121.12 C 112.57 122.61 112.29 124.10 111.99 125.58 C 110.43 124.44 110.49 122.58 110.50 120.86 C 109.75 121.82 109.01 122.78 108.24 123.73 C 109.30 124.95 110.38 126.16 111.39 127.43 C 109.88 127.09 108.32 126.78 106.99 125.96 C 105.42 123.71 105.48 121.02 106.57 118.60 C 102.20 120.74 98.28 123.69 94.06 126.09 C 90.40 128.00 86.31 128.80 82.38 129.92 C 82.68 129.10 83.28 127.45 83.58 126.63 C 79.40 130.92 78.58 136.89 76.20 142.15 C 74.62 146.21 73.82 150.71 70.83 154.06 C 70.07 152.28 68.61 150.18 69.98 148.30 C 73.01 143.24 74.12 137.39 76.37 132.00 C 73.60 133.49 70.00 133.85 67.74 136.01 C 66.61 139.89 64.47 144.13 65.92 148.18 C 67.39 143.85 67.86 138.85 71.97 136.05 C 71.28 140.40 69.81 144.56 68.75 148.81 C 67.87 151.49 71.54 153.97 69.58 156.35 C 68.93 157.94 67.20 158.25 65.70 158.54 C 66.08 157.42 66.49 156.31 66.92 155.21 C 66.00 155.76 65.12 156.37 64.13 156.78 C 61.84 155.80 59.43 154.93 57.52 153.29 C 56.89 147.82 58.78 142.50 60.11 137.28 C 57.06 137.52 53.96 138.84 50.97 137.54 C 49.42 139.52 47.83 141.47 46.02 143.21 C 44.89 145.32 43.19 147.01 40.93 147.87 C 40.70 148.86 40.45 149.85 40.17 150.84 C 36.51 154.99 33.06 160.54 26.95 161.02 C 25.11 161.76 23.47 160.59 21.84 159.89 C 22.16 159.22 22.81 157.87 23.13 157.20 C 25.25 157.18 27.74 158.26 29.51 156.56 C 33.66 153.00 37.05 148.66 41.06 144.94 C 40.53 144.65 39.47 144.08 38.93 143.79 C 36.36 149.77 30.07 153.12 24.66 156.33 C 24.24 156.30 23.38 156.25 22.96 156.23 L 22.19 155.72 C 23.51 151.38 24.84 147.05 25.70 142.59 C 18.95 144.00 12.34 140.09 8.18 135.06 C 8.08 133.69 8.13 132.32 8.10 130.96 C 9.07 130.78 10.99 130.43 11.95 130.25 C 11.42 131.43 10.86 132.60 10.28 133.75 C 13.72 135.25 16.85 138.25 20.84 137.77 C 25.97 137.33 30.18 133.89 35.21 133.02 C 35.26 131.36 35.34 129.71 35.48 128.06 C 32.69 133.51 26.08 133.75 21.14 136.19 C 19.31 137.37 17.29 136.40 15.45 135.79 C 17.99 134.19 21.06 134.08 23.77 132.92 C 26.56 131.93 29.15 130.37 32.14 130.05 C 25.30 128.61 18.39 130.37 12.07 133.01 C 12.11 132.20 12.18 130.58 12.21 129.78 C 16.25 127.55 20.97 127.41 25.38 126.46 C 29.29 126.28 33.23 126.64 37.15 126.42 C 37.82 127.65 37.85 129.78 39.67 129.80 C 43.92 124.33 50.66 121.80 56.52 118.47 C 57.68 116.62 58.75 114.73 59.94 112.90 C 59.32 112.70 58.08 112.31 57.46 112.11 C 55.05 119.51 47.41 123.54 40.15 124.62 C 37.34 124.24 34.54 123.45 32.08 122.01 C 29.88 120.45 28.87 117.85 27.85 115.47 C 28.86 115.67 29.87 115.87 30.88 116.07 C 31.14 117.17 31.41 118.27 31.70 119.36 C 32.28 118.52 32.85 117.68 33.42 116.83 C 34.44 121.38 40.24 121.47 43.72 119.82 C 46.60 119.70 47.73 116.50 50.45 116.15 C 50.57 116.86 50.79 118.26 50.90 118.96 C 51.26 116.98 51.57 114.97 52.43 113.14 C 51.14 113.95 49.81 114.70 48.46 115.42 C 48.39 114.00 48.29 112.57 48.18 111.15 C 51.38 111.12 55.03 110.67 56.86 107.65 C 49.73 106.50 42.71 108.34 35.76 109.66 C 34.74 110.21 33.81 110.90 32.86 111.54 C 37.76 111.99 42.76 111.07 47.58 111.72 L 48.17 113.38 C 41.70 114.71 35.08 114.86 28.53 114.11 C 30.02 109.53 34.39 106.14 39.12 105.52 C 44.34 104.42 49.72 104.56 55.02 104.11 C 56.05 105.00 57.06 105.93 58.06 106.86 C 57.67 105.85 57.29 104.83 56.90 103.82 C 58.22 104.01 59.53 104.19 60.85 104.35 C 64.22 100.67 68.88 98.65 73.05 96.08 C 80.35 91.36 87.70 86.73 95.08 82.16 C 104.46 77.76 112.52 71.01 122.10 67.01 C 125.40 65.37 128.80 63.97 132.28 62.74 C 132.60 63.19 133.26 64.09 133.58 64.55 C 137.77 59.32 144.04 56.59 150.16 54.32 C 153.42 53.25 156.68 51.87 160.18 52.18 C 160.36 53.54 160.50 54.91 160.77 56.27 C 163.50 55.97 164.34 52.13 163.13 49.87 C 168.80 49.85 174.23 47.98 179.86 47.57 M 169.15 52.57 C 168.51 52.72 167.88 52.87 167.24 53.02 C 167.44 54.84 168.44 57.18 166.55 58.47 C 165.44 58.68 164.31 58.44 163.19 58.37 C 162.78 59.24 162.36 60.11 161.93 60.97 C 163.79 60.26 165.85 59.87 166.68 62.21 C 164.73 62.44 162.77 62.62 160.81 62.70 C 159.31 64.54 157.59 66.19 155.84 67.78 C 155.14 66.38 154.50 64.97 153.84 63.57 C 153.64 65.25 152.92 66.95 153.24 68.65 C 154.46 70.58 156.12 72.23 156.96 74.40 C 158.76 74.25 160.51 74.32 161.25 76.28 C 158.91 76.39 156.56 77.75 154.24 76.99 C 152.08 75.57 149.79 73.67 149.43 70.94 C 149.31 68.13 149.69 65.32 149.92 62.52 C 147.95 63.41 145.93 64.19 143.90 64.92 C 144.66 65.94 145.44 66.96 146.21 67.98 C 143.86 72.08 141.52 76.22 140.38 80.84 C 140.38 82.34 137.57 81.29 138.36 80.14 C 139.39 77.10 140.40 74.04 141.79 71.14 C 140.73 71.37 139.67 71.60 138.61 71.83 C 138.47 73.65 138.47 75.48 138.52 77.31 C 136.60 77.90 134.67 78.49 132.74 79.05 C 133.15 75.91 135.35 73.62 137.16 71.20 C 132.30 74.24 128.53 78.76 126.03 83.90 C 125.64 82.82 125.26 81.73 124.89 80.64 C 123.40 80.18 121.95 79.62 120.53 78.97 C 123.34 78.24 125.73 76.76 127.40 74.37 C 125.58 74.42 123.77 74.47 121.95 74.48 C 122.61 74.62 123.93 74.88 124.59 75.01 C 124.19 75.63 123.39 76.89 122.99 77.51 C 122.38 77.54 121.15 77.60 120.54 77.63 C 120.25 78.21 119.68 79.37 119.40 79.94 C 120.53 80.66 121.66 81.39 122.78 82.15 C 118.95 83.90 112.69 84.68 113.15 90.25 C 112.03 89.52 110.91 88.78 109.80 88.04 C 113.51 83.81 116.77 79.19 120.03 74.61 C 116.67 76.55 114.25 79.71 111.54 82.43 C 109.19 85.93 109.67 90.47 108.14 94.32 C 107.19 93.34 106.28 92.33 105.40 91.29 C 104.63 93.43 102.97 95.37 103.65 97.77 C 102.94 98.66 102.25 99.57 101.57 100.48 C 100.37 99.88 99.16 99.32 97.92 98.83 C 97.67 98.16 97.16 96.83 96.91 96.16 C 95.66 98.16 95.05 100.66 93.00 102.03 C 91.15 102.89 91.74 104.99 91.56 106.62 C 93.09 106.81 94.53 106.57 95.87 105.91 C 95.55 104.69 94.65 103.71 94.11 102.58 C 95.86 103.16 96.77 104.47 96.98 106.30 C 97.79 105.01 98.35 103.62 98.67 102.13 C 99.56 103.42 100.48 104.67 101.46 105.88 C 100.93 106.09 99.87 106.51 99.33 106.72 C 99.43 107.41 99.63 108.79 99.73 109.48 C 98.83 109.78 97.94 110.10 97.06 110.42 C 94.90 108.83 92.46 107.71 90.21 106.29 C 92.05 101.94 92.54 97.12 94.84 92.96 C 96.00 91.02 95.02 88.43 96.59 86.66 C 98.27 84.85 100.75 84.13 102.46 82.36 C 99.79 83.58 97.33 85.21 94.61 86.36 C 95.32 91.18 92.08 95.13 90.77 99.54 C 90.08 101.52 89.64 103.68 88.05 105.18 C 84.36 101.04 88.33 96.19 89.61 91.90 C 87.00 96.40 85.95 101.55 84.50 106.49 C 84.07 108.00 82.99 108.76 81.26 108.76 C 80.72 105.12 82.36 101.85 83.84 98.67 C 83.30 98.57 82.22 98.37 81.68 98.27 C 81.85 101.96 80.89 105.74 78.75 108.78 C 75.46 109.52 77.91 105.38 77.64 103.62 C 75.28 106.47 74.84 110.16 73.99 113.63 C 73.00 113.40 72.02 113.17 71.03 112.93 C 70.31 113.73 69.69 115.07 68.40 114.42 C 65.82 110.38 67.71 105.58 70.46 102.19 C 67.72 102.22 67.18 105.03 66.21 107.01 C 64.58 110.09 64.33 113.62 64.19 117.04 C 63.44 116.88 61.93 116.56 61.18 116.40 C 61.27 117.04 61.45 118.33 61.54 118.97 C 60.87 119.23 60.20 119.49 59.53 119.76 C 59.29 119.28 58.82 118.32 58.59 117.83 C 58.23 119.00 57.82 120.14 57.34 121.26 C 52.78 124.08 48.32 127.06 43.70 129.78 C 41.81 133.21 40.83 137.82 42.34 141.60 C 42.68 141.31 43.36 140.73 43.70 140.44 C 43.28 139.33 42.81 138.23 42.35 137.14 C 43.27 137.20 45.09 137.31 46.01 137.37 C 44.90 136.26 43.60 135.39 42.49 134.29 C 46.29 135.30 50.22 134.70 53.07 131.87 C 53.60 132.74 54.12 133.60 54.65 134.47 C 59.26 132.25 64.53 132.85 69.22 130.88 C 74.00 130.06 77.87 126.91 82.49 125.65 C 90.50 124.87 96.78 119.35 103.62 115.68 C 109.43 112.92 114.40 108.66 120.43 106.33 C 122.91 105.48 125.73 105.58 127.90 103.94 C 134.29 99.72 140.10 94.69 146.28 90.18 C 147.39 90.39 148.49 90.61 149.60 90.81 C 152.73 87.37 155.91 83.95 159.22 80.68 C 159.67 81.52 160.58 83.21 161.03 84.06 C 160.45 85.15 159.89 86.25 159.36 87.35 C 160.26 86.52 161.14 85.66 161.99 84.76 C 161.33 83.53 160.68 82.29 160.11 81.03 C 159.93 79.30 161.92 78.52 162.82 77.34 C 162.63 76.29 162.41 75.26 162.21 74.22 C 165.11 73.41 167.81 71.98 170.20 70.16 C 171.52 68.16 172.27 65.75 174.15 64.15 C 176.68 61.87 177.78 58.54 179.49 55.69 C 175.60 58.31 173.15 62.73 168.92 64.84 C 167.02 62.64 169.24 60.58 170.73 59.01 C 170.29 58.26 169.85 57.50 169.41 56.75 C 170.79 56.50 172.31 56.76 173.59 56.11 C 175.15 54.78 176.31 52.79 178.42 52.28 C 179.89 51.73 181.59 51.63 182.73 50.42 C 178.11 50.56 173.81 52.81 169.15 52.57 M 153.59 57.01 C 152.42 58.26 153.82 61.00 155.28 59.12 C 156.99 57.82 155.07 54.93 153.59 57.01 M 153.20 61.31 C 153.53 64.66 156.09 59.69 153.20 61.31 M 154.02 72.23 C 152.53 75.26 157.46 72.38 154.02 72.23 M 163.26 91.89 C 161.96 91.62 160.65 91.36 159.35 91.11 C 159.34 89.84 159.29 88.57 159.23 87.30 C 156.32 89.77 160.48 94.18 163.26 91.89 M 83.16 97.24 C 84.30 95.59 85.30 93.83 86.07 91.97 C 83.39 92.27 83.45 95.22 83.16 97.24 M 161.37 95.33 C 160.16 95.92 158.47 97.51 159.37 98.97 C 161.15 100.32 162.62 96.16 161.37 95.33 M 152.22 99.85 C 153.50 98.91 153.44 97.20 153.82 95.82 C 152.22 96.08 150.35 98.85 152.22 99.85 M 100.40 97.02 C 100.63 100.53 103.32 95.46 100.40 97.02 M 96.27 107.05 L 96.11 107.76 L 96.92 108.21 L 97.75 107.70 L 97.68 106.81 C 97.33 106.87 96.62 106.99 96.27 107.05 M 33.17 136.93 C 34.55 138.31 35.93 139.69 37.21 141.17 C 36.29 141.26 34.43 141.44 33.50 141.54 C 34.69 143.23 36.90 144.13 38.77 142.90 C 38.19 139.91 36.37 137.21 35.61 134.21 C 34.81 135.13 33.99 136.03 33.17 136.93 M 60.81 136.40 C 61.48 137.08 62.16 137.75 62.86 138.41 C 62.32 140.82 61.89 143.41 59.31 144.41 C 60.31 145.48 61.24 146.61 62.20 147.72 C 62.46 145.70 62.82 143.56 64.85 142.59 C 64.54 142.36 63.94 141.89 63.63 141.65 C 64.21 140.18 64.67 138.66 65.02 137.11 C 63.62 136.83 62.22 136.60 60.81 136.40 M 30.42 138.22 C 29.08 138.93 29.05 139.61 30.32 140.26 C 31.67 139.48 31.71 138.80 30.42 138.22 M 31.12 141.28 C 29.66 144.29 34.58 141.14 31.12 141.28 M 27.00 151.21 C 30.28 149.33 33.49 146.96 35.68 143.86 C 32.53 145.95 29.24 148.10 27.00 151.21 M 65.23 149.14 C 63.57 152.08 68.64 149.25 65.23 149.14 Z" />
<path fill="#ffffff" opacity="1.00" d=" M 146.97 70.80 C 148.24 72.84 147.90 75.88 145.54 76.94 C 146.44 78.14 146.54 80.09 148.05 80.72 C 149.65 79.85 150.80 78.40 152.12 77.18 C 150.39 79.76 148.37 82.13 145.77 83.87 C 142.80 79.79 145.65 74.96 146.97 70.80 Z" />
<path fill="#ffffff" opacity="1.00" d=" M 134.23 80.11 C 137.17 78.52 134.40 83.53 134.23 80.11 Z" />
<path fill="#ffffff" opacity="1.00" d=" M 130.23 82.25 C 130.84 82.86 130.84 82.86 130.23 82.25 Z" />
<path fill="#ffffff" opacity="1.00" d=" M 131.91 83.57 C 133.14 82.98 134.96 84.68 134.40 85.94 C 133.23 86.64 131.15 84.79 131.91 83.57 Z" />
<path fill="#ffffff" opacity="1.00" d=" M 124.25 84.58 C 125.48 83.54 127.39 85.55 126.00 86.60 C 124.78 87.63 122.95 85.63 124.25 84.58 Z" />
<path fill="#ffffff" opacity="1.00" d=" M 128.00 86.70 C 129.13 87.07 130.25 89.41 129.64 90.63 C 127.76 91.02 127.01 87.94 128.00 86.70 Z" />
<path fill="#ffffff" opacity="1.00" d=" M 121.14 88.26 C 121.82 88.94 121.82 88.94 121.14 88.26 Z" />
<path fill="#ffffff" opacity="1.00" d=" M 133.10 93.84 C 130.01 92.21 131.40 87.94 134.61 87.67 C 133.97 89.69 133.47 91.75 133.10 93.84 Z" />
<path fill="#ffffff" opacity="1.00" d=" M 105.25 94.56 C 107.98 96.51 110.06 99.16 112.06 101.82 C 110.48 100.56 108.75 99.42 106.70 99.20 C 106.34 97.61 105.72 96.10 105.25 94.56 Z" />
<path fill="#ffffff" opacity="1.00" d=" M 37.28 115.99 C 40.77 115.60 44.16 114.65 47.63 114.19 C 47.68 114.88 47.78 116.28 47.83 116.98 C 46.65 116.78 45.46 116.58 44.28 116.38 C 42.48 118.44 39.82 118.35 37.34 118.57 C 37.32 117.92 37.29 116.64 37.28 115.99 Z" />
</g>
</svg>
