<?xml version="1.0" encoding="UTF-8" ?>
<!DOCTYPE svg PUBLIC "-//W3C//DTD SVG 1.1//EN" "http://www.w3.org/Graphics/SVG/1.1/DTD/svg11.dtd">
<svg width="128pt" height="64pt" viewBox="0 0 128 64" version="1.1" xmlns="http://www.w3.org/2000/svg">
<g id="#ffffffff">
<path fill="#ffffff" opacity="1.00" d=" M 88.31 4.97 C 93.85 3.65 100.17 5.23 104.29 9.18 C 105.59 9.64 106.98 9.57 108.33 9.73 C 109.06 11.46 110.10 13.11 110.46 14.98 C 109.70 17.98 109.44 21.15 108.22 24.02 C 106.44 25.75 104.50 27.59 102.00 28.14 C 99.19 27.69 96.44 26.93 93.67 26.30 C 91.55 30.26 92.71 35.03 91.00 39.13 C 89.96 41.72 89.42 44.49 88.23 47.02 C 86.74 49.49 84.51 51.39 82.39 53.29 C 80.67 53.62 78.91 53.63 77.19 53.92 C 75.63 54.86 74.36 56.24 72.73 57.06 C 68.73 57.52 65.05 59.61 60.97 59.54 C 58.10 59.94 55.40 58.82 52.70 58.06 C 52.47 55.76 51.14 53.84 50.43 51.70 C 50.08 48.49 52.16 44.36 48.71 42.27 C 47.18 42.42 45.66 42.62 44.14 42.80 C 43.53 40.98 42.83 39.20 42.25 37.38 C 38.26 39.66 35.31 43.91 30.66 44.81 C 30.02 43.60 29.48 42.35 28.98 41.07 C 31.92 38.12 35.88 36.24 38.09 32.58 C 34.14 31.07 31.34 34.92 28.17 36.54 C 26.50 36.06 24.81 35.69 23.15 35.19 C 21.88 33.80 21.95 31.71 21.37 29.99 C 23.82 26.27 26.10 22.39 29.10 19.09 C 31.78 16.96 35.28 15.78 37.03 12.63 C 37.77 12.62 39.26 12.62 40.01 12.61 C 41.95 16.72 43.16 21.34 46.43 24.65 C 53.46 26.10 58.45 32.07 65.46 33.63 C 68.45 35.52 71.01 38.11 74.11 39.90 C 77.16 36.81 76.47 32.00 76.72 28.02 C 77.22 22.61 77.89 17.20 78.93 11.86 C 82.52 10.22 85.30 7.43 88.31 4.97 M 33.20 21.01 C 32.55 22.03 31.90 23.04 31.24 24.04 C 32.24 25.22 33.85 27.12 35.26 25.27 C 36.37 23.33 34.69 21.95 33.20 21.01 Z" />
</g>
</svg>
