<?xml version="1.0" encoding="UTF-8" ?>
<!DOCTYPE svg PUBLIC "-//W3C//DTD SVG 1.1//EN" "http://www.w3.org/Graphics/SVG/1.1/DTD/svg11.dtd">
<svg width="180pt" height="180pt" viewBox="0 0 180 180" version="1.1" xmlns="http://www.w3.org/2000/svg">
<g id="#ffffffff">
<path fill="#ffffff" opacity="1.00" d=" M 97.28 32.24 C 97.01 28.23 97.87 22.43 103.06 22.58 C 104.17 25.18 105.07 27.84 106.11 30.46 C 107.32 27.97 107.81 25.21 108.98 22.71 C 110.08 22.84 111.16 23.01 112.25 23.23 C 112.44 29.20 113.72 35.05 114.35 40.97 C 114.89 43.15 112.57 43.57 111.08 44.23 C 105.65 45.69 100.03 46.18 94.54 47.33 C 89.20 48.23 83.68 49.63 78.31 48.25 C 78.30 42.03 78.37 35.78 77.62 29.60 C 77.38 28.18 78.42 27.03 79.05 25.86 C 82.42 27.46 84.87 30.36 87.46 32.95 C 88.56 30.43 88.92 27.64 90.22 25.22 C 91.09 23.66 92.91 24.45 94.27 24.67 C 96.04 26.81 96.48 29.66 97.28 32.24 M 92.23 30.65 C 91.46 33.42 90.61 36.17 89.50 38.82 C 86.54 38.05 84.59 35.64 82.37 33.73 C 82.75 37.70 84.71 42.16 82.05 45.74 C 91.14 43.32 100.47 42.17 109.67 40.29 C 109.53 38.15 109.40 36.01 109.31 33.86 C 107.84 34.50 106.40 35.22 104.87 35.70 C 103.23 34.46 102.57 32.46 101.46 30.82 C 100.50 32.93 99.55 35.04 98.37 37.04 C 94.81 36.76 93.29 33.61 92.23 30.65 Z" />
<path fill="#ffffff" opacity="1.00" d=" M 142.06 34.03 C 143.58 32.61 145.07 30.80 147.20 30.36 C 147.44 31.87 147.63 33.39 147.77 34.92 C 148.86 33.92 149.99 32.98 151.17 32.09 C 153.42 35.67 152.11 40.18 152.63 44.18 C 155.82 45.00 158.99 45.93 162.06 47.17 C 160.48 48.53 158.87 49.87 157.07 50.93 C 157.80 51.71 158.51 52.50 159.22 53.29 C 157.38 52.99 155.57 52.51 153.82 51.86 C 154.92 50.92 156.15 50.09 157.01 48.90 C 154.17 48.04 151.67 46.46 149.29 44.72 C 149.33 42.69 149.40 40.66 149.47 38.63 C 147.92 39.46 146.38 40.30 144.79 41.04 C 142.79 46.96 142.86 53.57 138.95 58.73 C 138.65 57.40 138.40 56.06 138.22 54.71 C 136.64 54.57 134.99 54.43 133.51 55.15 C 133.54 54.43 133.61 52.99 133.64 52.28 C 130.08 53.78 126.59 55.47 123.29 57.48 C 125.01 60.40 126.58 63.42 128.71 66.07 C 125.69 64.19 122.07 62.85 121.03 59.02 C 119.85 59.87 118.88 61.18 117.41 61.56 C 106.33 64.52 94.87 65.86 83.45 66.55 C 79.53 67.89 75.51 69.08 71.90 71.15 C 68.21 74.36 67.23 79.58 63.19 82.45 C 63.84 82.95 64.50 83.45 65.15 83.95 C 63.71 84.48 62.28 85.02 60.84 85.58 C 61.59 83.69 62.07 81.71 62.86 79.84 C 64.10 78.80 65.53 78.02 66.91 77.17 C 66.73 75.91 66.52 74.65 66.29 73.39 C 63.47 73.13 62.39 76.08 60.82 77.82 C 57.99 81.07 55.74 84.81 52.63 87.80 C 52.95 86.39 53.31 85.00 53.71 83.61 C 51.90 86.13 49.05 87.75 47.57 90.52 C 46.39 92.79 45.12 95.00 43.89 97.24 C 43.41 96.68 42.45 95.56 41.96 95.00 C 42.35 96.28 42.75 97.55 43.17 98.82 C 39.71 100.99 37.80 104.57 36.26 108.22 C 34.77 111.82 32.04 114.66 29.94 117.88 C 28.96 119.44 29.58 121.72 28.05 122.98 C 25.55 125.23 23.17 127.60 20.98 130.15 C 20.27 129.80 19.56 129.45 18.85 129.10 C 18.20 130.87 17.22 132.48 16.34 134.13 C 17.86 133.04 19.27 131.81 20.75 130.68 C 20.71 132.41 20.60 134.14 20.42 135.87 C 21.76 137.34 23.09 138.82 24.56 140.17 C 24.38 142.81 24.01 145.52 22.06 147.50 C 21.33 145.50 20.80 143.44 20.27 141.39 C 19.68 143.03 19.14 144.69 18.54 146.33 C 16.54 145.32 14.45 144.52 12.42 143.57 C 13.46 141.14 14.78 138.85 15.72 136.39 C 14.50 137.08 13.30 137.83 12.06 138.49 C 12.60 136.50 13.06 134.46 12.57 132.41 C 15.58 129.84 18.70 127.31 21.05 124.10 C 23.90 119.36 27.27 114.97 30.51 110.50 C 35.38 104.84 37.90 97.53 43.09 92.10 C 45.86 89.41 46.94 85.44 50.06 83.07 C 53.67 79.66 56.83 75.79 60.23 72.16 C 62.07 70.06 65.08 70.33 67.44 69.21 C 72.62 66.52 77.92 63.93 83.60 62.50 C 87.39 61.53 91.22 63.13 95.03 62.45 C 99.09 61.95 103.27 61.84 107.15 60.47 C 110.96 59.78 114.68 58.70 118.47 57.89 C 118.44 57.51 118.37 56.74 118.34 56.36 C 122.57 53.81 126.85 51.35 131.29 49.17 C 131.37 49.43 131.53 49.96 131.62 50.22 C 133.54 48.16 136.49 47.80 139.08 47.12 C 139.46 42.69 138.89 37.61 142.06 34.03 Z" />
<path fill="#ffffff" opacity="1.00" d=" M 160.31 49.19 C 161.32 49.27 163.35 49.44 164.37 49.53 C 163.88 50.56 163.39 51.59 162.89 52.62 C 166.19 51.46 168.76 54.13 171.68 55.11 C 173.58 55.62 174.05 57.71 175.04 59.15 C 171.78 61.49 168.24 63.40 164.63 65.11 C 161.93 65.37 159.29 65.98 156.62 66.45 C 155.40 67.78 154.08 69.01 152.81 70.30 C 152.29 69.55 151.24 68.06 150.72 67.31 C 155.80 63.27 162.12 60.72 168.49 59.82 C 169.12 59.23 169.74 58.62 170.33 57.99 C 167.14 56.23 163.84 54.69 160.44 53.39 C 160.41 52.34 160.34 50.24 160.31 49.19 Z" />
<path fill="#ffffff" opacity="1.00" d=" M 133.41 69.57 C 134.75 70.58 136.19 71.45 137.51 72.50 C 138.26 74.39 138.71 76.40 139.63 78.22 C 142.44 79.17 145.06 77.20 147.89 77.43 C 146.05 83.87 139.66 86.97 136.42 92.48 C 134.07 95.35 131.07 97.65 129.06 100.81 C 132.90 106.39 136.13 112.37 140.39 117.67 C 142.11 119.42 141.17 122.24 142.89 124.01 C 144.42 125.93 145.36 128.22 146.21 130.50 C 148.62 130.45 151.03 130.34 153.44 130.60 C 153.60 131.85 153.74 133.11 153.87 134.37 C 149.78 134.31 145.22 135.62 141.53 133.31 C 140.93 131.58 141.41 129.76 141.53 128.00 C 140.82 127.09 140.11 126.18 139.40 125.28 C 138.60 125.73 137.81 126.19 137.02 126.65 C 133.32 120.96 128.47 116.10 123.41 111.62 C 122.09 109.98 120.53 108.57 118.59 107.71 C 121.22 111.20 122.57 115.43 122.89 119.75 C 122.10 120.33 121.28 120.86 120.44 121.36 C 120.83 124.32 120.74 127.33 120.04 130.24 C 120.65 130.87 121.26 131.50 121.85 132.15 C 119.06 133.06 116.25 135.67 113.31 134.79 C 113.06 128.94 115.72 123.52 116.71 117.86 C 116.47 114.38 114.96 111.13 114.27 107.73 C 113.73 106.40 114.08 105.02 115.13 104.06 C 116.60 104.35 117.77 105.41 119.11 106.03 C 117.84 104.91 116.48 103.90 115.21 102.79 C 111.80 103.18 109.69 99.24 106.28 99.40 C 103.81 98.69 101.81 100.46 99.64 101.30 C 97.60 108.18 93.87 114.42 90.81 120.87 C 92.86 124.32 95.18 127.62 96.62 131.40 C 100.89 131.43 103.92 134.44 106.47 137.54 C 103.58 136.64 100.65 134.15 97.51 135.68 C 96.10 135.90 94.56 137.22 93.18 136.36 C 88.28 130.83 85.72 123.67 84.43 116.50 C 85.61 112.67 87.33 109.05 89.05 105.45 C 87.72 104.71 86.37 103.99 85.10 103.15 C 86.79 102.99 88.61 102.18 88.46 100.19 C 86.36 100.17 85.24 102.01 83.77 103.17 C 84.31 103.40 84.85 103.63 85.40 103.88 C 83.21 104.47 81.03 105.10 78.79 105.47 C 78.63 106.14 78.30 107.50 78.14 108.18 C 77.22 107.63 76.30 107.07 75.39 106.51 C 76.71 101.41 74.27 95.57 77.41 90.98 C 78.11 91.96 78.82 92.95 79.52 93.94 C 80.74 92.39 81.94 90.83 83.13 89.25 C 83.61 90.77 84.07 92.29 84.51 93.82 C 83.94 93.31 82.80 92.28 82.23 91.77 C 82.62 93.47 82.61 95.21 82.38 96.94 C 84.01 95.16 85.83 93.57 87.77 92.14 C 87.53 93.32 87.27 94.49 86.99 95.66 C 89.83 94.87 92.44 96.80 95.29 96.19 C 95.33 96.96 95.39 98.50 95.42 99.27 C 95.54 98.63 95.79 97.35 95.91 96.70 C 97.99 97.19 100.10 97.54 102.23 97.78 C 101.26 95.77 100.23 93.79 99.48 91.69 C 101.71 92.96 103.80 94.45 105.99 95.78 C 105.28 92.73 104.19 89.73 104.28 86.55 C 104.98 86.48 106.39 86.32 107.09 86.24 C 107.83 83.13 108.93 80.13 110.17 77.19 C 110.23 78.22 110.35 80.30 110.42 81.33 C 111.59 80.33 112.76 79.32 113.90 78.28 C 113.83 79.30 113.78 80.33 113.74 81.36 C 112.93 81.35 112.12 81.38 111.31 81.43 C 111.92 84.80 111.49 88.18 111.42 91.57 C 110.34 90.52 109.27 89.45 108.17 88.43 C 108.25 90.60 108.37 92.80 108.90 94.92 C 110.90 97.32 113.41 99.52 116.66 99.82 C 114.00 97.46 111.78 94.71 110.30 91.45 C 112.97 93.56 116.40 97.30 119.99 95.97 C 120.82 94.24 121.35 92.38 121.86 90.54 C 123.94 90.46 126.77 91.20 128.06 89.07 C 129.61 86.58 132.51 85.77 135.13 84.92 C 134.45 84.34 133.78 83.75 133.14 83.14 C 133.79 82.03 134.53 80.97 135.26 79.92 C 135.42 81.68 135.53 83.45 135.74 85.21 C 136.65 83.76 137.61 82.33 138.43 80.83 C 137.59 76.70 136.19 72.79 133.41 69.57 M 140.00 79.94 C 139.45 81.59 140.00 82.12 141.63 81.52 C 142.15 79.87 141.60 79.34 140.00 79.94 M 107.18 87.25 C 107.83 87.90 107.83 87.90 107.18 87.25 M 122.68 91.94 C 122.23 93.34 122.72 93.86 124.14 93.49 C 124.57 92.06 124.08 91.55 122.68 91.94 M 118.08 97.86 C 119.97 100.69 121.45 103.74 122.98 106.76 C 127.71 109.77 130.54 114.70 134.64 118.38 C 135.28 118.53 136.58 118.83 137.22 118.97 C 133.41 112.02 128.23 105.78 124.55 98.68 C 124.50 97.03 124.48 95.38 124.48 93.73 C 122.46 95.32 121.00 98.07 118.08 97.86 Z" />
<path fill="#ffffff" opacity="1.00" d=" M 146.76 71.13 C 148.13 70.00 149.67 69.09 151.12 68.06 C 152.92 72.52 147.26 75.59 144.22 77.85 C 144.90 75.56 145.55 73.21 146.76 71.13 Z" />
<path fill="#ffffff" opacity="1.00" d=" M 68.60 78.72 C 69.14 78.39 70.22 77.72 70.76 77.39 C 70.44 80.89 68.59 83.87 66.81 86.80 C 66.54 85.29 66.29 83.78 66.00 82.27 C 66.43 82.41 67.27 82.68 67.69 82.81 C 67.99 81.45 68.31 80.08 68.60 78.72 Z" />
<path fill="#ffffff" opacity="1.00" d=" M 51.10 95.40 C 51.95 93.83 52.85 92.28 53.93 90.85 C 56.40 92.36 56.57 95.54 58.59 97.39 C 61.41 99.67 64.46 102.64 68.38 101.41 C 69.15 103.46 70.28 105.34 71.26 107.28 C 69.51 107.35 67.77 107.33 66.02 107.27 C 63.88 111.67 61.22 116.05 61.24 121.12 C 64.21 119.18 66.70 116.66 69.34 114.32 C 72.16 113.31 70.43 117.42 70.53 119.00 C 69.00 120.07 66.87 120.14 65.62 121.64 C 62.89 124.14 62.97 128.12 61.28 131.22 C 60.47 130.12 59.60 129.06 58.87 127.91 C 59.58 125.62 61.44 124.00 62.52 121.91 C 57.92 122.85 57.29 128.19 56.66 132.02 C 56.97 136.02 56.71 140.02 56.67 144.02 C 59.19 144.51 61.67 145.23 64.20 145.71 C 63.37 143.66 61.45 142.70 59.56 141.85 C 59.28 138.68 59.45 135.51 59.74 132.35 C 60.65 133.02 61.61 133.65 62.41 134.45 C 62.54 136.54 62.43 138.65 62.73 140.73 C 64.00 141.67 65.36 142.48 66.69 143.34 C 66.10 144.07 65.51 144.80 64.91 145.52 C 65.67 145.57 67.20 145.67 67.96 145.72 C 66.81 147.12 65.60 148.47 64.32 149.76 C 61.10 147.71 57.25 147.60 53.57 147.52 C 52.30 142.17 53.12 136.68 54.47 131.44 C 55.13 129.04 54.38 126.58 54.50 124.16 C 55.44 122.83 56.69 121.78 57.71 120.52 C 58.65 118.40 57.72 116.10 57.65 113.91 C 59.64 111.00 61.84 108.22 63.44 105.05 C 60.50 103.46 57.47 102.08 54.68 100.24 C 56.02 102.24 57.66 104.05 58.76 106.20 C 58.34 106.61 57.51 107.41 57.10 107.81 C 54.02 105.89 52.24 102.64 50.81 99.42 C 50.24 99.52 49.11 99.72 48.55 99.82 C 48.94 98.19 49.34 96.56 49.75 94.94 C 50.08 95.05 50.76 95.28 51.10 95.40 Z" />
<path fill="#ffffff" opacity="1.00" d=" M 45.31 103.50 C 47.08 102.36 48.74 101.08 50.51 99.95 C 51.12 103.26 51.94 106.66 51.17 110.02 C 50.30 113.76 50.68 117.60 50.58 121.40 C 50.43 124.51 52.77 127.19 52.53 130.31 C 51.49 131.39 50.39 132.43 49.37 133.53 C 47.68 132.68 45.94 131.96 44.17 131.32 C 44.64 134.70 45.61 137.97 46.66 141.21 C 44.60 141.73 42.63 143.17 40.42 142.73 C 38.62 140.36 38.66 137.26 39.12 134.46 C 39.97 134.40 41.66 134.28 42.51 134.22 C 42.43 133.42 42.27 131.83 42.19 131.03 C 42.58 131.28 43.37 131.76 43.76 132.00 C 44.16 126.81 42.47 121.60 43.74 116.47 C 45.27 117.34 46.79 118.23 48.31 119.12 C 48.35 117.90 48.48 116.68 48.40 115.46 C 47.40 114.19 46.16 113.12 45.27 111.77 C 45.37 110.20 46.75 109.27 47.69 108.18 C 46.66 106.74 46.00 105.11 45.31 103.50 M 47.19 110.43 C 46.27 111.64 46.51 112.31 47.91 112.45 C 48.82 111.21 48.58 110.54 47.19 110.43 M 42.29 136.27 C 40.54 139.05 45.66 136.67 42.29 136.27 Z" />
<path fill="#ffffff" opacity="1.00" d=" M 75.47 106.83 C 76.06 107.34 77.24 108.36 77.82 108.87 C 76.39 111.14 75.04 113.48 74.16 116.03 C 73.50 116.54 72.19 117.56 71.54 118.08 C 71.76 115.70 70.33 112.58 72.72 110.94 C 73.34 110.06 74.57 110.68 75.46 110.51 C 75.44 109.28 75.45 108.05 75.47 106.83 Z" />
<path fill="#ffffff" opacity="1.00" d=" M 30.30 138.33 C 32.49 140.98 35.49 142.40 38.85 142.91 C 38.51 144.32 38.87 146.56 36.81 146.56 C 33.33 148.18 29.57 147.55 26.11 146.30 C 25.68 145.71 24.81 144.54 24.37 143.95 C 25.55 142.03 26.85 140.18 28.40 138.55 C 28.36 139.66 28.28 141.88 28.24 143.00 C 29.07 142.22 29.91 141.46 30.78 140.73 C 30.66 140.13 30.42 138.93 30.30 138.33 Z" />
</g>
</svg>
