<?xml version="1.0" encoding="UTF-8" ?>
<!DOCTYPE svg PUBLIC "-//W3C//DTD SVG 1.1//EN" "http://www.w3.org/Graphics/SVG/1.1/DTD/svg11.dtd">
<svg width="180pt" height="180pt" viewBox="0 0 180 180" version="1.1" xmlns="http://www.w3.org/2000/svg">
<g id="#ffffffff">
<path fill="#ffffff" opacity="1.00" d=" M 147.33 22.19 C 147.87 21.21 148.41 20.24 148.93 19.25 C 152.61 20.65 156.84 21.34 159.36 24.69 C 160.85 25.66 160.69 27.27 160.36 28.79 C 160.96 29.18 161.57 29.59 162.16 30.01 C 161.92 27.53 164.41 26.43 165.85 24.86 C 168.26 22.64 169.68 18.73 173.65 19.47 C 174.13 22.39 171.35 23.83 169.72 25.73 C 166.44 29.35 162.96 32.87 160.41 37.07 C 161.94 36.10 163.38 35.02 164.86 33.98 C 165.37 34.51 166.40 35.56 166.92 36.08 C 163.89 40.00 158.99 42.62 157.58 47.63 C 157.13 48.99 156.41 50.31 156.34 51.76 C 157.37 54.13 158.76 56.51 160.96 57.97 C 165.87 60.70 170.66 63.87 174.42 68.10 C 173.12 70.64 172.30 73.61 170.03 75.50 C 166.39 75.99 162.71 75.69 159.07 75.43 C 155.93 79.41 156.35 84.86 154.15 89.18 C 149.37 93.50 149.27 100.55 145.42 105.46 C 144.11 107.72 141.37 108.36 139.40 109.86 C 145.76 113.01 152.19 116.10 159.02 118.10 C 161.08 118.63 162.99 119.57 164.79 120.68 C 164.09 121.15 162.67 122.09 161.96 122.56 C 157.99 121.26 154.04 119.90 150.00 118.84 C 145.71 117.76 141.95 115.13 137.54 114.47 C 142.55 116.19 146.79 119.53 151.93 120.91 C 152.68 123.57 154.71 125.48 156.47 127.51 C 159.89 129.15 163.43 130.53 166.80 132.29 C 166.51 133.10 166.22 133.92 165.92 134.75 C 162.25 133.67 158.71 132.22 155.06 131.07 C 155.16 130.69 155.36 129.92 155.46 129.54 C 152.35 130.48 149.51 128.47 146.76 127.31 C 142.01 124.58 136.68 123.08 131.84 120.52 C 131.29 121.39 130.74 122.25 130.19 123.11 C 132.64 131.75 130.91 140.94 133.32 149.60 C 134.57 153.31 134.84 157.27 136.05 160.99 C 136.79 163.31 141.24 164.13 139.66 166.96 C 137.90 168.56 135.48 166.49 134.07 165.25 C 133.50 165.65 132.36 166.45 131.79 166.85 C 128.91 158.34 127.09 149.47 123.90 141.04 C 121.91 137.07 118.73 133.81 116.87 129.76 C 118.05 128.74 119.16 128.72 120.19 129.70 C 124.00 133.82 127.46 138.51 128.37 144.16 C 127.84 137.34 126.55 130.63 126.52 123.77 C 126.17 124.98 125.88 126.20 125.60 127.43 C 120.54 129.80 115.12 128.01 109.81 128.17 C 110.65 129.20 111.47 130.25 112.31 131.28 C 110.67 131.33 109.03 131.31 107.40 131.22 C 105.48 134.38 101.59 135.84 100.28 139.39 C 98.68 142.79 95.93 145.64 95.44 149.49 C 93.19 152.20 91.16 155.09 90.08 158.49 C 91.40 158.50 92.71 158.55 94.03 158.62 C 92.59 159.55 90.99 160.17 89.41 160.78 C 91.06 161.92 90.84 164.02 91.28 165.76 C 92.26 166.49 93.23 167.22 94.22 167.95 C 94.21 168.36 94.20 169.18 94.19 169.59 C 92.11 169.10 90.09 168.39 88.19 167.42 C 88.47 165.37 88.72 163.19 87.55 161.34 C 87.51 162.69 87.53 164.04 87.60 165.39 C 86.34 165.54 85.09 165.70 83.84 165.89 C 84.97 162.99 85.07 159.78 86.47 156.99 C 85.50 157.45 84.53 157.90 83.55 158.34 C 83.89 157.05 84.22 155.76 84.56 154.47 C 85.61 153.91 86.67 153.38 87.75 152.88 C 86.49 149.08 87.73 145.06 89.68 141.74 C 92.62 137.18 91.99 131.47 93.87 126.52 C 89.84 126.38 85.81 126.15 81.84 125.38 C 81.45 123.81 81.04 122.26 80.61 120.71 C 76.94 121.38 76.45 125.89 73.17 127.19 C 70.95 128.12 68.86 130.15 66.32 129.71 C 63.01 128.77 60.31 131.54 57.51 132.81 C 57.22 132.44 56.65 131.70 56.36 131.33 C 58.19 139.86 58.45 148.58 59.67 157.19 C 58.97 157.61 57.59 158.45 56.90 158.87 C 53.79 150.29 54.74 140.97 52.94 132.16 C 57.27 128.78 62.03 124.21 67.99 125.46 C 70.79 124.22 73.55 122.58 76.74 123.28 C 76.19 120.93 75.64 118.53 76.61 116.19 C 81.19 118.94 86.13 121.04 91.30 122.39 C 92.85 120.74 94.50 119.20 96.31 117.83 C 95.92 117.01 95.53 116.20 95.14 115.38 C 98.46 112.89 101.39 109.91 103.47 106.29 C 99.91 104.19 96.06 102.53 92.82 99.92 C 84.97 106.09 77.11 112.23 69.13 118.23 C 62.78 122.02 56.81 126.46 51.03 131.07 C 51.81 135.17 51.08 139.24 50.23 143.25 C 52.29 149.58 54.79 155.75 57.24 161.94 C 58.69 164.64 55.67 167.40 57.52 169.98 C 58.17 169.41 59.47 168.26 60.12 167.68 C 60.29 168.25 60.63 169.37 60.80 169.94 C 59.07 170.51 57.50 172.27 55.56 171.63 C 54.66 170.77 53.82 169.85 52.95 168.97 C 53.95 167.90 54.97 166.85 56.00 165.82 C 50.64 159.06 49.78 150.02 44.76 143.09 C 44.16 141.86 43.69 140.57 43.20 139.30 C 41.12 143.88 38.02 147.86 35.70 152.28 C 34.46 157.59 33.88 163.05 33.70 168.50 C 32.18 168.36 30.65 168.29 29.13 168.29 C 30.41 169.33 31.69 170.37 32.99 171.39 C 30.61 172.04 28.23 171.95 26.33 170.22 C 27.12 169.52 27.91 168.84 28.71 168.17 C 27.53 166.13 27.63 163.78 27.61 161.51 C 26.78 162.34 25.96 163.19 25.13 164.04 C 24.70 163.48 23.82 162.38 23.38 161.83 C 26.54 157.08 25.79 151.03 28.27 145.94 C 25.90 147.36 23.93 150.41 20.77 149.29 C 20.77 148.80 20.75 147.81 20.74 147.31 C 24.27 144.92 28.10 142.85 31.23 139.93 C 31.17 139.34 31.07 138.15 31.02 137.56 C 28.04 139.82 25.23 142.41 21.69 143.79 C 23.83 139.88 28.73 138.52 30.94 134.85 C 31.75 128.65 37.60 124.90 38.85 118.88 C 38.04 113.74 33.63 110.19 32.34 105.24 C 30.60 107.78 28.34 109.89 25.76 111.57 C 23.28 107.79 23.80 103.07 23.46 98.77 C 23.18 96.31 24.06 94.02 24.77 91.72 C 25.51 91.73 26.25 91.75 27.00 91.77 C 27.32 89.03 28.69 86.66 30.16 84.39 C 33.54 85.86 34.50 82.13 35.87 79.88 C 39.66 76.44 44.59 74.61 49.40 73.09 C 46.23 71.58 43.28 69.68 40.59 67.43 C 35.31 64.06 29.90 60.87 24.82 57.20 C 21.36 54.58 16.81 53.04 14.85 48.87 C 16.72 48.27 18.44 47.35 19.98 46.15 C 26.30 49.19 33.08 51.83 38.54 56.28 C 38.60 56.97 38.72 58.35 38.79 59.04 C 35.72 57.17 33.01 54.81 30.12 52.70 C 32.94 57.42 38.54 58.91 42.38 62.52 C 46.69 65.94 52.17 67.61 56.11 71.53 C 56.57 70.94 57.04 70.37 57.52 69.80 C 54.00 70.20 51.59 67.07 48.71 65.54 C 45.14 62.73 39.41 61.18 38.78 56.03 C 45.59 59.96 52.37 63.96 59.29 67.69 C 63.05 69.80 66.52 73.01 71.03 73.24 C 77.07 73.14 82.83 75.42 88.89 75.27 C 90.92 75.70 93.46 74.98 95.17 76.11 C 95.64 77.78 94.37 79.05 92.70 78.77 C 87.30 78.41 81.56 80.43 76.61 77.44 C 82.58 81.98 89.76 84.56 95.93 88.80 C 98.03 86.96 100.12 85.08 102.47 83.57 C 102.82 83.70 103.52 83.97 103.86 84.11 C 103.75 86.74 100.12 87.58 99.51 90.19 C 102.75 87.82 105.91 85.26 108.62 82.29 C 107.46 82.75 106.34 83.31 105.16 83.72 C 102.80 80.47 98.78 79.91 95.16 79.00 C 95.41 78.30 95.89 76.91 96.13 76.21 C 100.19 75.97 103.95 78.13 107.77 79.25 C 110.96 77.19 113.01 72.91 117.00 72.46 C 115.71 74.20 114.28 75.84 113.21 77.74 C 117.18 75.74 120.35 72.56 123.59 69.58 C 121.44 70.22 119.32 70.98 117.11 71.34 C 119.08 69.52 121.72 68.58 123.46 66.49 C 126.29 63.22 130.03 60.88 132.58 57.36 C 130.11 56.47 127.30 56.48 125.09 54.97 C 122.17 51.53 122.16 46.75 122.71 42.51 C 128.80 44.19 132.18 50.34 138.07 52.50 C 139.74 51.67 140.60 49.81 141.92 48.55 C 141.47 41.77 141.45 34.95 141.09 28.14 C 139.89 26.01 137.60 24.83 136.23 22.83 C 136.13 21.55 136.70 20.69 137.96 20.25 C 140.24 21.89 142.92 23.53 144.08 26.19 C 144.72 29.77 145.64 33.35 145.53 37.02 C 146.82 36.70 148.11 36.39 149.41 36.12 C 148.59 38.53 147.27 40.79 147.22 43.40 C 151.18 39.61 156.44 36.35 157.88 30.74 C 157.80 29.26 157.66 27.61 156.47 26.56 C 154.41 23.46 150.27 23.98 147.33 22.19 M 151.24 45.23 C 151.81 45.82 151.81 45.82 151.24 45.23 M 124.45 47.44 C 125.58 50.72 127.88 53.58 131.63 53.71 C 129.54 51.33 127.49 48.63 124.45 47.44 M 147.71 54.97 C 148.58 55.97 149.45 56.98 150.29 58.01 C 148.91 58.76 147.52 59.48 146.12 60.18 C 147.11 61.30 148.09 62.44 148.98 63.64 C 146.07 63.72 144.10 61.41 141.95 59.82 C 139.67 61.39 138.83 64.08 140.15 66.60 C 143.90 70.38 148.76 72.76 152.90 76.06 C 154.16 74.72 155.31 72.96 157.22 72.54 C 160.99 73.14 165.20 74.00 168.58 71.65 C 165.68 71.28 162.76 71.63 159.86 71.32 C 161.22 69.80 162.51 68.11 164.56 67.52 C 164.34 66.59 164.14 65.66 163.94 64.73 C 162.48 66.82 160.19 67.11 157.89 66.33 C 158.49 65.06 159.14 63.80 159.79 62.55 C 154.38 61.00 154.43 54.56 152.48 50.22 C 150.87 51.78 149.30 53.39 147.71 54.97 M 131.55 60.40 C 129.48 62.79 126.78 64.64 125.18 67.40 C 128.14 65.37 130.77 62.88 133.47 60.52 C 132.99 60.49 132.03 60.43 131.55 60.40 M 161.24 62.61 C 160.88 64.08 161.35 64.62 162.68 64.22 C 163.05 62.75 162.57 62.21 161.24 62.61 M 135.43 65.40 C 133.68 67.67 131.52 69.55 129.15 71.16 C 125.68 74.32 121.99 77.22 118.39 80.22 C 120.14 83.09 123.36 83.95 126.28 85.12 C 129.28 80.20 131.68 74.91 135.24 70.35 C 135.58 68.85 135.96 67.35 136.69 65.98 C 136.38 65.83 135.75 65.54 135.43 65.40 M 136.60 69.97 C 138.13 72.54 140.54 74.76 140.78 77.91 C 139.31 77.13 138.01 76.11 136.80 74.98 C 134.52 81.17 130.80 86.64 125.88 91.03 C 124.56 91.21 123.24 91.39 121.93 91.53 C 122.21 90.10 122.54 88.69 122.87 87.27 C 120.10 86.14 117.41 84.82 114.83 83.30 C 110.79 85.97 107.24 89.33 103.53 92.44 C 107.92 95.28 112.80 97.18 117.39 99.65 C 122.58 103.15 128.61 105.09 134.18 107.87 C 136.21 104.91 138.13 101.85 140.49 99.13 C 140.02 100.99 139.44 102.82 138.89 104.67 C 140.05 104.48 141.21 104.30 142.37 104.11 C 142.58 102.96 142.14 101.60 142.86 100.61 C 147.74 95.08 147.82 86.90 152.83 81.40 C 151.88 80.22 150.84 79.13 149.77 78.06 C 148.57 78.48 147.37 78.91 146.17 79.31 C 142.37 76.79 140.62 72.16 136.60 69.97 M 111.93 77.34 C 110.38 80.36 115.37 77.47 111.93 77.34 M 58.90 79.93 C 59.39 81.04 59.88 82.14 60.38 83.24 C 58.52 85.36 55.70 84.73 53.25 84.37 C 52.55 85.68 51.81 86.98 51.03 88.25 C 49.36 87.09 47.82 85.74 46.72 84.02 C 44.98 84.31 43.25 84.61 41.52 84.86 C 40.87 86.19 40.23 87.52 39.59 88.86 C 38.69 88.26 36.91 87.08 36.02 86.49 C 37.55 85.83 39.08 85.18 40.50 84.30 C 34.79 85.63 31.89 91.24 27.25 94.30 C 27.99 97.73 27.98 101.24 27.85 104.73 C 29.18 103.42 30.92 102.37 31.60 100.56 C 32.81 98.07 32.19 95.23 32.74 92.60 C 34.11 90.78 35.48 88.96 36.44 86.89 C 36.98 87.67 38.05 89.23 38.58 90.01 C 37.38 90.57 36.18 91.13 34.98 91.68 C 35.69 92.19 37.11 93.19 37.81 93.69 C 39.37 91.34 41.23 89.08 43.86 87.87 C 42.62 90.06 41.01 92.08 40.35 94.55 C 39.00 94.53 37.66 94.52 36.31 94.56 C 37.12 95.11 37.94 95.64 38.77 96.16 C 38.54 99.52 39.72 102.68 41.12 105.67 C 43.06 105.57 45.01 105.54 46.96 105.45 C 49.73 107.49 51.67 110.53 51.71 114.06 C 50.04 115.45 48.34 113.79 46.75 113.16 C 45.35 112.27 43.66 112.74 42.12 112.46 C 41.02 111.13 40.15 109.62 38.88 108.44 C 41.71 112.17 43.55 116.63 47.05 119.84 C 48.87 117.82 51.25 116.47 53.27 114.70 C 52.45 112.58 51.36 110.58 50.60 108.45 C 53.04 110.52 57.52 111.56 57.88 115.13 C 54.55 117.75 51.41 120.66 48.97 124.16 C 52.97 121.22 57.56 119.03 60.89 115.25 C 60.22 115.00 58.88 114.51 58.22 114.26 C 58.89 112.70 59.53 111.13 60.16 109.56 C 61.01 111.03 61.64 112.60 62.20 114.19 C 65.15 112.45 68.44 111.20 70.99 108.86 C 75.97 104.44 81.47 100.66 86.50 96.31 C 80.62 91.76 73.70 88.77 67.85 84.18 C 65.34 81.60 61.08 83.01 58.90 79.93 M 54.21 82.18 C 54.83 82.79 54.83 82.79 54.21 82.18 M 97.80 96.07 C 103.98 99.19 110.45 101.79 116.32 105.47 C 117.18 105.55 118.05 105.48 118.92 105.26 C 119.18 105.80 119.71 106.88 119.97 107.42 C 120.27 106.59 120.59 105.76 120.91 104.94 C 114.36 101.17 107.17 98.72 100.81 94.60 C 99.82 95.12 98.81 95.60 97.80 96.07 M 137.32 104.59 C 136.45 105.56 135.54 107.07 136.02 108.40 C 137.73 108.97 140.25 103.83 137.32 104.59 M 106.23 107.75 C 104.93 109.44 103.62 111.13 102.09 112.61 C 102.40 113.40 102.72 114.19 103.04 114.98 C 102.16 115.77 101.23 116.53 100.44 117.42 C 100.30 119.15 100.34 120.89 100.21 122.62 C 102.01 123.85 103.84 125.03 105.65 126.25 C 105.49 125.58 105.17 124.26 105.00 123.59 C 110.53 124.22 116.08 124.29 121.64 124.34 C 120.83 121.26 123.24 119.03 125.75 117.83 C 119.17 114.60 112.95 110.70 106.23 107.75 M 42.27 120.12 C 40.98 123.57 40.27 127.20 38.95 130.64 C 40.05 130.09 41.16 129.56 42.29 129.07 C 42.37 126.16 43.81 123.65 45.86 121.67 C 44.66 121.16 43.46 120.64 42.27 120.12 M 99.13 125.70 C 98.60 128.30 98.26 130.93 98.10 133.58 C 99.36 132.31 100.52 130.94 101.72 129.61 C 103.05 130.24 104.42 130.74 105.85 131.09 C 104.00 128.85 101.55 127.25 99.13 125.70 M 46.95 135.04 C 46.57 136.40 47.10 136.94 48.53 136.65 C 48.88 135.25 48.35 134.71 46.95 135.04 M 32.92 143.95 C 31.35 146.86 30.26 150.09 30.01 153.41 C 32.59 150.87 32.81 146.85 35.03 144.10 C 37.66 142.39 39.32 139.72 41.17 137.27 C 38.40 139.46 35.13 141.13 32.92 143.95 M 42.24 137.24 C 42.81 137.81 42.81 137.81 42.24 137.24 M 35.14 147.23 C 35.79 147.88 35.79 147.88 35.14 147.23 Z" />
<path fill="#ffffff" opacity="1.00" d=" M 60.43 43.07 C 60.55 38.00 62.39 33.36 64.97 29.08 C 67.97 32.02 70.72 35.89 70.61 40.25 C 71.75 36.57 73.79 33.27 75.62 29.90 C 78.88 32.94 78.47 37.69 79.36 41.70 C 80.67 38.93 81.30 35.92 82.47 33.10 C 83.42 32.43 84.62 32.59 85.71 32.53 C 86.03 31.75 86.34 30.97 86.66 30.19 C 87.63 30.52 88.60 30.86 89.57 31.22 C 89.65 38.16 89.63 45.09 89.61 52.03 C 90.90 53.69 91.84 57.22 88.78 57.40 C 80.90 55.96 72.91 57.50 64.96 57.41 C 60.87 57.27 56.86 58.18 52.80 58.46 C 51.68 56.64 53.47 55.00 53.42 53.17 C 53.31 46.50 52.30 39.89 52.18 33.23 C 52.79 33.28 54.00 33.39 54.61 33.44 C 56.36 36.76 58.43 39.90 60.43 43.07 M 63.20 49.04 C 62.05 48.77 60.89 48.50 59.74 48.22 C 59.02 46.64 58.25 45.09 57.34 43.62 C 57.05 47.05 56.45 50.52 56.97 53.96 C 63.77 52.70 70.64 51.98 77.56 52.00 C 75.09 48.69 75.58 44.40 75.15 40.52 C 73.64 43.01 72.89 45.84 71.87 48.54 C 67.76 46.72 66.78 42.33 65.92 38.37 C 64.27 41.69 63.42 45.35 63.20 49.04 M 79.01 51.88 C 80.75 52.26 82.50 52.66 84.25 53.02 C 84.26 49.20 84.29 45.37 84.11 41.56 C 82.56 45.07 80.86 48.52 79.01 51.88 Z" />
<path fill="#ffffff" opacity="1.00" d=" M 146.71 69.31 C 147.71 68.44 148.73 67.59 149.83 66.85 C 150.46 67.51 151.72 68.82 152.35 69.48 C 150.46 69.50 148.58 69.44 146.71 69.31 Z" />
<path fill="#ffffff" opacity="1.00" d=" M 152.77 68.49 C 154.20 68.15 154.72 68.68 154.31 70.07 C 152.89 70.39 152.37 69.86 152.77 68.49 Z" />
<path fill="#ffffff" opacity="1.00" d=" M 122.34 94.27 C 125.35 92.80 122.30 97.62 122.34 94.27 Z" />
<path fill="#ffffff" opacity="1.00" d=" M 54.21 103.59 C 54.74 103.58 55.80 103.55 56.34 103.54 C 58.12 106.27 57.91 109.59 57.46 112.68 C 56.34 109.66 55.65 106.50 54.21 103.59 Z" />
<path fill="#ffffff" opacity="1.00" d=" M 116.46 104.46 C 116.79 104.79 116.79 104.79 116.46 104.46 Z" />
<path fill="#ffffff" opacity="1.00" d=" M 23.16 165.10 C 24.59 165.73 26.00 166.37 27.39 167.08 C 25.75 167.98 23.95 167.86 22.17 167.58 C 22.50 166.75 22.83 165.93 23.16 165.10 Z" />
<path fill="#ffffff" opacity="1.00" d=" M 60.19 166.21 C 60.83 166.87 60.83 166.87 60.19 166.21 Z" />
</g>
</svg>
