<?xml version="1.0" encoding="UTF-8" ?>
<!DOCTYPE svg PUBLIC "-//W3C//DTD SVG 1.1//EN" "http://www.w3.org/Graphics/SVG/1.1/DTD/svg11.dtd">
<svg width="128pt" height="128pt" viewBox="0 0 128 128" version="1.1" xmlns="http://www.w3.org/2000/svg">
<g id="#ffffffff">
<path fill="#ffffff" opacity="1.00" d=" M 45.95 11.46 C 44.22 10.38 45.15 8.99 46.06 7.72 C 46.28 8.77 46.48 9.82 46.67 10.87 C 47.58 11.43 48.48 11.99 49.39 12.56 C 49.38 13.66 49.38 14.76 49.40 15.86 C 50.08 15.72 51.44 15.43 52.12 15.28 C 51.24 17.12 50.56 19.05 49.54 20.81 C 50.73 21.30 51.89 21.88 52.95 22.63 C 52.47 20.71 52.47 18.73 52.52 16.76 C 54.05 16.97 54.80 17.76 54.76 19.14 C 54.75 26.12 53.45 33.02 53.81 40.01 C 53.28 50.10 53.95 60.21 53.16 70.30 C 52.96 71.85 53.43 73.36 53.81 74.85 C 54.42 74.34 55.64 73.33 56.25 72.82 C 56.91 67.52 55.86 61.92 57.80 56.79 C 59.01 53.58 59.72 49.20 63.65 48.31 C 63.58 47.77 63.44 46.69 63.37 46.15 C 64.81 46.23 66.25 46.05 67.67 45.78 C 67.50 44.65 67.30 43.53 67.08 42.41 C 67.73 42.53 69.01 42.76 69.66 42.88 C 69.40 42.00 69.15 41.11 68.89 40.23 C 69.35 40.30 70.27 40.44 70.73 40.51 C 70.71 39.96 70.67 38.86 70.65 38.30 C 72.87 37.04 74.98 35.61 77.19 34.33 C 79.21 30.60 77.22 26.77 76.61 22.97 C 76.96 22.62 77.65 21.92 77.99 21.57 C 80.39 22.41 81.05 25.08 82.25 27.03 C 85.65 27.10 88.70 29.68 89.35 33.01 C 88.95 35.99 88.42 39.12 86.59 41.59 C 85.39 43.56 83.53 45.34 83.39 47.76 C 84.20 51.17 86.19 54.10 87.62 57.25 C 90.78 66.44 88.58 77.01 82.58 84.58 C 80.42 87.29 79.12 90.52 77.77 93.68 C 76.87 93.52 75.97 93.35 75.07 93.18 C 74.14 94.39 73.24 95.65 72.71 97.10 C 74.20 96.63 75.59 95.93 76.97 95.19 C 76.61 96.28 76.29 97.37 75.89 98.44 C 74.78 98.24 73.71 97.93 72.66 97.52 C 72.55 98.90 72.47 100.30 72.42 101.69 C 70.83 102.59 69.15 106.13 67.24 104.13 C 67.97 102.01 69.09 100.05 69.99 98.00 C 67.56 99.48 65.04 101.25 65.21 104.46 C 64.16 104.06 63.10 103.67 62.05 103.28 C 62.81 104.79 63.58 106.29 64.12 107.89 C 63.45 107.77 62.12 107.52 61.45 107.40 C 59.96 104.56 60.63 101.23 60.22 98.16 C 60.89 98.26 62.23 98.45 62.90 98.54 C 62.09 98.08 61.28 97.61 60.47 97.15 C 60.52 92.52 59.90 87.88 60.89 83.30 C 60.24 83.37 58.94 83.50 58.28 83.57 C 57.63 80.39 57.43 77.11 56.22 74.07 C 55.55 75.15 54.91 76.23 54.29 77.34 C 51.89 77.41 50.01 79.63 50.68 82.03 C 51.61 88.16 51.32 94.36 51.58 100.54 C 50.44 102.52 48.61 103.87 46.70 105.04 C 46.08 107.73 47.07 110.69 45.31 113.11 C 43.93 111.22 42.49 109.38 41.24 107.40 C 42.07 107.42 43.72 107.46 44.55 107.48 C 43.61 106.27 42.63 105.08 41.63 103.93 C 41.08 98.28 41.81 92.59 40.74 87.01 C 41.59 82.33 39.99 77.60 41.25 72.94 C 41.92 70.62 40.26 68.68 39.69 66.54 C 39.44 64.71 40.05 62.95 40.77 61.31 C 39.12 59.96 38.41 56.34 41.09 55.83 C 38.94 52.98 39.24 49.36 39.44 46.01 C 40.25 46.20 41.06 46.40 41.86 46.61 C 41.60 45.65 41.34 44.69 41.09 43.72 C 42.22 43.55 43.35 43.36 44.48 43.17 C 43.08 42.69 41.67 42.25 40.27 41.79 C 40.36 42.45 40.52 43.79 40.61 44.45 L 39.08 44.04 C 39.27 39.36 40.10 34.59 38.86 29.98 C 38.37 28.22 39.56 26.72 40.43 25.34 C 40.32 21.99 40.40 18.61 41.37 15.39 C 42.80 15.53 44.38 15.88 45.55 14.78 C 45.18 13.67 44.25 12.90 43.58 11.99 C 44.17 11.86 45.36 11.59 45.95 11.46 M 47.20 21.24 C 47.80 21.81 47.80 21.81 47.20 21.24 M 40.45 35.87 C 42.52 36.50 43.93 38.04 44.62 40.06 C 44.21 37.43 45.38 35.07 46.68 32.88 C 44.73 34.13 42.61 35.06 40.45 35.87 M 42.13 39.23 C 40.55 42.22 45.53 39.42 42.13 39.23 M 42.06 48.44 C 40.69 49.36 42.13 52.24 43.62 51.09 C 44.70 50.06 43.67 47.32 42.06 48.44 M 42.63 53.19 C 42.06 54.26 42.62 55.83 43.48 56.60 C 45.33 56.49 44.27 52.76 42.63 53.19 M 77.31 90.26 C 75.68 93.33 80.71 90.30 77.31 90.26 M 43.41 90.51 C 43.16 93.04 43.83 95.46 45.74 97.22 C 44.93 95.01 45.27 92.17 43.41 90.51 M 70.27 96.15 C 70.92 96.79 70.92 96.79 70.27 96.15 Z" />
<path fill="#ffffff" opacity="1.00" d=" M 42.29 111.24 C 45.69 111.38 40.77 114.25 42.29 111.24 Z" />
<path fill="#ffffff" opacity="1.00" d=" M 44.26 113.17 C 44.92 113.83 44.92 113.83 44.26 113.17 Z" />
<path fill="#ffffff" opacity="1.00" d=" M 45.12 115.21 C 46.53 114.64 47.39 116.95 45.88 117.35 C 44.49 117.93 43.59 115.55 45.12 115.21 Z" />
</g>
</svg>
