<?xml version="1.0" encoding="UTF-8" ?>
<!DOCTYPE svg PUBLIC "-//W3C//DTD SVG 1.1//EN" "http://www.w3.org/Graphics/SVG/1.1/DTD/svg11.dtd">
<svg width="128pt" height="128pt" viewBox="0 0 128 128" version="1.1" xmlns="http://www.w3.org/2000/svg">
<g id="#ffffffff">
<path fill="#ffffff" opacity="1.00" d=" M 33.46 33.70 C 34.33 30.84 33.85 27.56 35.61 25.03 C 37.77 26.29 39.91 27.60 41.83 29.22 C 41.73 31.28 41.35 33.31 41.12 35.36 C 43.60 36.94 45.04 39.71 47.65 41.14 C 50.84 42.22 54.05 43.25 57.13 44.62 C 55.40 44.75 53.67 44.86 51.94 44.95 C 54.59 45.46 57.26 45.21 59.88 44.66 C 64.69 45.73 67.11 50.67 69.54 54.52 C 72.25 56.90 73.89 60.13 76.14 62.90 C 78.42 65.60 79.03 69.19 80.60 72.28 C 79.61 68.32 77.81 64.41 78.61 60.24 C 77.71 60.47 76.81 60.71 75.90 60.94 C 72.67 55.11 73.35 48.09 73.65 41.67 C 74.88 41.58 76.10 41.50 77.33 41.43 C 78.41 38.45 80.26 34.91 83.85 34.73 C 87.24 33.81 90.72 34.73 93.87 36.00 C 95.64 36.91 97.53 35.62 99.33 35.43 C 100.78 38.18 102.89 40.81 102.74 44.08 C 103.97 44.22 105.20 44.36 106.43 44.51 C 106.50 47.49 108.65 49.66 110.03 52.12 C 111.35 53.73 108.59 54.38 107.74 55.20 C 108.39 58.31 105.12 59.52 103.40 61.46 C 101.98 62.97 99.76 62.44 97.94 62.44 C 96.85 64.69 96.06 67.05 96.59 69.57 C 95.46 70.78 94.30 71.95 93.11 73.10 C 94.52 74.36 96.62 76.19 95.29 78.23 C 91.95 82.74 87.95 86.72 84.15 90.83 C 83.96 88.05 84.47 85.32 84.94 82.60 C 83.97 83.70 83.08 84.86 82.22 86.04 C 84.20 87.36 83.81 89.77 83.90 91.82 C 81.42 94.18 78.92 96.54 76.78 99.22 C 73.33 98.89 69.79 99.54 67.22 102.00 C 62.09 100.31 56.66 100.53 51.32 100.62 C 47.89 96.64 43.56 92.57 43.40 86.95 C 44.71 87.44 46.00 87.98 47.27 88.55 C 46.27 87.38 44.53 86.51 44.30 84.88 C 44.62 82.96 45.32 81.12 45.62 79.19 C 47.15 78.83 48.69 78.60 50.24 78.41 C 49.87 77.68 49.11 76.23 48.73 75.50 C 50.16 74.73 51.62 74.01 53.10 73.31 C 46.45 73.59 39.98 75.84 33.28 75.26 C 32.09 76.70 31.46 79.07 29.31 79.27 C 27.08 80.08 24.85 78.78 22.64 78.50 C 22.59 77.89 22.49 76.67 22.44 76.05 C 20.82 76.22 18.55 77.79 17.32 76.02 C 18.17 74.38 19.70 73.29 20.99 72.04 C 20.29 70.96 19.61 69.87 18.94 68.77 C 24.98 67.84 31.21 68.35 37.13 66.68 C 39.69 66.80 42.26 66.63 44.43 65.11 C 42.61 64.14 39.88 63.96 39.17 61.69 C 37.71 58.33 35.09 55.70 33.15 52.64 C 28.95 55.18 24.08 56.27 19.20 55.72 C 19.74 52.91 19.62 50.03 19.97 47.21 C 22.03 42.92 26.18 40.35 29.50 37.15 C 28.77 34.95 27.42 32.36 29.36 30.36 C 31.50 29.80 32.24 32.46 33.46 33.70 M 28.18 42.34 C 28.42 44.00 28.65 45.68 28.51 47.36 C 30.29 45.93 32.26 44.74 33.87 43.11 C 32.68 41.97 31.42 40.92 30.11 39.94 C 29.62 40.54 28.66 41.74 28.18 42.34 M 46.14 44.49 C 44.92 45.48 46.50 47.66 47.80 46.69 C 49.06 45.73 47.42 43.54 46.14 44.49 M 59.57 50.33 C 61.27 52.66 63.63 54.40 66.43 55.17 C 64.54 53.04 62.00 51.72 59.57 50.33 M 88.31 57.26 C 87.18 57.21 85.79 59.72 87.63 59.60 C 88.73 59.58 90.21 57.17 88.31 57.26 M 84.84 81.68 C 86.42 81.66 88.00 81.57 89.59 81.51 C 90.88 79.94 92.10 78.33 93.23 76.65 C 92.50 76.71 91.04 76.85 90.31 76.92 C 89.21 79.32 87.42 81.05 84.84 81.68 M 72.20 95.26 C 72.86 95.91 72.86 95.91 72.20 95.26 Z" />
</g>
</svg>
