<?xml version="1.0" encoding="UTF-8" ?>
<!DOCTYPE svg PUBLIC "-//W3C//DTD SVG 1.1//EN" "http://www.w3.org/Graphics/SVG/1.1/DTD/svg11.dtd">
<svg width="128pt" height="128pt" viewBox="0 0 128 128" version="1.1" xmlns="http://www.w3.org/2000/svg">
<g id="#ffffffff">
<path fill="#ffffff" opacity="1.00" d=" M 82.95 14.87 C 88.03 13.13 93.47 13.09 98.74 13.77 C 101.56 15.46 103.29 18.35 105.63 20.57 C 112.88 23.02 120.81 22.61 128.00 25.38 L 128.00 27.83 C 121.47 26.87 114.92 25.61 108.31 25.37 C 103.64 26.87 99.04 28.65 94.51 30.54 C 94.46 31.01 94.38 31.94 94.33 32.40 C 102.02 31.91 106.49 40.19 105.77 47.01 C 105.61 54.85 100.78 61.59 95.31 66.80 C 95.70 63.05 97.83 59.95 99.82 56.89 C 96.88 59.84 95.58 63.75 94.81 67.72 C 90.91 73.93 86.54 80.05 80.62 84.51 C 83.07 80.61 85.96 77.00 88.46 73.12 C 86.80 74.01 85.20 74.98 83.58 75.92 C 83.92 74.54 84.27 73.17 84.61 71.79 C 83.62 73.90 83.22 76.55 81.29 78.03 C 77.10 80.23 72.60 82.52 69.95 86.61 C 69.41 85.77 68.84 84.94 68.28 84.11 C 66.78 84.38 65.29 84.68 63.81 85.02 C 62.57 86.71 61.18 88.29 60.14 90.12 C 57.68 94.11 58.27 99.01 57.38 103.45 C 56.68 106.68 57.82 109.94 57.43 113.15 C 56.94 113.52 55.95 114.25 55.46 114.62 C 53.35 106.21 55.34 97.69 55.92 89.25 C 57.04 87.10 58.66 85.23 59.61 82.97 C 57.54 83.89 55.12 84.80 54.30 87.14 C 51.71 93.30 49.12 99.50 47.65 106.05 C 47.19 110.96 47.74 115.90 47.60 120.82 C 47.02 120.79 45.87 120.72 45.30 120.68 C 44.40 113.66 43.57 106.17 46.54 99.51 C 47.27 94.63 48.67 89.91 51.35 85.71 C 46.03 88.58 39.19 86.73 34.70 83.08 C 30.53 83.08 26.48 83.80 22.50 84.99 C 23.33 83.92 24.09 82.78 24.67 81.54 C 23.25 81.47 21.82 81.39 20.40 81.32 C 21.26 79.42 22.44 77.70 23.61 75.99 C 22.03 77.09 20.35 78.05 18.63 78.93 C 15.79 80.42 14.27 83.66 11.29 84.92 C 8.46 83.59 11.87 80.60 12.80 78.91 C 12.60 78.45 12.19 77.53 11.99 77.07 C 10.39 77.41 8.79 77.75 7.19 78.08 C 7.63 77.46 8.50 76.22 8.94 75.60 C 7.32 75.42 5.70 75.25 4.09 75.01 C 5.38 73.88 6.69 72.78 7.98 71.66 C 6.39 71.69 4.81 71.68 3.22 71.64 C 3.36 69.53 5.61 69.07 7.03 67.99 C 5.30 65.01 3.39 62.13 1.58 59.19 C 2.36 58.49 3.17 57.84 4.02 57.24 C 6.95 58.75 8.85 61.45 10.72 64.05 C 10.35 61.96 9.92 59.88 9.46 57.81 C 11.07 58.55 12.67 59.31 14.35 59.90 C 12.47 58.66 10.38 57.83 8.32 56.97 C 7.36 54.62 6.29 52.31 5.60 49.86 C 6.85 48.98 8.20 48.26 9.53 47.51 C 14.15 52.27 21.00 54.27 27.49 53.47 C 32.60 50.90 37.74 48.35 42.95 45.97 C 47.99 43.62 52.84 40.62 58.27 39.27 C 61.57 39.27 64.89 39.59 68.11 38.61 C 75.07 38.78 82.07 40.95 87.58 45.31 C 88.43 43.92 89.32 42.56 90.18 41.18 C 89.27 41.74 88.36 42.32 87.46 42.89 C 84.53 39.62 80.61 37.20 78.46 33.29 C 77.43 31.37 77.60 29.12 77.39 27.02 C 75.79 28.89 74.23 30.79 72.56 32.59 C 74.24 26.41 77.39 20.10 83.69 17.56 C 83.44 16.66 83.19 15.77 82.95 14.87 M 95.31 18.08 C 93.26 19.17 94.06 21.27 94.83 22.92 C 96.25 22.51 97.66 22.07 99.06 21.60 C 98.90 19.63 97.75 17.02 95.31 18.08 M 96.24 34.42 C 95.89 35.85 96.38 36.37 97.71 35.98 C 98.08 34.55 97.59 34.03 96.24 34.42 M 32.31 60.02 C 31.77 61.44 32.21 61.91 33.62 61.43 C 34.16 59.99 33.72 59.52 32.31 60.02 M 41.99 81.66 C 40.45 83.23 43.46 84.54 44.35 83.00 C 45.63 81.39 42.94 80.34 41.99 81.66 M 68.33 82.07 C 68.27 85.55 71.29 80.44 68.33 82.07 Z" />
</g>
</svg>
