<?xml version="1.0" encoding="UTF-8" ?>
<!DOCTYPE svg PUBLIC "-//W3C//DTD SVG 1.1//EN" "http://www.w3.org/Graphics/SVG/1.1/DTD/svg11.dtd">
<svg width="128pt" height="128pt" viewBox="0 0 128 128" version="1.1" xmlns="http://www.w3.org/2000/svg">
<g id="#ffffffff">
<path fill="#ffffff" opacity="1.00" d=" M 61.80 0.00 L 67.61 0.00 C 68.36 6.56 65.75 12.77 64.16 18.99 C 66.59 14.91 67.45 10.21 67.76 5.54 C 68.39 5.46 69.65 5.30 70.28 5.22 C 70.74 10.41 69.63 15.59 66.82 20.00 C 67.97 19.35 69.10 18.67 70.25 18.01 C 71.97 20.90 68.77 23.13 66.92 24.90 C 59.64 30.80 52.50 37.31 43.75 40.95 C 42.76 41.81 41.98 42.88 41.13 43.87 C 44.29 42.20 47.66 40.94 51.17 40.24 C 51.63 41.03 52.10 41.81 52.58 42.58 C 52.47 41.41 52.36 40.25 52.25 39.09 C 54.00 37.64 55.88 36.27 58.20 35.94 C 58.25 36.59 58.35 37.90 58.41 38.56 C 58.03 33.38 64.82 34.29 67.65 36.42 C 70.58 38.91 75.21 40.12 75.61 44.57 C 81.17 42.51 87.23 42.66 93.07 42.89 C 96.90 43.02 100.69 44.98 102.93 48.09 C 104.61 51.78 104.63 55.98 104.25 59.95 C 103.87 64.26 100.54 67.70 100.58 72.10 C 100.63 75.80 100.69 79.52 100.13 83.19 C 98.91 91.79 100.51 100.43 100.39 109.05 C 100.20 112.95 101.76 116.59 102.35 120.38 C 101.07 120.02 99.97 119.32 99.02 118.42 C 97.96 119.28 96.87 120.14 95.54 120.55 C 95.40 117.94 96.10 115.42 97.11 113.04 C 95.59 110.26 95.04 107.15 95.35 104.01 C 95.79 98.47 95.11 92.93 95.24 87.39 C 95.64 83.96 93.67 80.89 92.41 77.84 C 90.93 87.09 94.85 96.43 92.80 105.66 C 92.11 108.64 92.94 111.86 91.53 114.67 C 91.95 115.41 92.37 116.14 92.78 116.88 C 91.53 118.74 90.16 120.71 87.74 121.04 C 87.20 117.78 89.53 115.07 90.01 111.98 C 90.43 108.50 90.42 104.97 89.85 101.51 C 89.06 96.13 89.81 90.65 88.98 85.26 C 85.38 83.47 83.17 79.78 79.42 78.27 C 79.26 76.90 79.09 75.53 78.87 74.17 C 78.77 74.82 78.56 76.13 78.46 76.78 C 77.36 77.28 76.26 77.77 75.16 78.26 C 73.89 85.39 73.39 92.77 70.68 99.55 C 69.30 103.68 70.12 108.14 69.22 112.37 C 68.33 116.21 69.44 120.16 68.67 124.02 C 65.23 123.32 65.34 119.49 64.56 116.80 C 66.68 109.07 65.32 100.93 65.74 93.00 C 65.14 88.28 66.91 83.85 67.63 79.28 C 65.99 79.97 64.64 81.15 63.25 82.22 C 62.21 76.84 56.93 74.33 53.84 70.28 C 55.45 73.15 57.61 75.64 59.84 78.04 C 59.29 78.70 58.74 79.36 58.20 80.02 C 59.26 80.65 60.32 81.29 61.38 81.94 C 61.55 90.97 61.56 100.00 61.42 109.03 C 61.44 111.23 59.64 112.95 59.49 115.13 C 59.30 117.32 59.68 119.50 59.86 121.68 C 57.25 123.59 54.85 125.76 52.52 128.00 L 50.62 128.00 C 51.24 126.17 51.68 124.28 52.43 122.49 C 56.28 119.61 56.78 114.44 57.43 110.03 C 56.41 101.06 55.93 92.01 55.30 83.00 C 54.01 75.94 45.45 72.25 46.33 64.44 C 44.99 63.95 43.63 63.48 42.27 63.04 C 44.34 67.81 43.25 72.99 43.36 78.00 C 40.83 75.76 41.69 72.32 41.78 69.34 C 40.41 70.14 39.24 71.79 37.48 71.58 C 36.37 70.07 35.43 68.44 34.39 66.88 C 35.62 65.77 36.84 64.65 38.06 63.53 C 38.61 64.96 39.13 66.41 39.63 67.87 C 39.95 67.59 40.60 67.04 40.93 66.76 C 40.48 65.24 40.08 63.70 39.71 62.15 C 34.49 62.65 31.33 67.61 26.61 69.44 C 24.21 69.25 21.82 68.93 19.44 68.62 C 16.85 67.64 16.73 64.18 18.16 62.19 C 21.95 56.74 26.73 52.08 30.99 47.02 C 32.38 45.18 34.55 44.36 36.76 44.05 C 35.23 43.10 33.81 42.00 32.42 40.86 C 33.26 41.93 34.10 43.00 34.92 44.09 C 31.46 45.31 27.81 45.87 24.21 46.48 C 21.61 46.93 19.03 45.81 16.43 46.38 C 14.23 44.65 12.02 42.93 10.05 40.94 C 13.39 39.03 16.84 40.15 19.96 41.82 C 16.20 37.35 13.54 31.97 13.71 25.99 C 14.22 26.10 15.26 26.31 15.77 26.41 C 16.60 29.26 16.35 32.44 17.99 35.01 C 19.32 37.70 21.58 39.74 23.96 41.48 C 25.12 40.94 26.27 40.39 27.42 39.84 C 25.57 38.14 22.16 37.65 21.95 34.70 C 26.89 35.43 31.10 38.56 36.07 39.15 C 32.85 35.10 26.54 33.84 24.87 28.64 C 25.35 28.72 26.30 28.89 26.78 28.98 C 31.10 32.31 35.74 35.22 39.94 38.71 C 37.68 33.29 35.52 27.81 32.23 22.91 C 32.44 22.58 32.84 21.93 33.04 21.61 C 36.68 23.50 37.74 28.44 40.93 31.10 C 41.92 27.27 41.40 23.30 41.30 19.40 C 41.89 19.12 43.07 18.56 43.66 18.27 C 43.54 14.78 42.71 11.17 43.96 7.77 C 47.75 11.20 45.90 16.91 46.53 21.41 C 47.25 21.96 47.97 22.50 48.69 23.06 C 48.03 27.39 47.09 31.72 45.18 35.70 C 44.54 35.79 43.25 35.96 42.61 36.05 C 46.11 37.38 48.99 34.47 51.70 32.70 C 56.85 28.71 58.10 21.88 58.69 15.78 C 58.48 10.34 60.76 5.26 61.80 0.00 M 96.83 46.79 C 98.09 49.48 100.78 51.21 101.92 54.08 C 102.15 50.88 100.59 46.79 96.83 46.79 M 34.96 49.52 C 34.11 50.83 34.05 52.36 34.23 53.87 C 36.45 53.29 37.74 51.14 39.84 50.28 C 38.15 50.77 36.49 50.24 34.96 49.52 M 76.23 61.33 C 74.69 64.34 79.62 61.27 76.23 61.33 M 59.18 63.37 C 57.71 66.38 62.55 63.35 59.18 63.37 Z" />
</g>
</svg>
