<?xml version="1.0" encoding="UTF-8" ?>
<!DOCTYPE svg PUBLIC "-//W3C//DTD SVG 1.1//EN" "http://www.w3.org/Graphics/SVG/1.1/DTD/svg11.dtd">
<svg width="128pt" height="128pt" viewBox="0 0 128 128" version="1.1" xmlns="http://www.w3.org/2000/svg">
<g id="#ffffffff">
<path fill="#ffffff" opacity="1.00" d=" M 9.36 5.81 C 11.60 9.94 14.42 13.93 18.65 16.21 C 16.92 12.90 14.91 9.75 13.30 6.39 C 13.88 6.56 15.03 6.91 15.61 7.08 C 17.67 9.88 19.05 13.16 21.53 15.65 C 20.83 13.39 19.55 11.24 19.70 8.80 C 23.37 10.96 23.47 15.79 26.43 18.55 C 30.29 22.39 33.37 26.97 37.53 30.51 C 38.58 31.53 39.09 32.95 39.87 34.17 C 43.76 41.36 51.22 45.73 55.00 53.01 C 56.66 54.76 56.45 57.16 56.56 59.39 C 59.04 60.42 62.18 61.29 64.47 59.36 C 66.54 57.33 69.10 59.00 71.14 60.09 C 73.17 60.23 75.23 60.16 77.19 60.80 C 75.35 61.78 73.41 62.54 71.48 63.32 C 70.60 67.47 66.01 71.08 68.15 75.56 C 68.27 74.34 68.53 71.90 68.65 70.68 C 72.24 73.68 76.64 75.87 79.33 79.82 C 78.03 79.64 76.74 79.41 75.46 79.14 C 75.54 79.59 75.71 80.49 75.79 80.94 C 72.76 83.62 69.75 86.30 66.72 88.97 C 68.92 87.68 70.89 86.04 72.81 84.38 C 73.79 85.38 74.77 86.37 75.82 87.31 C 74.97 86.16 74.07 85.05 73.17 83.94 C 75.34 82.77 77.51 81.57 79.40 79.98 C 81.44 82.62 84.25 84.39 87.18 85.89 C 89.56 87.65 92.05 89.22 94.50 90.89 C 95.29 90.60 96.08 90.32 96.87 90.05 C 99.24 92.02 101.51 94.16 104.20 95.70 C 110.72 99.92 116.43 105.24 122.90 109.55 C 121.73 110.38 120.56 110.45 119.40 109.76 C 116.81 108.34 114.55 106.40 111.99 104.94 C 116.03 108.00 120.60 111.54 121.13 116.98 C 117.95 115.94 115.48 113.63 113.16 111.32 C 112.72 113.92 110.38 114.22 108.19 113.94 C 108.26 113.38 108.39 112.28 108.45 111.73 C 108.08 112.04 107.34 112.67 106.97 112.98 C 105.90 112.06 104.84 111.15 103.74 110.27 C 106.92 114.00 110.64 117.70 112.06 122.48 C 109.59 121.50 108.02 119.35 106.53 117.27 C 105.64 117.75 104.75 118.24 103.86 118.73 C 103.19 116.80 102.63 114.84 102.16 112.86 C 99.64 113.83 98.22 116.04 96.75 118.16 C 96.63 116.79 96.55 115.42 96.51 114.04 C 95.12 113.73 93.73 113.37 92.36 112.97 C 92.76 111.58 93.25 110.22 93.76 108.87 C 93.50 108.69 92.98 108.34 92.71 108.16 C 91.73 109.39 91.96 112.90 89.98 112.51 C 89.16 110.55 88.29 108.61 87.51 106.63 C 86.27 107.33 85.02 108.01 83.77 108.67 C 83.58 107.36 83.38 106.05 83.18 104.75 C 82.91 105.48 82.38 106.96 82.11 107.70 C 80.26 106.50 78.29 105.49 76.47 104.26 C 75.19 102.31 76.08 100.14 76.54 98.10 C 75.34 99.01 74.20 100.01 73.06 100.99 C 70.22 99.05 68.25 95.40 64.38 95.59 C 61.52 93.94 59.11 91.30 56.00 89.85 C 56.33 89.38 56.66 88.90 57.00 88.42 C 56.16 87.06 56.40 85.49 56.49 83.99 C 54.69 84.77 52.82 85.38 51.03 86.17 C 47.88 90.76 46.12 96.12 44.17 101.29 C 43.66 103.49 41.14 103.92 39.49 105.01 C 40.05 103.04 40.62 101.07 40.83 99.03 C 38.79 100.46 37.20 102.67 34.64 103.24 C 34.93 101.41 35.35 99.61 35.72 97.81 C 34.10 99.42 32.82 101.74 30.22 101.71 C 30.85 100.26 31.68 98.91 32.70 97.71 C 30.95 97.58 29.21 97.38 27.45 97.29 C 27.84 94.20 27.71 91.05 25.62 88.57 C 24.27 88.64 22.91 88.66 21.56 88.59 C 23.50 86.80 26.36 85.78 27.13 83.01 C 25.80 82.09 24.45 81.15 23.71 79.66 C 29.77 79.65 35.70 78.76 41.60 77.43 C 41.99 76.47 42.39 75.52 42.79 74.57 C 40.41 74.86 38.14 74.16 36.27 72.68 C 35.25 70.65 34.37 68.45 34.11 66.18 C 34.71 64.23 35.76 62.46 36.39 60.53 C 35.29 62.26 34.48 64.15 33.57 65.98 C 29.65 64.94 29.04 60.86 26.35 58.43 C 26.18 54.09 22.42 51.42 21.20 47.49 C 20.08 44.15 16.89 40.31 20.20 37.25 C 19.08 37.82 18.00 39.50 16.67 38.41 C 15.24 34.23 13.30 30.27 11.70 26.17 C 8.14 22.47 6.87 17.25 3.11 13.72 C 6.48 14.93 9.35 17.12 12.40 18.94 C 10.69 15.37 6.25 13.68 5.44 9.71 C 9.12 10.83 11.29 14.38 14.65 16.11 C 13.19 13.95 11.33 12.13 9.49 10.30 C 9.47 8.81 9.42 7.31 9.36 5.81 M 65.26 60.33 C 65.31 60.85 65.42 61.89 65.47 62.41 C 65.99 62.50 67.04 62.68 67.57 62.77 C 67.58 62.08 67.60 60.69 67.61 60.00 C 67.02 60.08 65.85 60.25 65.26 60.33 M 46.69 74.20 C 48.82 72.47 51.05 70.52 51.41 67.62 C 49.27 69.35 47.92 71.79 46.69 74.20 M 56.38 68.99 C 55.82 70.46 56.22 70.91 57.59 70.35 C 58.16 68.86 57.76 68.41 56.38 68.99 M 47.09 75.52 C 46.18 76.63 46.41 77.33 47.80 77.62 C 48.71 76.51 48.47 75.81 47.09 75.52 M 30.37 83.23 C 30.51 86.62 33.25 81.61 30.37 83.23 M 82.81 87.93 C 84.66 88.90 86.50 89.91 88.40 90.77 C 87.34 88.61 85.34 86.52 82.81 87.93 M 71.33 88.15 C 71.34 91.55 74.26 86.66 71.33 88.15 M 97.13 92.46 C 96.06 93.37 97.68 95.19 98.79 94.51 C 99.87 93.57 98.25 91.78 97.13 92.46 M 89.87 102.34 C 92.15 99.92 93.27 96.67 93.99 93.48 C 92.32 96.28 90.99 99.29 89.87 102.34 Z" />
<path fill="#ffffff" opacity="1.00" d=" M 107.86 114.26 C 109.98 114.12 112.68 115.30 114.05 113.07 C 115.48 115.23 117.16 117.21 118.90 119.12 C 117.79 120.56 116.78 122.07 115.86 123.64 C 112.63 121.03 110.51 117.40 107.86 114.26 Z" />
</g>
</svg>
