<?xml version="1.0" encoding="UTF-8" ?>
<!DOCTYPE svg PUBLIC "-//W3C//DTD SVG 1.1//EN" "http://www.w3.org/Graphics/SVG/1.1/DTD/svg11.dtd">
<svg width="200pt" height="200pt" viewBox="0 0 200 200" version="1.1" xmlns="http://www.w3.org/2000/svg">
<g id="#ffffffff">
<path fill="#ffffff" opacity="1.00" d=" M 41.85 47.21 C 46.55 48.75 50.44 51.93 54.48 54.67 C 59.65 58.96 65.71 61.95 71.01 66.07 C 72.56 64.92 74.31 64.33 76.25 64.52 C 75.51 66.41 74.69 68.29 74.52 70.33 C 78.57 69.33 79.19 62.65 84.13 63.61 C 84.26 64.16 84.53 65.24 84.67 65.78 C 82.85 67.75 81.15 69.80 79.51 71.92 C 79.96 72.58 80.86 73.90 81.31 74.56 C 83.57 72.33 85.43 69.76 87.49 67.35 C 89.03 67.31 90.57 67.29 92.12 67.31 C 90.69 70.84 87.52 73.21 85.33 76.23 C 86.22 77.13 87.10 78.05 87.97 78.97 C 90.89 74.55 94.43 70.45 99.05 67.74 C 99.74 67.96 101.12 68.40 101.81 68.63 C 101.76 69.13 101.68 70.14 101.64 70.64 C 97.79 73.55 94.21 76.96 91.68 81.08 C 91.74 81.66 91.84 82.83 91.90 83.41 C 96.64 81.03 98.41 73.55 104.55 74.16 C 104.87 74.72 105.51 75.86 105.83 76.42 C 106.67 76.49 108.36 76.64 109.20 76.72 C 108.03 80.27 103.79 81.58 102.86 85.22 C 106.20 83.01 108.52 79.46 112.27 77.76 C 112.30 78.51 112.36 80.01 112.39 80.77 C 116.46 78.07 120.58 74.56 125.62 74.29 C 123.31 80.51 115.14 81.22 111.98 86.88 C 117.69 84.63 122.51 80.22 126.25 75.40 C 127.19 76.22 128.14 77.04 129.09 77.85 C 127.64 79.54 126.18 81.23 124.96 83.10 C 125.63 83.13 126.31 83.15 126.98 83.17 C 127.47 85.60 129.98 84.29 131.47 83.63 C 143.65 77.03 156.76 72.38 169.19 66.31 C 174.32 64.60 179.38 62.69 184.21 60.24 C 185.85 59.52 186.81 61.22 187.95 62.05 C 184.03 64.39 179.71 65.90 175.44 67.46 C 175.34 68.07 175.14 69.31 175.04 69.93 C 177.59 69.20 179.97 68.03 182.32 66.83 C 182.05 67.45 181.53 68.71 181.27 69.33 C 178.71 70.06 176.35 71.30 174.08 72.69 C 174.24 71.89 174.56 70.29 174.72 69.49 C 172.69 71.02 170.93 73.04 168.44 73.81 C 164.66 74.90 161.99 78.16 158.18 79.17 C 153.86 80.41 149.83 82.43 145.48 83.53 C 141.81 85.65 138.08 87.66 134.14 89.24 C 134.47 90.98 133.72 93.31 135.42 94.50 C 136.72 95.61 138.52 95.46 140.11 95.66 C 139.91 96.15 139.50 97.14 139.30 97.64 C 136.55 97.65 134.18 96.11 131.52 95.68 C 135.58 100.29 139.29 105.86 145.22 108.19 C 148.28 109.10 151.43 108.36 154.35 107.33 C 154.76 108.16 155.19 108.98 155.62 109.80 C 155.60 109.16 155.57 107.88 155.56 107.23 C 157.39 106.40 159.30 105.79 161.22 105.17 C 161.31 105.91 161.49 107.38 161.58 108.11 C 161.56 107.36 161.53 105.85 161.52 105.10 C 171.04 104.39 180.67 100.73 190.17 103.57 C 190.42 104.25 190.90 105.62 191.15 106.30 C 184.13 106.88 176.54 105.06 170.00 108.34 C 175.45 108.39 180.97 107.74 186.36 108.62 C 188.32 108.82 188.23 110.94 188.35 112.42 C 186.11 112.64 183.94 112.24 181.90 111.31 C 184.01 112.40 186.03 113.64 187.96 115.02 C 186.76 116.99 184.37 117.21 182.45 118.11 C 184.43 118.66 188.06 117.83 187.48 121.02 C 184.62 122.21 181.35 123.04 178.37 121.75 C 176.71 121.00 174.95 121.14 173.29 121.77 C 172.01 119.60 169.28 119.56 167.06 119.37 C 167.32 120.23 167.59 121.09 167.87 121.95 C 169.24 121.55 170.61 121.13 171.98 120.71 C 171.28 121.59 170.56 122.45 169.91 123.37 C 174.22 124.39 178.69 125.47 182.52 127.73 C 183.69 129.93 180.22 130.78 180.32 132.88 C 180.33 133.80 180.38 134.72 180.48 135.64 C 173.42 136.35 166.37 134.32 160.82 129.91 C 161.25 128.96 162.10 127.08 162.53 126.13 C 164.11 129.14 166.94 130.30 170.15 130.59 C 167.50 128.16 162.82 127.91 162.03 123.87 C 161.39 124.61 160.76 125.35 160.13 126.10 C 159.59 125.79 158.51 125.18 157.98 124.87 C 157.72 125.47 157.20 126.66 156.94 127.26 C 154.54 126.97 151.89 128.06 149.73 126.68 C 146.55 128.53 142.95 127.71 140.13 125.61 C 139.91 125.72 139.47 125.94 139.26 126.05 C 140.42 126.71 141.71 127.22 142.67 128.20 C 146.91 132.34 151.84 135.74 155.86 140.11 C 158.75 143.87 162.47 146.86 165.74 150.27 C 168.71 153.42 172.79 155.83 174.05 160.25 C 172.25 160.60 170.52 161.16 168.95 162.12 C 163.02 158.34 156.94 154.27 152.55 148.71 C 152.55 147.96 152.56 146.46 152.57 145.71 C 153.85 147.01 155.18 148.26 156.58 149.44 C 155.01 146.17 151.81 144.18 149.51 141.48 C 145.81 138.38 142.61 134.43 138.08 132.50 C 139.93 134.13 141.88 135.63 143.95 136.98 C 143.76 137.70 143.56 138.42 143.37 139.14 C 146.42 139.12 148.33 141.83 150.49 143.58 C 152.04 144.67 151.77 146.75 152.39 148.35 C 146.47 144.59 141.04 140.00 136.28 134.86 C 135.38 137.41 135.57 140.13 135.54 142.79 C 134.57 142.72 133.60 142.66 132.64 142.60 C 132.99 141.30 133.33 140.00 133.69 138.70 C 130.56 137.58 127.78 135.73 124.71 134.49 C 124.78 134.15 124.92 133.46 125.00 133.11 C 126.76 132.12 128.51 131.10 130.09 129.82 C 128.14 127.93 126.08 126.16 123.94 124.50 C 123.72 126.12 123.46 127.74 123.01 129.33 C 123.63 130.24 124.24 131.17 124.86 132.09 C 122.11 133.46 123.66 136.17 125.83 137.08 C 128.27 139.03 133.76 138.49 132.59 142.88 C 130.51 142.19 128.49 141.35 126.46 140.55 C 120.53 139.11 116.98 133.37 115.16 127.93 C 116.03 126.96 116.92 126.00 117.83 125.07 C 115.88 125.63 113.90 126.11 111.92 126.58 C 112.88 126.58 114.80 126.59 115.77 126.59 C 115.15 129.01 112.14 129.72 110.58 127.83 C 110.54 128.21 110.46 128.97 110.42 129.35 C 105.79 131.13 100.92 132.36 95.97 132.90 C 94.28 133.01 92.90 133.94 91.61 134.94 C 92.59 137.02 93.20 139.45 91.12 141.13 C 89.79 139.94 88.47 138.71 87.90 136.98 C 87.05 136.79 85.35 136.42 84.50 136.23 C 86.01 135.25 88.41 134.76 87.77 132.43 C 86.07 133.80 84.71 135.54 82.86 136.73 C 82.74 135.97 82.49 134.45 82.36 133.69 C 80.61 133.64 79.13 132.80 78.40 131.17 C 78.08 134.28 76.75 137.22 75.11 139.85 C 75.35 140.48 75.84 141.74 76.08 142.37 C 76.58 141.17 77.05 139.96 77.55 138.76 C 79.51 138.33 81.40 137.68 83.35 137.20 C 82.01 138.92 80.09 140.05 78.54 141.57 C 81.74 141.51 84.83 142.35 87.91 143.11 C 86.53 141.68 85.06 140.25 84.53 138.26 C 87.66 138.80 90.77 140.39 92.72 142.91 C 92.41 145.12 90.11 145.53 88.38 146.22 C 86.22 146.87 84.12 147.75 81.92 148.29 C 76.99 147.08 72.55 144.36 68.34 141.58 C 68.22 140.89 67.97 139.51 67.85 138.83 C 70.06 139.90 72.28 140.97 74.65 141.67 C 74.24 138.38 70.43 139.36 68.60 137.46 C 65.58 134.86 62.64 132.16 59.82 129.35 C 53.29 133.30 46.94 137.53 40.78 142.04 C 39.74 141.75 38.70 141.46 37.65 141.18 C 37.66 142.59 37.71 144.31 36.06 144.86 C 31.49 147.19 28.08 151.24 23.40 153.38 C 20.29 154.94 17.71 157.30 15.09 159.55 C 14.29 159.15 12.68 158.34 11.88 157.94 C 14.33 154.58 18.43 153.09 21.60 150.53 C 25.08 147.55 29.10 145.18 32.13 141.68 C 29.16 142.92 26.64 144.94 23.83 146.47 C 23.53 145.39 23.27 144.31 23.07 143.21 C 29.26 138.46 35.99 134.43 42.90 130.79 C 38.96 128.93 34.87 127.34 31.27 124.85 C 28.56 122.59 24.77 122.84 21.78 121.13 C 19.22 119.66 16.66 118.19 14.00 116.90 C 14.15 115.02 14.30 113.13 14.56 111.26 C 13.90 110.90 12.57 110.16 11.91 109.79 C 12.95 106.34 14.21 101.56 18.57 101.31 C 19.24 104.17 17.16 106.24 15.26 108.01 C 16.93 109.76 17.84 111.93 17.62 114.37 C 22.44 116.70 26.88 119.84 32.08 121.38 C 33.63 118.57 34.39 115.44 34.59 112.26 C 35.31 111.97 36.74 111.41 37.45 111.13 C 36.92 114.56 36.64 118.02 36.80 121.50 C 35.34 121.55 33.86 121.69 32.72 122.72 C 35.97 124.64 38.51 121.80 40.95 120.01 C 44.73 117.75 46.17 113.35 48.87 110.07 C 45.79 106.84 40.53 106.82 38.05 102.90 C 36.28 101.18 37.77 98.81 37.94 96.80 C 33.67 100.07 27.84 99.24 23.54 102.26 C 25.18 102.31 26.82 102.34 28.46 102.35 C 29.13 105.30 27.98 108.05 25.78 110.01 C 23.38 109.33 21.35 107.96 19.88 105.93 C 20.14 107.33 20.43 108.73 20.71 110.14 C 20.06 109.96 18.78 109.62 18.14 109.44 C 17.91 106.43 19.81 104.01 23.01 104.43 C 22.93 103.89 22.76 102.82 22.67 102.28 C 21.67 102.83 20.68 103.38 19.67 103.91 C 19.74 102.55 18.46 100.11 20.53 99.67 C 24.34 98.03 28.08 96.17 32.11 95.11 C 34.32 94.63 35.77 92.78 37.57 91.56 C 41.81 88.58 46.09 85.33 51.27 84.19 C 49.68 79.93 50.73 75.33 50.81 70.93 C 51.16 70.68 51.84 70.19 52.19 69.94 C 50.98 66.81 47.95 65.44 45.04 64.24 C 44.47 68.13 45.83 73.75 40.84 75.13 C 33.91 75.80 26.88 75.18 19.91 75.46 C 17.29 71.32 17.00 66.31 15.07 61.86 C 13.70 59.93 15.67 58.49 16.74 57.05 C 18.60 59.04 20.50 61.00 22.50 62.86 C 23.47 59.85 23.75 56.62 25.11 53.74 C 26.56 53.52 27.88 54.36 29.25 54.69 C 29.76 56.24 30.27 57.79 30.81 59.33 C 31.47 56.58 32.68 54.03 34.99 52.30 C 35.77 52.79 36.55 53.28 37.34 53.76 C 37.57 55.24 37.77 56.72 38.01 58.20 C 39.79 55.81 41.85 52.66 45.33 53.33 C 45.55 55.93 45.62 58.53 45.73 61.13 C 50.46 62.87 54.48 66.01 59.09 68.00 C 57.76 66.10 55.61 65.28 53.62 64.29 C 52.72 61.59 51.91 58.86 50.54 56.35 C 47.64 53.86 44.31 51.88 41.12 49.77 C 41.30 49.13 41.67 47.85 41.85 47.21 M 24.87 67.72 C 23.56 67.52 22.26 67.29 20.96 67.07 C 21.20 68.67 21.45 70.27 21.59 71.88 C 27.90 71.58 34.21 71.43 40.52 71.45 C 40.53 69.08 40.68 66.72 40.87 64.36 C 37.88 64.99 35.51 63.50 34.13 60.91 C 33.84 62.43 33.53 63.95 33.20 65.46 C 30.59 64.47 28.42 62.65 26.95 60.27 C 26.46 62.81 25.70 65.28 24.87 67.72 M 53.96 71.08 C 53.38 75.23 53.93 79.43 53.65 83.59 C 54.38 83.02 55.11 82.45 55.84 81.87 C 55.73 78.64 56.50 75.47 56.57 72.26 C 56.31 70.74 55.44 70.35 53.96 71.08 M 63.76 75.94 C 63.64 77.86 63.39 79.77 63.22 81.68 C 63.81 81.59 65.00 81.41 65.59 81.32 C 65.94 79.18 66.01 76.97 63.76 75.94 M 56.56 87.02 C 59.51 86.70 62.46 85.72 64.88 88.30 C 62.52 90.49 59.16 90.28 56.23 90.95 C 53.07 93.31 49.64 95.24 46.20 97.14 C 45.63 96.77 44.50 96.03 43.93 95.66 C 44.20 96.26 44.73 97.45 44.99 98.05 C 43.96 98.62 42.93 99.20 41.90 99.77 C 40.89 97.92 39.92 96.01 38.39 94.53 C 38.91 96.80 39.22 99.34 40.95 101.07 C 42.91 103.49 46.40 103.38 48.78 105.20 C 51.42 107.76 56.45 107.01 57.87 110.98 C 56.80 114.33 54.28 117.05 51.04 118.44 C 50.53 115.39 52.71 113.27 54.04 110.82 C 51.51 113.71 49.68 117.15 46.50 119.47 C 48.58 119.50 50.64 119.79 52.72 119.81 C 54.64 118.69 56.25 117.13 58.08 115.88 C 59.53 116.16 60.17 117.52 60.97 118.59 C 69.11 116.29 75.57 110.32 83.29 107.04 C 87.23 105.60 90.84 103.45 94.47 101.38 C 93.76 99.59 92.74 97.98 91.00 97.02 C 87.21 94.78 84.67 90.39 80.03 89.74 C 75.21 89.51 70.29 88.91 65.65 90.63 C 65.09 88.56 65.89 86.64 66.75 84.79 C 65.52 85.43 64.31 86.09 63.09 86.75 C 62.72 86.12 61.98 84.85 61.61 84.22 C 59.84 84.99 58.04 85.75 56.56 87.02 M 67.08 87.69 C 69.43 87.95 71.77 87.56 73.58 85.93 C 71.04 84.71 68.73 85.62 67.08 87.69 M 45.45 92.78 C 44.54 92.64 43.63 92.50 42.72 92.36 C 43.47 93.63 44.22 94.90 44.99 96.17 C 46.72 94.66 47.68 92.56 48.91 90.67 C 50.73 87.98 55.37 90.99 56.77 88.02 C 56.55 87.79 56.12 87.33 55.90 87.10 C 52.22 88.49 47.26 88.71 45.45 92.78 M 89.97 89.72 C 89.52 90.22 88.62 91.21 88.17 91.70 C 91.50 92.81 93.90 95.40 96.52 97.59 C 97.76 97.71 99.01 97.56 100.26 97.52 C 97.08 94.59 93.44 92.27 89.97 89.72 M 101.50 89.59 C 103.36 91.46 105.35 93.20 107.08 95.21 C 110.32 93.45 113.58 91.51 117.25 90.80 C 113.88 90.49 109.75 89.57 107.22 92.52 C 105.88 90.54 104.11 88.93 101.50 89.59 M 112.47 100.69 C 113.65 100.43 114.82 100.16 115.99 99.87 C 115.65 100.77 115.31 101.68 114.97 102.59 C 116.36 103.61 117.72 104.68 119.07 105.76 C 119.57 105.39 120.55 104.64 121.04 104.26 C 120.78 105.11 120.51 105.95 120.23 106.79 C 123.95 110.71 127.64 114.69 131.64 118.33 C 136.68 122.39 143.46 120.32 149.30 120.17 C 145.78 117.02 141.01 115.72 137.70 112.27 C 134.64 109.14 129.96 106.80 129.07 102.21 C 130.91 103.37 132.61 104.96 134.94 104.78 C 132.54 102.72 130.18 100.60 127.75 98.57 C 127.05 98.64 125.64 98.78 124.94 98.85 L 124.13 99.35 C 124.53 100.07 125.32 101.50 125.72 102.21 C 124.58 100.72 123.08 99.80 121.20 100.52 C 121.66 100.19 122.58 99.53 123.04 99.20 C 122.82 98.40 122.36 96.80 122.14 96.01 C 122.97 96.69 123.51 98.26 124.84 97.85 C 125.49 96.24 123.74 95.23 123.00 94.02 C 120.04 97.13 115.22 97.35 112.47 100.69 M 97.17 104.37 C 97.83 105.02 97.83 105.02 97.17 104.37 M 134.43 106.40 C 136.99 109.11 140.46 110.84 143.92 112.09 C 145.99 113.17 147.88 112.03 149.45 110.68 C 144.03 111.25 139.08 108.85 134.43 106.40 M 91.40 107.37 C 88.40 108.63 92.45 110.61 93.44 108.38 C 94.84 106.82 92.26 106.64 91.40 107.37 M 99.28 108.22 C 98.10 108.62 96.69 111.31 98.48 111.68 C 99.35 111.12 100.81 108.60 99.28 108.22 M 105.05 108.90 C 103.72 110.31 102.69 111.94 101.92 113.71 C 103.72 113.60 105.52 113.42 107.29 113.05 C 104.67 114.47 103.10 116.88 102.80 119.85 C 105.83 117.83 108.99 116.04 112.07 114.10 C 109.66 112.46 107.25 110.81 105.05 108.90 M 94.19 110.11 C 94.86 110.78 94.86 110.78 94.19 110.11 M 85.59 115.92 C 87.63 115.14 90.32 114.95 91.34 112.71 C 92.04 112.67 93.43 112.61 94.13 112.58 C 93.82 112.09 93.18 111.12 92.87 110.63 C 90.22 112.07 87.75 113.82 85.59 115.92 M 71.66 119.18 C 74.20 118.76 76.74 118.36 79.31 118.17 C 76.38 119.94 73.24 121.30 70.18 122.82 C 71.67 124.52 73.22 126.16 74.83 127.74 C 74.75 129.05 74.64 130.35 74.53 131.66 C 75.10 132.14 75.66 132.63 76.23 133.11 C 76.39 131.85 75.75 129.05 77.94 129.56 C 81.57 130.55 84.58 127.98 88.03 127.53 C 93.61 127.44 97.98 123.49 103.06 121.71 C 102.02 121.33 100.97 120.97 99.93 120.60 C 97.82 123.93 93.03 124.24 89.98 126.63 C 87.32 124.45 85.20 121.76 83.22 118.97 C 83.92 117.86 84.61 116.73 85.26 115.59 C 83.04 116.16 80.85 116.85 78.64 117.45 C 80.38 115.41 82.50 113.76 84.38 111.87 C 79.80 113.65 75.69 116.41 71.66 119.18 M 160.00 112.26 C 158.40 115.24 163.40 112.34 160.00 112.26 M 160.94 114.67 C 156.75 114.49 152.69 115.32 148.54 115.71 C 152.26 117.76 156.25 119.27 160.26 120.66 C 162.33 120.47 164.39 120.16 166.47 120.48 C 165.68 119.66 164.88 118.86 164.09 118.06 C 164.46 116.10 164.70 114.13 165.05 112.17 C 163.91 113.34 162.80 114.92 160.94 114.67 M 108.22 119.24 C 108.83 119.85 108.83 119.85 108.22 119.24 M 69.27 120.30 C 69.22 123.67 72.33 118.80 69.27 120.30 M 116.50 123.47 C 117.72 123.05 118.93 122.61 120.14 122.14 C 119.51 124.34 118.84 126.53 118.33 128.76 C 119.02 129.76 119.68 130.78 120.32 131.82 C 120.27 129.82 120.65 127.87 121.35 126.00 C 121.04 124.36 120.57 122.75 120.20 121.11 C 118.94 121.87 117.70 122.64 116.50 123.47 M 41.60 126.26 C 44.26 125.85 46.51 124.14 47.70 121.75 C 45.43 122.89 43.35 124.40 41.60 126.26 M 100.75 126.48 C 104.00 125.40 107.91 124.77 109.71 121.47 C 106.22 122.07 103.74 124.81 100.75 126.48 M 64.78 123.11 C 66.95 125.37 68.33 128.89 71.64 129.66 C 70.19 126.71 67.61 124.64 64.78 123.11 M 60.56 124.77 C 62.61 129.46 67.59 131.62 71.25 134.84 C 72.23 135.85 75.47 136.62 74.58 134.24 C 69.98 131.01 65.35 127.75 60.56 124.77 M 46.22 135.27 C 46.84 135.90 46.84 135.90 46.22 135.27 M 157.22 150.22 C 157.86 150.86 157.86 150.86 157.22 150.22 M 158.22 152.20 C 158.85 152.82 158.85 152.82 158.22 152.20 Z" />
<path fill="#ffffff" opacity="1.00" d=" M 183.00 66.29 C 184.76 65.82 185.35 66.33 184.77 67.82 C 183.02 68.31 182.43 67.80 183.00 66.29 Z" />
<path fill="#ffffff" opacity="1.00" d=" M 34.64 105.61 C 35.18 105.31 36.27 104.69 36.81 104.39 C 36.60 106.49 36.53 108.60 36.47 110.71 C 32.99 111.21 34.81 107.67 34.64 105.61 Z" />
<path fill="#ffffff" opacity="1.00" d=" M 21.24 113.22 C 21.90 113.87 21.90 113.87 21.24 113.22 Z" />
</g>
</svg>
