<?xml version="1.0" encoding="UTF-8" ?>
<!DOCTYPE svg PUBLIC "-//W3C//DTD SVG 1.1//EN" "http://www.w3.org/Graphics/SVG/1.1/DTD/svg11.dtd">
<svg width="128pt" height="128pt" viewBox="0 0 128 128" version="1.1" xmlns="http://www.w3.org/2000/svg">
<g id="#ffffffff">
<path fill="#ffffff" opacity="1.00" d=" M 93.37 13.04 C 94.26 12.15 95.15 11.25 96.04 10.36 C 99.13 11.38 100.17 14.55 101.48 17.18 C 100.52 15.07 100.31 12.81 100.74 10.52 C 102.76 11.15 105.51 11.11 106.53 13.34 C 107.54 15.28 108.70 17.10 110.27 18.64 C 112.19 22.28 112.70 26.48 113.81 30.40 C 115.90 33.65 118.01 37.01 118.25 40.99 C 118.41 44.58 121.34 47.27 121.44 50.88 C 121.27 52.81 122.89 53.96 124.07 55.20 C 122.93 58.40 120.13 60.46 118.36 63.25 C 116.87 65.82 114.20 67.49 113.08 70.30 C 114.80 70.43 116.53 70.59 118.26 70.76 C 116.05 72.40 113.22 72.68 110.84 73.94 C 109.51 75.20 108.38 76.64 107.04 77.90 C 106.36 76.67 105.69 75.45 105.05 74.20 C 104.12 76.95 101.43 79.08 101.60 82.15 C 102.14 85.30 97.63 86.78 98.59 89.97 C 99.52 94.50 99.95 99.30 98.98 103.83 C 97.65 108.16 92.86 105.83 89.62 106.47 C 87.41 106.31 83.94 107.90 83.15 104.91 C 85.12 103.05 88.08 103.32 90.28 101.89 C 90.59 99.57 90.48 97.22 90.41 94.89 C 84.36 96.87 78.18 98.43 71.94 99.69 C 68.81 97.27 64.76 99.01 61.19 98.26 C 58.24 97.55 55.37 96.53 52.38 95.99 C 52.93 98.64 53.90 101.19 54.47 103.84 C 53.38 106.66 50.21 108.38 47.25 107.67 C 44.79 104.78 49.97 103.73 49.99 101.04 C 50.65 99.45 48.74 98.58 47.99 97.43 C 48.38 103.02 44.18 107.79 38.51 107.89 C 38.46 106.85 38.36 104.78 38.30 103.74 C 40.00 103.18 41.70 102.61 43.38 101.98 C 43.27 98.92 43.70 95.28 41.95 92.68 C 37.24 92.05 32.53 92.99 28.32 95.15 C 24.10 97.21 19.23 96.62 14.93 95.17 C 16.77 92.29 19.88 90.50 21.56 87.51 C 22.63 85.73 22.76 83.59 23.67 81.74 C 26.48 78.37 30.66 76.64 34.43 74.60 C 37.05 73.01 40.15 73.38 43.07 73.40 C 50.36 70.81 58.17 70.33 65.72 68.86 C 67.88 68.14 69.77 66.55 72.13 66.52 C 76.20 66.29 79.69 64.09 83.26 62.41 C 86.49 62.35 89.72 62.34 92.95 62.27 C 95.43 62.96 97.85 63.91 100.48 63.80 C 100.28 60.88 99.88 57.84 100.98 55.03 C 102.25 52.09 100.22 49.07 100.62 46.05 C 101.05 43.11 101.88 40.10 101.12 37.14 C 99.09 31.75 95.05 27.32 93.32 21.81 C 93.72 18.90 93.90 15.95 93.37 13.04 M 89.91 68.46 C 89.39 70.08 89.95 70.63 91.58 70.12 C 92.10 68.49 91.54 67.94 89.91 68.46 M 64.99 84.95 C 69.83 83.76 74.18 81.14 78.16 78.20 C 73.47 79.77 68.84 81.80 64.99 84.95 Z" />
</g>
</svg>
