<?xml version="1.0" encoding="UTF-8" ?>
<!DOCTYPE svg PUBLIC "-//W3C//DTD SVG 1.1//EN" "http://www.w3.org/Graphics/SVG/1.1/DTD/svg11.dtd">
<svg width="128pt" height="128pt" viewBox="0 0 128 128" version="1.1" xmlns="http://www.w3.org/2000/svg">
<g id="#ffffffff">
<path fill="#ffffff" opacity="1.00" d=" M 90.96 8.47 C 97.08 8.53 103.03 4.39 109.09 5.99 L 109.74 6.98 C 104.24 10.04 96.58 9.14 92.50 14.51 C 89.87 16.55 88.02 19.37 85.83 21.84 C 84.17 23.45 83.63 26.15 84.81 28.20 C 87.05 32.60 88.89 37.20 90.26 41.95 C 91.43 46.59 90.16 51.35 89.43 55.94 C 89.18 57.59 87.21 58.20 86.74 59.76 C 84.36 65.82 80.44 71.16 78.28 77.30 C 74.61 81.92 69.96 85.64 65.58 89.56 C 66.00 94.69 64.40 99.77 64.87 104.82 C 66.16 108.36 71.54 105.42 72.30 109.31 C 69.20 110.05 66.12 108.97 63.35 107.66 C 61.63 102.19 62.85 96.16 62.70 90.47 C 62.19 90.91 61.15 91.79 60.63 92.23 C 60.32 97.14 60.73 102.07 60.60 106.99 C 64.63 109.10 69.02 110.13 73.45 110.96 C 71.58 113.36 68.58 112.18 66.03 112.23 C 62.25 112.20 58.43 112.48 54.71 111.58 C 55.59 110.31 56.98 109.68 58.37 109.15 C 57.08 104.53 57.82 99.73 57.92 95.01 C 56.90 94.46 55.90 93.89 54.90 93.31 C 53.57 94.15 52.18 94.98 51.25 96.29 C 46.32 102.66 41.26 108.94 36.30 115.29 C 34.23 117.88 32.52 121.13 29.27 122.40 C 26.79 123.75 24.45 125.33 21.95 126.64 C 21.45 126.18 20.45 125.25 19.95 124.79 C 23.28 120.83 27.71 118.02 31.23 114.26 C 34.16 106.67 40.76 101.27 43.77 93.73 C 45.34 90.43 46.08 86.82 47.59 83.49 C 53.97 69.70 62.61 57.15 70.30 44.09 C 72.10 44.30 73.90 44.49 75.68 44.80 C 76.99 42.77 78.74 41.04 79.90 38.91 C 78.96 36.68 77.59 34.56 77.68 32.03 C 77.61 26.16 77.11 20.32 77.02 14.46 C 78.44 14.23 79.86 13.97 81.26 13.65 C 80.12 13.64 77.84 13.61 76.70 13.60 C 77.91 12.11 79.41 10.29 81.57 10.56 C 84.85 10.70 87.71 8.59 90.96 8.47 M 85.10 17.10 C 86.07 15.16 86.57 13.04 86.75 10.87 C 84.29 11.88 82.22 15.21 85.10 17.10 M 77.97 46.42 C 76.51 49.38 81.39 46.44 77.97 46.42 M 67.63 63.55 C 64.84 68.27 61.49 72.64 58.90 77.48 C 61.28 76.01 62.65 73.50 64.15 71.24 C 67.89 65.18 72.24 59.43 74.99 52.83 C 72.05 56.05 70.09 59.98 67.63 63.55 M 76.01 55.14 C 74.78 55.85 74.76 56.60 75.95 57.38 C 77.17 56.63 77.19 55.88 76.01 55.14 Z" />
</g>
</svg>
