<?xml version="1.0" encoding="UTF-8" ?>
<!DOCTYPE svg PUBLIC "-//W3C//DTD SVG 1.1//EN" "http://www.w3.org/Graphics/SVG/1.1/DTD/svg11.dtd">
<svg width="128pt" height="128pt" viewBox="0 0 128 128" version="1.1" xmlns="http://www.w3.org/2000/svg">
<g id="#ffffffff">
<path fill="#ffffff" opacity="1.00" d=" M 21.00 26.46 C 24.42 26.68 28.15 26.07 31.31 27.61 C 33.36 30.23 34.02 33.55 34.59 36.75 C 35.64 42.15 38.50 46.92 41.19 51.64 C 46.48 49.29 52.30 48.81 57.99 48.26 C 63.70 46.79 70.21 49.78 73.06 54.88 C 74.90 59.02 79.91 61.45 79.40 66.59 C 85.55 66.34 91.38 69.21 97.22 70.83 C 102.65 73.38 108.67 73.90 114.30 75.84 C 114.45 76.79 114.61 77.75 114.76 78.71 C 110.95 78.50 106.95 79.38 103.49 77.29 C 104.92 79.78 108.32 78.94 110.68 79.76 C 110.77 80.47 110.96 81.90 111.05 82.62 C 109.87 82.51 108.69 82.42 107.51 82.35 C 108.67 83.26 109.91 84.05 111.07 84.97 C 110.75 86.64 108.92 86.82 107.73 87.64 C 106.76 88.61 105.94 89.73 105.06 90.79 C 103.08 89.75 101.11 88.67 99.24 87.43 C 98.55 88.43 97.85 89.43 97.14 90.43 C 92.63 88.51 87.46 88.43 83.27 85.71 C 80.11 83.68 76.46 82.68 72.99 81.31 C 69.47 83.83 64.14 83.05 61.22 86.21 C 61.58 92.08 62.12 98.07 60.86 103.88 C 60.24 103.76 59.00 103.51 58.38 103.39 C 58.42 97.62 58.47 91.86 58.29 86.09 C 55.97 86.34 53.64 86.56 51.31 86.76 C 52.05 93.44 52.38 100.13 52.75 106.83 C 52.18 106.79 51.04 106.71 50.48 106.67 C 48.21 100.20 46.94 93.44 46.42 86.61 C 45.20 86.68 43.97 86.66 42.75 86.69 C 39.99 81.47 32.88 83.45 28.60 80.33 C 24.05 76.89 19.70 72.70 17.90 67.13 C 16.74 63.94 13.69 59.70 17.21 56.93 C 17.40 57.67 17.78 59.16 17.97 59.90 C 18.07 59.58 18.28 58.93 18.38 58.61 C 17.85 57.22 17.34 55.83 16.89 54.41 C 17.95 54.05 19.01 53.69 20.08 53.33 C 19.29 53.42 17.70 53.61 16.91 53.70 C 15.99 48.91 17.64 44.21 17.75 39.43 C 16.18 39.37 14.61 39.33 13.05 39.31 C 13.12 38.22 13.16 37.12 13.15 36.03 C 15.07 34.58 17.11 33.28 18.89 31.66 C 19.99 30.13 20.31 28.19 21.00 26.46 M 22.54 33.00 C 22.24 35.30 24.98 35.53 26.59 34.94 C 26.64 33.61 26.71 32.28 26.80 30.95 C 25.10 30.44 22.30 30.55 22.54 33.00 Z" />
</g>
</svg>
