<?xml version="1.0" encoding="UTF-8" ?>
<!DOCTYPE svg PUBLIC "-//W3C//DTD SVG 1.1//EN" "http://www.w3.org/Graphics/SVG/1.1/DTD/svg11.dtd">
<svg width="180pt" height="180pt" viewBox="0 0 180 180" version="1.1" xmlns="http://www.w3.org/2000/svg">
<g id="#ffffffff">
<path fill="#ffffff" opacity="1.00" d=" M 116.76 1.92 C 117.04 1.58 117.62 0.90 117.91 0.56 C 122.02 3.24 126.75 4.39 131.40 5.70 C 132.11 3.84 132.29 1.00 134.86 0.90 C 134.41 4.42 133.50 7.87 132.97 11.38 C 134.28 13.96 135.66 16.51 136.85 19.16 C 138.21 18.41 139.58 17.68 140.93 16.91 C 144.25 15.38 145.32 11.59 147.15 8.73 C 148.14 10.21 150.03 11.89 149.24 13.83 C 146.91 18.30 142.14 20.45 138.31 23.36 C 138.38 26.55 140.86 28.88 142.16 31.61 C 142.98 33.65 143.61 35.76 144.53 37.76 C 146.64 38.73 148.86 39.47 151.08 40.19 C 155.49 39.96 158.92 36.81 162.03 34.01 C 164.66 31.76 163.94 26.08 168.48 26.50 C 168.21 25.56 167.95 24.62 167.69 23.68 C 168.94 25.95 170.00 28.30 171.00 30.69 C 170.34 30.70 169.01 30.73 168.34 30.75 C 168.82 31.76 169.43 32.74 169.70 33.84 C 168.28 36.83 166.04 39.39 163.52 41.52 C 161.21 42.98 158.52 43.71 156.16 45.10 C 159.72 44.83 163.27 44.57 166.84 44.43 C 166.08 45.68 165.27 46.91 164.40 48.09 C 165.84 47.32 167.41 46.83 168.99 46.43 C 168.70 45.27 167.60 43.89 168.91 42.95 C 171.21 41.99 173.65 41.42 176.12 41.11 C 176.89 42.52 177.78 43.86 178.69 45.20 C 173.59 51.31 164.70 52.07 157.31 51.10 C 157.33 52.18 157.37 53.26 157.41 54.33 C 156.64 54.43 155.11 54.63 154.34 54.73 C 155.59 55.81 156.99 56.72 158.16 57.90 C 159.83 59.99 160.45 62.73 162.26 64.74 C 164.63 67.92 167.53 70.70 169.72 74.00 C 169.52 78.35 165.37 80.84 161.94 82.67 C 160.09 82.50 158.29 82.03 156.48 81.62 C 156.39 80.98 156.22 79.69 156.13 79.05 C 157.89 79.39 159.65 79.73 161.43 79.97 C 157.82 76.23 152.26 79.04 150.20 82.99 C 149.59 82.86 148.37 82.60 147.76 82.47 C 147.80 86.11 147.69 89.88 146.13 93.24 C 145.63 94.35 144.35 94.49 143.36 94.91 C 142.89 95.78 142.42 96.65 141.96 97.53 C 140.54 98.21 139.14 98.93 137.80 99.75 C 139.14 99.28 140.48 98.80 141.81 98.29 C 141.51 100.13 141.20 101.97 140.89 103.82 C 139.30 103.21 137.69 102.65 136.05 102.16 C 136.20 101.03 136.34 99.91 136.46 98.78 C 134.42 102.82 136.89 107.72 134.40 111.54 C 133.68 110.75 132.98 109.95 132.28 109.16 C 131.79 110.41 131.29 111.66 130.79 112.91 C 130.21 111.52 129.58 110.16 128.91 108.82 C 128.22 110.91 128.23 113.18 128.75 115.30 C 135.87 123.21 144.68 129.34 151.96 137.10 C 153.57 138.92 157.89 141.20 154.86 143.71 C 150.63 141.92 147.75 137.58 143.71 135.21 C 149.14 141.15 155.13 146.56 160.43 152.62 C 161.82 154.33 163.84 155.79 164.08 158.16 C 161.63 159.11 159.63 156.79 158.79 154.74 C 155.66 152.76 152.58 150.60 150.30 147.63 C 145.67 141.97 139.31 138.08 134.67 132.43 C 131.92 129.12 128.44 126.55 125.21 123.75 C 123.52 122.31 123.62 120.03 123.72 118.03 C 123.18 118.84 122.66 119.66 122.12 120.47 C 119.83 120.32 117.55 120.55 115.27 120.72 C 114.65 119.23 114.08 117.72 113.56 116.19 C 112.66 116.71 111.75 117.24 110.85 117.77 C 110.54 117.15 109.93 115.92 109.62 115.31 C 108.02 115.87 106.40 116.37 104.70 116.54 C 107.07 114.07 109.90 110.05 106.41 107.21 C 107.02 106.92 108.24 106.34 108.85 106.04 C 106.39 102.65 102.96 100.12 99.44 97.92 C 101.10 101.12 104.61 102.80 106.18 106.06 C 102.75 105.33 100.68 102.28 98.75 99.62 C 95.88 99.96 93.71 97.91 92.18 95.73 C 94.96 94.97 97.04 97.22 99.47 98.09 C 96.37 94.54 92.28 92.03 88.69 89.01 C 90.13 91.29 92.11 93.18 93.43 95.54 C 90.12 94.67 87.43 92.54 84.96 90.27 C 78.31 94.25 71.29 97.60 64.91 102.04 C 60.91 104.95 55.45 106.01 52.56 110.26 C 53.80 110.64 55.03 111.08 56.23 111.58 C 56.83 110.42 57.45 109.27 58.09 108.14 C 59.10 108.48 60.11 108.82 61.11 109.17 C 62.33 108.49 63.52 107.15 65.04 107.77 C 65.39 109.44 65.65 111.13 65.98 112.81 C 63.25 111.66 60.51 110.56 57.73 109.53 C 58.57 113.32 64.16 112.19 65.26 116.08 C 62.85 115.21 60.42 114.21 57.80 114.45 C 57.66 115.04 57.40 116.21 57.27 116.80 C 59.56 116.60 61.93 116.25 64.13 117.18 C 65.80 118.27 67.23 117.23 67.54 115.44 C 70.09 119.29 75.31 116.43 78.81 118.86 C 84.18 112.67 83.25 104.03 84.89 96.51 C 86.76 96.04 88.70 96.15 90.60 96.37 C 91.89 101.32 90.45 106.37 89.26 111.18 C 90.57 109.44 92.07 107.85 93.97 106.77 C 92.87 110.69 91.24 114.44 90.11 118.36 C 92.67 116.49 93.58 113.28 94.72 110.47 C 95.25 110.42 96.32 110.33 96.86 110.28 C 96.53 112.64 96.93 115.57 94.25 116.66 C 94.99 117.10 95.73 117.54 96.47 117.98 C 95.69 119.22 94.91 120.47 94.14 121.72 C 93.13 120.98 92.11 120.27 91.07 119.57 C 91.55 120.75 92.07 121.90 92.64 123.03 C 91.44 124.14 90.23 125.25 89.07 126.40 C 90.37 126.38 91.67 126.35 92.97 126.33 C 92.05 128.86 89.27 129.71 87.67 131.67 C 86.67 134.44 86.76 137.51 85.29 140.13 C 91.64 137.02 95.13 130.77 99.08 125.27 C 98.34 125.65 96.86 126.41 96.11 126.79 C 96.64 125.32 97.24 123.87 97.90 122.45 C 98.88 123.22 99.85 123.99 100.83 124.76 C 100.44 122.68 100.60 120.61 102.07 118.96 C 101.68 118.04 101.30 117.12 100.93 116.20 C 103.56 118.04 106.70 117.76 109.67 117.06 C 110.07 121.20 107.81 124.74 106.41 128.45 C 104.50 134.35 102.08 140.23 102.10 146.52 C 101.46 146.50 100.18 146.46 99.54 146.43 C 100.01 147.61 100.50 148.77 100.99 149.95 C 100.22 149.92 98.70 149.86 97.94 149.83 C 98.68 150.93 99.44 152.02 100.19 153.12 C 99.07 154.13 97.96 155.16 96.88 156.21 C 97.89 156.46 98.91 156.71 99.92 156.95 C 96.68 161.21 99.94 166.88 104.17 168.98 C 103.43 169.74 102.70 170.51 101.97 171.28 C 100.73 170.21 99.49 169.15 98.23 168.11 C 98.44 169.61 98.66 171.11 98.84 172.62 C 98.28 172.65 97.14 172.70 96.57 172.73 C 97.32 165.88 93.06 159.87 93.44 153.09 C 93.29 149.33 92.96 145.56 91.97 141.92 C 93.36 140.14 94.74 138.31 95.71 136.25 C 95.08 135.07 93.53 135.31 93.50 136.69 C 92.85 140.48 89.15 142.13 86.33 144.13 C 85.27 153.17 83.22 162.19 83.68 171.36 C 80.77 172.47 78.82 169.75 77.05 167.92 C 75.97 158.05 75.84 147.87 78.27 138.18 C 79.69 134.23 80.20 130.03 81.44 126.03 C 75.58 126.65 69.63 126.74 63.84 125.51 C 60.15 125.56 56.67 124.35 53.27 123.07 C 49.63 128.37 45.93 134.05 40.10 137.17 C 38.43 138.33 36.35 138.91 34.81 140.25 C 33.68 143.65 33.01 147.29 33.81 150.85 C 35.47 157.99 36.93 165.19 38.96 172.24 C 39.77 173.31 41.26 173.21 42.42 173.61 C 43.20 174.81 44.03 175.98 44.90 177.13 C 43.90 178.09 42.90 179.04 41.91 180.00 L 41.20 180.00 C 38.34 179.16 35.53 178.12 32.49 178.34 C 31.23 177.02 30.40 175.35 30.11 173.55 C 26.40 172.64 25.00 169.04 24.38 165.62 C 25.13 165.83 26.63 166.24 27.38 166.44 C 22.23 164.60 22.12 158.90 22.25 154.28 C 21.32 154.45 20.39 154.61 19.46 154.77 C 21.97 157.84 19.54 161.62 19.18 165.00 C 19.74 166.26 20.79 167.44 20.73 168.89 C 19.69 171.41 17.37 173.10 14.91 174.11 C 15.65 167.52 13.63 161.01 14.36 154.41 C 15.22 146.29 15.60 138.05 17.64 130.11 C 14.77 131.68 11.91 133.31 8.83 134.44 C 9.17 133.45 9.52 132.47 9.89 131.50 C 8.17 132.98 6.07 132.23 4.49 130.93 C 5.40 129.73 6.36 128.54 7.63 127.69 C 12.33 124.49 16.73 120.85 21.63 117.95 C 20.24 112.75 17.65 107.68 18.24 102.17 C 19.03 102.55 20.61 103.32 21.40 103.71 C 20.19 102.95 18.98 102.17 17.79 101.37 C 18.83 100.46 19.86 99.53 20.86 98.58 C 17.80 99.65 15.97 102.45 13.98 104.81 C 13.33 104.38 12.04 103.50 11.39 103.07 C 14.10 100.55 15.90 97.19 18.83 94.89 C 21.18 93.08 22.23 90.22 23.98 87.92 C 28.79 82.80 33.91 77.93 39.47 73.61 C 40.83 72.61 42.21 71.30 44.05 71.50 C 46.12 71.85 47.83 73.57 50.02 73.39 C 53.17 73.18 56.21 72.21 59.38 72.14 C 60.51 72.22 61.09 71.11 61.85 70.48 C 55.82 68.92 50.91 64.71 46.07 60.99 C 42.68 58.58 38.93 56.76 35.31 54.74 C 31.47 52.63 28.62 49.11 24.65 47.22 C 19.33 44.18 13.03 41.60 9.76 36.15 C 13.22 37.75 16.20 40.14 19.19 42.45 C 19.26 41.87 19.40 40.72 19.47 40.14 C 16.29 37.37 12.62 35.16 9.04 32.95 C 9.30 32.27 9.82 30.93 10.09 30.25 C 11.45 30.69 12.85 31.09 14.00 31.98 C 22.67 38.08 31.72 43.59 40.54 49.46 C 42.51 50.59 44.16 52.83 46.67 52.53 C 45.65 51.64 44.62 50.79 43.56 49.95 C 44.60 43.98 42.40 38.18 42.15 32.28 C 42.61 31.74 43.52 30.67 43.98 30.13 C 46.54 32.85 49.45 35.26 51.47 38.45 C 51.19 34.11 50.77 29.23 53.98 25.77 C 56.14 28.44 57.19 32.58 60.95 33.43 C 57.93 29.86 59.95 25.38 59.66 21.23 C 60.47 21.73 61.29 22.24 62.10 22.74 C 62.95 22.21 63.79 21.68 64.65 21.16 C 65.24 23.45 66.06 25.70 67.37 27.70 C 69.95 28.32 69.24 24.61 69.88 23.10 C 71.53 23.56 73.08 24.28 74.57 25.11 C 75.18 32.05 76.85 38.96 76.45 45.97 C 75.71 47.91 74.23 50.07 71.96 50.23 C 67.59 50.78 63.26 51.53 58.95 52.37 C 57.31 52.99 56.29 51.29 55.22 50.41 C 55.34 51.01 55.57 52.23 55.69 52.83 C 52.66 52.51 49.61 52.59 46.59 53.00 C 49.48 57.07 54.56 58.54 58.22 61.76 C 62.36 64.59 66.05 68.14 70.55 70.42 C 75.93 71.92 79.58 66.84 83.97 64.85 C 87.63 62.77 91.98 63.57 95.99 63.53 C 100.24 63.50 104.49 63.68 108.73 63.44 C 112.60 61.91 116.24 59.82 120.07 58.18 C 128.21 53.69 137.12 50.71 145.14 46.04 L 144.53 45.54 C 140.43 45.48 136.26 46.02 132.25 44.86 C 127.12 44.17 123.09 40.73 118.80 38.19 C 113.61 39.47 109.17 36.28 104.54 34.49 C 104.47 33.96 104.31 32.91 104.24 32.39 C 107.57 34.23 111.48 34.62 115.15 35.39 C 118.60 35.00 121.98 35.33 125.21 36.62 C 121.94 32.59 116.31 31.54 111.37 31.38 C 108.50 30.73 105.57 30.45 102.63 30.57 C 102.51 30.00 102.26 28.86 102.14 28.29 C 106.45 28.23 110.79 28.19 115.06 28.85 C 114.05 26.36 113.00 23.88 112.14 21.34 C 116.56 22.24 116.73 27.70 120.20 29.81 C 124.39 32.93 129.73 33.57 134.60 35.07 C 133.65 32.98 133.07 30.21 130.61 29.40 C 124.91 26.81 119.52 23.58 114.01 20.67 C 109.90 18.43 105.68 21.60 101.37 20.89 C 101.29 19.68 101.21 18.48 101.14 17.28 C 104.13 17.54 107.14 17.58 110.05 16.75 C 111.60 16.09 112.90 17.21 114.18 17.89 C 114.88 16.94 115.69 16.07 116.68 15.41 C 116.06 15.36 114.81 15.27 114.18 15.23 C 113.15 13.19 111.86 11.20 111.72 8.84 C 118.40 12.38 123.58 18.96 131.42 20.28 C 130.61 16.22 129.64 12.08 127.26 8.61 C 125.57 7.41 123.39 7.24 121.56 6.33 C 119.81 5.04 118.20 3.54 116.76 1.92 M 60.21 28.10 C 60.88 28.78 60.88 28.78 60.21 28.10 M 68.24 28.91 C 67.25 29.36 66.45 31.51 67.92 31.83 C 69.88 32.15 70.63 27.96 68.24 28.91 M 63.18 32.47 C 62.05 33.41 63.50 35.71 64.80 34.80 C 65.98 33.84 64.51 31.50 63.18 32.47 M 66.97 32.95 C 66.48 34.55 67.05 35.11 68.66 34.62 C 69.15 33.01 68.59 32.46 66.97 32.95 M 58.37 35.29 C 58.37 35.90 58.36 37.14 58.35 37.75 C 58.90 37.71 60.01 37.62 60.56 37.58 C 60.60 36.98 60.69 35.79 60.74 35.19 C 60.15 35.22 58.96 35.26 58.37 35.29 M 53.29 40.53 C 52.74 40.57 51.62 40.65 51.07 40.69 C 51.16 41.33 51.35 42.63 51.45 43.28 C 49.97 41.58 48.60 39.79 47.24 38.01 C 47.62 41.20 47.99 44.42 47.56 47.64 C 55.11 46.51 62.54 44.48 70.21 44.17 C 70.44 42.32 70.61 40.46 70.70 38.61 C 68.35 38.14 66.08 37.33 63.93 36.27 C 63.32 38.98 60.55 39.74 58.12 39.83 C 56.42 39.41 55.89 37.46 54.89 36.23 C 53.60 37.12 53.81 39.15 53.29 40.53 M 126.30 35.95 C 126.53 39.39 129.20 34.37 126.30 35.95 M 129.50 37.22 C 128.46 38.48 130.71 39.48 131.53 38.49 C 132.51 37.27 130.28 36.07 129.50 37.22 M 130.26 40.16 C 129.81 41.73 130.39 42.27 131.99 41.76 C 132.49 40.13 131.91 39.60 130.26 40.16 M 20.11 43.27 C 20.76 43.92 20.76 43.92 20.11 43.27 M 22.09 44.56 C 22.78 45.21 22.78 45.21 22.09 44.56 M 148.47 50.52 C 147.42 52.99 145.36 54.74 143.94 56.97 C 145.97 56.79 147.89 56.10 149.81 55.47 C 149.40 54.67 148.99 53.87 148.56 53.07 C 148.99 52.05 149.40 51.02 149.78 49.98 C 149.45 50.12 148.80 50.39 148.47 50.52 M 134.70 66.00 C 132.20 66.23 130.09 67.27 128.39 69.13 C 123.30 69.36 119.18 72.93 114.48 74.59 C 107.37 78.80 99.50 81.57 92.64 86.21 C 93.68 87.57 94.90 88.79 96.32 89.74 C 102.53 93.70 107.41 99.47 113.87 103.08 C 114.91 103.75 116.20 103.66 117.39 103.82 C 118.10 102.14 119.28 100.77 120.71 99.65 C 120.69 97.85 120.19 93.59 123.26 94.78 C 123.37 97.12 123.57 99.60 125.79 100.93 C 125.62 99.60 125.40 98.29 125.17 96.98 C 126.49 95.95 128.04 95.34 129.65 94.91 C 129.96 94.20 130.57 92.76 130.88 92.05 C 131.33 92.50 132.23 93.39 132.68 93.83 C 131.42 91.16 134.44 89.44 136.13 91.82 C 135.71 90.26 133.99 88.71 134.79 87.06 C 136.29 87.63 137.67 88.45 139.19 88.96 C 139.25 89.78 139.38 91.42 139.44 92.24 C 140.62 90.79 140.61 88.88 141.08 87.16 C 141.90 86.49 142.87 86.03 143.80 85.52 C 143.28 85.45 142.24 85.31 141.72 85.25 C 140.71 83.01 143.63 81.28 143.48 78.95 C 144.55 78.25 146.08 77.72 145.70 76.13 C 144.69 75.59 143.60 75.22 142.53 74.84 C 142.87 74.39 143.54 73.49 143.88 73.04 C 142.05 72.04 139.71 71.38 139.01 69.16 C 144.07 68.45 145.32 75.76 150.43 74.03 C 149.96 72.38 149.42 70.76 149.09 69.08 C 152.09 69.61 151.88 72.66 150.90 74.84 C 155.12 71.95 159.94 75.00 163.16 77.96 C 162.31 75.64 159.82 74.61 158.63 72.53 C 157.88 70.95 157.29 69.31 156.62 67.70 C 157.19 67.66 158.32 67.56 158.89 67.52 C 156.09 66.50 153.93 64.43 151.87 62.37 C 151.23 62.48 149.97 62.70 149.34 62.81 C 150.32 61.86 150.82 60.63 151.06 59.30 C 145.02 59.80 139.80 63.03 134.70 66.00 M 80.12 77.07 C 80.37 77.62 80.88 78.73 81.13 79.28 C 85.28 76.42 89.99 74.49 94.10 71.60 C 92.76 71.29 91.41 71.01 90.06 70.76 C 86.35 72.17 83.55 75.15 80.12 77.07 M 103.85 73.71 C 102.02 75.48 99.44 76.02 97.33 77.36 C 94.19 79.37 90.83 81.01 87.39 82.43 C 87.28 85.78 91.28 83.53 93.04 83.12 C 95.16 81.03 97.67 79.35 100.50 78.41 C 103.84 77.23 106.63 74.75 110.17 74.08 C 110.73 73.38 111.29 72.69 111.86 71.99 C 109.44 73.52 106.68 74.16 103.85 73.71 M 52.10 80.68 C 49.82 81.61 47.26 83.12 44.89 81.61 C 44.42 83.07 43.00 83.67 41.70 84.20 C 41.68 83.76 41.64 82.88 41.62 82.44 C 38.37 85.30 34.62 87.58 31.69 90.82 C 30.15 92.59 27.98 93.55 26.15 94.95 C 25.51 96.20 25.19 97.59 24.64 98.88 C 25.01 102.95 25.95 106.91 26.72 110.91 C 28.47 110.53 29.92 109.53 31.07 108.18 C 34.18 111.27 37.76 107.22 40.49 105.49 C 52.22 98.14 63.93 90.72 75.30 82.80 C 73.97 80.92 72.03 79.58 70.03 78.50 C 64.06 79.31 58.12 80.19 52.10 80.68 M 145.43 81.16 C 145.01 82.53 145.50 83.00 146.89 82.56 C 147.33 81.18 146.84 80.72 145.43 81.16 M 72.18 92.21 C 72.83 92.86 72.83 92.86 72.18 92.21 M 121.15 101.24 C 119.47 104.03 124.59 101.52 121.15 101.24 M 108.80 106.46 C 107.76 108.00 110.57 109.34 111.80 108.75 C 112.41 107.31 110.03 105.87 108.80 106.46 M 42.03 115.91 C 43.45 117.37 45.00 118.70 46.30 120.28 C 47.37 119.43 48.46 118.58 49.50 117.70 C 50.47 117.69 51.44 117.68 52.41 117.66 C 52.32 115.70 52.30 113.34 54.89 113.29 C 53.54 112.37 52.19 111.44 50.92 110.41 C 48.06 112.37 44.16 113.06 42.03 115.91 M 27.25 112.10 C 27.32 115.55 30.13 110.54 27.25 112.10 M 35.40 114.41 C 35.24 114.78 34.92 115.53 34.76 115.91 C 36.53 118.92 38.83 112.62 35.40 114.41 M 37.86 126.09 C 36.01 124.66 34.57 122.81 33.06 121.05 C 33.55 122.01 34.06 122.97 34.58 123.93 C 32.77 126.15 30.78 128.19 28.05 129.25 C 28.16 132.88 24.64 134.80 23.44 137.94 C 25.11 140.62 25.86 144.17 24.49 147.13 C 27.18 144.09 27.06 139.65 29.05 136.22 C 30.44 134.33 32.69 133.48 34.79 132.66 C 34.74 131.86 34.65 131.06 34.54 130.26 C 38.95 128.50 41.97 124.61 45.27 121.37 C 43.10 120.21 41.26 118.47 39.01 117.46 C 35.65 119.01 37.13 123.30 37.86 126.09 M 125.09 120.27 C 124.63 121.92 125.20 122.51 126.80 122.04 C 127.24 120.43 126.67 119.84 125.09 120.27 M 134.26 129.24 C 134.90 129.88 134.90 129.88 134.26 129.24 M 141.24 132.22 C 141.82 132.82 141.82 132.82 141.24 132.22 M 36.00 133.44 C 35.45 135.04 36.01 135.58 37.70 135.05 C 38.20 133.49 37.63 132.95 36.00 133.44 M 26.48 149.67 C 28.78 153.36 28.62 157.90 30.41 161.79 C 32.30 166.56 33.57 171.54 33.93 176.66 C 35.64 175.43 37.66 175.12 39.73 175.10 C 38.04 173.80 35.64 173.03 35.07 170.73 C 34.30 167.67 33.28 164.70 31.75 161.93 C 31.49 157.48 28.69 153.95 27.17 149.91 C 28.09 149.34 29.00 148.77 29.91 148.20 C 28.78 148.71 27.64 149.22 26.48 149.67 Z" />
<path fill="#ffffff" opacity="1.00" d=" M 132.27 67.24 C 132.88 67.89 132.88 67.89 132.27 67.24 Z" />
<path fill="#ffffff" opacity="1.00" d=" M 78.83 171.57 C 82.90 171.72 86.07 174.62 89.80 175.92 C 89.38 176.61 88.55 177.98 88.14 178.66 C 85.80 177.96 83.32 177.77 81.02 176.95 C 79.45 175.61 79.29 173.43 78.83 171.57 Z" />
</g>
</svg>
