<?xml version="1.0" encoding="UTF-8" ?>
<!DOCTYPE svg PUBLIC "-//W3C//DTD SVG 1.1//EN" "http://www.w3.org/Graphics/SVG/1.1/DTD/svg11.dtd">
<svg width="128pt" height="128pt" viewBox="0 0 128 128" version="1.1" xmlns="http://www.w3.org/2000/svg">
<g id="#ffffffff">
<path fill="#ffffff" opacity="1.00" d=" M 69.89 6.96 C 73.20 4.09 78.03 6.13 81.97 6.06 C 86.72 5.69 92.58 5.59 95.41 10.20 C 95.42 10.79 95.44 11.95 95.45 12.54 C 96.26 12.15 97.07 11.76 97.89 11.38 C 102.57 14.27 108.64 16.33 110.59 22.04 C 110.23 25.13 107.44 22.95 106.41 21.54 C 103.28 17.33 97.32 18.43 93.06 19.95 C 91.03 21.60 89.78 24.13 88.43 26.35 C 87.55 33.47 87.19 41.04 83.31 47.30 C 81.23 52.57 77.53 56.93 74.84 61.86 C 72.94 65.16 70.05 67.68 67.56 70.50 C 65.75 77.08 63.71 83.65 60.77 89.83 C 59.60 92.91 54.99 94.07 55.32 97.76 C 56.63 99.57 57.97 101.39 58.71 103.53 C 64.51 103.91 70.37 101.34 76.07 103.13 C 79.17 103.96 82.38 103.09 85.53 103.35 C 85.65 103.86 85.90 104.86 86.03 105.37 C 77.71 105.41 69.43 106.33 61.21 107.39 C 58.51 106.27 55.66 106.43 53.68 108.79 C 47.52 107.18 41.22 109.45 34.99 108.41 C 37.88 107.58 40.64 106.36 43.60 105.75 C 46.50 105.13 48.96 103.16 52.02 103.16 C 51.31 102.39 50.61 101.63 49.91 100.86 C 52.14 93.74 53.95 86.52 55.19 79.16 C 49.94 81.95 44.49 84.41 38.71 85.86 C 35.88 86.53 34.73 89.39 33.77 91.82 C 30.05 101.38 24.25 109.97 20.75 119.62 C 19.35 122.54 18.12 127.02 14.10 126.86 C 14.34 122.76 17.60 119.43 16.80 115.16 C 20.82 106.64 25.76 98.56 29.63 89.98 C 29.43 87.77 28.40 85.59 28.64 83.39 C 31.11 80.19 35.42 77.70 35.54 73.28 C 35.86 71.40 37.78 70.34 38.97 69.00 C 38.58 68.50 37.81 67.51 37.42 67.01 C 37.28 65.18 38.79 64.41 40.19 63.74 C 40.71 62.22 42.07 61.23 43.03 60.00 C 41.59 60.95 40.19 61.96 38.65 62.74 C 37.87 64.56 36.89 66.33 36.49 68.30 C 34.61 70.17 32.02 71.09 29.56 71.96 C 30.30 70.11 31.47 68.48 32.37 66.71 C 28.07 69.69 25.87 74.66 22.49 78.51 C 20.94 78.97 20.46 77.04 19.54 76.22 C 27.59 65.18 37.07 55.24 46.63 45.53 C 48.67 40.60 53.44 37.67 56.52 33.44 C 57.80 31.15 60.94 31.51 62.21 29.25 C 66.31 24.06 70.12 18.61 73.54 12.94 C 71.55 11.64 67.67 9.88 69.89 6.96 M 88.09 9.85 C 87.33 11.30 85.34 13.13 87.33 14.51 C 89.49 15.31 91.74 14.21 92.52 12.06 C 91.90 10.07 89.72 10.32 88.09 9.85 M 76.02 12.39 C 75.64 13.72 75.22 15.05 74.82 16.37 C 76.97 15.73 79.13 15.05 81.16 14.07 C 79.42 13.59 77.69 13.07 76.02 12.39 M 98.18 14.43 C 97.59 16.08 100.98 17.66 101.63 15.89 C 101.32 14.54 99.34 13.95 98.18 14.43 M 78.10 19.95 C 78.11 20.42 78.13 21.35 78.14 21.82 C 80.98 20.56 83.77 19.12 86.10 17.03 C 83.39 17.89 80.94 19.54 78.10 19.95 M 72.30 18.83 C 70.85 19.30 71.18 22.03 72.91 21.31 C 74.43 20.93 73.97 18.08 72.30 18.83 M 75.30 22.24 C 75.92 22.85 75.92 22.85 75.30 22.24 M 75.68 34.11 C 78.20 32.86 79.61 30.29 81.08 28.03 C 79.09 29.86 76.97 31.68 75.68 34.11 M 57.38 48.22 C 56.24 48.30 55.23 50.65 56.84 50.74 C 58.04 50.71 59.05 48.26 57.38 48.22 M 57.58 86.07 C 59.33 82.45 60.83 78.71 62.11 74.89 C 57.59 76.66 58.40 82.18 57.58 86.07 Z" />
</g>
</svg>
