<?xml version="1.0" encoding="UTF-8" ?>
<!DOCTYPE svg PUBLIC "-//W3C//DTD SVG 1.1//EN" "http://www.w3.org/Graphics/SVG/1.1/DTD/svg11.dtd">
<svg width="180pt" height="180pt" viewBox="0 0 180 180" version="1.1" xmlns="http://www.w3.org/2000/svg">
<g id="#ffffffff">
<path fill="#ffffff" opacity="1.00" d=" M 79.68 2.80 C 83.89 6.76 87.72 11.17 92.42 14.60 C 94.28 11.34 95.98 7.99 97.69 4.64 C 98.09 3.44 99.34 3.37 100.38 3.14 C 101.89 6.54 103.60 9.84 105.70 12.92 C 107.51 9.47 108.99 5.67 112.09 3.13 C 113.57 6.31 115.34 9.35 117.64 12.02 C 120.20 8.92 122.26 5.39 125.11 2.52 C 125.66 2.55 126.78 2.62 127.34 2.65 C 127.71 11.68 128.49 20.87 126.70 29.81 C 123.53 30.71 120.43 32.15 117.06 31.87 C 105.80 31.65 94.52 31.94 83.27 31.52 C 81.56 23.03 79.90 14.54 78.59 5.99 C 78.86 5.19 79.40 3.60 79.68 2.80 M 83.27 11.82 C 84.92 17.24 86.35 22.80 86.36 28.51 C 90.34 25.59 95.46 26.92 100.02 26.66 C 107.59 26.18 115.15 27.02 122.71 27.26 C 123.51 22.17 123.00 17.02 123.39 11.90 C 121.30 14.61 118.97 17.11 116.95 19.87 C 114.25 17.59 113.72 13.85 112.02 10.90 C 110.06 13.87 108.54 17.14 106.28 19.92 C 103.15 17.85 100.69 14.98 98.98 11.65 C 97.55 14.31 96.45 17.20 94.51 19.54 C 93.46 19.70 92.41 19.78 91.35 19.79 C 88.58 17.21 86.21 14.21 83.27 11.82 Z" />
<path fill="#ffffff" opacity="1.00" d=" M 44.33 15.15 C 48.31 15.28 49.48 19.71 51.55 22.37 C 58.41 32.00 64.33 42.23 70.23 52.46 C 79.68 44.78 91.79 41.07 103.82 40.27 C 109.23 43.04 114.76 45.98 119.35 50.09 C 123.62 43.95 128.46 38.20 133.88 33.06 C 133.01 33.28 131.28 33.71 130.42 33.93 C 133.32 30.41 135.75 26.48 139.29 23.51 C 138.43 27.13 135.58 29.69 133.33 32.47 C 133.99 32.57 135.32 32.78 135.99 32.88 C 138.69 29.75 140.60 25.97 143.29 22.80 C 146.30 21.61 145.89 26.00 144.27 27.20 C 137.29 37.43 129.81 47.32 123.03 57.69 C 123.38 58.01 124.09 58.65 124.44 58.97 C 124.42 58.24 124.38 56.80 124.35 56.07 C 126.61 57.70 129.14 58.93 131.30 60.68 C 133.71 63.39 135.28 66.71 137.63 69.46 C 140.08 69.29 142.15 70.38 143.94 71.96 C 143.02 74.28 141.10 75.85 138.90 76.90 C 137.55 76.59 136.50 75.64 135.35 74.93 C 134.61 75.39 133.87 75.85 133.13 76.31 C 132.19 75.76 131.26 75.21 130.32 74.67 C 130.94 74.36 132.17 73.72 132.79 73.41 C 131.66 66.88 127.61 60.44 120.85 58.73 C 121.95 60.62 123.60 62.09 125.61 62.95 C 124.34 64.81 123.51 66.89 123.29 69.14 C 121.52 67.99 119.64 66.84 118.63 64.90 C 119.23 63.53 120.12 62.32 120.92 61.06 C 115.83 66.41 111.38 72.32 107.17 78.36 C 105.90 80.06 106.52 82.27 106.53 84.21 C 107.15 83.93 108.39 83.38 109.01 83.10 C 109.86 83.81 110.60 84.81 111.78 84.98 C 113.67 81.64 114.75 76.99 119.12 76.09 C 122.72 77.30 126.64 76.97 130.13 78.53 C 131.46 77.71 132.80 76.90 134.13 76.09 C 134.46 76.94 134.79 77.80 135.12 78.65 C 135.56 76.11 138.19 77.64 139.89 77.63 C 137.34 80.36 136.93 84.12 135.30 87.34 C 134.79 87.38 133.79 87.47 133.28 87.51 C 133.26 84.92 133.44 82.33 133.69 79.75 C 132.95 80.16 131.47 80.96 130.73 81.37 C 130.52 84.19 130.12 88.17 126.35 87.70 C 126.30 85.62 127.03 83.51 126.64 81.47 C 124.67 79.60 121.96 79.62 119.43 79.84 C 119.47 79.07 119.57 77.54 119.62 76.77 C 117.19 80.81 116.28 85.47 114.58 89.81 C 118.32 91.64 122.12 93.39 126.04 94.82 C 123.48 96.92 122.26 100.83 118.86 101.67 C 115.37 101.39 112.06 100.07 108.86 98.75 C 108.60 100.08 108.35 101.42 108.09 102.75 C 111.35 102.24 114.50 103.27 117.70 103.69 C 115.98 104.46 114.12 106.66 116.73 107.70 C 118.53 106.24 120.20 104.64 121.84 103.01 C 122.37 103.59 122.90 104.17 123.43 104.76 C 123.85 104.26 124.70 103.27 125.13 102.77 C 124.76 104.65 124.20 106.47 123.58 108.27 C 124.70 107.45 125.79 106.58 126.88 105.71 C 127.55 106.52 128.24 107.33 128.95 108.12 C 128.34 107.02 127.71 105.94 127.06 104.87 C 129.27 104.03 131.37 102.95 133.19 101.41 C 133.54 101.80 134.25 102.58 134.61 102.96 C 134.52 101.67 134.46 100.37 134.40 99.07 C 131.81 100.19 129.63 102.74 126.59 102.28 C 126.67 101.79 126.82 100.81 126.89 100.32 C 129.47 99.30 131.99 98.17 134.31 96.63 C 133.13 95.90 131.96 95.17 130.83 94.39 C 133.22 94.33 135.61 94.38 138.00 94.37 C 139.12 93.48 139.97 91.63 141.68 92.25 C 142.08 93.11 142.44 93.98 142.77 94.88 C 142.72 94.28 142.64 93.10 142.59 92.51 C 150.54 93.05 157.03 100.23 157.61 108.09 C 156.87 108.55 155.38 109.47 154.64 109.93 C 154.24 108.21 153.79 106.50 153.23 104.83 C 153.40 106.39 153.61 107.96 153.85 109.52 C 152.52 109.85 151.21 110.20 149.89 110.57 C 150.12 109.08 150.36 107.60 150.59 106.12 C 149.91 105.78 149.23 105.44 148.55 105.10 C 147.93 106.54 147.32 107.99 146.64 109.41 C 146.29 107.32 145.91 105.23 145.54 103.15 C 146.87 101.95 148.18 100.75 149.52 99.57 C 148.32 98.37 147.12 97.19 145.91 96.01 C 142.96 97.10 139.73 97.62 137.21 99.65 C 140.51 99.81 143.54 98.21 146.85 98.40 C 146.80 100.78 145.61 102.82 144.48 104.83 C 140.11 103.42 135.63 105.33 131.27 105.92 C 130.81 106.79 130.35 107.66 129.88 108.53 C 125.69 108.98 123.41 113.14 119.42 113.98 C 118.97 113.42 118.07 112.30 117.62 111.74 C 117.39 113.34 118.00 114.73 119.29 115.68 C 123.79 119.70 129.38 122.24 134.09 125.96 C 135.63 127.16 136.10 128.67 134.23 129.90 C 130.16 129.09 127.66 124.29 123.05 125.43 C 126.37 126.72 129.56 128.97 130.12 132.76 C 127.28 133.44 125.19 131.93 124.24 129.30 C 123.68 129.36 122.57 129.49 122.01 129.55 C 123.73 131.94 126.80 134.06 125.20 137.39 C 121.63 135.85 119.85 132.31 117.75 129.30 C 115.95 128.92 114.12 128.69 112.30 128.48 C 117.16 137.72 120.18 147.77 124.70 157.16 C 125.63 159.40 128.32 159.75 130.22 160.84 C 128.70 160.73 127.18 160.61 125.66 160.47 C 126.49 162.88 128.90 165.80 126.95 168.24 C 125.83 168.02 125.08 167.38 124.69 166.34 C 123.51 163.67 122.36 160.98 121.24 158.28 C 119.36 158.36 117.48 158.33 115.61 158.21 C 116.75 157.48 117.89 156.76 119.03 156.05 C 117.65 154.93 116.14 154.01 114.54 153.25 C 112.93 148.92 111.45 144.44 108.93 140.55 C 109.25 141.85 109.79 143.06 110.55 144.18 C 110.42 144.57 110.17 145.36 110.04 145.75 C 110.73 146.88 111.47 147.97 112.24 149.05 C 112.25 149.83 112.27 151.39 112.28 152.17 C 110.72 151.66 108.32 152.17 107.93 150.05 C 105.50 143.71 103.06 137.36 100.05 131.25 C 97.52 132.21 94.94 133.05 92.44 134.09 C 93.92 135.01 95.55 135.54 97.26 135.79 C 95.51 136.83 93.92 138.10 93.69 140.27 C 92.51 140.43 91.33 140.59 90.16 140.77 C 90.38 139.13 90.61 137.50 90.85 135.87 C 87.07 136.69 86.94 142.15 88.66 145.02 C 88.36 147.48 86.60 149.36 85.03 151.14 C 85.45 152.01 85.87 152.87 86.29 153.74 C 88.66 152.00 91.57 151.56 94.20 150.43 C 95.52 150.91 96.85 151.37 98.19 151.81 C 96.80 154.30 93.65 153.41 91.37 154.17 C 88.70 155.50 86.39 157.41 83.95 159.11 C 84.56 159.50 85.17 159.90 85.78 160.30 C 83.80 161.33 84.90 163.60 84.84 165.32 C 84.31 165.40 83.25 165.54 82.72 165.62 C 82.53 167.62 81.60 169.42 80.78 171.23 C 79.92 169.20 79.22 167.13 78.55 165.04 C 75.43 166.20 75.90 169.75 75.19 172.41 C 74.49 172.46 73.08 172.57 72.38 172.62 C 74.37 169.10 73.47 164.97 73.66 161.13 C 71.07 162.75 68.52 164.82 65.24 164.31 C 66.30 162.11 68.63 161.23 70.56 159.98 C 70.32 158.47 70.28 156.92 70.88 155.48 C 70.19 155.04 69.50 154.61 68.82 154.18 C 69.91 153.15 71.08 152.18 72.02 151.01 C 72.59 148.64 72.62 146.06 73.98 143.95 C 75.67 142.09 77.34 140.21 78.77 138.15 C 79.31 138.30 79.85 138.45 80.39 138.61 C 81.66 136.80 85.41 136.40 84.40 133.63 C 82.17 133.16 80.21 135.14 77.99 134.52 C 75.61 134.33 75.45 130.54 77.69 130.27 C 78.33 130.43 79.62 130.76 80.27 130.93 C 80.90 130.71 81.53 130.49 82.17 130.27 C 82.30 129.61 82.44 128.94 82.58 128.28 C 82.07 128.28 81.04 128.28 80.53 128.28 C 80.15 128.78 79.38 129.79 78.99 130.29 C 76.97 129.85 76.39 127.59 74.99 126.31 C 74.39 126.79 73.18 127.75 72.58 128.23 C 73.46 128.45 75.21 128.88 76.08 129.10 C 75.92 129.97 75.58 131.70 75.42 132.56 C 73.32 130.37 71.28 128.10 69.68 125.52 C 70.98 124.28 72.38 123.12 73.26 121.52 C 70.12 122.83 68.63 126.06 66.32 128.34 C 63.23 132.10 59.57 135.31 56.55 139.13 C 59.75 144.09 62.52 149.40 64.35 155.02 C 64.21 157.09 63.64 159.11 63.27 161.15 C 62.56 160.80 61.15 160.11 60.45 159.76 C 60.59 157.17 60.45 154.57 60.08 152.01 C 59.11 151.57 58.16 151.11 57.22 150.61 C 58.05 152.65 58.78 154.73 59.74 156.71 C 57.30 158.50 56.71 161.55 55.83 164.26 C 62.02 162.75 63.56 172.53 69.66 170.48 C 69.50 170.97 69.18 171.94 69.02 172.43 C 68.04 171.96 67.06 171.51 66.07 171.07 C 64.23 172.42 62.84 174.20 61.80 176.21 C 61.11 174.97 60.45 173.72 59.77 172.49 C 59.20 173.72 58.66 174.97 58.12 176.22 C 55.79 176.61 53.53 177.27 51.26 177.87 C 49.10 172.21 41.99 173.85 38.13 170.13 C 37.44 170.54 36.06 171.36 35.37 171.77 C 36.49 170.17 37.84 168.74 38.90 167.10 C 37.35 165.36 35.70 163.72 33.98 162.15 C 32.52 163.82 30.88 165.31 29.08 166.60 C 30.98 167.86 32.81 169.23 34.42 170.86 C 32.22 170.60 29.98 170.60 27.81 170.11 C 26.65 167.13 27.34 163.02 29.98 160.96 C 31.58 159.46 33.28 158.00 34.21 155.95 C 28.44 161.62 21.92 166.44 16.04 171.99 C 15.16 172.87 14.08 173.19 12.80 172.95 C 11.75 170.58 14.36 168.79 16.10 167.69 C 20.36 162.77 25.34 158.59 29.99 154.06 C 30.39 154.21 31.20 154.50 31.61 154.64 C 31.06 148.73 27.83 143.47 25.91 137.92 C 25.30 133.95 25.98 129.98 26.14 126.01 C 25.87 121.00 26.69 115.97 28.39 111.26 C 30.32 106.49 33.53 102.40 35.85 97.83 C 36.85 96.01 38.52 93.83 40.86 94.16 C 41.54 95.45 40.61 96.72 40.33 97.98 C 41.10 96.91 43.47 96.21 42.39 94.63 C 41.81 93.67 41.02 92.91 40.03 92.37 C 42.77 84.38 51.06 79.93 54.12 72.10 C 56.35 67.19 59.59 62.99 63.28 59.13 C 59.57 52.71 55.81 46.32 52.49 39.69 C 49.12 33.91 45.79 28.08 43.00 21.99 C 42.19 20.69 42.45 19.17 42.87 17.79 C 43.29 18.30 44.11 19.32 44.53 19.83 C 44.35 18.28 44.31 16.71 44.33 15.15 M 49.27 31.22 C 49.90 31.82 49.90 31.82 49.27 31.22 M 102.57 44.53 C 98.34 44.56 94.35 46.25 90.37 47.45 C 87.93 49.09 85.95 51.38 83.39 52.88 C 82.74 52.64 81.45 52.16 80.80 51.92 C 81.28 52.43 82.26 53.44 82.74 53.95 C 82.03 54.94 81.32 55.94 80.64 56.95 C 79.69 56.02 78.74 55.08 77.76 54.18 C 77.79 55.20 77.86 57.26 77.89 58.29 C 78.54 58.29 79.82 58.28 80.46 58.28 C 80.80 59.70 81.23 61.09 81.65 62.48 C 80.37 63.64 79.07 64.78 77.81 65.97 C 79.13 69.69 82.52 66.84 84.41 65.29 C 83.16 66.88 81.73 68.32 80.37 69.81 C 84.24 75.56 87.50 81.69 91.47 87.38 C 94.96 83.46 97.78 79.02 101.08 74.96 C 105.66 70.77 108.40 65.10 112.49 60.49 C 114.53 58.27 115.76 55.48 117.56 53.08 C 111.92 50.83 107.86 46.25 103.92 41.84 C 103.58 42.51 102.90 43.86 102.57 44.53 M 73.23 66.28 C 74.09 69.17 75.16 71.99 75.98 74.89 C 77.46 75.75 78.11 77.38 78.80 78.87 C 81.05 84.06 83.70 89.06 86.07 94.20 C 86.30 92.87 86.43 91.53 86.61 90.20 C 85.72 89.58 84.82 88.95 83.95 88.31 C 84.33 87.95 85.10 87.22 85.48 86.86 C 84.95 86.81 83.87 86.72 83.33 86.67 C 81.46 83.59 81.08 79.87 79.12 76.84 C 77.05 73.38 75.44 69.64 73.23 66.28 M 61.74 70.29 C 63.62 70.46 65.50 70.69 67.37 71.00 C 66.76 71.29 65.54 71.87 64.94 72.16 C 65.29 73.01 65.64 73.86 65.99 74.72 C 62.44 75.82 60.28 78.94 57.26 80.90 C 59.88 81.19 61.81 83.01 63.52 84.85 C 61.02 83.85 58.57 82.72 55.97 81.99 C 56.28 83.07 56.58 84.14 56.89 85.21 C 54.61 85.14 52.13 85.15 52.30 88.20 C 53.03 87.66 54.49 86.60 55.22 86.07 C 54.67 87.02 54.32 88.03 54.17 89.09 C 56.52 88.87 57.41 85.96 59.19 84.67 C 58.47 87.67 57.56 90.63 56.70 93.59 C 54.95 93.61 53.20 93.60 51.46 93.59 C 51.54 95.10 51.65 96.61 51.80 98.11 C 54.08 98.37 54.38 95.62 56.14 94.88 C 57.73 94.58 59.34 94.49 60.93 94.25 C 60.44 93.64 59.46 92.41 58.97 91.79 C 59.90 91.52 60.83 91.25 61.76 90.98 C 62.19 91.40 63.07 92.24 63.50 92.65 C 62.09 94.79 62.71 97.69 60.64 99.54 C 60.88 98.15 63.54 94.27 60.49 95.36 C 56.33 99.80 50.21 101.16 44.57 102.73 C 42.33 104.35 40.27 106.61 37.27 106.55 C 37.57 108.58 37.73 110.63 38.03 112.67 C 36.53 111.12 34.40 110.55 32.57 109.52 C 32.05 111.52 31.92 113.55 33.80 114.85 C 33.11 119.14 33.22 123.66 31.50 127.71 C 32.64 128.04 33.79 128.38 34.94 128.70 C 33.91 129.21 32.88 129.70 31.87 130.21 C 33.32 131.65 34.05 133.58 34.64 135.50 C 33.75 135.95 32.87 136.41 31.99 136.86 C 32.46 137.18 33.38 137.83 33.85 138.15 C 31.92 141.76 33.64 145.56 34.62 149.17 C 34.67 148.47 34.78 147.09 34.84 146.39 C 39.12 146.88 41.63 142.69 44.19 139.93 C 44.90 140.67 45.61 141.41 46.33 142.16 C 45.50 139.81 45.45 137.32 45.78 134.88 C 46.93 135.48 48.09 136.09 49.24 136.70 C 48.77 137.41 47.81 138.82 47.34 139.53 C 48.10 138.90 48.84 138.24 49.55 137.55 C 48.36 134.07 45.02 131.90 42.86 129.03 C 43.05 128.18 43.42 126.47 43.61 125.62 C 46.25 127.89 48.72 130.34 51.24 132.75 C 55.41 129.30 58.52 124.79 62.71 121.36 C 63.50 119.87 64.40 118.45 65.27 117.01 C 65.42 117.58 65.73 118.72 65.88 119.30 C 68.14 120.10 69.26 117.86 70.57 116.50 C 73.20 113.28 76.61 110.62 78.45 106.83 C 76.97 107.62 75.58 108.56 74.14 109.42 C 74.80 107.14 76.07 104.95 75.68 102.49 C 76.37 102.48 77.73 102.47 78.42 102.47 C 77.39 99.49 75.95 96.47 76.45 93.23 C 77.71 93.68 78.98 94.15 80.24 94.62 C 80.39 95.94 80.60 97.24 80.87 98.54 C 81.29 98.10 82.12 97.23 82.54 96.79 C 81.26 93.38 80.41 89.77 78.26 86.76 C 75.26 82.52 73.72 77.46 70.63 73.30 C 69.50 71.63 68.58 69.84 67.70 68.04 C 67.30 68.68 66.51 69.95 66.12 70.59 C 65.24 69.84 64.37 69.10 63.49 68.35 C 62.90 68.99 62.32 69.63 61.74 70.29 M 62.32 73.19 C 62.47 76.61 65.30 71.56 62.32 73.19 M 59.22 76.17 C 57.87 76.89 57.79 77.59 58.98 78.28 C 60.36 77.55 60.44 76.85 59.22 76.17 M 94.80 93.92 C 97.07 98.90 101.75 102.55 102.51 108.18 C 102.46 106.55 102.37 104.93 102.33 103.31 C 103.14 103.25 104.77 103.14 105.58 103.08 C 104.16 102.80 102.72 102.62 101.29 102.45 C 101.66 100.62 102.23 98.82 102.45 96.96 C 101.91 95.02 100.22 93.66 99.06 92.07 C 100.58 90.02 102.50 88.35 104.72 87.10 C 104.58 85.19 104.71 83.27 104.81 81.36 C 101.26 85.37 98.29 89.85 94.80 93.92 M 104.20 87.98 C 106.94 92.36 112.15 93.71 116.12 96.65 C 117.22 97.75 118.76 97.26 120.10 97.08 C 117.73 94.42 114.09 93.78 111.33 91.73 C 111.34 89.82 112.22 87.76 111.07 86.01 C 108.52 85.90 110.19 89.25 109.65 90.71 C 107.56 89.46 107.44 87.10 107.35 84.93 C 106.27 85.92 105.24 86.96 104.20 87.98 M 41.93 100.24 C 41.22 101.60 40.39 102.90 39.69 104.27 C 42.63 101.00 46.64 99.27 50.62 97.63 C 50.76 96.40 50.24 94.96 50.96 93.88 C 51.84 92.00 54.31 92.72 55.93 92.13 C 54.51 90.68 53.04 89.29 51.68 87.79 C 50.76 93.31 46.33 97.23 41.93 100.24 M 102.23 91.23 C 102.89 91.87 102.89 91.87 102.23 91.23 M 103.22 96.29 C 103.72 97.09 104.22 97.89 104.72 98.70 C 105.16 98.70 106.06 98.69 106.51 98.69 C 106.60 97.53 106.71 96.38 106.83 95.24 C 105.63 95.60 104.43 95.95 103.22 96.29 M 38.17 98.58 C 37.09 99.52 38.79 101.24 39.88 100.59 C 40.93 99.65 39.26 97.88 38.17 98.58 M 90.06 98.67 C 88.93 100.99 90.92 104.19 88.82 105.94 C 88.05 105.42 87.38 104.78 86.80 104.02 C 86.56 104.89 86.32 105.76 86.10 106.64 C 87.76 106.62 89.67 106.93 90.91 105.53 C 91.94 106.24 93.00 106.92 94.09 107.55 C 93.55 104.28 91.68 101.49 90.06 98.67 M 37.29 102.14 C 36.71 103.61 37.12 104.03 38.51 103.41 C 39.06 101.89 38.65 101.47 37.29 102.14 M 105.88 105.46 C 106.60 106.84 107.36 108.20 108.14 109.56 C 108.39 108.09 108.60 106.61 108.82 105.13 C 108.09 105.21 106.62 105.38 105.88 105.46 M 122.47 106.37 C 121.36 106.91 119.82 107.22 119.24 108.40 C 119.80 110.79 124.28 107.39 122.47 106.37 M 35.07 108.30 C 35.73 108.97 35.73 108.97 35.07 108.30 M 111.15 108.00 C 111.27 108.59 111.50 109.77 111.62 110.36 C 112.85 110.90 114.08 111.45 115.34 111.91 C 114.05 110.50 112.58 109.26 111.15 108.00 M 81.12 111.10 C 78.12 113.78 76.25 117.48 73.21 120.15 C 73.54 121.98 73.88 123.85 75.11 125.34 C 75.86 123.38 75.09 119.82 78.09 119.79 C 78.19 122.39 78.23 125.00 78.63 127.58 C 79.56 126.26 79.72 124.70 79.55 123.15 C 80.61 123.42 81.67 123.68 82.74 123.90 C 82.48 124.43 82.22 124.98 81.96 125.52 C 83.34 127.04 84.45 128.76 85.29 130.62 C 86.98 129.81 88.78 129.27 90.54 128.63 C 89.85 128.66 88.46 128.73 87.77 128.76 C 86.56 127.36 85.36 125.94 84.15 124.54 C 86.83 124.16 89.04 125.56 90.94 127.29 C 91.77 126.61 92.58 125.91 93.39 125.20 C 91.62 124.89 89.08 125.24 89.52 122.65 C 91.68 123.45 93.81 124.36 96.00 125.09 C 95.44 125.90 94.46 126.59 94.70 127.71 C 95.75 127.53 96.79 127.27 97.80 126.92 C 95.76 121.52 93.26 116.29 90.52 111.21 C 88.19 111.08 85.79 111.09 83.98 112.79 C 83.04 112.20 82.12 111.58 81.12 111.10 M 93.85 110.83 C 95.22 114.80 98.07 118.10 99.05 122.21 C 99.25 122.27 99.64 122.39 99.84 122.45 C 100.35 121.66 100.90 120.90 101.48 120.17 C 100.89 120.35 99.71 120.71 99.12 120.89 C 99.17 119.34 99.22 117.79 99.29 116.25 C 97.84 114.09 96.76 111.27 93.85 110.83 M 105.19 112.84 C 106.64 116.41 108.37 119.89 110.71 122.98 C 111.76 122.23 112.82 121.50 113.90 120.79 C 113.31 122.56 112.46 124.20 110.87 125.27 C 112.18 125.44 113.49 125.60 114.80 125.80 C 114.94 124.72 113.77 122.96 115.22 122.48 C 117.01 122.28 116.14 124.79 116.59 125.87 C 118.89 125.99 121.05 125.32 122.88 123.92 C 120.83 122.80 118.68 121.70 117.07 119.97 C 114.20 116.21 109.86 113.60 105.19 112.84 M 31.23 115.24 C 31.81 115.80 31.81 115.80 31.23 115.24 M 65.26 119.84 C 64.38 120.65 64.03 121.62 64.19 122.75 C 65.86 123.57 67.85 118.83 65.26 119.84 M 59.26 125.97 C 58.33 126.34 56.54 128.61 58.45 128.85 C 60.15 129.08 61.87 124.75 59.26 125.97 M 92.36 127.89 C 92.35 131.27 95.41 126.40 92.36 127.89 M 55.02 130.58 C 54.40 132.02 54.85 132.40 56.37 131.71 C 56.95 130.31 56.50 129.93 55.02 130.58 M 105.22 130.21 C 105.82 130.83 105.82 130.83 105.22 130.21 M 53.64 142.16 C 54.89 145.35 51.84 145.84 49.45 145.56 C 49.42 146.64 49.38 147.72 49.34 148.80 C 45.21 149.45 43.09 153.38 40.37 156.09 C 41.49 157.36 42.57 158.68 43.29 160.23 C 42.02 159.22 40.94 158.01 39.85 156.83 C 39.27 157.83 38.70 158.83 38.14 159.85 C 41.24 161.95 44.54 163.76 47.73 165.71 C 47.32 167.72 47.79 169.75 47.89 171.77 C 48.21 170.60 48.48 169.43 48.72 168.26 C 51.77 168.45 54.71 169.30 57.38 170.78 C 57.14 168.12 56.11 165.72 54.60 163.55 C 54.35 160.60 53.50 157.78 51.24 155.75 C 51.49 154.97 51.74 154.20 51.99 153.43 C 49.96 152.64 47.74 151.79 48.45 149.11 C 51.31 150.02 53.02 152.49 55.15 154.41 C 54.88 151.34 51.95 149.06 51.99 146.12 C 52.49 145.84 53.49 145.27 53.99 144.99 C 54.85 145.94 55.18 147.59 56.61 147.86 C 54.94 146.35 53.94 144.39 53.64 142.16 M 42.16 144.26 C 42.81 144.89 42.81 144.89 42.16 144.26 M 80.03 144.38 C 79.67 145.79 80.16 146.34 81.48 146.04 C 81.88 144.59 81.39 144.04 80.03 144.38 M 76.94 145.56 C 75.81 146.59 77.15 148.86 78.56 148.51 C 79.23 147.51 78.36 145.09 76.94 145.56 M 77.37 151.64 C 77.59 152.02 78.03 152.79 78.26 153.17 C 79.92 151.59 81.70 150.00 82.42 147.73 C 80.65 148.92 79.07 150.36 77.37 151.64 M 74.34 150.18 C 73.42 150.88 72.87 152.53 73.76 153.46 C 76.09 155.64 76.44 149.18 74.34 150.18 M 77.01 159.71 C 78.63 158.82 79.93 157.49 81.43 156.43 C 82.91 155.29 85.10 154.70 85.12 152.46 C 82.11 154.48 79.41 157.00 77.01 159.71 M 39.87 164.13 C 40.27 165.27 40.51 166.46 40.67 167.65 C 42.67 167.92 45.09 170.02 46.66 167.90 C 45.03 165.76 42.59 164.27 39.87 164.13 M 43.14 170.32 C 42.83 171.72 43.35 172.28 44.70 172.00 C 45.05 170.56 44.53 170.00 43.14 170.32 M 54.35 174.07 C 52.89 174.35 53.09 177.06 54.74 176.08 C 56.15 175.75 56.03 173.02 54.35 174.07 Z" />
<path fill="#ffffff" opacity="1.00" d=" M 91.24 49.34 C 93.72 47.88 96.44 47.16 99.25 46.69 C 99.51 47.15 100.03 48.07 100.29 48.53 C 102.96 47.89 105.80 48.63 107.15 51.21 C 104.59 52.96 101.55 51.58 98.73 51.52 C 96.68 53.57 95.22 56.06 94.20 58.77 C 93.61 58.36 92.42 57.55 91.83 57.14 C 91.66 54.54 91.46 51.94 91.24 49.34 Z" />
<path fill="#ffffff" opacity="1.00" d=" M 98.94 60.20 C 99.31 58.81 99.65 57.42 100.06 56.05 C 100.60 57.76 101.19 59.46 101.81 61.14 C 99.52 61.50 97.27 62.03 95.00 62.51 C 96.37 63.11 97.75 63.70 99.10 64.34 C 97.77 65.13 96.33 65.57 94.78 65.66 C 94.17 64.76 93.64 63.82 93.17 62.84 C 94.20 61.45 95.42 60.22 96.55 58.90 C 97.34 59.35 98.14 59.77 98.94 60.20 Z" />
<path fill="#ffffff" opacity="1.00" d=" M 89.12 57.29 C 89.54 57.63 90.38 58.31 90.80 58.65 C 90.06 60.02 89.24 61.39 87.82 62.14 C 88.17 60.50 88.64 58.90 89.12 57.29 Z" />
<path fill="#ffffff" opacity="1.00" d=" M 87.34 62.96 C 89.56 63.15 91.16 64.49 92.40 66.24 C 92.45 70.28 93.93 75.25 89.99 77.95 C 90.82 77.89 92.48 77.78 93.31 77.73 C 92.07 79.51 90.24 80.63 88.33 81.56 C 88.42 79.27 88.25 76.99 87.64 74.78 C 88.11 74.67 89.04 74.44 89.51 74.32 C 88.67 70.56 87.43 66.85 87.34 62.96 Z" />
<path fill="#ffffff" opacity="1.00" d=" M 98.84 65.01 C 100.47 64.44 101.03 64.96 100.53 66.58 C 98.86 67.15 98.29 66.63 98.84 65.01 Z" />
<path fill="#ffffff" opacity="1.00" d=" M 86.18 71.23 C 89.54 71.39 84.64 74.16 86.18 71.23 Z" />
<path fill="#ffffff" opacity="1.00" d=" M 64.57 82.80 C 61.08 82.82 62.57 79.48 62.95 77.29 C 63.44 79.14 63.98 80.98 64.57 82.80 Z" />
<path fill="#ffffff" opacity="1.00" d=" M 89.97 81.27 C 91.25 79.77 93.61 81.97 92.09 83.28 C 90.79 84.86 88.30 82.62 89.97 81.27 Z" />
<path fill="#ffffff" opacity="1.00" d=" M 62.79 89.59 C 64.19 89.28 64.72 89.82 64.38 91.20 C 62.98 91.52 62.45 90.98 62.79 89.59 Z" />
<path fill="#ffffff" opacity="1.00" d=" M 70.25 89.24 C 70.81 89.82 70.81 89.82 70.25 89.24 Z" />
<path fill="#ffffff" opacity="1.00" d=" M 71.48 97.43 C 72.84 96.44 74.32 98.67 73.05 99.66 C 71.75 100.65 70.28 98.36 71.48 97.43 Z" />
<path fill="#ffffff" opacity="1.00" d=" M 68.63 99.26 C 70.02 99.08 70.96 100.25 72.06 100.89 C 68.88 103.55 65.97 107.45 61.46 107.56 C 55.59 108.66 50.18 111.35 44.70 113.61 C 43.81 113.61 42.92 113.57 42.04 113.47 C 42.82 113.92 43.61 114.38 44.39 114.83 C 41.68 117.55 40.12 121.61 36.47 123.23 C 36.60 121.22 35.87 118.91 37.33 117.23 C 37.24 118.63 37.12 120.03 36.97 121.42 C 37.86 120.88 38.76 120.34 39.65 119.79 C 38.74 114.75 42.05 109.51 46.90 107.91 C 52.09 106.15 57.35 104.51 62.72 103.37 C 64.02 103.32 64.94 102.40 65.84 101.58 C 66.68 101.70 67.53 101.82 68.37 101.95 C 68.44 101.28 68.56 99.93 68.63 99.26 Z" />
<path fill="#ffffff" opacity="1.00" d=" M 66.39 116.33 C 68.78 114.17 70.66 109.67 74.48 110.60 C 72.25 112.56 70.35 114.87 68.06 116.75 C 67.65 116.65 66.81 116.43 66.39 116.33 Z" />
<path fill="#ffffff" opacity="1.00" d=" M 145.47 110.02 C 146.74 108.56 148.41 110.29 147.76 111.79 C 147.62 114.47 143.94 111.54 145.47 110.02 Z" />
<path fill="#ffffff" opacity="1.00" d=" M 34.98 114.54 C 36.46 114.48 37.94 114.42 39.43 114.36 C 38.28 115.25 37.09 116.10 35.92 116.97 C 35.60 116.15 35.29 115.34 34.98 114.54 Z" />
<path fill="#ffffff" opacity="1.00" d=" M 34.69 129.80 C 36.69 130.71 38.45 132.13 39.62 134.02 C 37.57 133.12 35.41 132.10 34.69 129.80 Z" />
<path fill="#ffffff" opacity="1.00" d=" M 35.88 134.29 C 39.24 134.46 34.29 137.22 35.88 134.29 Z" />
<path fill="#ffffff" opacity="1.00" d=" M 33.98 142.49 C 35.20 141.95 36.43 141.43 37.64 140.89 C 37.68 142.28 37.72 143.68 37.76 145.08 C 37.52 144.48 37.05 143.28 36.81 142.68 C 36.10 142.63 34.69 142.54 33.98 142.49 Z" />
<path fill="#ffffff" opacity="1.00" d=" M 68.50 141.29 C 69.87 140.27 71.24 142.56 70.13 143.57 C 68.81 144.48 67.30 142.25 68.50 141.29 Z" />
<path fill="#ffffff" opacity="1.00" d=" M 89.18 142.10 C 89.84 142.77 89.84 142.77 89.18 142.10 Z" />
<path fill="#ffffff" opacity="1.00" d=" M 64.32 148.98 C 65.81 148.51 66.30 149.16 65.80 150.93 C 64.31 151.39 63.82 150.74 64.32 148.98 Z" />
<path fill="#ffffff" opacity="1.00" d=" M 108.96 152.05 C 109.95 152.19 111.95 152.46 112.95 152.59 C 113.50 156.67 116.53 160.09 115.58 164.42 C 114.35 165.20 113.01 165.77 111.69 166.38 C 112.49 161.38 110.72 156.64 108.96 152.05 Z" />
<path fill="#ffffff" opacity="1.00" d=" M 94.53 156.49 C 95.75 156.59 96.97 156.69 98.19 156.79 C 97.17 157.78 95.53 158.40 95.10 159.85 C 98.24 160.69 101.67 159.45 104.88 159.12 C 103.97 161.55 105.00 163.90 105.94 166.14 C 104.73 164.74 103.57 163.31 102.32 161.96 C 103.00 164.48 102.42 166.83 100.52 168.63 C 100.48 166.51 100.53 164.39 100.54 162.27 C 97.15 162.32 94.70 164.92 92.07 166.71 C 91.40 166.06 90.72 165.41 90.05 164.76 C 91.40 163.24 94.04 162.40 94.18 160.16 C 91.47 159.96 89.03 163.23 86.52 164.48 C 86.54 163.61 86.59 161.87 86.61 161.00 C 89.11 159.15 92.77 159.41 94.53 156.49 Z" />
<path fill="#ffffff" opacity="1.00" d=" M 106.00 157.52 C 106.91 156.53 110.12 157.19 108.78 158.84 C 107.90 160.02 104.60 159.13 106.00 157.52 Z" />
<path fill="#ffffff" opacity="1.00" d=" M 59.13 159.08 C 60.37 159.78 60.32 160.49 58.99 161.21 C 57.76 160.47 57.80 159.77 59.13 159.08 Z" />
<path fill="#ffffff" opacity="1.00" d=" M 62.21 163.09 C 63.61 163.67 63.61 164.32 62.21 165.04 C 60.85 164.44 60.85 163.79 62.21 163.09 Z" />
</g>
</svg>
