<?xml version="1.0" encoding="UTF-8" ?>
<!DOCTYPE svg PUBLIC "-//W3C//DTD SVG 1.1//EN" "http://www.w3.org/Graphics/SVG/1.1/DTD/svg11.dtd">
<svg width="128pt" height="128pt" viewBox="0 0 128 128" version="1.1" xmlns="http://www.w3.org/2000/svg">
<g id="#ffffffff">
<path fill="#ffffff" opacity="1.00" d=" M 117.61 25.61 C 121.89 23.74 124.31 29.13 128.00 30.31 L 128.00 32.14 C 126.38 32.16 124.75 32.18 123.13 32.19 C 121.02 35.41 118.75 38.55 117.01 42.00 C 115.36 45.07 115.48 48.73 113.92 51.84 C 112.48 53.76 110.27 55.08 109.35 57.38 C 107.45 63.20 100.57 64.15 95.72 66.47 C 93.73 70.43 92.94 75.95 88.39 77.79 C 88.26 75.02 89.48 72.55 90.85 70.25 C 89.56 70.43 88.27 70.60 86.98 70.76 C 86.14 73.77 85.11 77.29 81.66 78.15 C 81.78 74.88 83.41 72.02 85.04 69.29 C 82.68 67.95 80.33 66.52 78.51 64.48 C 80.66 64.58 82.81 64.79 84.96 64.95 C 82.94 63.03 81.38 60.38 78.60 59.49 C 75.86 58.46 73.03 57.72 70.25 56.84 C 70.33 55.15 71.13 53.24 69.85 51.80 C 66.24 51.44 62.61 51.72 58.99 51.65 C 51.05 51.55 43.20 53.88 35.25 53.08 C 35.28 52.40 35.33 51.05 35.36 50.38 C 41.54 48.35 47.78 45.96 54.42 46.58 C 47.89 43.32 40.39 43.50 33.49 45.31 C 25.26 47.16 16.13 49.52 10.85 56.67 C 11.78 53.07 14.73 50.63 17.82 48.85 C 24.85 44.90 32.86 42.84 40.88 42.22 C 41.36 41.88 42.33 41.21 42.82 40.87 C 32.27 40.06 21.08 40.44 11.47 45.36 C 8.49 46.77 5.85 48.81 2.79 50.06 C 4.84 45.80 9.50 44.15 13.59 42.52 C 27.69 36.79 43.55 38.02 58.00 41.75 C 62.51 42.83 67.20 43.08 71.63 44.53 C 73.03 44.70 73.48 46.07 74.03 47.13 C 76.36 47.41 78.89 48.32 81.08 47.00 C 87.07 44.11 93.62 42.58 100.24 42.10 C 103.89 42.01 107.21 40.19 109.99 37.96 C 111.96 35.23 110.63 31.33 112.41 28.48 C 113.92 27.18 115.83 26.45 117.61 25.61 M 117.88 29.13 C 118.44 30.24 118.85 32.37 120.56 31.50 C 121.38 30.80 123.71 29.22 121.85 28.27 C 120.81 26.63 119.16 28.93 117.88 29.13 M 99.94 48.82 C 103.00 48.94 105.35 46.76 108.25 46.30 C 110.05 46.17 110.32 43.93 111.16 42.70 C 107.39 44.68 103.51 46.48 99.94 48.82 M 55.63 44.20 C 59.38 45.70 63.90 47.05 67.89 46.03 C 63.94 44.79 59.79 43.95 55.63 44.20 M 43.54 50.30 C 43.31 51.76 45.85 51.71 46.50 50.82 C 46.74 49.34 44.21 49.49 43.54 50.30 M 79.24 53.23 C 77.62 53.47 78.19 56.09 79.78 55.14 C 81.25 54.78 80.78 52.41 79.24 53.23 M 92.03 64.18 C 96.04 62.02 98.20 57.54 101.10 54.14 C 97.77 57.17 94.39 60.31 92.03 64.18 M 89.22 60.17 C 88.65 61.59 89.08 62.03 90.52 61.51 C 91.09 60.09 90.65 59.65 89.22 60.17 Z" />
</g>
</svg>
