<?xml version="1.0" encoding="UTF-8" ?>
<!DOCTYPE svg PUBLIC "-//W3C//DTD SVG 1.1//EN" "http://www.w3.org/Graphics/SVG/1.1/DTD/svg11.dtd">
<svg width="128pt" height="128pt" viewBox="0 0 128 128" version="1.1" xmlns="http://www.w3.org/2000/svg">
<g id="#ffffffff">
<path fill="#ffffff" opacity="1.00" d=" M 99.97 45.99 C 102.72 42.26 104.28 37.77 107.03 34.02 C 108.27 35.72 108.05 37.64 106.84 39.25 C 107.40 40.36 107.90 41.50 108.41 42.64 C 112.05 43.53 115.62 45.03 118.49 47.49 C 119.54 49.04 120.95 50.88 120.02 52.83 C 117.63 53.51 116.96 50.65 115.46 49.43 C 114.36 49.29 113.26 49.22 112.15 49.21 C 112.38 51.33 112.40 54.20 115.01 54.76 C 117.43 54.92 119.73 53.84 122.08 53.42 C 124.23 53.95 126.09 55.26 128.00 56.32 L 128.00 61.24 C 126.92 61.74 125.85 62.23 124.77 62.72 C 124.21 61.94 123.64 61.15 123.08 60.36 C 121.23 59.80 119.57 58.82 118.11 57.57 C 117.94 57.93 117.78 58.29 117.62 58.65 C 119.40 59.71 121.86 60.53 121.82 63.01 C 119.41 62.53 117.03 61.89 114.61 61.45 C 117.47 64.10 121.53 63.85 125.11 64.63 C 124.20 65.73 123.76 67.83 121.95 67.52 C 118.44 67.44 115.03 66.12 111.51 66.52 C 107.75 68.33 104.38 70.87 101.14 73.48 C 100.26 72.13 99.95 70.65 100.59 69.13 C 98.83 71.80 95.62 72.87 93.59 75.28 C 95.49 74.50 97.12 73.23 98.78 72.05 C 99.40 72.92 100.03 73.79 100.66 74.65 C 96.85 79.00 90.37 80.93 88.53 86.95 C 90.59 88.50 92.82 89.77 95.06 91.03 C 97.06 96.74 95.52 104.28 100.88 108.42 C 100.72 109.25 100.57 110.09 100.41 110.94 C 97.73 110.10 94.92 109.77 92.11 109.79 C 92.10 106.34 91.96 102.88 91.38 99.49 C 88.89 95.26 85.78 91.31 82.14 88.00 C 82.47 87.63 83.14 86.88 83.47 86.51 C 78.52 87.09 77.73 80.38 73.25 79.48 C 74.64 81.94 75.75 84.57 76.44 87.32 C 76.39 89.69 75.44 91.95 75.12 94.30 C 77.97 93.57 78.26 90.29 79.34 88.05 C 79.45 92.28 76.53 95.47 74.32 98.77 C 75.55 100.39 76.93 101.97 77.50 103.97 C 76.92 105.62 75.73 106.95 74.77 108.39 C 72.68 106.25 69.92 106.15 67.16 106.79 C 68.72 103.79 68.52 100.44 69.00 97.21 C 70.69 92.05 72.19 86.79 72.59 81.35 C 69.84 82.09 67.06 82.75 64.25 83.20 C 64.67 81.76 65.45 80.51 66.14 79.20 C 63.43 80.42 60.45 80.90 57.49 80.60 C 54.91 85.86 51.28 90.89 50.26 96.74 C 52.21 100.26 55.19 103.06 57.72 106.15 C 55.17 107.30 51.98 108.10 49.39 106.75 C 47.67 104.56 46.71 101.91 45.48 99.44 C 46.20 99.45 47.65 99.47 48.37 99.48 C 47.35 96.82 45.82 94.15 46.23 91.19 C 46.72 89.40 47.72 87.81 48.63 86.21 C 48.20 85.83 47.34 85.09 46.92 84.72 C 42.05 89.33 37.79 94.72 36.22 101.38 C 37.31 100.48 38.40 99.59 39.53 98.73 C 38.84 96.05 39.70 93.60 41.77 91.78 C 41.83 94.50 41.89 97.23 41.51 99.93 C 41.97 100.17 42.90 100.65 43.36 100.89 C 43.36 101.28 43.37 102.04 43.38 102.42 C 40.29 102.71 37.19 102.57 34.10 102.70 C 35.00 99.69 35.66 96.61 36.32 93.55 C 37.08 90.02 39.34 87.11 41.00 83.98 C 42.28 82.02 40.47 79.85 40.04 77.87 C 41.80 76.90 43.58 75.96 45.46 75.26 C 45.70 76.21 45.95 77.16 46.19 78.12 C 47.59 78.66 48.96 79.26 50.35 79.83 C 49.05 77.90 47.45 76.20 46.06 74.33 C 44.68 75.07 43.31 75.81 41.94 76.53 C 41.16 75.37 40.38 74.22 39.61 73.06 C 39.48 74.96 40.04 77.09 39.15 78.84 C 36.44 81.80 33.15 84.16 29.79 86.32 C 28.31 87.39 26.73 86.00 25.35 85.44 C 24.12 86.15 22.83 86.74 21.65 87.52 C 21.14 88.93 21.54 90.52 21.40 92.00 C 20.41 91.88 19.42 91.76 18.42 91.64 C 18.46 93.22 18.46 94.81 18.39 96.40 C 19.41 95.88 20.45 95.38 21.48 94.91 C 20.05 99.17 18.77 103.67 15.97 107.27 C 15.44 107.26 14.38 107.24 13.85 107.23 C 14.67 104.13 16.31 101.37 17.76 98.54 C 15.24 100.15 13.49 102.67 10.99 104.30 C 7.71 104.17 4.61 105.10 1.86 106.89 C 1.23 106.08 0.61 105.26 -0.00 104.43 L 0.00 100.95 C 1.28 100.72 2.55 100.48 3.83 100.24 C 4.96 101.15 6.07 102.08 7.20 102.99 C 8.51 101.89 9.97 100.86 10.76 99.28 C 9.12 99.99 7.55 100.82 5.96 101.61 C 5.64 99.04 5.07 96.53 4.43 94.03 C 5.04 92.36 7.15 92.17 8.47 91.26 C 11.03 90.19 12.88 88.00 15.34 86.78 C 13.42 86.47 11.49 86.18 9.57 85.83 C 13.28 85.22 17.13 84.99 20.06 82.25 C 20.92 82.78 21.78 83.30 22.64 83.83 C 23.74 81.55 23.61 79.03 23.42 76.58 C 28.14 73.00 33.08 69.55 38.68 67.46 C 39.40 68.05 40.02 68.75 40.54 69.56 C 41.63 69.46 42.72 69.35 43.81 69.24 C 42.62 67.50 41.38 65.78 40.12 64.09 C 41.58 62.64 42.93 61.06 44.52 59.77 C 48.53 58.05 52.81 57.09 56.99 55.90 C 57.51 56.53 58.02 57.16 58.54 57.80 C 58.42 56.84 58.30 55.89 58.19 54.94 C 66.17 54.25 73.95 49.36 82.06 51.98 C 87.44 48.17 94.75 50.01 99.97 45.99 M 104.68 48.37 C 106.49 47.74 108.31 47.15 110.10 46.48 C 108.09 46.73 104.40 45.06 104.68 48.37 M 81.38 53.00 C 81.53 56.52 84.25 51.36 81.38 53.00 M 68.26 54.09 C 67.56 55.51 67.94 55.92 69.42 55.35 C 70.09 53.89 69.71 53.47 68.26 54.09 M 78.21 54.06 C 78.25 57.43 81.28 52.47 78.21 54.06 M 97.07 58.55 C 93.21 57.88 90.79 61.57 88.55 64.08 C 91.56 62.97 94.28 61.19 97.36 60.23 C 100.52 59.18 103.54 57.10 104.99 54.02 C 102.22 55.27 100.09 57.98 97.07 58.55 M 65.21 55.22 C 65.82 55.83 65.82 55.83 65.21 55.22 M 80.24 60.24 C 80.80 60.82 80.80 60.82 80.24 60.24 M 94.87 63.39 C 96.28 64.05 97.69 64.72 99.03 65.53 C 101.57 64.54 104.12 63.60 106.66 62.64 C 106.69 62.03 106.75 60.82 106.78 60.21 C 103.54 63.27 99.02 63.12 94.87 63.39 M 65.17 63.24 C 64.73 64.59 65.22 65.08 66.64 64.71 C 67.07 63.34 66.58 62.85 65.17 63.24 M 66.19 67.26 C 64.48 70.10 69.62 67.52 66.19 67.26 M 46.16 69.27 C 44.40 70.19 45.60 73.05 47.44 71.58 C 49.84 70.99 47.90 68.20 46.16 69.27 M 23.88 79.43 C 25.36 78.75 26.67 77.79 27.96 76.80 C 28.95 77.58 29.94 78.37 30.98 79.10 C 30.63 77.83 30.24 76.57 29.84 75.31 C 30.87 75.53 31.89 75.75 32.92 75.97 C 33.55 74.61 34.29 73.29 35.03 71.98 C 30.43 72.74 26.58 75.75 23.88 79.43 M 50.55 72.04 C 49.58 73.28 51.73 74.40 52.52 73.29 C 53.55 72.04 51.32 70.82 50.55 72.04 M 68.21 78.18 C 66.61 78.41 67.20 81.05 68.75 80.15 C 70.16 79.74 69.79 77.38 68.21 78.18 M 86.23 83.23 C 86.82 83.83 86.82 83.83 86.23 83.23 M 9.23 94.24 C 9.82 94.83 9.82 94.83 9.23 94.24 Z" />
<path fill="#ffffff" opacity="1.00" d=" M 21.63 89.52 C 22.67 86.27 26.41 87.45 28.98 87.05 C 28.19 93.19 26.07 99.81 20.99 103.74 C 19.18 101.85 21.14 99.74 21.38 97.67 C 21.97 94.96 21.83 91.69 24.42 89.98 C 23.72 89.87 22.33 89.64 21.63 89.52 Z" />
</g>
</svg>
