<?xml version="1.0" encoding="UTF-8" ?>
<!DOCTYPE svg PUBLIC "-//W3C//DTD SVG 1.1//EN" "http://www.w3.org/Graphics/SVG/1.1/DTD/svg11.dtd">
<svg width="200pt" height="200pt" viewBox="0 0 200 200" version="1.1" xmlns="http://www.w3.org/2000/svg">
<g id="#ffffffff">
<path fill="#ffffff" opacity="1.00" d=" M 131.20 22.84 C 131.93 22.51 133.39 21.85 134.11 21.52 C 136.92 23.47 139.59 25.62 141.58 28.44 C 144.64 32.54 149.64 35.45 151.02 40.61 C 149.43 40.51 147.85 40.38 146.27 40.19 C 143.36 43.03 140.11 45.50 136.80 47.85 C 132.67 50.76 129.08 54.35 125.09 57.44 C 123.63 57.73 122.15 57.78 120.67 57.87 C 116.69 51.53 110.22 47.40 105.97 41.33 C 111.22 40.28 115.61 43.75 120.22 45.61 C 118.90 41.65 116.43 38.19 115.33 34.14 C 115.91 33.60 117.07 32.53 117.65 31.99 C 121.48 33.55 124.48 36.52 128.10 38.46 C 126.41 34.73 123.84 31.09 124.33 26.78 C 125.00 26.63 126.34 26.32 127.01 26.17 C 129.46 28.47 131.80 30.98 134.72 32.70 C 133.75 29.35 132.45 26.10 131.20 22.84 M 137.57 30.24 C 138.25 32.86 138.59 35.55 138.66 38.26 C 134.39 39.74 132.17 35.19 129.15 33.19 C 129.71 34.98 130.39 36.74 131.26 38.40 C 130.26 40.00 129.57 41.77 128.86 43.52 C 126.21 41.90 123.72 40.03 121.05 38.43 C 122.78 41.96 124.69 45.75 123.29 49.76 C 120.63 48.71 117.98 47.64 115.47 46.25 C 117.82 48.87 119.95 51.67 122.28 54.31 C 129.35 48.21 137.65 43.55 144.09 36.75 C 142.20 34.30 140.03 32.10 137.57 30.24 Z" />
<path fill="#ffffff" opacity="1.00" d=" M 154.02 55.93 C 161.08 53.26 168.01 50.12 175.40 48.38 C 175.61 50.09 175.39 51.93 176.19 53.52 C 177.25 54.62 178.60 55.38 179.66 56.48 C 180.43 59.17 181.95 61.94 180.94 64.77 C 179.70 69.39 178.44 74.43 174.72 77.74 C 171.97 80.40 169.76 83.52 167.34 86.46 C 167.26 85.41 167.09 83.30 167.01 82.25 C 166.81 83.76 166.82 85.29 166.72 86.82 C 162.60 94.62 156.27 101.04 149.39 106.46 C 147.48 106.89 145.52 106.52 143.62 106.22 C 143.98 108.82 142.35 111.00 141.20 113.17 C 138.46 118.21 134.08 122.16 129.38 125.33 C 124.65 128.61 118.66 128.49 113.45 130.60 C 106.53 132.92 100.74 137.50 94.96 141.81 C 98.78 146.56 99.28 152.85 102.29 158.02 C 102.41 157.29 102.64 155.84 102.75 155.11 C 101.10 150.43 97.86 145.86 98.35 140.71 C 101.59 140.59 104.73 139.80 107.95 139.44 C 110.03 146.51 107.35 153.78 104.19 160.08 C 103.47 162.16 101.60 163.41 100.08 164.86 C 99.60 164.42 98.65 163.54 98.18 163.09 C 97.61 163.53 96.46 164.41 95.89 164.85 C 91.64 164.36 86.59 163.93 83.77 160.27 C 83.20 157.01 83.47 153.66 83.28 150.37 C 82.34 150.81 81.42 151.27 80.50 151.75 C 80.61 150.76 80.70 149.77 80.77 148.78 C 77.09 151.48 73.67 154.60 71.47 158.67 C 71.01 158.48 70.10 158.10 69.64 157.91 C 70.58 155.91 71.56 153.88 71.75 151.65 C 75.66 150.66 78.72 148.08 81.55 145.35 C 81.62 146.18 81.75 147.85 81.82 148.68 C 83.29 145.92 84.70 143.10 86.63 140.64 C 87.89 139.26 89.78 139.76 91.42 139.65 C 92.45 137.52 94.16 135.90 95.86 134.30 C 92.54 133.84 91.05 137.09 89.10 139.11 C 88.27 137.46 87.52 135.77 86.94 134.02 C 88.31 134.38 89.66 134.83 90.95 135.40 C 92.05 133.45 93.28 131.54 93.83 129.34 C 94.73 129.92 95.64 130.48 96.54 131.05 C 95.88 131.54 94.55 132.53 93.89 133.02 C 95.73 133.66 97.47 132.95 99.18 132.29 C 99.39 131.23 99.60 130.18 99.79 129.13 C 102.64 129.87 105.85 130.29 108.56 128.81 C 111.31 127.45 114.34 126.86 117.23 125.87 C 117.38 123.76 117.77 121.69 118.56 119.72 C 121.64 118.71 124.82 117.56 127.09 115.14 C 128.96 115.60 130.89 115.68 132.80 115.48 C 132.72 114.76 132.54 113.31 132.46 112.59 C 132.80 112.82 133.48 113.27 133.83 113.50 C 135.32 111.10 137.64 109.46 139.90 107.84 C 143.03 105.39 145.96 102.68 148.67 99.77 C 153.08 97.48 157.64 95.28 161.10 91.60 C 157.80 92.21 154.52 94.51 151.14 93.03 C 147.61 92.01 144.17 89.78 140.36 90.85 C 140.40 90.28 140.48 89.14 140.52 88.57 C 138.95 88.53 137.38 88.39 135.82 88.26 C 135.70 87.06 135.59 85.87 135.49 84.67 C 131.73 83.94 128.57 81.76 126.04 78.96 C 127.32 74.88 128.06 68.60 133.44 68.24 C 132.33 71.54 131.18 74.83 130.24 78.18 C 133.95 80.33 138.31 81.47 141.24 84.82 C 141.57 84.15 142.22 82.81 142.54 82.14 C 146.58 83.54 150.85 84.88 155.17 84.26 C 159.00 83.07 162.55 80.11 166.74 80.73 C 169.04 78.27 170.96 75.52 172.11 72.33 C 172.45 70.52 174.23 70.06 175.70 69.44 C 175.14 69.29 174.02 68.97 173.46 68.81 C 173.99 67.45 174.49 66.08 174.94 64.69 C 172.42 66.55 173.02 70.60 170.04 72.13 C 165.76 75.54 161.89 82.09 155.56 80.74 C 152.30 82.02 149.03 79.46 145.96 81.44 C 142.45 79.35 137.87 79.13 135.26 75.70 C 136.72 75.60 138.19 75.67 139.66 75.75 C 139.57 75.09 139.37 73.78 139.27 73.13 C 143.87 75.68 148.96 77.39 154.27 76.19 C 148.92 73.71 141.64 71.00 141.05 64.19 C 145.63 65.96 148.79 70.14 153.58 71.51 C 157.43 73.16 161.63 72.36 165.67 72.26 C 165.56 70.61 165.45 68.95 165.33 67.31 C 166.62 68.14 167.87 69.02 169.14 69.89 C 167.99 68.01 165.44 66.19 166.67 63.73 C 167.95 61.44 169.24 59.14 170.02 56.61 C 170.74 56.57 172.17 56.50 172.89 56.47 C 172.65 55.12 172.41 53.78 172.16 52.44 C 168.93 54.06 165.54 55.27 162.15 56.48 C 162.80 59.06 162.71 62.85 159.55 63.63 C 156.96 64.23 155.52 61.65 154.01 60.07 C 145.16 61.84 137.16 66.58 128.15 67.73 C 128.19 66.75 128.26 64.80 128.30 63.82 C 137.24 62.41 145.06 57.23 154.02 55.93 M 170.40 58.98 C 170.62 62.34 173.28 57.39 170.40 58.98 M 176.51 60.50 C 175.44 61.28 174.22 62.90 174.63 64.29 C 176.57 65.19 178.40 61.39 176.51 60.50 M 142.96 84.35 C 144.96 88.05 149.44 89.02 152.98 90.68 C 155.43 89.26 158.40 88.25 159.81 85.59 C 156.89 86.20 154.01 87.19 151.00 87.32 C 148.17 86.76 145.72 85.12 142.96 84.35 M 146.25 105.28 C 146.88 105.90 146.88 105.90 146.25 105.28 M 129.70 117.63 C 130.22 118.28 130.73 118.92 131.24 119.57 C 132.24 118.91 133.25 118.27 134.25 117.61 C 132.73 117.63 131.22 117.66 129.70 117.63 M 122.26 124.21 C 120.62 127.10 125.63 124.58 122.26 124.21 M 100.87 131.02 C 99.35 133.97 104.30 131.15 100.87 131.02 M 100.23 141.20 C 101.66 144.24 103.00 147.35 104.82 150.18 C 104.13 147.00 104.11 142.04 100.23 141.20 M 92.01 144.02 C 92.71 147.10 94.02 150.01 94.77 153.09 C 93.96 153.61 92.34 154.67 91.53 155.20 C 91.45 152.71 91.33 150.23 91.19 147.75 C 90.76 147.61 89.91 147.34 89.48 147.20 C 89.56 149.56 89.70 151.92 89.72 154.28 C 88.63 153.96 87.56 153.61 86.48 153.27 C 86.70 155.53 86.24 158.06 88.12 159.79 C 88.72 158.21 87.48 155.83 88.98 154.74 C 91.41 155.57 90.68 158.81 89.36 160.36 C 90.90 160.59 92.42 160.87 93.96 161.13 C 92.93 158.65 90.44 154.37 95.03 154.12 C 95.78 157.31 95.26 162.83 99.84 162.89 C 99.02 158.52 96.75 154.62 95.66 150.32 C 94.78 148.10 94.80 144.76 92.01 144.02 M 86.32 147.36 C 86.20 149.02 86.09 150.69 86.03 152.37 C 88.32 151.65 87.43 149.14 87.63 147.35 C 87.31 147.35 86.65 147.35 86.32 147.36 Z" />
<path fill="#ffffff" opacity="1.00" d=" M 108.98 69.10 C 112.22 68.20 114.97 66.00 118.37 65.49 C 118.31 66.25 118.18 67.77 118.11 68.53 C 120.63 66.95 123.12 65.27 125.92 64.20 C 125.74 65.09 125.37 66.88 125.19 67.77 C 121.62 70.74 117.51 72.99 114.01 76.06 C 110.05 79.44 105.10 81.78 102.02 86.10 C 99.05 89.11 94.00 90.64 93.13 95.25 C 92.33 98.78 90.40 101.83 86.89 103.12 C 86.27 102.02 85.65 100.93 85.03 99.84 C 83.01 101.93 80.97 104.00 79.09 106.21 C 76.83 109.54 76.59 113.69 75.38 117.43 C 74.23 119.73 72.96 121.97 71.82 124.29 C 74.07 127.60 74.96 133.72 70.54 135.61 C 69.54 132.08 71.64 127.82 68.97 124.89 C 68.73 128.21 67.54 131.33 66.46 134.44 C 65.43 136.09 63.53 137.01 62.53 138.72 C 61.52 138.63 60.50 138.56 59.48 138.51 C 60.41 139.55 61.43 140.51 62.53 141.36 C 60.16 142.76 58.66 145.10 56.98 147.21 C 61.68 149.07 58.44 153.99 56.82 156.96 C 56.42 157.24 55.63 157.81 55.23 158.09 C 55.11 155.36 55.05 152.59 55.91 149.95 C 54.78 150.20 53.66 150.45 52.53 150.68 C 52.85 150.98 53.48 151.60 53.80 151.91 C 51.43 154.42 49.39 157.20 47.75 160.24 C 49.93 158.82 52.22 157.40 54.90 157.23 C 53.58 160.17 52.61 164.39 48.90 165.04 C 45.16 166.16 41.50 167.55 37.71 168.51 C 40.45 168.55 43.16 168.85 45.87 169.24 C 48.22 167.26 50.40 164.87 53.55 164.23 C 53.48 165.29 53.32 167.40 53.25 168.46 C 55.32 167.69 54.65 165.50 54.56 163.81 C 54.22 161.92 55.42 160.24 56.11 158.58 C 56.54 160.46 56.89 162.36 57.32 164.25 C 57.78 162.40 58.26 160.56 58.76 158.73 C 61.38 160.51 59.89 163.77 60.29 166.35 C 62.77 163.62 62.02 157.87 66.70 157.84 C 65.21 162.85 63.25 168.15 65.17 173.35 C 65.36 167.99 66.09 162.61 68.95 157.94 C 71.44 160.45 69.99 164.00 69.72 167.05 C 68.60 175.02 71.20 182.93 74.56 190.05 C 74.06 191.08 73.44 192.03 72.69 192.92 C 66.16 190.93 59.28 186.91 57.75 179.71 C 55.16 177.68 53.86 174.58 53.03 171.49 C 48.64 173.52 43.79 173.69 39.13 174.69 C 40.01 173.32 40.93 171.97 41.75 170.56 C 40.34 172.13 39.09 173.84 37.64 175.38 C 37.40 174.19 37.30 173.00 37.28 171.80 C 32.14 170.54 26.29 169.62 22.99 165.00 C 25.15 163.45 27.45 162.11 29.61 160.56 C 31.58 159.49 30.87 156.75 32.33 155.31 C 37.04 150.87 43.48 148.90 49.00 145.90 C 52.93 139.52 58.96 134.74 62.58 128.15 C 59.17 131.24 53.92 130.58 49.63 130.55 C 46.86 121.57 48.52 111.08 55.13 104.18 C 58.39 101.07 62.26 98.27 66.67 97.18 C 65.86 98.49 64.91 99.71 63.98 100.94 C 67.33 100.60 71.20 100.47 73.61 97.77 C 71.76 97.73 69.92 97.79 68.07 97.85 C 73.35 92.01 81.65 90.52 89.10 89.47 C 88.73 92.35 85.52 92.79 84.10 94.94 C 82.66 97.01 80.57 98.39 78.41 99.61 C 83.60 97.79 86.26 92.44 91.06 90.01 C 87.30 88.78 83.06 87.70 81.08 83.88 C 83.92 82.17 87.24 82.56 90.40 82.58 C 90.77 81.51 91.13 80.44 91.48 79.36 C 95.45 80.06 99.55 77.12 103.14 79.64 C 104.13 78.95 105.11 78.26 106.10 77.57 C 101.00 76.76 95.79 77.06 90.72 76.16 C 90.92 75.46 91.32 74.06 91.52 73.36 C 94.36 72.86 97.24 72.66 100.13 72.83 C 98.33 72.30 96.64 71.52 95.46 70.00 C 99.71 67.79 104.46 69.27 108.98 69.10 M 89.79 85.64 C 90.71 86.67 91.65 87.67 92.61 88.65 C 93.70 87.54 94.78 86.42 95.84 85.29 C 93.82 85.35 91.81 85.49 89.79 85.64 M 53.61 113.54 C 53.21 114.99 52.82 116.44 52.44 117.89 C 58.39 113.42 65.68 111.68 72.22 108.39 C 65.71 108.43 59.67 111.45 53.61 113.54 M 54.01 120.70 C 53.50 120.37 52.48 119.72 51.97 119.39 C 52.10 119.91 52.37 120.94 52.51 121.46 C 55.35 120.55 58.31 120.07 61.10 119.02 C 63.53 118.08 66.45 117.31 67.24 114.47 C 62.82 116.52 58.28 118.33 54.01 120.70 M 72.33 116.42 C 71.32 116.33 69.63 117.85 71.25 118.41 C 73.02 119.60 74.97 116.09 72.33 116.42 M 51.59 125.89 C 54.56 127.46 57.97 126.61 61.08 125.98 C 63.02 125.73 63.10 123.38 63.96 122.02 C 59.90 123.53 55.39 123.78 51.59 125.89 M 51.94 148.94 C 53.88 147.28 55.38 144.79 58.27 145.01 C 57.81 144.36 56.90 143.08 56.44 142.43 C 54.51 144.27 53.03 146.51 51.94 148.94 M 31.93 163.54 C 36.41 163.98 40.39 161.62 44.72 161.18 C 44.51 159.83 44.34 158.47 44.24 157.11 C 40.72 160.61 34.55 159.04 31.93 163.54 M 27.87 166.07 C 30.42 166.71 33.00 167.26 35.63 167.46 C 34.24 164.42 30.02 163.02 27.87 166.07 M 61.49 174.57 C 61.55 176.93 61.74 179.29 62.28 181.59 C 63.21 183.00 64.34 184.26 65.29 185.66 C 66.42 185.59 67.56 185.54 68.69 185.49 C 65.34 182.52 63.11 178.71 61.49 174.57 Z" />
<path fill="#ffffff" opacity="1.00" d=" M 118.18 74.06 C 119.50 74.54 120.88 75.11 121.82 76.19 C 121.62 77.87 120.35 78.94 119.04 79.84 C 117.36 78.38 115.47 75.60 118.18 74.06 Z" />
<path fill="#ffffff" opacity="1.00" d=" M 111.17 83.02 C 111.72 80.98 112.42 77.90 115.27 78.73 C 115.39 80.31 115.36 81.88 115.18 83.46 C 113.84 83.34 112.50 83.19 111.17 83.02 Z" />
<path fill="#ffffff" opacity="1.00" d=" M 114.51 86.07 C 114.97 84.00 117.90 80.38 119.72 83.22 C 119.49 85.09 118.66 86.80 118.02 88.56 C 116.28 88.45 114.19 88.43 114.51 86.07 Z" />
<path fill="#ffffff" opacity="1.00" d=" M 105.13 83.48 C 106.01 83.50 107.77 83.53 108.65 83.55 C 108.00 85.58 107.46 87.65 106.57 89.59 C 105.50 89.57 104.43 89.49 103.37 89.37 C 103.95 87.40 104.58 85.45 105.13 83.48 Z" />
<path fill="#ffffff" opacity="1.00" d=" M 108.04 87.64 C 108.84 87.55 110.43 87.36 111.23 87.27 C 110.64 88.57 110.01 89.85 109.36 91.12 C 108.81 90.00 108.39 88.83 108.04 87.64 Z" />
<path fill="#ffffff" opacity="1.00" d=" M 135.32 89.28 C 136.25 89.46 137.19 89.63 138.12 89.80 C 137.91 90.55 137.48 92.04 137.26 92.79 C 138.07 93.68 138.87 94.57 139.66 95.49 C 137.08 97.79 135.81 101.32 132.60 102.95 C 131.02 102.12 129.22 99.92 130.64 98.18 C 132.07 97.30 133.57 96.51 135.07 95.75 C 135.36 94.90 135.64 94.06 135.93 93.22 C 131.58 98.61 123.83 100.53 120.59 106.82 C 124.45 106.68 126.22 103.40 128.30 100.71 C 128.93 101.60 129.31 102.73 130.23 103.38 C 131.87 103.40 133.51 103.36 135.15 103.44 C 134.27 104.80 133.45 106.21 132.44 107.47 C 130.34 108.71 127.92 108.85 125.56 108.52 C 125.35 109.12 124.93 110.31 124.72 110.91 C 122.08 110.57 119.57 109.50 116.91 109.40 C 114.21 110.59 111.60 111.98 109.35 113.91 C 108.30 111.69 107.57 109.35 106.80 107.02 C 107.76 107.23 108.72 107.44 109.67 107.67 C 110.68 104.94 112.05 102.20 114.42 100.40 C 119.86 95.80 125.19 89.80 132.87 89.62 C 132.71 90.24 132.40 91.48 132.25 92.10 C 124.52 94.62 118.18 100.32 112.94 106.37 C 117.50 104.91 120.44 100.93 124.20 98.22 C 127.22 96.06 130.40 94.14 133.63 92.30 C 134.33 91.38 134.78 90.30 135.32 89.28 Z" />
<path fill="#ffffff" opacity="1.00" d=" M 96.57 92.58 C 97.57 92.37 98.58 92.23 99.60 92.14 C 100.96 94.17 102.74 96.23 102.20 98.86 C 100.14 98.15 98.15 97.30 96.11 96.55 C 96.22 95.23 95.98 93.81 96.57 92.58 Z" />
<path fill="#ffffff" opacity="1.00" d=" M 108.89 97.36 C 109.96 96.07 111.11 94.84 112.31 93.66 C 112.40 95.38 112.50 97.09 112.64 98.81 C 111.38 98.33 110.13 97.85 108.89 97.36 Z" />
<path fill="#ffffff" opacity="1.00" d=" M 89.40 105.36 C 90.03 105.42 91.28 105.53 91.90 105.58 C 91.58 107.63 90.86 109.61 90.63 111.67 C 92.68 115.67 90.63 120.32 89.18 124.20 C 87.75 122.98 86.53 121.57 85.38 120.10 C 86.80 117.68 88.02 115.15 89.43 112.73 C 88.65 111.62 87.07 110.72 87.37 109.16 C 87.71 107.75 88.72 106.62 89.40 105.36 Z" />
<path fill="#ffffff" opacity="1.00" d=" M 82.47 108.29 C 83.54 108.44 84.60 108.58 85.67 108.72 C 85.91 110.01 86.12 111.30 86.24 112.60 C 85.01 112.53 83.78 112.45 82.55 112.36 C 82.53 111.00 82.51 109.65 82.47 108.29 Z" />
<path fill="#ffffff" opacity="1.00" d=" M 96.00 109.31 C 97.22 109.20 98.45 109.15 99.67 109.18 C 101.64 111.18 101.78 114.12 101.34 116.74 C 97.47 116.70 95.55 112.74 96.00 109.31 Z" />
<path fill="#ffffff" opacity="1.00" d=" M 103.56 112.99 C 104.15 112.10 104.85 111.28 105.56 110.48 C 105.60 112.23 105.53 113.99 105.51 115.75 C 104.87 114.82 104.17 113.93 103.56 112.99 Z" />
<path fill="#ffffff" opacity="1.00" d=" M 79.49 112.41 C 80.41 112.62 81.34 112.85 82.26 113.07 C 81.55 114.88 80.54 116.54 79.35 118.07 C 79.03 117.51 78.38 116.40 78.06 115.84 C 78.54 114.70 79.02 113.55 79.49 112.41 Z" />
<path fill="#ffffff" opacity="1.00" d=" M 103.22 125.36 C 105.96 124.61 103.36 128.43 102.35 128.94 C 100.30 128.51 101.85 125.72 103.22 125.36 Z" />
<path fill="#ffffff" opacity="1.00" d=" M 65.57 136.91 C 67.12 136.18 68.70 136.13 70.30 136.75 C 71.09 138.31 69.15 139.29 68.54 140.51 C 67.93 140.50 66.70 140.49 66.09 140.49 C 65.77 139.31 65.60 138.12 65.57 136.91 Z" />
<path fill="#ffffff" opacity="1.00" d=" M 81.60 140.20 C 82.96 139.07 84.36 137.99 85.77 136.93 C 85.64 138.14 85.49 139.36 85.33 140.57 C 84.09 140.47 82.84 140.35 81.60 140.20 Z" />
<path fill="#ffffff" opacity="1.00" d=" M 75.17 146.32 C 75.94 142.95 79.49 142.61 82.20 141.57 C 80.62 144.05 77.60 144.92 75.17 146.32 Z" />
<path fill="#ffffff" opacity="1.00" d=" M 61.98 143.34 C 62.61 144.65 62.46 146.12 62.45 147.53 C 61.24 147.71 60.03 147.88 58.81 148.05 C 60.14 146.67 61.13 145.04 61.98 143.34 Z" />
<path fill="#ffffff" opacity="1.00" d=" M 59.95 152.07 C 61.70 151.27 63.50 150.62 65.31 150.00 C 64.09 151.19 62.42 152.00 61.58 153.53 C 61.39 155.32 61.45 157.13 61.21 158.92 C 60.21 158.04 59.22 157.16 58.23 156.27 C 58.82 154.87 59.28 153.42 59.95 152.07 Z" />
</g>
</svg>
