<?xml version="1.0" encoding="UTF-8" ?>
<!DOCTYPE svg PUBLIC "-//W3C//DTD SVG 1.1//EN" "http://www.w3.org/Graphics/SVG/1.1/DTD/svg11.dtd">
<svg width="200pt" height="200pt" viewBox="0 0 200 200" version="1.1" xmlns="http://www.w3.org/2000/svg">
<g id="#ffffffff">
<path fill="#ffffff" opacity="1.00" d=" M 177.80 45.85 C 180.08 44.26 181.68 40.68 184.99 41.73 C 184.88 42.40 184.66 43.75 184.55 44.43 C 180.01 48.26 175.53 52.18 171.61 56.66 C 171.36 56.30 170.86 55.59 170.60 55.23 C 170.87 59.39 165.91 60.35 163.80 63.23 C 167.74 61.04 171.22 58.11 174.84 55.44 C 175.33 56.10 176.33 57.42 176.83 58.08 C 174.90 59.59 172.74 60.96 171.37 63.04 C 172.03 68.52 171.93 74.11 173.26 79.49 C 173.56 80.59 173.33 81.72 173.26 82.84 C 163.29 82.24 153.42 84.75 143.47 84.27 C 141.29 86.36 138.71 87.89 136.29 89.66 C 139.20 89.75 142.11 89.79 145.02 89.85 C 151.59 90.24 157.39 93.99 163.96 94.35 C 166.80 94.50 169.58 95.23 172.15 96.45 C 176.72 92.60 182.30 96.44 186.95 98.15 C 186.52 98.44 185.68 99.02 185.25 99.31 C 190.36 99.12 193.93 104.31 199.25 103.90 C 199.12 105.16 198.95 106.41 198.72 107.66 C 193.07 111.88 186.99 115.68 180.18 117.72 C 177.61 118.97 174.78 119.41 171.95 119.24 C 171.02 115.16 168.46 111.71 167.19 107.77 C 167.03 104.94 167.85 102.17 168.86 99.56 C 169.63 99.77 171.17 100.21 171.94 100.43 C 171.32 102.73 170.35 105.05 170.72 107.49 C 171.43 109.40 172.79 110.97 173.70 112.78 C 176.58 113.45 179.76 114.15 182.54 112.73 C 184.26 111.80 185.91 110.73 187.62 109.78 C 186.95 108.86 186.29 107.94 185.63 107.01 C 187.15 105.72 188.96 105.27 190.92 105.53 C 188.69 103.94 186.59 102.16 184.31 100.65 C 180.54 99.35 176.54 98.82 172.79 97.44 C 170.16 97.69 167.59 98.86 164.88 98.19 C 164.38 101.14 164.35 104.20 163.10 106.98 C 163.35 109.02 163.28 111.08 163.47 113.13 C 165.04 115.15 168.05 114.65 169.90 116.13 C 170.56 118.77 167.41 120.39 165.44 118.75 C 162.47 116.92 157.37 116.25 157.26 111.88 C 156.72 109.60 159.37 107.29 157.78 105.29 C 156.39 104.74 155.41 103.75 154.86 102.32 C 156.15 103.01 157.48 103.62 158.84 104.15 C 159.69 103.23 159.67 101.85 160.05 100.71 C 152.86 98.60 145.36 99.81 138.01 98.85 C 136.02 98.42 133.39 99.37 131.83 97.97 C 131.14 96.42 132.04 95.01 132.68 93.64 C 132.04 94.03 131.40 94.43 130.77 94.83 C 130.87 95.84 130.91 96.85 130.88 97.86 C 129.17 99.64 126.64 97.52 124.67 98.50 C 121.54 99.96 118.58 101.76 115.91 103.95 C 113.38 105.43 110.89 107.03 108.94 109.26 C 113.82 111.84 118.49 114.78 123.31 117.45 C 122.21 119.38 120.56 120.24 118.37 119.26 C 118.45 118.62 118.61 117.33 118.69 116.69 C 118.27 116.88 117.43 117.27 117.01 117.46 C 112.18 115.80 108.70 109.58 103.04 111.37 C 109.57 115.15 115.45 120.95 123.30 121.74 C 122.20 120.85 122.11 119.91 123.02 118.93 C 125.56 118.08 127.59 120.78 130.07 121.14 C 133.28 121.40 136.50 121.35 139.72 121.36 C 139.75 121.06 139.82 120.45 139.85 120.15 C 139.59 119.90 139.07 119.41 138.81 119.16 C 139.11 118.67 139.42 118.19 139.73 117.70 C 140.45 118.20 141.19 118.67 141.93 119.15 C 141.68 119.41 141.19 119.93 140.94 120.19 C 141.05 120.50 141.26 121.11 141.37 121.42 C 145.78 120.21 150.40 120.72 154.92 120.88 C 156.29 119.74 157.64 118.56 159.13 117.57 C 160.62 117.57 160.50 119.63 161.22 120.56 C 157.90 123.81 154.41 127.93 154.34 132.80 C 154.73 133.32 155.51 134.37 155.90 134.89 C 157.12 133.68 158.32 132.45 159.56 131.25 C 159.88 132.04 160.21 132.82 160.54 133.61 C 159.47 134.82 158.43 136.07 157.36 137.29 C 160.71 138.06 163.87 139.51 166.91 141.10 C 167.54 143.45 164.79 143.74 163.28 142.80 C 157.50 140.40 151.63 138.24 145.92 135.67 C 148.45 138.48 152.11 139.64 155.45 141.17 C 155.92 143.83 157.72 145.91 159.17 148.09 C 162.35 150.20 166.18 151.36 168.89 154.15 C 168.65 155.12 168.04 155.67 167.07 155.81 C 164.63 154.98 162.39 153.71 160.13 152.51 C 158.75 151.89 157.13 151.35 157.04 149.56 C 156.84 149.78 156.44 150.23 156.24 150.45 C 141.38 142.74 126.67 134.72 112.69 125.48 C 109.22 130.03 105.69 134.58 101.57 138.55 C 98.56 140.13 94.41 140.46 91.52 138.41 C 89.20 137.47 88.61 134.91 87.49 132.93 C 90.81 130.70 94.04 127.98 98.04 127.11 C 98.82 125.90 99.64 124.72 100.45 123.53 C 97.52 123.54 94.71 124.50 91.78 124.58 C 91.28 123.81 90.27 122.27 89.77 121.50 C 95.77 119.66 101.60 122.33 107.54 122.76 C 104.76 119.80 101.10 117.94 98.00 115.37 C 95.41 117.60 92.30 119.08 89.50 121.02 C 90.02 122.17 90.55 123.32 91.09 124.47 C 87.11 124.99 82.71 124.75 79.39 127.36 C 75.33 129.30 71.86 132.25 67.75 134.10 C 61.99 138.41 55.35 141.42 49.34 145.39 C 42.03 148.83 35.46 153.61 28.16 157.04 C 26.35 158.27 22.48 160.58 22.04 156.93 C 25.65 154.35 29.70 152.49 33.46 150.16 C 33.45 149.44 33.45 148.01 33.44 147.30 C 30.25 149.77 26.71 151.72 23.21 153.70 C 23.33 153.20 23.58 152.20 23.70 151.70 C 27.95 149.80 31.23 145.73 36.07 145.32 C 41.56 142.38 46.24 137.85 52.21 135.73 C 48.17 135.65 44.28 134.56 40.45 133.39 C 38.69 132.73 39.95 130.66 40.59 129.65 C 43.02 126.40 46.35 123.98 49.00 120.93 C 48.82 120.41 48.45 119.37 48.27 118.85 C 45.36 117.69 42.25 117.06 39.20 116.40 C 36.50 116.89 33.86 117.63 31.21 118.32 C 30.26 117.41 29.30 116.52 28.28 115.71 C 28.91 117.12 29.65 118.49 30.27 119.91 C 25.20 124.04 18.21 124.41 11.95 124.18 C 9.36 124.21 7.31 122.46 5.24 121.16 C 5.14 117.09 10.40 115.32 9.56 111.24 C 13.25 109.02 16.89 106.73 20.50 104.38 C 19.67 104.18 18.86 103.97 18.04 103.76 C 16.90 106.62 12.53 106.37 10.45 104.56 C 8.34 102.57 7.00 99.90 5.24 97.60 C 4.02 95.12 6.51 95.42 8.21 95.35 C 8.59 96.28 8.97 97.22 9.35 98.15 C 9.30 96.60 9.28 95.05 9.29 93.50 C 8.80 93.15 8.32 92.80 7.84 92.45 C 6.92 93.54 6.24 96.16 4.54 94.47 C 2.57 93.91 3.06 92.14 4.06 90.94 C 3.44 90.25 2.82 89.56 2.20 88.87 C 3.03 88.01 3.85 87.16 4.68 86.31 C 10.59 90.50 17.50 93.57 24.75 94.31 C 28.93 94.86 32.50 97.32 36.07 99.37 C 38.28 97.29 35.71 95.36 35.03 93.18 C 35.86 93.28 37.50 93.48 38.32 93.57 C 38.37 93.45 38.47 93.21 38.52 93.09 C 37.96 91.93 37.42 90.76 36.89 89.58 C 41.94 91.38 47.31 91.49 52.54 92.30 C 46.87 90.22 40.81 89.75 34.98 88.30 C 33.36 88.09 32.29 86.82 31.12 85.83 C 33.11 84.53 35.18 83.25 37.49 82.60 C 40.58 82.32 43.63 83.03 46.65 83.58 C 46.07 84.73 45.49 85.88 44.90 87.03 C 47.87 87.80 50.84 88.55 53.86 89.09 C 56.93 89.53 59.27 92.05 62.46 92.04 C 62.43 90.89 62.38 89.74 62.35 88.58 C 57.05 88.19 51.94 86.51 46.62 86.19 C 45.36 82.80 49.04 83.86 51.11 83.81 C 51.29 84.21 51.65 85.00 51.84 85.39 C 53.24 85.12 54.64 84.86 56.05 84.59 C 48.01 78.44 39.70 72.63 32.11 65.90 C 29.25 63.68 26.35 61.47 24.17 58.53 C 25.74 57.14 27.47 56.41 28.68 58.55 C 28.61 57.83 28.46 56.38 28.38 55.65 C 34.86 57.21 39.83 62.24 45.48 65.57 C 47.29 66.23 47.33 68.23 47.36 69.85 C 44.22 68.34 42.00 65.58 39.19 63.60 C 42.08 68.13 47.02 70.45 50.79 74.09 C 53.98 76.03 56.44 79.26 60.17 80.21 C 58.93 79.31 57.60 78.54 56.31 77.73 C 56.63 77.52 57.28 77.10 57.61 76.90 C 54.33 76.17 51.85 73.79 49.36 71.69 C 47.95 70.72 47.55 69.05 47.47 67.44 C 55.12 71.58 61.65 77.40 69.06 81.94 C 72.95 84.75 76.76 88.06 81.25 89.77 C 89.16 89.29 97.06 88.37 104.99 88.57 C 111.03 88.43 116.99 89.61 123.03 89.49 C 130.03 85.86 135.44 79.83 142.32 76.07 C 141.97 72.15 140.27 67.44 143.96 64.56 C 145.92 67.35 148.13 69.97 150.60 72.33 C 150.26 71.74 149.58 70.57 149.25 69.98 C 151.40 67.92 151.99 64.96 153.00 62.28 C 154.43 62.71 155.85 63.18 157.28 63.60 C 157.08 64.34 156.68 65.82 156.49 66.56 C 157.28 64.83 157.89 63.03 158.66 61.29 C 160.11 61.54 161.55 61.80 163.00 62.04 C 162.45 61.66 161.35 60.91 160.80 60.53 C 166.49 55.66 171.75 50.29 177.80 45.85 M 165.03 67.37 C 163.47 70.29 168.42 67.48 165.03 67.37 M 158.00 77.42 C 156.85 76.95 155.73 76.42 154.64 75.83 C 152.91 77.34 151.11 78.77 149.42 80.32 C 155.83 79.33 162.33 79.42 168.77 78.68 C 168.46 77.00 169.32 74.81 167.97 73.51 C 166.89 74.95 165.96 76.50 165.02 78.03 C 162.05 77.25 161.90 74.29 161.52 71.75 C 160.56 73.75 159.99 76.15 158.00 77.42 M 139.44 79.14 C 138.04 79.94 137.96 80.63 139.19 81.21 C 140.61 80.40 140.69 79.71 139.44 79.14 M 131.38 87.20 C 133.51 85.56 135.50 83.74 137.42 81.86 C 134.61 82.54 132.56 84.64 131.38 87.20 M 129.42 87.28 C 128.21 87.51 127.27 88.09 126.61 89.05 C 127.40 91.38 132.99 86.90 129.42 87.28 M 58.93 95.03 C 58.87 94.54 58.74 93.56 58.67 93.07 L 57.40 93.29 C 58.32 94.76 59.31 96.18 60.20 97.66 C 58.57 97.66 56.98 97.38 55.73 96.25 C 53.67 97.29 51.61 98.58 49.24 98.68 C 45.44 99.41 41.55 97.63 37.86 99.07 C 39.30 99.52 40.75 99.94 42.20 100.33 C 41.79 101.27 41.38 102.21 40.97 103.16 C 37.53 101.59 33.85 100.76 30.11 100.27 C 27.55 99.30 25.17 97.35 22.32 98.73 C 22.61 97.97 23.20 96.44 23.50 95.68 C 22.84 96.74 22.18 97.80 21.52 98.86 C 24.10 99.39 26.54 100.38 29.06 101.10 C 27.56 102.29 26.08 103.48 24.67 104.77 C 23.84 104.09 23.01 103.41 22.17 102.75 C 23.28 104.04 24.44 105.30 25.35 106.74 C 24.61 106.78 23.14 106.85 22.41 106.89 C 21.24 107.76 20.02 108.57 18.83 109.42 C 20.77 108.80 22.75 108.30 24.76 108.02 C 25.52 107.04 26.29 106.06 27.06 105.09 C 27.75 106.73 28.44 108.37 29.17 110.00 C 24.91 112.24 19.99 111.48 15.42 112.35 C 13.78 113.85 12.32 115.55 10.78 117.16 C 11.60 117.45 12.43 117.74 13.25 118.04 C 13.47 116.76 13.46 114.54 15.19 114.46 C 18.22 114.45 21.09 113.43 24.03 112.82 C 26.40 113.23 28.74 113.89 30.97 114.79 C 34.88 113.85 38.90 111.86 42.94 113.31 C 47.29 114.25 52.73 116.32 52.87 121.59 C 53.68 121.61 55.32 121.65 56.13 121.67 C 55.00 127.72 47.10 126.66 44.59 131.39 C 51.10 131.62 54.19 123.74 60.54 124.33 C 60.62 124.05 60.77 123.50 60.85 123.23 C 63.78 123.75 66.76 122.97 69.70 123.53 C 71.35 122.83 73.13 122.66 74.88 122.36 C 80.60 119.02 85.92 114.97 91.80 111.89 C 90.27 110.17 88.80 108.33 86.76 107.20 C 83.35 105.09 80.59 102.02 76.98 100.21 C 76.11 100.63 75.27 101.10 74.46 101.62 C 74.89 99.98 75.00 98.18 73.81 96.80 C 72.24 95.87 70.61 96.71 69.13 97.34 C 67.15 96.38 65.11 95.58 62.98 95.03 C 63.60 93.76 66.38 92.60 65.18 91.10 C 62.67 91.54 60.55 93.12 58.93 95.03 M 66.05 92.71 C 64.67 93.13 64.88 95.71 66.55 94.64 C 68.14 94.39 67.63 91.78 66.05 92.71 M 114.21 93.46 C 113.32 94.57 113.56 95.27 114.95 95.55 C 115.85 94.44 115.60 93.74 114.21 93.46 M 87.68 94.81 C 89.38 95.99 91.14 97.07 92.93 98.11 C 94.63 97.33 96.42 96.03 98.36 96.84 C 100.83 97.73 103.50 97.90 105.75 96.34 C 106.03 96.79 106.59 97.68 106.87 98.13 C 108.12 97.19 109.39 96.28 110.63 95.33 C 103.05 93.76 95.34 95.07 87.68 94.81 M 69.19 95.13 C 69.87 95.81 69.87 95.81 69.19 95.13 M 128.24 96.24 C 128.81 96.82 128.81 96.82 128.24 96.24 M 135.24 96.24 C 135.83 96.83 135.83 96.83 135.24 96.24 M 94.36 100.06 C 95.16 100.15 96.75 100.32 97.55 100.41 C 98.73 101.85 99.91 103.82 101.88 104.15 C 103.98 102.94 105.88 101.41 107.76 99.87 C 106.52 99.62 105.28 99.38 104.04 99.15 C 103.05 100.67 101.66 101.70 99.81 101.79 C 99.58 100.25 99.38 98.71 99.21 97.17 C 97.19 97.41 95.56 98.43 94.36 100.06 M 101.38 99.15 C 101.47 102.59 104.41 97.65 101.38 99.15 M 105.53 106.00 C 108.94 103.90 112.05 101.35 115.26 98.97 C 111.18 99.80 107.65 102.45 105.53 106.00 M 88.86 100.25 C 87.17 103.16 92.25 100.49 88.86 100.25 M 93.18 103.33 C 93.82 103.98 93.82 103.98 93.18 103.33 M 94.46 104.10 C 94.61 105.26 94.78 106.42 94.95 107.58 C 96.33 107.14 97.71 106.73 99.10 106.32 C 97.56 105.57 96.02 104.82 94.46 104.10 M 9.06 119.21 C 8.44 120.71 9.02 121.20 10.81 120.68 C 11.41 119.19 10.83 118.70 9.06 119.21 M 96.73 130.75 C 95.03 132.28 92.26 132.78 91.63 135.24 C 96.79 132.49 102.79 129.43 105.05 123.67 C 102.42 126.20 99.86 128.81 96.73 130.75 M 136.88 124.90 C 139.97 128.48 144.66 130.19 148.92 132.01 C 150.24 129.63 151.31 127.09 150.45 124.35 C 145.92 124.39 141.41 125.00 136.88 124.90 M 61.35 126.28 C 61.48 127.79 61.58 129.31 61.64 130.83 C 63.74 129.10 66.14 127.79 68.35 126.20 C 66.04 125.25 63.65 125.41 61.35 126.28 M 52.78 133.03 C 54.94 132.68 56.79 131.52 58.09 129.77 C 55.92 130.06 53.82 130.98 52.78 133.03 M 144.39 134.19 C 143.02 134.82 143.01 135.46 144.34 136.09 C 145.73 135.45 145.75 134.81 144.39 134.19 Z" />
<path fill="#ffffff" opacity="1.00" d=" M 51.38 102.22 C 54.35 102.80 56.54 100.37 59.15 99.40 C 59.42 100.50 59.70 101.59 60.03 102.67 C 58.60 102.49 57.16 102.33 55.74 102.12 C 54.48 102.79 53.26 103.51 52.03 104.22 C 51.86 103.72 51.54 102.72 51.38 102.22 Z" />
<path fill="#ffffff" opacity="1.00" d=" M 42.34 101.48 C 45.52 100.67 48.72 99.90 51.94 99.23 C 51.54 101.03 50.98 102.79 50.48 104.57 C 47.28 104.34 43.77 105.56 41.06 103.25 C 41.38 102.81 42.02 101.92 42.34 101.48 Z" />
<path fill="#ffffff" opacity="1.00" d=" M 130.28 104.15 C 132.35 101.87 135.81 100.54 138.47 102.69 C 138.38 103.34 138.19 104.65 138.09 105.31 C 137.01 104.30 135.96 103.25 134.85 102.28 C 135.12 103.03 135.68 104.53 135.96 105.27 C 134.10 104.75 132.19 104.40 130.28 104.15 Z" />
<path fill="#ffffff" opacity="1.00" d=" M 149.46 101.25 C 150.16 101.34 151.58 101.54 152.29 101.63 C 153.19 103.23 154.23 104.75 155.27 106.26 C 153.44 105.63 150.83 106.07 149.91 103.96 C 149.80 103.29 149.57 101.93 149.46 101.25 Z" />
<path fill="#ffffff" opacity="1.00" d=" M 177.34 101.02 C 179.37 100.48 182.61 102.38 180.48 104.51 C 178.42 106.91 176.38 103.01 177.34 101.02 Z" />
<path fill="#ffffff" opacity="1.00" d=" M 127.38 102.41 C 128.11 102.51 129.57 102.70 130.30 102.80 C 129.49 103.62 128.66 104.43 127.84 105.24 C 127.72 104.53 127.49 103.12 127.38 102.41 Z" />
<path fill="#ffffff" opacity="1.00" d=" M 143.17 105.92 C 143.70 103.31 145.84 101.19 148.56 102.66 C 148.64 102.96 148.80 103.56 148.87 103.86 C 147.17 104.98 145.08 105.26 143.17 105.92 Z" />
<path fill="#ffffff" opacity="1.00" d=" M 142.12 103.12 C 143.34 103.73 143.31 104.46 142.03 105.30 C 140.80 104.64 140.83 103.91 142.12 103.12 Z" />
<path fill="#ffffff" opacity="1.00" d=" M 146.24 115.23 C 146.82 115.80 146.82 115.80 146.24 115.23 Z" />
<path fill="#ffffff" opacity="1.00" d=" M 157.17 116.21 C 157.82 116.79 157.82 116.79 157.17 116.21 Z" />
<path fill="#ffffff" opacity="1.00" d=" M 143.15 118.34 C 145.61 116.86 148.79 117.26 151.40 118.20 C 148.66 118.42 145.90 118.59 143.15 118.34 Z" />
<path fill="#ffffff" opacity="1.00" d=" M 161.80 121.76 C 162.85 120.53 164.37 119.60 166.01 119.51 C 167.99 122.69 165.18 126.10 164.02 129.05 C 163.57 130.54 161.94 130.55 160.71 130.95 C 160.66 127.93 159.32 124.15 161.80 121.76 Z" />
</g>
</svg>
