<?xml version="1.0" encoding="UTF-8" ?>
<!DOCTYPE svg PUBLIC "-//W3C//DTD SVG 1.1//EN" "http://www.w3.org/Graphics/SVG/1.1/DTD/svg11.dtd">
<svg width="200pt" height="200pt" viewBox="0 0 200 200" version="1.1" xmlns="http://www.w3.org/2000/svg">
<g id="#ffffffff">
<path fill="#ffffff" opacity="1.00" d=" M 154.07 36.37 C 161.17 29.56 168.61 23.11 176.09 16.71 C 178.70 16.38 178.10 19.61 176.60 20.62 C 173.76 23.11 171.08 25.76 168.54 28.55 C 158.26 37.42 149.19 47.57 139.03 56.55 C 134.34 62.05 129.55 67.48 124.55 72.70 C 125.19 69.11 127.77 66.53 129.70 63.62 C 125.95 66.53 122.85 70.20 119.64 73.68 C 120.89 73.60 122.14 73.49 123.39 73.37 C 122.43 77.29 126.73 79.24 129.99 78.83 C 134.27 79.64 138.68 79.07 142.90 80.22 C 147.25 80.36 151.57 80.80 155.56 82.69 C 155.62 83.70 155.74 85.72 155.80 86.73 C 152.86 84.76 149.41 83.66 145.87 83.60 C 141.44 83.53 137.05 82.72 132.62 82.78 C 131.82 84.55 130.93 86.27 130.00 87.96 C 129.09 86.13 131.26 84.96 132.06 83.60 C 128.19 82.79 124.35 83.95 120.57 84.70 C 119.10 84.90 118.00 85.93 116.88 86.80 C 116.14 86.25 115.40 85.70 114.65 85.17 C 115.09 86.35 115.56 87.52 116.25 88.58 C 115.64 89.17 115.03 89.76 114.43 90.37 C 115.38 90.46 117.29 90.65 118.25 90.75 C 116.03 92.45 113.27 93.26 110.81 91.46 C 109.95 92.89 109.04 94.29 108.13 95.69 C 111.79 101.38 113.70 108.37 118.94 112.90 C 118.55 113.81 118.15 114.71 117.74 115.61 C 119.15 115.85 120.55 116.12 121.96 116.36 C 121.71 117.86 121.48 119.36 121.28 120.87 C 123.42 120.72 125.56 120.47 127.67 120.04 C 127.19 121.25 126.73 122.46 126.32 123.69 C 127.50 122.69 128.53 121.51 129.30 120.15 C 131.13 120.48 132.99 120.66 134.80 121.13 C 135.56 119.91 135.80 117.54 137.76 118.21 C 138.65 119.35 139.51 120.53 140.44 121.65 C 140.08 120.89 139.35 119.37 138.99 118.61 C 140.05 118.20 141.10 117.78 142.15 117.35 C 140.49 117.36 137.25 117.85 137.02 115.53 C 136.28 116.63 135.55 117.74 134.75 118.80 C 132.47 119.13 132.83 116.31 132.23 114.89 C 135.86 114.18 139.56 114.46 143.22 114.02 C 143.40 115.54 143.54 117.06 143.64 118.59 C 145.62 117.74 147.67 117.00 149.85 116.94 C 149.75 117.57 149.53 118.83 149.42 119.46 C 150.26 118.48 151.16 117.56 152.05 116.63 C 150.73 116.65 149.41 116.68 148.10 116.74 C 148.01 113.23 151.89 114.52 154.11 113.56 C 154.21 114.27 154.40 115.68 154.50 116.39 C 158.02 118.11 161.86 117.15 165.58 117.06 C 164.04 115.41 162.30 113.87 161.31 111.81 C 160.07 108.85 156.84 107.47 155.36 104.68 C 153.94 102.61 154.73 99.68 155.90 97.77 C 156.64 97.97 158.13 98.38 158.87 98.58 C 157.97 101.68 158.11 105.26 160.06 107.93 C 163.72 109.31 165.12 113.30 168.34 115.35 C 170.86 114.19 173.36 115.58 175.91 115.82 C 177.81 115.59 179.62 114.91 181.47 114.45 C 181.88 115.40 182.32 116.35 182.74 117.30 C 179.87 118.46 176.59 119.60 173.92 117.37 C 171.48 118.02 169.69 120.28 166.98 120.15 C 160.77 120.51 154.58 121.25 148.52 122.69 C 151.20 124.21 154.17 123.18 156.95 122.55 C 157.19 122.90 157.68 123.60 157.92 123.95 C 154.81 125.94 151.87 128.89 147.94 128.91 C 147.75 127.74 147.60 126.56 147.47 125.38 C 146.21 126.02 144.87 126.50 143.48 126.74 C 144.44 125.12 145.60 123.64 146.78 122.18 C 141.03 123.82 135.10 125.34 129.07 124.68 C 127.44 124.36 125.89 124.94 124.37 125.46 C 128.95 133.99 134.08 142.24 138.31 150.96 C 134.13 151.57 133.46 146.91 131.37 144.40 C 128.59 141.09 127.34 136.78 124.33 133.64 C 125.01 133.32 126.38 132.68 127.06 132.36 C 125.64 132.47 124.22 132.57 122.80 132.66 C 122.62 131.38 122.44 130.11 122.31 128.83 C 120.82 127.65 119.37 126.41 117.90 125.20 C 121.06 129.14 122.84 134.04 126.47 137.61 C 128.86 142.14 131.47 146.55 134.39 150.77 C 136.31 154.07 138.48 157.29 141.33 159.87 C 139.73 156.85 137.18 154.42 135.91 151.20 C 136.60 151.31 137.98 151.55 138.67 151.67 C 142.26 156.88 144.87 162.70 147.62 168.39 C 148.86 170.62 146.55 172.63 145.64 174.54 C 144.41 175.18 143.48 174.20 142.75 173.32 C 133.13 159.62 124.51 145.23 116.27 130.66 C 115.64 129.49 114.83 128.47 113.84 127.59 C 112.73 130.71 112.55 133.99 112.52 137.26 C 110.30 139.15 108.17 141.14 105.84 142.89 C 105.48 141.40 105.44 139.79 104.62 138.45 C 104.67 139.70 104.76 140.94 104.90 142.18 C 101.86 144.47 98.51 142.56 96.25 140.21 C 99.02 136.36 100.29 131.28 104.52 128.68 C 106.67 126.54 108.52 123.43 112.04 124.17 C 111.79 123.30 111.54 122.42 111.30 121.54 C 109.70 121.80 108.11 122.15 106.52 122.45 C 106.49 121.61 106.44 119.93 106.41 119.09 C 102.45 119.36 98.98 121.65 94.91 121.50 C 94.31 120.71 93.72 119.91 93.13 119.12 C 91.72 120.03 90.23 120.78 88.73 121.52 C 92.50 123.06 97.95 121.25 100.00 125.75 C 94.30 125.58 88.62 124.83 83.26 122.83 C 77.68 129.56 72.70 136.73 68.15 144.18 C 65.32 147.53 62.83 151.15 59.85 154.37 C 59.51 155.52 59.52 156.81 58.64 157.74 C 55.99 161.01 53.95 165.01 50.24 167.23 C 51.83 163.57 54.37 160.43 57.21 157.68 C 56.49 157.51 55.03 157.19 54.30 157.02 C 51.94 160.60 49.66 164.24 46.88 167.51 C 45.03 167.42 44.97 165.77 45.18 164.32 C 53.19 152.98 60.96 141.45 69.36 130.37 C 71.55 126.88 74.58 123.97 76.45 120.27 C 74.68 119.55 72.93 118.74 71.07 118.26 C 68.56 118.60 66.31 119.83 64.40 121.46 C 61.19 124.19 56.29 125.86 55.82 130.65 C 59.32 126.02 64.14 122.75 69.16 119.99 C 70.72 119.60 72.32 119.41 73.93 119.40 C 73.70 119.99 73.23 121.17 73.00 121.76 C 68.87 124.68 64.32 127.09 60.73 130.70 C 58.87 132.61 57.04 134.55 55.00 136.27 C 54.12 135.21 53.19 134.19 52.49 133.00 C 52.41 129.47 53.74 126.07 53.41 122.53 C 54.56 121.77 55.74 121.06 56.90 120.33 C 54.29 120.91 51.39 119.36 49.06 121.05 C 44.92 123.82 38.92 125.42 38.09 131.11 C 37.54 130.60 36.44 129.58 35.89 129.07 C 36.41 129.98 36.93 130.90 37.47 131.80 C 34.95 136.15 32.08 140.28 29.66 144.68 C 28.25 147.56 24.98 148.56 22.69 150.58 C 20.38 146.83 21.38 142.08 20.32 137.89 C 19.26 138.59 18.20 139.31 17.14 140.00 C 16.66 139.51 15.72 138.54 15.25 138.06 C 15.96 134.78 16.90 131.55 18.27 128.49 C 17.04 128.56 15.81 128.63 14.58 128.70 C 11.43 125.80 10.62 121.26 7.31 118.53 C 8.24 117.01 8.64 115.35 7.93 113.65 C 9.71 113.18 11.47 112.67 13.23 112.12 C 13.78 112.71 14.34 113.31 14.89 113.90 C 16.29 111.35 19.23 111.20 21.78 111.72 C 22.72 113.61 23.90 115.38 25.65 116.62 C 25.85 113.52 25.47 110.33 26.28 107.29 C 27.44 105.24 29.00 103.36 30.79 101.83 C 38.10 98.18 45.99 95.87 53.38 92.41 C 58.86 90.00 64.68 88.54 70.53 87.39 C 76.28 84.66 82.70 83.69 89.01 83.47 C 82.41 72.12 77.33 59.97 72.14 47.94 C 68.91 39.56 65.09 31.42 62.27 22.89 C 63.13 22.54 63.99 22.19 64.85 21.83 C 66.51 25.28 67.87 28.87 69.70 32.24 C 71.73 33.90 73.75 35.58 75.99 36.95 C 77.38 40.02 78.14 43.36 79.85 46.29 C 79.27 39.32 75.39 33.08 74.88 26.09 C 75.17 25.58 75.76 24.54 76.05 24.02 C 79.28 28.41 79.65 34.09 82.09 38.88 C 84.36 43.26 85.26 48.19 87.60 52.54 C 90.47 58.01 92.23 64.04 95.67 69.22 C 95.33 67.27 94.79 65.35 94.29 63.43 C 96.46 63.46 98.62 63.27 100.79 63.29 C 106.38 64.78 111.41 67.71 116.39 70.58 C 130.14 54.63 144.59 39.27 159.69 24.58 C 160.89 23.15 162.40 25.02 163.12 25.96 C 159.96 29.30 156.84 32.70 154.07 36.37 M 151.23 38.23 C 151.81 38.82 151.81 38.82 151.23 38.23 M 142.24 51.16 C 142.87 51.79 142.87 51.79 142.24 51.16 M 138.33 53.34 C 138.45 56.73 141.32 51.88 138.33 53.34 M 134.24 58.05 C 133.55 59.48 133.94 59.91 135.43 59.33 C 136.11 57.88 135.72 57.46 134.24 58.05 M 132.49 60.34 C 131.33 60.35 130.27 62.80 131.96 62.74 C 133.14 62.73 134.27 60.21 132.49 60.34 M 89.23 64.23 C 89.80 64.82 89.80 64.82 89.23 64.23 M 98.26 65.27 C 95.98 66.75 98.60 69.18 100.36 69.60 C 104.96 71.06 109.52 72.66 113.83 74.86 C 113.77 74.29 113.66 73.14 113.61 72.57 C 108.74 69.67 103.63 67.06 98.26 65.27 M 97.80 72.18 C 98.03 73.07 98.28 73.97 98.53 74.86 C 101.73 75.68 104.57 77.43 107.22 79.35 C 109.40 79.36 110.57 77.32 111.93 75.95 C 110.94 76.19 109.94 76.35 108.93 76.43 C 105.21 75.05 101.60 73.36 97.80 72.18 M 116.72 75.79 C 118.64 77.72 120.93 79.20 123.24 80.62 C 121.68 78.29 119.44 76.54 116.72 75.79 M 99.26 77.97 C 100.91 79.57 102.15 81.48 102.76 83.71 C 104.27 83.67 105.76 83.38 106.98 82.43 C 104.30 81.12 101.45 80.08 99.26 77.97 M 114.26 79.19 C 112.84 79.50 112.70 82.30 114.54 81.60 C 116.16 81.47 116.03 78.51 114.26 79.19 M 95.23 81.22 C 95.39 81.75 95.70 82.80 95.85 83.33 C 96.82 83.46 97.80 83.60 98.77 83.74 C 98.35 82.99 97.93 82.23 97.50 81.47 C 96.94 81.41 95.80 81.29 95.23 81.22 M 76.19 90.36 C 68.40 91.29 60.64 93.19 53.59 96.69 C 50.46 98.04 47.62 100.37 44.07 100.38 C 39.65 101.76 35.29 103.43 30.94 105.02 C 28.39 108.49 29.55 113.32 30.98 117.07 C 33.28 118.56 35.29 120.33 36.34 122.95 C 38.26 117.78 43.39 115.47 47.27 112.03 C 49.47 113.63 51.85 114.95 54.65 114.42 C 56.03 112.83 57.57 110.30 60.02 111.75 C 63.15 112.06 65.82 115.13 69.02 113.80 C 69.47 114.42 69.91 115.03 70.35 115.65 C 71.61 114.06 73.61 114.32 75.36 114.64 C 75.55 115.87 75.77 117.10 76.01 118.32 C 76.40 117.33 76.77 116.34 77.14 115.35 C 78.69 114.94 80.63 115.13 81.76 113.77 C 86.70 108.12 90.87 101.84 95.66 96.06 C 93.73 92.49 91.72 88.83 87.85 87.05 C 83.93 88.04 80.15 89.57 76.19 90.36 M 99.05 88.27 C 97.39 89.62 99.90 91.87 101.13 90.15 C 102.77 88.74 100.34 86.73 99.05 88.27 M 107.21 88.21 C 107.86 88.86 107.86 88.86 107.21 88.21 M 95.71 106.89 C 94.91 106.66 94.11 106.44 93.31 106.21 C 93.73 106.61 94.57 107.42 94.99 107.82 C 92.69 110.76 89.98 113.49 88.50 116.97 C 92.47 116.72 95.79 114.67 98.51 111.91 C 97.87 113.08 97.21 114.24 96.56 115.41 C 99.10 117.43 102.60 115.34 104.94 117.60 C 105.35 116.20 105.80 114.81 106.26 113.42 C 105.28 113.40 104.30 113.38 103.33 113.36 C 104.83 109.41 101.38 106.30 99.58 103.14 C 97.45 103.01 96.90 105.60 95.71 106.89 M 58.30 112.86 C 58.33 113.69 58.40 115.33 58.43 116.16 C 60.69 116.39 62.99 116.24 64.95 114.96 C 62.64 114.53 60.19 114.45 58.30 112.86 M 11.64 120.53 C 14.94 119.41 17.88 117.48 21.13 116.22 C 17.83 117.11 13.24 116.91 11.64 120.53 M 97.19 118.61 C 95.71 121.05 100.37 120.65 100.59 118.72 C 100.34 117.12 97.93 117.73 97.19 118.61 M 26.67 119.41 C 25.44 123.02 22.54 125.68 21.43 129.39 C 22.45 130.23 23.42 131.12 24.39 132.02 C 26.04 127.91 29.51 124.29 28.80 119.57 C 28.27 119.53 27.20 119.45 26.67 119.41 M 64.27 119.26 C 64.90 119.86 64.90 119.86 64.27 119.26 M 116.07 121.40 C 115.60 123.00 116.17 123.60 117.78 123.19 C 118.27 121.59 117.70 120.99 116.07 121.40 M 31.78 122.80 C 30.78 129.96 24.62 135.11 24.10 142.44 C 26.16 141.25 27.09 139.02 28.21 137.05 C 28.91 137.17 29.61 137.29 30.31 137.42 C 29.95 136.73 29.62 136.04 29.30 135.34 C 31.37 132.08 33.37 128.74 35.87 125.79 C 34.49 124.82 33.13 123.82 31.78 122.80 M 110.23 127.23 C 110.82 127.82 110.82 127.82 110.23 127.23 M 109.81 131.48 C 109.27 133.05 108.81 134.64 108.32 136.22 C 107.44 135.45 106.57 134.69 105.69 133.94 C 105.78 134.62 105.96 136.00 106.05 136.68 C 107.35 136.71 108.64 136.76 109.93 136.82 C 110.79 135.09 111.67 133.37 112.57 131.67 C 111.88 131.63 110.50 131.53 109.81 131.48 M 20.96 134.89 C 20.41 136.51 20.96 137.04 22.61 136.45 C 23.12 134.79 22.57 134.27 20.96 134.89 Z" />
<path fill="#ffffff" opacity="1.00" d=" M 155.07 63.67 C 155.20 59.98 156.31 56.46 157.86 53.14 C 159.62 53.95 161.50 54.91 162.31 56.80 C 163.07 59.46 162.84 62.24 162.95 64.97 C 164.93 61.16 164.48 56.14 167.98 53.20 C 172.10 58.16 171.40 65.02 172.20 71.02 C 172.93 73.64 170.48 75.44 169.04 77.24 C 168.50 76.72 167.40 75.68 166.86 75.16 C 167.51 76.10 168.17 77.04 168.83 77.99 C 165.22 78.32 161.61 78.17 158.00 77.96 C 151.90 77.54 145.83 78.83 139.73 78.22 C 139.12 74.93 139.44 71.61 139.23 68.30 C 138.48 64.08 138.35 59.44 140.73 55.66 C 143.59 57.25 144.85 60.39 146.37 63.11 C 147.10 60.86 147.91 58.61 148.26 56.26 C 149.74 56.55 151.78 55.83 152.64 57.46 C 153.96 59.30 154.46 61.53 155.07 63.67 M 159.05 59.76 C 157.56 62.72 157.46 67.67 153.29 67.96 C 151.89 65.46 151.05 62.71 150.12 60.01 C 149.28 62.70 148.80 65.56 147.21 67.95 C 145.92 67.20 144.65 66.45 143.38 65.69 C 143.31 64.37 143.25 63.05 143.10 61.74 C 141.65 63.93 143.60 66.05 144.24 68.14 C 144.58 70.40 143.63 72.58 143.04 74.73 C 150.91 73.41 158.86 74.07 166.77 74.32 C 168.46 71.05 167.62 66.88 167.68 63.27 C 166.57 64.60 165.89 66.20 165.23 67.79 C 163.67 68.56 161.94 68.79 160.23 68.90 C 159.43 65.91 159.59 62.79 159.05 59.76 Z" />
<path fill="#ffffff" opacity="1.00" d=" M 156.03 83.05 C 162.46 87.53 170.56 87.60 177.67 90.45 C 181.22 91.88 185.26 92.31 188.35 94.73 C 191.94 97.19 194.43 100.87 197.85 103.54 C 196.20 105.70 195.82 108.78 193.43 110.35 C 190.44 112.39 187.94 115.76 184.05 115.89 C 184.44 113.05 187.00 110.83 189.92 111.51 C 190.97 109.57 192.50 107.85 192.83 105.60 C 188.91 106.16 185.16 107.48 181.71 109.41 C 180.91 108.99 180.11 108.58 179.30 108.18 C 182.93 104.68 187.78 103.02 192.64 102.07 C 191.73 101.38 190.85 100.65 189.98 99.91 C 187.26 100.80 184.46 101.41 181.61 101.75 C 181.24 99.45 182.51 97.56 183.73 95.76 C 178.42 94.61 173.41 92.37 168.09 91.22 C 164.92 93.27 162.22 96.19 158.78 97.73 C 158.28 97.59 157.27 97.31 156.76 97.17 C 155.74 94.37 158.97 94.42 160.81 94.39 C 160.42 94.18 159.64 93.75 159.25 93.53 C 161.66 92.27 163.78 90.56 165.51 88.47 C 164.90 88.78 163.66 89.39 163.05 89.69 C 160.92 88.44 158.56 87.70 156.23 86.95 C 156.17 85.65 156.09 84.35 156.03 83.05 Z" />
<path fill="#ffffff" opacity="1.00" d=" M 141.46 90.03 C 141.27 88.41 141.51 86.80 142.87 85.74 C 142.76 87.86 142.41 89.97 141.85 92.02 C 140.59 91.23 139.36 90.40 138.18 89.50 C 139.00 89.63 140.64 89.90 141.46 90.03 Z" />
<path fill="#ffffff" opacity="1.00" d=" M 88.17 88.15 C 88.85 88.83 88.85 88.83 88.17 88.15 Z" />
<path fill="#ffffff" opacity="1.00" d=" M 137.33 89.34 C 138.41 89.86 138.85 91.67 138.06 92.60 C 136.41 93.26 135.75 89.64 137.33 89.34 Z" />
<path fill="#ffffff" opacity="1.00" d=" M 116.52 97.64 C 117.72 96.07 119.14 94.62 121.05 93.95 C 120.75 96.30 118.30 96.80 116.52 97.64 Z" />
<path fill="#ffffff" opacity="1.00" d=" M 130.01 94.42 C 131.57 94.49 130.60 96.89 129.46 96.91 C 127.73 96.87 128.80 94.44 130.01 94.42 Z" />
<path fill="#ffffff" opacity="1.00" d=" M 170.54 95.40 C 171.74 95.50 172.93 95.63 174.13 95.77 C 171.94 99.93 173.25 104.59 176.07 108.07 C 174.71 107.83 173.35 107.60 171.99 107.44 C 169.34 103.92 170.36 99.44 170.54 95.40 Z" />
<path fill="#ffffff" opacity="1.00" d=" M 15.89 103.72 C 19.83 102.63 24.18 101.32 28.17 102.89 C 25.50 107.23 19.75 105.19 16.35 108.28 C 13.74 110.95 9.65 110.32 6.28 110.95 C 6.37 110.26 6.54 108.86 6.62 108.16 C 6.10 109.08 5.58 110.00 5.04 110.92 C 3.69 109.60 2.35 108.25 1.05 106.87 C 5.94 105.52 11.06 105.33 15.89 103.72 Z" />
<path fill="#ffffff" opacity="1.00" d=" M 137.90 108.56 C 139.56 107.10 141.56 106.34 143.76 106.17 C 144.23 106.93 144.69 107.70 145.16 108.46 C 139.60 109.47 134.04 110.39 128.61 112.14 C 128.13 111.13 127.62 110.13 127.13 109.12 C 130.62 107.73 134.31 109.22 137.90 108.56 Z" />
<path fill="#ffffff" opacity="1.00" d=" M 122.27 109.86 C 123.37 108.82 125.41 110.53 124.60 111.82 C 123.55 113.05 121.66 111.05 122.27 109.86 Z" />
<path fill="#ffffff" opacity="1.00" d=" M 119.84 111.39 C 123.23 111.40 118.33 114.40 119.84 111.39 Z" />
<path fill="#ffffff" opacity="1.00" d=" M 144.37 113.19 C 145.91 113.38 147.76 113.29 148.14 115.21 C 146.90 115.42 145.66 115.60 144.42 115.78 C 144.41 115.13 144.38 113.84 144.37 113.19 Z" />
<path fill="#ffffff" opacity="1.00" d=" M 154.25 114.11 C 155.69 113.90 157.14 113.70 158.58 113.48 C 158.86 114.27 159.42 115.84 159.70 116.62 C 157.61 116.38 155.60 115.84 154.25 114.11 Z" />
<path fill="#ffffff" opacity="1.00" d=" M 128.48 115.07 C 129.57 114.26 132.23 115.10 131.78 116.67 C 130.74 117.21 128.23 116.42 128.48 115.07 Z" />
<path fill="#ffffff" opacity="1.00" d=" M 122.52 114.92 C 125.26 115.42 127.98 116.14 130.45 117.47 C 127.58 117.98 124.79 118.76 122.04 119.70 C 122.23 118.11 122.39 116.52 122.52 114.92 Z" />
<path fill="#ffffff" opacity="1.00" d=" M 100.39 123.24 C 102.13 122.76 102.72 123.29 102.16 124.83 C 100.45 125.32 99.85 124.79 100.39 123.24 Z" />
</g>
</svg>
