<?xml version="1.0" encoding="UTF-8" ?>
<!DOCTYPE svg PUBLIC "-//W3C//DTD SVG 1.1//EN" "http://www.w3.org/Graphics/SVG/1.1/DTD/svg11.dtd">
<svg width="128pt" height="128pt" viewBox="0 0 128 128" version="1.1" xmlns="http://www.w3.org/2000/svg">
<g id="#ffffffff">
<path fill="#ffffff" opacity="1.00" d=" M 43.16 0.00 L 44.59 0.00 C 48.66 2.80 52.68 5.67 56.74 8.49 C 57.95 11.25 57.61 14.64 57.81 17.67 C 56.16 23.32 50.97 27.42 45.31 28.55 C 47.93 25.75 51.00 23.19 52.67 19.67 C 53.17 15.83 50.42 12.95 47.71 10.70 C 43.56 11.71 40.15 14.32 36.37 16.14 C 37.68 17.41 39.05 18.64 40.15 20.10 C 41.41 24.24 41.46 28.63 41.40 32.93 C 40.38 32.90 39.36 32.87 38.33 32.84 C 39.37 33.99 42.98 34.91 40.82 36.67 C 40.41 36.82 39.59 37.13 39.17 37.28 C 38.70 37.66 38.22 38.03 37.75 38.42 C 41.13 38.19 43.33 35.83 45.65 33.69 C 54.03 31.86 62.81 32.46 71.17 34.17 C 81.97 35.28 92.68 37.11 103.50 38.00 C 107.34 39.58 111.61 40.60 114.96 43.09 C 118.33 47.79 118.06 54.00 120.29 59.21 C 119.33 59.72 118.37 60.22 117.41 60.72 C 117.48 63.36 117.66 66.00 117.79 68.64 C 117.06 69.92 115.33 71.05 115.84 72.72 C 117.21 77.86 117.97 83.18 120.13 88.07 C 116.30 91.39 120.28 95.88 119.26 99.98 C 118.53 104.69 118.48 109.45 118.63 114.21 C 118.92 115.99 116.79 116.61 115.83 117.72 C 114.83 114.24 114.34 110.63 114.82 107.02 C 115.53 102.55 115.25 98.01 115.48 93.50 C 115.57 89.02 113.29 84.84 110.34 81.61 C 107.49 78.12 104.53 74.66 100.87 72.00 C 104.07 78.32 108.25 85.12 106.41 92.49 C 105.32 95.31 104.48 98.51 101.59 100.03 C 101.95 102.43 101.17 104.68 100.13 106.81 C 99.13 106.12 98.12 105.44 97.11 104.77 C 97.74 105.55 98.38 106.34 99.03 107.12 C 98.39 109.59 98.14 112.23 96.90 114.49 C 95.52 116.12 93.78 117.41 92.24 118.88 C 92.51 116.19 93.00 113.53 93.54 110.88 C 94.80 110.69 96.06 110.53 97.33 110.36 C 96.58 109.43 94.84 108.79 95.52 107.33 C 97.31 101.48 100.25 96.04 102.30 90.27 C 98.57 85.56 95.68 80.16 94.08 74.37 C 92.90 74.38 91.71 74.41 90.53 74.40 C 90.91 74.83 91.67 75.67 92.05 76.10 C 86.39 77.78 80.19 78.30 74.53 76.38 C 71.38 74.12 76.40 73.72 78.06 73.17 C 77.66 73.01 76.86 72.71 76.47 72.55 C 73.59 74.20 70.62 75.77 68.16 78.02 C 66.25 84.61 66.83 91.68 65.19 98.31 C 63.03 101.95 63.92 106.66 61.11 109.97 C 58.20 113.12 59.65 118.39 56.10 121.09 C 53.67 123.04 51.93 125.64 49.93 128.00 L 48.09 128.00 C 48.47 125.98 49.08 123.99 50.36 122.35 C 53.35 118.16 55.55 113.25 55.70 108.04 C 56.26 104.09 56.04 100.05 56.76 96.15 C 59.84 89.78 57.10 82.72 57.51 75.99 C 55.88 75.70 54.26 75.36 52.63 75.06 C 52.45 81.67 51.61 88.23 50.77 94.78 C 50.14 99.97 50.75 105.28 49.39 110.37 C 48.71 112.86 48.40 115.43 48.35 118.00 C 46.60 118.40 44.89 119.04 43.08 119.05 C 48.20 111.01 46.47 101.06 45.41 92.16 C 44.20 83.25 44.99 74.13 42.66 65.38 C 42.53 66.00 42.25 67.26 42.12 67.88 C 39.02 63.74 35.58 59.76 33.45 55.01 C 32.02 52.11 30.17 49.21 27.21 47.68 C 24.58 46.33 23.88 43.25 22.93 40.71 C 23.88 40.31 24.83 39.92 25.78 39.53 C 23.24 37.49 23.79 34.09 23.01 31.27 C 21.81 30.20 19.69 29.98 19.10 28.36 C 20.58 28.18 22.06 28.09 23.54 27.90 C 21.88 27.81 20.23 27.63 18.58 27.53 C 18.58 32.60 12.47 31.67 9.53 29.61 C 8.16 27.17 6.84 22.65 10.05 21.10 C 12.99 19.55 16.32 18.90 19.29 17.39 C 21.72 15.44 23.41 12.78 25.57 10.57 C 30.67 5.85 37.57 4.01 43.16 0.00 M 25.35 16.50 C 23.77 17.11 25.32 19.25 25.93 20.12 C 27.79 21.66 29.93 19.98 30.47 18.03 C 30.07 15.66 27.00 14.88 25.35 16.50 M 11.04 25.29 C 9.59 28.28 14.48 25.18 11.04 25.29 M 58.40 37.30 C 60.31 37.05 62.21 36.70 64.11 36.36 C 62.05 36.01 58.77 33.90 58.40 37.30 M 70.25 35.91 C 68.88 36.23 69.17 38.81 70.72 38.05 C 72.07 37.71 71.83 35.15 70.25 35.91 M 109.12 72.21 C 107.30 74.91 112.55 72.66 109.12 72.21 Z" />
<path fill="#ffffff" opacity="1.00" d=" M 115.06 118.33 C 116.53 118.55 118.00 118.72 119.48 118.92 C 117.87 119.60 116.24 120.21 114.62 120.85 C 114.77 120.01 114.92 119.17 115.06 118.33 Z" />
</g>
</svg>
