<?xml version="1.0" encoding="UTF-8" ?>
<!DOCTYPE svg PUBLIC "-//W3C//DTD SVG 1.1//EN" "http://www.w3.org/Graphics/SVG/1.1/DTD/svg11.dtd">
<svg width="128pt" height="128pt" viewBox="0 0 128 128" version="1.1" xmlns="http://www.w3.org/2000/svg">
<g id="#ffffffff">
<path fill="#ffffff" opacity="1.00" d=" M 102.79 7.93 C 104.17 5.80 106.86 6.52 108.98 6.44 C 108.63 8.18 107.10 8.95 105.67 9.70 C 104.96 13.25 103.88 16.90 104.92 20.51 C 106.40 18.57 107.57 16.39 107.81 13.93 C 111.47 12.37 114.84 8.38 119.16 9.94 C 115.09 12.90 110.23 15.29 108.63 20.47 C 112.01 20.42 115.21 19.26 118.48 18.58 C 118.24 22.64 113.23 22.13 110.47 23.58 C 107.06 24.36 107.10 28.30 106.24 31.00 C 110.29 27.44 115.51 25.42 120.91 25.32 C 116.31 29.97 108.97 31.35 105.85 37.48 C 106.36 37.13 107.38 36.45 107.89 36.10 C 112.73 38.71 116.81 42.38 120.80 46.10 C 117.83 50.28 111.58 49.14 107.89 46.55 C 105.13 52.08 101.48 57.10 98.61 62.57 C 95.51 67.43 91.40 71.55 88.37 76.45 C 87.36 78.06 85.27 78.22 83.61 78.68 C 83.03 80.78 82.57 82.90 82.33 85.07 C 81.67 84.89 80.37 84.54 79.72 84.37 C 80.84 85.15 81.99 85.88 83.08 86.70 C 79.60 91.15 79.73 97.05 77.81 102.17 C 78.61 105.62 79.95 108.99 79.84 112.59 C 78.66 112.60 77.48 112.62 76.31 112.65 C 74.31 108.37 73.75 103.48 74.67 98.86 C 76.35 92.33 77.72 85.65 77.78 78.88 C 71.55 77.99 65.26 78.93 59.00 78.60 C 53.90 79.05 48.58 78.07 44.51 74.81 C 44.44 76.03 45.01 77.39 44.42 78.54 C 39.27 81.98 32.80 83.95 29.14 89.25 C 25.58 96.98 29.24 105.36 28.28 113.37 C 27.06 113.34 25.84 113.34 24.62 113.35 C 24.09 111.62 23.54 109.87 23.60 108.04 C 23.65 102.24 22.71 96.33 24.46 90.68 C 22.19 97.12 21.31 104.08 21.33 110.90 C 20.23 111.87 18.62 111.43 17.29 111.70 C 17.12 106.75 17.14 101.68 18.88 96.98 C 20.03 93.87 19.35 90.45 20.19 87.30 C 22.26 83.51 24.97 80.06 28.23 77.22 C 30.07 75.67 30.73 73.27 31.31 71.04 C 30.74 68.32 29.47 65.74 29.34 62.93 C 28.97 61.46 29.69 59.30 28.13 58.40 C 24.41 58.74 20.64 59.16 16.94 58.39 C 14.97 58.76 14.51 54.54 16.87 55.24 C 20.25 55.26 23.79 55.62 26.95 54.12 C 34.73 50.52 43.49 50.31 51.91 50.44 C 54.75 50.44 57.40 51.50 60.13 52.13 C 62.73 51.29 65.03 49.36 67.94 49.81 C 71.96 50.10 75.78 48.77 79.71 48.31 C 82.34 49.45 85.12 50.11 87.89 50.82 C 90.64 48.22 92.49 44.84 95.31 42.29 C 97.59 39.71 100.73 37.48 101.65 34.00 C 101.74 29.18 98.75 25.18 96.77 21.02 C 98.37 20.29 100.05 19.24 101.72 20.39 C 101.51 16.32 100.15 11.47 102.79 7.93 M 35.41 69.15 C 39.52 68.38 43.14 66.10 45.92 63.03 C 42.26 64.71 37.89 65.72 35.41 69.15 M 40.97 72.27 C 39.40 75.21 44.39 72.36 40.97 72.27 Z" />
</g>
</svg>
