<?xml version="1.0" encoding="UTF-8" ?>
<!DOCTYPE svg PUBLIC "-//W3C//DTD SVG 1.1//EN" "http://www.w3.org/Graphics/SVG/1.1/DTD/svg11.dtd">
<svg width="128pt" height="64pt" viewBox="0 0 128 64" version="1.1" xmlns="http://www.w3.org/2000/svg">
<g id="#ffffffff">
<path fill="#ffffff" opacity="1.00" d=" M 89.35 2.08 C 97.87 4.28 106.71 8.82 110.96 16.93 C 111.87 18.51 112.79 20.08 113.69 21.66 C 114.80 21.12 115.90 20.57 117.03 20.07 C 116.59 22.00 116.02 23.90 115.49 25.81 C 116.69 27.31 117.78 28.91 118.23 30.80 C 116.34 31.48 114.44 32.13 112.54 32.81 C 111.78 26.25 109.34 19.96 105.08 14.88 C 106.36 17.98 107.82 21.01 108.80 24.21 C 108.84 28.83 108.53 33.46 107.45 37.96 C 106.72 37.28 105.99 36.60 105.26 35.92 C 104.26 36.69 103.44 37.91 102.07 37.98 C 101.76 37.50 101.16 36.54 100.85 36.06 C 100.71 34.02 102.76 32.00 101.85 30.08 C 101.83 33.14 99.36 36.02 101.27 38.94 C 101.59 40.56 99.89 41.70 99.28 43.07 C 100.29 44.49 101.35 45.88 102.48 47.21 C 100.97 50.15 102.50 53.72 100.53 56.44 C 99.58 59.08 96.45 59.57 93.99 59.75 C 91.91 59.86 90.63 57.90 89.04 56.88 C 90.21 55.00 91.39 53.13 92.52 51.23 C 90.95 48.98 91.41 46.31 91.29 43.76 C 90.22 42.11 89.53 39.12 86.99 39.73 C 79.45 40.89 71.92 42.79 64.23 42.16 C 62.47 44.58 60.15 46.52 57.28 47.46 C 56.91 49.60 56.73 51.77 56.18 53.87 C 53.85 57.28 51.37 61.40 46.60 61.13 C 47.43 57.88 50.04 55.59 51.65 52.76 C 51.71 51.19 51.49 49.62 51.37 48.06 C 50.05 48.49 48.65 48.78 47.50 49.58 C 45.26 52.38 47.88 58.02 43.97 59.67 C 43.03 56.00 43.12 52.15 43.58 48.42 C 44.66 45.88 46.59 43.83 48.04 41.51 C 42.10 41.66 36.07 40.94 30.24 42.36 C 25.77 42.79 21.26 42.91 16.78 43.24 C 17.44 41.54 18.32 39.95 19.13 38.32 C 17.08 39.18 15.34 41.12 13.08 41.25 C 11.41 40.10 8.16 39.69 8.52 37.09 C 9.95 35.63 11.79 34.55 12.80 32.72 C 12.93 31.05 12.81 29.38 12.85 27.71 C 14.44 28.21 15.52 29.47 16.59 30.67 C 18.91 28.85 20.96 26.68 22.17 23.95 C 21.58 23.06 20.99 22.18 20.39 21.30 C 22.91 19.20 22.09 15.85 22.24 12.96 C 23.47 13.10 24.70 13.26 25.92 13.43 C 26.72 9.57 24.65 6.04 23.90 2.36 C 27.74 3.50 30.08 7.31 33.98 8.29 C 37.89 7.40 42.28 8.09 45.49 5.26 C 50.11 3.77 55.09 2.97 59.98 3.24 C 65.08 3.54 70.29 2.90 75.23 4.54 C 80.04 6.10 85.17 5.61 90.04 6.83 C 88.98 6.14 87.99 5.36 87.09 4.47 C 87.66 3.87 88.78 2.68 89.35 2.08 M 26.29 18.72 C 26.66 20.23 27.04 21.74 27.42 23.25 C 28.94 22.23 31.54 20.88 30.40 18.65 C 29.17 17.41 27.66 18.33 26.29 18.72 M 32.88 29.32 C 33.35 29.38 34.28 29.51 34.74 29.57 C 34.65 28.00 34.54 26.43 34.38 24.86 C 33.80 26.32 33.32 27.82 32.88 29.32 M 30.35 35.05 C 30.45 38.44 33.33 33.47 30.35 35.05 M 52.31 38.59 C 53.09 39.06 53.86 39.53 54.63 40.00 C 53.91 41.07 53.18 42.13 52.46 43.20 C 54.89 40.73 58.56 39.84 60.70 37.13 C 57.94 37.84 55.20 38.71 52.31 38.59 M 91.13 57.50 C 95.26 56.03 98.44 52.49 98.08 47.92 C 96.25 51.49 92.59 53.73 91.13 57.50 Z" />
</g>
</svg>
