<?xml version="1.0" encoding="UTF-8" ?>
<!DOCTYPE svg PUBLIC "-//W3C//DTD SVG 1.1//EN" "http://www.w3.org/Graphics/SVG/1.1/DTD/svg11.dtd">
<svg width="200pt" height="200pt" viewBox="0 0 200 200" version="1.1" xmlns="http://www.w3.org/2000/svg">
<g id="#ffffffff">
<path fill="#ffffff" opacity="1.00" d=" M 156.72 69.87 C 158.04 67.19 158.59 63.36 162.01 62.58 C 164.15 61.90 164.58 64.45 165.20 65.85 C 166.17 69.04 167.84 72.37 166.75 75.75 C 166.12 75.74 164.85 75.73 164.21 75.72 C 163.12 73.09 162.41 70.33 161.77 67.57 C 160.34 70.33 158.98 73.15 157.03 75.59 C 155.05 74.28 153.59 72.41 152.00 70.68 C 151.73 74.51 152.03 78.49 150.06 81.96 C 153.99 79.55 158.62 80.48 162.97 80.51 C 169.40 80.62 175.76 81.80 182.20 81.82 C 182.22 78.48 182.37 75.15 182.46 71.81 C 181.26 73.93 180.31 76.19 178.89 78.17 C 176.98 78.65 175.02 78.84 173.07 79.02 C 172.82 77.19 172.64 75.36 172.42 73.53 C 171.05 75.28 169.71 77.28 167.15 76.83 C 167.56 72.31 169.95 68.33 173.16 65.23 C 173.92 65.22 175.45 65.20 176.21 65.18 C 176.84 69.19 175.85 73.37 177.10 77.28 C 177.49 73.28 179.37 69.67 181.38 66.25 C 182.64 66.20 183.91 66.14 185.18 66.05 C 186.89 73.24 187.07 81.06 185.04 88.19 C 183.08 88.89 182.08 87.06 180.97 85.84 C 170.74 85.26 160.50 83.66 150.23 84.81 C 149.30 83.77 148.13 82.90 147.45 81.67 C 146.76 76.21 147.46 70.66 148.53 65.30 C 148.96 65.32 149.82 65.37 150.25 65.39 C 150.02 64.85 149.56 63.79 149.33 63.25 C 152.28 63.93 154.73 66.46 154.96 69.53 C 155.40 69.61 156.28 69.79 156.72 69.87 Z" />
<path fill="#ffffff" opacity="1.00" d=" M 116.62 73.32 C 119.66 73.35 122.85 73.70 125.26 75.75 C 131.63 79.50 134.24 86.85 138.70 92.33 C 143.27 93.66 148.13 93.29 152.76 94.33 C 157.87 95.47 162.84 97.14 167.66 99.18 C 170.81 100.45 174.12 101.92 177.60 101.59 C 183.84 100.75 188.56 105.73 193.86 108.10 C 196.83 109.24 198.80 111.84 199.22 114.98 C 198.18 120.23 196.93 125.44 195.59 130.62 C 194.11 136.46 190.50 141.38 187.12 146.25 C 186.34 147.64 184.78 148.16 183.41 148.77 C 184.07 143.00 188.36 138.77 190.68 133.69 C 185.55 136.82 181.53 142.49 175.10 142.84 C 176.69 138.02 181.86 136.48 185.27 133.27 C 189.14 130.20 191.48 125.75 193.68 121.43 C 192.61 122.41 191.63 123.48 190.69 124.59 C 189.70 124.49 188.71 124.41 187.72 124.34 C 187.63 125.39 187.56 126.44 187.48 127.49 C 186.42 128.08 185.38 128.69 184.32 129.28 C 185.03 128.04 185.75 126.80 186.45 125.56 C 184.64 125.28 182.79 125.26 181.36 126.58 C 178.34 128.89 174.46 126.39 171.22 127.08 C 167.86 129.74 164.77 132.77 161.13 135.11 C 158.38 136.82 157.56 140.26 155.33 142.45 C 152.28 143.54 149.13 144.39 145.93 144.95 C 144.74 142.38 146.32 140.42 148.51 139.22 C 141.19 140.39 134.07 144.66 126.52 142.75 C 120.83 141.97 115.07 142.58 109.36 142.14 C 108.92 143.40 108.48 144.67 108.05 145.94 C 107.19 145.74 106.33 145.55 105.48 145.36 C 105.66 146.21 105.85 147.07 106.04 147.92 C 103.34 150.20 100.58 152.57 97.13 153.60 C 95.07 148.35 90.20 145.42 86.08 141.99 C 87.30 141.30 88.54 140.64 89.79 140.00 C 89.57 138.75 89.37 137.49 89.19 136.24 C 90.89 135.96 92.59 135.69 94.30 135.49 C 94.36 134.89 94.49 133.69 94.55 133.09 C 106.02 138.34 119.01 138.80 131.28 136.75 C 132.73 136.44 134.21 136.51 135.67 136.61 C 134.14 137.37 132.56 138.01 130.98 138.65 C 131.67 139.10 132.36 139.54 133.05 139.99 C 135.07 138.36 136.47 135.28 139.43 135.45 C 143.92 134.83 147.89 132.36 152.26 131.31 C 153.40 131.09 154.47 131.64 155.53 131.98 C 155.82 130.52 156.25 129.06 157.16 127.86 C 159.24 126.67 160.56 129.00 161.98 130.12 C 164.31 128.02 166.56 125.84 168.58 123.44 C 165.89 121.45 164.85 118.47 165.12 115.21 C 163.97 115.37 162.83 115.53 161.68 115.68 C 161.58 113.77 161.52 111.85 161.44 109.93 C 159.76 110.42 158.09 110.92 156.44 111.50 C 157.95 111.45 159.47 111.40 160.99 111.36 C 159.47 114.04 156.45 115.01 153.99 116.57 C 154.47 115.56 154.94 114.55 155.40 113.53 C 152.30 114.11 149.46 115.38 146.89 117.18 C 143.89 117.45 140.86 117.47 137.85 117.42 C 138.51 116.75 139.85 115.42 140.52 114.75 C 139.71 114.17 138.91 113.59 138.11 113.01 C 137.34 114.16 136.58 115.32 135.84 116.49 C 133.87 116.74 131.95 117.29 130.04 117.81 C 131.69 118.54 133.40 119.15 135.11 119.77 C 132.92 119.53 130.57 119.08 128.93 120.91 C 127.36 119.98 125.80 119.04 124.37 117.91 C 126.14 118.30 127.77 119.08 129.43 119.80 C 128.91 118.55 128.39 117.30 127.87 116.06 C 126.15 116.67 124.43 117.30 122.71 117.92 C 122.77 116.65 122.83 115.38 122.90 114.12 C 122.21 114.15 120.83 114.22 120.13 114.25 C 121.03 116.28 121.85 118.34 122.71 120.37 C 121.78 120.29 120.84 120.20 119.91 120.11 C 118.78 118.74 117.49 117.51 116.08 116.42 C 116.50 117.94 117.04 119.42 117.56 120.91 C 116.13 119.71 114.73 118.49 113.26 117.36 C 113.18 119.06 113.78 120.65 114.62 122.11 C 113.27 121.54 111.92 120.99 110.56 120.47 C 110.19 118.64 109.79 116.82 109.32 115.02 C 107.46 115.90 105.57 116.72 103.72 117.62 C 104.30 116.04 104.94 114.48 105.64 112.96 C 104.70 113.26 103.76 113.55 102.82 113.84 C 102.45 115.17 102.08 116.49 101.72 117.82 C 99.28 117.25 96.80 116.80 94.29 116.69 C 94.53 115.78 94.77 114.87 94.99 113.96 C 94.16 114.93 93.35 115.92 92.54 116.90 C 90.22 116.57 88.03 115.76 85.93 114.74 C 87.10 113.81 88.27 112.88 89.46 111.98 C 89.53 112.75 89.67 114.30 89.74 115.07 C 91.20 114.09 92.68 113.14 94.15 112.16 C 89.19 111.27 84.02 111.47 79.07 112.33 C 78.56 113.72 78.07 115.11 77.54 116.50 C 77.77 115.69 78.22 114.07 78.44 113.26 C 74.09 113.02 69.76 113.59 65.45 114.10 C 63.34 113.94 61.24 113.65 59.12 113.84 C 60.64 111.99 60.80 109.66 60.30 107.40 C 59.99 109.13 59.77 110.87 59.54 112.62 C 56.48 112.70 53.40 112.73 50.40 111.98 C 50.85 113.80 51.34 115.61 51.79 117.43 C 49.33 115.45 46.74 113.50 43.45 113.34 C 40.98 113.28 39.55 111.39 38.34 109.51 C 38.70 111.11 39.08 112.70 39.39 114.31 C 38.19 112.98 37.06 111.60 35.90 110.24 C 33.61 112.41 30.84 114.24 29.67 117.31 C 29.12 115.29 28.70 113.24 28.29 111.19 C 25.44 113.68 22.78 110.26 20.01 109.40 C 18.91 109.80 17.82 110.25 16.75 110.75 C 17.22 113.34 18.69 115.85 21.69 115.60 C 19.93 116.37 18.05 117.29 17.66 119.41 C 19.70 119.31 21.73 119.13 23.73 118.74 C 22.36 120.66 21.76 123.56 23.81 125.25 C 23.22 126.38 22.63 127.51 22.11 128.67 C 24.29 126.67 26.04 123.92 29.03 123.06 C 33.58 121.62 38.33 119.46 43.17 120.81 C 49.71 122.40 56.01 124.87 62.51 126.60 C 68.03 127.85 72.58 131.78 78.28 132.44 C 82.16 132.91 85.89 134.12 89.55 135.46 C 89.17 136.10 88.40 137.38 88.01 138.02 C 86.68 137.58 85.34 137.15 84.00 136.75 C 78.34 141.46 71.95 145.24 65.19 148.15 C 63.92 147.33 62.67 146.45 61.28 145.84 C 55.08 143.97 50.96 138.42 47.53 133.24 C 45.66 131.11 46.81 128.37 47.69 126.09 C 44.50 125.31 41.30 124.00 37.96 124.54 C 29.21 126.19 21.53 131.12 15.00 137.02 C 13.39 138.95 10.78 138.57 8.54 138.64 C 11.73 134.31 17.23 132.72 21.30 129.38 C 20.71 128.34 20.14 127.29 19.59 126.23 C 19.57 126.86 19.53 128.12 19.51 128.74 C 15.39 130.69 11.50 133.14 8.15 136.25 C 7.47 135.85 6.11 135.03 5.43 134.63 C 6.68 133.43 8.00 132.31 9.28 131.15 C 7.27 131.55 4.77 133.71 3.34 131.18 C 2.44 127.50 6.00 126.19 8.46 124.57 C 6.07 124.57 3.69 124.70 1.31 124.74 C 1.75 122.69 2.20 120.63 2.48 118.55 C 3.32 118.34 5.00 117.92 5.85 117.71 C 3.27 116.35 0.59 114.85 0.00 111.71 L 0.00 110.33 C 1.29 108.94 2.64 107.60 4.01 106.29 C 2.74 105.48 1.48 104.68 0.22 103.86 C 1.00 102.62 1.79 101.40 2.58 100.16 C 1.71 99.81 0.84 99.44 0.00 99.03 L 0.00 97.61 C 7.98 98.61 16.13 98.82 23.88 101.20 C 27.18 102.56 30.77 100.48 34.02 101.93 C 37.14 103.06 40.49 102.35 43.72 102.44 C 45.77 101.81 47.01 99.76 48.72 98.55 C 45.66 98.68 42.58 98.15 39.79 96.87 C 38.10 93.70 42.69 92.13 45.17 92.17 C 51.70 92.30 58.27 91.83 64.79 92.50 C 68.38 92.59 70.30 96.81 73.99 96.39 C 79.26 96.34 84.53 96.49 89.80 96.70 C 96.19 95.72 102.63 96.43 109.05 96.42 C 112.60 96.52 115.92 95.07 119.37 94.50 C 119.59 95.34 120.01 97.01 120.23 97.85 C 120.45 92.98 115.59 90.89 112.62 87.95 C 112.62 82.78 113.78 77.68 116.62 73.32 M 126.24 97.23 C 126.81 97.81 126.81 97.81 126.24 97.23 M 73.02 100.96 C 73.91 102.27 74.82 103.60 74.82 105.24 C 77.13 103.79 79.94 104.53 82.50 104.16 C 82.17 107.34 85.98 106.02 87.90 106.80 C 85.67 106.07 84.33 104.14 82.87 102.44 C 81.86 102.92 80.89 103.47 79.91 103.99 C 77.63 102.94 75.32 101.97 73.02 100.96 M 70.09 103.18 C 69.46 104.58 69.88 105.01 71.35 104.48 C 71.94 103.07 71.52 102.63 70.09 103.18 M 23.26 105.21 C 23.83 105.84 23.83 105.84 23.26 105.21 M 14.43 106.54 C 15.25 107.81 17.70 109.21 19.20 108.14 C 19.06 106.00 15.92 106.85 14.43 106.54 M 20.12 106.34 C 20.80 107.02 20.80 107.02 20.12 106.34 M 52.72 110.01 C 53.85 109.19 54.93 108.30 56.01 107.40 C 56.15 109.03 56.98 110.04 58.53 110.44 C 57.68 108.69 56.23 107.40 54.94 106.01 C 54.22 107.36 53.43 108.66 52.72 110.01 M 5.20 106.89 C 5.23 110.27 8.21 105.42 5.20 106.89 M 31.31 108.20 C 31.58 109.51 31.82 110.83 32.07 112.15 C 32.91 110.98 33.30 109.42 34.47 108.55 C 35.76 108.34 37.04 108.14 38.33 107.94 C 36.15 106.55 33.58 107.69 31.31 108.20 M 43.51 107.19 C 42.50 109.04 46.51 109.56 46.78 107.84 C 46.59 106.34 44.40 106.33 43.51 107.19 M 173.63 107.60 C 171.82 108.11 172.55 110.21 172.16 111.58 C 170.80 111.59 169.44 111.53 168.09 111.42 C 167.46 112.31 166.82 113.19 166.17 114.06 C 167.29 114.74 168.39 115.45 169.49 116.17 C 169.15 115.13 168.81 114.09 168.48 113.05 C 169.27 113.11 170.83 113.21 171.61 113.26 C 171.10 117.22 173.77 120.69 176.56 123.16 C 176.16 123.95 175.75 124.73 175.34 125.51 C 177.22 123.73 179.91 123.40 182.07 122.07 C 182.50 122.59 182.93 123.12 183.36 123.66 C 184.19 121.57 186.31 120.84 188.13 119.85 C 186.98 119.29 185.82 118.75 184.67 118.21 C 184.61 117.65 184.49 116.54 184.43 115.98 C 185.95 116.77 187.17 117.96 188.02 119.47 C 189.79 118.63 193.78 117.83 192.93 121.07 C 193.46 120.49 194.00 119.93 194.55 119.37 C 193.64 118.48 192.65 117.67 191.67 116.85 C 193.06 115.96 194.45 115.07 195.81 114.14 C 192.48 111.26 189.44 107.61 184.80 107.07 C 185.12 110.80 181.18 109.10 178.91 109.23 C 176.93 109.51 175.52 106.50 173.63 107.60 M 28.27 108.46 C 27.82 110.08 28.39 110.63 29.99 110.10 C 30.44 108.47 29.87 107.92 28.27 108.46 M 94.40 109.36 C 93.40 110.39 94.87 112.58 96.19 111.79 C 97.26 110.75 95.71 108.61 94.40 109.36 M 47.55 110.16 C 46.70 111.30 48.67 112.75 49.51 111.58 C 50.44 110.39 48.41 109.03 47.55 110.16 M 3.36 111.22 C 3.49 112.84 7.24 112.31 7.61 111.08 C 6.37 110.40 4.54 110.43 3.36 111.22 M 63.37 111.31 C 62.88 112.44 64.61 114.08 65.63 113.16 C 66.21 111.97 64.39 110.53 63.37 111.31 M 98.24 111.21 C 98.82 111.82 98.82 111.82 98.24 111.21 M 101.23 111.27 C 101.86 111.89 101.86 111.89 101.23 111.27 M 106.27 112.83 C 108.14 113.91 110.03 114.98 112.08 115.69 C 111.42 114.12 110.65 112.60 110.09 110.99 C 108.81 111.58 107.53 112.18 106.27 112.83 M 123.10 113.17 C 124.32 113.83 125.55 114.47 126.79 115.12 C 126.68 113.84 126.59 112.56 126.51 111.28 C 125.38 111.92 124.23 112.53 123.10 113.17 M 140.14 111.34 C 138.64 114.28 143.58 111.33 140.14 111.34 M 145.53 115.15 C 147.16 114.02 150.19 113.66 150.01 111.15 C 147.41 110.47 146.68 113.50 145.53 115.15 M 115.11 112.39 C 113.24 112.74 114.33 115.26 115.91 114.90 C 117.44 114.67 116.46 112.00 115.11 112.39 M 98.08 113.23 C 96.74 113.88 96.67 114.59 97.87 115.36 C 99.20 114.68 99.27 113.97 98.08 113.23 M 131.21 114.40 C 129.53 117.36 134.61 114.54 131.21 114.40 M 169.48 118.08 C 168.71 119.31 170.57 121.23 171.71 120.14 C 172.32 118.99 170.56 116.82 169.48 118.08 M 19.28 120.15 C 19.92 120.79 19.92 120.79 19.28 120.15 M 49.77 132.08 C 50.73 130.74 53.23 128.99 52.05 127.17 C 48.99 126.03 48.79 130.20 49.77 132.08 M 51.38 133.98 C 52.43 134.63 54.28 134.40 54.82 135.70 C 54.16 136.38 53.53 137.09 52.93 137.83 C 54.40 139.83 56.39 141.22 58.84 141.75 C 61.35 139.32 63.70 136.66 66.70 134.81 C 66.58 135.97 66.45 137.12 66.31 138.28 C 64.02 139.47 61.48 140.75 60.64 143.42 C 64.48 142.36 67.58 139.73 70.99 137.80 C 71.56 138.75 72.13 139.70 72.70 140.65 C 74.67 139.33 76.78 138.18 78.44 136.45 C 71.55 135.83 66.15 130.99 59.43 129.79 C 59.32 131.09 59.34 132.44 58.76 133.64 C 58.48 134.60 56.93 138.02 56.08 135.97 C 56.53 133.52 57.53 131.20 57.69 128.70 C 54.12 128.18 53.27 131.87 51.38 133.98 M 146.21 135.23 C 146.86 135.87 146.86 135.87 146.21 135.23 M 138.33 136.17 C 136.94 136.85 136.83 137.52 138.02 138.20 C 139.46 137.50 139.56 136.82 138.33 136.17 M 141.24 137.24 C 141.81 137.81 141.81 137.81 141.24 137.24 M 93.60 143.64 C 95.18 142.58 97.54 142.09 97.98 139.95 C 96.12 140.65 94.75 142.08 93.60 143.64 M 65.46 143.08 C 65.21 146.50 68.47 141.71 65.46 143.08 Z" />
<path fill="#ffffff" opacity="1.00" d=" M 185.51 108.40 C 186.38 108.44 188.12 108.52 188.99 108.56 C 189.16 109.50 189.49 111.38 189.66 112.32 C 188.40 112.61 187.15 112.89 185.89 113.15 C 185.53 111.59 185.40 109.99 185.51 108.40 Z" />
<path fill="#ffffff" opacity="1.00" d=" M 57.08 115.42 C 58.47 115.03 58.93 115.55 58.45 116.98 C 57.03 117.35 56.58 116.83 57.08 115.42 Z" />
<path fill="#ffffff" opacity="1.00" d=" M 59.82 115.17 C 61.23 115.62 65.45 116.13 62.83 118.13 C 61.24 117.88 60.39 116.53 59.82 115.17 Z" />
<path fill="#ffffff" opacity="1.00" d=" M 172.93 115.60 C 174.14 115.40 176.31 115.55 176.73 116.94 C 176.00 119.09 172.10 117.46 172.93 115.60 Z" />
<path fill="#ffffff" opacity="1.00" d=" M 55.20 116.30 C 55.88 116.98 55.88 116.98 55.20 116.30 Z" />
<path fill="#ffffff" opacity="1.00" d=" M 33.24 117.28 C 33.87 117.90 33.87 117.90 33.24 117.28 Z" />
<path fill="#ffffff" opacity="1.00" d=" M 59.14 118.23 C 60.23 117.89 62.14 119.42 61.13 120.52 C 59.94 121.14 58.64 119.24 59.14 118.23 Z" />
<path fill="#ffffff" opacity="1.00" d=" M 61.61 120.81 C 62.63 119.20 64.61 119.05 66.26 118.49 C 66.28 120.25 67.45 121.65 69.12 122.16 C 68.96 121.32 68.64 119.64 68.48 118.80 C 69.18 118.58 69.87 118.36 70.57 118.14 C 68.51 120.25 69.13 123.54 71.52 125.12 C 71.31 122.66 71.87 120.33 73.39 118.37 C 75.32 119.10 78.70 118.18 79.08 120.84 C 78.10 120.75 77.13 120.64 76.15 120.52 C 75.58 122.39 74.37 123.95 73.35 125.59 C 69.38 125.80 68.04 121.69 64.90 120.13 C 63.80 120.39 62.71 120.61 61.61 120.81 M 73.19 122.26 C 73.87 122.93 73.87 122.93 73.19 122.26 Z" />
<path fill="#ffffff" opacity="1.00" d=" M 32.23 119.14 C 32.86 119.76 32.86 119.76 32.23 119.14 Z" />
<path fill="#ffffff" opacity="1.00" d=" M 79.75 121.17 C 80.83 120.61 81.90 120.04 83.04 119.63 C 85.86 120.47 88.59 122.27 91.65 121.54 C 92.17 122.71 92.76 123.86 93.41 124.98 C 91.73 124.55 90.01 124.35 88.29 124.29 C 87.62 123.76 86.27 122.70 85.60 122.16 C 85.53 123.98 85.59 125.81 85.65 127.63 C 84.29 126.82 82.89 126.10 81.55 125.27 C 82.37 125.57 84.02 126.16 84.85 126.45 C 84.65 124.88 84.48 123.31 84.31 121.74 C 82.79 121.57 81.27 121.38 79.75 121.17 Z" />
<path fill="#ffffff" opacity="1.00" d=" M 108.22 119.22 C 108.86 119.80 108.86 119.80 108.22 119.22 Z" />
<path fill="#ffffff" opacity="1.00" d=" M 138.38 118.53 C 139.93 119.13 141.44 119.84 142.92 120.60 C 145.24 118.90 148.17 119.40 150.86 119.16 C 151.35 120.00 151.84 120.84 152.32 121.69 C 150.72 121.45 148.47 119.27 147.56 121.62 C 147.18 121.34 146.40 120.80 146.01 120.52 C 144.28 121.63 142.41 122.50 140.54 123.36 C 139.58 121.87 138.72 120.30 138.38 118.53 Z" />
<path fill="#ffffff" opacity="1.00" d=" M 175.37 119.45 C 176.46 117.88 179.85 118.53 179.71 120.55 C 178.18 120.47 176.53 120.33 175.02 120.48 C 175.11 120.22 175.28 119.71 175.37 119.45 Z" />
<path fill="#ffffff" opacity="1.00" d=" M 93.78 125.91 C 94.84 124.49 95.89 123.06 96.94 121.62 C 97.67 122.63 98.40 123.64 99.13 124.65 C 99.40 124.11 99.92 123.04 100.18 122.51 C 101.32 122.60 102.46 122.62 103.60 122.59 C 103.23 124.03 102.92 125.49 102.70 126.96 C 100.86 126.08 98.97 125.30 97.10 124.48 C 97.21 125.08 97.41 126.30 97.51 126.91 C 96.27 126.54 95.02 126.23 93.78 125.91 Z" />
<path fill="#ffffff" opacity="1.00" d=" M 122.14 125.08 C 127.33 126.37 132.78 125.67 137.71 123.72 C 138.13 124.20 138.56 124.67 138.99 125.15 C 135.16 125.88 131.28 127.05 127.37 126.02 C 128.01 126.90 128.64 127.79 129.26 128.68 C 128.71 128.33 127.61 127.62 127.06 127.26 C 125.57 127.86 124.10 128.50 122.61 129.12 C 122.52 127.77 122.35 126.42 122.14 125.08 Z" />
<path fill="#ffffff" opacity="1.00" d=" M 105.04 124.64 C 108.68 124.84 112.72 123.89 115.89 126.18 C 117.69 127.36 119.84 126.03 121.80 126.08 C 120.93 128.55 118.10 128.50 116.01 129.24 C 111.79 128.74 107.54 128.40 103.28 128.67 C 103.94 127.36 104.51 126.01 105.04 124.64 M 109.12 125.19 C 109.78 125.86 109.78 125.86 109.12 125.19 M 107.33 126.28 C 105.66 129.34 110.73 126.35 107.33 126.28 Z" />
<path fill="#ffffff" opacity="1.00" d=" M 55.13 139.02 C 58.55 137.83 59.42 133.24 63.30 132.99 C 60.97 135.42 59.52 141.62 55.13 139.02 Z" />
</g>
</svg>
