<?xml version="1.0" encoding="UTF-8" ?>
<!DOCTYPE svg PUBLIC "-//W3C//DTD SVG 1.1//EN" "http://www.w3.org/Graphics/SVG/1.1/DTD/svg11.dtd">
<svg width="128pt" height="128pt" viewBox="0 0 128 128" version="1.1" xmlns="http://www.w3.org/2000/svg">
<g id="#ffffffff">
<path fill="#ffffff" opacity="1.00" d=" M 106.04 2.19 C 109.05 2.51 112.29 3.26 114.14 5.89 C 118.76 10.43 122.84 16.26 122.50 23.02 C 122.58 25.24 120.95 27.22 118.62 27.00 C 118.37 25.26 119.19 23.24 118.26 21.68 C 115.74 20.13 113.04 18.33 110.00 18.25 C 106.79 19.97 108.67 24.07 109.16 26.80 C 110.94 31.51 113.04 36.17 113.85 41.19 C 115.31 48.28 113.08 55.38 111.11 62.14 C 110.76 64.19 108.64 65.14 107.70 66.84 C 106.68 71.74 103.55 75.83 100.88 79.94 C 95.51 85.61 91.31 92.32 88.77 99.71 C 88.39 101.46 85.78 102.76 86.84 104.68 C 88.30 107.28 88.11 110.30 88.78 113.11 C 89.39 114.38 91.08 114.30 92.17 114.97 C 95.67 116.25 97.24 120.40 96.41 123.86 C 95.67 123.84 94.20 123.80 93.46 123.78 C 92.79 122.04 92.16 120.29 91.46 118.57 C 89.39 118.07 87.42 116.83 85.30 116.73 C 82.33 117.66 79.21 119.04 76.31 117.09 C 74.08 119.67 70.49 119.42 67.40 119.29 C 64.82 118.79 61.50 118.29 60.21 115.72 C 60.34 111.86 60.80 108.00 60.71 104.13 C 56.05 102.95 51.74 106.12 47.19 106.71 C 40.26 107.72 33.60 111.37 26.44 110.06 C 26.44 109.02 26.44 106.93 26.44 105.88 C 19.91 108.44 14.24 113.18 7.06 113.94 C 6.61 113.51 5.71 112.67 5.27 112.24 C 11.39 104.88 15.76 96.27 21.42 88.57 C 23.38 85.17 26.45 82.24 27.04 78.21 C 28.18 73.01 30.71 68.29 33.19 63.63 C 34.37 60.01 35.37 56.34 36.85 52.83 C 38.77 51.81 40.32 49.82 42.70 50.09 C 42.60 50.74 42.41 52.04 42.31 52.69 C 44.15 49.53 47.53 47.65 49.10 44.28 C 47.83 44.61 46.56 44.95 45.29 45.28 C 44.63 46.54 43.97 47.80 43.34 49.08 C 42.53 48.80 41.72 48.52 40.92 48.24 C 40.87 46.73 39.66 44.60 41.47 43.64 C 47.43 38.90 54.27 35.51 60.62 31.37 C 62.17 32.74 64.17 32.80 66.10 33.09 C 67.52 34.58 66.16 35.92 65.21 37.15 C 67.08 35.63 69.24 34.59 71.41 33.58 C 70.21 34.02 69.02 34.45 67.82 34.90 C 67.53 34.22 66.96 32.87 66.67 32.20 C 68.07 30.85 70.40 30.91 72.10 29.96 C 78.00 26.76 84.07 23.66 89.01 19.05 C 89.93 19.74 90.86 20.43 91.78 21.12 C 91.01 20.15 90.25 19.17 89.52 18.17 C 93.04 13.19 98.59 10.09 101.88 4.95 C 102.60 4.02 103.96 4.30 104.99 4.01 C 105.25 3.56 105.78 2.65 106.04 2.19 M 104.32 7.37 C 106.78 9.32 106.27 13.07 108.14 15.56 C 109.81 13.14 113.73 10.40 110.51 7.46 C 108.45 7.58 106.36 7.82 104.32 7.37 M 99.24 28.24 C 99.85 28.86 99.85 28.86 99.24 28.24 M 53.66 44.99 C 53.62 45.71 53.59 46.42 53.56 47.14 C 54.15 47.30 55.32 47.62 55.91 47.78 C 55.82 46.60 55.73 45.43 55.64 44.25 C 55.14 44.43 54.15 44.81 53.66 44.99 M 51.71 70.90 C 54.17 68.87 56.65 66.69 58.22 63.86 C 55.03 64.99 53.46 68.25 51.71 70.90 M 78.88 69.30 C 79.23 70.58 78.70 72.61 80.47 72.88 C 80.47 71.68 80.47 70.48 80.48 69.27 C 80.08 69.28 79.28 69.30 78.88 69.30 M 37.98 81.58 C 39.56 81.48 41.15 81.44 42.72 81.19 C 44.05 80.16 45.04 78.79 46.00 77.43 C 42.67 76.49 38.55 77.77 37.98 81.58 M 29.24 82.13 C 28.10 82.24 26.92 83.64 27.48 84.76 C 28.83 85.71 31.03 82.71 29.24 82.13 M 79.40 92.81 C 77.45 93.32 78.16 96.22 80.14 95.62 C 82.09 95.35 81.32 91.88 79.40 92.81 M 70.68 99.65 C 68.82 101.13 67.27 102.95 65.65 104.67 C 65.03 107.91 65.21 111.31 65.28 114.61 C 68.00 114.57 70.81 115.28 73.46 114.42 C 77.16 113.30 81.20 113.53 84.69 111.69 C 84.32 106.35 82.80 101.07 78.87 97.24 C 76.14 98.04 73.18 98.22 70.68 99.65 M 11.74 107.62 C 11.58 108.09 11.26 109.02 11.10 109.48 C 12.36 109.48 13.61 109.48 14.87 109.48 C 14.51 108.68 14.15 107.87 13.79 107.06 C 13.28 107.20 12.25 107.48 11.74 107.62 Z" />
</g>
</svg>
