<?xml version="1.0" encoding="UTF-8" ?>
<!DOCTYPE svg PUBLIC "-//W3C//DTD SVG 1.1//EN" "http://www.w3.org/Graphics/SVG/1.1/DTD/svg11.dtd">
<svg width="128pt" height="128pt" viewBox="0 0 128 128" version="1.1" xmlns="http://www.w3.org/2000/svg">
<g id="#ffffffff">
<path fill="#ffffff" opacity="1.00" d=" M 80.21 5.11 C 82.73 5.25 85.27 5.04 87.78 5.40 C 91.21 6.43 94.15 8.70 96.66 11.18 C 96.68 12.34 96.63 13.50 96.52 14.65 C 97.72 12.50 100.02 11.83 102.31 11.46 C 102.36 12.35 102.46 14.14 102.51 15.03 C 106.67 10.97 112.60 9.77 118.00 8.21 C 120.97 10.69 123.20 13.85 125.02 17.24 C 127.56 23.81 123.68 30.95 117.79 34.23 C 115.44 29.91 122.13 27.57 121.18 23.25 C 119.26 20.96 117.46 18.41 114.95 16.73 C 111.83 16.92 108.77 17.55 105.68 17.95 C 106.76 19.06 107.77 20.24 108.73 21.47 C 108.39 25.99 108.37 30.53 107.85 35.04 C 107.55 37.85 108.74 40.53 108.94 43.31 C 106.89 43.93 104.86 44.64 102.92 45.55 C 100.06 43.28 97.64 40.53 95.01 38.01 C 92.97 36.10 91.91 33.09 88.98 32.31 C 90.05 35.21 92.17 37.51 94.50 39.45 C 94.56 39.77 94.67 40.42 94.72 40.75 C 98.22 41.99 97.93 47.17 101.83 47.87 C 99.55 56.27 97.13 64.78 92.59 72.28 C 91.88 72.24 91.18 72.21 90.48 72.19 C 89.50 73.75 88.50 75.30 87.51 76.85 C 85.80 76.66 84.09 76.45 82.39 76.20 C 83.55 89.16 81.42 102.34 84.15 115.17 C 84.79 117.76 86.64 120.34 85.32 123.06 C 84.91 122.40 84.09 121.09 83.68 120.44 C 82.52 122.39 80.45 123.06 78.27 122.98 C 78.31 120.83 79.17 118.86 79.66 116.81 C 79.55 114.41 79.64 112.02 79.73 109.62 C 79.43 109.28 78.82 108.60 78.52 108.25 C 79.02 107.20 79.52 106.16 80.03 105.11 C 79.49 105.60 78.40 106.59 77.86 107.08 C 76.47 102.00 72.52 97.99 72.57 92.50 L 73.12 92.08 C 73.83 92.07 74.54 92.09 75.25 92.12 C 75.31 91.09 75.36 90.05 75.42 89.01 C 75.22 89.67 74.81 90.97 74.60 91.63 C 74.22 91.48 73.45 91.20 73.06 91.05 C 70.73 88.44 70.62 84.72 69.75 81.48 C 68.41 81.13 67.06 80.77 65.73 80.39 C 66.61 79.30 67.49 78.20 68.36 77.10 C 64.55 78.76 60.74 80.45 56.74 81.64 C 56.17 80.85 55.61 80.06 55.05 79.27 C 53.71 79.66 52.41 80.23 51.02 80.40 C 43.56 80.52 36.07 80.32 28.70 79.13 C 30.23 78.04 31.88 77.11 33.43 76.04 C 32.30 76.31 31.18 76.61 30.07 76.95 C 29.36 76.25 28.65 75.55 27.95 74.86 C 24.34 81.60 20.50 88.28 17.36 95.24 C 17.18 99.85 18.21 104.43 17.56 109.04 C 18.98 112.24 19.21 116.71 17.02 119.55 C 16.17 118.55 15.34 117.53 14.64 116.42 C 13.52 108.68 13.81 100.85 13.85 93.05 C 14.00 91.57 12.97 90.37 12.45 89.08 C 14.66 85.15 16.91 81.24 18.72 77.11 C 17.88 76.40 17.04 75.69 16.21 74.97 C 16.47 73.76 16.75 72.55 17.10 71.37 C 12.97 76.91 14.68 85.01 9.75 90.09 C 9.39 88.16 8.08 85.99 9.39 84.15 C 11.67 80.50 11.56 76.12 11.82 71.98 C 12.18 67.88 10.10 64.18 8.74 60.45 C 6.64 54.25 4.81 47.96 2.46 41.85 C 4.04 39.21 5.10 35.89 8.17 34.59 C 8.96 33.59 9.74 32.57 10.63 31.65 C 12.17 30.72 14.00 31.61 15.63 31.78 C 17.35 30.50 19.16 29.35 20.85 28.04 C 25.07 31.74 31.07 30.98 36.19 32.25 C 36.16 31.39 36.13 30.52 36.09 29.66 C 48.06 28.65 58.84 36.10 70.75 35.46 C 70.97 36.03 71.41 37.17 71.63 37.74 C 73.21 37.56 74.81 37.38 76.41 37.39 C 75.58 37.62 73.93 38.08 73.11 38.32 C 73.25 39.87 73.41 41.42 73.57 42.97 C 75.20 39.98 78.03 38.33 81.23 37.50 C 82.39 33.13 87.32 31.72 91.05 30.17 C 90.14 28.72 89.20 27.28 88.23 25.87 C 88.31 25.29 88.47 24.15 88.55 23.57 C 86.32 23.83 83.59 25.54 81.99 23.11 C 85.72 19.03 92.30 19.51 95.27 14.56 C 94.73 14.58 93.64 14.63 93.09 14.65 C 92.80 15.25 92.22 16.43 91.92 17.03 C 88.66 17.93 85.51 14.53 82.24 16.20 C 79.40 16.95 75.75 19.35 76.58 22.72 C 77.37 26.76 76.84 31.26 80.25 34.22 C 79.13 36.84 76.99 34.34 75.83 33.09 C 71.65 27.50 69.51 19.36 72.97 12.90 C 74.54 9.89 76.36 6.33 80.07 5.73 C 80.28 6.47 80.71 7.96 80.92 8.71 C 80.92 8.53 80.94 8.17 80.95 8.00 C 80.61 7.05 80.37 6.09 80.21 5.11 M 94.53 19.97 C 93.62 21.83 93.17 23.90 93.72 25.94 C 94.66 26.83 96.06 26.47 97.22 26.68 C 97.65 25.11 98.10 23.55 98.51 21.97 C 97.19 21.29 95.87 20.61 94.53 19.97 M 27.02 33.26 C 25.83 34.09 26.78 36.90 28.23 35.50 C 29.49 34.67 28.48 31.92 27.02 33.26 M 84.36 74.40 C 85.05 72.14 85.60 69.85 86.27 67.58 C 85.40 69.77 82.08 72.14 84.36 74.40 M 77.05 99.55 C 76.63 100.97 77.10 101.53 78.47 101.23 C 78.90 99.83 78.43 99.28 77.05 99.55 Z" />
<path fill="#ffffff" opacity="1.00" d=" M 10.94 100.28 C 14.37 100.47 9.34 103.15 10.94 100.28 Z" />
</g>
</svg>
