<?xml version="1.0" encoding="UTF-8" ?>
<!DOCTYPE svg PUBLIC "-//W3C//DTD SVG 1.1//EN" "http://www.w3.org/Graphics/SVG/1.1/DTD/svg11.dtd">
<svg width="128pt" height="128pt" viewBox="0 0 128 128" version="1.1" xmlns="http://www.w3.org/2000/svg">
<g id="#ffffffff">
<path fill="#ffffff" opacity="1.00" d=" M 37.60 25.51 C 38.97 23.73 41.91 22.88 43.89 24.19 C 46.55 25.74 48.31 28.44 49.92 30.99 C 52.27 34.41 51.75 39.16 54.93 42.11 C 60.12 47.27 66.56 51.02 71.51 56.47 C 76.80 60.70 78.83 67.34 81.68 73.20 C 85.04 82.95 94.88 88.10 100.04 96.68 C 97.19 96.50 94.45 95.69 91.65 95.25 C 91.67 93.98 91.72 92.71 91.79 91.44 C 87.80 88.42 84.39 84.49 81.69 80.25 C 79.76 78.49 77.76 76.78 75.78 75.07 C 76.43 76.69 77.73 77.85 79.00 78.97 C 75.18 81.88 70.40 84.14 68.24 88.67 C 67.42 88.67 65.78 88.67 64.97 88.67 C 65.86 89.74 66.76 90.80 67.64 91.89 C 66.86 94.12 65.96 96.30 65.12 98.51 C 66.38 98.95 67.64 99.40 68.89 99.87 C 67.01 103.07 63.15 103.48 60.02 104.76 C 59.54 104.07 58.57 102.70 58.08 102.02 C 59.74 100.98 62.68 100.80 62.71 98.31 C 63.28 94.88 64.73 90.38 61.90 87.60 C 61.29 91.20 61.51 95.22 59.68 98.43 C 56.22 98.73 51.68 103.04 49.05 99.06 C 51.67 97.51 54.49 96.35 57.34 95.31 C 58.31 91.79 59.47 88.19 59.37 84.50 C 58.62 82.95 57.05 84.23 55.92 84.50 C 54.73 82.96 53.64 81.34 52.79 79.60 C 52.30 79.64 51.32 79.72 50.83 79.77 C 50.82 77.35 49.06 75.73 47.08 74.67 C 48.23 76.42 49.63 77.98 50.77 79.74 C 47.65 78.67 45.02 76.57 42.19 74.91 C 43.11 73.96 44.05 73.04 44.89 72.02 C 44.26 71.05 43.44 70.23 42.65 69.40 C 42.78 70.24 43.04 71.91 43.18 72.75 C 41.67 72.53 39.94 72.62 39.00 71.19 C 36.86 68.57 34.89 65.76 33.42 62.72 C 32.45 58.87 32.60 54.84 31.77 50.96 C 32.23 46.51 33.37 42.14 33.59 37.66 C 31.65 36.85 29.71 36.02 27.80 35.12 C 30.43 31.16 35.54 29.88 37.60 25.51 M 41.74 33.73 C 42.52 32.93 43.18 32.03 43.88 31.16 C 42.68 30.81 41.49 28.77 40.23 29.86 C 37.89 30.71 39.54 34.39 41.74 33.73 M 44.19 42.26 C 42.52 45.05 47.59 42.54 44.19 42.26 M 68.36 56.23 C 68.41 59.72 71.36 54.73 68.36 56.23 M 70.57 81.93 C 72.57 80.85 74.78 79.87 76.11 77.95 C 73.57 78.07 71.78 79.86 70.57 81.93 Z" />
</g>
</svg>
