<?xml version="1.0" encoding="UTF-8" ?>
<!DOCTYPE svg PUBLIC "-//W3C//DTD SVG 1.1//EN" "http://www.w3.org/Graphics/SVG/1.1/DTD/svg11.dtd">
<svg width="200pt" height="200pt" viewBox="0 0 200 200" version="1.1" xmlns="http://www.w3.org/2000/svg">
<g id="#ffffffff">
<path fill="#ffffff" opacity="1.00" d=" M 148.40 36.42 C 149.52 36.35 150.64 36.28 151.77 36.22 C 152.35 37.95 152.86 39.72 153.35 41.48 C 154.49 39.34 156.20 37.66 158.13 36.22 C 161.92 41.84 161.03 48.79 162.40 55.11 C 159.29 56.02 156.22 57.16 152.98 57.44 C 147.33 58.15 141.74 59.89 136.01 59.46 C 133.18 58.80 132.31 55.72 132.21 53.16 C 131.89 49.11 128.85 44.76 131.57 40.99 C 133.75 42.15 135.78 43.55 137.63 45.19 C 137.60 42.35 137.90 39.46 139.49 37.01 C 142.84 37.63 144.97 40.44 146.04 43.48 C 146.57 41.05 147.34 38.68 148.40 36.42 M 157.12 42.16 C 156.73 44.82 155.07 46.76 152.88 48.18 C 151.71 46.98 150.69 45.65 149.90 44.17 C 148.94 46.29 147.32 47.88 145.16 48.75 C 143.84 46.76 142.62 44.71 141.41 42.65 C 141.02 44.46 140.79 46.31 140.17 48.06 C 138.24 49.79 136.08 48.19 134.23 47.25 C 135.13 50.26 135.86 53.35 135.89 56.51 C 143.18 54.28 151.01 54.68 158.21 52.12 C 157.92 48.79 157.55 45.47 157.12 42.16 Z" />
<path fill="#ffffff" opacity="1.00" d=" M 137.78 72.78 C 144.31 69.76 152.95 67.41 159.25 72.26 C 160.93 71.84 162.65 71.50 164.41 71.54 C 172.48 71.86 180.65 71.45 188.62 72.98 C 188.51 73.50 188.28 74.55 188.17 75.07 C 186.30 75.58 184.45 76.15 182.71 77.00 C 182.40 76.02 182.07 75.05 181.72 74.09 C 181.29 75.05 180.86 76.02 180.44 76.98 C 182.51 77.50 184.99 77.22 186.61 78.87 C 185.20 81.37 183.00 83.27 180.41 84.48 C 174.34 88.70 166.79 89.70 159.67 90.82 C 157.28 91.39 155.27 92.87 153.14 94.02 C 152.63 92.02 152.44 89.97 152.31 87.92 C 158.11 87.60 163.94 87.00 169.59 85.61 C 172.85 84.32 176.07 82.88 179.17 81.24 C 180.51 79.37 178.49 77.28 178.29 75.31 C 171.11 75.71 163.99 74.59 156.83 74.53 C 156.64 76.91 154.83 79.64 152.17 78.05 C 151.62 76.08 152.85 74.42 153.78 72.82 C 151.02 72.85 148.11 72.28 145.50 73.48 C 140.86 75.44 135.80 75.74 130.91 76.70 C 130.71 81.15 125.27 82.05 122.36 84.43 C 121.85 83.92 120.83 82.88 120.32 82.36 C 120.67 81.67 121.36 80.29 121.71 79.59 C 120.73 80.39 119.77 81.22 118.82 82.05 C 120.02 83.22 121.28 84.33 122.53 85.44 C 121.42 86.59 120.28 87.73 119.17 88.88 C 118.51 87.84 117.86 86.80 117.23 85.75 C 115.07 86.66 112.68 87.18 110.96 88.89 C 111.36 90.10 111.72 91.31 112.06 92.54 C 110.77 91.44 109.52 90.31 108.19 89.26 C 108.38 89.93 108.74 91.27 108.93 91.94 C 106.25 93.43 103.85 95.36 101.44 97.24 C 101.57 95.47 101.59 93.19 103.59 92.47 C 105.89 91.46 106.99 89.14 108.21 87.12 C 105.51 91.16 101.36 93.75 97.42 96.44 C 94.20 98.41 91.74 101.38 88.43 103.22 C 89.09 101.23 92.02 99.03 89.90 97.11 C 88.26 96.68 87.83 98.63 86.97 99.55 C 86.25 99.34 85.52 99.14 84.80 98.94 C 85.21 100.06 85.64 101.18 86.03 102.31 C 85.42 102.41 84.19 102.60 83.58 102.69 C 83.55 101.62 83.51 100.55 83.47 99.47 C 85.19 98.20 86.90 96.90 88.54 95.52 C 88.63 94.25 88.75 92.97 88.88 91.70 C 86.87 92.33 84.78 92.68 82.69 92.95 C 82.58 96.79 79.51 99.30 77.20 101.97 C 78.95 99.19 80.65 96.38 82.08 93.43 C 77.70 94.10 73.32 94.96 68.87 94.44 C 69.56 95.83 70.24 97.22 70.91 98.61 C 69.28 98.69 67.65 98.74 66.02 98.76 C 66.42 97.93 67.21 96.28 67.61 95.46 C 66.41 96.75 65.36 98.18 64.03 99.34 C 57.76 99.39 52.29 102.77 46.82 105.43 C 45.66 105.98 44.54 105.12 43.53 104.66 C 43.16 105.25 42.41 106.43 42.04 107.03 C 40.58 104.89 39.13 102.74 37.48 100.75 C 38.29 103.23 38.45 105.78 38.46 108.37 C 35.84 109.95 33.91 112.34 31.68 114.38 C 31.92 110.38 34.61 107.57 37.76 105.43 C 34.71 104.20 30.70 104.90 28.35 102.36 C 28.09 102.85 27.59 103.85 27.34 104.34 C 21.56 105.16 21.85 94.37 27.60 95.42 C 26.50 94.67 25.50 93.78 24.53 92.86 C 25.53 92.62 27.52 92.13 28.52 91.89 C 28.52 91.21 28.51 89.85 28.51 89.17 C 32.76 89.73 36.45 92.05 40.39 93.58 C 43.12 94.95 46.56 95.39 48.27 98.21 C 56.78 93.80 66.23 91.49 75.73 90.54 C 81.30 89.25 87.04 88.48 92.42 86.50 C 100.56 82.44 109.49 80.39 117.76 76.64 C 124.35 75.04 130.87 72.31 137.78 72.78 M 124.16 80.54 C 123.63 82.04 124.05 82.46 125.44 81.80 C 125.98 80.33 125.56 79.91 124.16 80.54 M 114.20 83.23 C 114.83 83.86 114.83 83.86 114.20 83.23 M 96.88 87.94 C 97.44 88.93 98.03 89.89 98.66 90.83 C 97.02 91.51 95.41 92.26 93.81 93.03 C 96.16 95.07 97.82 92.12 99.51 90.78 C 98.64 89.83 97.79 88.86 96.88 87.94 M 89.09 94.84 C 90.26 95.98 91.34 97.20 92.34 98.50 C 92.87 96.81 93.44 95.13 94.01 93.45 C 92.37 93.91 90.74 94.39 89.09 94.84 M 26.97 100.85 C 28.66 100.33 30.31 99.73 31.98 99.15 C 32.05 98.89 32.19 98.38 32.26 98.13 C 32.59 97.99 33.25 97.72 33.58 97.58 C 37.23 98.54 40.77 99.85 44.39 100.89 C 43.20 101.56 42.02 102.24 40.84 102.93 C 43.39 102.07 45.94 101.17 48.32 99.92 C 43.40 100.15 39.22 97.32 34.82 95.59 C 31.08 95.28 29.94 99.43 26.97 100.85 M 24.24 100.22 C 24.50 103.63 27.18 98.75 24.24 100.22 Z" />
<path fill="#ffffff" opacity="1.00" d=" M 168.83 80.61 C 171.95 79.15 175.05 77.61 178.34 76.57 C 177.15 77.88 176.09 79.39 174.53 80.30 C 172.64 80.49 170.73 80.55 168.83 80.61 Z" />
<path fill="#ffffff" opacity="1.00" d=" M 140.35 87.61 C 139.81 83.67 140.18 78.56 144.75 77.24 C 144.75 79.41 144.24 81.53 144.14 83.69 C 145.72 86.49 147.57 90.76 151.53 89.62 C 152.47 92.49 152.74 95.56 152.34 98.55 C 152.00 98.69 151.34 98.98 151.01 99.13 C 149.80 98.92 149.19 98.15 149.18 96.82 C 148.28 96.59 147.38 96.34 146.49 96.07 C 146.57 97.50 146.49 98.93 146.33 100.35 C 145.86 99.42 144.91 97.57 144.43 96.65 C 143.29 99.22 141.87 102.04 139.10 103.17 C 133.22 105.98 127.03 108.07 120.78 109.87 C 115.37 111.99 109.87 113.88 104.24 115.34 C 104.22 114.15 104.21 112.97 104.18 111.79 C 113.81 108.71 123.24 105.01 132.85 101.87 C 136.44 100.93 139.13 97.56 142.95 97.63 C 142.49 96.83 142.04 96.03 141.60 95.22 C 142.80 94.63 144.01 94.05 145.23 93.47 C 143.44 91.67 141.57 89.86 140.35 87.61 Z" />
<path fill="#ffffff" opacity="1.00" d=" M 177.30 79.21 C 177.96 79.87 177.96 79.87 177.30 79.21 Z" />
<path fill="#ffffff" opacity="1.00" d=" M 111.99 95.46 C 112.29 91.85 113.91 88.66 116.94 86.61 C 117.41 87.60 118.37 89.59 118.84 90.59 C 117.91 90.46 116.05 90.20 115.11 90.07 C 114.31 91.99 113.46 93.94 111.99 95.46 Z" />
<path fill="#ffffff" opacity="1.00" d=" M 64.19 101.00 C 64.66 100.75 65.58 100.25 66.04 100.00 C 69.15 101.57 72.83 102.22 75.17 105.01 C 73.65 105.29 72.12 105.57 70.59 105.83 C 70.60 105.11 70.62 103.65 70.64 102.92 C 70.34 103.44 69.74 104.48 69.44 105.00 C 67.63 103.75 65.93 102.35 64.19 101.00 Z" />
<path fill="#ffffff" opacity="1.00" d=" M 142.21 108.09 C 143.39 104.86 143.00 101.18 144.99 98.24 C 146.13 101.29 146.66 104.52 147.40 107.68 C 148.54 107.32 149.68 106.96 150.83 106.61 C 149.73 104.20 148.80 101.52 149.81 98.89 C 151.77 101.00 153.84 103.29 154.45 106.20 C 154.04 110.15 153.81 114.15 154.87 118.03 C 154.28 118.33 153.09 118.93 152.50 119.23 C 151.98 118.38 151.46 117.53 150.95 116.68 C 150.70 117.27 150.20 118.46 149.96 119.05 C 148.90 118.64 147.85 118.23 146.80 117.82 C 146.80 118.94 146.81 120.06 146.81 121.17 C 144.66 121.57 142.76 122.68 140.79 123.57 C 140.57 121.86 140.70 120.13 141.92 118.81 C 141.63 118.36 141.04 117.46 140.75 117.00 C 141.31 116.63 142.43 115.89 142.98 115.52 C 140.19 113.80 141.49 110.61 142.21 108.09 Z" />
<path fill="#ffffff" opacity="1.00" d=" M 24.80 107.04 C 25.85 106.08 26.94 105.19 28.08 104.36 C 30.47 104.16 32.72 105.05 34.98 105.67 C 34.28 106.42 32.88 107.92 32.18 108.68 C 29.62 108.60 26.78 109.11 24.80 107.04 Z" />
<path fill="#ffffff" opacity="1.00" d=" M 76.13 105.22 C 76.81 105.91 76.81 105.91 76.13 105.22 Z" />
<path fill="#ffffff" opacity="1.00" d=" M 19.35 116.41 C 22.13 113.97 25.03 111.66 27.82 109.22 C 28.85 109.27 30.90 109.37 31.93 109.42 C 30.38 111.84 30.29 114.58 30.18 117.35 C 29.52 116.09 28.90 114.81 28.32 113.52 C 27.40 114.75 26.41 115.93 25.33 117.02 C 25.71 117.68 26.48 118.99 26.86 119.65 C 25.91 118.90 24.98 118.12 24.09 117.31 C 22.77 118.65 21.45 119.99 20.07 121.28 C 20.43 121.55 21.17 122.11 21.53 122.39 C 20.92 122.33 19.70 122.21 19.09 122.15 C 19.14 123.03 19.23 124.80 19.28 125.69 C 20.87 125.67 22.46 125.67 24.05 125.69 C 22.83 127.58 21.65 129.51 20.00 131.07 C 17.70 133.22 16.18 136.27 13.16 137.57 C 11.38 138.72 9.20 138.67 7.17 138.96 C 7.05 136.45 7.84 134.14 9.37 132.17 C 7.69 131.87 6.02 131.55 4.37 131.12 C 4.63 129.83 4.91 128.55 5.22 127.27 C 4.07 127.37 2.91 127.45 1.74 127.50 C 1.91 126.67 2.25 125.01 2.42 124.17 C 3.20 124.09 3.98 124.02 4.77 123.95 C 4.00 123.51 2.46 122.62 1.69 122.18 C 7.45 119.88 14.01 119.75 19.35 116.41 M 11.28 124.42 C 10.09 124.02 8.52 126.03 10.17 126.52 C 11.40 127.07 12.81 124.91 11.28 124.42 M 9.67 130.14 C 12.68 129.10 15.36 127.28 17.28 124.72 C 14.56 126.21 10.87 126.93 9.67 130.14 M 13.51 130.81 C 12.34 130.70 11.17 130.60 10.01 130.51 C 10.56 131.71 11.12 132.91 11.67 134.12 C 11.36 134.72 10.73 135.93 10.41 136.54 C 13.55 133.43 16.68 130.24 19.02 126.48 C 16.96 127.60 15.12 129.10 13.51 130.81 Z" />
<path fill="#ffffff" opacity="1.00" d=" M 84.53 111.85 C 85.90 110.90 87.82 113.09 86.92 114.40 C 85.60 115.34 83.80 113.08 84.53 111.85 Z" />
<path fill="#ffffff" opacity="1.00" d=" M 78.42 114.81 C 80.42 114.17 82.45 112.91 84.54 114.03 C 82.46 114.92 80.45 115.94 78.53 117.13 C 82.19 118.18 85.76 115.48 89.60 116.24 C 89.65 116.93 89.75 118.32 89.80 119.01 C 85.41 120.15 81.30 122.14 76.91 123.23 C 70.48 123.36 64.44 125.93 58.02 126.20 C 58.12 125.11 58.18 124.01 58.33 122.92 C 62.29 121.74 66.78 122.23 70.32 119.87 C 68.42 119.58 66.51 119.41 64.62 119.04 C 69.10 118.10 73.49 116.71 77.31 114.12 C 76.52 115.52 75.71 116.91 74.94 118.32 C 75.80 118.41 77.53 118.60 78.40 118.70 C 78.43 117.40 78.43 116.11 78.42 114.81 M 70.98 118.40 C 69.26 120.60 75.38 119.79 74.67 117.88 C 73.39 117.48 72.16 117.65 70.98 118.40 Z" />
<path fill="#ffffff" opacity="1.00" d=" M 95.16 115.47 C 97.46 114.65 99.72 113.73 102.04 112.97 C 104.46 117.81 108.75 122.17 108.62 127.90 C 108.61 130.13 108.59 132.37 108.47 134.59 C 103.02 132.78 98.98 128.46 96.34 123.51 C 95.05 121.01 95.63 118.14 95.16 115.47 Z" />
<path fill="#ffffff" opacity="1.00" d=" M 37.08 124.22 C 34.66 121.65 33.28 118.24 34.80 114.80 C 36.83 118.49 39.40 121.79 41.91 125.14 C 40.30 124.84 38.65 124.70 37.08 124.22 Z" />
<path fill="#ffffff" opacity="1.00" d=" M 28.26 117.46 C 29.06 117.46 30.64 117.45 31.44 117.44 C 32.55 123.01 37.73 125.92 40.17 130.73 C 41.01 130.60 41.86 130.48 42.70 130.36 C 41.90 133.05 42.83 135.51 44.96 137.29 C 46.72 134.31 47.72 130.98 47.30 127.50 C 48.42 127.25 49.53 126.98 50.65 126.72 C 50.61 125.45 49.60 123.66 51.10 122.84 C 51.75 122.73 53.05 122.51 53.71 122.40 C 52.27 128.69 51.22 135.12 47.87 140.76 C 46.83 140.18 45.78 139.63 44.73 139.09 C 45.49 140.02 46.30 140.93 47.10 141.83 C 51.79 137.14 52.52 130.34 55.30 124.65 C 55.90 124.31 57.10 123.63 57.70 123.30 C 57.65 127.77 58.12 132.61 55.64 136.61 C 53.63 140.25 51.06 145.41 46.05 144.57 C 43.80 144.93 42.88 142.56 41.69 141.15 C 38.51 134.97 34.47 129.26 31.69 122.86 C 30.30 122.23 28.71 122.30 27.24 121.97 C 28.23 123.75 29.26 125.53 29.77 127.53 C 31.78 127.30 33.20 128.32 34.06 130.09 C 25.17 134.10 23.59 144.38 18.94 151.85 C 17.73 150.66 16.56 149.44 15.38 148.21 C 13.81 149.69 11.85 150.61 9.82 151.29 C 10.12 146.50 11.41 141.77 13.63 137.51 C 14.47 138.36 15.29 139.24 16.11 140.12 C 17.98 136.66 19.84 133.18 22.21 130.03 C 23.23 130.68 24.23 131.34 25.25 131.98 C 26.49 130.84 27.75 129.73 29.02 128.63 C 27.88 126.13 27.30 123.30 25.53 121.13 C 26.85 121.44 28.18 121.72 29.52 121.96 C 29.21 120.84 28.58 118.59 28.26 117.46 M 22.89 133.33 C 21.39 136.40 26.27 133.26 22.89 133.33 M 18.02 141.39 C 16.43 141.45 14.84 141.60 13.32 142.09 C 14.68 142.36 16.04 142.56 17.41 142.67 C 17.51 143.57 17.69 145.37 17.78 146.27 C 19.08 143.50 20.39 140.72 21.27 137.78 C 20.13 138.93 19.06 140.15 18.02 141.39 Z" />
<path fill="#ffffff" opacity="1.00" d=" M 44.29 126.10 C 45.31 123.93 47.65 123.23 49.64 122.27 C 49.69 123.40 49.77 125.65 49.82 126.77 C 48.44 126.60 45.67 126.27 44.29 126.10 Z" />
<path fill="#ffffff" opacity="1.00" d=" M 42.20 125.79 C 43.33 124.49 44.87 126.91 44.27 127.98 C 43.02 129.29 41.48 126.97 42.20 125.79 Z" />
</g>
</svg>
