<?xml version="1.0" encoding="UTF-8" ?>
<!DOCTYPE svg PUBLIC "-//W3C//DTD SVG 1.1//EN" "http://www.w3.org/Graphics/SVG/1.1/DTD/svg11.dtd">
<svg width="128pt" height="64pt" viewBox="0 0 128 64" version="1.1" xmlns="http://www.w3.org/2000/svg">
<g id="#ffffffff">
<path fill="#ffffff" opacity="1.00" d=" M 50.29 6.26 C 55.98 4.99 61.53 2.11 67.50 3.77 C 67.80 5.71 67.29 7.59 66.69 9.42 C 69.01 8.26 71.02 5.93 73.82 6.12 C 75.79 6.33 77.85 6.11 79.76 6.69 C 83.96 9.12 88.22 11.56 91.48 15.22 C 94.42 15.81 97.33 16.64 100.36 16.34 C 100.51 17.11 100.81 18.65 100.96 19.42 C 102.72 17.59 104.03 15.40 105.20 13.16 C 106.80 14.89 107.31 17.14 107.65 19.39 C 110.25 22.47 111.75 26.21 113.26 29.88 C 115.11 31.72 118.48 32.93 118.48 35.96 C 116.92 40.72 111.40 39.61 107.53 40.05 C 103.04 40.96 98.61 38.63 94.17 39.90 C 93.93 38.82 93.69 37.74 93.45 36.67 C 90.40 38.58 86.89 39.60 83.93 41.67 C 82.98 41.02 82.04 40.39 81.09 39.75 C 77.00 43.95 81.12 49.81 82.95 54.13 C 85.91 55.60 89.78 55.14 92.10 57.83 C 91.56 58.31 90.48 59.28 89.94 59.77 C 87.45 59.35 84.73 59.82 82.50 58.42 C 81.01 57.32 79.14 57.46 77.39 57.48 C 76.16 52.92 72.93 48.01 75.03 43.29 C 73.58 45.55 70.62 46.55 69.63 49.09 C 71.38 53.55 74.68 57.06 77.74 60.61 C 75.62 60.68 73.43 60.51 71.59 59.36 C 68.82 56.42 67.67 52.18 64.39 49.67 C 62.36 49.06 60.27 48.61 58.34 47.68 C 56.29 46.84 54.25 48.15 52.43 48.98 C 53.50 52.57 57.73 52.28 60.71 52.66 C 60.64 53.61 60.58 54.57 60.52 55.53 C 57.56 57.84 53.10 58.54 50.11 55.89 C 46.40 54.39 46.17 50.08 45.35 46.73 C 44.25 50.66 39.68 51.74 38.70 55.64 C 40.48 55.64 42.27 55.63 44.04 55.81 C 43.22 60.42 36.92 59.74 33.33 59.69 C 32.40 57.58 31.68 55.39 30.97 53.20 C 32.02 51.56 33.29 49.97 33.72 48.02 C 33.69 46.55 32.12 45.48 32.49 43.97 C 33.02 42.23 33.96 40.65 34.78 39.04 C 33.16 40.92 31.69 42.99 31.38 45.52 C 28.58 49.79 23.05 50.18 19.24 53.14 C 17.15 54.75 14.45 54.60 11.95 54.65 C 11.29 53.73 10.62 52.81 9.94 51.89 C 11.54 50.15 12.92 48.23 14.36 46.36 C 17.16 44.66 20.32 43.74 23.43 42.80 C 22.32 34.60 30.70 29.93 32.88 22.76 C 35.81 14.93 42.61 9.18 50.29 6.26 M 41.17 18.07 C 43.91 15.80 47.34 14.24 49.35 11.19 C 45.63 12.07 43.31 15.17 41.17 18.07 M 104.23 32.04 C 106.74 32.48 109.14 29.57 107.04 27.54 C 104.30 27.19 103.76 29.97 104.23 32.04 M 41.91 34.45 C 43.89 33.42 45.24 31.63 46.01 29.56 C 43.69 30.23 42.71 32.40 41.91 34.45 Z" />
</g>
</svg>
