<?xml version="1.0" encoding="UTF-8" ?>
<!DOCTYPE svg PUBLIC "-//W3C//DTD SVG 1.1//EN" "http://www.w3.org/Graphics/SVG/1.1/DTD/svg11.dtd">
<svg width="180pt" height="180pt" viewBox="0 0 180 180" version="1.1" xmlns="http://www.w3.org/2000/svg">
<g id="#ffffffff">
<path fill="#ffffff" opacity="1.00" d=" M 148.66 19.25 C 152.95 20.63 157.84 21.79 160.21 26.06 C 160.60 28.67 161.93 31.26 161.20 33.93 C 160.01 39.97 157.95 45.81 156.25 51.70 C 157.44 54.56 159.24 57.37 162.12 58.77 C 166.41 61.41 170.97 64.03 174.09 68.09 C 173.33 70.84 171.84 73.32 170.14 75.59 C 167.26 75.63 164.38 75.53 161.51 75.74 C 161.30 75.09 160.88 73.79 160.67 73.14 C 162.91 73.31 165.15 73.34 167.39 73.31 C 167.52 72.83 167.78 71.86 167.91 71.37 C 165.22 71.38 162.53 71.47 159.85 71.28 C 161.26 69.82 162.65 68.27 164.64 67.63 C 164.44 66.60 164.25 65.57 164.08 64.53 C 162.60 65.62 161.07 66.62 159.35 67.27 C 159.39 65.58 159.47 63.88 159.57 62.19 C 158.20 61.55 156.84 60.86 155.50 60.16 C 155.53 59.45 155.56 58.74 155.59 58.04 C 153.99 55.75 153.52 52.97 152.92 50.31 C 149.90 50.67 147.02 51.65 144.20 52.75 C 143.59 53.98 142.97 55.20 142.40 56.45 C 144.32 56.23 146.60 53.92 148.23 55.86 C 148.72 56.39 149.70 57.47 150.19 58.01 C 148.16 59.16 146.12 60.30 144.18 61.61 C 142.27 59.91 140.31 58.27 138.23 56.79 C 138.96 60.07 139.30 63.43 140.17 66.67 C 143.86 70.51 148.77 72.82 152.90 76.12 C 154.50 73.95 157.65 70.87 160.11 73.82 C 156.24 78.58 155.79 84.75 153.96 90.39 C 153.28 90.08 152.61 89.76 151.94 89.44 C 151.64 92.71 149.79 95.50 148.74 98.54 C 147.43 101.90 146.16 105.82 142.75 107.61 C 138.41 109.99 137.18 115.38 133.12 118.15 C 128.34 121.90 131.81 127.99 131.55 132.92 C 131.15 142.51 133.78 151.79 135.99 161.01 C 137.42 163.20 140.46 164.44 139.75 167.57 C 137.56 167.46 135.40 166.88 134.03 165.02 C 133.49 165.48 132.41 166.39 131.86 166.85 C 130.34 163.36 129.81 159.57 128.79 155.93 C 127.29 151.77 126.16 147.50 124.76 143.31 C 123.35 138.19 119.17 134.55 116.95 129.83 C 117.42 129.60 118.36 129.14 118.83 128.92 C 123.69 132.48 126.75 138.19 128.38 143.94 C 127.63 137.52 126.85 131.10 127.26 124.63 C 123.80 130.95 115.92 127.94 110.23 128.03 C 110.53 128.88 110.82 129.74 111.12 130.60 C 106.79 129.90 104.86 134.60 101.77 136.77 C 99.54 140.91 96.43 144.70 95.35 149.36 C 93.82 151.63 92.04 153.74 90.61 156.09 C 91.52 157.21 92.46 158.30 93.39 159.40 C 91.39 160.02 89.42 160.68 87.44 161.35 C 87.46 162.67 87.48 163.99 87.51 165.32 C 86.34 165.47 85.16 165.59 83.99 165.69 C 85.03 162.91 85.22 159.86 86.62 157.21 C 85.50 157.42 84.36 157.61 83.23 157.78 C 85.12 155.32 87.31 153.13 89.19 150.66 C 88.63 150.70 87.50 150.77 86.93 150.81 C 87.45 147.69 88.07 144.51 89.79 141.80 C 92.76 137.23 91.97 131.45 93.97 126.51 C 89.97 126.36 85.97 126.07 82.02 125.34 C 81.51 123.50 80.85 121.70 80.05 119.96 C 77.26 122.21 75.92 125.99 72.49 127.47 C 70.52 128.37 68.58 129.99 66.27 129.60 C 62.68 128.86 59.84 131.77 56.64 132.85 C 58.04 140.91 58.43 149.08 59.60 157.16 C 58.93 157.57 57.58 158.40 56.90 158.81 C 54.34 150.67 54.23 142.03 53.57 133.59 C 53.02 133.64 51.90 133.74 51.35 133.79 C 50.97 137.11 50.23 140.45 50.44 143.81 C 52.23 149.95 54.82 155.82 57.15 161.77 C 58.63 164.59 55.43 167.60 57.67 170.19 C 58.26 169.66 59.45 168.60 60.04 168.07 C 60.22 168.44 60.57 169.18 60.74 169.55 C 59.45 170.29 58.22 171.13 56.90 171.82 C 55.36 171.31 54.27 170.02 52.98 169.09 C 54.07 168.00 55.18 166.92 56.32 165.89 C 51.81 160.29 50.04 153.22 47.19 146.77 C 45.69 144.42 44.17 142.09 43.15 139.48 C 41.19 142.79 39.49 146.27 37.14 149.32 C 33.57 154.49 34.94 161.17 33.21 166.93 C 32.35 164.99 31.54 163.03 30.79 161.05 C 30.01 163.27 31.02 165.30 32.14 167.17 C 31.44 167.62 30.74 168.07 30.04 168.53 C 30.32 169.83 30.59 171.13 30.85 172.44 C 29.35 171.74 27.90 170.97 26.46 170.17 C 27.25 169.51 28.03 168.87 28.82 168.23 C 27.82 166.39 27.60 164.34 27.59 162.29 C 28.98 161.53 30.39 160.80 31.69 159.91 C 28.65 159.82 26.73 162.09 24.86 164.12 C 23.08 161.38 25.52 158.77 25.69 156.00 C 26.31 151.19 28.02 146.60 30.30 142.34 C 32.62 138.72 30.21 134.20 32.37 130.51 C 34.51 126.64 38.21 123.53 38.82 118.92 C 38.16 113.72 33.80 110.06 32.36 105.14 C 30.55 107.79 28.22 110.13 25.22 111.39 C 24.19 105.24 22.29 98.61 24.71 92.55 C 25.42 92.50 26.82 92.41 27.52 92.37 C 27.32 96.54 28.11 100.69 27.80 104.87 C 29.32 103.40 31.25 102.14 31.98 100.06 C 33.24 97.19 31.42 93.42 34.00 91.10 C 35.57 89.70 35.79 87.59 36.30 85.67 C 33.96 88.21 31.47 90.61 28.93 92.95 C 25.29 90.96 28.87 86.81 30.21 84.35 C 31.21 84.49 32.20 84.64 33.20 84.76 C 34.13 83.15 34.92 81.46 35.94 79.91 C 40.89 75.29 47.70 73.80 54.03 72.10 C 57.36 72.27 60.58 73.44 63.93 73.31 C 70.40 72.97 76.94 73.39 83.22 75.08 C 87.34 75.23 91.45 75.69 95.58 75.61 C 95.29 76.37 94.71 77.90 94.43 78.66 C 90.24 78.71 86.05 78.54 81.91 79.22 C 80.02 79.54 78.61 77.89 77.07 77.09 C 77.82 78.59 78.55 80.10 79.06 81.70 C 75.48 81.45 72.23 78.80 68.59 79.65 C 66.14 79.99 64.09 81.55 61.88 82.56 C 60.96 81.62 60.06 80.64 59.15 79.68 C 59.41 80.89 59.69 82.10 59.98 83.31 C 57.53 84.94 54.60 84.71 51.85 84.23 C 51.66 83.28 51.28 81.40 51.09 80.46 C 49.44 82.95 51.84 84.72 53.45 86.40 C 50.81 87.81 47.78 87.99 45.15 86.49 C 46.25 85.57 47.34 84.65 48.42 83.71 C 46.74 83.92 45.07 84.18 43.40 84.43 C 43.41 85.45 43.41 86.47 43.42 87.49 C 41.23 87.49 39.03 87.56 36.85 87.44 C 37.24 88.20 37.64 88.96 38.03 89.72 C 35.30 90.76 36.29 93.38 37.26 95.37 C 39.06 98.60 39.35 102.39 41.07 105.67 C 43.45 105.82 46.28 104.86 48.17 106.79 C 51.50 109.56 56.12 111.11 58.30 115.03 C 53.81 117.48 50.82 121.79 47.54 125.59 C 45.50 127.75 47.25 130.68 47.46 133.17 C 48.27 131.81 49.09 130.44 49.95 129.11 C 50.16 130.21 50.58 132.43 50.78 133.54 C 56.18 130.30 61.05 124.31 67.99 125.53 C 70.80 124.35 73.53 122.61 76.72 123.40 C 76.42 121.08 76.10 118.73 76.48 116.39 C 81.31 119.11 86.45 121.29 91.87 122.50 C 93.89 119.93 96.06 117.18 99.19 115.97 C 98.71 112.17 101.38 109.26 103.49 106.45 C 105.00 105.80 106.63 105.56 108.23 105.24 C 106.03 108.11 103.21 110.71 102.35 114.36 C 100.98 116.85 99.27 119.24 99.23 122.22 C 100.53 123.00 101.80 123.85 103.18 124.50 C 109.29 123.93 115.42 124.39 121.55 124.48 C 121.38 122.06 122.34 119.46 124.70 118.49 C 131.72 117.10 135.95 110.48 139.55 104.87 C 135.55 104.91 135.21 109.60 132.28 111.45 C 134.56 107.13 137.93 103.52 140.49 99.37 C 139.85 101.26 139.04 103.09 138.21 104.90 C 139.57 104.66 140.93 104.43 142.29 104.22 C 142.20 101.50 143.86 99.45 145.38 97.39 C 147.53 92.04 149.01 86.26 152.64 81.65 C 152.52 81.21 152.28 80.33 152.16 79.89 C 151.31 79.30 150.46 78.72 149.62 78.12 C 148.51 78.52 147.41 78.93 146.30 79.31 C 142.39 76.70 140.54 72.04 136.49 69.67 C 137.42 71.51 138.66 73.17 139.72 74.95 C 138.64 74.72 137.58 74.47 136.51 74.19 C 134.75 81.76 129.81 89.13 122.22 91.81 C 122.36 90.24 122.58 88.68 122.82 87.13 C 119.29 85.15 114.69 84.49 112.10 81.21 C 111.07 81.93 110.04 82.67 108.94 83.28 C 106.94 81.76 108.56 79.55 109.54 77.98 C 111.52 81.15 115.43 80.18 118.53 80.84 C 120.66 82.99 123.45 84.12 126.15 85.33 C 129.49 80.29 131.73 74.53 135.79 69.99 C 137.62 66.77 135.29 63.07 135.38 59.65 C 134.16 58.87 133.00 58.03 131.79 57.26 C 129.59 55.89 126.44 56.41 124.66 54.32 C 122.23 50.90 122.40 46.58 122.73 42.60 C 129.09 44.71 132.94 50.82 139.16 53.30 C 140.18 51.85 141.21 50.40 142.27 48.99 C 141.88 47.02 141.39 45.04 141.61 43.02 C 142.11 38.00 140.82 33.02 141.31 28.01 C 139.73 26.18 137.62 24.79 136.37 22.70 C 136.20 21.46 136.75 20.69 138.01 20.39 C 140.15 21.76 142.14 23.44 143.71 25.46 C 144.75 29.23 145.43 33.16 145.48 37.09 C 146.74 36.80 147.99 36.52 149.26 36.27 C 147.79 40.01 145.95 43.78 146.63 47.93 C 148.49 47.60 150.37 47.37 152.26 47.31 C 152.96 40.67 158.54 35.20 157.67 28.33 C 156.22 24.41 151.99 23.48 148.33 22.88 C 148.42 21.67 148.53 20.46 148.66 19.25 M 124.26 47.36 C 125.07 48.98 125.82 50.67 127.00 52.06 C 128.89 53.20 131.03 53.82 133.04 54.71 C 130.12 52.26 127.95 48.78 124.26 47.36 M 161.22 62.66 C 160.83 64.13 161.31 64.64 162.66 64.19 C 163.05 62.73 162.57 62.22 161.22 62.66 M 54.24 82.20 C 54.85 82.82 54.85 82.82 54.24 82.20 M 41.28 85.23 C 41.94 85.89 41.94 85.89 41.28 85.23 M 39.23 109.23 C 39.87 109.86 39.87 109.86 39.23 109.23 M 44.78 111.98 C 44.10 113.04 43.46 114.12 42.86 115.24 C 44.11 116.65 45.40 118.02 46.64 119.44 C 46.07 121.78 43.63 120.44 42.01 120.30 C 40.69 125.06 39.00 129.75 38.48 134.69 C 37.06 134.54 35.64 134.37 34.21 134.24 C 33.31 136.25 33.75 138.21 35.03 139.93 C 30.86 145.33 30.39 152.43 28.53 158.76 C 29.09 158.73 30.21 158.67 30.77 158.63 C 31.33 153.05 31.97 146.60 36.78 142.92 C 39.02 141.32 39.47 137.28 42.61 137.15 C 42.49 133.45 42.59 129.74 42.84 126.05 C 45.16 121.21 49.31 117.52 53.69 114.55 C 50.46 114.67 47.46 113.77 44.78 111.98 M 99.14 125.52 C 98.48 128.87 97.47 132.24 97.88 135.68 C 98.57 133.76 99.62 132.01 100.66 130.26 C 102.59 130.42 104.50 130.68 106.43 130.86 C 104.03 129.03 101.62 127.23 99.14 125.52 M 46.77 134.72 C 46.37 136.33 46.98 136.96 48.61 136.61 C 48.99 134.99 48.37 134.36 46.77 134.72 M 34.95 147.16 C 34.14 148.33 34.43 149.02 35.83 149.23 C 36.67 148.02 36.38 147.33 34.95 147.16 Z" />
<path fill="#ffffff" opacity="1.00" d=" M 60.38 43.15 C 60.93 38.44 61.75 33.51 65.19 29.96 C 67.39 30.68 68.17 33.09 69.24 34.91 C 70.95 37.48 70.53 40.73 71.67 43.51 C 73.19 44.83 72.59 46.83 72.14 48.51 C 67.90 46.67 66.81 42.22 65.91 38.15 C 64.28 41.74 63.51 45.62 62.45 49.39 C 59.69 48.43 58.67 45.85 57.36 43.52 C 57.07 46.99 56.49 50.48 56.85 53.97 C 63.80 52.90 70.77 51.98 77.82 52.14 C 74.93 48.81 75.70 44.19 75.34 40.14 C 74.52 41.51 73.72 42.89 72.94 44.27 C 72.33 42.95 71.15 41.79 71.17 40.26 C 71.21 36.46 74.14 33.61 75.31 30.14 C 79.22 33.14 78.63 38.59 78.84 42.99 C 80.40 39.52 81.56 35.90 82.96 32.37 C 83.77 32.65 84.57 32.94 85.37 33.25 C 85.85 32.24 86.34 31.24 86.84 30.24 C 87.51 30.54 88.85 31.15 89.52 31.45 C 89.48 38.31 89.56 45.18 89.53 52.04 C 89.98 53.50 91.38 54.89 90.53 56.47 C 89.16 58.28 86.74 56.83 84.93 56.76 C 77.94 56.34 70.95 57.46 63.95 57.37 C 60.01 57.27 56.16 58.05 52.27 58.51 C 55.09 50.43 52.05 41.85 52.21 33.54 C 52.68 33.49 53.62 33.40 54.09 33.35 C 56.35 36.50 58.30 39.87 60.38 43.15 M 78.56 52.14 C 80.50 52.37 82.44 52.67 84.39 52.92 C 84.30 48.86 84.39 44.80 84.23 40.75 C 82.61 44.67 81.01 48.64 78.56 52.14 Z" />
<path fill="#ffffff" opacity="1.00" d=" M 146.25 61.94 C 149.23 60.35 146.48 65.38 146.25 61.94 Z" />
<path fill="#ffffff" opacity="1.00" d=" M 149.43 67.36 C 150.45 67.02 152.10 67.96 151.34 69.14 C 150.40 69.90 149.06 69.37 147.96 69.42 C 146.51 68.76 148.64 67.42 149.43 67.36 Z" />
<path fill="#ffffff" opacity="1.00" d=" M 153.07 68.41 C 156.60 68.41 151.67 71.38 153.07 68.41 Z" />
<path fill="#ffffff" opacity="1.00" d=" M 95.68 76.08 C 99.85 76.58 104.16 77.51 107.70 79.89 C 107.69 80.62 107.66 82.08 107.65 82.80 C 103.61 81.40 99.56 80.01 95.40 79.02 C 95.47 78.28 95.61 76.81 95.68 76.08 Z" />
<path fill="#ffffff" opacity="1.00" d=" M 37.19 94.59 C 38.85 92.14 40.75 89.80 43.26 88.17 C 42.15 90.18 40.81 92.11 40.23 94.37 C 39.47 94.42 37.95 94.54 37.19 94.59 Z" />
<path fill="#ffffff" opacity="1.00" d=" M 54.21 103.59 C 54.75 103.61 55.81 103.64 56.34 103.66 C 57.88 106.38 57.78 109.54 57.56 112.55 C 56.40 109.58 55.89 106.36 54.21 103.59 Z" />
<path fill="#ffffff" opacity="1.00" d=" M 59.76 109.94 C 61.35 114.11 65.81 115.14 68.94 117.79 C 66.61 117.38 64.32 116.78 62.07 116.08 C 61.91 116.60 61.60 117.63 61.45 118.15 C 60.15 115.56 58.63 112.92 59.76 109.94 Z" />
<path fill="#ffffff" opacity="1.00" d=" M 128.22 113.27 C 128.85 113.91 128.85 113.91 128.22 113.27 Z" />
<path fill="#ffffff" opacity="1.00" d=" M 88.27 161.36 C 88.95 161.37 90.31 161.40 90.99 161.41 C 90.85 162.43 90.55 164.45 90.40 165.47 C 91.57 166.26 92.73 167.07 93.90 167.87 C 93.68 168.41 93.47 168.95 93.27 169.50 C 91.64 168.77 90.01 168.01 88.39 167.26 C 88.45 165.29 88.39 163.32 88.27 161.36 Z" />
<path fill="#ffffff" opacity="1.00" d=" M 25.29 166.12 C 26.62 166.74 26.58 167.38 25.15 168.04 C 23.83 167.41 23.87 166.77 25.29 166.12 Z" />
</g>
</svg>
