<?xml version="1.0" encoding="UTF-8" ?>
<!DOCTYPE svg PUBLIC "-//W3C//DTD SVG 1.1//EN" "http://www.w3.org/Graphics/SVG/1.1/DTD/svg11.dtd">
<svg width="180pt" height="180pt" viewBox="0 0 180 180" version="1.1" xmlns="http://www.w3.org/2000/svg">
<g id="#ffffffff">
<path fill="#ffffff" opacity="1.00" d=" M 111.56 20.10 C 116.14 14.88 118.51 7.86 123.90 3.37 C 124.97 5.02 126.09 6.63 127.37 8.13 C 124.36 14.79 121.59 21.89 116.83 27.48 C 113.71 27.05 117.03 24.07 117.26 22.49 C 112.79 27.73 109.40 33.92 105.94 39.88 C 107.32 37.77 109.35 37.10 111.82 37.69 C 110.70 40.03 109.32 42.23 107.89 44.38 C 112.93 44.57 116.85 48.26 121.88 48.45 C 129.66 49.99 137.40 52.58 144.12 56.86 C 148.62 60.63 155.11 59.47 160.12 61.93 C 163.08 65.73 167.11 68.40 171.04 71.03 C 173.70 72.84 171.66 75.95 172.39 78.45 C 172.92 81.73 174.28 84.78 175.15 87.97 C 175.44 91.01 173.50 94.49 176.02 96.98 C 178.36 99.67 176.86 103.36 177.71 106.52 C 178.79 110.45 178.27 114.88 175.90 118.27 C 175.27 118.10 174.00 117.77 173.37 117.60 C 170.26 112.60 170.98 106.51 169.85 100.94 C 169.20 97.96 169.94 95.03 170.66 92.16 C 169.88 87.52 171.01 81.68 167.11 78.25 C 167.78 76.83 168.44 75.40 168.99 73.93 C 168.34 74.74 167.71 75.55 167.10 76.38 C 164.54 76.36 161.98 76.53 159.41 76.58 C 159.99 75.38 160.55 74.17 161.12 72.97 C 159.82 71.85 158.36 70.96 156.80 70.26 C 157.56 72.10 158.44 73.90 159.07 75.79 C 156.01 75.68 152.25 74.96 150.96 71.78 C 148.42 71.03 144.02 70.67 144.13 67.17 C 147.28 67.23 150.18 68.53 153.08 69.60 C 152.44 67.75 151.77 65.92 151.25 64.04 C 147.64 63.37 144.33 61.77 141.13 60.05 C 140.47 60.65 139.80 61.26 139.14 61.86 C 133.74 60.11 127.84 58.97 123.43 55.15 C 123.51 59.75 118.69 61.68 116.18 64.87 C 115.32 64.64 113.62 64.19 112.76 63.96 C 113.33 64.37 114.46 65.20 115.02 65.61 C 113.94 67.49 112.74 69.29 111.37 70.97 C 111.62 73.55 113.87 76.68 111.38 78.76 C 109.92 76.71 107.72 74.24 108.83 71.56 C 109.70 68.96 109.69 66.19 109.77 63.48 C 109.09 63.22 107.74 62.70 107.06 62.44 C 106.64 62.81 105.81 63.56 105.39 63.93 C 106.53 64.48 107.49 65.28 108.13 66.39 C 106.92 66.97 105.71 67.54 104.50 68.10 C 104.01 70.29 104.71 71.91 106.91 72.61 C 106.75 74.58 105.77 76.90 107.83 78.21 C 106.50 81.45 106.98 84.92 109.73 87.21 C 109.36 88.47 108.98 89.72 108.61 90.98 C 109.64 91.45 110.67 91.93 111.71 92.41 C 111.31 94.00 110.81 95.56 110.11 97.05 C 107.89 94.52 104.65 91.83 105.19 88.12 C 103.22 85.48 103.21 82.25 103.64 79.12 C 102.19 81.72 100.38 84.13 97.99 85.94 C 98.15 87.22 98.29 88.51 98.41 89.81 C 96.20 92.35 96.12 95.91 94.95 98.95 C 95.62 98.00 96.29 97.05 96.97 96.10 C 97.52 99.60 100.26 101.86 102.73 104.09 C 102.56 104.57 102.24 105.52 102.08 106.00 C 100.63 104.57 99.16 103.16 97.59 101.87 C 98.65 106.17 102.59 108.64 105.44 111.68 C 104.95 109.84 104.35 108.03 103.99 106.15 C 106.77 108.94 108.82 113.08 113.11 113.73 C 117.55 115.28 122.27 114.38 126.68 113.22 C 126.07 112.32 125.47 111.42 124.90 110.50 C 126.37 110.47 127.85 110.45 129.32 110.44 C 133.51 106.16 138.32 101.79 143.97 99.84 C 147.53 101.90 151.55 103.55 154.12 106.92 C 155.33 108.14 154.44 109.92 154.73 111.41 C 156.59 114.15 159.00 116.59 160.16 119.77 C 161.14 122.55 163.74 124.23 165.23 126.67 C 166.63 131.00 166.31 135.60 166.97 140.05 C 167.33 141.83 166.95 143.62 166.58 145.37 C 168.04 145.23 169.49 145.15 170.96 145.12 C 170.68 146.19 170.39 147.26 170.09 148.32 C 166.58 147.41 162.98 147.23 159.66 148.87 C 160.09 147.04 161.62 146.41 163.35 146.36 C 163.09 140.36 162.11 134.39 162.52 128.36 C 159.55 125.45 155.74 122.77 155.67 118.17 C 154.11 117.70 152.54 117.28 150.99 116.80 C 152.49 121.03 156.51 124.28 156.67 128.93 C 155.39 128.97 154.45 128.41 153.85 127.25 C 151.46 131.74 152.35 137.10 150.45 141.78 C 151.38 141.59 152.31 141.40 153.25 141.22 C 153.42 137.50 153.85 133.79 153.96 130.06 C 155.06 130.33 156.16 130.58 157.26 130.83 C 156.53 134.81 156.56 138.85 156.95 142.87 C 154.59 144.96 151.41 145.05 148.43 144.78 C 148.20 138.82 147.97 132.75 149.96 127.02 C 145.80 123.40 143.32 118.35 140.84 113.52 C 135.36 115.75 129.82 118.45 126.58 123.66 C 125.86 121.89 124.95 120.21 124.06 118.52 C 121.16 118.63 118.27 118.51 115.38 118.59 C 116.28 119.46 117.21 120.32 118.15 121.15 C 117.05 121.61 115.96 122.08 114.88 122.56 C 116.23 122.67 117.58 122.61 118.94 122.59 C 122.02 124.99 124.24 128.28 127.26 130.76 C 133.85 136.27 139.42 142.88 145.85 148.57 C 148.94 150.96 151.12 154.30 154.27 156.62 C 155.94 157.75 156.89 159.53 157.19 161.50 C 155.60 161.73 154.02 161.41 153.01 160.07 C 149.08 156.13 144.23 153.08 140.74 148.76 C 137.65 147.39 135.91 144.30 133.18 142.44 C 135.81 146.18 139.39 149.13 142.08 152.82 C 141.55 153.33 140.47 154.37 139.94 154.89 C 131.16 146.75 123.00 137.95 114.55 129.47 C 111.23 125.81 108.22 121.83 104.41 118.65 C 100.16 117.83 95.91 117.00 91.83 115.51 C 92.96 118.42 93.89 121.42 95.18 124.26 C 94.73 124.53 93.83 125.07 93.38 125.33 C 93.82 126.61 94.21 127.91 94.50 129.24 C 92.32 130.26 90.23 129.26 88.30 128.21 C 89.36 127.11 90.42 126.01 91.52 124.94 C 89.83 122.58 87.52 120.80 85.15 119.18 C 85.62 118.51 86.56 117.18 87.04 116.52 C 87.63 116.78 88.81 117.31 89.40 117.58 C 87.37 114.70 85.20 111.82 82.22 109.86 C 82.44 107.90 82.62 105.93 82.44 103.97 C 84.00 102.69 85.77 101.85 87.81 102.47 C 87.77 101.84 87.68 100.58 87.64 99.95 C 85.98 100.80 84.33 101.67 82.62 102.42 C 82.82 100.25 84.08 98.69 85.92 97.65 C 84.71 96.03 83.75 94.25 82.75 92.49 C 80.11 96.22 78.52 100.52 76.50 104.58 C 74.72 108.21 74.23 112.52 71.31 115.51 C 72.26 116.29 73.24 117.05 74.20 117.82 C 72.79 117.55 71.37 117.27 69.95 117.04 C 70.53 119.61 73.53 120.02 74.76 122.19 C 75.50 124.03 78.67 123.57 78.69 125.66 C 75.86 126.43 73.51 128.80 73.76 131.89 C 74.22 131.43 75.12 130.50 75.58 130.03 C 76.48 132.44 77.53 134.79 78.62 137.12 C 78.60 135.76 78.57 134.40 78.54 133.05 C 79.95 132.55 81.35 131.98 82.74 131.41 C 82.41 132.25 82.08 133.09 81.77 133.93 C 82.97 134.55 84.17 135.19 85.36 135.85 C 85.53 134.04 85.50 132.22 85.37 130.41 C 85.79 130.02 86.61 129.24 87.02 128.86 C 88.97 130.28 91.13 131.47 92.71 133.33 C 92.67 137.68 89.63 141.49 85.96 143.65 C 82.94 142.20 80.56 139.84 78.10 137.63 C 78.93 139.87 80.25 141.87 81.41 143.95 C 80.12 144.30 78.83 144.63 77.54 144.94 C 78.06 148.27 76.53 151.15 74.51 153.65 C 73.21 153.62 71.90 153.70 70.62 153.48 C 69.11 151.87 67.95 149.97 67.18 147.91 C 66.58 148.07 65.38 148.39 64.78 148.55 C 64.67 145.90 63.60 143.50 62.54 141.13 C 62.74 139.31 63.35 137.57 63.56 135.76 C 62.15 137.17 61.77 139.54 60.01 140.53 C 59.21 140.55 57.63 140.60 56.84 140.62 C 57.51 137.76 58.67 135.05 59.48 132.23 C 56.63 134.62 56.70 138.82 54.66 141.72 C 52.47 143.14 50.32 144.67 48.45 146.50 C 46.87 149.95 45.40 153.46 43.68 156.85 C 42.86 156.50 42.05 156.14 41.24 155.76 C 42.56 152.26 43.77 148.72 44.92 145.17 C 45.33 145.23 46.14 145.34 46.55 145.40 C 46.45 144.36 45.80 143.26 46.36 142.26 C 49.57 134.77 52.38 127.11 55.83 119.72 C 53.07 117.92 49.71 116.98 47.47 114.44 C 47.54 115.26 47.69 116.92 47.76 117.75 C 43.63 118.44 43.03 114.13 40.98 111.81 C 41.44 113.79 43.22 115.62 42.19 117.72 C 41.24 118.99 39.98 119.98 38.85 121.10 C 38.06 120.10 37.27 119.10 36.46 118.12 C 37.26 119.92 39.16 123.07 36.02 123.72 C 34.63 122.69 33.41 121.47 32.15 120.29 C 32.99 121.92 33.91 123.50 34.82 125.09 C 32.52 125.67 29.83 128.77 27.61 126.52 C 25.88 124.22 22.04 124.73 21.10 121.71 C 20.34 118.50 18.54 115.24 19.93 111.92 C 20.50 112.40 21.63 113.37 22.19 113.86 C 21.45 112.95 20.71 112.04 19.97 111.14 C 20.17 109.96 20.39 108.79 20.62 107.63 C 17.13 108.81 13.56 106.89 10.32 105.74 C 10.40 103.54 10.40 101.33 10.57 99.13 C 7.77 97.12 6.24 93.97 4.48 91.11 C 5.20 89.02 5.89 86.93 6.59 84.83 C 4.94 83.34 3.43 81.72 2.01 80.02 C 2.89 79.07 3.79 78.15 4.70 77.23 C 3.10 74.74 3.12 71.32 4.86 68.90 C 6.85 66.23 4.86 62.92 4.21 60.12 C 7.32 57.22 8.89 52.93 12.69 50.73 C 14.32 49.14 16.62 49.28 18.71 49.01 C 19.96 48.30 20.98 47.26 22.11 46.39 C 22.76 46.60 24.05 47.02 24.70 47.23 C 24.65 47.82 24.55 49.01 24.50 49.60 C 19.42 51.55 15.28 55.01 12.01 59.32 C 11.32 61.90 10.31 64.55 11.53 67.15 C 11.40 71.02 6.59 74.97 9.89 78.75 C 9.50 79.13 8.72 79.88 8.33 80.25 C 9.31 81.51 10.24 82.80 11.14 84.11 C 10.26 86.74 9.33 89.35 8.31 91.93 C 10.65 93.72 12.99 95.70 13.85 98.64 C 15.13 98.64 16.40 98.76 17.66 99.02 C 17.74 100.96 17.71 102.90 17.70 104.83 C 20.11 104.24 22.40 103.19 24.89 102.98 C 22.66 107.03 25.33 111.30 23.69 115.48 C 25.76 113.42 26.20 110.60 26.94 107.91 C 29.00 105.75 32.93 108.03 32.01 110.92 C 30.73 111.32 29.45 111.72 28.19 112.16 C 29.11 112.16 30.96 112.17 31.88 112.17 C 31.15 113.67 30.43 115.18 29.78 116.72 C 28.66 115.59 27.37 114.66 25.99 113.87 C 26.50 115.23 27.11 116.55 27.73 117.86 C 27.10 119.59 26.44 121.31 25.93 123.09 C 27.02 120.81 28.37 118.44 31.05 117.85 C 31.31 115.75 31.63 113.62 33.07 111.98 C 34.61 111.27 36.08 112.13 37.55 112.55 C 36.83 111.90 36.09 111.27 35.33 110.66 C 35.90 110.14 36.47 109.62 37.05 109.09 C 36.13 106.86 35.42 104.52 35.56 102.07 C 36.10 101.85 37.19 101.42 37.73 101.20 C 38.60 102.42 39.50 103.62 40.51 104.74 C 40.11 99.14 40.62 93.36 42.82 88.16 C 43.45 88.62 44.71 89.55 45.34 90.01 C 44.68 92.40 44.35 94.86 44.18 97.34 C 44.77 97.35 45.96 97.38 46.56 97.40 C 46.34 98.90 46.27 100.43 45.97 101.93 C 47.19 101.73 48.42 101.54 49.65 101.37 C 49.42 104.95 49.07 108.53 49.49 112.11 C 50.92 109.25 51.38 104.80 55.48 104.96 C 55.21 107.30 54.65 109.61 52.99 111.35 C 55.12 111.03 56.91 112.16 58.72 113.09 C 63.61 102.61 69.07 92.40 74.63 82.27 C 68.94 75.40 63.80 68.08 58.02 61.28 C 57.42 62.16 56.82 63.04 56.20 63.91 C 56.44 62.64 56.71 61.37 57.00 60.11 C 56.16 58.05 52.17 55.53 54.38 53.48 C 53.84 53.46 52.76 53.41 52.22 53.38 C 50.14 51.09 48.30 48.58 46.69 45.93 C 45.99 46.61 45.28 47.30 44.57 47.98 C 46.95 49.97 46.16 53.12 47.14 55.60 C 48.01 55.58 49.73 55.53 50.59 55.51 C 50.47 57.61 50.31 59.71 50.13 61.81 C 48.43 61.02 47.08 59.67 45.86 58.29 C 44.87 54.12 44.18 49.82 42.27 45.95 C 43.30 44.29 42.55 42.81 41.10 41.74 C 39.36 43.78 38.21 46.65 35.39 47.39 C 32.88 49.12 29.93 48.06 27.13 48.26 C 26.81 47.26 26.49 46.26 26.18 45.26 C 28.30 44.70 30.47 44.33 32.58 43.74 C 34.74 41.10 37.65 39.10 41.23 39.31 C 37.68 32.02 31.90 26.16 27.80 19.21 C 26.41 16.70 23.24 14.69 24.30 11.44 C 24.69 11.36 25.49 11.22 25.88 11.14 C 29.62 14.17 30.55 20.09 35.30 21.79 C 40.63 25.28 43.66 31.03 48.15 35.40 C 53.53 34.54 57.82 31.06 62.49 28.55 C 65.25 28.15 68.00 27.49 70.79 27.33 C 72.75 27.08 73.03 29.37 73.90 30.59 C 78.86 30.58 84.03 30.01 88.63 32.36 C 92.05 33.21 96.06 33.52 98.58 36.31 C 98.62 37.13 98.71 38.78 98.75 39.61 C 102.73 37.44 103.66 32.22 106.40 28.77 C 97.00 29.34 87.71 27.39 78.42 26.30 C 76.92 19.79 76.84 13.00 76.52 6.34 C 80.57 6.92 82.56 11.22 86.11 12.97 C 87.14 9.72 87.86 6.04 91.00 4.11 C 92.95 6.26 94.00 9.00 95.24 11.58 C 96.68 9.46 97.95 7.22 99.41 5.11 C 103.86 5.00 103.87 9.86 103.31 13.11 C 104.91 10.47 106.54 7.78 109.07 5.91 C 112.85 9.57 111.01 15.39 111.56 20.10 M 91.56 9.35 C 90.37 12.41 88.68 15.24 86.94 18.02 C 84.70 16.72 82.56 15.26 80.50 13.69 C 81.47 16.73 81.57 19.94 81.24 23.10 C 89.99 23.24 98.57 25.38 107.35 24.94 C 107.32 21.26 107.39 17.58 107.50 13.90 C 105.92 16.31 104.84 19.22 102.12 20.61 C 99.35 18.73 99.62 15.40 99.31 12.47 C 97.93 14.03 97.01 18.15 94.26 16.21 C 92.33 14.51 91.51 11.86 91.56 9.35 M 119.46 19.20 C 118.36 19.49 116.87 20.68 117.35 21.94 C 118.58 22.71 121.27 19.73 119.46 19.20 M 52.63 39.80 C 53.13 40.00 54.14 40.41 54.64 40.61 C 54.09 41.45 53.55 42.28 53.03 43.13 C 55.23 46.97 57.69 50.99 61.88 52.91 C 62.22 55.63 63.13 58.32 65.37 60.21 C 65.18 60.61 64.79 61.43 64.59 61.83 C 65.55 62.05 66.53 62.21 67.49 62.42 C 70.87 67.08 74.55 71.52 78.09 76.06 C 84.64 65.37 91.57 54.88 97.49 43.82 C 97.59 42.24 97.57 40.66 97.79 39.09 C 92.96 39.35 88.14 39.45 83.39 38.44 C 82.79 37.39 83.48 36.15 83.52 35.04 C 79.81 36.82 75.94 34.58 72.17 35.88 C 70.88 35.20 69.12 33.00 68.03 35.09 C 67.00 34.08 65.96 33.07 65.01 31.98 C 60.61 34.12 56.37 36.62 52.63 39.80 M 89.11 67.94 C 88.35 70.59 87.18 73.07 85.93 75.51 C 85.50 75.26 84.64 74.78 84.21 74.53 C 84.55 75.42 84.90 76.31 85.25 77.20 C 84.37 77.92 83.47 78.63 82.56 79.31 C 82.97 80.33 83.36 81.37 83.78 82.39 C 88.00 72.77 92.36 63.16 98.07 54.33 C 99.05 51.49 100.54 48.90 102.11 46.35 C 102.91 46.29 103.71 46.25 104.51 46.21 C 104.18 45.20 103.85 44.20 103.54 43.19 C 98.31 51.19 93.00 59.19 89.11 67.94 M 44.15 44.17 C 44.81 44.85 44.81 44.85 44.15 44.17 M 107.13 46.90 C 103.80 51.47 101.57 56.65 99.18 61.73 C 100.41 63.12 101.58 64.56 102.65 66.08 C 102.53 64.16 102.54 62.25 102.47 60.34 C 105.74 59.49 108.50 57.07 112.01 57.18 C 111.66 56.64 110.96 55.54 110.60 54.99 C 111.42 52.80 111.63 50.47 112.18 48.21 C 111.89 48.70 111.29 49.68 111.00 50.17 C 109.70 49.09 108.44 47.97 107.13 46.90 M 115.24 51.57 C 116.55 54.82 114.22 57.40 113.62 60.45 C 116.02 58.74 116.20 54.36 119.98 55.25 C 119.28 56.49 118.58 57.74 117.88 58.98 C 119.35 57.89 120.83 56.81 122.34 55.77 C 121.17 54.82 119.95 53.92 118.73 53.03 C 118.20 53.65 117.15 54.88 116.63 55.50 C 116.74 53.99 116.98 52.49 117.33 51.01 C 116.81 51.15 115.77 51.43 115.24 51.57 M 111.03 61.19 C 110.34 62.86 110.83 63.35 112.50 62.68 C 113.17 60.97 112.68 60.48 111.03 61.19 M 96.23 66.68 C 97.06 68.11 98.07 69.43 98.92 70.86 C 97.16 70.80 95.78 70.00 94.79 68.44 C 92.15 74.06 88.76 79.29 86.25 84.98 C 87.83 86.89 89.48 88.75 91.16 90.59 C 92.84 87.97 92.44 83.50 95.47 82.21 C 95.11 82.03 94.38 81.68 94.02 81.50 C 95.57 80.65 97.10 79.76 98.61 78.83 C 97.98 78.41 96.72 77.57 96.08 77.15 C 98.48 74.99 99.07 71.84 100.16 68.96 C 98.74 67.52 98.01 65.68 97.59 63.74 C 97.17 64.71 96.04 65.54 96.23 66.68 M 156.42 65.96 C 156.38 69.36 159.39 64.50 156.42 65.96 M 159.03 66.95 C 159.21 67.54 159.59 68.72 159.77 69.31 C 161.73 70.11 163.44 71.35 165.04 72.72 C 163.49 70.36 161.53 68.31 159.03 66.95 M 155.05 68.89 C 154.57 70.33 155.02 70.83 156.40 70.39 C 156.88 68.94 156.43 68.44 155.05 68.89 M 78.73 87.33 C 77.15 91.80 74.41 95.74 72.66 100.14 C 72.97 100.68 73.60 101.76 73.91 102.30 C 76.14 98.00 78.59 93.78 80.40 89.28 C 79.83 88.63 79.28 87.98 78.73 87.33 M 85.48 88.95 C 84.98 90.58 85.53 91.18 87.13 90.74 C 87.62 89.08 87.07 88.49 85.48 88.95 M 142.53 103.02 C 142.47 103.67 142.36 104.96 142.30 105.61 C 143.68 105.64 145.07 105.68 146.45 105.71 C 145.26 104.64 143.92 103.79 142.53 103.02 M 85.35 104.05 C 83.61 104.39 84.00 107.22 85.87 106.15 C 87.66 105.87 87.15 103.06 85.35 104.05 M 93.19 104.93 C 93.43 107.04 93.58 109.16 93.70 111.28 C 92.32 110.21 90.99 109.08 89.56 108.09 C 90.20 109.43 90.64 110.97 91.77 112.00 C 94.64 112.90 97.56 113.70 100.52 114.28 C 99.33 112.09 97.66 110.24 96.03 108.38 C 94.58 107.71 93.87 106.30 93.19 104.93 M 145.24 108.51 C 144.72 110.10 145.29 110.63 146.94 110.09 C 147.44 108.47 146.88 107.94 145.24 108.51 M 135.16 109.22 C 135.83 109.90 135.83 109.90 135.16 109.22 M 152.22 115.23 C 152.86 115.87 152.86 115.87 152.22 115.23 M 25.24 117.24 C 25.82 117.81 25.82 117.81 25.24 117.24 M 111.06 120.14 C 112.63 120.40 114.19 120.73 115.76 120.96 C 115.08 119.89 114.18 119.02 113.19 118.23 C 112.49 118.88 111.78 119.52 111.06 120.14 M 74.13 126.26 C 73.65 124.76 73.12 123.29 72.61 121.81 C 69.61 123.02 71.87 125.90 74.13 126.26 M 64.39 139.60 C 65.21 139.08 66.02 138.55 66.82 138.02 C 65.41 134.71 65.26 131.12 66.38 127.70 C 62.99 130.78 65.10 135.65 64.39 139.60 M 71.24 131.23 C 71.82 131.82 71.82 131.82 71.24 131.23 M 71.14 134.36 C 70.33 135.08 70.35 137.56 71.74 137.46 C 72.53 136.72 72.63 134.18 71.14 134.36 M 66.15 140.11 C 66.42 141.86 66.21 143.87 67.56 145.24 C 67.39 143.55 68.67 140.42 66.15 140.11 M 70.76 141.75 C 71.32 144.59 71.29 147.47 70.73 150.31 C 72.54 150.37 74.34 150.58 76.13 150.82 C 73.74 148.26 74.56 144.84 74.83 141.70 C 73.47 141.71 72.11 141.73 70.76 141.75 Z" />
<path fill="#ffffff" opacity="1.00" d=" M 29.24 11.81 C 33.37 13.67 35.89 18.15 37.89 22.01 C 33.99 19.67 31.50 15.64 29.24 11.81 Z" />
<path fill="#ffffff" opacity="1.00" d=" M 38.08 22.13 C 38.75 22.80 38.75 22.80 38.08 22.13 Z" />
<path fill="#ffffff" opacity="1.00" d=" M 109.14 37.36 C 110.06 33.62 112.61 30.53 114.73 27.38 C 115.34 27.49 116.57 27.70 117.18 27.81 C 115.33 31.00 114.24 34.65 111.79 37.46 C 111.13 37.43 109.80 37.39 109.14 37.36 Z" />
<path fill="#ffffff" opacity="1.00" d=" M 29.71 59.29 C 31.15 56.60 30.20 52.77 33.05 50.93 C 34.34 53.54 35.18 56.34 36.38 59.00 C 36.02 59.60 35.32 60.80 34.97 61.40 C 34.16 60.81 33.69 58.91 32.44 59.73 C 31.27 63.26 30.97 67.34 27.88 69.87 C 25.92 66.30 28.07 62.50 29.71 59.29 Z" />
<path fill="#ffffff" opacity="1.00" d=" M 36.24 62.29 C 36.97 61.22 37.61 60.09 38.28 58.98 C 38.58 61.16 39.18 63.28 39.80 65.38 C 41.37 63.39 42.41 61.07 43.64 58.87 C 44.59 61.23 44.97 63.70 44.08 66.15 C 45.14 65.42 46.33 64.92 47.38 64.19 C 47.73 65.47 48.09 66.75 48.47 68.03 C 46.16 70.51 47.54 74.59 44.82 76.61 C 44.33 76.50 43.36 76.26 42.87 76.14 C 44.16 75.17 45.11 73.97 45.70 72.51 C 43.55 73.08 42.64 75.09 41.67 76.87 C 42.92 77.43 44.17 77.99 45.44 78.51 C 44.19 80.54 43.36 82.76 43.62 85.17 C 42.11 85.98 40.37 86.69 39.54 88.31 C 39.46 90.79 39.59 93.46 38.03 95.57 C 38.65 97.31 38.79 99.14 38.52 100.97 C 34.95 99.33 32.82 94.35 36.42 91.60 C 35.39 88.12 37.72 85.10 38.96 82.04 C 38.23 80.37 37.56 78.67 36.95 76.95 C 38.75 73.48 40.17 69.80 41.13 66.02 C 37.29 68.47 38.15 75.44 32.67 75.63 C 32.58 75.01 32.38 73.77 32.28 73.14 C 34.47 71.06 36.34 68.69 37.57 65.91 C 37.16 64.69 36.65 63.51 36.24 62.29 M 46.15 67.16 C 46.81 67.83 46.81 67.83 46.15 67.16 Z" />
<path fill="#ffffff" opacity="1.00" d=" M 124.35 59.33 C 126.06 59.23 125.27 61.75 123.97 61.69 C 122.36 61.69 123.10 59.31 124.35 59.33 Z" />
<path fill="#ffffff" opacity="1.00" d=" M 96.12 72.29 C 97.48 71.36 98.97 73.51 97.76 74.53 C 96.49 75.54 94.84 73.21 96.12 72.29 Z" />
<path fill="#ffffff" opacity="1.00" d=" M 24.02 75.41 C 24.83 74.21 25.92 73.33 27.42 73.25 C 28.99 74.77 30.93 76.20 30.62 78.68 C 28.39 77.64 26.23 76.48 24.02 75.41 Z" />
<path fill="#ffffff" opacity="1.00" d=" M 11.07 79.37 C 12.63 78.90 14.69 81.69 12.94 82.60 C 11.75 82.42 9.16 80.32 11.07 79.37 Z" />
<path fill="#ffffff" opacity="1.00" d=" M 21.42 81.05 C 22.60 80.05 23.82 79.12 25.05 78.19 C 26.27 79.41 28.39 80.16 28.82 81.95 C 27.60 85.66 22.17 84.53 21.42 81.05 Z" />
<path fill="#ffffff" opacity="1.00" d=" M 111.29 83.68 C 111.86 83.59 113.01 83.42 113.58 83.34 C 114.32 84.84 115.09 86.33 115.79 87.86 C 114.46 87.69 113.14 87.52 111.82 87.31 C 111.64 86.10 111.45 84.89 111.29 83.68 Z" />
<path fill="#ffffff" opacity="1.00" d=" M 51.56 87.71 C 52.59 87.48 53.61 87.23 54.63 86.97 C 53.13 89.71 54.56 93.46 51.89 95.59 C 51.34 92.99 51.64 90.34 51.56 87.71 Z" />
<path fill="#ffffff" opacity="1.00" d=" M 51.23 97.59 C 51.82 97.47 52.99 97.23 53.57 97.11 C 53.77 99.34 54.07 101.56 54.58 103.74 C 53.94 103.93 52.66 104.33 52.03 104.52 C 51.60 102.23 51.25 99.92 51.23 97.59 Z" />
<path fill="#ffffff" opacity="1.00" d=" M 165.22 99.47 C 165.81 99.44 166.99 99.39 167.59 99.36 C 169.33 103.61 166.42 107.62 166.14 111.86 C 167.33 117.46 172.25 121.96 171.44 127.96 C 171.87 133.24 173.37 138.62 172.19 143.90 C 171.56 143.80 170.30 143.59 169.68 143.49 C 168.49 137.19 167.81 130.81 167.54 124.41 C 164.61 119.18 162.71 113.44 160.65 107.82 C 160.25 106.24 162.25 106.24 163.25 105.91 C 164.01 103.80 164.65 101.64 165.22 99.47 Z" />
<path fill="#ffffff" opacity="1.00" d=" M 117.04 109.51 C 118.10 108.85 119.91 110.48 118.90 111.48 C 117.86 112.07 115.97 110.51 117.04 109.51 Z" />
<path fill="#ffffff" opacity="1.00" d=" M 74.16 112.29 C 74.58 111.54 75.41 110.05 75.83 109.31 C 76.44 109.72 77.66 110.53 78.27 110.94 C 78.35 111.87 78.42 112.80 78.49 113.72 C 76.90 113.79 75.35 113.39 74.16 112.29 M 76.30 111.25 C 76.93 111.88 76.93 111.88 76.30 111.25 Z" />
<path fill="#ffffff" opacity="1.00" d=" M 120.35 110.54 C 121.69 110.35 123.04 110.17 124.40 110.02 C 126.05 113.08 122.02 112.28 120.27 112.67 C 120.29 112.14 120.33 111.07 120.35 110.54 Z" />
<path fill="#ffffff" opacity="1.00" d=" M 82.04 113.92 C 83.66 114.69 87.28 113.70 86.86 116.51 C 85.27 116.42 83.68 116.30 82.09 116.14 C 83.07 118.33 85.02 120.50 83.89 123.01 C 84.93 122.69 85.97 122.38 87.02 122.08 C 87.24 122.61 87.68 123.65 87.90 124.17 C 86.84 124.34 85.78 124.51 84.72 124.68 C 84.45 125.67 84.11 126.64 83.69 127.57 C 83.49 127.76 83.09 128.14 82.90 128.33 C 82.62 125.44 81.78 122.66 80.70 119.98 C 81.01 117.94 81.52 115.92 82.04 113.92 Z" />
<path fill="#ffffff" opacity="1.00" d=" M 83.69 127.57 C 85.25 126.93 86.78 126.22 88.39 125.70 C 86.95 127.45 85.25 128.96 83.51 130.39 C 83.55 129.69 83.64 128.28 83.69 127.57 Z" />
<path fill="#ffffff" opacity="1.00" d=" M 56.57 141.41 C 57.88 141.15 59.20 140.89 60.52 140.63 C 58.88 144.96 57.96 149.59 55.78 153.70 C 54.43 153.94 53.76 153.37 53.77 151.98 C 54.32 148.36 55.57 144.91 56.57 141.41 Z" />
</g>
</svg>
