<?xml version="1.0" encoding="UTF-8" ?>
<!DOCTYPE svg PUBLIC "-//W3C//DTD SVG 1.1//EN" "http://www.w3.org/Graphics/SVG/1.1/DTD/svg11.dtd">
<svg width="180pt" height="180pt" viewBox="0 0 180 180" version="1.1" xmlns="http://www.w3.org/2000/svg">
<g id="#ffffffff">
<path fill="#ffffff" opacity="1.00" d=" M 58.24 3.08 C 60.64 4.48 59.82 7.94 60.65 10.24 C 62.75 7.44 64.93 4.44 68.70 4.05 C 68.95 6.60 68.75 9.16 68.71 11.71 C 70.74 9.33 72.75 6.93 74.99 4.73 C 75.92 5.26 76.86 5.79 77.80 6.32 C 77.10 11.17 78.30 16.45 76.01 20.94 C 74.84 22.99 72.09 22.72 70.07 22.83 C 61.21 22.68 52.35 22.84 43.49 22.84 C 41.91 19.67 43.51 16.31 43.30 13.00 C 43.20 10.37 43.38 7.74 43.54 5.12 C 44.61 4.78 45.68 4.45 46.76 4.12 C 48.75 6.29 50.55 8.63 52.56 10.78 C 54.30 8.10 55.96 5.35 58.24 3.08 M 52.96 15.57 C 50.69 13.55 48.52 11.42 46.20 9.45 C 45.70 13.29 45.25 17.14 44.52 20.95 C 54.47 19.32 64.60 21.02 74.56 19.59 C 74.45 15.96 74.54 12.33 74.85 8.71 C 72.58 12.28 70.51 16.30 66.53 18.25 C 65.79 15.09 65.61 11.84 65.50 8.61 C 64.08 10.40 62.74 12.26 61.40 14.12 C 58.33 13.64 58.22 10.46 57.34 8.07 C 55.79 10.52 54.47 13.11 52.96 15.57 Z" />
<path fill="#ffffff" opacity="1.00" d=" M 6.62 10.80 C 14.49 15.68 20.42 23.07 27.96 28.42 C 25.88 25.60 23.36 23.15 20.93 20.62 C 21.60 19.76 22.28 18.90 22.96 18.04 C 25.95 20.37 28.15 23.62 31.34 25.68 C 34.34 25.95 37.67 24.70 40.34 26.57 C 44.46 29.15 48.30 33.46 47.73 38.66 C 49.56 38.62 51.39 38.54 53.22 38.47 C 52.74 40.10 52.25 41.73 51.69 43.34 C 52.32 42.55 52.95 41.77 53.59 40.99 C 55.79 43.87 58.03 46.75 60.88 49.01 C 60.14 45.02 57.96 41.57 55.87 38.17 C 54.76 38.26 52.55 38.43 51.45 38.51 C 55.43 30.78 64.95 28.58 72.94 28.80 C 76.73 29.97 80.74 31.45 83.36 34.60 C 85.78 37.51 89.23 39.47 91.25 42.72 C 92.38 46.23 92.66 49.95 93.72 53.49 C 95.08 49.50 97.17 45.81 98.57 41.84 C 99.64 38.81 100.58 35.70 102.12 32.86 C 103.45 32.47 104.81 32.23 106.20 32.14 C 105.41 35.13 104.40 38.06 103.76 41.09 C 105.67 38.07 106.50 34.51 108.31 31.46 C 110.32 29.77 112.57 28.36 114.44 26.51 C 116.20 23.15 117.58 19.60 119.23 16.17 C 120.08 16.52 120.93 16.86 121.79 17.21 C 119.02 25.98 114.92 34.25 111.71 42.85 C 106.58 54.96 101.18 66.96 94.97 78.56 C 97.47 79.13 100.00 79.86 102.58 79.61 C 113.68 78.92 125.06 78.79 135.79 82.16 C 135.66 83.07 135.54 83.98 135.41 84.89 C 143.67 88.31 149.94 95.56 152.98 103.88 C 155.59 108.55 154.63 114.29 153.16 119.17 C 151.24 121.30 148.73 122.74 146.53 124.55 C 144.73 126.87 143.59 129.61 142.21 132.18 C 140.26 135.79 137.10 138.64 135.45 142.42 C 134.61 145.46 134.18 148.63 134.10 151.78 C 135.30 155.55 140.61 158.16 138.19 162.64 C 136.13 160.74 134.43 158.50 132.58 156.41 C 132.60 157.78 132.66 159.15 132.73 160.52 C 132.01 160.79 131.28 161.07 130.56 161.34 C 128.95 166.11 129.93 171.75 126.71 175.87 C 126.46 170.13 128.18 164.57 128.79 158.90 C 129.23 156.57 127.23 154.85 126.07 153.09 C 123.57 161.95 121.80 170.99 120.03 180.00 L 118.64 180.00 C 118.25 174.22 120.22 168.70 120.98 163.04 C 121.60 158.50 123.71 154.31 124.31 149.76 C 123.23 147.91 122.62 145.16 120.55 144.29 C 117.29 155.05 115.56 166.23 112.96 177.17 C 112.09 175.06 111.32 172.92 110.56 170.78 C 110.50 173.48 110.48 176.19 110.27 178.89 C 108.99 177.96 108.01 176.63 108.35 174.98 C 108.96 161.29 108.81 147.58 108.69 133.88 C 106.24 134.20 103.78 134.41 101.32 134.58 C 99.37 138.97 97.97 143.60 97.51 148.40 C 96.34 158.66 92.70 168.51 92.68 178.92 C 92.29 178.86 91.51 178.74 91.12 178.68 C 90.96 170.98 92.07 163.35 93.97 155.92 C 95.72 149.14 95.17 141.81 98.28 135.41 C 100.30 130.99 102.34 126.57 104.63 122.28 C 99.81 115.43 94.51 108.95 89.10 102.57 C 89.57 101.73 90.04 100.90 90.53 100.07 C 89.75 100.49 88.98 100.91 88.21 101.33 C 87.15 99.83 86.07 98.37 84.94 96.94 C 79.70 105.19 74.58 113.53 69.61 121.95 C 70.28 121.55 71.61 120.75 72.27 120.34 C 73.05 121.94 73.86 123.53 74.63 125.14 C 75.09 124.74 75.52 124.30 75.97 123.90 C 77.23 126.64 78.55 129.36 80.43 131.73 C 83.08 124.30 88.33 114.81 97.49 115.41 C 94.83 117.86 91.29 119.14 88.82 121.81 C 86.50 124.24 84.54 127.09 83.74 130.39 C 87.09 126.91 89.25 122.25 93.59 119.81 C 91.54 123.71 87.90 126.52 86.12 130.60 C 89.67 128.23 91.98 124.51 95.29 121.85 C 94.45 123.42 93.39 124.87 92.61 126.48 C 92.04 130.56 91.24 134.61 90.04 138.56 C 89.01 136.10 89.60 133.50 90.52 131.11 C 88.42 131.76 86.27 132.23 84.11 132.62 C 85.03 135.62 86.52 138.40 87.58 141.34 C 88.31 144.63 88.61 148.00 89.37 151.29 C 90.35 160.08 89.47 168.97 87.94 177.66 C 86.44 172.19 88.35 166.53 87.15 161.03 C 86.03 156.33 87.31 151.29 85.44 146.75 C 84.08 143.01 84.21 138.62 81.18 135.65 C 79.91 137.58 78.73 139.57 77.46 141.50 C 73.66 143.40 74.83 148.41 74.26 151.88 C 72.95 159.33 74.45 166.92 73.28 174.37 C 72.30 172.02 71.59 169.55 71.61 166.99 C 71.19 168.86 70.67 170.72 69.97 172.52 C 69.40 170.02 68.90 167.51 68.57 164.97 C 67.71 157.44 70.70 150.18 70.74 142.69 C 68.20 147.23 66.88 152.30 65.29 157.22 C 64.95 161.98 66.14 166.72 65.57 171.48 C 64.61 170.11 63.43 168.74 63.37 166.98 C 62.00 155.95 63.09 144.81 62.69 133.73 C 56.41 145.20 49.25 156.14 41.92 166.94 C 41.09 167.85 40.38 169.26 39.00 169.35 C 37.71 167.55 35.14 165.59 36.30 163.16 C 39.68 154.67 45.03 147.16 49.00 138.95 C 52.71 132.57 56.15 126.05 59.84 119.67 C 58.06 117.93 56.31 116.17 54.57 114.40 C 52.12 112.08 52.62 108.14 50.27 105.73 C 44.35 99.08 45.23 89.51 42.55 81.51 C 40.09 78.81 37.17 76.57 34.69 73.88 C 35.21 72.18 35.75 70.48 36.13 68.74 C 38.12 70.67 40.10 72.65 41.62 74.98 C 43.31 75.61 44.99 76.27 46.65 76.98 C 45.90 77.09 44.39 77.29 43.63 77.39 C 45.77 82.19 46.27 87.50 48.00 92.43 C 50.71 89.77 50.40 86.04 50.68 82.58 C 51.91 88.66 52.23 95.08 49.52 100.82 C 50.49 99.48 51.44 98.12 52.38 96.76 C 52.92 99.67 53.93 102.46 54.55 105.35 C 56.51 108.94 59.10 112.11 62.16 114.83 C 63.74 112.73 64.76 108.36 68.13 110.77 L 68.63 112.46 C 67.76 112.59 66.01 112.87 65.14 113.01 C 66.17 113.16 67.20 113.33 68.23 113.51 C 66.81 116.08 65.23 118.56 64.10 121.28 C 67.29 118.66 68.86 114.78 70.72 111.23 C 68.91 110.71 67.12 110.16 65.34 109.55 C 69.12 102.39 73.24 95.42 76.72 88.11 C 75.12 86.17 73.42 84.26 72.28 81.99 L 72.95 81.64 C 74.99 81.80 76.47 83.48 78.27 84.29 C 76.75 82.35 75.13 80.46 73.21 78.89 C 71.46 78.36 69.18 78.86 67.99 77.16 C 65.29 73.93 62.54 70.75 59.61 67.73 C 61.05 68.07 62.50 68.40 63.96 68.66 C 61.93 65.73 59.50 63.10 57.09 60.49 C 57.76 62.64 58.56 64.76 59.13 66.94 C 54.26 60.99 48.45 55.87 43.86 49.68 C 44.45 49.21 45.64 48.27 46.23 47.81 C 44.80 48.26 43.38 48.76 41.95 49.25 C 40.98 47.74 40.00 46.23 39.03 44.72 C 35.06 48.16 30.19 50.76 27.03 55.00 C 27.95 57.30 30.26 58.08 32.36 58.94 C 29.50 60.98 26.03 60.89 22.70 60.50 C 23.26 61.62 23.79 62.76 24.46 63.82 C 27.74 64.64 31.17 63.93 34.48 64.66 C 34.41 64.08 34.28 62.94 34.22 62.36 C 35.59 63.79 37.06 65.12 38.51 66.47 C 34.58 66.54 30.65 66.57 26.73 66.92 C 29.00 69.29 33.26 69.35 34.66 72.47 C 30.70 72.39 26.63 70.44 24.16 67.28 C 22.32 70.03 19.74 73.13 16.03 72.60 C 11.70 71.90 7.63 68.78 6.25 64.52 C 4.35 59.75 6.57 54.78 8.28 50.32 C 9.91 50.47 11.53 50.60 13.15 50.71 C 12.17 51.83 11.02 52.82 10.25 54.11 C 10.85 56.40 11.92 58.53 12.71 60.76 C 14.03 60.47 15.35 60.17 16.66 59.87 C 18.87 49.92 23.26 40.58 25.42 30.63 C 17.60 26.85 12.78 19.10 6.06 13.83 C 6.20 13.08 6.48 11.56 6.62 10.80 M 33.64 28.90 C 35.94 31.84 39.75 31.16 43.02 31.30 C 41.32 29.81 39.36 28.66 37.32 27.71 C 35.94 27.23 33.90 26.98 33.64 28.90 M 67.84 31.50 C 71.66 34.85 70.89 40.27 71.40 44.83 C 72.15 44.93 73.65 45.15 74.41 45.26 C 74.65 40.49 73.95 35.80 73.49 31.07 C 71.61 31.21 69.72 31.36 67.84 31.50 M 63.83 31.54 C 65.87 35.51 68.44 40.45 66.86 44.84 C 66.59 44.80 66.04 44.70 65.77 44.66 C 64.81 40.92 64.19 37.04 62.52 33.52 C 61.79 33.36 60.33 33.04 59.60 32.87 C 61.76 36.95 63.55 41.20 64.84 45.64 C 66.21 45.62 67.60 45.59 68.95 45.34 C 68.88 41.95 68.67 38.54 68.07 35.20 C 67.29 33.37 66.25 31.05 63.83 31.54 M 38.04 33.22 C 40.19 35.70 43.46 36.05 46.51 36.52 C 44.76 33.51 41.05 33.73 38.04 33.22 M 75.17 32.47 C 77.91 36.87 76.46 42.08 76.16 46.88 C 79.51 43.65 79.82 38.73 79.79 34.36 C 78.26 33.70 76.72 33.07 75.17 32.47 M 26.71 34.90 C 27.78 38.31 30.69 40.46 32.48 43.40 C 29.94 43.76 28.11 41.81 25.94 40.88 C 27.53 42.85 29.84 43.99 31.77 45.58 C 32.62 44.40 33.50 43.24 34.37 42.06 C 33.25 40.43 31.84 38.74 32.47 36.64 C 30.32 37.12 28.54 35.79 26.71 34.90 M 56.37 34.81 C 58.66 38.92 61.26 42.85 63.05 47.24 C 62.00 43.14 60.37 39.19 58.54 35.39 C 58.00 35.24 56.91 34.96 56.37 34.81 M 81.82 36.83 C 82.06 40.53 81.10 44.13 79.14 47.26 C 80.05 49.37 80.68 51.58 81.11 53.83 C 84.32 53.31 87.58 52.80 90.83 53.27 C 90.68 52.19 90.54 51.11 90.41 50.04 C 87.50 51.01 84.56 52.12 81.45 52.00 C 83.79 49.72 87.03 49.00 89.98 47.85 C 89.64 45.89 89.13 43.95 88.25 42.16 C 85.98 45.02 83.93 48.75 80.05 49.57 C 81.49 46.36 84.17 43.98 86.12 41.11 C 84.62 39.75 83.20 38.31 81.82 36.83 M 45.73 40.53 C 47.71 43.06 50.02 45.30 52.26 47.60 C 52.68 47.40 53.52 47.01 53.94 46.81 C 51.21 44.72 49.18 41.38 45.73 40.53 M 102.47 41.85 C 102.03 43.28 102.49 43.79 103.84 43.38 C 104.29 41.94 103.83 41.43 102.47 41.85 M 24.31 44.57 C 24.19 47.26 26.06 48.64 28.54 48.97 C 28.90 48.46 29.63 47.44 29.99 46.93 C 28.09 46.15 26.18 45.42 24.31 44.57 M 41.20 45.28 C 41.83 45.90 41.83 45.90 41.20 45.28 M 64.75 47.83 C 65.64 48.65 66.55 49.45 67.42 50.29 C 65.24 50.54 63.05 50.67 60.88 50.96 C 61.17 54.56 65.73 53.08 68.21 54.08 C 66.95 54.62 65.68 55.15 64.41 55.67 C 64.76 56.12 65.45 57.03 65.80 57.48 C 63.41 57.99 64.36 60.30 64.37 62.02 C 65.22 60.80 66.04 59.56 66.92 58.34 C 67.60 59.93 68.02 61.65 68.93 63.13 C 70.72 65.03 73.39 65.57 75.76 66.37 C 81.23 62.70 79.92 54.86 76.83 50.11 C 73.80 46.51 68.90 47.09 64.75 47.83 M 22.32 52.65 C 23.88 54.76 25.93 53.15 27.11 51.63 C 25.61 50.72 24.11 49.83 22.60 48.94 C 21.95 50.10 20.47 51.78 22.32 52.65 M 47.99 52.24 C 47.75 53.82 48.43 54.45 50.04 54.15 C 50.33 52.56 49.65 51.92 47.99 52.24 M 20.33 54.31 C 19.50 55.53 20.77 57.34 22.13 57.40 C 24.20 56.72 22.00 52.96 20.33 54.31 M 50.64 54.77 C 51.74 57.41 53.94 59.39 56.57 60.42 C 54.78 58.36 52.80 56.45 50.64 54.77 M 80.47 55.58 C 82.50 59.12 87.37 58.16 90.29 60.70 C 90.63 59.49 90.93 58.28 91.20 57.07 C 88.84 53.62 83.98 56.09 80.47 55.58 M 8.49 65.52 C 11.77 63.31 9.78 59.61 9.16 56.54 C 7.75 59.34 8.25 62.53 8.49 65.52 M 18.53 57.93 C 18.39 60.34 18.59 62.67 21.07 63.80 C 21.19 62.32 21.31 60.83 21.44 59.35 C 20.47 58.87 19.50 58.40 18.53 57.93 M 81.41 59.62 C 81.32 63.36 85.10 65.29 87.04 68.05 C 87.60 66.23 88.26 64.44 88.85 62.63 C 86.46 61.41 84.01 60.31 81.41 59.62 M 15.76 61.45 C 14.26 64.80 17.48 67.21 19.34 69.51 C 20.44 68.46 21.53 67.41 22.60 66.34 C 19.45 66.11 17.59 63.68 15.76 61.45 M 11.52 63.23 C 11.42 64.77 11.31 66.30 11.23 67.84 C 13.01 68.63 14.80 69.38 16.61 70.09 C 15.36 67.94 14.24 65.72 13.43 63.36 C 12.95 63.33 12.00 63.26 11.52 63.23 M 77.73 68.05 C 78.34 70.65 78.61 73.31 78.57 75.98 C 79.67 75.67 80.78 75.36 81.89 75.07 C 81.50 71.99 80.61 69.02 79.59 66.11 C 82.84 67.04 82.92 70.88 84.76 73.20 C 85.86 69.61 82.80 67.03 81.23 64.20 C 80.08 65.50 78.92 66.79 77.73 68.05 M 70.96 68.13 C 69.37 71.04 74.34 68.28 70.96 68.13 M 76.37 76.01 C 76.26 73.44 76.49 70.81 75.76 68.31 C 71.53 69.20 74.83 73.94 76.37 76.01 M 82.52 83.73 C 83.13 84.36 83.73 85.00 84.32 85.65 C 85.35 82.08 87.97 79.16 88.42 75.39 C 84.85 76.53 84.06 80.74 82.52 83.73 M 78.86 79.61 C 79.52 79.68 80.85 79.83 81.51 79.90 C 81.51 79.16 81.51 77.69 81.51 76.95 C 80.43 77.65 79.16 78.23 78.86 79.61 M 94.00 80.62 C 91.96 83.87 90.39 87.39 88.32 90.62 C 95.74 99.67 102.48 109.27 109.97 118.25 C 109.57 118.56 108.76 119.19 108.36 119.50 C 108.95 119.43 110.12 119.29 110.71 119.22 C 113.01 122.58 115.27 125.99 117.87 129.13 C 120.99 132.08 125.48 131.47 129.42 131.75 C 128.50 132.90 127.28 133.72 125.98 134.38 C 127.03 137.65 126.62 141.43 128.71 144.30 C 129.57 145.68 130.54 146.98 131.63 148.19 C 131.79 145.89 130.91 143.35 132.32 141.29 C 134.52 137.53 136.02 133.32 138.87 129.97 C 141.83 126.47 144.47 122.72 146.94 118.86 C 147.72 117.19 149.64 117.48 151.16 117.13 C 152.81 113.17 150.53 109.41 150.09 105.47 C 148.69 98.54 143.71 91.80 136.91 89.58 C 140.14 93.58 145.24 96.09 147.25 101.05 C 147.42 103.78 147.47 106.53 147.40 109.27 C 145.07 107.30 145.89 104.19 145.35 101.56 C 142.93 97.22 138.96 94.03 135.53 90.51 C 136.13 89.98 136.72 89.44 137.30 88.89 C 133.11 89.08 129.76 86.21 125.81 85.32 C 123.88 85.17 121.95 85.46 120.02 85.48 C 121.35 84.42 122.76 83.47 124.16 82.51 C 122.11 82.76 120.05 82.65 118.06 82.09 C 113.37 80.83 108.70 83.07 103.97 82.62 C 100.53 82.74 97.23 81.67 94.00 80.62 M 106.31 123.73 C 104.93 126.69 103.35 129.55 102.04 132.54 C 104.77 131.25 107.60 130.08 110.66 130.96 C 109.13 128.60 107.76 126.14 106.31 123.73 M 64.98 131.25 C 67.09 129.39 68.57 126.95 69.73 124.41 C 66.78 125.37 65.84 128.60 64.98 131.25 M 65.92 141.67 C 68.72 137.77 72.31 133.63 72.14 128.54 C 68.39 131.82 67.19 137.05 65.92 141.67 M 122.22 134.34 C 120.98 135.35 122.83 137.36 124.06 136.62 C 125.16 135.57 123.50 133.51 122.22 134.34 M 69.97 138.24 C 68.50 141.23 73.40 138.20 69.97 138.24 M 68.23 142.22 C 66.78 143.01 66.09 145.15 66.42 146.71 C 67.97 146.87 69.81 143.04 68.23 142.22 M 44.48 151.12 C 43.81 151.55 41.87 153.48 43.49 153.83 C 45.02 153.98 47.05 150.02 44.48 151.12 M 126.71 151.84 C 127.67 153.02 128.58 154.59 130.34 154.56 C 130.29 153.75 130.18 152.15 130.12 151.35 C 129.27 151.47 127.56 151.71 126.71 151.84 M 110.64 151.97 C 110.94 155.41 110.97 158.88 111.51 162.30 C 112.47 159.44 113.14 156.49 113.84 153.56 C 112.77 153.04 111.70 152.51 110.64 151.97 Z" />
<path fill="#ffffff" opacity="1.00" d=" M 107.17 19.29 C 108.49 19.12 109.23 19.70 109.38 21.03 C 108.69 24.59 107.61 28.07 106.36 31.48 C 105.06 31.83 103.76 32.13 102.44 32.38 C 104.16 28.07 105.14 23.47 107.17 19.29 Z" />
<path fill="#ffffff" opacity="1.00" d=" M 70.24 79.06 C 70.92 79.74 70.92 79.74 70.24 79.06 Z" />
<path fill="#ffffff" opacity="1.00" d=" M 72.29 80.48 C 72.64 80.78 72.64 80.78 72.29 80.48 Z" />
<path fill="#ffffff" opacity="1.00" d=" M 115.15 83.17 C 115.79 83.80 115.79 83.80 115.15 83.17 Z" />
<path fill="#ffffff" opacity="1.00" d=" M 147.62 110.27 C 149.46 110.71 148.02 114.64 146.51 114.73 C 146.15 113.29 146.63 111.38 147.62 110.27 Z" />
<path fill="#ffffff" opacity="1.00" d=" M 122.39 129.10 C 124.03 128.54 124.58 129.08 124.05 130.72 C 122.40 131.28 121.85 130.74 122.39 129.10 Z" />
</g>
</svg>
