<?xml version="1.0" encoding="UTF-8" ?>
<!DOCTYPE svg PUBLIC "-//W3C//DTD SVG 1.1//EN" "http://www.w3.org/Graphics/SVG/1.1/DTD/svg11.dtd">
<svg width="128pt" height="64pt" viewBox="0 0 128 64" version="1.1" xmlns="http://www.w3.org/2000/svg">
<g id="#ffffffff">
<path fill="#ffffff" opacity="1.00" d=" M 14.59 4.66 C 18.86 5.72 20.96 10.20 24.66 12.32 C 29.10 14.92 33.52 17.56 38.02 20.06 C 38.27 18.61 38.47 17.15 38.67 15.68 C 44.29 14.78 49.77 13.28 55.21 11.62 C 58.92 9.82 60.54 14.73 63.94 15.24 C 62.81 14.39 61.63 13.62 60.46 12.83 C 60.57 12.19 60.78 10.90 60.89 10.25 C 62.92 10.43 64.95 10.61 66.99 10.76 C 74.51 12.04 79.96 19.38 87.97 18.79 C 94.11 19.19 96.92 25.44 102.18 27.70 C 108.25 30.42 117.06 31.00 121.09 24.62 C 123.23 27.05 122.11 30.21 120.99 32.81 C 117.48 37.96 110.54 41.01 104.52 38.61 C 97.78 37.39 92.01 33.46 86.99 28.99 C 85.88 27.81 84.35 27.37 82.80 27.14 C 82.46 28.58 82.08 30.00 81.61 31.41 C 84.34 33.47 87.18 35.41 90.42 36.57 C 93.25 38.00 96.98 38.30 98.76 41.23 C 101.03 44.53 104.39 46.93 106.34 50.47 C 100.48 50.09 98.62 43.67 94.25 40.94 C 89.55 39.88 84.28 40.37 79.95 38.03 C 76.44 34.46 72.72 30.00 67.20 30.25 C 69.77 33.20 71.88 37.02 75.89 38.16 C 75.97 39.64 76.84 41.25 76.12 42.68 C 74.50 46.13 74.37 49.98 74.38 53.72 C 72.60 55.74 69.63 57.68 67.26 55.32 C 68.57 53.91 71.11 53.16 71.07 50.90 C 71.45 47.20 71.47 43.47 71.68 39.76 C 67.01 37.80 63.66 33.06 58.21 33.00 C 56.13 34.92 53.34 36.43 52.42 39.28 C 50.90 44.02 46.47 46.77 43.68 50.68 C 41.47 53.28 40.12 56.46 38.06 59.15 C 35.19 60.88 31.72 61.04 28.49 61.53 C 28.35 56.93 33.72 57.62 36.43 55.38 C 38.41 54.42 37.19 51.88 37.41 50.17 C 40.37 46.80 42.94 43.11 45.41 39.37 C 43.28 41.11 40.75 42.14 38.01 42.40 C 33.53 42.77 30.42 47.07 25.80 46.69 C 24.88 48.56 24.02 50.48 22.75 52.13 C 20.67 52.63 18.51 52.62 16.39 52.75 C 18.26 48.83 22.82 47.64 25.16 44.14 C 27.81 40.60 31.88 38.47 35.93 36.94 C 33.23 33.91 29.64 31.90 26.27 29.70 C 23.89 28.40 22.44 25.85 19.91 24.78 C 17.54 25.04 15.26 25.79 12.96 26.35 C 10.52 25.89 8.14 25.14 5.75 24.46 C 7.24 21.41 10.83 21.08 13.46 19.48 C 15.32 17.40 17.27 14.90 17.25 11.96 C 16.82 9.37 15.38 7.13 14.59 4.66 M 73.32 22.10 C 72.17 23.50 74.54 25.36 75.58 23.84 C 76.64 22.45 74.36 20.51 73.32 22.10 M 64.38 23.37 C 63.54 25.15 67.45 26.29 67.74 24.33 C 67.31 23.09 65.42 22.68 64.38 23.37 M 40.30 26.53 C 40.99 27.18 41.67 27.84 42.32 28.53 C 44.99 27.97 47.68 27.46 50.24 26.51 C 46.93 26.60 43.61 26.85 40.30 26.53 M 76.51 28.45 C 75.80 29.57 77.63 31.16 78.57 30.08 C 79.38 28.90 77.46 27.57 76.51 28.45 M 64.26 31.25 C 64.87 31.81 64.87 31.81 64.26 31.25 M 51.26 33.02 C 51.00 33.34 50.46 33.99 50.19 34.31 C 51.02 37.67 55.08 32.13 51.26 33.02 Z" />
</g>
</svg>
