<?xml version="1.0" encoding="UTF-8" ?>
<!DOCTYPE svg PUBLIC "-//W3C//DTD SVG 1.1//EN" "http://www.w3.org/Graphics/SVG/1.1/DTD/svg11.dtd">
<svg width="180pt" height="180pt" viewBox="0 0 180 180" version="1.1" xmlns="http://www.w3.org/2000/svg">
<g id="#ffffffff">
<path fill="#ffffff" opacity="1.00" d=" M 64.27 12.21 C 65.16 12.51 66.02 12.86 66.86 13.25 C 68.90 16.47 69.89 20.18 71.05 23.77 C 73.00 29.04 74.92 34.41 75.57 40.02 C 74.69 42.96 72.51 45.43 71.58 48.42 C 66.61 49.84 64.23 54.94 60.58 58.18 C 61.73 58.27 62.89 58.33 64.05 58.34 C 65.59 60.41 66.59 62.79 67.03 65.33 C 65.04 67.18 63.95 69.72 62.49 71.95 C 64.34 73.27 66.02 74.87 68.13 75.79 C 72.67 77.91 76.16 81.70 80.65 83.93 C 80.73 81.55 80.71 79.18 80.71 76.80 C 78.19 76.50 75.66 76.64 73.15 76.97 C 70.14 74.20 67.75 70.86 65.53 67.44 C 66.65 67.32 67.78 67.26 68.91 67.26 C 71.27 68.93 72.31 72.19 75.05 73.31 C 78.62 73.12 82.19 73.24 85.76 73.41 C 92.07 71.88 98.57 72.75 104.99 72.18 C 109.64 71.72 114.32 71.50 118.99 71.83 C 122.76 72.03 125.95 69.83 128.96 67.88 C 135.54 64.39 142.12 60.88 148.87 57.75 C 152.98 55.17 157.39 53.12 161.96 51.52 C 162.25 52.24 162.55 52.96 162.84 53.69 C 159.82 56.27 156.00 57.55 152.73 59.74 C 151.11 61.82 149.69 64.05 148.75 66.53 C 145.44 67.54 142.42 69.32 139.94 71.73 C 142.60 70.72 145.10 69.29 147.84 68.47 C 151.63 66.93 155.28 64.63 159.44 64.34 C 159.91 64.74 160.84 65.54 161.31 65.94 C 156.00 68.83 150.23 70.75 144.96 73.71 C 146.58 77.98 151.51 78.61 154.43 81.60 C 157.55 83.97 160.62 88.71 157.04 92.11 C 156.19 91.70 155.35 91.28 154.52 90.85 C 154.94 92.20 155.29 93.58 155.61 94.96 C 156.97 94.16 158.34 93.38 159.79 92.74 C 158.59 101.14 150.81 105.88 146.61 112.65 C 144.79 117.15 145.50 122.01 146.17 126.65 C 145.22 126.68 143.31 126.73 142.36 126.75 C 144.30 129.49 147.08 131.34 149.76 133.26 C 155.04 137.99 160.59 142.41 166.07 146.90 C 167.33 147.96 168.23 149.34 169.16 150.67 C 168.61 150.99 167.50 151.62 166.95 151.94 C 163.90 150.32 161.56 147.68 158.56 145.98 C 164.11 151.91 170.04 157.48 176.03 162.98 C 177.03 163.68 177.64 166.27 176.05 166.60 C 173.12 165.61 171.29 162.92 168.90 161.12 C 166.75 159.17 163.74 157.90 162.72 155.00 C 159.88 154.77 160.58 151.98 160.35 149.90 C 160.28 150.81 160.13 152.65 160.06 153.57 C 156.53 149.18 151.38 146.53 147.47 142.54 C 145.68 140.65 143.73 138.91 141.45 137.64 C 140.98 143.18 142.40 148.84 139.92 154.11 C 136.26 153.32 137.06 149.41 136.35 146.59 C 136.41 142.49 137.03 138.37 136.81 134.25 C 135.79 132.13 135.18 129.91 135.28 127.54 C 134.73 128.66 134.27 129.83 133.79 130.99 C 131.53 130.43 129.62 129.13 128.40 127.14 C 127.27 133.07 125.75 138.93 125.10 144.94 C 124.84 146.83 124.09 148.61 123.39 150.37 C 122.93 150.42 122.02 150.52 121.57 150.57 C 121.04 141.53 125.00 132.77 123.61 123.70 C 122.17 121.23 119.40 119.91 117.45 117.88 C 119.46 118.31 121.46 118.81 123.49 119.18 C 121.73 117.72 119.76 116.56 117.88 115.28 C 116.96 115.77 116.05 116.26 115.14 116.76 C 113.38 115.55 111.42 114.42 109.26 114.20 C 105.73 116.97 102.07 119.72 99.17 123.17 C 97.49 126.64 95.21 130.15 95.38 134.17 C 95.41 142.88 94.52 151.74 96.48 160.31 C 96.61 161.35 96.73 162.40 96.83 163.45 C 96.13 163.53 94.74 163.70 94.04 163.78 C 91.45 158.25 90.77 152.10 90.56 146.07 C 90.96 143.42 87.13 142.15 88.24 139.37 C 90.09 132.57 91.28 125.55 90.27 118.49 C 88.56 118.56 86.85 118.56 85.14 118.45 C 84.25 119.97 83.73 121.64 83.18 123.30 C 80.42 126.35 77.72 129.49 75.71 133.10 C 75.66 137.62 70.73 139.36 69.11 143.15 C 68.97 149.46 69.57 155.75 69.55 162.06 C 69.62 164.48 68.35 166.63 66.75 168.34 C 63.99 163.36 65.06 157.52 64.35 152.09 C 63.73 147.74 65.17 143.39 64.15 139.08 C 66.81 132.72 70.59 126.89 74.00 120.92 C 73.59 119.57 73.17 118.21 72.76 116.86 C 55.48 127.36 39.49 139.94 21.84 149.86 C 20.46 148.62 18.86 147.68 17.07 147.14 C 17.55 146.00 17.82 144.67 18.84 143.88 C 26.12 138.52 32.79 132.35 40.31 127.32 C 49.72 120.54 59.28 114.01 68.78 107.37 C 66.72 107.24 64.63 106.31 63.57 104.46 C 58.93 96.51 54.60 88.23 52.90 79.08 C 54.27 78.50 55.65 77.93 57.01 77.32 C 54.51 77.54 51.97 77.46 49.50 77.89 C 47.05 78.82 44.78 80.22 42.23 80.91 C 40.44 80.38 39.99 78.21 39.11 76.78 C 38.34 73.21 42.53 72.08 43.53 69.18 C 39.52 66.48 35.58 63.68 31.40 61.25 C 26.25 58.66 20.11 56.45 16.87 51.43 C 20.40 53.22 23.67 55.46 27.06 57.48 C 27.23 56.89 27.56 55.73 27.73 55.14 C 23.73 53.30 20.13 50.73 16.25 48.68 C 15.41 46.52 18.10 46.71 19.43 46.15 C 22.37 49.37 26.83 50.21 30.24 52.78 C 35.07 55.46 39.49 58.95 44.71 60.88 C 45.41 57.02 48.67 54.89 52.05 53.54 C 51.61 49.56 48.27 46.68 44.52 45.79 C 36.92 41.03 26.96 44.26 19.38 39.58 C 18.84 37.30 18.89 34.56 20.11 32.53 C 23.23 31.35 23.07 35.70 23.40 37.70 C 24.01 37.85 25.24 38.16 25.86 38.31 C 24.85 35.16 23.36 32.18 22.37 29.03 C 22.73 28.29 23.45 26.80 23.81 26.06 C 26.94 29.36 27.81 33.92 29.49 37.99 C 29.85 38.87 30.83 39.39 31.63 38.67 C 27.80 37.99 28.93 33.15 28.46 30.32 C 27.70 26.10 27.24 21.81 28.83 17.70 C 29.43 18.09 30.63 18.87 31.23 19.27 C 31.55 26.03 32.63 32.73 33.51 39.44 C 34.98 39.58 36.46 39.71 37.94 39.85 C 37.74 32.06 37.38 24.06 39.50 16.48 C 40.11 14.12 42.93 14.97 42.93 17.18 C 42.26 24.42 41.17 31.67 41.83 38.96 C 41.80 40.88 43.73 41.54 45.14 42.27 C 46.08 36.59 45.70 30.57 48.13 25.22 C 49.02 25.62 49.92 26.02 50.82 26.41 C 50.18 32.19 49.95 38.03 48.58 43.70 C 49.09 44.02 50.09 44.65 50.59 44.97 C 50.94 42.48 51.59 40.05 52.37 37.67 C 52.11 32.88 53.74 28.17 55.91 23.96 C 59.33 26.69 55.95 30.85 55.44 34.18 C 59.12 34.89 62.90 35.53 66.25 37.32 C 63.47 34.45 60.24 31.72 59.03 27.76 C 59.97 27.86 61.16 27.29 61.94 28.03 C 65.02 30.61 67.86 33.48 70.95 36.06 C 68.88 29.76 67.46 23.24 64.83 17.12 C 64.07 15.59 64.27 13.86 64.27 12.21 M 56.09 37.69 C 55.12 40.75 54.60 43.92 53.48 46.93 C 56.02 49.96 56.78 53.90 57.82 57.60 C 55.57 57.30 53.26 56.97 51.07 57.81 C 52.03 60.29 50.91 62.59 49.82 64.80 C 51.38 65.29 54.31 68.06 55.28 65.86 C 54.46 64.98 53.40 64.48 52.11 64.37 C 52.54 63.35 52.98 62.32 53.42 61.30 C 54.61 61.28 55.81 61.28 57.01 61.28 C 56.76 62.49 56.22 63.65 56.14 64.89 C 58.23 65.30 59.46 62.52 59.84 60.84 C 60.70 58.42 57.13 57.03 58.29 54.64 C 62.71 50.80 66.95 46.65 70.42 41.92 C 65.69 40.34 60.86 39.13 56.09 37.69 M 28.14 58.26 C 28.81 58.92 28.81 58.92 28.14 58.26 M 57.26 69.11 C 58.26 69.76 59.24 70.44 60.23 71.12 C 61.33 68.67 62.92 66.38 63.27 63.66 C 61.37 65.58 59.94 68.16 57.26 69.11 M 43.25 73.48 C 44.20 74.11 45.13 74.76 46.02 75.46 C 48.06 74.24 50.42 74.18 52.73 74.04 C 50.90 72.65 48.79 71.69 46.81 70.52 C 45.66 71.55 44.49 72.56 43.25 73.48 M 110.50 76.11 C 109.39 76.32 108.23 79.25 110.19 78.50 C 112.31 78.22 113.54 74.41 110.50 76.11 M 98.14 77.02 C 98.31 80.52 101.10 75.57 98.14 77.02 M 101.72 76.89 C 101.31 78.27 101.82 78.76 103.23 78.33 C 103.67 76.89 103.16 76.41 101.72 76.89 M 137.65 76.80 C 137.98 77.63 138.32 78.45 138.67 79.28 C 137.27 79.30 135.87 79.31 134.49 79.56 C 126.41 82.91 119.23 88.01 111.48 92.03 C 115.60 94.15 120.35 93.60 124.72 94.79 C 127.10 92.15 129.13 88.56 133.01 88.06 C 132.72 90.96 130.83 93.24 129.75 95.83 C 129.40 98.15 130.49 100.26 131.45 102.28 C 131.05 100.52 130.48 98.79 130.26 97.00 C 130.16 94.30 132.55 92.53 133.84 90.42 C 135.03 92.36 136.13 94.37 136.84 96.55 C 138.54 96.40 140.26 96.43 141.96 96.66 C 142.80 94.84 143.99 93.13 144.48 91.18 C 143.26 87.39 141.80 83.67 140.47 79.92 C 140.87 78.61 141.37 77.34 142.00 76.11 C 140.91 76.28 138.74 76.63 137.65 76.80 M 91.36 78.30 C 92.04 78.97 92.04 78.97 91.36 78.30 M 97.12 79.16 C 94.88 80.70 91.41 81.12 90.71 84.19 C 91.02 86.47 91.37 88.76 91.24 91.08 C 92.87 89.84 94.59 88.74 96.39 87.78 C 96.28 86.30 94.87 84.40 96.42 83.28 C 97.94 83.50 99.23 84.60 100.77 84.64 C 103.40 83.48 106.38 81.65 106.72 78.52 C 105.26 79.11 103.85 79.84 102.41 80.48 C 100.50 80.95 98.80 79.86 97.12 79.16 M 57.16 79.91 C 56.58 81.32 57.00 81.80 58.41 81.35 C 58.97 79.91 58.56 79.43 57.16 79.91 M 63.81 91.41 C 64.89 90.18 65.43 88.63 65.98 87.13 C 66.38 87.25 67.16 87.49 67.55 87.61 C 66.96 86.26 67.07 84.77 68.54 84.03 C 71.07 87.61 66.36 91.51 67.66 95.24 C 69.65 97.48 71.92 99.46 74.06 101.57 C 74.37 98.41 73.00 95.82 70.05 94.62 C 70.24 91.98 70.77 89.38 71.27 86.79 C 70.71 85.21 69.87 83.75 69.15 82.24 C 65.83 84.14 64.71 87.93 63.81 91.41 M 103.90 90.69 C 107.93 89.87 111.97 89.05 115.45 86.70 C 114.73 85.95 114.04 85.20 113.40 84.39 C 110.45 86.80 107.26 88.91 103.90 90.69 M 76.42 92.36 C 76.39 94.40 77.07 96.36 77.60 98.31 C 78.13 98.44 79.20 98.71 79.73 98.84 C 79.22 96.76 78.66 94.69 78.09 92.62 C 78.85 91.49 79.65 90.38 80.48 89.31 C 79.14 90.35 77.72 91.27 76.42 92.36 M 64.42 97.34 C 65.16 101.18 68.06 104.21 71.66 105.54 C 69.58 102.53 67.71 99.21 64.42 97.34 M 87.64 106.70 C 87.64 109.12 87.73 111.89 84.84 112.65 C 84.27 111.55 83.68 110.45 83.09 109.36 C 83.85 111.49 84.66 113.82 82.33 115.36 C 81.40 114.08 80.49 112.79 79.61 111.48 C 79.12 112.94 78.65 114.41 78.16 115.88 C 77.08 115.42 76.01 114.95 74.93 114.49 C 76.04 115.13 77.14 115.77 78.23 116.45 C 78.42 115.84 78.80 114.61 78.99 114.00 C 79.91 114.77 80.84 115.53 81.77 116.30 C 83.30 113.98 85.93 113.09 88.35 112.04 C 88.85 113.11 89.34 114.18 89.84 115.26 C 91.11 114.36 92.41 113.48 93.73 112.64 C 94.37 109.05 95.13 105.47 95.64 101.86 C 92.95 103.43 90.32 105.11 87.64 106.70 M 124.18 110.66 C 125.68 110.61 127.11 110.94 128.31 111.87 C 128.44 108.38 128.28 104.90 128.02 101.42 C 126.82 104.53 125.67 107.67 124.18 110.66 M 131.07 104.22 C 129.54 107.14 134.53 104.28 131.07 104.22 M 98.58 104.96 C 98.58 106.01 98.60 107.06 98.64 108.11 C 99.33 108.28 100.71 108.61 101.40 108.78 C 100.67 107.37 100.29 105.49 98.58 104.96 M 101.86 112.30 C 100.40 115.29 105.24 112.32 101.86 112.30 M 31.69 142.13 C 33.84 140.34 35.86 138.39 37.68 136.27 C 34.93 137.21 33.25 139.84 31.69 142.13 Z" />
<path fill="#ffffff" opacity="1.00" d=" M 86.77 23.38 C 89.05 22.67 90.43 24.77 91.84 26.16 C 94.23 28.53 95.99 31.42 97.86 34.19 C 99.93 30.67 100.52 25.51 104.70 23.81 C 107.01 27.18 108.40 31.03 109.79 34.84 C 112.01 30.92 114.25 27.03 115.92 22.84 C 116.58 23.32 117.92 24.27 118.58 24.75 C 119.33 30.59 119.53 36.50 120.47 42.33 C 120.59 44.01 121.05 45.78 120.45 47.42 C 111.63 50.32 102.10 49.28 92.94 50.10 C 91.08 50.29 89.25 49.93 87.44 49.56 C 87.44 40.84 84.72 32.06 86.77 23.38 M 90.18 30.56 C 90.52 35.85 90.92 41.15 90.61 46.46 C 98.80 43.56 107.63 45.40 116.01 43.71 C 114.96 40.14 115.18 36.47 115.76 32.86 C 113.90 35.79 111.36 38.10 108.03 39.25 C 105.79 36.86 104.93 33.69 104.07 30.63 C 102.30 33.84 100.43 37.01 97.97 39.75 C 93.75 38.51 92.91 33.51 90.18 30.56 Z" />
</g>
</svg>
