<?xml version="1.0" encoding="UTF-8" ?>
<!DOCTYPE svg PUBLIC "-//W3C//DTD SVG 1.1//EN" "http://www.w3.org/Graphics/SVG/1.1/DTD/svg11.dtd">
<svg width="180pt" height="180pt" viewBox="0 0 180 180" version="1.1" xmlns="http://www.w3.org/2000/svg">
<g id="#ffffffff">
<path fill="#ffffff" opacity="1.00" d=" M 160.20 2.23 C 161.26 0.90 163.52 0.98 163.64 2.99 C 162.12 5.61 159.50 7.26 157.49 9.45 C 152.87 14.65 147.14 18.72 142.62 24.02 C 142.24 23.46 141.48 22.35 141.10 21.79 C 141.21 22.61 141.44 24.27 141.56 25.09 C 136.06 30.05 130.64 35.10 125.62 40.57 C 124.33 40.37 123.03 40.15 121.73 39.99 C 122.62 40.66 123.51 41.32 124.41 41.97 C 120.47 45.14 117.46 49.24 114.05 52.93 C 114.67 53.77 115.29 54.61 115.91 55.45 C 125.00 53.27 135.27 53.74 143.53 58.44 C 146.36 59.90 149.63 60.75 151.89 63.11 C 153.50 64.56 154.40 66.58 155.78 68.22 C 159.56 69.63 163.62 70.09 167.40 71.51 C 168.97 72.69 169.38 74.89 170.56 76.45 C 173.86 81.34 172.54 87.67 175.35 92.81 C 170.35 96.69 170.33 104.01 166.68 108.99 C 168.93 112.75 167.98 117.26 170.11 121.11 C 170.86 127.29 169.79 133.74 171.17 139.92 C 171.70 143.59 173.67 146.82 174.45 150.42 C 174.55 153.37 174.96 156.39 174.23 159.31 C 171.71 158.81 167.52 160.37 166.84 156.84 C 166.89 149.48 165.04 142.31 165.00 134.95 C 164.97 129.75 161.57 125.33 157.50 122.42 C 157.26 126.16 156.59 129.87 155.14 133.34 C 152.83 139.71 156.63 146.33 154.87 152.77 C 153.84 154.74 152.57 156.58 151.39 158.46 C 149.53 157.01 147.49 155.83 145.38 154.79 C 146.28 152.47 147.48 150.27 148.27 147.91 C 148.42 144.58 148.59 141.24 149.14 137.94 C 149.66 134.30 148.22 130.79 148.28 127.17 C 147.55 127.66 146.83 128.15 146.10 128.64 C 144.32 127.22 142.71 125.60 141.47 123.68 C 142.93 123.55 144.40 123.44 145.87 123.35 C 145.69 124.16 145.34 125.79 145.16 126.60 C 145.82 126.33 147.13 125.80 147.79 125.54 C 147.74 125.00 147.65 123.93 147.60 123.39 C 145.90 122.79 144.13 122.44 142.33 122.49 C 141.27 119.94 139.37 117.90 138.05 115.50 C 133.84 118.59 129.28 121.47 124.06 122.40 C 121.90 122.64 119.77 123.01 117.64 123.43 C 119.62 127.52 121.87 131.47 123.91 135.54 C 123.18 135.51 121.72 135.45 120.99 135.42 C 118.02 131.53 116.48 126.45 112.26 123.61 C 115.14 127.32 117.18 131.56 119.95 135.34 C 121.21 137.12 121.81 139.51 123.88 140.58 C 123.09 138.97 122.16 137.42 121.31 135.84 C 123.34 135.33 124.87 136.60 125.67 138.36 C 128.44 143.72 131.82 148.88 133.70 154.64 C 132.73 156.37 131.65 158.04 130.68 159.78 C 127.05 157.46 125.43 153.29 122.99 149.93 C 116.97 141.38 111.59 132.41 106.60 123.23 C 102.58 122.59 98.50 123.82 94.52 122.84 C 92.19 122.44 89.81 122.47 87.48 122.12 C 87.48 124.21 86.36 125.25 84.12 125.26 C 84.19 124.10 84.34 121.79 84.42 120.63 C 83.33 122.80 83.76 125.17 83.99 127.47 C 84.73 126.28 85.84 125.51 87.20 125.17 C 86.81 126.71 86.44 128.27 85.83 129.75 C 86.35 129.45 86.87 129.15 87.40 128.86 C 88.19 132.04 91.60 132.58 93.97 134.18 C 91.63 135.75 89.03 136.87 86.56 138.22 C 89.04 142.08 84.34 144.85 82.65 147.81 C 81.23 151.36 84.99 154.39 85.27 157.91 C 83.59 156.88 81.94 155.78 80.27 154.73 C 80.36 156.42 80.46 158.12 80.57 159.82 C 77.98 160.78 75.66 162.04 74.56 164.71 C 72.02 165.81 69.44 166.81 66.96 168.03 C 66.34 166.90 65.03 165.64 65.75 164.26 C 66.98 163.29 68.30 162.45 69.55 161.52 C 70.23 157.28 70.28 152.92 71.71 148.83 C 69.84 146.87 68.68 144.39 67.53 141.98 C 67.65 139.01 68.43 136.09 68.41 133.12 C 67.25 130.48 65.72 128.03 64.30 125.53 C 62.88 126.35 61.45 127.13 59.99 127.86 C 58.45 127.20 56.92 126.54 55.38 125.89 C 53.54 129.45 50.49 132.12 48.37 135.49 C 46.83 137.81 44.12 138.95 42.19 140.90 C 43.51 140.60 44.81 140.27 46.11 139.92 C 42.70 143.66 40.43 148.45 36.21 151.42 C 37.54 147.87 40.00 144.95 42.48 142.16 C 41.86 141.92 40.61 141.45 39.99 141.21 C 37.13 144.89 35.43 150.18 30.94 152.11 C 30.80 151.31 30.50 149.72 30.36 148.92 C 33.13 146.04 35.02 142.50 37.24 139.22 C 42.15 132.83 46.50 126.05 51.29 119.57 C 50.03 119.90 48.61 120.78 47.50 119.61 C 44.51 117.29 41.32 115.21 38.59 112.59 C 38.70 112.21 38.94 111.46 39.05 111.08 C 39.66 110.88 40.89 110.48 41.50 110.28 C 44.43 107.46 46.47 103.93 47.77 100.10 C 46.62 100.50 45.47 100.92 44.32 101.33 C 43.97 107.29 37.98 109.65 35.05 114.13 C 38.04 118.62 40.02 123.79 39.88 129.25 C 37.07 128.61 36.83 125.69 35.98 123.44 C 35.59 125.91 34.98 128.57 32.74 130.04 C 32.77 131.65 32.76 133.26 32.71 134.87 C 31.65 134.56 30.60 134.26 29.54 133.94 C 29.55 130.95 29.31 127.96 28.96 124.99 C 27.88 126.95 27.02 129.01 26.04 131.02 C 22.80 130.38 19.47 129.72 16.63 127.92 C 16.61 126.00 17.19 124.27 19.38 125.56 C 20.95 123.69 20.25 121.61 18.54 120.10 C 19.40 119.07 20.26 118.05 21.12 117.02 C 23.24 117.64 25.42 118.11 27.63 117.75 C 27.49 116.45 27.36 115.15 27.20 113.86 C 26.11 114.82 25.03 115.80 23.94 116.77 C 21.37 116.46 18.76 116.64 16.21 116.14 C 14.02 114.60 12.04 112.69 10.51 110.48 C 10.17 108.25 11.28 106.15 11.86 104.06 C 10.40 101.96 7.66 100.53 7.28 97.84 C 7.52 95.89 8.00 93.98 8.34 92.05 C 6.74 90.57 5.10 89.12 3.46 87.68 C 3.65 81.62 4.29 75.57 4.14 69.50 C 7.46 67.56 9.03 63.93 11.58 61.23 C 9.92 56.61 9.40 51.02 11.98 46.63 C 13.09 49.75 14.98 52.44 17.25 54.83 C 21.46 52.45 26.46 52.04 30.62 49.55 C 33.10 48.08 35.97 47.16 37.99 45.00 C 40.59 42.42 44.15 41.25 47.03 39.07 C 50.25 36.57 54.37 35.87 58.15 34.60 C 55.80 25.71 50.78 17.78 48.37 8.90 C 47.79 7.53 49.12 6.67 49.84 5.73 C 52.05 9.20 53.22 13.21 55.16 16.81 C 57.20 18.55 59.42 20.06 61.61 21.61 C 62.97 24.78 63.82 28.18 65.77 31.07 C 64.39 23.76 60.95 16.95 60.20 9.52 C 60.79 9.53 61.97 9.56 62.56 9.57 C 64.56 14.08 65.41 19.03 67.66 23.45 C 69.89 27.72 70.59 32.69 73.23 36.74 C 76.61 38.76 80.62 39.28 84.42 38.22 C 86.55 37.48 88.31 38.92 89.82 40.21 C 94.97 41.30 99.92 43.14 104.76 45.21 C 106.19 45.73 106.96 47.11 107.93 48.19 C 120.11 34.28 132.96 20.99 146.21 8.09 C 146.76 8.60 147.87 9.62 148.43 10.13 C 146.55 13.39 143.22 15.54 141.59 18.98 C 147.50 13.05 154.14 7.98 160.20 2.23 M 140.23 19.29 C 140.87 19.93 140.87 19.93 140.23 19.29 M 133.17 29.20 C 131.73 32.19 136.56 29.23 133.17 29.20 M 124.26 38.13 C 124.91 38.80 124.91 38.80 124.26 38.13 M 44.54 44.42 C 38.01 50.20 30.32 54.90 21.54 56.06 C 22.35 57.32 23.18 58.57 24.05 59.79 C 23.71 60.37 23.03 61.54 22.69 62.13 C 21.60 61.41 20.54 60.67 19.47 59.93 C 19.98 63.54 17.76 66.32 15.74 69.01 C 15.47 71.99 15.39 74.98 15.30 77.97 C 13.58 76.68 12.02 75.20 10.48 73.69 C 9.20 76.89 9.43 80.42 9.17 83.80 C 9.60 86.84 12.81 88.33 14.37 90.75 C 14.95 89.83 15.53 88.90 16.11 87.98 C 16.50 88.45 17.27 89.39 17.66 89.85 C 15.24 90.75 13.19 92.59 12.52 95.14 C 13.39 98.32 15.09 101.17 17.00 103.82 C 18.08 102.82 19.17 101.84 20.28 100.87 C 18.22 100.45 14.54 101.03 14.45 98.14 C 15.48 98.31 16.51 98.48 17.54 98.67 C 18.61 97.68 19.71 96.75 20.80 95.79 C 19.54 95.07 17.13 95.28 17.13 93.35 C 18.53 91.79 20.06 90.35 21.49 88.80 C 20.24 88.56 18.98 88.36 17.74 88.07 C 20.13 88.01 21.81 86.55 23.34 84.87 C 23.28 85.58 23.16 86.99 23.10 87.70 C 24.87 85.45 27.22 83.74 27.92 80.79 C 30.67 79.32 36.16 79.71 35.50 75.33 C 34.86 75.99 33.60 77.30 32.97 77.95 C 32.36 76.72 31.76 75.49 31.17 74.24 C 33.03 72.09 35.40 69.92 35.90 67.01 C 34.94 64.75 33.60 62.67 32.29 60.60 C 32.78 60.14 33.78 59.22 34.27 58.76 C 35.50 60.87 37.44 62.73 37.64 65.28 C 37.87 67.81 37.64 70.36 37.78 72.90 C 38.77 71.30 40.47 69.99 40.72 68.03 C 40.52 66.43 38.31 64.34 40.18 63.07 C 41.40 60.97 42.36 64.03 42.80 65.02 C 42.95 67.86 42.68 70.73 41.41 73.33 C 43.79 71.42 45.70 69.06 47.21 66.42 C 46.47 66.72 44.99 67.33 44.25 67.63 C 44.35 66.92 44.56 65.49 44.66 64.78 C 45.51 64.78 47.23 64.79 48.08 64.79 C 49.18 61.48 49.71 58.04 50.50 54.66 C 51.14 54.51 52.42 54.21 53.05 54.06 C 54.25 58.09 53.65 62.35 53.58 66.49 C 53.40 70.84 51.06 74.63 49.60 78.62 C 50.60 78.07 52.60 76.96 53.60 76.40 C 54.01 76.95 54.42 77.50 54.84 78.04 C 55.11 77.77 55.64 77.21 55.91 76.93 C 55.29 76.49 54.05 75.59 53.43 75.15 C 56.07 72.07 56.30 66.53 60.77 65.45 C 60.17 67.14 59.48 68.80 59.07 70.55 C 61.31 69.37 59.96 65.03 63.33 65.58 C 63.25 69.21 62.22 73.00 63.24 76.55 C 64.87 79.39 65.13 83.11 67.67 85.34 C 70.80 85.62 73.98 85.21 77.13 85.49 C 78.24 83.70 79.66 82.14 81.20 80.73 C 75.03 69.97 69.34 58.92 64.24 47.61 C 62.95 44.44 61.48 41.35 59.83 38.34 C 54.88 40.71 49.86 43.00 44.54 44.42 M 120.48 42.14 C 117.78 45.43 114.51 48.19 111.82 51.47 C 115.97 48.79 119.43 45.11 122.67 41.42 C 122.12 41.60 121.03 41.96 120.48 42.14 M 77.72 47.63 C 81.68 55.14 84.96 62.99 88.80 70.56 C 94.78 64.31 99.71 57.14 105.77 50.95 C 102.48 49.19 99.04 47.74 95.58 46.34 C 92.07 45.62 88.53 44.99 85.02 44.28 C 82.36 44.82 80.14 46.51 77.72 47.63 M 76.73 57.71 C 79.77 63.73 82.27 70.14 85.83 75.97 C 86.45 74.12 86.68 72.12 85.74 70.33 C 82.69 66.00 80.88 60.98 78.95 56.10 C 78.60 56.58 78.42 57.10 78.42 57.67 C 76.99 56.63 77.76 54.90 77.83 53.45 C 77.27 54.80 76.39 56.18 76.73 57.71 M 107.48 55.20 C 106.21 56.99 104.87 58.72 103.44 60.38 C 104.01 60.46 105.15 60.62 105.72 60.70 C 106.34 59.51 106.96 58.33 107.58 57.14 C 108.04 57.44 108.95 58.04 109.41 58.34 C 107.44 60.66 105.38 62.94 102.97 64.81 C 102.07 66.99 100.51 68.79 98.88 70.46 C 96.78 67.62 100.63 65.77 101.48 63.25 C 98.94 64.36 97.62 66.91 95.88 68.90 C 94.53 70.89 92.22 72.13 91.47 74.51 C 93.96 73.72 95.05 69.65 97.79 70.26 C 97.67 73.53 94.51 75.64 92.68 78.07 C 94.14 80.75 95.47 83.50 96.76 86.27 C 97.39 85.96 98.67 85.34 99.31 85.03 C 99.38 81.92 101.01 79.20 102.31 76.47 C 103.40 77.36 104.49 78.26 105.59 79.16 C 105.28 80.36 104.98 81.57 104.67 82.78 C 106.17 82.24 107.67 81.68 109.19 81.19 C 109.36 83.83 109.18 86.58 110.31 89.05 C 111.66 92.17 111.80 95.66 113.53 98.63 C 115.34 98.66 117.16 98.67 118.98 98.73 C 117.36 96.52 116.02 94.12 114.36 91.94 C 115.23 90.92 116.13 89.93 117.01 88.92 C 117.95 89.51 118.89 90.10 119.84 90.69 C 120.02 90.42 120.38 89.87 120.56 89.60 C 118.19 87.95 115.56 86.43 114.17 83.78 C 111.42 80.15 108.37 76.59 107.76 71.89 C 106.41 68.12 108.60 64.61 110.13 61.32 C 111.11 61.58 112.10 61.85 113.10 62.05 C 112.51 61.83 111.33 61.40 110.74 61.18 C 111.44 59.72 112.06 58.23 112.68 56.74 C 111.08 55.80 109.33 55.28 107.48 55.20 M 102.48 61.25 C 100.96 61.51 101.04 64.22 102.80 63.18 C 104.21 62.87 104.23 60.16 102.48 61.25 M 146.19 63.38 C 144.46 63.54 144.41 66.43 146.41 65.52 C 148.19 65.50 148.02 62.70 146.19 63.38 M 150.06 65.73 C 150.44 67.03 150.92 68.31 151.40 69.58 C 147.87 69.40 146.15 73.33 143.76 75.35 C 146.54 74.04 149.10 72.26 152.05 71.29 C 152.57 71.66 153.60 72.40 154.12 72.77 C 152.70 70.46 151.51 68.02 150.06 65.73 M 145.50 67.31 C 145.27 68.79 147.80 68.70 148.39 67.74 C 148.66 66.20 146.12 66.44 145.50 67.31 M 58.22 71.22 C 58.82 71.82 58.82 71.82 58.22 71.22 M 137.23 71.23 C 137.82 71.82 137.82 71.82 137.23 71.23 M 122.33 72.02 C 122.64 75.43 125.13 70.30 122.33 72.02 M 57.67 73.65 C 57.48 74.14 57.09 75.12 56.89 75.61 C 57.64 75.93 59.14 76.57 59.88 76.89 C 59.32 79.31 58.32 81.58 57.14 83.75 C 57.77 83.10 58.40 82.44 59.03 81.79 C 59.83 82.12 60.62 82.45 61.41 82.79 C 60.27 79.74 60.17 76.48 60.06 73.26 C 59.46 73.36 58.27 73.55 57.67 73.65 M 38.16 77.02 C 38.47 79.27 39.11 81.44 39.71 83.63 C 40.12 83.51 40.94 83.29 41.35 83.18 C 41.14 80.63 41.80 77.06 38.16 77.02 M 50.17 79.15 C 50.84 79.82 50.84 79.82 50.17 79.15 M 127.04 82.54 C 127.47 82.58 128.33 82.66 128.76 82.70 C 128.65 81.40 128.52 80.11 128.37 78.82 C 127.71 79.97 127.34 81.25 127.04 82.54 M 47.14 80.34 C 45.69 80.35 45.55 82.75 47.09 82.71 C 48.47 82.73 48.65 80.20 47.14 80.34 M 49.64 82.50 C 50.94 83.52 52.22 84.56 53.51 85.59 C 52.50 84.06 51.41 82.50 51.57 80.57 C 51.09 81.05 50.12 82.02 49.64 82.50 M 43.41 82.04 C 43.64 85.43 46.33 80.44 43.41 82.04 M 45.20 84.12 C 45.50 87.47 48.15 82.53 45.20 84.12 M 107.10 88.86 C 106.63 86.88 106.40 84.85 106.03 82.85 C 103.85 84.88 106.14 86.90 107.10 88.86 M 133.28 83.93 C 133.16 87.31 136.27 82.51 133.28 83.93 M 98.61 90.73 C 99.76 90.57 100.92 90.40 102.07 90.22 C 102.34 88.45 102.57 86.69 102.82 84.93 C 101.41 86.86 99.50 88.46 98.61 90.73 M 27.74 91.64 C 30.26 91.93 32.98 92.06 34.84 90.00 C 33.83 89.26 32.81 88.53 31.80 87.81 C 30.24 88.85 28.62 89.92 27.74 91.64 M 43.82 99.08 C 46.88 96.62 48.72 92.46 48.34 88.56 C 46.54 91.91 44.89 95.41 43.82 99.08 M 50.22 89.24 C 50.85 89.83 50.85 89.83 50.22 89.24 M 103.43 99.73 C 105.60 97.06 107.80 94.15 108.30 90.66 C 105.47 92.72 102.93 96.05 103.43 99.73 M 117.24 91.22 C 117.83 91.81 117.83 91.81 117.24 91.22 M 137.38 91.25 C 136.19 93.30 140.45 93.30 140.64 91.51 C 140.44 89.98 138.18 90.54 137.38 91.25 M 157.28 91.16 C 157.43 94.57 160.14 89.58 157.28 91.16 M 143.03 92.18 C 141.37 95.05 146.40 92.46 143.03 92.18 M 166.32 93.26 C 164.98 93.91 164.96 94.57 166.25 95.24 C 167.60 94.59 167.62 93.93 166.32 93.26 M 77.73 95.56 C 79.33 96.17 81.03 96.54 82.65 97.11 C 84.50 98.86 85.67 101.17 87.28 103.13 C 87.44 101.03 87.36 98.86 88.25 96.90 C 84.71 96.72 81.01 92.72 77.73 95.56 M 119.42 94.38 C 118.97 96.02 119.55 96.55 121.16 95.97 C 121.64 94.36 121.07 93.83 119.42 94.38 M 163.91 96.31 C 164.40 97.20 164.90 98.08 165.40 98.97 C 166.26 98.29 167.11 97.60 167.96 96.92 C 166.61 96.71 165.26 96.51 163.91 96.31 M 30.25 97.27 C 30.89 97.89 30.89 97.89 30.25 97.27 M 146.58 98.75 C 146.05 100.32 145.51 101.88 145.00 103.46 C 146.28 103.17 147.55 102.84 148.81 102.47 C 149.81 100.66 147.56 99.86 146.58 98.75 M 111.07 101.42 C 110.54 102.81 111.00 103.21 112.45 102.60 C 112.98 101.20 112.51 100.81 111.07 101.42 M 81.49 102.18 C 80.17 102.41 79.52 105.07 81.22 105.18 C 82.56 104.98 83.15 102.27 81.49 102.18 M 115.06 102.21 C 116.05 104.10 116.57 106.12 116.43 108.27 C 117.22 106.74 118.02 105.22 118.84 103.71 C 117.57 103.25 116.31 102.74 115.06 102.21 M 162.59 102.77 C 162.30 105.75 161.03 108.47 159.99 111.23 C 163.91 110.11 163.09 104.84 164.55 101.75 C 164.06 102.01 163.08 102.52 162.59 102.77 M 24.30 104.04 C 22.92 104.39 23.08 107.00 24.73 106.06 C 26.15 105.73 25.93 103.10 24.30 104.04 M 81.26 110.91 C 81.74 111.74 82.20 112.57 82.66 113.42 C 84.45 112.16 86.23 110.77 87.02 108.65 C 86.49 108.30 85.42 107.60 84.89 107.25 C 85.50 106.05 86.06 104.82 86.58 103.57 C 83.60 104.92 82.95 108.41 81.26 110.91 M 115.58 113.34 C 118.06 111.96 120.31 110.15 122.16 108.01 C 123.57 106.14 126.23 105.80 127.38 103.67 C 122.99 106.19 118.76 109.37 115.58 113.34 M 149.99 106.16 C 152.27 107.91 154.16 110.48 157.11 111.07 C 155.56 108.93 153.85 106.89 152.08 104.93 C 151.56 105.24 150.51 105.85 149.99 106.16 M 15.21 111.36 C 15.20 111.61 15.19 112.11 15.19 112.37 C 17.50 112.41 20.01 112.19 21.76 114.00 C 24.74 111.97 28.48 112.77 31.79 111.78 C 31.32 110.79 30.85 109.80 30.39 108.81 C 28.71 109.61 27.07 110.47 25.47 111.42 C 25.27 110.87 24.86 109.76 24.66 109.21 C 22.51 112.54 18.56 111.77 15.21 111.36 M 79.24 109.24 C 79.82 109.80 79.82 109.80 79.24 109.24 M 49.60 110.43 C 48.68 112.29 47.83 114.19 47.17 116.16 C 48.46 115.87 49.75 115.57 51.04 115.28 C 50.71 114.35 50.38 113.42 50.06 112.49 C 52.33 113.48 54.04 112.17 55.42 110.42 C 53.48 110.41 51.54 110.40 49.60 110.43 M 120.22 117.42 C 118.26 118.03 115.94 117.05 114.30 118.69 C 117.97 118.86 121.66 118.59 125.28 117.94 C 127.51 117.02 129.26 115.23 131.15 113.77 C 131.69 114.83 132.26 115.88 132.86 116.92 C 132.79 115.58 133.03 113.99 131.77 113.10 C 132.11 112.42 132.80 111.07 133.15 110.39 C 128.68 112.43 124.48 115.00 120.22 117.42 M 155.95 114.13 C 157.15 115.32 158.35 116.50 159.56 117.68 C 160.76 117.20 161.96 116.69 163.15 116.17 C 163.69 116.52 164.77 117.22 165.31 117.58 C 164.47 116.73 163.61 115.90 162.75 115.09 C 163.07 114.50 163.71 113.32 164.03 112.73 C 161.99 113.97 159.48 113.93 157.20 114.44 C 157.66 113.21 158.14 111.99 158.64 110.77 C 157.74 111.89 156.85 113.02 155.95 114.13 M 30.40 114.31 C 29.21 115.26 30.69 117.51 32.02 116.63 C 33.20 115.66 31.74 113.41 30.40 114.31 M 89.58 115.12 C 88.50 115.76 87.64 117.40 88.21 118.61 C 89.53 118.89 91.33 115.42 89.58 115.12 M 98.45 117.04 C 97.12 117.81 97.10 118.48 98.40 119.04 C 99.75 118.28 99.77 117.61 98.45 117.04 M 30.28 119.04 C 28.85 119.40 29.29 121.90 30.83 121.10 C 32.21 120.75 31.80 118.16 30.28 119.04 M 57.13 123.70 C 58.81 123.70 60.50 123.68 62.19 123.63 C 61.09 122.48 59.99 121.33 58.87 120.19 C 58.28 121.35 57.70 122.53 57.13 123.70 M 30.16 121.68 C 30.98 123.97 32.04 126.17 33.06 128.39 C 32.96 125.92 32.33 123.14 30.16 121.68 M 77.20 145.52 C 76.15 145.55 74.73 147.64 76.47 147.80 C 77.65 147.73 78.70 147.34 79.61 146.62 C 80.21 145.29 77.96 145.23 77.20 145.52 M 78.34 148.50 C 78.60 149.98 78.82 151.47 79.03 152.96 C 79.99 151.91 80.98 150.89 81.98 149.88 C 80.75 149.43 79.54 148.98 78.34 148.50 M 82.30 153.21 C 82.94 153.85 82.94 153.85 82.30 153.21 Z" />
<path fill="#ffffff" opacity="1.00" d=" M 27.67 4.60 C 28.91 3.39 30.56 4.48 31.24 5.72 C 32.79 8.60 33.74 11.75 35.06 14.74 C 35.69 12.67 36.24 10.58 36.62 8.45 C 37.76 7.67 38.88 6.87 40.00 6.07 C 40.83 6.83 42.24 7.16 42.57 8.36 C 44.77 15.20 46.39 22.41 45.60 29.64 C 44.59 31.19 43.47 32.82 41.93 33.87 C 33.22 32.01 24.60 35.04 15.92 35.33 C 13.12 35.59 10.72 33.49 10.13 30.82 C 8.96 26.41 7.38 22.14 5.95 17.81 C 5.16 15.99 6.99 14.55 7.72 13.08 C 10.01 14.69 12.31 16.28 14.53 17.98 C 14.52 15.49 14.57 13.00 14.58 10.51 C 15.16 10.56 16.32 10.66 16.90 10.71 C 16.40 10.47 15.40 10.00 14.90 9.76 C 15.10 8.57 15.30 7.38 15.48 6.19 C 16.10 6.05 17.33 5.76 17.95 5.62 C 19.99 9.30 22.24 12.88 24.71 16.29 C 25.79 12.41 26.63 8.48 27.67 4.60 M 35.00 21.81 C 31.92 20.80 31.43 17.39 30.01 14.90 C 28.84 17.34 28.46 20.57 25.81 21.96 C 22.62 22.01 21.17 18.64 19.41 16.53 C 18.76 19.10 18.18 21.70 17.16 24.16 C 15.27 23.26 13.54 22.09 11.85 20.88 C 12.98 24.33 13.77 27.88 14.09 31.50 C 21.68 30.58 29.21 29.03 36.86 28.73 C 38.14 28.90 39.40 29.17 40.67 29.40 C 42.40 24.51 40.35 19.67 39.55 14.83 C 38.47 17.42 37.48 20.19 35.00 21.81 Z" />
<path fill="#ffffff" opacity="1.00" d=" M 42.58 58.25 C 43.22 58.34 44.49 58.54 45.13 58.63 C 45.50 60.16 45.92 61.68 46.36 63.19 C 45.44 63.66 44.51 64.13 43.59 64.61 C 43.15 62.50 42.59 60.41 42.58 58.25 Z" />
<path fill="#ffffff" opacity="1.00" d=" M 18.01 123.33 C 21.48 123.46 16.18 126.32 18.01 123.33 Z" />
</g>
</svg>
