<?xml version="1.0" encoding="UTF-8" ?>
<!DOCTYPE svg PUBLIC "-//W3C//DTD SVG 1.1//EN" "http://www.w3.org/Graphics/SVG/1.1/DTD/svg11.dtd">
<svg width="180pt" height="180pt" viewBox="0 0 180 180" version="1.1" xmlns="http://www.w3.org/2000/svg">
<g id="#ffffffff">
<path fill="#ffffff" opacity="1.00" d=" M 109.85 27.83 C 112.73 23.13 113.16 17.18 116.87 13.01 C 120.55 16.50 124.92 19.10 129.02 22.05 C 129.93 22.94 131.23 22.93 132.41 22.72 C 135.67 20.29 138.96 17.41 143.21 17.06 C 144.41 22.23 140.80 27.41 142.83 32.46 C 143.86 35.35 146.24 37.42 147.93 39.90 C 151.52 38.48 154.84 36.45 158.53 35.26 C 158.91 35.78 159.69 36.81 160.08 37.32 C 156.74 39.39 153.48 41.74 149.67 42.85 C 149.04 44.42 148.29 45.93 147.29 47.30 C 148.07 48.14 148.84 48.98 149.61 49.83 C 152.31 49.47 154.92 47.31 157.64 48.21 C 158.01 51.14 153.92 51.98 151.72 52.63 C 153.07 54.11 154.61 55.47 155.54 57.27 C 154.80 59.67 154.23 62.65 151.75 63.83 C 149.01 65.36 147.46 68.39 144.51 69.64 C 144.64 70.66 144.75 71.68 144.85 72.71 C 143.61 72.23 142.37 71.76 141.13 71.26 C 141.23 70.04 141.31 68.82 141.37 67.59 C 137.29 71.57 132.22 75.70 131.43 81.69 C 131.02 83.41 130.04 84.92 129.18 86.45 C 129.86 86.92 130.55 87.39 131.24 87.87 C 130.08 88.91 128.93 89.96 127.80 91.03 C 129.37 94.25 128.58 98.04 127.30 101.22 C 129.53 103.53 131.90 105.71 134.68 107.36 C 145.28 115.63 155.39 124.48 165.81 132.98 C 165.34 133.76 164.41 135.33 163.94 136.11 C 161.33 134.29 159.32 131.67 156.34 130.39 C 162.01 136.27 167.73 142.16 173.92 147.47 C 173.85 148.16 173.71 149.54 173.64 150.23 C 169.55 149.67 167.54 145.79 164.40 143.63 C 161.49 141.58 159.00 139.03 156.45 136.56 C 152.78 132.86 148.44 129.91 144.56 126.44 C 140.82 122.50 136.50 119.19 132.29 115.78 C 132.34 114.44 132.40 113.11 132.42 111.78 C 131.78 112.60 131.18 113.45 130.56 114.30 C 128.15 112.15 125.63 110.04 122.63 108.75 C 118.79 122.36 116.40 136.30 113.54 150.13 C 113.47 154.66 113.74 159.10 115.07 163.44 C 115.67 163.46 116.86 163.48 117.46 163.50 C 117.76 167.66 113.80 171.77 109.53 170.17 C 107.72 166.94 112.64 166.71 114.59 165.98 C 113.10 163.57 110.79 161.56 109.97 158.80 C 109.85 155.85 109.27 152.97 108.73 150.08 C 112.61 138.43 113.13 125.95 117.19 114.36 C 113.92 115.02 110.61 115.59 107.61 117.14 C 107.33 132.31 106.41 147.51 103.93 162.50 C 105.53 162.59 107.02 163.05 108.40 163.88 C 106.68 164.97 104.91 165.98 103.29 167.20 C 105.63 167.24 107.59 165.91 109.63 164.96 C 110.51 167.42 107.96 168.94 106.72 170.69 C 103.42 171.37 99.73 168.80 96.96 171.48 C 93.39 169.17 88.98 171.99 85.45 169.61 C 83.40 167.59 83.78 164.73 84.26 162.17 C 84.37 160.68 84.87 157.38 86.90 159.12 C 87.98 161.35 87.55 163.93 87.94 166.32 C 89.98 166.47 92.02 166.65 94.06 166.83 C 93.13 166.07 92.20 165.32 91.28 164.56 C 92.25 163.14 93.67 161.81 93.24 159.92 C 92.89 155.73 91.96 151.61 91.34 147.46 C 90.90 144.09 92.20 140.64 91.15 137.33 C 90.27 134.37 90.35 131.25 89.85 128.23 C 89.34 123.77 88.40 119.00 90.42 114.78 C 90.48 112.59 90.99 110.36 90.74 108.20 C 89.52 107.30 87.91 107.26 86.55 106.68 C 88.24 105.98 89.91 105.22 91.43 104.17 C 91.75 105.45 92.08 106.72 92.45 107.99 C 94.52 105.66 95.60 102.37 98.50 100.87 C 99.27 105.08 94.71 107.28 93.87 111.14 C 95.47 109.36 96.86 107.42 98.39 105.59 C 98.49 107.28 98.58 108.97 98.67 110.66 C 103.78 110.05 108.50 113.98 113.72 112.14 C 111.76 109.95 108.81 110.62 106.23 110.18 C 104.05 109.84 103.99 107.47 103.11 105.89 C 100.24 101.82 96.13 98.76 93.54 94.48 C 92.53 92.33 92.08 89.96 91.42 87.69 C 94.32 89.42 95.62 92.68 97.85 95.09 C 100.75 98.02 104.26 100.24 107.57 102.66 C 108.67 101.48 109.85 100.36 111.05 99.28 C 109.01 97.67 106.39 96.31 105.96 93.47 C 107.68 94.64 109.36 95.90 111.23 96.84 C 109.69 93.50 106.18 91.84 103.42 89.65 C 100.42 88.12 98.14 85.64 95.43 83.72 C 96.05 86.37 99.75 87.21 99.88 89.88 C 96.85 90.73 94.35 87.40 92.00 85.83 C 89.99 87.74 87.23 88.43 84.98 89.98 C 80.69 93.11 76.10 95.77 71.68 98.70 C 68.90 100.70 66.51 103.27 63.36 104.71 C 65.48 108.42 62.39 113.89 66.63 116.39 C 66.17 117.92 65.68 119.45 65.20 120.98 C 67.55 118.87 70.09 117.00 72.72 115.26 C 69.96 112.56 67.85 109.34 66.06 105.95 C 67.18 104.44 68.28 102.90 69.46 101.42 C 71.23 105.29 73.27 109.02 76.51 111.87 C 76.93 110.88 77.35 109.89 77.77 108.90 C 81.91 111.22 82.37 116.28 83.56 120.40 C 83.14 128.41 87.03 135.94 86.73 144.00 C 87.83 148.17 87.34 152.36 87.47 156.59 L 86.78 157.07 C 84.52 159.03 83.85 156.08 83.64 154.27 C 82.54 144.10 80.60 134.05 78.85 123.98 C 74.94 126.73 71.14 129.84 66.45 131.18 C 67.17 137.67 66.41 144.15 65.00 150.50 C 67.63 151.55 70.31 152.47 72.79 153.85 C 72.17 154.84 71.54 155.83 70.91 156.82 C 67.50 154.34 62.98 156.65 59.67 153.85 C 61.65 150.04 61.77 145.66 60.35 141.64 C 58.50 137.53 57.89 132.98 55.89 128.93 C 57.83 125.46 60.99 122.39 61.00 118.19 C 58.24 122.07 53.99 124.34 50.50 127.46 C 48.32 129.50 44.75 129.50 43.14 132.21 C 39.70 136.92 39.38 143.14 39.70 148.76 C 39.00 151.35 35.75 151.07 33.77 150.26 C 33.02 149.10 33.77 147.59 33.60 146.29 C 32.50 148.58 32.19 151.13 31.38 153.53 C 32.68 153.66 33.97 153.82 35.27 153.85 C 37.00 153.25 38.16 151.68 39.63 150.64 C 41.40 152.63 43.49 154.29 45.58 155.93 C 45.18 156.47 44.37 157.57 43.97 158.11 C 42.39 157.24 40.84 156.32 39.27 155.45 C 39.42 156.54 39.59 157.64 39.77 158.74 C 35.35 159.34 31.31 157.61 27.13 156.55 C 26.86 153.19 29.43 150.43 29.19 147.03 C 29.34 139.32 30.08 131.55 33.18 124.39 C 28.24 127.30 23.84 131.50 18.18 132.93 C 16.49 131.86 14.89 130.64 13.49 129.21 C 18.81 124.57 24.82 120.66 29.89 115.83 C 29.63 109.50 28.49 103.26 28.16 96.93 C 28.79 95.51 30.75 95.04 30.88 93.36 C 31.39 91.12 31.75 88.84 32.51 86.67 C 33.88 82.50 33.66 77.84 35.87 73.95 C 39.88 67.89 43.72 61.62 49.41 56.96 C 42.00 53.22 34.71 49.20 28.23 44.00 C 26.43 42.27 23.98 40.85 24.13 38.03 C 19.89 36.47 16.30 33.65 12.56 31.18 C 13.96 30.10 15.85 28.60 17.36 30.45 C 25.70 35.06 33.69 40.33 42.11 44.81 C 47.01 48.02 51.96 51.23 57.15 53.95 C 62.40 53.28 67.45 51.18 72.79 51.18 C 76.01 52.36 79.36 53.02 82.80 52.80 C 86.64 49.15 90.88 45.88 95.80 43.82 C 101.64 39.68 105.94 33.75 109.85 27.83 M 133.10 26.80 C 134.83 27.19 136.57 27.55 138.33 27.86 C 138.60 26.19 138.88 24.52 139.15 22.84 C 137.05 24.03 135.03 25.35 133.10 26.80 M 122.39 24.19 C 121.39 26.85 119.41 28.90 117.30 30.73 C 117.70 33.03 118.14 35.32 118.49 37.63 C 121.00 37.32 123.32 38.45 125.73 38.94 C 125.11 40.07 124.50 41.21 123.92 42.36 C 126.39 41.95 128.86 41.60 131.33 41.16 C 131.62 42.06 131.92 42.96 132.22 43.86 C 132.31 43.11 132.51 41.59 132.60 40.84 C 135.89 41.13 134.43 44.82 134.80 47.08 C 137.98 45.09 141.62 43.81 144.32 41.13 C 143.00 39.25 141.49 37.50 140.35 35.51 C 139.60 33.50 139.76 30.47 137.09 29.98 C 134.73 29.66 132.30 29.64 131.08 27.17 C 130.32 27.63 128.78 28.55 128.02 29.02 C 125.89 27.72 123.92 26.17 122.39 24.19 M 111.71 34.01 C 111.87 36.27 111.49 38.48 110.33 40.45 C 111.40 39.59 112.42 38.67 113.47 37.78 C 113.84 38.61 114.58 40.27 114.95 41.10 C 115.47 39.13 117.78 37.25 116.84 35.15 C 115.27 35.47 114.40 37.06 113.12 37.87 C 112.59 36.60 112.16 35.30 111.71 34.01 M 115.75 39.81 C 116.81 40.98 117.91 42.11 119.04 43.21 C 117.70 44.17 116.36 45.14 115.15 46.25 L 115.99 46.84 C 116.76 47.13 118.29 47.69 119.05 47.97 C 118.48 49.06 117.76 50.06 116.93 50.97 C 116.63 50.28 116.05 48.91 115.76 48.22 C 113.51 46.64 114.70 50.14 114.49 51.35 C 116.68 51.84 118.95 52.06 121.13 51.31 C 121.63 52.21 122.14 53.11 122.65 54.01 C 125.53 50.93 129.61 49.69 133.27 47.84 C 130.37 45.07 126.50 43.99 122.58 43.77 C 122.66 42.71 122.73 41.65 122.79 40.59 C 121.90 39.84 121.03 39.07 120.16 38.30 C 118.68 38.79 117.21 39.29 115.75 39.81 M 109.18 45.42 C 107.77 48.43 112.58 45.30 109.18 45.42 M 106.42 47.35 C 104.94 47.57 104.98 50.41 106.70 49.32 C 107.97 48.92 108.23 46.22 106.42 47.35 M 88.72 51.84 C 90.50 55.55 91.80 59.51 93.92 63.06 C 95.42 64.63 97.00 66.12 98.40 67.79 C 99.37 67.37 100.34 66.95 101.31 66.53 C 101.28 64.86 101.28 63.19 101.28 61.52 C 106.03 61.44 111.81 61.33 114.46 56.61 C 112.23 57.82 110.17 59.28 108.01 60.60 C 108.22 58.17 108.67 55.78 109.71 53.57 C 107.59 54.73 105.55 56.07 103.24 56.85 C 104.33 55.10 105.48 53.27 107.17 52.04 C 108.94 51.41 110.86 51.41 112.71 51.12 C 112.33 50.00 111.96 48.87 111.59 47.75 C 108.79 48.78 106.20 50.36 104.38 52.77 C 103.51 52.25 102.63 51.74 101.75 51.24 C 102.23 52.08 103.17 53.75 103.65 54.58 C 102.57 54.48 100.41 54.27 99.33 54.16 C 99.98 52.77 100.63 51.38 101.30 50.00 C 99.91 50.22 98.52 50.44 97.14 50.67 C 96.44 49.88 95.74 49.08 95.06 48.28 C 92.95 49.47 90.81 50.60 88.72 51.84 M 137.38 54.01 C 137.43 54.38 137.49 54.76 137.54 55.14 C 139.84 54.12 142.05 52.93 144.30 51.83 C 144.80 52.41 145.29 53.00 145.78 53.60 C 145.67 52.36 145.57 51.13 145.48 49.90 C 142.83 51.36 140.14 52.76 137.38 54.01 M 115.39 53.20 C 115.59 56.62 118.24 51.56 115.39 53.20 M 118.75 53.40 C 117.37 54.85 115.75 56.04 114.34 57.46 C 116.54 56.54 118.55 55.26 120.60 54.07 C 120.14 53.90 119.21 53.57 118.75 53.40 M 112.26 54.35 C 110.44 57.11 115.67 54.70 112.26 54.35 M 133.84 55.01 C 133.34 56.57 133.94 57.10 135.62 56.62 C 136.05 55.02 135.46 54.48 133.84 55.01 M 134.68 61.95 C 136.01 61.54 137.36 61.17 138.70 60.80 C 140.94 62.77 143.50 64.30 145.96 65.96 C 147.73 63.00 148.74 59.61 150.88 56.87 C 150.41 56.20 149.45 54.86 148.97 54.19 C 144.04 56.40 138.88 58.51 134.68 61.95 M 74.15 57.34 C 77.99 57.95 81.87 57.29 85.73 57.63 C 85.96 57.18 86.43 56.28 86.66 55.83 C 82.56 57.54 78.10 55.36 74.15 57.34 M 51.13 59.41 C 49.80 61.53 48.01 63.29 46.54 65.30 C 49.26 63.69 51.77 61.76 54.21 59.78 C 53.18 59.64 52.16 59.53 51.13 59.41 M 75.00 63.17 C 79.23 63.73 83.54 63.77 87.69 62.66 C 87.68 61.78 87.67 60.91 87.67 60.03 C 83.95 62.55 79.18 61.97 75.00 63.17 M 120.05 69.09 C 114.86 72.55 109.12 75.10 103.85 78.45 C 104.48 79.46 105.10 80.48 105.70 81.51 C 108.76 81.07 111.12 83.00 113.34 84.81 C 116.09 84.10 118.89 83.53 121.75 83.73 C 124.58 83.08 127.03 81.34 129.44 79.77 C 126.19 79.98 122.98 79.51 119.76 79.19 C 117.07 78.11 115.41 75.63 113.48 73.61 C 115.19 72.86 116.93 72.19 118.69 71.56 C 118.50 73.13 118.32 74.70 118.14 76.27 C 118.52 75.06 118.93 73.85 119.35 72.65 C 121.02 71.85 122.41 73.44 123.85 74.01 C 123.71 74.55 123.41 75.62 123.27 76.16 C 125.12 74.85 127.20 73.78 129.49 74.69 C 130.96 72.13 133.12 70.11 135.03 67.88 C 134.42 66.64 133.15 65.46 133.79 63.96 C 133.29 63.25 132.72 62.57 132.22 61.85 C 128.51 64.81 124.10 66.67 120.05 69.09 M 83.38 66.55 C 81.85 67.24 80.19 67.59 78.59 68.10 C 81.98 70.01 85.38 72.00 88.31 74.59 C 90.12 73.16 92.08 71.96 93.98 70.64 C 91.89 68.14 89.34 66.05 87.51 63.32 C 85.88 64.05 84.60 65.27 83.38 66.55 M 55.24 66.24 C 55.81 66.81 55.81 66.81 55.24 66.24 M 108.95 69.09 C 103.99 72.64 98.54 75.36 93.50 78.77 C 95.41 78.65 97.34 78.63 99.23 78.28 C 103.05 74.33 108.49 72.81 112.96 69.78 C 111.66 69.39 110.20 67.77 108.95 69.09 M 48.90 79.00 C 51.99 77.76 54.26 75.23 56.65 73.02 C 53.73 74.54 50.19 75.61 48.90 79.00 M 37.13 79.27 C 39.96 78.86 41.09 76.10 41.32 73.56 C 39.39 75.03 38.11 77.09 37.13 79.27 M 42.20 75.32 C 42.82 77.59 42.46 79.90 42.23 82.20 C 41.22 81.45 40.23 80.69 39.25 79.91 C 39.47 81.36 39.64 82.81 39.78 84.26 C 38.74 84.96 37.39 85.44 37.08 86.81 C 35.76 90.80 34.95 94.97 34.20 99.11 C 33.97 103.73 34.36 108.38 33.98 113.00 C 40.83 108.40 47.30 103.26 54.37 99.01 C 53.62 97.98 52.88 96.94 52.13 95.91 C 52.76 95.03 53.39 94.15 54.01 93.27 C 55.37 94.33 56.73 95.39 58.07 96.48 C 61.64 93.90 64.17 90.35 67.07 87.10 C 64.99 88.38 62.58 88.67 60.26 89.28 C 58.36 90.11 56.64 91.30 54.74 92.15 C 54.26 90.72 53.78 89.28 53.33 87.84 C 50.05 87.27 47.62 85.03 45.28 82.86 C 45.30 80.94 45.22 79.03 45.13 77.11 C 44.13 76.54 43.16 75.94 42.20 75.32 M 49.78 82.85 C 51.77 84.34 53.82 85.76 55.65 87.45 C 56.55 86.44 57.49 85.46 58.42 84.48 C 57.23 85.17 56.04 85.85 54.84 86.51 C 54.32 85.48 53.81 84.44 53.29 83.41 C 55.75 81.34 58.27 79.30 60.31 76.79 C 56.64 78.54 53.67 81.50 49.78 82.85 M 77.56 77.40 C 75.15 80.04 73.34 83.15 71.50 86.20 C 75.33 83.95 78.47 80.71 82.51 78.78 C 81.08 77.93 79.26 76.46 77.56 77.40 M 98.79 80.94 C 100.23 82.29 101.60 83.81 103.30 84.81 C 105.20 83.71 102.08 81.61 101.64 80.25 C 100.92 80.42 99.50 80.77 98.79 80.94 M 63.32 86.27 C 65.96 85.66 66.94 82.90 68.38 80.92 C 66.51 82.52 64.74 84.25 63.32 86.27 M 104.11 84.96 C 105.27 85.98 106.43 86.99 107.56 88.05 C 107.39 86.53 107.33 85.01 107.25 83.49 C 106.19 83.95 105.14 84.43 104.11 84.96 M 116.62 86.25 C 115.45 87.29 114.11 89.22 114.59 90.84 C 116.18 91.00 118.18 86.96 116.62 86.25 M 118.20 87.37 C 119.99 89.87 119.37 92.52 117.77 94.94 C 118.70 95.58 119.62 96.23 120.54 96.88 C 121.41 96.63 122.29 96.38 123.18 96.14 C 123.33 95.13 123.49 94.13 123.69 93.13 C 122.12 93.41 120.54 93.57 118.96 93.74 C 119.69 91.43 120.71 89.23 121.89 87.12 C 120.66 87.22 119.43 87.31 118.20 87.37 M 117.21 91.19 C 117.84 91.82 117.84 91.82 117.21 91.19 M 61.25 99.86 C 64.92 98.11 69.12 96.35 71.10 92.57 C 67.59 94.62 63.90 96.70 61.25 99.86 M 110.79 104.26 C 113.44 103.80 114.84 101.30 116.52 99.48 C 114.26 100.61 111.28 101.36 110.79 104.26 M 45.37 111.50 C 42.43 113.80 38.59 115.18 36.70 118.59 C 36.22 121.72 36.96 124.92 36.11 128.00 C 36.36 128.20 36.87 128.61 37.12 128.81 C 40.84 124.05 45.28 119.78 48.10 114.37 C 44.50 116.84 41.10 119.61 37.09 121.44 C 37.20 120.68 37.41 119.17 37.52 118.41 C 43.46 112.89 51.37 109.53 56.27 102.91 C 52.83 106.01 49.34 109.09 45.37 111.50 M 127.76 109.35 C 126.86 110.40 128.66 111.98 129.74 111.49 C 130.60 110.40 128.89 108.80 127.76 109.35 M 54.53 115.10 C 55.48 113.51 56.55 111.99 57.38 110.33 C 54.73 110.57 54.58 113.04 54.53 115.10 M 96.06 110.41 C 96.68 111.74 97.34 113.05 98.05 114.34 C 97.28 114.40 95.74 114.53 94.97 114.59 C 96.22 115.01 97.46 115.43 98.71 115.86 C 96.80 116.34 94.90 116.88 93.21 117.93 C 93.72 125.03 95.54 132.16 94.28 139.28 C 94.54 145.02 94.38 150.86 95.98 156.43 C 96.83 159.46 96.09 162.77 97.86 165.55 C 98.85 163.87 100.36 162.37 100.53 160.34 C 101.67 152.96 102.69 145.50 102.28 138.01 C 102.29 130.51 102.22 122.91 104.06 115.60 C 103.63 116.36 102.79 117.86 102.36 118.62 C 100.85 118.04 99.32 117.50 97.79 117.00 C 98.31 116.52 99.35 115.57 99.87 115.09 C 98.65 113.52 97.46 111.86 96.06 110.41 M 57.27 118.21 C 57.83 118.85 57.83 118.85 57.27 118.21 M 42.45 128.09 C 44.83 126.44 47.57 124.61 48.22 121.57 C 45.78 123.21 43.81 125.49 42.45 128.09 M 142.39 122.14 C 142.67 125.54 145.25 120.48 142.39 122.14 M 29.31 124.22 C 29.92 124.85 29.92 124.85 29.31 124.22 M 146.20 125.26 C 146.80 125.86 146.80 125.86 146.20 125.26 M 153.19 128.23 C 153.49 131.61 156.02 126.55 153.19 128.23 M 37.23 132.06 C 36.25 131.43 35.27 130.82 34.29 130.20 C 34.31 132.33 34.92 134.52 34.29 136.60 C 33.22 139.60 33.59 142.88 32.31 145.82 C 32.55 145.81 33.01 145.80 33.25 145.79 C 34.22 141.60 35.47 137.42 35.30 133.07 C 35.90 132.85 37.11 132.42 37.71 132.20 C 37.58 133.72 37.49 135.25 37.42 136.77 C 38.01 133.87 39.28 131.20 40.37 128.47 C 39.25 129.60 38.24 130.83 37.23 132.06 M 102.24 166.23 C 102.83 166.82 102.83 166.82 102.24 166.23 Z" />
<path fill="#ffffff" opacity="1.00" d=" M 49.18 28.30 C 49.64 24.52 49.76 20.49 51.97 17.22 C 54.29 19.71 55.73 22.78 57.18 25.81 C 57.46 22.63 57.92 19.42 60.07 16.91 C 63.32 19.18 63.18 23.43 64.33 26.83 C 65.73 23.43 66.27 19.56 69.14 16.96 C 72.57 23.58 73.48 31.20 73.08 38.55 C 63.88 41.44 54.29 42.35 44.70 42.57 C 43.86 41.15 42.77 39.76 42.75 38.03 C 42.32 33.31 41.03 28.72 40.45 24.03 C 40.83 22.45 41.50 20.96 42.13 19.46 C 45.23 21.75 46.93 25.28 49.18 28.30 M 49.96 35.22 C 47.25 33.51 45.87 30.58 44.45 27.85 C 45.25 31.43 45.80 35.07 46.51 38.67 C 54.02 37.78 61.65 37.44 68.97 35.37 C 68.74 32.71 68.63 30.03 68.42 27.37 C 66.91 29.35 65.27 31.24 63.06 32.46 C 61.77 30.67 61.09 28.60 60.63 26.47 C 59.47 28.71 58.23 30.90 56.72 32.92 C 55.13 30.98 54.11 28.68 53.03 26.44 C 52.81 29.60 51.50 32.50 49.96 35.22 Z" />
<path fill="#ffffff" opacity="1.00" d=" M 119.81 28.39 C 121.20 31.47 123.61 33.72 126.39 35.55 C 124.91 35.57 123.43 35.58 121.95 35.67 C 120.30 33.61 119.32 31.08 119.81 28.39 Z" />
<path fill="#ffffff" opacity="1.00" d=" M 124.45 32.34 C 124.89 31.30 125.33 30.26 125.75 29.20 C 127.49 30.19 129.23 31.17 130.95 32.21 C 128.81 32.84 126.62 32.58 124.45 32.34 Z" />
<path fill="#ffffff" opacity="1.00" d=" M 131.20 31.28 C 131.86 31.94 131.86 31.94 131.20 31.28 Z" />
<path fill="#ffffff" opacity="1.00" d=" M 14.17 36.17 C 19.21 36.75 23.87 40.31 26.66 44.48 C 22.41 41.85 18.16 39.19 14.17 36.17 Z" />
<path fill="#ffffff" opacity="1.00" d=" M 123.09 69.21 C 123.77 69.88 123.77 69.88 123.09 69.21 Z" />
<path fill="#ffffff" opacity="1.00" d=" M 42.27 88.95 C 42.31 86.51 40.28 83.42 43.10 81.80 C 43.64 87.36 46.06 92.37 47.59 97.67 C 47.14 97.97 46.70 98.27 46.25 98.57 C 44.24 95.71 42.19 92.60 42.27 88.95 Z" />
<path fill="#ffffff" opacity="1.00" d=" M 38.04 85.92 C 39.63 85.36 40.18 85.93 39.68 87.64 C 38.08 88.15 37.53 87.57 38.04 85.92 Z" />
<path fill="#ffffff" opacity="1.00" d=" M 62.30 90.01 C 63.64 90.57 63.59 91.21 62.17 91.94 C 60.83 91.35 60.87 90.71 62.30 90.01 Z" />
<path fill="#ffffff" opacity="1.00" d=" M 100.16 91.11 C 100.97 90.67 101.77 90.23 102.59 89.81 C 103.72 91.10 104.88 92.37 105.97 93.70 C 103.77 93.72 101.21 93.32 100.16 91.11 Z" />
<path fill="#ffffff" opacity="1.00" d=" M 93.20 103.17 C 93.84 103.81 93.84 103.81 93.20 103.17 Z" />
<path fill="#ffffff" opacity="1.00" d=" M 66.36 145.99 C 69.72 147.23 73.41 147.85 76.35 149.99 C 73.65 153.06 69.64 151.73 66.61 149.96 C 66.33 148.66 66.25 147.33 66.36 145.99 Z" />
<path fill="#ffffff" opacity="1.00" d=" M 73.58 152.25 C 75.18 152.68 76.73 153.24 78.23 153.93 C 76.79 154.77 75.32 155.53 73.82 156.24 C 73.76 155.25 73.64 153.25 73.58 152.25 Z" />
</g>
</svg>
