<?xml version="1.0" encoding="UTF-8" ?>
<!DOCTYPE svg PUBLIC "-//W3C//DTD SVG 1.1//EN" "http://www.w3.org/Graphics/SVG/1.1/DTD/svg11.dtd">
<svg width="180pt" height="180pt" viewBox="0 0 180 180" version="1.1" xmlns="http://www.w3.org/2000/svg">
<g id="#ffffffff">
<path fill="#ffffff" opacity="1.00" d=" M 35.74 9.36 C 34.64 7.94 34.64 5.81 36.99 6.36 C 41.83 10.08 45.97 14.67 51.04 18.13 C 50.89 18.54 50.58 19.36 50.43 19.77 C 51.09 19.73 52.40 19.64 53.06 19.59 C 52.88 20.45 52.70 21.31 52.52 22.16 C 54.16 22.20 55.72 22.68 57.17 23.41 C 54.86 20.76 52.45 18.19 49.96 15.71 C 50.62 14.80 51.28 13.90 51.97 13.01 C 60.93 21.37 69.31 30.34 77.93 39.04 C 81.41 43.22 85.15 47.17 88.90 51.09 C 95.61 54.73 103.49 52.74 110.77 53.36 C 114.17 51.81 117.89 51.46 121.44 50.39 C 125.10 43.40 127.91 36.02 130.66 28.64 C 130.98 28.41 131.62 27.96 131.93 27.74 C 132.75 27.65 134.37 27.46 135.18 27.37 C 134.43 30.27 133.13 33.04 132.84 36.06 C 134.76 32.94 135.89 29.45 137.15 26.03 C 139.60 25.33 141.20 23.25 143.37 22.03 C 144.86 18.34 146.57 14.74 148.31 11.16 C 149.12 11.50 149.94 11.84 150.76 12.18 C 149.50 16.10 148.24 20.05 146.33 23.71 C 142.70 32.88 139.17 42.10 134.85 50.97 C 137.69 49.07 140.65 47.35 143.78 45.95 C 143.23 43.87 143.04 41.72 143.50 39.60 C 145.51 39.32 147.57 38.94 149.58 39.34 C 151.86 39.71 152.04 42.35 152.96 44.03 C 153.39 44.22 154.27 44.61 154.70 44.80 C 154.17 43.77 153.66 42.73 153.15 41.69 C 156.53 42.11 159.12 40.29 161.15 37.80 C 163.80 38.02 163.74 40.19 162.63 42.07 C 164.73 45.40 167.06 48.54 169.49 51.63 C 170.65 55.26 170.49 59.23 171.17 62.99 C 170.36 64.74 169.19 66.57 167.20 67.08 C 164.46 68.11 161.70 66.60 159.11 65.85 C 159.41 67.77 159.66 69.70 159.85 71.64 C 155.45 70.28 158.05 65.44 157.60 62.16 C 160.03 62.27 161.96 63.58 163.41 65.46 C 164.96 65.37 166.51 65.32 168.07 65.19 C 167.32 63.98 166.53 62.78 165.78 61.57 C 166.58 61.58 168.18 61.59 168.97 61.60 C 168.26 58.54 167.68 55.43 166.64 52.47 C 163.51 49.67 161.06 46.22 159.30 42.41 C 157.73 43.80 156.09 45.11 154.40 46.34 C 155.48 47.40 156.53 48.49 157.52 49.64 C 154.52 48.23 151.36 47.91 148.39 49.60 C 147.97 52.85 149.12 56.26 147.76 59.34 C 149.51 59.74 151.65 60.92 151.43 63.02 C 151.71 65.96 149.43 68.21 148.46 70.81 C 150.16 69.74 151.77 68.52 153.30 67.22 C 155.14 69.14 157.14 70.89 159.25 72.50 C 160.08 71.30 160.98 70.03 162.58 69.92 C 162.37 71.28 163.29 73.27 161.84 74.16 C 158.59 75.02 155.47 73.07 152.22 73.06 C 149.87 74.26 147.49 75.70 145.76 77.73 C 144.80 79.77 143.62 81.70 141.73 83.02 C 142.95 88.52 136.10 92.25 137.96 97.73 C 136.05 100.02 134.36 102.49 133.02 105.15 C 133.29 107.08 135.06 108.41 136.13 109.95 C 147.25 124.02 157.27 138.90 167.65 153.50 C 168.03 154.77 167.96 156.13 167.04 157.16 C 163.10 154.84 161.52 150.08 158.74 146.62 C 158.21 146.60 157.15 146.58 156.62 146.57 L 156.36 147.60 C 158.55 150.31 160.89 152.89 162.80 155.81 C 162.24 155.75 161.13 155.63 160.58 155.57 C 158.76 152.93 156.73 150.44 154.81 147.87 C 155.19 147.05 155.56 146.22 155.92 145.40 C 154.54 144.37 153.16 143.35 151.76 142.35 C 150.13 138.79 146.84 136.50 144.63 133.37 C 140.54 126.40 135.71 119.94 130.84 113.51 C 130.47 113.92 129.74 114.73 129.37 115.13 C 129.84 116.68 130.54 118.23 130.25 119.89 C 129.73 124.53 129.42 129.20 129.59 133.88 C 129.29 134.38 128.70 135.38 128.40 135.88 C 130.11 136.05 131.81 136.30 133.52 136.56 C 132.23 135.20 130.71 134.01 129.80 132.34 C 133.86 132.08 137.54 134.68 139.66 137.98 C 135.93 139.95 131.61 139.70 127.54 139.60 C 127.17 136.37 125.24 133.65 124.68 130.48 C 123.50 129.62 121.94 128.99 121.52 127.44 C 120.15 119.33 121.57 110.87 119.26 102.87 C 119.67 102.50 120.49 101.77 120.90 101.40 C 118.94 101.58 116.98 101.65 115.03 101.87 C 115.56 102.86 116.09 103.85 116.63 104.83 C 115.56 107.06 113.74 109.27 114.37 111.90 C 114.95 115.56 114.64 119.26 114.31 122.93 C 113.33 125.39 111.90 127.68 111.31 130.30 C 112.76 129.54 114.07 128.56 115.37 127.56 C 115.78 127.79 116.60 128.24 117.01 128.47 C 117.66 127.87 118.30 127.26 118.95 126.66 C 119.03 126.77 119.20 126.99 119.29 127.10 C 118.54 127.83 117.82 128.58 117.11 129.34 C 116.44 129.23 115.10 129.02 114.43 128.91 C 114.32 130.03 114.22 131.15 114.11 132.28 C 113.50 131.93 112.28 131.24 111.66 130.90 C 111.89 133.48 111.75 136.07 111.24 138.61 C 111.88 138.76 113.16 139.06 113.80 139.22 C 112.60 137.70 112.07 135.94 112.42 134.01 C 114.92 134.97 116.21 137.22 115.51 139.83 C 115.81 139.33 116.42 138.35 116.73 137.85 C 117.04 138.40 117.67 139.48 117.98 140.03 C 116.33 140.75 114.68 141.46 113.03 142.18 C 111.81 139.55 108.78 140.03 106.38 139.69 C 106.90 137.67 106.71 135.62 106.34 133.60 C 107.60 132.53 108.81 131.39 110.01 130.25 C 108.73 130.48 107.46 130.72 106.19 130.93 C 105.24 125.30 103.47 119.77 103.17 114.06 C 103.41 113.81 103.90 113.32 104.15 113.08 C 104.65 113.36 105.65 113.94 106.16 114.23 C 106.16 114.13 106.18 113.93 106.19 113.83 C 105.00 111.37 105.94 108.63 105.76 106.03 C 105.36 106.30 104.56 106.83 104.16 107.10 C 104.54 108.45 104.93 109.80 105.21 111.18 C 103.98 111.79 102.61 111.97 101.26 112.17 C 92.93 126.75 84.81 141.49 75.28 155.33 C 72.97 158.49 71.41 162.31 68.15 164.68 C 67.04 163.00 65.88 161.35 64.60 159.80 C 67.15 153.82 70.09 148.00 73.42 142.42 C 73.99 141.31 76.01 139.43 76.64 141.60 C 75.96 142.88 75.34 144.19 74.78 145.53 C 79.68 139.69 83.29 132.81 87.06 126.19 C 91.92 119.65 96.50 112.86 100.20 105.59 C 100.22 104.64 99.30 103.93 98.94 103.08 C 98.83 103.81 98.63 105.28 98.52 106.02 C 96.85 106.13 95.58 105.52 94.68 104.18 C 96.22 101.00 97.99 97.93 99.15 94.58 C 96.52 97.27 93.42 94.43 91.08 92.85 C 91.35 91.58 91.61 90.31 91.89 89.05 C 88.95 89.60 85.97 91.03 83.01 89.77 C 79.72 96.03 76.11 102.11 71.52 107.52 C 68.83 110.48 65.72 113.11 63.45 116.43 C 64.08 121.63 61.44 126.73 62.85 131.85 C 64.52 134.58 67.82 135.16 70.60 136.16 C 70.70 140.48 65.40 141.23 62.10 140.79 C 58.61 140.91 56.69 137.64 54.42 135.55 C 53.59 130.53 52.66 125.52 51.48 120.56 C 50.17 115.54 53.37 110.87 55.57 106.60 C 57.11 103.07 60.14 100.49 61.64 96.95 C 59.28 93.52 55.44 91.14 53.79 87.18 C 52.88 84.97 51.74 82.86 50.38 80.89 C 49.93 85.28 48.61 89.82 50.15 94.13 C 48.67 103.25 47.96 113.96 40.20 120.20 C 37.45 123.36 33.56 125.08 29.80 126.71 C 26.58 126.80 23.03 127.55 20.09 125.86 C 14.18 123.02 9.12 118.47 5.70 112.87 C 5.37 111.42 6.41 109.58 8.02 109.69 C 9.27 110.03 10.46 110.54 11.67 110.99 C 11.95 110.30 12.51 108.94 12.79 108.25 C 18.58 110.29 21.82 116.21 27.43 118.56 C 31.60 118.86 32.93 113.94 35.18 111.33 C 35.61 111.73 36.47 112.55 36.90 112.96 C 35.41 110.27 35.57 107.11 36.40 104.24 C 38.02 98.62 39.60 92.81 39.15 86.91 C 39.40 81.83 39.70 76.52 42.01 71.89 C 42.77 69.51 45.46 68.77 47.34 67.48 C 46.95 66.72 46.56 65.95 46.19 65.18 C 46.85 65.30 48.17 65.55 48.83 65.67 C 48.78 64.80 48.68 63.05 48.63 62.17 C 49.55 62.64 50.47 63.12 51.38 63.62 C 51.91 61.91 52.00 59.71 53.81 58.81 C 57.98 55.88 62.18 52.63 67.21 51.37 C 70.83 50.83 74.51 51.17 78.16 51.22 C 72.31 44.62 66.16 38.28 59.47 32.53 C 51.88 24.46 43.55 17.15 35.74 9.36 M 131.44 36.86 C 131.04 38.29 131.51 38.80 132.86 38.38 C 133.28 36.95 132.80 36.44 131.44 36.86 M 76.99 47.26 C 76.70 48.86 77.35 49.49 78.94 49.15 C 79.28 47.54 78.63 46.91 76.99 47.26 M 143.94 51.01 C 143.05 53.36 140.78 54.08 138.62 54.79 C 138.47 56.17 138.33 57.55 138.21 58.93 C 136.90 58.65 135.59 58.37 134.28 58.12 C 134.36 58.90 134.45 59.68 134.55 60.46 C 132.11 60.25 129.82 61.68 128.85 63.92 C 125.14 71.22 121.52 78.57 117.32 85.61 C 119.89 88.45 121.87 91.76 124.48 94.58 C 124.81 94.64 125.46 94.76 125.79 94.82 C 128.17 92.87 130.23 90.55 132.05 88.06 C 130.87 88.54 129.70 89.03 128.54 89.56 C 128.35 88.34 128.15 87.12 127.95 85.90 C 128.37 86.10 129.20 86.50 129.62 86.69 C 130.15 85.02 130.40 82.77 132.76 83.49 C 132.92 82.70 133.23 81.12 133.39 80.33 C 132.13 81.45 130.97 82.68 129.73 83.82 C 126.83 81.89 130.14 79.82 132.33 80.00 C 133.27 76.94 135.38 74.55 137.57 72.30 C 138.34 72.43 139.10 72.55 139.87 72.68 C 140.57 71.27 141.33 69.89 142.08 68.51 C 144.36 68.76 146.68 68.81 148.88 68.05 C 148.58 67.19 148.28 66.32 147.98 65.46 C 148.69 65.45 150.09 65.43 150.80 65.42 C 150.19 63.18 147.51 62.57 146.24 60.76 C 143.69 58.13 144.97 54.21 143.94 51.01 M 113.54 56.47 C 110.38 57.43 106.38 55.29 103.89 58.09 C 105.91 60.98 109.93 59.36 112.09 61.86 C 112.60 61.78 113.62 61.61 114.13 61.53 C 112.76 62.56 110.93 63.38 110.55 65.23 C 109.56 68.51 107.74 71.79 108.55 75.32 C 109.81 74.65 111.04 73.93 112.30 73.27 C 112.00 73.05 111.40 72.61 111.10 72.39 C 113.99 66.32 117.32 60.41 119.67 54.10 C 117.57 54.74 115.57 55.67 113.54 56.47 M 121.44 54.97 C 121.59 55.40 121.88 56.28 122.02 56.72 C 119.23 63.27 114.43 69.49 115.50 77.04 C 117.28 71.70 120.05 66.75 121.70 61.37 C 121.55 61.03 121.25 60.34 121.10 60.00 C 121.91 58.71 122.72 57.42 123.57 56.16 C 122.86 55.76 122.15 55.37 121.44 54.97 M 133.17 57.24 C 133.84 57.91 133.84 57.91 133.17 57.24 M 79.07 64.36 C 77.08 64.57 74.94 65.11 74.62 67.47 C 76.16 67.05 77.68 66.57 79.24 66.23 C 74.94 68.39 70.38 69.95 65.75 71.24 C 66.57 72.76 67.39 74.28 68.21 75.79 C 69.02 75.74 69.83 75.69 70.64 75.64 C 74.13 81.47 80.79 87.11 88.04 85.23 C 88.60 86.18 89.16 87.13 89.73 88.08 C 89.72 86.58 89.71 85.07 89.72 83.57 C 88.23 83.62 86.75 83.73 85.26 83.79 C 83.49 82.41 81.59 81.21 79.81 79.82 C 79.56 80.44 79.06 81.68 78.81 82.30 C 77.77 81.00 76.61 79.78 75.07 79.07 C 75.38 78.52 75.98 77.44 76.29 76.90 C 74.08 75.50 72.72 73.28 72.50 70.66 C 75.24 71.31 76.94 73.41 78.67 75.42 C 82.16 77.18 84.61 80.21 87.46 82.78 C 88.18 82.07 89.60 80.64 90.31 79.93 C 90.77 81.15 91.20 82.38 91.58 83.63 C 92.31 83.33 93.05 83.04 93.79 82.76 C 93.60 83.29 93.21 84.35 93.02 84.88 C 94.34 84.67 95.67 84.50 97.01 84.41 C 95.93 86.46 94.74 88.50 94.17 90.77 C 95.42 91.61 96.76 92.32 98.10 93.00 C 98.67 91.81 99.24 90.63 99.83 89.45 C 99.14 85.58 101.77 82.09 101.86 78.25 C 99.78 75.45 97.24 73.01 95.11 70.24 C 95.61 70.10 96.60 69.81 97.10 69.66 C 93.33 69.15 91.37 65.56 89.00 63.01 C 86.26 63.55 83.56 64.34 80.78 64.68 C 82.37 62.11 85.45 61.61 88.19 61.16 C 84.68 58.75 81.85 62.57 79.07 64.36 M 100.56 60.65 C 100.34 61.85 99.99 63.02 99.60 64.18 C 101.60 66.23 103.48 68.38 105.35 70.54 C 106.78 67.83 107.54 64.85 108.79 62.07 C 106.01 62.34 102.88 62.48 100.56 60.65 M 57.16 64.21 C 55.13 65.66 54.64 68.32 52.84 69.99 C 50.94 70.92 50.58 68.50 49.70 67.38 C 48.87 68.28 48.02 69.15 47.15 70.01 C 47.58 71.33 48.06 72.64 48.52 73.96 C 46.93 73.77 45.34 73.60 43.75 73.46 C 44.90 74.00 46.06 74.53 47.23 75.05 C 46.04 75.64 44.85 76.21 43.64 76.75 C 43.67 79.12 43.35 81.47 43.18 83.83 C 44.38 82.65 44.60 80.99 45.00 79.44 C 45.87 80.60 46.71 81.79 47.56 82.96 C 47.37 80.44 47.33 77.91 47.14 75.39 C 48.61 75.37 50.08 75.37 51.54 75.50 C 51.86 74.01 51.90 72.19 53.08 71.10 C 54.58 71.31 56.03 71.75 57.52 72.05 C 56.81 71.03 56.09 70.02 55.35 69.03 C 55.83 67.67 56.26 66.29 56.87 64.99 C 58.54 63.83 60.43 63.08 62.13 61.99 C 60.32 62.32 58.64 63.14 57.16 64.21 M 93.16 63.85 C 93.10 66.66 94.94 68.04 97.54 68.55 C 96.52 66.60 94.86 65.18 93.16 63.85 M 63.02 69.09 C 63.40 70.12 63.75 71.16 64.14 72.20 C 64.71 70.45 65.41 68.75 66.04 67.02 C 65.02 67.70 64.02 68.39 63.02 69.09 M 57.83 67.67 C 58.52 68.57 59.23 69.45 59.97 70.31 C 58.69 72.08 57.19 73.85 56.68 76.04 C 56.59 80.73 62.01 82.37 63.70 86.20 C 65.06 89.70 67.96 92.64 67.90 96.59 C 66.01 98.80 64.26 101.14 62.91 103.73 C 64.49 103.51 66.09 101.86 67.70 102.74 C 67.20 103.97 66.90 105.23 66.82 106.53 C 69.72 104.73 71.49 101.31 73.79 98.74 C 72.78 89.29 69.23 80.15 63.19 72.78 C 61.51 70.97 60.46 68.25 57.83 67.67 M 97.31 68.51 C 98.83 71.30 100.51 74.33 103.39 75.90 C 102.35 72.81 99.99 70.29 97.31 68.51 M 142.23 71.32 C 141.56 72.54 143.27 74.38 144.53 73.72 C 145.21 72.51 143.48 70.59 142.23 71.32 M 139.21 74.06 C 137.78 74.73 137.73 75.36 139.05 75.95 C 140.51 75.26 140.57 74.63 139.21 74.06 M 135.12 76.50 C 134.57 78.19 135.09 78.76 136.68 78.19 C 137.18 76.48 136.66 75.92 135.12 76.50 M 138.37 77.15 C 138.87 78.03 139.37 78.92 139.88 79.80 C 137.29 83.71 135.78 88.24 134.45 92.70 C 138.55 89.78 137.07 83.28 141.42 80.36 C 140.36 79.32 139.36 78.24 138.37 77.15 M 77.27 78.19 C 77.92 78.84 77.92 78.84 77.27 78.19 M 70.39 79.09 C 70.45 82.48 73.40 77.50 70.39 79.09 M 53.48 79.63 C 54.00 81.93 55.43 83.77 57.18 85.29 C 56.25 83.22 56.08 80.31 53.48 79.63 M 71.30 81.14 C 71.24 84.60 74.28 79.56 71.30 81.14 M 72.02 84.56 C 72.69 84.76 74.03 85.14 74.70 85.33 C 75.38 88.03 75.50 91.05 77.34 93.30 C 76.39 89.48 76.91 85.39 74.42 82.08 C 73.62 82.90 72.82 83.74 72.02 84.56 M 44.14 84.00 C 42.75 84.32 43.05 87.05 44.62 86.11 C 45.88 85.69 45.73 83.18 44.14 84.00 M 43.23 87.22 C 43.85 87.81 43.85 87.81 43.23 87.22 M 77.95 87.60 C 79.09 89.16 79.80 90.91 79.49 92.88 C 80.20 91.04 81.09 89.28 81.99 87.53 C 80.64 87.62 79.30 87.66 77.95 87.60 M 86.40 87.14 C 84.91 87.36 85.01 90.11 86.72 89.04 C 88.22 88.76 88.15 86.09 86.40 87.14 M 41.52 92.14 C 41.14 93.52 41.65 94.03 43.05 93.66 C 43.42 92.28 42.91 91.78 41.52 92.14 M 111.32 97.73 C 113.52 97.45 115.75 97.48 117.95 97.23 C 116.86 95.68 115.83 94.10 114.80 92.51 C 113.98 94.47 113.41 96.73 111.32 97.73 M 117.38 92.93 C 117.25 96.31 120.39 91.53 117.38 92.93 M 42.01 95.37 C 41.03 96.19 42.06 98.36 43.33 97.77 C 44.20 96.95 43.30 94.75 42.01 95.37 M 111.05 99.33 C 111.10 100.75 111.14 102.16 111.18 103.58 C 111.49 103.90 112.10 104.55 112.41 104.88 C 112.51 103.09 112.68 101.31 112.78 99.53 C 112.34 99.48 111.48 99.38 111.05 99.33 M 40.30 102.45 C 39.68 104.08 40.20 104.61 41.84 104.05 C 42.48 102.46 41.96 101.93 40.30 102.45 M 64.23 105.14 C 64.91 105.80 64.91 105.80 64.23 105.14 M 33.75 118.96 C 36.71 116.96 39.28 114.47 42.04 112.23 C 41.33 110.50 40.73 108.74 40.28 106.93 C 38.65 111.21 36.98 115.58 33.75 118.96 M 57.76 111.69 C 57.24 111.64 56.21 111.56 55.69 111.51 C 56.55 112.27 57.43 113.00 58.29 113.75 C 56.90 115.07 54.87 115.99 54.33 117.98 C 55.22 122.47 56.02 127.03 57.87 131.25 C 57.45 131.49 56.60 131.97 56.18 132.21 C 58.90 132.73 57.62 135.28 57.38 137.14 C 59.80 137.40 62.19 137.86 64.60 138.19 C 63.10 136.60 61.37 135.27 59.63 133.96 C 60.15 129.65 58.60 125.41 59.42 121.10 C 59.07 116.05 60.13 111.17 61.65 106.40 C 60.06 107.92 58.68 109.68 57.76 111.69 M 66.24 107.22 C 66.69 107.78 66.69 107.78 66.24 107.22 M 61.37 112.06 C 60.94 113.45 61.42 113.93 62.80 113.50 C 63.23 112.11 62.75 111.63 61.37 112.06 M 73.46 146.15 C 72.74 146.53 70.88 148.46 72.52 148.80 C 74.08 148.99 76.01 145.11 73.46 146.15 Z" />
<path fill="#ffffff" opacity="1.00" d=" M 99.95 15.96 C 100.26 14.69 101.62 14.43 102.64 13.96 C 105.03 17.49 104.67 21.87 105.91 25.79 C 107.23 22.32 107.94 18.65 109.30 15.19 C 110.35 15.28 111.39 15.38 112.44 15.49 C 113.29 18.76 113.68 22.12 113.53 25.50 C 115.60 23.20 115.85 19.76 117.94 17.54 C 118.66 17.60 120.11 17.72 120.83 17.79 C 122.07 23.87 122.17 30.11 123.49 36.18 C 122.48 37.63 121.51 39.11 120.58 40.62 C 114.06 40.56 107.51 41.22 101.01 40.43 C 97.07 39.77 92.83 41.26 89.25 38.99 C 90.03 33.23 87.57 27.75 87.43 22.03 C 87.32 19.83 86.92 17.67 86.69 15.48 C 87.49 15.56 89.09 15.71 89.89 15.79 C 92.10 19.61 94.74 23.16 96.81 27.06 C 97.99 23.40 98.46 19.53 99.95 15.96 M 91.16 24.82 C 91.31 29.09 92.46 33.24 92.54 37.51 C 95.59 36.43 98.81 36.29 101.98 36.79 C 107.86 37.84 113.78 36.61 119.68 36.75 C 118.66 33.12 118.35 29.35 118.39 25.60 C 116.82 27.84 115.97 30.58 114.07 32.59 C 113.40 32.45 112.06 32.19 111.39 32.06 C 110.93 29.97 110.49 27.87 110.03 25.78 C 109.04 28.82 109.11 32.26 107.10 34.88 C 102.96 33.04 102.58 28.24 101.73 24.38 C 100.48 27.16 99.85 30.17 98.51 32.91 C 95.59 30.66 93.61 27.52 91.16 24.82 Z" />
<path fill="#ffffff" opacity="1.00" d=" M 136.22 14.31 C 139.32 13.77 137.91 17.76 137.51 19.45 C 136.42 22.29 136.55 28.08 132.13 27.03 L 131.67 26.49 C 133.33 22.48 134.15 18.13 136.22 14.31 Z" />
<path fill="#ffffff" opacity="1.00" d=" M 159.75 52.44 C 162.16 51.93 165.43 56.98 162.02 57.64 C 160.98 57.26 160.03 56.71 159.06 56.21 C 159.26 54.95 159.49 53.69 159.75 52.44 Z" />
<path fill="#ffffff" opacity="1.00" d=" M 133.20 62.23 C 133.84 62.87 133.84 62.87 133.20 62.23 Z" />
<path fill="#ffffff" opacity="1.00" d=" M 137.30 62.16 C 137.98 62.83 137.98 62.83 137.30 62.16 Z" />
<path fill="#ffffff" opacity="1.00" d=" M 130.61 62.28 C 133.69 63.39 133.49 67.59 130.58 68.72 C 130.53 66.58 130.56 64.43 130.61 62.28 Z" />
<path fill="#ffffff" opacity="1.00" d=" M 45.30 78.08 C 48.30 76.44 45.38 81.55 45.30 78.08 Z" />
<path fill="#ffffff" opacity="1.00" d=" M 68.04 99.36 C 69.46 98.07 70.05 100.47 69.02 101.26 C 67.77 102.71 66.82 100.03 68.04 99.36 Z" />
<path fill="#ffffff" opacity="1.00" d=" M 80.10 130.22 C 84.91 121.94 89.36 113.46 94.04 105.10 L 95.41 105.28 C 95.97 105.95 97.10 107.30 97.67 107.98 C 96.71 107.84 94.79 107.55 93.83 107.41 C 94.95 107.79 96.08 108.17 97.21 108.56 C 96.42 109.98 95.62 111.41 94.85 112.85 C 94.56 112.76 93.98 112.57 93.69 112.48 C 93.98 116.02 91.46 118.71 89.87 121.61 C 88.61 121.71 87.35 121.81 86.09 121.95 C 86.72 122.15 87.97 122.54 88.60 122.73 C 86.90 125.43 85.35 128.25 83.46 130.80 C 82.62 130.66 80.94 130.36 80.10 130.22 Z" />
<path fill="#ffffff" opacity="1.00" d=" M 74.70 140.28 C 76.65 137.10 77.74 133.41 80.19 130.55 C 80.89 130.65 82.29 130.84 82.99 130.94 C 81.45 134.34 79.57 137.62 77.28 140.57 C 76.64 140.50 75.35 140.35 74.70 140.28 Z" />
<path fill="#ffffff" opacity="1.00" d=" M 153.30 145.26 C 153.97 145.93 153.97 145.93 153.30 145.26 Z" />
</g>
</svg>
