<?xml version="1.0" encoding="UTF-8" ?>
<!DOCTYPE svg PUBLIC "-//W3C//DTD SVG 1.1//EN" "http://www.w3.org/Graphics/SVG/1.1/DTD/svg11.dtd">
<svg width="128pt" height="128pt" viewBox="0 0 128 128" version="1.1" xmlns="http://www.w3.org/2000/svg">
<g id="#ffffffff">
<path fill="#ffffff" opacity="1.00" d=" M 82.38 18.48 C 85.12 16.78 89.03 15.37 92.08 16.91 C 95.58 20.33 96.35 25.95 100.89 28.47 C 101.66 27.70 102.38 26.87 103.19 26.12 C 106.03 26.38 108.33 28.32 110.90 29.38 C 113.12 27.53 112.12 24.22 114.07 22.22 C 115.25 20.84 116.25 19.04 118.06 18.44 C 120.31 22.14 120.53 26.50 120.50 30.70 C 122.64 40.79 121.15 51.90 115.75 60.77 C 113.90 64.45 109.18 61.31 106.47 63.05 L 106.91 63.99 C 109.75 64.48 112.67 65.04 115.55 64.52 C 115.33 66.78 116.62 69.75 115.12 71.53 C 114.60 71.24 113.55 70.65 113.03 70.36 C 113.46 71.27 113.87 72.18 114.26 73.11 C 114.09 74.23 113.59 75.27 113.28 76.36 C 113.79 76.45 114.81 76.63 115.32 76.71 C 113.71 78.96 111.55 80.86 110.46 83.44 C 107.26 91.49 106.71 100.29 106.48 108.85 C 107.59 110.02 108.87 111.02 110.00 112.16 C 108.59 114.10 106.68 115.85 107.18 118.50 C 108.57 118.16 109.93 117.62 111.38 117.57 C 111.55 118.85 111.65 120.16 111.55 121.46 C 109.15 122.59 106.76 123.72 104.50 125.09 C 102.72 125.60 101.02 126.24 100.13 128.00 L 99.16 128.00 C 98.45 125.33 96.81 123.26 94.40 121.95 C 94.76 120.08 96.06 118.60 96.81 116.89 C 96.19 115.29 94.94 113.83 95.23 112.00 C 95.46 107.36 95.27 102.65 96.19 98.08 C 98.25 91.78 100.62 85.30 100.69 78.62 C 99.04 78.55 97.37 78.47 95.72 78.67 C 92.08 85.30 89.63 92.56 87.94 99.93 C 88.10 102.65 90.13 105.11 89.43 107.99 C 89.92 112.15 86.19 114.84 82.94 116.51 C 77.99 117.32 77.14 110.42 78.90 107.08 C 81.85 102.23 79.94 96.49 80.25 91.20 C 80.74 86.31 77.04 82.23 77.62 77.32 C 75.71 76.16 73.68 75.12 71.56 74.43 C 68.14 80.67 64.04 87.29 64.39 94.66 C 66.89 100.78 72.13 106.41 70.62 113.52 C 69.06 113.60 67.43 113.81 65.93 113.27 C 65.03 111.07 64.42 108.75 63.19 106.70 C 60.06 101.73 58.22 96.10 55.52 90.91 C 56.11 85.81 57.31 80.75 59.14 75.95 C 56.88 75.05 54.56 73.64 52.11 73.71 C 49.75 76.64 47.68 79.84 46.08 83.25 C 47.24 88.43 48.59 93.61 50.30 98.63 C 52.11 99.74 54.26 100.11 56.19 100.99 C 56.94 101.96 57.38 103.29 55.94 103.88 C 51.36 103.73 47.06 101.97 42.94 100.12 C 40.19 94.79 39.61 88.72 37.44 83.19 C 38.55 80.88 40.21 78.75 40.28 76.07 C 40.39 72.85 43.42 70.46 43.28 67.25 C 41.31 66.02 38.61 65.68 37.46 63.41 C 36.11 61.07 34.21 59.08 31.66 58.05 C 30.88 66.16 27.94 73.85 25.55 81.58 C 24.69 83.51 24.55 85.60 24.47 87.68 C 19.87 92.31 15.28 97.16 9.67 100.61 C 6.77 102.41 3.31 102.58 0.00 102.78 L 0.00 97.53 C 4.53 96.04 8.14 92.73 11.70 89.70 C 18.01 82.76 18.19 72.92 20.19 64.25 C 21.28 59.70 21.21 54.71 23.65 50.59 C 26.75 46.62 27.67 41.52 30.30 37.28 C 30.94 35.69 32.85 35.72 34.18 35.02 C 34.98 33.19 34.71 30.72 36.46 29.44 C 41.83 25.42 48.67 24.41 55.13 23.48 C 59.88 22.95 64.89 21.69 69.51 23.60 C 72.24 24.96 75.14 23.72 77.98 23.57 C 79.71 26.38 79.66 29.76 80.25 32.90 C 81.54 32.44 82.78 31.85 84.07 31.36 C 84.44 33.68 84.30 36.03 84.34 38.36 C 86.89 36.98 86.33 33.37 86.91 30.89 C 86.19 26.55 81.60 23.20 82.38 18.48 M 85.25 20.09 C 84.80 21.50 85.25 21.96 86.60 21.48 C 87.07 19.98 86.62 19.52 85.25 20.09 M 92.10 25.28 C 90.53 28.16 95.54 25.41 92.10 25.28 M 72.07 28.07 C 71.61 29.44 72.09 29.90 73.51 29.45 C 73.95 28.04 73.47 27.58 72.07 28.07 M 39.89 43.86 C 37.13 45.74 33.75 47.03 32.03 50.10 C 37.88 47.14 42.89 42.76 48.49 39.34 C 50.35 38.34 51.71 36.71 52.84 34.96 C 49.34 39.03 44.11 40.73 39.89 43.86 M 93.27 38.35 C 92.76 42.42 97.81 43.81 101.02 43.52 C 101.42 42.88 102.21 41.61 102.61 40.98 C 101.18 37.18 96.45 38.15 93.27 38.35 M 109.19 41.12 C 109.95 45.10 117.36 44.60 116.69 40.34 C 115.06 38.13 110.82 39.07 109.19 41.12 M 95.38 54.33 C 94.68 55.91 98.01 57.70 98.69 55.90 C 98.57 54.50 96.52 53.87 95.38 54.33 M 92.74 59.76 C 93.28 61.00 93.78 62.27 94.49 63.43 C 97.56 64.43 100.69 65.22 103.81 66.06 C 106.43 66.92 107.48 69.96 110.01 71.02 C 110.28 69.65 110.82 68.16 110.27 66.80 C 107.38 65.50 104.25 64.86 101.36 63.55 C 99.28 62.65 97.99 60.62 95.98 59.60 C 95.17 59.64 93.55 59.72 92.74 59.76 M 49.93 68.28 C 52.01 70.59 56.49 71.88 57.85 68.15 C 55.39 70.01 52.62 68.69 49.93 68.28 M 104.05 78.99 C 105.35 78.69 106.89 78.92 108.02 78.12 C 108.71 76.48 109.27 74.79 109.68 73.07 C 107.33 74.50 106.04 77.13 104.05 78.99 M 89.13 80.33 C 87.68 81.11 88.91 83.81 90.33 82.46 C 91.63 81.63 90.60 79.13 89.13 80.33 Z" />
</g>
</svg>
