<?xml version="1.0" encoding="UTF-8" ?>
<!DOCTYPE svg PUBLIC "-//W3C//DTD SVG 1.1//EN" "http://www.w3.org/Graphics/SVG/1.1/DTD/svg11.dtd">
<svg width="128pt" height="128pt" viewBox="0 0 128 128" version="1.1" xmlns="http://www.w3.org/2000/svg">
<g id="#ffffffff">
<path fill="#ffffff" opacity="1.00" d=" M 36.61 11.64 C 41.36 9.66 46.87 11.04 51.06 13.74 C 49.85 14.51 48.64 15.27 47.40 15.99 C 47.90 16.14 48.40 16.28 48.89 16.43 C 49.84 15.92 50.79 15.42 51.75 14.93 C 53.22 17.23 54.89 19.40 56.40 21.68 C 57.93 24.37 57.95 28.07 55.21 29.99 C 56.20 29.63 57.20 29.28 58.20 28.94 C 57.81 31.01 57.27 33.06 57.05 35.16 C 57.03 38.15 58.37 40.96 58.38 43.96 C 58.58 50.16 58.80 56.39 58.24 62.58 C 59.48 61.71 60.57 60.48 62.08 60.11 C 64.95 60.85 67.33 63.06 70.37 63.31 C 73.21 63.53 76.12 63.82 78.77 64.95 C 79.98 65.90 80.79 67.32 82.13 68.11 C 88.53 71.22 95.62 72.26 102.50 73.78 C 105.94 74.81 109.36 73.07 112.84 73.21 C 114.02 73.84 114.98 74.80 116.03 75.61 C 119.97 74.68 123.99 74.17 128.00 73.66 L 128.00 74.68 C 127.21 77.45 124.55 78.79 122.39 80.36 C 116.73 84.56 110.89 88.77 104.12 90.97 C 103.89 92.13 103.68 93.29 103.47 94.46 C 102.42 94.12 101.39 93.76 100.35 93.42 C 100.54 94.59 100.74 95.76 100.94 96.93 C 98.44 98.07 95.90 99.23 93.15 99.58 C 92.48 100.94 91.82 102.31 91.16 103.68 C 89.56 103.08 87.94 102.00 86.16 102.36 C 83.72 102.65 82.20 104.77 80.57 106.37 C 82.08 106.00 83.60 105.61 85.18 105.70 C 83.61 107.22 81.61 108.23 79.42 107.48 C 77.47 106.74 75.97 108.21 74.54 109.29 C 73.75 108.82 72.96 108.35 72.17 107.88 C 70.75 108.83 69.32 109.78 67.90 110.72 C 67.26 110.12 66.64 109.52 66.01 108.92 C 65.04 109.23 64.07 109.58 63.05 109.74 C 53.73 109.08 44.72 105.91 36.57 101.43 C 33.86 99.03 31.62 96.06 29.79 92.95 C 30.36 87.94 30.36 82.63 33.36 78.32 C 33.63 73.22 36.10 68.64 37.34 63.77 C 38.12 60.48 39.47 57.37 40.98 54.36 C 43.98 53.73 46.25 51.58 48.25 49.40 C 46.27 51.04 44.27 52.67 42.03 53.96 C 37.58 52.40 37.84 47.25 36.87 43.45 C 33.31 46.43 30.26 49.99 26.71 52.98 C 21.87 53.80 16.59 54.44 11.98 52.26 C 14.52 49.05 17.33 46.06 20.59 43.57 C 24.38 40.64 26.31 36.06 29.93 32.95 C 29.13 32.29 28.34 31.63 27.54 30.97 C 29.38 26.38 31.66 21.95 33.11 17.21 C 33.86 15.16 34.67 12.86 36.61 11.64 M 39.23 22.27 C 38.78 23.89 38.56 25.56 38.43 27.23 C 39.81 27.45 41.19 27.71 42.49 28.23 C 43.15 27.08 43.85 25.94 44.53 24.80 C 44.46 24.25 44.30 23.14 44.23 22.59 C 42.57 22.42 40.90 22.33 39.23 22.27 M 18.27 47.26 C 18.89 47.88 18.89 47.88 18.27 47.26 M 18.42 49.14 C 17.69 49.34 15.49 50.60 17.04 51.28 C 18.31 51.41 19.43 51.08 20.41 50.27 C 21.50 48.93 19.24 48.25 18.42 49.14 M 42.13 65.22 C 44.26 63.52 44.57 60.91 44.42 58.35 C 42.86 60.27 42.80 62.92 42.13 65.22 M 45.94 59.99 C 48.08 63.57 47.20 67.85 47.49 71.82 C 47.71 71.79 48.13 71.72 48.34 71.68 C 48.32 69.37 48.42 67.06 48.34 64.75 C 48.84 64.26 49.84 63.30 50.34 62.82 C 48.85 61.92 47.39 60.96 45.94 59.99 M 44.24 65.35 C 43.83 66.78 44.29 67.32 45.64 66.96 C 46.07 65.53 45.61 65.00 44.24 65.35 M 50.58 71.01 C 53.16 75.16 49.53 80.00 51.25 84.34 C 51.97 87.20 51.42 90.16 51.60 93.07 C 53.24 90.68 53.49 87.39 53.25 84.55 C 52.20 80.34 52.36 76.00 52.38 71.71 C 51.93 71.53 51.03 71.18 50.58 71.01 M 36.07 73.47 C 35.63 74.87 36.11 75.35 37.52 74.92 C 37.95 73.54 37.46 73.05 36.07 73.47 M 120.33 77.05 C 119.47 77.14 117.23 78.49 119.01 79.12 C 120.25 79.28 121.37 78.97 122.36 78.18 C 123.45 76.91 121.10 76.39 120.33 77.05 M 113.36 78.23 C 113.01 78.50 112.31 79.05 111.96 79.32 C 111.39 81.64 114.76 80.19 115.43 79.17 C 116.59 77.76 114.10 77.37 113.36 78.23 M 47.30 88.90 C 47.34 91.88 47.29 94.86 47.30 97.84 C 47.62 97.82 48.26 97.78 48.58 97.77 C 48.64 95.49 48.27 93.09 49.36 90.99 C 48.67 90.30 47.99 89.60 47.30 88.90 M 43.25 101.24 C 43.81 101.81 43.81 101.81 43.25 101.24 Z" />
</g>
</svg>
