<?xml version="1.0" encoding="UTF-8" ?>
<!DOCTYPE svg PUBLIC "-//W3C//DTD SVG 1.1//EN" "http://www.w3.org/Graphics/SVG/1.1/DTD/svg11.dtd">
<svg width="200pt" height="200pt" viewBox="0 0 200 200" version="1.1" xmlns="http://www.w3.org/2000/svg">
<g id="#ffffffff">
<path fill="#ffffff" opacity="1.00" d=" M 33.41 21.96 C 33.74 20.35 36.29 21.01 37.04 21.97 C 42.99 27.54 49.38 32.62 55.35 38.17 C 53.67 34.99 50.80 32.71 48.43 30.06 C 48.89 29.44 49.80 28.20 50.25 27.57 C 52.84 29.34 54.89 31.70 57.09 33.90 C 73.81 50.25 89.53 67.58 104.28 85.73 C 105.41 87.28 107.49 89.45 109.36 87.51 C 116.28 73.43 123.10 59.25 128.70 44.60 C 131.62 39.48 132.15 33.43 134.92 28.26 C 135.43 28.69 136.43 29.55 136.94 29.97 C 135.44 36.85 132.85 43.42 131.17 50.24 C 133.35 47.68 134.02 44.37 135.33 41.37 C 137.39 39.44 139.92 38.00 142.06 36.12 C 143.57 32.78 144.87 29.35 146.49 26.07 C 147.47 26.26 148.46 26.46 149.46 26.65 C 141.38 47.23 133.28 67.88 122.76 87.37 C 129.60 87.40 136.45 87.79 143.21 88.79 C 144.52 88.84 145.25 90.12 146.20 90.83 C 155.22 87.94 164.90 90.18 173.77 92.54 C 174.23 95.94 170.44 98.15 171.46 101.54 C 172.97 102.64 175.11 102.87 175.44 105.14 C 173.37 104.62 171.36 103.85 169.59 102.66 C 167.38 103.75 164.97 104.84 162.44 104.44 C 162.92 103.07 163.38 101.70 163.83 100.32 C 160.51 102.27 159.76 106.10 157.79 109.10 C 162.37 112.94 168.60 115.60 174.55 113.82 C 177.00 112.27 179.38 110.50 182.36 110.13 C 184.93 108.87 187.35 107.21 189.68 105.53 C 184.99 106.59 180.43 108.24 175.65 108.90 C 174.93 105.26 180.06 105.47 180.78 102.35 C 182.85 102.87 184.97 103.01 187.06 102.47 C 189.63 101.65 192.05 103.09 194.49 103.68 C 193.67 101.60 191.25 101.49 189.41 100.90 C 186.08 100.06 182.87 98.83 179.79 97.32 C 179.35 98.86 178.83 100.38 178.20 101.86 C 176.21 101.44 174.03 101.56 172.17 100.70 C 171.14 97.49 175.00 96.72 177.33 96.15 C 177.36 95.04 177.41 93.92 177.47 92.81 C 182.76 95.26 188.47 96.58 193.78 98.99 C 195.37 99.86 197.22 99.60 198.96 99.73 C 198.81 101.34 198.68 102.95 198.55 104.57 C 190.87 110.06 182.08 113.53 173.51 117.30 C 171.50 117.79 169.43 118.04 167.39 118.41 C 165.44 123.45 161.36 127.18 158.95 131.96 C 157.19 134.82 154.56 137.01 152.00 139.12 C 149.52 136.49 146.42 134.85 142.72 135.30 C 142.83 132.88 142.60 130.48 141.61 128.25 C 143.00 126.87 144.24 125.34 145.41 123.77 C 141.93 123.64 138.42 123.59 135.08 124.69 C 140.11 131.72 145.22 138.68 150.46 145.56 C 154.11 151.77 159.06 157.09 162.70 163.31 C 164.29 165.92 167.19 168.01 166.47 171.45 C 165.04 171.51 163.95 170.96 163.20 169.80 C 161.16 167.10 159.34 164.24 157.48 161.41 C 156.38 161.25 155.28 161.23 154.17 161.36 C 156.44 164.17 159.18 166.75 160.44 170.23 C 156.38 167.94 154.52 163.35 151.36 160.12 C 152.27 160.31 154.11 160.70 155.02 160.89 C 150.19 157.01 146.46 152.08 142.70 147.21 C 138.14 139.40 132.66 132.22 126.98 125.20 C 121.46 127.36 115.53 126.06 109.88 125.28 C 110.02 128.96 107.97 132.12 106.23 135.19 C 103.19 140.25 97.06 144.16 91.08 141.76 C 85.29 151.95 79.35 162.08 72.53 171.63 C 70.47 174.29 69.32 178.73 65.33 178.84 C 65.32 177.31 65.36 175.78 65.45 174.26 C 65.04 174.76 64.24 175.75 63.83 176.25 C 62.59 172.99 65.11 170.10 66.29 167.25 C 68.59 163.32 70.16 158.83 73.29 155.47 C 73.96 155.41 75.30 155.28 75.97 155.22 C 73.63 158.76 71.07 162.17 69.06 165.92 C 76.61 157.09 81.81 146.68 87.93 136.89 C 87.30 136.66 86.02 136.21 85.38 135.99 C 85.78 136.48 86.56 137.46 86.96 137.95 C 82.84 143.01 80.34 149.19 76.12 154.16 C 75.37 154.45 73.87 155.01 73.12 155.29 C 77.98 145.04 84.14 135.45 89.32 125.36 C 82.37 126.12 75.39 125.67 68.73 123.44 C 69.24 122.81 70.27 121.55 70.78 120.92 C 69.16 121.98 67.41 122.81 65.67 123.65 C 63.02 125.71 60.87 128.35 58.07 130.25 C 54.14 133.14 51.20 137.64 46.23 138.84 C 46.65 137.19 46.44 135.07 48.10 134.04 C 53.12 130.63 57.44 126.33 61.96 122.30 C 62.74 122.29 64.31 122.27 65.10 122.25 C 60.97 121.53 56.76 121.74 52.61 121.15 C 48.19 125.78 44.43 130.92 40.81 136.21 C 45.18 133.12 47.55 128.03 51.90 124.92 C 53.24 124.38 54.71 124.40 56.11 124.14 C 52.59 128.87 46.26 131.96 45.67 138.38 C 45.53 141.06 42.05 140.86 40.15 140.51 C 40.45 140.04 41.07 139.10 41.37 138.62 C 38.51 137.26 36.12 134.42 35.40 131.33 C 37.84 126.68 41.37 122.69 45.51 119.49 C 42.53 117.74 39.30 116.36 36.01 115.33 C 32.11 116.53 28.46 118.78 24.29 118.86 C 22.75 119.69 21.49 120.96 20.07 121.97 C 19.64 120.56 19.46 119.08 18.88 117.72 C 20.79 117.51 22.71 117.29 24.53 116.65 C 24.28 112.81 24.55 108.96 25.08 105.15 C 24.34 105.18 22.87 105.25 22.14 105.28 C 22.55 107.21 23.07 109.12 23.49 111.05 C 22.24 110.55 21.00 110.04 19.75 109.53 C 20.58 111.57 23.48 113.22 22.52 115.64 C 20.03 117.02 16.96 117.10 14.24 117.90 C 14.35 116.24 14.50 114.58 14.67 112.92 C 12.96 113.62 11.26 114.36 9.62 115.22 C 11.62 115.26 14.15 114.66 14.25 117.49 C 10.85 118.95 7.18 117.95 3.69 118.85 C 7.86 122.63 13.58 120.29 17.94 118.20 C 18.13 119.56 19.04 120.90 18.69 122.29 C 14.70 123.52 10.43 125.52 6.22 124.05 C 4.31 123.26 1.17 122.79 1.44 120.07 C 3.78 114.70 9.26 111.77 12.53 107.04 C 5.99 104.45 2.13 97.79 1.05 91.11 C 1.58 90.11 2.17 89.16 2.84 88.25 C 6.30 89.97 10.29 88.76 13.75 90.41 C 19.86 91.69 24.88 95.43 30.40 98.05 C 30.40 99.58 30.46 101.12 30.64 102.65 C 37.32 100.05 44.64 100.36 51.66 100.80 C 53.61 99.59 55.42 98.16 57.27 96.80 C 54.20 94.46 51.94 99.09 48.90 99.37 C 42.74 100.04 35.12 100.59 30.79 95.22 C 27.84 92.64 27.14 88.71 27.57 84.98 C 28.21 85.19 29.51 85.61 30.16 85.83 C 29.78 86.96 29.42 88.10 29.06 89.24 C 30.30 88.74 31.52 88.22 32.75 87.72 C 32.31 88.77 31.88 89.81 31.44 90.85 C 32.74 92.16 33.91 93.61 35.36 94.76 C 38.22 95.49 41.12 96.04 43.98 96.75 C 43.36 95.42 42.75 94.09 42.15 92.76 C 41.11 93.11 40.07 93.47 39.03 93.83 C 37.80 92.34 36.30 91.26 34.28 91.50 C 34.56 90.82 34.84 90.14 35.12 89.46 C 36.39 89.60 37.67 89.72 38.95 89.80 C 36.19 87.45 32.88 85.93 29.87 83.95 C 29.81 83.60 29.69 82.91 29.63 82.56 C 33.40 80.14 38.27 79.62 42.51 80.94 C 40.38 82.87 37.45 83.03 34.81 83.72 C 38.92 86.26 43.29 88.29 47.56 90.54 C 47.14 91.01 46.30 91.95 45.88 92.41 C 43.71 91.46 41.70 90.15 39.41 89.50 C 40.63 91.64 43.21 91.92 45.27 92.82 C 45.51 94.60 46.23 96.26 46.80 97.95 C 47.77 96.75 48.83 95.63 49.92 94.54 C 48.55 94.53 47.19 94.50 45.83 94.46 C 46.42 93.05 47.07 91.66 47.71 90.28 C 50.49 91.87 54.13 93.65 56.96 91.11 C 51.50 87.52 45.22 85.82 39.31 83.26 C 40.83 82.57 42.27 81.65 43.91 81.26 C 47.64 83.22 51.55 84.80 55.37 86.56 C 57.34 87.14 57.78 89.30 58.61 90.90 C 58.62 90.20 58.63 88.80 58.64 88.10 C 59.81 88.90 61.00 89.67 62.21 90.42 C 66.90 89.30 71.72 89.45 76.50 89.34 C 82.91 88.83 89.33 88.46 95.76 88.33 C 95.66 87.33 95.47 85.33 95.37 84.32 C 97.05 85.68 98.70 87.10 100.63 88.09 C 96.79 83.12 92.66 78.17 87.88 74.08 C 87.46 74.76 86.64 76.14 86.23 76.83 C 82.81 70.43 76.29 66.52 72.46 60.39 C 75.15 60.71 75.86 63.88 78.44 64.55 C 77.48 62.65 76.01 61.10 74.65 59.47 C 72.64 59.96 70.43 59.76 69.12 57.94 C 65.51 53.26 60.65 49.79 56.57 45.56 C 56.24 44.17 56.15 42.74 55.97 41.33 C 55.36 41.94 54.76 42.55 54.16 43.16 C 49.25 37.93 43.62 33.44 38.80 28.13 C 36.95 26.15 34.05 24.81 33.41 21.96 M 55.99 38.41 C 54.33 41.24 59.39 38.70 55.99 38.41 M 63.19 49.16 C 63.83 49.81 63.83 49.81 63.19 49.16 M 129.96 51.45 C 129.48 52.86 129.93 53.39 131.31 53.04 C 131.80 51.64 131.35 51.11 129.96 51.45 M 72.14 57.29 C 72.77 57.93 72.77 57.93 72.14 57.29 M 126.21 63.25 C 126.85 63.82 126.85 63.82 126.21 63.25 M 78.31 64.50 C 79.33 67.41 82.10 68.99 84.62 70.44 C 82.84 68.15 80.60 66.26 78.31 64.50 M 85.19 71.20 C 84.95 72.40 85.65 74.08 86.89 74.45 C 88.66 73.83 86.48 70.77 85.19 71.20 M 120.06 72.16 C 117.88 77.63 114.60 82.63 112.82 88.29 C 113.49 88.11 114.84 87.75 115.51 87.57 C 117.50 82.97 120.08 78.43 120.31 73.31 C 120.94 73.28 122.19 73.23 122.82 73.21 C 121.90 72.87 120.98 72.52 120.06 72.16 M 3.66 91.27 C 5.43 94.13 6.74 97.43 9.21 99.78 C 14.43 102.07 20.36 101.71 25.88 102.91 C 26.52 101.82 27.18 100.73 27.84 99.65 C 24.25 100.47 22.20 97.18 19.36 95.74 C 14.65 92.73 8.90 92.72 3.66 91.27 M 85.28 95.26 C 87.28 94.40 89.11 93.15 89.94 91.06 C 87.85 91.76 86.31 93.34 85.28 95.26 M 58.84 102.73 C 56.87 102.37 54.52 102.97 53.11 101.17 C 52.58 102.01 52.06 102.86 51.54 103.71 C 45.82 103.39 40.15 104.64 34.42 104.46 C 30.72 106.63 28.44 110.78 27.39 114.84 C 28.51 113.59 29.63 112.33 30.61 110.96 C 31.91 111.53 33.23 112.07 34.56 112.60 C 33.57 111.44 32.51 110.35 31.37 109.35 C 31.49 108.92 31.71 108.07 31.83 107.65 C 33.77 111.51 38.25 110.54 41.81 110.89 C 41.74 111.80 41.67 112.71 41.60 113.62 C 44.45 114.19 47.28 114.89 49.94 116.07 C 56.61 118.70 63.84 118.78 70.81 119.83 C 76.54 122.30 82.86 121.51 88.92 121.55 C 90.14 121.61 91.50 121.26 92.21 120.17 C 93.98 117.47 95.20 114.46 96.82 111.68 C 95.68 111.20 94.53 110.73 93.39 110.25 C 94.09 109.25 94.78 108.23 95.44 107.20 C 96.20 108.15 96.97 109.09 97.77 110.01 C 99.21 107.06 100.70 104.11 101.65 100.96 C 100.67 100.35 99.71 99.71 98.77 99.05 C 97.78 100.29 96.67 101.42 95.39 102.37 C 93.19 104.51 89.18 103.70 88.11 107.10 C 90.26 109.42 92.67 111.51 94.53 114.07 C 90.27 113.95 88.43 109.74 87.06 106.35 C 90.56 103.70 93.08 99.95 96.75 97.49 C 98.71 96.34 99.81 94.30 100.91 92.40 C 95.74 96.41 91.01 101.06 85.61 104.71 C 85.58 103.14 85.58 101.58 85.60 100.01 C 83.98 101.71 82.33 103.39 80.67 105.05 C 79.67 104.77 78.67 104.46 77.69 104.14 C 79.36 100.58 82.97 98.69 85.19 95.57 C 80.96 97.45 79.00 102.69 74.11 103.38 C 75.03 98.71 79.28 96.04 82.17 92.66 C 78.67 94.85 76.27 98.33 73.05 100.87 C 71.90 100.23 70.74 99.61 69.56 99.02 C 70.65 100.00 71.81 100.89 72.94 101.83 C 71.46 102.88 69.97 103.90 68.41 104.83 C 68.50 103.89 68.69 102.03 68.79 101.09 C 67.47 102.21 66.10 103.26 64.72 104.31 C 64.08 102.71 63.58 101.05 63.18 99.37 C 65.31 97.99 67.03 94.64 69.83 95.15 C 69.77 96.17 69.65 97.18 69.48 98.18 C 69.95 97.66 70.43 97.13 70.90 96.61 C 70.73 95.17 70.60 93.74 70.36 92.32 C 65.69 94.76 61.86 98.45 58.84 102.73 M 119.50 94.58 C 118.62 95.87 117.72 97.14 116.88 98.45 C 120.74 96.90 124.84 95.59 128.21 93.09 C 125.27 93.46 122.52 95.00 119.50 94.58 M 166.32 94.20 C 164.49 94.49 164.79 97.84 166.86 96.83 C 169.09 96.59 168.47 93.43 166.32 94.20 M 102.03 96.33 C 100.55 96.67 101.31 99.08 102.73 98.46 C 104.24 98.11 103.42 95.79 102.03 96.33 M 131.30 96.43 C 130.99 96.71 130.38 97.26 130.07 97.53 C 130.53 99.30 132.94 97.01 134.02 96.80 C 135.45 95.28 131.82 95.48 131.30 96.43 M 125.02 96.82 C 125.43 98.42 126.21 99.89 127.01 101.33 C 123.73 100.30 120.28 100.48 116.89 100.43 C 118.21 102.52 119.42 104.67 120.76 106.74 C 121.40 106.26 122.69 105.30 123.34 104.82 C 122.94 105.90 122.52 106.98 122.09 108.05 C 123.19 109.36 124.20 110.75 125.18 112.16 C 126.98 110.92 128.29 109.19 129.55 107.44 C 129.62 108.87 129.70 110.30 129.84 111.73 C 128.51 112.19 127.20 112.70 125.91 113.24 C 128.07 115.91 130.45 118.42 132.22 121.38 C 136.74 121.40 142.19 118.38 146.00 121.84 C 151.45 120.55 156.60 118.14 162.19 117.40 C 162.21 116.44 162.24 115.47 162.29 114.51 C 160.29 113.76 157.69 113.59 156.57 111.47 C 155.97 110.07 155.45 108.61 155.29 107.09 C 155.28 103.20 158.49 100.41 160.49 97.38 C 158.39 97.20 156.30 96.93 154.23 96.56 C 154.24 97.44 154.27 99.20 154.28 100.08 C 152.10 102.08 149.39 103.35 147.01 105.07 C 145.19 106.72 143.62 109.10 140.81 108.78 C 142.98 105.52 146.10 103.02 149.13 100.59 C 147.87 100.57 146.62 100.54 145.37 100.51 C 144.54 101.91 143.79 103.36 143.03 104.80 C 141.40 104.50 139.78 104.18 138.16 103.82 C 138.60 104.89 139.05 105.96 139.51 107.03 C 138.99 106.86 137.97 106.52 137.46 106.35 C 137.79 104.81 137.38 102.89 138.73 101.77 C 140.62 100.18 143.05 99.50 145.24 98.44 C 139.65 99.61 132.36 100.16 129.63 106.01 C 129.37 104.23 129.74 102.34 129.23 100.61 C 127.98 99.19 126.68 97.76 125.02 96.82 M 163.35 97.82 C 162.99 99.24 163.48 99.77 164.84 99.41 C 165.20 97.99 164.70 97.46 163.35 97.82 M 141.18 102.20 C 141.81 102.83 141.81 102.83 141.18 102.20 M 29.18 104.40 C 27.60 107.25 32.63 104.58 29.18 104.40 M 31.23 104.28 C 31.86 104.89 31.86 104.89 31.23 104.28 M 18.26 105.12 C 16.61 105.40 17.14 108.20 18.82 107.51 C 20.43 107.19 19.95 104.43 18.26 105.12 M 104.70 105.28 C 102.02 109.62 100.08 114.36 98.04 119.03 C 97.20 119.77 96.31 120.44 95.36 121.05 C 96.15 121.31 96.93 121.57 97.72 121.84 C 101.06 116.91 101.86 110.86 105.30 106.02 C 105.15 105.83 104.85 105.46 104.70 105.28 M 112.20 106.53 C 109.30 111.30 106.58 116.19 103.38 120.77 C 107.78 121.17 112.35 120.73 116.58 122.26 C 119.37 123.27 122.34 122.63 125.22 122.46 C 120.63 117.35 116.83 111.59 112.20 106.53 M 16.71 113.18 C 16.52 114.62 19.05 114.53 19.65 113.63 C 19.92 112.09 17.35 112.33 16.71 113.18 M 162.78 115.25 C 162.86 115.60 163.03 116.31 163.11 116.66 C 165.35 117.93 164.57 112.96 162.78 115.25 M 46.37 118.72 C 46.50 119.74 46.64 120.76 46.79 121.78 C 44.92 124.44 41.73 126.45 41.36 129.88 C 44.05 126.82 46.96 123.96 49.90 121.13 C 48.72 120.33 47.55 119.52 46.37 118.72 M 102.57 125.30 C 99.24 129.68 96.00 134.11 92.83 138.61 C 95.21 138.29 97.61 138.24 100.00 137.94 C 99.14 137.84 97.42 137.64 96.57 137.54 C 99.53 132.94 103.59 129.22 107.21 125.16 C 105.66 125.21 104.12 125.27 102.57 125.30 M 148.24 125.24 C 148.81 125.81 148.81 125.81 148.24 125.24 M 145.44 128.07 C 144.53 128.50 143.17 130.66 144.79 131.01 C 146.63 131.27 147.98 127.01 145.44 128.07 M 150.43 132.96 C 150.77 133.49 151.46 134.56 151.80 135.09 C 152.83 133.78 153.91 132.50 155.04 131.27 C 153.54 131.93 152.01 132.52 150.43 132.96 Z" />
<path fill="#ffffff" opacity="1.00" d=" M 160.14 67.01 C 162.12 64.66 162.37 61.13 165.05 59.18 C 167.89 61.12 168.73 64.55 169.94 67.56 C 171.85 64.86 173.37 61.08 177.26 61.10 C 178.21 63.41 178.46 65.89 178.60 68.36 C 179.83 67.00 181.06 65.65 182.32 64.31 C 183.41 64.33 184.50 64.36 185.59 64.39 C 185.97 68.94 185.12 73.47 185.16 78.02 C 185.22 80.41 182.60 81.35 180.98 82.54 C 173.44 82.84 165.88 82.28 158.33 82.27 C 154.75 81.54 154.19 77.10 154.00 74.07 C 153.94 69.54 152.75 64.90 153.92 60.44 C 156.69 61.89 158.17 64.73 160.14 67.01 M 167.52 71.65 C 166.79 69.86 166.10 68.05 165.35 66.26 C 164.15 68.02 163.24 69.94 162.33 71.86 C 161.01 71.71 159.70 71.55 158.39 71.34 C 158.58 70.63 158.95 69.20 159.13 68.49 C 156.67 71.52 158.36 75.26 158.49 78.72 C 165.76 78.68 173.02 78.87 180.28 78.74 C 180.31 76.55 180.47 74.37 180.64 72.19 C 179.37 73.07 178.10 73.95 176.83 74.83 C 174.36 72.23 174.22 68.55 176.27 65.65 C 173.66 68.08 171.84 72.86 167.52 71.65 Z" />
<path fill="#ffffff" opacity="1.00" d=" M 88.00 76.75 C 90.83 78.50 93.30 80.85 94.92 83.79 C 91.69 82.95 88.55 80.13 88.00 76.75 Z" />
<path fill="#ffffff" opacity="1.00" d=" M 8.08 95.54 C 11.87 97.03 15.84 97.69 19.90 97.85 C 22.03 97.68 23.50 99.41 24.89 100.74 C 19.43 100.61 14.10 99.33 8.74 98.46 C 8.57 97.73 8.24 96.27 8.08 95.54 Z" />
<path fill="#ffffff" opacity="1.00" d=" M 98.57 100.86 C 101.23 100.11 100.38 104.36 98.23 104.18 C 96.78 103.62 97.53 101.47 98.57 100.86 Z" />
<path fill="#ffffff" opacity="1.00" d=" M 124.33 103.33 C 127.69 103.61 122.68 106.25 124.33 103.33 Z" />
<path fill="#ffffff" opacity="1.00" d=" M 127.24 104.25 C 128.85 103.69 129.29 106.50 127.75 106.78 C 125.99 107.36 125.73 104.66 127.24 104.25 Z" />
<path fill="#ffffff" opacity="1.00" d=" M 146.43 110.32 C 148.76 107.82 150.82 104.89 154.14 103.60 C 152.76 106.43 150.51 108.66 148.81 111.26 C 149.97 112.23 151.09 113.23 152.18 114.27 C 150.26 113.85 148.32 113.54 146.35 113.56 C 146.40 112.48 146.43 111.40 146.43 110.32 Z" />
<path fill="#ffffff" opacity="1.00" d=" M 133.24 105.22 C 133.84 105.82 133.84 105.82 133.24 105.22 Z" />
<path fill="#ffffff" opacity="1.00" d=" M 91.44 105.84 C 92.79 104.71 94.64 107.08 93.42 108.28 C 92.00 109.70 90.77 106.99 91.44 105.84 Z" />
<path fill="#ffffff" opacity="1.00" d=" M 133.92 107.45 C 135.16 106.78 136.21 108.93 135.37 109.78 C 134.13 110.33 132.87 108.33 133.92 107.45 Z" />
<path fill="#ffffff" opacity="1.00" d=" M 129.24 114.76 C 130.36 113.25 131.59 111.82 132.85 110.43 C 133.24 111.16 133.64 111.89 134.05 112.61 C 132.87 113.73 131.83 114.97 130.89 116.30 C 130.48 115.92 129.65 115.15 129.24 114.76 Z" />
</g>
</svg>
