<?xml version="1.0" encoding="UTF-8" ?>
<!DOCTYPE svg PUBLIC "-//W3C//DTD SVG 1.1//EN" "http://www.w3.org/Graphics/SVG/1.1/DTD/svg11.dtd">
<svg width="128pt" height="64pt" viewBox="0 0 128 64" version="1.1" xmlns="http://www.w3.org/2000/svg">
<g id="#ffffffff">
<path fill="#ffffff" opacity="1.00" d=" M 42.03 3.03 C 45.24 1.78 48.73 2.41 52.05 1.70 C 55.85 0.67 59.24 3.99 63.04 2.89 C 70.25 1.68 77.32 4.01 84.48 4.46 C 91.17 6.66 98.52 7.01 104.70 10.58 C 104.24 14.68 104.62 18.81 104.95 22.90 C 106.61 25.74 108.10 28.67 109.45 31.67 C 114.85 30.90 119.85 36.52 118.71 41.81 C 116.41 43.52 114.28 40.84 112.47 39.61 C 108.68 35.97 105.72 31.48 101.64 28.12 C 101.57 26.61 101.45 25.11 101.28 23.61 C 98.27 30.13 103.51 36.55 106.33 42.07 C 106.49 47.91 106.04 53.77 106.71 59.59 C 103.49 60.76 100.07 60.51 96.95 59.15 C 98.80 54.57 103.52 50.69 102.67 45.35 C 99.41 40.80 94.68 37.04 92.84 31.63 C 89.27 36.38 90.84 42.26 90.54 47.71 C 88.51 51.05 88.57 55.34 85.94 58.33 C 85.33 58.36 84.11 58.43 83.50 58.47 C 84.74 54.87 85.28 50.65 88.18 47.93 C 86.93 46.76 85.65 45.64 84.31 44.59 C 84.14 41.76 84.19 38.93 84.31 36.11 C 82.62 36.45 80.92 36.72 79.22 37.01 C 79.46 39.04 79.96 41.32 77.50 42.05 C 77.12 40.14 76.82 38.21 76.58 36.27 C 68.32 39.76 59.29 37.82 50.65 37.82 C 52.78 39.33 53.69 41.85 54.92 44.04 C 55.50 45.30 55.94 46.97 55.07 48.21 C 53.10 51.33 52.21 55.01 49.95 57.97 C 48.46 59.05 46.55 59.23 44.84 59.78 C 45.89 59.72 47.99 59.59 49.04 59.52 C 48.26 62.06 45.01 61.42 42.99 62.06 C 42.96 58.42 45.52 55.68 47.73 53.07 C 46.18 51.98 44.08 51.04 43.94 48.87 C 43.18 46.52 43.62 41.60 39.83 42.67 C 40.29 47.63 38.59 52.35 37.14 57.01 C 36.48 59.24 34.70 60.83 32.85 62.11 C 32.21 60.04 30.88 57.17 33.93 56.39 C 32.44 51.74 35.15 47.43 35.64 42.89 C 33.01 43.31 30.44 44.00 27.94 44.92 C 27.41 44.46 26.35 43.54 25.81 43.08 C 26.49 44.13 27.18 45.18 27.87 46.22 C 25.97 47.10 23.93 47.48 21.84 47.49 C 21.48 46.24 21.09 45.00 20.55 43.81 C 20.75 45.91 21.23 47.96 21.48 50.04 C 20.98 49.94 19.96 49.74 19.46 49.63 C 18.36 46.27 18.81 42.70 18.07 39.29 C 16.31 39.38 14.56 39.44 12.79 39.45 C 9.61 33.27 10.22 26.01 11.51 19.39 C 12.88 15.74 16.13 13.17 19.39 11.24 C 21.50 11.03 23.61 11.74 25.70 11.45 C 27.65 10.28 28.64 8.13 29.83 6.29 C 31.10 6.40 32.37 6.52 33.65 6.64 C 33.54 5.92 33.32 4.48 33.22 3.76 C 36.02 1.87 39.12 4.16 42.03 3.03 M 81.31 18.93 C 79.31 19.95 81.17 22.45 82.85 21.17 C 84.91 20.31 82.88 17.58 81.31 18.93 M 91.15 19.55 C 89.87 20.58 91.07 23.50 92.77 22.60 C 94.15 21.59 92.82 18.66 91.15 19.55 M 56.63 26.57 C 62.12 29.79 68.68 30.34 74.20 33.41 C 69.59 28.70 62.86 27.51 56.63 26.57 Z" />
</g>
</svg>
