<?xml version="1.0" encoding="UTF-8" ?>
<!DOCTYPE svg PUBLIC "-//W3C//DTD SVG 1.1//EN" "http://www.w3.org/Graphics/SVG/1.1/DTD/svg11.dtd">
<svg width="200pt" height="200pt" viewBox="0 0 200 200" version="1.1" xmlns="http://www.w3.org/2000/svg">
<g id="#ffffffff">
<path fill="#ffffff" opacity="1.00" d=" M 26.37 79.03 C 27.52 76.03 31.31 76.08 33.97 75.62 C 39.33 75.51 44.99 74.69 50.05 76.97 C 52.70 78.18 55.70 78.65 58.10 80.37 C 62.32 79.35 66.71 79.23 71.01 78.60 C 77.60 79.75 84.12 81.38 90.78 82.06 C 101.23 85.17 111.46 89.60 122.46 90.40 C 128.17 90.87 133.60 92.77 139.11 94.18 C 141.91 94.07 144.76 94.33 147.33 95.55 C 155.41 99.03 163.57 102.88 170.18 108.80 C 172.61 112.14 176.76 113.02 180.35 114.55 C 185.83 116.58 190.62 120.13 194.94 123.98 C 193.32 124.98 191.65 125.88 189.96 126.75 C 176.78 120.49 162.42 117.68 148.35 114.20 C 145.92 114.16 148.39 111.69 149.20 111.13 C 158.64 111.50 167.32 115.65 176.42 117.72 C 173.53 115.13 169.49 114.25 167.04 111.09 C 166.09 111.84 165.12 112.56 164.12 113.25 C 162.32 111.43 163.49 109.66 164.91 108.10 C 163.52 107.09 162.22 105.92 160.61 105.27 C 154.45 102.59 148.45 99.46 142.00 97.52 C 138.52 100.89 133.36 100.68 128.88 101.31 C 129.76 98.50 132.76 98.01 135.16 97.14 C 133.13 95.71 130.68 96.54 128.42 96.67 C 127.38 98.23 126.23 99.71 125.06 101.16 C 123.26 99.99 121.50 98.77 119.78 97.47 C 121.65 96.64 123.60 95.91 125.24 94.65 C 123.23 94.21 121.21 93.83 119.17 93.56 C 118.96 95.27 118.76 96.98 118.56 98.69 C 117.05 99.20 115.45 99.77 114.47 98.06 C 114.84 96.64 115.39 95.28 115.89 93.90 C 114.17 93.35 112.44 92.82 110.72 92.29 C 109.98 94.83 108.29 96.89 106.72 98.97 C 105.92 98.01 105.13 97.05 104.35 96.08 C 105.42 94.49 106.66 93.02 108.05 91.71 C 100.86 89.10 93.35 87.58 86.14 85.05 C 86.49 85.56 87.20 86.58 87.55 87.09 C 86.57 88.89 85.64 90.72 84.73 92.57 C 83.61 91.91 82.20 91.39 82.03 89.91 C 82.62 87.76 83.88 85.87 84.66 83.79 C 80.94 84.30 80.25 88.40 78.20 90.89 C 77.63 90.41 76.48 89.44 75.91 88.96 C 76.64 86.99 77.90 85.30 79.06 83.58 C 74.13 82.23 68.57 82.02 63.80 82.93 C 65.64 85.49 66.84 89.41 64.01 91.84 C 60.65 90.11 61.39 86.53 63.00 83.89 C 61.34 82.73 59.05 83.62 58.96 85.73 C 57.89 87.89 56.66 93.10 53.38 90.96 C 53.41 87.72 56.08 85.33 57.27 82.47 C 52.97 83.09 48.72 83.99 44.46 84.83 C 43.10 83.16 41.65 81.16 39.27 82.43 C 41.33 84.04 43.81 85.47 44.97 87.93 C 43.96 89.79 43.69 93.07 40.92 92.76 C 39.73 91.59 40.13 89.72 39.70 88.23 C 38.91 88.42 38.11 88.61 37.31 88.81 C 38.58 90.03 39.37 92.63 37.06 93.20 C 34.81 94.34 33.96 91.68 34.10 89.91 C 33.31 89.79 31.74 89.55 30.95 89.43 C 28.64 92.43 25.04 92.87 21.60 93.70 L 21.13 95.21 C 23.43 95.33 25.70 95.00 27.98 94.84 C 32.24 96.80 36.60 94.11 40.88 93.57 C 43.06 93.56 45.20 91.28 47.23 92.95 C 48.57 94.34 46.23 95.64 45.63 96.79 C 43.76 98.73 40.60 99.18 39.68 102.02 C 42.89 99.64 45.96 97.07 49.22 94.74 C 49.64 95.78 50.05 96.84 50.46 97.89 C 54.07 97.51 57.84 97.61 61.04 95.66 C 64.90 96.40 68.82 96.47 72.74 96.60 C 75.12 97.02 78.01 97.65 78.79 100.31 C 75.49 100.43 72.19 100.94 68.89 100.61 C 63.37 100.29 57.90 101.15 52.40 101.33 C 49.81 104.86 46.22 107.52 41.97 108.66 C 39.19 108.68 36.33 107.65 34.53 105.47 C 33.16 103.00 36.15 100.98 37.09 98.91 C 33.93 99.93 30.63 100.36 27.44 101.23 C 23.45 103.94 19.05 106.16 15.74 109.76 C 14.27 109.89 12.83 109.44 11.39 109.25 C 11.47 107.56 11.57 105.87 11.72 104.18 C 10.78 104.72 9.83 105.25 8.87 105.77 C 3.97 101.73 0.26 95.03 1.63 88.55 C 6.75 85.92 12.59 86.69 18.07 85.63 C 23.98 87.30 30.07 85.52 36.07 85.47 C 32.87 83.32 28.52 82.43 26.37 79.03 M 33.83 79.85 C 34.85 80.81 36.17 81.29 37.48 81.70 C 37.91 80.91 38.33 80.13 38.76 79.35 C 37.11 79.48 35.47 79.63 33.83 79.85 M 4.42 89.34 C 4.95 92.27 5.91 95.09 6.76 97.94 C 9.44 96.55 12.46 95.83 15.04 94.29 C 12.25 94.41 9.71 96.12 6.94 95.97 C 6.74 95.51 6.32 94.59 6.11 94.14 L 6.58 93.01 C 11.28 91.72 15.82 88.96 20.79 89.47 C 20.79 89.23 20.77 88.74 20.76 88.50 C 15.31 88.91 9.88 90.60 4.42 89.34 M 23.24 89.99 C 23.28 93.35 26.28 88.43 23.24 89.99 M 9.03 99.48 C 7.84 100.26 9.14 102.39 10.34 101.47 C 11.42 100.64 10.26 98.59 9.03 99.48 M 13.48 107.24 C 17.00 105.38 19.09 101.80 22.25 99.46 C 18.89 101.34 14.65 103.28 13.48 107.24 M 40.78 105.46 C 43.88 105.59 45.98 103.53 47.03 100.78 C 44.80 102.13 42.51 103.48 40.78 105.46 Z" />
<path fill="#ffffff" opacity="1.00" d=" M 158.18 78.35 C 158.86 78.31 160.23 78.23 160.92 78.18 C 162.26 81.11 165.58 84.80 162.17 87.54 C 161.30 86.57 160.43 85.60 159.55 84.65 C 159.06 86.19 158.65 87.75 158.24 89.32 C 164.30 89.98 170.24 91.37 176.19 92.61 C 176.49 91.02 176.83 89.43 177.19 87.85 C 175.24 88.74 173.53 91.25 171.16 90.22 C 170.48 89.94 169.12 89.38 168.44 89.11 C 168.59 87.08 168.81 85.07 169.08 83.06 C 167.85 84.32 166.63 85.60 165.35 86.82 C 165.32 85.35 165.12 83.87 165.32 82.40 C 166.45 80.81 167.86 79.45 169.23 78.06 C 170.40 78.40 171.57 78.74 172.74 79.11 C 172.79 81.99 172.95 85.36 170.48 87.39 C 174.23 87.44 176.01 83.09 179.01 81.35 C 179.94 82.23 181.01 82.99 181.73 84.06 C 181.09 88.03 179.71 91.84 179.04 95.80 C 178.60 96.30 177.71 97.31 177.27 97.81 C 169.77 93.04 160.26 94.79 152.36 90.96 C 156.52 87.98 156.15 82.60 158.18 78.35 Z" />
<path fill="#ffffff" opacity="1.00" d=" M 70.29 82.52 C 71.29 82.84 72.19 83.35 72.98 84.04 C 72.68 86.47 72.05 89.41 69.21 89.95 C 67.53 87.47 68.74 84.71 70.29 82.52 Z" />
<path fill="#ffffff" opacity="1.00" d=" M 47.19 91.78 C 45.21 88.78 48.72 86.02 50.88 84.37 C 51.49 84.52 52.71 84.80 53.31 84.94 C 51.66 87.32 50.89 92.35 47.19 91.78 Z" />
<path fill="#ffffff" opacity="1.00" d=" M 88.38 89.19 C 90.60 88.82 92.96 87.84 95.18 88.75 C 96.33 92.39 90.58 92.54 88.12 92.37 C 88.18 91.58 88.31 89.99 88.38 89.19 Z" />
<path fill="#ffffff" opacity="1.00" d=" M 99.12 97.02 C 96.61 95.10 97.30 90.02 100.83 90.13 C 102.36 91.86 101.40 94.28 101.40 96.34 C 100.83 96.51 99.69 96.85 99.12 97.02 Z" />
<path fill="#ffffff" opacity="1.00" d=" M 53.24 92.32 C 54.96 91.64 55.21 94.51 53.67 94.82 C 51.87 95.66 51.95 92.75 53.24 92.32 Z" />
<path fill="#ffffff" opacity="1.00" d=" M 83.50 98.74 C 87.52 102.54 93.31 102.56 98.07 104.92 C 99.70 105.86 101.55 105.30 103.31 105.23 C 103.41 104.53 103.61 103.13 103.71 102.43 C 104.71 103.37 105.65 104.37 106.58 105.39 C 117.46 106.68 128.04 109.90 138.96 110.87 C 140.99 107.05 145.05 104.38 149.44 104.47 C 149.55 106.15 149.54 107.93 148.36 109.28 C 146.81 111.34 146.93 114.17 145.33 116.19 C 143.62 118.09 141.57 119.73 139.14 120.57 C 137.76 118.48 137.20 116.09 137.55 113.61 C 127.82 114.01 118.02 113.77 108.40 112.20 C 108.55 113.59 109.20 115.12 108.42 116.44 C 106.16 117.73 103.43 117.34 100.94 117.73 C 98.90 114.61 99.76 110.69 100.11 107.22 C 96.92 107.44 93.57 107.73 90.56 106.43 C 86.03 104.61 80.98 104.46 76.63 102.10 C 78.53 100.22 81.29 100.05 83.50 98.74 Z" />
<path fill="#ffffff" opacity="1.00" d=" M 118.04 102.91 C 120.01 101.64 122.10 101.75 124.06 102.99 C 123.83 103.63 123.37 104.91 123.15 105.55 C 121.66 105.63 120.17 105.62 118.69 105.55 C 118.52 104.89 118.20 103.57 118.04 102.91 Z" />
<path fill="#ffffff" opacity="1.00" d=" M 9.36 106.08 C 10.74 105.71 11.26 106.22 10.91 107.63 C 9.52 108.00 9.01 107.49 9.36 106.08 Z" />
</g>
</svg>
