<?xml version="1.0" encoding="UTF-8" ?>
<!DOCTYPE svg PUBLIC "-//W3C//DTD SVG 1.1//EN" "http://www.w3.org/Graphics/SVG/1.1/DTD/svg11.dtd">
<svg width="128pt" height="64pt" viewBox="0 0 128 64" version="1.1" xmlns="http://www.w3.org/2000/svg">
<g id="#ffffffff">
<path fill="#ffffff" opacity="1.00" d=" M 25.68 17.67 C 30.48 16.17 35.43 14.86 40.50 15.22 C 42.96 20.91 48.72 23.88 53.31 27.62 C 54.69 28.27 54.45 29.88 54.77 31.13 C 55.41 30.79 56.68 30.12 57.32 29.78 C 58.17 30.56 59.03 31.33 59.91 32.08 C 60.47 29.30 61.07 26.53 61.61 23.74 C 64.22 26.39 68.33 28.92 71.95 26.79 C 71.57 28.71 71.30 30.65 71.28 32.61 C 75.10 30.57 79.26 29.23 82.94 26.94 C 86.72 24.56 91.38 23.61 94.50 20.25 C 96.78 19.67 98.32 21.87 99.98 23.02 C 105.52 27.64 112.42 31.18 116.12 37.61 C 114.16 38.05 112.16 38.33 110.24 38.91 C 108.18 40.32 106.08 41.68 103.87 42.84 C 99.84 38.09 92.49 40.21 89.45 44.97 C 86.38 44.76 83.17 42.66 80.22 44.26 C 76.56 46.03 71.59 47.97 72.24 52.96 C 69.19 52.40 66.17 50.47 63.08 51.87 C 62.02 52.91 61.09 54.07 60.04 55.12 C 59.81 53.66 59.65 52.20 59.47 50.73 C 57.34 49.71 55.31 48.49 53.47 47.00 C 52.66 48.38 51.82 49.80 50.37 50.59 C 50.59 48.99 50.94 47.40 51.31 45.83 C 48.30 43.64 46.80 40.12 44.08 37.65 C 44.48 37.20 45.27 36.28 45.67 35.82 C 44.69 36.56 43.72 37.29 42.75 38.03 C 42.67 37.58 42.52 36.67 42.44 36.21 C 40.33 36.98 38.13 37.44 36.01 38.18 C 34.77 34.27 30.89 32.28 27.47 30.56 C 24.71 28.86 21.34 29.48 18.30 28.80 C 16.93 27.73 16.55 25.84 15.66 24.41 C 14.27 24.85 12.89 25.30 11.50 25.70 C 11.46 25.11 11.39 23.94 11.36 23.35 C 15.91 20.93 20.91 19.57 25.68 17.67 M 62.97 28.18 C 63.10 28.73 63.37 29.84 63.51 30.39 C 65.50 30.14 68.20 31.59 69.52 29.55 C 67.17 29.91 64.87 29.74 62.97 28.18 M 75.25 44.18 C 75.86 44.81 75.86 44.81 75.25 44.18 Z" />
</g>
</svg>
