<?xml version="1.0" encoding="UTF-8" ?>
<!DOCTYPE svg PUBLIC "-//W3C//DTD SVG 1.1//EN" "http://www.w3.org/Graphics/SVG/1.1/DTD/svg11.dtd">
<svg width="180pt" height="180pt" viewBox="0 0 180 180" version="1.1" xmlns="http://www.w3.org/2000/svg">
<g id="#ffffffff">
<path fill="#ffffff" opacity="1.00" d=" M 27.72 4.26 C 28.96 4.48 30.69 4.22 31.20 5.72 C 32.63 8.61 33.73 11.67 35.12 14.59 C 35.83 12.52 36.43 10.41 36.80 8.25 C 37.88 7.63 38.94 6.98 39.99 6.31 C 40.57 6.64 41.72 7.31 42.29 7.64 C 44.26 14.25 46.23 21.04 45.58 28.02 C 45.92 30.40 43.76 31.89 42.44 33.56 C 41.26 33.94 40.02 33.47 38.83 33.43 C 30.82 32.40 22.99 35.31 15.02 35.23 C 12.22 35.14 10.47 32.56 9.97 30.06 C 8.90 25.59 7.09 21.36 5.77 16.97 C 6.26 15.78 6.41 13.69 8.01 13.53 C 10.31 14.86 12.41 16.50 14.58 18.02 C 14.61 15.95 14.61 13.88 14.62 11.81 C 14.97 11.41 15.31 11.01 15.65 10.61 C 15.39 9.24 15.32 7.85 15.27 6.45 C 15.93 6.25 17.24 5.83 17.89 5.63 C 19.95 9.38 22.22 13.01 24.80 16.42 C 25.79 12.37 26.93 8.36 27.72 4.26 M 34.97 21.76 C 32.15 20.57 31.39 17.51 30.07 15.06 C 28.98 17.65 27.90 20.30 25.86 22.31 C 22.71 21.40 21.03 18.70 19.46 16.06 C 18.83 18.73 18.28 21.45 17.14 23.97 C 14.92 23.10 13.05 21.63 11.29 20.06 C 12.79 23.72 13.78 27.57 13.88 31.55 C 22.72 31.16 31.67 27.46 40.45 29.70 C 42.69 24.77 40.45 19.76 39.69 14.80 C 38.40 17.30 37.40 20.08 34.97 21.76 Z" />
<path fill="#ffffff" opacity="1.00" d=" M 45.29 40.27 C 49.58 36.77 55.13 35.88 60.05 33.64 C 65.46 35.70 71.33 36.26 76.81 38.20 C 79.76 39.51 82.93 38.36 85.97 38.13 C 87.89 37.82 88.68 40.23 90.40 40.48 C 95.37 41.35 100.03 43.36 104.67 45.25 C 107.20 45.99 107.25 49.40 109.64 50.36 C 111.93 51.62 114.02 53.20 115.87 55.04 C 115.65 56.38 115.44 57.72 115.31 59.08 C 115.94 57.66 116.38 56.18 116.82 54.69 C 125.30 54.31 134.47 53.53 142.18 57.81 C 145.81 59.81 150.15 60.84 152.85 64.22 C 154.03 65.41 154.38 67.28 155.76 68.26 C 159.73 69.80 164.08 70.20 167.96 71.93 C 169.54 74.99 171.61 77.90 172.52 81.25 C 172.98 85.23 173.84 89.14 175.03 92.96 C 174.30 93.56 173.61 94.19 172.94 94.85 C 170.69 99.53 169.18 104.55 166.59 109.06 C 167.46 110.90 168.51 112.78 168.31 114.89 C 168.28 117.42 169.68 119.63 170.28 122.02 C 170.52 130.02 169.51 138.40 172.90 145.93 C 174.76 149.55 174.56 153.64 174.63 157.59 C 173.70 160.82 169.70 158.56 167.40 158.58 C 166.39 154.30 166.97 149.84 165.98 145.55 C 165.02 140.84 165.70 135.95 164.51 131.28 C 163.34 127.55 160.59 124.53 157.39 122.39 C 157.28 126.37 156.28 130.22 154.88 133.92 C 152.50 140.88 158.07 149.00 153.30 155.30 C 152.65 156.29 151.98 157.27 151.31 158.25 C 149.66 156.94 147.55 156.23 146.09 154.72 C 146.07 151.59 148.81 149.20 148.45 146.02 C 148.35 141.37 150.08 136.73 148.89 132.12 C 148.47 130.57 148.29 128.98 148.46 127.38 C 147.32 127.63 146.17 127.86 145.02 128.07 C 145.71 126.98 146.55 126.02 147.55 125.20 C 147.62 124.31 147.71 123.43 147.81 122.55 C 145.99 122.61 144.16 122.53 142.35 122.48 C 141.84 119.95 138.88 118.46 139.09 115.76 C 138.84 112.87 141.35 110.85 142.42 108.38 C 142.72 107.30 145.36 105.18 145.00 108.00 C 145.62 105.10 147.51 102.82 149.80 101.05 C 148.65 100.32 147.59 99.34 146.19 99.17 C 145.41 101.05 145.32 103.09 145.64 105.08 C 142.28 105.93 140.41 108.88 138.52 111.53 C 137.94 111.54 136.78 111.58 136.20 111.59 C 135.87 111.19 135.19 110.39 134.86 109.98 C 135.03 110.56 135.37 111.70 135.55 112.27 C 137.44 112.40 139.41 112.61 138.77 115.08 C 131.13 121.04 121.39 123.97 111.74 123.49 C 107.14 123.37 102.56 122.33 97.98 123.21 C 94.18 122.58 90.34 122.33 86.50 122.12 C 86.70 122.71 87.11 123.90 87.31 124.50 C 86.49 124.61 84.85 124.84 84.03 124.96 C 84.14 123.89 84.35 121.77 84.46 120.71 C 83.08 122.94 83.83 125.45 84.27 127.82 C 84.87 126.87 85.48 125.92 86.11 124.99 C 86.79 127.18 87.55 129.36 88.45 131.48 C 90.36 132.28 92.32 133.06 93.72 134.66 C 91.31 135.68 88.92 136.75 86.61 137.98 C 88.12 143.65 82.74 147.32 78.55 149.84 C 78.61 150.66 78.72 152.31 78.77 153.13 C 79.89 152.03 81.03 150.97 82.27 150.01 C 82.53 151.29 82.55 152.60 82.40 153.91 C 83.82 154.77 84.85 156.06 85.31 157.67 C 83.69 156.77 82.08 155.84 80.46 154.94 C 80.46 156.47 80.44 158.01 80.37 159.55 C 79.46 160.90 77.59 160.98 76.17 161.47 C 75.70 162.57 75.23 163.67 74.76 164.77 C 71.68 165.55 68.91 167.58 65.63 167.37 C 65.00 164.36 67.42 163.00 69.58 161.63 C 70.30 157.43 70.61 153.16 71.60 149.01 C 70.39 146.63 68.60 144.51 67.61 141.99 C 67.75 139.00 68.60 136.07 68.46 133.08 C 67.30 130.38 65.74 127.88 64.21 125.39 C 62.38 126.41 60.40 128.33 58.17 127.15 C 54.90 126.31 54.40 122.34 51.53 120.97 C 49.61 119.99 47.33 119.70 45.72 118.14 C 43.00 115.75 39.07 114.33 37.94 110.56 C 38.85 110.55 40.67 110.51 41.59 110.50 C 44.47 107.54 46.75 104.07 47.77 100.03 C 46.63 100.43 45.48 100.82 44.38 101.33 C 43.30 103.53 43.27 106.48 41.01 107.92 C 38.63 109.68 36.56 111.81 34.78 114.17 C 38.10 118.40 39.79 123.79 39.75 129.15 C 37.74 128.36 36.89 126.45 36.21 124.56 C 34.37 127.73 31.99 130.73 32.56 134.63 C 31.59 134.48 30.62 134.32 29.66 134.18 C 29.62 131.07 29.46 127.96 28.99 124.89 C 27.80 126.81 26.94 128.90 26.02 130.95 C 23.06 130.08 19.36 130.02 17.17 127.69 C 17.14 123.85 18.53 119.97 21.02 117.04 C 23.11 117.86 25.29 118.38 27.55 118.29 C 27.85 117.35 28.18 116.41 28.49 115.48 C 28.09 115.10 27.30 114.35 26.91 113.97 C 25.93 114.87 24.95 115.76 23.96 116.64 C 21.39 116.32 18.77 116.61 16.24 116.03 C 14.06 114.36 11.79 112.52 10.49 110.05 C 10.52 107.94 11.37 105.98 11.94 103.98 C 10.45 101.96 7.83 100.55 7.38 97.92 C 7.55 95.92 8.11 93.97 8.47 92.00 C 6.88 90.57 5.24 89.21 3.58 87.87 C 3.72 81.75 4.19 75.60 4.43 69.53 C 7.25 67.14 9.57 64.20 11.50 61.08 C 10.34 56.48 9.35 51.24 11.98 46.93 C 13.05 49.98 14.99 52.54 17.16 54.90 C 21.70 52.58 26.96 52.05 31.30 49.28 C 36.59 47.22 40.09 42.51 45.29 40.27 M 44.39 44.43 C 37.79 50.08 30.08 55.25 21.13 55.72 C 22.09 57.16 23.06 58.60 24.09 60.01 C 22.85 61.67 20.87 61.53 19.01 61.50 C 19.11 64.52 17.24 66.85 15.57 69.15 C 15.60 71.87 15.63 74.60 14.04 76.97 C 12.42 75.04 10.30 73.73 8.14 72.51 C 11.61 75.94 7.86 81.28 9.56 85.37 C 10.91 87.42 12.90 88.93 14.35 90.90 C 14.99 89.98 15.62 89.04 16.24 88.11 C 16.55 88.53 17.17 89.36 17.48 89.78 C 14.99 90.55 13.77 92.84 12.31 94.79 C 11.23 95.12 10.41 94.11 9.54 93.69 C 9.99 95.18 11.10 95.98 12.68 95.82 C 13.09 96.82 13.50 97.81 13.91 98.81 C 16.67 98.96 19.03 97.87 20.95 95.88 C 19.67 95.08 17.14 95.25 17.20 93.24 C 18.68 91.78 20.30 90.43 21.55 88.75 C 20.35 88.50 19.15 88.28 17.95 88.05 C 20.65 87.86 22.48 85.58 25.16 85.29 C 27.44 85.15 27.08 82.34 27.89 80.79 C 30.04 80.08 32.21 79.36 34.49 79.30 C 34.91 78.02 35.28 76.73 35.61 75.43 C 34.95 76.02 33.64 77.18 32.98 77.77 C 32.42 76.61 31.86 75.45 31.30 74.29 C 33.65 72.61 35.47 69.97 35.88 67.10 C 34.90 64.34 33.04 61.91 32.53 58.97 C 32.97 58.86 33.86 58.63 34.30 58.52 C 35.24 60.25 36.35 61.89 37.22 63.66 C 37.94 65.83 37.59 68.14 37.78 70.37 C 36.79 70.69 35.82 71.03 34.86 71.43 C 36.08 71.86 37.30 72.29 38.53 72.70 C 39.32 71.05 40.23 69.47 41.15 67.89 C 40.54 66.91 39.91 65.94 39.28 64.98 C 39.81 64.30 40.86 62.95 41.39 62.27 C 43.75 65.61 42.69 69.85 41.40 73.38 C 43.81 71.54 45.71 69.19 47.12 66.52 C 46.41 66.63 44.98 66.85 44.27 66.96 C 44.10 64.36 46.20 64.60 48.11 64.79 C 49.27 61.43 50.06 57.97 50.66 54.47 C 51.57 54.46 52.48 54.46 53.39 54.46 C 53.71 59.28 53.91 64.19 53.14 68.97 C 51.67 73.94 50.07 79.56 45.08 82.06 C 45.62 82.21 46.69 82.49 47.23 82.63 C 48.60 80.40 51.62 79.97 52.68 77.47 C 54.13 74.57 55.92 71.82 56.93 68.72 C 57.59 67.26 58.73 66.09 60.33 65.70 C 59.93 67.26 59.48 68.80 59.16 70.38 C 61.56 69.49 59.47 65.53 62.74 65.71 C 63.19 69.10 63.38 72.52 63.26 75.94 C 64.23 80.29 66.33 84.27 69.30 87.59 C 69.37 87.07 69.49 86.02 69.56 85.49 C 72.01 85.28 74.48 85.42 76.83 86.16 C 79.10 85.98 80.91 84.47 82.88 83.49 C 84.03 84.39 84.96 85.53 85.96 86.58 C 84.78 87.09 84.62 88.12 84.84 89.26 C 83.79 90.47 82.73 91.67 81.74 92.93 C 84.27 90.65 87.38 90.13 90.67 90.08 C 91.79 91.86 91.72 93.92 91.39 95.93 C 92.24 95.19 93.09 94.46 93.96 93.73 C 92.81 91.68 91.76 89.57 90.84 87.40 C 92.80 87.48 95.04 88.22 96.75 86.83 C 100.51 84.93 100.14 80.23 101.96 76.95 C 102.61 77.14 103.93 77.51 104.59 77.70 C 105.92 81.43 104.11 85.83 107.20 88.90 C 106.63 86.54 106.45 84.11 106.07 81.71 C 106.86 81.68 108.42 81.62 109.21 81.59 C 108.50 87.02 112.01 91.64 111.92 97.00 C 113.85 98.93 116.54 98.78 119.07 98.84 C 117.49 96.58 116.22 94.12 114.52 91.94 C 115.21 90.93 116.04 90.06 117.01 89.34 C 117.99 89.75 118.96 90.19 119.92 90.66 C 120.21 90.11 120.49 89.56 120.78 89.02 C 118.72 87.95 116.30 87.07 115.05 84.99 C 112.79 81.20 109.14 78.16 108.33 73.63 C 106.62 69.75 107.68 65.52 109.95 62.14 C 111.00 62.12 112.04 62.08 113.08 61.98 C 112.37 61.85 110.94 61.58 110.23 61.44 C 111.24 60.05 112.18 58.61 113.15 57.19 C 110.31 54.90 107.37 52.76 104.59 50.40 C 98.70 46.72 91.86 45.22 85.07 44.23 C 81.88 45.11 79.09 46.97 76.04 48.20 C 75.68 47.60 74.96 46.40 74.59 45.80 C 75.64 44.84 76.69 43.88 77.73 42.91 C 71.58 41.12 65.50 38.95 59.04 38.57 C 54.35 40.98 49.45 42.95 44.39 44.43 M 13.53 55.94 C 13.09 57.40 13.54 57.90 14.88 57.43 C 15.33 55.97 14.88 55.47 13.53 55.94 M 140.41 61.35 C 139.50 62.70 141.47 64.66 142.84 63.63 C 144.23 62.33 141.60 60.75 140.41 61.35 M 145.37 63.75 C 145.38 65.40 145.40 67.05 145.48 68.70 C 146.86 68.35 148.19 67.84 149.46 67.20 C 148.16 66.88 146.84 66.65 145.52 66.43 C 146.31 65.44 147.12 64.48 147.91 63.49 C 147.27 63.56 146.00 63.69 145.37 63.75 M 150.08 65.78 C 150.43 67.13 150.87 68.45 151.32 69.78 C 150.79 69.70 149.72 69.54 149.19 69.46 C 147.34 71.92 144.85 73.78 142.85 76.11 C 145.86 74.48 148.71 72.53 151.96 71.39 C 152.52 71.73 153.64 72.42 154.19 72.76 C 152.92 70.37 151.67 67.97 150.08 65.78 M 136.46 68.34 C 135.43 68.68 133.99 69.73 134.59 70.99 C 135.99 72.38 139.32 67.60 136.46 68.34 M 58.25 71.22 C 58.86 71.83 58.86 71.83 58.25 71.22 M 56.50 74.97 C 57.63 75.92 58.77 76.87 59.86 77.87 C 59.11 79.49 58.32 81.10 57.34 82.60 C 58.71 82.31 60.11 82.31 61.49 82.53 C 60.26 79.51 60.31 76.24 59.98 73.06 C 58.66 73.37 57.55 74.14 56.50 74.97 M 54.27 76.17 C 53.72 77.58 54.15 78.04 55.56 77.53 C 56.07 76.06 55.64 75.61 54.27 76.17 M 37.08 77.60 C 38.27 79.84 38.78 82.69 41.16 84.05 C 41.45 81.82 41.26 79.58 40.75 77.40 C 39.53 77.46 38.30 77.52 37.08 77.60 M 127.46 79.30 C 128.24 83.12 125.32 85.83 123.63 88.89 C 124.08 90.22 124.57 91.54 125.09 92.85 C 124.35 92.74 122.86 92.52 122.12 92.41 C 122.73 92.93 123.34 93.46 123.95 93.99 C 123.48 96.05 123.50 98.17 123.13 100.25 C 121.77 100.49 120.27 100.58 119.48 101.90 C 120.43 102.24 121.37 102.57 122.32 102.91 C 122.32 102.47 122.31 101.58 122.31 101.14 C 124.40 99.76 126.36 98.18 128.36 96.67 C 126.92 96.51 125.49 96.37 124.06 96.26 C 124.90 95.23 125.98 94.35 126.55 93.12 C 125.79 92.05 124.93 91.04 124.11 90.01 C 125.97 86.67 128.67 83.53 128.90 79.54 C 128.54 79.48 127.82 79.36 127.46 79.30 M 49.41 82.23 C 50.66 83.59 52.10 84.81 53.93 85.31 C 53.13 84.53 52.32 83.79 51.49 83.06 C 51.82 82.36 52.49 80.97 52.82 80.27 C 51.67 80.90 50.53 81.56 49.41 82.23 M 54.23 82.23 C 54.82 82.82 54.82 82.82 54.23 82.23 M 45.27 84.10 C 45.51 87.50 48.22 82.54 45.27 84.10 M 133.29 83.90 C 133.33 87.27 136.24 82.35 133.29 83.90 M 102.19 85.29 C 102.82 85.88 102.82 85.88 102.19 85.29 M 95.97 92.71 C 99.37 92.78 103.44 90.00 102.52 86.21 C 99.96 87.95 97.31 89.81 95.97 92.71 M 27.80 91.53 C 30.52 92.65 33.05 92.17 34.94 89.86 C 33.96 89.21 32.95 88.62 31.90 88.10 C 30.07 88.52 28.55 89.80 27.80 91.53 M 43.78 98.93 C 44.94 98.08 46.06 97.18 47.19 96.29 C 47.44 93.70 48.43 91.28 48.85 88.72 C 45.77 91.15 44.90 95.36 43.78 98.93 M 98.92 106.95 C 101.56 103.08 103.47 98.75 107.19 95.71 C 107.89 96.09 108.60 96.48 109.30 96.87 C 108.08 94.99 107.89 92.71 107.39 90.59 C 103.98 95.68 100.43 100.94 98.92 106.95 M 117.24 91.21 C 117.85 91.84 117.85 91.84 117.24 91.21 M 157.22 91.12 C 157.43 94.56 160.03 89.45 157.22 91.12 M 166.29 93.26 C 164.97 93.92 164.96 94.58 166.26 95.25 C 167.61 94.57 167.63 93.91 166.29 93.26 M 77.66 95.66 C 79.27 96.27 81.00 96.56 82.56 97.31 C 84.44 98.25 84.87 100.46 85.62 102.22 C 88.08 101.55 88.02 98.76 88.78 96.76 C 84.99 97.07 80.97 92.50 77.66 95.66 M 119.43 94.38 C 118.98 95.98 119.56 96.53 121.18 96.03 C 121.67 94.42 121.09 93.86 119.43 94.38 M 24.24 96.86 C 24.20 100.31 27.27 95.36 24.24 96.86 M 30.25 97.26 C 30.87 97.88 30.87 97.88 30.25 97.26 M 90.77 96.91 C 90.73 98.33 90.63 99.75 90.55 101.16 C 91.77 100.10 92.97 99.01 94.16 97.93 C 93.03 97.59 91.90 97.25 90.77 96.91 M 27.14 98.26 C 27.78 98.90 27.78 98.90 27.14 98.26 M 29.25 98.83 C 26.67 100.40 30.17 101.89 31.35 100.12 C 32.54 98.73 30.16 97.88 29.25 98.83 M 14.44 99.72 C 15.26 101.19 16.13 102.64 17.03 104.07 C 18.06 102.98 19.11 101.91 20.16 100.85 C 18.23 100.58 16.33 100.16 14.44 99.72 M 26.39 100.16 C 24.97 100.24 25.04 102.63 26.43 102.70 C 27.84 102.67 27.80 100.15 26.39 100.16 M 81.47 102.16 C 80.15 102.38 79.55 105.06 81.20 105.18 C 82.51 104.95 83.19 102.21 81.47 102.16 M 115.13 102.54 C 115.96 104.31 116.42 106.20 116.56 108.15 C 117.53 106.28 118.57 104.44 119.61 102.61 C 118.11 102.62 116.62 102.64 115.13 102.54 M 162.61 102.56 C 162.28 105.57 161.03 108.34 159.97 111.14 C 164.05 110.22 163.03 104.90 164.57 101.85 C 164.08 102.02 163.10 102.38 162.61 102.56 M 24.28 103.94 C 22.89 104.30 23.09 106.88 24.73 105.94 C 26.22 105.67 25.88 103.03 24.28 103.94 M 81.38 112.33 C 82.42 112.44 83.47 112.55 84.52 112.66 C 86.16 111.11 87.94 108.30 85.10 106.91 C 85.68 105.81 86.25 104.70 86.77 103.57 C 83.67 105.19 81.66 108.90 81.38 112.33 M 115.63 113.20 C 120.11 110.81 123.37 106.78 127.36 103.78 C 122.85 105.95 118.78 109.33 115.63 113.20 M 21.07 105.32 C 19.55 108.21 24.49 105.38 21.07 105.32 M 148.85 105.77 C 150.30 106.70 151.88 107.54 152.92 108.97 C 152.27 110.49 151.35 111.87 150.55 113.30 C 151.53 111.91 152.47 110.50 153.45 109.12 C 154.58 110.01 155.73 110.88 156.91 111.72 C 156.73 112.44 156.38 113.88 156.21 114.59 C 157.32 115.54 158.39 116.54 159.45 117.56 C 161.35 117.43 163.26 117.29 165.17 117.20 C 164.46 116.85 163.76 116.51 163.05 116.17 C 163.25 115.25 163.44 114.34 163.63 113.42 C 161.50 113.51 159.40 113.89 157.32 114.32 C 157.49 113.75 157.84 112.61 158.01 112.04 C 156.52 109.95 154.28 108.21 154.06 105.48 C 152.31 105.47 150.58 105.62 148.85 105.77 M 21.98 111.29 C 19.85 112.08 17.50 111.42 15.29 111.35 C 15.27 111.61 15.23 112.12 15.21 112.37 C 17.54 112.38 19.79 112.82 21.92 113.75 C 25.69 113.40 28.94 111.56 31.40 108.72 C 29.06 109.34 26.88 110.40 24.64 111.28 C 25.43 109.80 26.31 108.37 27.06 106.87 C 25.29 108.26 23.75 109.90 21.98 111.29 M 79.23 109.22 C 79.81 109.82 79.81 109.82 79.23 109.22 M 99.31 109.12 C 99.31 112.56 102.23 107.58 99.31 109.12 M 49.57 110.38 C 49.01 112.30 46.67 114.29 47.84 116.29 C 50.43 117.56 51.19 113.97 50.45 112.14 C 50.84 112.59 51.60 113.48 51.98 113.93 C 53.15 112.74 54.31 111.55 55.44 110.31 C 53.48 110.34 51.53 110.36 49.57 110.38 M 120.19 117.38 C 118.19 117.79 116.12 117.63 114.09 117.93 C 113.50 117.12 112.90 116.31 112.31 115.49 C 111.97 116.57 111.60 117.65 111.24 118.73 C 116.05 119.79 120.91 118.42 125.73 118.10 C 128.88 116.18 131.88 113.74 133.39 110.27 C 128.71 112.08 124.55 114.94 120.19 117.38 M 30.40 114.28 C 29.21 115.25 30.68 117.53 32.01 116.56 C 33.22 115.58 31.72 113.35 30.40 114.28 M 131.87 114.30 C 130.37 117.28 135.26 114.45 131.87 114.30 M 54.51 116.66 C 54.16 119.31 56.63 121.40 57.58 123.75 C 59.12 123.74 60.66 123.71 62.20 123.65 C 61.09 122.28 59.84 121.03 58.66 119.72 C 58.00 118.07 59.51 116.48 60.47 115.25 C 58.51 115.79 55.99 114.99 54.51 116.66 M 89.56 115.19 C 88.47 115.77 87.66 117.41 88.21 118.59 C 89.53 118.87 91.45 115.43 89.56 115.19 M 152.20 115.22 C 152.84 115.87 152.84 115.87 152.20 115.22 M 34.08 117.41 C 32.73 120.41 37.51 117.18 34.08 117.41 M 98.40 117.08 C 97.05 117.81 97.04 118.45 98.37 119.01 C 99.75 118.29 99.76 117.64 98.40 117.08 M 30.28 119.04 C 30.06 119.34 29.62 119.93 29.40 120.22 C 30.14 123.38 33.54 118.25 30.28 119.04 M 19.12 121.21 C 19.77 121.86 19.77 121.86 19.12 121.21 M 30.60 121.88 C 29.65 123.31 30.99 126.09 32.72 125.85 C 32.78 124.65 32.35 121.00 30.60 121.88 Z" />
<path fill="#ffffff" opacity="1.00" d=" M 72.40 57.03 C 72.33 53.65 75.22 51.77 78.14 51.06 C 78.24 51.56 78.34 52.06 78.45 52.55 C 76.70 54.36 75.10 56.69 72.40 57.03 Z" />
<path fill="#ffffff" opacity="1.00" d=" M 43.40 57.17 C 44.80 58.90 45.69 60.93 46.37 63.04 C 45.40 63.52 44.43 64.01 43.46 64.50 C 43.34 62.06 43.12 59.61 43.40 57.17 Z" />
<path fill="#ffffff" opacity="1.00" d=" M 143.00 123.61 C 144.21 122.76 146.10 124.14 145.42 125.56 C 144.93 128.21 141.43 124.99 143.00 123.61 Z" />
</g>
</svg>
