<?xml version="1.0" encoding="UTF-8" ?>
<!DOCTYPE svg PUBLIC "-//W3C//DTD SVG 1.1//EN" "http://www.w3.org/Graphics/SVG/1.1/DTD/svg11.dtd">
<svg width="128pt" height="64pt" viewBox="0 0 128 64" version="1.1" xmlns="http://www.w3.org/2000/svg">
<g id="#ffffffff">
<path fill="#ffffff" opacity="1.00" d=" M 109.58 5.63 C 112.93 4.53 116.48 5.37 119.84 5.90 C 117.24 7.87 114.10 8.84 111.06 9.89 C 112.56 10.22 114.04 10.78 115.60 10.74 C 117.16 9.80 118.60 8.67 120.20 7.77 C 120.13 9.20 119.61 10.58 118.31 11.33 C 112.83 15.81 105.28 17.13 98.37 16.70 C 93.72 20.01 89.50 23.88 84.84 27.19 C 89.05 24.92 93.19 22.47 97.96 21.52 C 98.70 23.02 100.21 24.65 99.22 26.39 C 99.68 25.97 100.14 25.57 100.62 25.17 C 102.89 28.30 105.20 31.40 107.89 34.17 C 109.39 35.48 109.52 37.55 109.91 39.36 C 103.77 35.56 100.26 28.56 94.02 24.80 C 94.48 30.54 99.94 34.07 101.60 39.33 C 97.09 36.68 95.12 31.30 92.27 27.11 C 90.85 28.13 89.41 29.10 87.95 30.03 C 90.73 32.06 93.43 34.20 96.36 36.03 C 91.64 42.02 90.17 49.76 85.89 56.01 C 85.32 55.76 84.17 55.27 83.59 55.02 C 85.93 49.10 88.85 43.42 91.61 37.69 C 88.99 36.22 86.43 34.62 83.70 33.36 C 79.69 33.17 75.87 34.57 71.96 35.22 C 68.27 35.71 64.61 36.34 60.93 36.93 C 54.60 38.11 48.67 40.72 42.46 42.36 C 41.65 47.19 40.80 52.04 40.43 56.92 C 41.41 58.81 42.44 60.69 43.02 62.75 C 42.37 62.79 41.07 62.89 40.41 62.93 C 39.39 60.79 38.64 58.26 36.11 57.48 C 37.64 50.91 36.58 43.71 40.02 37.66 C 39.12 36.90 38.24 36.11 37.41 35.29 C 37.52 36.37 38.08 37.50 37.62 38.56 C 36.07 42.91 34.74 47.38 32.43 51.39 C 30.53 54.39 31.33 58.10 30.78 61.44 C 29.05 61.13 28.54 59.58 28.73 58.00 C 29.35 49.72 31.29 41.55 33.58 33.64 C 36.74 32.80 40.04 32.71 43.18 31.78 C 38.84 30.36 34.27 30.38 29.76 30.27 C 29.61 29.78 29.31 28.79 29.16 28.30 C 28.93 28.69 28.47 29.49 28.24 29.89 C 21.90 27.72 16.47 23.39 9.87 21.99 C 7.49 20.69 4.22 19.98 3.16 17.20 C 6.01 17.60 8.47 19.16 11.02 20.34 C 12.46 19.44 13.89 18.52 15.31 17.60 C 14.74 14.80 12.82 12.66 10.70 10.86 C 10.83 9.83 10.97 8.80 11.01 7.76 C 10.83 8.50 10.46 9.99 10.28 10.73 C 8.47 9.72 6.61 8.81 4.77 7.85 C 8.18 5.06 12.91 7.75 15.82 10.17 C 22.88 16.08 32.26 17.99 39.55 23.51 C 41.96 25.33 45.05 25.65 47.85 26.58 C 49.14 25.37 50.83 24.85 52.54 24.61 C 52.13 24.59 51.31 24.54 50.91 24.52 C 49.11 24.81 47.35 25.26 45.56 25.56 C 47.98 19.82 54.35 18.07 60.01 17.62 C 58.85 15.84 57.66 14.09 56.65 12.22 C 57.68 11.80 58.72 11.39 59.76 10.98 C 60.32 13.60 60.69 16.74 63.62 17.78 C 62.71 18.62 61.84 19.51 61.01 20.43 C 64.75 18.22 66.50 13.68 69.90 10.96 C 70.45 11.21 71.55 11.73 72.10 11.99 C 70.62 13.62 69.04 15.15 67.57 16.77 C 72.68 16.36 78.48 16.82 82.12 20.90 C 81.04 22.06 79.95 23.20 78.90 24.38 C 80.16 24.52 81.42 24.62 82.69 24.68 C 86.62 20.62 88.32 14.38 93.55 11.66 C 98.95 9.81 104.24 7.63 109.58 5.63 M 14.25 20.19 C 14.89 20.83 14.89 20.83 14.25 20.19 M 76.04 25.25 C 75.48 26.84 76.05 27.31 77.75 26.66 C 78.29 25.10 77.72 24.63 76.04 25.25 M 46.37 28.23 C 45.32 30.24 49.47 31.27 49.69 29.10 C 49.50 27.63 47.29 27.22 46.37 28.23 M 56.56 33.63 C 58.39 32.78 60.20 31.90 62.02 31.02 C 61.86 30.39 61.54 29.13 61.38 28.49 C 59.91 30.33 58.10 31.85 56.56 33.63 Z" />
</g>
</svg>
