<?xml version="1.0" encoding="UTF-8" ?>
<!DOCTYPE svg PUBLIC "-//W3C//DTD SVG 1.1//EN" "http://www.w3.org/Graphics/SVG/1.1/DTD/svg11.dtd">
<svg width="200pt" height="200pt" viewBox="0 0 200 200" version="1.1" xmlns="http://www.w3.org/2000/svg">
<g id="#ffffffff">
<path fill="#ffffff" opacity="1.00" d=" M 158.70 47.29 C 164.53 42.36 171.00 38.29 177.21 33.92 C 178.69 32.79 180.88 35.10 179.55 36.44 C 176.35 38.76 172.85 40.69 169.88 43.33 C 169.81 43.98 169.65 45.29 169.58 45.94 C 171.98 44.52 174.24 42.85 176.26 40.91 C 177.20 43.72 173.97 44.90 172.12 46.16 C 170.79 47.19 169.11 46.52 167.59 46.54 C 167.35 52.73 165.93 59.36 168.38 65.23 C 167.01 65.81 165.65 66.82 164.08 66.44 C 158.35 65.92 152.68 64.85 146.93 64.62 C 145.50 64.74 143.80 64.50 142.69 65.60 C 139.95 68.15 136.98 70.44 133.88 72.54 C 135.44 72.64 136.99 72.74 138.55 72.85 C 138.51 73.68 138.43 75.34 138.39 76.17 C 138.51 75.45 138.75 74.02 138.87 73.31 C 144.11 74.51 149.30 75.92 154.47 77.41 C 158.53 78.74 161.40 82.38 165.65 83.31 C 168.07 83.72 168.81 86.31 169.73 88.22 C 174.71 89.47 179.82 90.37 184.55 92.46 C 184.80 93.88 185.80 95.42 184.83 96.80 C 182.53 99.33 179.06 100.24 176.54 102.50 C 174.11 104.65 171.40 106.60 169.68 109.42 C 174.91 107.42 178.50 102.90 183.19 100.02 C 185.16 99.21 185.63 97.06 186.53 95.37 C 187.80 97.03 189.51 99.17 188.51 101.36 C 186.23 104.42 184.30 108.04 180.79 109.88 C 175.48 112.90 170.35 116.75 164.12 117.50 C 171.03 122.02 178.10 126.30 184.62 131.39 C 186.14 132.25 186.76 133.86 186.92 135.53 C 185.31 135.58 183.70 135.59 182.09 135.57 C 182.58 135.92 183.58 136.61 184.07 136.96 C 181.73 138.25 179.82 136.06 177.80 135.17 C 173.08 132.88 168.31 130.60 163.93 127.69 C 163.72 126.80 163.30 125.02 163.10 124.13 C 166.09 126.15 168.94 128.39 172.02 130.26 C 168.92 126.04 163.69 124.49 159.83 121.17 C 158.73 120.20 157.12 120.47 155.80 120.18 C 158.69 122.22 163.21 122.87 163.39 127.17 C 159.06 125.36 154.97 123.07 150.86 120.84 C 147.99 120.50 145.10 121.49 142.20 121.32 C 139.70 121.65 136.28 121.20 135.40 124.26 C 130.94 130.15 126.91 136.65 120.49 140.66 C 117.88 142.67 114.54 140.93 111.81 140.10 C 108.38 139.08 106.39 135.49 102.72 135.09 C 102.64 134.59 102.50 133.59 102.43 133.09 C 105.83 130.87 109.34 128.80 112.95 126.93 C 99.61 126.58 86.18 126.14 73.12 123.06 C 71.44 124.74 69.51 126.16 67.89 127.91 C 63.21 133.51 57.24 137.88 52.81 143.71 C 51.78 143.55 50.74 143.39 49.70 143.24 C 50.47 148.11 45.19 150.23 42.74 153.60 C 39.76 157.66 35.65 160.62 32.27 164.31 C 31.32 165.49 29.76 165.52 28.39 165.79 C 28.42 162.71 30.99 160.91 32.82 158.80 C 38.06 153.32 42.70 147.32 48.04 141.94 C 44.03 144.56 41.20 148.61 37.13 151.15 C 36.70 150.57 35.83 149.41 35.40 148.84 C 40.68 143.09 46.18 137.52 52.25 132.60 C 50.25 132.49 48.24 132.45 46.25 132.29 C 46.38 131.45 46.64 129.76 46.77 128.92 C 46.29 129.91 45.82 130.90 45.37 131.90 C 41.47 131.76 36.75 131.31 35.33 126.98 C 36.60 127.29 37.86 127.62 39.13 127.96 C 35.83 126.44 36.36 122.80 36.42 119.78 C 35.13 120.85 33.84 121.93 32.66 123.13 C 34.06 131.28 30.05 139.06 27.74 146.70 C 27.29 148.90 25.61 150.37 23.98 151.77 C 23.01 151.10 22.12 150.36 21.30 149.53 C 18.77 143.39 17.41 136.75 14.04 130.98 C 9.10 123.63 3.35 116.21 2.11 107.17 C 8.52 104.87 14.92 102.53 21.42 100.49 C 23.06 99.75 24.50 100.91 25.82 101.74 C 29.57 99.44 33.33 95.63 38.05 96.36 C 41.60 96.58 43.99 92.45 47.64 93.46 C 48.10 92.33 48.58 91.20 49.08 90.08 C 50.10 90.63 51.11 91.20 52.11 91.79 C 52.78 90.75 53.46 89.70 54.13 88.65 C 51.03 89.25 47.92 89.87 44.75 89.83 C 42.75 87.34 46.10 86.73 47.74 85.71 C 50.71 84.50 54.10 85.09 57.13 84.10 C 60.17 82.51 62.90 80.39 65.88 78.72 C 66.33 78.87 67.23 79.16 67.68 79.31 C 67.61 78.70 67.48 77.46 67.41 76.85 C 64.65 79.51 60.84 79.66 57.24 79.92 C 57.97 80.49 59.43 81.64 60.17 82.22 C 55.96 83.66 51.46 83.23 47.26 82.03 C 48.12 80.07 49.83 79.22 51.91 79.36 C 51.71 78.49 51.52 77.62 51.33 76.75 C 52.40 76.66 53.47 76.59 54.54 76.53 C 54.61 75.94 54.77 74.76 54.84 74.17 C 57.19 73.81 59.51 73.27 61.75 72.49 C 56.84 73.52 52.54 70.38 48.11 68.84 C 44.78 67.33 41.18 66.63 37.77 65.37 C 37.57 64.83 37.19 63.74 37.00 63.20 C 41.60 62.62 45.80 64.49 49.98 66.05 C 52.88 66.66 55.75 67.42 58.60 68.28 C 56.10 66.21 52.96 65.34 49.97 64.27 C 48.05 62.14 46.87 59.21 44.52 57.43 C 41.02 55.54 36.96 54.61 33.98 51.83 C 35.09 50.63 36.36 50.36 37.77 51.03 C 47.83 54.95 57.90 58.82 67.81 63.10 C 73.79 66.76 80.39 69.19 86.68 72.24 C 90.56 73.35 94.69 73.28 98.69 73.76 C 97.60 71.74 96.62 69.66 95.93 67.47 C 96.51 67.08 97.66 66.29 98.24 65.90 C 101.38 68.64 105.20 70.47 109.17 71.65 C 106.86 69.42 104.12 67.64 102.19 65.02 C 102.81 64.58 104.03 63.70 104.65 63.26 C 105.28 63.82 106.54 64.93 107.18 65.48 C 107.40 64.37 107.64 63.26 107.90 62.15 C 110.27 63.17 112.79 63.51 115.33 63.71 C 119.19 65.37 122.98 67.39 126.08 70.27 C 129.12 68.37 131.88 66.10 134.62 63.80 C 132.63 61.32 132.96 57.94 134.09 55.15 C 135.56 51.69 133.92 47.86 134.98 44.32 C 135.39 44.30 136.22 44.26 136.63 44.24 C 138.39 46.79 140.20 49.31 142.47 51.43 C 143.40 49.13 144.42 46.85 145.86 44.82 C 146.45 45.06 147.65 45.55 148.24 45.80 C 149.02 47.82 149.75 49.86 150.60 51.86 C 151.84 49.53 153.02 47.16 154.65 45.06 C 155.99 45.81 157.33 46.58 158.70 47.29 M 142.88 56.23 C 140.67 56.34 139.82 54.23 138.73 52.74 C 138.47 55.53 138.12 58.31 137.44 61.02 C 140.81 59.60 143.86 57.54 146.95 55.61 C 147.10 54.39 147.15 53.17 147.10 51.94 C 145.63 53.31 144.35 54.86 142.88 56.23 M 150.69 60.75 C 154.72 61.25 158.77 61.61 162.78 62.30 C 162.63 59.60 162.55 56.90 162.70 54.20 C 159.37 57.51 154.34 57.84 150.69 60.75 M 59.43 67.92 C 58.87 69.52 59.42 70.04 61.07 69.48 C 61.64 67.89 61.09 67.37 59.43 67.92 M 105.88 75.37 C 104.69 74.51 103.50 73.64 102.32 72.76 C 101.83 74.77 100.69 76.46 99.48 78.11 C 100.70 77.82 103.14 77.25 104.35 76.96 C 104.37 78.44 104.48 79.92 104.53 81.40 C 106.81 82.20 108.26 79.88 109.56 78.42 C 108.28 78.61 107.01 78.81 105.75 79.03 C 105.36 78.19 104.97 77.35 104.58 76.52 C 110.84 74.19 118.40 76.87 124.06 72.64 C 117.97 73.18 111.77 73.62 105.88 75.37 M 125.58 78.79 C 127.95 80.27 130.64 80.91 133.29 81.67 C 131.77 84.88 128.64 86.71 125.96 88.83 C 125.23 87.85 124.52 86.86 123.81 85.87 C 121.64 86.93 119.29 87.27 117.09 86.09 C 116.36 86.74 115.62 87.39 114.89 88.03 C 117.74 89.48 120.29 91.52 123.30 92.61 C 126.38 93.04 129.92 91.42 132.39 94.13 C 131.23 94.69 130.06 95.24 128.89 95.77 C 132.05 97.69 134.61 100.49 137.93 102.17 C 143.60 104.94 148.34 109.22 154.09 111.84 C 157.49 113.11 160.52 115.91 164.36 114.21 C 161.98 112.61 158.78 113.36 156.51 111.54 C 150.41 108.37 142.40 105.02 141.12 97.43 C 139.74 93.73 138.47 89.96 138.34 85.98 C 139.08 85.67 140.56 85.05 141.29 84.74 C 140.96 90.98 144.51 96.34 148.30 100.93 C 148.41 99.88 148.64 97.77 148.76 96.71 C 147.00 95.72 145.35 94.50 144.77 92.46 C 148.58 94.67 153.27 96.08 155.83 99.90 C 153.46 99.63 151.49 98.21 149.39 97.23 C 149.47 98.74 149.47 100.25 149.64 101.75 C 152.37 103.37 155.56 104.26 157.85 106.55 C 157.79 105.77 157.67 104.21 157.61 103.43 C 158.77 104.71 159.82 106.08 160.92 107.41 C 163.36 107.27 165.94 107.18 167.97 108.77 C 168.38 108.45 169.20 107.80 169.61 107.48 C 169.51 106.32 169.38 105.17 169.27 104.02 C 169.74 103.86 170.70 103.53 171.17 103.37 C 170.80 102.58 170.43 101.79 170.07 101.00 C 171.58 99.85 173.15 98.77 174.64 97.58 C 174.97 96.30 174.58 94.96 174.61 93.67 C 171.66 91.94 168.84 90.02 166.32 87.71 C 167.12 89.52 167.88 91.35 168.61 93.19 C 166.97 94.39 165.29 95.94 163.09 95.65 C 160.44 95.95 158.66 92.83 159.28 90.47 C 160.82 88.44 163.39 87.97 165.65 87.18 C 159.95 85.61 154.46 82.96 148.53 82.45 C 143.54 80.91 138.66 78.07 133.27 78.61 C 130.71 78.81 128.14 78.66 125.58 78.79 M 70.76 82.82 C 69.11 82.24 67.40 81.84 65.65 81.75 C 67.28 82.91 69.08 83.80 70.67 85.02 C 69.72 84.85 67.84 84.51 66.89 84.34 C 65.09 83.51 64.68 86.03 63.92 87.04 C 66.00 88.39 67.10 90.59 67.50 92.99 C 66.09 92.76 64.69 92.50 63.29 92.19 C 62.78 93.03 62.21 93.84 61.61 94.62 C 59.79 95.21 59.68 92.94 58.96 91.86 C 58.45 93.01 57.99 94.20 57.36 95.30 C 54.08 96.23 51.08 97.83 47.81 98.81 C 45.06 99.98 41.96 100.52 39.63 102.53 C 39.75 102.87 39.99 103.55 40.11 103.90 C 41.30 103.60 41.81 102.26 42.72 101.53 C 42.18 103.05 41.62 104.56 41.18 106.11 C 40.02 105.21 38.85 104.31 37.73 103.35 C 36.82 104.08 35.92 104.82 35.03 105.57 C 36.04 105.64 38.07 105.78 39.09 105.85 C 37.33 107.00 35.46 106.30 33.82 105.33 C 30.52 109.16 26.92 112.92 24.68 117.46 C 25.96 117.14 27.23 116.81 28.50 116.47 C 28.50 115.66 28.49 114.84 28.48 114.02 C 30.47 113.32 32.38 112.39 34.46 111.97 C 33.95 110.15 35.27 109.14 36.95 109.00 C 38.32 110.70 37.30 112.56 36.64 114.32 C 39.11 113.10 41.44 111.26 44.32 111.24 C 44.90 110.03 45.50 108.84 46.07 107.63 C 43.64 108.51 41.24 109.48 38.78 110.28 C 40.23 107.50 43.10 105.69 46.27 106.64 C 46.66 107.59 47.06 108.54 47.47 109.48 C 48.84 109.41 50.20 109.32 51.57 109.29 C 52.14 107.90 52.72 106.52 53.33 105.15 C 55.12 105.07 56.86 105.49 58.35 106.51 C 58.58 105.91 59.03 104.70 59.26 104.10 C 59.98 104.18 61.42 104.35 62.14 104.43 C 61.46 106.70 60.13 109.02 57.43 108.88 C 57.63 110.73 57.80 112.59 58.29 114.39 C 58.26 113.15 58.19 111.90 58.09 110.66 C 60.31 109.83 62.56 109.08 64.84 108.40 C 65.59 109.43 66.36 110.44 67.15 111.45 C 66.25 112.35 65.34 113.23 64.45 114.13 C 65.65 114.66 66.84 115.20 68.03 115.76 C 73.35 114.04 76.87 109.45 81.16 106.12 C 86.47 100.52 94.23 97.33 98.39 90.68 C 96.78 91.07 95.21 91.63 93.67 92.24 C 93.13 91.49 92.60 90.74 92.06 90.00 C 91.04 90.73 90.02 91.46 88.99 92.19 C 86.88 91.00 84.69 91.42 82.61 92.44 C 82.24 91.27 81.88 90.10 81.52 88.92 C 80.23 89.87 78.95 90.83 77.65 91.77 C 77.01 90.94 76.37 90.11 75.75 89.26 C 74.28 90.23 72.78 91.16 71.22 91.99 C 70.04 90.51 69.45 88.77 69.34 86.89 C 72.24 86.76 75.02 85.97 77.14 83.90 C 78.85 84.35 80.57 84.75 82.32 85.00 C 81.76 82.55 78.92 82.45 77.00 81.61 C 75.55 82.37 74.51 83.67 73.29 84.74 C 73.51 83.07 73.75 81.41 73.92 79.75 C 72.79 80.70 71.74 81.73 70.76 82.82 M 98.90 96.90 C 96.59 99.25 93.29 100.55 91.67 103.57 C 93.72 102.40 95.54 100.83 97.80 100.07 C 97.69 100.64 97.47 101.78 97.36 102.35 C 92.54 105.53 88.50 109.64 84.33 113.60 C 82.84 114.44 84.10 115.82 84.62 116.81 C 82.60 116.39 79.81 115.21 80.15 118.51 C 84.13 118.67 87.99 117.30 91.97 117.80 C 94.14 118.54 95.50 120.53 97.27 121.87 C 99.25 121.74 100.84 120.47 102.56 119.63 C 102.17 118.82 101.40 117.22 101.01 116.41 C 102.69 117.30 104.15 118.50 105.61 119.71 C 105.64 119.09 105.69 117.85 105.72 117.23 C 106.33 118.24 106.96 119.24 107.60 120.24 C 105.76 120.65 103.93 121.17 102.28 122.13 C 105.75 122.78 109.26 123.50 112.80 123.48 C 117.25 122.86 121.44 121.12 125.72 119.83 C 128.18 119.17 129.71 116.55 132.36 116.43 C 135.08 116.34 137.63 115.40 140.13 114.39 C 135.51 111.51 130.36 109.53 125.93 106.33 C 122.34 108.57 118.27 109.28 114.09 108.76 C 110.84 109.08 109.18 105.78 106.85 104.17 C 105.69 104.19 104.53 104.25 103.37 104.34 C 103.30 105.88 103.16 107.42 103.14 108.96 C 103.81 110.32 105.43 108.46 106.48 108.39 C 103.07 111.91 101.13 116.67 97.02 119.58 C 97.35 117.61 97.25 115.35 99.07 114.08 C 100.21 112.37 103.11 111.38 102.31 108.96 C 101.89 108.64 101.06 108.00 100.64 107.69 C 101.84 106.61 101.81 105.04 101.66 103.56 C 103.25 103.59 104.84 103.61 106.44 103.62 C 105.95 101.93 105.46 100.24 105.02 98.53 C 105.56 98.57 106.63 98.64 107.17 98.67 C 107.38 97.67 107.58 96.66 107.80 95.66 C 104.23 95.33 102.38 99.39 99.26 100.55 C 98.55 97.67 101.41 96.23 102.44 93.91 C 101.15 94.77 99.98 95.79 98.90 96.90 M 174.87 93.97 C 175.30 94.88 175.74 95.78 176.19 96.68 C 177.38 96.14 178.57 95.61 179.80 95.14 C 178.13 94.86 176.49 94.42 174.87 93.97 M 108.06 100.87 C 109.59 102.39 111.63 102.47 113.64 102.48 C 113.59 101.32 113.55 100.16 113.51 99.00 C 111.67 99.55 109.84 100.16 108.06 100.87 M 6.19 109.98 C 6.62 111.46 8.00 112.69 9.25 111.18 C 13.80 107.62 19.19 105.13 24.91 104.20 C 24.74 104.80 24.39 106.02 24.22 106.62 C 20.89 109.20 16.62 110.05 13.24 112.54 C 16.03 112.16 18.79 112.68 21.58 112.71 C 24.20 110.19 23.89 105.47 27.70 104.10 C 27.30 103.70 26.49 102.92 26.09 102.52 C 19.54 105.24 12.67 107.09 6.19 109.98 M 112.92 105.28 C 115.97 105.48 119.40 106.33 122.09 104.42 C 121.04 103.80 119.99 103.19 118.94 102.58 C 116.81 103.22 114.37 103.35 112.92 105.28 M 85.05 108.64 C 85.07 108.93 85.10 109.52 85.12 109.82 C 87.87 108.79 90.10 106.17 91.32 103.50 C 88.90 104.77 86.97 106.73 85.05 108.64 M 26.17 107.81 C 26.39 108.50 26.84 109.88 27.07 110.57 C 28.01 108.53 29.22 106.64 30.33 104.69 C 28.89 105.66 27.56 106.77 26.17 107.81 M 54.10 107.16 C 52.95 108.15 54.68 110.28 55.91 109.48 C 57.03 108.40 55.42 106.33 54.10 107.16 M 79.14 114.69 C 81.39 114.11 83.58 113.27 85.52 111.99 C 85.10 111.53 84.27 110.61 83.85 110.15 C 81.88 111.10 80.59 113.10 79.14 114.69 M 7.91 113.52 C 9.33 116.45 10.48 119.63 12.81 121.98 C 14.58 120.66 16.39 119.39 18.14 118.04 C 16.13 118.58 14.28 120.03 12.14 119.86 C 10.87 117.88 11.58 115.16 12.62 113.19 C 11.06 113.38 9.48 113.45 7.91 113.52 M 32.22 114.05 C 32.90 114.73 32.90 114.73 32.22 114.05 M 38.92 120.13 C 42.67 118.92 46.33 117.44 50.24 116.85 C 50.46 117.95 50.68 119.06 50.93 120.16 C 52.89 119.07 54.86 117.97 56.99 117.23 C 55.11 116.53 53.21 115.75 51.81 114.26 C 47.57 116.16 41.36 115.54 38.92 120.13 M 57.25 121.23 C 55.08 123.52 52.09 124.69 49.52 126.44 C 48.74 124.24 50.24 122.48 51.21 120.66 C 49.92 121.64 48.70 122.72 47.45 123.77 C 46.54 123.56 45.64 123.34 44.73 123.12 C 44.44 125.59 41.87 126.19 40.03 127.27 C 41.24 127.76 42.46 128.24 43.68 128.73 C 45.23 127.38 46.85 126.10 48.63 125.06 C 48.41 126.30 48.17 127.55 47.91 128.79 C 54.83 128.00 61.04 124.52 65.72 119.42 C 62.72 117.72 59.53 119.00 57.25 121.23 M 86.26 119.98 C 86.45 121.36 87.16 121.61 88.39 120.74 C 88.16 119.36 87.45 119.11 86.26 119.98 M 28.36 121.00 C 27.39 122.21 29.48 123.38 30.43 122.58 C 31.16 121.45 29.30 119.90 28.36 121.00 M 15.16 124.37 C 15.30 125.40 15.53 126.42 15.74 127.44 C 16.79 128.39 17.46 129.66 18.38 130.73 C 19.17 128.69 20.15 126.74 21.02 124.74 C 20.25 125.74 19.53 126.78 18.84 127.84 C 18.21 127.32 16.95 126.29 16.32 125.77 C 17.18 124.40 18.06 123.04 18.87 121.64 C 17.59 122.47 16.01 123.03 15.16 124.37 M 129.23 122.77 C 129.02 124.72 127.90 126.28 126.18 127.19 C 121.64 129.88 118.16 133.90 113.96 137.04 C 114.75 137.59 115.54 138.14 116.33 138.70 C 120.22 132.31 127.75 129.10 131.04 122.30 C 130.59 122.42 129.68 122.65 129.23 122.77 M 20.05 134.13 C 20.30 134.88 20.81 136.39 21.06 137.14 C 22.75 132.67 24.53 128.21 26.80 123.99 C 24.46 127.31 21.88 130.49 20.05 134.13 M 108.67 133.65 C 109.28 134.22 110.50 135.36 111.11 135.93 C 113.87 132.44 118.34 130.56 120.52 126.64 C 116.55 128.94 112.65 131.37 108.67 133.65 M 24.46 138.31 C 23.95 140.48 22.27 142.92 23.99 144.96 C 25.68 139.33 28.31 133.92 29.01 128.04 C 26.27 130.82 25.91 134.87 24.46 138.31 Z" />
<path fill="#ffffff" opacity="1.00" d=" M 176.99 39.95 C 178.57 39.47 179.11 40.08 178.63 41.76 C 177.05 42.18 176.51 41.58 176.99 39.95 Z" />
<path fill="#ffffff" opacity="1.00" d=" M 133.54 85.53 C 134.74 86.48 135.25 87.94 135.78 89.32 C 135.18 89.49 133.97 89.82 133.37 89.98 C 133.41 88.50 133.47 87.01 133.54 85.53 Z" />
<path fill="#ffffff" opacity="1.00" d=" M 98.29 99.19 C 98.96 99.86 98.96 99.86 98.29 99.19 Z" />
<path fill="#ffffff" opacity="1.00" d=" M 156.72 99.35 C 157.90 99.35 159.08 99.36 160.26 99.39 C 160.54 100.10 161.09 101.53 161.36 102.24 C 159.75 101.38 158.17 100.47 156.72 99.35 Z" />
<path fill="#ffffff" opacity="1.00" d=" M 33.20 108.03 C 34.52 108.64 34.48 109.28 33.07 109.95 C 31.78 109.35 31.82 108.71 33.20 108.03 Z" />
</g>
</svg>
