<?xml version="1.0" encoding="UTF-8" ?>
<!DOCTYPE svg PUBLIC "-//W3C//DTD SVG 1.1//EN" "http://www.w3.org/Graphics/SVG/1.1/DTD/svg11.dtd">
<svg width="200pt" height="200pt" viewBox="0 0 200 200" version="1.1" xmlns="http://www.w3.org/2000/svg">
<g id="#ffffffff">
<path fill="#ffffff" opacity="1.00" d=" M 31.04 59.01 C 31.47 56.28 32.73 53.88 35.04 52.30 C 35.78 52.79 36.53 53.27 37.28 53.74 C 37.54 55.20 37.78 56.66 38.05 58.12 C 39.84 55.69 41.92 52.49 45.43 53.38 C 46.06 59.78 44.97 66.14 44.31 72.49 C 42.88 74.42 40.44 75.66 38.00 75.43 C 32.15 75.34 26.30 75.52 20.45 75.40 C 18.92 74.58 18.36 72.53 17.78 70.97 C 17.19 67.53 15.84 64.30 14.80 60.98 C 13.89 59.33 16.03 58.26 16.83 57.13 C 18.63 59.08 20.49 60.98 22.44 62.79 C 23.37 60.09 23.77 57.24 24.70 54.54 C 25.58 52.54 27.82 54.48 29.22 54.73 C 29.70 56.20 30.13 57.73 31.04 59.01 M 24.86 67.69 C 23.56 67.51 22.26 67.31 20.97 67.13 C 21.20 68.70 21.45 70.28 21.59 71.87 C 27.90 71.60 34.21 71.42 40.52 71.45 C 40.54 69.09 40.68 66.72 40.84 64.36 C 37.92 64.94 35.56 63.53 34.18 61.00 C 33.86 62.43 33.53 63.87 33.18 65.30 C 30.41 64.55 28.38 62.51 26.90 60.14 C 26.50 62.72 25.74 65.23 24.86 67.69 Z" />
<path fill="#ffffff" opacity="1.00" d=" M 58.71 64.54 C 59.11 63.16 60.83 63.93 61.82 63.94 C 61.06 67.93 59.47 71.96 60.09 76.07 C 59.96 72.21 61.26 68.61 63.56 65.53 C 64.15 65.49 65.34 65.40 65.93 65.35 C 65.63 70.85 63.24 76.13 63.23 81.75 C 63.74 81.65 64.76 81.45 65.28 81.35 C 66.74 75.26 68.53 68.62 73.41 64.32 C 74.41 64.49 75.42 64.65 76.43 64.81 C 73.58 70.27 70.26 75.58 69.09 81.73 C 69.76 81.73 71.08 81.73 71.74 81.73 C 73.18 75.41 75.89 69.08 80.57 64.49 C 81.44 63.32 82.90 63.68 84.15 63.72 C 84.28 64.23 84.55 65.25 84.68 65.76 C 80.53 70.24 76.64 75.73 76.09 81.96 C 77.54 83.45 78.33 80.84 78.89 79.91 C 80.98 75.25 84.09 71.16 87.49 67.38 C 88.98 67.31 90.47 67.25 91.96 67.22 C 91.49 69.92 89.10 71.50 87.55 73.56 C 85.41 76.36 83.33 79.29 82.04 82.59 C 83.26 82.72 84.49 82.83 85.72 82.93 C 88.98 77.10 92.92 70.99 99.11 67.97 C 99.75 68.08 101.02 68.30 101.66 68.40 C 101.67 68.97 101.70 70.09 101.72 70.65 C 96.82 74.23 92.36 78.79 89.87 84.39 C 96.17 83.23 97.46 73.59 104.60 74.04 C 104.92 74.61 105.56 75.76 105.88 76.33 C 106.66 76.42 108.23 76.61 109.02 76.70 C 108.27 80.40 103.70 81.46 102.93 85.11 C 106.32 83.15 108.37 79.31 112.21 77.88 C 112.26 78.59 112.37 80.00 112.42 80.70 C 116.56 78.00 120.70 74.53 125.82 74.16 C 123.46 80.45 115.11 81.12 112.07 86.89 C 117.69 84.56 122.48 80.24 126.22 75.47 C 127.21 76.23 128.15 77.04 129.07 77.88 C 127.69 79.50 126.30 81.09 125.04 82.80 C 126.20 83.03 127.37 83.22 128.56 83.27 C 126.61 86.31 123.75 88.58 120.83 90.63 C 123.78 88.93 126.84 87.43 129.72 85.61 C 130.99 84.87 132.54 85.42 133.93 85.32 C 133.21 89.40 128.81 90.05 126.52 92.80 C 128.96 91.47 131.26 89.43 134.19 89.47 C 134.46 90.97 133.92 92.77 134.92 94.07 C 136.31 95.37 138.31 95.45 140.10 95.66 C 139.90 96.13 139.51 97.07 139.31 97.54 C 136.56 97.93 134.33 95.93 131.65 95.74 C 135.55 100.41 139.36 105.85 145.22 108.18 C 148.23 109.09 151.36 108.37 154.24 107.34 C 154.66 108.19 155.13 109.00 155.66 109.79 C 155.65 109.16 155.62 107.89 155.60 107.25 C 157.34 106.25 159.30 105.78 161.23 105.26 C 161.31 105.96 161.48 107.34 161.56 108.03 C 161.56 107.30 161.55 105.82 161.55 105.09 C 171.06 104.42 180.73 100.66 190.20 103.62 C 190.43 104.28 190.90 105.60 191.14 106.26 C 184.15 106.98 176.50 104.94 170.05 108.42 C 175.47 108.32 180.99 107.76 186.37 108.62 C 188.28 108.87 188.43 110.85 188.25 112.38 C 186.03 112.71 183.90 112.27 181.92 111.27 C 183.94 112.41 185.92 113.61 187.83 114.93 C 187.21 117.56 184.04 116.47 182.75 118.33 C 184.65 118.52 188.09 117.98 187.44 121.02 C 184.59 122.23 181.33 123.04 178.36 121.76 C 176.71 121.03 174.96 121.16 173.29 121.72 C 171.85 119.70 169.31 119.43 167.03 119.39 C 167.23 120.26 167.57 121.06 168.07 121.78 C 169.38 121.54 170.66 121.16 171.96 120.83 C 171.25 121.67 170.53 122.49 169.84 123.34 C 174.31 124.20 178.66 125.78 182.80 127.68 C 182.65 128.78 182.58 129.95 181.56 130.62 C 179.85 131.76 180.38 133.91 180.47 135.63 C 173.45 136.34 166.37 134.38 160.89 129.91 C 161.33 129.06 162.23 127.36 162.67 126.50 C 164.31 129.25 167.10 130.22 170.10 130.59 C 167.55 128.06 162.85 127.95 162.06 123.94 C 161.32 124.72 160.59 125.50 159.86 126.28 C 159.00 125.66 158.32 124.89 157.81 124.00 C 158.53 120.48 163.38 119.68 166.38 120.60 C 165.64 119.71 164.88 118.83 164.14 117.95 C 164.49 116.03 164.70 114.09 165.00 112.17 C 163.17 115.46 159.21 114.71 156.06 114.75 C 153.66 115.09 151.29 115.58 148.87 115.74 C 151.05 116.96 153.32 118.04 155.31 119.56 C 156.77 119.42 158.25 119.52 159.48 120.40 C 156.91 121.84 157.15 124.66 157.41 127.18 C 154.85 127.17 152.23 127.65 149.73 126.89 C 147.46 127.27 145.06 128.47 142.83 127.24 C 140.09 125.75 137.41 124.00 134.14 124.20 C 130.47 121.71 126.17 120.37 121.72 120.57 C 122.57 121.60 123.58 122.48 124.65 123.30 C 124.11 125.27 123.65 127.27 123.00 129.21 C 123.59 130.16 124.17 131.11 124.75 132.07 C 122.32 133.57 123.63 136.26 125.84 137.08 C 128.20 139.06 133.90 138.44 132.44 142.80 C 130.36 141.94 128.38 140.75 126.12 140.40 C 122.70 139.88 120.39 136.95 118.26 134.49 C 116.43 131.70 113.96 127.36 117.77 125.04 C 115.90 125.61 113.99 126.05 112.08 126.50 C 112.73 126.48 114.03 126.45 114.68 126.44 C 115.64 129.17 111.62 129.71 110.46 127.67 C 110.45 128.06 110.43 128.85 110.42 129.25 C 105.59 131.37 100.33 132.36 95.12 133.06 C 93.68 133.16 92.68 134.19 91.64 135.06 C 92.07 136.33 92.48 137.62 92.87 138.91 C 92.39 139.42 91.42 140.46 90.94 140.97 C 89.02 139.16 87.75 136.40 84.80 136.13 C 86.02 134.95 88.45 134.90 87.78 132.63 C 85.76 133.36 85.12 135.85 82.92 136.31 C 82.75 135.68 82.43 134.41 82.26 133.78 C 80.52 133.53 79.03 132.68 78.24 131.07 C 79.16 134.99 73.63 138.55 76.21 142.20 C 76.68 139.25 79.03 137.85 81.39 136.52 C 81.57 137.23 81.76 137.94 81.95 138.66 C 80.79 139.57 79.63 140.51 78.63 141.60 C 81.80 141.52 84.85 142.35 87.90 143.07 C 86.56 141.70 85.09 140.38 84.64 138.43 C 87.75 138.66 90.88 140.45 92.69 142.94 C 92.41 145.15 90.10 145.53 88.38 146.22 C 86.22 146.87 84.12 147.76 81.91 148.28 C 76.99 147.07 72.53 144.38 68.35 141.56 C 68.22 140.90 67.97 139.57 67.85 138.90 C 70.02 139.87 72.17 140.90 74.45 141.61 C 74.53 138.56 70.88 139.29 69.18 137.89 C 65.92 135.26 62.88 132.35 59.88 129.42 C 56.04 131.70 51.36 130.45 47.13 130.55 C 48.10 128.54 49.48 126.77 50.45 124.76 C 48.03 125.68 47.67 128.32 47.09 130.49 C 40.96 131.01 35.64 127.58 30.67 124.45 C 29.26 123.29 27.40 123.06 25.71 122.55 C 21.42 121.59 18.00 118.66 14.05 116.90 C 14.47 114.01 14.67 110.98 12.01 109.08 C 13.10 105.98 14.51 101.33 18.50 101.46 C 19.32 104.26 17.06 106.23 15.30 108.00 C 16.88 109.78 17.79 111.94 17.66 114.35 C 22.44 116.71 26.84 119.91 32.08 121.28 C 33.63 118.49 34.59 115.37 34.47 112.15 C 35.20 111.96 36.68 111.57 37.42 111.38 C 36.91 114.74 36.68 118.13 36.77 121.53 C 35.41 121.69 33.66 121.31 32.92 122.81 C 36.11 124.60 38.55 121.70 40.94 120.01 C 44.75 117.78 46.12 113.35 48.81 110.08 C 45.80 106.77 40.49 106.84 38.05 102.89 C 36.29 101.19 37.75 98.87 37.95 96.88 C 35.50 97.95 33.20 99.45 30.49 99.78 C 28.26 100.52 25.20 100.13 23.80 102.38 C 25.30 102.36 26.81 102.34 28.31 102.30 C 29.30 105.22 28.00 108.08 25.75 109.97 C 23.36 109.35 21.35 108.02 19.96 105.97 C 20.17 107.36 20.42 108.75 20.65 110.14 C 20.05 109.98 18.85 109.66 18.25 109.49 C 17.73 106.47 19.81 104.11 22.91 104.42 C 22.88 103.89 22.81 102.85 22.77 102.32 C 21.75 102.82 20.73 103.33 19.70 103.83 C 19.63 102.47 18.48 100.10 20.57 99.67 C 24.79 97.71 29.08 95.91 33.56 94.61 C 39.06 90.48 44.54 85.98 51.28 84.06 C 49.65 77.71 50.34 70.76 52.78 64.71 C 53.20 64.63 54.03 64.46 54.45 64.37 C 54.57 66.71 55.08 69.10 54.33 71.39 C 53.13 75.38 54.01 79.56 53.62 83.65 C 54.35 83.01 55.10 82.39 55.85 81.78 C 56.02 75.96 56.70 70.03 58.71 64.54 M 56.74 86.89 C 58.62 88.10 60.45 85.31 62.21 86.79 C 62.78 87.13 63.92 87.81 64.49 88.15 C 62.31 90.40 59.07 90.35 56.23 90.97 C 53.07 93.31 49.68 95.28 46.20 97.07 C 45.66 96.74 44.60 96.08 44.06 95.74 C 44.28 96.32 44.71 97.49 44.92 98.07 C 43.93 98.64 42.93 99.21 41.93 99.77 C 40.92 97.94 40.00 96.00 38.36 94.64 C 38.92 97.81 40.03 101.49 43.31 102.80 C 45.91 103.69 48.50 104.67 50.61 106.50 C 53.24 107.44 56.85 107.94 57.84 111.00 C 56.78 114.23 54.41 117.24 51.02 118.19 C 50.57 115.25 52.73 113.24 54.05 110.91 C 51.44 113.67 49.68 117.12 46.59 119.47 C 48.64 119.51 50.69 119.82 52.74 119.80 C 54.67 118.67 56.34 117.18 58.06 115.78 C 60.01 117.60 62.61 118.07 65.02 118.99 C 68.80 121.04 71.66 124.41 74.54 127.54 C 74.92 128.89 74.65 130.30 74.62 131.67 C 75.15 132.16 75.69 132.65 76.23 133.14 C 76.38 131.87 75.75 129.07 77.95 129.57 C 82.46 130.56 86.18 126.94 90.69 127.23 C 95.05 126.06 98.87 123.38 103.02 121.59 C 101.97 121.26 100.92 120.94 99.87 120.61 C 97.79 123.92 93.07 124.28 90.01 126.58 C 86.80 124.19 83.58 120.63 84.42 116.29 C 83.73 115.53 83.07 114.76 82.41 113.99 C 83.71 112.78 84.92 111.46 86.03 110.08 C 87.14 111.58 88.42 112.94 89.66 114.33 C 90.23 113.80 91.35 112.76 91.91 112.23 C 92.85 112.77 93.79 113.31 94.73 113.84 C 94.61 113.02 94.50 112.20 94.38 111.38 C 95.57 110.19 96.62 108.86 97.70 107.57 C 97.80 109.24 96.78 111.53 98.77 112.46 C 99.45 110.88 99.98 109.22 100.84 107.73 C 102.45 105.42 105.45 104.95 108.00 104.42 C 107.40 102.28 106.79 100.10 105.56 98.22 C 101.54 100.19 96.93 100.22 92.64 101.33 C 93.43 99.89 94.35 98.15 96.29 98.36 C 100.26 97.26 104.58 98.27 108.36 96.57 C 111.25 96.10 114.49 97.28 116.95 95.23 C 116.81 95.76 116.53 96.80 116.38 97.33 C 114.44 97.50 112.15 96.73 110.68 98.41 C 109.74 98.07 108.80 97.74 107.86 97.41 C 107.53 97.98 106.87 99.12 106.55 99.69 C 107.24 100.63 107.92 101.57 108.61 102.51 C 108.48 103.38 108.35 104.26 108.25 105.13 C 106.74 106.11 103.97 106.07 103.90 108.37 C 105.74 108.54 107.90 108.40 107.76 110.89 C 109.52 108.89 111.91 108.18 114.52 108.31 L 113.76 109.50 C 112.85 109.43 111.04 109.29 110.14 109.22 C 110.55 110.20 111.05 111.12 111.65 112.01 C 110.84 111.44 109.99 110.96 109.10 110.55 C 106.44 113.21 103.13 115.81 102.88 119.86 C 107.19 116.78 111.88 114.31 116.81 112.38 C 117.38 113.53 117.95 114.69 118.52 115.85 C 121.14 115.32 123.23 113.39 125.92 113.08 C 125.87 114.84 125.40 116.53 124.47 118.02 C 128.54 118.35 132.43 119.59 136.39 120.47 C 140.59 121.44 144.81 120.25 149.02 120.14 C 146.57 117.31 142.69 116.52 139.90 114.12 C 136.38 111.17 132.84 108.20 129.79 104.76 C 129.64 104.17 129.35 102.99 129.21 102.40 C 131.01 103.48 132.72 104.85 134.91 104.94 C 132.16 102.01 128.87 99.68 125.58 97.42 C 124.16 94.94 121.74 93.53 119.15 92.51 C 118.54 92.84 117.32 93.51 116.71 93.85 C 116.99 92.76 117.31 91.69 117.60 90.61 C 112.74 90.91 108.11 89.12 103.33 88.72 C 98.37 88.83 93.59 86.52 88.62 87.91 C 88.52 88.56 88.30 89.84 88.20 90.48 C 87.01 90.27 85.83 90.08 84.65 89.88 C 84.59 88.91 84.51 87.94 84.41 86.98 C 83.05 87.69 82.04 88.86 80.79 89.72 C 75.84 89.74 70.86 88.91 66.05 90.45 C 64.28 88.77 66.28 86.69 66.74 84.88 C 65.52 85.41 64.31 85.98 63.10 86.56 C 62.72 86.01 61.97 84.90 61.59 84.35 C 59.86 84.97 58.08 85.57 56.74 86.89 M 67.14 87.71 C 69.39 87.86 71.74 87.70 73.41 85.97 C 70.98 84.71 68.57 85.49 67.14 87.71 M 45.50 92.66 C 44.59 92.60 43.68 92.54 42.77 92.48 C 43.49 93.68 44.21 94.87 44.95 96.07 C 47.12 94.64 47.70 91.98 49.32 90.09 C 51.45 89.04 53.88 89.46 56.17 89.35 C 56.31 88.78 56.59 87.62 56.73 87.04 C 52.77 88.22 47.61 88.54 45.50 92.66 M 134.54 106.37 C 137.13 109.35 140.95 111.09 144.65 112.28 C 146.36 113.01 148.34 112.04 149.22 110.50 C 143.94 111.30 139.04 108.77 134.54 106.37 M 102.05 113.56 C 103.78 113.87 106.01 113.96 106.85 112.02 C 106.48 111.23 105.74 109.65 105.37 108.86 C 103.81 110.07 102.55 111.61 102.05 113.56 M 160.01 112.27 C 158.42 115.25 163.41 112.33 160.01 112.27 M 121.25 118.16 C 121.86 118.79 121.86 118.79 121.25 118.16 M 53.30 128.96 C 54.94 128.41 56.56 127.83 58.23 127.37 C 58.37 126.12 58.56 124.87 58.82 123.64 C 62.14 128.56 67.24 131.66 71.82 135.25 C 72.89 136.01 75.36 136.24 74.60 134.24 C 70.38 130.61 64.47 128.91 61.46 123.94 C 61.80 123.51 62.47 122.65 62.81 122.22 C 65.89 124.41 67.91 128.36 71.53 129.52 C 69.62 125.80 66.14 123.38 63.07 120.71 C 62.42 121.22 61.11 122.22 60.45 122.72 C 60.38 121.16 60.36 119.59 60.38 118.02 C 57.49 121.31 55.93 125.48 53.30 128.96 M 108.22 119.24 C 108.83 119.85 108.83 119.85 108.22 119.24 M 41.70 126.20 C 44.26 125.84 46.48 124.20 47.53 121.83 C 45.37 122.95 43.34 124.39 41.70 126.20 M 100.75 126.48 C 103.93 125.40 107.89 124.87 109.57 121.53 C 106.12 122.10 103.72 124.86 100.75 126.48 M 120.32 131.89 C 119.82 128.70 122.71 125.78 120.16 122.96 C 118.45 125.84 117.83 129.29 120.32 131.89 Z" />
<path fill="#ffffff" opacity="1.00" d=" M 101.21 103.41 C 102.85 102.91 103.43 103.45 102.95 105.03 C 101.30 105.54 100.72 105.01 101.21 103.41 Z" />
<path fill="#ffffff" opacity="1.00" d=" M 98.33 104.05 C 99.71 103.72 100.22 104.22 99.87 105.57 C 98.46 105.92 97.95 105.41 98.33 104.05 Z" />
<path fill="#ffffff" opacity="1.00" d=" M 34.67 105.60 C 35.21 105.31 36.27 104.72 36.80 104.43 C 36.58 106.53 36.49 108.65 36.45 110.77 C 33.03 111.00 34.78 107.67 34.67 105.60 Z" />
<path fill="#ffffff" opacity="1.00" d=" M 87.36 107.51 C 88.87 106.89 91.32 109.07 89.63 110.42 C 87.98 111.66 87.03 108.70 87.36 107.51 Z" />
<path fill="#ffffff" opacity="1.00" d=" M 21.23 113.21 C 21.89 113.87 21.89 113.87 21.23 113.21 Z" />
<path fill="#ffffff" opacity="1.00" d=" M 119.26 113.17 C 119.92 113.84 119.92 113.84 119.26 113.17 Z" />
<path fill="#ffffff" opacity="1.00" d=" M 131.51 125.19 C 135.21 124.45 136.62 128.22 138.98 130.23 C 137.68 131.69 135.80 131.99 133.93 131.92 C 136.34 135.00 136.61 139.15 135.40 142.78 C 134.47 142.70 133.53 142.63 132.60 142.55 C 132.95 141.25 133.30 139.97 133.64 138.67 C 130.65 137.58 127.93 135.89 125.04 134.56 C 125.02 134.21 124.97 133.51 124.95 133.16 C 127.76 131.67 129.97 128.89 133.41 129.05 C 132.74 127.78 132.10 126.50 131.51 125.19 Z" />
</g>
</svg>
