<?xml version="1.0" encoding="UTF-8" ?>
<!DOCTYPE svg PUBLIC "-//W3C//DTD SVG 1.1//EN" "http://www.w3.org/Graphics/SVG/1.1/DTD/svg11.dtd">
<svg width="128pt" height="128pt" viewBox="0 0 128 128" version="1.1" xmlns="http://www.w3.org/2000/svg">
<g id="#ffffffff">
<path fill="#ffffff" opacity="1.00" d=" M 88.20 33.16 C 91.05 30.66 94.85 29.21 98.64 29.40 C 100.91 30.24 102.63 32.07 104.23 33.82 C 106.16 33.51 108.13 33.29 110.04 33.87 C 108.93 37.18 105.55 38.80 103.53 41.48 C 102.79 44.82 101.39 47.95 100.41 51.21 C 99.13 55.37 95.69 58.46 94.73 62.76 C 93.17 67.72 89.14 71.00 84.76 73.43 C 83.91 72.31 83.10 71.18 82.30 70.04 C 82.70 71.37 84.69 72.91 83.40 74.25 C 78.69 76.26 73.86 77.96 68.79 78.81 C 69.65 81.87 71.41 84.54 72.99 87.26 C 82.90 87.35 92.86 87.84 102.68 89.16 C 106.55 92.00 111.29 91.50 115.83 91.50 C 115.67 91.98 115.36 92.95 115.21 93.43 C 112.23 93.50 109.17 93.67 106.29 92.72 C 89.04 91.97 71.66 92.26 54.37 92.51 C 54.49 91.64 54.73 89.89 54.85 89.02 C 53.73 91.43 50.77 90.65 48.67 91.27 C 48.71 90.60 48.75 89.94 48.80 89.28 C 49.29 89.36 50.27 89.52 50.76 89.60 C 53.18 85.84 58.18 87.69 61.87 87.56 C 60.83 86.30 59.75 85.06 58.67 83.84 C 58.68 82.72 58.70 81.60 58.74 80.48 C 54.10 82.21 49.04 83.35 44.08 82.78 C 38.31 83.84 32.37 85.91 28.35 90.40 C 25.97 93.07 21.63 93.52 20.28 97.14 C 19.86 97.25 19.02 97.49 18.60 97.60 C 18.44 100.94 15.28 102.98 13.50 105.53 C 12.93 105.57 11.81 105.64 11.24 105.67 C 11.97 100.81 15.53 97.14 18.74 93.70 C 21.31 90.98 25.31 89.20 26.09 85.22 C 24.65 87.26 22.92 89.08 20.58 90.10 C 20.52 89.40 20.39 88.02 20.33 87.33 C 24.39 83.69 28.89 80.60 32.87 76.88 C 35.98 74.06 38.45 70.64 41.24 67.53 C 36.83 67.92 35.59 73.30 31.25 73.78 C 31.31 73.22 31.42 72.10 31.47 71.53 C 36.27 69.52 39.86 65.58 43.93 62.47 C 44.39 62.76 45.32 63.35 45.78 63.65 C 45.62 62.82 45.46 62.00 45.31 61.18 C 48.30 58.40 52.17 56.88 55.22 54.17 C 60.63 49.90 66.64 46.23 73.17 43.94 C 79.05 41.75 83.60 37.26 88.20 33.16 M 93.53 35.33 C 91.80 36.61 92.32 38.77 92.52 40.59 C 94.54 40.49 96.56 40.35 98.58 40.42 C 98.98 38.99 99.39 37.57 99.78 36.14 C 97.81 35.44 95.48 33.52 93.53 35.33 M 37.14 78.30 C 38.78 77.48 40.33 76.51 41.92 75.61 C 41.70 74.71 41.48 73.81 41.25 72.92 C 39.68 74.56 38.30 76.36 37.14 78.30 M 60.82 80.95 C 63.14 83.08 65.21 85.50 67.82 87.30 C 66.89 85.07 65.66 82.84 66.41 80.36 C 64.54 80.54 62.68 80.70 60.82 80.95 Z" />
</g>
</svg>
