<?xml version="1.0" encoding="UTF-8" ?>
<!DOCTYPE svg PUBLIC "-//W3C//DTD SVG 1.1//EN" "http://www.w3.org/Graphics/SVG/1.1/DTD/svg11.dtd">
<svg width="128pt" height="128pt" viewBox="0 0 128 128" version="1.1" xmlns="http://www.w3.org/2000/svg">
<g id="#ffffffff">
<path fill="#ffffff" opacity="1.00" d=" M 27.98 33.25 C 30.75 32.30 31.93 28.22 35.27 28.77 C 35.69 31.66 35.63 34.59 35.77 37.51 C 34.92 38.63 34.13 39.81 33.54 41.10 C 34.56 40.15 35.56 39.16 36.52 38.15 C 36.75 38.79 37.20 40.05 37.43 40.69 C 40.64 40.78 43.86 41.34 47.08 40.95 C 49.64 40.36 52.26 42.38 52.99 44.74 C 52.40 45.03 51.21 45.60 50.61 45.89 C 50.58 46.07 50.50 46.43 50.47 46.61 C 52.44 45.65 54.57 45.10 56.78 45.24 C 56.64 45.16 56.34 45.01 56.19 44.94 C 55.68 44.68 54.65 44.17 54.13 43.91 C 54.11 43.60 54.07 42.98 54.05 42.67 C 57.02 41.68 60.17 41.30 63.03 39.98 C 66.92 38.16 71.32 38.82 75.48 38.59 C 77.29 38.57 79.21 37.91 80.91 38.86 C 84.94 40.66 89.03 42.67 92.07 45.95 C 94.75 48.51 95.87 52.15 97.58 55.34 C 99.12 54.72 100.70 53.51 102.41 54.34 C 106.24 55.81 110.33 55.13 114.31 55.61 C 113.24 56.77 112.14 57.89 111.03 59.01 C 112.44 59.07 113.85 59.13 115.26 59.19 C 116.08 61.24 116.98 63.27 117.61 65.39 C 120.47 65.58 122.56 67.64 124.37 69.65 C 124.96 70.69 126.83 71.47 126.32 72.86 C 124.24 73.77 122.18 74.74 120.05 75.53 C 118.54 74.42 117.17 73.14 115.70 71.98 C 116.84 74.06 118.32 75.99 118.95 78.32 C 114.55 77.17 110.90 74.15 108.55 70.30 C 104.82 70.08 101.30 68.79 98.04 67.03 C 97.23 65.61 96.73 64.04 96.02 62.58 C 95.34 64.44 96.16 66.26 96.51 68.09 C 96.90 68.02 97.66 67.87 98.04 67.80 C 99.27 68.43 99.27 70.02 99.85 71.12 C 101.23 71.28 102.61 71.45 103.99 71.65 C 103.30 72.80 102.61 73.96 101.93 75.12 C 102.91 74.20 103.37 72.52 104.84 72.25 C 107.92 73.49 107.48 77.06 108.36 79.69 C 109.43 83.72 112.39 87.37 112.06 91.67 C 111.05 92.33 110.01 92.93 108.93 93.47 C 107.18 89.74 106.57 85.62 105.68 81.64 C 98.79 81.10 92.56 77.42 86.24 74.85 C 81.69 73.56 83.77 66.40 78.83 65.46 C 80.64 72.26 83.52 78.77 87.18 84.78 C 88.65 87.26 90.75 89.36 91.66 92.15 C 89.48 90.95 87.24 89.85 84.81 89.25 C 84.51 83.67 79.80 80.29 75.62 77.38 C 72.91 75.74 72.02 72.43 69.85 70.26 C 64.51 70.84 59.31 72.15 54.08 73.31 C 50.06 71.31 45.69 72.40 41.68 73.80 C 41.03 79.84 35.04 82.67 30.38 85.33 C 30.03 85.24 29.33 85.04 28.98 84.94 C 28.97 83.19 30.80 82.19 31.68 80.83 C 30.45 81.49 29.12 82.00 28.03 82.88 C 27.69 84.20 27.51 85.56 27.18 86.88 C 22.79 90.60 18.17 94.04 13.77 97.75 C 10.61 95.54 15.27 93.55 16.42 91.53 C 17.52 89.06 19.16 86.89 21.39 85.32 C 23.48 83.42 26.59 82.45 27.71 79.66 C 28.65 76.68 28.66 73.53 28.95 70.45 C 24.83 74.17 21.35 78.63 16.58 81.58 C 14.47 83.29 12.64 88.77 9.40 86.11 C 11.55 82.19 14.02 78.40 17.48 75.49 C 21.69 72.12 24.15 66.94 24.85 61.66 C 23.39 62.20 21.74 63.50 20.35 62.06 C 18.43 60.43 17.10 58.23 15.61 56.22 C 12.46 55.22 9.33 54.11 5.97 54.14 C 7.13 51.37 8.32 48.54 11.01 46.92 C 13.81 45.76 10.98 40.42 13.79 40.18 C 13.93 40.98 14.21 42.58 14.36 43.37 C 15.95 42.90 15.87 41.37 16.08 40.02 C 17.14 39.25 18.13 39.42 19.04 40.52 C 18.42 39.81 17.79 39.10 17.18 38.38 C 16.17 38.37 15.17 38.30 14.17 38.15 C 13.56 36.20 12.52 31.99 15.75 32.03 C 15.24 31.81 14.22 31.35 13.71 31.12 C 14.54 30.59 16.19 29.53 17.02 29.00 C 18.31 30.14 19.52 31.36 20.71 32.60 C 23.15 32.66 25.56 32.99 27.98 33.25 M 22.07 43.98 C 24.13 43.96 27.30 43.61 26.94 40.78 C 24.37 39.66 22.46 41.49 22.07 43.98 M 81.39 41.60 C 81.97 44.67 85.39 46.45 88.28 45.34 C 86.09 43.90 83.79 42.64 81.39 41.60 M 31.24 58.13 C 31.32 61.50 34.25 56.61 31.24 58.13 M 46.35 58.04 C 46.25 61.48 49.32 56.61 46.35 58.04 M 68.90 66.58 C 71.13 66.27 75.00 67.28 74.54 63.77 C 72.63 64.64 70.73 65.55 68.90 66.58 M 43.35 66.72 C 42.48 69.06 41.69 71.43 41.35 73.91 C 43.02 72.15 44.53 70.25 46.28 68.56 C 45.36 67.86 44.35 67.31 43.35 66.72 Z" />
</g>
</svg>
