<?xml version="1.0" encoding="UTF-8" ?>
<!DOCTYPE svg PUBLIC "-//W3C//DTD SVG 1.1//EN" "http://www.w3.org/Graphics/SVG/1.1/DTD/svg11.dtd">
<svg width="200pt" height="200pt" viewBox="0 0 200 200" version="1.1" xmlns="http://www.w3.org/2000/svg">
<g id="#ffffffff">
<path fill="#ffffff" opacity="1.00" d=" M 144.07 51.07 C 150.65 47.19 156.69 42.42 163.65 39.20 C 164.08 40.05 164.52 40.89 164.95 41.74 C 162.31 43.50 159.61 45.16 157.04 47.01 C 153.46 49.30 153.39 54.63 149.58 56.64 C 149.48 56.91 149.27 57.46 149.17 57.74 C 149.74 57.68 150.88 57.57 151.46 57.52 C 152.70 54.98 154.65 52.95 156.81 51.18 C 157.50 51.91 158.19 52.64 158.87 53.37 C 161.37 52.60 163.78 51.62 166.10 50.42 C 167.31 50.51 168.37 51.76 168.25 52.99 C 168.43 56.15 168.47 59.34 169.22 62.44 C 169.98 59.20 170.65 55.94 171.51 52.73 C 173.10 51.95 174.65 51.09 176.17 50.17 C 178.34 56.00 177.98 62.39 177.60 68.48 C 177.10 69.97 178.17 71.16 178.78 72.41 C 175.23 74.74 170.91 73.61 166.95 73.94 C 160.38 74.53 153.78 74.53 147.19 74.71 C 146.22 75.72 145.21 76.70 144.21 77.68 C 147.26 78.47 150.06 80.07 153.17 80.67 C 157.52 81.09 161.86 81.60 166.12 82.60 C 172.03 82.14 178.32 82.13 183.84 84.59 C 183.82 85.36 183.80 86.91 183.79 87.68 C 175.24 85.76 166.37 86.21 157.85 84.25 C 154.83 89.13 154.99 95.77 159.33 99.86 C 159.61 98.45 159.74 97.03 159.88 95.60 C 161.32 98.34 163.11 101.19 162.58 104.44 C 166.02 104.60 169.67 103.93 172.67 106.06 C 172.43 105.18 171.96 103.43 171.72 102.56 C 169.73 102.11 167.76 101.57 165.89 100.77 C 167.82 100.42 169.75 100.10 171.69 99.80 C 171.69 99.27 171.67 98.21 171.66 97.69 C 171.93 97.96 172.46 98.50 172.72 98.77 C 174.11 97.04 175.88 95.69 177.60 94.30 C 178.08 89.17 184.27 88.73 186.79 85.04 C 189.36 85.54 192.45 85.61 194.13 87.96 C 195.42 89.30 195.11 91.24 195.34 92.93 C 193.41 92.75 191.49 92.50 189.56 92.40 C 185.69 99.98 179.48 106.49 171.65 110.00 C 169.09 110.77 166.33 110.08 163.69 110.42 C 160.68 110.16 156.96 113.86 155.11 109.98 C 154.42 111.16 153.73 112.34 153.03 113.51 C 150.91 113.51 148.81 113.02 148.69 110.53 C 153.30 109.51 158.02 109.09 162.72 109.76 C 161.76 107.97 160.88 106.12 160.46 104.12 C 157.82 103.20 154.96 102.03 153.83 99.24 C 152.64 96.04 151.29 92.66 151.76 89.17 C 152.53 86.91 154.76 85.94 156.59 84.70 C 153.63 83.77 150.52 83.42 147.74 81.97 C 145.79 81.10 144.08 82.36 142.70 83.61 C 141.45 82.79 140.23 81.91 138.93 81.18 C 137.06 81.24 137.48 83.24 137.22 84.53 C 134.59 83.42 133.16 86.35 130.86 86.93 C 127.64 88.13 124.52 89.61 121.43 91.11 C 123.01 91.45 124.61 91.68 126.21 91.89 C 124.72 92.87 123.23 94.36 121.27 93.79 C 119.14 94.04 118.80 91.62 117.92 90.24 C 119.84 88.66 121.90 87.23 123.79 85.61 C 118.40 86.53 112.57 86.90 108.03 90.29 C 115.11 95.21 122.98 98.85 130.25 103.47 C 130.52 102.89 131.07 101.73 131.34 101.15 C 131.31 102.23 131.25 103.31 131.18 104.40 C 132.88 105.08 134.48 106.02 136.22 106.60 C 137.68 106.10 139.08 105.43 140.54 104.89 C 140.51 103.77 140.48 102.64 140.44 101.51 C 141.08 101.35 142.37 101.03 143.01 100.87 C 142.49 101.21 141.45 101.90 140.93 102.24 C 141.42 103.46 141.89 104.69 142.34 105.92 C 144.89 105.42 147.51 105.30 149.68 106.97 C 152.26 104.67 155.48 106.29 158.14 107.50 C 154.41 107.30 151.00 109.20 147.27 108.81 C 147.49 110.67 147.68 112.54 147.63 114.42 C 157.98 120.96 167.80 128.28 177.89 135.21 C 179.62 136.01 178.48 137.86 178.36 139.24 C 174.80 137.54 171.65 135.08 167.96 133.67 C 175.18 138.49 181.27 144.80 188.50 149.61 C 188.58 150.38 188.75 151.91 188.83 152.68 C 186.63 152.43 184.53 151.60 182.99 149.97 C 180.98 147.88 178.33 146.62 176.01 144.94 C 171.93 141.44 167.57 138.28 163.02 135.44 C 163.57 135.19 164.68 134.70 165.23 134.45 C 163.67 134.31 161.87 134.81 160.58 133.62 C 157.28 131.25 154.27 128.50 150.82 126.33 L 151.13 125.88 C 151.85 125.78 153.31 125.59 154.04 125.49 C 151.77 124.54 149.84 123.04 148.00 121.44 C 148.57 122.58 149.40 123.60 149.78 124.83 C 147.56 125.03 146.03 122.90 144.49 121.59 C 144.20 120.18 144.04 118.74 143.75 117.32 C 143.51 118.23 143.02 120.04 142.77 120.94 C 141.88 120.26 140.99 119.59 140.09 118.92 C 138.80 120.40 137.38 121.75 135.98 123.11 C 132.76 121.31 128.58 121.26 126.20 118.17 C 122.97 119.50 119.58 120.34 116.22 121.28 C 114.02 122.18 111.97 120.23 109.74 120.77 C 107.06 121.15 104.38 121.51 101.67 121.59 C 101.28 126.93 97.43 130.98 94.88 135.43 C 94.47 135.03 93.66 134.24 93.25 133.85 C 91.22 135.86 88.96 137.63 86.48 139.05 C 86.70 138.04 87.13 136.00 87.34 134.98 C 84.85 135.25 82.37 135.56 79.87 135.70 C 80.26 134.28 80.24 132.57 81.60 131.66 C 84.92 128.86 87.38 125.26 89.41 121.46 C 84.37 119.49 79.04 118.51 73.81 117.21 C 68.85 121.15 64.24 125.50 60.50 130.64 C 57.33 130.10 55.11 132.45 52.83 134.23 C 52.03 135.31 50.76 134.76 50.02 133.97 C 50.94 132.39 52.05 130.94 52.99 129.38 C 48.94 132.76 45.07 136.41 41.80 140.56 C 44.82 138.68 46.81 135.62 49.63 133.48 C 49.68 134.31 49.78 135.97 49.83 136.80 C 44.07 140.67 39.19 145.96 32.91 148.95 C 30.91 148.46 29.10 147.42 27.27 146.51 C 29.59 142.80 33.25 140.35 36.23 137.25 C 39.37 134.43 42.24 131.32 45.51 128.65 C 44.72 127.84 44.00 126.98 43.35 126.06 C 42.93 124.15 44.41 122.73 45.25 121.22 C 45.66 121.97 46.48 123.46 46.89 124.20 C 46.61 122.84 46.31 121.49 46.03 120.14 C 47.97 118.66 49.70 116.92 51.63 115.44 C 48.77 114.73 45.27 113.37 42.73 115.61 C 38.57 117.91 33.69 118.79 30.11 122.15 C 23.51 124.72 20.72 131.62 18.04 137.62 C 17.23 137.51 16.43 137.35 15.64 137.13 C 15.50 135.58 15.84 134.05 15.98 132.51 C 15.24 132.56 14.50 132.61 13.76 132.65 C 11.95 129.05 12.49 125.12 13.02 121.30 C 11.67 116.29 15.55 112.12 18.54 108.58 C 13.31 105.58 7.58 103.09 3.36 98.66 C 2.32 97.04 -0.20 94.35 2.06 92.75 C 10.12 95.02 18.55 97.16 26.98 95.87 C 31.20 95.08 36.49 96.39 39.54 92.59 C 44.20 89.28 47.83 84.60 53.05 82.07 C 57.36 79.42 62.24 78.00 66.85 76.00 C 59.90 72.15 52.67 68.86 45.32 65.83 C 41.46 63.83 37.74 61.56 33.73 59.88 C 28.49 58.37 23.59 55.73 19.32 52.37 C 23.03 53.26 26.41 55.12 29.64 57.09 C 29.70 56.34 29.80 54.83 29.85 54.08 C 25.94 52.72 22.07 51.04 18.60 48.77 C 18.66 48.28 18.76 47.30 18.81 46.81 C 22.73 45.83 25.82 49.78 29.60 50.45 C 42.80 56.86 56.22 62.88 69.11 69.92 C 69.97 69.02 70.83 68.11 71.70 67.22 C 74.23 69.69 78.26 70.12 79.31 73.93 C 80.01 70.52 80.08 65.97 84.02 64.64 C 88.30 64.53 92.92 65.05 96.27 67.99 C 95.01 68.47 93.78 69.01 92.57 69.59 C 92.48 71.29 92.70 72.98 92.81 74.67 C 90.69 76.32 87.87 75.60 85.41 75.53 C 87.99 77.11 88.22 80.65 91.23 81.70 C 96.52 84.04 102.07 80.34 105.84 76.82 C 102.77 77.58 99.50 77.96 96.63 76.28 C 97.18 77.11 97.74 77.92 98.31 78.73 C 96.48 79.69 94.75 80.83 92.91 81.77 C 93.23 80.35 93.57 78.93 93.91 77.52 C 92.74 78.62 91.57 79.73 90.37 80.80 C 89.90 79.79 89.11 78.88 89.04 77.73 C 90.30 76.88 91.57 76.04 92.87 75.23 C 92.96 75.42 93.15 75.80 93.25 75.99 C 94.08 75.67 94.89 75.28 95.65 74.81 C 95.28 74.55 94.54 74.02 94.17 73.76 C 93.84 73.23 93.20 72.18 92.87 71.65 C 94.51 71.51 96.15 71.40 97.79 71.30 C 97.70 72.93 97.14 74.86 98.77 75.95 C 98.65 74.09 98.50 72.23 98.31 70.38 C 99.78 70.91 101.25 71.46 102.72 72.01 C 102.01 72.80 101.30 73.59 100.58 74.38 C 103.21 73.07 106.19 73.48 108.83 74.49 C 110.31 74.06 111.67 73.31 113.06 72.66 C 110.92 71.75 108.68 71.15 106.42 70.69 C 106.08 69.64 105.71 68.61 105.33 67.59 C 105.39 68.35 105.52 69.88 105.59 70.64 C 103.92 70.15 102.24 69.72 100.55 69.36 C 99.72 68.28 99.00 67.08 97.96 66.17 C 92.92 64.38 87.82 62.58 82.43 62.17 C 81.26 64.64 80.26 67.19 79.74 69.88 C 77.77 69.47 75.76 69.11 73.91 68.28 C 75.65 65.13 77.61 62.04 80.25 59.56 C 82.32 59.17 84.47 58.57 86.56 59.15 C 93.21 60.55 100.29 61.79 105.74 66.15 C 108.76 68.45 112.80 68.21 116.26 69.42 C 125.54 63.30 134.46 56.65 144.07 51.07 M 160.31 55.90 C 158.85 56.78 160.13 59.64 161.67 58.31 C 163.08 57.40 161.89 54.50 160.31 55.90 M 171.48 63.46 C 169.63 63.32 167.78 63.29 165.94 63.34 C 165.59 62.27 165.26 61.19 164.93 60.12 C 162.92 61.42 160.59 62.01 158.32 62.70 C 157.59 61.18 156.89 59.64 156.14 58.13 C 155.29 60.13 154.42 62.11 153.44 64.05 C 151.09 63.68 148.68 62.98 146.42 64.14 C 146.54 66.39 146.66 68.65 146.50 70.90 C 155.24 70.43 163.99 70.06 172.74 69.76 C 173.59 65.72 173.94 61.61 174.34 57.51 C 172.87 59.22 172.03 61.30 171.48 63.46 M 132.67 73.03 C 136.39 74.59 140.41 75.34 143.93 77.36 C 141.86 73.66 143.80 69.77 143.53 65.87 C 139.94 68.29 136.49 70.96 132.67 73.03 M 85.24 70.23 C 85.81 70.82 85.81 70.82 85.24 70.23 M 128.14 75.71 C 126.97 77.32 125.80 78.91 124.65 80.52 C 129.08 78.37 134.11 78.80 138.82 79.53 C 135.67 77.34 131.93 76.13 128.14 75.71 M 69.13 79.22 C 68.84 79.54 68.26 80.16 67.97 80.48 C 68.62 83.83 72.97 78.39 69.13 79.22 M 77.34 82.84 C 74.99 83.54 72.84 84.72 70.66 85.81 C 70.53 84.81 70.26 82.79 70.12 81.78 C 69.72 83.28 69.49 84.82 69.32 86.36 C 66.42 86.83 63.67 87.92 61.14 89.41 C 61.43 88.14 61.69 86.88 61.91 85.60 C 60.51 87.68 59.66 90.22 57.31 91.49 C 57.35 90.62 57.41 88.88 57.44 88.01 C 54.91 91.21 50.48 92.08 46.67 92.92 C 45.10 95.44 44.03 98.28 41.16 99.68 C 40.66 98.87 40.17 98.05 39.68 97.24 C 37.00 99.53 33.30 101.71 29.93 99.38 C 28.45 100.47 26.86 101.39 25.29 102.34 C 26.62 102.40 27.94 102.46 29.26 102.52 C 29.30 103.96 29.24 105.39 29.15 106.83 C 31.49 106.70 33.84 106.62 36.18 106.73 C 34.01 108.00 32.23 109.74 30.41 111.44 C 28.63 112.45 26.90 113.58 25.64 115.24 C 28.66 114.39 31.32 112.71 34.09 111.31 C 34.72 111.72 35.98 112.55 36.62 112.97 C 34.50 114.10 32.42 115.32 30.67 116.97 C 33.02 116.09 35.26 114.95 37.59 114.01 C 37.37 112.02 37.32 110.02 37.27 108.02 C 37.58 108.50 38.19 109.46 38.49 109.94 C 40.00 109.68 41.51 109.40 43.00 109.08 C 41.84 110.44 40.64 111.79 39.64 113.29 C 41.42 112.59 42.87 111.33 44.48 110.33 C 47.00 110.73 49.36 111.82 51.67 112.88 C 51.52 112.46 51.22 111.63 51.06 111.22 C 55.32 112.86 59.80 112.27 64.23 112.27 C 73.76 105.08 82.60 96.98 91.43 88.94 C 87.31 88.33 83.96 86.11 81.04 83.25 C 82.01 82.96 82.98 82.67 83.95 82.38 C 81.76 82.74 79.54 82.75 77.34 82.84 M 125.54 83.29 C 124.30 84.17 125.60 86.66 126.96 85.50 C 128.15 84.56 126.95 82.11 125.54 83.29 M 95.64 93.93 C 91.99 96.95 88.41 100.13 84.01 102.04 C 79.76 105.68 74.71 108.49 71.18 112.90 C 76.62 110.41 80.71 105.81 85.60 102.46 C 90.11 99.57 94.45 96.42 98.69 93.16 C 97.68 93.36 96.47 93.20 95.64 93.93 M 178.38 98.45 C 176.44 100.99 170.82 101.56 172.99 105.77 C 178.05 101.99 182.95 97.56 184.99 91.39 C 181.87 92.80 180.22 95.76 178.38 98.45 M 104.35 92.99 C 104.80 94.12 105.21 95.26 105.57 96.42 C 103.84 96.37 102.12 96.29 100.39 96.16 C 93.23 102.26 85.27 107.44 78.56 114.05 C 82.29 115.11 86.11 114.64 89.89 114.12 C 88.81 115.07 87.70 116.00 86.58 116.90 C 87.89 117.17 89.21 117.44 90.52 117.74 C 91.28 117.09 92.03 116.42 92.78 115.76 C 93.65 117.26 94.54 118.76 95.63 120.12 C 95.45 118.58 95.21 117.05 94.91 115.53 C 96.34 115.49 97.78 115.41 99.21 115.34 C 99.31 116.06 99.52 117.50 99.63 118.22 C 102.27 116.55 105.36 115.89 108.26 114.81 C 113.58 114.98 118.58 112.58 123.29 110.33 C 124.51 111.42 125.72 112.69 125.97 114.39 C 122.19 114.86 118.04 114.44 114.74 116.71 C 119.22 117.20 123.39 115.35 127.60 114.17 C 127.43 113.28 127.27 112.39 127.13 111.50 C 126.26 111.15 124.53 110.43 123.67 110.07 C 125.29 109.37 126.96 108.74 128.66 108.27 C 127.65 107.51 126.69 106.70 125.75 105.86 C 124.99 106.81 124.22 107.75 123.46 108.71 C 121.99 107.27 120.18 106.86 118.25 107.43 C 118.47 106.67 118.69 105.91 118.91 105.14 C 115.86 103.48 112.71 102.00 109.72 100.23 C 112.53 96.83 114.56 102.56 117.72 101.24 C 113.37 98.33 108.76 95.82 104.35 92.99 M 41.41 96.23 C 41.40 99.68 44.50 94.80 41.41 96.23 M 7.45 97.41 C 9.80 99.14 12.09 101.11 14.86 102.14 C 16.99 101.74 19.10 101.19 21.20 100.64 C 16.70 99.23 11.85 99.27 7.45 97.41 M 117.65 100.69 C 118.06 101.90 118.46 103.10 118.87 104.32 C 120.17 104.41 121.46 104.53 122.75 104.66 C 121.02 103.38 119.33 102.04 117.65 100.69 M 19.91 105.65 C 21.62 106.75 23.81 107.32 24.92 109.14 C 25.64 111.61 22.64 110.06 21.33 110.32 C 19.81 112.85 18.34 115.41 17.17 118.13 C 18.25 118.37 19.33 118.63 20.40 118.93 C 19.19 114.76 23.41 111.93 26.41 109.95 C 25.61 107.88 27.01 106.61 28.75 105.63 C 25.81 105.26 22.85 105.34 19.91 105.65 M 123.18 105.28 C 123.80 105.91 123.80 105.91 123.18 105.28 M 46.24 112.24 C 46.82 112.82 46.82 112.82 46.24 112.24 M 27.81 115.92 C 27.33 117.55 27.89 118.12 29.50 117.61 C 29.95 115.97 29.38 115.41 27.81 115.92 M 53.24 116.23 C 53.81 116.82 53.81 116.82 53.24 116.23 M 56.26 115.75 C 53.20 119.12 50.01 122.41 47.46 126.20 C 51.78 123.97 54.38 119.70 58.04 116.64 C 57.59 116.41 56.71 115.97 56.26 115.75 M 112.52 116.16 C 112.10 117.56 112.59 118.05 113.97 117.65 C 114.39 116.25 113.90 115.76 112.52 116.16 M 137.13 117.48 C 136.00 117.63 134.79 119.03 135.44 120.16 C 136.82 121.27 138.76 118.09 137.13 117.48 M 145.49 119.28 C 145.08 120.62 145.60 121.10 147.04 120.73 C 147.45 119.41 146.94 118.92 145.49 119.28 M 16.15 131.76 C 19.09 128.56 17.60 123.73 20.48 120.46 C 17.29 123.23 15.65 127.58 16.15 131.76 M 155.24 127.32 C 155.65 130.69 158.03 125.60 155.24 127.32 M 167.15 132.28 C 167.76 132.92 167.76 132.92 167.15 132.28 M 88.13 133.19 C 86.34 136.10 91.60 133.39 88.13 133.19 Z" />
<path fill="#ffffff" opacity="1.00" d=" M 100.16 79.31 C 100.83 79.99 100.83 79.99 100.16 79.31 Z" />
<path fill="#ffffff" opacity="1.00" d=" M 143.17 87.95 C 144.26 86.21 145.93 84.99 147.50 83.72 C 147.57 84.35 147.71 85.60 147.78 86.23 C 146.21 86.72 144.72 87.40 143.17 87.95 Z" />
<path fill="#ffffff" opacity="1.00" d=" M 184.19 85.03 C 187.25 83.41 184.25 88.46 184.19 85.03 Z" />
<path fill="#ffffff" opacity="1.00" d=" M 168.45 87.73 C 171.36 86.05 173.62 89.84 172.85 92.42 C 171.68 92.57 170.51 92.71 169.35 92.85 C 168.38 91.47 165.90 88.76 168.45 87.73 Z" />
<path fill="#ffffff" opacity="1.00" d=" M 142.33 88.68 C 143.20 88.66 144.94 88.60 145.81 88.58 C 145.27 91.38 145.45 94.23 145.56 97.06 C 143.24 94.85 142.44 91.80 142.33 88.68 Z" />
<path fill="#ffffff" opacity="1.00" d=" M 103.41 96.75 C 105.53 96.40 107.68 96.40 109.82 96.55 C 109.82 97.13 109.81 98.29 109.81 98.87 C 107.65 100.48 105.42 97.47 103.41 96.75 Z" />
<path fill="#ffffff" opacity="1.00" d=" M 144.38 101.83 C 145.97 100.87 146.25 103.53 144.86 103.87 C 143.25 104.75 143.00 102.20 144.38 101.83 Z" />
<path fill="#ffffff" opacity="1.00" d=" M 157.47 105.11 C 158.86 104.72 159.38 105.21 159.04 106.58 C 157.65 107.00 157.13 106.51 157.47 105.11 Z" />
<path fill="#ffffff" opacity="1.00" d=" M 111.32 108.13 C 114.35 106.78 111.45 111.56 111.32 108.13 Z" />
<path fill="#ffffff" opacity="1.00" d=" M 115.21 108.27 C 117.93 107.30 115.90 110.90 114.31 110.76 C 112.57 110.50 114.34 108.51 115.21 108.27 Z" />
<path fill="#ffffff" opacity="1.00" d=" M 57.42 109.98 C 58.83 109.55 59.29 110.05 58.83 111.48 C 57.41 111.90 56.94 111.40 57.42 109.98 Z" />
</g>
</svg>
