<?xml version="1.0" encoding="UTF-8" ?>
<!DOCTYPE svg PUBLIC "-//W3C//DTD SVG 1.1//EN" "http://www.w3.org/Graphics/SVG/1.1/DTD/svg11.dtd">
<svg width="128pt" height="64pt" viewBox="0 0 128 64" version="1.1" xmlns="http://www.w3.org/2000/svg">
<g id="#ffffffff">
<path fill="#ffffff" opacity="1.00" d=" M 50.14 20.22 C 50.03 17.93 51.40 16.25 53.06 14.85 C 56.69 16.35 60.72 19.18 64.62 16.78 C 65.95 17.45 67.31 18.02 68.72 18.49 C 67.55 19.67 66.18 20.59 64.69 21.32 C 68.87 21.04 73.46 21.02 76.37 24.58 C 77.33 24.43 78.28 24.28 79.24 24.14 C 79.30 24.84 79.40 26.23 79.45 26.93 C 82.36 27.04 85.23 27.59 88.13 27.70 C 95.83 26.58 103.22 24.08 110.57 21.57 C 113.10 21.38 116.92 20.07 118.47 22.75 C 114.27 22.23 110.00 23.05 106.19 24.84 C 98.29 28.40 90.03 31.59 81.23 31.55 C 80.82 33.23 80.47 34.92 80.16 36.63 C 81.63 38.34 83.10 40.51 85.63 39.41 C 87.10 42.57 90.29 44.73 91.01 48.25 C 88.09 47.61 86.24 45.06 84.17 43.13 C 79.91 44.52 76.78 47.62 73.07 49.94 C 71.58 48.01 70.07 46.09 68.59 44.15 C 66.59 44.29 64.59 44.57 62.59 44.49 C 62.43 45.50 62.27 46.49 62.08 47.49 C 59.55 48.03 57.09 48.87 54.54 49.36 C 55.00 46.44 58.72 46.29 59.74 43.81 C 58.76 41.00 55.66 43.01 54.45 44.49 C 50.84 47.39 52.82 52.72 50.08 56.15 C 47.67 53.83 49.31 50.80 49.65 48.06 C 49.35 46.28 48.54 44.63 47.87 42.96 C 47.28 44.40 46.65 45.82 46.00 47.23 C 45.02 46.32 44.05 45.39 43.08 44.47 C 40.43 46.97 37.09 49.73 33.23 49.13 C 31.11 47.90 28.78 47.26 26.35 47.10 C 25.49 48.56 25.65 51.95 23.16 50.72 C 22.08 48.44 24.55 46.45 25.69 44.68 C 28.73 43.35 31.67 41.84 33.72 39.13 C 29.35 40.45 24.85 42.04 20.21 41.21 C 21.18 39.83 22.59 38.94 23.99 38.07 C 21.83 38.82 19.65 39.55 17.43 40.15 C 19.38 35.82 21.60 31.49 24.92 28.04 C 25.80 27.15 25.38 25.77 25.53 24.66 C 27.68 23.60 29.82 20.80 32.20 23.11 C 32.68 25.96 29.03 28.00 29.82 30.99 C 31.27 28.74 32.68 26.48 34.19 24.28 C 39.51 22.82 44.55 20.23 48.57 16.42 C 49.13 17.67 49.64 18.94 50.14 20.22 M 23.83 34.04 C 23.54 36.62 26.57 34.62 27.63 34.15 C 27.39 33.37 26.92 31.82 26.68 31.05 C 25.18 31.40 23.98 32.42 23.83 34.04 Z" />
</g>
</svg>
