<?xml version="1.0" encoding="UTF-8" ?>
<!DOCTYPE svg PUBLIC "-//W3C//DTD SVG 1.1//EN" "http://www.w3.org/Graphics/SVG/1.1/DTD/svg11.dtd">
<svg width="128pt" height="128pt" viewBox="0 0 128 128" version="1.1" xmlns="http://www.w3.org/2000/svg">
<g id="#ffffffff">
<path fill="#ffffff" opacity="1.00" d=" M 9.99 35.33 C 12.22 31.24 17.06 30.08 20.89 28.04 C 21.54 29.04 22.14 30.09 22.91 31.00 C 24.29 32.28 26.99 31.15 27.91 33.08 C 29.16 37.24 30.93 42.25 28.09 46.15 C 29.96 45.22 31.87 44.29 34.01 44.25 C 37.01 44.39 38.58 40.22 41.75 41.28 C 46.38 42.64 51.39 42.99 55.64 45.42 C 59.78 47.42 63.87 49.79 68.55 50.23 C 75.97 50.94 81.86 57.02 89.62 55.65 C 90.12 56.15 90.63 56.65 91.13 57.16 C 92.40 55.70 94.48 56.61 96.14 56.45 C 95.81 57.93 95.50 59.42 95.24 60.92 C 95.75 59.66 96.24 58.40 96.73 57.14 C 102.39 57.49 108.07 57.34 113.73 57.46 C 115.19 58.20 116.51 59.18 117.88 60.07 C 117.59 61.10 117.30 62.13 117.01 63.16 C 119.28 63.54 122.74 62.55 124.01 65.00 C 123.18 66.09 122.22 67.08 121.32 68.11 C 123.10 68.57 124.89 69.01 126.68 69.44 C 126.71 70.05 126.77 71.28 126.80 71.89 C 121.62 71.91 116.19 69.97 111.30 72.48 C 110.45 73.53 109.70 74.66 108.96 75.78 C 110.73 75.57 112.50 75.31 114.27 75.03 C 114.48 76.27 114.64 77.52 114.79 78.77 C 111.00 78.65 106.76 78.83 103.65 76.29 C 102.29 75.18 100.69 74.38 98.89 74.65 C 96.44 74.89 94.32 73.37 92.95 71.48 C 88.85 72.73 84.52 72.14 80.32 72.69 C 75.14 73.58 69.77 73.54 64.60 72.57 C 64.58 73.73 64.53 74.88 64.45 76.03 C 62.15 76.20 59.83 76.19 57.53 76.48 C 55.68 78.14 53.26 80.05 53.46 82.80 C 53.29 87.51 50.83 92.47 53.07 96.99 C 51.20 97.94 49.22 99.93 47.00 99.24 C 45.77 97.67 48.50 96.80 49.16 95.66 C 48.49 90.21 51.66 85.02 50.47 79.59 C 49.97 77.87 49.69 75.80 47.54 75.50 C 48.80 79.26 47.59 82.97 46.44 86.57 C 46.10 86.66 45.43 86.85 45.09 86.94 C 43.36 83.82 46.43 80.05 44.06 76.87 C 34.94 78.45 25.81 74.29 18.76 68.77 C 17.65 68.69 16.54 68.64 15.43 68.64 C 14.15 66.66 12.68 64.77 11.79 62.57 C 11.37 59.18 11.60 55.74 11.76 52.33 C 13.24 52.36 14.71 52.33 16.18 52.27 C 15.13 51.14 14.06 50.04 13.02 48.91 C 14.57 45.51 14.83 41.80 14.54 38.11 C 10.46 39.06 6.48 40.74 2.23 40.72 C 1.96 37.68 4.70 36.83 7.17 37.28 C 7.24 36.52 7.30 35.75 7.36 34.98 C 8.24 35.10 9.11 35.22 9.99 35.33 M 17.70 33.27 C 17.89 33.84 18.26 34.98 18.45 35.55 C 20.25 36.14 21.70 35.34 22.86 33.98 C 22.04 33.15 21.22 32.32 20.37 31.53 C 19.70 31.96 18.37 32.83 17.70 33.27 M 25.47 41.09 C 24.52 42.06 25.69 44.46 27.06 43.53 C 28.20 42.57 26.83 40.10 25.47 41.09 M 15.18 46.54 C 13.69 47.60 15.30 50.97 16.76 48.92 C 18.56 47.89 16.75 45.39 15.18 46.54 M 38.45 48.33 C 37.38 48.76 36.63 50.86 38.09 51.29 C 39.92 51.50 40.88 47.29 38.45 48.33 M 84.23 65.22 C 84.82 65.83 84.82 65.83 84.23 65.22 M 25.21 69.06 C 25.37 72.47 28.16 67.42 25.21 69.06 M 103.25 73.47 C 102.75 74.95 105.06 75.46 106.12 75.41 C 109.61 74.98 104.47 72.71 103.25 73.47 Z" />
<path fill="#ffffff" opacity="1.00" d=" M 41.02 96.06 C 45.30 94.59 41.01 87.44 46.47 87.08 C 46.52 90.45 46.26 93.99 45.13 97.18 C 42.88 98.39 40.58 99.95 37.91 99.89 C 36.49 97.80 39.66 96.83 41.02 96.06 Z" />
</g>
</svg>
