<?xml version="1.0" encoding="UTF-8" ?>
<!DOCTYPE svg PUBLIC "-//W3C//DTD SVG 1.1//EN" "http://www.w3.org/Graphics/SVG/1.1/DTD/svg11.dtd">
<svg width="128pt" height="128pt" viewBox="0 0 128 128" version="1.1" xmlns="http://www.w3.org/2000/svg">
<g id="#ffffffff">
<path fill="#ffffff" opacity="1.00" d=" M 87.12 0.94 C 88.53 1.53 89.94 2.12 91.35 2.71 C 92.17 5.21 91.70 7.75 90.49 10.04 C 91.04 8.99 91.59 7.93 92.13 6.87 C 93.64 8.50 93.94 10.61 93.82 12.73 C 95.20 11.94 96.56 11.10 98.02 10.44 C 102.93 12.14 107.48 14.67 112.24 16.73 C 112.36 17.21 112.60 18.18 112.72 18.67 C 110.72 18.97 108.23 17.94 106.74 19.74 C 105.74 21.15 104.93 22.68 104.00 24.14 C 105.56 28.51 109.09 32.41 108.76 37.25 C 107.94 37.34 106.31 37.52 105.49 37.60 C 106.47 40.67 107.67 43.67 108.52 46.78 C 107.94 46.73 106.79 46.64 106.21 46.60 C 107.13 49.17 106.62 51.80 105.21 54.08 C 105.96 55.00 106.71 55.92 107.44 56.85 C 105.12 58.57 103.05 60.61 101.19 62.82 C 102.48 64.26 103.81 65.68 105.10 67.13 C 104.44 67.73 103.76 68.30 103.05 68.85 C 101.71 67.92 100.51 66.80 99.21 65.82 C 99.39 67.56 99.66 69.29 99.95 71.01 C 98.72 70.77 97.49 70.52 96.25 70.30 C 94.70 72.80 93.38 75.46 93.21 78.45 C 91.09 81.79 88.14 84.62 86.76 88.40 C 86.06 88.47 85.37 88.54 84.67 88.62 C 83.55 90.79 82.24 92.86 80.92 94.92 C 80.06 92.79 77.04 92.89 75.78 94.54 C 71.58 98.55 73.66 104.81 73.74 109.91 C 76.70 112.83 81.24 110.90 84.83 111.79 C 86.71 112.89 88.72 113.69 90.87 114.09 C 90.66 114.40 90.24 115.01 90.04 115.32 C 86.87 115.76 83.68 114.78 80.54 114.42 C 80.79 114.90 81.30 115.86 81.55 116.34 C 82.95 116.80 85.33 116.33 85.89 118.02 C 84.49 120.83 81.13 118.78 79.21 117.71 C 76.03 116.75 74.36 113.74 71.43 112.34 C 70.15 109.24 69.29 105.89 66.82 103.44 C 62.38 105.70 61.68 111.62 62.68 116.02 C 62.62 117.62 64.51 118.12 65.70 118.57 C 68.73 119.70 72.08 119.74 74.93 121.38 C 73.19 124.78 66.72 120.12 67.45 125.15 C 65.11 122.94 62.15 121.34 60.44 118.52 C 59.36 114.28 59.12 109.88 58.66 105.55 C 57.10 104.93 55.64 104.11 54.07 103.53 C 52.15 104.48 50.24 105.44 48.04 105.44 C 47.11 104.58 46.18 103.71 45.24 102.85 C 44.19 104.04 43.17 105.24 42.13 106.44 C 41.37 105.74 40.61 105.04 39.86 104.34 C 38.28 105.54 36.43 106.21 34.53 106.69 C 33.02 111.63 31.55 116.64 29.15 121.23 C 27.78 122.25 26.25 123.04 24.76 123.89 C 24.24 119.20 27.28 115.06 28.44 110.66 C 26.85 113.89 25.71 117.41 23.24 120.11 C 22.95 119.63 22.37 118.65 22.08 118.16 C 23.77 114.78 25.28 111.30 26.63 107.77 C 24.55 110.95 23.00 114.51 20.66 117.50 C 20.26 117.62 19.45 117.86 19.05 117.99 C 19.12 114.23 21.52 111.14 22.86 107.76 C 20.52 110.58 18.39 113.60 16.53 116.77 C 15.90 116.78 14.63 116.79 14.00 116.79 C 16.81 110.15 22.01 104.90 25.91 98.90 C 29.56 94.91 32.00 90.13 34.06 85.18 C 42.68 74.25 53.68 65.53 62.82 55.08 C 63.60 55.27 65.15 55.67 65.93 55.86 C 65.37 55.52 64.23 54.85 63.67 54.51 C 69.57 47.07 79.76 45.10 86.05 38.07 C 89.53 31.69 89.86 24.23 90.72 17.19 C 88.91 12.75 86.16 8.71 84.82 4.06 C 85.62 3.04 86.38 1.99 87.12 0.94 M 95.17 17.13 C 96.46 18.16 97.79 19.14 99.01 20.26 C 99.19 18.60 100.95 16.80 99.87 15.27 C 99.14 14.99 97.66 14.44 96.92 14.17 C 96.49 14.91 95.61 16.39 95.17 17.13 Z" />
</g>
</svg>
