<?xml version="1.0" encoding="UTF-8" ?>
<!DOCTYPE svg PUBLIC "-//W3C//DTD SVG 1.1//EN" "http://www.w3.org/Graphics/SVG/1.1/DTD/svg11.dtd">
<svg width="180pt" height="180pt" viewBox="0 0 180 180" version="1.1" xmlns="http://www.w3.org/2000/svg">
<g id="#ffffffff">
<path fill="#ffffff" opacity="1.00" d=" M 117.08 1.97 C 117.27 1.65 117.63 1.00 117.82 0.67 C 121.98 3.37 126.78 4.57 131.50 5.89 C 131.89 4.46 132.28 3.03 132.67 1.61 C 133.21 1.52 134.31 1.36 134.86 1.27 C 134.04 5.11 132.68 9.08 133.72 13.02 C 134.57 15.34 135.90 17.43 137.10 19.57 C 138.98 18.30 141.04 17.25 142.78 15.76 C 144.61 13.64 145.96 11.16 147.78 9.04 C 148.40 10.42 149.02 11.81 149.63 13.21 C 146.84 17.68 142.37 20.60 137.97 23.31 C 139.45 28.60 143.04 32.96 144.61 38.25 C 148.32 39.66 152.20 41.46 156.24 40.15 C 159.94 36.23 164.28 32.55 165.82 27.16 C 166.48 27.26 167.82 27.46 168.48 27.56 C 168.62 29.71 169.43 31.82 169.27 33.98 C 167.38 39.13 162.46 42.06 157.79 44.35 C 160.48 44.55 163.17 44.74 165.86 44.57 C 166.29 45.71 166.74 46.85 167.20 47.97 C 168.50 46.82 168.65 45.11 168.70 43.49 C 170.83 42.80 172.91 41.95 174.97 41.05 C 176.02 42.53 178.74 43.35 178.42 45.44 C 173.10 51.27 164.34 51.68 156.98 51.26 C 156.30 52.65 155.58 54.01 154.87 55.38 C 157.78 57.22 159.36 60.26 160.95 63.18 C 163.73 66.99 166.67 70.71 169.95 74.11 C 169.06 76.83 168.03 79.50 167.23 82.25 C 164.22 82.20 161.15 82.79 158.20 82.01 C 156.68 81.20 156.02 79.52 154.99 78.24 C 152.42 79.63 150.54 81.96 148.77 84.22 C 147.47 87.94 147.31 92.33 144.20 95.14 C 141.89 97.34 141.25 100.51 140.97 103.55 C 139.13 103.06 137.27 102.60 135.40 102.23 C 135.39 105.04 135.41 107.85 135.43 110.66 C 133.00 110.53 130.56 110.28 128.28 109.37 C 128.37 111.63 128.66 114.07 127.00 115.90 C 126.40 114.72 125.82 113.53 125.27 112.33 C 122.70 114.05 120.84 116.45 120.03 119.46 C 115.01 118.46 110.37 114.72 105.12 116.09 C 106.26 114.57 107.37 113.01 108.63 111.58 C 110.39 110.09 112.79 109.28 113.98 107.18 C 115.37 104.60 117.76 102.88 119.85 100.94 C 120.83 101.53 121.81 102.12 122.79 102.72 C 121.67 100.14 118.78 95.99 122.93 94.60 C 123.30 96.94 124.08 99.19 125.27 101.25 C 125.38 99.86 125.48 98.47 125.57 97.07 C 129.10 95.40 131.64 92.07 135.47 91.02 C 135.37 89.41 135.29 87.79 135.21 86.18 C 136.89 88.03 139.39 89.44 139.82 92.10 C 139.52 93.57 138.36 94.62 137.55 95.81 C 138.29 95.59 139.03 95.38 139.78 95.17 C 140.97 88.84 141.19 81.63 145.97 76.75 C 143.87 74.01 141.54 71.46 138.94 69.19 C 142.87 69.37 145.40 72.59 148.08 75.03 C 150.11 73.64 149.74 71.28 149.40 69.20 C 150.05 69.67 150.71 70.13 151.37 70.60 C 151.42 71.86 151.47 73.13 151.52 74.40 C 155.85 73.55 159.85 75.31 163.32 77.76 C 160.62 74.61 156.97 71.30 157.51 66.75 C 153.74 64.46 151.09 60.93 148.26 57.65 C 149.25 55.04 149.48 52.27 149.42 49.50 C 147.20 52.50 144.79 55.38 143.00 58.67 C 141.51 58.61 140.01 58.57 138.51 58.56 C 139.06 60.19 139.57 61.83 139.98 63.50 C 138.07 63.35 136.22 62.81 134.40 62.23 C 134.88 63.30 135.33 64.39 135.77 65.49 C 133.47 65.40 131.27 65.89 129.46 67.35 C 128.42 66.17 127.39 65.00 126.31 63.88 C 126.77 65.39 127.28 66.90 127.76 68.42 C 125.88 68.62 123.79 68.23 122.12 69.32 C 118.83 71.43 114.75 70.00 111.13 70.81 C 103.67 72.43 96.00 71.03 88.48 71.40 C 85.12 72.97 82.58 75.96 79.08 77.29 C 76.22 78.02 73.24 77.51 70.35 78.01 C 59.76 80.24 48.54 79.95 38.62 84.74 C 34.26 87.92 30.15 91.48 26.20 95.15 C 22.31 100.98 26.30 108.09 27.94 114.05 C 28.33 111.77 29.42 109.75 30.77 107.91 C 31.47 108.44 32.86 109.52 33.56 110.05 C 32.89 115.33 36.83 119.71 37.90 124.71 C 36.70 124.55 35.49 124.39 34.29 124.24 C 32.13 126.49 29.22 128.07 27.72 130.89 C 26.35 133.27 24.57 135.41 23.41 137.90 C 23.63 140.35 25.09 142.50 25.93 144.78 C 27.35 141.59 27.78 137.82 30.17 135.14 C 35.32 130.73 40.59 126.43 45.34 121.58 C 41.81 119.16 37.09 116.27 37.64 111.32 C 40.20 114.40 43.21 117.05 45.94 119.97 C 48.00 119.26 50.07 118.55 52.19 118.04 C 52.57 116.63 53.00 115.24 53.29 113.82 C 52.96 111.79 51.76 110.02 50.87 108.20 C 55.03 111.37 60.85 111.07 64.70 114.80 C 62.20 115.08 58.18 112.84 57.02 116.11 C 62.48 118.07 68.36 117.47 74.04 117.70 C 75.65 117.75 76.98 118.83 78.39 119.49 C 80.88 116.40 83.14 112.91 83.41 108.84 C 83.45 104.49 84.82 100.34 85.75 96.13 C 87.45 96.33 89.57 96.12 90.61 97.83 C 91.10 102.32 90.69 107.04 88.62 111.13 C 90.14 109.88 91.74 108.75 93.42 107.73 C 92.40 111.31 90.79 114.70 90.06 118.35 C 92.80 116.34 93.94 112.98 95.76 110.23 L 96.82 110.26 C 96.19 113.54 95.79 116.86 95.13 120.13 C 94.08 120.46 92.97 120.55 91.88 120.71 C 91.58 123.03 89.94 124.72 88.25 126.19 C 89.70 126.39 91.14 126.60 92.59 126.82 C 90.98 128.46 89.12 129.86 87.67 131.65 C 86.15 133.81 86.68 136.61 86.45 139.08 C 90.05 137.72 92.46 134.65 94.76 131.74 C 96.86 129.44 96.37 126.12 96.99 123.28 C 98.20 123.40 99.41 123.52 100.63 123.64 C 101.29 121.65 102.03 119.68 102.75 117.71 C 105.11 117.66 107.46 117.48 109.82 117.33 C 108.29 125.85 103.40 133.46 102.41 142.16 C 102.26 145.53 100.29 148.38 98.30 150.95 C 98.85 151.63 99.40 152.30 99.95 152.98 C 99.14 153.86 98.27 154.67 97.47 155.55 C 98.97 157.69 98.32 160.35 98.82 162.75 C 99.75 165.89 102.73 167.77 103.92 170.78 C 102.08 170.35 100.30 169.70 98.53 169.06 C 98.46 170.75 98.37 172.45 98.34 174.15 C 97.28 172.40 96.42 170.52 96.47 168.42 C 96.42 163.50 93.23 159.22 93.48 154.28 C 93.65 150.17 92.81 146.14 92.48 142.08 C 93.45 139.61 94.72 137.27 95.89 134.89 C 93.15 138.08 90.37 141.40 86.68 143.54 C 85.90 148.48 84.43 153.29 84.23 158.32 C 83.14 162.93 84.10 167.77 82.65 172.30 C 85.17 173.78 87.65 175.30 89.99 177.04 C 87.18 179.06 83.76 177.17 80.65 177.11 C 79.48 174.42 79.80 171.31 78.34 168.75 C 76.46 165.63 77.60 161.85 76.85 158.45 C 75.75 152.99 77.53 147.60 77.57 142.14 C 78.83 136.53 80.59 131.03 81.85 125.40 C 72.31 127.53 62.58 125.59 53.29 123.25 C 50.99 125.35 49.77 128.36 47.60 130.60 C 44.14 134.70 39.55 137.70 34.64 139.81 C 30.81 151.34 37.71 162.58 38.74 173.99 C 37.32 173.16 35.52 172.41 35.20 170.59 C 33.66 165.37 31.48 160.37 30.20 155.07 C 29.67 155.28 28.62 155.69 28.09 155.90 C 30.51 162.28 32.85 168.76 33.49 175.60 C 35.82 175.59 38.17 175.71 40.39 176.46 C 40.51 175.20 40.64 173.94 40.80 172.68 C 42.28 173.99 43.54 175.52 44.91 176.96 C 43.91 177.97 42.91 178.98 41.91 180.00 L 40.18 180.00 C 38.66 179.40 37.28 178.52 35.94 177.62 C 34.97 178.02 34.00 178.43 33.04 178.83 C 30.33 175.02 26.29 172.05 24.93 167.40 C 23.43 163.89 23.20 159.94 21.26 156.62 C 18.63 160.27 19.05 164.85 20.54 168.83 C 19.93 171.07 17.71 172.40 16.01 173.81 C 14.22 173.09 14.72 170.91 14.53 169.38 C 14.59 162.22 13.85 155.00 15.16 147.91 C 15.75 142.09 15.88 136.11 17.74 130.52 C 19.54 127.76 22.59 125.95 23.91 122.87 C 22.75 118.60 20.29 114.75 19.40 110.36 C 17.77 106.24 17.92 101.47 20.51 97.78 C 18.28 99.93 16.09 102.12 13.86 104.27 C 13.32 104.02 12.24 103.52 11.70 103.27 C 15.13 97.88 20.83 94.43 23.65 88.61 C 28.90 82.52 34.96 77.08 41.48 72.37 C 44.51 70.19 47.64 73.95 50.89 73.50 C 54.97 73.18 58.91 71.79 63.02 71.58 C 67.45 71.40 72.02 71.54 76.24 69.97 C 80.01 68.13 82.89 64.43 87.14 63.62 C 96.43 63.38 105.74 63.82 115.03 63.64 C 119.70 63.62 123.23 60.39 126.67 57.68 C 133.23 53.51 139.37 48.03 147.39 47.04 C 145.22 45.46 142.62 45.10 140.01 45.48 C 132.25 46.01 124.92 42.69 118.98 37.92 C 113.50 39.55 108.34 36.26 103.84 33.49 C 106.39 33.64 108.95 33.90 111.39 34.68 C 115.68 36.11 120.26 35.17 124.68 35.68 C 122.03 33.91 119.34 31.77 116.02 31.61 C 111.54 31.48 107.17 30.28 102.68 30.48 C 102.57 29.96 102.36 28.90 102.25 28.38 C 106.51 28.31 110.78 28.41 115.03 28.83 C 114.19 26.41 113.33 23.99 112.72 21.50 C 114.49 22.59 115.93 24.10 116.90 25.93 C 120.29 32.57 128.47 33.64 135.02 35.03 C 133.84 32.74 132.92 29.86 130.18 29.00 C 124.74 26.68 119.80 23.39 114.57 20.67 C 110.39 18.24 105.93 21.20 101.49 20.76 C 101.41 19.66 101.36 18.56 101.33 17.45 C 106.08 17.76 110.83 16.76 115.55 17.68 C 114.01 14.86 112.73 11.91 111.22 9.07 C 114.20 9.57 116.10 12.02 118.35 13.78 C 122.43 16.72 126.72 19.51 131.66 20.76 C 130.55 15.69 129.58 8.54 123.68 7.00 C 120.98 6.14 118.90 4.06 117.08 1.97 M 111.80 113.74 C 112.45 113.66 113.74 113.49 114.39 113.41 C 114.51 112.26 114.63 111.11 114.74 109.96 C 113.76 111.22 112.75 112.45 111.80 113.74 Z" />
<path fill="#ffffff" opacity="1.00" d=" M 60.33 22.61 C 61.67 22.30 62.97 21.87 64.27 21.41 C 64.95 24.03 66.32 26.38 68.09 28.43 C 69.08 26.71 69.99 24.96 70.78 23.15 C 71.93 23.59 73.13 24.01 74.04 24.87 C 75.64 31.69 76.71 38.70 76.37 45.72 C 75.84 47.76 74.32 49.96 72.06 50.24 C 63.54 50.73 55.22 52.85 46.66 52.82 C 46.69 50.92 45.11 50.62 43.59 50.37 C 43.95 45.10 43.82 39.74 42.38 34.64 C 41.65 32.86 42.74 31.32 43.99 30.15 C 46.30 32.99 48.85 35.62 51.44 38.21 C 51.56 34.03 50.77 29.24 54.00 25.94 C 55.38 28.23 56.92 30.42 58.31 32.72 C 58.99 32.73 60.33 32.77 61.01 32.79 C 60.46 31.83 59.87 30.88 59.28 29.94 C 61.21 27.95 60.37 25.09 60.33 22.61 M 63.13 32.40 C 61.65 33.35 63.41 35.94 64.83 34.86 C 66.28 33.85 64.57 31.46 63.13 32.40 M 58.26 35.25 C 58.27 35.89 58.29 37.17 58.30 37.82 C 58.87 37.76 60.02 37.65 60.59 37.60 C 60.65 36.99 60.78 35.77 60.85 35.16 C 60.20 35.19 58.91 35.23 58.26 35.25 M 63.76 36.15 C 62.97 38.58 60.57 39.72 58.15 39.78 C 56.78 39.00 55.91 37.61 54.84 36.51 C 53.88 38.42 52.81 40.31 51.07 41.63 C 49.90 40.86 48.71 40.10 47.50 39.38 C 47.57 42.20 47.67 45.02 47.48 47.84 C 51.44 47.52 55.27 46.49 59.13 45.62 C 60.56 45.26 61.85 46.20 63.16 46.61 C 65.57 45.27 68.05 44.00 70.77 43.38 C 70.66 41.66 70.66 39.94 70.68 38.21 C 68.24 38.05 65.98 37.09 63.76 36.15 Z" />
<path fill="#ffffff" opacity="1.00" d=" M 131.07 69.26 C 134.55 69.55 129.29 72.02 131.07 69.26 Z" />
<path fill="#ffffff" opacity="1.00" d=" M 60.24 111.28 C 61.16 109.64 62.69 108.53 64.14 107.41 C 64.69 108.82 65.27 110.22 65.88 111.61 C 63.99 111.52 62.12 111.41 60.24 111.28 Z" />
</g>
</svg>
