<?xml version="1.0" encoding="UTF-8" ?>
<!DOCTYPE svg PUBLIC "-//W3C//DTD SVG 1.1//EN" "http://www.w3.org/Graphics/SVG/1.1/DTD/svg11.dtd">
<svg width="180pt" height="180pt" viewBox="0 0 180 180" version="1.1" xmlns="http://www.w3.org/2000/svg">
<g id="#ffffffff">
<path fill="#ffffff" opacity="1.00" d=" M 21.09 22.97 C 22.14 19.48 26.03 18.57 28.87 17.04 C 31.70 21.33 35.79 24.53 38.99 28.52 C 43.35 26.95 47.97 27.48 52.25 29.01 C 53.10 27.29 53.74 25.41 55.04 23.96 C 57.88 22.32 61.16 21.59 64.19 20.35 C 65.89 24.29 68.47 28.93 66.32 33.20 C 64.49 37.02 63.46 41.14 62.52 45.25 C 62.45 47.84 62.49 50.44 61.77 52.96 C 67.17 52.66 72.59 49.94 77.93 51.96 C 80.30 52.79 83.14 53.20 84.79 55.28 C 88.01 59.77 93.44 61.72 98.01 64.52 C 100.98 62.62 103.87 60.60 106.59 58.35 C 101.10 56.94 95.22 56.79 90.12 54.09 C 90.43 47.11 90.51 40.12 90.43 33.13 C 90.71 29.91 90.70 25.92 93.93 24.11 C 96.23 27.83 98.09 31.80 100.17 35.65 C 101.56 32.06 102.40 27.88 105.94 25.71 C 109.47 27.84 108.83 32.02 109.02 35.57 C 111.32 31.99 112.58 25.41 118.19 26.61 C 118.66 30.62 118.11 34.64 118.09 38.66 C 119.99 34.78 121.57 30.72 124.13 27.21 C 124.99 28.19 126.49 28.86 126.72 30.27 C 127.30 34.21 127.18 38.20 127.11 42.17 C 131.44 39.57 135.27 36.28 139.35 33.33 C 142.87 30.67 146.75 28.48 149.98 25.43 C 150.82 25.58 152.50 25.87 153.34 26.01 C 151.24 30.01 146.79 31.71 143.58 34.63 C 142.73 36.17 142.17 37.85 141.52 39.48 C 144.77 36.27 148.25 33.20 152.40 31.20 C 149.39 36.07 144.11 38.62 139.52 41.70 C 135.57 44.30 132.21 47.66 128.32 50.34 C 125.28 52.07 124.82 55.82 123.57 58.76 C 121.16 58.91 118.72 58.73 116.34 59.21 C 114.25 60.46 112.24 61.89 110.49 63.58 C 109.08 64.80 108.86 67.13 106.88 67.70 C 100.50 70.24 96.16 75.91 90.37 79.43 C 90.38 78.27 90.42 75.94 90.44 74.78 C 90.07 75.71 89.72 76.64 89.39 77.58 C 89.67 78.90 89.89 80.25 90.28 81.54 C 93.04 83.61 96.14 85.15 99.10 86.88 C 106.15 90.78 112.82 95.45 120.21 98.71 C 123.91 99.20 125.73 95.38 127.12 92.60 C 125.10 92.14 123.08 91.69 121.05 91.28 C 121.86 90.02 122.72 88.80 123.44 87.49 C 124.01 84.99 123.18 82.47 122.25 80.17 C 120.91 80.84 119.59 81.52 118.26 82.18 C 115.06 76.96 112.46 71.39 109.05 66.30 C 109.74 65.60 110.43 64.89 111.12 64.20 C 116.12 65.66 121.41 65.09 126.55 65.41 C 127.29 66.95 127.73 68.76 129.16 69.84 C 133.23 73.17 137.33 76.48 141.80 79.27 C 143.20 80.28 145.03 81.32 145.19 83.24 C 145.30 85.15 145.21 87.13 146.11 88.88 C 150.23 97.49 148.51 107.45 150.52 116.47 C 154.55 119.92 160.64 121.20 162.90 126.46 C 160.91 126.56 158.92 126.61 156.93 126.52 C 157.67 126.88 159.15 127.60 159.89 127.96 C 156.35 129.52 153.12 126.59 149.90 125.52 C 149.72 130.36 149.58 135.22 150.27 140.04 C 150.51 145.20 155.31 148.35 157.70 152.57 C 162.87 151.00 167.30 147.90 172.09 145.49 C 173.28 149.95 174.52 155.43 171.28 159.33 C 167.03 162.30 161.33 162.76 156.38 161.58 C 154.01 161.01 152.69 158.83 151.13 157.17 C 151.72 159.92 153.10 162.80 152.01 165.61 C 151.24 167.54 151.37 170.18 149.36 171.35 C 146.79 173.20 142.75 174.17 140.18 171.84 C 140.34 168.93 144.92 169.88 147.06 169.47 C 147.49 167.02 148.40 164.64 148.52 162.15 C 148.07 159.87 147.15 157.72 146.49 155.50 C 144.76 150.45 145.03 144.91 142.60 140.08 C 144.82 137.02 142.95 133.39 142.85 130.04 C 142.57 127.55 143.33 124.93 142.59 122.51 C 141.20 120.80 139.45 119.43 137.79 118.01 C 138.75 117.60 140.69 116.78 141.65 116.38 C 138.92 117.24 136.11 118.09 133.25 117.22 C 133.76 121.57 131.60 125.65 131.57 129.97 C 133.05 136.11 138.51 140.34 139.54 146.62 C 140.34 151.49 142.78 155.95 143.59 160.80 C 141.91 164.47 138.86 168.38 134.29 167.64 C 135.21 164.41 138.13 162.58 139.90 159.92 C 138.85 155.24 137.15 150.72 135.92 146.09 C 135.04 141.86 131.33 139.14 129.71 135.26 C 127.44 130.09 125.56 124.75 123.25 119.59 C 122.31 117.54 120.86 115.76 118.98 114.50 C 119.88 116.05 120.92 117.52 121.94 119.00 C 120.25 122.21 118.40 125.33 116.77 128.58 C 115.99 129.63 116.70 130.80 117.09 131.85 C 119.31 136.63 120.11 141.91 122.13 146.78 C 117.64 151.98 119.86 159.43 117.85 165.57 C 116.01 166.96 114.23 168.46 113.40 170.69 C 106.70 171.89 100.50 168.57 93.90 168.31 C 94.86 166.86 95.22 164.49 97.26 164.17 C 100.50 163.31 103.72 162.27 107.09 162.16 C 107.27 157.77 108.88 153.52 108.80 149.12 C 108.59 145.96 105.63 144.33 103.47 142.52 C 98.60 138.61 96.58 132.12 91.30 128.64 C 91.44 133.61 91.47 138.73 89.22 143.30 C 88.08 146.86 84.25 149.21 84.57 153.24 C 84.69 159.21 82.92 165.00 83.08 170.97 C 82.82 173.81 80.57 175.97 79.66 178.62 C 77.76 179.02 75.86 179.46 73.99 180.00 L 67.95 180.00 C 67.42 179.40 66.38 178.19 65.85 177.58 C 68.40 177.22 71.05 177.41 73.51 176.61 C 76.08 174.38 78.90 171.65 79.03 168.02 C 79.10 163.24 77.82 158.23 79.89 153.68 C 81.53 149.96 80.72 144.95 84.40 142.38 C 83.77 142.53 82.51 142.81 81.88 142.95 C 81.62 140.69 81.43 138.43 81.25 136.17 C 82.88 137.08 84.48 138.07 86.17 138.90 C 84.88 137.87 83.52 136.96 82.16 136.03 C 82.84 132.80 82.67 129.49 82.84 126.22 C 83.68 126.86 84.52 127.50 85.38 128.13 C 85.67 125.12 84.63 122.24 84.40 119.28 C 84.94 117.62 87.12 118.50 88.41 118.40 C 86.76 113.38 86.15 107.92 88.28 102.95 C 87.41 99.24 86.29 95.58 85.03 91.99 C 83.77 90.91 82.38 90.02 81.04 89.06 C 78.76 90.68 76.59 92.46 74.32 94.10 C 74.58 97.51 74.48 100.92 74.50 104.33 C 73.91 104.32 72.75 104.29 72.17 104.28 C 72.35 101.84 72.49 99.39 72.70 96.94 C 72.07 97.07 70.79 97.31 70.16 97.44 C 70.61 102.50 70.11 107.68 71.34 112.66 C 71.67 113.97 71.49 115.33 71.46 116.66 C 71.95 116.06 72.44 115.46 72.93 114.86 C 75.00 118.11 74.59 121.99 74.60 125.67 C 73.67 125.52 72.74 125.38 71.81 125.23 C 68.47 118.97 67.15 111.46 61.66 106.52 C 62.82 110.27 64.56 113.82 65.53 117.63 C 63.09 116.67 60.84 115.30 59.24 113.18 C 59.80 111.59 60.38 110.01 60.93 108.41 C 59.07 109.00 57.22 109.59 55.37 110.18 C 57.54 114.45 61.49 117.29 65.99 118.68 C 65.99 121.27 67.78 122.88 69.52 124.51 C 71.13 128.32 72.42 132.63 71.30 136.75 C 71.97 136.12 72.58 135.44 73.13 134.71 C 73.75 137.69 73.10 140.64 72.73 143.58 C 73.80 152.48 74.40 161.83 71.54 170.47 C 71.18 172.64 68.74 173.14 67.23 174.31 C 64.88 175.49 63.77 177.99 62.27 180.00 L 60.36 180.00 C 60.72 177.37 59.99 174.90 58.53 172.72 C 58.93 174.58 59.33 176.44 59.69 178.31 C 54.24 178.99 48.91 177.86 44.16 175.13 C 44.94 172.81 45.91 170.36 48.15 169.09 C 50.13 167.67 52.63 168.43 54.86 168.49 C 56.02 163.20 56.98 157.69 56.39 152.28 C 52.52 142.63 50.05 132.49 46.13 122.86 C 45.22 121.33 44.04 119.97 42.97 118.55 C 42.73 120.39 42.87 122.33 42.13 124.07 C 39.67 126.77 36.88 129.16 34.70 132.10 C 33.83 131.36 32.97 130.62 32.09 129.89 C 32.48 131.21 32.91 132.51 33.34 133.81 C 29.86 137.19 26.51 140.70 23.08 144.13 C 17.36 150.22 12.33 157.14 5.54 162.09 C 5.47 161.35 5.33 159.88 5.26 159.14 C 9.53 153.06 15.50 148.17 19.27 141.70 C 17.21 143.21 15.33 144.92 13.35 146.52 C 12.88 145.81 11.96 144.39 11.49 143.69 C 21.77 133.42 31.73 122.81 42.29 112.83 C 42.26 109.74 41.28 106.77 40.27 103.87 C 39.56 101.45 37.39 99.76 36.91 97.24 C 35.64 91.00 34.96 84.62 35.27 78.26 C 32.81 74.90 31.42 71.01 30.01 67.11 C 28.10 67.67 26.20 68.23 24.26 68.64 C 24.48 67.24 24.71 65.83 24.95 64.43 C 22.96 65.74 20.91 66.94 18.87 68.16 C 18.75 67.99 18.53 67.67 18.41 67.51 C 18.66 66.87 18.90 66.23 19.13 65.59 C 20.30 65.56 21.46 65.53 22.63 65.49 C 19.94 60.99 12.30 63.55 10.72 58.26 C 15.77 58.17 20.56 59.94 25.33 61.36 C 22.87 58.60 20.75 55.54 18.05 53.01 C 15.02 51.08 11.57 49.91 8.25 48.58 C 8.25 47.94 8.26 46.67 8.26 46.03 C 13.54 46.81 18.61 48.72 23.34 51.14 C 23.57 50.25 23.81 49.36 24.04 48.48 C 25.05 48.11 26.06 47.75 27.07 47.39 C 26.20 47.45 24.47 47.58 23.60 47.64 C 23.46 44.74 23.89 41.88 25.09 39.22 C 23.32 37.10 21.52 35.01 19.93 32.76 C 19.57 29.51 20.27 26.12 21.09 22.97 M 24.29 31.17 C 25.21 32.83 26.41 34.30 27.43 35.90 C 27.52 32.98 27.81 30.07 27.84 27.15 C 28.95 27.73 30.07 28.30 31.18 28.88 C 29.38 26.84 28.26 24.36 27.13 21.91 C 24.39 24.08 24.82 28.03 24.29 31.17 M 59.59 26.62 C 56.53 27.90 56.35 31.80 54.07 33.93 C 51.93 32.80 49.74 31.50 47.28 31.29 C 42.53 31.09 39.89 35.75 35.93 37.59 C 35.41 36.95 34.38 35.66 33.86 35.01 C 35.39 33.87 36.85 32.66 38.27 31.39 C 36.52 30.59 34.81 29.72 33.11 28.82 C 33.75 29.86 34.34 30.93 34.88 32.02 C 34.67 34.48 32.40 33.82 30.66 33.65 C 29.08 37.32 28.25 41.25 26.92 45.02 C 27.56 45.76 28.21 46.51 28.86 47.25 C 28.19 49.18 27.88 51.23 28.45 53.23 C 29.53 53.47 30.60 53.73 31.67 54.00 C 33.11 52.71 34.63 51.44 36.63 51.22 C 36.50 50.49 36.37 49.75 36.24 49.02 C 38.13 48.39 39.97 47.43 42.02 47.84 C 41.93 47.33 41.73 46.30 41.63 45.79 C 37.72 45.97 33.92 44.14 31.51 41.07 C 32.66 36.99 38.17 39.02 40.43 41.21 C 40.51 39.75 40.63 38.30 40.80 36.85 C 41.98 37.40 43.54 37.71 43.85 39.21 C 45.10 42.71 46.39 46.54 44.95 50.20 C 47.10 50.99 49.32 51.59 51.62 51.67 C 50.98 49.02 50.35 46.33 50.73 43.59 C 51.20 43.86 52.15 44.39 52.62 44.66 C 52.50 44.04 52.27 42.78 52.15 42.15 C 53.45 41.73 54.75 41.30 56.05 40.87 C 57.50 41.80 58.95 42.74 60.46 43.57 C 60.28 39.63 58.33 36.08 58.12 32.15 C 59.43 32.24 60.73 32.36 62.03 32.51 C 62.52 30.10 63.11 27.64 62.58 25.18 C 61.84 25.54 60.34 26.26 59.59 26.62 M 95.20 34.77 C 94.64 40.38 94.95 46.04 94.16 51.64 C 100.05 52.19 105.81 54.13 111.78 53.71 C 115.32 51.84 118.51 49.28 121.40 46.51 C 121.91 44.47 122.22 42.37 122.26 40.27 C 120.72 42.15 119.88 44.51 118.24 46.31 C 117.14 46.66 115.97 46.46 114.84 46.50 C 113.39 43.32 113.15 39.92 113.57 36.49 C 112.17 38.44 111.61 41.14 109.50 42.49 C 108.38 42.98 106.41 44.14 105.77 42.37 C 104.29 40.50 104.75 38.04 104.64 35.84 C 103.45 37.75 102.77 40.13 100.96 41.54 C 97.59 41.29 96.89 37.09 95.20 34.77 M 54.65 46.69 C 53.15 48.96 53.69 51.86 53.39 54.43 C 52.00 55.25 50.61 56.07 49.27 56.97 C 49.87 58.40 50.48 59.82 51.10 61.24 C 52.85 60.62 54.71 60.45 56.55 60.32 C 55.84 58.23 55.46 56.06 55.31 53.86 C 57.52 54.38 59.42 55.66 61.40 56.72 C 60.10 55.41 58.68 54.24 57.27 53.05 C 58.12 51.69 58.98 50.32 59.81 48.95 C 59.01 47.10 59.21 45.09 59.18 43.14 C 57.69 44.35 56.17 45.52 54.65 46.69 M 36.69 54.66 C 35.86 54.12 35.04 53.57 34.21 53.04 C 36.25 56.57 40.06 57.72 43.75 58.77 C 44.59 58.09 45.43 57.42 46.27 56.74 C 45.34 56.33 44.41 55.92 43.49 55.52 C 43.01 53.22 42.37 50.89 43.11 48.56 C 41.10 50.73 38.98 52.79 36.69 54.66 M 70.20 56.38 C 70.65 56.77 71.55 57.54 72.00 57.93 C 69.29 59.02 66.39 59.51 63.71 60.66 C 62.70 61.90 62.75 63.65 62.18 65.10 C 60.94 63.45 59.80 61.68 58.25 60.29 C 56.53 62.21 58.68 64.43 59.77 66.08 C 67.44 69.68 75.14 73.31 82.43 77.63 C 86.37 74.31 90.52 71.26 94.58 68.09 C 88.47 64.29 82.74 59.91 76.86 55.77 C 74.61 55.77 72.46 57.12 70.20 56.38 M 35.04 69.50 C 34.15 70.78 35.85 73.53 37.42 72.53 C 38.43 71.20 36.51 68.91 35.04 69.50 M 47.37 74.24 C 46.33 75.21 45.26 76.15 44.18 77.09 C 44.65 77.24 45.57 77.55 46.04 77.71 C 44.15 82.20 44.50 87.22 43.73 91.97 C 42.66 97.85 45.20 103.61 47.77 108.75 C 48.17 108.04 48.99 106.61 49.39 105.89 C 47.34 101.79 49.42 96.95 47.20 92.99 C 47.67 92.11 48.27 91.31 49.00 90.60 C 49.71 94.71 50.52 98.82 50.75 103.00 C 52.78 103.01 54.50 102.08 56.00 100.79 C 55.27 97.79 54.46 94.79 54.32 91.69 C 55.10 91.70 56.65 91.73 57.43 91.75 C 56.78 91.57 55.49 91.21 54.84 91.02 C 55.35 89.18 55.92 87.35 56.26 85.47 C 55.12 88.03 54.55 90.79 53.85 93.49 C 52.76 92.60 52.10 91.31 52.28 89.87 C 52.39 85.71 53.01 81.59 53.35 77.45 C 52.23 75.44 49.40 75.05 47.37 74.24 M 61.15 74.88 C 61.24 75.49 61.41 76.73 61.50 77.35 C 66.64 78.56 70.88 81.77 75.76 83.60 C 76.50 83.01 77.25 82.43 78.00 81.87 C 72.22 79.95 67.20 76.08 61.15 74.88 M 122.98 74.68 C 124.12 77.56 125.69 80.27 127.44 82.83 C 129.01 81.48 130.74 80.33 132.62 79.44 C 132.12 79.11 131.11 78.45 130.61 78.13 C 131.15 77.90 132.23 77.45 132.77 77.23 C 132.52 76.99 132.03 76.51 131.79 76.27 C 130.85 77.74 129.92 79.21 128.97 80.68 C 126.48 79.20 125.15 76.51 122.98 74.68 M 59.93 79.64 C 59.44 83.17 59.96 86.76 59.24 90.26 C 60.60 89.88 61.95 89.49 63.32 89.14 C 62.87 91.01 60.50 93.13 62.90 94.57 C 66.01 91.29 69.71 88.64 72.79 85.31 C 68.42 83.61 64.27 81.42 59.93 79.64 M 135.28 94.45 C 133.50 92.30 130.90 91.11 129.03 89.06 C 128.49 89.59 127.42 90.66 126.88 91.19 C 127.90 91.87 128.93 92.54 129.96 93.21 C 129.29 95.14 128.51 97.04 128.05 99.04 C 129.60 101.62 130.54 105.13 133.64 106.27 C 133.38 103.23 133.47 100.16 134.24 97.19 C 135.35 97.46 136.45 97.73 137.56 98.01 C 136.33 101.06 136.40 104.39 136.30 107.62 C 137.67 108.92 139.46 109.68 141.01 110.75 C 139.80 106.78 142.21 103.00 141.66 98.99 C 142.59 98.41 143.52 97.84 144.46 97.27 C 143.11 93.05 142.49 88.59 140.34 84.65 C 138.88 88.03 137.18 91.30 135.28 94.45 M 134.27 91.51 C 136.58 90.35 136.81 87.62 137.56 85.43 C 136.24 87.33 135.23 89.41 134.27 91.51 M 69.39 94.52 C 72.66 94.27 75.11 90.82 76.03 87.89 C 73.83 90.12 71.60 92.30 69.39 94.52 M 60.05 94.30 C 58.46 97.26 63.46 94.36 60.05 94.30 M 88.94 93.40 C 90.34 96.95 91.85 100.46 93.05 104.08 C 93.59 106.80 93.40 109.60 93.91 112.33 C 95.05 108.36 95.93 104.14 99.21 101.28 C 99.55 101.46 100.23 101.80 100.57 101.97 C 100.57 104.01 100.81 106.05 100.98 108.08 C 99.52 109.50 98.23 111.13 96.43 112.15 C 96.93 112.37 97.43 112.59 97.94 112.82 C 99.56 109.97 102.44 107.46 102.51 104.00 C 103.36 103.82 105.04 103.48 105.88 103.30 C 105.52 104.01 104.79 105.43 104.42 106.14 C 105.29 105.73 106.16 105.32 107.03 104.92 C 107.16 104.65 107.42 104.11 107.56 103.84 C 101.37 100.31 95.38 96.47 88.94 93.40 M 143.93 103.30 C 142.28 106.21 147.26 103.57 143.93 103.30 M 56.67 106.23 C 55.60 106.59 54.82 107.29 54.35 108.33 C 55.08 110.11 59.22 106.89 56.67 106.23 M 115.37 109.07 C 114.00 109.73 113.95 110.37 115.23 110.99 C 116.65 110.32 116.69 109.69 115.37 109.07 M 119.60 110.29 C 118.64 110.75 116.27 111.51 117.45 112.93 C 118.99 114.70 122.20 110.11 119.60 110.29 M 51.19 111.00 C 51.66 112.77 51.99 114.60 51.47 116.40 C 52.24 116.35 53.01 116.30 53.78 116.28 C 54.52 120.30 54.23 124.45 55.17 128.45 C 55.52 126.18 55.73 123.89 56.61 121.75 C 57.32 122.31 58.74 123.42 59.45 123.98 C 59.41 125.64 59.73 127.28 60.19 128.87 C 59.69 128.80 58.69 128.67 58.19 128.61 C 58.34 129.01 58.64 129.81 58.79 130.21 C 59.45 130.32 60.78 130.54 61.44 130.65 C 61.33 134.84 61.12 139.03 60.66 143.20 C 60.39 144.79 61.54 146.09 62.05 147.50 C 61.18 145.19 62.17 142.90 62.72 140.65 C 63.16 140.53 64.05 140.27 64.49 140.14 C 65.10 145.26 63.31 150.20 61.76 155.00 C 63.41 154.16 65.09 153.36 66.93 153.03 C 66.62 154.70 66.82 158.43 64.22 157.85 C 63.82 157.34 63.03 156.31 62.63 155.79 C 61.96 158.99 59.36 161.76 60.35 165.18 C 61.85 163.07 61.63 160.34 62.70 158.04 C 63.39 158.51 64.78 159.45 65.47 159.92 C 66.20 163.87 66.37 167.89 64.24 171.49 C 65.53 170.73 66.90 170.04 67.97 168.97 C 69.28 164.49 69.71 159.76 69.57 155.10 C 68.31 146.95 67.50 138.70 67.40 130.46 C 64.24 127.98 62.14 124.35 58.41 122.64 C 56.28 118.58 53.86 114.73 51.19 111.00 M 61.46 112.28 C 61.09 113.64 61.61 114.14 63.02 113.79 C 63.42 112.46 62.90 111.95 61.46 112.28 M 126.85 116.92 C 127.67 117.79 128.47 118.68 129.25 119.58 C 129.27 117.66 129.24 115.74 129.06 113.82 C 127.46 114.12 127.21 115.59 126.85 116.92 M 40.86 121.19 C 39.20 124.13 44.19 121.50 40.86 121.19 M 35.24 124.24 C 35.80 124.82 35.80 124.82 35.24 124.24 M 86.07 127.93 C 84.47 127.93 84.37 130.65 86.01 130.67 C 87.55 130.64 87.71 127.93 86.07 127.93 M 20.20 140.24 C 20.86 140.90 20.86 140.90 20.20 140.24 M 58.90 149.48 C 58.51 150.86 59.02 151.31 60.44 150.86 C 60.82 149.49 60.31 149.03 58.90 149.48 M 164.91 156.08 C 161.35 157.13 158.04 155.14 154.79 154.01 C 157.25 157.78 162.22 158.71 166.23 157.23 C 169.06 155.92 169.56 152.73 170.00 149.98 C 168.05 151.81 166.74 154.17 164.91 156.08 Z" />
<path fill="#ffffff" opacity="1.00" d=" M 47.43 86.09 C 48.12 86.53 48.82 86.97 49.51 87.41 C 49.54 87.96 49.58 89.05 49.61 89.60 C 49.08 89.61 48.03 89.62 47.50 89.63 C 47.49 88.45 47.46 87.27 47.43 86.09 Z" />
<path fill="#ffffff" opacity="1.00" d=" M 71.27 106.68 C 72.52 106.22 73.74 105.67 74.89 105.01 C 74.40 106.75 75.18 111.13 72.46 110.60 C 72.02 109.31 71.62 108.00 71.27 106.68 Z" />
<path fill="#ffffff" opacity="1.00" d=" M 84.42 115.42 C 86.05 114.95 86.63 115.53 86.16 117.15 C 84.54 117.63 83.96 117.05 84.42 115.42 Z" />
<path fill="#ffffff" opacity="1.00" d=" M 139.00 168.44 C 140.31 166.93 142.30 162.57 144.64 164.92 C 144.64 166.96 142.38 168.24 141.60 170.06 C 140.73 169.51 139.87 168.97 139.00 168.44 Z" />
<path fill="#ffffff" opacity="1.00" d=" M 133.98 169.63 C 135.98 168.86 139.23 168.96 139.30 171.77 C 138.41 172.45 137.31 172.72 136.00 172.58 C 135.34 171.58 134.66 170.60 133.98 169.63 Z" />
</g>
</svg>
