<?xml version="1.0" encoding="UTF-8" ?>
<!DOCTYPE svg PUBLIC "-//W3C//DTD SVG 1.1//EN" "http://www.w3.org/Graphics/SVG/1.1/DTD/svg11.dtd">
<svg width="200pt" height="200pt" viewBox="0 0 200 200" version="1.1" xmlns="http://www.w3.org/2000/svg">
<g id="#ffffffff">
<path fill="#ffffff" opacity="1.00" d=" M 9.73 62.91 C 10.48 60.67 10.40 57.47 13.02 56.50 C 16.97 58.01 16.71 63.35 17.48 66.87 C 17.10 67.76 16.34 69.53 15.96 70.42 C 14.79 68.00 13.94 65.46 13.20 62.89 C 12.69 66.26 12.33 69.65 12.15 73.06 C 20.56 73.82 29.05 74.14 37.37 75.75 C 38.93 75.98 39.92 77.33 41.14 78.19 C 40.05 74.06 40.88 69.86 41.63 65.76 C 40.23 67.33 38.88 68.94 37.61 70.62 C 33.66 69.51 34.25 64.77 33.16 61.64 C 31.50 64.47 31.25 68.95 27.67 70.03 C 26.10 65.29 29.95 61.15 31.60 56.99 C 36.40 56.59 36.95 62.28 36.84 65.85 C 37.31 65.62 37.78 65.39 38.25 65.16 C 39.69 62.62 42.19 59.60 45.42 60.19 C 45.64 65.82 45.56 71.58 44.12 77.06 C 43.36 79.18 41.03 81.59 38.63 80.39 C 30.02 78.10 21.10 77.66 12.25 77.22 C 10.83 77.48 9.70 78.47 8.41 79.05 C 7.44 73.66 8.64 68.18 9.73 62.91 Z" />
<path fill="#ffffff" opacity="1.00" d=" M 19.98 57.52 C 20.68 57.50 22.09 57.48 22.79 57.46 C 25.39 61.52 27.08 66.18 26.52 71.07 C 24.43 69.91 22.82 68.17 22.04 65.89 C 21.42 67.87 21.25 69.96 20.56 71.93 C 19.14 71.31 17.72 70.70 16.29 70.08 C 19.38 66.63 18.93 61.75 19.98 57.52 Z" />
<path fill="#ffffff" opacity="1.00" d=" M 76.24 66.26 C 77.74 64.99 79.80 65.39 81.61 65.13 C 83.04 66.87 84.67 68.43 86.18 70.11 C 86.80 72.98 87.26 75.93 87.29 78.88 C 86.04 81.52 83.09 82.90 80.94 84.76 C 80.67 86.05 80.38 87.34 80.02 88.61 C 80.63 87.71 80.93 86.46 82.02 86.01 C 84.15 86.62 86.25 87.37 88.47 87.62 C 88.64 88.09 88.98 89.04 89.15 89.52 C 89.70 88.68 90.26 87.85 90.81 87.02 C 93.67 87.38 96.39 88.88 99.31 88.34 C 104.50 87.62 109.72 87.93 114.93 87.74 C 117.25 87.78 118.44 85.32 120.46 84.54 C 124.50 83.20 128.81 83.58 133.00 83.55 C 137.65 83.75 142.58 82.68 146.95 84.82 C 147.78 85.82 147.75 87.21 148.11 88.40 C 146.00 89.08 143.87 89.67 141.69 90.02 C 141.63 91.39 141.57 92.76 141.48 94.13 C 144.87 94.39 148.25 93.80 151.63 93.53 C 153.31 93.38 154.11 91.67 155.22 90.63 C 157.08 90.70 159.33 91.38 160.83 89.86 C 167.80 84.03 175.60 78.87 184.39 76.26 C 186.38 75.09 188.70 75.25 190.93 75.36 C 190.43 76.67 189.84 77.94 189.20 79.18 C 189.55 80.92 189.70 82.69 189.74 84.46 C 188.50 84.45 187.27 84.42 186.03 84.38 C 186.24 86.58 188.16 88.70 187.03 90.89 C 185.58 89.99 184.73 88.52 183.92 87.09 C 183.06 87.86 182.20 88.63 181.31 89.36 C 183.34 89.03 185.35 89.51 186.87 90.96 C 186.53 94.65 182.08 93.19 179.59 94.38 C 181.48 94.54 183.36 94.66 185.25 94.74 C 183.21 97.95 179.42 99.42 177.56 102.76 C 176.33 101.70 175.12 100.61 173.79 99.67 C 174.69 100.89 175.74 101.96 176.94 102.90 C 175.57 104.41 173.49 103.55 171.76 103.63 C 174.19 104.53 176.89 104.90 178.98 103.01 C 179.42 105.46 178.65 108.46 180.65 110.39 C 184.55 114.61 188.42 119.23 189.28 125.13 C 187.54 124.42 185.82 123.65 184.15 122.79 C 184.37 121.80 184.98 121.05 186.00 120.56 C 185.30 120.49 184.61 120.42 183.92 120.33 C 183.22 121.93 182.93 123.55 183.71 125.19 C 185.35 125.24 186.99 125.29 188.64 125.37 C 188.54 126.33 188.34 128.25 188.24 129.21 C 185.77 130.50 183.77 128.35 181.85 127.10 C 177.03 123.75 171.78 120.66 165.90 119.78 C 167.21 121.60 169.16 122.73 171.15 123.68 C 170.22 124.34 169.31 125.02 168.41 125.73 C 165.07 123.18 161.75 120.29 157.56 119.29 C 153.97 118.36 150.88 115.60 147.01 115.87 C 144.37 116.17 141.90 117.23 139.37 117.99 C 141.44 119.16 140.80 121.60 140.63 123.54 C 138.59 127.59 135.45 131.09 131.93 133.92 C 132.07 131.67 133.35 130.09 135.30 129.09 C 134.77 128.74 133.72 128.04 133.19 127.69 C 132.42 129.08 131.63 130.45 130.80 131.81 C 127.56 130.31 126.10 126.86 123.77 124.37 C 126.10 124.64 127.79 126.29 129.50 127.73 C 128.95 125.59 128.39 123.46 128.11 121.28 C 131.02 121.66 130.58 124.39 130.67 126.60 C 132.46 126.48 134.26 126.29 136.05 126.05 C 135.39 124.37 133.65 122.94 134.02 121.01 C 135.82 120.80 136.88 122.66 138.33 123.39 C 138.33 121.69 138.12 120.00 137.79 118.33 C 131.28 120.78 124.18 121.60 118.08 125.10 C 115.19 126.82 111.85 127.42 108.57 127.90 C 111.99 130.30 115.56 132.50 118.95 134.97 C 117.57 133.08 113.52 131.52 116.47 129.10 C 119.67 131.35 123.01 133.38 126.45 135.25 C 127.52 132.99 124.33 132.08 123.04 130.87 C 121.04 130.04 120.76 127.83 120.32 125.98 C 123.33 127.78 125.82 130.31 128.17 132.89 C 129.17 132.79 131.15 132.58 132.15 132.48 C 131.45 133.82 131.38 136.10 129.45 136.26 C 126.77 136.55 124.54 138.06 122.63 139.87 C 116.11 136.71 109.25 133.60 104.17 128.32 C 100.38 128.62 97.10 130.79 93.63 132.16 C 96.63 131.20 99.89 131.83 102.07 134.18 C 101.03 134.24 99.99 134.29 98.95 134.34 C 98.69 135.15 98.18 136.77 97.93 137.58 C 96.88 137.64 95.83 137.69 94.79 137.75 C 93.98 140.41 91.53 142.07 90.69 144.70 C 89.03 144.65 86.86 144.54 86.13 142.77 C 85.91 139.79 86.10 136.79 86.02 133.80 C 79.41 133.11 72.75 135.13 66.20 133.95 C 62.15 132.15 57.07 132.44 53.66 129.44 C 53.15 130.01 52.64 130.58 52.13 131.14 C 52.55 131.14 53.38 131.14 53.80 131.14 C 55.73 131.75 55.82 133.62 55.92 135.36 C 52.42 135.36 49.21 133.75 45.94 132.70 C 43.45 130.16 47.40 130.24 49.07 129.38 C 47.27 129.43 45.47 129.51 43.67 129.57 C 43.09 128.42 43.16 126.77 41.97 126.03 C 37.35 123.34 34.26 118.71 29.47 116.26 C 29.25 116.87 28.80 118.09 28.58 118.69 C 25.29 118.44 22.17 117.52 20.05 114.81 C 20.70 113.91 21.35 113.01 21.99 112.11 C 23.93 113.24 26.37 113.66 27.60 115.71 C 27.69 113.52 29.14 111.37 28.12 109.23 C 26.37 109.82 24.71 110.64 23.00 111.35 C 23.79 110.32 24.58 109.30 25.36 108.26 C 27.12 108.50 28.87 108.81 30.63 109.05 C 30.92 108.31 31.50 106.83 31.79 106.09 C 29.73 106.56 27.62 106.76 25.51 106.59 C 27.46 105.58 29.67 105.50 31.82 105.41 C 30.84 103.16 32.70 102.05 34.33 100.96 C 34.41 102.60 34.43 104.23 34.38 105.87 C 35.07 105.13 35.77 104.40 36.49 103.70 C 36.17 102.60 35.87 101.49 35.59 100.38 C 34.16 100.49 32.33 101.29 31.24 99.92 C 30.96 98.40 30.73 96.86 30.15 95.42 C 27.21 98.14 23.28 97.73 19.59 97.82 C 19.58 97.09 19.56 95.64 19.55 94.91 C 15.18 96.06 12.22 99.72 9.88 103.37 C 11.11 104.29 12.35 105.21 13.60 106.11 C 12.51 107.17 11.45 108.27 10.44 109.41 C 11.10 110.04 11.75 110.68 12.40 111.32 C 11.31 109.83 10.48 108.26 12.85 107.57 C 15.69 108.80 18.04 110.94 21.01 111.96 C 20.19 113.78 19.31 115.57 18.26 117.26 C 18.66 117.79 19.47 118.86 19.87 119.39 C 18.59 118.69 17.35 117.92 16.11 117.15 C 16.50 116.69 17.28 115.78 17.67 115.32 C 15.36 114.26 13.17 112.94 10.92 111.77 C 12.09 113.29 13.56 114.53 15.25 115.43 C 14.59 115.92 13.92 116.40 13.25 116.88 C 14.71 119.02 15.96 121.33 17.77 123.22 C 20.85 126.95 26.67 127.88 28.31 132.88 C 22.36 132.62 18.23 127.77 13.72 124.49 C 15.42 129.20 19.40 132.70 20.62 137.63 C 19.25 137.02 17.57 136.75 16.73 135.36 C 14.02 131.53 10.40 127.99 9.75 123.12 C 8.12 117.89 7.94 112.36 6.85 107.01 C 6.11 103.94 6.70 100.33 8.87 97.97 C 14.07 94.36 18.98 90.19 25.14 88.30 C 25.61 88.84 26.55 89.92 27.02 90.46 C 35.29 87.54 43.55 84.13 52.38 83.38 C 55.53 83.43 58.68 83.25 61.82 83.02 C 63.16 82.65 63.28 80.96 64.05 79.99 C 65.72 77.08 68.02 74.59 69.66 71.65 C 71.10 69.06 73.97 67.95 76.24 66.26 M 165.74 92.01 C 165.49 92.97 165.25 93.93 165.01 94.90 C 166.48 94.68 168.04 94.84 169.44 94.29 C 171.13 93.04 172.47 91.39 173.93 89.89 C 171.51 91.56 168.75 93.36 165.74 92.01 M 163.90 99.07 C 164.41 99.63 165.43 100.74 165.95 101.30 C 164.97 100.58 164.00 99.84 163.05 99.08 C 162.07 100.36 161.11 101.66 160.24 103.02 C 159.90 102.28 159.56 101.54 159.23 100.80 C 157.49 102.40 155.66 103.90 153.86 105.42 C 153.12 104.41 152.44 103.35 151.95 102.20 C 152.89 102.37 153.83 102.56 154.78 102.75 C 154.77 101.49 154.78 100.23 154.81 98.97 C 152.64 98.37 150.28 98.18 148.22 99.24 C 150.05 99.50 151.88 99.70 153.73 99.85 C 151.78 101.54 149.66 103.15 148.88 105.73 C 148.36 105.16 147.85 104.60 147.34 104.03 C 144.34 104.97 141.26 105.65 138.22 104.50 C 138.39 105.37 138.57 106.24 138.74 107.12 C 137.77 107.69 136.81 108.28 135.86 108.89 C 136.27 106.82 136.66 104.75 136.90 102.65 C 135.45 103.51 134.06 104.45 132.68 105.40 C 132.45 104.80 131.97 103.59 131.73 102.98 C 131.20 103.75 130.67 104.51 130.14 105.28 C 128.07 103.79 127.04 101.66 126.95 99.13 C 125.50 101.62 127.42 103.78 129.10 105.49 C 122.60 106.03 116.27 104.41 109.78 104.55 C 104.57 102.41 98.87 103.74 93.41 103.63 C 94.68 104.51 95.96 105.36 97.23 106.25 C 97.50 105.62 98.05 104.35 98.32 103.71 C 99.47 104.38 101.84 105.73 100.06 107.08 C 97.35 109.39 94.01 108.07 92.18 105.43 C 92.41 106.24 92.87 107.86 93.10 108.67 C 90.69 108.46 87.98 107.56 86.06 109.57 C 85.16 109.16 84.26 108.76 83.36 108.34 C 82.24 109.20 81.09 110.03 79.95 110.87 C 79.52 110.07 78.66 108.49 78.24 107.69 C 78.92 107.36 80.30 106.69 80.98 106.36 C 79.87 105.72 78.75 105.10 77.63 104.49 C 77.43 105.95 77.38 107.42 77.48 108.90 C 75.90 108.22 74.31 107.57 72.72 106.93 C 72.31 108.09 71.87 109.24 71.44 110.40 C 70.32 110.49 69.21 110.59 68.09 110.71 C 68.99 109.81 69.88 108.89 70.75 107.97 C 70.21 106.95 69.67 105.92 69.14 104.90 C 68.19 104.61 67.25 104.31 66.31 104.01 C 67.56 105.48 69.09 107.13 68.52 109.24 C 68.06 108.75 67.13 107.77 66.66 107.28 C 65.87 107.71 65.07 108.13 64.27 108.54 C 64.41 107.82 64.69 106.37 64.83 105.64 C 63.80 106.40 62.83 107.27 61.71 107.91 C 59.14 107.77 56.58 107.12 54.02 107.74 C 53.22 106.49 52.40 105.26 51.57 104.04 C 50.96 104.46 50.35 104.90 49.73 105.31 C 48.70 104.39 47.55 103.66 46.29 103.11 C 46.83 104.32 47.43 105.49 48.08 106.65 C 46.02 105.21 43.85 103.91 42.06 102.13 C 42.33 100.96 42.56 99.79 42.76 98.61 C 40.61 100.20 41.48 102.88 41.36 105.16 C 40.16 104.82 38.98 104.47 37.79 104.11 C 37.65 106.17 37.87 108.27 37.46 110.31 C 36.52 111.35 35.43 112.25 34.40 113.20 C 36.26 115.97 38.27 118.65 40.78 120.88 C 41.59 119.60 42.76 117.23 44.54 118.63 C 46.80 120.78 50.44 121.33 51.85 124.30 C 54.13 122.77 56.87 124.32 57.83 126.66 C 57.90 126.22 58.05 125.35 58.12 124.92 C 60.17 126.38 62.05 128.06 64.02 129.63 C 63.35 128.29 62.59 127.01 61.87 125.72 C 64.12 125.98 67.02 129.10 68.83 126.77 C 69.65 127.70 70.40 128.69 71.22 129.63 C 72.17 129.17 73.11 128.40 74.22 128.82 C 78.69 129.37 83.78 130.62 87.82 127.97 C 87.48 127.66 86.80 127.05 86.46 126.75 C 90.11 125.66 93.77 124.35 97.64 124.50 C 96.45 125.74 94.64 125.67 93.11 126.16 C 94.52 126.84 96.12 128.07 97.75 127.24 C 101.36 125.70 105.08 124.33 109.02 124.00 C 114.85 123.44 119.38 119.25 125.02 118.07 C 130.87 116.40 136.67 114.55 142.45 112.64 C 145.61 111.65 149.03 112.49 152.13 112.01 C 152.63 110.81 152.80 109.52 153.01 108.25 C 153.66 108.97 154.30 109.69 154.96 110.42 C 155.49 108.61 155.92 106.78 156.37 104.96 C 156.83 105.26 157.75 105.85 158.22 106.15 C 156.64 108.29 155.13 110.51 153.11 112.27 C 153.63 113.99 156.14 113.59 157.47 114.45 C 160.95 115.23 163.01 118.16 165.56 120.35 C 164.96 118.19 162.89 117.05 161.58 115.38 C 162.64 115.41 164.77 115.49 165.83 115.53 C 163.94 113.43 163.44 108.73 166.84 108.05 C 166.81 109.41 166.77 110.76 166.73 112.12 C 167.90 111.11 169.09 110.09 170.04 108.85 C 169.71 106.73 169.21 104.63 168.53 102.59 C 169.29 102.03 170.05 101.48 170.81 100.93 C 170.24 100.29 169.67 99.66 169.10 99.03 C 169.84 98.29 170.59 97.56 171.33 96.82 C 169.46 96.66 167.60 96.49 165.74 96.33 C 165.28 97.02 164.36 98.39 163.90 99.07 M 141.43 98.46 C 140.13 100.38 143.46 101.23 144.24 99.54 C 145.56 97.70 142.23 97.07 141.43 98.46 M 156.70 98.91 C 156.06 100.33 156.46 100.81 157.89 100.35 C 158.53 98.92 158.14 98.44 156.70 98.91 M 43.84 100.39 C 43.48 101.74 44.00 102.23 45.40 101.85 C 45.80 100.50 45.27 100.02 43.84 100.39 M 51.54 101.17 C 52.40 103.41 54.62 104.62 56.38 106.08 C 55.13 104.14 54.51 100.76 51.54 101.17 M 60.06 102.23 C 60.19 105.62 62.96 100.70 60.06 102.23 M 138.20 102.08 C 138.38 105.51 141.17 100.45 138.20 102.08 M 73.64 103.45 C 73.58 104.11 73.45 105.44 73.39 106.11 C 74.81 105.40 76.74 105.14 77.22 103.38 C 76.02 103.38 74.83 103.40 73.64 103.45 M 83.86 104.73 C 84.29 106.09 85.02 107.28 86.08 108.25 C 86.37 106.47 86.67 104.69 87.01 102.91 C 85.97 103.53 84.91 104.13 83.86 104.73 M 122.31 102.97 C 121.70 104.47 122.09 104.93 123.49 104.34 C 124.09 102.83 123.70 102.38 122.31 102.97 M 61.47 104.32 C 60.20 105.58 62.57 106.56 63.37 105.47 C 64.66 104.24 62.24 103.20 61.47 104.32 M 88.58 105.00 C 87.79 106.11 89.62 107.65 90.56 106.64 C 91.34 105.51 89.53 103.95 88.58 105.00 M 32.13 108.02 C 31.45 109.71 31.94 110.23 33.60 109.60 C 34.21 107.86 33.71 107.33 32.13 108.02 M 174.03 111.63 C 173.63 113.03 174.12 113.51 175.52 113.07 C 175.92 111.66 175.42 111.18 174.03 111.63 M 180.40 113.24 C 180.69 116.63 183.33 111.69 180.40 113.24 M 54.26 126.16 C 54.80 129.54 56.95 124.33 54.26 126.16 M 66.32 128.82 C 65.43 130.19 67.74 131.56 68.70 130.38 C 69.62 129.02 67.25 127.67 66.32 128.82 M 88.91 132.26 C 90.57 133.26 92.23 134.24 93.89 135.24 C 93.09 134.20 92.29 133.16 91.52 132.11 C 90.87 132.14 89.56 132.22 88.91 132.26 Z" />
<path fill="#ffffff" opacity="1.00" d=" M 16.02 96.86 C 19.48 94.00 20.54 102.42 17.10 101.97 C 14.89 101.09 15.55 98.62 16.02 96.86 Z" />
<path fill="#ffffff" opacity="1.00" d=" M 25.47 102.86 C 26.83 102.48 27.34 102.99 27.00 104.40 C 25.63 104.80 25.12 104.28 25.47 102.86 Z" />
<path fill="#ffffff" opacity="1.00" d=" M 16.77 108.89 C 17.62 107.37 18.75 106.04 19.95 104.81 C 19.77 106.91 19.37 109.06 16.77 108.89 Z" />
<path fill="#ffffff" opacity="1.00" d=" M 24.16 105.26 C 24.80 105.90 24.80 105.90 24.16 105.26 Z" />
<path fill="#ffffff" opacity="1.00" d=" M 129.16 105.51 C 130.76 106.83 132.53 108.00 133.72 109.75 C 133.15 110.28 132.58 110.80 131.99 111.31 C 131.32 110.28 130.53 109.33 129.71 108.42 C 129.04 109.54 128.37 110.66 127.68 111.78 C 125.12 112.12 122.54 112.27 119.98 112.69 C 120.47 111.90 120.95 111.12 121.42 110.33 C 123.46 110.52 125.53 111.31 127.57 110.67 C 128.61 109.14 128.74 107.25 129.16 105.51 Z" />
<path fill="#ffffff" opacity="1.00" d=" M 126.39 107.14 C 128.25 107.49 125.58 110.72 124.38 109.49 C 123.45 108.22 125.41 107.34 126.39 107.14 Z" />
<path fill="#ffffff" opacity="1.00" d=" M 73.33 109.10 C 74.20 107.81 76.68 109.21 75.58 110.54 C 74.61 111.54 72.08 110.56 73.33 109.10 Z" />
<path fill="#ffffff" opacity="1.00" d=" M 106.87 111.53 C 109.71 110.74 112.79 109.51 115.58 111.21 C 115.84 113.17 115.08 115.46 116.57 117.05 C 115.46 116.75 114.35 116.46 113.24 116.20 C 113.97 115.00 114.68 113.80 115.37 112.58 C 114.08 113.40 112.82 114.24 111.57 115.11 C 111.67 114.28 111.86 112.63 111.95 111.80 C 111.30 111.93 110.00 112.20 109.35 112.33 C 109.69 113.98 110.05 115.63 110.41 117.28 C 106.40 116.94 102.43 117.37 98.76 119.09 C 99.73 118.51 100.72 117.99 101.74 117.51 C 101.76 116.24 101.77 114.97 101.79 113.71 C 97.72 114.87 93.27 119.72 89.11 116.54 C 87.59 118.15 85.88 119.55 84.05 120.80 C 81.30 119.56 78.33 119.36 75.47 120.38 C 76.52 119.20 77.66 117.82 79.27 117.46 C 80.82 117.52 82.15 118.50 83.59 119.00 C 83.55 117.70 83.46 116.41 83.31 115.12 C 83.85 116.29 84.43 117.44 85.06 118.58 C 85.93 116.42 86.55 114.18 86.80 111.87 C 87.36 113.10 87.88 114.33 88.43 115.57 C 89.67 114.67 90.79 113.62 92.03 112.71 C 93.06 113.84 94.21 114.85 95.38 115.83 C 95.39 114.87 95.42 112.97 95.43 112.01 C 96.19 112.55 96.96 113.10 97.72 113.65 C 100.50 112.04 103.65 111.12 106.87 111.53 M 108.68 111.42 C 106.13 112.61 102.30 113.15 102.89 116.90 C 105.24 116.71 107.61 116.56 109.97 116.44 C 109.54 114.76 109.12 113.09 108.68 111.42 Z" />
<path fill="#ffffff" opacity="1.00" d=" M 118.18 113.27 C 121.57 113.38 116.63 116.19 118.18 113.27 Z" />
<path fill="#ffffff" opacity="1.00" d=" M 62.60 115.39 C 64.20 115.38 65.81 115.41 67.41 115.45 C 67.47 116.07 67.60 117.33 67.66 117.95 C 65.95 117.13 64.25 116.30 62.60 115.39 Z" />
<path fill="#ffffff" opacity="1.00" d=" M 69.53 116.20 C 71.16 115.59 71.65 116.12 71.02 117.77 C 69.40 118.39 68.91 117.86 69.53 116.20 Z" />
<path fill="#ffffff" opacity="1.00" d=" M 170.99 124.04 C 172.92 124.52 174.82 125.37 175.61 127.34 C 179.70 126.53 183.03 130.00 185.81 132.51 C 183.10 132.33 180.19 132.68 177.70 131.33 C 175.14 129.93 173.04 127.77 170.25 126.78 C 170.43 126.10 170.80 124.72 170.99 124.04 Z" />
</g>
</svg>
