<?xml version="1.0" encoding="UTF-8" ?>
<!DOCTYPE svg PUBLIC "-//W3C//DTD SVG 1.1//EN" "http://www.w3.org/Graphics/SVG/1.1/DTD/svg11.dtd">
<svg width="512pt" height="128pt" viewBox="0 0 512 128" version="1.1" xmlns="http://www.w3.org/2000/svg">
<g id="#ffffffff">
<path fill="#ffffff" opacity="1.00" d=" M 255.23 57.27 C 260.42 45.53 270.95 36.48 283.04 32.45 C 290.54 31.82 296.23 38.94 296.33 46.00 C 296.56 53.60 292.01 60.83 285.47 64.53 C 282.32 66.23 279.01 69.50 275.17 68.25 C 272.90 66.48 273.59 63.20 273.07 60.70 C 270.02 63.09 267.73 66.26 264.90 68.89 C 261.62 71.98 258.28 75.08 255.66 78.78 C 262.14 83.43 270.35 80.75 276.98 77.93 C 285.12 75.30 287.80 65.28 296.09 62.85 C 298.05 61.90 301.00 62.68 301.47 64.97 C 300.04 69.19 298.54 73.38 297.02 77.57 C 303.04 74.85 307.44 69.87 311.94 65.25 C 314.63 68.37 310.81 71.45 310.05 74.56 C 313.43 73.01 315.94 70.14 319.13 68.26 C 319.50 68.68 320.24 69.54 320.60 69.97 C 319.75 72.87 317.78 75.26 316.59 78.02 C 321.93 76.46 326.82 73.61 331.09 70.08 C 334.05 67.52 334.08 63.23 336.14 60.08 C 339.05 55.32 342.13 49.44 348.16 48.35 C 349.73 53.77 346.09 58.86 342.88 62.90 C 340.60 65.94 336.28 67.32 335.23 71.23 C 334.39 73.39 334.69 75.72 335.25 77.91 C 343.07 78.58 349.44 72.66 356.55 70.43 C 359.84 67.53 363.75 65.55 367.76 63.87 C 367.93 55.51 372.45 47.95 378.18 42.15 C 379.31 40.90 382.12 40.19 382.71 42.34 C 383.36 46.79 382.08 51.26 380.28 55.30 C 378.86 58.90 375.94 61.67 374.79 65.40 C 377.89 64.62 380.63 62.82 383.75 62.10 C 385.73 63.78 386.95 66.91 385.21 69.19 C 383.33 71.50 381.27 73.75 380.45 76.70 C 384.15 76.51 387.55 74.62 391.28 74.76 C 387.74 76.63 384.01 80.52 379.71 79.31 C 376.20 74.53 381.75 69.75 383.66 65.54 C 378.33 65.58 374.25 69.64 369.40 71.32 C 364.73 75.52 359.57 79.59 353.43 81.33 C 353.03 79.56 352.71 77.78 352.44 75.98 C 348.04 78.96 342.97 80.76 338.00 82.49 C 333.23 82.30 332.07 76.74 331.76 72.92 C 326.94 76.22 321.74 78.87 316.72 81.82 C 314.98 80.11 314.27 77.84 313.84 75.51 C 311.54 77.05 309.74 79.37 307.10 80.35 C 305.89 78.97 305.87 77.09 305.52 75.40 C 302.54 77.86 299.69 80.62 296.06 82.10 C 293.30 80.83 294.22 77.80 294.49 75.45 C 291.19 77.58 288.44 80.51 284.90 82.27 C 283.33 81.79 282.29 80.40 281.05 79.43 C 275.16 82.35 268.68 85.04 261.98 84.19 C 258.88 83.83 256.45 81.78 253.97 80.10 C 250.18 83.42 247.13 87.45 243.81 91.22 C 243.60 90.47 243.19 88.99 242.98 88.24 C 245.87 84.43 249.65 81.41 252.86 77.88 C 251.00 71.00 251.83 63.54 255.23 57.27 M 277.29 38.26 C 269.68 42.65 262.56 48.68 258.81 56.79 C 255.60 62.55 253.38 69.30 254.55 75.95 C 261.33 68.07 269.79 61.82 276.16 53.56 C 276.53 53.76 277.27 54.17 277.64 54.37 C 278.41 58.39 274.72 62.08 275.59 66.28 C 279.63 65.94 282.81 63.27 286.04 61.10 C 291.01 57.37 295.12 51.47 294.55 44.99 C 294.16 41.36 292.58 37.21 288.84 35.90 C 284.87 34.54 280.82 36.59 277.29 38.26 M 372.87 52.95 C 370.86 56.59 368.80 61.05 370.71 65.15 C 375.25 59.12 381.24 52.70 380.87 44.65 C 377.24 46.27 375.03 49.80 372.87 52.95 M 338.61 63.37 C 340.71 62.06 341.91 59.87 342.69 57.59 C 340.72 59.02 339.20 60.98 338.61 63.37 M 286.56 76.97 C 291.03 74.53 295.46 71.20 297.69 66.49 C 292.34 67.45 288.95 72.50 286.56 76.97 M 355.67 76.76 C 360.22 74.90 364.35 71.88 367.18 67.84 C 362.26 68.90 358.00 72.33 355.67 76.76 Z" />
<path fill="#ffffff" opacity="1.00" d=" M 78.26 43.27 C 84.76 38.72 92.26 34.00 100.46 34.38 C 103.31 38.00 104.49 42.91 103.32 47.40 C 99.85 57.13 91.94 64.66 88.83 74.53 C 92.15 73.19 93.98 69.86 96.49 67.49 C 99.78 64.21 102.66 60.56 104.91 56.49 C 108.62 61.20 104.80 67.10 105.68 72.39 C 113.86 68.79 117.91 60.37 121.93 52.95 C 124.33 49.21 124.37 44.64 126.03 40.62 C 127.48 42.54 126.55 44.78 126.03 46.84 C 123.54 55.92 119.06 64.68 112.09 71.13 C 109.62 73.25 106.84 75.83 103.32 75.32 C 102.96 70.56 103.96 65.86 104.13 61.12 C 99.71 65.40 96.44 70.72 91.89 74.86 C 90.22 76.46 88.05 77.34 85.74 77.39 C 87.70 66.09 96.16 57.77 100.66 47.58 C 102.40 44.14 101.22 40.17 99.69 36.90 C 94.60 35.80 89.80 39.29 85.32 41.33 C 81.66 43.62 76.15 45.89 76.35 51.01 C 76.58 55.43 81.37 57.22 84.60 59.20 C 81.63 61.12 78.28 58.96 76.33 56.62 C 73.02 52.72 73.84 46.01 78.26 43.27 Z" />
<path fill="#ffffff" opacity="1.00" d=" M 137.71 47.03 C 136.55 44.48 138.48 42.73 140.78 41.98 C 141.69 44.54 139.78 46.01 137.71 47.03 Z" />
<path fill="#ffffff" opacity="1.00" d=" M 150.57 51.64 C 153.06 49.55 153.92 46.08 156.07 43.64 C 157.04 46.46 155.58 49.05 154.55 51.60 C 159.75 51.24 164.92 50.56 170.10 50.07 C 170.34 50.94 170.58 51.82 170.82 52.70 C 164.94 54.01 158.88 54.05 152.94 54.97 C 149.81 60.86 144.03 66.18 144.70 73.38 C 148.36 73.27 151.99 72.12 154.99 70.00 C 159.83 66.30 163.57 60.99 169.13 58.32 C 171.71 59.56 170.08 63.46 169.99 65.73 C 169.15 64.77 168.39 63.75 167.71 62.67 C 164.76 65.19 161.92 68.11 160.99 72.01 C 168.15 71.42 174.31 67.10 179.30 62.24 C 183.26 56.51 184.30 48.64 190.44 44.51 C 191.84 42.97 193.84 45.35 192.92 46.82 C 191.46 50.53 189.60 54.09 187.38 57.40 C 184.78 61.23 181.09 64.34 179.31 68.69 C 182.70 67.90 185.69 66.08 188.50 64.08 C 190.86 67.39 187.86 70.91 187.32 74.31 C 190.50 73.08 193.91 71.85 196.34 69.36 C 198.39 66.39 199.38 62.21 203.11 60.80 C 205.12 59.61 207.39 61.91 206.48 63.96 C 205.07 68.45 199.20 69.34 197.47 73.63 C 207.70 69.06 217.68 63.91 227.98 59.51 C 230.75 61.93 227.49 64.98 226.30 67.32 C 223.90 70.34 222.36 74.29 218.94 76.33 C 216.73 75.96 215.86 73.50 214.49 72.01 C 215.01 70.95 215.54 69.89 216.08 68.84 C 217.16 69.87 218.22 70.93 219.28 71.98 C 221.56 69.62 223.75 67.09 225.04 64.03 C 220.39 64.70 216.48 67.58 212.15 69.23 C 206.52 71.44 201.89 75.68 196.14 77.57 C 195.33 76.37 194.82 75.04 194.59 73.57 C 192.06 75.21 189.56 76.90 186.88 78.28 C 185.50 78.16 184.88 77.41 185.02 76.03 C 185.20 73.55 185.94 71.17 186.60 68.79 C 181.88 69.97 178.17 73.17 174.73 76.44 C 174.34 76.30 173.55 76.03 173.15 75.89 C 173.14 73.41 174.74 71.34 175.53 69.07 C 170.69 71.81 165.73 75.01 160.08 75.54 C 159.24 74.16 158.75 72.63 158.14 71.16 C 154.08 73.54 150.11 77.11 145.18 77.09 C 141.76 76.02 142.56 72.01 142.24 69.27 C 138.82 72.21 135.39 75.56 130.83 76.56 C 129.72 76.99 128.87 76.68 128.31 75.63 C 128.19 73.37 128.93 71.19 129.28 68.98 C 125.99 71.09 122.87 73.60 119.08 74.74 C 118.72 74.00 118.00 72.51 117.64 71.76 C 119.36 71.47 121.38 72.00 122.85 70.81 C 127.00 67.90 130.63 64.35 134.09 60.66 C 135.39 65.33 131.18 69.02 130.53 73.49 C 139.24 71.15 145.59 63.71 148.68 55.50 C 144.18 55.39 139.68 56.15 135.20 55.75 C 133.82 55.71 133.46 54.43 133.02 53.39 C 138.68 51.46 144.95 53.63 150.57 51.64 Z" />
<path fill="#ffffff" opacity="1.00" d=" M 441.79 72.81 C 445.73 70.02 446.89 65.12 448.95 61.03 C 449.33 61.79 450.08 63.29 450.46 64.05 C 448.99 67.51 447.82 71.33 444.94 73.93 C 440.53 78.52 433.63 81.08 427.35 79.69 C 424.42 78.09 425.63 74.46 425.61 71.81 C 422.24 73.64 419.03 75.80 416.80 78.99 C 414.48 79.36 414.93 76.70 415.26 75.25 C 416.14 72.57 417.65 70.15 418.45 67.44 C 414.82 67.80 411.18 68.12 407.61 68.81 C 406.23 74.36 402.20 81.14 395.73 80.88 C 395.39 75.29 398.76 69.88 402.87 66.29 C 403.17 66.72 403.78 67.59 404.09 68.02 C 403.06 70.71 400.58 72.64 399.90 75.53 C 403.89 74.05 405.34 69.67 404.77 65.75 C 410.48 65.82 416.17 64.40 421.88 65.29 C 421.70 67.19 421.34 69.07 421.01 70.95 C 423.45 69.59 425.78 67.71 428.71 67.68 C 429.47 70.70 428.14 73.51 427.07 76.25 C 432.20 77.27 437.74 76.25 441.79 72.81 Z" />
</g>
</svg>
