<?xml version="1.0" encoding="UTF-8" ?>
<!DOCTYPE svg PUBLIC "-//W3C//DTD SVG 1.1//EN" "http://www.w3.org/Graphics/SVG/1.1/DTD/svg11.dtd">
<svg width="256pt" height="256pt" viewBox="0 0 256 256" version="1.1" xmlns="http://www.w3.org/2000/svg">
<g id="#ffffffff">
<path fill="#ffffff" opacity="1.00" d=" M 159.33 68.65 C 162.62 68.43 165.02 66.11 167.30 63.98 C 169.10 64.81 171.15 65.26 172.68 66.57 C 173.75 69.07 174.61 71.83 177.26 73.13 C 177.35 73.61 177.54 74.57 177.63 75.06 C 181.34 77.38 185.04 80.26 186.81 84.40 C 188.01 87.39 191.59 88.19 193.39 90.72 C 195.36 92.20 194.19 94.78 193.97 96.80 C 192.64 100.85 190.86 104.87 188.36 108.33 C 184.19 111.85 180.59 115.97 177.44 120.42 C 173.46 124.10 169.77 128.08 166.13 132.09 C 164.29 133.94 163.88 136.60 162.73 138.85 C 160.53 139.73 158.13 139.94 155.83 140.48 C 153.24 144.30 148.93 146.37 145.66 149.50 C 142.26 152.58 140.99 157.76 136.34 159.44 C 133.11 160.43 129.75 161.60 126.36 161.72 C 124.54 160.21 123.03 158.37 121.21 156.85 C 121.54 156.29 122.19 155.16 122.52 154.60 C 119.05 158.00 117.29 162.63 114.45 166.49 C 111.73 169.84 108.86 173.09 105.74 176.07 C 101.74 179.32 96.31 179.07 91.59 180.50 C 87.68 181.13 83.85 182.14 79.95 182.82 C 79.48 187.03 76.71 190.39 75.19 194.23 C 73.66 193.73 71.90 193.28 71.09 191.73 C 71.24 185.09 73.68 178.67 76.95 172.97 C 79.38 171.25 82.25 169.99 83.11 166.82 C 80.03 166.08 77.04 165.02 73.97 164.23 C 71.48 167.68 69.81 171.73 66.72 174.72 C 64.39 176.57 62.27 178.65 60.01 180.59 C 58.44 178.50 55.71 176.23 56.94 173.31 C 59.14 167.65 63.13 162.96 65.44 157.35 C 68.74 155.65 72.02 152.99 75.94 153.41 C 79.28 153.48 82.62 153.25 85.96 153.56 C 90.42 148.88 96.99 146.88 101.12 141.91 C 100.59 141.53 99.54 140.79 99.01 140.41 C 100.60 140.41 103.30 141.75 103.35 139.18 C 101.71 136.41 99.85 133.79 98.26 131.00 C 97.94 130.99 97.30 130.96 96.98 130.95 C 96.90 131.73 96.74 133.30 96.67 134.08 C 96.37 132.37 96.01 130.68 95.56 129.00 C 96.47 129.57 97.33 130.21 98.14 130.92 C 99.04 128.94 100.14 127.05 101.16 125.13 C 100.11 125.25 98.03 125.49 96.99 125.61 C 97.95 125.21 98.91 124.82 99.88 124.45 C 100.25 124.45 101.00 124.46 101.37 124.46 C 105.02 119.63 107.01 113.78 111.33 109.42 C 111.25 109.08 111.08 108.41 110.99 108.07 C 110.35 107.74 109.06 107.07 108.41 106.74 C 108.81 106.89 109.21 107.04 109.61 107.20 C 110.66 107.38 111.73 107.48 112.80 107.50 C 117.89 101.41 123.97 96.22 128.99 90.06 C 132.00 86.71 135.61 83.92 139.34 81.41 C 144.47 78.76 148.93 74.99 154.16 72.52 C 156.21 71.66 156.96 68.86 159.33 68.65 M 164.98 70.02 C 166.48 73.66 169.15 76.61 171.20 79.92 C 171.47 79.53 172.00 78.76 172.26 78.37 C 173.20 82.39 175.41 88.63 180.62 87.57 C 179.28 90.83 182.63 92.57 184.54 94.56 C 186.25 97.66 184.80 101.66 187.13 104.51 C 187.37 102.92 187.49 101.32 187.60 99.71 C 188.76 98.87 189.90 98.01 190.92 96.99 C 188.51 94.43 185.72 92.21 183.57 89.41 C 182.24 87.40 181.30 85.14 179.71 83.31 C 176.30 79.07 171.49 76.06 168.70 71.31 C 168.02 69.94 166.28 68.33 164.98 70.02 M 156.55 78.58 C 152.88 81.01 149.58 84.03 146.91 87.53 C 148.79 87.52 150.57 88.07 152.27 88.80 C 150.31 91.34 148.98 94.60 145.89 95.99 C 143.72 96.81 144.53 99.48 144.41 101.25 C 147.48 99.39 149.20 96.14 151.95 93.92 C 156.35 90.33 161.28 87.27 165.06 82.97 C 164.24 80.94 162.80 79.26 161.54 77.50 C 159.82 77.55 158.00 77.50 156.55 78.58 M 155.45 95.41 C 149.70 99.69 145.01 105.14 139.80 110.01 C 141.60 112.37 142.65 115.43 145.30 117.02 C 144.70 114.20 140.73 112.12 142.07 109.15 C 142.64 108.69 143.79 107.77 144.36 107.31 C 144.42 108.75 144.45 110.20 144.45 111.65 C 146.32 112.76 148.39 112.56 149.91 110.95 C 156.90 104.03 164.76 97.99 171.67 91.00 C 170.62 89.10 169.18 87.48 167.85 85.79 C 163.57 88.82 159.68 92.34 155.45 95.41 M 145.42 89.01 C 144.51 90.61 143.83 92.33 143.19 94.06 C 145.25 95.94 145.94 93.14 146.29 91.44 C 146.93 90.55 146.73 86.62 145.42 89.01 M 136.48 98.01 C 137.58 98.58 138.68 99.15 139.79 99.71 C 139.61 98.57 139.43 97.43 139.25 96.29 C 140.41 95.34 141.45 94.25 142.34 93.04 C 139.18 92.87 137.80 95.67 136.48 98.01 M 167.03 100.02 C 161.67 105.38 154.68 109.23 150.28 115.47 C 149.61 115.65 148.27 116.01 147.60 116.19 C 150.65 118.26 153.13 121.73 157.08 121.91 C 158.23 119.94 158.57 117.67 159.46 115.59 C 161.17 114.88 163.44 115.26 164.63 113.56 C 168.45 108.95 173.24 105.28 177.18 100.78 C 178.30 98.22 175.58 95.92 174.03 94.20 C 171.06 95.24 169.30 98.02 167.03 100.02 M 134.48 99.29 C 133.28 100.33 134.90 102.41 136.22 101.65 C 137.36 100.66 135.77 98.45 134.48 99.29 M 136.89 106.64 C 137.58 106.59 138.96 106.50 139.64 106.46 C 139.66 104.97 139.68 103.48 139.68 101.99 C 138.25 103.23 136.95 104.63 136.89 106.64 M 165.37 117.33 C 166.20 117.92 166.91 118.64 167.51 119.47 C 166.30 119.42 165.09 119.35 163.89 119.27 C 161.36 119.41 158.74 124.20 162.44 124.80 C 161.59 125.06 160.74 125.33 159.89 125.62 C 159.86 125.25 159.80 124.51 159.77 124.14 C 157.90 123.64 156.67 125.71 155.12 126.44 C 156.81 128.37 158.60 130.24 160.85 131.54 C 168.29 123.53 176.69 116.47 183.58 107.96 C 182.32 106.47 181.07 104.97 179.86 103.44 C 174.91 107.95 169.69 112.18 165.37 117.33 M 121.50 114.31 C 122.94 113.46 124.32 112.51 125.73 111.62 C 125.70 110.96 125.64 109.64 125.61 108.98 C 124.07 110.61 122.55 112.31 121.50 114.31 M 120.33 121.36 C 119.57 123.54 117.34 124.13 115.36 124.78 C 115.53 126.18 115.95 129.06 118.00 128.46 C 119.55 126.45 120.09 123.73 122.09 122.07 C 125.18 119.63 127.66 116.54 130.86 114.22 C 129.95 113.59 129.04 112.96 128.13 112.33 C 126.00 115.76 122.13 117.65 120.33 121.36 M 117.80 119.42 C 119.08 119.21 120.87 118.27 121.52 117.12 C 120.19 115.27 116.80 117.45 117.80 119.42 M 120.04 131.96 C 121.12 132.94 122.18 133.95 123.23 134.98 C 127.68 131.22 131.23 126.57 134.86 122.05 C 133.92 120.51 133.00 118.96 132.08 117.41 C 127.68 121.89 122.96 126.30 120.04 131.96 M 146.10 118.40 C 145.08 120.02 148.46 122.03 149.15 120.04 C 148.95 118.79 147.24 117.82 146.10 118.40 M 138.21 123.48 C 137.68 125.05 138.25 125.63 139.91 125.19 C 140.45 123.63 139.88 123.06 138.21 123.48 M 126.13 137.42 C 127.87 138.68 129.53 140.03 131.12 141.47 C 135.16 138.16 139.06 134.59 143.60 131.97 C 143.43 130.39 143.32 128.81 143.21 127.23 C 140.86 129.32 137.65 128.89 135.86 126.29 C 132.80 130.15 129.50 133.83 126.13 137.42 M 109.24 130.07 C 108.82 130.54 107.96 131.49 107.53 131.96 C 110.86 135.16 113.73 138.78 117.03 142.00 C 118.97 144.39 122.19 145.78 122.90 149.01 C 125.61 150.66 127.06 153.94 130.06 155.10 C 132.96 156.37 135.67 154.10 138.14 152.85 C 138.26 151.26 138.30 149.67 138.42 148.09 C 136.34 150.27 133.67 151.78 130.61 151.85 C 130.70 148.43 127.71 146.42 126.24 143.68 C 118.52 141.94 115.47 134.01 109.24 130.07 M 139.94 139.20 C 138.61 139.25 137.28 139.26 135.95 139.32 C 136.84 139.39 138.61 139.52 139.50 139.59 C 137.37 141.61 135.03 143.42 133.22 145.75 C 134.50 145.67 135.76 145.50 137.01 145.23 C 140.84 142.65 144.38 139.67 148.18 137.04 C 147.39 135.92 146.62 134.79 145.88 133.64 C 143.89 135.48 141.81 137.24 139.94 139.20 M 141.46 147.00 C 141.83 147.26 142.56 147.78 142.93 148.05 C 146.84 145.09 151.12 141.98 153.57 137.69 C 148.84 139.77 144.72 143.01 141.46 147.00 M 113.00 147.93 C 112.52 149.56 113.08 150.13 114.68 149.65 C 115.14 148.00 114.58 147.43 113.00 147.93 M 91.05 166.95 C 89.85 166.68 88.66 166.41 87.46 166.16 C 87.38 166.49 87.24 167.14 87.17 167.47 C 89.43 167.06 91.57 167.70 93.54 168.80 C 95.62 165.67 98.14 162.88 100.12 159.69 C 95.93 160.22 93.34 163.78 91.05 166.95 Z" />
<path fill="#ffffff" opacity="1.00" d=" M 152.27 84.05 C 154.99 82.24 152.70 87.48 152.27 84.05 Z" />
<path fill="#ffffff" opacity="1.00" d=" M 140.32 131.14 C 143.37 129.62 140.44 134.58 140.32 131.14 Z" />
</g>
</svg>
