<?xml version="1.0" encoding="UTF-8" ?>
<!DOCTYPE svg PUBLIC "-//W3C//DTD SVG 1.1//EN" "http://www.w3.org/Graphics/SVG/1.1/DTD/svg11.dtd">
<svg width="256pt" height="128pt" viewBox="0 0 256 128" version="1.1" xmlns="http://www.w3.org/2000/svg">
<g id="#ffffffff">
<path fill="#ffffff" opacity="1.00" d=" M 152.19 22.16 C 156.22 20.29 160.78 20.37 164.94 18.91 C 167.33 19.60 169.93 20.41 171.55 22.43 C 174.54 26.92 176.73 32.51 175.03 37.91 C 172.15 49.27 162.66 57.01 153.60 63.60 C 151.58 65.02 149.04 67.00 146.49 65.61 C 143.93 64.39 144.82 61.22 144.52 58.97 C 139.35 64.66 133.85 70.03 128.65 75.68 C 134.41 78.52 140.96 77.02 146.62 74.72 C 152.69 71.97 158.80 69.16 164.21 65.21 C 168.32 62.12 172.82 59.35 175.82 55.06 C 177.37 56.26 179.05 57.29 180.58 58.52 C 182.22 63.68 176.79 67.21 176.04 72.01 C 179.39 70.99 182.52 69.37 185.38 67.36 C 189.84 64.23 194.94 61.76 198.31 57.32 C 201.91 57.51 205.37 55.95 209.02 56.51 C 212.00 55.89 213.37 59.45 212.93 61.84 C 211.97 64.76 210.28 67.40 209.56 70.41 C 214.26 67.98 218.16 64.30 222.42 61.22 C 224.85 65.24 220.50 69.02 220.96 73.30 C 224.02 73.25 226.44 70.84 227.10 67.95 C 228.05 65.04 226.02 62.15 226.89 59.21 C 233.10 61.09 239.71 59.89 245.69 57.76 C 248.56 57.01 251.48 55.84 254.50 56.41 C 254.66 58.47 254.81 60.69 253.42 62.41 C 250.14 67.31 247.99 73.55 242.73 76.71 C 237.96 77.09 234.94 69.22 238.99 66.36 C 240.26 68.24 240.14 71.77 242.79 72.20 C 246.09 68.59 249.09 64.55 250.67 59.87 C 243.84 61.59 236.89 62.90 229.86 63.41 C 229.81 67.13 229.86 71.21 227.31 74.23 C 225.94 76.40 222.98 78.92 220.54 76.65 C 217.84 74.88 218.63 71.45 218.63 68.74 C 214.85 71.16 211.25 73.87 207.95 76.91 C 207.29 76.46 205.97 75.54 205.31 75.08 C 205.61 69.82 208.77 65.30 210.19 60.31 C 208.00 60.26 205.81 60.32 203.62 60.50 C 203.07 64.20 203.01 68.38 200.36 71.33 C 198.26 73.57 196.10 75.86 193.40 77.38 C 191.87 78.41 189.66 77.42 189.25 75.67 C 188.88 73.18 189.73 70.73 190.05 68.28 C 186.09 70.55 182.68 73.74 178.31 75.29 C 176.32 76.10 172.99 77.91 172.12 74.74 C 171.90 69.99 175.64 66.31 177.09 62.01 C 176.80 61.70 176.22 61.10 175.93 60.79 C 169.48 65.32 163.56 70.74 156.57 74.47 C 149.36 77.36 142.15 82.36 134.02 80.72 C 131.01 80.43 128.36 78.85 125.98 77.07 C 123.88 78.96 121.68 80.73 119.47 82.48 C 116.29 85.00 113.66 88.28 109.94 90.06 C 109.88 89.33 109.77 87.88 109.72 87.15 C 114.20 82.58 119.64 79.10 124.35 74.77 C 117.57 64.71 117.82 51.07 123.50 40.58 C 125.12 37.30 128.40 35.44 130.98 33.01 C 137.16 27.89 144.85 25.14 152.19 22.16 M 155.77 23.80 C 149.32 25.92 143.41 29.29 137.41 32.40 C 131.18 35.67 126.44 41.29 123.54 47.63 C 120.72 55.87 120.66 65.77 126.09 72.99 C 135.67 65.69 143.57 56.10 149.28 45.52 C 149.79 47.22 151.24 49.06 150.26 50.85 C 148.45 54.52 146.92 58.37 146.65 62.49 C 149.79 62.52 152.16 60.27 154.64 58.67 C 162.13 53.64 168.94 46.99 172.50 38.57 C 174.79 33.34 173.44 26.65 169.04 22.97 C 164.75 21.40 159.94 22.17 155.77 23.80 M 191.64 73.60 C 196.62 71.80 201.87 66.63 200.41 60.93 C 196.49 64.31 193.27 68.66 191.64 73.60 Z" />
<path fill="#ffffff" opacity="1.00" d=" M 4.78 20.85 C 7.07 20.04 9.60 20.24 12.00 20.12 C 20.64 20.85 29.34 20.56 38.00 21.05 C 44.04 21.53 50.05 20.62 56.06 21.33 C 63.44 21.61 71.02 22.75 78.21 20.45 C 78.26 21.38 78.36 23.24 78.41 24.16 C 69.78 25.86 60.90 24.76 52.17 24.73 C 46.25 39.36 37.38 52.53 30.84 66.85 C 29.33 70.72 27.61 74.50 25.78 78.23 C 24.54 77.91 23.18 77.74 22.24 76.76 C 18.93 74.05 15.70 71.23 12.62 68.24 C 11.22 67.27 12.59 65.74 12.93 64.60 C 16.63 67.41 19.61 71.02 23.12 74.06 C 28.93 61.78 34.97 49.58 41.73 37.78 C 43.34 33.27 46.67 29.41 47.17 24.54 C 36.04 24.30 24.92 23.91 13.81 23.36 C 11.15 23.35 8.24 22.51 5.76 23.82 C 4.36 25.80 5.18 28.61 7.16 29.87 C 9.92 31.74 12.55 33.93 15.64 35.24 C 19.35 35.96 23.11 36.38 26.79 37.27 C 26.89 38.09 27.07 39.73 27.16 40.56 C 21.82 39.74 16.40 38.76 11.42 36.61 C 8.45 34.68 5.75 32.21 3.58 29.42 C 1.36 26.88 2.25 22.82 4.78 20.85 Z" />
<path fill="#ffffff" opacity="1.00" d=" M 90.59 55.86 C 91.64 55.68 93.47 54.23 94.07 55.87 C 95.73 59.63 96.23 64.38 94.18 68.11 C 91.85 72.18 89.00 76.96 83.74 77.21 C 82.83 72.13 85.74 67.51 88.24 63.35 C 83.78 64.10 79.15 64.14 74.84 62.60 C 72.02 67.12 68.31 71.17 63.63 73.79 C 62.30 74.92 61.26 74.70 60.48 73.14 C 60.47 70.51 60.91 67.91 61.07 65.29 C 56.14 68.32 53.02 73.61 47.79 76.24 C 47.21 73.08 48.60 70.07 49.12 67.01 C 44.66 69.35 40.83 72.93 35.97 74.48 C 33.83 74.04 35.19 71.24 34.97 69.79 C 36.70 69.85 38.59 70.22 40.08 69.07 C 45.48 66.39 49.39 61.74 54.02 58.04 C 55.32 62.21 52.27 65.56 50.96 69.25 C 56.34 66.19 59.90 60.76 65.09 57.49 C 66.44 61.98 62.47 65.61 62.88 70.06 C 68.65 66.90 72.74 61.48 75.03 55.39 C 75.71 56.99 76.21 58.65 76.72 60.31 C 82.08 62.19 87.56 60.07 93.03 59.94 C 92.25 58.56 91.39 57.22 90.59 55.86 M 86.53 72.26 C 89.33 70.42 91.98 67.88 92.57 64.43 C 89.92 66.42 87.58 69.08 86.53 72.26 Z" />
</g>
</svg>
