<?xml version="1.0" encoding="UTF-8" ?>
<!DOCTYPE svg PUBLIC "-//W3C//DTD SVG 1.1//EN" "http://www.w3.org/Graphics/SVG/1.1/DTD/svg11.dtd">
<svg width="128pt" height="128pt" viewBox="0 0 128 128" version="1.1" xmlns="http://www.w3.org/2000/svg">
<g id="#ffffffff">
<path fill="#ffffff" opacity="1.00" d=" M 69.93 11.68 C 72.15 8.30 75.34 5.97 78.94 4.21 C 79.87 4.89 80.84 5.52 81.84 6.09 C 81.66 7.28 81.47 8.47 81.27 9.66 C 80.44 8.70 79.61 7.74 78.76 6.80 C 79.16 8.23 79.55 9.67 79.92 11.12 C 73.67 13.83 67.47 17.40 63.34 22.97 C 67.54 22.18 71.19 19.78 75.28 18.64 C 77.40 18.32 78.71 16.51 80.35 15.32 C 81.73 15.86 82.67 17.05 83.62 18.13 C 83.43 20.57 81.21 22.00 79.61 23.56 C 79.77 26.07 79.44 28.57 79.18 31.07 C 79.96 30.17 80.73 29.26 81.53 28.37 C 81.52 29.94 81.47 31.51 81.45 33.08 C 79.77 34.28 78.23 35.66 76.65 36.98 C 77.96 37.86 79.26 38.77 80.54 39.70 C 80.91 38.28 81.28 36.86 81.63 35.44 C 83.56 35.52 85.49 35.54 87.42 35.51 C 83.69 40.06 78.57 43.34 75.53 48.46 C 74.02 52.45 74.66 56.83 73.90 60.97 C 72.84 66.65 73.99 72.48 72.75 78.14 C 75.49 85.09 70.74 92.10 72.50 99.16 C 71.67 106.45 70.86 114.08 73.56 121.12 C 72.61 121.26 70.71 121.56 69.76 121.70 C 69.16 120.44 68.56 119.19 67.95 117.93 C 66.64 120.62 65.01 123.14 62.81 125.19 C 61.57 122.65 60.00 120.30 58.27 118.07 C 61.97 111.37 64.58 104.17 67.13 96.98 C 66.92 96.72 66.50 96.21 66.29 95.95 C 62.91 95.63 59.50 95.72 56.14 95.21 C 53.36 93.72 50.26 92.27 48.44 89.60 C 46.62 82.13 48.50 74.49 48.24 66.94 C 48.10 63.02 49.10 59.22 49.83 55.41 C 48.34 57.29 46.27 58.72 43.96 59.40 C 41.55 59.74 41.45 56.78 40.55 55.31 C 42.12 55.14 43.70 54.96 45.27 54.73 C 43.61 54.72 41.95 54.69 40.29 54.64 C 41.64 52.33 43.27 50.20 44.70 47.95 C 43.75 46.81 41.13 45.42 42.73 43.73 C 43.70 41.96 45.95 42.42 47.63 42.08 C 48.91 43.64 50.12 45.25 51.35 46.85 C 52.36 45.82 53.33 44.75 54.31 43.69 C 56.15 44.51 58.01 45.29 59.93 45.91 C 58.57 48.81 56.09 50.83 53.91 53.07 C 52.74 57.27 52.10 61.65 51.50 65.96 C 52.26 73.41 50.68 80.91 51.86 88.34 C 55.13 93.72 61.91 92.56 67.25 92.65 C 64.11 89.02 65.81 84.34 65.76 80.05 C 67.39 74.84 64.94 68.91 67.97 64.09 C 69.13 62.29 68.57 60.04 68.99 58.04 C 69.26 54.39 70.97 50.91 70.48 47.21 C 69.92 42.59 71.88 38.16 71.85 33.54 C 70.44 32.98 68.54 32.73 68.46 30.84 C 68.58 28.21 71.01 26.66 72.66 24.95 C 68.79 25.20 65.00 26.65 61.09 26.22 C 58.69 24.22 58.84 20.64 60.54 18.26 C 62.36 15.57 62.85 11.67 66.23 10.43 C 67.53 10.62 68.70 11.25 69.93 11.68 M 44.90 43.57 C 43.76 44.68 45.14 47.22 46.70 46.43 C 47.85 45.42 46.32 42.90 44.90 43.57 Z" />
<path fill="#ffffff" opacity="1.00" d=" M 36.88 57.16 C 38.46 56.60 38.97 57.15 38.40 58.82 C 36.82 59.38 36.31 58.83 36.88 57.16 Z" />
<path fill="#ffffff" opacity="1.00" d=" M 40.33 59.08 C 41.44 58.76 43.04 60.59 41.50 61.17 C 40.45 61.52 39.42 61.56 38.39 61.29 C 37.75 60.18 39.43 59.26 40.33 59.08 Z" />
</g>
</svg>
