<?xml version="1.0" encoding="UTF-8" ?>
<!DOCTYPE svg PUBLIC "-//W3C//DTD SVG 1.1//EN" "http://www.w3.org/Graphics/SVG/1.1/DTD/svg11.dtd">
<svg width="256pt" height="256pt" viewBox="0 0 256 256" version="1.1" xmlns="http://www.w3.org/2000/svg">
<g id="#ffffffff">
<path fill="#ffffff" opacity="1.00" d=" M 181.30 56.54 C 184.64 56.65 186.76 53.49 189.98 53.27 C 194.97 52.78 199.62 55.53 203.01 58.96 C 204.59 64.53 206.84 70.02 210.35 74.72 C 212.88 79.86 212.42 85.79 214.20 91.16 C 214.48 97.13 215.25 103.30 213.60 109.14 C 214.43 111.29 215.90 113.49 215.22 115.89 C 213.24 122.76 216.20 129.83 214.92 136.78 C 214.43 139.34 214.09 141.97 214.33 144.57 C 215.58 147.50 217.51 150.16 218.37 153.27 C 218.81 154.29 218.07 155.16 217.61 156.01 C 220.97 158.84 223.48 164.29 219.91 167.97 C 217.21 167.57 214.44 166.73 211.79 167.88 C 213.08 172.33 214.90 177.09 213.80 181.74 C 212.99 184.58 209.29 184.01 208.31 181.62 C 207.26 177.84 206.91 173.91 207.17 170.00 C 204.67 170.20 202.16 170.41 199.68 170.79 C 200.32 174.31 200.16 177.96 199.47 181.45 C 197.79 183.41 195.15 183.97 192.87 184.93 C 189.17 186.18 185.35 187.37 181.40 187.34 C 183.10 185.69 184.86 184.09 186.14 182.09 C 187.57 179.88 190.51 180.00 192.77 179.31 C 192.66 177.22 192.55 175.13 192.50 173.04 C 189.66 173.51 186.80 173.68 183.94 173.81 C 183.57 172.93 183.20 172.06 182.83 171.20 C 183.47 170.13 184.59 169.18 184.55 167.83 C 184.91 163.28 184.26 158.74 184.42 154.19 C 183.96 150.02 181.94 146.19 181.45 142.02 C 179.75 132.83 180.28 123.45 180.34 114.16 C 181.09 108.61 181.18 102.71 184.15 97.79 C 184.94 94.19 184.23 90.41 184.36 86.75 C 180.74 86.31 177.26 85.18 173.67 84.63 C 171.76 84.53 170.42 83.04 168.87 82.11 C 168.94 82.71 169.08 83.90 169.15 84.49 C 169.87 84.84 171.31 85.53 172.03 85.88 C 170.67 87.47 169.05 88.81 166.92 89.11 C 165.85 85.33 166.79 81.54 168.13 77.97 C 167.01 78.34 165.89 78.71 164.78 79.09 C 164.83 77.85 164.89 76.62 164.95 75.38 C 164.03 74.77 163.12 74.16 162.20 73.55 C 162.14 68.78 164.28 64.37 166.20 60.14 C 168.58 55.57 177.60 53.79 179.50 59.39 C 177.78 59.86 176.20 58.81 174.60 58.36 C 174.55 58.86 174.44 59.87 174.38 60.37 C 175.49 60.22 176.61 60.06 177.72 59.92 C 177.58 61.76 177.58 63.68 179.10 65.01 C 179.81 62.18 180.42 59.32 181.30 56.54 M 184.48 58.18 C 185.69 59.35 187.08 60.31 188.50 61.21 C 189.30 59.94 190.11 58.68 190.95 57.44 C 193.26 59.47 196.07 62.13 199.42 60.98 C 196.15 56.31 189.35 55.59 184.48 58.18 M 199.09 64.06 C 200.01 65.77 201.07 67.39 202.06 69.07 C 201.29 68.90 199.75 68.56 198.97 68.39 C 199.27 70.24 199.57 72.10 199.75 73.97 C 200.15 73.15 200.56 72.34 200.97 71.52 C 201.84 71.59 203.57 71.73 204.43 71.80 C 203.13 68.92 201.40 66.23 199.09 64.06 M 166.13 69.21 C 164.87 69.25 164.06 71.67 165.72 71.71 C 166.87 71.65 167.65 69.24 166.13 69.21 M 173.50 71.81 C 173.38 73.79 173.15 75.77 173.06 77.76 C 174.02 79.25 175.87 79.89 177.24 80.96 C 175.17 78.27 174.16 75.09 173.50 71.81 M 204.17 72.92 C 202.84 74.22 204.76 76.55 206.29 75.63 C 207.28 74.42 205.71 71.57 204.17 72.92 M 179.04 82.87 C 180.49 82.88 181.95 82.92 183.41 82.95 C 183.55 81.67 183.71 80.40 183.89 79.14 C 182.73 79.51 181.57 79.88 180.41 80.25 C 180.51 79.41 180.71 77.74 180.81 76.90 C 180.28 78.91 179.72 80.91 179.04 82.87 M 195.82 136.21 C 197.12 135.76 198.42 135.26 199.71 134.78 C 199.78 133.56 199.86 132.36 199.96 131.15 C 198.79 133.00 197.34 134.64 195.82 136.21 M 211.59 147.82 C 211.43 151.17 211.71 154.54 211.42 157.88 C 210.00 159.40 207.46 159.85 207.07 162.19 C 209.08 163.97 211.82 163.05 214.25 163.33 C 214.04 161.54 214.44 159.80 214.81 158.07 C 214.12 154.55 212.78 151.20 211.59 147.82 M 191.46 164.36 C 190.63 165.63 189.73 166.85 188.86 168.09 C 191.58 167.31 194.31 166.56 196.99 165.62 C 195.14 165.22 193.30 164.77 191.46 164.36 Z" />
<path fill="#ffffff" opacity="1.00" d=" M 109.19 101.16 C 110.77 98.16 114.29 97.62 116.93 95.92 C 117.83 97.78 120.05 99.57 119.03 101.81 C 118.52 103.48 116.94 104.46 115.84 105.73 C 121.12 109.51 126.95 112.77 130.90 118.07 C 130.05 122.36 124.77 123.28 121.13 122.37 C 119.80 124.03 118.78 126.23 116.46 126.59 C 117.21 127.65 117.88 128.77 118.49 129.93 C 117.69 130.01 116.07 130.19 115.27 130.28 C 115.28 131.38 115.27 132.48 115.23 133.58 C 113.45 134.01 111.75 134.69 110.11 135.48 C 106.83 131.20 103.10 127.28 100.26 122.67 C 98.23 118.94 92.85 117.07 93.42 112.17 C 94.49 112.43 95.56 112.70 96.64 112.97 C 96.75 112.32 96.98 111.03 97.10 110.38 C 98.74 110.23 100.37 109.98 101.99 109.69 C 102.44 107.96 102.18 105.89 103.48 104.49 C 104.99 102.73 108.04 103.33 109.19 101.16 M 111.32 101.95 C 111.67 102.61 112.37 103.92 112.72 104.57 C 114.17 103.08 115.71 101.67 117.38 100.43 C 117.34 100.13 117.25 99.53 117.21 99.23 C 115.32 100.30 113.36 101.23 111.32 101.95 M 105.51 106.24 C 106.44 107.80 107.45 109.32 108.06 111.05 C 104.38 111.61 100.83 112.72 97.20 113.50 C 97.70 114.06 98.69 115.18 99.18 115.74 C 100.36 115.47 101.55 115.22 102.73 114.99 C 102.29 116.33 101.82 117.67 101.31 118.99 C 103.65 122.38 106.13 125.67 108.35 129.15 C 109.64 126.94 111.13 124.85 113.02 123.11 C 114.30 121.01 115.25 118.71 116.69 116.71 C 120.04 118.21 123.62 120.34 127.37 118.91 C 125.51 116.04 122.44 114.34 119.89 112.16 C 119.35 112.70 118.81 113.24 118.27 113.78 C 116.95 113.36 115.61 113.01 114.27 112.68 C 113.96 111.80 113.65 110.91 113.35 110.02 C 113.17 113.21 113.55 116.52 112.61 119.60 C 112.20 121.19 110.27 121.01 109.06 121.45 C 108.39 120.24 107.72 119.05 107.02 117.87 C 107.75 115.29 108.49 112.72 109.29 110.16 C 111.06 109.73 112.65 108.85 114.10 107.76 C 113.15 103.92 108.25 107.09 105.51 106.24 Z" />
<path fill="#ffffff" opacity="1.00" d=" M 89.69 113.88 C 91.45 115.62 93.13 117.48 95.48 118.43 C 99.86 123.28 104.18 128.34 107.36 134.09 C 105.83 138.55 103.96 143.18 100.03 146.15 C 100.84 148.77 101.75 151.44 100.41 154.05 C 101.26 158.12 105.37 161.61 109.68 161.30 C 110.56 162.82 112.25 164.40 111.28 166.30 C 109.94 170.18 104.69 168.59 101.59 169.85 C 98.59 171.37 94.92 169.16 92.11 171.22 C 87.43 174.58 80.68 175.18 75.74 172.02 C 76.78 169.63 76.72 166.32 79.17 164.83 C 81.18 164.52 83.21 164.52 85.24 164.37 C 84.04 159.99 77.65 159.00 77.60 153.85 C 78.04 149.63 74.36 146.95 71.48 144.57 C 68.37 143.12 63.67 143.08 62.40 146.92 C 64.92 145.75 67.54 144.78 70.30 144.32 C 70.19 144.87 69.97 145.98 69.86 146.53 C 65.14 146.65 61.46 149.79 59.58 153.95 C 61.15 154.80 63.50 154.85 64.10 156.85 C 61.77 156.49 59.50 155.57 57.10 155.84 C 57.69 158.70 58.13 161.65 56.57 164.29 C 55.14 164.69 53.71 165.07 52.28 165.46 C 52.40 162.98 53.16 160.61 53.41 158.16 C 52.87 155.98 52.03 153.88 51.39 151.72 C 54.20 151.18 56.56 149.61 58.28 147.35 C 56.16 148.91 54.17 150.88 51.41 151.14 C 51.36 147.79 51.36 144.44 51.79 141.12 C 53.55 137.19 55.39 132.91 59.82 131.44 C 61.12 132.05 62.42 132.67 63.72 133.29 C 64.90 132.16 66.13 131.08 67.43 130.11 C 67.53 131.17 67.73 133.29 67.83 134.35 C 67.16 134.71 65.82 135.44 65.15 135.81 C 66.23 137.01 67.36 138.19 68.68 139.14 C 67.83 138.08 66.91 137.09 65.98 136.11 C 67.34 135.03 68.70 133.94 70.08 132.87 C 73.57 137.46 79.07 139.76 82.75 144.15 C 80.09 140.86 77.60 137.21 73.86 135.04 C 71.73 133.84 70.01 132.09 68.01 130.71 C 69.08 125.48 74.44 123.24 78.60 120.79 C 79.16 119.85 79.69 118.90 80.19 117.94 C 82.02 119.50 83.83 121.09 85.49 122.84 C 86.32 120.23 85.95 117.62 85.44 115.00 C 87.03 115.51 88.41 116.45 89.61 117.60 C 89.59 116.36 89.62 115.12 89.69 113.88 M 77.81 122.84 C 78.97 125.39 80.65 127.64 82.08 130.03 C 81.56 131.10 81.05 132.16 80.53 133.23 C 83.32 135.49 86.58 137.10 89.20 139.58 C 90.24 139.37 91.29 139.17 92.34 138.99 C 92.71 141.13 93.20 143.25 94.15 145.22 C 95.56 141.31 95.64 137.11 96.32 133.05 C 95.93 131.07 94.53 129.46 93.75 127.62 C 91.04 128.69 88.41 129.99 86.05 131.72 C 81.12 131.24 82.33 123.93 77.81 122.84 M 72.39 128.82 C 74.53 131.15 77.44 132.37 80.55 132.70 C 79.11 130.12 77.30 127.78 75.90 125.17 C 74.66 126.31 73.48 127.52 72.39 128.82 M 58.23 134.79 C 55.31 137.48 55.23 141.78 54.68 145.44 C 56.23 143.86 57.92 142.11 57.89 139.73 C 57.97 137.38 60.31 136.27 61.74 134.77 C 60.86 134.77 59.11 134.78 58.23 134.79 M 98.82 136.13 C 98.76 138.52 98.50 140.90 98.33 143.29 C 99.61 141.94 100.78 140.49 101.88 139.00 C 100.80 138.10 99.79 137.14 98.82 136.13 M 75.74 143.12 C 77.10 145.10 78.89 146.76 80.15 148.81 C 81.12 151.32 81.35 154.05 82.24 156.59 C 83.92 158.80 86.74 159.48 88.99 160.93 C 88.33 158.41 87.65 155.88 86.61 153.50 C 83.41 149.64 80.12 145.70 75.74 143.12 M 93.55 145.20 C 93.41 148.27 93.47 151.36 93.17 154.44 C 94.11 154.79 95.06 155.15 96.00 155.52 C 95.07 155.56 93.21 155.63 92.28 155.67 C 94.56 159.30 97.25 162.71 100.12 165.91 C 102.88 165.62 105.67 165.81 108.42 165.38 C 105.64 162.93 101.33 163.04 99.05 159.96 C 96.74 156.89 97.16 152.88 97.70 149.32 C 95.96 148.32 94.71 146.80 93.55 145.20 M 92.51 161.91 C 92.35 163.57 92.15 165.22 91.98 166.88 C 93.35 167.07 94.72 167.26 96.09 167.46 C 94.85 165.64 93.66 163.78 92.51 161.91 M 79.00 168.62 C 79.05 169.08 79.17 169.99 79.23 170.44 C 81.63 170.35 84.04 170.17 86.43 169.91 C 85.12 167.04 81.42 169.00 79.00 168.62 Z" />
<path fill="#ffffff" opacity="1.00" d=" M 73.81 154.18 C 75.42 153.63 75.94 154.18 75.36 155.83 C 73.75 156.38 73.23 155.83 73.81 154.18 Z" />
<path fill="#ffffff" opacity="1.00" d=" M 41.65 170.59 C 44.95 169.61 46.86 165.73 50.58 165.81 C 48.66 169.65 44.12 171.06 40.73 173.35 C 44.14 174.20 47.20 172.03 50.58 172.33 C 57.24 172.41 63.70 170.65 70.31 170.29 C 67.23 168.60 63.54 168.97 60.19 168.26 C 60.64 167.52 61.53 166.04 61.98 165.31 C 66.30 165.67 70.67 165.83 74.75 167.47 C 74.34 169.44 73.90 171.40 73.56 173.38 C 56.80 174.39 41.53 182.97 24.74 183.76 C 25.38 182.34 26.17 181.00 26.97 179.67 C 30.58 179.45 34.24 179.39 37.76 178.48 C 31.34 178.34 25.01 179.41 18.87 181.21 C 16.20 182.27 13.62 180.94 11.20 179.91 C 11.91 178.45 12.52 176.69 14.26 176.20 C 19.43 173.19 25.45 172.59 31.03 170.69 C 34.57 170.54 38.12 171.03 41.65 170.59 M 30.29 173.99 C 30.25 177.36 33.27 172.53 30.29 173.99 Z" />
<path fill="#ffffff" opacity="1.00" d=" M 49.79 170.45 C 51.44 168.01 54.23 166.69 57.02 166.01 C 55.97 168.98 52.49 169.72 49.79 170.45 Z" />
</g>
</svg>
