<?xml version="1.0" encoding="UTF-8" ?>
<!DOCTYPE svg PUBLIC "-//W3C//DTD SVG 1.1//EN" "http://www.w3.org/Graphics/SVG/1.1/DTD/svg11.dtd">
<svg width="512pt" height="128pt" viewBox="0 0 512 128" version="1.1" xmlns="http://www.w3.org/2000/svg">
<g id="#ffffffff">
<path fill="#ffffff" opacity="1.00" d=" M 113.46 30.49 C 121.58 21.40 128.84 11.58 137.10 2.61 C 139.16 5.84 138.75 9.94 137.20 13.29 C 133.63 20.52 129.26 27.32 125.39 34.36 C 131.48 28.82 137.68 23.32 143.19 17.18 C 148.15 12.57 153.31 8.07 159.55 5.24 C 159.94 6.72 160.49 8.28 159.90 9.80 C 158.25 15.66 155.14 20.92 152.07 26.12 C 148.02 31.93 142.51 37.30 141.34 44.58 C 145.41 43.86 148.03 40.40 151.57 38.59 C 154.56 37.04 157.00 34.67 159.88 32.96 C 160.99 33.70 161.32 34.65 160.87 35.81 C 159.73 38.71 158.13 41.40 157.07 44.33 C 163.34 40.25 170.03 36.23 174.46 30.06 C 175.59 30.22 176.28 30.86 176.54 31.99 C 174.71 35.90 172.27 39.48 170.37 43.34 C 173.57 42.49 176.32 40.60 179.26 39.15 C 183.23 37.11 187.54 35.69 191.13 32.98 C 191.96 33.61 192.79 34.25 193.62 34.90 C 191.38 39.79 188.85 44.55 186.22 49.24 C 185.18 50.85 184.09 52.78 182.09 53.26 C 179.05 51.54 179.16 47.59 178.81 44.57 C 181.65 44.54 181.46 47.65 182.10 49.62 C 184.88 45.59 187.76 41.51 189.34 36.83 C 181.44 39.82 173.15 43.07 166.98 49.00 C 164.50 54.32 161.06 59.08 158.19 64.20 C 155.68 68.31 153.62 72.71 150.47 76.39 C 146.95 74.68 144.24 71.07 144.61 67.03 C 145.05 62.10 148.71 58.33 152.27 55.24 C 156.24 51.42 161.84 49.72 165.44 45.45 C 167.23 43.09 168.71 40.46 169.51 37.59 C 165.11 41.21 161.30 45.81 155.89 47.99 C 154.55 48.10 153.22 47.29 153.05 45.90 C 153.86 43.08 155.55 40.60 156.38 37.77 C 150.83 39.65 147.62 44.97 142.56 47.62 C 141.21 48.36 139.53 47.04 139.23 45.69 C 138.71 42.49 139.74 39.22 141.42 36.51 C 146.66 27.43 154.57 19.68 157.12 9.20 C 152.39 10.58 149.36 14.70 145.69 17.70 C 138.52 24.87 131.15 31.84 124.27 39.30 C 122.00 41.68 120.94 45.27 117.60 46.48 C 117.46 40.86 121.10 36.30 123.56 31.56 C 128.09 24.54 132.24 17.24 135.41 9.50 C 135.46 8.71 135.56 7.13 135.61 6.33 C 132.36 9.21 129.67 12.61 127.10 16.08 C 120.92 23.86 114.76 31.69 107.93 38.92 C 102.87 43.47 97.25 47.68 90.79 49.98 C 87.08 51.38 82.87 49.32 81.01 45.99 C 79.35 43.17 77.32 39.94 78.55 36.54 C 81.89 28.07 91.28 20.90 100.65 23.35 C 106.00 25.12 104.41 32.92 99.98 34.79 C 100.71 32.23 102.45 29.89 102.42 27.16 C 100.97 24.63 97.63 24.17 95.03 24.87 C 88.77 26.35 82.61 30.66 80.79 37.08 C 79.92 41.51 82.03 47.59 87.04 48.34 C 92.18 48.46 96.37 45.04 100.56 42.55 C 105.68 39.48 109.41 34.75 113.46 30.49 M 147.61 65.67 C 146.45 68.36 147.81 71.17 148.92 73.62 C 150.38 71.79 151.70 69.84 152.77 67.74 C 155.57 62.38 159.26 57.49 161.59 51.88 C 155.46 54.44 150.11 59.46 147.61 65.67 Z" />
<path fill="#ffffff" opacity="1.00" d=" M 323.41 10.50 C 329.66 9.28 336.12 10.12 342.25 11.62 C 344.38 11.82 344.78 14.26 344.59 15.99 C 343.54 23.77 338.17 29.79 334.75 36.58 C 340.50 37.47 346.26 35.68 352.01 36.63 C 353.81 36.69 356.30 37.33 357.36 35.37 C 361.94 28.24 365.30 20.42 368.95 12.80 C 370.25 14.27 371.38 16.24 370.15 18.13 C 367.18 23.25 365.18 28.90 361.68 33.71 C 360.57 35.18 359.69 37.03 360.81 38.78 C 359.17 39.75 357.46 40.76 356.42 42.40 C 353.43 47.16 349.69 51.47 347.63 56.76 C 346.01 57.76 344.82 55.76 345.61 54.39 C 347.92 49.07 351.58 44.51 354.56 39.57 C 350.35 39.48 346.15 38.96 341.97 39.67 C 338.35 40.07 333.42 38.31 331.11 42.11 C 323.74 53.24 316.24 64.42 311.11 76.81 C 308.30 74.67 311.11 71.44 311.88 68.93 C 315.99 58.75 322.65 49.97 328.27 40.64 C 326.18 40.64 324.11 40.86 322.06 41.17 C 321.51 40.49 320.41 39.14 319.87 38.47 C 324.21 37.13 330.75 39.10 332.95 33.93 C 336.13 27.26 341.46 21.35 342.22 13.75 C 335.58 11.77 328.09 11.17 321.57 13.82 C 323.82 15.41 326.25 16.92 327.50 19.49 C 324.39 18.57 321.31 16.79 319.64 13.93 C 319.55 11.89 321.83 11.05 323.41 10.50 Z" />
<path fill="#ffffff" opacity="1.00" d=" M 213.12 13.68 C 217.06 14.01 214.45 18.03 214.24 20.34 C 218.05 20.57 221.89 20.46 225.68 21.06 C 226.18 21.58 227.18 22.62 227.68 23.14 C 222.91 23.77 218.11 22.97 213.31 23.20 C 209.14 30.71 204.68 38.09 201.26 45.99 C 202.31 47.75 204.31 46.37 205.57 45.60 C 208.52 43.64 208.64 39.56 211.28 37.29 C 213.16 35.74 215.12 32.95 217.87 33.73 C 219.85 35.23 219.78 38.35 218.01 39.98 C 215.83 42.98 212.16 44.48 210.19 47.63 C 214.53 46.29 217.63 42.77 221.45 40.48 C 224.73 38.55 227.53 35.99 230.27 33.38 C 232.32 35.10 234.22 36.97 235.93 39.03 C 233.27 42.80 228.86 45.29 227.47 49.89 C 237.20 49.97 245.99 43.75 251.83 36.39 C 252.32 37.01 253.31 38.25 253.80 38.87 C 251.35 42.29 247.98 45.08 246.37 49.05 C 250.31 48.21 253.57 45.72 257.34 44.41 C 259.44 43.57 261.82 43.15 263.46 41.47 C 267.47 37.85 272.71 36.18 277.98 35.52 C 280.26 35.21 282.09 37.85 281.40 39.94 C 280.35 43.07 277.72 45.36 276.53 48.44 C 280.73 45.88 284.50 42.67 288.27 39.52 C 288.83 40.33 289.35 41.15 289.83 42.00 C 288.62 44.58 287.01 46.95 285.92 49.59 C 290.85 49.25 294.70 45.63 299.36 44.27 C 302.30 43.49 304.91 41.93 307.25 40.00 C 309.62 42.85 307.75 46.34 305.87 48.88 C 303.75 51.42 301.29 53.98 298.00 54.88 C 296.23 53.62 295.79 51.42 295.00 49.54 C 291.15 51.15 287.52 53.19 283.96 55.35 C 281.19 52.37 284.02 48.84 284.67 45.63 C 280.57 47.67 277.95 52.58 273.12 52.98 C 272.84 47.63 276.33 43.26 278.51 38.68 C 275.71 38.01 272.92 38.80 270.21 39.46 C 270.73 44.68 268.64 50.29 264.00 53.06 C 262.15 54.93 257.72 55.53 257.49 52.00 C 258.26 49.50 259.82 47.34 260.83 44.94 C 254.75 46.45 249.80 50.53 243.98 52.67 C 241.55 52.19 242.60 49.58 242.61 47.86 C 238.48 50.39 233.92 52.49 229.04 52.89 C 226.93 53.03 224.06 51.50 224.48 49.08 C 226.04 45.34 229.10 42.52 231.77 39.57 C 231.85 39.04 232.01 37.98 232.09 37.45 C 230.75 37.47 229.24 37.11 228.18 38.17 C 222.22 42.64 216.83 47.95 210.15 51.39 C 209.16 50.48 208.19 49.57 207.22 48.65 C 205.09 49.28 202.68 50.92 200.48 49.64 C 198.05 48.57 198.66 45.42 199.44 43.46 C 202.50 36.42 206.47 29.81 209.96 22.98 C 201.47 22.09 192.92 21.82 184.41 21.23 C 181.72 21.06 178.92 20.21 177.39 17.81 C 188.52 19.53 199.80 19.89 211.05 20.26 C 211.47 18.00 211.80 15.64 213.12 13.68 M 261.01 51.52 C 264.84 50.33 266.80 46.70 268.33 43.30 C 264.40 43.99 262.29 48.10 261.01 51.52 M 298.08 47.96 C 298.24 48.89 298.56 50.77 298.71 51.70 C 301.16 49.81 303.63 47.72 304.70 44.70 C 302.37 45.53 300.23 46.76 298.08 47.96 Z" />
<path fill="#ffffff" opacity="1.00" d=" M 262.22 21.74 C 265.16 21.35 264.47 25.41 262.07 25.50 C 260.19 25.11 261.05 22.51 262.22 21.74 Z" />
<path fill="#ffffff" opacity="1.00" d=" M 382.76 46.77 C 387.16 37.23 394.35 29.38 401.27 21.62 C 404.15 24.60 402.21 28.71 400.94 31.97 C 397.44 39.04 391.27 44.26 385.64 49.58 C 384.20 50.85 384.05 52.86 383.58 54.59 C 388.99 53.71 393.76 50.90 398.71 48.73 C 402.00 47.30 405.51 45.45 406.80 41.84 C 409.56 34.93 415.29 29.81 421.21 25.59 C 423.31 29.43 420.33 33.21 418.40 36.41 C 415.79 40.74 411.56 43.57 407.89 46.88 C 405.44 49.32 404.81 55.38 409.18 56.07 C 413.91 56.39 418.20 53.53 421.98 51.00 C 421.74 49.40 421.49 47.81 421.32 46.21 C 423.34 46.78 425.57 48.43 424.98 50.82 C 423.65 54.10 420.61 56.39 417.31 57.44 C 414.16 58.50 410.66 60.63 407.37 58.80 C 403.77 57.32 403.37 53.08 403.02 49.73 C 396.97 52.48 391.21 55.94 384.86 57.96 C 382.27 58.56 381.28 55.38 379.99 53.77 C 375.33 55.57 370.96 58.30 365.99 59.16 C 362.83 59.22 361.27 55.13 362.61 52.57 C 364.58 48.25 366.80 43.96 369.83 40.28 C 370.22 41.63 371.78 43.18 370.40 44.47 C 367.60 47.72 365.99 51.71 364.68 55.74 C 369.49 55.50 373.84 53.23 378.00 50.99 C 379.84 49.94 381.96 48.90 382.76 46.77 M 408.93 42.83 C 413.54 39.08 417.36 34.25 420.08 28.96 C 415.51 32.75 412.16 37.91 408.93 42.83 M 388.46 42.33 C 393.28 39.75 396.68 35.02 398.73 30.06 C 394.74 33.59 391.36 37.86 388.46 42.33 Z" />
<path fill="#ffffff" opacity="1.00" d=" M 376.35 23.84 C 378.25 25.07 379.01 27.12 379.28 29.29 C 376.37 29.04 375.51 26.33 376.35 23.84 Z" />
<path fill="#ffffff" opacity="1.00" d=" M 206.96 68.10 C 207.73 65.45 210.63 64.52 213.06 64.12 C 216.93 63.55 220.96 63.11 224.80 64.17 C 225.42 72.51 219.87 79.30 216.71 86.53 C 222.83 86.80 228.97 86.21 235.06 85.58 C 236.93 85.28 239.35 85.33 240.41 83.41 C 243.77 77.55 246.62 71.41 249.26 65.19 C 249.52 63.38 252.22 62.35 252.21 64.93 C 251.30 69.65 248.49 73.70 246.72 78.10 C 246.04 80.46 247.90 83.79 245.38 85.39 C 240.82 87.85 238.57 92.75 236.07 97.04 C 232.12 104.80 225.69 110.99 222.06 118.93 C 220.65 117.90 220.38 116.71 221.27 115.35 C 224.69 108.93 229.03 103.05 232.83 96.84 C 234.54 94.15 235.50 91.07 237.34 88.46 C 229.94 89.75 222.35 89.04 214.98 89.95 C 209.95 97.38 205.41 105.17 201.06 113.02 C 199.16 116.30 199.69 121.10 196.40 123.42 C 196.39 121.67 196.46 119.89 197.19 118.28 C 201.17 108.22 206.24 98.62 212.28 89.65 C 208.72 88.81 205.02 88.40 201.39 88.87 C 200.36 89.89 199.35 90.92 198.36 91.96 C 198.11 89.82 197.79 86.98 200.15 85.87 C 204.67 85.19 209.25 87.26 213.76 86.10 C 217.71 79.85 221.51 73.19 223.33 65.95 C 218.28 65.32 212.65 65.42 208.37 68.52 C 210.24 69.88 212.33 70.88 214.21 72.22 C 213.91 72.56 213.31 73.25 213.01 73.59 C 210.53 72.54 207.13 71.25 206.96 68.10 Z" />
<path fill="#ffffff" opacity="1.00" d=" M 254.72 84.85 C 259.30 86.80 264.37 85.86 269.19 86.42 C 270.18 89.90 269.84 93.52 268.81 96.95 C 272.16 94.28 275.71 91.72 279.88 90.52 C 281.40 93.06 281.48 95.99 281.33 98.87 C 285.93 96.11 290.88 93.90 296.15 92.81 C 297.90 97.85 293.66 101.71 291.50 105.78 C 294.61 105.56 298.21 105.93 300.81 103.84 C 302.56 101.86 303.32 99.15 305.33 97.35 C 307.60 95.07 310.84 94.35 313.87 93.69 C 314.90 96.27 316.47 99.77 314.09 102.10 C 310.71 104.82 306.18 105.45 302.68 107.98 C 307.50 109.77 312.84 108.51 317.38 106.50 C 320.80 105.14 322.48 101.69 325.05 99.31 C 325.49 104.24 321.42 108.31 317.31 110.37 C 313.41 111.86 309.13 112.37 304.97 112.33 C 302.32 112.53 301.02 109.92 299.63 108.16 C 296.16 108.85 292.57 110.06 289.03 109.43 C 286.69 104.68 292.56 101.07 293.47 96.69 C 289.56 98.08 285.58 99.65 282.45 102.46 C 280.39 104.22 278.88 106.50 276.92 108.36 C 274.91 105.93 277.02 103.37 277.92 100.98 C 278.82 99.01 279.04 96.83 279.32 94.71 C 271.86 96.40 267.81 103.26 263.03 108.51 C 261.68 108.18 261.14 107.38 261.42 106.10 C 262.94 100.32 267.77 95.49 267.53 89.29 C 263.81 89.11 260.03 88.85 256.42 89.95 C 257.59 94.19 257.60 99.00 254.52 102.48 C 252.99 105.30 249.67 105.70 246.89 106.52 C 245.71 101.51 249.08 97.30 251.13 93.07 C 252.59 90.44 253.13 87.42 254.72 84.85 M 249.81 101.69 C 253.42 100.47 255.70 96.93 255.04 93.11 C 252.79 95.63 250.95 98.51 249.81 101.69 M 305.58 102.17 C 308.14 101.56 310.61 100.50 312.58 98.71 C 309.84 98.79 307.10 99.77 305.58 102.17 Z" />
</g>
</svg>
