<?xml version="1.0" encoding="UTF-8" ?>
<!DOCTYPE svg PUBLIC "-//W3C//DTD SVG 1.1//EN" "http://www.w3.org/Graphics/SVG/1.1/DTD/svg11.dtd">
<svg width="256pt" height="256pt" viewBox="0 0 256 256" version="1.1" xmlns="http://www.w3.org/2000/svg">
<g id="#ffffffff">
<path fill="#ffffff" opacity="1.00" d=" M 163.67 55.55 C 165.09 54.22 166.74 55.69 168.16 56.17 C 165.71 56.97 162.84 57.15 161.10 59.31 C 166.92 57.82 173.25 59.55 178.05 63.00 C 185.07 70.11 191.02 79.01 191.69 89.25 C 191.67 96.18 191.26 103.95 186.23 109.25 C 184.29 111.83 180.79 111.90 177.90 112.57 C 175.79 111.98 173.73 111.20 171.57 110.78 C 167.43 110.13 164.22 107.18 160.77 105.05 C 157.93 107.35 154.28 106.29 150.98 106.22 C 146.74 106.80 142.86 108.92 139.49 111.49 C 140.18 111.17 141.56 110.52 142.25 110.20 C 143.52 112.71 144.36 115.56 146.17 117.74 C 149.63 118.99 153.72 119.97 155.87 123.23 C 155.01 130.07 154.44 136.94 154.16 143.83 C 157.05 145.00 159.75 146.51 162.30 148.30 C 163.30 149.07 164.58 148.35 165.69 148.26 C 165.21 148.64 164.25 149.41 163.77 149.79 C 165.55 150.69 167.39 151.46 169.25 152.18 C 168.75 153.18 168.22 154.16 167.65 155.12 C 163.17 154.02 159.07 151.84 155.24 149.32 C 153.06 150.71 150.38 150.75 148.18 152.07 C 141.14 155.95 133.36 158.27 126.47 162.45 C 123.88 163.18 120.84 163.74 118.27 162.96 C 111.58 157.69 102.58 156.58 95.81 151.44 C 94.71 152.30 93.59 153.13 92.45 153.93 C 93.44 155.01 94.35 156.15 95.10 157.41 C 92.57 156.18 91.47 153.40 89.58 151.49 C 89.36 153.11 89.25 154.74 89.14 156.37 C 97.76 162.61 107.57 167.04 117.19 171.48 C 120.99 169.92 124.95 168.64 128.40 166.36 C 132.18 163.89 136.56 162.65 140.58 160.65 C 146.81 157.59 153.03 153.88 160.09 153.22 C 161.82 153.26 162.57 154.12 162.32 155.82 C 160.25 157.66 157.26 157.50 155.07 158.99 C 152.38 161.82 148.36 162.40 144.97 164.05 C 138.31 167.34 131.85 171.11 125.11 174.26 C 124.90 173.46 124.48 171.86 124.27 171.06 C 122.41 172.63 120.60 174.24 118.92 176.00 C 115.03 173.59 110.19 173.82 106.04 171.97 C 99.54 169.42 92.14 166.94 88.36 160.62 C 84.61 158.31 80.26 156.78 77.27 153.39 C 81.61 149.98 85.74 146.31 90.33 143.23 C 90.99 137.05 93.73 131.15 93.51 124.82 C 94.22 123.96 94.89 123.05 95.56 122.15 C 95.74 122.63 96.10 123.61 96.28 124.10 C 97.10 123.18 97.91 122.26 98.72 121.34 C 100.62 122.01 102.49 122.76 104.44 123.32 C 103.25 121.41 101.28 120.46 99.19 119.90 C 100.14 118.59 101.03 117.24 101.89 115.87 C 103.08 116.97 104.23 118.11 105.34 119.29 C 106.66 116.63 107.85 113.86 109.63 111.46 C 111.75 109.81 114.57 111.05 117.01 110.78 C 120.82 111.37 123.33 108.08 125.76 105.76 C 123.79 103.45 121.96 100.76 123.02 97.58 C 123.76 97.44 125.25 97.16 126.00 97.02 C 127.74 99.30 127.61 102.08 127.32 104.79 C 130.84 102.17 135.19 100.57 137.92 97.01 C 141.29 92.82 145.21 88.93 147.38 83.93 C 147.59 81.46 146.92 78.93 147.60 76.51 C 150.29 70.81 153.65 65.43 157.38 60.36 C 158.99 58.19 161.50 57.04 163.67 55.55 M 160.96 61.19 C 164.21 64.70 168.76 66.13 172.65 68.70 C 172.96 68.14 173.56 67.03 173.86 66.48 C 174.59 70.79 178.37 72.97 181.45 75.53 C 183.23 80.23 184.77 85.01 185.72 89.96 C 185.27 91.37 184.60 92.70 184.30 94.15 C 184.91 99.40 182.78 105.19 178.74 108.65 C 181.96 110.48 184.29 107.28 185.93 104.88 C 189.46 96.96 190.24 87.11 185.49 79.51 C 184.02 76.39 182.16 73.48 180.42 70.51 C 175.70 64.78 168.73 60.10 160.96 61.19 M 159.09 69.04 C 160.06 71.48 162.14 71.74 164.43 71.07 C 162.68 70.34 160.90 69.64 159.09 69.04 M 161.24 73.25 C 161.83 73.80 161.83 73.80 161.24 73.25 M 163.14 73.40 C 161.95 75.18 160.79 76.97 159.76 78.84 C 159.24 78.80 158.21 78.71 157.69 78.66 C 158.47 79.04 159.25 79.40 160.05 79.74 C 159.68 81.68 159.46 83.65 160.37 85.49 C 161.63 88.35 161.69 91.48 162.07 94.53 C 162.56 93.89 163.54 92.62 164.02 91.99 C 165.14 94.37 166.25 96.78 166.64 99.41 C 166.95 98.76 167.56 97.45 167.87 96.80 C 168.40 97.95 168.90 99.12 169.41 100.29 C 171.41 98.93 172.22 96.72 172.94 94.52 C 172.77 96.41 172.66 98.31 172.60 100.21 C 174.29 98.45 173.65 95.47 175.78 94.01 C 174.02 91.79 173.05 89.17 172.39 86.46 C 172.66 86.12 173.20 85.44 173.47 85.10 C 174.27 86.91 175.02 88.76 175.65 90.64 C 176.20 89.33 176.72 88.00 177.30 86.70 C 176.72 86.60 175.55 86.38 174.97 86.27 C 174.66 84.19 174.37 82.10 173.93 80.05 C 172.82 81.09 171.68 82.11 170.50 83.07 C 169.80 80.64 171.66 79.10 173.06 77.44 C 169.03 78.42 166.18 75.41 163.14 73.40 M 152.23 82.24 C 152.82 82.82 152.82 82.82 152.23 82.24 M 151.89 83.73 C 151.54 90.02 156.13 94.59 159.91 98.98 C 157.63 95.06 155.20 91.16 153.89 86.80 C 153.60 85.55 152.89 84.50 151.89 83.73 M 140.87 98.91 C 136.94 103.67 130.55 105.11 126.11 109.27 C 124.65 112.49 126.22 116.05 126.14 119.41 C 127.14 118.97 128.14 118.52 129.14 118.05 C 128.80 117.10 128.48 116.16 128.16 115.21 C 136.24 107.90 146.73 102.49 157.82 102.42 C 154.22 98.89 150.27 95.53 148.05 90.89 C 145.47 93.39 143.13 96.12 140.87 98.91 M 173.79 100.13 C 172.38 100.27 170.99 100.60 169.68 101.13 C 171.51 101.86 173.33 102.62 175.13 103.43 C 177.20 101.09 176.96 97.95 177.05 95.03 C 175.47 96.38 174.68 98.31 173.79 100.13 M 125.15 101.17 C 125.80 101.81 125.80 101.81 125.15 101.17 M 119.05 112.53 C 119.09 113.14 119.16 114.35 119.20 114.96 C 120.24 114.30 121.27 113.62 122.29 112.92 C 121.48 112.82 119.86 112.63 119.05 112.53 M 131.49 116.41 C 133.49 116.82 136.89 115.87 136.56 119.01 C 133.40 120.26 129.93 120.47 126.76 121.72 C 129.60 125.43 134.13 122.19 137.77 121.79 C 137.72 118.58 137.81 115.26 136.18 112.36 C 134.63 113.73 133.07 115.08 131.49 116.41 M 111.62 114.16 C 110.52 115.62 113.17 116.53 114.06 115.52 C 115.15 114.09 112.48 113.04 111.62 114.16 M 119.18 116.77 C 119.56 119.64 120.56 122.35 121.70 125.00 C 121.87 122.07 122.06 119.14 122.33 116.22 C 121.54 116.36 119.97 116.63 119.18 116.77 M 113.99 121.69 C 113.85 123.38 115.98 125.77 113.96 126.84 C 111.27 126.11 108.79 123.74 105.87 124.70 C 110.12 127.38 114.45 130.03 119.23 131.68 C 118.53 129.69 117.62 127.76 115.68 126.72 C 115.80 124.80 115.95 122.74 113.99 121.69 M 125.13 122.60 C 123.93 124.06 126.09 125.83 127.46 124.79 C 128.47 123.61 126.27 121.58 125.13 122.60 M 138.53 128.45 C 133.21 129.85 128.53 133.74 122.88 133.70 C 121.28 136.72 122.44 139.93 122.96 143.06 C 126.48 139.82 131.35 138.89 135.21 136.18 C 139.32 133.66 143.77 131.21 148.73 131.24 C 149.49 134.22 149.20 137.31 149.74 140.33 C 150.62 138.00 150.33 135.48 150.47 133.05 C 150.56 129.79 151.63 126.40 150.25 123.26 C 146.74 125.81 142.70 127.39 138.53 128.45 M 98.94 127.36 C 98.91 128.56 98.83 130.96 98.79 132.15 C 99.90 131.54 101.00 130.90 102.09 130.24 C 101.42 131.57 100.80 132.93 100.19 134.30 C 105.54 136.27 111.02 137.91 116.31 140.07 C 115.31 143.82 114.85 147.68 114.27 151.50 C 113.52 152.36 112.37 153.37 111.15 152.98 C 108.28 152.18 105.45 151.22 102.53 150.58 C 107.56 152.67 112.32 155.36 117.48 157.16 C 118.73 150.19 118.17 143.11 118.37 136.07 C 112.00 132.94 105.45 130.19 98.94 127.36 M 128.17 144.71 C 129.03 146.65 129.44 148.72 129.64 150.82 C 135.55 149.78 140.52 146.43 145.30 143.01 C 145.21 140.39 145.30 137.76 145.47 135.14 C 139.88 138.62 134.00 141.64 128.17 144.71 M 103.48 139.38 C 103.63 141.68 102.56 144.26 103.58 146.40 C 105.84 147.39 108.19 148.31 110.68 148.51 C 111.08 146.45 111.53 144.42 111.95 142.37 C 109.04 141.61 106.17 140.73 103.48 139.38 M 122.70 143.69 C 122.91 149.37 121.69 154.92 121.48 160.56 C 124.62 158.56 128.07 157.15 131.25 155.23 C 129.13 155.23 127.01 155.34 124.89 155.37 C 124.30 151.52 125.88 146.61 122.70 143.69 M 84.28 152.70 C 85.55 153.98 86.90 155.18 88.38 156.23 C 87.99 153.60 88.74 151.17 91.28 150.05 C 90.92 149.16 90.59 148.27 90.30 147.36 C 88.31 149.17 86.16 150.78 84.28 152.70 M 131.98 154.18 C 131.50 155.53 131.98 155.97 133.43 155.49 C 133.90 154.10 133.42 153.67 131.98 154.18 Z" />
<path fill="#ffffff" opacity="1.00" d=" M 171.06 83.14 C 172.45 82.73 172.94 83.23 172.52 84.62 C 171.09 84.99 170.60 84.50 171.06 83.14 Z" />
<path fill="#ffffff" opacity="1.00" d=" M 130.37 97.51 C 131.72 96.62 134.30 98.40 133.04 99.93 C 131.74 101.07 129.42 98.88 130.37 97.51 Z" />
</g>
</svg>
