<?xml version="1.0" encoding="UTF-8" ?>
<!DOCTYPE svg PUBLIC "-//W3C//DTD SVG 1.1//EN" "http://www.w3.org/Graphics/SVG/1.1/DTD/svg11.dtd">
<svg width="512pt" height="128pt" viewBox="0 0 512 128" version="1.1" xmlns="http://www.w3.org/2000/svg">
<g id="#ffffffff">
<path fill="#ffffff" opacity="1.00" d=" M 138.13 31.14 C 144.44 22.27 151.92 14.34 160.16 7.25 C 163.23 10.62 163.58 15.66 161.64 19.68 C 155.69 32.39 145.05 41.97 137.59 53.71 C 141.23 53.45 144.74 52.42 148.37 52.06 C 144.92 55.13 140.31 55.98 135.98 57.01 C 133.72 58.63 133.81 62.47 130.83 63.32 C 130.33 61.08 131.03 58.95 132.03 56.97 C 130.90 55.81 128.36 54.10 130.05 52.36 C 131.33 50.50 133.70 51.50 135.50 51.69 C 142.88 39.51 154.31 30.07 159.86 16.75 C 160.88 14.75 160.43 12.50 160.16 10.39 C 147.32 17.34 141.39 31.54 131.89 41.93 C 126.39 48.19 119.49 52.91 112.80 57.78 C 107.15 61.47 100.98 65.38 94.00 65.37 C 87.00 64.88 83.32 57.25 83.72 50.96 C 84.09 45.31 87.65 40.41 92.16 37.21 C 95.72 34.67 99.04 31.61 103.17 30.02 C 110.02 27.73 117.55 34.85 115.90 41.81 C 115.01 44.31 114.10 47.24 111.55 48.52 C 111.93 45.19 114.34 42.40 114.37 39.02 C 114.13 33.66 107.33 29.90 102.71 32.79 C 96.99 36.08 91.23 39.99 87.63 45.65 C 84.59 50.84 85.19 58.98 90.67 62.27 C 96.43 64.07 102.27 60.84 107.29 58.27 C 119.07 51.22 130.37 42.64 138.13 31.14 Z" />
<path fill="#ffffff" opacity="1.00" d=" M 218.24 22.23 C 220.84 19.79 225.12 18.89 228.29 20.68 C 233.09 24.44 234.97 31.10 233.73 36.96 C 231.66 48.37 222.86 57.75 212.48 62.37 C 209.81 62.50 207.19 62.70 204.74 63.94 C 202.22 65.18 199.57 62.40 199.79 59.93 C 200.12 57.05 201.54 54.48 202.50 51.78 C 196.71 54.21 191.11 57.22 186.74 61.80 C 184.37 60.48 186.34 58.36 186.91 56.59 C 183.91 58.65 181.02 61.00 177.50 62.13 C 176.92 60.57 176.41 58.99 175.93 57.40 C 173.58 59.31 171.16 61.14 168.78 63.02 C 168.04 61.89 166.11 60.74 167.01 59.17 C 169.18 53.12 174.50 48.91 180.14 46.22 C 181.10 47.33 182.74 48.19 182.77 49.83 C 181.34 52.70 179.43 55.35 178.53 58.47 C 184.49 55.94 189.37 51.52 193.63 46.74 C 193.98 47.34 194.69 48.52 195.04 49.11 C 194.35 50.54 193.68 51.97 193.04 53.42 C 196.56 51.81 199.82 49.24 203.78 48.86 C 205.20 49.63 205.37 51.43 204.81 52.79 C 203.73 55.66 202.37 58.44 201.59 61.42 C 205.01 61.00 209.12 60.32 210.91 56.96 C 212.56 54.23 215.13 52.31 217.81 50.70 C 213.58 47.14 211.07 41.50 211.84 35.96 C 212.61 30.93 214.42 25.77 218.24 22.23 M 221.52 23.43 C 214.92 27.85 212.09 36.88 214.89 44.29 C 216.33 47.77 219.67 50.81 223.62 50.66 C 228.95 46.00 232.23 39.08 232.34 31.98 C 231.73 28.97 230.72 25.72 228.30 23.66 C 226.29 22.56 223.50 21.91 221.52 23.43 M 170.58 57.80 C 173.89 55.67 177.36 53.21 179.23 49.64 C 175.37 50.95 172.29 54.17 170.58 57.80 M 212.46 59.43 C 215.65 58.48 218.52 56.22 219.52 52.95 C 216.36 53.98 213.69 56.31 212.46 59.43 Z" />
<path fill="#ffffff" opacity="1.00" d=" M 292.13 52.06 C 287.40 40.62 294.77 25.72 307.08 23.30 C 310.73 22.24 313.29 25.98 313.55 29.18 C 315.33 38.62 310.57 47.71 304.77 54.79 C 299.30 59.40 293.05 63.47 285.93 64.82 C 283.95 65.24 283.59 62.82 282.63 61.65 C 278.78 62.35 274.89 62.79 271.01 63.18 C 268.55 63.71 267.14 61.20 265.58 59.82 C 261.81 61.20 258.10 62.96 254.07 63.43 C 252.63 63.06 251.40 61.63 252.09 60.12 C 253.03 57.09 255.11 54.59 256.47 51.76 C 251.60 53.82 247.50 57.20 244.43 61.48 C 243.02 63.00 242.55 61.24 242.15 60.01 C 243.73 56.83 246.11 54.12 247.78 50.97 C 245.58 50.54 243.36 50.22 241.14 49.94 C 239.52 55.81 235.33 60.71 229.90 63.41 C 227.62 64.18 227.27 61.59 227.73 60.00 C 229.08 53.55 234.73 48.25 241.19 47.07 C 244.90 47.01 249.72 47.42 250.71 51.82 C 253.37 50.07 256.16 48.50 259.20 47.50 C 260.37 52.39 256.56 56.20 254.64 60.28 C 259.07 59.39 263.41 57.77 267.10 55.12 C 268.93 53.27 270.24 50.88 272.51 49.49 C 274.07 48.58 275.91 46.98 277.72 48.27 C 279.61 51.75 275.57 54.50 272.87 55.86 C 271.39 57.04 268.20 57.28 268.84 59.79 C 274.27 60.02 279.77 59.37 285.01 57.96 C 287.28 55.88 289.42 53.61 292.13 52.06 M 306.47 26.56 C 299.45 28.52 294.37 35.03 292.91 42.01 C 292.08 44.90 292.46 48.28 294.36 50.66 C 296.65 52.13 299.77 54.61 302.42 52.51 C 309.06 46.55 313.87 36.93 310.99 27.96 C 310.54 25.92 308.02 26.27 306.47 26.56 M 270.22 55.31 C 272.87 54.38 275.33 52.59 276.37 49.89 C 273.68 50.81 271.40 52.69 270.22 55.31 M 230.33 59.57 C 233.49 57.72 236.45 55.23 238.11 51.90 C 234.55 53.17 231.96 56.27 230.33 59.57 M 287.19 61.84 C 290.56 60.80 293.75 59.14 296.52 56.94 C 296.32 55.51 295.52 54.90 294.13 55.12 C 290.83 55.96 288.71 59.01 287.19 61.84 Z" />
<path fill="#ffffff" opacity="1.00" d=" M 168.18 28.22 C 168.98 27.13 169.88 26.09 171.03 25.34 C 173.84 27.51 171.78 31.04 170.38 33.39 C 167.91 37.46 164.95 41.24 161.79 44.79 C 159.87 47.00 156.38 47.22 155.01 49.97 C 152.86 53.36 150.57 57.01 150.60 61.17 C 154.97 59.91 158.33 56.72 161.75 53.89 C 160.24 53.65 158.73 53.40 157.22 53.15 C 157.45 51.13 158.37 49.09 160.44 48.41 C 163.57 47.44 165.89 51.81 164.35 54.31 C 162.00 58.58 157.62 61.18 153.52 63.54 C 151.38 64.87 148.41 63.16 148.25 60.74 C 148.08 57.05 149.59 53.52 151.49 50.44 C 156.00 42.28 162.71 35.70 168.18 28.22 M 157.86 46.10 C 162.41 41.71 166.31 36.48 169.21 30.87 C 165.19 35.74 161.20 40.73 157.86 46.10 Z" />
<path fill="#ffffff" opacity="1.00" d=" M 212.88 81.91 C 220.42 75.15 231.30 71.10 241.35 73.75 C 244.91 74.63 246.80 78.58 246.16 82.02 C 245.86 86.55 243.69 90.56 241.81 94.58 C 246.18 91.26 249.97 87.11 254.98 84.71 C 259.14 86.49 257.04 91.98 256.30 95.32 C 261.00 92.11 265.42 88.27 270.75 86.15 C 271.79 87.06 272.81 88.51 272.37 89.97 C 270.85 96.21 265.90 100.76 263.36 106.52 C 270.15 103.52 275.87 98.72 281.97 94.59 C 284.77 98.50 279.24 101.59 277.84 104.95 C 285.07 99.91 292.74 95.44 301.14 92.59 C 302.84 95.85 301.15 99.32 300.30 102.54 C 308.88 100.30 316.78 96.05 324.16 91.24 C 324.50 91.66 325.18 92.50 325.52 92.92 C 324.61 96.13 322.83 98.98 321.48 102.01 C 327.87 100.68 332.40 95.71 338.05 92.97 C 339.07 96.47 335.63 98.45 333.84 100.89 C 332.11 102.70 331.08 105.00 330.30 107.35 C 339.04 104.63 346.62 99.19 354.37 94.47 C 354.84 94.82 355.79 95.53 356.26 95.88 C 360.32 94.85 364.28 92.46 368.63 93.58 C 368.60 95.29 368.37 96.99 368.10 98.68 C 369.99 98.32 372.70 95.70 374.01 98.18 C 373.34 101.28 371.09 103.91 371.42 107.23 C 378.78 107.78 386.66 105.17 391.64 99.59 C 394.14 96.77 394.58 92.82 393.72 89.27 C 392.40 89.47 391.09 89.69 389.78 89.86 C 390.32 87.61 391.32 85.50 393.66 84.70 C 395.98 88.33 397.78 92.90 396.04 97.15 C 392.40 106.83 380.93 111.53 371.17 110.12 C 368.36 108.00 369.51 104.21 369.56 101.25 C 366.31 103.26 363.80 106.14 360.91 108.58 C 360.73 107.32 359.49 105.75 360.63 104.62 C 362.90 102.10 364.92 99.36 366.17 96.18 C 364.08 96.64 361.96 97.09 360.01 98.02 C 358.92 103.82 355.24 110.00 348.99 111.13 C 347.56 111.70 346.52 109.87 346.26 108.71 C 345.60 106.18 347.30 103.92 348.05 101.62 C 342.44 105.39 336.51 108.81 330.11 111.06 C 325.78 109.95 328.42 104.98 329.27 102.18 C 325.64 103.47 321.82 104.48 318.51 106.51 C 316.56 107.68 315.32 110.09 313.00 110.53 C 309.59 109.86 308.41 106.03 308.25 103.00 C 305.25 104.04 302.25 105.09 299.25 106.13 C 296.57 107.02 294.95 110.26 292.01 110.30 C 288.33 109.23 287.75 104.84 288.38 101.61 C 283.44 104.52 279.42 108.64 274.92 112.13 C 271.18 110.10 274.65 105.60 275.52 102.79 C 271.37 105.59 266.97 108.00 262.78 110.74 C 261.35 109.61 259.89 108.05 260.49 106.05 C 262.53 100.43 267.09 96.16 269.22 90.57 C 265.76 92.15 262.76 94.51 259.59 96.58 C 255.60 99.27 252.90 103.33 249.59 106.74 C 248.11 107.60 247.59 106.17 247.22 105.00 C 249.77 99.28 254.30 94.40 255.29 88.02 C 246.21 93.23 238.27 100.74 233.93 110.40 C 233.20 109.11 231.65 107.89 232.47 106.27 C 235.46 96.89 243.43 89.37 243.90 79.13 C 244.38 76.77 241.76 75.59 239.83 75.42 C 230.06 74.11 219.87 78.03 213.16 85.16 C 211.95 86.56 211.50 88.74 212.62 90.32 C 214.18 93.33 218.02 93.39 220.95 93.78 C 223.11 94.16 225.16 93.27 227.20 92.71 C 227.25 93.60 227.34 95.36 227.39 96.25 C 221.93 96.29 215.01 96.57 211.55 91.48 C 209.23 88.51 209.99 84.20 212.88 81.91 M 289.48 101.23 C 290.65 102.27 291.59 103.71 293.11 104.26 C 297.31 104.39 298.28 99.35 299.39 96.27 C 295.84 97.38 292.67 99.37 289.48 101.23 M 309.30 102.85 C 311.66 103.84 314.73 104.74 316.96 102.96 C 318.68 101.20 319.67 98.89 320.73 96.71 C 317.00 98.91 313.11 100.80 309.30 102.85 M 348.43 107.72 C 351.00 106.80 353.57 105.48 355.20 103.21 C 356.51 101.44 358.32 98.67 355.82 97.07 C 352.59 99.88 350.37 103.91 348.43 107.72 Z" />
<path fill="#ffffff" opacity="1.00" d=" M 288.49 83.22 C 288.52 81.71 290.01 81.15 291.03 80.36 C 291.19 81.89 292.67 83.82 291.10 85.06 C 289.93 86.86 287.77 84.84 288.49 83.22 Z" />
<path fill="#ffffff" opacity="1.00" d=" M 341.79 87.59 C 341.09 85.23 341.58 82.17 344.10 81.12 C 346.55 83.40 344.32 86.67 341.79 87.59 Z" />
</g>
</svg>
