<?xml version="1.0" encoding="UTF-8" ?>
<!DOCTYPE svg PUBLIC "-//W3C//DTD SVG 1.1//EN" "http://www.w3.org/Graphics/SVG/1.1/DTD/svg11.dtd">
<svg width="256pt" height="256pt" viewBox="0 0 256 256" version="1.1" xmlns="http://www.w3.org/2000/svg">
<g id="#ffffffff">
<path fill="#ffffff" opacity="1.00" d=" M 53.92 98.08 C 55.58 100.41 58.48 100.22 61.01 100.24 C 70.15 100.06 78.69 104.35 87.77 104.60 C 91.25 103.26 93.93 100.44 96.09 97.49 C 97.43 98.08 98.77 98.69 100.06 99.41 C 102.53 98.26 105.15 96.95 107.97 97.54 C 111.69 98.18 115.46 98.80 119.22 98.00 C 119.28 98.61 119.39 99.83 119.45 100.44 C 124.09 101.52 127.30 105.30 131.13 107.86 C 132.59 108.71 133.53 110.07 133.99 111.68 C 136.18 111.36 138.44 111.31 140.55 112.08 C 142.06 114.44 143.46 116.93 145.63 118.78 C 146.97 118.50 148.32 118.26 149.67 118.05 C 149.65 119.13 149.61 121.28 149.59 122.36 C 147.54 121.98 145.49 121.63 143.43 121.28 C 142.27 123.45 139.68 125.40 140.68 128.15 C 140.94 133.33 146.24 134.75 150.10 136.66 C 154.13 137.98 158.49 138.26 162.27 140.34 C 170.10 141.14 176.83 145.84 184.37 147.80 C 188.67 150.03 193.58 150.83 197.70 153.43 C 199.76 154.75 202.90 155.21 203.68 157.87 C 203.01 159.27 202.18 160.59 201.38 161.92 C 198.68 159.92 195.32 159.64 192.08 159.60 C 187.64 157.29 182.90 155.64 178.26 153.77 C 176.25 152.87 173.93 154.33 172.03 153.00 C 161.99 148.34 151.96 143.64 141.74 139.36 C 140.56 143.02 141.22 148.47 136.76 149.97 C 134.17 150.86 133.53 154.04 131.00 155.06 C 126.58 158.12 121.80 162.18 116.07 161.45 C 114.63 162.01 113.46 163.10 112.16 163.92 C 112.35 162.81 112.55 161.70 112.75 160.59 C 111.21 160.53 109.68 160.52 108.15 160.55 C 108.73 161.62 109.34 162.69 109.90 163.78 C 107.95 163.82 105.97 163.68 104.78 161.92 C 104.53 162.40 104.02 163.37 103.77 163.85 C 100.65 163.71 97.21 163.40 94.88 161.05 C 92.22 158.38 89.30 155.98 86.65 153.30 C 83.60 150.29 79.07 149.09 76.60 145.44 C 76.15 142.84 77.56 140.18 76.39 137.66 C 75.17 134.35 74.51 130.55 76.40 127.35 C 77.46 123.09 78.88 118.92 79.90 114.64 C 72.24 112.90 64.52 111.41 56.91 109.43 C 55.59 110.20 54.29 110.99 52.96 111.75 C 49.32 107.58 52.91 102.52 53.92 98.08 M 105.97 104.72 C 108.46 107.18 111.28 109.26 115.02 108.86 C 115.21 107.18 116.55 105.22 115.54 103.64 C 113.55 102.79 111.43 102.05 109.23 102.11 C 107.87 102.52 107.09 103.89 105.97 104.72 M 95.65 104.50 C 97.65 106.88 101.14 106.21 103.88 106.86 C 103.76 105.65 103.62 104.44 103.47 103.24 C 100.87 103.73 98.26 104.14 95.65 104.50 M 117.65 104.04 C 117.49 105.88 117.26 107.72 117.12 109.56 C 120.82 110.05 124.51 110.61 128.23 110.87 C 125.08 108.05 121.31 106.10 117.65 104.04 M 125.54 116.11 C 126.94 119.33 131.45 118.81 134.24 120.38 C 133.64 116.54 128.44 117.15 125.54 116.11 M 89.26 121.66 C 86.78 121.61 84.29 121.64 81.83 121.31 C 81.58 122.72 81.32 124.13 81.08 125.54 C 86.85 126.28 92.24 128.55 97.83 130.05 C 99.12 130.52 100.45 130.10 101.73 129.81 C 101.54 128.08 102.07 125.98 100.57 124.70 C 100.54 125.71 100.47 127.74 100.44 128.75 C 96.71 128.96 93.71 126.74 90.45 125.36 C 90.39 124.21 90.32 123.07 90.22 121.92 C 91.13 121.29 92.03 120.67 92.94 120.03 C 91.93 119.60 90.93 119.16 89.94 118.72 C 89.70 119.70 89.47 120.68 89.26 121.66 M 126.92 124.02 C 130.25 125.63 133.99 126.06 137.38 127.55 C 136.46 122.85 130.49 122.74 126.92 124.02 M 80.23 128.01 C 80.73 131.00 80.40 134.01 80.11 137.00 C 81.96 136.61 83.99 136.70 85.62 135.61 C 88.68 133.49 92.55 133.79 95.99 132.74 C 91.16 130.02 85.81 128.12 80.23 128.01 M 117.02 132.51 C 118.70 134.86 120.98 136.69 123.58 137.94 C 124.26 136.57 124.91 135.19 125.54 133.79 C 122.77 132.94 119.92 132.38 117.02 132.51 M 127.36 134.04 C 126.87 135.79 126.28 137.51 125.54 139.17 C 127.77 140.78 130.02 142.36 132.38 143.76 C 132.51 144.97 132.64 146.18 132.77 147.39 C 135.17 144.84 140.13 142.35 138.16 138.20 C 134.68 136.54 131.04 135.19 127.36 134.04 M 99.18 137.29 C 94.39 138.63 89.60 140.03 84.97 141.86 C 87.73 145.02 91.52 147.23 95.64 148.05 C 98.75 144.50 101.17 140.16 100.65 135.28 C 100.17 135.95 99.68 136.63 99.18 137.29 M 115.00 135.28 C 116.08 138.22 117.60 140.97 118.88 143.83 C 119.51 143.24 120.77 142.07 121.40 141.48 C 119.55 139.14 117.28 137.18 115.00 135.28 M 110.30 135.95 C 111.10 139.90 111.25 143.92 111.35 147.94 C 113.34 147.11 115.21 146.04 117.03 144.90 C 115.28 141.61 113.53 138.03 110.30 135.95 M 100.06 144.98 C 99.01 146.61 98.17 148.36 98.24 150.36 C 98.84 150.39 100.04 150.46 100.64 150.49 C 101.97 145.80 104.00 141.35 105.32 136.66 C 101.81 138.06 101.84 142.18 100.06 144.98 M 102.90 149.99 C 105.13 149.50 107.27 148.73 109.43 148.00 C 109.18 144.27 108.81 140.56 108.30 136.86 C 104.85 140.25 104.30 145.54 102.90 149.99 M 123.40 141.95 C 122.37 143.58 121.34 145.20 120.26 146.79 C 122.20 149.36 123.97 152.05 126.00 154.55 C 128.21 152.73 130.27 150.74 132.35 148.78 C 129.27 146.62 126.83 143.61 123.40 141.95 M 111.85 152.15 C 111.86 153.74 112.17 155.31 112.36 156.90 C 115.24 156.81 118.31 156.07 120.99 157.53 C 121.72 156.98 122.45 156.44 123.18 155.89 C 121.55 153.21 119.70 150.68 118.03 148.04 C 116.02 149.47 113.33 150.09 111.85 152.15 M 93.10 151.96 C 93.16 152.43 93.30 153.37 93.36 153.83 C 96.42 156.65 101.21 155.59 104.26 158.47 C 106.44 158.51 108.56 157.87 110.68 157.45 C 110.35 155.66 110.05 153.86 109.75 152.07 C 106.24 152.84 102.58 153.19 99.34 154.85 C 97.50 153.43 95.52 152.02 93.10 151.96 Z" />
</g>
</svg>
