<?xml version="1.0" encoding="UTF-8" ?>
<!DOCTYPE svg PUBLIC "-//W3C//DTD SVG 1.1//EN" "http://www.w3.org/Graphics/SVG/1.1/DTD/svg11.dtd">
<svg width="256pt" height="256pt" viewBox="0 0 256 256" version="1.1" xmlns="http://www.w3.org/2000/svg">
<g id="#ffffffff">
<path fill="#ffffff" opacity="1.00" d=" M 99.97 48.96 C 106.21 44.83 113.66 42.97 121.04 42.27 C 127.42 41.87 133.37 44.58 139.54 45.73 C 142.03 46.20 144.16 47.62 145.63 49.69 C 143.37 49.39 141.15 48.87 138.89 48.63 C 141.36 50.64 144.39 51.65 147.33 52.77 C 150.43 55.28 153.32 58.10 155.49 61.48 C 161.94 68.80 167.37 77.29 169.82 86.82 C 175.47 85.50 181.24 86.63 186.96 86.46 C 189.91 86.52 192.99 86.10 195.75 87.42 C 193.74 88.60 192.51 91.92 189.82 91.29 C 185.14 90.25 180.31 90.79 175.60 89.94 C 174.34 89.69 173.06 89.87 171.82 90.09 C 173.44 90.28 175.06 90.39 176.70 90.43 C 176.55 91.81 176.39 93.19 176.22 94.57 C 176.92 94.52 178.32 94.40 179.02 94.35 C 178.49 95.43 177.93 96.50 177.38 97.57 C 180.00 101.33 184.46 104.83 183.71 109.90 C 181.80 107.64 179.81 105.45 177.85 103.23 C 179.31 108.15 181.86 112.77 185.58 116.34 C 188.18 118.52 188.07 122.24 189.80 124.98 C 194.01 131.94 197.19 139.47 199.98 147.10 C 201.04 151.35 203.50 155.22 203.82 159.65 C 203.27 159.67 202.16 159.72 201.60 159.74 C 201.10 158.24 200.60 156.73 200.16 155.21 C 199.06 155.31 196.85 155.50 195.75 155.60 C 197.55 158.38 200.06 160.63 201.76 163.49 C 196.85 162.31 194.72 157.78 193.52 153.35 C 194.77 153.50 196.03 153.64 197.29 153.79 C 193.90 147.00 193.92 139.00 190.14 132.33 C 190.23 134.08 190.39 135.82 190.62 137.55 C 189.66 137.55 187.75 137.55 186.79 137.55 C 183.79 133.47 184.56 128.09 182.30 123.69 C 181.45 122.72 180.85 120.59 179.20 121.23 C 179.60 123.22 180.74 124.96 181.72 126.72 C 180.91 127.38 180.11 128.06 179.31 128.73 C 179.61 134.23 180.55 139.66 180.13 145.17 C 179.78 145.19 179.08 145.21 178.73 145.23 C 178.52 138.28 178.62 131.33 178.42 124.38 C 178.23 123.78 177.84 122.56 177.64 121.95 C 178.50 121.04 179.39 120.16 180.30 119.31 C 179.10 118.29 178.03 117.10 176.74 116.20 C 170.69 116.45 164.74 117.64 158.69 117.90 C 158.68 124.58 156.25 131.56 158.77 138.01 C 158.31 138.56 157.85 139.12 157.40 139.67 C 158.48 145.43 155.05 152.12 159.16 157.08 C 157.90 157.97 156.64 158.89 155.26 159.61 C 153.28 159.39 151.30 159.14 149.30 159.15 C 151.30 162.30 155.60 158.73 157.66 161.73 C 156.92 162.92 156.14 164.08 155.31 165.22 C 156.18 165.28 157.92 165.42 158.78 165.49 C 158.67 166.79 158.57 168.09 158.49 169.40 C 155.76 169.88 153.02 169.44 150.29 169.32 C 150.30 170.78 150.33 172.25 150.37 173.72 C 152.31 173.22 154.25 172.71 156.18 172.15 C 156.78 173.02 157.38 173.89 158.00 174.75 C 157.74 175.51 157.24 177.01 156.99 177.76 C 154.15 177.22 150.83 175.79 148.55 178.41 C 151.42 178.84 154.32 178.71 157.19 178.41 C 158.14 181.74 156.74 185.15 157.46 188.52 C 157.91 190.08 157.15 191.47 156.32 192.73 C 157.73 192.76 159.14 192.81 160.55 192.89 C 156.83 194.77 156.95 198.89 155.96 202.39 C 155.42 200.13 155.30 197.80 155.26 195.48 C 152.45 195.55 149.96 194.25 147.68 192.75 C 150.46 192.58 153.26 192.85 156.03 192.43 C 154.49 189.27 150.46 190.26 147.60 189.52 C 146.85 184.71 144.88 179.99 145.56 175.06 C 145.84 171.91 145.29 168.72 145.90 165.60 C 146.69 161.79 146.66 157.79 145.82 154.00 C 145.58 149.17 146.33 144.36 146.37 139.54 C 145.46 139.18 144.55 138.83 143.64 138.48 C 144.27 137.27 145.69 136.26 145.57 134.78 C 145.37 129.85 145.67 124.92 145.24 120.00 C 144.17 119.73 143.09 119.45 142.02 119.18 C 138.45 123.53 135.38 128.48 131.02 132.06 C 125.02 133.36 118.81 133.52 112.85 135.12 C 108.18 134.32 103.28 133.00 99.61 129.85 C 99.61 129.38 99.61 128.45 99.62 127.98 L 99.79 126.98 C 100.43 127.48 101.70 128.47 102.34 128.96 C 102.32 128.51 102.28 127.60 102.26 127.14 C 103.15 127.29 104.03 127.51 104.89 127.81 C 105.70 127.19 106.52 126.56 107.34 125.94 C 106.49 127.31 105.65 128.70 104.83 130.10 C 106.78 129.60 108.63 128.81 110.47 127.99 C 110.39 129.20 110.32 130.42 110.25 131.65 C 114.81 129.73 119.57 128.30 124.20 126.54 C 126.74 126.50 129.28 126.38 131.82 126.27 C 133.88 123.21 136.77 120.80 138.64 117.61 C 139.46 116.08 140.97 115.15 142.26 114.06 C 142.70 109.38 142.06 104.58 143.49 100.03 C 144.93 95.64 144.22 90.94 145.40 86.48 C 144.23 86.35 143.06 86.20 141.90 86.03 C 142.97 85.52 144.13 85.31 145.38 85.39 C 144.66 77.25 139.29 70.77 134.47 64.59 C 133.32 62.75 131.80 61.21 130.01 59.99 C 130.52 61.61 131.14 63.20 131.63 64.83 C 130.11 62.74 129.30 60.27 128.03 58.04 C 124.16 55.80 119.47 55.08 115.01 55.52 C 111.30 54.88 107.77 57.44 104.28 55.33 C 98.94 59.69 92.74 62.92 87.77 67.77 C 81.34 73.07 78.90 81.30 75.76 88.68 C 74.41 92.15 72.21 95.19 70.63 98.55 C 68.76 102.69 67.15 106.94 64.92 110.90 C 63.26 114.36 60.70 117.41 59.90 121.24 C 61.19 119.85 62.46 118.44 63.69 117.00 C 63.88 119.70 62.92 123.15 59.55 122.75 C 59.48 124.45 59.36 126.16 59.20 127.86 C 58.13 127.09 57.06 126.33 55.97 125.60 C 56.76 126.53 57.56 127.45 58.37 128.36 C 54.94 130.16 52.54 133.05 50.77 136.44 C 49.94 136.05 49.11 135.67 48.27 135.30 C 49.33 134.45 50.37 133.57 51.42 132.70 C 50.68 130.99 49.81 129.32 49.36 127.50 C 55.00 120.17 59.86 112.06 62.92 103.34 C 60.74 103.14 59.26 104.07 58.46 106.13 C 59.53 100.44 67.81 100.23 67.75 93.76 C 66.07 94.95 64.53 96.31 62.84 97.47 C 63.50 95.98 65.43 94.83 65.05 93.03 C 64.71 92.91 64.02 92.65 63.67 92.52 C 61.30 94.79 59.52 97.57 57.60 100.20 C 57.57 99.13 57.52 96.99 57.49 95.92 C 55.36 99.25 52.13 101.62 49.74 104.74 C 45.50 110.98 40.28 116.48 35.00 121.85 C 35.40 122.52 36.20 123.86 36.60 124.53 C 33.84 124.48 31.08 124.72 28.34 124.34 C 25.35 123.62 23.36 126.41 21.12 127.84 C 21.23 126.79 21.35 125.73 21.46 124.68 C 23.44 124.43 25.42 124.20 27.34 123.65 C 34.22 117.31 40.70 110.48 46.33 102.98 C 42.94 105.45 40.77 109.05 37.94 112.06 C 37.55 111.57 36.77 110.59 36.38 110.10 C 36.97 112.44 35.81 114.63 33.61 115.64 C 33.65 114.56 33.73 112.41 33.77 111.33 C 32.40 112.71 30.96 114.03 29.29 115.04 C 29.21 112.85 30.61 111.22 32.10 109.80 C 33.09 110.10 34.07 110.43 35.04 110.79 C 34.70 110.02 34.37 109.25 34.04 108.49 C 41.38 103.44 47.02 96.45 53.55 90.48 C 59.79 84.77 64.38 77.28 71.71 72.79 C 70.45 72.35 69.21 71.87 67.98 71.37 C 66.83 72.03 65.64 72.63 64.41 73.15 C 66.37 70.71 69.76 70.06 71.59 67.50 C 75.47 62.35 81.23 59.23 86.51 55.75 C 91.20 53.90 95.72 51.68 99.97 48.96 M 116.00 48.39 C 110.95 48.20 106.10 50.34 102.54 53.87 C 111.09 50.62 120.51 51.57 129.26 53.50 C 130.29 54.86 131.35 56.24 132.78 57.23 C 136.84 60.11 140.48 63.53 144.37 66.64 C 143.43 71.98 147.40 76.38 149.04 81.12 C 151.00 92.61 147.64 104.02 145.43 115.21 C 146.31 115.90 147.19 116.59 148.06 117.29 C 157.37 114.45 167.28 113.92 176.95 113.52 C 176.41 112.51 175.82 111.52 175.39 110.46 C 173.85 104.06 171.98 97.51 168.17 92.05 C 168.58 95.36 169.87 98.46 170.67 101.68 C 169.68 100.90 168.58 100.22 167.77 99.24 C 165.03 93.23 162.46 87.07 161.49 80.50 C 158.98 76.19 157.47 71.41 154.92 67.11 C 151.58 63.72 149.59 59.23 145.79 56.22 C 142.03 57.08 137.76 55.34 136.33 51.61 C 131.07 45.84 122.80 48.54 116.00 48.39 M 85.22 58.21 C 83.74 57.96 82.53 59.78 83.31 61.04 C 84.81 62.49 87.45 58.86 85.22 58.21 M 74.28 80.05 C 73.39 79.82 71.61 79.36 70.73 79.13 C 71.87 79.77 73.02 80.39 74.19 80.99 C 71.42 85.16 66.71 88.22 65.95 93.49 L 67.67 93.69 C 70.81 88.53 74.17 83.38 76.21 77.66 C 75.73 78.26 74.76 79.45 74.28 80.05 M 70.26 81.30 C 68.56 81.45 68.68 84.28 70.56 83.49 C 72.31 83.43 72.08 80.52 70.26 81.30 M 62.32 101.38 C 60.88 104.48 65.79 101.32 62.32 101.38 M 152.37 118.12 C 151.25 117.95 149.34 119.70 151.06 120.34 C 152.90 121.33 155.39 117.73 152.37 118.12 M 148.80 123.89 C 148.82 125.28 148.84 126.69 148.87 128.09 C 150.19 128.37 151.51 128.67 152.82 128.97 C 153.05 126.79 153.25 124.58 153.89 122.47 C 152.21 123.00 150.50 123.43 148.80 123.89 M 149.14 131.54 C 149.32 132.89 149.51 134.25 149.69 135.61 C 150.74 135.64 151.80 135.67 152.86 135.70 C 153.03 134.20 153.17 132.69 153.29 131.19 C 151.90 131.29 150.52 131.40 149.14 131.54 M 149.66 137.91 C 149.56 139.56 149.50 141.22 149.47 142.88 C 151.09 142.32 152.67 141.66 154.28 141.09 C 152.94 139.75 151.41 138.65 149.66 137.91 M 149.75 145.62 C 149.67 148.11 149.49 150.62 149.94 153.09 C 151.38 154.24 153.11 152.63 154.64 152.43 C 154.32 150.04 153.95 147.66 153.69 145.27 C 152.38 145.38 151.06 145.50 149.75 145.62 M 150.49 164.39 C 150.72 165.75 151.44 165.98 152.66 165.08 C 152.44 163.72 151.71 163.49 150.49 164.39 M 149.62 182.40 C 149.65 184.14 149.73 185.89 149.74 187.63 C 151.54 187.68 153.35 187.70 155.16 187.70 C 155.26 186.03 155.34 184.35 155.41 182.68 C 153.48 182.56 151.55 182.46 149.62 182.40 Z" />
<path fill="#ffffff" opacity="1.00" d=" M 87.26 71.85 C 91.62 66.49 97.42 62.64 103.52 59.51 C 103.46 60.96 103.41 62.41 103.38 63.86 C 101.81 65.36 101.06 67.39 100.24 69.34 C 97.53 74.25 93.94 78.88 92.80 84.49 C 92.29 87.79 90.90 90.99 91.36 94.39 C 91.47 99.25 93.24 103.85 93.60 108.68 C 94.82 113.21 95.90 117.96 98.67 121.85 C 99.85 121.36 101.04 120.88 102.23 120.42 C 101.53 121.12 100.82 121.81 100.10 122.48 C 101.21 123.67 102.30 124.87 103.35 126.12 C 102.45 126.25 100.66 126.52 99.76 126.66 C 99.27 125.65 98.76 124.66 98.23 123.68 C 98.45 124.73 98.63 125.78 98.77 126.85 C 98.01 126.70 96.48 126.39 95.72 126.24 C 95.27 127.26 94.81 128.28 94.35 129.29 C 94.41 128.43 94.52 126.71 94.58 125.85 C 93.21 125.45 91.86 124.64 91.60 123.13 C 90.19 120.07 89.25 116.83 87.99 113.71 C 86.87 111.72 88.34 109.67 88.81 107.72 C 86.37 105.38 87.81 101.98 87.74 99.08 C 88.42 92.37 85.43 84.53 90.60 78.97 C 89.26 78.37 87.93 77.78 86.63 77.11 C 88.29 77.52 89.92 78.04 91.56 78.50 C 90.91 77.31 90.21 76.15 89.50 74.99 C 90.17 75.13 91.50 75.40 92.17 75.54 C 91.80 74.13 91.42 72.72 91.02 71.32 C 90.28 72.14 89.55 72.96 88.82 73.79 C 88.30 73.14 87.78 72.49 87.26 71.85 M 91.87 117.31 C 90.28 120.31 95.24 117.54 91.87 117.31 M 94.23 124.48 C 94.57 124.77 94.57 124.77 94.23 124.48 Z" />
<path fill="#ffffff" opacity="1.00" d=" M 149.16 66.30 C 152.74 67.06 147.14 70.70 147.71 67.15 C 148.07 66.93 148.80 66.51 149.16 66.30 Z" />
<path fill="#ffffff" opacity="1.00" d=" M 94.10 84.21 C 97.77 79.78 104.78 80.03 109.45 82.65 C 111.84 83.82 111.94 86.75 112.94 88.91 C 114.70 93.50 113.15 98.40 111.75 102.87 C 111.61 100.35 111.56 97.84 111.49 95.33 C 111.13 93.10 109.03 92.22 107.27 91.28 C 108.47 91.46 109.58 91.88 110.61 92.56 C 110.62 91.69 110.63 89.97 110.64 89.11 C 109.31 88.09 108.00 87.04 106.71 85.97 C 106.01 88.29 104.89 90.61 102.65 91.79 C 101.14 91.89 99.64 91.61 98.15 91.45 C 98.40 89.55 98.78 87.68 99.13 85.80 C 98.62 86.43 98.11 87.06 97.61 87.70 C 96.55 86.43 95.36 85.28 94.10 84.21 Z" />
<path fill="#ffffff" opacity="1.00" d=" M 121.43 84.20 C 125.04 79.98 130.81 81.67 135.65 81.39 C 137.38 82.79 139.01 84.31 140.75 85.70 C 135.33 84.11 129.17 83.34 123.86 85.75 C 122.86 90.14 122.91 94.70 121.45 98.98 C 122.66 98.70 123.87 98.43 125.08 98.14 C 122.64 99.96 120.85 102.50 121.39 105.67 C 122.27 107.17 123.38 108.51 124.40 109.91 C 121.66 109.02 119.06 110.04 116.51 110.99 C 116.55 109.37 116.61 107.75 116.58 106.13 C 114.29 107.11 111.52 111.21 109.26 108.23 C 110.52 105.12 113.54 102.73 116.68 101.61 C 117.22 101.90 118.32 102.48 118.86 102.77 C 117.81 96.43 119.28 90.13 121.43 84.20 Z" />
<path fill="#ffffff" opacity="1.00" d=" M 199.85 85.18 C 204.12 86.45 208.17 83.96 212.44 84.63 C 213.97 85.38 215.37 86.35 216.77 87.32 C 213.75 86.75 210.79 85.94 207.81 85.21 C 205.58 87.58 202.20 87.03 199.85 85.18 Z" />
<path fill="#ffffff" opacity="1.00" d=" M 129.34 86.25 C 131.84 85.94 134.32 86.64 136.62 87.56 C 136.58 88.55 136.50 90.55 136.46 91.54 C 134.66 91.31 132.87 91.13 131.07 90.99 C 132.77 91.94 134.57 92.72 136.18 93.83 C 132.42 93.06 128.91 91.50 125.45 89.88 C 126.71 88.63 127.90 87.29 129.34 86.25 Z" />
<path fill="#ffffff" opacity="1.00" d=" M 196.18 90.25 C 197.70 89.54 198.74 92.18 197.06 92.56 C 195.51 93.17 194.37 90.66 196.18 90.25 Z" />
<path fill="#ffffff" opacity="1.00" d=" M 200.14 91.23 C 200.79 91.88 200.79 91.88 200.14 91.23 Z" />
<path fill="#ffffff" opacity="1.00" d=" M 73.34 105.28 C 72.93 100.78 77.69 98.29 79.16 94.37 C 81.46 100.38 80.06 106.73 80.74 112.94 C 80.84 116.51 78.05 119.06 75.59 121.21 C 76.57 119.16 78.14 117.27 78.53 115.02 C 77.70 109.05 80.07 103.28 79.80 97.31 C 77.20 99.59 75.41 102.56 73.34 105.28 Z" />
<path fill="#ffffff" opacity="1.00" d=" M 70.53 102.63 C 72.13 102.24 73.39 105.25 72.77 106.58 C 70.98 107.14 70.09 103.98 70.53 102.63 Z" />
<path fill="#ffffff" opacity="1.00" d=" M 67.31 109.35 C 70.69 109.65 65.48 112.19 67.31 109.35 Z" />
<path fill="#ffffff" opacity="1.00" d=" M 154.74 110.71 C 157.34 110.71 160.43 110.06 162.19 112.51 C 159.60 112.46 157.18 111.47 154.74 110.71 Z" />
<path fill="#ffffff" opacity="1.00" d=" M 163.19 111.06 C 163.85 111.73 163.85 111.73 163.19 111.06 Z" />
<path fill="#ffffff" opacity="1.00" d=" M 66.11 115.23 C 67.74 115.22 66.64 117.66 65.56 117.76 C 63.86 117.69 64.94 115.30 66.11 115.23 Z" />
<path fill="#ffffff" opacity="1.00" d=" M 121.62 118.74 C 121.75 117.78 121.89 116.82 122.04 115.87 C 122.23 117.60 122.38 119.34 122.57 121.07 C 117.88 122.12 113.06 121.88 108.30 121.73 C 109.09 120.61 109.89 119.48 110.66 118.34 C 114.32 118.47 118.03 117.81 121.62 118.74 Z" />
<path fill="#ffffff" opacity="1.00" d=" M 65.35 122.14 C 68.26 121.52 65.07 126.06 63.52 124.73 C 62.83 123.53 64.41 122.51 65.35 122.14 Z" />
<path fill="#ffffff" opacity="1.00" d=" M 33.95 132.90 C 34.76 131.98 35.58 131.07 36.41 130.17 C 36.79 130.70 37.54 131.76 37.91 132.29 C 36.59 132.52 35.27 132.73 33.95 132.90 Z" />
<path fill="#ffffff" opacity="1.00" d=" M 186.79 138.40 C 191.06 140.24 192.57 144.71 192.94 149.01 C 190.79 146.51 191.07 142.73 188.56 140.52 C 188.12 139.99 187.23 138.93 186.79 138.40 Z" />
<path fill="#ffffff" opacity="1.00" d=" M 200.23 163.76 C 203.04 164.61 203.80 167.58 205.27 169.76 C 207.70 173.37 208.28 177.79 210.07 181.69 C 211.49 185.13 213.46 188.41 213.99 192.16 C 210.40 188.01 208.46 182.79 206.27 177.85 C 205.15 176.01 206.13 173.34 204.11 172.05 C 201.41 170.12 200.37 166.96 200.23 163.76 Z" />
</g>
</svg>
