<?xml version="1.0" encoding="UTF-8" ?>
<!DOCTYPE svg PUBLIC "-//W3C//DTD SVG 1.1//EN" "http://www.w3.org/Graphics/SVG/1.1/DTD/svg11.dtd">
<svg width="256pt" height="256pt" viewBox="0 0 256 256" version="1.1" xmlns="http://www.w3.org/2000/svg">
<g id="#ffffffff">
<path fill="#ffffff" opacity="1.00" d=" M 124.35 27.60 C 124.43 25.80 125.98 24.64 126.96 23.29 C 128.05 24.22 130.15 24.46 130.36 26.13 C 131.39 28.71 129.42 31.15 129.54 33.66 C 133.53 39.26 137.96 44.53 141.90 50.16 C 141.01 50.94 140.11 51.71 139.22 52.48 C 135.61 48.74 133.36 43.86 129.37 40.48 C 131.83 48.07 131.94 56.15 134.26 63.77 C 134.64 65.71 136.39 68.19 133.98 69.47 C 132.89 68.89 131.47 68.41 131.16 67.04 C 130.15 63.23 129.85 59.24 128.64 55.46 C 127.74 60.91 127.91 66.46 127.14 71.92 C 126.33 71.81 124.70 71.58 123.89 71.47 C 122.47 63.53 124.97 55.55 124.70 47.56 C 120.83 49.77 121.02 55.61 116.99 57.65 C 114.66 57.66 114.79 55.20 115.75 53.74 C 119.38 47.81 119.57 40.43 123.75 34.77 C 125.69 32.70 124.05 30.00 124.35 27.60 Z" />
<path fill="#ffffff" opacity="1.00" d=" M 184.20 48.07 C 185.20 46.13 185.49 43.04 188.11 42.68 C 190.53 41.75 193.37 44.47 193.34 46.92 C 192.78 48.79 191.01 49.71 189.42 50.57 C 189.86 57.40 186.44 63.61 185.48 70.25 C 185.04 71.89 185.34 74.35 183.09 74.59 C 182.61 74.21 181.64 73.47 181.15 73.10 C 182.17 67.91 183.21 62.79 185.06 57.83 C 182.71 59.98 181.47 62.99 179.36 65.34 C 173.45 71.00 171.66 79.37 167.09 85.97 C 166.37 85.66 164.93 85.04 164.21 84.73 C 164.54 80.89 166.96 77.77 168.45 74.34 C 165.14 76.11 162.78 79.09 159.93 81.45 C 159.06 80.63 158.19 79.82 157.33 79.02 C 160.13 74.91 164.71 72.64 167.95 68.94 C 169.88 66.81 172.84 65.90 174.51 63.50 C 176.38 61.04 178.06 58.43 179.59 55.74 C 174.48 57.63 169.51 61.04 163.86 60.52 C 163.68 59.90 163.31 58.66 163.13 58.04 C 165.99 55.66 169.45 53.99 173.10 53.27 C 177.44 53.06 180.11 49.06 184.20 48.07 Z" />
<path fill="#ffffff" opacity="1.00" d=" M 45.59 71.01 C 48.36 67.64 52.08 70.33 54.69 72.33 C 58.56 73.55 62.82 72.06 66.79 72.99 C 71.03 73.88 75.37 73.54 79.65 73.23 C 80.19 73.71 81.27 74.68 81.81 75.17 C 81.31 75.64 80.32 76.57 79.82 77.04 C 73.74 77.85 67.59 78.52 61.45 78.14 C 69.51 83.83 79.19 86.51 88.50 89.41 C 88.59 90.16 88.77 91.67 88.86 92.42 C 84.56 92.89 80.71 90.56 76.78 89.20 C 79.26 91.45 81.78 93.83 83.08 96.99 C 82.58 97.48 81.58 98.45 81.08 98.93 C 76.02 94.27 70.29 90.54 64.61 86.72 C 66.43 90.59 69.20 93.92 71.04 97.78 C 70.47 98.30 69.33 99.35 68.75 99.87 C 65.29 96.29 63.42 91.53 60.28 87.68 C 58.09 84.64 55.38 82.03 53.28 78.92 C 53.56 78.62 54.10 78.02 54.38 77.72 C 52.16 77.66 49.43 78.22 47.87 76.19 C 46.86 74.59 46.34 72.74 45.59 71.01 Z" />
<path fill="#ffffff" opacity="1.00" d=" M 128.25 75.14 C 132.47 74.74 131.08 80.36 131.26 82.99 C 132.28 81.64 133.27 80.27 134.38 78.99 C 135.48 77.08 137.14 79.33 138.17 80.04 C 134.06 87.85 130.23 96.18 129.90 105.15 C 132.43 100.44 133.96 94.68 138.12 91.16 C 141.90 91.28 139.39 95.78 139.08 97.95 C 141.83 95.95 144.52 93.88 147.33 91.96 C 150.13 94.09 148.35 97.51 146.77 99.82 C 145.48 101.67 144.00 103.37 142.38 104.93 C 142.73 105.63 143.44 107.03 143.80 107.73 C 144.37 105.53 145.26 103.06 148.04 103.33 C 146.52 105.94 145.18 108.80 142.67 110.63 C 142.75 110.91 142.91 111.48 142.99 111.77 C 144.22 111.04 145.45 110.32 146.73 109.69 C 146.17 111.10 145.53 112.49 144.89 113.86 C 150.43 110.78 156.03 106.82 162.46 106.15 C 162.58 106.82 162.82 108.17 162.94 108.85 C 160.68 110.35 158.53 112.02 156.56 113.88 C 160.61 113.78 164.58 112.78 168.64 112.87 C 168.73 113.66 168.90 115.24 168.99 116.03 C 164.76 117.61 160.45 118.98 156.33 120.84 C 160.30 122.63 165.66 122.29 168.38 126.15 C 168.07 128.20 165.37 127.23 163.97 127.50 C 160.04 127.48 156.11 127.86 152.20 128.30 C 152.25 130.10 152.24 131.89 152.28 133.69 C 161.84 135.43 171.54 136.42 181.18 137.58 C 181.53 138.25 182.24 139.58 182.59 140.25 C 179.71 142.25 176.07 141.61 172.81 142.43 C 176.15 144.63 179.26 147.15 181.97 150.10 C 181.84 150.85 181.60 152.33 181.47 153.07 C 178.23 153.53 175.26 152.00 172.25 151.09 C 173.69 153.49 175.13 155.90 176.78 158.17 C 176.67 158.79 176.47 160.04 176.36 160.66 C 172.62 160.95 169.91 157.89 167.15 155.84 C 161.29 151.44 156.81 145.58 151.39 140.71 C 151.43 139.52 151.50 138.34 151.59 137.16 C 150.77 140.61 148.90 143.59 146.20 145.88 C 148.06 152.38 151.41 158.46 152.61 165.11 C 152.24 165.50 151.50 166.27 151.13 166.66 C 148.41 165.56 146.94 162.92 145.34 160.66 C 143.42 157.34 141.14 154.26 139.18 150.98 C 138.12 151.46 137.07 151.94 136.03 152.43 C 136.64 154.26 137.36 156.06 138.24 157.79 C 140.77 162.94 141.83 168.62 143.59 174.05 C 142.96 175.07 142.16 175.95 141.19 176.70 C 139.57 175.57 138.00 174.36 136.34 173.29 C 136.69 174.85 137.05 176.41 137.42 177.97 C 137.03 178.66 136.25 180.04 135.85 180.73 C 131.90 179.19 131.14 174.87 128.94 171.74 C 128.46 174.78 128.55 178.08 126.36 180.50 C 124.95 182.28 126.74 186.94 123.15 185.49 C 123.14 175.85 123.99 166.24 124.97 156.66 C 122.41 159.22 120.31 162.26 119.64 165.89 C 118.62 165.70 117.60 165.50 116.58 165.29 C 116.82 161.91 114.73 157.62 117.16 154.90 C 113.63 153.09 110.02 151.33 107.18 148.48 C 103.44 152.11 98.86 154.81 95.55 158.86 C 97.10 158.41 98.60 157.79 100.06 157.09 C 100.63 157.33 101.78 157.81 102.36 158.05 C 101.90 159.73 101.06 161.43 101.78 163.18 C 104.30 159.19 106.94 155.27 109.11 151.07 C 110.22 151.65 111.33 152.24 112.44 152.83 C 108.67 158.49 105.38 164.46 102.77 170.75 C 102.21 172.31 101.10 173.54 100.02 174.75 C 97.31 173.40 97.67 170.49 97.64 167.93 C 96.52 169.04 95.40 170.14 94.25 171.21 C 93.49 170.45 92.74 169.68 92.01 168.90 C 92.90 167.10 93.89 165.36 94.88 163.61 C 92.73 164.43 90.71 166.01 88.30 165.84 C 86.35 164.96 87.48 162.70 88.36 161.44 C 91.21 157.86 94.43 154.51 98.26 151.98 C 97.86 151.10 97.46 150.21 97.09 149.32 C 98.54 147.07 99.99 144.82 101.18 142.42 C 97.81 144.20 94.49 146.07 90.98 147.55 C 90.10 146.71 89.22 145.88 88.34 145.05 C 91.87 141.99 95.23 138.73 98.96 135.91 C 100.00 135.21 100.58 134.09 101.23 133.06 C 95.66 134.81 90.38 137.36 84.80 139.10 C 83.22 139.62 81.56 139.24 79.96 139.08 C 80.30 137.82 80.12 136.08 81.64 135.56 C 85.01 133.92 88.65 132.91 92.09 131.43 C 86.91 131.58 81.61 131.29 76.77 129.25 C 77.61 128.32 78.47 127.41 79.32 126.50 C 83.26 126.44 87.13 125.60 91.01 125.02 C 86.80 123.74 82.51 122.45 78.80 120.02 C 79.05 119.33 79.55 117.97 79.80 117.29 C 86.02 117.78 92.19 118.71 98.31 119.85 C 95.85 117.56 92.92 115.88 90.32 113.76 C 90.38 113.08 90.49 111.71 90.55 111.02 C 95.39 111.32 99.52 114.12 103.77 116.16 C 103.22 116.80 102.11 118.08 101.56 118.72 C 104.88 116.63 106.29 112.60 109.76 110.66 C 106.86 108.12 103.86 105.69 101.06 103.03 C 100.87 103.57 100.50 104.65 100.31 105.18 C 102.90 107.07 105.51 108.94 107.96 111.02 C 107.47 111.68 106.49 113.01 106.01 113.67 C 100.56 108.97 93.24 106.07 89.31 99.86 C 89.36 99.27 89.47 98.10 89.52 97.52 C 92.00 96.88 93.57 99.56 95.56 100.52 C 94.58 97.23 91.07 93.54 93.90 90.24 C 100.14 94.52 103.43 101.80 109.65 106.11 C 109.02 103.84 108.13 101.63 107.99 99.25 C 109.89 98.95 111.62 99.56 113.13 100.69 C 112.58 98.11 112.36 95.41 113.92 93.11 C 119.14 95.36 117.53 102.35 121.13 106.07 C 123.55 98.67 121.43 90.87 121.38 83.30 C 121.44 80.67 118.74 77.00 121.95 75.46 C 124.07 76.49 124.73 78.89 125.78 80.80 C 126.54 78.89 127.21 76.93 128.25 75.14 M 126.91 86.69 C 126.57 87.27 125.87 88.44 125.53 89.02 C 125.75 93.04 125.89 97.06 125.73 101.09 C 125.50 102.73 126.49 104.10 127.23 105.46 C 126.76 103.76 125.72 102.02 126.46 100.24 C 127.58 96.65 128.30 92.93 129.78 89.45 C 128.80 88.55 127.85 87.62 126.91 86.69 M 132.65 103.15 C 133.55 105.09 135.69 105.71 137.42 106.66 C 138.19 105.39 138.97 104.12 139.76 102.86 C 138.78 103.52 137.80 104.19 136.83 104.86 C 135.47 104.21 134.10 103.58 132.65 103.15 M 107.57 119.10 C 106.96 122.54 106.03 125.84 103.75 128.58 C 105.37 128.62 106.99 128.68 108.61 128.76 C 108.43 125.70 108.54 122.56 109.84 119.72 C 110.78 116.09 114.33 114.16 117.07 111.98 C 124.12 107.67 133.55 108.90 139.62 114.41 C 143.08 118.93 144.87 124.34 145.46 129.97 C 143.79 133.88 142.61 138.40 138.83 140.85 C 135.68 143.97 131.14 144.54 127.02 145.45 C 119.41 145.74 111.81 141.06 109.06 133.88 C 108.68 134.55 107.92 135.90 107.55 136.57 C 110.96 138.68 112.81 143.09 110.41 146.65 C 111.63 145.66 112.91 144.73 114.19 143.82 C 117.57 148.49 123.69 149.02 128.85 150.44 C 133.39 149.30 138.11 148.57 141.86 145.49 C 142.04 144.16 142.20 142.83 142.36 141.50 C 143.45 141.23 144.54 140.95 145.63 140.66 C 147.15 136.59 148.22 132.31 148.30 127.95 C 147.42 122.85 143.48 119.12 141.30 114.58 C 138.79 112.09 136.00 109.59 132.69 108.25 C 123.26 106.15 112.14 110.29 107.57 119.10 M 111.87 123.09 C 112.05 126.24 112.52 129.38 112.62 132.54 C 113.65 135.35 115.68 137.63 118.43 138.84 C 118.88 136.67 119.45 134.52 119.92 132.35 C 120.87 132.35 122.75 132.33 123.70 132.32 C 123.23 134.17 122.61 135.96 122.04 137.78 C 124.24 138.02 126.43 138.29 128.64 138.44 C 127.96 136.71 127.08 135.06 126.43 133.31 C 126.82 130.74 128.20 128.47 129.62 126.34 C 130.73 127.12 131.83 127.92 132.95 128.71 C 133.47 128.06 134.01 127.42 134.58 126.80 C 132.37 125.79 130.06 125.00 127.86 123.98 C 128.20 122.40 128.58 120.84 128.97 119.27 C 128.28 118.45 127.57 117.65 126.84 116.88 C 123.86 116.95 126.51 121.42 123.70 121.73 C 121.02 122.43 118.81 124.19 117.34 126.52 C 118.80 126.38 120.26 126.09 121.74 126.12 C 123.94 127.32 124.23 129.97 123.31 132.10 C 121.86 131.59 120.39 131.12 118.98 130.50 C 118.84 132.10 118.09 133.47 117.09 134.70 C 116.23 133.78 115.38 132.85 114.52 131.93 C 114.97 129.35 114.41 126.79 113.95 124.25 C 116.07 122.25 118.37 120.45 120.67 118.67 C 121.66 117.28 122.08 115.44 123.56 114.46 C 125.27 112.68 127.81 113.79 129.95 113.73 C 131.75 116.01 133.01 118.61 132.86 121.58 C 134.01 122.18 135.16 122.77 136.30 123.40 C 136.90 127.58 137.79 131.85 136.23 135.94 C 134.14 134.42 132.30 132.42 129.78 131.60 C 130.16 134.88 132.75 137.19 133.83 140.21 C 136.80 138.03 139.62 135.34 140.93 131.82 C 142.88 123.71 137.71 114.75 129.50 112.82 C 122.12 111.95 115.49 117.04 111.87 123.09 M 147.32 116.24 C 146.02 116.88 146.00 117.56 147.27 118.27 C 148.59 117.61 148.61 116.93 147.32 116.24 M 104.96 130.35 C 104.20 131.72 103.99 134.88 105.67 135.49 C 106.02 134.03 106.40 131.11 104.96 130.35 M 108.39 131.40 C 107.26 131.65 106.87 134.12 108.34 134.07 C 109.65 133.86 109.92 131.41 108.39 131.40 M 152.69 137.66 C 155.26 140.65 158.50 142.96 161.18 145.84 C 163.84 148.36 166.09 151.36 169.20 153.36 C 167.97 150.49 166.00 147.84 166.03 144.58 C 169.56 144.26 171.92 147.33 175.16 148.08 C 172.30 145.90 168.91 144.58 166.06 142.38 C 166.53 141.45 167.03 140.53 167.55 139.63 C 162.62 138.79 157.67 138.07 152.69 137.66 M 112.44 147.29 C 115.22 149.02 119.98 153.75 122.56 149.56 C 119.29 149.94 115.41 149.34 114.02 145.91 C 113.63 146.25 112.83 146.94 112.44 147.29 M 128.31 154.71 C 128.34 156.88 128.38 159.04 128.38 161.21 C 132.17 161.85 131.40 166.08 131.68 168.93 C 132.20 167.40 132.36 164.92 134.59 165.26 C 136.09 166.73 137.41 168.38 138.77 169.98 C 137.01 164.24 134.86 158.68 132.32 153.25 C 130.99 153.75 129.66 154.26 128.31 154.71 M 120.38 155.07 C 118.99 155.77 118.96 156.41 120.29 156.98 C 121.70 156.28 121.73 155.65 120.38 155.07 Z" />
<path fill="#ffffff" opacity="1.00" d=" M 148.12 103.18 C 148.77 103.84 148.77 103.84 148.12 103.18 Z" />
<path fill="#ffffff" opacity="1.00" d=" M 147.23 108.20 C 147.88 108.85 147.88 108.85 147.23 108.20 Z" />
<path fill="#ffffff" opacity="1.00" d=" M 34.04 139.47 C 41.49 135.25 48.75 130.71 55.98 126.14 C 56.39 126.91 57.19 128.43 57.60 129.19 C 53.97 132.77 49.31 134.96 45.33 138.03 C 54.00 136.13 62.11 132.28 70.65 129.85 C 71.13 130.45 72.07 131.63 72.54 132.22 C 69.28 135.10 65.01 136.16 60.93 137.31 C 65.49 137.59 70.83 137.56 74.22 141.09 C 73.70 141.47 72.66 142.22 72.14 142.60 C 68.09 142.09 64.16 140.47 60.01 140.83 C 55.92 141.08 51.78 139.76 47.77 141.00 C 51.27 144.18 55.92 145.49 59.72 148.21 C 60.22 149.04 60.67 149.89 61.09 150.77 C 60.53 151.09 59.41 151.72 58.85 152.04 C 51.98 148.56 45.44 144.23 38.08 141.87 C 34.96 142.54 33.53 146.56 30.12 146.40 C 26.93 144.85 26.86 141.20 29.08 138.78 C 30.74 138.97 32.38 139.31 34.04 139.47 Z" />
<path fill="#ffffff" opacity="1.00" d=" M 186.54 155.28 C 184.98 154.95 184.62 151.62 186.83 152.19 C 190.88 152.82 194.36 155.21 198.03 156.89 C 202.80 159.57 208.19 161.11 212.59 164.44 C 215.18 166.20 217.48 168.53 220.63 169.30 C 219.86 166.05 216.11 165.22 214.01 162.99 C 210.73 159.72 206.11 157.80 203.61 153.80 C 202.46 152.35 205.67 151.72 206.37 152.55 C 212.84 157.43 219.12 162.53 225.60 167.39 C 229.43 171.25 234.81 172.95 240.15 173.09 C 238.37 173.21 236.58 173.24 234.80 173.29 C 234.94 174.20 235.24 176.04 235.38 176.95 C 233.42 178.46 231.14 180.41 228.47 179.65 C 226.55 178.45 225.77 176.21 224.72 174.32 C 220.33 175.83 215.54 175.91 210.96 176.68 C 206.21 175.97 201.61 174.50 196.81 174.12 L 196.28 173.07 C 196.58 172.64 197.18 171.79 197.48 171.36 C 203.96 170.35 210.25 174.51 216.67 172.11 C 211.54 169.75 205.77 169.40 200.45 167.64 C 197.63 166.55 195.14 164.71 192.18 163.99 C 189.42 163.10 186.31 162.37 184.40 159.99 C 184.49 158.34 185.28 157.76 186.76 158.25 C 190.95 160.22 195.63 160.98 199.62 163.37 C 202.27 164.94 205.33 165.53 208.35 165.89 C 201.57 161.48 193.79 158.82 186.54 155.28 Z" />
<path fill="#ffffff" opacity="1.00" d=" M 80.03 177.99 C 82.27 174.71 84.17 170.55 88.05 168.98 C 88.29 170.57 89.16 172.33 88.12 173.84 C 86.27 177.51 83.98 180.97 81.34 184.12 C 85.61 181.05 90.06 178.21 94.80 175.90 C 95.39 176.96 95.98 178.02 96.56 179.09 C 90.38 182.99 84.22 186.97 78.40 191.42 C 76.41 192.85 75.02 194.90 73.67 196.92 C 78.33 195.64 82.76 193.29 87.67 193.15 C 88.23 194.07 88.75 195.01 89.22 195.98 C 82.33 198.17 75.21 199.75 68.50 202.49 C 66.38 203.51 66.44 205.87 66.35 207.88 C 65.31 209.42 63.95 210.70 62.70 212.06 C 60.18 211.65 56.88 211.29 56.62 208.08 C 57.53 204.95 61.12 204.99 63.28 203.28 C 65.72 195.53 66.51 187.46 67.85 179.49 C 68.41 179.10 69.52 178.33 70.08 177.94 C 70.42 178.71 71.09 180.24 71.43 181.00 C 71.40 186.08 70.46 191.10 69.37 196.04 C 73.24 190.21 77.17 184.39 80.03 177.99 Z" />
<path fill="#ffffff" opacity="1.00" d=" M 139.00 183.39 C 139.68 183.37 141.03 183.34 141.71 183.32 C 143.46 187.45 143.33 191.99 143.94 196.36 C 144.81 203.38 144.69 210.46 144.78 217.52 C 149.81 212.84 147.78 205.20 150.87 199.72 C 151.73 200.46 152.55 201.25 153.33 202.09 C 153.85 209.25 150.98 216.10 147.10 221.96 C 144.01 227.41 150.16 233.54 146.48 238.72 C 144.14 240.99 141.29 238.20 140.40 235.94 C 139.84 232.98 143.06 230.55 141.54 227.54 C 135.94 221.56 131.47 214.52 128.31 206.96 C 128.70 204.37 132.29 204.96 132.76 207.19 C 134.88 212.04 137.34 216.77 140.66 220.91 C 140.09 214.80 138.92 208.62 135.68 203.32 C 134.03 198.28 130.87 193.45 131.16 187.99 C 132.29 188.31 134.18 187.87 134.59 189.36 C 136.69 194.22 138.17 199.34 140.39 204.15 C 140.79 197.20 138.40 190.32 139.00 183.39 Z" />
</g>
</svg>
