<?xml version="1.0" encoding="UTF-8" ?>
<!DOCTYPE svg PUBLIC "-//W3C//DTD SVG 1.1//EN" "http://www.w3.org/Graphics/SVG/1.1/DTD/svg11.dtd">
<svg width="256pt" height="256pt" viewBox="0 0 256 256" version="1.1" xmlns="http://www.w3.org/2000/svg">
<g id="#ffffffff">
<path fill="#ffffff" opacity="1.00" d=" M 145.72 29.78 C 144.76 26.49 148.14 22.98 151.34 24.63 C 154.21 26.82 155.65 30.31 158.19 32.84 C 161.87 36.43 164.80 40.81 166.55 45.65 C 167.98 49.74 171.04 52.97 174.03 55.99 C 176.75 58.61 178.28 62.14 180.72 64.99 C 179.56 66.91 178.29 68.76 176.94 70.55 C 174.38 66.40 170.20 63.39 168.29 58.84 C 167.69 58.77 167.10 58.70 166.50 58.63 C 165.19 56.69 164.03 54.65 162.97 52.55 C 160.57 55.51 158.92 58.95 157.28 62.36 C 159.68 62.20 162.13 61.92 164.49 62.59 C 165.33 63.65 165.99 64.84 166.71 66.00 C 165.36 68.92 163.20 71.25 160.01 72.10 C 163.86 72.16 167.80 72.21 171.42 73.68 C 176.36 75.21 180.55 78.55 185.66 79.60 C 189.44 81.07 193.09 83.27 195.16 86.88 C 198.34 89.47 201.47 92.13 203.65 95.67 C 206.96 98.31 208.84 102.23 212.20 104.79 C 215.15 107.26 217.04 110.70 218.75 114.08 C 224.42 116.82 228.13 122.32 231.31 127.55 C 231.27 133.71 233.37 139.54 235.26 145.32 C 235.54 149.24 236.45 153.07 236.69 156.99 C 236.64 160.00 239.01 162.27 239.60 165.12 C 241.11 171.86 246.14 177.91 244.40 185.15 C 242.76 186.26 241.30 187.60 239.85 188.95 C 238.19 180.82 235.35 172.95 233.27 164.91 C 230.01 158.33 230.07 150.83 227.90 143.92 C 226.49 139.36 225.70 134.63 224.34 130.06 C 224.05 130.09 223.47 130.15 223.18 130.18 C 220.37 135.28 221.47 141.50 218.44 146.46 C 216.07 150.63 215.50 155.84 211.67 159.11 C 210.59 155.40 211.70 151.66 213.05 148.18 C 214.40 142.95 215.33 137.55 217.58 132.59 C 218.39 130.72 220.28 129.87 221.90 128.86 C 221.99 128.50 222.16 127.78 222.25 127.43 C 218.92 121.11 213.31 116.50 209.26 110.69 C 207.42 107.93 205.29 105.31 202.54 103.41 C 201.09 102.98 199.75 103.72 198.56 104.45 C 198.90 108.56 197.49 112.53 197.70 116.63 C 197.25 117.14 196.82 117.65 196.38 118.17 C 197.11 121.44 195.70 124.97 197.52 128.01 C 196.59 129.35 195.69 130.73 194.78 132.09 C 192.74 127.59 193.59 122.56 193.40 117.78 C 193.12 113.45 195.35 109.51 195.30 105.23 C 195.29 102.26 196.80 99.67 197.83 96.99 C 194.28 93.27 190.72 89.53 186.80 86.20 C 183.61 83.10 178.96 82.63 175.04 80.87 C 174.56 81.51 173.58 82.80 173.09 83.44 C 173.70 83.81 174.91 84.55 175.52 84.92 C 175.40 85.06 175.15 85.35 175.02 85.50 C 173.42 83.93 171.66 82.50 169.53 81.73 C 168.66 85.17 169.73 88.54 170.41 91.89 C 169.87 93.33 168.45 94.47 168.39 96.04 C 169.42 99.05 171.07 102.05 170.36 105.34 C 169.80 107.98 170.44 110.62 171.45 113.07 C 170.62 114.76 169.79 116.45 168.97 118.14 C 164.59 114.45 167.20 108.20 166.36 103.27 C 165.16 96.04 165.52 88.71 165.38 81.41 C 164.53 81.46 162.82 81.55 161.97 81.60 C 159.80 84.43 159.28 88.16 157.80 91.36 C 157.16 95.73 157.58 100.23 157.02 104.62 C 155.99 109.92 153.25 114.89 153.40 120.40 C 155.85 118.46 157.27 115.59 159.44 113.38 C 159.36 112.04 159.30 110.71 159.32 109.38 C 160.11 109.36 161.68 109.34 162.46 109.33 C 163.10 112.16 161.96 114.75 160.85 117.26 C 160.24 120.57 162.75 123.57 162.71 126.83 C 161.18 128.16 160.22 126.25 159.17 125.35 C 157.54 127.91 155.89 130.63 157.10 133.76 C 159.30 134.32 161.50 134.93 163.69 135.55 C 163.67 135.98 163.63 136.86 163.61 137.29 C 160.15 138.52 156.49 138.65 152.87 138.87 C 150.63 134.88 152.18 130.30 152.71 126.08 C 151.71 124.48 150.36 122.92 150.29 120.95 C 149.99 115.22 151.30 109.61 152.23 104.00 C 152.63 97.08 153.37 90.08 155.78 83.54 C 156.93 81.25 158.89 79.50 160.46 77.49 C 154.70 77.96 148.71 76.84 143.10 78.08 C 141.45 79.71 143.84 80.36 144.92 81.26 C 142.63 82.41 139.98 83.38 138.87 85.90 C 134.08 92.59 134.16 101.10 132.95 108.87 C 131.04 113.86 130.61 119.22 130.30 124.53 C 129.01 125.06 127.73 125.60 126.44 126.11 C 125.76 118.54 128.31 111.33 129.50 103.97 C 129.74 98.82 130.69 93.69 132.57 88.87 C 134.74 84.46 138.70 81.42 141.90 77.82 C 141.84 77.53 141.72 76.96 141.65 76.67 C 134.71 75.28 127.76 76.94 121.25 79.32 C 118.47 80.53 115.43 80.43 112.47 80.62 C 113.32 83.18 116.34 83.43 118.34 84.78 C 116.52 85.51 114.63 86.07 112.90 86.99 C 111.52 89.69 111.33 93.00 109.01 95.17 C 109.60 95.79 110.20 96.40 110.80 97.02 C 109.54 100.83 108.60 104.73 108.22 108.72 C 107.80 109.14 106.97 109.98 106.55 110.40 C 107.15 111.18 107.75 111.98 108.33 112.78 C 107.11 115.03 107.50 117.27 109.09 119.20 C 107.87 119.82 106.63 120.44 105.37 120.98 C 102.94 117.44 103.60 113.00 103.76 108.96 C 104.92 102.42 106.20 95.88 106.99 89.28 C 105.90 89.35 104.80 89.42 103.70 89.50 C 103.38 96.91 102.58 104.48 99.34 111.25 C 97.76 116.61 95.95 121.96 93.10 126.80 C 90.64 125.23 87.36 124.17 86.78 120.89 C 86.09 115.55 87.74 110.24 88.72 105.02 C 88.58 103.31 86.42 102.45 86.34 100.68 C 86.16 98.39 86.27 96.09 86.19 93.80 C 82.41 95.94 77.78 96.51 74.58 99.59 C 72.88 101.28 70.41 102.51 69.81 105.01 C 68.22 109.07 67.11 113.28 65.54 117.34 C 63.92 121.76 63.60 126.51 61.88 130.91 C 61.45 130.79 60.58 130.57 60.14 130.46 C 60.64 131.30 61.13 132.15 61.62 132.99 C 61.03 133.31 59.84 133.94 59.24 134.25 C 59.61 136.22 59.98 138.18 60.30 140.15 C 59.65 139.84 58.35 139.21 57.70 138.89 C 55.91 133.71 59.45 129.12 59.96 124.12 C 60.68 118.96 63.77 114.62 65.23 109.71 C 62.79 112.12 60.41 114.74 59.05 117.92 C 56.02 125.27 54.39 133.10 53.55 140.97 C 52.20 140.55 50.10 140.76 50.19 138.79 C 50.45 134.10 50.73 129.38 51.71 124.77 C 49.80 126.14 47.56 127.58 47.03 130.05 C 45.98 134.11 45.38 138.30 45.22 142.49 C 44.79 142.16 43.94 141.49 43.51 141.16 C 42.95 141.38 41.83 141.83 41.27 142.06 C 41.47 139.30 41.99 136.59 42.51 133.88 C 37.99 138.63 34.26 144.05 30.14 149.13 C 25.54 155.71 20.42 162.11 17.70 169.75 C 17.07 171.47 15.80 172.85 14.74 174.31 C 12.12 170.95 13.91 166.85 15.18 163.39 C 17.29 159.25 20.14 155.54 22.56 151.59 C 24.60 147.79 27.11 144.19 30.37 141.33 C 34.76 136.04 37.90 129.71 43.06 125.06 C 46.23 121.53 48.51 117.14 52.54 114.42 C 59.69 106.95 65.22 97.44 74.81 92.74 C 77.25 91.53 80.02 91.33 82.69 91.64 C 86.21 88.18 88.94 83.63 93.82 81.94 C 98.18 78.61 103.32 76.37 108.66 75.11 C 108.46 72.71 107.49 70.05 108.96 67.85 C 111.00 64.28 112.36 60.29 115.28 57.30 C 118.05 53.38 122.07 50.67 125.51 47.42 C 129.46 40.79 132.79 33.65 137.79 27.71 C 139.66 25.66 143.28 26.85 142.42 29.84 C 139.65 37.02 132.91 41.61 129.69 48.52 C 128.52 51.08 126.02 52.36 123.82 53.86 C 122.40 56.65 121.01 59.51 118.44 61.44 C 115.76 63.30 114.91 66.55 113.43 69.28 C 111.84 70.99 110.12 72.59 108.66 74.43 C 115.25 74.28 121.81 73.37 128.06 71.22 C 126.02 69.05 124.98 66.31 124.60 63.40 C 126.53 61.17 128.37 57.03 131.87 59.18 C 133.07 58.25 134.28 57.35 135.53 56.48 C 135.02 54.26 135.22 52.05 136.76 50.27 C 135.14 48.15 133.63 44.97 135.41 42.51 C 137.91 40.40 141.19 40.55 144.26 40.60 C 144.47 42.43 144.60 44.27 144.77 46.10 C 147.88 47.51 151.55 47.04 154.73 48.39 C 156.42 49.18 158.18 48.23 159.84 47.81 C 157.32 40.45 152.42 33.82 145.72 29.78 M 142.94 48.91 C 142.30 49.44 141.65 49.98 141.02 50.53 C 142.31 50.47 143.61 50.40 144.91 50.32 C 145.90 51.85 146.95 53.33 148.04 54.80 C 149.11 53.48 150.17 52.15 151.21 50.81 C 148.35 50.73 145.53 50.17 142.94 48.91 M 139.98 52.07 C 139.19 53.71 138.36 55.33 137.52 56.94 C 139.71 58.20 141.67 59.81 143.82 61.12 C 143.61 57.76 142.93 54.13 139.98 52.07 M 146.84 61.23 C 148.14 61.51 149.41 62.67 150.79 62.20 C 152.11 61.39 153.30 60.38 154.54 59.45 C 154.59 57.86 154.62 56.27 154.61 54.68 C 151.61 56.33 149.23 58.84 146.84 61.23 M 129.33 62.60 C 129.74 64.26 130.24 65.88 130.74 67.51 C 131.41 67.39 132.09 67.27 132.76 67.14 C 133.68 65.63 134.68 64.16 135.68 62.70 C 133.57 62.53 131.45 62.47 129.33 62.60 M 136.02 70.09 C 140.51 70.20 145.05 70.34 149.40 71.64 C 151.51 72.39 153.73 71.98 155.88 71.70 C 155.18 70.24 154.46 68.79 153.75 67.34 C 149.08 67.61 144.23 67.83 139.80 66.10 C 138.50 67.39 137.21 68.70 136.02 70.09 M 102.07 84.20 C 98.87 85.71 96.14 88.24 92.64 89.06 C 90.35 92.31 88.70 96.55 90.21 100.48 C 92.41 100.72 94.81 100.01 96.85 101.11 C 96.81 103.11 94.35 103.86 93.44 105.47 C 90.17 110.48 91.37 116.78 91.60 122.42 C 92.52 121.00 94.78 120.07 94.44 118.12 C 93.75 114.18 97.16 111.04 96.64 107.06 C 96.29 105.06 98.03 103.92 99.28 102.70 C 98.87 102.52 98.05 102.14 97.64 101.95 C 99.07 96.69 98.63 91.06 100.86 85.99 C 103.60 86.01 106.20 86.68 108.62 87.93 C 109.71 86.03 111.80 84.43 111.87 82.12 C 108.68 80.18 104.90 82.52 102.07 84.20 Z" />
<path fill="#ffffff" opacity="1.00" d=" M 119.57 88.28 C 120.89 84.80 124.84 84.08 127.73 82.41 C 127.90 84.99 125.38 86.25 124.36 88.33 C 123.13 90.23 123.17 92.61 122.54 94.73 C 122.08 94.86 121.17 95.12 120.72 95.25 C 122.90 98.92 121.53 103.64 120.58 107.55 C 119.20 111.77 119.04 116.25 119.68 120.62 C 118.71 120.66 116.76 120.74 115.79 120.78 C 117.17 121.08 118.58 121.27 119.99 121.49 C 118.47 123.31 116.76 125.03 114.50 125.90 C 113.43 123.25 114.09 120.50 114.52 117.81 C 115.12 111.38 117.67 105.20 117.34 98.67 C 117.10 95.02 119.11 91.82 119.57 88.28 Z" />
<path fill="#ffffff" opacity="1.00" d=" M 140.55 93.03 C 140.63 89.22 143.05 85.59 146.04 83.43 C 147.35 84.08 148.58 84.89 149.83 85.66 C 147.96 86.77 145.90 87.80 144.66 89.68 C 143.72 93.94 144.74 98.37 144.18 102.66 C 142.77 106.68 143.88 111.07 142.33 115.04 C 143.50 115.66 144.68 116.29 145.87 116.88 C 143.31 117.84 142.65 120.49 141.65 122.75 C 137.75 119.77 140.12 114.73 139.75 110.67 C 139.20 104.77 140.24 98.91 140.55 93.03 Z" />
<path fill="#ffffff" opacity="1.00" d=" M 176.72 88.11 C 177.40 86.67 178.23 85.30 179.04 83.92 C 180.73 87.58 180.67 91.58 179.61 95.42 C 181.07 93.43 181.64 91.05 182.08 88.67 C 184.01 90.98 185.81 93.40 187.51 95.88 C 186.57 95.78 184.70 95.58 183.77 95.48 C 181.60 103.45 182.00 112.47 185.96 119.82 C 184.53 119.67 183.10 119.52 181.67 119.44 C 181.50 119.98 181.15 121.06 180.97 121.61 C 183.54 121.04 186.15 121.35 187.77 123.64 C 185.95 125.03 184.82 126.96 184.15 129.13 C 182.69 126.89 181.34 124.57 179.70 122.46 C 179.47 126.85 180.95 133.02 175.80 135.15 C 175.47 131.75 174.13 128.38 174.92 124.95 C 175.45 120.89 177.55 117.19 177.74 113.06 C 177.80 104.74 177.32 96.41 176.72 88.11 Z" />
<path fill="#ffffff" opacity="1.00" d=" M 74.01 107.02 C 75.45 102.04 79.54 98.37 84.51 97.06 C 82.81 99.54 80.88 101.88 79.56 104.60 C 81.42 103.80 83.22 102.87 85.07 102.03 C 82.38 106.56 79.75 111.41 79.48 116.78 C 79.76 120.92 79.42 125.21 80.87 129.17 C 81.69 131.78 84.26 133.16 86.25 134.79 C 89.83 133.31 93.02 130.89 96.92 130.18 C 94.81 133.96 90.61 135.45 86.98 137.32 C 83.09 137.80 79.52 135.58 77.52 132.36 C 75.29 126.76 74.39 120.75 73.81 114.77 C 72.99 114.66 71.34 114.43 70.52 114.32 C 70.18 111.35 73.46 109.78 74.01 107.02 Z" />
<path fill="#ffffff" opacity="1.00" d=" M 202.61 122.10 C 204.28 118.78 205.59 115.19 208.05 112.36 C 208.62 112.47 209.75 112.71 210.32 112.82 C 211.18 115.47 209.03 117.63 208.25 120.00 C 206.65 124.71 205.25 129.58 205.25 134.60 C 205.37 136.29 204.08 137.57 203.30 138.94 C 203.94 139.46 204.58 139.99 205.21 140.52 C 204.61 140.89 203.39 141.63 202.78 142.00 C 203.44 144.05 205.33 146.35 202.97 148.05 C 199.61 143.60 201.21 138.03 201.23 132.95 C 201.23 129.28 202.22 125.72 202.61 122.10 Z" />
<path fill="#ffffff" opacity="1.00" d=" M 68.59 125.08 C 65.77 121.72 68.19 116.83 69.08 113.10 C 71.38 114.67 70.42 117.75 71.01 120.09 C 72.00 124.77 69.42 129.07 68.86 133.63 C 67.49 133.89 66.77 133.33 66.70 131.96 C 66.50 129.50 66.44 126.73 68.59 125.08 Z" />
<path fill="#ffffff" opacity="1.00" d=" M 115.38 140.22 C 116.75 139.26 118.57 138.18 120.27 138.86 C 120.62 140.45 120.34 142.08 120.31 143.69 C 123.81 148.15 127.98 152.02 131.75 156.23 C 133.30 157.62 132.61 159.78 132.51 161.57 C 128.98 162.15 125.21 161.75 123.14 158.48 C 125.53 166.52 127.08 175.06 126.35 183.45 C 127.30 184.27 128.28 185.09 129.06 186.09 C 128.52 187.80 127.43 189.27 126.50 190.79 C 122.17 190.63 117.85 190.42 113.62 189.43 C 116.82 191.72 121.16 190.79 124.77 191.86 C 127.66 193.30 125.85 196.61 124.49 198.48 C 123.15 199.15 121.69 197.94 120.36 197.65 C 116.38 198.22 112.32 197.15 108.94 195.06 C 108.26 193.73 107.82 192.30 107.29 190.91 C 107.71 190.39 108.55 189.34 108.97 188.81 C 108.67 187.41 108.40 186.00 108.16 184.59 C 113.30 183.00 118.73 183.80 124.02 183.86 C 121.96 175.57 120.49 167.04 120.20 158.50 C 119.36 158.52 117.67 158.58 116.83 158.61 C 117.53 158.47 118.95 158.20 119.66 158.06 C 119.04 155.14 118.34 152.23 117.47 149.37 C 116.54 149.47 115.61 149.57 114.68 149.68 C 113.28 151.27 111.72 152.71 110.41 154.38 C 109.06 163.28 109.06 172.32 110.41 181.23 C 109.90 181.46 108.89 181.92 108.38 182.15 C 107.15 180.94 105.76 179.93 104.24 179.13 C 105.02 178.83 105.80 178.54 106.58 178.25 C 106.40 171.87 106.36 165.49 106.43 159.11 C 104.00 161.42 101.76 163.93 99.80 166.65 C 98.17 166.79 96.64 167.41 95.04 167.69 C 94.32 164.10 93.43 160.56 92.47 157.04 C 93.67 160.23 94.29 163.59 95.14 166.88 C 97.89 166.57 97.41 164.56 97.43 162.49 C 102.94 154.71 108.26 146.65 115.38 140.22 Z" />
</g>
</svg>
