<?xml version="1.0" encoding="UTF-8" ?>
<!DOCTYPE svg PUBLIC "-//W3C//DTD SVG 1.1//EN" "http://www.w3.org/Graphics/SVG/1.1/DTD/svg11.dtd">
<svg width="256pt" height="128pt" viewBox="0 0 256 128" version="1.1" xmlns="http://www.w3.org/2000/svg">
<g id="#ffffffff">
<path fill="#ffffff" opacity="1.00" d=" M 90.71 17.71 C 92.44 16.01 94.30 14.45 96.20 12.93 C 97.79 16.77 96.54 21.16 94.69 24.68 C 90.65 31.57 83.80 36.35 80.01 43.42 C 91.87 34.79 104.01 25.92 113.02 14.13 C 115.97 16.94 114.89 21.20 113.67 24.56 C 110.60 33.39 102.01 38.76 98.44 47.32 C 102.46 46.66 106.43 45.57 110.23 44.11 C 112.81 39.83 116.03 34.63 121.78 34.84 C 122.99 36.89 123.58 39.79 121.55 41.56 C 119.15 44.25 114.05 43.95 113.08 47.84 C 118.27 47.35 123.08 45.02 127.64 42.65 C 131.53 40.63 134.14 36.98 136.38 33.34 C 130.00 32.72 123.57 32.94 117.18 32.53 C 114.93 32.71 115.75 30.08 115.74 28.76 C 123.84 29.29 132.10 31.11 140.11 29.00 C 142.83 26.32 144.34 22.66 147.01 19.92 C 149.67 23.57 145.50 26.70 144.23 29.98 C 148.41 29.50 152.67 29.22 156.82 30.05 C 158.31 30.40 158.70 32.07 159.45 33.18 C 153.54 34.36 147.41 32.63 141.48 33.60 C 140.35 33.99 139.61 34.99 138.85 35.85 C 135.70 39.74 132.12 43.76 131.75 49.01 C 136.53 48.04 141.29 46.24 144.97 42.95 C 147.10 41.03 148.35 38.01 151.18 36.94 C 153.16 36.06 155.92 38.67 154.73 40.63 C 152.84 44.67 145.99 44.82 146.13 49.96 C 151.12 49.70 155.60 47.13 160.06 45.11 C 163.50 43.19 167.61 42.27 170.25 39.15 C 173.98 42.73 179.34 41.51 183.98 41.57 C 186.07 41.35 186.69 43.61 187.60 44.99 C 185.78 47.83 183.22 50.59 183.49 54.22 C 187.66 53.88 191.99 52.97 195.46 50.51 C 197.67 49.02 196.75 46.24 196.52 44.08 C 197.13 43.75 198.36 43.09 198.97 42.77 C 202.11 46.22 199.76 51.08 196.70 53.69 C 193.37 56.22 189.22 57.59 185.08 57.99 C 182.75 58.30 180.57 56.28 180.52 53.97 C 180.49 50.73 182.38 47.94 183.53 45.03 C 180.63 44.82 177.72 44.69 174.83 44.40 C 172.68 49.30 167.41 53.78 161.90 53.21 C 162.38 50.99 163.07 48.84 163.66 46.65 C 158.11 49.12 152.89 52.64 146.87 53.82 C 143.93 54.55 142.99 51.15 142.14 49.08 C 138.48 50.81 134.64 52.97 130.46 52.66 C 127.29 51.39 128.95 47.65 129.05 45.15 C 124.38 47.99 119.30 50.22 114.00 51.55 C 111.56 51.53 110.82 48.89 109.76 47.18 C 105.12 48.66 100.50 51.32 95.47 50.46 C 94.97 47.13 96.25 43.87 98.24 41.25 C 102.00 36.36 106.14 31.78 109.79 26.80 C 111.39 24.63 111.99 21.93 112.34 19.31 C 109.67 20.92 107.86 23.52 105.66 25.66 C 98.71 32.80 90.66 38.71 83.11 45.17 C 80.59 47.20 78.12 49.60 74.84 50.29 C 74.58 44.89 78.43 40.55 81.38 36.42 C 86.02 30.26 93.52 25.33 94.51 17.15 C 89.81 19.72 86.07 23.66 81.55 26.52 C 73.27 31.74 66.35 38.79 58.13 44.10 C 51.11 48.77 43.75 54.37 34.97 54.57 C 30.60 54.71 29.06 49.50 29.55 45.96 C 30.55 39.85 35.76 35.87 40.44 32.45 C 44.49 29.74 48.49 26.23 53.64 26.17 C 57.82 31.90 52.65 38.60 49.02 43.14 C 48.58 38.07 53.66 34.68 53.46 29.58 C 48.64 29.01 44.60 32.30 40.92 34.92 C 37.29 38.01 32.81 41.08 31.82 46.06 C 31.41 48.24 32.24 51.64 35.04 51.45 C 43.99 51.01 51.54 45.50 58.87 40.91 C 64.25 37.76 68.89 33.56 74.00 30.01 C 79.53 25.85 85.78 22.63 90.71 17.71 M 115.41 41.89 C 117.73 41.33 119.93 40.16 120.60 37.69 C 118.57 38.65 116.41 39.74 115.41 41.89 M 170.44 44.10 C 169.24 44.72 167.48 46.13 167.88 47.63 C 169.25 47.94 172.15 44.90 170.44 44.10 Z" />
<path fill="#ffffff" opacity="1.00" d=" M 109.67 83.66 C 114.58 76.48 119.67 69.30 123.23 61.34 C 125.41 62.06 125.25 64.61 124.19 66.21 C 120.45 73.15 115.89 79.61 111.69 86.28 C 114.47 86.43 117.24 86.15 119.99 85.73 C 121.96 86.36 123.80 88.01 125.98 87.14 C 129.84 86.17 133.84 86.61 137.71 87.22 C 140.08 89.36 137.78 92.38 137.46 94.88 C 140.86 92.93 144.11 90.74 147.29 88.44 C 149.76 92.08 145.15 94.87 144.76 98.43 C 153.71 97.21 161.56 92.05 169.32 87.75 C 172.41 91.09 169.51 95.01 168.25 98.42 C 170.90 98.16 174.83 99.21 176.17 96.16 C 177.71 93.16 180.79 91.43 183.93 90.53 C 185.99 91.07 186.06 94.02 185.87 95.79 C 184.57 99.67 179.69 99.93 176.74 102.03 C 178.93 103.57 181.62 102.93 184.10 102.81 C 189.52 102.38 195.08 100.76 198.96 96.77 C 199.51 98.86 200.03 101.53 197.68 102.73 C 191.20 106.73 183.01 107.75 175.60 106.47 C 175.07 105.01 174.56 103.55 174.01 102.11 C 171.18 102.32 168.33 102.43 165.52 102.85 C 163.03 103.34 160.93 106.01 158.24 105.11 C 156.87 103.21 157.59 100.64 157.26 98.45 C 152.35 100.33 147.49 103.04 142.08 102.91 C 141.74 100.95 141.56 98.97 141.39 96.99 C 138.23 98.91 135.59 102.07 131.72 102.48 C 130.34 97.71 134.44 94.26 135.67 90.04 C 131.46 90.12 127.25 90.23 123.05 90.44 C 123.19 93.11 124.16 96.08 122.60 98.53 C 121.06 101.28 117.92 102.60 115.00 103.32 C 113.29 98.85 115.47 94.31 116.87 90.09 C 114.02 90.39 111.01 90.15 108.33 91.27 C 104.81 95.93 102.44 101.32 99.31 106.23 C 98.82 106.55 97.85 107.18 97.37 107.50 C 98.02 101.32 102.04 96.49 104.36 90.95 C 99.26 90.75 94.17 90.50 89.11 89.88 C 84.19 95.57 79.98 101.86 76.64 108.60 C 76.18 110.58 73.37 110.02 73.56 108.02 C 76.31 101.47 80.32 95.57 84.44 89.82 C 77.56 88.89 70.38 90.08 64.12 93.07 C 64.40 94.55 64.71 96.03 64.94 97.52 C 62.06 96.01 60.72 91.79 63.52 89.52 C 70.56 85.54 79.03 85.22 86.90 86.05 C 91.03 79.89 94.56 73.34 97.67 66.62 C 91.33 67.57 84.85 66.81 78.54 67.67 C 78.27 67.95 77.73 68.51 77.47 68.79 C 80.08 70.16 83.53 70.96 84.40 74.21 C 80.67 74.99 76.92 73.13 74.43 70.44 C 73.18 69.40 73.92 67.79 74.49 66.62 C 76.95 64.09 80.79 64.59 84.00 64.54 C 89.11 64.84 94.17 64.03 99.22 63.44 C 100.51 63.04 101.36 64.21 102.27 64.86 C 100.66 67.79 99.07 70.75 97.84 73.87 C 96.21 78.18 93.10 81.72 91.38 85.99 C 95.55 86.73 99.81 86.84 104.04 87.00 C 106.45 87.15 108.52 85.68 109.67 83.66 M 117.11 98.30 C 120.11 97.49 123.42 93.86 120.17 91.22 C 118.74 93.38 117.60 95.74 117.11 98.30 M 160.94 97.94 C 161.71 98.04 163.24 98.23 164.01 98.33 C 165.02 96.81 165.97 95.25 166.79 93.61 C 164.72 94.74 161.37 95.17 160.94 97.94 Z" />
</g>
</svg>
