<?xml version="1.0" encoding="UTF-8" ?>
<!DOCTYPE svg PUBLIC "-//W3C//DTD SVG 1.1//EN" "http://www.w3.org/Graphics/SVG/1.1/DTD/svg11.dtd">
<svg width="256pt" height="256pt" viewBox="0 0 256 256" version="1.1" xmlns="http://www.w3.org/2000/svg">
<g id="#ffffffff">
<path fill="#ffffff" opacity="1.00" d=" M 159.22 79.88 C 161.86 78.90 164.49 77.07 167.44 77.57 C 169.10 78.52 170.40 79.97 171.46 81.56 C 172.90 81.73 174.71 82.13 174.59 83.99 C 173.17 87.25 171.33 90.33 170.29 93.77 C 173.93 92.93 177.28 91.21 180.24 88.96 C 180.31 86.64 177.80 85.03 176.87 82.96 C 181.43 83.10 183.69 89.23 182.52 93.13 C 183.18 94.09 183.85 95.04 184.54 95.98 C 184.23 99.27 183.10 102.37 180.74 104.74 C 179.20 104.80 177.67 104.79 176.13 104.88 C 172.63 108.16 170.45 112.58 167.18 116.09 C 167.76 115.98 168.92 115.76 169.50 115.65 C 172.15 112.51 174.26 108.38 178.10 106.63 L 179.10 106.84 L 179.48 107.83 C 177.90 110.42 175.46 112.31 173.61 114.68 C 177.60 112.77 181.95 111.26 184.95 107.83 C 186.80 108.99 188.77 109.97 190.85 110.68 C 190.18 111.77 189.49 112.84 188.82 113.93 C 189.35 114.09 190.42 114.42 190.95 114.59 C 190.22 114.53 188.76 114.42 188.03 114.37 C 183.90 116.67 179.98 119.38 176.03 122.00 C 182.11 122.58 187.87 124.91 193.95 125.59 C 196.50 125.67 198.70 127.15 201.19 127.53 C 206.40 128.30 211.68 128.49 216.93 128.18 C 219.50 128.02 221.77 130.12 224.34 129.38 C 229.14 128.92 234.83 128.91 238.56 132.46 C 240.08 133.85 242.14 134.41 243.96 135.31 C 241.19 135.83 238.51 136.71 235.68 136.89 C 235.70 137.59 235.73 138.98 235.74 139.68 C 231.97 139.45 227.99 140.15 224.45 138.48 C 220.00 136.15 214.88 136.15 210.12 134.83 C 200.22 133.26 190.04 133.30 180.33 130.61 C 178.42 130.42 176.95 127.74 179.02 126.61 C 181.94 126.96 184.56 128.42 187.35 129.23 C 191.59 129.86 195.94 129.52 200.14 130.51 C 194.96 128.01 189.07 128.32 183.74 126.39 C 179.29 124.95 174.48 125.90 170.11 124.22 C 170.89 122.19 171.63 119.62 173.97 118.90 C 178.42 117.05 182.82 114.74 186.31 111.34 C 182.49 113.42 178.58 115.31 174.43 116.62 C 171.47 117.43 169.81 120.24 169.07 123.02 C 170.99 125.58 172.79 128.43 175.36 130.40 C 173.44 130.81 172.79 132.99 171.57 134.29 C 175.66 134.17 179.77 134.80 183.39 136.79 C 187.18 137.93 189.41 141.55 193.03 143.05 C 198.53 145.46 205.07 147.18 208.75 152.24 C 208.59 154.51 205.55 153.74 204.55 152.58 C 198.66 147.90 190.46 147.31 184.99 141.99 C 183.19 140.40 182.12 137.73 179.46 137.42 C 177.24 136.41 175.07 137.82 173.01 138.54 C 169.59 137.00 167.25 133.94 164.31 131.72 C 162.92 130.55 160.85 129.27 161.11 127.17 C 161.81 124.93 164.10 123.96 165.78 122.59 C 166.95 121.36 166.54 119.49 166.68 117.97 C 163.80 120.44 162.47 125.88 157.87 125.33 C 161.26 120.22 164.43 114.99 168.38 110.30 C 161.19 111.42 154.05 109.54 147.63 106.33 C 146.22 105.30 147.51 103.29 147.69 101.92 C 149.87 102.60 152.08 103.22 154.34 103.57 C 156.11 106.72 159.97 106.59 163.12 106.92 C 165.67 106.76 168.49 106.71 170.57 105.01 C 166.79 104.21 162.61 105.81 159.12 103.83 C 157.79 103.20 156.49 102.52 155.16 101.89 C 154.87 100.67 154.57 99.45 154.24 98.23 C 153.19 99.55 152.87 101.74 151.01 102.20 C 147.96 100.49 149.91 95.84 149.14 92.91 C 146.32 93.91 148.03 97.52 146.60 99.60 C 145.63 98.27 144.93 96.69 143.56 95.71 C 142.77 97.56 144.31 102.22 141.21 101.70 C 140.18 99.77 140.27 97.25 138.59 95.71 C 138.11 97.96 139.41 101.18 137.11 102.66 C 135.99 101.18 133.87 99.31 135.01 97.29 C 136.08 95.27 136.38 92.99 136.56 90.74 C 138.21 91.63 139.68 92.81 141.03 94.11 C 141.43 92.79 141.82 91.47 142.20 90.15 C 143.02 90.70 143.84 91.26 144.67 91.82 C 145.05 90.58 145.46 89.35 145.89 88.12 C 147.10 89.27 148.28 90.46 149.46 91.65 C 150.14 89.97 150.82 88.28 151.52 86.60 C 150.66 86.68 148.95 86.83 148.10 86.91 C 148.16 85.59 148.19 84.28 148.19 82.96 C 151.60 82.10 155.35 81.16 157.29 77.91 C 157.93 78.56 158.58 79.22 159.22 79.88 M 162.30 82.02 C 163.15 86.49 159.31 89.71 157.66 93.46 C 157.39 95.21 156.24 98.20 159.01 98.24 C 158.80 98.99 158.58 99.74 158.38 100.49 C 161.71 100.92 165.09 100.95 168.37 100.17 C 168.36 100.80 168.33 102.05 168.32 102.68 C 168.72 102.22 169.52 101.30 169.92 100.84 C 170.70 101.93 171.48 103.03 172.24 104.14 C 175.08 102.27 174.81 99.01 174.72 96.00 C 172.00 96.91 169.45 98.85 166.45 98.48 C 165.19 98.12 164.24 98.93 163.61 99.93 C 162.20 102.28 160.85 99.40 160.84 97.92 C 162.00 92.38 163.31 86.80 166.20 81.86 C 166.66 81.86 167.58 81.86 168.04 81.87 C 168.31 86.83 164.84 91.15 164.36 96.10 C 165.59 95.20 167.52 94.61 167.40 92.75 C 167.65 89.53 169.54 86.86 170.80 84.00 C 169.77 80.15 165.15 81.70 162.30 82.02 M 154.69 85.63 C 153.89 88.39 152.76 91.07 152.19 93.90 C 152.45 95.03 153.53 95.58 154.39 96.23 C 154.85 91.21 156.86 86.23 160.05 82.32 C 158.38 83.60 156.55 84.64 154.69 85.63 M 177.56 94.02 C 177.45 96.91 177.74 99.79 178.61 102.56 C 180.93 102.46 180.37 99.06 181.06 97.44 C 180.55 97.53 179.53 97.71 179.01 97.80 C 178.54 96.53 178.07 95.27 177.56 94.02 M 164.71 126.68 C 165.35 129.20 167.97 130.27 170.06 131.38 C 169.49 128.80 167.25 127.05 164.71 126.68 M 209.81 131.53 C 212.61 133.59 216.30 132.40 219.41 133.65 C 223.29 134.41 227.36 137.05 231.25 134.94 C 232.96 134.14 235.33 135.07 236.52 133.27 C 227.56 133.57 218.77 130.81 209.81 131.53 Z" />
<path fill="#ffffff" opacity="1.00" d=" M 93.54 82.47 C 95.06 80.71 96.65 78.44 99.20 78.30 C 102.45 78.05 105.71 79.08 108.64 80.41 C 111.78 81.85 113.15 85.23 115.78 87.28 C 116.99 88.10 117.23 89.61 117.64 90.91 C 116.80 91.60 115.90 92.22 115.02 92.87 C 115.75 93.89 116.48 94.91 117.20 95.95 C 114.13 97.18 112.42 100.11 109.69 101.80 C 109.45 102.80 109.21 103.80 108.96 104.80 C 112.29 108.03 116.89 108.55 121.31 108.68 C 121.44 110.30 121.51 111.93 121.53 113.56 C 118.07 113.02 114.66 112.11 111.48 110.64 C 108.61 108.42 106.98 104.79 103.43 103.47 C 100.62 102.32 97.91 99.33 98.74 96.11 C 99.19 93.54 100.75 91.33 101.89 89.03 C 105.23 91.04 105.68 95.13 107.63 98.19 C 107.58 96.81 107.50 95.42 107.39 94.04 C 108.75 92.27 112.36 90.84 111.11 88.19 C 110.07 82.69 103.37 82.82 99.00 82.56 C 99.51 83.66 100.02 84.76 100.53 85.86 C 99.85 85.69 98.49 85.36 97.81 85.19 C 96.25 89.10 96.18 93.46 96.46 97.60 C 96.44 99.93 101.68 101.54 98.99 103.51 C 96.06 102.14 92.39 99.87 93.19 96.07 C 93.84 91.54 93.06 86.99 93.54 82.47 M 102.29 94.45 C 101.39 95.72 101.96 99.08 103.85 98.74 C 104.38 97.51 103.89 94.36 102.29 94.45 Z" />
<path fill="#ffffff" opacity="1.00" d=" M 202.39 94.02 C 198.45 91.85 202.69 88.07 204.95 86.49 C 206.86 87.36 208.67 88.90 210.92 88.56 C 216.34 87.97 221.49 90.45 226.91 90.27 C 229.11 89.94 230.19 92.17 231.27 93.67 C 232.47 95.72 233.98 97.67 234.58 100.00 C 233.18 108.53 226.34 115.69 218.10 118.05 C 212.74 119.80 208.43 113.89 203.09 115.48 C 201.06 115.99 201.07 113.55 201.15 112.23 C 202.85 111.93 204.58 111.77 206.30 111.60 C 205.28 109.88 203.08 109.80 201.42 109.04 C 202.33 106.86 204.78 107.05 206.72 106.73 L 206.74 106.20 C 204.77 105.98 202.79 105.79 200.82 105.55 C 200.37 106.59 199.93 107.62 199.48 108.65 C 197.39 109.06 195.36 110.24 193.22 110.04 C 191.53 108.71 191.97 106.03 191.16 104.16 C 189.65 105.04 188.84 106.58 187.91 107.99 C 186.03 106.55 186.30 104.05 185.91 101.98 C 185.68 98.90 185.01 95.90 184.18 92.94 C 184.94 92.53 186.48 91.72 187.24 91.31 C 188.39 93.73 188.58 96.40 188.85 99.02 C 191.59 98.41 196.81 99.22 196.88 95.17 C 195.91 93.53 194.89 91.92 193.96 90.25 C 194.93 91.60 195.82 93.04 197.12 94.11 C 198.47 94.25 200.04 92.42 200.95 94.15 C 199.85 99.03 195.32 102.59 195.10 107.86 C 195.54 107.81 196.42 107.70 196.86 107.65 C 198.38 103.35 200.30 99.23 201.95 94.99 C 202.57 94.87 203.79 94.61 204.40 94.49 C 204.61 93.16 204.79 91.84 204.96 90.52 C 204.00 91.60 203.19 92.81 202.39 94.02 M 210.26 94.94 C 210.79 95.18 211.85 95.66 212.38 95.91 C 211.47 96.88 210.14 97.63 209.86 99.03 C 210.17 100.87 210.81 102.63 211.30 104.44 C 213.45 104.52 215.60 104.92 216.58 107.09 C 214.71 108.06 212.75 108.87 210.94 109.94 C 210.25 111.08 210.24 112.46 209.95 113.73 C 211.62 114.30 213.27 114.93 214.99 115.31 C 220.78 114.51 225.85 110.67 228.19 105.30 C 227.51 105.31 226.16 105.34 225.48 105.35 C 224.92 107.02 224.09 111.58 221.68 109.00 C 222.61 105.83 223.51 102.65 224.05 99.38 C 225.47 99.91 226.86 100.48 228.28 101.01 C 228.60 98.81 228.58 96.59 227.78 94.49 C 225.59 94.72 223.41 95.39 221.21 95.12 C 220.23 94.33 219.39 93.39 218.54 92.47 C 216.24 92.42 213.97 92.08 211.76 91.48 C 211.31 92.66 210.79 93.80 210.26 94.94 M 189.30 101.36 C 189.35 101.76 189.45 102.54 189.50 102.94 C 191.41 102.77 193.11 102.02 194.39 100.57 C 192.69 100.84 191.00 101.12 189.30 101.36 M 202.46 101.01 C 201.38 102.39 203.66 104.25 204.67 102.69 C 205.88 101.27 203.47 99.32 202.46 101.01 Z" />
<path fill="#ffffff" opacity="1.00" d=" M 120.38 95.31 C 121.88 94.04 122.60 91.55 124.92 91.54 C 126.47 91.99 126.97 93.75 127.91 94.89 C 127.10 96.84 126.43 98.85 126.03 100.93 C 129.31 104.29 132.50 107.77 134.95 111.81 C 132.65 111.06 130.21 110.25 127.76 110.78 C 126.76 112.05 128.43 112.89 129.08 113.83 C 132.43 116.98 133.81 121.71 137.49 124.55 C 139.51 126.26 140.59 128.76 142.33 130.71 C 145.14 134.17 149.57 136.20 151.25 140.54 C 153.16 142.75 153.25 145.96 151.11 148.05 C 149.57 151.50 144.58 151.09 143.11 147.79 C 145.40 147.07 148.25 146.93 149.49 144.52 C 151.02 142.49 147.77 141.32 146.33 140.63 C 143.84 139.35 141.21 141.57 140.74 144.01 C 141.93 144.17 143.12 144.35 144.31 144.54 C 141.11 146.73 139.89 150.34 138.65 153.81 C 138.23 154.01 137.40 154.43 136.98 154.64 C 130.41 153.75 123.43 152.42 117.03 154.88 C 110.62 157.10 103.76 157.82 97.00 157.75 C 91.55 157.64 86.26 159.15 80.91 159.94 C 74.36 157.53 68.09 162.29 61.44 161.35 C 59.65 162.93 57.76 164.37 55.86 165.83 C 54.94 165.60 54.01 165.40 53.07 165.23 C 51.61 166.23 50.95 168.01 49.91 169.39 C 48.17 168.10 45.96 167.11 45.16 164.95 C 45.51 163.20 46.89 161.98 48.00 160.69 C 45.85 160.54 43.18 159.58 42.95 157.10 C 44.86 154.35 48.03 152.42 51.40 152.26 C 54.79 152.03 57.47 149.05 60.97 149.62 C 64.37 150.28 68.49 149.59 70.94 152.56 C 71.49 152.22 72.60 151.54 73.16 151.19 C 72.56 152.11 72.15 153.08 71.92 154.12 C 73.30 154.17 74.68 153.83 76.07 153.11 C 76.33 154.36 76.82 155.49 77.55 156.52 C 77.27 155.76 76.70 154.23 76.41 153.46 C 79.01 152.59 81.79 152.87 84.44 152.26 C 85.89 151.46 87.03 152.42 87.36 153.88 C 87.89 153.10 88.43 152.33 88.97 151.56 C 92.07 153.44 95.01 150.87 98.15 150.42 C 98.39 151.00 98.87 152.17 99.11 152.76 C 97.46 152.75 95.72 152.71 94.56 154.12 C 102.73 154.40 110.80 152.60 118.54 150.12 C 118.55 150.04 118.58 149.88 118.59 149.80 C 117.87 149.73 116.43 149.59 115.70 149.52 C 114.62 147.23 118.16 147.26 119.46 146.51 C 121.56 143.55 125.24 141.34 128.96 141.54 C 131.49 142.27 133.79 144.11 136.56 143.56 C 136.59 138.11 131.62 134.10 131.80 128.78 C 136.44 129.62 136.93 135.21 138.89 138.67 C 139.97 138.01 141.06 137.36 142.15 136.71 C 136.50 127.64 124.69 123.99 120.87 113.51 C 124.65 113.68 126.00 118.14 128.65 120.31 C 127.16 117.49 125.33 114.88 123.27 112.45 C 121.97 111.31 122.46 109.59 122.53 108.11 C 124.75 108.90 126.84 107.99 128.88 107.14 C 125.39 106.27 121.56 106.56 118.45 104.52 C 118.69 109.18 113.82 104.01 113.90 101.71 C 115.87 101.53 117.85 101.40 119.83 101.38 C 118.84 99.80 117.67 98.34 116.47 96.92 C 117.77 96.39 119.10 95.92 120.38 95.31 M 130.34 147.05 C 130.17 150.44 133.34 145.69 130.34 147.05 M 132.04 150.45 C 133.36 150.48 134.69 150.52 136.01 150.57 C 135.32 149.31 134.62 148.07 133.94 146.82 C 133.29 148.02 132.66 149.23 132.04 150.45 M 119.86 149.79 C 122.33 149.71 125.11 150.01 127.14 148.30 C 124.66 148.50 122.16 148.80 119.86 149.79 M 54.41 155.56 C 53.12 156.05 51.40 156.25 51.11 157.89 C 53.93 157.21 56.61 156.07 59.19 154.76 C 59.80 155.47 60.42 156.18 61.04 156.90 C 64.26 155.53 68.17 155.75 71.13 154.13 C 65.58 152.67 59.77 153.88 54.41 155.56 Z" />
<path fill="#ffffff" opacity="1.00" d=" M 129.99 91.67 C 131.62 92.38 132.85 93.66 134.14 94.85 C 131.91 96.94 132.38 100.02 132.01 102.76 C 131.43 102.64 130.27 102.40 129.70 102.28 C 127.93 98.84 129.62 95.22 129.99 91.67 Z" />
<path fill="#ffffff" opacity="1.00" d=" M 80.51 98.96 C 83.21 95.83 88.05 98.12 91.61 98.28 C 91.75 99.09 92.03 100.71 92.17 101.52 C 90.02 100.47 87.67 100.03 85.36 99.51 C 86.44 103.70 81.78 100.45 80.51 98.96 Z" />
<path fill="#ffffff" opacity="1.00" d=" M 213.41 101.00 C 214.98 98.22 219.02 97.38 221.10 100.09 C 220.03 101.75 219.03 103.67 217.05 104.38 C 215.50 103.78 213.01 103.20 213.41 101.00 Z" />
<path fill="#ffffff" opacity="1.00" d=" M 92.35 101.16 C 94.85 100.81 96.39 102.94 97.05 105.07 C 99.77 113.31 103.55 121.25 108.77 128.21 C 110.26 131.89 115.77 133.33 114.35 138.07 C 109.96 138.85 105.46 139.39 101.34 141.22 C 98.72 142.82 96.65 145.17 94.05 146.80 C 90.33 146.02 87.73 142.89 84.00 142.13 C 80.85 140.82 77.64 139.71 74.43 138.54 C 66.00 134.34 56.03 134.83 47.70 130.37 C 42.29 127.82 35.69 128.05 30.93 124.11 C 26.79 121.90 25.22 117.04 21.26 114.52 C 19.22 117.12 18.24 120.22 17.38 123.35 C 15.71 125.72 13.60 129.68 10.13 128.14 C 8.73 127.96 8.98 125.91 9.98 125.37 C 8.98 122.68 9.83 119.72 9.77 116.92 C 9.85 113.43 12.30 110.82 14.20 108.14 C 15.38 108.27 16.57 108.41 17.76 108.54 C 18.25 107.42 18.76 106.30 19.30 105.20 C 23.59 104.37 29.22 104.03 32.21 107.79 C 34.35 110.67 31.22 113.18 29.19 114.93 C 31.04 114.32 32.84 113.28 34.83 113.24 C 39.39 116.41 44.56 118.94 50.12 119.71 C 53.80 120.45 57.77 120.03 61.20 121.80 C 65.14 123.91 69.28 125.63 73.17 127.84 C 77.90 131.02 84.07 130.24 88.91 133.15 C 91.97 135.38 96.05 134.11 99.17 136.37 C 99.77 135.60 100.38 134.83 100.99 134.06 C 96.66 126.76 94.31 118.45 89.72 111.28 C 88.61 108.86 86.23 106.55 86.81 103.73 C 87.66 103.61 89.35 103.37 90.20 103.25 C 90.27 104.07 90.40 105.72 90.46 106.54 C 93.36 111.39 96.49 116.14 98.77 121.32 C 99.77 124.39 102.31 126.62 103.25 129.73 C 104.19 133.15 107.52 135.35 110.92 135.78 C 110.10 135.10 109.26 134.45 108.42 133.80 C 106.25 129.67 102.57 126.57 100.63 122.31 C 97.20 115.55 94.65 108.37 92.35 101.16 M 18.56 108.46 C 14.72 112.70 12.75 118.24 13.12 123.96 C 13.58 123.67 14.49 123.08 14.95 122.79 C 14.32 119.80 14.74 116.65 17.37 114.77 C 17.41 113.55 17.03 112.05 18.28 111.29 C 21.10 111.28 23.60 112.96 26.11 114.06 C 27.06 112.55 28.79 111.06 28.35 109.10 C 25.27 107.68 21.82 108.32 18.56 108.46 M 29.72 117.70 C 32.45 123.36 39.38 123.78 44.68 125.48 C 52.26 128.23 59.87 131.02 67.86 132.38 C 73.93 134.30 79.88 136.66 85.67 139.32 C 88.12 140.05 90.49 141.03 92.30 142.90 C 93.62 142.27 94.92 141.61 96.22 140.94 C 91.07 139.21 86.51 135.87 81.05 135.05 C 77.81 134.08 74.50 133.12 71.43 131.74 C 65.68 126.04 57.16 125.41 49.75 123.33 C 46.98 122.33 44.03 122.88 41.17 122.63 C 36.70 122.06 34.64 116.00 29.72 117.70 Z" />
<path fill="#ffffff" opacity="1.00" d=" M 210.47 112.01 C 211.52 109.17 214.88 107.84 217.54 109.33 C 217.77 110.01 218.24 111.37 218.47 112.05 C 217.53 113.52 215.50 113.73 214.01 114.41 C 212.75 113.72 211.62 112.84 210.47 112.01 Z" />
<path fill="#ffffff" opacity="1.00" d=" M 107.90 143.27 C 111.49 143.41 116.65 142.02 119.00 145.36 C 115.59 145.25 112.18 145.40 108.77 145.37 C 108.56 144.84 108.12 143.79 107.90 143.27 Z" />
<path fill="#ffffff" opacity="1.00" d=" M 187.27 149.07 C 188.17 148.32 189.11 147.61 190.07 146.95 C 196.24 149.87 203.27 152.35 207.50 157.99 C 206.90 158.34 205.69 159.05 205.09 159.40 C 202.69 158.01 200.62 156.11 198.18 154.80 C 194.61 152.75 190.47 151.76 187.27 149.07 Z" />
<path fill="#ffffff" opacity="1.00" d=" M 211.38 152.52 C 216.51 151.83 222.23 154.32 225.18 158.57 C 223.84 158.66 222.51 158.74 221.17 158.83 C 221.14 159.72 221.07 161.52 221.03 162.41 C 216.67 160.30 212.13 158.63 207.68 156.74 C 208.51 155.04 209.00 152.50 211.38 152.52 Z" />
<path fill="#ffffff" opacity="1.00" d=" M 206.33 160.77 C 205.96 156.39 210.42 159.56 211.98 161.08 C 214.30 163.72 218.44 164.82 219.46 168.44 C 213.87 169.04 210.54 163.49 206.33 160.77 Z" />
</g>
</svg>
