<?xml version="1.0" encoding="UTF-8" ?>
<!DOCTYPE svg PUBLIC "-//W3C//DTD SVG 1.1//EN" "http://www.w3.org/Graphics/SVG/1.1/DTD/svg11.dtd">
<svg width="256pt" height="256pt" viewBox="0 0 256 256" version="1.1" xmlns="http://www.w3.org/2000/svg">
<g id="#ffffffff">
<path fill="#ffffff" opacity="1.00" d=" M 127.22 47.99 C 126.32 43.57 126.73 37.30 132.14 36.19 C 132.51 39.32 133.93 42.34 133.52 45.54 C 133.12 49.56 133.28 53.61 133.45 57.64 C 136.63 57.81 140.35 56.68 142.92 59.15 C 145.20 61.37 148.56 59.72 151.32 60.66 C 151.42 61.85 151.51 63.04 151.58 64.23 C 146.25 66.73 140.35 66.65 134.64 67.40 C 134.28 69.97 134.06 72.59 134.87 75.11 C 135.71 77.40 134.33 79.72 134.94 82.04 C 135.61 85.44 133.78 88.63 133.50 91.96 C 133.61 94.35 134.22 96.69 134.60 99.06 C 133.28 100.23 132.17 102.64 130.09 101.34 C 126.34 97.65 126.83 91.88 126.76 87.04 C 126.47 80.23 126.35 73.42 126.45 66.61 C 120.55 65.00 114.40 65.82 108.49 64.67 C 108.35 62.78 108.06 60.61 110.12 59.63 C 115.21 59.15 120.26 58.29 125.27 57.24 C 124.84 53.94 125.95 50.94 127.22 47.99 Z" />
<path fill="#ffffff" opacity="1.00" d=" M 130.40 106.43 C 131.71 106.26 133.03 106.28 134.34 106.25 C 136.64 112.58 141.01 117.89 144.00 123.90 C 147.05 130.21 150.05 137.02 155.47 141.64 C 155.70 142.87 155.96 144.09 156.24 145.32 C 156.84 145.52 158.03 145.93 158.62 146.14 C 159.26 149.68 162.66 151.52 165.09 153.80 C 163.73 155.56 162.52 157.42 161.46 159.37 C 159.52 159.68 157.59 160.00 155.66 160.31 C 155.46 164.89 155.59 169.54 154.38 174.00 C 156.21 176.00 155.62 178.91 156.59 181.30 C 157.43 183.44 157.23 185.71 156.95 187.95 C 158.00 192.48 157.54 197.13 157.89 201.73 C 156.35 201.72 154.81 201.78 153.27 201.88 C 153.68 197.10 153.62 192.31 152.54 187.62 C 152.99 182.01 150.88 176.60 151.45 171.01 C 151.64 167.81 151.72 164.60 151.95 161.40 C 150.96 161.35 148.97 161.24 147.98 161.19 C 148.88 160.14 149.82 159.11 150.70 158.04 C 146.72 162.38 140.43 162.41 134.97 162.29 C 124.61 162.35 114.31 165.12 103.96 163.77 C 102.41 163.96 100.91 164.42 99.39 164.75 C 98.53 173.22 101.13 181.43 100.71 189.88 C 100.85 194.41 102.51 198.73 102.61 203.28 C 102.43 205.40 104.34 206.70 105.38 208.29 C 101.45 208.38 97.50 208.36 93.60 207.77 C 94.60 206.04 96.37 205.05 97.78 203.71 C 97.70 200.11 97.26 196.52 96.85 192.94 C 96.60 189.52 96.97 186.03 96.18 182.66 C 94.48 177.02 96.15 170.98 94.40 165.34 C 91.09 165.49 87.76 166.00 84.46 165.54 C 83.39 164.32 80.94 163.36 81.48 161.43 C 82.49 157.70 84.65 153.87 88.30 152.20 C 88.01 149.93 89.01 147.95 91.13 146.98 C 91.58 145.73 92.06 144.49 92.57 143.26 C 93.07 143.62 94.06 144.33 94.56 144.68 C 93.72 141.16 97.20 139.49 100.04 138.83 C 100.49 137.76 100.94 136.69 101.41 135.64 C 103.05 135.01 104.69 134.37 106.34 133.78 C 105.91 132.83 105.49 131.88 105.08 130.92 C 108.54 129.13 111.89 127.14 115.28 125.23 C 117.52 123.81 119.21 121.54 118.68 118.80 C 122.79 114.86 127.31 111.22 130.40 106.43 M 121.33 125.23 C 119.18 129.15 114.59 130.50 111.64 133.66 C 106.71 137.33 102.37 141.69 98.03 146.02 C 93.69 149.84 90.85 154.96 87.25 159.42 C 89.58 160.75 91.96 159.02 94.30 158.64 C 100.43 158.46 106.42 156.97 112.59 157.31 C 119.32 156.01 126.21 156.78 133.00 156.10 C 138.63 155.30 144.26 154.31 149.98 154.42 C 152.43 153.83 154.92 153.50 157.44 153.33 C 151.70 144.80 144.58 137.15 140.10 127.83 C 137.42 122.99 134.16 118.53 131.03 113.99 C 128.74 118.53 123.99 120.99 121.33 125.23 Z" />
<path fill="#ffffff" opacity="1.00" d=" M 122.48 132.50 C 124.57 136.07 128.76 131.46 131.42 134.07 C 131.49 139.08 129.27 143.77 127.16 148.19 C 125.31 149.76 123.39 152.73 120.60 151.58 C 117.20 147.68 115.75 140.83 119.66 136.76 C 120.86 135.50 123.26 134.67 122.48 132.50 Z" />
<path fill="#ffffff" opacity="1.00" d=" M 123.91 183.86 C 126.87 183.05 130.48 181.38 133.13 183.86 C 136.32 185.74 136.41 189.81 137.19 193.04 C 137.10 199.30 138.50 205.78 136.19 211.80 C 141.97 210.70 147.59 213.28 153.34 212.46 C 155.91 210.05 155.36 205.85 158.17 203.55 C 159.18 208.21 158.45 213.05 156.46 217.36 C 153.64 217.35 151.08 219.53 148.27 218.30 C 144.28 219.33 140.24 217.66 136.24 217.44 C 134.25 217.82 132.22 218.74 130.20 218.01 C 125.96 216.79 121.48 218.25 117.22 217.51 C 117.05 217.22 116.71 216.66 116.55 216.38 L 116.28 216.34 C 116.35 216.95 116.50 218.18 116.58 218.79 C 110.28 216.98 104.40 222.72 98.24 219.86 C 96.14 219.40 96.94 216.92 96.89 215.42 C 103.98 215.16 110.72 212.76 117.76 212.15 C 117.08 210.23 116.15 208.24 116.75 206.16 C 117.65 202.72 117.13 199.14 117.59 195.63 C 118.11 195.43 119.14 195.02 119.66 194.82 C 118.70 194.19 117.75 193.55 116.81 192.91 C 118.95 189.74 121.18 186.54 123.91 183.86 Z" />
</g>
</svg>
