<?xml version="1.0" encoding="UTF-8" ?>
<!DOCTYPE svg PUBLIC "-//W3C//DTD SVG 1.1//EN" "http://www.w3.org/Graphics/SVG/1.1/DTD/svg11.dtd">
<svg width="512pt" height="128pt" viewBox="0 0 512 128" version="1.1" xmlns="http://www.w3.org/2000/svg">
<g id="#ffffffff">
<path fill="#ffffff" opacity="1.00" d=" M 258.30 6.32 C 259.22 4.69 260.68 3.45 261.95 2.09 C 264.32 4.52 266.78 7.35 266.88 10.94 C 267.79 21.98 261.73 32.78 252.75 38.97 C 251.97 37.74 251.26 36.49 250.64 35.18 C 259.58 29.05 267.22 18.02 263.85 6.77 C 260.47 8.31 259.97 12.39 258.33 15.33 C 252.80 26.35 247.77 37.66 241.07 48.04 C 239.61 50.34 237.41 52.18 236.60 54.86 C 239.39 55.41 242.18 56.09 245.02 56.29 C 247.83 56.63 250.06 54.36 252.79 54.26 C 254.74 56.24 252.16 58.51 250.31 59.30 C 243.44 62.05 235.89 56.13 229.21 59.86 C 226.70 57.27 224.69 54.20 223.63 50.73 C 226.03 51.89 228.34 53.26 230.89 54.12 C 234.42 50.50 237.69 46.55 240.12 42.09 C 246.68 30.43 253.25 18.72 258.30 6.32 Z" />
<path fill="#ffffff" opacity="1.00" d=" M 102.49 11.71 C 108.29 10.64 114.20 11.31 120.05 11.19 C 126.08 11.00 131.95 12.86 137.98 12.80 C 144.64 12.66 151.27 13.53 157.93 13.19 C 165.87 14.00 173.99 13.89 181.77 11.98 C 182.48 13.05 183.17 14.12 183.86 15.20 C 182.63 15.90 181.39 16.67 179.93 16.62 C 170.70 17.30 161.44 16.60 152.20 17.08 C 150.88 23.55 148.45 29.72 145.91 35.79 C 148.83 35.88 152.28 35.78 154.18 33.17 C 155.16 31.29 155.59 29.16 156.59 27.28 C 158.69 29.51 158.51 32.53 157.09 35.05 C 155.21 38.19 154.61 41.85 152.92 45.07 C 151.71 43.23 151.91 41.02 151.72 38.94 C 149.26 39.31 146.40 38.82 144.29 40.37 C 139.76 45.32 139.40 53.02 134.34 57.51 C 132.25 54.00 129.37 51.06 127.10 47.68 C 127.03 46.86 126.90 45.21 126.83 44.39 C 129.95 46.51 131.81 49.87 134.15 52.74 C 136.61 48.72 138.40 44.34 140.64 40.20 C 138.24 39.95 135.84 39.71 133.47 39.30 C 133.21 37.96 132.99 36.61 132.79 35.26 C 135.90 35.57 139.76 37.88 142.49 35.72 C 145.42 29.73 148.54 23.65 149.33 16.91 C 140.22 16.14 131.08 15.82 121.99 14.84 C 115.83 14.29 109.56 13.43 103.42 14.60 C 102.12 14.79 101.46 16.09 100.57 16.91 C 104.44 22.01 110.94 23.55 117.00 24.09 C 121.33 24.45 125.65 25.18 130.01 24.80 C 130.33 25.41 130.97 26.61 131.30 27.22 C 128.34 28.55 125.09 27.63 122.00 27.54 C 114.71 26.84 106.88 25.78 101.03 20.97 C 98.04 18.70 98.60 12.66 102.49 11.71 Z" />
<path fill="#ffffff" opacity="1.00" d=" M 311.36 20.36 C 312.15 19.18 313.45 18.54 314.65 17.87 C 316.20 24.71 313.46 31.57 310.74 37.73 C 309.25 41.63 304.51 42.19 302.47 45.63 C 305.23 45.74 308.20 45.81 310.58 47.42 C 312.47 48.85 311.52 51.37 311.33 53.31 C 309.31 54.05 307.22 54.63 305.37 55.76 C 308.33 55.75 311.29 55.29 314.26 55.52 C 311.66 57.57 308.68 60.34 305.06 59.47 C 302.00 58.56 299.90 55.99 297.88 53.68 C 296.93 55.39 296.02 57.12 295.07 58.83 C 294.49 58.32 293.33 57.31 292.75 56.80 C 294.06 53.20 296.44 50.01 296.99 46.15 C 302.31 37.96 305.88 28.55 311.36 20.36 M 303.80 41.33 C 305.47 40.63 307.57 40.30 308.59 38.63 C 311.43 33.96 313.18 28.66 313.59 23.21 C 309.14 28.48 306.52 35.05 303.80 41.33 M 301.59 50.82 C 303.61 50.97 305.64 50.94 307.67 50.86 C 307.65 50.43 307.63 49.56 307.62 49.13 C 305.49 49.24 303.31 49.43 301.59 50.82 Z" />
<path fill="#ffffff" opacity="1.00" d=" M 372.23 24.01 C 376.56 24.37 374.64 30.21 374.51 33.09 C 383.99 31.77 393.73 32.78 403.06 30.40 C 403.37 31.66 403.68 32.93 403.99 34.19 C 402.73 34.75 401.45 35.39 400.04 35.27 C 392.75 35.20 385.52 36.25 378.26 36.67 C 376.42 36.89 374.45 36.80 372.79 37.71 C 369.16 41.13 366.58 45.55 362.58 48.58 C 359.96 50.29 360.69 53.77 360.47 56.44 C 364.48 56.41 367.95 54.21 371.32 52.31 C 373.71 50.88 374.64 48.11 376.06 45.86 C 376.77 47.31 377.80 49.11 376.78 50.69 C 374.62 53.61 371.98 56.39 368.42 57.50 C 365.49 58.34 362.56 62.09 359.56 59.62 C 357.51 57.95 357.89 55.07 357.46 52.74 C 354.07 54.57 350.82 56.85 346.99 57.63 C 344.16 57.55 343.22 54.56 342.25 52.43 C 339.44 53.71 337.26 56.92 334.00 56.75 C 333.34 55.59 333.33 54.43 334.00 53.27 C 335.26 50.27 336.97 47.49 338.29 44.52 C 335.52 44.41 332.81 45.02 330.09 45.37 C 328.66 49.27 327.44 53.43 324.50 56.51 C 323.29 57.64 322.04 59.20 320.19 58.94 C 318.38 57.99 319.32 55.96 319.63 54.44 C 321.14 49.05 324.10 44.24 327.19 39.63 C 327.59 40.38 328.40 41.89 328.80 42.64 C 332.53 41.91 336.28 41.20 340.11 41.40 C 341.09 44.83 339.87 48.11 338.23 51.11 C 341.30 49.66 343.90 47.43 346.90 45.87 C 347.29 48.63 346.42 51.29 345.88 53.97 C 349.85 53.80 353.30 51.59 356.61 49.62 C 360.70 47.29 361.13 42.14 362.88 38.21 C 357.17 37.80 351.16 39.33 345.70 37.13 C 344.98 36.24 345.68 35.12 345.80 34.16 C 350.13 35.31 354.60 34.57 359.00 34.53 C 360.87 34.43 362.82 34.43 364.59 33.70 C 367.36 30.66 369.03 26.70 372.23 24.01 M 368.97 33.42 C 371.56 33.09 373.31 31.36 373.21 28.65 C 371.06 29.47 369.90 31.44 368.97 33.42 M 366.25 38.20 C 365.67 39.59 365.13 40.99 364.68 42.42 C 366.61 41.25 368.13 39.57 369.36 37.69 C 368.58 37.82 367.03 38.07 366.25 38.20 M 323.21 53.43 C 325.75 51.67 327.26 48.87 327.69 45.84 C 324.43 46.96 323.80 50.47 323.21 53.43 Z" />
<path fill="#ffffff" opacity="1.00" d=" M 171.92 32.60 C 172.21 30.49 171.48 27.46 173.98 26.47 C 175.08 28.74 174.99 32.08 171.92 32.60 Z" />
<path fill="#ffffff" opacity="1.00" d=" M 214.43 40.54 C 214.93 38.66 215.31 36.75 215.90 34.89 C 217.01 36.40 218.68 37.89 218.45 39.95 C 214.29 48.60 205.59 53.87 196.88 57.07 C 194.23 58.11 192.47 55.62 191.30 53.67 C 187.69 55.54 184.18 58.20 179.95 58.24 C 178.80 53.34 180.23 48.39 182.60 44.10 C 180.83 44.21 179.08 44.33 177.31 44.40 C 172.58 49.00 168.51 54.44 162.78 57.87 C 159.69 50.09 165.81 42.78 167.94 35.56 C 170.60 40.98 165.50 46.27 164.98 51.72 C 169.21 48.34 173.67 44.96 176.60 40.33 C 179.90 40.42 183.23 39.88 186.49 40.57 C 187.61 45.79 182.53 49.27 181.67 54.08 C 185.55 52.92 189.38 51.15 192.34 48.33 C 193.96 44.29 196.57 40.76 200.13 38.20 C 201.15 39.67 202.70 41.08 202.56 43.04 C 202.13 47.69 195.33 48.52 195.02 53.01 C 198.93 52.64 202.26 50.45 205.55 48.50 C 208.93 46.40 212.26 43.93 214.43 40.54 Z" />
<path fill="#ffffff" opacity="1.00" d=" M 265.50 40.48 C 268.94 39.76 272.76 41.19 276.31 40.11 C 276.29 40.85 276.24 42.31 276.22 43.04 C 273.91 43.36 271.59 43.54 269.26 43.45 C 269.94 50.46 265.15 56.06 259.78 59.80 C 257.55 60.69 256.43 57.84 256.95 56.09 C 258.49 50.33 261.39 44.81 265.50 40.48 M 259.68 54.90 C 263.72 53.18 267.83 49.31 267.07 44.50 C 263.51 47.03 261.54 51.09 259.68 54.90 Z" />
<path fill="#ffffff" opacity="1.00" d=" M 276.38 42.22 C 278.36 41.16 280.51 40.49 282.73 40.17 C 283.62 41.97 284.46 43.79 285.42 45.55 C 288.79 45.62 292.18 45.70 295.53 45.24 C 295.46 45.98 295.31 47.46 295.23 48.20 C 291.85 48.41 288.46 48.21 285.07 48.23 C 284.12 50.28 283.48 52.47 282.37 54.45 C 280.92 56.81 278.15 57.76 275.77 58.88 C 273.82 53.67 277.93 48.61 280.33 44.22 C 279.00 43.58 277.67 42.93 276.38 42.22 M 280.56 49.80 C 279.69 50.28 278.28 52.39 279.85 52.83 C 281.59 52.98 283.19 48.67 280.56 49.80 Z" />
<path fill="#ffffff" opacity="1.00" d=" M 236.53 85.26 C 239.67 84.85 239.77 80.95 242.01 79.28 C 242.75 81.66 243.65 84.73 241.82 86.85 C 237.69 90.30 232.01 89.50 227.02 89.76 C 220.97 90.20 214.92 89.53 208.87 89.35 C 207.08 91.93 206.10 94.92 204.76 97.73 C 200.98 104.92 196.32 111.70 193.56 119.40 C 190.32 116.41 185.45 112.92 186.98 107.87 C 189.30 109.60 190.99 111.98 192.75 114.24 C 196.32 105.70 201.49 97.97 205.60 89.70 C 197.50 88.27 189.21 88.86 181.02 88.80 C 176.99 89.24 172.63 88.74 168.94 90.70 C 176.25 94.46 184.92 95.32 192.96 93.87 C 195.15 93.08 195.16 95.75 195.54 97.11 C 188.63 99.18 181.37 97.43 174.46 96.26 C 170.58 94.96 165.62 92.54 165.29 87.93 C 170.21 85.48 175.79 86.43 181.05 85.74 C 187.11 85.09 193.21 86.30 199.25 85.41 C 202.72 85.31 206.85 86.08 209.02 82.61 C 209.77 83.67 210.52 84.73 211.29 85.78 C 215.22 85.39 219.13 85.72 222.99 86.51 C 227.46 85.69 232.05 85.97 236.53 85.26 Z" />
<path fill="#ffffff" opacity="1.00" d=" M 303.18 101.78 C 303.20 99.05 303.57 96.40 306.18 94.89 C 306.53 97.41 307.30 100.34 305.58 102.55 C 303.37 105.66 301.84 109.38 298.71 111.72 C 295.56 114.23 291.98 116.36 288.01 117.19 C 286.28 117.52 283.99 115.85 284.73 113.93 C 285.42 109.96 287.63 106.53 289.17 102.87 C 288.26 102.59 287.33 102.41 286.39 102.34 C 282.59 105.88 279.44 110.07 275.46 113.44 C 273.01 115.89 269.54 119.13 265.85 117.15 C 266.05 115.15 266.27 113.16 266.48 111.17 C 262.93 111.12 259.44 110.38 256.25 108.82 C 254.54 113.18 252.78 117.99 247.97 119.76 C 247.50 119.60 246.58 119.29 246.11 119.14 C 245.26 115.54 245.77 111.85 246.27 108.25 C 240.86 112.32 236.24 117.75 229.80 120.24 C 229.03 113.43 233.20 107.53 235.23 101.31 C 231.59 101.00 228.00 101.69 224.49 102.57 C 223.84 109.07 219.06 113.59 215.89 118.92 C 215.18 118.88 213.77 118.81 213.06 118.77 C 213.01 110.69 217.60 103.24 223.08 97.59 C 227.59 100.00 232.41 97.03 237.15 97.22 C 237.60 98.69 238.73 100.23 238.03 101.82 C 236.80 106.46 233.93 110.44 232.71 115.06 C 239.14 111.09 244.51 105.64 250.11 100.61 C 250.46 102.41 251.12 104.37 249.99 106.05 C 248.33 108.95 247.89 112.30 248.23 115.60 C 252.91 113.03 254.14 107.71 255.25 102.94 C 257.49 107.01 261.98 109.23 266.57 108.68 C 269.31 106.63 270.54 102.86 274.02 101.73 C 274.45 103.41 275.01 105.29 273.89 106.85 C 272.20 109.31 269.20 110.72 268.33 113.77 C 276.24 110.77 281.02 103.35 287.04 97.84 C 288.59 98.88 291.14 99.32 291.57 101.43 C 292.66 105.83 288.25 108.82 287.64 112.94 C 294.21 112.18 300.07 107.51 303.18 101.78 M 219.48 107.16 C 218.43 107.71 217.41 109.26 218.05 110.41 C 219.39 110.78 221.34 107.39 219.48 107.16 Z" />
</g>
</svg>
