<?xml version="1.0" encoding="UTF-8" ?>
<!DOCTYPE svg PUBLIC "-//W3C//DTD SVG 1.1//EN" "http://www.w3.org/Graphics/SVG/1.1/DTD/svg11.dtd">
<svg width="256pt" height="256pt" viewBox="0 0 256 256" version="1.1" xmlns="http://www.w3.org/2000/svg">
<g id="#ffffffff">
<path fill="#ffffff" opacity="1.00" d=" M 120.30 69.43 C 129.20 67.31 138.49 66.62 147.53 68.39 C 148.43 69.00 149.32 69.63 150.19 70.30 C 149.71 73.12 149.87 76.59 147.37 78.50 C 149.48 81.06 148.25 84.53 148.27 87.52 C 147.89 91.48 150.06 95.36 148.77 99.26 C 148.19 100.44 149.32 101.20 149.92 102.05 C 149.38 106.98 149.29 111.96 148.41 116.84 C 149.00 122.85 147.44 128.81 148.15 134.79 C 147.25 135.95 146.20 136.99 145.19 138.06 C 147.31 140.21 147.06 143.36 147.70 146.12 C 146.06 147.13 144.66 148.45 143.33 149.84 C 143.38 150.78 143.47 152.66 143.52 153.61 C 144.33 153.54 145.94 153.40 146.75 153.33 C 145.98 153.66 144.42 154.33 143.64 154.66 C 143.86 158.16 142.71 161.68 143.99 165.10 C 144.07 169.47 143.26 173.87 144.61 178.16 C 142.61 179.55 140.52 180.79 138.47 182.10 C 138.03 174.73 137.77 167.33 136.64 160.02 C 136.45 155.78 136.89 151.52 136.38 147.29 C 135.06 148.26 133.69 149.15 132.33 150.04 C 132.35 152.38 131.97 154.69 131.65 157.00 C 131.68 160.02 132.35 162.98 132.73 165.97 C 131.80 172.15 133.47 178.34 132.52 184.54 C 130.69 185.46 128.87 186.40 127.03 187.29 C 124.44 182.86 127.28 177.96 125.78 173.33 C 124.93 169.70 126.05 165.98 125.56 162.32 C 124.96 158.25 125.15 154.12 125.91 150.09 C 121.90 150.91 117.80 150.53 113.76 150.29 C 113.56 154.46 116.36 159.55 112.82 162.98 C 113.26 163.15 114.14 163.50 114.58 163.67 C 113.69 166.87 112.60 170.04 112.22 173.36 C 110.14 174.06 108.00 174.60 105.80 174.68 C 105.63 171.84 105.60 168.98 104.85 166.21 C 104.11 163.82 105.67 161.45 104.94 159.05 C 104.27 156.32 105.58 152.80 102.90 150.89 C 102.46 152.57 101.50 154.20 101.63 155.99 C 102.07 161.02 100.14 165.89 100.66 170.93 C 100.98 173.69 99.61 176.20 98.92 178.79 C 98.27 180.97 98.60 183.28 98.31 185.51 C 98.06 187.19 96.17 187.64 95.01 188.54 C 91.09 187.16 89.38 182.14 92.21 178.89 C 91.69 177.29 90.39 175.74 90.90 173.97 C 92.00 166.03 94.68 158.01 92.73 149.98 C 93.32 149.29 93.90 148.61 94.49 147.92 C 94.07 143.62 94.38 139.26 93.16 135.06 C 93.95 134.44 94.75 133.82 95.53 133.20 C 94.94 125.15 95.03 117.01 95.51 108.95 C 95.38 103.20 95.86 97.44 97.03 91.81 C 97.74 86.25 96.69 80.66 96.79 75.10 C 97.39 73.10 99.70 72.92 101.40 72.43 C 107.69 71.36 113.84 69.04 120.30 69.43 M 133.50 71.66 C 133.37 72.26 133.11 73.48 132.98 74.09 C 132.83 73.47 132.55 72.25 132.41 71.63 C 129.98 70.77 127.60 71.73 125.39 72.71 C 125.41 73.14 125.46 74.01 125.48 74.44 C 125.22 74.16 124.69 73.60 124.43 73.32 C 119.23 72.99 114.08 73.90 109.60 76.71 C 109.26 76.13 108.57 74.97 108.23 74.39 C 105.71 75.33 103.17 76.18 100.56 76.83 C 100.61 78.22 100.66 79.61 100.72 81.00 C 101.24 80.76 102.26 80.28 102.78 80.04 C 102.38 84.90 102.33 89.78 102.42 94.66 C 101.58 97.98 100.90 101.70 102.87 104.78 C 100.30 109.82 102.27 115.41 101.89 120.74 C 103.13 125.60 102.55 130.62 102.76 135.57 C 108.17 135.33 113.74 135.35 118.71 137.80 C 121.97 135.33 126.25 136.52 130.01 136.40 C 131.44 135.80 132.70 134.86 134.18 134.38 C 136.73 134.73 139.19 135.52 141.70 136.02 C 143.14 129.83 142.31 123.52 142.41 117.24 C 142.61 106.49 143.94 95.67 142.66 84.94 C 142.36 81.79 144.73 79.18 144.64 76.07 C 144.70 74.41 144.71 72.74 144.76 71.08 C 141.06 72.24 137.27 71.44 133.50 71.66 M 103.94 141.52 C 104.20 142.20 104.74 143.56 105.01 144.25 C 108.83 143.83 112.83 144.76 116.46 143.18 C 119.02 142.03 121.87 142.42 124.57 142.59 C 124.67 142.09 124.86 141.08 124.96 140.57 C 118.11 142.73 110.92 140.57 103.94 141.52 M 106.23 151.23 C 106.82 151.82 106.82 151.82 106.23 151.23 Z" />
<path fill="#ffffff" opacity="1.00" d=" M 178.72 68.40 C 180.07 68.48 181.43 68.58 182.78 68.64 C 181.96 68.95 181.14 69.27 180.32 69.58 C 181.25 75.37 182.54 81.40 180.11 87.05 C 177.97 89.12 174.81 88.09 172.26 87.55 C 169.41 85.61 170.71 82.12 171.32 79.40 C 174.11 75.96 176.76 72.40 178.72 68.40 Z" />
<path fill="#ffffff" opacity="1.00" d=" M 168.93 91.82 C 169.65 91.51 171.08 90.89 171.80 90.58 C 171.69 91.32 171.48 92.82 171.37 93.56 C 172.38 92.59 173.44 91.67 174.55 90.79 C 175.81 96.64 171.79 101.45 171.06 106.97 C 169.46 112.25 166.47 117.02 165.31 122.43 C 163.10 122.94 160.86 123.34 158.62 123.70 C 157.24 118.68 160.38 114.07 161.19 109.22 C 163.62 103.37 166.57 97.71 168.93 91.82 Z" />
</g>
</svg>
