<?xml version="1.0" encoding="UTF-8" ?>
<!DOCTYPE svg PUBLIC "-//W3C//DTD SVG 1.1//EN" "http://www.w3.org/Graphics/SVG/1.1/DTD/svg11.dtd">
<svg width="256pt" height="256pt" viewBox="0 0 256 256" version="1.1" xmlns="http://www.w3.org/2000/svg">
<g id="#ffffffff">
<path fill="#ffffff" opacity="1.00" d=" M 55.35 90.94 C 57.23 90.44 59.29 89.66 61.14 90.73 C 64.71 92.49 68.57 93.48 72.23 95.01 C 73.87 95.76 75.69 95.32 77.41 95.26 C 78.10 97.39 79.27 99.28 80.65 101.03 C 75.96 102.50 77.57 108.20 77.16 111.96 C 76.57 118.29 76.83 124.66 75.82 130.97 C 75.23 136.44 76.53 141.98 75.51 147.42 C 74.04 148.00 72.89 146.73 71.86 145.90 C 71.58 143.60 71.97 141.29 71.76 138.99 C 71.07 130.37 72.53 121.79 72.72 113.18 C 70.07 108.84 69.35 103.50 65.94 99.59 C 64.39 103.54 65.90 107.80 64.81 111.85 C 64.14 111.78 62.80 111.64 62.13 111.57 C 61.27 108.56 59.96 105.35 61.23 102.25 C 62.27 99.96 61.00 97.68 60.52 95.42 C 58.45 94.37 56.49 93.05 55.35 90.94 Z" />
<path fill="#ffffff" opacity="1.00" d=" M 120.43 92.42 C 122.28 90.67 124.81 90.18 127.27 90.10 C 126.27 92.07 124.40 93.32 122.83 94.80 C 127.01 94.63 131.48 95.48 135.28 93.25 C 138.14 91.64 141.06 94.31 144.00 94.08 C 149.63 93.62 155.31 93.66 160.92 92.83 C 164.66 92.37 168.50 91.56 172.21 92.68 C 172.38 92.98 172.72 93.59 172.88 93.90 C 169.18 94.81 165.20 94.51 161.66 96.10 C 159.48 96.93 157.09 96.17 154.82 96.26 C 156.72 96.70 158.67 96.96 160.53 97.58 C 160.99 99.34 160.62 101.11 160.24 102.83 C 163.67 102.55 168.47 101.88 169.59 106.16 C 169.42 105.65 169.08 104.63 168.91 104.12 C 169.34 103.63 170.18 102.66 170.61 102.17 C 170.09 100.57 169.45 98.99 169.26 97.31 C 170.01 96.52 170.86 95.83 171.70 95.13 C 176.58 102.45 178.19 111.33 178.47 119.97 C 178.14 123.06 178.94 126.38 177.28 129.19 C 178.56 127.13 180.62 125.89 182.52 124.48 C 183.76 121.28 183.21 117.72 183.87 114.39 C 184.81 115.73 186.05 117.26 185.73 119.03 C 185.29 123.78 185.79 128.67 184.25 133.28 C 184.73 134.50 185.19 135.74 185.57 137.01 C 186.98 137.92 188.40 138.83 189.87 139.67 C 189.26 139.59 188.02 139.43 187.41 139.35 C 188.33 143.80 184.47 146.67 183.08 150.37 C 181.21 149.58 179.22 149.23 177.19 149.17 C 177.47 152.12 178.13 155.02 179.66 157.59 C 182.17 155.05 185.70 155.59 188.92 155.33 C 190.37 154.80 191.80 154.16 193.33 153.90 C 191.76 155.29 189.25 155.84 189.13 158.32 C 191.61 157.47 194.03 156.43 196.56 155.69 C 196.45 156.55 196.24 158.27 196.14 159.12 C 197.45 158.10 198.70 157.00 200.01 155.98 C 199.43 157.05 198.83 158.11 198.21 159.16 C 199.48 160.01 200.75 160.87 202.04 161.71 C 198.56 163.57 194.80 164.97 190.78 164.30 C 190.69 163.88 190.53 163.04 190.45 162.63 C 185.89 165.57 179.86 164.43 174.79 163.56 C 174.65 163.04 174.36 162.00 174.22 161.48 C 169.94 162.24 165.54 164.20 161.17 163.28 C 160.94 162.67 160.49 161.45 160.26 160.84 C 160.26 161.51 160.26 162.86 160.26 163.53 C 157.90 164.14 156.94 163.29 157.39 160.97 C 158.39 159.86 159.61 159.39 161.07 159.57 C 164.18 159.96 167.29 159.40 170.41 159.43 C 170.39 157.54 171.26 155.90 172.15 154.29 C 170.11 154.90 168.06 155.44 165.97 155.82 C 163.84 158.32 160.69 158.91 157.57 158.75 C 156.40 160.37 155.32 160.18 154.49 158.41 C 151.92 161.94 147.00 160.50 143.27 160.73 C 143.26 160.04 143.26 158.66 143.26 157.96 C 145.11 157.64 147.27 157.74 148.45 155.97 C 146.03 155.96 143.59 156.03 141.25 155.32 C 141.01 155.93 140.52 157.13 140.27 157.73 C 135.33 157.84 130.62 156.38 125.90 155.18 C 122.57 153.95 119.27 156.36 115.92 155.38 C 111.85 153.93 107.44 154.97 103.30 153.82 C 97.77 152.36 91.99 153.12 86.37 152.48 C 84.67 152.48 83.61 151.13 82.60 149.96 C 89.40 148.32 96.30 146.66 102.26 142.79 C 102.26 142.31 102.27 141.36 102.27 140.88 C 96.50 142.20 91.63 145.90 85.98 147.57 C 84.81 147.18 83.71 146.61 82.59 146.10 C 89.38 142.08 96.63 138.82 103.70 135.30 C 103.21 128.56 101.86 121.85 102.70 115.08 C 103.30 113.82 104.20 112.75 104.99 111.62 C 106.97 113.92 106.59 116.92 106.57 119.74 C 109.87 119.84 112.89 118.08 116.20 118.70 C 115.19 117.86 114.14 117.08 113.17 116.20 C 113.58 115.55 114.40 114.25 114.81 113.60 C 115.81 115.24 116.82 116.87 117.67 118.60 C 121.00 117.62 124.84 118.24 127.92 116.76 C 127.17 114.41 126.01 112.12 126.68 109.57 C 120.81 110.17 114.95 112.08 109.02 111.00 C 106.41 110.53 103.79 111.11 101.18 111.28 C 102.35 109.15 102.71 106.31 104.86 104.89 C 110.24 100.97 115.31 96.66 120.43 92.42 M 106.67 106.56 C 109.41 106.52 112.15 106.40 114.89 106.36 C 116.59 105.46 118.01 104.13 119.54 102.97 C 119.50 103.88 119.42 105.70 119.38 106.60 C 120.46 105.53 121.51 104.42 122.51 103.27 C 125.40 105.00 129.78 104.60 131.55 107.80 C 134.69 106.14 138.24 105.53 141.77 105.93 L 141.82 105.19 C 140.55 104.70 137.74 106.08 137.68 104.08 C 138.90 102.21 140.84 100.88 143.14 101.25 C 142.21 100.69 141.30 100.10 140.39 99.50 C 140.75 98.95 141.46 97.85 141.81 97.31 C 135.18 95.52 128.29 98.57 121.71 96.36 C 117.08 100.33 111.71 103.20 106.67 106.56 M 137.13 110.65 C 137.11 113.17 138.52 114.99 140.56 116.30 C 140.51 114.91 140.45 113.52 140.38 112.13 C 142.38 111.22 144.94 110.77 145.63 108.34 C 142.69 108.66 139.80 109.38 137.13 110.65 M 134.56 109.31 C 134.06 110.93 134.62 111.47 136.25 110.93 C 136.77 109.31 136.21 108.77 134.56 109.31 M 127.85 111.08 C 128.38 111.36 129.43 111.93 129.95 112.22 C 129.66 112.66 129.08 113.55 128.79 113.99 C 129.30 114.17 130.31 114.52 130.81 114.69 C 130.79 112.95 130.77 111.21 130.76 109.48 C 129.77 109.97 128.80 110.50 127.85 111.08 M 146.09 110.12 C 145.66 112.15 147.14 114.06 146.87 116.17 C 147.44 115.67 148.57 114.66 149.13 114.16 C 150.19 114.64 151.24 115.14 152.30 115.63 C 152.53 115.10 153.01 114.04 153.24 113.51 C 154.32 113.52 155.39 113.53 156.47 113.52 C 157.48 114.28 158.30 115.87 159.77 115.59 C 164.44 114.93 169.06 116.30 173.70 116.61 C 173.54 114.42 173.54 112.16 172.77 110.07 C 171.35 109.22 169.59 109.87 168.03 109.73 C 163.09 110.17 158.12 110.16 153.18 110.63 C 150.76 110.86 148.27 108.32 146.09 110.12 M 129.19 116.16 C 129.24 119.54 132.16 114.66 129.19 116.16 M 138.49 118.40 C 137.07 119.25 135.60 119.99 134.05 120.57 C 134.85 122.50 136.62 122.89 138.55 122.77 C 138.74 122.24 139.12 121.18 139.31 120.65 C 139.88 120.59 141.02 120.46 141.58 120.39 C 140.56 119.76 139.76 118.47 138.49 118.40 M 153.85 120.22 C 152.73 121.38 151.19 122.41 150.99 124.16 C 149.93 126.29 151.78 128.08 152.75 129.83 C 151.96 129.69 150.40 129.43 149.62 129.30 C 149.41 131.47 148.90 133.88 151.34 134.99 C 151.41 133.88 151.54 131.65 151.60 130.54 C 152.64 132.63 151.96 135.36 153.85 137.02 C 155.75 139.77 159.05 141.23 162.35 140.66 C 163.07 141.25 163.79 141.83 164.53 142.39 C 164.54 138.88 164.20 135.37 164.36 131.86 C 163.21 131.14 162.05 130.43 160.89 129.72 C 165.48 128.21 163.12 122.71 163.06 119.21 C 159.92 118.90 156.97 120.37 153.85 120.22 M 169.86 120.60 C 168.82 120.17 167.76 119.77 166.70 119.39 C 167.80 121.09 168.96 122.77 169.77 124.64 C 169.05 130.67 170.07 136.76 169.28 142.78 C 170.77 143.61 172.21 144.51 173.68 145.38 C 173.53 142.97 173.15 140.59 172.86 138.21 C 173.71 133.31 173.25 128.35 173.57 123.42 C 173.89 121.39 172.63 119.64 171.94 117.85 C 171.23 118.76 170.54 119.67 169.86 120.60 M 114.17 121.44 C 114.07 122.11 113.88 123.44 113.78 124.11 C 111.60 122.41 108.98 121.98 106.28 122.32 C 106.51 124.16 106.64 126.01 106.67 127.87 C 110.28 126.79 114.03 125.62 117.79 126.71 C 118.09 126.33 118.69 125.56 118.99 125.18 C 121.25 126.17 123.64 125.36 125.98 125.21 C 125.84 124.64 125.57 123.51 125.44 122.94 C 126.15 122.06 126.86 121.18 127.55 120.28 C 122.90 119.29 118.73 121.95 114.17 121.44 M 127.32 124.02 C 128.68 125.23 129.54 126.78 129.74 128.60 C 129.95 128.60 130.36 128.58 130.57 128.57 C 130.30 125.43 130.17 122.28 130.48 119.13 C 128.93 120.40 128.26 122.32 127.32 124.02 M 139.14 123.01 C 138.11 123.79 138.64 126.87 140.19 125.40 C 141.37 124.64 140.67 121.59 139.14 123.01 M 119.88 128.78 C 120.96 131.24 123.46 130.00 124.98 128.67 C 123.29 128.15 121.57 128.51 119.88 128.78 M 135.39 129.28 C 135.32 131.32 136.04 134.07 132.99 133.74 C 135.21 134.88 137.53 135.80 140.01 136.19 C 139.82 135.64 139.43 134.54 139.24 133.99 C 139.99 132.86 140.64 131.66 141.22 130.43 C 139.28 130.04 137.34 129.64 135.39 129.28 M 126.59 130.12 C 126.10 132.87 124.85 135.39 123.88 138.00 C 123.40 137.47 122.42 136.41 121.93 135.89 C 121.35 137.43 120.85 139.00 120.41 140.59 C 123.20 139.83 126.39 139.00 127.92 136.29 C 129.07 137.12 130.22 137.96 131.38 138.81 C 132.33 137.97 133.28 137.13 134.21 136.27 C 132.92 136.02 131.64 135.78 130.35 135.56 C 130.41 133.84 130.42 132.12 130.43 130.40 C 129.14 130.33 127.86 130.23 126.59 130.12 M 122.27 132.17 C 122.60 135.57 125.27 130.65 122.27 132.17 M 107.21 133.48 C 107.60 135.03 107.83 136.61 108.04 138.19 C 108.97 136.80 109.90 135.38 111.22 134.32 C 111.24 135.15 111.27 136.81 111.29 137.63 C 113.73 137.44 116.64 139.11 118.59 137.03 C 118.44 135.77 118.05 134.59 117.41 133.49 C 114.03 133.03 110.60 134.06 107.21 133.48 M 137.16 141.33 C 138.08 140.66 138.93 139.91 139.78 139.15 C 140.44 139.26 141.77 139.47 142.43 139.57 C 141.68 138.64 140.90 137.75 140.12 136.86 C 139.17 138.37 138.13 139.82 137.16 141.33 M 147.72 138.75 C 147.64 139.74 147.76 140.74 147.87 141.73 C 149.43 140.24 151.21 138.94 152.33 137.06 C 150.72 137.41 149.14 137.91 147.72 138.75 M 104.55 142.31 C 101.92 144.15 99.14 145.90 97.14 148.48 C 108.21 149.50 119.37 149.42 130.41 150.37 C 134.06 150.42 137.64 149.11 141.30 149.65 C 145.26 150.13 149.29 150.13 153.17 151.15 C 156.57 151.78 160.02 150.96 163.38 150.45 C 163.18 148.33 162.36 146.34 161.85 144.30 C 159.98 143.95 158.12 143.60 156.26 143.22 C 155.98 143.84 155.42 145.07 155.14 145.68 C 152.95 145.48 150.91 144.72 148.91 143.86 C 141.51 143.39 134.00 144.21 126.62 143.44 C 126.01 144.29 125.41 145.15 124.82 146.01 C 118.92 143.60 112.58 142.97 106.43 141.64 C 106.16 140.89 105.63 139.38 105.37 138.62 C 105.06 139.84 104.80 141.08 104.55 142.31 M 178.78 138.48 C 179.08 142.08 177.86 146.15 180.17 149.28 C 180.68 145.90 182.97 140.28 178.78 138.48 M 183.27 140.03 C 182.86 141.99 182.03 144.08 182.87 146.05 C 183.41 145.76 184.50 145.17 185.04 144.88 C 185.57 142.93 187.78 138.83 184.06 139.35 L 183.27 140.03 M 165.35 145.08 C 164.01 145.83 163.97 146.53 165.25 147.15 C 166.59 146.36 166.63 145.66 165.35 145.08 M 95.20 147.22 C 93.47 147.48 94.35 149.90 95.85 149.06 C 97.50 148.72 96.71 146.37 95.20 147.22 M 166.88 151.10 C 168.31 150.91 169.74 150.69 171.16 150.44 C 170.83 149.66 170.16 148.11 169.83 147.33 C 168.40 148.21 167.25 149.42 166.88 151.10 M 187.34 156.24 C 185.93 156.93 185.87 157.59 187.16 158.23 C 188.57 157.52 188.63 156.86 187.34 156.24 Z" />
<path fill="#ffffff" opacity="1.00" d=" M 180.23 109.50 C 181.24 108.39 183.36 109.88 182.59 111.21 C 181.59 112.38 179.38 110.83 180.23 109.50 Z" />
<path fill="#ffffff" opacity="1.00" d=" M 184.21 113.25 C 184.84 113.84 184.84 113.84 184.21 113.25 Z" />
<path fill="#ffffff" opacity="1.00" d=" M 116.35 123.35 C 119.74 123.59 114.80 126.35 116.35 123.35 Z" />
<path fill="#ffffff" opacity="1.00" d=" M 84.21 127.05 C 89.34 128.61 93.84 124.39 98.98 125.69 C 96.51 128.53 92.41 128.86 89.07 130.20 C 87.12 130.44 87.64 132.88 87.76 134.22 C 89.23 134.34 90.70 134.44 92.17 134.52 C 89.66 137.15 87.50 140.06 85.85 143.32 C 84.62 142.45 82.55 141.86 83.30 139.94 C 84.01 135.71 82.58 130.99 84.21 127.05 M 87.87 135.23 C 86.33 138.26 91.24 135.22 87.87 135.23 Z" />
<path fill="#ffffff" opacity="1.00" d=" M 187.78 127.51 C 189.46 126.89 189.97 127.39 189.31 129.00 C 187.62 129.65 187.11 129.16 187.78 127.51 Z" />
<path fill="#ffffff" opacity="1.00" d=" M 158.87 130.31 C 162.30 130.53 157.17 133.27 158.87 130.31 Z" />
<path fill="#ffffff" opacity="1.00" d=" M 127.03 145.55 C 128.40 145.09 128.94 145.57 128.64 146.99 C 127.27 147.43 126.73 146.95 127.03 145.55 Z" />
<path fill="#ffffff" opacity="1.00" d=" M 192.23 145.34 C 195.72 145.38 190.72 148.38 192.23 145.34 Z" />
<path fill="#ffffff" opacity="1.00" d=" M 192.16 148.27 C 195.63 148.37 190.45 151.24 192.16 148.27 Z" />
<path fill="#ffffff" opacity="1.00" d=" M 167.27 157.13 C 170.21 155.64 167.53 160.59 167.27 157.13 Z" />
<path fill="#ffffff" opacity="1.00" d=" M 178.42 172.03 C 181.37 170.39 178.61 175.47 178.42 172.03 Z" />
</g>
</svg>
