<?xml version="1.0" encoding="UTF-8" ?>
<!DOCTYPE svg PUBLIC "-//W3C//DTD SVG 1.1//EN" "http://www.w3.org/Graphics/SVG/1.1/DTD/svg11.dtd">
<svg width="256pt" height="256pt" viewBox="0 0 256 256" version="1.1" xmlns="http://www.w3.org/2000/svg">
<g id="#ffffffff">
<path fill="#ffffff" opacity="1.00" d=" M 118.36 64.41 C 121.33 62.72 124.06 59.90 127.75 60.16 C 130.11 60.49 129.15 63.35 129.51 65.00 C 131.56 65.29 133.62 65.56 135.66 65.91 C 133.59 67.19 131.17 67.37 128.81 67.36 C 128.72 66.12 128.65 64.88 128.58 63.64 C 126.46 63.57 124.34 63.56 122.23 63.72 C 122.57 64.69 122.91 65.66 123.25 66.62 C 121.09 66.95 118.15 66.30 116.84 68.56 C 118.03 69.48 119.23 70.39 120.44 71.28 C 118.62 71.38 116.80 71.46 114.97 71.51 C 115.07 72.71 115.16 73.91 115.25 75.11 C 113.89 75.14 112.54 75.19 111.18 75.25 C 110.40 77.13 109.68 79.03 109.04 80.97 C 110.82 81.91 111.78 83.52 112.15 85.46 C 113.40 85.90 114.65 86.35 115.90 86.82 C 113.42 88.42 110.62 89.88 110.34 93.16 C 110.44 91.47 110.44 89.77 110.35 88.08 C 107.13 90.20 103.79 92.93 102.65 96.76 C 101.64 100.06 98.38 101.93 97.01 105.07 C 96.53 104.55 95.56 103.50 95.08 102.97 C 93.50 106.63 90.59 109.48 89.14 113.20 C 85.75 117.86 81.93 122.36 80.03 127.90 C 77.75 132.16 75.19 136.73 76.51 141.77 C 78.23 138.62 79.85 135.41 81.14 132.07 C 83.52 125.84 88.20 120.83 90.59 114.61 C 91.51 111.93 93.36 109.72 95.63 108.07 C 95.48 106.79 95.36 105.51 95.26 104.22 C 95.97 104.64 97.39 105.48 98.10 105.90 C 101.29 101.94 105.93 99.19 110.90 98.20 C 110.83 96.81 110.78 95.42 110.76 94.03 C 113.52 94.95 116.10 96.33 118.87 97.19 C 119.82 96.23 120.59 95.12 121.41 94.06 C 117.97 91.08 119.70 86.34 119.64 82.42 C 120.72 80.37 121.86 78.34 123.00 76.32 C 122.83 78.91 122.24 81.43 121.55 83.92 C 121.16 87.17 121.86 90.44 121.47 93.70 C 124.52 92.63 127.59 91.09 129.05 88.02 C 130.65 84.29 132.50 80.18 136.66 78.80 C 136.64 76.75 136.63 74.70 136.73 72.66 C 135.42 73.63 134.12 74.61 132.77 75.51 C 132.60 74.85 132.26 73.53 132.09 72.87 C 133.47 72.55 135.26 72.64 135.70 70.95 C 135.43 70.02 135.13 69.11 134.79 68.21 C 135.98 67.54 137.16 66.84 138.33 66.12 C 140.87 69.23 144.36 71.30 147.79 73.29 C 148.58 69.55 151.03 66.61 153.19 63.59 C 154.13 64.37 155.07 65.16 156.01 65.95 C 153.77 69.06 151.49 72.15 149.29 75.30 C 149.32 76.90 150.14 78.32 150.45 79.86 C 150.82 84.76 147.49 89.24 149.19 94.18 C 152.84 94.70 156.55 94.76 160.13 93.66 C 158.17 93.28 156.15 93.31 154.22 92.80 C 152.68 91.15 151.44 89.23 150.14 87.38 C 153.18 88.23 156.14 89.48 159.32 89.79 C 159.42 90.97 159.52 92.16 159.61 93.35 C 164.40 89.80 171.26 88.75 174.23 83.05 C 175.02 79.71 175.89 75.96 174.33 72.70 C 172.39 67.87 168.09 64.32 166.72 59.21 C 171.82 63.56 174.84 69.94 177.19 76.13 C 178.58 80.69 175.90 84.96 173.93 88.88 C 171.84 90.32 169.75 92.19 167.11 92.38 C 163.25 92.51 160.52 95.57 157.11 96.95 C 159.35 100.31 155.27 102.19 153.43 104.45 C 151.40 107.02 148.96 109.21 146.62 111.48 C 146.61 110.52 146.59 108.61 146.58 107.66 C 145.03 109.20 143.53 110.78 141.94 112.29 C 146.17 112.56 149.56 115.37 153.40 116.85 C 153.39 116.12 153.38 114.66 153.37 113.93 C 153.48 114.52 153.70 115.68 153.80 116.27 C 155.46 116.87 157.42 117.04 158.77 118.26 C 160.41 120.38 161.25 123.07 161.39 125.74 C 158.50 123.97 156.26 121.25 153.01 120.08 C 153.80 122.40 154.93 124.71 154.48 127.23 C 152.00 124.90 151.31 121.41 149.20 118.83 C 147.14 118.13 144.93 118.25 142.80 118.26 C 144.96 121.67 148.00 124.43 150.08 127.90 C 147.47 126.89 145.07 125.15 142.15 125.22 C 142.89 124.88 143.62 124.54 144.36 124.19 C 142.14 121.65 140.62 118.53 138.17 116.20 C 136.88 117.16 135.67 118.21 134.42 119.23 C 136.09 119.97 137.76 120.71 139.42 121.45 C 139.65 124.24 140.13 126.99 140.63 129.73 C 141.09 129.37 142.01 128.65 142.47 128.29 C 143.07 130.49 144.04 132.81 143.21 135.10 C 141.54 140.66 138.81 145.88 137.80 151.64 C 141.32 144.85 147.00 139.72 152.58 134.67 C 153.87 138.52 150.02 140.47 148.09 143.12 C 144.43 147.80 140.48 152.25 136.81 156.93 C 140.34 153.08 144.41 149.79 148.00 146.02 C 149.71 143.63 151.14 140.75 154.00 139.56 C 157.69 137.95 158.84 133.74 160.68 130.50 C 162.01 126.72 164.81 123.76 167.89 121.30 C 167.65 128.18 163.08 133.72 160.72 139.93 C 165.26 139.51 167.91 135.66 171.00 132.84 C 171.16 136.38 167.59 137.94 165.91 140.59 C 169.90 138.42 171.64 134.02 174.53 130.74 C 173.39 130.58 172.26 130.42 171.12 130.26 C 171.89 127.72 172.79 125.21 173.01 122.55 C 169.46 121.23 165.66 120.00 163.79 116.39 C 161.78 116.17 159.21 117.19 157.77 115.31 C 155.35 113.17 155.12 109.73 154.25 106.82 C 159.73 107.35 160.97 115.08 166.59 114.67 C 169.26 116.79 172.41 118.14 175.18 120.06 C 175.62 123.01 174.61 125.84 173.53 128.53 C 174.59 128.88 175.65 129.23 176.71 129.58 C 175.40 133.30 173.19 136.57 170.73 139.62 C 168.58 145.65 163.88 150.11 160.40 155.32 C 155.82 159.70 149.97 162.38 144.58 165.58 C 141.07 168.51 137.92 171.84 134.33 174.67 C 137.74 175.68 140.47 178.43 144.08 178.74 C 149.27 179.09 154.08 182.26 157.28 186.22 C 155.32 186.06 153.38 185.81 151.43 185.63 C 153.45 187.48 156.02 188.73 157.57 191.08 C 152.55 192.59 149.65 187.05 145.27 185.70 C 138.98 183.55 131.71 182.69 127.15 177.30 C 128.76 176.64 132.67 178.83 132.44 176.12 C 130.75 174.96 127.95 174.75 127.46 172.41 C 126.74 169.79 127.72 167.03 127.36 164.36 C 126.60 158.93 128.42 153.62 129.41 148.34 C 130.99 142.58 133.10 136.98 135.23 131.39 C 135.86 130.04 135.66 128.54 135.62 127.11 C 136.54 126.54 137.45 125.97 138.37 125.38 C 136.44 126.25 134.52 127.14 132.54 127.90 C 132.50 127.04 132.43 125.32 132.39 124.46 C 131.52 125.28 130.67 126.11 129.82 126.95 C 130.96 127.61 132.13 128.24 133.19 129.06 C 133.67 131.24 133.69 133.48 133.55 135.71 C 131.89 133.53 130.59 131.11 129.14 128.79 C 128.90 129.36 128.42 130.48 128.17 131.04 C 131.00 135.11 127.55 139.72 127.55 144.12 C 126.87 147.07 127.69 151.16 125.17 153.22 L 124.59 152.97 C 124.92 146.94 125.12 140.84 126.86 135.02 C 126.80 132.70 125.60 130.56 124.85 128.40 C 125.34 132.11 125.45 135.84 125.58 139.58 C 124.12 139.57 122.65 139.57 121.19 139.56 C 121.24 136.33 121.27 133.10 121.06 129.88 C 120.50 132.76 121.05 135.78 120.06 138.58 C 119.12 140.75 120.18 143.09 120.20 145.33 C 121.14 143.46 122.11 141.58 123.46 139.96 C 123.94 145.92 122.25 151.69 121.70 157.58 C 121.02 161.57 120.88 165.66 119.87 169.59 C 119.40 169.81 118.45 170.24 117.98 170.46 C 117.59 165.10 117.27 159.40 119.89 154.51 C 118.31 155.87 116.59 157.04 114.84 158.16 C 114.55 156.72 114.31 155.28 114.14 153.83 C 113.44 153.35 112.75 152.86 112.06 152.38 C 107.22 153.89 102.50 157.74 97.21 155.88 C 92.04 153.83 86.10 152.73 80.70 154.43 C 80.22 154.32 79.74 154.20 79.26 154.07 C 78.46 154.47 76.85 155.25 76.05 155.65 C 75.42 155.13 74.16 154.11 73.53 153.60 C 72.85 149.82 73.55 146.07 74.56 142.43 C 73.15 142.60 71.74 142.73 70.32 142.86 C 70.40 140.91 70.00 139.00 69.75 137.08 C 72.51 127.63 77.28 118.95 80.96 109.86 C 83.90 104.63 87.47 99.77 90.70 94.72 C 96.07 90.22 100.51 84.15 107.32 81.73 C 107.42 77.33 110.83 74.14 112.08 70.09 C 112.95 67.15 115.97 65.89 118.36 64.41 M 139.13 71.17 C 139.32 73.05 140.00 74.94 139.66 76.84 C 139.11 80.88 135.41 83.35 133.80 86.92 C 137.28 83.99 139.42 79.78 143.02 76.92 C 143.77 77.24 145.28 77.88 146.04 78.20 C 142.88 79.98 140.42 82.69 138.52 85.75 C 142.35 84.09 144.74 80.48 148.39 78.52 C 146.56 74.81 142.72 72.82 139.13 71.17 M 143.14 88.94 C 144.45 89.61 145.77 90.28 147.08 90.96 C 147.45 87.72 147.65 84.49 148.72 81.37 C 146.31 83.46 144.91 86.35 143.14 88.94 M 98.64 89.79 C 100.14 90.46 101.64 91.15 103.10 91.90 C 105.03 89.90 107.12 88.05 108.80 85.82 C 108.35 85.33 107.44 84.37 106.99 83.89 C 103.38 84.33 101.13 87.49 98.64 89.79 M 127.75 96.61 C 130.26 95.54 132.51 94.00 134.77 92.49 C 133.30 90.77 133.08 88.64 133.24 86.46 C 130.70 89.44 129.70 93.28 127.75 96.61 M 139.89 95.55 C 140.53 97.01 141.13 98.49 141.67 99.99 C 140.02 99.18 138.41 98.28 136.92 97.19 C 132.00 98.57 126.85 98.49 121.80 98.98 C 122.92 97.28 124.82 96.34 125.89 94.61 C 124.41 95.33 122.93 96.03 121.44 96.71 C 121.90 99.17 120.67 100.82 118.45 101.78 C 123.76 105.01 129.71 106.88 135.16 109.87 C 138.88 106.95 140.53 102.18 144.55 99.60 C 143.39 103.85 140.48 107.38 137.23 110.26 C 137.85 110.56 139.09 111.16 139.71 111.46 C 144.50 107.13 150.47 103.94 153.73 98.13 C 152.96 98.54 151.43 99.36 150.66 99.77 C 148.37 97.30 147.44 94.04 146.36 90.95 C 144.67 93.11 142.68 95.02 139.89 95.55 M 95.27 94.22 C 92.88 98.33 90.58 102.54 88.96 107.03 C 92.38 103.05 94.73 98.32 98.06 94.29 C 99.08 94.71 100.09 95.14 101.11 95.58 C 101.24 95.01 101.50 93.88 101.63 93.32 C 99.55 92.67 96.51 91.66 95.27 94.22 M 99.34 107.79 C 103.35 106.29 106.19 102.34 110.80 102.37 C 111.31 103.08 112.33 104.48 112.84 105.18 C 106.59 104.27 101.98 109.04 97.91 112.99 C 98.38 113.38 99.33 114.17 99.80 114.56 C 101.28 112.79 102.75 110.94 104.64 109.59 C 107.23 108.64 109.92 108.02 112.61 107.42 C 111.53 109.82 109.22 111.01 106.90 111.92 C 104.10 112.95 102.26 115.41 100.47 117.66 C 102.13 117.17 103.78 116.67 105.43 116.18 C 105.43 118.24 105.41 120.31 105.44 122.38 C 108.76 116.60 111.94 110.21 117.82 106.59 C 117.39 104.67 117.31 102.70 117.52 100.75 C 116.30 100.35 115.09 99.95 113.88 99.53 C 109.01 102.30 102.25 102.17 99.34 107.79 M 82.60 112.63 C 80.41 117.79 77.80 122.77 75.78 128.00 C 76.18 127.67 76.99 127.01 77.40 126.68 C 79.03 122.71 80.98 118.82 84.04 115.75 C 84.52 111.20 86.90 107.30 88.26 103.02 C 85.64 105.73 84.31 109.34 82.60 112.63 M 107.61 126.45 C 104.81 131.76 103.05 137.53 101.87 143.39 C 105.78 135.10 108.76 126.39 113.24 118.37 C 114.55 115.76 117.33 114.54 119.58 112.90 C 119.07 111.89 118.57 110.88 118.09 109.86 C 112.63 113.91 110.54 120.60 107.61 126.45 M 120.78 115.73 C 119.41 116.75 117.22 116.63 116.44 118.37 C 114.85 121.16 113.07 123.90 111.97 126.93 C 111.19 129.95 108.62 132.11 108.23 135.28 C 106.89 140.48 102.87 146.66 107.04 151.57 C 108.39 146.71 108.80 141.59 111.01 137.00 C 112.09 131.59 114.58 126.69 116.73 121.67 C 118.89 118.40 122.97 117.55 125.80 115.05 C 125.56 113.96 125.33 112.87 125.09 111.78 C 123.65 113.09 122.30 114.50 120.78 115.73 M 139.92 114.41 C 139.51 115.74 140.02 116.21 141.46 115.84 C 141.89 114.49 141.38 114.02 139.92 114.41 M 127.86 115.34 C 127.04 116.76 126.16 118.15 125.29 119.55 C 128.39 118.64 131.52 117.88 134.61 116.93 C 132.31 116.61 130.04 116.14 127.86 115.34 M 92.31 118.35 C 90.27 120.52 89.56 123.50 88.04 125.99 C 84.97 130.01 83.86 135.06 81.38 139.41 C 79.92 141.52 80.85 143.86 81.51 146.08 C 80.54 146.42 79.56 146.74 78.58 147.04 C 80.33 147.38 81.98 148.62 83.81 148.30 C 86.41 143.80 89.73 139.78 91.73 134.93 C 94.76 130.87 95.43 124.08 101.39 123.19 C 98.61 128.80 95.16 134.07 92.95 139.95 C 91.47 143.02 89.31 145.69 87.52 148.58 C 92.22 149.37 97.01 149.92 101.40 151.94 C 101.52 151.27 101.75 149.93 101.87 149.27 C 100.86 149.69 99.86 150.11 98.85 150.54 C 98.40 148.09 98.00 145.63 97.27 143.24 C 98.51 139.51 99.55 135.72 101.23 132.16 C 103.15 128.18 102.40 123.68 103.08 119.45 C 101.70 119.82 100.33 120.26 98.93 120.53 C 97.07 118.87 94.86 117.82 92.31 118.35 M 116.54 130.30 C 114.92 135.04 112.26 139.60 112.28 144.75 C 112.99 146.20 114.16 147.36 115.16 148.61 C 115.65 143.27 116.65 137.99 117.63 132.73 C 118.38 128.53 121.03 124.82 120.87 120.43 C 119.03 123.53 117.45 126.80 116.54 130.30 M 74.05 133.40 C 72.60 133.41 72.02 136.14 73.72 136.23 C 75.11 136.13 75.77 133.51 74.05 133.40 M 158.83 148.79 C 154.49 152.15 151.12 156.71 146.16 159.26 C 146.55 156.55 148.89 154.99 150.28 152.83 C 146.62 156.46 142.71 159.82 138.83 163.22 C 142.57 161.26 146.31 158.15 150.82 159.72 C 152.43 158.29 154.16 157.02 155.99 155.87 C 159.83 153.00 161.94 148.57 165.01 145.01 C 166.10 143.74 166.50 142.09 166.94 140.53 C 163.76 142.81 161.89 146.39 158.83 148.79 M 153.60 150.83 C 156.32 148.86 158.54 146.31 160.75 143.80 C 160.12 143.48 158.86 142.83 158.23 142.50 C 156.90 145.40 155.06 148.01 153.60 150.83 M 134.45 162.90 C 138.77 160.52 143.22 157.43 145.33 152.82 C 141.17 155.52 137.54 159.03 134.45 162.90 M 131.27 170.23 C 131.39 170.98 131.63 172.48 131.75 173.24 C 136.21 169.37 141.46 166.38 145.17 161.68 C 140.81 164.97 135.96 167.45 131.27 170.23 M 140.50 179.79 C 143.22 181.30 146.03 182.77 149.13 183.32 C 147.10 180.65 143.53 180.40 140.50 179.79 Z" />
<path fill="#ffffff" opacity="1.00" d=" M 154.34 63.02 C 155.25 61.94 156.11 60.81 157.12 59.81 C 159.14 60.01 161.16 60.32 163.18 60.57 C 164.30 61.82 165.50 62.99 166.68 64.19 C 163.10 63.89 159.32 63.08 156.22 65.43 C 155.75 64.83 154.81 63.62 154.34 63.02 Z" />
<path fill="#ffffff" opacity="1.00" d=" M 147.10 119.11 C 147.38 119.12 147.95 119.14 148.23 119.15 C 149.87 121.76 151.38 124.53 151.89 127.61 C 148.92 126.24 148.08 122.88 146.65 120.24 C 146.76 119.95 146.98 119.39 147.10 119.11 Z" />
<path fill="#ffffff" opacity="1.00" d=" M 125.02 154.94 C 125.41 154.83 126.18 154.62 126.56 154.51 C 126.47 158.47 126.80 162.47 125.61 166.31 C 124.39 170.99 127.71 175.55 125.54 180.07 C 126.38 180.34 128.06 180.89 128.90 181.17 C 127.46 183.21 126.04 185.27 124.71 187.39 C 129.36 189.61 134.72 189.18 139.28 191.67 C 143.57 193.74 148.39 195.27 151.79 198.76 C 148.14 198.36 144.93 196.25 141.23 196.04 C 143.47 199.34 148.22 199.93 149.72 203.89 C 146.13 201.86 142.18 201.47 138.18 201.03 C 131.27 197.80 123.26 196.59 117.54 191.16 C 118.72 190.88 119.91 190.65 121.11 190.47 C 120.66 186.68 122.94 183.87 125.60 181.51 C 124.29 181.56 122.98 181.61 121.66 181.64 C 123.74 177.63 124.01 173.15 123.24 168.76 C 123.60 164.18 122.70 159.08 125.02 154.94 M 123.22 188.86 C 125.02 191.51 127.22 193.95 130.22 195.27 C 133.70 194.76 136.92 196.06 140.14 197.16 C 138.81 193.69 135.10 192.95 131.83 192.51 C 128.64 192.22 126.03 190.19 123.22 188.86 Z" />
<path fill="#ffffff" opacity="1.00" d=" M 141.26 172.88 C 144.40 171.59 146.90 174.26 149.50 175.58 C 152.33 177.29 155.70 177.56 158.69 178.90 C 152.28 180.35 145.64 177.56 141.26 172.88 Z" />
<path fill="#ffffff" opacity="1.00" d=" M 115.54 183.32 C 116.61 179.96 117.65 176.57 119.22 173.40 C 120.95 177.72 118.29 182.01 117.67 186.30 C 116.35 186.51 115.05 186.72 113.74 186.95 C 114.28 187.91 114.83 188.87 115.40 189.82 C 114.02 190.36 112.66 190.95 111.32 191.59 C 113.72 191.92 116.14 192.10 118.53 192.50 C 114.94 194.30 110.26 194.62 107.40 191.33 C 110.48 189.04 112.76 185.94 115.54 183.32 Z" />
</g>
</svg>
