<?xml version="1.0" encoding="UTF-8" ?>
<!DOCTYPE svg PUBLIC "-//W3C//DTD SVG 1.1//EN" "http://www.w3.org/Graphics/SVG/1.1/DTD/svg11.dtd">
<svg width="256pt" height="256pt" viewBox="0 0 256 256" version="1.1" xmlns="http://www.w3.org/2000/svg">
<g id="#ffffffff">
<path fill="#ffffff" opacity="1.00" d=" M 122.18 36.91 C 125.16 32.56 127.20 27.14 132.14 24.56 C 135.47 23.89 138.44 25.74 141.60 26.42 C 144.05 27.98 145.19 30.83 146.86 33.10 C 146.31 34.73 145.80 36.36 145.33 38.02 C 146.99 39.50 150.18 40.92 149.48 43.62 C 148.10 48.73 147.73 54.18 145.26 58.94 C 146.17 58.37 147.09 57.80 148.01 57.23 C 148.79 59.88 149.70 62.48 150.78 65.01 C 152.99 62.73 155.24 60.48 157.80 58.57 C 160.03 60.31 161.93 62.78 164.88 63.26 C 168.62 63.74 169.65 67.75 171.77 70.22 C 173.91 73.26 178.95 73.37 179.31 77.75 C 177.75 76.96 176.24 76.09 174.74 75.21 C 177.32 78.96 177.84 83.66 180.64 87.28 C 179.69 87.89 178.74 88.49 177.78 89.07 C 180.11 92.41 182.34 95.90 185.12 98.90 C 186.64 100.75 189.27 100.19 191.37 100.57 C 189.52 98.05 188.03 95.29 187.74 92.13 C 188.43 92.22 189.81 92.39 190.49 92.47 C 193.67 96.28 196.55 102.07 202.38 101.54 C 202.37 103.82 202.75 106.08 202.62 108.36 C 206.13 108.06 209.62 108.78 212.64 110.62 C 212.71 115.20 212.95 119.78 212.68 124.36 C 208.15 124.28 203.62 123.86 199.14 123.19 C 196.01 122.41 195.26 119.09 194.43 116.43 C 188.98 115.00 183.11 114.23 178.29 111.14 C 178.01 109.52 178.61 108.34 180.08 107.62 C 182.90 107.45 185.74 107.32 188.56 107.49 C 191.76 108.60 194.94 110.00 197.32 112.50 C 196.93 110.27 197.78 108.34 199.12 106.62 C 192.80 104.77 186.04 104.19 179.46 104.67 C 179.90 101.71 180.27 98.20 178.22 95.73 C 176.55 93.46 174.79 91.26 173.16 88.96 C 171.34 89.95 169.54 90.98 167.75 92.03 C 173.57 95.22 173.44 103.87 180.14 106.03 C 178.38 108.36 176.17 106.48 174.16 105.66 C 172.65 104.96 170.79 104.02 170.70 102.12 C 170.64 99.34 168.61 97.31 167.05 95.21 C 165.88 97.49 164.59 99.71 163.23 101.88 C 162.06 101.27 160.90 100.66 159.74 100.06 C 159.68 101.77 159.55 103.47 159.34 105.17 C 160.24 104.06 161.14 102.97 162.09 101.90 C 162.63 103.33 163.22 104.75 163.83 106.16 C 163.31 107.19 162.82 108.24 162.31 109.28 C 161.08 108.44 159.84 107.62 158.60 106.82 C 158.59 109.48 158.67 112.14 158.87 114.79 C 160.87 114.52 162.87 114.30 164.90 114.33 C 163.55 122.14 163.24 130.04 162.61 137.92 C 163.98 145.58 165.70 153.20 166.26 160.99 C 165.34 163.67 165.10 166.40 165.81 169.17 C 163.09 169.43 160.65 170.56 158.57 172.31 C 158.59 171.49 158.63 169.87 158.66 169.05 C 158.56 169.74 158.38 171.10 158.28 171.79 C 157.51 171.78 155.96 171.76 155.18 171.75 C 155.62 175.44 155.44 179.10 154.79 182.74 C 156.34 184.64 158.42 186.04 160.00 187.93 C 160.85 189.76 161.41 191.71 162.08 193.62 C 160.90 194.41 159.72 195.20 158.52 195.96 C 160.48 198.38 161.86 201.24 162.74 204.21 C 162.90 207.89 162.07 211.50 161.36 215.09 C 162.15 218.64 163.84 222.10 163.43 225.82 C 162.15 227.96 161.26 230.82 158.63 231.65 C 156.03 232.79 153.14 232.68 150.37 232.85 C 150.42 231.81 150.52 229.72 150.57 228.68 C 153.06 227.52 155.74 226.92 158.44 226.47 C 158.46 223.27 159.38 220.20 160.63 217.28 C 159.70 217.35 157.84 217.49 156.91 217.56 C 158.00 214.39 159.74 211.35 159.65 207.91 C 155.07 204.40 155.53 197.67 157.54 192.86 C 155.87 190.12 153.71 187.78 151.41 185.57 C 149.74 181.07 150.42 176.15 150.32 171.46 C 147.23 170.91 144.52 172.49 141.89 173.84 C 139.84 172.65 137.64 171.74 135.40 170.99 C 135.93 175.13 136.38 179.37 138.26 183.16 C 138.69 186.03 138.61 188.95 137.73 191.73 C 138.49 196.40 140.70 200.65 141.91 205.20 C 142.30 204.64 143.08 203.54 143.47 202.99 C 143.38 206.49 143.44 210.05 144.38 213.46 C 145.93 215.38 148.97 216.91 148.48 219.79 C 148.03 223.24 149.78 226.49 149.77 229.95 C 148.20 229.06 145.84 228.77 145.32 226.76 C 144.05 224.59 144.86 222.06 145.00 219.73 C 141.45 219.15 138.80 215.58 139.54 212.00 C 140.21 207.62 137.97 203.02 134.55 200.30 C 134.86 197.33 133.85 194.54 132.93 191.78 C 132.23 187.05 132.93 182.16 131.73 177.51 C 131.12 175.33 132.15 173.19 132.62 171.10 C 129.05 172.13 125.28 170.90 121.78 171.89 C 122.51 172.28 123.97 173.06 124.70 173.44 C 120.86 174.11 119.77 179.09 119.36 182.48 C 120.50 183.38 121.65 184.26 122.80 185.15 C 120.24 186.48 117.62 187.68 114.97 188.83 C 116.43 189.81 117.84 190.86 119.19 191.99 C 116.57 191.60 114.54 189.75 112.16 188.72 C 113.25 191.21 114.67 193.61 117.21 194.83 C 116.59 196.14 115.96 197.46 115.34 198.77 C 114.14 197.21 112.88 195.66 111.25 194.53 C 111.97 197.44 113.48 200.05 114.30 202.92 C 112.84 202.71 111.38 202.46 109.94 202.19 C 108.28 203.99 106.87 206.00 105.30 207.88 C 106.22 209.78 107.22 211.63 108.02 213.58 C 106.00 212.92 104.87 211.19 103.84 209.46 C 100.99 212.37 102.27 216.55 103.76 219.75 C 102.55 218.77 101.49 217.63 101.42 216.00 C 100.42 216.22 98.43 216.67 97.44 216.89 C 98.29 217.60 99.14 218.31 99.99 219.02 C 98.81 220.47 97.51 221.82 96.09 223.04 C 96.79 223.96 97.48 224.88 98.16 225.81 C 96.72 225.72 95.28 225.62 93.85 225.52 C 92.56 229.61 92.45 234.61 88.77 237.43 C 88.52 231.71 86.08 225.57 88.04 220.03 C 90.87 218.33 92.02 223.08 93.53 224.76 C 91.95 221.35 90.65 217.60 91.82 213.83 C 91.16 213.27 90.51 212.70 89.87 212.13 C 89.62 214.36 89.52 216.59 89.43 218.84 C 88.87 218.83 87.74 218.82 87.18 218.81 C 86.29 217.42 87.06 215.68 86.71 214.16 C 86.27 210.12 84.20 206.53 82.67 202.84 C 82.37 197.10 84.18 191.57 85.19 185.98 C 85.42 182.39 88.39 179.95 90.11 177.02 C 92.91 172.35 95.15 167.35 98.44 162.98 C 96.12 162.19 93.82 161.31 91.64 160.19 C 91.59 158.54 91.52 156.90 91.44 155.25 C 94.95 157.29 98.90 157.72 102.90 157.71 C 101.20 154.01 99.35 150.33 96.85 147.10 C 95.52 145.37 93.10 145.52 91.15 145.22 C 89.67 142.29 87.17 140.22 84.52 138.40 C 81.53 136.48 80.65 132.91 79.07 129.95 C 77.08 126.31 77.34 121.95 75.69 118.20 C 74.14 115.28 74.76 111.70 72.22 109.24 C 72.83 107.50 73.42 105.75 73.99 103.99 C 74.53 104.25 75.60 104.78 76.14 105.04 C 76.96 108.85 78.97 112.18 80.68 115.63 C 81.55 115.61 83.27 115.59 84.14 115.57 C 82.93 117.06 82.00 118.71 81.30 120.49 C 82.50 121.34 83.64 122.30 84.94 123.00 C 87.71 121.71 90.41 120.27 93.25 119.12 C 93.35 118.85 93.54 118.31 93.63 118.05 C 89.98 114.24 88.02 108.98 83.72 105.81 C 80.24 105.69 76.94 104.81 73.67 103.64 C 73.37 102.95 72.79 101.56 72.49 100.87 C 76.88 94.59 79.87 87.16 85.91 82.19 C 84.17 77.35 84.34 72.20 84.47 67.14 C 84.58 65.44 85.56 63.97 86.19 62.43 C 91.42 63.22 95.39 59.12 100.26 58.04 C 105.23 55.04 110.28 59.44 115.36 59.92 C 116.32 62.15 117.55 64.28 118.36 66.58 C 120.22 66.42 122.09 66.46 123.96 66.42 C 122.94 60.59 120.51 54.98 120.52 48.99 C 119.38 48.18 118.24 47.37 117.11 46.55 C 117.30 44.57 117.29 42.56 117.69 40.60 C 118.90 39.05 120.73 38.20 122.18 36.91 M 132.87 29.42 C 131.67 31.88 129.52 33.83 128.70 36.47 C 128.32 39.38 127.94 42.34 126.45 44.93 C 124.46 44.59 122.46 44.28 120.48 43.86 C 121.90 45.00 123.33 46.12 124.73 47.28 C 125.41 46.61 126.09 45.95 126.78 45.29 C 129.12 49.35 130.53 53.79 132.05 58.20 C 131.20 58.85 130.37 59.52 129.55 60.21 C 131.10 60.76 132.67 61.28 134.22 61.83 C 133.05 60.34 131.52 58.74 132.55 56.72 C 135.96 55.96 139.44 55.70 142.92 55.50 C 143.56 52.03 145.57 49.00 146.04 45.49 C 144.97 44.24 143.74 43.13 142.86 41.73 C 141.98 39.64 142.63 37.38 142.67 35.22 C 141.76 33.03 140.23 31.19 138.71 29.41 C 136.76 29.43 134.81 29.43 132.87 29.42 M 138.54 65.53 C 135.39 66.35 132.21 67.09 129.06 67.92 C 131.60 71.88 135.41 74.59 138.94 77.58 C 141.86 75.54 145.06 73.87 148.55 73.07 C 148.47 71.33 148.54 69.59 148.35 67.86 C 147.22 66.58 145.83 65.54 144.46 64.54 C 144.74 63.32 145.00 62.10 145.26 60.87 C 143.08 62.49 141.10 64.52 138.54 65.53 M 89.55 70.12 C 88.93 72.14 89.52 74.28 89.58 76.33 C 95.28 73.97 101.34 72.02 106.21 68.10 C 106.35 69.59 106.50 71.08 106.65 72.58 C 104.48 73.40 102.38 74.64 99.98 74.60 C 96.55 74.56 94.13 77.29 91.32 78.84 C 91.36 79.49 91.43 80.79 91.47 81.44 C 96.53 79.62 101.85 78.31 106.50 75.53 C 108.63 73.62 111.39 71.21 110.18 68.01 C 109.29 69.89 108.52 71.83 107.64 73.71 C 107.39 71.71 107.42 69.69 107.42 67.68 C 110.19 67.78 112.93 67.27 115.45 66.11 C 109.61 62.27 102.42 65.23 96.33 66.89 C 95.98 66.39 95.29 65.40 94.94 64.90 C 93.54 67.03 91.41 68.43 89.55 70.12 M 156.31 64.09 C 154.46 67.59 154.41 71.83 152.07 75.06 C 150.00 79.05 143.81 77.80 142.12 82.22 C 141.56 86.23 141.05 90.24 140.23 94.21 C 141.38 95.32 142.52 96.44 143.65 97.58 C 142.66 98.31 141.69 99.08 140.75 99.88 C 140.41 102.29 140.16 104.71 139.62 107.09 C 141.02 108.34 142.41 109.60 143.78 110.90 C 142.14 111.54 140.50 112.17 138.87 112.81 C 139.81 113.75 140.77 114.68 141.68 115.66 C 146.25 115.52 151.02 116.31 155.39 114.54 C 155.15 110.53 156.76 106.02 154.15 102.53 C 153.65 103.07 152.65 104.16 152.14 104.70 C 152.50 104.03 153.20 102.70 153.55 102.03 C 149.45 102.61 144.37 104.15 141.32 100.38 C 142.47 100.39 143.63 100.38 144.79 100.36 C 149.89 97.76 155.76 97.32 160.93 94.88 C 163.43 93.61 161.95 90.60 162.21 88.43 C 158.82 88.40 155.33 88.14 152.05 89.18 C 148.57 90.24 144.84 89.23 141.34 90.30 C 141.79 89.08 142.20 87.81 142.90 86.71 C 148.83 85.41 154.90 84.52 160.97 84.23 C 159.54 77.51 159.19 70.40 156.31 64.09 M 162.30 65.96 C 162.76 68.92 162.59 72.18 164.46 74.69 C 165.82 76.43 165.34 78.74 165.61 80.78 C 168.05 79.35 170.21 77.42 170.51 74.42 C 169.01 75.86 167.87 77.60 166.75 79.34 C 166.36 75.77 165.38 72.28 165.29 68.67 C 164.29 67.77 163.29 66.86 162.30 65.96 M 111.16 70.70 C 111.44 72.49 112.03 74.20 112.74 75.87 C 110.15 76.83 107.64 77.99 105.24 79.34 C 101.56 81.52 97.34 82.41 93.45 84.09 C 94.78 84.41 96.05 85.60 97.46 85.26 C 99.38 84.15 101.17 82.78 103.25 81.96 C 106.51 80.38 110.58 80.21 113.06 77.26 C 113.78 75.04 114.35 72.76 114.78 70.46 C 113.57 70.54 112.36 70.62 111.16 70.70 M 120.05 72.88 C 118.94 74.20 119.08 76.08 118.61 77.66 C 117.38 84.60 113.17 90.55 108.36 95.51 C 109.38 100.57 111.71 105.48 111.70 110.80 C 112.83 110.43 113.94 110.02 115.10 109.73 C 121.38 112.78 128.37 115.92 135.50 114.37 C 131.18 108.95 124.46 107.03 118.78 103.47 C 115.12 104.37 112.90 101.11 111.53 98.20 C 112.61 97.65 113.69 97.09 114.77 96.53 C 120.90 100.55 127.08 104.98 134.36 106.58 C 134.19 103.87 134.07 101.05 135.83 98.80 C 128.07 98.81 120.82 95.58 114.06 92.08 C 115.88 90.94 117.52 88.98 119.87 89.22 C 122.07 89.73 123.89 91.28 126.14 91.62 C 129.88 92.31 133.10 94.53 136.85 95.18 C 133.92 91.36 136.63 86.92 136.92 82.73 C 132.67 79.90 128.88 76.42 126.06 72.14 C 124.07 72.52 122.06 72.68 120.05 72.88 M 167.50 82.78 C 169.58 82.52 171.66 82.19 173.69 81.65 C 173.80 79.79 173.29 78.07 172.17 76.57 C 170.56 78.60 168.97 80.65 167.50 82.78 M 166.55 84.19 C 166.53 84.83 166.49 86.11 166.47 86.75 C 166.99 86.67 168.05 86.51 168.58 86.43 C 168.66 85.86 168.82 84.71 168.90 84.13 C 168.31 84.15 167.14 84.17 166.55 84.19 M 88.16 86.70 C 85.52 91.24 82.87 95.77 80.25 100.33 C 82.95 98.12 85.64 95.82 87.76 93.02 C 88.62 91.97 88.38 90.00 89.81 89.50 C 90.31 90.10 91.31 91.28 91.81 91.88 C 92.06 95.78 88.02 97.19 86.32 100.13 C 89.89 99.38 90.85 95.09 93.66 93.03 C 91.41 91.22 90.42 88.47 88.16 86.70 M 90.78 104.35 C 93.61 108.09 95.55 112.35 97.67 116.49 C 99.62 117.73 101.48 119.09 102.95 120.90 C 101.20 123.32 98.59 124.76 96.09 126.26 C 93.25 128.75 91.43 132.14 89.45 135.30 C 88.20 134.02 86.96 132.74 85.68 131.49 C 85.89 132.23 86.30 133.71 86.50 134.45 C 90.37 135.10 93.34 137.58 95.67 140.60 C 96.86 140.42 98.05 140.25 99.25 140.08 C 100.07 142.65 101.61 144.87 103.39 146.87 C 103.59 144.44 103.55 142.00 103.46 139.56 C 107.34 136.90 112.78 136.44 116.91 138.80 C 120.62 141.10 124.78 138.52 128.42 137.36 C 127.96 140.35 125.77 142.40 123.89 144.57 C 122.30 144.53 120.70 144.46 119.11 144.37 C 119.29 145.08 119.65 146.50 119.84 147.21 C 121.45 146.36 123.03 145.47 124.63 144.59 C 125.39 151.66 123.00 158.51 123.29 165.56 C 126.23 165.56 129.29 165.40 131.53 167.68 C 134.28 161.89 130.89 155.97 131.49 150.01 C 131.10 146.06 132.54 142.15 134.71 138.89 C 132.66 136.60 132.29 133.65 132.45 130.71 C 130.90 129.90 129.37 129.08 127.82 128.30 C 127.15 130.66 126.50 133.04 125.78 135.40 C 122.79 136.22 120.25 138.55 117.05 138.52 C 114.48 137.81 112.74 135.61 110.29 134.67 C 107.91 133.56 105.36 132.52 103.59 130.50 C 102.29 128.68 101.36 126.61 100.10 124.76 C 101.45 123.72 102.82 122.72 104.21 121.74 C 104.66 122.57 105.55 124.25 106.00 125.09 C 106.80 122.94 107.75 120.85 108.47 118.68 C 108.15 112.88 105.54 107.13 106.75 101.27 C 104.98 99.98 103.37 98.51 101.68 97.15 C 101.71 95.73 101.75 94.31 101.77 92.89 C 101.04 92.82 99.57 92.69 98.83 92.62 C 95.34 96.03 94.86 101.36 90.78 104.35 M 198.52 111.16 C 199.38 112.93 200.21 114.72 200.99 116.54 C 200.18 116.89 198.54 117.59 197.72 117.94 C 200.72 119.84 204.25 119.33 207.62 119.29 C 207.72 117.28 207.79 115.27 207.79 113.26 C 204.77 112.26 201.70 111.42 198.52 111.16 M 113.85 114.20 C 116.89 117.14 120.72 119.03 124.04 121.61 C 125.09 120.78 126.15 119.95 127.20 119.11 C 127.67 120.48 128.15 121.84 128.62 123.21 C 130.59 123.91 132.58 124.59 134.61 125.14 C 133.25 123.04 132.31 120.76 132.79 118.22 C 130.56 118.24 128.32 118.31 126.10 118.16 C 122.04 116.76 118.24 114.48 113.85 114.20 M 140.87 120.09 C 139.85 122.41 139.01 124.81 138.28 127.24 C 142.66 128.22 147.21 127.49 151.56 126.68 C 152.55 123.99 154.57 121.94 156.22 119.66 C 151.18 120.75 145.98 120.37 140.87 120.09 M 151.37 131.23 C 152.02 132.19 152.72 133.12 153.29 134.14 C 152.84 137.06 152.75 140.02 152.36 142.94 C 154.34 147.77 153.08 153.03 152.31 157.97 C 152.66 160.68 153.10 164.67 156.42 165.10 C 156.56 162.37 156.56 159.59 157.64 157.03 C 155.05 153.45 157.80 148.83 155.27 145.13 C 156.73 142.42 158.11 139.66 159.29 136.81 C 158.07 137.53 156.88 138.30 155.68 139.07 C 155.56 137.25 155.48 135.42 155.42 133.60 C 156.18 133.54 157.70 133.43 158.45 133.38 C 157.90 130.08 158.57 126.83 159.59 123.71 C 156.14 125.44 153.44 128.00 151.37 131.23 M 115.31 123.23 C 113.50 126.21 110.01 127.20 107.46 129.35 C 113.40 129.03 119.36 131.84 123.64 135.86 C 123.23 132.95 123.01 129.99 123.51 127.07 C 120.68 126.01 118.05 124.51 115.31 123.23 M 137.40 132.47 C 136.44 135.08 136.07 137.93 134.38 140.22 C 134.93 141.69 136.01 143.18 135.42 144.82 C 134.19 148.35 134.54 152.20 135.14 155.81 C 136.56 158.69 136.49 161.88 136.35 165.01 C 140.50 164.12 144.76 164.49 148.97 164.49 C 148.42 162.84 147.01 161.17 148.02 159.42 C 149.43 156.66 147.44 153.88 147.47 151.06 C 147.54 145.92 147.13 140.65 148.77 135.70 C 147.50 134.70 146.24 133.68 145.00 132.65 C 145.98 132.56 147.92 132.38 148.90 132.29 C 148.52 131.71 148.16 131.12 147.82 130.52 C 144.81 132.73 140.99 133.15 137.40 132.47 M 156.97 143.52 C 156.32 145.14 156.82 145.69 158.47 145.14 C 159.13 143.48 158.63 142.93 156.97 143.52 M 114.83 153.78 C 114.25 155.46 113.55 157.10 112.71 158.67 C 110.70 158.69 108.69 158.54 106.68 158.39 C 106.94 158.87 107.44 159.82 107.69 160.29 C 112.11 160.37 116.25 161.91 120.48 162.98 C 120.34 158.99 120.24 154.99 120.68 151.01 C 118.83 152.13 116.98 153.34 114.83 153.78 M 160.44 162.96 C 159.62 164.13 161.38 166.26 162.50 164.95 C 163.25 163.80 161.53 161.60 160.44 162.96 M 104.02 165.26 C 98.81 171.93 94.97 179.48 90.49 186.61 C 89.32 190.31 88.19 194.10 87.62 197.93 C 88.80 201.37 91.31 204.22 92.87 207.51 C 94.17 207.44 95.48 207.39 96.79 207.36 C 97.15 204.30 95.27 200.89 97.26 198.18 C 99.10 194.81 99.62 190.94 100.94 187.37 C 99.37 187.40 97.81 187.46 96.25 187.53 C 96.69 186.58 97.14 185.63 97.58 184.68 C 100.49 183.52 103.26 182.04 105.91 180.37 C 105.27 179.24 104.51 178.20 103.88 177.07 C 101.55 178.37 98.42 176.93 99.64 173.94 C 102.30 172.74 105.23 173.54 107.97 173.97 C 109.16 172.79 110.28 171.55 111.37 170.28 C 111.84 171.49 112.32 172.70 112.80 173.91 C 113.66 171.72 114.62 169.58 115.78 167.53 C 111.90 166.55 108.04 165.43 104.02 165.26 Z" />
<path fill="#ffffff" opacity="1.00" d=" M 129.98 46.93 C 131.43 45.00 132.79 41.50 135.82 42.94 C 138.46 44.29 141.33 44.54 144.26 44.59 C 143.53 46.18 142.91 48.60 140.85 48.79 C 139.07 49.23 137.76 47.75 136.38 46.91 C 137.70 48.94 138.86 51.15 138.62 53.65 C 137.60 53.72 136.58 53.74 135.56 53.70 C 134.13 51.10 132.08 48.99 129.98 46.93 Z" />
<path fill="#ffffff" opacity="1.00" d=" M 188.55 83.13 C 189.55 81.82 191.59 83.59 190.70 84.85 C 189.72 86.23 187.67 84.37 188.55 83.13 Z" />
<path fill="#ffffff" opacity="1.00" d=" M 200.85 96.31 C 201.79 94.92 204.52 96.32 203.33 97.83 C 202.36 99.13 199.59 97.84 200.85 96.31 Z" />
<path fill="#ffffff" opacity="1.00" d=" M 99.20 101.95 C 101.59 101.16 100.83 105.62 98.89 105.41 C 97.41 104.83 98.06 102.56 99.20 101.95 Z" />
<path fill="#ffffff" opacity="1.00" d=" M 170.32 105.25 C 173.70 105.31 168.86 108.27 170.32 105.25 Z" />
<path fill="#ffffff" opacity="1.00" d=" M 67.82 120.82 C 70.31 121.06 72.65 120.49 74.76 119.14 C 73.51 120.53 72.20 121.88 70.89 123.23 C 69.85 122.44 68.83 121.64 67.82 120.82 Z" />
<path fill="#ffffff" opacity="1.00" d=" M 143.96 191.31 C 147.41 193.32 147.65 197.21 147.52 200.77 C 148.76 202.38 150.05 203.95 151.38 205.50 C 150.93 206.58 150.49 207.67 150.07 208.77 C 150.90 210.00 151.72 211.26 152.47 212.55 C 149.83 210.01 148.31 206.60 146.73 203.36 C 146.46 201.32 146.67 199.25 146.31 197.22 C 145.58 195.23 144.53 193.36 143.96 191.31 Z" />
<path fill="#ffffff" opacity="1.00" d=" M 95.26 193.43 C 96.64 192.26 98.68 194.51 96.97 195.53 C 95.59 196.65 93.47 194.45 95.26 193.43 Z" />
</g>
</svg>
