<?xml version="1.0" encoding="UTF-8" ?>
<!DOCTYPE svg PUBLIC "-//W3C//DTD SVG 1.1//EN" "http://www.w3.org/Graphics/SVG/1.1/DTD/svg11.dtd">
<svg width="128pt" height="128pt" viewBox="0 0 128 128" version="1.1" xmlns="http://www.w3.org/2000/svg">
<g id="#ffffffff">
<path fill="#ffffff" opacity="1.00" d=" M 88.12 10.16 C 90.53 8.16 93.23 6.57 96.02 5.16 C 96.57 5.78 97.13 6.38 97.71 6.99 C 95.71 8.51 93.18 9.77 92.39 12.34 C 91.65 14.92 88.65 15.42 86.71 16.80 C 86.58 16.08 86.34 14.65 86.21 13.93 C 88.03 13.24 90.20 12.84 91.35 11.10 C 86.68 13.05 81.70 14.59 76.62 14.87 C 76.56 14.17 76.42 12.77 76.36 12.06 C 77.56 12.36 78.76 12.68 79.96 12.99 C 82.16 10.55 85.74 12.18 88.12 10.16 Z" />
<path fill="#ffffff" opacity="1.00" d=" M 73.51 23.31 C 75.10 22.21 76.14 20.40 77.99 19.65 C 80.28 19.41 82.59 19.51 84.89 19.47 C 84.04 24.94 77.98 26.37 73.58 28.02 L 73.01 29.42 C 75.14 29.37 77.27 29.30 79.39 29.17 C 83.85 28.05 87.63 23.83 92.50 24.75 C 92.31 25.80 92.14 26.85 91.97 27.90 C 88.31 29.46 84.84 31.43 81.14 32.91 C 80.29 32.06 79.30 31.47 78.08 31.85 C 78.63 32.11 79.73 32.64 80.28 32.91 C 79.82 33.85 79.36 34.79 78.91 35.73 C 83.10 32.97 88.40 33.24 92.78 30.92 C 94.27 29.99 96.05 30.26 97.71 30.22 C 97.67 31.36 97.64 32.50 97.61 33.64 C 93.93 35.11 90.19 37.59 86.08 36.26 C 87.06 36.74 88.03 37.22 89.01 37.70 C 86.73 39.06 83.65 39.70 82.49 42.37 C 84.43 42.46 86.24 41.81 88.02 41.13 C 88.29 41.55 88.84 42.39 89.11 42.81 C 90.23 41.02 91.62 39.33 93.76 38.77 C 94.34 39.34 95.50 40.47 96.08 41.04 C 91.66 44.99 85.65 46.05 80.44 48.51 C 78.32 50.75 79.63 53.52 81.09 55.67 C 80.13 55.64 79.18 55.60 78.22 55.54 C 76.75 62.30 74.98 69.05 74.52 75.98 C 76.47 72.57 80.78 68.80 84.89 70.76 C 82.47 72.84 79.56 74.15 76.88 75.83 C 77.37 76.92 77.85 78.01 78.31 79.11 C 77.06 78.52 75.81 77.92 74.56 77.32 C 72.54 85.66 70.89 94.10 69.50 102.57 C 68.01 108.19 61.81 109.72 57.43 112.41 C 51.61 116.24 44.91 118.76 39.84 123.65 C 39.45 122.97 38.66 121.62 38.27 120.94 C 43.46 116.81 48.71 112.61 54.92 110.10 C 59.30 108.43 63.04 105.54 66.99 103.08 C 64.58 104.02 62.33 105.71 59.62 105.50 C 61.01 102.90 63.63 101.18 66.29 100.06 C 67.93 93.73 68.08 87.18 69.32 80.80 C 69.66 78.81 66.70 78.46 66.36 76.58 C 67.27 76.61 69.08 76.65 69.99 76.68 C 71.92 72.73 71.85 68.27 73.22 64.15 C 74.31 59.91 75.12 55.60 75.95 51.30 C 73.87 51.90 71.86 52.72 69.89 53.59 C 68.95 53.09 68.02 52.58 67.09 52.08 C 65.25 52.83 63.37 53.52 61.40 53.83 C 60.96 52.68 60.54 51.53 60.15 50.36 C 64.14 48.46 67.13 44.90 71.42 43.58 C 73.37 42.59 76.06 42.13 76.94 39.84 C 74.05 40.55 71.10 40.80 68.14 40.91 C 68.24 39.70 68.32 38.48 68.38 37.27 C 70.39 36.10 72.20 33.67 74.78 34.35 C 76.45 34.15 77.20 35.72 78.10 36.81 C 77.75 35.74 77.40 34.67 77.07 33.59 C 73.44 33.41 69.79 33.28 66.20 32.72 C 65.19 30.28 65.60 28.03 68.07 26.74 C 68.97 28.46 69.43 30.84 71.76 31.02 C 71.75 29.75 71.73 28.49 71.70 27.22 C 71.04 27.29 69.72 27.42 69.05 27.49 C 68.76 26.84 68.16 25.54 67.86 24.89 C 69.76 24.46 71.76 24.23 73.51 23.31 M 79.39 22.22 C 78.25 22.45 77.39 24.52 78.89 24.88 C 80.92 25.51 81.93 21.25 79.39 22.22 Z" />
<path fill="#ffffff" opacity="1.00" d=" M 61.83 74.20 C 63.99 75.16 66.83 75.83 66.89 78.74 C 64.95 78.25 63.03 77.73 61.08 77.30 C 61.33 76.26 61.58 75.23 61.83 74.20 Z" />
</g>
</svg>
