<?xml version="1.0" encoding="UTF-8" ?>
<!DOCTYPE svg PUBLIC "-//W3C//DTD SVG 1.1//EN" "http://www.w3.org/Graphics/SVG/1.1/DTD/svg11.dtd">
<svg width="512pt" height="128pt" viewBox="0 0 512 128" version="1.1" xmlns="http://www.w3.org/2000/svg">
<g id="#ffffffff">
<path fill="#ffffff" opacity="1.00" d=" M 81.44 30.48 C 97.17 20.92 116.13 20.11 134.03 20.33 C 149.70 20.27 165.18 23.25 180.37 26.85 C 185.25 28.09 189.43 31.02 194.05 32.90 C 200.04 35.36 205.30 39.68 208.67 45.23 C 210.16 47.55 210.41 50.65 209.10 53.11 C 206.52 58.44 201.13 61.53 196.02 64.01 C 185.89 69.32 174.47 72.19 163.02 71.94 C 158.73 71.92 154.50 71.12 150.21 71.16 C 146.69 78.87 144.96 87.29 141.27 94.89 C 137.50 91.60 134.18 87.70 129.68 85.35 C 127.97 84.80 127.56 83.06 127.46 81.47 C 132.35 83.44 136.09 87.20 140.06 90.51 C 142.18 83.93 143.84 77.12 147.28 71.05 C 146.35 69.36 145.16 67.79 144.57 65.94 C 144.59 64.26 145.55 62.79 146.12 61.26 C 147.94 60.63 149.72 59.88 151.57 59.30 C 150.43 61.54 148.51 63.38 147.96 65.89 C 150.93 65.10 151.55 61.96 151.95 59.35 C 153.42 56.64 154.32 53.64 156.09 51.10 C 159.14 46.39 161.08 41.11 162.96 35.86 C 163.59 36.54 164.23 37.22 164.87 37.89 C 160.12 47.61 155.52 57.40 151.80 67.57 C 165.45 70.55 179.25 66.51 192.14 62.16 C 196.65 59.95 201.78 58.09 204.98 54.03 C 207.07 51.44 205.92 48.03 204.51 45.43 C 200.66 40.14 195.12 36.36 189.16 33.78 C 182.83 31.04 176.26 28.65 169.39 27.73 C 159.32 25.95 149.29 23.41 138.99 23.68 C 126.62 22.92 114.05 23.10 101.90 25.80 C 95.17 27.43 88.29 29.48 82.68 33.69 C 80.20 35.50 78.98 39.21 81.27 41.70 C 85.09 46.15 90.58 48.92 96.01 50.93 C 104.47 53.72 113.04 56.34 121.91 57.42 C 128.29 58.93 134.93 59.16 141.44 58.43 C 142.82 58.16 144.18 58.57 145.51 58.91 C 143.60 61.03 140.75 61.67 138.01 61.73 C 129.71 61.63 121.55 60.18 113.39 58.81 C 101.46 56.70 90.02 51.86 80.13 44.86 C 75.14 41.45 77.59 33.80 81.44 30.48 Z" />
<path fill="#ffffff" opacity="1.00" d=" M 225.23 36.99 C 226.89 38.17 229.20 39.10 229.60 41.35 C 230.69 47.14 228.33 52.82 225.89 57.94 C 221.59 66.75 216.42 75.47 208.66 81.66 C 206.42 83.27 204.60 86.10 206.00 88.87 C 211.78 88.48 216.72 85.19 221.92 83.01 C 223.90 82.13 226.17 81.29 227.24 79.25 C 229.41 75.04 232.13 70.70 236.44 68.44 C 239.16 66.91 243.60 67.65 244.45 71.02 C 242.53 76.59 236.47 78.85 232.01 82.02 C 229.07 83.34 228.80 86.98 229.16 89.77 C 233.13 89.86 236.50 87.59 239.92 85.88 C 243.24 84.03 247.10 82.52 249.07 79.04 C 251.83 74.59 255.13 70.00 260.21 68.08 C 262.66 67.20 266.26 66.70 267.73 69.44 C 269.51 72.08 267.57 74.98 266.34 77.38 C 264.39 80.78 262.81 84.49 262.77 88.48 C 267.05 86.42 270.57 83.16 274.44 80.47 C 278.93 77.33 283.18 73.87 287.35 70.32 C 289.08 68.86 290.52 67.00 292.62 66.02 C 293.10 67.26 294.31 68.50 293.88 69.92 C 292.61 75.52 290.17 80.77 287.68 85.93 C 290.52 84.82 293.28 83.48 295.77 81.72 C 301.40 77.69 307.83 75.04 313.93 71.82 C 316.94 70.42 319.80 68.57 323.05 67.78 C 325.53 67.48 328.85 69.90 327.61 72.60 C 325.48 76.82 321.18 80.99 322.91 86.11 C 330.90 81.79 337.68 75.50 344.14 69.20 C 347.73 70.23 344.90 74.51 344.72 76.94 C 348.67 74.26 352.55 71.40 357.06 69.72 C 361.19 74.73 355.39 80.63 356.98 86.20 C 361.37 85.05 364.58 81.65 368.39 79.40 C 372.51 76.51 377.23 74.41 380.75 70.74 C 382.34 69.25 384.07 67.82 386.11 66.97 C 387.80 66.90 388.46 68.71 389.42 69.75 C 388.52 70.86 387.64 71.97 386.78 73.11 C 386.20 72.34 385.62 71.57 385.05 70.81 C 380.86 73.67 375.92 78.60 377.89 84.12 C 382.64 84.81 387.35 83.44 391.79 81.90 C 394.77 81.03 395.99 77.95 397.72 75.68 C 399.53 72.94 402.20 70.92 405.06 69.38 C 406.35 70.89 408.51 72.66 407.20 74.86 C 405.65 79.46 400.59 80.87 396.85 83.16 C 401.05 86.69 407.05 87.40 412.24 86.02 C 420.45 85.04 428.39 81.15 433.80 74.84 C 435.05 73.56 433.95 71.76 434.12 70.22 C 434.49 68.87 435.29 67.70 435.96 66.48 C 437.68 67.81 438.41 69.85 438.49 71.97 C 436.69 75.76 433.61 78.76 430.84 81.86 C 428.44 84.28 425.70 86.71 422.24 87.37 C 419.98 87.83 417.92 88.88 415.79 89.72 C 412.48 90.40 409.02 89.88 405.72 90.75 C 401.11 90.73 396.47 88.60 393.99 84.55 C 389.01 87.19 383.52 87.89 378.00 88.45 C 375.74 87.69 373.72 85.52 373.78 83.04 C 373.77 81.10 374.55 79.28 374.98 77.41 C 369.65 80.92 364.68 85.03 358.98 87.95 C 357.50 88.82 355.80 88.98 354.12 89.00 C 353.93 84.06 354.97 79.19 355.32 74.27 C 347.46 76.05 342.83 83.20 337.89 88.91 C 337.16 90.47 334.38 90.12 335.10 88.12 C 336.16 84.87 337.83 81.86 338.95 78.63 C 332.81 81.44 328.76 87.59 322.60 90.47 C 321.09 91.02 319.35 90.37 318.59 88.95 C 318.36 85.32 319.96 81.98 321.08 78.62 C 316.86 82.56 313.98 88.05 308.68 90.75 C 307.24 91.63 305.11 90.47 305.24 88.76 C 305.28 83.92 308.74 80.19 310.97 76.19 C 306.08 77.75 302.02 81.02 297.77 83.78 C 292.81 87.30 287.55 91.84 281.07 91.35 C 277.02 90.18 277.56 85.22 277.22 81.91 C 271.92 85.76 267.19 90.74 260.88 92.93 C 257.53 89.36 261.02 84.75 261.41 80.75 C 256.74 84.53 252.29 88.72 247.02 91.66 C 244.53 91.85 243.91 89.50 243.61 87.54 C 239.87 91.33 234.55 93.68 229.18 92.92 C 226.05 92.00 225.45 88.45 224.72 85.75 C 218.72 88.51 212.62 91.54 206.02 92.46 C 203.24 92.56 202.42 89.54 201.16 87.67 C 196.81 91.27 191.39 93.03 186.23 95.14 C 182.06 96.80 177.42 94.38 175.33 90.65 C 173.57 87.89 171.79 83.42 175.11 81.07 C 175.84 83.17 175.20 85.60 176.26 87.57 C 178.75 90.42 182.67 93.05 186.60 91.65 C 190.04 90.32 192.82 87.78 196.05 86.07 C 197.86 84.86 200.06 84.10 201.47 82.40 C 206.56 66.08 213.00 49.39 225.23 36.99 M 219.53 49.55 C 215.93 55.32 212.54 61.36 210.92 68.01 C 210.20 71.26 208.48 74.15 207.49 77.31 C 211.46 74.35 214.46 70.31 217.34 66.34 C 221.44 58.97 225.49 51.16 226.21 42.62 C 223.03 43.80 221.32 46.89 219.53 49.55 M 249.40 85.83 C 252.61 84.49 255.03 81.89 257.59 79.62 C 260.35 76.97 263.59 74.55 265.07 70.89 C 257.37 71.75 251.45 78.70 249.40 85.83 M 232.78 78.13 C 236.30 77.13 238.88 74.36 240.76 71.34 C 237.40 72.34 233.33 74.22 232.78 78.13 M 398.51 79.49 C 402.01 78.70 405.00 75.86 405.72 72.30 C 401.88 72.61 399.77 76.28 398.51 79.49 M 278.92 81.00 C 280.28 83.05 281.52 85.18 282.84 87.26 C 286.26 83.00 289.08 77.95 289.30 72.37 C 285.38 74.58 282.36 78.11 278.92 81.00 M 308.68 85.80 C 311.61 85.04 313.44 82.50 315.51 80.51 C 317.93 77.88 320.91 75.76 322.83 72.70 C 315.50 72.53 310.91 79.71 308.68 85.80 Z" />
</g>
</svg>
