<?xml version="1.0" encoding="UTF-8" ?>
<!DOCTYPE svg PUBLIC "-//W3C//DTD SVG 1.1//EN" "http://www.w3.org/Graphics/SVG/1.1/DTD/svg11.dtd">
<svg width="256pt" height="128pt" viewBox="0 0 256 128" version="1.1" xmlns="http://www.w3.org/2000/svg">
<g id="#ffffffff">
<path fill="#ffffff" opacity="1.00" d=" M 85.62 20.58 C 87.87 17.57 90.99 15.44 94.00 13.28 C 96.08 14.68 98.60 16.02 99.21 18.69 C 100.71 24.35 98.77 30.29 96.40 35.43 C 93.01 41.17 88.74 46.37 84.20 51.23 C 76.35 57.94 67.55 64.39 57.14 66.20 C 53.33 68.81 50.75 73.01 47.41 76.23 C 51.84 77.54 56.45 78.13 60.98 79.00 C 64.33 79.77 66.20 76.22 68.39 74.39 C 71.51 71.67 73.27 67.90 75.67 64.62 C 76.52 63.02 78.47 63.51 79.94 63.33 C 78.79 70.20 70.59 74.83 71.72 82.41 C 77.34 80.77 81.45 76.46 85.59 72.58 C 88.00 70.23 89.34 67.07 91.26 64.34 C 91.96 64.33 93.37 64.31 94.08 64.31 C 94.96 66.69 93.46 68.92 92.81 71.15 C 95.99 69.08 98.90 65.61 102.88 65.50 C 106.28 66.61 104.87 70.26 105.60 72.88 C 108.69 70.54 111.62 67.12 115.75 66.90 C 118.77 70.00 115.32 74.75 115.61 78.54 C 121.44 77.69 125.93 72.96 129.91 68.94 C 134.23 59.40 136.10 48.86 141.19 39.64 C 142.32 40.06 143.45 40.49 144.57 40.93 C 142.63 51.25 137.40 60.46 133.75 70.17 C 136.45 67.41 140.53 63.68 144.55 66.23 C 147.32 67.85 145.96 71.22 145.75 73.71 C 151.72 72.30 157.39 69.90 162.48 66.45 C 164.79 64.70 168.68 63.99 170.75 66.42 C 172.65 70.42 167.88 73.12 168.01 77.00 C 174.16 74.34 178.06 68.49 183.03 64.24 C 185.02 65.50 185.10 67.65 184.91 69.78 C 187.68 68.18 190.48 66.38 193.74 66.02 C 195.71 68.57 194.25 71.60 193.83 74.39 C 198.90 71.67 203.16 67.70 208.16 64.86 C 209.57 63.73 211.94 65.13 211.49 66.97 C 210.39 70.06 208.22 72.64 207.32 75.82 C 211.80 74.15 215.20 70.62 219.30 68.28 C 222.86 66.26 225.82 63.44 229.04 60.97 C 230.27 61.29 232.40 62.16 231.11 63.75 C 228.77 68.07 226.74 72.54 224.75 77.03 C 228.42 75.71 232.12 74.36 235.40 72.21 C 237.27 70.62 239.36 72.54 241.21 73.18 C 238.39 75.91 234.40 76.60 230.90 78.06 C 226.24 79.85 221.58 82.63 219.20 87.20 C 214.85 93.91 212.63 101.71 208.46 108.49 C 207.02 111.29 203.82 108.64 202.83 106.84 C 201.28 102.83 203.87 98.99 205.53 95.49 C 208.66 89.88 213.45 85.45 217.95 80.98 C 220.28 76.77 223.22 72.81 224.68 68.19 C 217.79 72.41 212.04 78.91 204.01 81.22 C 202.56 81.15 201.69 80.40 201.38 78.98 C 202.31 76.00 204.20 73.47 205.31 70.57 C 199.04 71.90 195.90 79.25 189.56 80.66 C 189.49 77.01 191.14 73.61 191.18 69.96 C 186.59 71.41 183.26 75.19 181.43 79.54 C 180.99 81.37 178.35 82.56 177.15 80.73 C 177.37 77.41 179.98 74.84 180.77 71.64 C 175.43 75.22 171.69 82.41 164.66 82.73 C 164.31 81.02 163.98 79.32 163.68 77.61 C 160.27 79.93 157.33 83.06 153.47 84.65 C 151.71 85.45 149.37 84.90 148.79 82.86 C 148.95 79.19 151.87 76.59 153.42 73.48 C 150.68 74.21 148.10 75.40 145.47 76.44 C 143.36 77.99 142.00 80.50 139.46 81.49 C 136.46 83.19 132.54 82.01 130.56 79.31 C 126.33 87.10 122.86 95.25 119.43 103.40 C 118.85 103.66 117.70 104.18 117.12 104.43 C 116.56 103.31 116.10 102.16 115.75 100.97 C 119.11 92.95 123.37 85.25 126.14 77.00 C 122.19 78.40 118.56 81.93 114.18 81.22 C 110.26 79.06 113.24 74.13 113.09 70.72 C 108.38 72.72 106.34 77.77 102.93 81.24 C 102.23 81.16 100.82 81.01 100.12 80.94 C 100.20 76.81 101.60 72.86 101.87 68.74 C 98.23 69.67 95.97 72.94 93.15 75.18 C 90.39 77.61 89.50 83.70 84.76 82.19 C 84.87 80.07 85.39 78.02 85.88 75.97 C 82.00 80.16 77.29 85.13 71.04 84.55 C 68.77 84.38 67.82 82.05 67.44 80.13 C 65.40 80.95 63.24 81.94 61.00 81.20 C 55.80 80.60 50.60 79.02 45.35 79.28 C 41.18 81.33 37.72 85.09 32.92 85.69 C 25.97 85.52 19.40 79.99 19.41 72.75 C 27.54 73.17 35.55 74.71 43.61 75.74 C 46.42 72.58 49.33 69.49 52.19 66.37 C 48.06 65.29 43.34 63.82 41.31 59.68 C 37.34 53.73 39.18 45.88 42.82 40.22 C 43.44 40.37 44.66 40.66 45.27 40.81 C 42.93 46.01 40.06 51.89 42.33 57.64 C 44.46 61.75 49.21 64.28 53.80 64.07 C 59.58 57.91 63.99 50.50 68.11 43.15 C 73.55 35.33 79.66 28.00 85.62 20.58 M 92.37 18.31 C 84.68 25.15 78.88 33.72 73.13 42.17 C 68.99 49.71 63.24 56.16 58.81 63.50 C 64.44 61.67 69.94 59.13 74.90 55.89 C 82.96 48.96 91.82 41.84 95.69 31.60 C 97.21 26.91 98.46 21.46 95.76 16.96 C 94.51 16.14 93.40 17.80 92.37 18.31 M 132.61 76.12 C 132.49 79.09 137.03 79.54 138.79 77.79 C 141.39 75.27 143.49 71.57 142.70 67.84 C 138.02 68.48 135.78 73.20 132.61 76.12 M 153.85 78.17 C 152.62 80.30 155.39 80.78 156.69 79.74 C 161.26 77.23 163.78 72.38 166.38 68.09 C 161.20 69.82 157.01 73.84 153.85 78.17 M 21.65 75.21 C 23.07 78.56 25.69 81.65 29.16 82.95 C 33.66 83.89 38.30 81.48 41.20 78.13 C 34.79 76.47 28.05 76.95 21.65 75.21 M 206.19 106.02 C 206.57 105.91 207.32 105.70 207.70 105.59 C 210.78 99.36 213.75 93.03 216.36 86.59 C 210.82 91.44 206.42 98.49 206.19 106.02 Z" />
<path fill="#ffffff" opacity="1.00" d=" M 89.93 53.03 C 92.40 52.86 93.64 54.84 93.84 57.04 C 91.90 56.44 90.52 54.97 89.93 53.03 Z" />
</g>
</svg>
