<?xml version="1.0" encoding="UTF-8" ?>
<!DOCTYPE svg PUBLIC "-//W3C//DTD SVG 1.1//EN" "http://www.w3.org/Graphics/SVG/1.1/DTD/svg11.dtd">
<svg width="256pt" height="256pt" viewBox="0 0 256 256" version="1.1" xmlns="http://www.w3.org/2000/svg">
<g id="#ffffffff">
<path fill="#ffffff" opacity="1.00" d=" M 101.69 40.87 C 105.29 38.84 109.00 36.60 113.27 36.51 C 117.00 36.54 120.76 36.44 124.48 36.79 C 127.24 37.65 129.91 38.81 132.75 39.43 C 134.06 39.52 134.74 40.70 135.41 41.65 C 137.79 45.17 139.82 49.01 140.70 53.19 C 145.50 55.45 147.35 61.03 150.11 65.22 C 150.03 69.58 152.49 73.30 153.66 77.37 C 154.04 79.03 155.25 80.26 156.37 81.48 C 156.28 82.94 156.27 84.46 157.28 85.65 C 162.13 92.76 164.80 101.11 169.78 108.14 C 171.79 110.93 173.44 113.94 174.95 117.02 C 176.76 121.01 180.03 124.09 181.97 128.02 C 183.23 130.69 184.65 133.28 186.21 135.79 C 188.85 140.03 189.16 145.19 191.36 149.62 C 194.00 152.35 196.89 154.86 199.12 157.97 C 199.52 157.84 200.33 157.58 200.74 157.45 C 200.61 158.04 200.35 159.21 200.22 159.80 C 202.95 161.29 202.11 164.63 204.08 166.62 C 204.72 166.23 206.02 165.45 206.66 165.06 C 206.66 162.03 202.99 160.80 201.64 158.33 C 204.16 160.59 207.37 162.30 209.08 165.33 C 207.83 166.08 206.58 166.82 205.30 167.53 C 205.36 169.43 204.59 171.67 206.15 173.18 C 208.34 174.17 210.64 174.84 212.87 175.74 C 212.20 179.90 207.75 181.21 204.69 183.25 C 205.78 183.62 206.88 183.99 207.98 184.34 C 207.25 184.75 206.52 185.17 205.80 185.59 C 205.52 186.08 204.97 187.06 204.69 187.55 C 207.03 186.63 209.54 186.60 212.02 186.56 C 212.26 187.41 212.75 189.12 213.00 189.98 C 215.53 189.17 217.69 187.42 218.17 184.69 C 217.38 184.43 215.79 183.92 215.00 183.66 C 214.51 183.75 213.52 183.93 213.02 184.02 C 213.26 183.58 213.73 182.71 213.97 182.28 C 215.42 183.14 216.92 183.90 218.38 184.76 C 219.74 185.65 218.20 186.85 217.55 187.58 C 214.68 190.96 210.23 192.03 206.08 192.87 C 204.23 193.14 203.43 194.95 202.29 196.19 C 202.70 195.56 203.53 194.29 203.94 193.66 C 203.18 193.56 201.66 193.35 200.90 193.25 C 198.98 193.36 197.07 193.17 195.18 192.90 C 195.09 192.12 194.89 190.55 194.80 189.76 C 187.48 192.79 179.16 190.32 172.05 194.07 C 168.00 196.48 162.78 195.89 158.89 193.48 C 152.57 193.98 146.36 195.60 140.03 196.23 C 130.36 196.77 120.67 195.76 110.99 196.42 C 106.64 196.39 102.02 196.07 98.23 193.73 C 96.21 192.47 94.72 190.53 92.71 189.27 C 86.69 188.20 80.17 187.73 75.09 183.97 C 69.84 180.94 65.30 176.91 60.89 172.78 C 58.47 172.90 56.02 172.47 53.98 171.08 C 54.73 168.66 54.44 165.95 52.23 164.38 C 52.61 165.99 53.15 167.55 53.63 169.14 C 52.13 168.76 50.63 168.43 49.11 168.16 C 52.78 173.06 59.09 174.98 64.63 177.02 C 67.01 179.52 69.78 181.56 72.60 183.53 C 72.63 184.41 72.63 185.29 72.60 186.18 C 70.52 185.32 68.38 184.61 66.14 184.30 C 62.77 183.82 60.07 180.90 56.54 181.41 C 55.85 179.89 55.69 177.89 54.00 177.11 C 49.45 173.88 43.90 172.74 38.65 171.15 C 41.25 170.82 44.42 172.24 46.45 170.08 C 44.37 169.54 42.25 169.20 40.12 168.88 C 38.74 169.61 37.34 170.31 35.90 170.92 C 36.45 168.34 39.17 167.86 41.33 167.26 C 41.59 166.23 41.96 165.24 42.42 164.30 C 45.11 164.67 47.53 166.08 50.06 167.00 C 49.36 165.35 48.67 163.69 48.13 161.98 C 49.31 161.26 50.48 160.53 51.64 159.80 C 49.68 159.64 47.72 159.51 45.77 159.32 C 47.97 156.35 50.19 153.37 52.52 150.51 C 55.12 148.60 57.59 146.59 59.30 143.79 C 58.97 141.39 57.43 139.58 55.90 137.83 C 56.57 137.53 57.90 136.92 58.57 136.62 C 58.32 130.03 59.83 123.54 59.25 116.95 C 58.89 113.54 61.18 110.42 60.15 107.02 C 59.56 101.39 56.81 94.36 61.68 89.88 C 59.39 87.62 59.16 84.30 59.42 81.27 C 60.41 76.64 64.48 73.75 67.13 70.09 C 71.68 65.32 75.30 59.60 80.59 55.59 C 87.83 51.32 93.11 44.39 100.77 40.78 C 100.21 39.88 99.66 38.98 99.11 38.08 C 99.96 39.02 100.78 39.99 101.69 40.87 M 105.54 42.59 C 100.94 44.25 96.96 47.11 93.21 50.19 C 87.62 54.90 81.29 58.85 76.66 64.61 C 74.43 67.48 71.25 69.72 70.14 73.34 C 71.91 71.94 73.37 70.19 75.15 68.80 C 77.16 67.96 79.17 67.12 81.18 66.27 C 80.90 67.46 80.60 68.65 80.28 69.82 C 80.80 69.44 81.84 68.67 82.36 68.28 C 83.74 71.52 80.24 73.36 78.97 75.91 C 76.18 79.80 74.97 84.69 71.41 88.02 C 72.13 88.34 72.84 88.66 73.55 88.98 C 73.30 88.50 72.79 87.54 72.54 87.06 C 79.77 83.42 81.16 73.82 88.68 70.55 C 88.51 73.01 88.02 75.44 87.40 77.83 C 89.25 77.60 91.76 78.78 92.92 76.77 C 94.01 75.80 93.76 74.34 93.53 73.08 C 91.93 73.98 90.42 75.13 88.54 75.37 C 88.61 74.85 88.76 73.80 88.83 73.28 C 91.73 70.04 94.56 66.55 98.42 64.40 C 99.50 63.57 101.04 62.74 100.94 61.17 C 100.03 59.36 98.47 58.05 96.36 58.30 C 97.50 58.26 98.64 58.20 99.78 58.09 C 100.83 59.24 102.04 60.27 102.93 61.56 C 104.86 61.03 107.30 60.32 106.68 57.81 C 109.42 57.94 111.69 56.15 114.31 55.72 C 117.98 55.18 121.41 53.69 124.84 52.33 C 130.70 54.34 136.03 57.79 140.22 62.37 C 140.45 62.03 140.91 61.36 141.15 61.02 C 143.17 61.85 144.57 63.63 146.29 64.92 C 144.93 60.95 141.08 58.60 139.73 54.64 C 139.21 54.58 138.18 54.47 137.67 54.41 C 136.95 51.95 136.26 49.42 134.62 47.39 C 132.43 43.54 127.82 42.50 124.01 40.96 C 117.89 40.01 111.21 39.62 105.54 42.59 M 118.75 56.26 C 119.19 57.19 119.65 58.13 120.11 59.05 C 122.17 57.97 124.10 56.63 125.52 54.76 C 123.24 55.14 121.00 55.72 118.75 56.26 M 126.51 55.47 C 126.17 58.68 129.54 58.49 131.73 58.79 C 132.64 60.27 133.63 61.72 134.24 63.35 C 131.53 64.08 129.69 61.20 127.02 61.44 C 122.40 60.62 118.22 63.22 113.92 64.43 C 111.58 64.03 109.86 62.24 108.60 60.35 C 106.87 62.06 104.56 63.38 103.73 65.80 C 105.76 64.81 107.68 63.63 109.67 62.59 C 110.33 63.25 111.66 64.56 112.32 65.22 C 110.20 66.07 107.77 66.45 106.06 68.08 C 101.41 72.48 95.19 75.78 92.86 82.13 C 93.04 87.43 94.70 92.62 94.46 97.96 C 95.79 104.00 95.67 110.26 97.25 116.27 C 98.28 124.94 103.41 132.33 105.32 140.77 C 103.15 141.35 101.07 142.89 98.73 142.23 C 97.47 140.41 100.72 139.50 101.71 138.27 C 100.89 136.20 100.75 133.96 100.03 131.87 C 98.55 129.69 97.11 127.48 96.05 125.06 C 95.03 126.33 93.98 127.62 93.26 129.10 C 94.44 130.60 95.47 132.22 96.18 134.00 C 97.39 133.64 98.61 133.30 99.84 132.98 C 99.23 134.68 98.23 136.17 96.93 137.42 C 97.55 141.62 99.31 145.50 101.25 149.23 C 102.49 148.49 103.72 147.74 104.96 147.01 C 104.22 145.11 103.89 143.11 105.12 141.31 C 107.14 144.84 109.11 148.39 111.09 151.95 C 112.49 154.59 115.62 155.30 118.00 156.76 C 118.86 156.38 119.72 156.01 120.59 155.65 C 121.31 156.53 122.08 157.38 122.88 158.20 C 128.85 161.09 135.57 160.97 142.03 161.37 C 144.58 160.12 147.15 158.90 149.75 157.75 C 154.01 155.32 155.77 150.41 159.15 147.07 C 162.53 142.94 162.00 137.36 161.30 132.43 C 159.63 126.66 156.75 121.33 155.42 115.45 C 152.13 106.83 148.27 98.41 145.35 89.65 C 143.07 85.39 140.74 81.13 139.54 76.41 C 138.73 72.91 136.36 69.79 136.25 66.16 C 138.90 63.98 139.38 68.39 140.45 70.02 C 141.54 69.39 142.62 68.75 143.72 68.12 C 142.93 66.92 142.14 65.72 141.41 64.48 C 141.08 64.60 140.42 64.82 140.08 64.93 C 135.83 61.42 132.05 56.96 126.51 55.47 M 111.75 58.42 C 112.60 59.73 113.50 61.02 114.39 62.31 C 115.12 61.00 115.80 59.67 116.38 58.29 C 114.84 58.29 113.29 58.34 111.75 58.42 M 99.33 67.23 C 97.50 67.95 96.15 69.46 95.04 71.03 C 97.77 71.84 100.94 70.10 102.55 67.88 C 101.76 66.55 100.69 66.34 99.33 67.23 M 140.94 73.14 C 141.28 74.38 141.74 75.58 142.17 76.80 C 144.11 75.52 146.07 74.26 148.04 73.03 C 147.52 72.49 146.47 71.42 145.94 70.88 C 144.22 71.50 142.53 72.25 140.94 73.14 M 62.27 83.40 C 65.30 80.74 67.39 77.17 69.51 73.79 C 66.02 75.90 63.72 79.66 62.27 83.40 M 68.92 85.11 C 72.46 82.18 73.98 77.73 76.02 73.78 C 73.25 77.27 70.46 80.88 68.92 85.11 M 143.08 79.66 C 143.93 81.11 144.74 82.58 145.52 84.07 C 147.29 82.72 149.13 81.46 151.09 80.39 C 150.47 79.06 150.95 76.65 149.09 76.36 C 147.08 77.45 145.15 78.69 143.08 79.66 M 79.11 88.28 C 76.53 88.81 74.89 90.86 72.91 92.41 C 70.95 92.60 69.66 91.52 69.71 89.49 C 68.42 90.81 66.95 91.88 64.98 91.70 C 65.81 89.74 66.91 87.92 67.93 86.06 C 65.98 88.94 63.25 91.40 62.28 94.85 C 69.62 96.57 76.27 91.78 83.54 92.44 C 84.68 87.52 81.54 82.38 84.42 77.73 C 82.25 81.04 80.43 84.54 79.11 88.28 M 85.77 81.81 C 85.73 83.29 85.76 84.77 85.86 86.25 C 87.62 86.24 89.38 86.24 91.14 86.21 C 90.81 84.41 90.51 82.57 89.75 80.89 C 88.52 80.64 85.41 79.36 85.77 81.81 M 146.97 86.30 C 148.91 90.82 149.53 95.81 152.10 100.09 C 153.87 98.76 155.93 97.96 158.10 97.54 C 157.35 95.71 156.63 93.88 155.92 92.04 C 153.97 92.93 151.99 93.79 149.86 94.13 C 149.81 91.16 152.67 90.02 155.02 89.21 C 153.89 87.42 152.81 85.60 151.93 83.68 C 150.31 84.60 148.66 85.49 146.97 86.30 M 85.97 89.19 C 86.26 91.00 86.51 92.82 86.73 94.64 C 88.49 94.52 90.26 94.40 92.03 94.27 C 91.85 92.63 91.68 91.00 91.49 89.37 C 89.65 89.33 87.81 89.27 85.97 89.19 M 75.53 97.78 C 78.20 96.53 81.92 95.69 83.18 99.26 C 80.73 99.86 78.15 98.97 75.77 99.90 C 71.76 101.40 67.47 100.55 63.33 100.26 C 63.36 100.77 63.40 101.81 63.43 102.32 C 69.78 102.37 76.17 101.58 82.22 99.60 C 83.43 102.59 80.13 103.50 77.89 103.79 C 73.30 104.38 68.73 105.20 64.11 105.53 C 64.17 105.73 64.31 106.12 64.37 106.31 C 70.88 106.86 77.34 104.67 83.78 105.89 C 77.31 110.29 68.80 107.16 61.90 110.21 C 64.62 110.49 67.37 110.60 70.04 111.22 C 75.34 110.85 80.55 109.61 85.77 108.66 C 85.29 104.01 83.74 99.48 83.66 94.75 C 80.83 95.26 77.65 95.63 75.53 97.78 M 87.04 97.52 C 87.10 99.62 87.27 101.72 87.33 103.83 C 89.09 101.96 91.42 100.98 93.84 100.25 C 93.19 99.22 92.54 98.19 91.90 97.15 C 90.28 97.28 88.66 97.38 87.04 97.52 M 152.81 101.57 C 154.39 104.29 155.37 107.27 156.25 110.27 C 158.33 109.78 160.42 109.31 162.54 109.01 C 161.42 106.25 161.08 102.94 158.95 100.72 C 156.90 100.97 154.87 101.38 152.81 101.57 M 86.98 104.94 C 87.44 106.66 87.95 108.38 88.43 110.10 C 90.17 109.27 91.91 108.44 93.54 107.41 C 94.10 106.06 93.33 104.59 93.25 103.19 C 91.40 104.50 89.24 105.01 86.98 104.94 M 64.85 113.51 C 64.58 114.54 64.31 115.58 64.05 116.61 C 71.17 116.98 78.29 116.49 85.42 116.34 C 84.79 117.49 84.06 118.59 83.18 119.56 C 83.38 120.25 83.59 120.95 83.79 121.64 C 77.51 120.78 71.19 122.14 64.95 121.16 C 64.47 121.83 64.02 122.52 63.61 123.24 C 69.45 123.83 75.32 123.63 81.17 123.45 C 83.95 123.08 85.68 125.38 87.06 127.40 C 79.41 125.30 71.54 127.53 63.77 126.63 C 64.10 127.49 64.46 128.33 64.85 129.16 C 66.93 129.38 69.02 129.26 71.10 129.53 C 74.49 126.80 78.68 129.16 82.51 128.98 C 78.08 131.34 73.05 132.00 68.09 131.83 C 66.50 132.94 67.63 135.04 67.53 136.60 C 72.60 136.68 77.73 136.17 82.74 136.90 C 79.40 140.62 73.75 140.21 69.29 139.24 C 68.52 139.94 67.75 140.64 67.01 141.36 C 70.58 142.00 74.20 141.89 77.78 141.40 C 81.77 141.26 84.57 137.53 88.75 138.19 C 88.74 139.67 88.68 141.15 88.55 142.63 C 89.07 142.59 90.11 142.51 90.63 142.47 C 92.50 145.84 95.04 148.78 96.80 152.22 C 97.72 154.40 99.97 155.35 101.95 156.34 C 97.68 149.20 94.79 141.25 93.07 133.11 C 91.29 129.65 90.13 125.94 89.23 122.16 C 89.46 121.75 89.92 120.94 90.15 120.53 C 91.50 121.72 91.86 123.52 92.51 125.11 C 93.72 124.12 95.14 123.33 96.10 122.07 C 95.78 120.93 95.43 119.81 95.06 118.69 C 93.09 119.32 91.03 119.51 88.98 119.64 C 88.22 116.36 86.64 113.35 85.72 110.12 C 79.33 113.50 71.96 114.26 64.85 113.51 M 89.26 112.86 C 89.87 114.46 90.45 116.08 91.00 117.71 C 92.11 116.89 93.27 116.12 94.33 115.22 C 95.74 113.53 94.25 111.36 94.09 109.50 C 92.50 110.65 90.90 111.79 89.26 112.86 M 165.96 109.73 C 167.71 115.84 169.79 121.90 170.45 128.26 C 171.16 134.23 169.74 140.16 168.87 146.05 C 168.43 147.55 169.28 148.86 169.96 150.13 C 169.43 151.86 169.20 153.68 168.44 155.33 C 166.17 156.99 163.35 158.29 162.77 161.36 C 168.08 161.25 173.37 161.90 178.68 161.86 C 179.73 160.42 180.85 159.03 181.87 157.57 C 182.94 159.28 184.98 159.81 186.55 160.92 C 186.63 164.93 183.76 168.28 179.98 169.30 C 170.10 168.70 160.32 170.87 150.43 170.50 C 149.56 171.18 148.72 171.89 147.81 172.50 C 145.69 171.37 143.39 171.10 141.02 171.38 C 138.32 171.73 134.91 170.33 132.98 172.87 C 122.45 169.24 111.75 164.30 100.38 165.45 C 99.06 165.97 97.78 166.67 96.35 166.85 C 94.71 165.74 93.73 163.76 91.90 162.96 C 88.64 162.09 85.36 161.26 82.13 160.31 C 80.84 162.16 79.70 164.10 78.62 166.08 C 80.41 166.20 82.54 167.57 84.09 166.11 C 85.95 164.40 88.45 164.23 90.86 164.09 C 90.66 166.09 90.36 168.09 90.03 170.08 C 91.40 171.01 92.76 171.98 94.08 172.99 C 95.05 172.32 96.03 171.66 97.03 171.01 C 94.40 174.25 90.55 175.98 86.55 176.82 C 88.24 177.75 89.99 178.61 91.36 180.02 C 86.76 178.91 82.37 177.00 77.64 176.37 C 81.38 179.92 86.76 180.77 90.63 184.12 C 84.19 183.09 78.80 178.91 72.44 177.73 C 77.55 185.28 87.68 185.70 95.90 186.63 C 97.53 189.10 98.92 192.01 101.46 193.65 C 106.01 193.68 110.47 192.20 115.07 192.76 C 120.07 191.99 124.98 193.90 129.99 193.23 C 135.65 192.41 141.78 193.51 147.05 190.85 C 151.04 190.81 154.98 190.13 158.94 189.81 C 160.76 189.76 161.75 191.38 162.77 192.61 C 164.80 192.56 167.02 192.97 168.78 191.67 C 172.05 189.61 175.91 188.99 179.44 187.57 C 178.50 187.46 176.62 187.24 175.69 187.13 C 175.53 186.65 175.21 185.70 175.05 185.22 C 173.81 185.26 172.58 185.27 171.35 185.27 C 167.93 187.08 162.09 187.74 160.11 183.54 C 161.41 183.93 162.71 184.37 163.99 184.84 C 167.58 182.61 171.92 184.16 175.81 183.13 C 178.42 182.42 181.14 182.47 183.83 182.28 C 183.69 183.08 183.41 184.68 183.27 185.48 C 186.57 185.95 189.99 187.50 193.27 186.11 C 195.32 185.67 196.07 183.45 197.35 182.04 C 198.83 181.89 200.31 181.81 201.79 181.72 C 201.89 177.63 201.45 173.56 200.39 169.60 C 199.53 169.22 198.66 168.87 197.78 168.54 C 195.97 169.25 194.35 171.11 192.28 170.19 C 192.37 167.01 193.03 163.70 191.27 160.84 C 192.72 162.73 194.79 164.27 195.24 166.75 C 196.61 166.58 198.00 166.45 199.38 166.32 C 196.61 163.15 194.74 158.45 190.95 156.63 C 190.47 156.91 189.50 157.47 189.01 157.75 C 187.68 156.87 186.22 156.31 184.60 156.48 C 184.64 155.77 184.71 154.34 184.74 153.63 C 186.45 154.40 188.00 156.03 189.99 155.92 C 190.63 153.37 188.48 151.55 187.14 149.71 C 185.67 146.37 185.73 142.48 183.74 139.34 C 182.42 137.23 181.02 135.17 179.93 132.93 C 177.93 128.47 174.69 124.68 172.87 120.13 C 171.51 116.10 168.29 113.19 165.96 109.73 M 157.70 113.10 C 158.39 116.01 159.39 118.84 160.09 121.75 C 161.94 120.52 164.03 119.90 166.26 120.04 C 165.14 117.57 164.19 115.03 163.33 112.46 C 161.45 112.66 159.57 112.85 157.70 113.10 M 160.87 124.02 C 164.15 128.31 164.01 133.95 165.38 139.00 C 165.92 138.96 166.99 138.89 167.52 138.86 C 167.63 137.11 167.76 135.38 167.85 133.63 C 166.87 133.09 165.92 132.51 165.00 131.89 C 164.08 130.13 166.24 129.51 167.26 128.58 C 167.12 126.64 166.93 124.70 166.79 122.77 C 164.82 123.21 162.84 123.61 160.87 124.02 M 78.48 143.89 C 75.07 145.00 71.44 144.39 67.93 144.70 C 68.22 145.95 68.52 147.19 68.78 148.44 C 67.88 149.21 67.00 149.98 66.12 150.76 C 65.51 150.31 64.30 149.43 63.70 148.98 C 64.65 153.63 69.90 150.97 72.75 149.87 C 72.79 150.65 72.87 152.21 72.91 153.00 C 75.50 153.99 78.01 155.19 80.55 156.31 C 83.75 156.66 87.00 156.60 90.01 157.92 C 88.04 155.35 86.29 152.63 84.54 149.91 C 86.55 147.05 85.19 143.75 85.30 140.57 C 83.02 141.66 81.00 143.33 78.48 143.89 M 164.33 143.10 C 162.97 144.02 164.22 146.80 165.77 145.64 C 167.07 144.71 165.89 141.79 164.33 143.10 M 87.00 146.33 C 88.71 151.67 92.39 156.03 95.48 160.61 C 100.88 163.78 107.59 162.48 113.39 164.32 C 111.22 163.27 109.45 161.26 106.95 161.06 C 102.84 160.75 99.32 158.38 95.40 157.36 C 93.13 153.41 91.43 148.29 87.00 146.33 M 52.34 153.40 C 54.62 153.22 56.88 152.85 59.15 152.54 C 59.23 151.29 59.24 150.04 59.18 148.78 C 56.29 148.40 53.82 151.17 52.34 153.40 M 103.24 151.28 C 103.15 152.80 104.52 153.96 105.08 155.31 C 106.07 154.70 107.07 154.09 108.06 153.49 C 107.41 151.82 106.69 150.17 106.00 148.52 C 105.06 149.42 104.08 150.29 103.24 151.28 M 162.15 148.72 C 160.27 150.46 162.43 154.61 164.70 154.56 C 167.57 152.54 164.74 149.23 162.15 148.72 M 154.20 158.21 C 152.72 159.15 151.02 159.77 149.99 161.27 C 152.03 161.12 154.59 161.92 156.21 160.27 C 157.62 159.01 159.14 157.88 160.71 156.82 C 159.78 155.87 158.88 154.90 157.91 154.01 C 156.58 155.33 155.52 156.88 154.20 158.21 M 50.14 156.56 C 50.15 156.74 50.19 157.09 50.20 157.26 C 51.99 157.35 53.65 157.87 54.89 159.21 C 54.46 160.16 53.65 160.73 52.47 160.92 C 53.48 161.62 54.49 162.32 55.52 163.02 C 56.60 161.25 57.73 159.51 58.96 157.84 C 57.97 158.66 56.94 159.04 55.89 158.98 C 54.68 157.64 56.18 156.31 56.74 155.06 C 54.82 156.52 52.45 156.63 50.14 156.56 M 58.32 156.04 C 58.09 159.49 61.33 154.72 58.32 156.04 M 107.85 156.96 C 110.28 158.73 113.02 160.03 115.50 161.73 C 115.52 161.24 115.55 160.25 115.56 159.76 C 113.10 158.69 110.96 157.08 108.82 155.50 C 108.58 155.87 108.09 156.60 107.85 156.96 M 90.29 159.94 C 89.93 161.35 90.42 161.92 91.78 161.63 C 92.11 160.20 91.62 159.63 90.29 159.94 M 74.22 161.13 C 72.83 162.58 75.48 163.68 76.30 162.31 C 77.63 160.86 75.03 159.74 74.22 161.13 M 117.13 163.05 C 119.87 164.35 122.78 165.24 125.64 166.27 C 125.83 165.40 126.22 163.68 126.42 162.81 C 123.86 162.16 121.31 161.49 118.79 160.71 C 118.38 161.30 117.54 162.46 117.13 163.05 M 181.48 161.13 C 181.73 163.30 180.60 165.06 179.42 166.76 C 182.48 167.18 183.39 163.89 184.10 161.59 C 183.45 161.47 182.14 161.25 181.48 161.13 M 150.98 163.53 C 151.20 164.12 151.64 165.32 151.87 165.91 C 151.16 165.87 149.75 165.79 149.05 165.74 C 149.03 166.28 148.99 167.36 148.97 167.90 C 151.96 167.75 154.96 167.66 157.94 167.34 C 157.86 166.00 157.77 164.66 157.68 163.33 C 155.45 163.45 153.21 163.55 150.98 163.53 M 129.18 164.05 C 128.97 164.94 128.55 166.72 128.33 167.61 C 130.60 168.24 132.93 168.66 135.28 168.91 C 136.12 167.04 137.53 165.55 138.99 164.15 C 135.73 164.56 132.44 164.41 129.18 164.05 M 141.58 164.75 C 141.55 166.59 139.75 167.53 138.77 168.89 C 141.07 168.87 143.36 168.74 145.65 168.57 C 145.62 167.70 145.59 166.82 145.56 165.95 C 144.18 165.72 142.82 165.41 141.58 164.75 M 160.75 163.74 C 160.92 165.13 161.11 166.52 161.31 167.91 C 163.73 167.31 166.25 166.67 168.10 164.87 C 166.24 162.83 163.17 164.15 160.75 163.74 M 168.90 164.25 C 170.78 167.72 175.15 166.16 178.33 166.27 C 175.91 163.95 172.00 164.68 168.90 164.25 M 86.28 167.27 C 84.96 167.95 84.95 168.61 86.25 169.26 C 87.60 168.53 87.61 167.87 86.28 167.27 M 47.03 169.43 C 46.17 170.60 46.43 171.31 47.82 171.53 C 48.68 170.34 48.42 169.64 47.03 169.43 M 88.28 172.95 C 87.27 174.38 89.54 175.70 90.50 174.43 C 91.61 173.11 89.14 171.67 88.28 172.95 M 204.99 178.82 C 205.49 179.29 206.47 180.23 206.97 180.70 C 208.77 179.34 211.30 178.50 212.34 176.38 C 210.10 175.37 207.80 174.51 205.62 173.37 C 205.43 175.19 205.24 177.01 204.99 178.82 M 180.80 183.42 C 179.65 184.47 181.34 186.62 182.65 185.79 C 183.76 184.74 182.05 182.74 180.80 183.42 M 199.38 185.38 C 198.37 186.88 200.68 188.79 202.08 187.82 C 203.33 186.39 200.66 184.51 199.38 185.38 M 203.57 191.09 C 206.14 190.77 208.72 190.54 211.25 190.00 C 208.69 189.10 205.22 188.21 203.57 191.09 Z" />
<path fill="#ffffff" opacity="1.00" d=" M 119.04 67.55 C 119.72 67.51 121.06 67.43 121.74 67.39 C 122.87 69.51 123.74 71.75 124.40 74.05 C 120.56 74.39 120.14 70.25 119.04 67.55 Z" />
<path fill="#ffffff" opacity="1.00" d=" M 124.98 66.90 C 127.97 66.95 130.57 72.58 127.20 73.99 C 125.99 71.87 123.51 69.47 124.98 66.90 Z" />
<path fill="#ffffff" opacity="1.00" d=" M 114.17 70.04 C 118.24 69.35 118.92 74.35 119.36 77.29 C 115.81 76.76 114.68 73.07 114.17 70.04 Z" />
<path fill="#ffffff" opacity="1.00" d=" M 108.17 72.96 C 111.61 71.56 112.72 76.86 113.95 79.15 C 110.58 79.20 108.28 76.10 108.17 72.96 Z" />
<path fill="#ffffff" opacity="1.00" d=" M 98.95 74.89 C 101.93 75.66 103.37 79.56 102.37 82.30 C 100.09 80.47 99.06 77.75 98.95 74.89 Z" />
<path fill="#ffffff" opacity="1.00" d=" M 102.76 75.91 C 105.32 75.20 106.37 78.97 107.09 80.89 C 104.84 80.37 101.18 78.79 102.76 75.91 Z" />
<path fill="#ffffff" opacity="1.00" d=" M 121.96 76.66 C 125.62 77.78 125.45 81.98 125.82 85.06 C 123.67 84.94 122.37 83.29 120.98 81.88 C 120.21 83.27 119.65 84.76 119.01 86.21 C 118.20 84.58 115.52 82.82 116.83 80.86 C 118.35 80.26 119.96 79.96 121.56 79.65 C 121.66 78.90 121.86 77.41 121.96 76.66 Z" />
<path fill="#ffffff" opacity="1.00" d=" M 129.11 76.64 C 130.05 77.27 130.97 77.94 131.88 78.63 C 134.22 77.33 137.20 77.31 138.53 80.03 C 136.04 80.44 133.52 81.09 131.00 80.62 C 130.91 81.68 130.83 82.74 130.74 83.81 C 129.99 83.81 128.49 83.80 127.74 83.80 C 127.85 81.36 128.39 78.97 129.11 76.64 Z" />
<path fill="#ffffff" opacity="1.00" d=" M 108.30 83.05 C 111.49 83.53 112.70 86.78 114.11 89.25 C 110.81 89.21 107.36 86.68 108.30 83.05 Z" />
<path fill="#ffffff" opacity="1.00" d=" M 101.06 84.90 C 105.18 84.85 106.08 89.82 107.14 92.94 C 103.53 91.96 101.33 88.49 101.06 84.90 Z" />
<path fill="#ffffff" opacity="1.00" d=" M 122.99 93.25 C 123.20 90.68 125.03 88.91 127.15 87.70 C 129.51 87.61 131.84 88.48 134.16 88.93 C 134.56 90.44 134.74 91.99 134.99 93.53 C 135.89 93.75 137.69 94.19 138.60 94.42 C 137.12 97.09 134.11 98.56 131.17 97.39 C 132.01 94.93 132.02 92.38 131.47 89.86 C 128.64 90.99 126.22 93.62 122.99 93.25 Z" />
<path fill="#ffffff" opacity="1.00" d=" M 117.03 91.08 C 121.17 90.20 123.18 94.81 124.07 98.06 C 120.54 97.66 117.60 94.53 117.03 91.08 Z" />
<path fill="#ffffff" opacity="1.00" d=" M 111.10 92.69 C 114.03 92.99 115.36 95.71 116.35 98.13 C 116.24 99.48 115.61 99.87 114.45 99.29 C 111.89 98.26 111.60 95.04 111.10 92.69 Z" />
<path fill="#ffffff" opacity="1.00" d=" M 132.68 101.57 C 134.35 98.19 139.01 95.60 141.99 99.01 C 139.16 100.65 136.11 102.66 132.68 101.57 Z" />
<path fill="#ffffff" opacity="1.00" d=" M 123.70 102.64 C 124.84 100.67 126.91 98.24 129.44 99.61 C 132.00 101.39 135.02 104.26 133.78 107.69 C 131.63 108.44 129.32 108.92 127.13 107.99 C 125.38 107.79 126.73 105.68 126.79 104.70 C 128.26 105.17 129.73 105.66 131.22 106.08 C 130.15 104.82 129.21 103.35 127.76 102.50 C 126.41 102.51 125.05 102.62 123.70 102.64 Z" />
<path fill="#ffffff" opacity="1.00" d=" M 141.20 100.65 C 144.57 100.73 144.16 104.19 144.17 106.63 C 143.42 106.68 141.93 106.78 141.18 106.84 C 141.13 104.77 141.11 102.71 141.20 100.65 Z" />
<path fill="#ffffff" opacity="1.00" d=" M 113.63 106.00 C 113.63 104.31 112.96 101.00 115.74 102.09 C 117.52 104.79 117.03 108.56 117.94 111.68 C 114.63 112.09 113.77 108.62 113.63 106.00 Z" />
<path fill="#ffffff" opacity="1.00" d=" M 119.56 110.25 C 119.00 107.57 117.50 104.17 120.02 102.05 C 122.65 104.11 122.04 107.89 122.98 110.80 C 121.84 110.62 120.70 110.44 119.56 110.25 Z" />
<path fill="#ffffff" opacity="1.00" d=" M 110.04 104.60 C 112.79 105.49 112.61 108.92 113.28 111.23 C 109.65 111.75 108.05 107.17 110.04 104.60 Z" />
<path fill="#ffffff" opacity="1.00" d=" M 103.10 105.91 C 107.10 105.94 107.68 110.98 107.92 114.08 C 104.74 112.67 103.48 109.12 103.10 105.91 Z" />
<path fill="#ffffff" opacity="1.00" d=" M 142.32 112.50 C 142.83 111.00 143.79 109.76 144.96 108.70 C 146.18 111.04 146.57 113.64 146.77 116.24 C 148.21 116.66 149.65 117.12 151.06 117.66 C 148.86 119.14 146.53 120.54 143.81 120.71 C 144.21 119.43 144.62 118.16 145.04 116.90 C 141.51 114.15 138.26 118.32 134.74 118.68 C 131.30 118.43 128.45 121.84 124.96 120.35 C 126.51 118.41 128.51 116.91 130.83 116.02 C 130.01 114.38 129.95 112.61 132.04 112.09 C 133.53 112.92 134.54 114.34 135.51 115.70 C 137.48 114.06 139.87 113.15 142.32 112.50 Z" />
<path fill="#ffffff" opacity="1.00" d=" M 115.90 119.05 C 115.07 116.18 117.46 113.28 120.00 112.24 C 122.68 112.73 124.18 115.47 124.41 117.99 C 124.43 120.00 122.15 120.35 120.81 121.19 C 120.72 119.16 120.68 117.10 119.98 115.16 C 118.68 116.55 118.39 119.65 115.90 119.05 Z" />
<path fill="#ffffff" opacity="1.00" d=" M 107.19 123.39 C 107.81 120.50 109.96 117.50 113.21 117.57 C 112.34 118.79 111.42 119.97 110.50 121.16 C 110.53 122.38 110.56 123.61 110.58 124.84 C 109.45 124.37 108.32 123.88 107.19 123.39 Z" />
<path fill="#ffffff" opacity="1.00" d=" M 112.08 121.18 C 112.95 120.35 113.90 119.60 114.85 118.85 C 116.23 120.71 117.38 122.74 118.14 124.94 C 119.66 126.27 122.08 124.40 123.99 124.63 C 125.90 127.91 125.83 131.91 126.91 135.50 C 125.70 135.62 124.48 135.73 123.27 135.81 C 122.49 132.97 121.90 130.08 121.00 127.27 C 119.56 128.19 117.87 129.12 118.96 131.07 C 120.20 133.27 117.86 136.07 115.49 135.24 C 115.06 132.07 115.44 128.99 116.88 126.17 C 114.69 125.15 113.06 123.38 112.08 121.18 Z" />
<path fill="#ffffff" opacity="1.00" d=" M 135.91 126.27 C 134.88 124.48 132.56 121.27 135.98 120.54 C 139.07 121.26 139.11 125.91 140.57 128.38 C 136.63 129.25 132.63 130.53 128.59 129.53 C 129.54 126.21 133.13 126.35 135.91 126.27 Z" />
<path fill="#ffffff" opacity="1.00" d=" M 148.33 121.27 C 150.81 120.79 151.32 124.17 152.19 125.82 C 152.73 127.73 155.16 127.34 156.64 127.98 C 156.63 129.99 157.01 131.98 157.27 133.97 C 157.13 135.63 155.50 136.62 154.66 137.95 C 154.45 137.58 154.02 136.84 153.81 136.47 C 151.83 136.96 149.82 137.24 147.78 137.29 C 147.82 136.44 147.90 134.75 147.94 133.90 C 150.03 133.85 152.12 133.87 154.21 133.86 C 154.09 132.65 153.97 131.45 153.85 130.25 C 153.25 130.17 152.04 130.01 151.44 129.93 C 151.25 127.99 150.44 126.22 148.91 124.98 C 146.48 125.60 143.19 130.55 141.39 127.24 C 143.37 124.91 146.16 123.43 148.33 121.27 Z" />
<path fill="#ffffff" opacity="1.00" d=" M 139.77 134.82 C 140.12 132.16 142.95 131.43 145.23 131.43 C 145.02 134.51 145.13 137.59 145.86 140.60 C 144.76 141.03 143.66 141.46 142.57 141.89 C 142.46 139.89 142.36 137.91 142.28 135.92 C 141.65 135.64 140.40 135.10 139.77 134.82 Z" />
<path fill="#ffffff" opacity="1.00" d=" M 131.44 134.31 C 133.52 133.95 135.55 133.38 137.47 132.49 C 138.64 134.76 139.06 137.28 139.45 139.78 C 138.34 139.66 137.24 139.53 136.14 139.39 C 136.16 140.10 136.20 141.52 136.23 142.23 C 132.54 141.61 132.04 137.33 131.44 134.31 Z" />
<path fill="#ffffff" opacity="1.00" d=" M 119.10 135.09 C 119.74 134.93 121.03 134.62 121.67 134.47 C 122.12 136.47 122.23 138.52 122.32 140.57 C 124.78 139.53 127.49 138.11 130.23 138.94 C 132.06 140.66 128.76 141.36 127.67 141.88 C 125.00 142.93 122.07 143.58 119.25 142.83 C 118.92 140.32 117.40 137.37 119.10 135.09 Z" />
<path fill="#ffffff" opacity="1.00" d=" M 106.84 138.52 C 109.33 138.01 111.84 137.54 114.31 136.91 C 114.24 140.16 116.99 142.06 118.61 144.53 C 115.45 144.02 112.29 144.05 109.24 145.12 C 109.45 143.74 109.67 142.36 109.93 140.99 C 108.89 140.17 107.86 139.35 106.84 138.52 Z" />
<path fill="#ffffff" opacity="1.00" d=" M 146.74 145.41 C 147.65 143.38 149.16 140.95 151.80 141.76 C 153.82 143.46 155.81 145.42 155.55 148.28 C 154.31 148.43 153.07 148.57 151.84 148.70 C 152.17 147.17 152.52 145.65 152.90 144.13 C 150.86 144.64 148.82 145.15 146.74 145.41 Z" />
<path fill="#ffffff" opacity="1.00" d=" M 137.23 143.12 C 137.88 143.15 139.18 143.20 139.83 143.23 C 140.29 144.64 140.71 146.07 141.10 147.51 C 143.64 147.23 146.22 147.19 148.78 147.37 C 148.97 147.77 149.35 148.56 149.54 148.95 C 146.75 150.24 143.02 152.16 140.65 149.15 C 138.05 149.87 135.40 150.42 132.71 150.62 C 133.48 148.31 135.06 146.83 137.65 147.32 C 137.48 145.92 137.34 144.52 137.23 143.12 Z" />
<path fill="#ffffff" opacity="1.00" d=" M 123.59 147.09 C 125.14 144.76 127.88 144.28 130.48 144.72 C 130.98 147.58 131.48 150.47 131.56 153.39 C 130.66 153.39 128.87 153.41 127.97 153.42 C 127.78 151.45 127.58 149.49 127.40 147.52 C 125.92 147.54 124.43 147.52 122.95 147.46 C 123.47 149.87 124.07 152.27 124.56 154.69 C 123.84 154.67 122.40 154.63 121.67 154.61 C 121.00 151.72 119.81 148.68 120.81 145.72 C 121.74 146.17 122.66 146.63 123.59 147.09 Z" />
<path fill="#ffffff" opacity="1.00" d=" M 182.34 154.13 C 183.01 154.80 183.01 154.80 182.34 154.13 Z" />
<path fill="#ffffff" opacity="1.00" d=" M 38.28 173.34 C 41.31 171.80 38.31 176.76 38.28 173.34 Z" />
<path fill="#ffffff" opacity="1.00" d=" M 149.82 175.38 C 157.24 174.54 164.55 177.13 171.96 176.18 C 174.90 175.91 177.86 176.61 180.76 175.85 C 184.08 175.04 187.50 175.29 190.87 175.53 C 189.46 176.56 187.68 176.39 186.04 176.52 C 182.08 176.51 178.53 178.93 174.51 178.48 C 171.93 178.14 169.55 179.51 167.03 179.41 C 161.81 177.80 156.17 178.97 150.98 177.23 C 150.69 176.77 150.11 175.85 149.82 175.38 Z" />
<path fill="#ffffff" opacity="1.00" d=" M 137.43 179.31 C 141.27 179.93 145.01 180.94 148.60 182.43 C 151.80 183.85 155.35 183.28 158.71 183.81 C 158.68 184.26 158.62 185.17 158.59 185.62 C 154.14 185.43 149.32 186.13 145.41 183.52 C 142.77 181.92 137.84 183.48 137.43 179.31 Z" />
</g>
</svg>
