<?xml version="1.0" encoding="UTF-8" ?>
<!DOCTYPE svg PUBLIC "-//W3C//DTD SVG 1.1//EN" "http://www.w3.org/Graphics/SVG/1.1/DTD/svg11.dtd">
<svg width="256pt" height="256pt" viewBox="0 0 256 256" version="1.1" xmlns="http://www.w3.org/2000/svg">
<g id="#ffffffff">
<path fill="#ffffff" opacity="1.00" d=" M 75.99 118.06 C 79.32 113.95 83.08 109.79 88.03 107.66 C 88.46 111.36 88.44 115.13 87.90 118.82 C 86.72 121.99 85.10 125.01 84.22 128.31 C 79.95 129.27 75.77 130.91 71.34 130.30 C 61.30 135.61 49.76 136.13 38.89 138.68 C 50.12 138.61 60.83 134.73 71.98 133.96 C 75.34 133.77 78.02 131.62 81.00 130.35 C 79.61 134.98 74.49 136.55 70.13 136.45 C 64.12 136.60 58.32 138.22 52.48 139.39 C 43.40 140.38 34.37 141.90 25.21 141.39 C 24.68 140.68 23.60 139.24 23.06 138.52 C 30.67 137.12 38.56 137.48 46.00 135.07 C 54.34 134.25 62.54 132.21 70.24 128.88 C 69.01 127.83 67.80 126.76 66.62 125.67 C 67.48 123.88 68.39 122.11 69.39 120.40 C 69.59 121.38 69.99 123.34 70.18 124.32 C 71.74 121.89 74.07 120.17 75.99 118.06 M 76.18 123.14 C 77.97 121.73 79.36 119.93 80.51 117.97 C 81.17 118.10 82.49 118.36 83.16 118.49 C 81.88 121.78 80.57 125.26 77.58 127.39 C 79.42 127.15 81.27 126.94 83.12 126.77 C 83.35 123.87 84.33 121.15 85.53 118.53 C 86.24 115.86 86.21 113.05 86.65 110.33 C 82.60 113.98 77.70 117.72 76.18 123.14 Z" />
<path fill="#ffffff" opacity="1.00" d=" M 121.50 107.76 C 122.10 108.50 122.69 109.25 123.28 110.01 C 125.44 109.47 128.07 107.97 129.97 109.91 C 132.43 112.09 135.88 110.95 138.83 111.49 C 140.53 113.12 138.26 115.00 137.46 116.51 C 134.55 118.24 131.06 118.28 127.78 118.21 C 130.32 115.50 134.57 116.24 137.02 113.45 C 134.88 113.27 132.69 112.79 130.55 113.23 C 129.46 114.34 128.52 115.60 127.37 116.66 C 123.96 117.87 120.94 115.44 117.89 114.35 C 119.62 113.32 121.76 112.62 122.52 110.56 C 119.57 111.62 115.62 113.28 115.48 116.94 C 117.11 122.78 119.19 128.62 118.88 134.79 C 118.39 134.56 117.41 134.10 116.92 133.87 C 115.97 129.47 115.63 124.94 114.42 120.59 C 113.11 118.81 111.37 117.42 109.76 115.92 C 108.20 116.73 106.58 117.45 104.94 118.09 C 106.57 120.84 108.46 123.50 109.44 126.58 C 111.18 131.54 109.90 137.81 114.74 141.26 C 113.53 141.07 111.11 140.68 109.90 140.49 C 110.94 142.19 111.97 143.90 112.86 145.69 C 107.93 144.78 105.93 139.34 101.63 137.20 C 101.75 139.27 102.05 141.32 102.17 143.40 C 100.69 141.28 99.30 139.10 97.92 136.91 C 99.90 136.71 101.89 136.57 103.89 136.53 C 103.46 132.44 102.56 128.42 100.79 124.70 C 100.56 127.07 100.48 129.46 100.12 131.82 C 98.31 134.98 96.46 138.22 93.93 140.88 C 92.68 136.68 96.27 133.44 98.05 130.01 C 96.33 132.17 94.48 134.22 92.56 136.20 C 90.52 135.97 91.03 133.77 91.11 132.32 C 91.34 130.51 91.81 128.75 92.29 127.00 C 90.22 127.32 88.13 127.54 86.03 127.42 C 87.78 124.50 89.85 121.56 93.22 120.41 C 93.74 120.80 94.78 121.59 95.30 121.99 C 93.78 122.96 92.27 123.96 90.85 125.08 C 95.26 123.91 98.07 119.66 98.71 115.32 C 102.25 121.75 105.90 128.52 106.32 136.00 C 106.23 138.09 107.40 139.75 108.64 141.31 C 109.37 134.18 108.31 126.73 104.46 120.58 C 103.73 118.78 101.86 118.04 100.35 117.04 C 102.22 115.30 104.19 113.67 106.19 112.08 C 109.05 113.74 111.23 111.04 113.55 109.70 C 114.39 110.47 115.21 111.27 116.02 112.07 C 117.81 110.58 119.66 109.18 121.50 107.76 M 123.96 111.45 C 123.89 112.73 123.82 114.02 123.75 115.31 C 126.36 114.72 128.20 112.86 129.52 110.63 C 127.66 110.84 125.81 111.15 123.96 111.45 M 112.37 112.83 C 111.07 113.24 110.53 115.53 112.16 115.90 C 114.39 116.53 114.78 112.00 112.37 112.83 M 104.51 114.96 C 103.92 116.37 104.34 116.82 105.76 116.31 C 106.37 114.92 105.95 114.47 104.51 114.96 M 93.27 130.70 C 96.18 130.04 96.31 126.85 96.98 124.50 C 95.56 126.45 94.33 128.53 93.27 130.70 Z" />
<path fill="#ffffff" opacity="1.00" d=" M 142.94 111.97 C 144.51 112.87 146.09 113.74 147.70 114.57 C 148.01 115.88 148.32 117.19 148.65 118.50 C 149.85 117.04 150.92 115.48 152.03 113.94 C 152.07 114.87 152.17 116.73 152.21 117.66 C 150.16 119.17 148.02 120.59 146.01 122.16 C 143.02 122.36 145.94 119.01 146.12 117.47 C 144.87 119.01 143.79 120.74 142.29 122.05 C 142.13 121.37 141.81 120.02 141.64 119.34 C 143.53 118.01 145.67 116.89 146.87 114.82 C 144.51 115.52 142.48 116.93 140.41 118.22 C 140.36 120.90 140.51 123.58 140.61 126.27 C 137.97 125.91 135.60 124.73 133.96 122.58 C 135.49 122.25 137.03 122.00 138.58 121.74 C 138.07 117.81 140.96 114.99 142.94 111.97 Z" />
<path fill="#ffffff" opacity="1.00" d=" M 155.22 113.51 C 156.10 114.77 157.72 116.01 157.13 117.75 C 155.51 120.44 152.27 121.55 149.47 122.56 C 150.07 120.09 152.15 118.86 154.31 117.89 C 154.52 116.41 154.83 114.95 155.22 113.51 Z" />
<path fill="#ffffff" opacity="1.00" d=" M 159.50 116.44 C 163.19 116.52 166.93 119.08 166.81 123.12 C 164.61 124.02 162.35 124.78 160.09 125.48 C 160.96 124.29 161.84 123.11 162.72 121.93 C 161.26 122.44 159.82 122.98 158.38 123.51 C 159.58 124.89 160.76 126.30 161.85 127.78 C 159.71 127.33 157.59 126.78 155.43 126.45 C 155.33 125.28 155.19 124.11 155.03 122.95 C 154.48 124.16 153.98 125.39 153.49 126.62 C 152.86 126.76 151.60 127.05 150.97 127.19 C 150.04 125.94 149.10 124.70 148.15 123.47 C 149.91 123.31 151.81 123.52 153.37 122.50 C 155.98 121.09 159.01 120.99 161.85 120.36 C 161.04 119.07 160.25 117.76 159.50 116.44 M 164.15 120.29 C 162.86 120.97 162.86 121.66 164.15 122.35 C 165.43 121.67 165.43 120.98 164.15 120.29 Z" />
<path fill="#ffffff" opacity="1.00" d=" M 108.12 118.15 C 108.43 118.05 109.07 117.83 109.38 117.72 C 111.64 120.82 112.58 124.58 113.86 128.13 C 115.05 131.68 116.85 135.16 116.62 139.02 C 113.48 136.67 113.38 132.51 111.76 129.21 C 110.81 125.46 108.34 122.03 108.12 118.15 Z" />
<path fill="#ffffff" opacity="1.00" d=" M 166.65 123.86 C 167.65 120.43 170.76 118.52 173.88 117.28 C 173.74 119.40 173.48 121.50 173.34 123.61 C 175.00 121.62 176.59 119.57 178.44 117.74 C 179.06 119.63 179.51 121.57 179.73 123.55 C 180.83 121.94 182.02 120.38 183.24 118.85 C 185.10 121.61 184.78 124.88 184.52 128.02 C 183.93 127.97 182.75 127.88 182.16 127.83 C 182.37 125.90 182.63 123.98 182.88 122.05 C 181.48 123.65 180.07 125.21 178.62 126.76 C 179.59 127.95 180.55 129.15 181.49 130.38 C 177.77 129.83 173.97 129.89 170.31 129.00 C 171.75 128.08 173.23 127.23 174.72 126.40 C 173.87 125.80 173.03 125.18 172.19 124.56 C 171.34 125.80 170.50 127.05 169.70 128.33 C 167.30 128.38 164.92 128.61 162.54 128.81 C 162.76 128.15 163.20 126.83 163.42 126.17 C 165.51 125.68 167.98 126.17 169.71 124.67 C 171.31 123.74 171.45 121.72 172.16 120.18 C 170.38 121.48 168.64 122.87 166.65 123.86 M 177.19 121.57 C 175.80 121.95 175.01 123.97 175.91 125.14 C 177.65 126.06 179.23 121.89 177.19 121.57 Z" />
<path fill="#ffffff" opacity="1.00" d=" M 118.05 120.87 C 121.50 118.42 125.12 121.01 128.83 120.72 C 131.36 120.89 133.05 123.09 133.88 125.30 C 131.87 125.33 129.91 124.90 128.10 124.06 C 126.60 123.12 125.03 124.63 123.45 124.29 C 121.31 123.82 119.70 122.21 118.05 120.87 Z" />
<path fill="#ffffff" opacity="1.00" d=" M 45.73 128.49 C 52.71 125.59 60.15 123.95 66.97 120.63 C 66.02 123.37 65.15 126.17 65.27 129.11 C 59.65 129.59 53.70 129.72 48.63 132.43 C 40.38 133.18 32.18 134.56 23.87 134.56 C 23.88 134.13 23.89 133.27 23.90 132.84 C 27.39 132.30 31.03 132.60 34.39 131.36 C 38.11 130.15 42.12 130.07 45.73 128.49 Z" />
<path fill="#ffffff" opacity="1.00" d=" M 143.20 123.14 C 145.02 122.00 146.70 123.92 148.47 124.30 C 148.18 125.01 147.60 126.43 147.31 127.14 C 145.84 126.07 142.34 125.46 143.20 123.14 Z" />
<path fill="#ffffff" opacity="1.00" d=" M 192.43 128.57 C 193.57 126.19 195.35 124.22 197.23 122.40 C 198.16 124.34 199.03 126.32 199.88 128.31 C 200.91 127.24 201.95 126.19 203.01 125.14 C 204.33 127.36 206.10 129.25 208.08 130.89 C 208.65 129.47 209.21 128.04 209.79 126.63 C 210.52 127.56 211.25 128.49 211.99 129.42 C 215.07 128.31 218.22 128.43 221.36 129.20 C 221.89 130.87 222.62 132.47 223.58 133.95 C 218.76 131.47 213.29 132.53 208.12 132.27 C 203.73 131.04 199.15 131.19 194.70 131.97 C 195.81 130.27 197.01 128.58 197.25 126.50 C 195.65 127.21 194.04 127.90 192.43 128.57 Z" />
<path fill="#ffffff" opacity="1.00" d=" M 185.61 126.21 C 187.46 125.11 189.36 124.10 191.27 123.11 C 191.40 124.46 191.52 125.81 191.63 127.17 C 189.63 126.79 187.62 126.50 185.61 126.21 Z" />
<path fill="#ffffff" opacity="1.00" d=" M 79.58 134.52 C 82.84 132.69 83.57 127.94 87.79 127.61 C 88.20 128.18 89.03 129.31 89.44 129.87 C 86.66 132.58 86.30 137.23 82.88 139.21 C 80.44 139.13 78.02 138.77 75.62 138.30 C 76.83 136.92 78.10 135.60 79.58 134.52 M 83.34 134.44 C 82.06 134.64 80.49 135.22 79.98 136.53 C 80.71 138.75 85.44 135.57 83.34 134.44 Z" />
<path fill="#ffffff" opacity="1.00" d=" M 185.11 129.57 C 188.42 128.89 191.92 129.29 194.59 131.50 C 191.02 131.90 187.43 132.25 183.83 132.32 C 184.15 131.63 184.79 130.26 185.11 129.57 Z" />
<path fill="#ffffff" opacity="1.00" d=" M 229.75 134.59 C 231.60 131.58 235.65 130.37 238.25 133.17 C 235.40 133.56 232.60 134.24 229.75 134.59 Z" />
<path fill="#ffffff" opacity="1.00" d=" M 96.48 138.85 C 99.90 142.17 104.43 144.31 107.09 148.37 C 101.96 148.57 97.60 143.53 96.48 138.85 Z" />
<path fill="#ffffff" opacity="1.00" d=" M 103.51 141.03 C 107.16 142.43 109.21 145.94 111.83 148.61 C 107.53 148.91 105.38 144.15 103.51 141.03 Z" />
</g>
</svg>
