<?xml version="1.0" encoding="UTF-8" ?>
<!DOCTYPE svg PUBLIC "-//W3C//DTD SVG 1.1//EN" "http://www.w3.org/Graphics/SVG/1.1/DTD/svg11.dtd">
<svg width="256pt" height="256pt" viewBox="0 0 256 256" version="1.1" xmlns="http://www.w3.org/2000/svg">
<g id="#ffffffff">
<path fill="#ffffff" opacity="1.00" d=" M 169.51 64.95 C 171.55 63.52 173.71 62.27 175.95 61.19 C 179.56 66.67 183.75 71.93 186.36 77.95 C 187.02 78.03 188.35 78.19 189.01 78.27 C 188.54 78.86 187.58 80.03 187.10 80.62 C 188.39 80.86 189.68 81.08 190.98 81.28 C 190.18 82.34 189.39 83.41 188.65 84.50 C 191.92 86.49 194.14 89.58 196.46 92.54 C 198.66 97.09 200.59 102.05 204.55 105.41 C 206.27 107.23 208.98 107.30 211.26 107.92 C 207.71 109.20 205.46 112.34 202.80 114.84 C 201.96 114.14 201.10 113.44 200.23 112.78 C 200.38 114.01 200.58 115.23 200.78 116.46 C 197.06 118.43 194.28 121.82 190.41 123.51 C 188.61 124.55 186.72 123.16 184.92 122.87 C 185.69 123.89 186.50 124.89 187.31 125.89 C 183.90 127.52 180.87 129.80 177.46 131.44 C 171.03 134.26 165.93 139.76 158.82 141.05 C 154.05 143.81 149.97 147.73 144.77 149.75 C 139.00 153.46 132.66 156.21 126.89 159.91 C 124.00 163.15 120.89 166.59 116.50 167.65 C 114.30 169.37 112.08 171.07 109.77 172.62 C 108.24 172.82 106.73 172.33 105.20 172.29 C 103.27 173.20 101.57 174.57 99.85 175.82 C 95.90 179.75 91.13 182.81 86.05 185.05 C 84.76 185.92 83.25 185.49 81.82 185.38 C 81.29 186.73 80.75 188.07 80.20 189.42 C 78.48 187.26 76.40 185.31 75.13 182.84 C 73.24 176.43 68.63 171.40 65.04 165.93 C 63.20 161.68 60.83 157.52 57.31 154.46 C 58.17 152.31 57.46 150.29 55.31 149.24 C 55.36 150.13 55.46 151.89 55.51 152.78 C 54.05 150.66 54.57 148.14 55.32 145.88 C 51.41 144.52 50.72 139.78 47.44 137.51 C 47.62 136.35 47.77 135.18 47.88 134.01 C 46.12 134.88 44.43 135.90 42.69 136.81 C 43.44 130.79 49.74 129.29 54.43 127.36 C 58.50 123.53 63.21 120.42 68.44 118.41 C 72.14 115.61 75.73 112.15 80.53 111.45 C 83.77 103.09 93.78 101.26 100.05 95.89 C 102.62 92.57 107.45 91.88 109.55 88.20 C 110.87 88.36 112.19 88.55 113.52 88.71 C 114.24 87.55 114.94 86.37 115.59 85.17 C 116.58 85.22 117.57 85.27 118.56 85.31 C 119.07 84.23 119.59 83.16 120.13 82.10 C 118.91 81.00 117.73 79.85 116.67 78.59 C 118.37 79.16 119.82 80.23 121.04 81.51 C 123.41 80.09 126.42 80.28 128.62 78.53 C 131.34 76.33 135.12 75.66 136.90 72.38 C 138.10 73.40 139.32 74.40 140.55 75.39 C 140.05 74.04 139.56 72.68 139.11 71.31 C 141.17 71.82 142.58 73.33 143.74 75.01 C 144.47 73.85 145.21 72.71 145.96 71.57 C 144.32 71.44 142.67 71.33 141.05 71.06 C 142.65 70.06 144.49 70.25 146.27 70.38 C 146.96 69.02 147.72 67.70 148.49 66.38 C 151.96 66.95 155.48 66.45 158.98 66.79 C 160.58 66.29 161.87 65.15 163.13 64.09 C 164.91 61.96 167.47 64.42 169.51 64.95 M 166.24 82.92 C 164.77 83.46 163.40 84.25 161.99 84.95 C 163.15 86.30 164.29 87.67 165.39 89.07 C 167.82 88.07 170.44 87.25 172.37 85.35 C 174.58 82.97 178.50 82.73 179.69 79.37 C 175.07 80.03 170.83 82.13 166.24 82.92 M 150.05 95.99 C 148.99 98.02 147.41 99.66 145.87 101.32 C 148.19 101.43 151.35 102.38 152.97 100.10 C 154.96 97.51 157.52 95.49 160.49 94.12 C 159.63 92.41 158.79 90.70 157.94 88.98 C 154.74 90.56 151.73 92.76 150.05 95.99 M 170.61 97.21 C 171.85 99.39 173.32 101.43 174.48 103.66 C 176.88 101.79 179.40 100.08 181.85 98.27 C 181.65 96.55 181.15 94.85 181.15 93.11 C 182.29 92.24 183.74 92.51 185.08 92.39 C 185.80 91.42 186.56 90.48 187.35 89.55 C 182.20 92.95 175.59 93.35 170.61 97.21 M 110.24 90.25 C 110.82 90.81 110.82 90.81 110.24 90.25 M 108.25 104.18 C 109.14 104.95 110.07 105.68 111.03 106.36 C 114.37 104.87 118.24 102.87 119.03 98.93 C 114.52 96.93 111.05 101.31 108.25 104.18 M 157.94 108.53 C 158.89 108.44 160.79 108.27 161.74 108.18 C 161.73 109.01 161.72 110.67 161.71 111.49 C 163.54 109.29 165.79 107.56 168.77 107.42 C 169.10 104.62 166.74 103.02 165.38 100.91 C 162.12 102.45 158.00 104.36 157.94 108.53 M 102.75 105.91 C 101.95 108.52 99.58 109.79 97.47 111.21 C 98.15 112.33 98.85 113.44 99.58 114.54 C 98.98 113.95 97.80 112.76 97.21 112.16 C 94.19 114.09 92.86 117.50 92.11 120.83 C 94.04 120.43 96.30 120.34 97.52 118.54 C 100.25 115.35 103.70 112.94 106.82 110.17 C 105.44 108.77 104.12 107.32 102.75 105.91 M 179.15 106.36 C 177.83 106.53 176.69 108.96 178.53 109.25 C 180.56 109.72 181.90 105.35 179.15 106.36 M 129.58 107.38 C 128.63 108.33 127.66 109.27 126.67 110.18 C 129.47 111.82 130.13 115.28 132.01 117.76 C 133.02 117.64 134.02 117.52 135.03 117.40 C 134.05 118.03 133.06 118.63 132.08 119.24 C 133.84 120.76 135.15 122.69 136.74 124.38 C 138.92 125.66 141.46 124.23 143.72 123.85 C 141.70 121.18 139.87 118.37 138.50 115.30 C 141.17 114.48 143.64 113.21 146.11 111.94 C 145.36 110.82 144.61 109.70 143.88 108.57 C 141.40 110.17 139.06 111.97 136.78 113.83 C 135.35 111.72 133.83 109.66 132.19 107.70 C 131.32 107.60 130.45 107.49 129.58 107.38 M 113.11 111.57 C 113.71 116.01 116.16 119.86 118.93 123.27 C 116.49 126.09 113.20 127.95 109.99 129.74 C 108.73 126.07 106.13 123.12 103.58 120.29 C 103.18 120.23 102.38 120.13 101.98 120.08 C 99.92 122.58 102.70 124.67 104.08 126.61 C 104.29 129.10 105.91 130.93 107.53 132.70 C 105.99 133.91 104.28 134.87 102.60 135.88 C 102.63 136.72 102.69 138.38 102.72 139.22 C 105.09 138.14 107.06 135.99 109.82 136.02 C 112.49 138.55 114.10 142.10 117.20 144.21 C 117.68 142.87 118.17 141.54 118.70 140.23 C 116.28 138.33 114.10 135.76 114.06 132.53 C 118.18 131.66 120.03 127.80 122.93 125.29 C 122.69 126.58 122.40 127.85 122.06 129.11 C 124.60 131.38 126.07 135.56 130.19 134.82 C 129.99 133.06 129.02 131.63 127.72 130.50 C 128.35 128.25 127.10 126.36 125.51 124.90 C 128.56 124.80 133.00 121.23 130.91 118.12 C 127.79 117.59 125.34 120.79 122.66 122.14 C 122.59 120.54 122.49 118.93 122.24 117.34 C 119.80 114.65 117.17 111.26 113.11 111.57 M 79.77 119.84 C 79.25 121.43 79.82 121.96 81.47 121.44 C 81.99 119.84 81.42 119.31 79.77 119.84 M 160.12 133.23 C 159.87 133.52 159.36 134.12 159.11 134.41 C 159.93 137.86 163.93 132.71 160.12 133.23 M 74.13 142.14 C 70.33 145.30 70.00 150.62 69.38 155.18 C 68.13 155.47 67.07 156.10 66.21 157.06 C 67.43 156.61 68.62 156.09 69.78 155.49 C 72.98 158.31 75.94 162.01 80.40 162.68 C 85.20 163.88 89.27 160.20 93.68 158.99 C 89.68 156.00 91.84 150.53 88.89 146.94 C 89.83 147.83 90.74 148.74 91.67 149.64 C 93.94 148.40 96.18 147.11 98.40 145.79 C 97.84 142.51 95.49 140.14 92.77 138.46 C 91.49 139.45 90.21 140.44 88.93 141.43 C 86.98 140.30 84.44 139.73 83.53 137.43 C 80.71 139.65 76.72 139.56 74.13 142.14 M 52.14 140.20 C 52.81 140.88 52.81 140.88 52.14 140.20 M 131.00 144.41 C 131.92 145.71 132.85 147.01 133.76 148.32 C 136.34 146.63 138.99 145.04 141.65 143.48 C 140.43 142.70 139.20 141.93 137.97 141.16 C 135.54 142.01 133.22 143.12 131.00 144.41 M 117.06 152.58 C 117.43 152.97 117.81 153.37 118.19 153.77 C 117.51 154.53 116.83 155.30 116.14 156.07 C 120.86 156.98 125.27 154.85 128.84 151.95 C 128.11 150.36 127.38 148.77 126.72 147.15 C 124.28 150.19 120.17 150.49 117.06 152.58 Z" />
<path fill="#ffffff" opacity="1.00" d=" M 147.18 62.99 C 148.82 62.43 149.40 62.95 148.90 64.54 C 147.25 65.10 146.67 64.58 147.18 62.99 Z" />
<path fill="#ffffff" opacity="1.00" d=" M 141.98 66.36 C 143.39 65.93 143.90 66.41 143.49 67.79 C 142.08 68.21 141.57 67.73 141.98 66.36 Z" />
<path fill="#ffffff" opacity="1.00" d=" M 123.58 75.10 C 124.69 75.22 125.81 75.33 126.93 75.44 C 125.37 76.83 123.95 78.36 122.57 79.93 C 121.55 79.18 120.55 78.43 119.54 77.70 C 119.66 77.36 119.92 76.68 120.05 76.35 C 120.58 76.81 121.64 77.75 122.17 78.22 C 122.52 77.44 123.22 75.88 123.58 75.10 Z" />
<path fill="#ffffff" opacity="1.00" d=" M 190.93 83.28 C 194.29 83.45 189.32 86.17 190.93 83.28 Z" />
<path fill="#ffffff" opacity="1.00" d=" M 127.36 132.29 C 130.75 132.57 125.76 135.27 127.36 132.29 Z" />
<path fill="#ffffff" opacity="1.00" d=" M 77.33 142.05 C 80.79 139.90 84.85 146.05 81.33 148.26 C 79.47 150.20 76.78 149.64 74.44 149.24 C 73.74 146.45 74.50 143.31 77.33 142.05 Z" />
<path fill="#ffffff" opacity="1.00" d=" M 80.17 153.38 C 81.18 150.32 85.50 150.91 87.14 153.04 C 88.15 155.03 87.55 157.30 87.43 159.40 C 85.56 159.76 83.45 161.32 81.61 160.41 C 80.28 158.39 78.31 155.71 80.17 153.38 Z" />
<path fill="#ffffff" opacity="1.00" d=" M 53.22 157.24 C 53.82 157.81 53.82 157.81 53.22 157.24 Z" />
<path fill="#ffffff" opacity="1.00" d=" M 56.77 162.11 C 58.41 161.54 58.95 162.07 58.39 163.70 C 56.76 164.27 56.22 163.73 56.77 162.11 Z" />
<path fill="#ffffff" opacity="1.00" d=" M 65.22 179.19 C 65.83 179.80 65.83 179.80 65.22 179.19 Z" />
<path fill="#ffffff" opacity="1.00" d=" M 70.26 186.93 C 73.20 185.37 70.48 190.30 70.26 186.93 Z" />
</g>
</svg>
