<?xml version="1.0" encoding="UTF-8" ?>
<!DOCTYPE svg PUBLIC "-//W3C//DTD SVG 1.1//EN" "http://www.w3.org/Graphics/SVG/1.1/DTD/svg11.dtd">
<svg width="256pt" height="256pt" viewBox="0 0 256 256" version="1.1" xmlns="http://www.w3.org/2000/svg">
<g id="#ffffffff">
<path fill="#ffffff" opacity="1.00" d=" M 127.13 47.77 C 129.01 47.19 130.97 46.84 132.93 46.77 C 137.60 49.36 141.21 53.39 145.37 56.66 C 148.91 59.44 151.57 63.18 155.40 65.61 C 159.72 70.29 163.90 75.12 168.43 79.62 C 170.37 81.50 173.12 82.09 175.24 83.71 C 179.56 87.03 183.78 90.49 188.29 93.56 C 191.36 96.17 194.20 99.10 197.78 101.04 C 197.14 103.35 195.99 105.56 193.90 106.86 C 191.59 106.89 190.13 104.83 188.30 103.76 C 185.57 102.04 182.70 100.40 180.69 97.81 C 180.54 99.55 180.62 101.47 179.04 102.63 C 177.26 102.99 176.23 101.09 174.95 100.21 C 175.46 101.05 175.98 101.89 176.49 102.73 C 175.26 105.63 172.71 109.42 175.82 112.03 C 173.97 117.81 174.51 123.98 174.61 129.91 C 173.39 132.78 174.30 135.72 174.29 138.67 C 171.86 145.41 175.60 152.84 172.30 159.42 C 171.09 159.72 169.85 159.56 168.62 159.54 C 168.01 152.38 168.98 145.19 168.43 138.02 C 168.05 133.57 169.49 127.93 165.08 125.02 C 163.41 126.62 159.66 127.21 160.16 130.09 C 161.63 130.35 163.13 130.47 164.63 130.58 C 164.28 131.86 163.93 133.13 163.59 134.41 C 164.46 134.48 166.19 134.62 167.06 134.68 C 166.19 136.40 164.94 137.86 163.36 138.98 C 163.89 139.98 164.40 140.99 164.92 142.01 C 164.29 142.63 163.66 143.26 163.03 143.88 C 161.75 143.75 159.91 142.31 159.05 143.93 C 157.14 146.66 154.67 149.09 153.70 152.36 C 157.63 150.73 161.80 149.78 166.07 150.47 C 163.60 152.19 160.75 153.17 158.00 154.30 C 158.51 155.58 159.06 156.85 159.60 158.12 C 154.73 159.93 149.44 160.31 144.29 160.55 C 143.81 161.92 143.04 163.27 143.11 164.77 C 143.86 165.72 145.15 165.42 146.18 165.44 C 148.88 165.19 151.28 166.77 153.81 167.46 C 155.75 173.53 158.97 179.77 157.24 186.29 C 155.94 188.89 155.14 191.90 152.84 193.84 C 150.07 196.69 145.77 197.35 143.19 200.42 C 141.84 204.17 141.89 208.43 139.94 211.94 C 136.23 214.63 131.34 213.38 127.17 212.74 C 123.66 209.06 125.19 203.82 123.61 199.42 C 123.18 197.90 121.29 198.01 120.08 197.61 C 116.96 197.22 114.40 195.22 112.41 192.91 C 112.11 191.18 113.05 189.60 113.44 187.97 C 113.01 185.11 110.80 182.26 112.05 179.33 C 113.34 176.26 113.01 171.92 116.44 170.25 C 119.88 168.59 122.33 165.62 125.01 163.00 C 126.08 161.53 127.96 162.42 129.46 162.36 C 129.48 161.93 129.51 161.07 129.53 160.64 C 126.04 160.65 122.05 159.83 118.99 161.97 C 114.48 164.85 109.80 167.96 104.28 168.23 C 104.60 167.31 104.93 166.40 105.28 165.50 C 102.81 164.84 101.73 162.56 100.45 160.58 C 98.57 160.85 96.76 164.63 95.05 162.99 C 95.00 161.78 96.01 161.01 96.69 160.16 C 94.94 159.70 93.23 159.12 91.61 158.31 C 92.17 157.83 93.29 156.85 93.85 156.37 C 91.80 156.56 89.75 156.44 87.70 156.36 C 87.33 155.22 86.95 154.10 86.57 152.98 C 86.60 155.45 86.44 157.92 86.30 160.38 C 89.03 160.44 91.86 160.21 94.50 161.08 C 94.25 164.91 89.49 164.28 86.79 164.70 C 86.88 166.79 86.70 168.91 85.83 170.85 C 84.22 170.64 82.59 170.50 81.03 170.02 C 77.80 163.83 78.80 156.72 79.52 150.08 C 78.58 143.17 78.09 136.06 79.63 129.19 C 80.11 128.98 81.06 128.57 81.53 128.36 C 81.89 121.66 80.93 114.93 81.72 108.25 C 78.59 110.00 74.80 110.57 72.20 113.21 C 69.65 115.05 67.51 118.31 63.93 117.64 C 60.99 116.18 63.40 113.31 64.69 111.58 C 68.00 107.89 70.19 103.13 74.53 100.47 C 78.89 97.56 81.34 92.61 85.90 89.96 C 88.22 86.01 92.11 83.47 94.93 79.93 C 99.64 74.33 105.67 69.98 110.03 64.10 C 116.01 58.94 121.56 53.36 127.13 47.77 M 130.68 55.08 C 130.65 57.29 130.98 59.53 131.96 61.53 C 133.40 61.15 134.95 60.39 135.64 58.99 C 134.71 57.04 132.33 56.33 130.68 55.08 M 126.12 62.14 C 125.54 63.77 126.07 64.33 127.71 63.82 C 128.22 62.21 127.69 61.65 126.12 62.14 M 141.48 63.27 C 141.58 66.84 142.00 70.52 140.66 73.93 C 142.36 73.81 144.06 73.72 145.76 73.67 C 145.51 72.79 145.27 71.92 145.03 71.04 C 145.55 70.16 146.15 69.33 146.55 68.39 C 144.88 66.66 143.17 64.98 141.48 63.27 M 148.34 69.71 C 149.88 72.39 150.60 76.22 154.15 76.85 C 153.79 78.37 153.47 79.91 153.17 81.45 C 154.98 81.97 156.23 83.23 157.00 84.91 C 157.49 84.79 158.49 84.56 158.98 84.45 C 158.85 84.93 158.58 85.89 158.44 86.37 C 155.79 87.99 154.05 90.56 152.11 92.90 C 151.66 92.63 150.77 92.08 150.32 91.81 C 149.63 92.54 148.93 93.27 148.24 94.00 C 148.70 93.61 149.63 92.83 150.09 92.44 C 150.58 92.58 151.55 92.87 152.04 93.01 C 154.61 91.72 157.16 90.31 160.15 90.41 C 160.62 91.86 161.10 93.31 161.55 94.76 C 164.69 94.39 167.86 94.23 170.93 93.39 C 166.80 89.06 162.44 84.95 158.79 80.19 C 155.33 76.67 151.63 73.40 148.34 69.71 M 167.65 99.76 C 168.44 100.98 168.59 102.43 168.34 103.85 C 165.44 105.64 162.50 107.48 161.18 110.81 C 163.63 109.66 166.45 109.23 168.69 107.69 C 170.35 104.94 167.30 101.70 169.21 99.11 C 168.82 99.27 168.04 99.60 167.65 99.76 M 89.83 113.12 C 92.15 112.87 93.35 110.98 94.00 108.95 C 92.14 109.79 90.26 110.95 89.83 113.12 M 165.04 122.23 C 166.31 122.34 167.58 122.46 168.85 122.59 C 168.77 121.39 168.69 120.20 168.60 119.00 C 167.15 119.77 165.97 120.90 165.04 122.23 M 89.16 119.92 C 87.83 121.67 91.39 123.71 92.18 121.80 C 92.05 120.54 90.38 118.81 89.16 119.92 M 140.25 144.97 C 137.71 148.66 132.94 150.06 130.74 153.94 C 135.36 154.40 139.19 151.59 142.64 148.94 C 142.04 147.34 141.28 145.77 141.12 144.05 C 140.90 144.28 140.47 144.74 140.25 144.97 M 125.38 169.24 C 122.95 171.57 119.44 172.96 118.08 176.25 C 116.53 180.40 117.93 184.94 116.45 189.10 C 116.10 189.23 115.41 189.47 115.07 189.59 C 118.30 189.82 120.56 192.80 123.86 193.17 C 129.33 195.61 128.83 202.49 129.42 207.50 C 131.58 208.97 134.15 209.53 136.74 209.15 C 136.52 205.22 138.63 201.63 138.39 197.80 C 138.91 197.78 139.94 197.74 140.46 197.72 C 143.00 193.10 150.06 192.67 151.06 187.08 C 153.59 181.55 151.66 175.29 148.46 170.50 C 145.42 168.81 142.44 171.71 139.36 170.72 C 134.79 169.43 130.00 170.15 125.38 169.24 Z" />
<path fill="#ffffff" opacity="1.00" d=" M 121.86 176.68 C 125.15 176.12 127.75 173.87 130.87 172.85 C 131.86 174.25 133.51 175.30 134.00 176.99 C 131.84 182.44 127.00 186.16 122.05 188.95 C 121.12 187.29 120.16 185.64 119.34 183.92 C 119.93 181.42 121.12 179.13 121.86 176.68 Z" />
<path fill="#ffffff" opacity="1.00" d=" M 137.81 177.33 C 142.10 178.07 147.71 180.07 148.04 185.16 C 148.66 187.25 146.94 189.01 145.05 189.56 C 143.07 187.77 140.60 186.81 138.36 185.44 C 137.29 182.91 137.24 179.98 137.81 177.33 Z" />
<path fill="#ffffff" opacity="1.00" d=" M 127.42 190.98 C 128.37 188.38 130.03 184.93 132.99 184.46 C 136.51 183.68 137.80 187.77 139.40 190.05 C 139.01 191.23 138.31 192.79 136.96 193.06 C 135.96 192.17 135.11 191.13 134.23 190.13 C 133.25 191.49 132.64 193.38 131.00 194.08 C 129.49 193.48 128.45 192.16 127.42 190.98 Z" />
</g>
</svg>
