<?xml version="1.0" encoding="UTF-8" ?>
<!DOCTYPE svg PUBLIC "-//W3C//DTD SVG 1.1//EN" "http://www.w3.org/Graphics/SVG/1.1/DTD/svg11.dtd">
<svg width="256pt" height="256pt" viewBox="0 0 256 256" version="1.1" xmlns="http://www.w3.org/2000/svg">
<g id="#ffffffff">
<path fill="#ffffff" opacity="1.00" d=" M 181.31 56.05 C 173.46 46.87 176.38 33.22 183.02 24.24 C 187.87 25.25 188.32 30.87 188.69 34.89 C 189.78 42.52 187.89 50.08 186.38 57.50 C 183.40 63.31 180.68 69.49 175.73 73.93 C 174.61 73.71 173.50 73.46 172.39 73.23 C 169.63 76.54 166.03 79.11 162.28 81.20 C 158.90 82.84 155.44 80.72 152.90 78.58 C 150.52 81.04 148.59 84.01 145.72 85.93 C 144.31 87.27 142.03 84.77 143.38 83.44 C 145.58 81.30 148.06 79.39 149.74 76.77 C 151.95 74.29 150.00 70.92 150.25 68.01 C 150.35 59.75 152.01 51.35 155.97 44.04 C 160.64 46.84 160.63 53.20 160.69 58.04 C 160.82 63.81 158.22 68.99 155.85 74.08 C 154.44 76.52 157.64 78.83 159.87 77.97 C 164.61 76.61 168.11 72.88 171.60 69.60 C 174.77 67.00 173.89 62.32 176.18 59.17 C 177.24 57.28 179.37 56.62 181.31 56.05 M 183.91 53.53 C 186.18 45.58 187.95 36.63 184.21 28.85 C 179.04 35.77 177.15 47.02 183.91 53.53 M 156.37 50.91 C 155.01 57.15 151.92 63.67 153.87 70.10 C 156.57 65.22 158.26 59.59 157.72 53.98 C 157.75 52.78 157.25 51.70 156.37 50.91 Z" />
<path fill="#ffffff" opacity="1.00" d=" M 125.37 56.25 C 126.98 55.26 129.03 55.34 130.67 56.22 C 135.63 58.18 138.39 63.29 139.74 68.17 C 141.76 76.03 138.64 84.03 134.82 90.82 C 132.73 94.71 129.80 98.25 125.92 100.46 C 123.16 101.13 120.27 98.71 119.95 95.97 C 119.44 91.99 120.25 87.89 119.12 83.97 C 117.68 76.73 117.05 68.57 120.94 61.96 C 122.09 59.86 123.13 57.40 125.37 56.25 M 123.95 62.01 C 119.70 67.74 121.43 75.18 121.19 81.79 C 122.04 82.63 122.90 83.45 123.76 84.27 C 122.66 88.30 124.00 92.82 127.94 94.71 C 131.74 90.20 134.33 84.79 136.32 79.27 C 138.95 72.14 136.88 62.69 129.78 58.96 C 127.33 57.35 125.24 60.25 123.95 62.01 M 122.93 94.28 C 122.04 95.69 124.13 98.27 125.60 97.01 C 126.47 95.60 124.30 93.58 122.93 94.28 Z" />
<path fill="#ffffff" opacity="1.00" d=" M 240.70 86.78 C 240.19 81.89 240.21 75.85 245.07 73.06 C 249.94 76.55 246.90 82.77 245.00 87.06 C 246.98 87.31 249.01 86.95 250.44 85.46 C 253.57 83.23 250.25 79.27 251.90 76.28 C 253.35 76.98 254.77 78.21 254.62 80.01 C 254.82 83.84 253.18 87.78 250.51 90.49 C 248.20 92.67 244.92 91.42 242.24 90.86 C 239.64 94.52 236.64 98.56 232.02 99.63 C 230.46 99.50 229.19 98.47 227.83 97.81 C 226.07 101.47 223.98 105.73 220.02 107.34 C 217.77 106.65 217.12 104.00 215.86 102.28 C 213.06 105.12 212.12 109.24 209.08 111.89 C 208.08 111.15 207.09 110.39 206.11 109.64 C 203.18 112.85 200.44 116.52 196.66 118.75 C 193.78 120.41 191.64 117.22 190.01 115.35 C 187.16 118.64 184.30 122.31 179.95 123.62 C 178.51 123.23 178.61 121.45 178.03 120.35 C 182.57 118.33 185.63 114.35 188.85 110.74 C 188.55 105.36 188.27 99.86 189.65 94.59 C 190.96 89.42 190.82 83.88 193.13 78.98 C 195.18 78.65 195.97 80.83 196.64 82.34 C 199.14 88.57 198.04 95.40 197.03 101.82 C 196.34 105.82 193.54 109.05 192.66 112.97 C 192.61 114.96 195.03 115.76 196.25 114.26 C 200.33 110.35 206.37 107.30 207.33 101.20 C 208.10 97.24 210.44 93.85 212.92 90.75 C 215.28 92.79 217.11 95.43 217.56 98.58 C 218.10 99.95 218.16 102.67 219.97 102.77 C 222.66 100.57 225.05 97.80 226.53 94.64 C 226.97 90.28 226.53 85.15 230.19 81.95 C 232.54 80.79 233.95 84.78 231.98 85.92 C 228.69 87.92 229.19 92.18 229.98 95.39 C 234.89 94.84 238.71 91.06 240.70 86.78 M 194.64 84.88 C 193.69 91.52 191.77 98.05 191.83 104.80 C 192.21 104.45 192.96 103.74 193.34 103.38 C 195.52 98.60 195.51 93.17 195.72 88.01 C 195.87 86.84 195.12 85.86 194.64 84.88 Z" />
<path fill="#ffffff" opacity="1.00" d=" M 160.39 87.43 C 166.97 86.02 174.08 84.73 180.54 87.37 C 184.65 89.38 187.96 94.19 186.10 98.85 C 182.99 106.74 177.51 114.26 169.35 117.42 C 168.64 124.18 169.12 131.05 168.19 137.75 C 164.53 135.79 158.96 135.02 157.49 130.66 C 160.28 131.27 162.85 132.53 165.37 133.82 C 166.35 123.18 167.96 111.89 164.17 101.60 C 168.90 103.20 167.89 109.48 169.88 113.22 C 176.55 109.69 181.37 103.18 183.39 95.97 C 184.25 93.89 182.62 92.02 180.91 91.08 C 176.54 88.32 171.11 89.12 166.24 89.54 C 157.38 91.00 148.37 93.59 141.18 99.18 C 137.31 101.94 133.36 104.95 131.25 109.35 C 129.52 112.58 131.02 117.23 134.63 118.38 C 138.73 119.55 142.76 117.52 146.79 116.99 C 149.97 116.53 153.02 115.49 156.08 114.55 C 157.74 113.74 158.99 115.61 159.34 117.00 C 152.62 119.93 145.25 121.06 138.00 121.71 C 128.87 122.77 124.74 109.71 131.07 104.04 C 135.14 98.94 140.94 95.77 146.35 92.31 C 150.50 89.38 155.76 89.21 160.39 87.43 Z" />
<path fill="#ffffff" opacity="1.00" d=" M 53.54 92.46 C 55.47 91.65 56.58 89.83 57.87 88.30 C 58.90 89.54 59.89 90.80 60.87 92.07 C 59.46 93.60 58.00 95.19 56.03 96.01 C 50.65 98.42 45.27 100.87 39.66 102.69 C 37.57 103.44 34.58 104.19 34.90 107.04 C 34.30 120.84 33.37 134.63 33.20 148.45 C 28.66 146.76 23.96 145.66 19.25 144.59 C 17.39 144.32 16.22 142.83 15.54 141.21 C 20.13 142.13 24.59 143.58 29.19 144.47 C 30.18 134.84 29.52 125.11 30.76 115.49 C 31.16 112.48 31.47 109.45 31.36 106.41 C 26.70 107.68 22.53 110.17 18.18 112.20 C 13.66 114.57 9.04 116.89 5.08 120.16 C 11.53 120.50 17.88 119.50 24.04 117.65 C 26.10 116.89 27.31 119.04 28.12 120.53 C 21.65 122.73 14.79 123.60 7.99 123.87 C 5.02 124.14 2.30 122.82 0.00 121.06 L 0.00 119.66 C 2.01 117.43 4.09 115.16 6.82 113.82 C 14.24 110.41 20.79 105.22 28.69 102.86 C 31.16 102.40 32.17 100.07 33.06 98.01 C 34.82 98.32 36.64 99.12 38.44 98.54 C 43.67 97.07 48.70 94.91 53.54 92.46 Z" />
<path fill="#ffffff" opacity="1.00" d=" M 93.92 93.96 C 96.26 94.56 98.25 96.48 98.52 98.95 C 98.75 108.19 93.69 116.94 86.76 122.74 C 84.11 124.87 81.04 122.85 79.15 120.77 C 77.16 122.56 75.18 124.55 72.58 125.43 C 69.04 126.95 68.07 122.03 66.29 119.96 C 62.97 123.34 61.20 127.76 58.77 131.70 C 58.33 131.80 57.46 132.00 57.02 132.10 C 56.79 130.37 56.59 128.63 56.34 126.91 C 51.92 131.61 48.25 137.31 42.65 140.73 C 40.01 142.54 37.75 139.46 37.81 136.97 C 39.17 137.26 40.52 137.62 41.86 137.99 C 47.55 133.58 52.49 128.15 55.91 121.79 C 56.75 119.29 56.25 116.57 56.49 113.98 C 56.96 107.48 57.82 100.94 60.22 94.84 C 64.86 95.76 64.56 101.35 64.27 105.00 C 64.07 111.45 60.91 117.15 59.00 123.15 C 62.42 121.53 63.50 117.18 66.94 115.54 C 69.47 116.84 69.84 120.37 71.08 122.75 C 74.33 121.54 77.43 118.99 78.54 115.64 C 78.87 111.30 78.41 105.43 82.99 103.15 C 84.52 104.79 86.90 106.41 86.58 108.96 C 85.41 112.22 83.35 115.05 81.73 118.08 C 81.56 120.62 84.62 120.18 85.85 118.88 C 90.95 113.77 95.40 107.41 95.97 100.00 C 95.45 97.93 94.34 96.06 93.92 93.96 M 59.53 112.64 C 62.41 109.50 62.11 104.69 61.98 100.70 C 59.71 104.20 59.70 108.62 59.53 112.64 Z" />
<path fill="#ffffff" opacity="1.00" d=" M 126.05 151.30 C 131.54 144.73 136.49 137.69 141.99 131.11 C 143.09 132.56 144.21 134.13 144.13 136.04 C 144.45 141.53 145.89 147.84 141.88 152.40 C 139.54 150.85 136.55 149.10 136.62 145.89 C 138.08 146.12 139.54 146.42 140.99 146.70 C 141.40 144.01 141.68 141.28 141.35 138.57 C 134.70 144.70 130.22 152.63 125.00 159.88 C 123.68 157.95 122.96 155.74 122.15 153.58 C 119.61 157.05 118.50 161.41 115.58 164.62 C 115.03 164.71 113.92 164.90 113.37 165.00 C 112.64 163.28 111.96 161.55 111.21 159.84 C 109.73 162.81 108.14 165.72 106.56 168.64 C 104.93 170.01 104.12 167.76 103.48 166.57 C 102.80 164.66 102.78 162.61 102.51 160.62 C 98.90 163.51 97.37 168.19 95.68 172.34 C 94.60 171.49 93.62 170.53 92.64 169.57 C 88.74 175.19 85.48 181.62 79.95 185.83 C 78.17 184.28 76.65 182.48 75.08 180.73 C 71.94 184.69 70.18 189.86 66.01 192.93 C 64.20 192.41 63.18 190.62 61.80 189.47 C 60.49 191.98 60.52 195.70 58.01 197.29 C 55.49 196.05 54.32 193.27 52.72 191.13 C 50.92 194.95 49.94 199.08 48.87 203.16 C 45.60 203.41 44.24 199.67 44.29 196.99 C 44.42 191.03 46.19 185.15 49.13 179.98 C 53.28 182.61 53.86 187.88 56.15 191.86 C 57.86 189.59 59.49 187.22 60.59 184.58 C 61.57 182.25 61.18 179.59 62.15 177.25 C 62.95 175.58 64.06 174.08 65.09 172.55 C 66.78 173.11 67.91 174.40 68.68 175.96 C 65.05 178.82 63.24 183.67 64.16 188.21 C 67.77 186.28 69.56 182.25 72.38 179.41 C 76.26 175.88 75.78 169.40 80.87 166.95 C 81.51 168.31 84.04 169.82 82.38 171.33 C 79.90 173.96 77.75 177.20 78.03 180.99 C 79.08 180.84 79.96 180.38 80.68 179.63 C 85.89 173.88 90.11 167.22 93.02 160.02 C 95.26 152.22 91.55 144.12 93.58 136.29 C 95.42 135.41 96.05 137.91 96.88 139.05 C 99.37 145.91 97.86 153.20 96.97 160.19 C 99.08 158.80 100.35 155.98 102.94 155.48 C 104.90 156.61 104.98 159.24 105.66 161.18 C 109.69 157.76 111.03 152.21 114.01 147.96 C 117.05 150.24 115.69 153.87 115.43 157.01 C 119.20 153.33 120.97 148.10 124.10 143.89 C 126.42 145.70 125.87 148.73 126.05 151.30 Z" />
<path fill="#ffffff" opacity="1.00" d=" M 19.44 173.93 C 20.76 174.33 22.41 174.54 22.99 176.01 C 24.65 179.32 24.44 183.15 24.96 186.73 C 27.91 182.41 29.04 176.94 32.98 173.31 C 34.75 174.76 36.71 176.31 37.31 178.64 C 38.49 182.42 36.87 186.21 35.98 189.85 C 36.85 192.21 39.22 193.66 40.32 195.92 C 39.63 201.03 40.27 206.99 36.08 210.83 C 33.75 209.01 30.78 207.15 30.21 204.02 C 30.48 199.77 37.17 198.64 35.97 193.92 C 33.81 194.64 33.11 196.98 31.90 198.66 C 30.80 197.68 28.98 196.88 29.14 195.13 C 31.32 189.88 34.48 184.64 34.15 178.74 C 31.62 180.67 30.91 183.90 29.63 186.65 C 26.56 194.73 23.27 203.05 23.59 211.85 C 22.42 213.13 20.89 211.79 20.29 210.68 C 19.23 207.71 20.12 204.55 20.32 201.52 C 20.75 195.92 21.26 190.30 21.19 184.68 C 19.23 186.83 19.74 190.12 18.86 192.77 C 16.69 200.16 19.22 208.81 14.35 215.36 C 12.88 217.74 9.61 218.45 7.43 216.58 C 2.84 214.26 1.23 208.79 1.49 203.99 C 2.45 200.99 3.43 197.88 5.29 195.31 C 7.28 193.06 10.79 194.60 12.14 196.77 C 13.69 198.92 12.60 201.67 12.49 204.07 C 11.35 203.70 10.23 203.29 9.11 202.87 C 9.25 200.97 9.49 199.07 9.48 197.16 C 6.19 199.57 4.77 204.05 4.97 208.01 C 5.37 210.28 5.59 213.38 8.12 214.32 C 9.77 214.72 11.16 213.19 11.97 211.95 C 13.66 208.51 13.94 204.60 14.70 200.89 C 15.43 195.85 17.68 191.12 17.96 186.01 C 18.33 181.97 19.26 178.00 19.44 173.93 M 35.32 202.31 C 34.08 202.73 33.07 204.53 33.92 205.69 C 35.47 206.34 37.21 202.64 35.32 202.31 Z" />
</g>
</svg>
