<?xml version="1.0" encoding="UTF-8" ?>
<!DOCTYPE svg PUBLIC "-//W3C//DTD SVG 1.1//EN" "http://www.w3.org/Graphics/SVG/1.1/DTD/svg11.dtd">
<svg width="256pt" height="256pt" viewBox="0 0 256 256" version="1.1" xmlns="http://www.w3.org/2000/svg">
<g id="#ffffffff">
<path fill="#ffffff" opacity="1.00" d=" M 72.34 65.36 C 78.24 62.51 84.44 59.82 91.05 59.36 C 99.61 58.98 106.92 66.78 107.46 75.00 C 106.85 83.76 100.02 90.46 93.13 95.09 C 88.70 97.86 84.11 102.06 78.46 100.80 C 78.23 98.62 78.13 96.43 77.99 94.24 C 71.78 99.92 65.54 105.61 59.08 111.02 C 60.08 113.06 63.02 113.57 65.05 114.31 C 73.67 115.59 82.15 112.77 90.25 110.18 C 93.47 108.41 94.24 104.31 96.98 101.98 C 99.45 99.81 102.17 96.88 105.77 97.29 C 107.26 97.13 108.26 98.59 107.80 99.97 C 106.82 104.36 105.13 108.62 105.00 113.17 C 106.84 112.81 108.67 112.33 110.36 111.49 C 117.75 107.92 124.97 104.01 132.28 100.29 C 134.10 99.51 136.07 98.30 138.13 98.89 C 138.96 102.74 135.76 106.10 134.62 109.63 C 139.49 109.10 143.82 106.55 147.68 103.68 C 151.09 101.10 154.33 98.10 156.33 94.26 C 152.72 93.32 148.92 92.97 145.45 91.55 C 143.85 90.84 144.40 88.99 145.06 87.80 C 149.77 88.24 154.27 90.16 159.02 90.57 C 161.94 87.98 163.13 83.98 165.18 80.72 C 165.97 81.59 167.75 82.39 167.00 83.85 C 166.43 86.62 164.58 88.80 162.97 91.02 C 168.29 92.53 174.31 92.01 179.03 95.22 C 180.14 97.04 177.48 97.86 176.15 97.56 C 170.94 96.38 165.66 95.45 160.33 94.95 C 156.22 100.57 151.94 106.59 150.46 113.46 C 158.29 111.20 164.89 106.01 171.30 101.17 C 172.20 101.73 173.09 102.30 173.99 102.86 C 179.28 101.74 184.63 100.70 190.04 100.46 C 192.17 100.08 192.73 102.54 192.88 104.12 C 193.44 109.26 189.45 113.19 188.08 117.85 C 191.38 118.03 194.61 117.03 197.51 115.52 C 199.08 114.43 199.87 112.43 201.74 111.75 C 202.99 117.05 197.63 120.55 193.02 120.97 C 190.28 121.37 185.32 122.72 184.50 118.96 C 185.65 114.69 188.59 111.17 189.76 106.93 C 189.90 105.55 190.08 102.73 187.89 103.42 C 183.76 104.06 179.63 104.72 175.49 105.37 C 175.26 108.20 175.31 111.24 173.70 113.72 C 172.21 116.34 169.38 117.70 166.79 118.99 C 165.37 115.63 166.70 112.06 167.17 108.65 C 162.03 111.36 157.50 115.29 151.91 117.09 C 150.37 117.76 148.75 117.32 147.20 117.02 C 146.21 112.43 148.83 108.33 150.29 104.18 C 147.83 105.74 145.48 107.49 142.96 108.97 C 139.08 111.29 134.60 112.39 130.74 114.74 C 129.06 115.55 127.17 117.44 125.30 116.00 C 122.73 114.74 121.47 112.11 120.20 109.72 C 115.68 112.06 111.31 114.72 106.65 116.76 C 105.15 117.54 103.72 116.30 102.38 115.77 C 102.15 113.34 102.21 110.90 102.19 108.46 C 98.32 110.92 95.40 114.87 90.80 116.13 C 90.66 114.72 90.54 113.32 90.45 111.91 C 81.80 116.79 71.13 120.05 61.38 116.62 C 59.23 115.87 57.38 114.35 55.13 113.91 C 40.61 125.47 25.93 136.92 10.64 147.44 C 9.52 144.72 12.21 143.34 14.00 141.97 C 22.33 136.01 30.59 129.95 38.70 123.69 C 43.90 119.69 49.51 116.04 53.81 111.02 C 52.36 107.82 50.40 104.67 50.50 101.03 C 50.62 92.62 53.67 84.36 58.69 77.65 C 61.68 72.10 67.15 68.61 72.34 65.36 M 63.12 76.12 C 58.02 81.15 55.59 88.13 54.07 94.97 C 53.38 99.69 53.23 105.30 56.97 108.87 C 63.61 104.69 68.90 98.87 74.87 93.86 C 78.17 90.93 80.48 87.14 83.08 83.61 C 83.62 84.88 84.61 86.21 83.57 87.53 C 82.05 90.80 80.26 94.29 81.13 98.02 C 85.68 97.51 89.51 94.70 93.13 92.13 C 98.38 88.00 104.52 83.17 105.16 76.01 C 104.81 68.00 97.03 61.07 88.97 62.09 C 78.94 63.17 70.09 69.12 63.12 76.12 M 94.84 110.19 C 98.22 107.74 102.69 105.81 104.08 101.57 C 99.74 102.48 97.08 106.69 94.84 110.19 M 124.00 107.84 C 125.27 109.35 126.47 111.95 128.90 111.35 C 131.91 109.70 133.07 106.06 134.11 102.99 C 130.55 104.15 127.09 105.69 124.00 107.84 M 171.34 107.17 C 170.20 108.22 169.56 110.28 170.06 111.77 C 171.85 111.99 173.05 107.82 171.34 107.17 Z" />
<path fill="#ffffff" opacity="1.00" d=" M 227.23 83.69 C 230.23 86.18 227.10 89.32 225.72 91.70 C 222.34 96.60 219.53 102.70 213.98 105.42 C 218.44 98.21 223.39 91.29 227.23 83.69 Z" />
<path fill="#ffffff" opacity="1.00" d=" M 251.43 104.62 C 252.69 103.65 253.64 105.11 254.62 105.74 C 251.69 110.98 250.04 116.81 247.10 122.02 C 245.96 123.72 243.62 127.23 241.62 124.51 C 240.52 122.51 238.38 120.39 238.66 118.09 C 240.85 115.39 242.33 119.61 243.85 120.91 C 246.38 117.46 248.59 113.70 249.73 109.55 C 240.27 112.29 231.38 116.54 222.32 120.32 C 219.17 121.62 216.51 123.78 213.76 125.74 C 211.13 124.57 213.58 121.14 215.39 120.35 C 226.85 113.91 239.65 110.38 251.43 104.62 Z" />
<path fill="#ffffff" opacity="1.00" d=" M 153.91 153.75 C 156.83 146.89 160.59 139.81 167.06 135.69 C 167.46 135.84 168.25 136.12 168.64 136.26 C 170.45 140.73 168.27 145.71 167.03 150.11 C 165.14 157.45 161.46 164.16 156.88 170.16 C 157.99 171.02 159.08 171.91 160.12 172.87 C 157.99 173.73 155.72 173.64 153.49 173.74 C 149.71 176.53 145.83 179.76 141.13 180.71 C 138.63 180.55 139.26 177.57 140.07 176.06 C 141.56 171.85 145.43 169.40 148.66 166.65 C 152.43 163.41 151.97 157.96 153.91 153.75 M 154.53 162.07 C 154.06 163.74 155.90 164.80 156.71 166.03 C 162.27 158.62 165.84 149.77 166.53 140.50 C 159.71 145.63 156.37 154.00 154.53 162.07 M 144.60 174.76 C 147.51 173.50 150.85 172.14 152.16 169.00 C 148.84 169.31 146.52 172.30 144.60 174.76 Z" />
<path fill="#ffffff" opacity="1.00" d=" M 96.32 155.30 C 101.52 151.04 105.38 145.48 109.00 139.89 C 112.26 145.42 106.32 150.68 105.47 156.15 C 109.64 154.23 113.60 151.80 118.09 150.65 C 120.39 156.83 118.13 163.99 113.12 168.13 C 110.55 170.61 106.88 170.99 103.65 172.10 C 104.17 174.39 106.81 175.52 108.99 175.36 C 118.52 174.62 126.84 168.91 133.04 161.94 C 133.25 163.77 133.54 165.75 132.47 167.39 C 130.64 170.89 129.19 174.62 126.86 177.82 C 123.86 177.15 125.88 173.99 125.94 171.97 C 121.67 174.95 117.31 178.64 111.85 178.81 C 108.77 179.01 105.28 179.40 102.71 177.31 C 100.31 175.15 98.34 171.81 99.23 168.49 C 103.11 168.21 107.26 167.99 110.46 165.51 C 113.86 163.32 115.85 159.42 115.63 155.37 C 110.81 156.78 106.27 159.20 102.47 162.48 C 96.55 167.42 92.86 174.32 88.57 180.58 C 87.94 180.73 86.68 181.01 86.04 181.16 C 85.69 177.30 88.22 174.18 89.99 171.01 C 93.75 164.65 100.57 160.09 102.39 152.65 C 99.17 156.08 94.77 158.13 91.78 161.80 C 87.26 167.04 81.51 171.08 75.56 174.54 C 68.90 178.04 61.98 182.20 54.17 181.83 C 50.59 181.63 48.84 177.89 48.46 174.77 C 47.51 169.76 49.82 164.79 53.13 161.14 C 57.27 156.65 62.93 153.51 68.99 152.61 C 70.59 156.27 71.25 160.54 69.42 164.26 C 67.35 168.61 64.47 172.84 60.50 175.65 C 60.24 168.25 70.16 164.33 68.22 156.39 C 62.86 157.39 57.95 160.37 54.18 164.25 C 51.45 167.07 50.19 171.11 50.69 174.99 C 50.81 176.34 51.56 177.94 53.18 177.77 C 56.67 177.99 60.26 177.75 63.54 176.47 C 70.14 173.62 76.68 170.59 82.84 166.87 C 87.95 163.77 91.67 158.98 96.32 155.30 Z" />
<path fill="#ffffff" opacity="1.00" d=" M 131.16 152.15 C 131.74 152.23 132.90 152.38 133.48 152.46 C 133.60 155.14 133.75 157.82 133.67 160.50 C 130.89 158.70 131.02 155.07 131.16 152.15 Z" />
<path fill="#ffffff" opacity="1.00" d=" M 163.71 175.67 C 167.50 170.06 172.36 164.71 178.91 162.41 C 179.54 163.49 180.16 164.58 180.77 165.68 C 181.68 165.39 183.49 164.82 184.40 164.53 C 184.59 169.84 181.32 174.33 179.59 179.14 C 183.47 178.48 187.31 177.42 190.90 175.80 C 192.20 173.14 192.31 169.78 194.76 167.77 C 197.23 165.74 200.25 163.75 203.60 164.10 C 204.03 169.22 201.73 174.50 197.55 177.54 C 196.01 178.39 197.88 180.29 199.06 180.00 C 206.51 179.15 213.21 175.57 219.24 171.32 C 219.23 173.00 220.10 175.14 218.43 176.34 C 213.21 180.76 206.51 183.10 199.91 184.56 C 196.09 185.66 194.09 181.61 191.99 179.28 C 189.41 179.46 187.29 181.22 184.76 181.57 C 181.75 181.85 178.79 182.73 176.10 184.10 C 174.33 185.44 173.88 187.81 172.54 189.52 C 168.67 194.32 165.28 199.54 160.99 204.00 C 160.12 205.39 157.80 205.20 157.24 203.64 C 155.15 198.94 153.83 192.77 157.40 188.42 C 160.83 184.61 166.10 183.37 170.78 181.76 C 175.93 180.95 176.86 174.80 179.40 171.07 C 177.25 172.42 175.08 173.74 172.83 174.91 C 169.87 176.44 167.58 179.48 164.00 179.55 C 162.28 178.79 162.79 176.81 163.71 175.67 M 167.76 174.17 C 171.13 172.81 174.30 170.96 177.26 168.87 C 177.23 168.37 177.18 167.38 177.16 166.88 C 173.54 168.49 170.44 171.28 167.76 174.17 M 194.77 174.24 C 197.71 173.90 199.44 171.59 199.95 168.83 C 196.95 168.93 195.22 171.52 194.77 174.24 M 159.16 190.16 C 155.89 193.11 157.81 197.85 159.74 200.98 C 163.82 196.17 167.79 191.21 170.88 185.69 C 166.92 186.97 162.56 187.59 159.16 190.16 Z" />
</g>
</svg>
