<?xml version="1.0" encoding="UTF-8" ?>
<!DOCTYPE svg PUBLIC "-//W3C//DTD SVG 1.1//EN" "http://www.w3.org/Graphics/SVG/1.1/DTD/svg11.dtd">
<svg width="256pt" height="256pt" viewBox="0 0 256 256" version="1.1" xmlns="http://www.w3.org/2000/svg">
<g id="#ffffffff">
<path fill="#ffffff" opacity="1.00" d=" M 89.35 23.06 C 87.61 19.77 89.20 16.16 89.63 12.75 C 89.47 14.50 89.29 16.25 89.10 18.01 C 90.74 18.43 92.36 19.01 93.87 19.80 C 92.59 19.11 89.68 18.67 90.13 21.02 C 89.63 24.13 91.02 26.90 92.91 29.25 C 92.77 30.11 92.48 31.85 92.33 32.72 C 90.47 29.83 88.84 26.59 89.35 23.06 Z" />
<path fill="#ffffff" opacity="1.00" d=" M 90.50 35.94 C 91.72 34.53 92.99 33.16 94.17 31.72 C 94.98 32.89 95.88 34.01 96.50 35.30 C 96.53 39.93 93.01 43.17 91.18 47.06 C 92.15 50.76 90.57 54.91 93.11 58.09 C 91.59 59.48 89.89 60.64 88.03 61.54 C 88.85 61.48 90.50 61.37 91.33 61.31 C 89.63 64.22 89.15 67.49 89.76 70.79 C 94.07 76.10 96.53 82.58 99.47 88.70 C 102.06 93.78 97.92 98.84 98.43 104.05 C 98.10 107.10 99.72 109.92 101.98 111.85 C 103.76 109.28 106.39 106.87 105.56 103.43 C 106.31 102.86 107.82 101.72 108.57 101.15 C 108.77 104.00 108.71 106.94 109.85 109.62 C 112.20 107.12 115.00 104.17 114.69 100.46 C 114.22 95.45 113.97 90.40 114.58 85.39 C 114.71 82.98 117.06 81.67 118.50 80.04 C 121.04 85.01 119.39 90.56 117.37 95.37 C 119.64 96.04 121.96 96.50 124.33 96.57 C 124.97 93.90 125.27 91.16 125.12 88.41 C 125.34 88.28 125.78 88.02 126.00 87.88 C 127.92 88.53 126.93 91.36 127.76 92.83 C 129.53 88.30 128.90 82.61 125.56 79.01 C 125.66 81.09 126.80 82.78 128.06 84.35 C 127.30 85.18 126.38 85.66 125.30 85.81 C 122.93 81.15 122.20 75.91 121.22 70.85 C 121.37 70.25 121.69 69.04 121.85 68.43 C 122.82 69.85 123.67 71.36 124.69 72.75 C 123.62 70.51 122.16 68.43 121.51 66.01 C 123.85 56.47 128.66 45.73 138.57 42.18 C 137.46 45.07 134.25 46.43 133.34 49.42 C 131.17 54.97 129.45 61.23 130.83 67.18 C 131.42 70.15 133.98 72.03 135.66 74.37 C 139.17 78.51 140.35 84.37 139.28 89.63 C 138.17 94.43 137.91 99.56 139.65 104.25 C 140.46 103.37 141.27 102.48 142.08 101.60 C 142.66 105.41 143.69 109.24 146.19 112.27 C 148.07 107.80 147.66 102.94 147.88 98.21 C 148.42 98.35 149.51 98.61 150.05 98.75 C 150.26 101.54 150.03 104.35 150.59 107.12 C 150.30 111.70 148.95 116.14 148.22 120.66 C 151.10 119.07 152.78 115.90 153.86 112.90 C 154.66 108.42 154.68 103.83 155.65 99.38 C 156.43 100.37 157.57 101.28 157.50 102.68 C 157.64 109.21 156.30 115.66 155.18 122.06 C 154.75 126.52 160.25 127.59 162.74 130.29 C 162.36 129.71 161.58 128.56 161.19 127.98 C 164.05 124.42 166.40 120.14 166.55 115.48 C 167.32 115.21 168.86 114.66 169.63 114.38 C 169.30 117.12 168.80 119.83 168.48 122.57 C 166.79 126.70 164.24 130.66 164.39 135.30 C 163.84 138.55 165.42 142.04 168.47 143.44 C 171.50 143.62 174.15 141.92 176.93 141.00 C 178.19 142.16 179.44 143.35 180.50 144.71 C 181.54 144.59 182.58 144.49 183.63 144.41 C 182.53 145.60 181.34 146.71 180.17 147.84 C 180.97 148.74 181.76 149.66 182.54 150.59 C 181.18 151.58 179.85 152.62 178.66 153.81 C 179.62 154.00 181.53 154.37 182.49 154.55 C 183.94 151.87 184.01 148.82 184.37 145.87 C 187.29 146.03 189.17 148.28 191.22 150.05 C 190.17 151.19 189.05 152.25 187.90 153.28 C 188.82 154.04 189.74 154.80 190.64 155.60 C 189.62 158.19 189.15 161.37 186.08 162.25 C 186.81 162.88 187.55 163.51 188.29 164.14 C 187.65 165.00 187.02 165.85 186.39 166.71 C 187.34 167.73 188.29 168.76 189.26 169.77 C 190.96 165.50 190.57 160.68 192.78 156.58 C 194.15 154.03 193.39 151.00 193.03 148.28 C 189.49 146.95 186.25 145.11 183.28 142.73 C 183.20 139.41 184.01 136.18 185.83 133.38 C 183.31 130.92 186.41 127.74 184.84 125.08 C 182.80 126.38 182.09 129.20 180.57 131.09 C 178.93 130.56 177.33 129.96 175.71 129.38 C 176.35 131.12 177.04 132.84 177.63 134.59 C 174.82 132.50 174.53 128.59 174.81 125.37 C 175.35 122.41 174.98 119.10 177.08 116.66 C 178.41 120.85 176.22 125.90 180.01 129.20 C 180.73 127.63 181.38 126.03 182.02 124.43 C 184.43 124.91 186.56 123.68 188.59 122.58 C 188.25 126.50 187.38 130.88 190.49 133.97 C 189.51 137.47 188.05 140.99 188.92 144.68 C 190.81 144.78 192.70 144.88 194.58 145.08 C 194.99 146.54 195.40 148.00 195.82 149.47 C 196.48 148.64 197.14 147.81 197.79 146.99 C 197.34 145.91 195.97 145.02 196.36 143.73 C 197.04 140.61 196.21 137.47 195.91 134.35 C 198.10 135.93 200.25 137.56 202.38 139.22 C 200.49 138.72 196.58 136.64 196.67 140.12 C 197.59 140.69 198.53 141.21 199.50 141.69 C 198.85 144.94 200.55 148.92 197.28 151.09 C 197.57 152.85 197.73 154.62 197.87 156.40 C 199.27 156.52 200.69 156.62 202.09 156.83 C 200.79 157.13 199.49 157.41 198.19 157.68 C 196.11 162.27 193.17 166.42 191.35 171.15 C 191.74 171.32 192.53 171.68 192.92 171.86 C 193.92 170.86 194.93 169.89 195.96 168.93 C 195.66 167.76 195.36 166.59 195.07 165.42 C 196.32 165.57 197.57 165.72 198.83 165.88 C 199.22 163.86 199.57 161.82 200.27 159.89 C 201.21 163.59 198.60 166.61 197.81 170.05 C 197.20 173.16 194.21 175.52 194.54 178.87 C 195.87 177.33 197.09 175.70 198.54 174.27 C 197.79 176.86 196.29 179.21 196.13 181.95 C 195.40 181.63 194.68 181.31 193.95 181.01 C 193.40 182.57 192.73 184.10 192.37 185.73 C 194.74 188.91 198.95 189.74 201.28 192.99 C 197.91 192.01 194.71 190.40 191.19 190.02 C 190.52 191.86 190.32 193.82 190.61 195.76 C 187.58 197.28 188.19 200.80 188.30 203.62 C 186.28 202.13 184.11 200.87 181.93 199.65 C 182.93 199.50 184.93 199.19 185.93 199.03 C 184.88 198.04 183.86 197.02 182.86 195.99 C 184.30 194.15 185.78 192.33 187.07 190.37 C 185.17 191.06 183.40 192.06 181.61 192.98 C 182.26 194.90 183.11 196.73 184.05 198.53 C 181.87 198.96 179.70 199.38 177.56 199.96 C 178.83 199.75 180.09 199.52 181.35 199.27 C 183.23 201.42 182.65 203.92 181.37 206.19 C 181.29 210.15 180.30 214.04 180.48 218.01 C 180.00 217.08 179.52 216.16 179.05 215.23 C 178.40 216.14 177.75 217.06 177.11 217.98 C 172.28 215.54 166.14 221.12 162.07 216.29 C 160.91 217.51 160.03 218.94 160.19 220.69 C 157.10 220.42 152.99 221.40 151.17 218.17 C 148.91 220.90 145.18 220.68 142.02 221.33 C 139.26 221.71 136.50 221.11 133.95 220.08 C 134.23 222.15 134.60 224.22 134.79 226.30 C 134.19 226.46 133.00 226.77 132.40 226.93 C 132.42 225.64 132.47 224.35 132.53 223.06 C 131.43 222.91 129.22 222.59 128.12 222.44 C 129.62 221.73 131.14 221.09 132.65 220.39 C 130.85 219.04 128.88 217.93 127.22 216.41 C 130.55 218.27 134.27 216.80 137.70 218.19 C 140.14 218.61 142.65 218.10 145.12 218.49 C 144.51 217.42 143.89 216.35 143.27 215.29 C 145.30 213.96 147.24 212.48 149.34 211.26 C 148.47 213.59 146.83 215.67 146.78 218.25 C 148.39 216.88 149.75 215.26 151.18 213.72 C 153.32 214.68 155.50 215.55 157.68 216.42 C 157.11 214.94 156.52 213.47 155.94 212.00 C 157.64 213.16 158.70 215.66 160.86 215.89 C 161.83 213.83 158.68 212.88 157.72 211.38 C 159.11 211.34 160.50 211.29 161.89 211.22 C 161.77 211.97 161.53 213.48 161.41 214.23 C 164.62 213.81 168.01 216.91 170.65 214.18 C 172.77 213.49 175.20 213.64 176.95 211.94 C 177.69 212.75 178.45 213.56 179.22 214.36 C 178.71 211.04 176.80 208.18 176.06 204.91 C 174.62 206.72 173.47 208.72 173.27 211.07 C 172.76 210.52 171.75 209.42 171.24 208.87 C 172.19 205.62 172.36 202.10 174.34 199.24 C 176.36 196.60 174.91 193.18 175.32 190.15 C 174.48 190.31 172.81 190.61 171.97 190.76 C 172.31 191.72 172.66 192.68 173.01 193.64 C 170.82 194.58 168.76 195.80 166.67 196.94 C 166.54 196.22 166.29 194.78 166.16 194.06 C 167.79 193.44 169.37 192.72 171.00 192.09 C 170.73 191.18 170.47 190.26 170.21 189.35 C 172.73 189.69 175.18 189.13 177.60 188.46 C 177.46 186.74 177.68 185.08 178.70 183.65 C 180.95 185.53 182.53 188.00 184.20 190.37 C 183.66 187.01 181.09 184.97 178.48 183.13 C 178.81 181.22 179.16 179.33 179.44 177.42 C 177.55 178.76 175.81 180.31 173.76 181.39 C 172.09 181.77 170.33 181.81 168.76 182.54 C 167.79 183.69 166.96 184.94 166.12 186.18 C 167.47 185.66 168.81 185.11 170.14 184.52 C 170.63 184.91 171.60 185.68 172.08 186.07 C 169.53 186.78 167.24 188.21 164.72 188.93 C 163.23 188.61 164.56 186.71 164.77 185.91 C 162.85 185.66 160.97 185.22 159.09 184.80 C 159.88 186.25 160.70 187.68 161.46 189.16 C 158.27 189.70 155.27 190.93 152.30 192.16 C 152.22 193.78 152.18 195.41 152.05 197.03 C 153.10 197.88 154.10 198.81 155.04 199.80 C 155.46 199.47 156.29 198.80 156.71 198.47 C 156.20 197.37 155.66 196.28 155.16 195.18 C 158.06 193.77 160.05 191.25 162.20 188.93 C 163.12 190.94 162.54 193.19 162.33 195.30 C 163.37 196.21 164.42 197.11 165.47 198.02 C 164.65 198.75 163.82 199.47 162.98 200.18 C 163.65 201.46 164.32 202.73 164.91 204.06 C 163.03 202.88 161.36 201.41 159.69 199.96 C 159.52 200.66 159.18 202.05 159.01 202.74 C 157.82 201.77 156.45 201.11 154.98 200.71 C 155.74 202.70 156.80 204.56 157.59 206.54 C 155.47 205.79 154.01 204.10 152.44 202.59 C 151.94 204.24 151.47 205.91 151.04 207.58 C 151.87 207.47 153.51 207.26 154.34 207.15 C 154.80 208.10 155.28 209.04 155.76 209.99 C 154.82 209.49 153.89 208.99 152.97 208.48 C 152.31 209.31 151.65 210.13 150.98 210.96 C 148.46 209.57 146.02 210.38 144.05 212.26 C 143.06 211.02 142.07 209.79 141.03 208.60 C 136.62 208.82 132.14 208.74 127.93 207.24 C 128.77 206.08 129.61 204.94 130.47 203.80 C 128.80 202.61 127.02 201.60 125.15 200.77 C 127.30 197.88 125.83 194.02 128.01 191.05 C 127.22 190.34 126.44 189.62 125.67 188.90 C 125.43 191.73 124.01 194.42 124.64 197.31 C 123.09 198.13 121.76 199.36 120.12 200.01 L 119.51 199.72 C 119.74 195.85 119.57 191.96 120.35 188.15 C 119.22 189.27 117.68 190.30 117.77 192.10 C 117.21 198.40 117.74 204.72 117.37 211.03 C 117.30 215.29 119.22 220.16 116.40 223.87 C 116.46 227.07 117.49 230.13 117.73 233.30 C 111.26 225.58 112.27 214.71 112.74 205.28 C 112.17 202.10 110.98 199.06 109.89 196.03 C 108.09 194.92 107.13 197.25 105.95 198.18 C 106.90 198.81 107.87 199.43 108.86 200.02 C 107.88 201.03 106.93 202.07 106.01 203.14 C 107.18 203.99 108.38 204.82 109.62 205.59 C 108.22 207.05 107.13 208.76 106.10 210.49 C 107.65 210.50 109.20 210.50 110.76 210.50 C 109.34 211.37 107.89 212.20 106.42 212.98 C 108.94 215.79 106.97 219.42 107.54 222.74 C 107.01 222.64 105.96 222.43 105.43 222.33 C 104.71 220.45 104.47 218.46 104.78 216.47 C 104.16 215.89 102.92 214.75 102.30 214.17 C 101.90 215.03 101.51 215.89 101.13 216.76 C 99.33 215.47 97.44 214.31 95.60 213.09 C 98.65 210.69 102.86 210.37 105.44 207.37 C 103.55 208.18 101.69 209.06 99.81 209.91 C 98.87 208.89 97.95 207.85 97.00 206.85 C 97.68 207.89 98.38 208.92 99.08 209.95 C 97.57 211.11 96.01 212.22 94.32 213.11 C 95.97 214.16 97.31 215.58 98.44 217.17 C 96.03 217.45 93.57 217.65 91.42 218.89 C 91.12 217.52 90.79 216.16 90.44 214.81 C 88.89 215.34 87.36 215.92 85.83 216.49 C 85.66 216.10 85.31 215.30 85.13 214.90 C 87.76 214.39 90.45 212.49 90.31 209.53 C 90.04 209.38 89.50 209.10 89.22 208.96 C 87.98 209.86 86.79 210.83 85.59 211.78 C 85.23 211.32 84.50 210.38 84.13 209.91 C 85.86 209.12 87.52 208.17 89.15 207.17 C 90.36 206.07 89.59 204.20 89.74 202.77 C 89.45 199.86 90.88 196.07 87.81 194.21 C 85.83 193.93 84.87 196.61 83.01 197.10 C 84.75 195.13 86.79 192.87 89.53 192.52 C 89.75 190.31 90.07 188.12 90.34 185.93 C 87.44 187.38 84.10 187.55 82.07 190.42 C 81.51 190.32 80.40 190.13 79.84 190.03 C 80.77 188.71 81.79 187.47 82.88 186.28 C 81.18 186.51 79.46 186.61 77.74 186.69 C 78.34 189.43 78.25 192.53 81.07 194.04 C 80.24 194.67 79.41 195.30 78.57 195.92 C 78.84 198.35 78.18 200.72 78.23 203.14 C 79.96 202.20 81.64 201.17 83.28 200.09 C 83.35 200.47 83.49 201.24 83.57 201.62 C 82.16 202.20 80.76 202.82 79.35 203.39 C 78.59 205.24 78.16 207.17 78.46 209.18 C 80.56 207.71 82.58 206.14 84.71 204.72 C 84.67 205.34 84.59 206.58 84.55 207.20 C 80.84 208.08 77.36 209.84 75.12 213.02 C 76.14 214.38 77.21 215.71 78.10 217.16 C 77.84 219.52 76.09 221.15 74.41 222.62 C 76.66 227.18 74.77 232.32 75.23 237.16 C 72.93 235.08 72.28 232.26 72.60 229.28 C 69.80 227.49 65.94 225.74 65.27 222.18 C 67.85 223.99 70.20 226.09 72.35 228.38 C 72.38 227.26 72.43 225.01 72.46 223.88 C 67.57 223.53 64.58 219.04 61.03 216.16 C 62.54 218.23 65.02 220.19 64.38 223.09 C 63.72 223.30 62.40 223.72 61.73 223.93 C 61.81 222.97 61.97 221.04 62.05 220.08 C 59.29 221.74 56.74 223.77 53.84 225.16 C 50.55 225.05 49.01 221.32 46.28 219.89 C 46.62 218.71 46.98 217.53 47.34 216.36 C 45.51 215.56 43.81 214.48 42.55 212.90 C 44.40 209.43 45.77 205.69 47.97 202.40 C 48.09 206.44 43.90 209.51 45.77 213.74 C 46.20 213.68 47.07 213.55 47.50 213.49 C 51.66 209.42 55.66 205.13 60.55 201.94 C 58.37 201.76 56.17 201.73 53.99 201.62 C 54.29 202.99 54.58 204.37 54.85 205.75 C 53.02 203.84 51.03 202.12 48.48 201.27 C 46.19 198.43 44.00 195.37 43.03 191.80 C 38.99 182.37 36.01 172.36 35.45 162.07 C 39.91 169.11 38.51 178.13 42.32 185.49 C 45.24 190.40 46.02 196.52 50.28 200.60 C 49.67 198.04 48.96 195.39 50.79 193.12 C 52.49 195.83 54.26 198.49 56.17 201.05 C 56.52 200.20 57.21 198.50 57.56 197.65 C 56.53 196.29 55.52 194.81 53.91 194.10 C 47.32 191.02 43.71 183.63 43.71 176.57 C 45.35 178.99 46.45 182.05 49.51 183.02 C 47.31 178.91 46.01 174.08 41.91 171.40 C 42.90 170.77 43.71 169.97 44.32 169.01 C 43.96 167.02 41.29 166.27 41.51 164.06 C 41.42 160.47 40.85 156.95 40.20 153.44 C 42.57 155.08 40.85 158.24 41.85 160.54 C 42.34 164.95 47.80 166.29 48.87 170.50 C 48.19 170.45 46.84 170.34 46.16 170.29 C 46.08 172.09 46.94 173.81 47.25 175.58 C 50.42 172.91 52.66 169.13 56.52 167.40 C 59.30 165.73 60.68 162.42 63.64 160.99 C 65.76 159.75 67.36 157.81 68.78 155.85 C 73.97 148.77 80.40 142.78 86.40 136.43 C 92.09 131.75 96.41 125.72 101.69 120.62 C 102.34 120.47 103.63 120.17 104.28 120.03 C 102.74 122.65 100.34 124.57 98.33 126.80 C 100.06 126.04 101.79 125.28 103.48 124.42 C 104.81 123.05 105.63 121.27 106.93 119.88 C 110.74 117.07 114.77 114.50 118.03 111.04 C 119.72 109.41 121.97 108.56 124.00 107.44 C 124.80 108.01 125.60 108.60 126.40 109.18 C 126.03 107.98 125.71 106.77 125.43 105.55 C 128.45 106.71 130.03 109.72 131.29 112.50 C 131.32 111.66 131.38 109.97 131.42 109.12 C 134.44 111.64 136.50 115.07 139.51 117.60 C 139.83 118.19 140.47 119.35 140.79 119.94 C 142.33 119.34 143.89 118.79 145.49 118.35 C 144.64 119.87 143.26 120.64 141.51 120.72 C 143.53 123.44 146.38 125.29 149.80 125.58 C 149.07 126.71 148.34 127.84 147.62 128.97 C 154.29 131.31 157.79 137.80 162.20 142.84 C 165.29 146.12 167.64 150.03 170.82 153.24 C 172.65 154.92 175.30 154.59 177.58 154.81 C 177.77 151.17 177.82 147.52 177.48 143.88 C 174.41 143.46 171.74 145.19 169.19 146.63 C 163.46 144.78 160.04 137.84 162.39 132.24 C 159.58 131.75 156.17 132.29 154.08 129.91 C 151.81 127.98 152.22 124.82 152.15 122.16 C 150.71 122.25 149.28 122.34 147.84 122.41 C 147.59 120.02 147.32 117.63 146.78 115.29 C 144.46 112.89 142.63 109.93 139.58 108.36 C 137.05 105.60 136.17 101.73 136.30 98.04 C 135.19 93.46 136.63 88.90 137.09 84.34 C 136.21 81.78 135.50 79.15 134.54 76.62 C 131.84 73.83 129.30 70.63 128.37 66.78 C 128.19 63.66 128.35 60.52 128.04 57.40 C 124.70 63.01 126.15 69.53 127.47 75.52 C 130.02 80.43 131.51 86.01 130.47 91.54 C 129.16 94.69 127.26 97.81 124.12 99.42 C 122.18 99.86 120.20 100.09 118.23 100.30 C 118.00 104.20 115.65 107.45 113.52 110.56 C 111.87 112.69 109.29 111.70 107.17 111.07 C 105.33 112.42 103.64 114.85 101.07 114.36 C 98.63 113.55 96.88 111.50 95.85 109.22 C 93.60 102.29 97.76 95.23 95.94 88.25 C 93.94 84.23 90.75 81.02 87.95 77.57 C 87.13 79.50 86.11 81.35 84.89 83.06 C 85.67 86.03 88.02 88.70 87.50 91.91 C 87.28 93.61 86.54 95.18 85.95 96.78 C 88.33 99.88 89.14 104.12 88.27 107.92 C 87.34 110.70 88.07 113.68 87.48 116.52 C 86.40 121.81 86.81 127.48 84.38 132.43 C 81.71 133.30 78.73 133.13 76.35 134.79 C 74.52 132.30 73.95 129.25 73.25 126.31 C 74.47 127.03 75.69 127.77 76.90 128.53 C 76.27 122.37 76.52 116.17 76.84 110.01 C 78.01 110.86 79.17 111.74 80.39 112.53 C 81.27 107.45 80.27 102.31 79.49 97.29 C 80.89 97.33 82.30 97.37 83.71 97.42 C 82.98 93.91 80.92 90.68 81.44 86.97 C 81.83 83.15 79.80 79.57 80.49 75.76 C 79.97 71.08 83.18 67.29 84.34 62.99 C 84.35 58.96 84.54 54.38 87.93 51.60 C 88.19 53.52 88.49 55.43 88.83 57.34 C 88.75 54.58 88.15 51.86 88.15 49.10 C 89.54 43.66 93.03 39.26 95.46 34.32 C 93.80 34.84 92.16 35.43 90.50 35.94 M 83.93 80.11 C 85.64 78.20 87.06 75.95 87.36 73.35 C 86.64 71.57 85.80 69.83 85.08 68.05 C 84.30 72.06 82.32 76.00 83.93 80.11 M 125.14 76.40 C 124.22 77.55 124.46 78.21 125.86 78.39 C 126.79 77.22 126.55 76.55 125.14 76.40 M 83.16 99.81 C 82.60 101.42 83.14 101.98 84.78 101.49 C 85.33 99.88 84.79 99.32 83.16 99.81 M 78.67 113.70 C 79.23 116.42 79.75 119.18 79.57 121.97 C 79.64 124.03 78.53 126.74 80.94 127.89 C 80.71 123.53 80.21 119.18 80.54 114.82 C 80.07 114.54 79.14 113.98 78.67 113.70 M 126.14 119.64 C 127.07 120.92 128.04 122.16 128.97 123.44 C 130.63 122.09 132.36 120.84 134.05 119.53 C 131.42 119.66 128.78 119.69 126.14 119.64 M 136.09 124.33 C 135.69 125.24 135.41 126.20 134.99 127.10 C 134.37 125.84 133.73 124.58 133.09 123.33 C 126.71 127.05 121.75 132.75 115.25 136.26 C 112.86 137.62 111.38 140.02 109.47 141.92 C 111.22 140.77 112.88 139.42 115.01 139.08 C 114.08 142.72 109.48 143.33 108.34 146.87 C 113.82 145.10 118.34 140.41 118.97 134.58 C 119.46 136.07 119.63 137.63 119.74 139.19 C 121.36 137.52 123.52 136.65 125.55 135.59 C 129.68 132.28 133.75 128.65 138.76 126.73 C 140.24 126.26 140.79 124.71 141.59 123.54 C 139.85 124.47 138.01 125.03 136.09 124.33 M 126.91 123.83 C 125.43 124.25 125.43 126.61 127.27 125.63 C 128.93 125.42 128.65 122.55 126.91 123.83 M 111.92 125.08 C 111.37 126.67 111.93 127.20 113.59 126.66 C 114.12 125.05 113.56 124.53 111.92 125.08 M 121.15 125.79 C 120.66 127.41 121.23 127.99 122.85 127.52 C 123.32 125.87 122.76 125.29 121.15 125.79 M 129.06 135.14 C 125.56 137.95 121.10 139.47 118.17 142.95 C 119.72 142.81 121.28 142.60 122.83 142.39 C 123.14 142.84 123.75 143.74 124.06 144.18 C 118.42 148.52 111.60 151.98 107.92 158.29 C 110.72 157.51 111.54 154.09 114.36 153.46 C 116.25 152.58 118.00 154.18 119.76 154.66 C 119.77 152.94 119.40 151.18 119.74 149.47 C 120.56 147.51 122.86 148.94 124.38 148.94 C 123.09 150.33 121.74 151.66 120.41 153.02 C 121.74 153.39 123.08 153.76 124.42 154.15 C 122.13 156.18 119.35 157.80 117.90 160.60 C 120.91 159.50 123.18 157.16 125.94 155.61 C 124.24 158.43 121.17 159.94 118.79 162.11 C 121.20 162.31 123.12 163.75 125.11 164.97 C 124.57 166.68 124.29 168.44 124.49 170.23 C 122.94 170.73 121.58 171.58 120.63 172.93 C 122.99 172.36 125.20 171.38 127.49 170.60 C 126.71 169.68 125.92 168.77 125.13 167.88 C 125.87 167.39 127.34 166.41 128.08 165.92 C 128.99 166.96 129.91 167.99 130.86 169.01 C 130.47 170.42 130.09 171.85 129.81 173.29 C 130.51 171.53 130.96 169.69 131.42 167.85 C 128.89 166.28 126.55 164.26 126.11 161.13 C 127.82 161.90 129.48 162.78 131.20 163.56 C 131.41 162.27 131.60 160.98 131.78 159.70 C 134.13 159.24 136.50 159.32 138.85 159.67 C 138.70 160.92 138.56 162.17 138.42 163.42 C 139.73 162.29 140.99 161.11 142.22 159.89 C 142.89 161.01 143.56 162.13 144.23 163.25 C 144.63 161.98 145.01 160.70 145.37 159.42 C 146.93 159.68 148.50 159.78 150.08 159.78 C 149.62 159.11 148.70 157.76 148.24 157.09 C 149.81 155.69 151.11 153.85 153.16 153.11 C 155.29 153.49 157.41 153.75 159.10 152.09 C 160.94 153.52 162.76 154.99 164.50 156.55 C 163.83 156.98 162.50 157.84 161.84 158.27 C 161.41 157.28 160.94 156.31 160.44 155.36 C 158.08 155.23 155.66 155.79 153.58 154.35 C 153.08 157.61 150.46 159.59 148.27 161.76 C 148.90 163.20 148.81 164.32 148.01 165.13 C 147.36 165.23 146.07 165.42 145.42 165.51 C 145.35 166.80 145.26 168.08 145.21 169.37 C 146.24 168.25 147.18 167.05 148.18 165.90 C 149.48 165.39 150.72 166.16 151.89 166.65 C 153.70 165.64 156.35 164.14 158.13 165.94 C 158.69 167.40 159.13 168.91 159.57 170.42 C 162.19 170.21 164.78 170.50 167.17 171.65 C 166.92 171.16 166.42 170.19 166.16 169.70 C 164.77 169.57 163.11 170.16 161.92 169.25 C 160.95 168.33 158.63 167.64 160.07 166.06 C 162.72 165.35 165.50 165.64 168.21 165.51 C 163.09 163.66 157.75 164.47 152.51 165.26 C 151.05 165.77 149.83 164.51 148.71 163.82 C 150.16 161.79 152.31 162.28 154.36 162.83 C 153.64 161.86 152.94 160.89 152.24 159.91 C 154.43 160.41 156.67 160.98 158.86 160.10 C 159.96 161.18 161.06 162.25 162.16 163.34 C 162.29 162.49 162.56 160.78 162.69 159.93 C 166.85 161.27 169.51 164.87 172.86 167.41 C 171.67 167.49 170.47 167.56 169.28 167.61 C 170.40 169.32 171.18 171.24 172.48 172.83 C 172.46 171.40 172.40 169.98 172.32 168.56 C 174.57 169.32 176.92 169.62 179.28 169.76 C 179.29 170.67 179.29 172.48 179.29 173.38 C 180.27 172.45 182.55 172.00 181.78 170.23 C 179.28 169.25 176.55 169.16 173.92 168.83 C 174.20 167.93 174.77 166.13 175.05 165.23 C 173.14 164.41 171.22 163.64 169.23 163.05 C 169.39 161.51 169.52 159.98 169.61 158.44 C 168.68 159.04 166.82 160.24 165.89 160.84 C 165.35 160.03 164.81 159.21 164.29 158.39 C 165.36 158.17 167.50 157.71 168.58 157.48 C 166.35 155.62 164.73 153.25 163.09 150.90 C 161.16 150.03 159.24 149.08 158.31 147.05 C 156.82 149.43 154.28 150.67 151.90 151.93 C 149.42 153.91 147.40 156.41 145.17 158.66 C 144.34 158.29 142.69 157.53 141.86 157.15 C 144.63 155.96 146.54 153.55 149.16 152.12 C 152.13 149.95 155.53 148.42 158.27 145.93 C 156.28 145.59 154.27 145.47 152.26 145.31 C 148.87 149.03 145.84 153.39 141.23 155.68 C 141.45 153.92 141.67 152.16 141.77 150.39 C 143.95 149.83 146.08 149.15 148.26 148.59 C 148.55 145.16 151.31 143.32 154.13 141.94 C 152.84 141.57 151.54 141.24 150.22 140.95 C 150.41 139.47 150.44 137.97 150.31 136.48 C 147.01 138.35 143.57 140.16 140.90 142.91 C 138.49 145.53 135.05 146.76 132.06 148.55 C 132.21 147.12 132.37 145.69 132.50 144.26 C 130.92 144.62 129.35 145.02 127.76 145.33 C 129.27 142.21 133.03 141.70 135.31 139.35 C 138.36 135.95 143.18 135.23 146.43 131.99 C 145.56 131.22 144.68 130.45 143.81 129.68 C 141.33 131.86 138.05 133.05 136.25 135.96 C 135.63 135.01 135.01 134.06 134.38 133.12 C 137.44 131.16 141.00 129.45 142.85 126.17 C 137.67 128.17 133.84 132.42 129.06 135.14 M 103.17 128.44 C 101.48 129.43 103.45 131.77 104.83 130.50 C 106.54 129.44 104.59 127.21 103.17 128.44 M 104.73 131.96 C 106.50 133.09 108.45 132.41 110.37 132.19 C 113.19 134.05 109.55 136.13 107.54 135.28 C 108.25 140.68 102.25 142.93 98.27 144.77 C 98.89 145.82 99.49 146.87 100.10 147.92 C 101.71 146.27 102.86 144.29 104.10 142.37 C 105.68 141.08 107.48 140.08 109.23 139.03 C 108.97 138.60 108.47 137.75 108.21 137.33 C 107.55 135.51 110.10 135.57 111.22 135.38 C 114.95 134.31 117.70 131.32 120.10 128.40 C 117.52 129.69 115.23 131.44 113.09 133.35 C 111.91 132.56 110.72 131.77 109.53 131.00 C 110.45 130.18 111.37 129.37 112.30 128.56 C 109.92 130.00 107.23 130.78 104.73 131.96 M 133.91 144.12 C 137.09 143.23 139.69 141.19 142.17 139.12 C 144.30 137.25 147.65 136.64 148.52 133.58 C 143.21 136.38 137.82 139.45 133.91 144.12 M 97.75 141.57 C 97.47 139.53 97.07 137.47 95.86 135.76 C 94.34 138.01 96.55 139.83 97.75 141.57 M 106.71 143.24 C 106.20 144.83 106.77 145.39 108.41 144.90 C 108.92 143.29 108.35 142.74 106.71 143.24 M 108.89 149.84 C 109.53 150.88 110.18 151.91 110.85 152.93 C 112.27 151.66 113.67 150.37 115.18 149.21 C 114.88 148.64 114.29 147.49 113.99 146.91 C 115.83 145.85 117.62 144.71 119.25 143.35 C 114.77 142.79 111.99 147.31 108.89 149.84 M 80.24 146.23 C 80.81 146.82 80.81 146.82 80.24 146.23 M 94.57 145.85 C 93.79 146.72 93.01 147.58 92.22 148.44 C 92.75 149.70 93.30 150.96 93.82 152.23 C 89.98 151.79 85.96 152.82 84.08 156.54 C 86.07 155.84 87.49 154.26 89.19 153.09 C 90.35 153.24 91.46 153.61 92.59 153.89 C 93.39 153.09 94.19 152.29 95.01 151.51 C 94.45 150.47 93.88 149.44 93.34 148.40 C 95.02 148.53 96.71 148.69 98.40 148.62 C 97.13 147.68 95.85 146.77 94.57 145.85 M 100.11 150.36 C 98.10 150.56 97.43 152.67 96.40 154.07 C 99.03 153.39 101.57 152.37 104.32 152.24 C 104.67 153.91 105.00 155.59 105.34 157.27 C 105.92 156.91 107.09 156.21 107.67 155.85 C 106.51 154.44 105.33 153.05 104.13 151.67 C 105.20 150.18 107.99 149.18 107.76 147.22 C 105.02 147.11 102.88 149.94 100.11 150.36 M 90.15 162.42 C 90.35 160.89 90.58 159.36 90.85 157.84 C 90.36 157.88 89.38 157.95 88.89 157.99 C 89.23 159.49 89.55 160.99 89.86 162.50 C 88.21 162.66 86.54 162.75 84.88 162.89 C 85.91 163.78 86.90 164.71 88.06 165.44 C 89.26 165.30 90.42 164.96 91.60 164.70 C 92.84 162.11 94.30 159.63 95.59 157.07 C 96.97 157.31 98.36 157.54 99.75 157.76 C 98.48 156.55 97.17 155.40 95.89 154.21 C 94.69 157.39 92.72 160.19 90.15 162.42 M 195.51 155.46 C 193.87 155.81 193.78 158.91 195.49 159.22 C 197.16 158.89 197.21 155.75 195.51 155.46 M 94.07 162.56 C 94.12 163.10 94.23 164.20 94.28 164.75 C 95.31 164.68 96.34 164.61 97.37 164.55 C 98.21 162.85 99.35 161.36 100.61 159.97 C 101.35 160.67 102.09 161.38 102.83 162.08 C 102.18 162.99 101.54 163.91 100.94 164.86 C 102.62 164.73 104.30 164.53 105.96 164.24 C 104.80 162.59 103.50 161.06 102.21 159.52 C 103.73 159.52 105.25 159.51 106.78 159.47 C 105.19 158.30 103.55 157.23 101.97 156.06 C 99.66 158.57 97.27 161.19 94.07 162.56 M 180.00 156.17 C 178.52 159.16 183.42 156.31 180.00 156.17 M 79.34 161.50 C 75.90 163.05 72.88 165.61 70.85 168.80 C 72.85 167.63 74.54 166.02 76.37 164.63 C 77.28 165.45 78.16 166.30 79.04 167.16 C 79.91 165.04 80.60 162.81 81.81 160.85 C 83.29 159.83 85.14 160.37 86.81 160.24 C 85.96 159.16 85.07 158.12 84.13 157.12 C 82.52 158.56 80.93 160.03 79.34 161.50 M 175.10 156.94 C 176.99 160.32 179.67 163.76 183.61 164.72 C 183.11 160.17 178.87 158.30 175.10 156.94 M 113.35 158.74 C 113.93 160.28 114.49 161.83 115.04 163.38 C 115.76 161.35 116.58 159.36 117.44 157.39 C 116.08 157.84 114.72 158.29 113.35 158.74 M 70.80 161.67 C 70.25 163.26 70.81 163.75 72.49 163.15 C 73.05 161.56 72.49 161.06 70.80 161.67 M 133.87 160.71 C 134.71 163.12 136.10 165.35 136.02 167.98 C 136.36 169.37 137.98 168.30 138.94 168.40 C 137.44 165.73 136.04 162.93 133.87 160.71 M 108.84 162.01 C 107.75 163.45 110.43 164.47 111.32 163.42 C 112.41 161.99 109.73 161.01 108.84 162.01 M 116.49 164.05 C 115.08 164.74 115.06 165.37 116.42 165.92 C 117.82 165.25 117.85 164.63 116.49 164.05 M 119.87 164.24 C 119.40 165.60 119.89 166.07 121.34 165.65 C 121.79 164.28 121.30 163.81 119.87 164.24 M 141.42 165.36 C 141.25 165.76 140.92 166.57 140.76 166.98 C 142.80 170.36 145.14 163.52 141.42 165.36 M 65.86 172.99 C 68.33 173.03 68.88 170.93 69.27 168.93 C 67.83 170.00 66.58 171.31 65.86 172.99 M 80.15 174.03 C 77.78 177.18 74.22 179.56 72.85 183.37 C 76.78 180.17 79.38 175.55 83.76 172.83 C 83.73 176.06 80.75 178.31 80.53 181.27 C 83.09 182.07 85.70 180.61 88.26 180.38 C 89.36 181.32 90.45 182.28 91.56 183.21 C 91.19 182.68 90.46 181.62 90.09 181.09 C 92.50 177.91 91.22 174.28 90.44 170.79 C 93.12 173.18 92.90 176.77 92.88 180.03 C 94.35 179.47 95.82 178.89 97.28 178.31 C 95.99 175.74 95.31 172.96 94.75 170.16 C 92.36 170.48 89.83 171.14 87.76 169.50 C 86.90 171.29 85.82 172.97 84.23 174.21 C 84.54 172.35 85.00 170.52 85.39 168.68 C 82.60 169.24 81.96 172.26 80.15 174.03 M 96.61 170.79 C 99.53 172.37 98.50 175.84 98.84 178.58 C 101.10 178.31 103.30 178.64 105.38 179.57 C 104.27 180.82 103.17 182.08 102.18 183.44 C 103.99 182.13 105.03 180.09 106.58 178.56 C 110.00 176.69 111.73 172.84 115.44 171.32 C 114.64 170.61 113.90 169.84 113.00 169.26 C 109.26 169.69 105.50 169.02 101.75 169.27 C 100.02 169.74 98.38 170.50 96.61 170.79 M 141.20 169.43 C 140.61 171.11 141.12 171.66 142.73 171.08 C 143.33 169.41 142.82 168.86 141.20 169.43 M 53.51 170.64 C 55.33 171.96 57.21 173.21 58.90 174.71 C 58.62 173.69 58.34 172.68 58.08 171.66 C 56.56 171.28 55.05 170.89 53.51 170.64 M 58.77 170.84 C 60.51 171.83 62.40 172.51 64.37 172.84 C 64.56 172.23 64.93 171.00 65.11 170.38 C 62.99 170.41 60.84 170.22 58.77 170.84 M 149.97 170.49 C 149.50 172.05 150.10 172.59 151.77 172.11 C 152.26 170.53 151.66 169.99 149.97 170.49 M 52.19 174.27 C 52.85 174.91 52.85 174.91 52.19 174.27 M 155.89 178.15 C 154.76 177.55 153.64 176.94 152.52 176.34 C 153.77 177.74 155.07 179.09 156.22 180.58 C 152.83 181.00 151.02 178.10 148.96 176.02 C 146.13 176.98 143.20 178.10 140.16 177.58 C 141.87 178.47 143.72 179.75 143.83 181.89 C 143.28 183.09 142.70 184.27 142.10 185.44 C 144.06 184.04 145.77 181.49 148.51 182.59 C 147.64 183.79 146.70 184.94 145.73 186.06 C 146.30 186.93 146.86 187.81 147.40 188.70 C 145.00 190.33 142.55 191.93 139.79 192.89 C 139.80 194.74 139.70 196.59 139.46 198.42 C 139.72 198.51 140.23 198.70 140.49 198.79 C 140.40 197.55 140.30 196.30 140.21 195.06 C 143.01 193.73 145.52 191.57 148.73 191.34 C 148.57 188.18 148.82 185.00 150.10 182.07 C 149.72 181.62 148.96 180.72 148.58 180.27 C 146.68 181.01 141.46 181.21 144.06 178.09 C 146.20 176.81 148.56 178.43 150.80 178.61 C 151.18 180.21 151.46 181.83 151.63 183.47 C 153.29 181.86 157.35 181.55 156.26 178.50 C 158.98 178.38 160.35 175.99 161.64 173.94 C 159.64 175.23 157.76 176.70 155.89 178.15 M 114.53 186.95 C 115.59 188.77 115.65 190.67 114.57 192.51 C 116.44 189.74 118.62 187.20 120.39 184.38 C 120.73 181.25 120.65 178.09 120.75 174.94 C 117.94 178.56 116.75 183.01 114.53 186.95 M 49.53 177.95 C 51.53 180.41 51.33 184.12 48.98 186.27 C 49.83 189.68 52.86 191.35 55.94 192.42 C 55.45 190.14 55.13 187.78 54.03 185.69 C 54.65 185.15 55.26 184.62 55.88 184.09 C 54.62 182.74 53.57 181.22 53.11 179.42 C 54.65 179.31 56.19 179.23 57.73 179.16 C 58.13 181.48 58.45 183.81 58.62 186.16 C 59.62 185.32 60.61 184.50 61.61 183.68 C 61.50 181.76 61.44 179.83 61.49 177.91 C 60.37 177.13 59.27 176.33 58.17 175.54 C 57.97 176.44 57.58 178.24 57.39 179.14 C 55.03 177.97 52.75 176.66 50.29 175.71 C 49.07 175.71 48.66 177.17 49.53 177.95 M 134.36 176.20 C 133.26 178.19 137.49 179.25 137.72 177.16 C 137.44 175.76 135.32 175.12 134.36 176.20 M 123.81 177.26 C 124.33 177.55 125.37 178.13 125.89 178.42 C 124.47 179.59 122.95 180.87 123.04 182.91 C 124.47 182.62 125.90 182.31 127.33 181.99 C 125.82 183.61 124.38 185.43 122.04 185.77 C 122.71 186.60 123.38 187.44 124.04 188.28 C 124.67 187.13 125.30 185.98 125.95 184.83 C 126.76 186.64 127.64 188.48 129.43 189.52 C 128.74 186.71 128.02 183.90 127.53 181.04 C 128.17 181.15 129.44 181.37 130.08 181.48 C 130.77 183.91 131.79 186.23 132.94 188.47 C 134.40 185.10 132.36 182.12 129.86 180.00 C 130.70 178.89 131.52 177.77 132.33 176.64 C 129.58 177.70 126.68 177.48 123.81 177.26 M 162.40 178.42 C 160.01 182.46 155.40 184.48 151.43 186.66 C 151.46 187.33 151.50 188.65 151.53 189.32 C 155.88 185.97 161.07 183.87 165.18 180.19 C 164.28 179.54 163.31 179.03 162.40 178.42 M 181.77 181.29 C 182.79 181.39 183.82 181.49 184.85 181.60 C 184.14 184.68 185.44 187.57 187.04 190.12 C 188.24 189.40 189.42 188.66 190.63 187.96 C 188.66 186.36 186.81 184.61 184.88 182.96 C 185.53 182.79 186.85 182.44 187.50 182.27 C 188.54 183.45 189.61 184.62 190.76 185.71 C 190.66 183.19 190.51 180.68 190.42 178.17 C 186.92 176.69 184.32 179.32 181.77 181.29 M 138.67 180.04 C 137.87 181.38 140.08 183.19 141.35 182.60 C 142.17 181.20 140.02 179.28 138.67 180.04 M 165.23 181.83 C 165.21 185.25 168.32 180.33 165.23 181.83 M 138.24 184.07 C 138.18 187.51 141.27 182.69 138.24 184.07 M 98.53 186.61 C 98.39 187.06 98.11 187.96 97.97 188.42 C 100.28 187.33 102.68 187.15 104.75 188.84 C 105.04 188.03 105.33 187.22 105.62 186.41 C 103.26 185.64 100.89 186.17 98.53 186.61 M 65.25 186.31 C 65.29 188.37 67.24 189.60 68.31 191.15 C 67.06 192.72 65.82 194.30 64.52 195.83 C 64.43 194.21 64.33 192.58 64.24 190.96 C 62.93 188.92 60.41 188.28 58.51 186.94 C 59.23 190.14 59.48 193.38 59.31 196.65 C 61.04 200.32 62.50 204.11 64.06 207.86 C 65.74 207.45 67.02 206.39 67.72 204.82 C 68.85 204.65 69.97 204.45 71.10 204.25 C 72.03 205.15 72.95 206.05 73.88 206.95 C 74.34 204.64 74.16 202.28 74.61 199.97 C 74.11 198.12 73.62 196.27 73.14 194.42 C 74.41 194.45 75.69 194.43 76.97 194.38 C 78.63 192.31 75.21 192.05 74.02 191.13 C 74.37 189.57 74.78 188.02 75.19 186.47 C 73.39 186.56 71.58 186.64 69.77 186.58 C 73.57 192.19 71.62 199.20 72.87 205.47 C 69.43 202.90 65.76 200.46 64.28 196.21 C 66.09 194.86 67.85 193.44 69.41 191.80 C 67.78 190.16 66.39 188.32 65.25 186.31 M 107.00 187.21 C 105.33 189.82 107.49 192.87 106.25 195.67 C 107.50 195.11 108.73 194.53 109.98 193.98 L 110.53 193.51 C 110.04 192.91 109.06 191.70 108.58 191.09 C 109.28 191.62 110.69 192.67 111.40 193.20 C 111.97 190.88 111.51 188.52 111.21 186.21 C 109.82 186.54 108.21 186.35 107.00 187.21 M 187.12 192.89 C 186.61 194.33 187.04 194.81 188.43 194.32 C 188.94 192.87 188.50 192.40 187.12 192.89 M 135.72 206.45 C 138.69 205.75 140.94 203.65 143.28 201.84 C 142.77 202.92 142.25 203.99 141.70 205.05 C 142.24 205.85 142.78 206.66 143.31 207.47 C 145.34 207.28 147.37 207.34 149.41 207.40 C 148.70 206.24 147.94 205.12 147.16 204.02 C 148.12 202.70 149.00 201.32 149.84 199.93 C 149.31 198.20 148.83 196.46 148.40 194.72 C 144.46 198.94 139.58 202.15 135.72 206.45 M 92.20 197.65 C 91.32 198.31 91.23 200.82 92.74 200.58 C 93.60 199.93 93.63 197.40 92.20 197.65 M 133.54 200.00 C 132.67 202.28 131.36 204.45 131.27 206.95 C 133.01 205.74 134.51 204.23 135.96 202.70 C 135.16 201.78 134.36 200.88 133.54 200.00 M 173.96 201.60 C 172.58 202.57 174.01 204.84 175.41 203.66 C 176.83 202.78 175.25 200.41 173.96 201.60 M 102.29 202.21 C 101.14 202.46 99.98 203.87 100.47 205.07 C 101.78 205.85 104.02 202.78 102.29 202.21 M 58.20 210.66 C 57.00 210.61 55.80 210.57 54.60 210.54 C 53.58 212.38 52.53 214.21 51.40 215.99 C 51.54 216.64 51.68 217.29 51.81 217.95 C 53.35 217.30 54.88 216.65 56.43 216.02 C 56.12 216.87 55.51 218.57 55.20 219.42 C 53.78 219.91 52.34 220.37 50.89 220.77 C 51.48 221.56 52.07 222.35 52.66 223.15 C 54.22 222.75 55.77 222.04 56.52 220.51 C 56.81 217.88 56.53 215.22 56.52 212.57 C 58.23 212.45 59.92 212.24 61.60 211.90 C 61.53 209.65 61.08 207.44 59.99 205.46 C 58.94 207.02 58.38 208.79 58.20 210.66 M 94.41 209.27 C 93.31 209.75 92.60 210.54 92.27 211.65 C 92.94 214.33 97.48 208.57 94.41 209.27 Z" />
<path fill="#ffffff" opacity="1.00" d=" M 59.94 86.90 C 58.70 84.23 59.35 81.37 60.99 79.03 C 61.43 83.60 61.56 88.20 61.81 92.79 C 61.15 91.60 60.47 90.43 59.77 89.27 C 58.67 91.21 58.38 93.74 56.30 94.93 C 56.58 91.85 57.50 88.93 59.94 86.90 Z" />
<path fill="#ffffff" opacity="1.00" d=" M 49.38 100.88 C 49.71 98.32 49.58 93.83 53.33 94.39 C 52.70 96.01 52.03 97.61 51.35 99.20 C 52.79 101.63 54.31 104.02 55.97 106.31 C 58.19 103.30 57.68 99.77 56.20 96.57 C 58.10 96.28 60.01 96.40 61.92 96.60 C 61.15 99.00 59.19 101.31 60.04 103.94 C 60.73 107.09 59.65 110.34 60.51 113.47 C 61.07 115.86 61.48 118.27 61.94 120.68 C 61.30 120.46 60.02 120.01 59.38 119.79 C 59.03 119.28 58.35 118.27 58.00 117.76 C 58.41 118.70 58.84 119.63 59.29 120.56 C 58.10 122.20 57.05 123.95 56.13 125.77 C 55.32 125.69 53.68 125.54 52.86 125.46 C 53.91 125.93 54.97 126.38 56.03 126.83 C 54.78 128.34 53.37 129.75 52.44 131.50 C 51.53 136.22 55.63 140.22 54.45 144.96 C 53.55 148.19 54.89 153.36 50.98 154.76 C 47.56 153.88 45.07 151.06 41.60 150.26 C 40.45 145.73 40.05 141.02 40.41 136.37 C 40.65 134.61 42.94 132.37 44.47 134.26 C 44.63 139.54 45.08 145.91 49.60 149.44 C 50.38 148.28 51.15 147.12 51.93 145.97 C 49.53 140.41 48.19 134.29 48.86 128.23 C 50.76 125.35 53.26 122.95 55.65 120.49 C 55.58 118.08 55.53 115.68 55.60 113.28 C 54.10 108.91 50.63 105.36 49.38 100.88 M 57.46 105.68 C 56.35 106.16 55.34 108.41 56.94 108.91 C 58.95 109.32 59.98 104.72 57.46 105.68 Z" />
<path fill="#ffffff" opacity="1.00" d=" M 140.04 97.64 C 142.28 96.22 142.35 100.82 140.35 100.95 C 138.64 100.90 139.11 98.39 140.04 97.64 Z" />
<path fill="#ffffff" opacity="1.00" d=" M 73.00 120.93 C 71.45 116.28 73.94 111.59 73.88 106.85 C 74.31 107.33 75.17 108.28 75.60 108.76 C 74.65 113.96 76.37 119.41 74.46 124.43 C 72.33 126.56 70.09 128.82 69.48 131.89 C 66.32 130.08 63.04 128.35 59.44 127.61 C 59.25 127.04 58.86 125.90 58.66 125.34 C 59.30 125.41 60.57 125.55 61.21 125.63 C 60.53 123.83 59.89 122.02 59.27 120.21 C 61.16 120.81 62.74 121.96 64.27 123.18 C 64.33 121.96 64.39 120.74 64.44 119.53 C 65.28 119.48 66.97 119.37 67.81 119.32 C 67.01 121.01 65.62 122.22 64.20 123.37 C 65.20 124.87 66.53 124.47 67.85 123.68 C 67.30 125.39 67.35 126.99 69.02 128.05 C 70.06 125.52 71.31 123.09 73.00 120.93 Z" />
<path fill="#ffffff" opacity="1.00" d=" M 62.40 117.57 C 63.78 116.02 65.21 114.52 66.64 113.01 C 66.71 114.49 66.75 115.98 66.78 117.46 C 65.32 117.50 63.86 117.54 62.40 117.57 Z" />
<path fill="#ffffff" opacity="1.00" d=" M 196.67 132.94 C 196.75 129.97 197.40 127.04 199.02 124.53 C 199.54 127.13 201.28 129.89 199.51 132.40 C 198.80 132.53 197.38 132.81 196.67 132.94 Z" />
<path fill="#ffffff" opacity="1.00" d=" M 129.35 127.34 C 130.27 125.68 132.91 127.21 131.55 128.75 C 130.62 130.35 127.99 128.87 129.35 127.34 Z" />
<path fill="#ffffff" opacity="1.00" d=" M 119.95 137.19 C 122.01 133.80 124.80 129.53 129.15 129.33 C 127.07 132.78 123.56 135.47 119.95 137.19 Z" />
<path fill="#ffffff" opacity="1.00" d=" M 170.05 131.71 C 170.39 131.63 171.05 131.46 171.39 131.37 C 171.37 133.33 171.13 135.28 170.61 137.18 C 170.98 138.88 171.50 140.55 171.71 142.28 C 170.92 142.55 169.33 143.07 168.54 143.33 C 168.27 139.34 167.86 135.28 170.05 131.71 Z" />
<path fill="#ffffff" opacity="1.00" d=" M 63.93 139.55 C 64.66 136.76 64.64 133.48 66.76 131.31 C 66.05 134.11 65.07 136.86 65.61 139.80 C 65.19 139.74 64.35 139.61 63.93 139.55 Z" />
<path fill="#ffffff" opacity="1.00" d=" M 122.83 141.08 C 126.07 138.58 129.24 135.61 133.42 134.86 C 133.45 135.51 133.51 136.79 133.53 137.43 C 130.75 138.50 127.93 139.80 127.32 143.05 C 125.80 142.44 124.31 141.75 122.83 141.08 Z" />
<path fill="#ffffff" opacity="1.00" d=" M 35.42 145.90 C 35.92 143.42 34.96 140.19 37.35 138.49 C 37.46 140.42 37.44 142.37 37.39 144.31 C 36.73 144.84 36.07 145.37 35.42 145.90 Z" />
<path fill="#ffffff" opacity="1.00" d=" M 143.93 145.46 C 145.30 143.17 147.05 141.01 149.85 140.57 C 149.20 143.46 146.62 144.85 143.93 145.46 Z" />
<path fill="#ffffff" opacity="1.00" d=" M 62.46 154.92 C 62.29 150.77 61.90 146.52 63.29 142.53 C 63.86 144.04 64.91 145.27 66.21 146.22 C 65.13 146.26 64.05 146.32 62.98 146.40 C 63.44 147.98 64.25 149.42 65.04 150.86 C 64.70 151.39 64.04 152.46 63.71 152.99 C 64.02 153.47 64.65 154.44 64.97 154.92 C 63.67 156.49 63.37 158.38 63.49 160.36 C 62.82 159.24 62.15 158.11 61.43 157.02 C 61.68 156.49 62.20 155.44 62.46 154.92 Z" />
<path fill="#ffffff" opacity="1.00" d=" M 129.27 152.38 C 134.31 149.64 139.33 146.87 143.57 142.98 C 143.20 144.42 142.79 145.85 142.35 147.26 C 141.60 149.62 137.51 149.32 137.12 151.80 C 138.43 152.45 139.76 153.05 141.07 153.71 C 139.68 154.30 138.28 154.90 136.89 155.50 C 136.49 154.48 135.94 153.54 135.26 152.70 C 133.19 154.16 131.32 155.89 129.47 157.61 C 130.91 159.34 130.85 160.96 128.76 162.17 C 128.34 161.45 127.51 159.99 127.10 159.27 C 125.70 160.36 124.24 161.39 122.60 162.09 C 123.10 159.60 125.73 158.69 127.46 157.19 C 126.69 156.03 125.94 154.86 125.20 153.70 C 126.44 151.51 127.67 149.30 128.82 147.06 C 129.62 147.17 131.21 147.39 132.01 147.51 C 131.08 149.12 130.15 150.73 129.27 152.38 Z" />
<path fill="#ffffff" opacity="1.00" d=" M 125.15 146.98 C 126.54 146.47 126.98 146.94 126.47 148.40 C 125.07 148.91 124.62 148.44 125.15 146.98 Z" />
<path fill="#ffffff" opacity="1.00" d=" M 170.35 149.08 C 172.00 148.38 173.29 151.29 172.68 152.61 C 171.06 153.11 169.62 150.43 170.35 149.08 Z" />
<path fill="#ffffff" opacity="1.00" d=" M 42.57 152.88 C 43.21 152.64 44.48 152.16 45.12 151.93 C 46.94 154.01 49.32 155.86 50.29 158.53 C 50.72 162.37 52.26 166.15 51.52 170.06 C 50.96 170.37 49.83 170.99 49.27 171.31 C 50.58 168.07 48.71 165.47 47.61 162.63 C 48.14 158.52 44.48 156.04 42.57 152.88 Z" />
<path fill="#ffffff" opacity="1.00" d=" M 139.43 156.26 C 140.70 155.31 142.42 157.34 141.20 158.42 C 139.89 159.68 138.59 157.31 139.43 156.26 Z" />
<path fill="#ffffff" opacity="1.00" d=" M 52.66 159.25 C 53.32 159.22 54.64 159.16 55.30 159.13 C 55.70 161.08 56.24 163.00 57.01 164.84 C 55.80 166.16 54.64 167.54 53.48 168.91 C 53.30 165.68 52.92 162.47 52.66 159.25 Z" />
<path fill="#ffffff" opacity="1.00" d=" M 100.20 171.24 C 100.87 171.90 100.87 171.90 100.20 171.24 Z" />
<path fill="#ffffff" opacity="1.00" d=" M 104.91 172.23 C 105.90 170.81 108.49 172.41 107.36 173.87 C 106.35 175.25 103.76 173.71 104.91 172.23 Z" />
<path fill="#ffffff" opacity="1.00" d=" M 225.33 195.67 C 227.50 195.71 229.67 195.74 231.84 195.77 C 229.99 197.48 226.26 199.38 225.33 195.67 Z" />
<path fill="#ffffff" opacity="1.00" d=" M 164.92 200.58 C 167.53 199.19 169.74 196.05 173.03 197.61 C 171.35 200.12 168.57 201.92 167.84 204.99 C 167.31 207.67 164.70 209.01 162.83 210.68 C 164.02 207.54 165.05 203.93 168.61 202.75 C 167.39 202.00 166.16 201.29 164.92 200.58 Z" />
<path fill="#ffffff" opacity="1.00" d=" M 211.82 200.86 C 215.44 197.26 220.89 197.12 225.68 197.39 C 221.46 199.79 216.52 200.14 211.82 200.86 Z" />
<path fill="#ffffff" opacity="1.00" d=" M 119.40 200.31 C 120.33 200.32 122.20 200.33 123.13 200.34 C 123.86 202.13 124.73 203.86 125.86 205.44 C 125.21 205.41 123.91 205.35 123.26 205.32 C 122.97 207.60 122.47 209.88 120.91 211.65 C 121.56 211.86 122.88 212.28 123.53 212.49 C 122.48 214.32 122.21 216.35 122.23 218.42 C 121.14 217.11 119.23 216.01 119.60 214.03 C 119.95 209.44 118.69 204.89 119.40 200.31 Z" />
<path fill="#ffffff" opacity="1.00" d=" M 49.91 203.47 C 51.47 203.07 53.37 205.42 52.54 206.86 C 50.94 207.46 49.27 204.81 49.91 203.47 Z" />
<path fill="#ffffff" opacity="1.00" d=" M 213.51 203.41 C 213.91 203.05 214.69 202.35 215.09 201.99 C 216.39 206.54 218.62 211.20 217.46 216.01 C 221.51 214.10 226.04 213.31 230.51 213.21 C 230.42 213.75 230.25 214.82 230.16 215.36 C 222.31 218.86 213.95 221.58 206.80 226.40 C 205.31 225.33 203.73 224.40 201.93 223.97 C 202.30 223.13 202.66 222.29 203.03 221.46 C 201.25 222.47 198.29 224.06 197.40 221.11 C 201.21 219.89 205.02 218.65 208.95 217.85 C 208.05 219.11 207.12 220.34 206.23 221.60 C 208.09 220.20 209.80 218.61 211.13 216.69 C 212.72 216.50 214.31 216.37 215.90 216.25 C 215.32 215.41 214.75 214.58 214.17 213.75 C 217.15 210.48 213.21 206.94 213.51 203.41 Z" />
<path fill="#ffffff" opacity="1.00" d=" M 186.58 204.98 C 187.05 205.04 187.99 205.16 188.47 205.22 C 188.71 210.53 189.30 216.02 187.80 221.22 C 188.59 221.74 189.36 222.28 190.13 222.83 C 188.80 222.43 187.62 221.05 186.15 221.51 C 181.80 222.54 177.32 222.01 172.91 222.37 C 171.01 222.25 168.23 222.11 168.05 219.67 C 171.29 220.20 174.51 220.46 177.78 220.47 C 180.23 222.16 183.12 221.82 185.91 221.50 C 185.66 215.98 186.22 210.48 186.58 204.98 Z" />
<path fill="#ffffff" opacity="1.00" d=" M 164.61 210.91 C 165.63 210.68 167.67 210.22 168.69 209.98 C 168.55 211.29 168.28 212.57 167.86 213.82 C 166.26 213.70 165.65 211.90 164.61 210.91 Z" />
<path fill="#ffffff" opacity="1.00" d=" M 109.24 213.19 C 109.86 213.79 109.86 213.79 109.24 213.19 Z" />
<path fill="#ffffff" opacity="1.00" d=" M 130.40 213.39 C 131.60 212.65 133.50 213.69 133.49 215.13 C 132.78 217.21 129.02 215.13 130.40 213.39 Z" />
<path fill="#ffffff" opacity="1.00" d=" M 138.22 214.49 C 139.98 213.77 141.74 213.03 143.52 212.35 C 142.27 214.59 140.67 216.62 138.75 218.33 C 138.54 217.05 138.37 215.77 138.22 214.49 Z" />
<path fill="#ffffff" opacity="1.00" d=" M 79.24 219.23 C 79.82 219.81 79.82 219.81 79.24 219.23 Z" />
<path fill="#ffffff" opacity="1.00" d=" M 92.29 219.79 C 93.81 218.62 95.12 221.41 93.88 222.39 C 92.33 223.55 91.03 220.79 92.29 219.79 Z" />
<path fill="#ffffff" opacity="1.00" d=" M 162.04 219.23 C 163.91 219.55 166.64 219.28 167.08 221.73 C 164.98 221.76 162.50 221.85 162.04 219.23 Z" />
</g>
</svg>
