<?xml version="1.0" encoding="UTF-8" ?>
<!DOCTYPE svg PUBLIC "-//W3C//DTD SVG 1.1//EN" "http://www.w3.org/Graphics/SVG/1.1/DTD/svg11.dtd">
<svg width="128pt" height="128pt" viewBox="0 0 128 128" version="1.1" xmlns="http://www.w3.org/2000/svg">
<g id="#ffffffff">
<path fill="#ffffff" opacity="1.00" d=" M 99.34 22.39 C 102.37 20.83 105.60 22.43 108.49 23.54 C 110.90 24.67 113.73 25.44 115.32 27.76 C 117.60 31.46 118.84 35.84 118.32 40.21 C 120.05 40.97 121.74 41.79 123.40 42.69 C 123.69 51.91 120.55 60.79 120.03 69.96 C 118.72 75.71 118.35 81.61 117.07 87.36 C 118.04 88.26 119.00 89.18 119.95 90.11 C 119.76 90.82 119.38 92.23 119.19 92.94 C 114.45 90.52 110.94 85.91 105.69 84.52 C 100.74 84.87 96.13 81.44 91.18 82.98 C 88.52 83.35 86.73 85.42 84.74 87.00 C 86.08 88.43 86.98 90.56 89.02 91.14 C 90.05 90.96 91.08 90.74 92.10 90.48 C 91.58 91.11 91.06 91.74 90.55 92.37 C 88.96 91.60 87.41 90.74 85.93 89.77 C 84.32 90.95 82.67 92.08 80.97 93.13 C 82.02 92.01 83.09 90.91 84.19 89.83 C 83.60 89.50 82.42 88.84 81.84 88.51 C 78.67 89.98 75.73 91.91 73.73 94.84 C 72.52 96.81 70.27 96.85 68.24 96.55 C 68.70 95.01 69.25 93.48 69.52 91.89 C 68.61 90.05 67.66 87.94 69.43 86.22 C 70.23 87.09 71.01 87.97 71.79 88.86 C 71.61 88.18 71.25 86.83 71.08 86.15 C 72.91 84.67 75.57 83.57 75.83 80.90 C 73.91 73.05 74.50 64.90 74.29 56.89 C 73.88 51.45 75.28 45.94 73.64 40.60 C 75.59 38.87 78.13 38.25 80.59 37.64 C 83.31 34.28 85.82 30.72 87.93 26.94 C 90.69 23.49 95.21 22.77 99.34 22.39 M 101.70 29.37 C 100.20 32.27 100.48 35.64 99.67 38.74 C 97.45 38.53 95.19 38.59 93.02 38.03 C 91.74 36.13 92.34 33.74 91.96 31.60 C 91.90 33.95 91.51 36.31 91.55 38.64 C 93.56 41.20 96.68 42.10 99.83 41.67 C 99.28 46.58 99.34 51.54 99.38 56.48 C 99.80 57.22 100.62 58.69 101.04 59.43 C 102.93 53.57 104.02 47.36 103.29 41.20 C 104.58 41.70 105.87 42.20 107.17 42.68 C 108.46 41.53 109.67 40.29 110.77 38.95 C 108.54 38.10 106.16 37.15 103.91 38.48 C 103.40 35.40 102.85 32.29 101.70 29.37 Z" />
<path fill="#ffffff" opacity="1.00" d=" M 29.19 22.94 C 32.54 22.54 35.96 22.22 39.33 22.54 C 44.94 23.92 48.80 28.86 50.55 34.14 C 49.99 34.92 49.42 35.69 48.85 36.47 C 52.31 34.50 56.36 35.70 58.21 39.21 C 57.70 53.49 56.66 67.78 56.41 82.09 C 59.26 83.80 61.90 85.81 64.47 87.91 C 61.48 91.10 58.32 87.50 55.73 85.82 C 55.57 86.55 55.25 88.02 55.09 88.76 C 56.33 88.64 57.57 88.51 58.81 88.37 C 61.07 90.88 63.44 93.34 64.91 96.42 C 66.22 97.98 64.03 99.05 63.01 99.83 C 60.94 97.17 58.93 94.27 58.05 90.98 C 56.87 92.01 55.59 93.03 53.91 92.80 C 52.46 90.88 51.25 88.71 49.06 87.53 C 49.41 88.86 50.14 90.02 50.94 91.13 C 49.14 91.26 47.34 91.43 45.54 91.59 C 46.35 90.69 47.17 89.79 47.99 88.89 C 45.68 88.24 43.47 87.33 41.23 86.50 C 42.28 87.59 43.38 88.64 44.45 89.71 C 42.51 89.70 40.57 89.70 38.63 89.75 C 39.06 88.79 39.49 87.81 39.92 86.84 C 34.62 88.72 28.99 86.58 23.57 87.77 C 20.53 88.67 16.59 87.46 14.57 90.56 C 17.67 90.04 20.68 89.11 23.78 88.61 C 22.58 91.03 19.74 91.40 17.60 92.62 C 15.19 93.62 13.20 95.33 10.92 96.56 C 10.37 95.25 9.86 93.92 9.39 92.57 C 7.81 94.47 6.45 96.53 5.07 98.57 C 4.38 97.66 3.68 96.77 3.07 95.81 C 3.98 93.80 5.41 92.08 6.49 90.17 C 5.02 91.02 3.54 91.86 1.97 92.54 C 2.54 89.10 5.73 87.45 8.49 85.95 C 7.69 85.41 6.91 84.87 6.13 84.33 C 6.69 75.17 4.69 66.13 4.28 57.01 C 3.57 52.16 3.79 47.25 3.40 42.38 C 6.02 41.12 8.58 39.75 11.09 38.29 C 12.28 38.86 13.46 39.46 14.64 40.07 C 13.89 36.53 14.26 32.66 17.03 30.05 C 20.52 26.90 24.74 24.44 29.19 22.94 M 29.39 33.99 C 30.18 35.41 30.88 36.87 31.59 38.32 C 29.39 39.30 27.19 40.27 24.99 41.23 C 26.96 42.04 29.06 42.35 31.19 42.34 C 31.62 46.78 31.81 51.24 31.85 55.70 C 32.45 55.57 33.65 55.30 34.25 55.16 C 35.32 50.90 33.61 46.42 34.92 42.17 C 37.30 40.78 39.97 40.57 42.66 40.50 C 41.81 39.90 40.13 38.71 39.28 38.12 C 37.61 38.68 35.93 39.21 34.25 39.74 C 34.20 37.73 35.09 35.21 33.04 33.88 C 33.28 33.09 33.53 32.30 33.77 31.51 C 32.29 32.30 30.86 33.19 29.39 33.99 M 14.45 53.12 C 13.02 53.79 13.00 54.41 14.37 54.96 C 15.81 54.30 15.83 53.68 14.45 53.12 M 11.25 92.26 C 11.93 92.94 11.93 92.94 11.25 92.26 Z" />
<path fill="#ffffff" opacity="1.00" d=" M 106.36 86.94 C 107.29 86.01 109.13 87.48 108.59 88.61 C 107.61 89.45 105.67 88.17 106.36 86.94 Z" />
<path fill="#ffffff" opacity="1.00" d=" M 50.21 93.24 C 50.87 93.89 50.87 93.89 50.21 93.24 Z" />
</g>
</svg>
