<?xml version="1.0" encoding="UTF-8" ?>
<!DOCTYPE svg PUBLIC "-//W3C//DTD SVG 1.1//EN" "http://www.w3.org/Graphics/SVG/1.1/DTD/svg11.dtd">
<svg width="128pt" height="128pt" viewBox="0 0 128 128" version="1.1" xmlns="http://www.w3.org/2000/svg">
<g id="#ffffffff">
<path fill="#ffffff" opacity="1.00" d=" M 55.03 13.04 C 58.85 10.25 63.01 7.08 67.95 7.01 C 72.79 6.43 77.81 7.34 82.15 9.55 C 82.52 11.68 83.70 13.53 84.22 15.62 C 85.53 22.67 85.31 29.86 85.18 36.99 C 84.22 47.26 84.42 57.56 84.21 67.84 C 82.04 67.06 80.60 65.16 81.56 62.89 C 80.18 59.89 80.98 56.48 81.18 53.32 C 81.93 42.78 81.06 32.22 81.36 21.67 C 81.43 18.52 81.21 15.36 80.53 12.28 C 79.22 11.54 77.98 10.69 76.76 9.80 C 72.45 10.72 67.96 9.67 63.69 10.74 C 61.70 12.04 59.68 13.32 57.91 14.90 C 55.46 17.65 54.35 21.31 51.92 24.07 C 55.15 25.71 54.37 29.54 54.61 32.56 C 54.42 45.02 54.75 57.48 54.44 69.94 C 53.72 70.16 52.30 70.61 51.58 70.83 C 50.74 61.98 50.16 53.09 50.54 44.19 C 50.43 36.79 49.64 29.39 49.64 21.99 C 50.76 18.73 53.12 15.92 55.03 13.04 Z" />
<path fill="#ffffff" opacity="1.00" d=" M 65.44 27.21 C 65.13 23.65 65.41 20.10 67.03 16.86 C 68.81 19.91 69.02 23.47 69.02 26.92 C 71.66 26.59 74.29 26.93 76.85 27.60 C 76.78 28.08 76.63 29.04 76.56 29.52 C 74.27 30.61 71.76 30.83 69.29 31.19 C 69.67 35.96 69.32 40.72 69.45 45.49 C 68.52 45.50 67.59 45.51 66.66 45.51 C 66.71 40.83 65.70 36.24 65.56 31.57 C 63.62 31.53 61.69 31.46 59.75 31.32 C 59.64 30.16 59.52 29.00 59.39 27.85 C 61.41 27.65 63.42 27.44 65.44 27.21 Z" />
<path fill="#ffffff" opacity="1.00" d=" M 69.47 67.46 C 74.64 64.75 80.15 67.87 85.42 68.57 C 85.55 69.90 85.65 71.23 85.74 72.56 C 86.73 72.47 87.72 72.39 88.71 72.32 C 89.58 73.79 90.33 75.33 91.44 76.64 C 93.64 77.68 96.00 78.46 97.97 79.94 C 98.79 81.14 98.90 82.67 99.40 84.01 C 98.72 84.63 98.05 85.25 97.36 85.86 C 96.50 84.57 95.64 83.28 94.81 81.97 C 93.64 83.17 92.54 84.53 90.89 85.07 C 90.46 83.35 90.15 81.60 89.80 79.87 C 89.95 81.52 89.32 83.71 87.21 83.16 C 85.60 82.53 85.03 80.58 83.93 79.34 C 83.03 79.90 82.13 80.46 81.23 81.00 C 79.60 79.76 78.18 78.00 76.04 77.70 C 73.19 77.18 70.81 75.27 67.88 75.03 C 72.11 79.16 78.31 82.97 77.73 89.75 C 80.58 89.14 82.27 86.11 85.38 86.31 C 85.96 84.84 86.87 83.70 88.59 84.09 C 87.24 89.96 92.72 94.37 97.53 96.40 C 97.55 99.79 97.32 103.18 97.53 106.56 C 97.07 106.65 96.14 106.81 95.68 106.89 C 95.94 103.28 94.89 99.68 95.65 96.10 C 93.24 97.20 91.13 95.51 88.80 95.10 C 88.07 93.50 87.23 91.95 86.40 90.40 C 84.93 89.95 83.47 89.49 81.98 89.11 C 83.27 90.15 84.60 91.12 85.93 92.12 C 85.75 92.76 85.41 94.05 85.23 94.70 C 81.97 93.93 78.85 92.46 75.48 93.77 C 74.73 92.78 73.99 91.81 73.23 90.84 C 72.25 91.13 71.28 91.42 70.30 91.70 C 69.51 90.61 68.72 89.51 67.91 88.43 C 66.51 88.81 65.12 89.22 63.71 89.59 C 63.53 88.93 63.17 87.60 62.99 86.94 C 64.56 86.29 66.04 85.04 67.81 85.17 C 69.02 85.89 69.92 86.99 70.93 87.95 C 72.02 87.61 73.12 87.29 74.22 86.98 C 73.68 84.21 71.16 82.86 68.87 81.68 C 68.81 80.81 68.75 79.95 68.67 79.09 C 68.10 79.18 66.96 79.36 66.40 79.46 C 66.02 80.58 65.66 81.71 65.30 82.85 C 63.57 82.86 62.08 82.05 60.68 81.10 C 64.25 79.15 67.98 75.50 66.07 71.10 C 63.55 71.58 64.58 74.40 64.48 76.17 C 62.42 76.27 60.36 76.38 58.31 76.50 C 55.86 81.00 52.23 84.77 50.15 89.48 C 53.79 87.18 55.66 83.14 58.13 79.78 C 60.65 83.77 54.95 86.05 55.04 89.86 C 55.88 90.23 56.73 90.60 57.58 90.96 C 57.96 90.37 58.72 89.20 59.10 88.61 C 59.96 90.25 60.73 92.15 59.34 93.77 C 56.36 91.80 52.82 92.51 49.47 92.63 C 47.63 93.82 45.90 95.19 44.13 96.49 C 42.99 95.53 41.81 94.63 40.62 93.75 C 40.79 89.89 43.41 86.99 44.76 83.55 C 43.12 84.54 41.69 85.90 41.02 87.73 C 40.03 90.69 36.83 91.79 34.71 93.79 C 32.20 92.26 34.18 90.00 36.13 89.23 C 35.22 88.45 34.50 87.49 33.94 86.44 C 37.08 84.83 40.70 83.92 43.43 81.66 C 39.70 81.81 35.47 80.68 32.33 83.31 C 32.30 84.60 32.29 85.90 32.25 87.20 C 31.46 87.76 30.67 88.32 29.89 88.89 C 29.31 88.77 28.15 88.52 27.57 88.40 C 27.91 85.57 27.64 81.94 30.54 80.35 C 34.15 78.36 38.78 77.42 42.55 79.59 C 43.24 78.79 43.96 78.01 44.70 77.25 C 43.42 76.57 42.15 75.90 40.89 75.20 C 43.66 72.23 47.53 70.34 51.57 71.92 C 51.53 72.57 51.46 73.87 51.42 74.52 C 53.36 72.34 56.07 70.76 59.03 71.90 C 60.93 70.70 62.35 68.92 64.16 67.62 C 65.92 67.23 67.76 68.41 69.47 67.46 M 69.90 70.67 C 71.93 72.63 74.76 73.56 77.31 74.59 C 80.69 74.27 83.93 74.86 86.93 76.49 C 85.86 73.93 83.70 72.11 81.95 70.04 C 80.54 70.93 79.15 71.84 77.81 72.82 C 76.92 71.76 76.01 70.71 75.11 69.66 C 73.38 70.01 71.63 70.31 69.90 70.67 M 45.83 81.94 C 48.74 81.09 51.80 80.57 54.44 79.01 C 51.41 79.78 47.26 78.23 45.83 81.94 Z" />
<path fill="#ffffff" opacity="1.00" d=" M 101.72 83.69 C 102.73 83.71 103.74 83.72 104.74 83.73 C 104.02 85.64 103.38 87.66 101.90 89.15 C 100.74 87.51 101.69 85.50 101.72 83.69 Z" />
<path fill="#ffffff" opacity="1.00" d=" M 98.34 89.31 C 100.06 89.69 101.76 90.13 103.48 90.49 C 103.58 91.71 103.67 92.93 103.77 94.14 C 100.91 94.06 99.12 91.89 98.34 89.31 Z" />
<path fill="#ffffff" opacity="1.00" d=" M 50.33 96.56 C 54.07 96.27 60.45 92.86 62.10 98.03 C 59.42 98.29 56.67 98.15 54.06 98.89 C 51.73 100.11 49.22 102.74 46.39 101.36 C 43.90 100.46 47.10 98.86 48.08 98.31 C 48.96 98.83 49.84 99.36 50.72 99.88 C 50.59 98.77 50.45 97.67 50.33 96.56 Z" />
<path fill="#ffffff" opacity="1.00" d=" M 32.02 96.84 C 33.18 96.56 34.34 96.30 35.51 96.04 C 36.06 98.03 36.61 100.03 36.69 102.10 C 34.64 100.83 32.97 99.07 32.02 96.84 Z" />
<path fill="#ffffff" opacity="1.00" d=" M 62.55 101.32 C 63.90 100.72 65.35 100.74 66.79 100.95 C 66.06 101.85 65.34 102.75 64.62 103.66 C 64.11 103.64 63.09 103.60 62.59 103.59 C 62.58 103.02 62.56 101.89 62.55 101.32 Z" />
</g>
</svg>
