<?xml version="1.0" encoding="UTF-8" ?>
<!DOCTYPE svg PUBLIC "-//W3C//DTD SVG 1.1//EN" "http://www.w3.org/Graphics/SVG/1.1/DTD/svg11.dtd">
<svg width="128pt" height="128pt" viewBox="0 0 128 128" version="1.1" xmlns="http://www.w3.org/2000/svg">
<g id="#ffffffff">
<path fill="#ffffff" opacity="1.00" d=" M 72.97 26.68 C 74.16 26.89 75.02 25.89 75.98 25.38 C 78.82 26.36 81.78 27.04 84.46 28.46 C 87.20 36.69 85.93 45.49 86.25 53.99 C 85.12 63.31 85.56 72.68 85.76 82.03 C 85.14 88.28 86.12 94.79 83.97 100.80 C 82.33 99.84 80.66 98.95 78.94 98.16 C 78.74 96.30 78.59 94.43 78.32 92.57 C 76.10 93.37 75.41 95.75 74.09 97.47 C 73.00 96.25 71.94 95.00 70.87 93.76 C 69.90 95.47 68.98 97.20 68.01 98.91 C 67.32 98.78 65.96 98.52 65.28 98.40 C 65.09 96.53 65.44 94.68 65.78 92.86 C 63.79 95.66 61.30 100.53 57.15 98.18 C 58.77 94.71 61.09 91.12 64.56 89.29 C 65.44 88.27 63.47 87.80 63.27 88.89 C 61.27 91.64 59.25 94.53 56.47 96.53 C 54.90 97.68 53.05 96.27 51.38 96.13 C 50.92 97.05 50.47 97.96 50.01 98.88 C 51.07 100.84 51.57 103.01 51.11 105.22 C 48.07 102.45 48.37 98.23 47.54 94.54 C 47.02 91.53 47.57 88.45 47.12 85.43 C 45.97 78.66 46.74 71.77 46.35 64.96 C 46.71 60.99 46.28 56.97 46.99 53.03 C 47.29 52.83 47.88 52.41 48.17 52.21 C 47.65 51.85 47.13 51.49 46.62 51.13 C 46.49 45.33 49.59 39.98 49.35 34.11 C 49.13 30.31 53.66 29.46 56.38 28.33 C 61.60 25.96 67.41 26.83 72.97 26.68 M 83.28 31.12 C 83.94 31.78 83.94 31.78 83.28 31.12 M 66.53 37.59 C 65.86 38.78 66.99 39.94 67.40 41.01 C 66.53 42.23 65.63 43.42 64.61 44.51 C 65.65 46.41 65.76 48.52 64.38 50.30 C 62.11 50.72 59.87 51.27 57.63 51.82 C 57.23 52.62 56.81 53.40 56.40 54.19 C 59.36 54.43 62.33 54.38 65.29 54.29 C 63.99 59.49 64.56 64.88 63.39 70.10 C 62.78 72.85 64.00 75.23 66.00 77.03 C 67.01 72.94 69.30 69.17 69.53 64.90 C 69.52 61.24 69.52 57.58 69.50 53.92 C 72.31 53.84 75.04 53.15 77.75 52.45 C 77.75 52.01 77.75 51.12 77.75 50.67 C 75.07 49.98 72.35 49.42 69.61 49.02 C 69.91 44.62 69.21 40.23 69.76 35.84 C 68.68 36.41 67.57 36.95 66.53 37.59 M 82.23 39.24 C 82.82 39.82 82.82 39.82 82.23 39.24 Z" />
</g>
</svg>
