<?xml version="1.0" encoding="UTF-8" ?>
<!DOCTYPE svg PUBLIC "-//W3C//DTD SVG 1.1//EN" "http://www.w3.org/Graphics/SVG/1.1/DTD/svg11.dtd">
<svg width="512pt" height="256pt" viewBox="0 0 512 256" version="1.1" xmlns="http://www.w3.org/2000/svg">
<g id="#ffffffff">
<path fill="#ffffff" opacity="1.00" d=" M 210.20 57.00 C 210.76 57.16 211.86 57.49 212.41 57.65 C 212.65 60.34 213.04 63.08 212.58 65.77 C 210.87 72.52 206.73 78.26 204.36 84.74 C 205.66 84.64 206.96 84.51 208.26 84.44 C 208.61 85.18 209.31 86.67 209.67 87.42 C 207.19 87.88 203.75 86.58 202.27 89.30 C 199.12 96.62 195.86 103.92 193.67 111.61 C 193.32 113.02 192.30 114.04 190.95 114.52 C 192.32 105.15 196.07 96.40 199.45 87.64 C 192.23 88.89 184.91 89.18 177.61 89.49 C 175.10 95.84 171.68 101.78 169.24 108.16 C 168.32 110.37 167.75 112.87 165.75 114.41 C 165.71 112.73 165.81 111.02 166.49 109.46 C 169.08 102.86 171.73 96.29 174.55 89.79 C 156.38 89.41 137.66 88.40 120.19 94.37 C 114.38 96.66 108.90 100.98 106.92 107.09 C 105.99 109.36 107.56 111.55 108.04 113.73 C 106.41 112.54 104.15 111.25 104.22 108.93 C 104.56 102.66 109.03 97.31 114.41 94.44 C 124.43 89.13 135.95 88.26 147.03 87.16 C 156.62 86.79 166.27 87.76 175.82 86.72 C 178.74 80.41 181.33 73.96 184.20 67.63 C 175.71 68.66 166.76 67.15 158.71 70.66 C 157.22 71.30 155.31 71.97 155.47 73.96 C 157.45 77.36 162.31 77.62 163.83 81.45 C 160.52 80.41 157.15 78.82 154.93 76.06 C 153.55 74.40 152.76 71.33 155.03 70.04 C 158.99 67.80 163.62 67.01 168.09 66.47 C 174.85 66.37 182.44 67.01 188.10 62.61 C 189.08 65.94 186.37 68.45 185.32 71.35 C 183.40 76.63 181.18 81.81 178.68 86.85 C 185.98 87.06 193.20 85.89 200.45 85.30 C 203.43 79.19 206.23 72.96 208.74 66.65 C 209.74 64.76 208.37 62.89 208.06 61.02 C 208.65 59.62 209.45 58.32 210.20 57.00 Z" />
<path fill="#ffffff" opacity="1.00" d=" M 316.16 72.86 C 318.28 69.49 321.41 73.82 321.43 76.33 C 319.34 75.76 317.71 74.30 316.16 72.86 Z" />
<path fill="#ffffff" opacity="1.00" d=" M 351.60 94.74 C 354.00 87.73 360.21 81.18 367.86 80.67 C 369.59 82.21 370.50 84.46 371.95 86.26 C 371.20 88.32 370.48 90.40 369.93 92.53 C 373.44 91.14 375.68 87.72 379.34 86.64 C 379.07 88.38 379.21 90.51 377.64 91.68 C 373.44 94.56 367.65 96.65 366.09 102.01 C 364.64 106.56 361.57 110.31 359.63 114.63 C 357.25 120.08 353.56 124.80 350.60 129.92 C 349.27 131.58 347.18 129.29 346.89 127.82 C 345.59 122.52 347.94 117.13 350.68 112.68 C 353.82 107.35 357.94 102.68 362.48 98.50 C 364.16 97.10 365.10 95.12 365.56 93.02 C 360.90 95.07 357.62 100.37 352.08 99.91 C 348.61 101.10 345.04 103.20 341.35 101.38 C 340.89 96.86 343.07 92.76 344.15 88.50 C 340.03 90.37 335.74 92.24 332.53 95.53 C 330.09 97.83 328.45 100.78 326.23 103.26 C 325.19 104.60 323.42 103.40 322.12 103.28 C 323.07 100.06 324.54 97.04 325.99 94.02 C 322.01 98.34 317.37 102.05 311.98 104.47 C 309.84 104.18 308.05 102.07 308.24 99.91 C 308.47 97.13 309.64 94.57 310.33 91.90 C 305.66 96.11 299.18 98.34 295.98 104.00 C 292.85 112.11 288.94 119.93 284.31 127.30 C 283.34 128.95 281.36 130.58 279.35 129.70 C 275.96 128.30 275.14 123.67 276.60 120.59 C 280.02 113.11 287.01 108.32 292.44 102.44 C 293.96 100.88 294.79 98.84 295.23 96.74 C 291.16 99.79 287.89 104.18 282.99 105.92 C 282.06 104.68 281.16 103.42 280.25 102.17 C 276.19 104.34 271.35 110.03 266.54 106.45 C 264.91 101.64 268.50 96.98 267.46 92.18 C 263.21 94.47 259.38 97.58 256.51 101.48 C 254.72 103.75 253.03 107.01 249.56 106.31 C 250.16 103.16 251.64 100.31 252.98 97.43 C 246.92 100.90 242.46 107.47 235.10 108.43 C 231.23 106.63 233.44 101.82 233.84 98.68 C 230.50 101.80 227.94 105.74 224.23 108.46 C 221.97 109.79 219.53 107.31 219.87 105.00 C 220.95 96.38 227.80 90.13 234.40 85.26 C 237.56 82.98 239.80 87.23 239.60 89.99 C 239.00 95.35 235.63 100.06 235.55 105.54 C 244.12 101.83 251.30 95.36 256.97 88.01 C 261.02 89.32 258.14 93.69 257.45 96.37 C 261.10 93.82 264.49 90.62 268.92 89.49 C 271.62 90.27 271.15 93.49 270.48 95.55 C 269.37 98.63 269.02 101.90 269.39 105.15 C 273.44 103.90 277.20 101.88 280.92 99.89 C 283.94 98.21 285.20 94.82 287.14 92.16 C 289.87 88.00 293.80 84.17 298.86 83.25 C 300.89 83.83 302.33 85.65 303.99 86.88 C 302.14 90.25 300.34 93.66 298.92 97.24 C 305.15 94.62 310.75 90.21 314.87 84.85 C 315.75 83.65 317.38 84.03 318.18 85.12 C 316.91 88.34 314.26 90.85 313.20 94.19 C 312.66 96.19 312.25 98.23 311.88 100.27 C 319.16 97.57 323.94 91.16 329.14 85.77 C 329.81 85.81 331.14 85.90 331.81 85.95 C 331.58 88.14 331.07 90.29 330.67 92.45 C 335.01 90.21 339.00 87.27 343.51 85.37 C 345.30 84.56 348.03 85.69 347.55 87.97 C 346.56 91.59 345.07 95.15 345.31 98.99 C 347.69 98.18 350.87 97.56 351.60 94.74 M 355.77 93.06 C 359.64 90.75 363.78 88.38 366.45 84.64 C 361.49 84.81 358.11 89.18 355.77 93.06 M 285.68 99.47 C 289.50 98.40 291.47 94.72 294.44 92.41 C 296.37 90.93 297.54 88.78 298.22 86.48 C 292.47 88.71 288.24 94.02 285.68 99.47 M 222.96 104.64 C 226.26 103.24 228.12 99.94 230.26 97.24 C 231.97 94.56 234.35 92.00 234.65 88.68 C 229.92 93.26 224.77 98.09 222.96 104.64 M 354.83 111.77 C 352.71 115.35 350.62 119.13 350.27 123.36 C 352.46 121.72 353.48 119.09 354.84 116.81 C 356.74 113.11 358.95 109.52 360.33 105.57 C 357.94 107.05 356.11 109.30 354.83 111.77 M 279.46 122.44 C 279.22 123.97 278.49 126.91 280.79 127.04 C 284.65 121.40 287.93 115.26 289.93 108.71 C 285.90 112.73 281.23 116.85 279.46 122.44 Z" />
<path fill="#ffffff" opacity="1.00" d=" M 162.74 125.78 C 166.75 123.19 172.95 124.62 174.78 129.22 C 175.61 130.96 173.62 131.81 172.67 132.89 C 172.63 131.38 172.60 129.87 172.58 128.37 C 170.46 127.31 167.92 126.33 165.70 127.75 C 161.56 130.22 158.44 134.03 155.66 137.90 C 158.90 142.16 161.25 147.49 160.16 152.95 C 159.30 156.89 158.64 161.57 154.98 163.97 C 150.26 166.94 144.15 166.95 139.18 164.57 C 137.82 166.47 136.66 168.59 134.82 170.07 C 130.15 171.08 123.57 168.05 124.22 162.49 C 128.36 160.25 133.07 159.55 137.65 160.74 C 143.24 153.61 146.47 144.99 152.05 137.86 C 148.13 133.45 142.27 130.50 136.26 131.53 C 124.06 133.45 114.92 144.49 112.53 156.20 C 111.49 162.61 111.95 170.27 117.05 174.93 C 121.01 178.47 126.52 178.37 131.41 179.34 C 131.56 179.68 131.87 180.35 132.02 180.69 C 126.47 181.16 120.61 180.37 116.04 176.95 C 110.53 173.30 108.59 166.29 108.71 160.00 C 109.23 150.26 114.49 141.09 122.08 135.08 C 127.41 130.96 134.05 127.71 140.97 128.81 C 145.83 129.17 149.40 132.76 153.23 135.35 C 156.07 131.87 158.94 128.26 162.74 125.78 M 146.27 153.29 C 144.66 156.61 142.27 159.52 140.99 163.00 C 146.67 164.67 154.65 162.59 156.34 156.25 C 158.21 151.11 157.89 145.13 154.62 140.62 C 150.80 144.06 148.73 148.89 146.27 153.29 M 126.36 165.88 C 128.08 166.63 129.75 167.80 131.70 167.83 C 133.55 167.04 134.52 165.10 135.86 163.71 C 132.74 162.60 128.02 162.36 126.36 165.88 Z" />
<path fill="#ffffff" opacity="1.00" d=" M 285.02 130.98 C 286.11 129.21 289.09 128.71 289.80 131.09 C 291.92 136.23 290.30 142.07 288.63 147.13 C 292.35 145.15 294.88 141.39 298.98 140.08 C 302.10 138.88 306.45 138.19 308.65 141.37 C 310.98 144.73 308.91 148.89 306.71 151.70 C 303.61 156.12 298.37 158.05 294.16 161.14 C 291.80 162.91 289.26 164.43 286.75 165.99 C 288.49 168.30 289.86 171.13 292.45 172.62 C 297.80 173.40 303.49 171.09 307.06 167.05 C 311.15 162.47 315.10 157.76 319.38 153.36 C 320.14 152.41 321.40 152.40 322.49 152.16 C 323.32 155.36 325.08 158.64 323.99 162.00 C 323.62 165.15 321.39 167.91 321.91 171.17 C 330.23 168.20 336.26 160.89 340.26 153.27 C 340.64 153.26 341.39 153.25 341.77 153.24 C 342.69 156.00 341.53 158.78 341.00 161.49 C 345.22 159.23 349.21 156.50 353.66 154.70 C 354.86 154.08 356.15 154.67 357.37 154.86 C 356.45 158.46 355.36 162.09 353.30 165.23 C 352.22 166.73 351.81 168.54 351.68 170.35 C 355.32 169.68 358.23 167.23 361.28 165.32 C 363.99 163.81 364.58 160.58 366.14 158.15 C 368.62 154.20 372.95 150.72 377.90 151.50 C 378.38 152.73 378.90 153.95 379.44 155.16 C 377.83 157.19 376.28 159.42 373.94 160.67 C 373.54 160.34 372.74 159.70 372.34 159.38 C 373.52 157.80 374.85 156.34 375.94 154.69 C 372.21 156.00 369.53 159.19 367.27 162.30 C 366.32 163.68 365.20 165.94 366.70 167.34 C 369.46 168.26 372.00 166.17 374.53 165.37 C 379.33 163.72 383.80 160.97 387.27 157.25 C 392.62 149.27 395.70 139.66 403.17 133.19 C 404.13 134.25 405.54 135.28 405.08 136.93 C 402.90 143.46 398.96 149.27 394.21 154.21 C 391.70 157.44 389.16 160.74 387.63 164.57 C 391.88 163.45 395.41 160.16 399.96 160.11 C 400.70 163.27 399.48 166.43 399.78 169.62 C 405.63 168.65 411.00 165.30 414.84 160.84 C 417.33 157.98 418.16 154.22 419.16 150.68 C 421.71 149.61 422.16 153.04 421.61 154.79 C 419.80 161.64 414.78 167.46 408.37 170.42 C 405.52 171.66 402.34 173.17 399.18 172.30 C 395.51 171.09 397.05 166.79 396.40 163.92 C 391.98 164.90 388.66 168.02 384.98 170.40 C 384.16 170.38 382.52 170.35 381.70 170.34 C 382.08 168.52 382.54 166.73 382.86 164.90 C 378.10 167.45 373.16 169.66 368.02 171.31 C 365.69 171.20 364.25 169.21 362.79 167.68 C 360.12 169.99 357.41 172.48 353.81 173.17 C 351.75 174.33 349.64 172.61 348.62 170.88 C 348.41 166.45 351.58 162.88 352.59 158.72 C 346.95 162.26 339.75 164.07 336.04 170.03 C 335.34 171.17 334.20 171.89 333.08 172.56 C 332.53 171.27 332.01 169.97 331.54 168.67 C 328.69 171.08 325.60 173.35 322.04 174.60 C 317.04 173.22 320.14 167.18 320.19 163.65 C 316.06 167.07 312.70 171.59 307.89 174.08 C 304.13 173.92 300.54 175.12 296.96 176.08 C 293.16 177.18 289.01 175.31 286.93 172.04 C 285.04 169.13 281.75 167.31 280.53 163.97 C 288.84 161.85 295.91 156.75 302.61 151.61 C 305.56 149.44 307.70 145.92 306.82 142.15 C 304.49 141.29 301.96 141.45 299.89 142.89 C 287.90 150.24 280.21 162.51 273.93 174.74 C 273.37 174.29 272.27 173.38 271.72 172.93 C 275.34 159.19 288.04 148.57 287.27 133.56 C 282.63 137.55 280.54 143.41 277.51 148.55 C 273.52 155.52 269.93 162.75 265.48 169.44 C 261.07 176.02 253.84 180.83 245.90 181.61 C 241.35 181.99 237.56 177.48 237.98 173.09 C 238.41 166.98 243.07 162.31 247.29 158.34 C 250.27 155.40 256.12 156.48 257.50 160.51 C 258.39 163.05 256.28 165.20 254.85 167.01 C 253.62 164.65 254.46 161.98 254.15 159.46 C 246.24 159.89 240.12 168.16 240.86 175.87 C 241.59 178.88 245.25 179.85 247.92 179.09 C 255.25 177.49 260.54 171.44 264.32 165.32 C 271.62 154.12 276.30 141.24 285.02 130.98 M 310.33 168.67 C 315.31 166.47 319.22 161.77 320.97 156.64 C 316.15 159.08 312.60 163.84 310.33 168.67 Z" />
<path fill="#ffffff" opacity="1.00" d=" M 200.67 144.88 C 203.45 143.21 206.17 140.37 209.74 141.37 C 213.13 141.52 214.08 146.06 212.66 148.59 C 210.06 153.70 208.00 159.06 205.45 164.19 C 206.32 164.37 208.06 164.74 208.93 164.92 C 206.16 168.75 201.57 171.24 200.02 175.89 C 197.43 181.41 194.96 186.99 192.60 192.60 C 191.56 194.44 190.18 197.56 187.55 196.55 C 185.66 194.19 184.62 191.30 183.25 188.62 C 181.80 186.04 183.44 183.16 185.40 181.41 C 188.96 177.19 193.94 174.63 197.97 170.96 C 200.43 166.77 202.38 162.27 204.49 157.90 C 201.08 159.55 198.48 162.45 194.96 163.92 C 193.96 162.73 192.02 161.82 192.23 160.01 C 192.61 155.05 195.81 151.04 198.38 147.01 C 192.81 146.78 187.23 147.18 181.66 146.66 C 182.35 151.00 183.41 156.45 179.89 159.89 C 177.48 162.17 174.75 164.91 171.19 164.89 C 168.80 164.74 167.72 162.08 168.14 159.99 C 168.61 154.09 173.83 150.40 176.54 145.53 C 178.41 142.53 181.97 144.40 184.71 144.60 C 188.12 145.38 191.60 144.16 195.01 144.94 C 196.87 145.12 198.93 146.00 200.67 144.88 M 204.12 147.12 C 200.21 150.04 197.17 154.16 195.72 158.83 C 201.27 156.23 206.32 151.83 209.04 146.28 C 207.40 146.47 205.55 146.13 204.12 147.12 M 171.36 161.58 C 176.05 159.81 182.38 154.66 179.20 149.13 C 175.49 152.38 172.13 156.57 171.36 161.58 M 186.59 184.59 C 184.67 187.69 186.73 191.16 188.15 193.99 C 191.60 189.07 193.38 183.14 195.15 177.46 C 191.76 179.05 188.71 181.49 186.59 184.59 Z" />
</g>
</svg>
