<?xml version="1.0" encoding="UTF-8" ?>
<!DOCTYPE svg PUBLIC "-//W3C//DTD SVG 1.1//EN" "http://www.w3.org/Graphics/SVG/1.1/DTD/svg11.dtd">
<svg width="512pt" height="256pt" viewBox="0 0 512 256" version="1.1" xmlns="http://www.w3.org/2000/svg">
<g id="#ffffffff">
<path fill="#ffffff" opacity="1.00" d=" M 297.37 33.20 C 296.99 30.96 299.68 30.42 301.01 29.25 C 302.28 30.19 303.94 30.85 304.56 32.42 C 308.10 39.94 306.92 48.53 309.11 56.41 C 313.83 55.27 315.92 50.35 317.28 46.18 C 318.70 42.46 319.11 38.48 319.11 34.52 C 320.37 34.56 321.63 34.68 322.88 34.89 C 321.85 42.19 321.32 50.33 315.92 55.93 C 313.71 58.05 310.75 60.36 307.50 59.62 C 304.50 57.81 304.54 53.96 303.82 50.94 C 302.79 46.23 302.91 41.29 301.65 36.65 C 301.34 36.43 300.71 35.98 300.40 35.75 C 300.03 44.75 301.28 53.79 300.44 62.77 C 299.51 66.29 299.14 70.82 295.60 72.76 C 293.88 74.02 291.77 72.68 290.67 71.25 C 288.30 68.24 287.90 64.31 286.63 60.82 C 283.94 63.55 280.84 65.78 277.40 67.47 C 276.37 74.00 277.11 80.79 275.22 87.18 C 274.99 88.89 272.71 90.69 271.34 89.05 C 268.56 85.04 268.15 79.97 266.61 75.44 C 265.84 76.15 265.37 77.02 265.20 78.04 C 264.30 83.28 263.68 88.57 262.72 93.80 C 262.41 95.85 260.94 98.74 258.41 97.79 C 256.18 95.27 255.07 92.05 253.65 89.07 C 251.09 93.66 253.30 99.74 250.29 104.29 C 249.29 104.91 247.66 105.32 246.85 104.18 C 243.43 100.66 244.04 95.40 242.48 91.09 C 239.28 98.07 236.59 105.29 234.77 112.75 C 234.51 114.65 232.37 116.50 230.49 115.46 C 227.53 113.21 226.39 109.45 224.10 106.62 C 221.21 110.62 216.18 114.52 217.28 119.98 C 217.50 124.16 217.22 129.88 212.66 131.67 C 209.90 132.61 207.92 129.96 206.47 128.07 C 208.00 124.00 210.92 120.72 212.80 116.86 C 212.38 112.99 207.40 109.38 203.71 111.80 C 201.63 114.42 201.96 118.56 198.99 120.50 C 197.45 120.31 196.18 118.70 197.02 117.21 C 198.75 113.36 200.09 109.29 200.17 105.03 C 200.23 98.53 200.84 91.46 197.23 85.69 C 196.43 84.26 194.34 83.79 193.33 85.29 C 186.48 94.66 184.19 106.57 184.53 117.99 C 184.29 127.98 186.46 137.90 185.60 147.87 C 184.99 147.87 183.78 147.86 183.18 147.86 C 182.47 144.30 181.76 140.73 181.43 137.11 C 180.30 125.15 178.35 113.28 176.42 101.43 C 176.01 99.73 176.24 97.51 174.38 96.64 C 173.94 108.04 171.87 119.28 169.19 130.35 C 167.56 136.25 164.77 141.73 162.17 147.24 C 157.27 157.15 152.49 167.56 144.05 175.02 C 140.98 177.91 136.87 180.63 132.46 179.44 C 127.46 178.03 124.02 173.49 122.09 168.88 C 119.86 163.11 118.74 156.97 117.64 150.90 C 117.02 141.54 116.98 131.71 121.10 123.05 C 124.36 116.42 129.36 110.56 135.65 106.64 C 139.86 103.92 146.25 104.47 149.13 108.85 C 152.73 114.26 154.00 120.84 154.81 127.18 C 155.38 132.53 155.93 138.14 154.01 143.29 C 153.60 143.05 152.76 142.58 152.34 142.34 C 152.17 137.29 153.41 132.24 152.77 127.18 C 152.04 121.12 150.52 114.96 147.34 109.71 C 144.96 106.01 139.62 105.98 136.26 108.30 C 128.86 113.49 123.13 121.24 120.94 130.07 C 118.15 141.08 120.02 152.58 122.57 163.44 C 123.62 168.53 126.50 173.25 130.67 176.37 C 132.67 177.87 135.47 178.03 137.65 176.84 C 143.28 174.05 147.59 169.17 150.92 163.94 C 156.22 155.59 160.72 146.75 164.82 137.76 C 167.40 132.24 168.34 126.17 169.50 120.25 C 171.20 110.56 173.29 100.87 173.42 91.00 C 173.52 87.04 172.39 83.19 172.12 79.26 C 172.86 79.03 174.35 78.57 175.09 78.35 C 177.98 87.74 178.62 97.62 181.02 107.12 C 183.79 98.80 185.43 89.38 191.93 82.94 C 193.73 80.78 197.27 80.64 198.84 83.14 C 204.90 89.92 203.63 99.49 203.55 107.84 C 205.88 107.86 208.36 107.43 210.56 108.44 C 212.55 109.46 213.90 111.31 215.44 112.87 C 218.13 109.72 220.95 106.52 222.84 102.81 C 223.45 98.87 221.80 94.95 221.74 90.99 C 221.25 87.99 225.14 85.66 227.64 87.19 C 229.64 88.00 230.38 90.28 230.81 92.21 C 231.62 96.22 228.20 99.29 227.56 103.02 C 227.59 106.18 229.61 108.84 231.13 111.47 C 233.29 106.97 234.81 102.20 236.61 97.55 C 239.23 90.13 242.79 83.11 245.76 75.84 C 246.64 73.51 248.58 70.81 251.43 71.70 C 250.66 74.92 248.55 77.59 247.64 80.75 C 246.10 85.47 245.90 90.57 246.71 95.44 C 246.77 96.66 247.59 97.57 248.43 98.37 C 249.65 91.68 249.32 84.86 250.09 78.14 C 250.13 76.30 252.84 75.70 253.73 77.18 C 256.46 81.49 256.48 86.90 259.03 91.31 C 261.22 84.25 261.04 76.65 263.65 69.68 C 264.45 67.82 264.44 64.89 266.97 64.57 C 268.24 64.95 268.95 65.80 269.11 67.12 C 270.18 71.13 270.47 75.34 271.67 79.32 C 271.94 79.58 272.48 80.12 272.75 80.39 C 273.22 75.16 273.43 69.91 273.31 64.66 C 275.50 64.31 278.03 64.40 279.70 62.69 C 282.75 59.63 285.76 56.24 287.07 52.03 C 287.63 50.93 287.65 49.35 288.82 48.68 C 290.12 47.73 291.69 48.62 293.07 48.83 C 291.98 51.83 290.36 54.75 290.36 58.02 C 290.20 62.13 291.84 66.06 293.84 69.56 C 296.87 64.23 297.05 57.95 297.13 51.99 C 297.11 45.72 297.55 39.47 297.37 33.20 M 224.99 92.05 C 225.29 93.65 225.07 95.82 227.14 96.19 C 227.14 94.41 227.68 91.73 224.99 92.05 M 210.08 128.18 C 214.06 130.49 213.81 124.08 214.05 121.71 C 211.91 123.28 210.96 125.79 210.08 128.18 Z" />
<path fill="#ffffff" opacity="1.00" d=" M 364.44 63.41 C 362.74 62.29 365.30 59.92 366.59 61.29 C 371.22 64.56 373.67 70.05 375.70 75.17 C 378.25 81.47 375.68 88.56 371.53 93.52 C 369.95 95.44 366.96 95.22 365.09 93.89 C 362.82 92.28 361.63 89.67 359.94 87.55 C 357.58 92.57 356.81 98.23 354.00 103.05 C 353.24 104.43 350.98 104.00 350.44 102.60 C 346.62 96.94 347.99 89.57 345.16 83.52 C 342.15 85.75 339.76 88.67 337.80 91.84 C 342.22 96.58 344.58 103.30 342.66 109.68 C 341.95 112.06 341.53 116.36 338.13 115.97 C 334.19 113.95 334.02 109.02 332.33 105.43 C 329.14 111.26 327.01 117.67 323.17 123.15 C 322.34 124.26 321.09 124.93 320.00 125.74 C 317.00 124.29 315.78 121.16 314.28 118.43 C 312.67 124.32 310.41 130.04 307.41 135.37 C 306.31 137.02 304.48 139.58 302.20 138.29 C 295.92 133.86 296.69 125.40 294.69 118.80 C 290.75 124.41 287.90 130.99 282.27 135.22 C 286.63 142.24 287.23 152.62 280.99 158.68 C 277.14 157.39 274.88 153.70 274.09 149.89 C 272.13 142.73 272.08 135.06 273.95 127.88 C 274.27 126.18 275.60 125.06 276.90 124.07 C 277.57 124.56 278.91 125.53 279.58 126.02 C 278.60 128.06 277.50 130.04 276.68 132.16 C 278.03 132.48 279.72 133.15 280.85 131.92 C 286.71 126.32 290.63 118.97 293.42 111.44 C 295.76 105.04 293.10 98.12 294.68 91.63 C 295.86 90.30 298.01 90.89 298.49 92.57 C 301.61 99.09 297.82 106.17 298.59 112.96 C 299.29 120.01 299.30 127.38 302.28 133.95 C 302.63 133.91 303.32 133.82 303.67 133.78 C 307.36 128.61 309.46 122.50 311.36 116.50 C 312.27 113.09 313.60 109.65 313.31 106.06 C 312.68 98.71 312.72 91.33 312.21 83.98 C 313.57 83.50 315.35 83.05 316.09 84.73 C 319.42 90.34 318.87 97.29 317.68 103.45 C 316.84 109.32 317.07 115.73 319.91 121.06 C 326.05 112.62 330.58 102.90 332.62 92.64 C 335.05 88.86 338.41 85.75 341.40 82.41 C 343.03 80.46 346.92 78.50 348.39 81.64 C 350.70 86.51 351.22 91.96 351.65 97.26 C 354.05 94.67 354.34 90.94 355.87 87.86 C 357.35 84.83 358.01 81.54 358.53 78.24 C 359.96 76.57 362.76 78.27 362.56 80.25 C 362.69 84.45 363.85 89.25 367.84 91.41 C 371.37 86.93 373.67 80.89 371.79 75.22 C 370.29 70.81 368.29 66.27 364.44 63.41 M 336.34 95.56 C 335.77 100.47 335.94 105.62 337.88 110.24 C 340.37 105.65 340.45 99.25 336.34 95.56 M 276.34 136.97 C 276.00 142.68 276.65 148.75 279.95 153.59 C 282.22 148.72 282.41 142.76 280.04 137.90 C 279.47 136.23 277.62 136.73 276.34 136.97 Z" />
<path fill="#ffffff" opacity="1.00" d=" M 251.73 113.74 C 253.14 113.70 255.38 113.15 255.94 115.00 C 257.95 120.66 260.07 126.28 262.34 131.84 C 263.66 134.51 261.86 137.28 262.06 140.03 C 263.28 149.00 264.24 158.00 265.82 166.91 C 266.28 169.99 262.45 168.97 262.15 166.70 C 260.43 160.37 259.58 153.83 258.76 147.33 C 258.64 145.85 258.18 144.44 257.46 143.15 C 253.92 145.68 250.41 148.28 247.04 151.05 C 243.74 153.67 245.80 158.17 246.17 161.63 C 247.12 169.16 249.43 176.63 249.27 184.24 C 247.94 183.82 246.50 183.51 245.46 182.51 C 244.72 173.99 242.54 165.64 241.45 157.15 C 241.57 156.12 240.53 154.60 239.46 155.49 C 226.56 163.78 213.36 171.73 201.36 181.34 C 194.49 186.79 188.93 193.61 182.89 199.92 C 180.05 202.87 177.52 206.62 177.20 210.79 C 178.97 214.98 184.65 213.76 188.27 214.84 C 184.20 216.38 179.47 215.56 175.90 213.19 C 174.37 212.09 173.82 210.06 174.39 208.30 C 176.42 202.30 181.00 197.71 185.11 193.07 C 199.62 176.72 218.56 165.41 236.79 153.76 C 238.71 152.58 241.23 150.76 240.23 148.15 C 238.47 142.01 237.92 135.50 235.28 129.65 C 230.45 133.69 224.62 136.11 219.16 139.12 C 210.94 144.35 202.72 149.86 196.07 157.05 C 193.81 159.58 191.30 162.39 191.44 166.02 C 196.14 167.96 201.74 168.04 206.08 165.14 C 210.35 162.97 211.45 157.68 215.49 155.26 C 213.96 159.16 212.65 163.57 209.06 166.11 C 203.74 169.88 196.40 170.13 190.58 167.38 C 188.84 166.65 187.72 164.50 188.71 162.75 C 190.90 157.92 194.87 154.20 198.83 150.79 C 205.79 144.91 213.12 139.33 221.27 135.19 C 225.44 132.91 230.10 130.99 233.18 127.24 C 235.08 125.50 232.60 121.11 236.09 121.19 C 238.60 122.92 238.41 126.31 239.32 128.92 C 241.15 135.33 241.88 142.02 244.07 148.32 C 248.32 146.50 252.04 143.57 255.45 140.49 C 258.43 137.72 256.55 133.61 255.90 130.27 C 254.83 124.68 253.19 119.24 251.73 113.74 Z" />
</g>
</svg>
