<?xml version="1.0" encoding="UTF-8" ?>
<!DOCTYPE svg PUBLIC "-//W3C//DTD SVG 1.1//EN" "http://www.w3.org/Graphics/SVG/1.1/DTD/svg11.dtd">
<svg width="512pt" height="128pt" viewBox="0 0 512 128" version="1.1" xmlns="http://www.w3.org/2000/svg">
<g id="#ffffffff">
<path fill="#ffffff" opacity="1.00" d=" M 142.26 3.96 C 143.77 4.63 145.79 5.97 144.99 7.92 C 142.08 17.18 136.91 25.58 133.90 34.80 C 138.45 36.24 143.27 36.45 148.01 36.26 C 149.78 35.83 150.94 34.25 151.82 32.77 C 156.03 25.34 159.69 17.57 164.58 10.55 C 165.63 8.43 169.47 8.86 169.81 11.27 C 169.88 13.84 169.54 16.40 169.36 18.96 C 169.50 22.07 166.32 23.57 164.95 25.99 C 162.31 30.23 159.93 34.86 155.52 37.55 C 152.35 41.49 151.47 46.78 149.19 51.26 C 147.31 54.80 146.56 58.72 146.33 62.69 C 144.73 64.90 141.88 61.80 141.66 59.93 C 142.45 53.25 146.18 47.43 147.68 40.93 C 143.28 39.49 138.58 39.09 133.99 38.73 C 131.63 38.45 130.12 40.37 129.31 42.32 C 126.76 47.99 123.39 53.25 120.99 59.00 C 120.13 60.88 119.24 63.20 117.03 63.80 C 115.01 63.52 114.00 60.90 115.03 59.22 C 117.98 53.06 121.40 47.12 124.10 40.85 C 125.41 38.19 121.66 38.27 120.04 38.10 C 105.09 37.33 90.34 34.66 75.54 32.62 C 69.75 31.95 63.88 31.29 58.05 31.80 C 49.05 33.48 41.04 40.01 37.42 48.41 C 36.60 50.99 35.26 54.34 37.34 56.67 C 38.17 57.70 38.93 58.77 39.21 60.09 C 35.30 59.66 34.21 55.24 34.28 51.94 C 34.36 44.31 40.07 38.24 45.55 33.59 C 48.62 30.67 52.99 30.43 56.74 28.90 C 60.00 27.53 63.57 28.33 66.95 28.67 C 76.92 30.18 87.10 29.96 96.97 32.16 C 106.40 34.39 116.15 34.36 125.77 34.54 C 128.34 34.65 129.23 31.93 130.01 30.00 C 131.53 25.79 135.27 22.42 135.41 17.75 C 130.42 17.25 125.37 18.46 120.42 17.35 C 113.86 16.08 108.39 11.71 101.91 10.23 C 98.43 10.08 93.74 13.66 95.54 17.41 C 99.00 20.95 104.58 21.07 109.16 20.06 C 110.51 19.96 113.29 18.67 113.43 20.99 C 114.54 22.81 111.43 22.89 110.45 23.61 C 104.63 25.93 98.32 22.92 93.76 19.29 C 91.90 17.97 90.92 15.38 92.14 13.30 C 93.72 10.85 95.73 8.60 98.19 7.01 C 101.01 5.70 104.03 7.35 106.68 8.37 C 111.08 10.27 115.33 12.53 119.87 14.11 C 125.71 15.92 131.92 13.99 137.08 11.14 C 140.00 9.85 140.60 6.38 142.26 3.96 Z" />
<path fill="#ffffff" opacity="1.00" d=" M 313.96 7.89 C 314.82 6.32 317.37 5.61 318.25 7.58 C 319.51 11.23 319.62 15.44 317.87 18.95 C 315.49 23.13 311.66 26.61 310.48 31.39 C 313.03 31.87 316.08 29.66 318.22 31.74 C 320.44 34.87 317.53 38.68 319.15 42.05 C 320.37 41.76 321.62 41.45 322.63 40.66 C 327.97 36.98 333.34 33.36 338.55 29.51 C 340.83 27.82 343.76 26.21 346.64 27.39 C 350.61 29.03 355.31 30.42 359.42 28.48 C 362.48 26.64 364.65 23.44 368.16 22.34 C 369.95 21.98 371.13 23.69 371.94 25.01 C 373.03 26.89 374.57 29.57 372.47 31.37 C 369.87 33.31 366.29 33.28 363.17 33.41 C 361.57 36.31 360.76 39.65 360.82 42.96 C 361.01 44.67 362.43 45.92 364.05 46.31 C 374.86 44.67 385.76 38.85 390.54 28.58 C 392.39 25.95 391.85 22.75 390.92 19.90 C 392.76 18.54 395.45 19.57 395.55 22.00 C 395.26 26.39 393.64 30.64 391.47 34.44 C 386.75 42.33 378.32 47.20 369.76 49.88 C 366.38 50.82 361.98 51.76 359.36 48.72 C 355.60 44.86 358.55 39.08 357.27 34.65 C 353.67 33.01 349.53 32.90 345.67 33.51 C 344.34 38.29 344.78 44.13 340.57 47.56 C 338.76 49.42 334.98 52.15 333.45 48.67 C 333.92 43.50 338.17 39.25 338.16 34.01 C 333.28 34.36 331.29 39.22 327.58 41.60 C 323.10 44.85 318.95 49.55 313.12 50.07 C 313.47 45.32 315.03 40.80 315.87 36.15 C 314.46 35.70 312.97 35.83 311.79 36.77 C 308.36 38.92 304.99 41.24 302.15 44.14 C 300.12 46.15 298.78 48.78 296.57 50.61 C 295.35 51.54 293.68 51.08 292.86 49.87 C 293.01 47.89 293.54 45.97 293.88 44.02 C 288.23 45.61 282.60 47.49 277.47 50.36 C 274.77 51.72 271.95 49.64 270.81 47.21 C 269.59 45.76 268.78 42.33 266.30 43.33 C 259.35 46.29 254.76 52.74 248.11 56.17 C 246.93 56.73 245.55 57.89 244.23 57.02 C 241.64 55.62 242.55 52.14 241.97 49.75 C 237.62 48.87 233.33 50.70 228.96 50.46 C 224.09 49.74 221.88 56.60 217.18 56.00 C 213.55 55.04 215.36 48.25 211.14 49.07 C 207.19 51.80 203.96 55.51 199.77 57.92 C 197.03 59.39 192.71 58.12 192.34 54.72 C 192.30 49.26 194.71 44.14 197.39 39.51 C 198.39 38.46 197.28 37.16 196.06 37.34 C 194.00 38.44 192.28 40.41 189.83 40.60 C 187.18 41.01 183.67 40.33 182.23 43.23 C 178.33 49.76 174.07 56.47 167.65 60.79 C 166.36 61.94 164.93 61.04 163.62 60.49 C 162.04 50.28 167.61 39.73 175.87 33.87 C 178.76 32.00 181.94 29.57 185.60 30.19 C 187.78 31.66 186.72 34.73 187.28 36.94 C 194.46 36.13 200.55 31.16 204.37 25.26 C 206.57 24.27 207.14 27.39 206.80 28.94 C 205.46 34.49 202.27 39.39 199.06 44.04 C 197.27 46.67 195.94 49.71 196.04 52.95 C 198.64 52.80 200.69 51.11 202.83 49.83 C 209.55 45.58 216.08 41.05 222.78 36.76 C 225.58 35.02 227.87 32.62 230.14 30.26 C 231.71 31.39 232.93 33.04 232.88 35.06 C 233.37 39.12 230.11 42.43 230.30 46.43 C 235.11 47.28 240.19 46.02 244.01 42.97 C 246.87 39.40 247.26 32.60 252.79 32.05 C 254.88 37.93 250.05 42.69 247.37 47.36 C 246.22 48.89 246.85 50.91 248.99 50.63 C 258.68 44.61 268.28 38.38 277.11 31.13 C 279.60 29.25 281.84 26.95 284.76 25.73 C 287.97 30.50 284.79 36.07 286.22 41.25 C 290.94 41.00 296.44 39.20 298.48 34.53 C 302.58 25.10 307.47 15.91 313.96 7.89 M 272.81 38.11 C 272.40 41.32 276.44 42.24 278.89 42.35 C 282.13 40.31 282.94 35.63 281.79 32.16 C 278.24 33.05 275.10 35.33 272.81 38.11 M 166.73 55.15 C 173.27 52.68 177.35 46.42 180.56 40.54 C 181.65 38.91 181.65 35.79 179.07 35.82 C 172.61 40.13 167.27 47.25 166.73 55.15 M 224.33 39.15 C 222.51 39.65 220.52 41.87 222.49 43.46 C 225.04 45.52 227.57 40.88 227.31 38.71 C 226.57 38.82 225.07 39.04 224.33 39.15 M 217.02 45.99 C 216.30 47.94 216.52 49.96 217.26 51.86 C 219.09 51.55 221.39 50.31 220.98 48.11 C 220.81 46.22 218.41 46.27 217.02 45.99 Z" />
<path fill="#ffffff" opacity="1.00" d=" M 393.55 49.58 C 394.34 47.58 397.29 46.07 398.86 48.12 C 400.47 50.76 401.32 53.92 401.23 57.01 C 400.29 61.12 398.14 64.87 395.91 68.40 C 392.79 69.50 394.03 65.40 393.65 63.72 C 391.95 64.61 390.61 65.98 389.79 67.70 C 391.12 69.05 392.44 70.42 393.63 71.91 C 391.06 75.63 386.09 76.84 384.09 81.06 C 382.42 84.64 379.41 88.01 379.64 92.14 C 383.88 91.97 387.91 90.62 392.02 89.70 C 396.82 89.23 401.76 89.42 406.45 90.64 C 406.63 92.78 406.98 95.52 404.85 96.87 C 399.87 101.17 392.21 99.17 387.23 103.33 C 385.51 107.64 389.50 112.62 394.01 112.40 C 399.45 112.34 403.50 108.34 407.18 104.84 C 409.38 102.96 410.96 107.07 409.51 108.51 C 406.12 112.79 401.63 116.84 396.00 117.52 C 391.86 118.15 387.16 116.83 384.70 113.27 C 382.37 109.76 381.76 105.49 381.32 101.39 C 381.34 100.07 380.44 98.97 379.07 99.01 C 375.55 101.56 372.72 105.01 370.86 108.94 C 370.00 110.84 368.08 111.77 366.17 112.29 C 365.27 110.75 363.84 109.01 364.98 107.18 C 367.71 100.99 370.96 95.04 373.99 88.99 C 374.66 87.81 374.85 86.46 374.92 85.13 C 371.51 85.28 368.33 86.62 365.00 87.18 C 362.95 88.09 363.17 83.62 365.12 83.99 C 373.13 82.70 381.12 77.91 384.13 70.07 C 386.60 62.95 390.28 56.35 393.55 49.58 M 392.97 63.13 C 395.83 62.58 396.59 59.47 396.95 57.01 C 394.23 57.58 393.87 60.95 392.97 63.13 M 388.02 96.62 C 391.56 96.50 396.48 97.43 398.55 93.75 C 396.04 93.54 393.52 93.45 391.01 93.63 C 389.50 93.87 387.63 94.79 388.02 96.62 Z" />
<path fill="#ffffff" opacity="1.00" d=" M 210.48 64.47 C 212.43 62.93 215.11 63.70 216.72 65.33 C 221.78 69.30 222.60 76.72 220.65 82.50 C 216.97 90.94 210.48 97.66 204.06 104.08 C 201.21 107.00 197.38 108.63 194.36 111.33 C 189.51 115.83 183.48 118.75 177.57 121.58 C 173.84 123.52 169.21 122.48 165.97 120.04 C 162.15 116.47 160.58 111.06 161.16 105.93 C 161.11 98.34 164.91 91.41 169.97 85.99 C 175.41 78.43 183.40 72.76 192.32 70.13 C 195.04 68.94 197.22 72.00 199.74 71.78 C 203.56 69.72 206.72 66.63 210.48 64.47 M 206.09 73.10 C 200.61 79.09 196.09 85.95 192.00 92.97 C 191.18 93.97 190.48 95.57 188.98 95.57 C 187.52 95.07 186.15 93.80 186.25 92.14 C 188.77 86.91 193.96 83.33 195.93 77.78 C 196.48 76.60 196.48 75.42 195.93 74.22 C 188.38 74.05 182.46 79.52 177.09 84.12 C 171.01 90.00 164.66 97.05 164.29 105.96 C 164.20 109.70 163.59 114.44 167.03 116.97 C 171.00 120.03 176.53 118.97 180.59 116.67 C 191.85 110.42 201.75 101.94 210.35 92.40 C 214.60 87.80 219.13 82.58 219.44 76.01 C 219.28 72.91 218.51 68.62 214.97 67.77 C 211.33 67.88 208.71 70.92 206.09 73.10 Z" />
<path fill="#ffffff" opacity="1.00" d=" M 317.38 65.27 C 319.63 64.12 321.36 67.13 320.89 69.08 C 320.25 73.61 319.14 78.13 317.27 82.31 C 314.34 87.20 310.22 91.25 306.12 95.16 C 301.99 99.06 296.62 101.90 293.75 106.97 C 296.18 108.27 298.79 107.08 301.20 106.41 C 305.37 105.17 309.05 102.78 313.10 101.24 C 316.79 99.89 320.17 97.74 323.09 95.13 C 325.05 93.36 323.39 89.19 326.29 88.33 C 332.28 88.68 338.09 86.68 344.09 87.05 C 349.15 86.16 354.20 81.65 359.35 84.66 C 362.77 86.45 358.68 90.27 360.18 93.01 C 361.47 96.69 358.49 99.77 356.43 102.46 C 354.23 105.28 350.76 106.97 347.19 106.97 C 344.97 106.77 344.71 103.88 345.18 102.19 C 346.13 98.55 347.65 95.09 348.88 91.54 C 342.93 90.36 336.05 90.17 330.98 93.96 C 328.51 98.33 331.65 104.10 328.12 108.12 C 325.95 110.41 323.33 113.30 320.08 113.55 C 315.66 112.60 319.57 105.83 315.96 104.87 C 308.10 107.10 300.80 111.03 292.96 113.33 C 290.54 112.47 289.47 109.60 287.05 108.70 C 282.31 111.26 277.17 112.91 272.03 114.48 C 269.74 113.79 268.08 111.41 268.49 109.00 C 269.62 103.82 275.51 101.10 276.46 95.88 C 273.25 95.29 269.87 96.20 267.61 98.59 C 263.18 103.23 257.79 106.75 253.04 111.02 C 251.25 112.47 249.37 114.13 247.00 114.43 C 244.53 114.75 242.65 112.28 242.63 110.01 C 242.67 107.72 243.41 105.54 243.78 103.30 C 241.52 102.12 239.02 101.24 236.44 101.28 C 232.21 107.34 228.71 114.29 222.61 118.75 C 219.44 121.25 215.77 117.33 216.71 114.02 C 217.80 109.61 219.61 105.41 221.02 101.09 C 222.38 97.50 223.37 93.68 225.57 90.49 C 226.56 88.99 228.12 90.56 229.24 90.98 C 226.79 97.00 224.38 103.04 221.89 109.04 C 221.71 110.56 222.39 111.23 223.93 111.06 C 228.20 106.99 231.41 101.97 234.11 96.77 C 237.73 95.46 241.21 98.86 244.87 98.29 C 248.28 95.22 249.88 90.20 254.29 88.14 C 256.84 86.83 259.56 90.15 258.54 92.58 C 257.42 97.23 253.64 100.37 249.69 102.66 C 247.58 103.65 247.46 105.97 248.07 107.94 C 256.21 104.30 263.22 98.50 269.18 91.93 C 273.09 91.16 277.25 92.05 281.19 91.00 C 283.50 90.16 286.57 92.28 285.89 94.83 C 283.22 99.57 277.67 102.12 275.75 107.38 C 280.49 107.41 284.68 104.91 288.76 102.81 C 291.08 101.82 292.24 99.49 293.46 97.44 C 298.34 88.89 304.25 80.99 309.97 72.99 C 312.09 70.13 314.42 67.31 317.38 65.27 M 309.83 81.85 C 307.89 84.29 305.46 86.73 305.00 89.95 C 311.00 88.68 314.20 82.52 315.04 76.95 C 312.48 77.50 311.50 80.15 309.83 81.85 M 354.36 92.42 C 352.56 94.70 350.15 97.91 351.00 100.80 C 354.33 100.72 356.42 97.07 356.78 94.08 C 357.08 92.75 355.51 91.68 354.36 92.42 M 322.10 107.10 C 325.89 107.69 327.12 102.81 326.07 99.97 C 322.83 100.47 322.67 104.53 322.10 107.10 Z" />
</g>
</svg>
