<?xml version="1.0" encoding="UTF-8" ?>
<!DOCTYPE svg PUBLIC "-//W3C//DTD SVG 1.1//EN" "http://www.w3.org/Graphics/SVG/1.1/DTD/svg11.dtd">
<svg width="256pt" height="256pt" viewBox="0 0 256 256" version="1.1" xmlns="http://www.w3.org/2000/svg">
<g id="#ffffffff">
<path fill="#ffffff" opacity="1.00" d=" M 174.10 9.08 C 175.35 9.29 176.81 9.19 177.74 10.24 C 181.74 14.11 185.09 18.83 186.61 24.24 C 188.14 29.02 187.80 34.09 188.64 38.97 C 190.24 36.67 191.58 34.19 193.22 31.90 C 195.93 32.82 198.40 34.30 200.26 36.51 C 202.58 34.14 203.46 30.88 204.61 27.86 C 203.96 26.48 201.59 25.28 202.73 23.60 C 205.91 22.43 210.01 25.34 208.96 28.82 C 207.73 32.85 206.55 37.45 203.25 40.29 C 199.98 42.45 197.19 38.77 194.89 36.94 C 191.36 41.82 190.66 47.83 188.91 53.41 C 187.40 53.50 185.88 53.49 184.37 53.48 C 181.97 59.07 179.75 65.98 173.66 68.50 C 169.91 68.80 168.66 64.14 166.28 62.02 C 163.78 66.24 160.10 70.13 158.98 74.94 C 160.93 79.06 160.84 83.65 158.03 87.38 C 152.99 84.26 153.52 77.48 150.29 73.09 C 146.64 77.65 142.07 81.68 139.60 87.07 C 140.28 90.22 143.29 92.51 143.20 95.93 C 143.24 99.02 143.36 103.06 140.11 104.64 C 136.89 102.34 136.37 97.97 133.39 95.60 C 131.36 102.71 129.12 109.87 125.24 116.22 C 124.15 118.01 121.73 120.49 119.90 118.10 C 115.12 112.80 114.57 105.28 112.76 98.68 C 110.27 99.98 108.63 102.48 106.03 103.60 C 104.94 102.93 104.01 102.07 103.23 101.02 C 104.75 96.82 109.32 94.84 110.79 90.64 C 110.25 81.26 106.75 72.43 103.45 63.76 C 106.97 64.27 107.97 67.98 109.34 70.69 C 111.81 75.69 111.95 81.41 114.15 86.50 C 119.08 80.91 122.97 74.45 127.84 68.83 C 129.45 67.14 131.34 68.76 132.62 69.95 C 127.58 78.78 120.18 86.14 115.38 95.10 C 116.44 101.58 118.29 107.99 120.87 114.04 C 122.27 112.29 123.60 110.46 124.53 108.42 C 127.81 101.19 130.46 93.63 131.75 85.77 C 133.93 85.20 136.49 84.87 137.84 82.82 C 141.94 76.97 145.72 70.74 151.10 65.95 C 153.68 65.79 154.63 68.64 156.04 70.26 C 159.31 66.34 162.45 62.21 164.44 57.47 C 165.16 54.81 164.48 51.89 162.88 49.66 C 158.57 52.26 156.47 57.29 152.00 59.71 C 151.04 58.62 149.42 57.69 149.63 56.01 C 152.67 51.00 158.19 47.95 161.04 42.84 C 161.47 37.57 158.84 32.47 159.10 27.14 C 160.34 27.43 161.76 27.36 162.83 28.15 C 164.32 30.76 164.93 33.76 166.15 36.50 C 168.01 35.26 169.41 33.52 170.95 31.94 C 172.57 30.09 176.97 32.39 175.15 34.76 C 173.51 38.28 169.35 40.16 168.36 43.95 C 168.92 50.54 167.86 57.90 172.22 63.49 C 175.90 61.71 177.43 57.67 179.22 54.28 C 180.45 51.51 182.26 48.91 182.74 45.88 C 182.83 41.97 181.06 38.35 180.21 34.61 C 178.02 26.14 175.38 17.74 174.10 9.08 M 180.56 19.13 C 181.29 23.94 182.29 28.88 184.59 33.21 C 184.93 28.31 184.12 22.79 180.56 19.13 M 153.27 72.19 C 154.01 74.51 155.31 76.63 155.76 79.04 C 156.11 80.60 156.35 82.74 158.44 82.83 C 157.66 79.10 157.27 73.84 153.27 72.19 M 134.91 89.15 C 136.88 92.51 137.03 96.92 140.26 99.47 C 140.07 96.02 138.84 92.78 137.38 89.69 C 136.77 89.56 135.53 89.29 134.91 89.15 Z" />
<path fill="#ffffff" opacity="1.00" d=" M 223.22 51.01 C 227.54 50.67 230.11 54.61 232.15 57.79 C 234.58 62.79 236.17 68.35 235.94 73.95 C 235.84 78.71 236.44 83.44 236.83 88.18 C 239.20 84.95 239.62 79.47 244.03 78.34 C 249.11 79.71 250.73 85.59 253.37 89.55 C 254.97 91.62 251.44 94.29 249.72 92.36 C 247.44 89.83 246.03 86.66 243.95 83.98 C 240.26 88.66 241.20 95.26 241.17 100.88 C 240.62 101.12 239.52 101.60 238.96 101.84 C 237.81 101.16 236.66 100.48 235.49 99.84 C 234.01 106.80 232.67 113.96 229.13 120.23 C 227.66 122.78 225.18 125.23 222.05 125.26 C 220.00 124.59 218.41 123.06 216.72 121.79 C 215.36 125.01 215.00 128.96 212.40 131.46 C 209.01 133.24 206.39 129.25 203.83 127.66 C 202.49 127.84 201.96 128.62 202.24 130.00 C 202.45 135.20 201.34 140.35 200.34 145.42 C 198.54 148.48 195.10 145.35 193.02 144.27 C 191.78 150.52 190.85 157.08 187.43 162.58 C 185.46 164.62 182.38 162.70 179.97 162.74 C 177.67 169.19 177.21 176.97 171.50 181.60 C 170.37 182.72 168.81 182.11 167.63 181.46 C 163.85 179.09 161.39 175.03 160.30 170.77 C 159.69 169.00 159.58 166.79 157.80 165.73 C 157.38 168.85 156.39 171.85 155.84 174.94 C 156.15 177.79 158.55 180.03 158.59 182.98 C 158.75 186.71 157.75 191.49 153.85 192.99 C 150.64 193.26 149.06 189.67 148.84 186.99 C 148.81 183.63 149.70 180.34 150.11 177.01 C 148.10 176.08 145.62 174.96 143.58 176.49 C 141.57 178.67 141.75 181.93 140.53 184.51 C 138.50 186.50 135.47 183.40 136.43 181.07 C 137.98 172.68 137.37 163.94 135.03 155.75 C 134.08 157.38 133.21 159.10 132.96 161.00 C 131.29 175.79 136.65 189.99 139.38 204.29 C 137.17 204.96 135.15 203.67 134.33 201.64 C 130.01 192.66 127.11 183.07 123.06 173.98 C 121.95 171.66 121.40 168.96 119.49 167.13 C 120.24 175.62 121.94 183.99 123.82 192.30 C 125.92 206.86 126.04 222.33 120.12 236.07 C 118.63 240.03 115.10 243.34 110.73 243.58 C 106.85 244.25 103.67 241.39 101.01 238.98 C 97.58 236.00 97.17 231.25 95.72 227.22 C 94.47 220.74 93.45 212.77 98.74 207.73 C 101.37 204.57 106.66 204.50 109.31 207.66 C 112.90 212.18 113.57 218.13 115.83 223.30 C 114.83 223.40 113.58 224.31 112.72 223.39 C 108.39 219.96 109.14 213.38 105.55 209.43 C 102.36 208.69 100.12 212.53 99.48 215.21 C 98.39 223.27 99.87 232.29 105.48 238.49 C 108.50 241.93 113.96 239.02 115.57 235.54 C 119.85 225.65 122.63 214.85 122.05 204.00 C 122.23 199.15 122.18 194.25 120.58 189.60 C 120.25 182.64 117.95 176.02 117.10 169.13 C 116.64 164.02 114.76 159.23 112.03 154.93 C 113.49 154.43 115.11 153.09 116.53 154.45 C 123.20 159.15 124.15 168.10 128.52 174.44 C 128.40 166.65 127.76 158.14 132.35 151.36 C 133.71 149.09 136.59 150.70 137.70 152.37 C 141.88 157.91 141.41 165.17 142.05 171.71 C 145.39 171.36 148.76 171.47 152.05 172.23 C 153.17 168.91 153.57 165.31 155.20 162.19 C 156.59 159.79 161.19 158.11 162.40 161.53 C 164.18 166.82 164.43 173.01 168.99 176.93 C 173.04 172.58 174.77 166.60 175.64 160.85 C 176.31 156.22 172.60 152.53 172.49 148.01 C 172.42 145.15 171.92 141.41 174.68 139.59 C 178.45 137.06 183.70 140.72 183.54 144.99 C 183.67 148.90 180.88 152.13 180.56 155.96 C 180.89 157.57 182.43 157.99 183.78 158.47 C 186.01 153.57 187.76 148.44 188.37 143.08 C 188.68 139.59 191.30 136.63 190.83 133.04 C 190.52 127.50 189.75 121.10 193.45 116.45 C 196.03 113.78 199.89 115.78 202.01 117.99 C 204.93 120.27 205.42 124.79 209.05 126.22 C 211.65 125.66 212.04 122.21 213.10 120.14 C 215.23 115.39 211.63 110.80 212.02 106.00 C 212.26 102.27 213.15 98.40 215.29 95.29 C 217.79 92.94 221.33 94.66 222.97 97.14 C 221.53 97.99 219.47 98.06 218.43 99.46 C 216.39 103.55 216.19 108.42 217.41 112.79 C 218.22 115.77 219.72 118.89 222.72 120.18 C 228.47 113.09 230.12 103.74 231.78 95.01 C 232.76 90.99 231.34 86.97 229.62 83.38 C 226.68 77.44 226.08 70.77 224.46 64.43 C 223.55 60.03 221.75 55.50 223.22 51.01 M 228.97 61.33 C 228.93 64.90 229.05 69.15 232.01 71.65 C 231.85 68.07 231.67 64.03 228.97 61.33 M 195.23 124.01 C 195.42 128.42 194.88 132.94 196.00 137.26 C 198.65 131.86 199.10 125.28 196.96 119.63 C 196.14 120.98 194.99 122.31 195.23 124.01 M 175.90 142.67 C 176.46 146.28 177.34 149.86 178.48 153.33 C 179.06 150.61 179.74 147.82 179.42 145.01 C 179.21 143.18 177.37 142.89 175.90 142.67 Z" />
<path fill="#ffffff" opacity="1.00" d=" M 81.90 103.96 C 85.16 103.72 88.08 105.73 89.25 108.73 C 91.52 114.24 94.01 119.68 95.85 125.36 C 97.56 123.91 99.50 121.61 102.00 122.75 C 108.82 124.07 113.04 132.48 109.55 138.60 C 107.72 142.03 103.29 141.64 100.04 142.43 C 100.37 146.18 101.56 149.78 102.42 153.44 C 103.59 158.11 104.42 162.92 106.61 167.26 C 107.66 169.31 104.48 171.77 102.70 170.32 C 100.73 168.70 100.12 166.05 99.19 163.78 C 97.52 159.51 96.36 155.07 94.98 150.70 C 93.09 153.73 93.09 157.84 90.24 160.26 C 87.94 162.49 84.75 160.68 82.08 160.42 C 81.77 164.35 81.95 169.80 77.56 171.58 C 73.73 172.31 71.96 167.73 71.09 164.78 C 68.11 159.41 68.72 153.05 69.06 147.16 C 69.32 144.65 72.72 144.35 74.53 145.38 C 76.56 146.69 78.14 148.60 80.27 149.79 C 82.88 150.95 83.63 153.93 85.30 156.03 C 88.34 153.36 89.16 149.20 90.39 145.53 C 91.57 141.51 92.91 137.25 91.73 133.05 C 89.69 124.45 87.28 115.81 82.99 108.03 C 82.22 106.80 82.12 105.34 81.90 103.96 M 102.11 127.63 C 99.87 130.67 99.62 134.50 100.21 138.11 C 102.33 137.42 104.72 136.32 105.21 133.88 C 106.17 131.29 104.43 128.70 102.11 127.63 M 73.99 149.64 C 73.49 153.65 72.18 159.30 75.61 162.23 C 76.10 158.98 76.76 155.71 76.54 152.42 C 76.46 150.94 75.10 150.30 73.99 149.64 Z" />
<path fill="#ffffff" opacity="1.00" d=" M 14.52 143.50 C 16.93 141.13 20.69 140.17 23.93 141.15 C 32.01 143.34 38.93 149.74 41.34 157.82 C 44.95 168.37 42.58 179.95 37.74 189.70 C 37.07 191.09 35.65 191.98 34.12 192.07 C 32.25 191.21 31.09 189.42 29.61 188.09 C 28.52 191.97 28.63 196.04 27.97 200.00 C 27.54 204.05 26.42 208.05 26.57 212.15 C 32.13 213.70 36.36 209.32 40.75 206.76 C 45.08 202.66 49.05 197.96 51.51 192.48 C 52.99 189.24 55.98 186.69 56.42 183.00 C 57.22 176.23 52.99 170.21 52.49 163.63 C 54.57 163.70 56.92 163.95 58.17 165.86 C 61.51 171.32 59.85 178.60 63.86 183.77 C 65.00 180.59 64.53 176.61 67.28 174.19 C 69.30 173.30 70.05 176.14 69.82 177.65 C 68.95 182.62 67.86 187.55 66.54 192.43 C 66.03 194.10 66.18 195.89 66.67 197.55 C 68.87 205.34 71.35 213.07 73.30 220.93 C 73.77 222.90 71.15 222.99 69.97 223.65 C 65.57 219.15 60.77 214.88 57.29 209.59 C 53.60 202.03 63.00 194.21 57.97 186.86 C 55.89 189.46 55.23 192.81 53.79 195.75 C 50.84 203.15 45.36 209.42 38.73 213.75 C 35.03 216.21 30.53 216.42 26.28 216.96 C 24.79 218.94 25.39 221.70 24.88 224.01 C 24.85 227.68 22.72 232.12 25.88 235.06 C 24.15 239.65 24.21 244.77 22.01 249.19 C 20.72 246.70 18.94 244.01 19.74 241.07 C 20.48 236.96 19.96 232.73 20.95 228.66 C 21.60 226.27 21.29 223.81 21.32 221.38 C 21.65 219.55 23.66 217.07 21.42 215.73 C 17.03 212.45 12.21 209.46 9.28 204.68 C 1.07 191.42 0.26 174.39 5.90 159.99 C 7.44 153.92 10.12 148.04 14.52 143.50 M 17.81 145.79 C 12.85 149.81 11.02 156.20 9.02 162.00 C 5.35 171.96 4.93 183.24 8.64 193.25 C 10.97 200.28 15.31 206.96 22.12 210.33 C 24.21 204.45 25.01 198.23 24.97 192.02 C 25.73 186.99 26.11 181.90 25.18 176.86 C 24.72 174.45 28.91 174.47 29.59 176.39 C 30.89 179.59 31.64 183.10 33.97 185.79 C 34.91 184.61 36.03 183.48 36.20 181.91 C 36.89 178.18 39.25 174.92 39.29 171.05 C 39.79 162.77 37.93 153.36 31.00 148.04 C 27.42 145.23 21.98 142.67 17.81 145.79 M 62.10 201.64 C 60.24 206.28 61.57 212.14 66.31 214.45 C 65.58 210.00 64.33 205.58 62.10 201.64 Z" />
</g>
</svg>
