<?xml version="1.0" encoding="UTF-8" ?>
<!DOCTYPE svg PUBLIC "-//W3C//DTD SVG 1.1//EN" "http://www.w3.org/Graphics/SVG/1.1/DTD/svg11.dtd">
<svg width="256pt" height="256pt" viewBox="0 0 256 256" version="1.1" xmlns="http://www.w3.org/2000/svg">
<g id="#ffffffff">
<path fill="#ffffff" opacity="1.00" d=" M 50.78 10.31 C 50.07 7.30 49.24 2.29 53.27 1.35 C 63.05 1.43 71.34 7.52 78.82 13.17 C 85.80 20.08 91.17 28.80 93.47 38.40 C 94.55 42.43 94.65 46.63 95.27 50.73 C 109.69 49.92 124.03 47.90 138.20 45.12 C 140.23 44.55 142.40 42.71 144.14 44.91 C 138.55 47.75 133.26 51.27 127.25 53.20 C 123.14 54.81 119.11 56.61 115.12 58.50 C 118.05 59.12 120.94 60.27 123.98 60.18 C 127.58 59.66 131.09 58.51 134.73 58.27 C 135.32 58.69 136.50 59.54 137.08 59.97 C 134.49 63.64 129.88 61.87 126.26 63.18 C 117.80 66.58 109.09 69.35 100.54 72.54 C 96.29 73.55 92.34 75.55 88.94 78.30 C 93.63 81.18 99.57 80.47 104.80 79.89 C 107.10 79.66 108.29 76.22 110.81 77.24 C 112.29 79.31 109.87 81.21 109.24 83.15 C 111.55 85.50 114.52 87.60 117.87 87.85 C 121.30 86.88 125.00 84.72 128.57 86.38 C 131.27 87.13 131.72 92.13 128.58 92.54 C 124.17 93.97 119.41 90.81 115.24 93.26 C 112.39 94.28 111.44 97.35 110.88 100.02 C 119.55 103.93 129.01 100.96 137.91 99.75 C 140.36 102.59 143.61 104.54 146.23 107.19 C 140.98 111.46 133.46 112.06 128.68 116.92 C 134.25 119.01 140.19 119.73 145.99 120.84 C 151.44 121.41 156.44 124.28 162.03 123.88 C 163.58 121.09 164.71 118.08 166.35 115.34 C 170.42 109.19 176.24 104.38 182.56 100.69 C 188.72 97.69 194.75 92.86 202.04 93.92 C 204.90 94.47 209.20 94.64 209.83 98.22 C 211.36 102.02 210.78 106.35 208.88 109.90 C 207.04 112.77 203.90 114.29 201.15 116.13 C 194.93 120.29 188.04 123.30 181.13 126.13 C 176.85 128.05 171.68 128.18 168.16 131.60 C 169.72 132.86 171.14 134.65 173.29 134.82 C 176.14 135.02 179.03 133.99 181.87 134.67 C 184.65 135.69 185.36 138.89 185.68 141.50 C 181.52 142.19 177.80 140.22 173.98 139.01 C 170.93 139.96 168.25 142.15 166.61 144.90 C 171.24 146.61 176.01 148.34 180.99 148.47 C 184.59 147.34 188.06 145.36 191.96 145.48 C 194.51 145.79 194.76 148.56 194.95 150.58 C 190.05 153.40 183.28 149.11 179.39 153.97 C 182.99 155.38 186.88 154.77 190.62 155.39 C 194.19 156.00 197.83 155.90 201.41 156.47 C 202.19 160.53 197.63 161.69 194.88 163.17 C 198.98 164.76 204.28 164.44 207.24 168.18 C 207.55 171.95 204.06 174.38 202.21 177.24 C 206.45 181.06 212.47 182.18 218.01 182.50 C 223.42 182.61 229.64 182.53 233.69 178.34 C 233.10 176.75 232.50 175.18 231.95 173.59 C 233.76 174.65 236.97 175.26 236.58 177.99 C 236.66 182.29 232.04 183.56 228.76 184.64 C 219.72 187.40 210.07 185.29 201.79 181.26 C 200.50 180.29 199.52 178.74 199.73 177.07 C 200.76 174.16 202.82 171.77 204.34 169.11 C 201.05 167.81 197.60 166.78 194.02 166.91 C 191.69 166.64 188.34 167.72 187.21 164.93 C 188.91 162.03 192.66 161.48 195.15 159.43 C 188.69 157.99 181.81 158.72 175.58 156.25 C 175.62 154.58 175.78 152.92 175.78 151.26 C 172.45 148.32 166.20 150.31 163.62 146.30 C 162.09 141.86 167.13 139.26 169.52 136.37 C 167.39 134.70 165.26 133.02 163.14 131.34 C 157.81 132.78 152.12 133.54 146.68 132.20 C 145.17 131.88 143.67 130.82 143.86 129.10 C 145.83 127.31 148.28 126.19 150.52 124.81 C 143.39 122.39 135.79 121.68 128.39 120.52 C 125.68 119.97 123.98 116.33 126.38 114.38 C 130.68 110.92 136.00 109.09 140.70 106.26 C 138.95 105.09 137.49 102.42 135.06 103.11 C 128.53 104.62 121.76 106.11 115.06 104.73 C 112.01 104.28 107.90 102.65 108.10 98.93 C 107.83 94.92 111.53 92.72 113.85 90.09 C 111.01 87.93 107.87 86.01 106.00 82.87 C 98.98 84.45 90.64 84.04 84.97 79.13 C 86.22 76.48 88.32 74.16 91.13 73.16 C 96.94 71.11 102.38 68.08 108.32 66.37 C 112.59 65.35 116.75 63.85 120.66 61.85 C 116.80 60.37 112.51 59.58 108.42 60.52 C 105.76 61.24 103.39 62.68 100.93 63.86 C 97.49 65.74 93.54 66.31 90.01 68.01 C 85.55 69.78 81.60 72.58 77.24 74.56 C 80.03 78.18 83.77 81.20 85.43 85.58 C 87.87 90.79 91.18 95.97 91.16 101.93 C 90.78 106.25 87.77 110.85 83.18 111.40 C 77.24 112.54 70.56 112.16 65.54 108.48 C 61.98 105.43 58.55 101.73 57.75 96.93 C 57.21 95.28 58.81 93.92 59.37 92.50 C 61.75 94.21 62.91 96.86 62.16 99.74 C 64.61 104.54 69.70 107.55 74.97 108.18 C 79.15 108.83 84.35 108.88 87.25 105.27 C 89.48 100.52 87.18 95.14 85.37 90.61 C 83.30 84.57 78.32 80.33 74.75 75.23 C 73.13 72.85 70.66 71.32 68.65 69.32 C 65.81 66.83 63.50 63.73 60.23 61.78 C 56.14 59.19 52.76 55.62 48.47 53.34 C 45.65 52.35 42.38 52.18 40.22 49.84 C 34.45 43.52 26.07 40.64 17.93 38.84 C 15.53 38.39 12.55 39.09 11.54 41.56 C 10.84 45.91 12.99 50.12 15.40 53.59 C 21.16 61.77 28.91 68.31 37.04 74.03 C 38.67 75.01 38.89 76.81 38.32 78.49 C 36.73 77.54 35.18 76.48 33.87 75.17 C 31.00 72.30 27.20 70.58 24.49 67.53 C 21.07 63.64 16.72 60.55 14.09 55.99 C 12.23 52.64 10.09 49.39 9.08 45.65 C 6.91 40.84 12.02 35.21 17.01 36.05 C 22.47 36.00 27.12 39.13 32.03 41.03 C 33.94 41.76 35.62 42.93 37.33 44.02 C 39.69 39.21 44.43 36.42 48.95 33.92 C 53.00 31.73 57.85 31.82 61.83 29.44 C 57.25 23.66 53.09 17.36 50.78 10.31 M 53.76 3.22 C 53.27 5.24 52.83 7.36 53.46 9.41 C 55.72 16.81 59.85 23.53 64.94 29.32 C 71.41 28.80 79.10 26.90 84.61 31.41 C 86.80 32.83 88.43 35.31 88.42 37.97 C 87.64 41.20 84.58 42.84 82.18 44.75 C 85.35 46.95 88.67 48.98 92.33 50.26 C 93.03 38.61 88.24 27.06 80.96 18.12 C 76.47 13.38 70.80 10.11 65.34 6.65 C 61.91 4.38 57.73 3.84 53.76 3.22 M 66.19 31.03 C 70.12 35.40 74.39 39.54 79.47 42.55 C 82.55 43.67 84.93 40.08 86.44 37.89 C 86.51 35.23 84.62 32.74 82.18 31.80 C 77.12 29.67 71.48 30.20 66.19 31.03 M 57.56 32.65 C 50.62 34.77 42.44 37.64 39.54 44.97 C 44.20 47.49 48.13 52.37 53.90 51.89 C 65.45 51.72 77.06 52.03 88.56 50.94 C 84.56 49.30 81.17 44.21 76.44 46.40 C 72.94 47.53 69.15 48.14 65.57 46.99 C 66.59 44.95 68.20 43.33 70.20 42.25 C 69.56 43.52 68.86 44.76 68.17 46.01 C 71.32 45.56 74.54 45.48 77.57 44.41 C 73.27 40.70 68.56 37.43 64.90 33.04 C 63.18 30.71 59.88 32.20 57.56 32.65 M 97.61 52.39 C 100.61 54.29 103.93 55.62 107.28 56.76 C 110.57 57.94 113.70 55.81 116.65 54.65 C 121.26 52.22 126.67 51.56 130.95 48.48 C 119.81 49.58 108.75 51.39 97.61 52.39 M 54.10 53.52 C 56.31 56.43 58.78 59.21 62.04 60.99 C 67.25 63.96 71.36 68.40 75.63 72.54 C 79.20 70.16 82.80 67.81 86.20 65.18 C 89.60 61.87 91.19 57.17 92.22 52.65 C 79.52 52.91 66.81 53.64 54.10 53.52 M 94.91 53.61 C 94.02 57.62 92.32 61.35 90.61 65.05 C 95.56 62.86 100.90 61.43 105.43 58.35 C 101.95 56.71 98.51 54.97 94.91 53.61 M 184.20 103.19 C 180.68 106.01 176.51 108.11 173.74 111.78 C 170.49 115.69 166.77 119.67 165.68 124.81 C 167.29 125.62 168.97 127.14 170.86 126.13 C 176.67 124.17 182.38 121.92 188.27 120.19 C 193.08 117.79 197.87 115.26 202.41 112.38 C 205.24 109.55 210.04 106.80 208.84 102.11 C 208.61 99.09 205.88 97.13 203.03 96.95 C 196.05 95.40 189.71 99.49 184.20 103.19 M 150.34 128.83 C 153.17 129.10 156.02 128.95 158.85 128.77 C 158.81 128.35 158.72 127.51 158.68 127.10 C 155.80 127.03 152.88 127.36 150.34 128.83 Z" />
<path fill="#ffffff" opacity="1.00" d=" M 55.39 79.37 C 56.48 78.39 57.93 78.07 59.29 77.66 C 59.00 79.58 58.26 81.49 56.37 82.34 C 48.65 86.93 40.63 91.18 32.10 94.06 C 30.12 94.81 27.98 94.94 25.88 94.94 C 25.28 90.78 26.23 86.53 27.21 82.53 C 27.70 82.27 28.69 81.76 29.19 81.50 C 29.72 85.08 28.72 88.60 28.50 92.15 C 33.91 90.80 38.93 88.27 43.94 85.88 C 47.73 83.64 52.09 82.38 55.39 79.37 Z" />
<path fill="#ffffff" opacity="1.00" d=" M 91.71 115.47 C 93.00 113.46 94.33 111.09 96.95 110.75 C 97.43 114.02 94.23 114.91 91.71 115.47 Z" />
<path fill="#ffffff" opacity="1.00" d=" M 71.79 123.88 C 75.40 123.32 78.13 119.34 82.02 120.96 C 82.10 121.44 82.26 122.40 82.34 122.88 C 76.36 126.66 69.22 128.07 62.65 130.54 C 63.13 125.98 68.35 125.29 71.79 123.88 Z" />
<path fill="#ffffff" opacity="1.00" d=" M 118.01 125.95 C 119.98 124.12 123.12 124.06 125.18 125.77 C 140.02 136.40 152.31 150.00 165.60 162.41 C 169.42 166.29 174.11 169.18 177.95 173.05 C 179.76 174.88 182.60 174.54 184.90 175.29 C 184.74 177.08 184.48 178.87 184.13 180.64 C 179.83 180.15 177.21 176.39 173.77 174.22 C 169.65 171.39 166.72 167.21 162.64 164.34 C 159.94 162.27 157.62 159.77 155.15 157.46 C 151.86 159.78 148.54 162.09 144.97 163.96 C 142.18 165.12 139.12 165.55 136.39 166.93 C 140.88 171.49 147.02 174.12 153.15 175.68 C 152.61 176.91 152.52 178.66 150.95 179.02 C 146.03 180.85 141.15 183.82 135.72 183.29 C 137.66 179.87 141.78 179.23 144.99 177.55 C 145.30 175.72 143.16 175.67 142.00 175.02 C 138.97 173.99 136.53 171.88 134.10 169.87 C 132.56 168.55 130.34 168.73 128.62 169.58 C 123.68 171.82 118.33 173.01 113.02 174.01 C 110.39 174.18 109.68 170.94 108.98 168.99 C 107.77 165.74 106.47 160.98 110.66 159.32 C 110.80 163.06 111.43 166.78 112.98 170.22 C 118.18 169.25 123.40 168.08 128.23 165.88 C 125.81 162.98 123.09 160.37 120.09 158.08 C 120.56 157.34 121.50 155.86 121.96 155.12 C 125.90 158.02 129.24 161.63 132.97 164.77 C 136.90 163.01 141.08 161.83 144.97 159.97 C 146.68 159.31 147.10 157.36 148.13 156.04 C 149.39 155.14 150.95 154.81 152.35 154.21 C 150.16 152.56 148.22 150.63 146.64 148.39 C 144.12 144.87 140.00 143.05 137.10 139.91 C 133.09 135.46 128.14 131.80 122.78 129.17 C 119.31 127.76 117.77 132.05 118.12 134.77 C 118.74 141.13 123.95 145.68 128.72 149.29 C 131.63 151.51 137.09 150.86 137.85 155.21 C 133.84 154.79 129.42 154.60 126.20 151.83 C 121.76 148.09 117.45 143.60 115.63 137.97 C 115.66 133.98 114.04 128.60 118.01 125.95 Z" />
<path fill="#ffffff" opacity="1.00" d=" M 85.73 131.88 C 92.44 130.98 100.03 129.78 105.67 134.51 C 105.71 137.01 106.49 140.39 103.97 141.97 C 100.02 144.63 95.46 146.29 91.62 149.16 C 93.05 149.69 94.47 150.22 95.90 150.75 C 95.73 151.54 95.40 153.12 95.23 153.91 C 89.12 153.70 82.66 153.17 76.98 155.92 C 72.48 158.24 67.55 159.42 62.77 160.98 C 60.03 161.82 55.97 161.92 54.65 158.80 C 54.05 155.98 56.49 153.87 58.58 152.47 C 66.26 148.41 75.22 150.16 83.47 149.33 C 88.42 146.49 93.89 144.43 98.40 140.91 C 91.34 140.50 84.22 141.73 77.19 140.88 C 74.15 140.77 73.68 136.54 76.06 135.12 C 79.07 133.55 82.48 132.83 85.73 131.88 M 79.23 137.11 C 87.22 137.61 95.30 137.99 103.28 137.13 C 101.77 135.76 100.09 134.35 97.94 134.33 C 91.67 133.84 84.85 133.97 79.23 137.11 M 58.62 157.51 C 62.68 157.35 66.66 156.12 70.12 154.01 C 66.09 154.03 61.23 153.76 58.62 157.51 Z" />
<path fill="#ffffff" opacity="1.00" d=" M 140.27 190.30 C 146.47 186.94 153.76 184.91 160.80 186.27 C 163.31 187.05 166.88 187.96 167.18 191.09 C 167.61 192.58 167.07 194.10 166.82 195.57 C 162.17 197.92 155.30 195.05 152.42 200.58 C 159.55 202.31 166.67 199.41 173.07 196.51 C 176.04 197.48 177.37 200.59 178.68 203.15 C 175.83 206.64 170.84 206.64 167.47 209.50 C 171.75 210.32 176.09 210.77 180.33 211.77 C 183.61 212.63 187.54 212.13 190.00 214.91 C 188.30 216.77 186.42 218.44 184.62 220.20 C 188.21 221.23 191.94 221.67 195.57 222.56 C 195.65 223.59 195.72 224.62 195.79 225.65 C 193.95 226.79 192.06 227.86 190.35 229.19 C 194.75 230.20 199.07 231.48 203.29 233.10 C 203.40 233.88 203.63 235.42 203.74 236.19 C 200.59 237.95 197.44 239.93 195.66 243.20 C 202.19 248.40 211.51 248.86 219.39 247.15 C 219.49 245.37 219.51 243.59 219.52 241.81 C 220.16 241.94 221.43 242.18 222.07 242.30 C 222.64 244.15 223.62 246.33 222.09 248.02 C 218.93 251.52 213.74 253.17 209.12 252.29 C 203.75 250.87 198.33 249.34 193.50 246.52 C 191.66 245.33 191.86 242.69 193.10 241.13 C 194.78 238.97 197.06 237.38 198.77 235.24 C 193.03 232.12 186.44 233.09 180.21 233.21 C 180.46 231.92 180.07 230.14 181.62 229.55 C 184.38 227.88 187.43 226.74 190.18 225.04 C 185.44 223.79 180.45 224.02 175.82 225.57 C 173.90 226.67 171.81 224.11 173.52 222.59 C 176.32 220.08 179.86 218.56 182.76 216.17 C 176.44 213.92 169.63 214.16 163.05 213.32 C 161.34 213.34 160.12 212.16 158.90 211.15 C 161.83 205.26 170.16 206.23 173.18 200.70 C 169.84 201.54 166.96 203.63 163.58 204.32 C 157.95 205.54 151.87 206.21 146.45 203.78 C 145.97 200.04 149.12 197.78 151.49 195.48 C 147.55 194.94 143.44 195.62 139.66 194.15 C 138.03 193.21 138.62 190.83 140.27 190.30 M 146.42 191.38 C 151.85 191.93 157.35 192.11 162.79 191.68 C 158.04 188.34 151.44 188.98 146.42 191.38 Z" />
</g>
</svg>
