<?xml version="1.0" encoding="UTF-8" ?>
<!DOCTYPE svg PUBLIC "-//W3C//DTD SVG 1.1//EN" "http://www.w3.org/Graphics/SVG/1.1/DTD/svg11.dtd">
<svg width="512pt" height="128pt" viewBox="0 0 512 128" version="1.1" xmlns="http://www.w3.org/2000/svg">
<g id="#ffffffff">
<path fill="#ffffff" opacity="1.00" d=" M 287.05 21.52 C 290.27 21.67 293.44 20.21 296.65 21.08 C 304.33 22.75 312.57 22.54 319.62 26.41 C 324.98 28.67 329.73 32.73 332.19 38.04 C 332.62 42.57 333.09 48.03 329.49 51.48 C 327.02 53.75 324.21 55.60 321.46 57.50 C 315.24 61.67 307.51 63.12 300.13 62.79 C 297.15 62.78 294.00 57.49 297.96 56.45 C 299.68 57.13 300.16 59.80 302.25 59.68 C 311.26 59.73 320.05 55.66 326.36 49.33 C 329.23 46.35 330.29 41.56 328.17 37.87 C 325.26 32.97 320.05 30.00 314.81 28.18 C 303.34 24.22 291.00 24.08 279.03 24.85 C 270.15 25.98 260.70 26.12 252.75 30.74 C 249.70 32.47 246.39 35.14 246.43 38.98 C 246.84 44.10 251.52 47.30 255.85 49.14 C 264.11 53.29 273.61 52.18 282.48 51.57 C 281.67 52.99 280.63 54.59 278.80 54.62 C 268.29 55.67 256.73 54.55 248.12 47.88 C 244.35 45.00 241.85 39.56 244.09 35.03 C 247.29 30.34 252.37 27.12 257.80 25.61 C 267.29 22.88 277.16 21.36 287.05 21.52 Z" />
<path fill="#ffffff" opacity="1.00" d=" M 128.06 40.09 C 134.41 34.28 142.15 29.20 151.00 28.76 C 155.73 29.22 160.99 32.81 160.91 38.02 C 160.74 44.27 158.08 50.35 153.95 55.00 C 147.83 61.97 140.63 68.03 132.60 72.69 C 130.39 74.46 126.69 72.82 126.66 69.96 C 126.49 66.62 127.80 63.44 128.38 60.19 C 124.22 62.17 121.31 65.94 117.71 68.71 C 114.93 71.35 110.88 73.72 110.74 78.00 C 111.33 82.63 115.55 86.23 120.03 86.97 C 125.40 87.97 130.55 85.51 135.32 83.36 C 142.87 79.94 149.60 75.03 156.44 70.41 C 160.33 67.94 161.43 63.24 163.34 59.35 C 167.11 51.92 170.95 43.73 178.46 39.39 C 179.95 38.27 181.84 38.27 183.62 38.26 C 183.42 46.96 176.68 53.23 171.70 59.66 C 168.64 64.06 162.53 66.46 161.79 72.28 C 166.52 71.04 170.28 67.49 175.00 66.18 C 176.96 65.68 178.32 67.89 177.48 69.55 C 177.13 72.30 174.70 75.07 176.17 77.78 C 180.59 77.66 184.41 73.80 185.68 69.69 C 187.77 65.28 192.47 60.08 197.87 62.19 C 199.18 68.09 193.11 71.25 189.42 74.50 C 186.95 75.96 189.46 80.08 191.79 78.02 C 200.66 72.44 209.39 66.59 218.75 61.85 C 220.25 61.07 221.94 61.26 223.47 61.84 C 222.49 65.12 220.53 67.99 219.58 71.28 C 223.54 71.95 228.90 69.04 231.70 73.01 C 226.09 75.13 220.08 75.75 214.37 77.45 C 212.97 77.64 212.38 78.94 211.85 80.07 C 216.86 80.50 221.91 80.44 226.92 80.09 C 229.86 79.97 231.49 77.35 233.10 75.28 C 234.09 76.33 236.73 77.52 235.25 79.22 C 233.05 81.96 229.57 83.70 226.02 83.45 C 219.01 83.38 212.00 83.48 205.00 83.21 C 203.74 83.18 203.10 82.53 203.08 81.26 C 204.19 80.11 205.82 79.42 206.58 77.96 C 206.62 76.52 206.50 75.09 206.45 73.66 C 208.22 73.49 210.08 73.64 211.78 73.01 C 213.92 71.92 215.07 69.71 216.10 67.65 C 208.95 68.53 203.44 73.85 197.62 77.65 C 194.47 79.64 191.27 83.24 187.18 82.17 C 185.99 80.88 185.26 79.20 183.94 78.04 C 180.37 79.09 176.37 82.90 172.70 80.32 C 171.58 77.17 172.84 73.83 173.10 70.64 C 166.33 71.22 161.90 77.24 156.89 81.17 C 153.20 81.28 155.58 76.67 155.87 74.59 C 151.71 75.71 148.56 78.79 144.94 80.94 C 138.17 85.14 130.81 88.65 122.94 90.18 C 116.02 90.98 109.21 85.89 107.79 79.09 C 106.51 79.02 105.22 78.94 103.94 78.86 C 108.87 73.90 107.96 66.28 111.56 60.59 C 113.16 56.75 116.95 54.40 118.50 50.58 C 120.00 45.84 124.71 43.40 128.06 40.09 M 124.77 46.77 C 121.84 49.33 120.78 53.29 118.00 55.99 C 114.04 59.81 112.29 65.17 110.99 70.37 C 111.47 70.31 112.42 70.19 112.90 70.13 C 118.64 65.17 124.61 60.34 129.47 54.47 C 131.22 52.59 132.15 49.66 134.91 49.01 C 134.13 55.66 130.10 61.44 128.96 68.00 C 128.75 70.01 131.20 71.56 132.76 70.05 C 138.95 65.97 145.04 61.57 150.02 56.04 C 154.15 51.18 158.13 45.54 158.59 38.98 C 158.33 32.58 150.40 30.10 145.18 32.09 C 137.32 35.24 130.82 40.97 124.77 46.77 M 167.83 59.23 C 171.31 58.20 172.72 54.47 175.12 52.08 C 176.83 49.69 179.99 47.24 179.11 43.97 L 178.13 43.64 C 173.33 47.63 169.32 53.09 167.83 59.23 M 190.15 70.00 C 192.30 69.38 193.59 67.51 194.34 65.51 C 191.88 65.59 190.42 67.76 190.15 70.00 Z" />
<path fill="#ffffff" opacity="1.00" d=" M 302.29 35.30 C 302.90 34.14 304.17 33.66 305.21 32.98 C 304.92 34.60 304.39 36.17 303.54 37.57 C 298.77 45.85 294.95 54.64 291.66 63.60 C 289.79 68.61 286.64 73.06 285.12 78.21 C 284.21 81.31 282.83 84.32 280.71 86.78 C 278.79 87.25 278.21 84.97 277.11 83.89 C 273.95 79.49 268.70 77.56 264.38 74.58 C 264.27 73.94 264.03 72.67 263.91 72.03 C 267.50 72.45 270.69 74.33 273.60 76.35 C 275.88 77.86 277.51 80.53 280.41 80.91 C 287.98 65.84 294.14 50.08 302.29 35.30 Z" />
<path fill="#ffffff" opacity="1.00" d=" M 377.39 49.19 C 378.33 47.60 380.90 49.49 380.41 51.04 C 380.67 54.22 377.23 57.38 379.01 60.33 C 383.60 59.76 388.24 59.75 392.86 59.99 C 394.60 60.87 394.58 62.94 393.98 64.53 C 388.43 65.44 382.80 65.27 377.21 65.53 C 375.43 65.44 374.02 66.73 373.15 68.14 C 370.52 72.25 368.83 76.85 367.05 81.36 C 370.96 82.61 374.61 79.56 376.16 76.19 C 377.53 73.27 379.79 70.72 383.07 70.02 C 385.21 69.03 387.52 71.74 386.84 73.78 C 384.49 77.54 380.25 79.58 377.62 83.06 C 377.78 83.48 378.10 84.31 378.27 84.73 C 385.30 84.56 391.46 79.94 395.49 74.45 C 397.62 71.70 398.78 68.32 401.04 65.66 C 404.58 65.81 408.94 65.82 411.68 68.43 C 412.40 70.43 411.05 72.34 409.69 73.66 C 406.97 76.45 403.93 79.66 404.00 83.83 C 409.85 84.30 417.15 84.20 421.04 79.03 C 423.16 76.05 424.66 72.57 425.37 68.98 C 425.92 66.90 423.71 65.63 422.89 63.99 C 423.65 62.47 425.95 60.67 427.45 62.38 C 428.57 65.58 429.28 69.42 427.56 72.54 C 425.75 76.01 424.76 80.08 421.74 82.76 C 418.06 86.36 412.80 87.31 407.98 88.44 C 404.14 89.11 398.55 86.92 399.32 82.22 C 400.34 77.88 403.74 74.66 405.98 70.94 C 404.28 69.90 401.51 69.48 400.84 71.93 C 398.71 77.06 394.64 80.97 390.59 84.61 C 387.54 87.31 383.46 89.01 379.35 88.76 C 376.67 88.58 374.77 86.47 372.94 84.76 C 369.83 85.85 366.67 88.01 363.27 86.89 C 361.55 81.16 365.76 76.21 367.16 70.93 C 367.86 69.20 366.65 67.13 364.95 66.55 C 360.96 66.46 356.94 68.30 353.01 67.13 C 352.28 63.98 356.08 63.14 358.38 62.62 C 361.65 61.52 365.17 62.30 368.47 61.52 C 372.93 58.71 374.46 53.26 377.39 49.19 Z" />
<path fill="#ffffff" opacity="1.00" d=" M 328.44 68.95 C 333.31 67.50 338.02 65.48 343.00 64.39 C 345.41 64.64 348.51 67.19 347.13 69.83 C 345.16 74.35 341.34 78.05 340.67 83.13 C 344.43 82.17 347.86 80.23 351.63 79.30 C 349.67 83.08 345.76 85.57 341.84 86.97 C 339.16 88.16 335.33 85.43 336.47 82.43 C 337.96 77.57 341.66 73.76 343.07 68.88 C 340.12 67.94 337.51 69.92 334.86 70.85 C 330.92 72.69 326.54 72.97 322.28 73.32 C 323.23 79.15 320.18 85.15 315.27 88.25 C 312.10 89.88 310.21 85.65 310.78 83.06 C 312.25 79.00 314.11 75.03 316.69 71.54 C 317.61 70.37 317.20 68.78 317.39 67.41 C 320.17 67.82 322.72 66.82 325.13 65.53 C 326.25 66.64 327.36 67.78 328.44 68.95 Z" />
</g>
</svg>
