<?xml version="1.0" encoding="UTF-8" ?>
<!DOCTYPE svg PUBLIC "-//W3C//DTD SVG 1.1//EN" "http://www.w3.org/Graphics/SVG/1.1/DTD/svg11.dtd">
<svg width="256pt" height="128pt" viewBox="0 0 256 128" version="1.1" xmlns="http://www.w3.org/2000/svg">
<g id="#ffffffff">
<path fill="#ffffff" opacity="1.00" d=" M 61.85 37.84 C 72.50 27.45 81.35 15.23 93.28 6.17 C 94.35 9.65 92.27 12.77 90.68 15.68 C 85.56 24.49 80.44 33.31 74.73 41.76 C 73.95 42.95 73.39 44.26 72.84 45.56 C 78.89 45.85 84.94 45.33 90.99 45.31 C 92.92 45.41 94.73 44.68 96.53 44.07 C 94.59 35.73 95.75 26.11 101.51 19.47 C 103.49 17.04 106.69 15.53 109.85 16.04 C 112.65 16.66 114.61 19.31 115.05 22.05 C 116.09 27.64 114.92 33.81 111.27 38.27 C 105.50 45.49 98.69 51.98 90.82 56.86 C 89.11 58.00 86.31 58.22 85.40 55.95 C 85.70 52.31 88.79 49.92 90.68 47.07 C 85.14 47.39 79.58 47.36 74.05 47.89 C 70.51 48.05 69.88 52.05 68.78 54.65 C 67.56 57.34 66.97 60.86 63.96 62.14 C 63.69 57.62 67.85 53.97 66.71 49.40 C 65.83 47.56 63.62 47.69 61.93 47.33 C 59.96 47.10 58.11 46.25 56.14 46.08 C 47.22 52.17 38.18 58.74 27.54 61.42 C 20.96 63.14 14.58 56.44 15.43 50.00 C 16.23 44.15 20.03 39.17 24.46 35.48 C 28.77 31.90 33.55 28.26 39.28 27.51 C 42.30 27.11 45.96 27.48 47.86 30.18 C 49.07 32.60 48.58 35.81 46.68 37.76 C 46.81 35.86 47.34 33.99 47.31 32.08 C 45.98 28.69 41.55 28.53 38.61 29.68 C 30.67 32.35 23.00 37.39 18.91 44.88 C 16.12 49.65 17.38 57.26 23.13 59.08 C 28.21 60.36 33.14 57.67 37.57 55.52 C 43.38 52.35 49.08 48.92 54.42 45.02 C 54.45 43.57 54.47 42.13 54.52 40.69 C 57.07 40.07 60.01 40.00 61.85 37.84 M 62.09 40.06 C 64.21 41.88 65.87 44.23 68.22 45.76 C 70.17 46.22 70.91 44.04 71.74 42.74 C 77.25 32.48 85.60 23.68 88.92 12.31 C 78.93 20.48 71.09 30.88 62.09 40.06 M 107.37 18.28 C 103.93 19.20 101.79 22.40 100.49 25.51 C 98.79 29.76 98.00 34.37 97.97 38.94 C 97.59 42.47 102.65 44.24 105.03 42.02 C 108.38 39.28 110.53 35.41 112.60 31.67 C 114.26 28.86 113.85 25.47 113.40 22.39 C 113.13 19.61 110.13 17.26 107.37 18.28 M 57.74 44.16 C 59.93 45.12 62.26 45.72 64.61 46.14 C 64.41 44.36 63.34 42.84 61.75 42.02 C 60.03 41.04 58.84 43.27 57.74 44.16 M 95.71 46.75 C 92.30 48.45 88.75 51.24 88.55 55.38 C 92.75 53.42 96.68 50.60 99.44 46.84 C 98.22 46.77 96.87 46.09 95.71 46.75 Z" />
<path fill="#ffffff" opacity="1.00" d=" M 140.15 21.04 C 142.56 20.50 141.89 23.51 142.05 25.00 C 141.22 32.32 135.18 37.43 130.09 42.12 C 128.17 43.82 128.24 46.55 128.19 48.89 C 131.74 49.34 134.99 47.57 138.21 46.38 C 142.89 44.84 143.55 37.52 149.03 37.54 C 152.53 39.76 148.04 43.42 145.92 44.91 C 143.86 45.90 140.08 49.00 143.25 50.94 C 148.10 50.88 152.26 47.75 156.07 45.06 C 158.98 42.68 161.81 39.70 161.91 35.70 C 164.59 35.58 167.30 35.55 169.93 36.16 C 169.50 41.99 163.15 45.14 162.74 51.08 C 164.24 51.62 165.85 52.03 167.40 51.37 C 171.81 50.02 177.18 49.01 179.72 44.70 C 181.26 42.37 179.62 38.04 183.16 37.44 C 182.96 41.94 181.96 47.29 177.66 49.68 C 173.99 51.72 170.01 53.25 165.96 54.36 C 163.56 55.04 160.93 53.49 160.71 50.92 C 160.96 46.07 164.83 42.54 166.05 38.01 C 163.50 38.06 162.61 40.63 161.28 42.32 C 158.25 46.71 153.33 49.09 148.96 51.86 C 146.95 53.21 144.51 54.05 142.11 53.34 C 140.60 52.23 140.03 50.33 139.08 48.79 C 135.57 49.66 132.23 52.20 128.49 51.53 C 126.02 50.76 126.36 47.69 125.71 45.71 C 119.45 47.88 114.14 53.47 107.02 52.43 C 104.96 52.44 104.11 50.44 103.60 48.78 C 105.63 49.40 107.53 51.04 109.76 50.58 C 114.66 49.52 119.05 46.93 123.26 44.32 C 125.04 43.13 127.13 42.07 127.96 39.96 C 131.16 33.17 134.80 26.40 140.15 21.04 M 131.72 37.36 C 135.95 34.88 139.28 30.31 140.18 25.46 C 136.45 28.59 133.83 33.02 131.72 37.36 Z" />
<path fill="#ffffff" opacity="1.00" d=" M 98.43 84.37 C 105.13 79.56 108.54 71.74 114.20 65.90 C 114.51 66.42 115.15 67.45 115.46 67.96 C 113.52 72.02 110.06 75.17 108.33 79.36 C 113.00 76.54 117.60 73.19 123.14 72.35 C 126.18 72.10 129.44 73.22 131.45 75.57 C 132.86 78.22 131.92 81.79 129.58 83.60 C 123.00 88.85 114.68 90.95 106.80 93.42 C 108.00 96.74 108.30 101.20 111.05 103.44 C 114.36 102.48 117.66 101.29 120.68 99.64 C 123.76 95.05 127.59 90.51 133.06 88.79 C 134.90 88.49 137.24 88.21 138.39 90.08 C 138.84 93.68 136.64 96.86 135.53 100.14 C 141.47 98.39 145.35 93.28 150.09 89.66 C 151.31 91.21 151.25 93.15 151.11 95.00 C 153.29 94.00 155.41 92.64 157.84 92.35 C 159.40 92.13 160.80 93.38 160.54 95.00 C 160.25 98.06 158.55 100.71 157.59 103.58 C 159.81 102.90 162.00 102.11 164.10 101.14 C 168.79 99.57 168.72 92.67 174.12 91.93 C 175.01 93.23 175.83 94.60 176.19 96.15 C 174.84 96.15 173.50 96.13 172.16 96.10 C 170.35 98.34 168.24 100.81 168.83 103.92 C 173.58 103.43 177.78 101.01 182.01 99.01 C 186.60 96.76 187.84 91.40 190.41 87.41 C 193.38 82.73 196.97 78.06 202.06 75.57 C 203.50 79.43 202.66 83.85 199.88 86.90 C 196.76 91.51 191.58 94.09 188.29 98.52 C 191.25 97.62 195.27 93.87 197.91 97.30 C 198.05 99.64 197.14 101.89 196.91 104.20 C 203.04 104.63 210.47 101.98 212.84 95.80 C 213.14 95.27 213.73 94.21 214.02 93.68 C 216.68 95.71 214.10 98.76 212.85 100.82 C 208.68 104.65 202.84 107.09 197.11 106.33 C 193.58 105.42 195.25 101.12 195.26 98.58 C 191.29 99.10 188.49 102.12 185.10 103.90 C 184.14 103.00 183.18 102.10 182.22 101.21 C 177.93 103.15 173.85 106.08 169.04 106.46 C 166.55 106.34 166.38 103.55 166.01 101.70 C 162.29 103.48 158.83 105.80 154.92 107.17 C 153.80 103.03 157.01 99.51 157.78 95.60 C 152.46 95.15 148.71 99.90 144.88 102.87 C 144.27 102.71 143.07 102.40 142.47 102.24 C 143.16 100.69 143.92 99.17 144.60 97.62 C 141.34 100.43 137.59 102.62 133.21 102.98 C 132.55 101.37 131.97 99.74 131.39 98.11 C 128.34 100.50 125.39 103.06 121.94 104.86 C 120.90 103.89 119.88 102.89 118.87 101.89 C 115.41 103.50 112.00 105.96 107.99 105.52 C 106.35 101.14 105.65 96.21 102.10 92.85 C 102.61 91.19 104.66 91.57 105.99 91.12 C 112.54 90.29 118.68 87.64 124.35 84.35 C 126.41 82.96 128.82 81.51 129.55 78.96 C 129.67 77.04 128.38 75.05 126.45 74.65 C 121.80 73.42 117.17 75.84 113.46 78.44 C 104.04 85.65 96.75 95.21 90.79 105.38 C 90.46 104.78 89.80 103.57 89.48 102.96 C 92.81 96.43 97.79 90.89 101.37 84.50 C 96.18 87.83 91.75 92.20 86.60 95.60 C 81.49 99.26 75.58 102.86 69.02 102.22 C 65.13 101.74 62.42 97.79 62.71 93.99 C 62.94 87.51 67.78 82.44 72.60 78.67 C 76.71 75.80 81.56 73.08 86.74 73.53 C 89.71 73.65 92.48 76.56 91.49 79.59 C 90.04 85.30 84.23 88.88 78.73 89.93 C 79.85 87.29 83.18 87.00 85.17 85.18 C 87.80 83.18 90.98 79.95 89.82 76.36 C 88.50 75.19 86.71 74.76 84.99 75.06 C 76.91 76.23 69.44 81.44 65.82 88.81 C 64.45 91.77 63.84 95.37 65.61 98.31 C 67.36 101.05 71.10 100.55 73.83 99.97 C 83.36 97.22 90.80 90.35 98.43 84.37 M 191.41 92.37 C 195.89 89.95 199.89 85.72 200.43 80.46 C 195.99 82.86 193.30 87.84 191.41 92.37 M 123.69 100.25 C 127.01 98.70 129.84 96.22 133.47 95.32 C 133.58 94.12 133.72 92.92 133.89 91.72 C 129.58 93.08 125.96 96.40 123.69 100.25 Z" />
</g>
</svg>
