<?xml version="1.0" encoding="UTF-8" ?>
<!DOCTYPE svg PUBLIC "-//W3C//DTD SVG 1.1//EN" "http://www.w3.org/Graphics/SVG/1.1/DTD/svg11.dtd">
<svg width="256pt" height="128pt" viewBox="0 0 256 128" version="1.1" xmlns="http://www.w3.org/2000/svg">
<g id="#ffffffff">
<path fill="#ffffff" opacity="1.00" d=" M 57.99 10.99 C 61.72 8.72 65.55 6.23 70.02 5.83 C 69.90 6.26 69.66 7.12 69.54 7.55 C 60.60 11.04 52.59 17.12 46.74 24.74 C 42.11 30.20 37.55 35.77 33.97 41.98 C 29.43 50.27 21.75 56.44 17.96 65.17 C 15.98 64.96 15.45 62.55 14.99 60.96 C 13.57 52.22 18.38 44.27 19.93 35.89 C 20.67 31.05 22.95 26.66 24.21 21.98 C 25.18 17.99 22.56 14.28 19.90 11.60 C 14.99 11.08 11.00 14.52 7.67 17.64 C 3.66 20.95 7.66 27.60 12.17 27.88 C 16.96 28.50 18.83 22.75 23.26 21.98 C 21.34 26.32 16.87 28.86 12.69 30.61 C 7.54 31.43 4.09 26.47 3.30 21.99 C 4.63 15.53 11.10 12.22 16.21 9.01 C 22.28 6.79 28.22 12.98 27.23 19.01 C 25.52 27.83 21.30 35.94 19.58 44.76 C 18.52 49.53 16.48 54.35 17.61 59.32 C 22.29 53.75 26.42 47.69 30.95 41.98 C 34.13 38.29 35.77 33.61 38.76 29.80 C 42.18 25.87 45.23 21.61 49.16 18.15 C 51.28 14.87 54.80 13.06 57.99 10.99 Z" />
<path fill="#ffffff" opacity="1.00" d=" M 150.35 10.19 C 152.57 9.57 153.05 7.07 154.01 5.30 C 154.94 6.12 155.86 6.94 156.79 7.76 C 152.42 15.20 150.54 23.70 147.15 31.58 C 152.72 32.35 158.18 29.91 163.75 30.83 C 166.67 24.70 168.25 18.06 170.60 11.70 C 171.36 9.74 171.31 6.51 174.22 6.74 C 173.91 13.68 170.29 19.81 168.39 26.35 C 167.29 30.85 164.75 34.76 163.03 39.02 C 160.35 45.48 157.05 51.65 153.93 57.90 C 152.67 60.23 152.90 62.98 152.50 65.53 C 150.71 64.82 150.43 62.73 150.64 61.04 C 152.78 51.31 158.76 43.06 161.66 33.59 C 156.10 34.02 150.61 35.12 145.07 35.75 C 142.69 40.78 139.94 45.66 138.09 50.93 C 137.24 53.13 136.35 55.63 133.76 56.21 C 133.49 54.04 133.93 51.88 135.14 50.05 C 137.83 45.82 138.51 40.73 141.09 36.45 C 132.36 34.99 122.95 34.79 114.82 38.80 C 113.10 40.37 114.79 42.50 115.20 44.25 C 113.74 43.73 110.98 44.06 111.09 41.81 C 111.42 39.36 111.97 36.49 114.06 34.92 C 117.95 33.65 122.02 32.83 126.08 32.30 C 131.60 31.60 137.11 33.52 142.62 32.64 C 146.34 26.39 148.60 19.31 151.26 12.54 C 143.86 14.59 135.71 13.27 128.72 16.73 C 126.22 17.70 127.28 20.83 129.17 21.83 C 132.03 24.32 136.25 22.76 139.22 25.03 C 134.29 27.69 126.67 25.41 124.94 19.86 C 124.61 18.05 124.39 15.35 126.51 14.55 C 133.98 10.95 142.54 12.46 150.35 10.19 Z" />
<path fill="#ffffff" opacity="1.00" d=" M 199.00 19.95 C 199.93 18.79 201.32 18.03 202.48 19.40 C 203.12 22.77 202.48 26.27 201.96 29.63 C 203.55 30.53 205.94 30.88 206.40 32.98 C 204.55 37.12 201.79 40.89 200.82 45.40 C 207.29 44.78 212.75 40.45 215.98 34.99 C 218.79 31.28 222.14 28.02 224.98 24.32 C 227.95 24.78 226.52 28.24 226.89 30.30 C 229.65 28.82 232.15 26.86 235.04 25.62 C 236.48 24.95 238.40 26.61 238.14 28.09 C 237.92 32.74 235.86 36.95 234.55 41.34 C 240.98 39.21 245.40 33.54 249.17 28.22 C 251.28 25.59 251.40 22.19 251.79 19.00 C 253.25 20.63 255.41 22.47 254.45 24.94 C 251.51 31.89 246.72 38.13 240.71 42.70 C 238.33 44.13 233.79 46.14 232.49 42.43 C 230.15 37.92 234.59 33.82 234.63 29.31 C 231.26 31.23 228.02 33.52 225.65 36.63 C 223.42 39.14 222.17 42.33 219.97 44.86 C 218.71 44.21 217.41 42.81 218.27 41.32 C 219.34 38.02 221.43 35.15 222.34 31.78 C 218.52 34.90 216.77 39.84 212.81 42.80 C 209.53 45.71 205.83 49.25 201.05 48.59 C 198.90 48.21 198.59 45.76 198.53 43.98 C 198.18 40.03 201.04 36.91 202.38 33.42 C 200.45 32.91 198.37 32.18 196.53 33.39 C 192.65 35.30 188.34 35.67 184.09 35.81 C 182.80 39.82 182.46 44.27 179.59 47.59 C 178.05 49.50 176.35 52.81 173.37 51.82 C 170.93 49.50 171.39 45.46 172.54 42.56 C 174.82 36.80 177.56 30.94 182.27 26.74 C 182.74 28.50 183.06 30.30 183.35 32.10 C 188.15 32.80 193.24 32.34 197.54 29.94 C 197.33 26.55 197.47 23.05 199.00 19.95 M 180.27 33.46 C 177.40 37.55 175.70 42.39 174.72 47.26 C 179.03 43.99 182.29 38.39 181.62 32.82 C 181.28 32.98 180.60 33.30 180.27 33.46 Z" />
<path fill="#ffffff" opacity="1.00" d=" M 50.13 37.10 C 51.66 36.20 53.77 35.46 55.38 36.61 C 56.84 38.56 55.54 40.82 54.55 42.63 C 52.27 46.65 52.45 51.48 52.89 55.92 C 56.85 54.64 60.44 52.23 63.20 49.12 C 65.38 45.63 67.72 42.24 69.99 38.80 C 70.92 39.32 71.86 39.83 72.79 40.35 C 72.22 43.39 71.45 46.39 70.66 49.37 C 74.45 47.31 77.94 44.59 82.01 43.10 C 83.93 42.30 85.67 44.14 85.36 46.03 C 84.89 49.19 83.50 52.21 83.92 55.48 C 91.84 53.18 97.56 44.20 95.20 36.13 C 97.41 37.60 99.14 40.23 98.46 42.98 C 97.04 48.77 93.47 54.22 88.37 57.42 C 86.62 58.36 83.93 59.63 82.42 57.60 C 80.15 53.99 81.99 49.65 82.30 45.77 C 76.16 48.79 70.72 53.46 66.83 59.12 C 66.08 57.96 64.48 56.82 65.38 55.28 C 66.54 52.32 67.93 49.43 68.38 46.26 C 65.50 48.17 64.53 51.72 61.96 53.92 C 59.53 56.03 56.85 58.00 53.72 58.90 C 52.50 59.31 50.67 59.04 50.09 57.75 C 49.45 55.61 49.77 53.36 49.72 51.18 C 46.23 54.26 44.21 58.64 40.57 61.59 C 39.57 62.24 38.51 63.61 37.16 63.11 C 35.06 58.08 37.41 52.43 40.11 48.08 C 43.15 44.19 45.93 39.87 50.13 37.10 M 46.96 43.96 C 43.37 47.85 39.54 52.20 39.30 57.78 C 39.84 57.50 40.93 56.95 41.47 56.67 C 43.26 53.47 45.78 50.87 48.26 48.21 C 49.72 44.96 53.07 42.65 53.01 38.82 C 50.61 40.04 48.76 42.01 46.96 43.96 Z" />
<path fill="#ffffff" opacity="1.00" d=" M 59.89 75.92 C 64.65 73.11 68.22 68.85 72.11 65.02 C 73.25 66.78 75.31 68.64 74.41 70.95 C 72.14 76.75 68.13 81.65 64.94 86.95 C 62.33 91.52 58.89 95.52 55.72 99.70 C 51.99 105.16 48.71 110.93 46.00 116.96 C 44.62 120.19 45.17 123.75 45.16 127.14 C 42.63 124.49 41.85 120.58 42.71 117.07 C 43.82 112.54 46.42 108.61 48.62 104.56 C 52.51 96.54 58.78 90.03 63.59 82.59 C 65.43 78.78 67.99 75.40 70.12 71.76 C 65.19 74.41 61.04 78.25 56.60 81.61 C 50.56 86.21 45.99 92.33 40.66 97.67 C 37.68 100.60 36.14 104.53 34.77 108.39 C 33.72 107.72 32.09 107.32 31.97 105.83 C 31.09 101.88 33.51 98.28 34.57 94.62 C 36.75 86.81 41.75 80.15 44.07 72.40 C 39.60 75.45 36.10 79.72 33.30 84.32 C 29.25 89.63 25.68 95.28 21.53 100.51 C 19.38 104.43 15.59 107.74 11.00 108.14 C 7.23 108.34 4.25 105.00 3.48 101.56 C 3.07 98.26 3.77 94.91 4.89 91.81 C 7.12 86.80 12.05 83.69 17.15 82.16 C 19.19 82.25 21.88 83.67 22.01 85.90 C 21.15 88.92 19.03 91.40 17.01 93.75 C 16.72 93.34 16.12 92.54 15.82 92.13 C 17.06 89.75 18.69 87.55 19.49 84.95 C 12.00 85.80 4.63 92.72 6.56 100.73 C 6.87 102.52 7.99 104.97 10.18 104.75 C 13.76 104.82 16.53 102.26 18.79 99.79 C 24.42 93.04 29.76 86.05 34.90 78.93 C 38.06 74.18 42.90 70.88 46.04 66.13 C 47.05 67.18 49.06 68.11 48.26 69.91 C 46.29 79.06 41.88 87.41 37.68 95.67 C 39.79 94.45 40.92 92.23 42.49 90.47 C 47.61 84.86 53.43 79.92 59.89 75.92 Z" />
<path fill="#ffffff" opacity="1.00" d=" M 172.40 77.76 C 170.78 74.74 174.58 72.83 176.00 70.66 C 178.24 71.84 178.88 75.13 176.51 76.54 C 175.43 77.26 173.53 79.33 172.40 77.76 Z" />
<path fill="#ffffff" opacity="1.00" d=" M 242.66 82.80 C 246.13 82.92 247.99 86.92 247.82 90.01 C 247.39 94.82 244.10 98.70 241.40 102.49 C 237.63 106.61 233.06 110.37 227.46 111.57 C 223.65 113.67 219.15 109.87 219.24 105.89 C 219.17 101.81 221.51 98.30 222.60 94.51 C 220.13 95.62 217.98 97.29 215.63 98.60 C 210.69 101.36 207.50 106.21 203.21 109.77 C 202.59 109.26 201.33 108.24 200.71 107.73 C 201.73 104.00 202.55 100.05 204.98 96.93 C 205.99 95.77 206.37 94.29 206.35 92.77 C 202.67 93.85 199.28 95.68 195.81 97.28 C 194.33 98.79 192.59 94.94 194.30 94.52 C 198.61 91.31 204.05 90.38 208.81 88.04 C 209.72 88.66 210.62 89.28 211.52 89.93 C 210.46 93.11 209.32 96.26 208.10 99.38 C 213.20 96.46 217.28 91.64 223.24 90.36 C 224.67 89.61 225.66 91.20 226.48 92.09 C 226.99 97.80 222.25 102.32 222.23 107.93 C 223.73 108.23 225.31 108.60 226.76 107.88 C 235.24 104.69 242.20 97.59 245.08 89.00 C 244.65 86.80 243.24 84.95 242.66 82.80 Z" />
<path fill="#ffffff" opacity="1.00" d=" M 122.50 100.45 C 130.93 94.54 140.93 91.41 149.14 85.16 C 149.90 86.40 151.30 87.48 151.30 89.06 C 149.76 96.24 145.44 102.35 140.94 107.97 C 139.00 110.34 136.42 107.49 135.19 105.84 C 134.07 104.40 131.61 101.69 133.93 100.27 C 135.73 101.50 136.82 103.45 138.05 105.20 C 141.62 100.93 144.81 96.26 146.72 91.00 C 135.90 95.41 126.34 102.28 116.45 108.37 C 114.21 110.14 111.07 108.74 110.78 105.93 C 111.13 101.89 114.20 98.82 115.50 95.10 C 109.26 98.78 103.85 103.73 98.81 108.90 C 97.58 107.25 96.96 105.31 96.58 103.32 C 93.73 107.12 89.12 109.45 84.40 109.60 C 81.55 108.83 81.47 105.23 80.77 102.87 C 77.56 106.30 73.59 109.30 69.03 110.57 C 65.73 110.59 66.11 105.95 66.67 103.68 C 69.05 97.95 73.19 92.88 78.30 89.34 C 80.03 88.14 81.51 85.71 83.92 86.40 C 87.58 87.55 87.35 91.90 87.75 94.99 C 86.24 98.57 83.82 102.00 84.09 106.07 C 86.82 106.47 89.87 105.88 91.60 103.57 C 96.28 98.18 102.62 93.89 105.09 86.92 C 106.00 87.67 106.96 88.36 107.73 89.26 C 107.20 92.41 105.24 95.10 104.64 98.25 C 109.01 95.00 113.76 92.32 118.13 89.07 C 118.83 90.09 119.46 91.15 120.03 92.26 C 119.70 96.77 116.98 100.53 115.02 104.45 C 117.74 103.57 120.06 101.89 122.50 100.45 M 74.53 97.49 C 72.25 99.88 70.44 102.78 69.78 106.06 C 77.37 103.76 82.51 96.76 85.48 89.74 C 80.68 90.30 77.69 94.31 74.53 97.49 Z" />
<path fill="#ffffff" opacity="1.00" d=" M 158.27 95.48 C 162.89 93.90 167.48 91.10 168.93 86.15 C 170.16 87.54 172.07 88.89 171.51 91.02 C 170.90 96.24 166.46 99.83 164.64 104.59 C 171.22 103.18 175.80 97.89 180.64 93.65 C 182.99 91.85 183.96 88.96 185.82 86.75 C 188.17 89.07 191.76 91.20 191.54 94.98 C 191.71 100.16 187.61 103.89 183.97 106.93 C 182.35 108.35 180.22 108.85 178.17 109.27 C 175.89 105.44 178.84 101.52 179.96 97.84 C 175.54 101.19 171.72 105.39 166.74 107.97 C 164.51 109.44 160.89 107.56 161.04 104.87 C 160.72 101.32 163.74 98.91 164.96 95.85 C 160.61 97.55 156.53 99.75 152.73 102.46 C 151.55 98.65 155.23 96.52 158.27 95.48 M 187.40 90.85 C 186.04 95.02 183.56 98.67 181.96 102.73 C 183.44 102.06 184.96 101.28 185.83 99.84 C 187.60 97.19 190.05 93.76 187.40 90.85 Z" />
</g>
</svg>
