<?xml version="1.0" encoding="UTF-8" ?>
<!DOCTYPE svg PUBLIC "-//W3C//DTD SVG 1.1//EN" "http://www.w3.org/Graphics/SVG/1.1/DTD/svg11.dtd">
<svg width="256pt" height="256pt" viewBox="0 0 256 256" version="1.1" xmlns="http://www.w3.org/2000/svg">
<g id="#ffffffff">
<path fill="#ffffff" opacity="1.00" d=" M 225.71 65.39 C 226.85 57.91 231.03 51.10 236.79 46.26 C 240.58 48.23 245.28 49.61 246.88 54.06 C 248.19 58.90 250.41 63.80 249.22 68.92 C 247.59 75.99 246.39 83.33 242.71 89.69 C 240.01 95.06 235.24 98.87 230.91 102.87 C 227.24 106.10 223.59 109.62 218.95 111.39 C 215.93 112.23 214.96 108.30 212.95 106.84 C 208.72 109.63 204.72 113.05 199.84 114.75 C 196.58 115.27 195.41 111.46 193.80 109.42 C 190.91 110.88 188.43 113.02 185.62 114.60 C 184.47 115.25 183.02 114.74 182.32 113.69 C 180.57 111.51 180.06 108.66 178.67 106.27 C 176.81 106.32 175.49 108.04 174.29 109.27 C 171.21 113.19 167.57 116.68 163.52 119.58 C 162.22 120.56 160.44 119.54 159.86 118.22 C 158.24 115.11 158.77 111.49 158.33 108.13 C 152.52 110.62 149.86 116.51 146.12 121.15 C 145.21 122.79 143.26 122.34 141.72 122.48 C 140.89 117.52 142.49 112.62 142.26 107.67 C 135.78 110.71 131.52 116.91 127.72 122.75 C 127.10 122.70 125.87 122.61 125.25 122.57 C 123.37 118.75 124.95 114.46 124.68 110.43 C 120.80 112.28 119.56 116.76 116.47 119.49 C 113.24 122.37 110.92 126.43 106.93 128.33 C 103.21 128.97 103.01 124.01 101.91 121.60 C 97.42 123.58 95.84 129.44 90.89 130.94 C 87.02 131.10 86.72 126.00 87.50 123.25 C 89.41 117.07 90.56 110.11 95.43 105.44 C 97.01 103.80 98.66 102.21 100.13 100.46 C 93.29 100.05 87.35 104.08 80.69 104.79 C 75.92 105.69 71.16 104.43 66.42 104.01 C 63.21 112.57 62.83 121.79 60.68 130.61 C 59.88 133.10 59.53 136.25 57.01 137.67 C 52.90 135.75 49.61 132.38 45.36 130.64 C 43.08 129.07 39.20 128.82 38.70 125.60 C 44.94 127.32 50.39 130.97 56.14 133.81 C 57.95 130.16 58.44 126.07 59.31 122.13 C 61.34 112.42 63.42 102.72 65.44 93.01 C 65.93 93.04 66.91 93.10 67.40 93.13 C 67.58 94.42 67.76 95.72 67.95 97.02 C 68.62 97.18 69.96 97.51 70.63 97.67 C 70.79 98.84 70.43 100.44 71.74 101.10 C 75.47 102.49 79.42 101.07 83.12 100.30 C 91.16 98.13 99.66 96.52 106.54 91.53 C 109.55 89.30 112.95 87.07 114.60 83.58 C 114.49 78.35 109.33 74.79 104.95 72.91 C 92.25 68.07 78.55 66.13 65.01 66.04 C 55.96 65.86 47.13 68.06 38.26 69.50 C 27.20 71.39 17.29 77.59 9.57 85.57 C 7.38 88.06 5.40 91.35 6.10 94.80 C 7.42 98.66 11.03 101.24 14.80 102.42 C 24.22 106.04 34.49 104.23 44.21 103.15 C 44.20 103.58 44.19 104.45 44.18 104.88 C 37.06 107.41 29.18 106.90 21.77 106.08 C 15.54 105.31 8.76 103.42 4.96 98.01 C 2.62 94.84 2.91 90.33 5.12 87.17 C 10.22 79.51 17.97 73.89 26.42 70.44 C 30.57 68.83 34.51 66.45 39.00 65.95 C 49.30 64.70 59.60 63.09 70.00 63.14 C 82.53 63.07 95.16 65.36 106.65 70.40 C 110.59 72.56 115.05 74.85 116.86 79.24 C 118.31 82.58 117.41 86.46 115.28 89.29 C 113.28 92.29 109.47 93.40 107.62 96.52 C 109.47 97.92 111.94 98.95 112.89 101.22 C 113.73 108.73 105.45 113.90 106.87 121.50 C 110.46 120.70 112.44 117.33 114.96 114.97 C 119.28 110.67 122.74 105.65 126.19 100.65 C 131.25 101.78 128.91 107.46 128.72 111.00 C 129.32 111.31 130.53 111.91 131.13 112.22 C 134.90 107.66 139.32 103.75 144.03 100.18 C 145.03 101.24 147.08 101.93 146.77 103.72 C 146.56 106.69 146.01 109.63 145.95 112.61 C 150.75 110.21 153.53 105.18 158.03 102.42 C 161.75 102.04 161.60 106.46 161.92 108.97 C 162.35 110.51 161.75 113.44 164.03 113.60 C 170.12 109.27 175.26 103.69 179.54 97.59 C 181.04 95.60 181.65 93.12 181.50 90.66 C 175.38 89.66 168.98 94.60 163.30 90.81 C 163.38 90.26 163.54 89.17 163.62 88.62 C 169.52 86.90 175.67 86.22 181.57 84.53 C 185.70 83.24 185.37 78.24 186.93 75.00 C 187.40 73.47 189.46 73.12 190.45 74.39 C 191.75 76.39 191.82 78.88 192.38 81.14 C 195.78 81.17 199.27 79.01 202.47 80.95 C 201.88 82.08 201.93 83.92 200.47 84.36 C 196.97 86.05 192.69 86.20 189.57 88.51 C 186.54 95.06 181.35 102.06 183.94 109.62 C 186.97 109.40 189.07 107.04 191.36 105.35 C 196.27 101.57 199.10 95.92 202.31 90.77 C 204.19 90.95 206.01 91.98 206.33 94.00 C 204.81 99.75 197.74 103.40 199.02 109.95 C 209.69 105.30 218.60 97.51 227.18 89.80 C 227.11 87.03 225.65 84.52 225.15 81.81 C 223.64 76.40 225.00 70.81 225.71 65.39 M 238.44 51.35 C 235.87 52.73 233.78 54.97 232.49 57.58 C 228.81 64.98 227.33 73.48 228.33 81.69 C 228.68 83.95 229.57 86.76 232.07 87.39 C 235.22 86.98 238.03 85.27 240.78 83.77 C 244.12 81.02 244.59 76.39 245.31 72.41 C 246.38 66.75 246.78 60.74 244.75 55.25 C 243.71 52.97 241.22 50.03 238.44 51.35 M 220.89 101.90 C 220.02 102.54 218.52 105.41 220.81 104.82 C 224.66 103.37 227.39 99.80 229.94 96.68 C 226.68 97.89 223.28 99.27 220.89 101.90 M 103.28 103.27 C 96.56 107.74 93.01 115.64 91.80 123.39 C 94.56 123.07 95.88 120.42 97.61 118.60 C 100.91 114.86 103.08 110.24 106.73 106.79 C 108.03 105.39 110.25 104.04 109.06 101.84 C 107.01 100.53 104.98 102.21 103.28 103.27 Z" />
<path fill="#ffffff" opacity="1.00" d=" M 130.07 91.92 C 128.06 88.64 131.79 85.84 134.14 84.14 C 135.49 85.62 136.78 88.17 134.86 89.78 C 133.65 90.89 131.83 93.40 130.07 91.92 Z" />
<path fill="#ffffff" opacity="1.00" d=" M 186.73 129.68 C 188.12 127.59 189.50 124.79 192.15 124.20 C 195.17 124.59 196.93 128.18 196.57 131.00 C 195.97 136.02 192.85 140.28 189.63 144.00 C 189.83 144.72 190.24 146.15 190.45 146.87 C 193.59 146.55 196.58 145.23 199.74 145.22 C 202.52 145.18 204.39 149.23 201.99 150.98 C 199.21 153.95 195.10 154.78 191.35 155.80 C 191.13 157.81 191.98 159.84 193.97 160.62 C 199.07 159.66 202.41 155.37 206.06 152.07 C 210.04 148.43 213.47 144.21 216.18 139.53 C 218.85 140.31 219.97 143.25 218.84 145.73 C 218.01 147.09 218.47 150.31 220.53 148.63 C 226.30 143.49 232.20 138.11 235.32 130.87 C 236.42 131.72 237.95 132.44 237.84 134.09 C 238.32 140.83 235.24 147.10 232.57 153.08 C 232.60 153.67 232.65 154.85 232.68 155.43 C 238.02 153.65 241.79 149.23 244.97 144.82 C 246.63 146.73 248.29 149.89 246.04 152.03 C 240.54 157.21 234.07 161.37 229.06 167.07 C 225.15 172.09 225.69 178.83 223.35 184.50 C 221.82 188.18 220.71 192.51 217.09 194.72 C 213.88 192.64 210.17 190.20 209.71 186.02 C 209.07 178.32 213.98 171.31 219.95 166.92 C 225.49 162.64 227.13 155.43 228.08 148.88 C 225.86 149.93 223.83 151.37 222.12 153.12 C 220.41 154.89 219.83 157.43 218.17 159.24 C 216.71 160.84 214.03 160.95 212.29 159.76 C 211.24 157.59 211.72 155.07 211.47 152.74 C 207.10 156.30 202.94 160.10 198.44 163.50 C 196.93 164.70 194.53 165.58 192.89 164.11 C 190.45 161.92 188.68 159.11 186.61 156.60 C 183.08 158.39 181.80 162.35 180.69 165.85 C 180.05 165.86 178.75 165.87 178.10 165.88 C 177.29 163.63 176.85 161.29 176.41 158.96 C 173.51 159.48 170.94 160.92 168.64 162.72 C 166.18 164.69 162.78 164.57 160.17 166.19 C 157.43 168.88 156.18 173.44 151.94 174.28 C 146.49 174.94 141.19 172.30 136.95 169.08 C 135.58 168.27 133.81 166.49 132.21 167.86 C 128.88 170.33 127.22 174.42 123.75 176.74 C 120.35 179.10 116.89 181.42 113.22 183.35 C 108.83 185.51 103.55 182.60 101.46 178.54 C 99.78 175.13 100.77 171.23 101.58 167.72 C 103.83 158.64 110.25 151.02 118.08 146.13 C 120.99 144.26 124.47 145.94 127.19 147.33 C 128.48 146.69 129.77 146.02 131.07 145.37 C 135.74 147.30 137.96 152.94 143.03 153.97 C 146.99 154.28 148.14 149.77 150.61 147.60 C 156.97 141.64 164.28 136.51 169.21 129.18 C 170.71 125.95 174.61 129.56 173.82 131.98 C 170.72 140.82 165.97 149.06 163.16 158.00 C 162.28 160.09 165.36 161.34 166.72 159.94 C 171.12 157.06 177.45 156.00 179.57 150.57 C 181.93 143.61 183.48 136.31 186.73 129.68 M 144.47 158.17 C 146.47 161.30 150.10 163.84 153.95 163.45 C 156.82 162.87 157.69 159.82 158.31 157.37 C 159.73 151.61 163.39 146.69 164.57 140.85 C 155.34 143.43 152.09 153.34 144.47 158.17 M 121.38 149.23 C 114.25 152.94 108.77 159.49 106.07 167.03 C 104.74 170.69 103.37 174.99 105.27 178.70 C 106.05 180.82 108.93 180.87 110.51 179.66 C 112.80 178.63 111.85 175.71 113.11 173.99 C 114.79 172.38 116.81 171.10 118.22 169.21 C 121.83 164.32 126.10 159.38 126.55 153.02 C 127.26 150.23 123.86 147.19 121.38 149.23 M 132.05 151.08 C 130.59 154.56 132.36 158.57 134.87 161.09 C 136.29 159.89 138.14 158.90 138.65 156.97 C 137.27 154.50 135.35 150.67 132.05 151.08 M 129.28 159.94 C 127.79 162.79 125.90 165.43 124.68 168.42 C 127.78 167.72 129.87 165.26 131.73 162.88 C 130.94 161.87 130.13 160.89 129.28 159.94 M 137.19 165.13 C 140.00 168.91 145.21 170.94 149.81 169.87 C 150.83 169.71 153.41 168.55 151.58 167.48 C 147.73 165.79 144.69 162.83 141.09 160.77 C 139.57 162.01 138.41 163.61 137.19 165.13 M 213.91 184.97 C 213.95 186.63 213.17 189.11 215.14 189.96 C 216.15 189.77 216.84 189.20 217.19 188.24 C 219.24 184.02 220.31 179.38 220.68 174.73 C 216.81 176.66 214.03 180.59 213.91 184.97 Z" />
</g>
</svg>
