<?xml version="1.0" encoding="UTF-8" ?>
<!DOCTYPE svg PUBLIC "-//W3C//DTD SVG 1.1//EN" "http://www.w3.org/Graphics/SVG/1.1/DTD/svg11.dtd">
<svg width="256pt" height="256pt" viewBox="0 0 256 256" version="1.1" xmlns="http://www.w3.org/2000/svg">
<g id="#ffffffff">
<path fill="#ffffff" opacity="1.00" d=" M 91.42 44.20 C 92.97 42.84 95.01 43.65 96.77 43.96 C 98.03 48.30 96.42 52.74 94.73 56.72 C 89.64 68.10 81.28 78.21 70.42 84.48 C 68.79 85.41 67.11 86.44 66.24 88.19 C 59.49 99.32 52.24 110.21 43.82 120.16 C 44.91 123.36 48.93 124.40 51.98 124.38 C 61.88 123.79 70.50 118.07 78.00 112.02 C 81.41 107.77 82.67 102.13 86.16 97.91 C 86.93 97.84 88.48 97.68 89.26 97.61 C 88.75 99.17 88.27 100.74 87.70 102.28 C 91.47 100.92 95.37 98.93 99.49 99.50 C 101.12 99.82 101.34 101.60 101.38 102.96 C 101.56 106.84 100.36 110.58 99.98 114.41 C 105.22 110.96 109.60 106.34 114.79 102.79 C 115.86 101.88 117.31 102.23 118.59 102.19 C 118.88 106.71 117.97 111.20 118.02 115.73 C 124.09 112.55 128.09 106.64 133.07 102.09 C 134.09 100.81 135.77 101.21 137.19 101.09 C 137.04 103.52 136.57 105.91 136.23 108.32 C 140.37 105.98 143.81 101.34 149.08 102.05 C 150.56 106.76 147.60 111.23 146.78 115.78 C 151.77 113.40 154.95 108.48 159.48 105.36 C 160.64 104.15 162.02 105.36 163.21 105.80 C 162.63 109.60 160.86 113.41 161.78 117.29 C 164.68 115.50 168.51 113.72 169.00 109.92 C 169.72 106.79 170.65 103.29 173.49 101.39 C 175.63 99.88 179.73 99.91 180.43 103.02 C 178.93 107.36 175.21 110.35 172.62 114.01 C 173.43 115.40 174.42 116.91 176.07 117.38 C 180.02 116.78 182.79 113.55 186.15 111.68 C 185.27 116.12 181.48 119.91 176.98 120.57 C 173.97 121.05 172.15 118.13 169.87 116.74 C 166.54 117.52 164.10 121.68 160.35 120.77 C 157.37 118.53 158.33 114.59 158.18 111.40 C 153.40 114.23 149.94 118.82 145.01 121.43 C 143.52 121.05 142.14 119.64 142.53 118.00 C 142.83 113.52 145.62 109.72 146.20 105.31 C 139.09 107.97 135.39 114.90 130.95 120.51 C 130.30 120.15 129.01 119.42 128.36 119.06 C 129.28 115.38 131.34 112.04 131.70 108.20 C 126.81 111.48 123.44 116.49 118.73 119.97 C 117.19 121.34 115.36 119.31 114.92 117.87 C 114.78 114.04 115.07 110.19 114.84 106.35 C 108.68 109.92 103.75 115.13 98.83 120.17 C 98.20 120.19 96.93 120.24 96.30 120.26 C 96.32 114.07 98.60 108.03 97.81 101.81 C 93.96 102.46 90.13 103.78 87.05 106.25 C 85.95 107.97 87.72 110.09 87.33 112.02 C 86.52 118.37 82.73 124.49 76.99 127.48 C 75.38 127.22 74.08 125.66 74.40 124.01 C 74.76 121.45 75.72 119.03 76.30 116.52 C 68.47 121.28 60.53 127.23 50.98 127.46 C 47.06 127.68 43.85 125.28 40.61 123.46 C 37.65 123.66 34.51 124.59 31.70 123.12 C 27.67 121.15 24.36 117.90 21.43 114.56 C 17.95 110.00 22.28 102.82 27.88 103.70 C 34.07 106.42 36.53 113.84 41.89 117.36 C 47.45 111.92 51.26 105.05 55.74 98.77 C 57.92 95.45 60.39 92.28 61.98 88.61 C 56.76 90.34 51.72 93.31 46.00 92.71 C 42.70 92.83 39.45 90.82 38.42 87.62 C 36.53 81.84 37.61 75.34 40.24 69.97 C 40.73 69.94 41.72 69.87 42.21 69.84 C 42.05 73.78 38.89 77.00 39.25 81.05 C 39.09 85.26 41.13 90.77 46.07 90.91 C 51.59 90.98 56.67 88.35 61.87 86.82 C 64.18 86.38 65.15 84.09 66.19 82.27 C 69.29 76.13 72.96 70.31 76.35 64.33 C 80.63 57.14 84.63 49.38 91.42 44.20 M 90.69 47.73 C 84.38 55.10 80.08 63.87 75.20 72.19 C 73.28 75.87 71.06 79.40 69.50 83.25 C 80.57 75.98 88.52 64.58 93.26 52.33 C 94.22 50.17 94.42 47.81 94.17 45.48 C 92.93 46.09 91.54 46.58 90.69 47.73 M 172.15 109.57 C 174.23 107.67 175.69 105.19 176.95 102.69 C 174.12 103.83 172.84 106.81 172.15 109.57 M 25.07 115.92 C 28.95 118.52 33.05 122.76 38.16 121.01 C 37.24 117.32 34.02 115.02 31.85 112.10 C 30.05 109.96 28.13 107.24 25.15 106.86 C 21.68 108.61 21.67 114.09 25.07 115.92 M 78.12 121.81 C 82.16 119.33 83.98 114.32 83.95 109.74 C 80.44 112.74 79.25 117.52 78.12 121.81 Z" />
<path fill="#ffffff" opacity="1.00" d=" M 203.36 75.09 C 204.36 75.32 205.36 75.56 206.36 75.81 C 202.94 82.20 200.97 89.22 197.99 95.77 L 197.20 95.10 C 198.20 88.19 200.34 81.39 203.36 75.09 Z" />
<path fill="#ffffff" opacity="1.00" d=" M 165.18 78.78 C 166.38 78.85 167.57 78.94 168.76 79.05 C 168.76 79.73 168.76 81.10 168.76 81.79 C 167.78 81.63 166.79 81.46 165.81 81.28 C 165.65 80.65 165.34 79.41 165.18 78.78 Z" />
<path fill="#ffffff" opacity="1.00" d=" M 196.56 116.51 C 204.68 111.97 212.19 106.53 220.00 101.51 C 220.73 101.68 222.20 102.02 222.93 102.19 C 221.50 107.86 218.77 113.12 216.73 118.60 C 221.45 117.59 226.05 115.82 229.99 113.00 C 232.04 111.55 233.71 109.56 236.06 108.55 C 232.63 118.77 221.18 122.34 211.54 123.58 C 208.17 124.87 206.12 120.82 206.62 117.98 C 208.39 118.21 210.16 118.49 211.93 118.78 C 214.04 115.58 215.67 112.05 216.50 108.29 C 208.35 111.67 201.64 118.59 192.73 119.97 C 192.79 117.80 195.05 117.42 196.56 116.51 Z" />
<path fill="#ffffff" opacity="1.00" d=" M 110.39 130.41 C 111.01 129.12 112.67 129.42 113.82 129.11 C 115.11 132.49 113.70 136.04 111.96 138.96 C 109.00 143.90 105.99 148.89 104.30 154.44 C 108.06 152.65 110.91 149.52 114.46 147.41 C 115.69 146.44 117.21 147.10 118.57 147.30 C 119.82 151.76 117.32 156.06 117.51 160.51 C 119.21 160.98 120.44 159.41 121.82 158.73 C 128.94 153.92 136.56 149.93 144.49 146.63 C 145.81 146.07 147.96 145.65 148.58 147.42 C 150.50 151.35 147.95 155.61 148.59 159.73 C 154.13 157.40 159.22 154.17 164.72 151.76 C 168.71 150.21 171.96 145.86 176.70 147.57 C 176.68 148.12 176.66 149.21 176.65 149.75 C 171.59 151.81 165.65 156.36 166.89 162.48 C 170.46 162.24 173.55 160.29 176.61 158.63 C 180.89 156.07 185.22 153.35 188.47 149.50 C 193.37 143.88 194.70 136.09 199.46 130.36 C 200.57 128.83 202.21 129.97 202.85 131.29 C 203.19 136.76 200.31 141.87 196.88 145.92 C 194.72 148.40 192.49 150.92 191.37 154.08 C 193.88 153.93 196.92 151.97 199.05 154.17 C 199.51 157.94 195.77 159.93 193.21 161.81 C 199.48 169.46 211.22 166.63 217.52 160.54 C 219.32 158.42 219.72 155.57 220.59 153.01 C 221.93 153.52 224.64 153.63 223.78 155.73 C 222.81 158.60 222.41 162.05 220.19 164.23 C 214.70 167.29 208.51 169.84 202.12 169.60 C 196.16 169.19 191.29 164.89 188.73 159.70 C 186.50 161.45 185.15 163.97 183.78 166.39 C 182.77 165.97 181.84 165.42 181.00 164.74 C 180.91 163.01 181.49 161.35 181.85 159.69 C 178.01 161.54 174.31 163.77 170.30 165.25 C 168.23 165.84 165.33 166.15 164.01 164.03 C 162.19 161.28 163.59 157.94 163.91 154.96 C 158.47 157.30 153.76 160.91 148.77 164.02 C 146.50 165.88 145.24 162.55 143.98 161.17 C 141.77 163.72 139.47 166.57 136.04 167.43 C 134.36 167.21 133.41 165.57 133.53 163.98 C 133.34 160.59 135.00 157.52 136.04 154.40 C 129.73 156.79 124.18 160.81 118.85 164.87 C 117.51 165.89 114.90 166.93 114.06 164.76 C 112.74 160.45 115.08 156.04 114.95 151.65 C 109.03 154.90 104.15 159.77 100.13 165.14 C 99.24 167.21 96.39 165.94 96.38 163.99 C 96.84 160.02 98.77 156.47 100.05 152.75 C 95.18 155.32 90.31 157.91 85.40 160.40 C 80.24 162.94 77.96 169.76 71.78 170.46 C 64.67 171.70 57.96 168.16 53.01 163.32 C 46.35 166.98 39.54 172.75 31.44 171.47 C 26.42 169.99 25.36 163.82 26.47 159.36 C 27.64 152.62 33.54 148.35 38.91 144.88 C 41.50 143.11 44.53 142.26 47.51 141.40 C 50.22 139.69 51.93 134.96 55.88 136.67 C 61.75 139.45 61.91 147.07 66.08 151.50 C 71.18 150.20 74.95 146.14 79.15 143.18 C 83.90 139.28 90.01 136.45 92.64 130.56 C 93.16 129.03 96.44 130.55 95.80 132.07 C 93.85 140.40 90.52 148.34 86.98 156.11 C 91.34 154.35 95.21 151.62 99.16 149.12 C 105.76 145.05 106.78 136.66 110.39 130.41 M 51.23 141.74 C 52.39 143.39 54.35 144.85 54.27 147.07 C 54.17 150.23 51.96 152.84 51.68 155.94 C 52.07 157.15 52.57 159.06 54.08 159.19 C 57.28 157.88 60.48 156.25 62.95 153.78 C 61.40 148.89 58.85 144.20 56.05 139.89 C 54.53 137.32 52.35 140.44 51.23 141.74 M 67.61 154.06 C 69.39 157.75 73.95 159.70 77.91 159.23 C 80.95 158.37 82.16 155.13 83.67 152.68 C 85.93 148.11 89.03 143.71 89.37 138.47 C 81.95 143.42 75.13 149.25 67.61 154.06 M 37.92 148.93 C 34.22 151.87 30.41 155.37 29.36 160.18 C 28.72 162.89 28.32 166.35 30.71 168.36 C 33.39 170.56 36.84 168.58 39.59 167.57 C 43.31 165.73 47.43 164.42 50.52 161.54 C 50.64 160.86 50.87 159.49 50.99 158.80 C 48.43 159.10 47.04 161.58 44.69 162.38 C 45.29 159.18 48.44 156.63 47.70 153.17 C 47.06 150.28 46.68 147.35 46.68 144.39 C 43.34 144.93 40.54 146.92 37.92 148.93 M 49.34 151.50 C 51.67 150.46 53.51 144.59 50.03 144.47 C 48.79 146.62 49.27 149.15 49.34 151.50 M 137.77 161.14 C 141.07 158.84 143.21 155.30 144.74 151.66 C 141.08 153.55 138.78 157.23 137.77 161.14 M 55.60 161.38 C 59.62 167.02 68.47 170.07 74.25 165.28 C 75.37 164.66 77.26 162.50 74.89 162.14 C 70.95 161.42 67.95 158.82 64.98 156.36 C 61.59 157.46 58.64 159.57 55.60 161.38 Z" />
</g>
</svg>
