<?xml version="1.0" encoding="UTF-8" ?>
<!DOCTYPE svg PUBLIC "-//W3C//DTD SVG 1.1//EN" "http://www.w3.org/Graphics/SVG/1.1/DTD/svg11.dtd">
<svg width="256pt" height="128pt" viewBox="0 0 256 128" version="1.1" xmlns="http://www.w3.org/2000/svg">
<g id="#ffffffff">
<path fill="#ffffff" opacity="1.00" d=" M 44.99 19.99 C 50.76 17.91 56.44 14.57 62.79 15.21 C 70.45 15.67 79.09 19.63 81.42 27.54 C 82.74 32.39 82.98 37.74 81.49 42.57 C 75.46 56.24 62.11 64.77 49.18 71.12 C 45.93 73.24 40.86 71.95 40.04 67.88 C 39.38 61.56 42.57 55.68 43.28 49.49 C 38.01 51.13 36.31 57.55 30.91 58.97 C 31.53 55.61 35.05 54.38 37.20 52.16 C 40.44 48.63 43.79 45.20 47.20 41.83 C 47.44 43.36 47.83 44.94 47.35 46.46 C 46.02 51.74 44.71 57.03 43.16 62.25 C 42.03 65.15 44.80 69.01 47.98 68.19 C 54.67 66.24 60.65 62.39 65.93 57.93 C 70.99 53.70 76.47 49.42 79.14 43.19 C 80.98 38.44 80.88 32.90 78.77 28.25 C 75.48 21.72 68.18 17.69 60.98 17.61 C 53.00 18.80 45.35 22.07 38.85 26.85 C 26.95 35.61 17.75 48.07 13.15 62.13 C 12.04 66.20 11.76 70.44 11.06 74.59 C 17.73 71.20 22.16 64.97 28.20 60.80 C 28.17 61.31 28.11 62.33 28.08 62.84 C 22.72 68.46 16.21 72.94 11.24 78.98 C 11.84 83.13 12.70 88.20 16.81 90.33 C 21.72 92.20 27.36 92.16 32.22 90.11 C 37.98 87.78 43.96 86.06 49.65 83.55 C 51.16 82.84 52.83 82.65 54.49 82.60 C 52.05 85.22 48.63 86.35 45.40 87.61 C 40.28 90.24 34.94 92.48 29.50 94.37 C 23.91 96.30 16.89 95.89 12.65 91.35 C 10.42 88.42 9.61 84.74 8.23 81.39 C 5.66 83.14 3.02 84.86 0.00 85.72 L 0.00 83.59 C 2.56 80.99 7.11 79.84 7.78 75.80 C 9.40 67.53 10.36 58.90 14.28 51.30 C 17.22 46.07 20.29 40.82 24.51 36.50 C 30.38 29.96 36.64 23.30 44.99 19.99 Z" />
<path fill="#ffffff" opacity="1.00" d=" M 119.87 49.87 C 120.64 48.99 121.63 48.71 122.82 49.02 C 122.56 52.60 122.24 56.34 120.58 59.59 C 119.15 61.81 117.57 63.93 116.09 66.12 C 113.25 70.66 107.45 72.56 105.29 77.63 C 109.81 75.85 114.28 73.87 118.98 72.57 C 120.71 72.74 120.97 74.69 121.03 76.06 C 121.09 79.15 119.47 81.92 119.02 84.93 C 121.95 83.98 124.64 82.43 127.55 81.42 C 131.76 79.50 135.27 76.05 139.82 74.89 C 141.13 80.30 133.90 82.67 135.08 87.91 C 138.86 87.18 142.30 85.36 145.89 84.05 C 149.67 82.66 152.60 79.76 156.37 78.38 C 158.81 75.79 161.36 73.01 164.78 71.77 C 165.64 74.92 163.68 77.49 162.74 80.30 C 166.41 79.33 169.27 76.49 173.04 75.69 C 174.34 74.75 176.07 76.41 175.57 77.73 C 175.12 80.43 173.35 83.80 176.07 85.85 C 181.74 82.68 187.49 79.05 194.08 78.33 C 197.64 78.00 200.59 75.68 204.09 75.13 C 206.48 74.68 208.79 73.91 211.08 73.09 C 212.59 72.27 214.97 73.35 214.98 75.17 C 215.34 79.75 211.75 83.24 210.75 87.49 C 215.52 86.33 219.19 82.84 223.47 80.69 C 226.85 79.92 229.48 77.30 232.95 76.85 C 233.73 80.85 229.38 82.62 228.66 86.12 C 231.60 85.64 235.45 86.01 236.98 82.85 C 241.41 79.18 246.76 76.78 251.16 73.05 C 253.07 76.73 249.72 80.23 248.49 83.58 C 246.95 87.38 242.13 89.84 242.63 94.25 C 245.01 93.29 247.37 92.07 249.12 90.15 C 250.41 88.00 250.50 85.00 253.04 83.79 C 253.37 85.43 253.72 87.07 253.80 88.74 C 252.68 91.10 251.31 93.71 248.73 94.72 C 242.38 97.50 235.82 101.07 232.29 107.30 C 230.38 111.18 226.73 113.75 224.28 117.24 C 222.30 120.88 220.15 124.69 216.93 127.35 C 214.12 127.46 213.22 124.20 212.79 122.00 C 212.26 116.37 214.29 110.35 218.42 106.43 C 224.43 101.93 233.45 101.58 237.51 94.54 C 240.07 89.62 243.82 85.38 245.99 80.25 C 244.43 80.37 242.77 80.20 241.30 80.82 C 240.51 81.87 239.97 83.10 239.04 84.03 C 233.91 87.07 228.90 90.31 223.94 93.62 C 223.60 93.24 222.92 92.48 222.58 92.11 C 223.87 88.88 225.64 85.88 226.89 82.64 C 223.59 82.59 221.82 85.66 219.40 87.35 C 216.81 89.12 214.27 90.98 211.54 92.51 C 209.99 93.53 208.25 92.50 206.74 91.98 C 207.40 89.07 208.45 86.27 209.16 83.38 C 206.67 83.77 205.67 86.41 203.87 87.85 C 200.67 90.67 197.24 93.23 193.78 95.72 C 190.97 96.49 191.24 92.81 192.18 91.21 C 193.30 86.63 197.15 83.50 198.73 79.18 C 193.91 80.44 189.28 82.12 184.55 83.63 C 181.05 86.50 176.40 87.89 173.70 91.71 C 172.92 93.17 170.85 93.43 169.99 91.90 C 170.06 88.39 172.54 84.79 171.55 81.45 C 166.49 80.07 162.64 85.25 159.27 88.28 C 157.52 89.50 156.41 93.52 153.89 92.21 C 153.50 87.76 158.07 84.28 158.47 79.77 C 155.02 81.93 151.01 83.12 148.25 86.27 C 143.30 88.88 137.66 90.07 133.01 93.31 C 127.56 91.38 134.22 85.72 132.33 82.07 C 129.09 83.90 126.54 86.88 122.86 87.90 C 120.75 88.58 116.90 90.62 116.48 87.00 C 116.59 83.72 117.83 80.59 117.81 77.29 C 112.11 77.59 106.57 80.53 103.17 85.13 C 101.18 87.33 99.76 90.38 96.76 91.37 C 95.71 87.50 98.49 84.13 99.84 80.71 C 94.94 83.93 89.91 86.96 84.66 89.58 C 82.37 90.05 80.07 90.51 77.80 91.07 C 75.32 91.77 72.22 89.79 72.59 87.02 C 73.20 81.04 76.98 76.12 80.57 71.56 C 81.70 70.14 83.22 69.04 84.97 68.55 C 86.74 68.97 88.55 71.07 86.98 72.73 C 85.81 75.16 83.26 76.05 80.96 77.03 C 78.79 79.72 76.43 82.74 76.67 86.42 C 82.38 87.22 87.35 83.78 92.09 81.15 C 97.66 77.99 103.73 74.82 106.85 68.92 C 110.45 62.11 114.74 55.63 119.87 49.87 M 198.55 87.25 C 202.06 85.45 205.46 83.13 207.73 79.84 C 203.54 80.15 199.47 83.02 198.55 87.25 M 216.79 115.00 C 216.76 116.92 216.01 121.16 218.85 120.98 C 223.04 116.30 226.55 110.92 229.48 105.39 C 224.06 106.26 218.98 109.93 216.79 115.00 Z" />
<path fill="#ffffff" opacity="1.00" d=" M 150.39 55.13 C 151.47 53.60 153.49 55.61 153.15 57.06 C 152.93 58.91 152.24 61.27 150.02 61.46 C 146.48 60.79 148.39 56.51 150.39 55.13 Z" />
<path fill="#ffffff" opacity="1.00" d=" M 63.97 73.98 C 65.08 71.53 66.91 69.55 68.95 67.85 C 71.75 71.37 70.44 75.87 70.91 79.99 C 70.78 83.14 67.86 84.87 65.87 86.87 C 64.52 88.24 64.02 90.66 61.87 91.02 C 60.04 91.64 57.89 90.10 58.17 88.12 C 58.75 82.97 61.72 78.53 63.97 73.98 M 61.85 85.44 C 62.34 85.33 63.30 85.12 63.79 85.02 C 65.90 82.77 68.90 80.36 68.07 76.89 C 64.41 77.85 63.56 82.49 61.85 85.44 Z" />
</g>
</svg>
