<?xml version="1.0" encoding="UTF-8" ?>
<!DOCTYPE svg PUBLIC "-//W3C//DTD SVG 1.1//EN" "http://www.w3.org/Graphics/SVG/1.1/DTD/svg11.dtd">
<svg width="256pt" height="256pt" viewBox="0 0 256 256" version="1.1" xmlns="http://www.w3.org/2000/svg">
<g id="#ffffffff">
<path fill="#ffffff" opacity="1.00" d=" M 172.66 38.65 C 173.33 37.07 175.91 36.59 176.85 38.16 C 178.57 41.78 179.11 45.94 178.69 49.91 C 178.24 54.21 175.42 57.66 173.18 61.18 C 170.23 65.75 166.99 70.17 164.61 75.08 C 168.95 74.11 173.17 70.90 177.74 72.46 C 178.59 78.42 171.40 79.23 167.40 81.00 C 168.20 86.27 172.80 91.09 178.04 92.12 C 183.69 91.40 189.04 87.98 192.28 83.30 C 194.69 78.24 196.35 72.67 196.08 67.01 C 196.21 65.25 194.75 64.11 193.80 62.83 C 195.60 61.42 198.47 60.95 199.17 63.76 C 200.55 71.21 198.92 79.32 194.56 85.56 C 191.64 90.47 186.63 94.28 180.94 95.19 C 175.61 95.84 170.40 92.89 167.18 88.79 C 165.22 86.61 164.78 83.61 163.29 81.16 C 158.65 83.85 158.45 89.76 154.86 93.37 C 152.77 92.78 151.48 91.12 150.58 89.25 C 146.85 91.62 143.19 94.13 139.33 96.30 C 136.07 98.36 131.15 96.95 129.62 93.39 C 129.07 91.32 129.31 89.15 129.17 87.04 C 125.08 89.66 121.38 94.06 116.13 93.88 C 112.75 93.55 111.94 89.78 110.78 87.23 C 108.69 89.37 107.17 92.61 104.00 93.26 C 101.03 92.70 101.49 89.38 101.32 87.13 C 95.19 90.69 91.81 97.86 84.95 100.35 C 83.69 100.60 82.55 100.32 81.54 99.53 C 79.26 95.37 78.55 90.54 78.65 85.85 C 75.59 87.31 72.62 89.02 70.20 91.41 C 68.92 95.29 68.37 100.65 63.87 102.18 C 60.30 103.53 53.71 102.05 54.69 97.09 C 56.06 92.53 61.46 91.54 64.96 89.11 C 64.20 87.39 63.74 84.02 61.11 84.63 C 58.41 86.88 56.45 90.07 53.05 91.42 C 50.67 89.00 52.24 85.36 54.28 83.30 C 61.24 78.71 66.21 70.56 66.53 62.21 C 60.81 63.75 55.67 67.44 52.28 72.30 C 48.44 77.40 43.66 81.77 40.32 87.24 C 36.91 93.61 34.60 100.51 31.05 106.81 C 29.55 106.15 27.55 105.14 28.44 103.14 C 32.53 90.28 38.60 78.14 42.74 65.31 C 39.35 67.29 38.81 71.59 36.60 74.57 C 33.32 80.77 29.47 86.63 25.00 92.03 C 21.91 96.40 18.96 101.38 13.81 103.59 C 10.94 103.76 8.03 101.05 8.36 98.07 C 7.40 89.80 10.77 82.03 13.41 74.40 C 15.77 69.10 18.99 64.17 22.73 59.73 C 24.56 57.25 28.33 56.23 30.98 57.99 C 32.02 59.01 32.25 60.60 32.35 61.98 C 32.33 67.88 29.92 73.36 27.70 78.70 C 26.70 81.06 26.06 84.30 23.17 84.99 C 25.41 77.96 29.45 71.46 30.50 64.00 C 30.91 62.29 29.61 61.02 28.78 59.70 C 26.63 60.28 24.37 61.08 23.03 62.98 C 18.23 69.38 14.25 76.55 12.29 84.35 C 11.03 88.88 9.31 93.63 10.72 98.35 C 10.89 99.82 12.49 101.08 13.95 100.51 C 19.63 97.48 22.99 91.77 27.03 87.00 C 33.49 79.16 36.94 69.35 43.15 61.36 C 45.75 56.14 48.49 50.97 51.10 45.76 C 54.01 44.36 53.20 48.47 52.99 50.05 C 50.67 58.98 45.96 67.13 43.75 76.11 C 50.37 70.61 55.70 63.46 63.47 59.44 C 64.80 58.97 66.47 58.01 67.82 58.91 C 69.72 59.86 69.93 62.22 69.82 64.09 C 69.63 69.82 66.11 74.68 64.47 79.95 C 65.95 82.43 67.55 84.90 69.81 86.73 C 72.73 84.99 75.89 83.66 78.63 81.64 C 81.29 79.28 80.47 75.32 81.33 72.20 C 83.67 63.88 88.91 56.81 93.88 49.88 C 95.84 46.77 99.32 44.72 102.97 44.42 C 106.34 44.82 107.20 48.96 106.59 51.74 C 105.51 55.53 103.13 58.76 101.04 62.05 C 96.98 68.73 92.54 75.41 86.32 80.29 C 81.02 83.74 82.10 91.24 83.97 96.37 C 88.24 94.46 91.56 91.08 94.83 87.84 C 99.04 83.37 104.03 79.69 108.13 75.13 C 110.67 71.44 114.21 67.60 119.00 67.43 C 119.33 67.81 119.97 68.57 120.30 68.95 C 117.53 73.99 116.99 79.81 115.48 85.29 C 114.79 87.18 115.65 88.98 116.93 90.36 C 121.84 88.51 126.35 85.66 130.45 82.41 C 133.71 78.02 135.06 71.78 140.23 69.03 C 142.65 67.53 146.69 69.43 145.49 72.52 C 142.09 77.05 136.84 80.11 134.40 85.39 C 133.43 87.71 133.03 90.54 134.29 92.83 C 135.72 94.26 137.63 92.68 139.08 92.12 C 143.85 89.41 148.80 86.66 152.40 82.43 C 155.56 78.85 159.47 75.74 161.31 71.20 C 165.85 60.63 166.60 48.61 172.66 38.65 M 169.17 61.17 C 172.77 57.06 177.24 51.20 174.23 45.57 C 171.86 50.52 170.35 55.83 169.17 61.17 M 97.67 51.66 C 91.55 58.85 87.56 67.56 84.45 76.40 C 91.56 71.73 95.69 64.06 100.00 56.98 C 101.37 54.50 103.58 51.77 102.04 48.84 C 100.44 49.52 98.76 50.23 97.67 51.66 M 59.04 98.91 C 61.96 99.03 65.03 97.27 64.98 94.04 C 62.45 94.68 58.56 95.54 59.04 98.91 Z" />
<path fill="#ffffff" opacity="1.00" d=" M 141.10 108.07 C 142.59 105.88 144.90 104.49 147.14 103.18 C 151.75 106.69 149.30 112.88 147.09 117.04 C 142.81 124.17 137.27 130.56 131.29 136.33 C 128.92 138.58 129.01 142.06 129.15 145.06 C 130.89 144.26 132.58 143.30 133.93 141.93 C 141.15 134.66 149.38 128.37 158.29 123.32 C 160.37 122.40 163.42 120.48 165.30 122.65 C 167.37 126.44 167.32 130.93 168.15 135.08 C 173.13 132.74 177.96 129.79 181.53 125.52 C 184.48 122.29 188.00 118.30 192.86 119.03 C 192.81 120.71 192.68 122.38 192.64 124.05 C 192.96 128.46 190.31 132.72 191.84 137.12 C 198.10 133.10 203.07 127.45 208.36 122.31 C 209.02 122.23 210.34 122.06 210.99 121.98 C 211.25 123.67 211.45 125.36 211.68 127.06 C 214.42 125.70 216.91 123.68 219.93 122.95 C 223.76 124.70 220.25 128.99 220.21 131.86 C 224.64 128.74 228.85 125.30 233.47 122.45 C 234.68 121.41 237.06 122.47 236.67 124.14 C 235.95 128.36 232.25 131.99 233.55 136.53 C 233.63 138.23 235.53 138.72 236.80 137.93 C 244.25 135.40 250.16 128.60 251.71 120.91 C 252.65 116.69 250.32 112.88 248.03 109.57 C 250.11 109.97 252.67 110.25 253.74 112.40 C 256.73 118.76 255.36 126.63 251.10 132.09 C 247.73 136.49 242.86 139.35 238.13 142.05 C 236.11 143.35 233.27 143.16 231.73 141.21 C 228.92 137.96 229.95 133.33 230.30 129.46 C 225.53 132.27 222.27 136.78 218.53 140.72 C 216.95 142.48 214.00 140.97 213.64 138.94 C 214.09 135.73 215.23 132.67 215.88 129.50 C 211.02 132.08 207.10 136.48 204.96 141.57 C 203.46 141.27 202.02 140.76 200.62 140.17 C 200.85 138.53 201.08 136.90 201.29 135.26 C 197.43 137.02 195.25 142.84 190.40 141.69 C 187.73 140.53 187.40 137.29 186.16 135.00 C 183.64 137.56 181.47 140.46 178.90 142.97 C 177.40 144.51 175.11 143.47 173.74 142.32 C 173.14 140.82 173.35 139.15 173.10 137.58 C 167.86 137.85 164.46 143.48 159.06 143.11 C 155.31 142.32 150.77 142.07 148.96 138.08 C 149.63 137.12 150.31 136.18 151.01 135.24 C 153.09 136.04 154.96 137.30 157.04 138.09 C 160.08 137.71 162.69 135.05 162.94 131.96 C 162.99 130.02 164.04 127.14 161.72 126.14 C 158.91 126.85 156.57 128.72 154.07 130.10 C 149.32 133.22 144.38 136.27 140.66 140.64 C 137.50 143.81 134.19 146.83 131.04 150.02 C 129.37 152.15 125.75 151.79 124.52 149.41 C 123.51 147.34 123.90 144.93 123.60 142.71 C 120.24 144.45 117.13 147.33 113.05 146.89 C 109.70 147.12 107.81 144.06 105.96 141.81 C 104.10 144.66 102.25 147.53 100.17 150.23 C 98.34 152.65 93.66 151.01 93.66 147.95 C 92.84 142.01 94.98 136.33 96.87 130.84 C 93.11 131.52 89.65 133.39 86.58 135.61 C 85.82 136.95 86.54 138.56 86.49 140.00 C 87.09 145.26 83.71 150.97 78.59 152.57 C 75.01 153.50 71.32 149.89 72.42 146.27 C 72.92 141.23 77.75 138.66 80.52 134.96 C 80.37 134.52 80.07 133.62 79.93 133.17 C 73.71 130.89 69.78 137.78 64.83 140.10 C 63.07 141.41 60.20 139.15 61.24 137.22 C 63.29 133.24 68.30 132.37 70.95 128.95 C 73.49 125.74 74.37 121.51 74.12 117.48 C 69.21 117.51 66.83 122.66 63.57 125.55 C 54.88 133.42 49.02 143.74 43.90 154.13 C 42.68 153.49 41.48 152.81 40.32 152.09 C 43.53 142.12 49.89 133.47 53.39 123.65 C 51.11 125.65 49.59 128.33 47.46 130.48 C 41.36 136.71 34.76 142.41 28.45 148.42 C 25.39 151.10 22.18 153.76 18.42 155.40 C 13.79 157.30 7.35 155.37 5.52 150.45 C 3.76 147.14 5.16 143.41 6.19 140.12 C 8.42 133.39 14.22 128.69 20.01 125.05 C 22.99 123.07 28.06 123.46 29.60 127.02 C 29.42 130.01 28.24 132.99 26.31 135.30 C 24.63 137.27 23.40 140.09 20.43 140.31 C 20.91 135.18 26.83 132.14 26.37 126.75 C 24.11 127.12 21.64 127.26 19.80 128.79 C 15.25 132.26 10.57 136.31 8.92 142.02 C 7.89 145.07 6.51 149.18 9.38 151.68 C 13.14 154.91 18.37 152.22 21.88 149.92 C 30.40 143.54 38.18 136.22 45.72 128.73 C 50.32 123.97 55.19 119.34 58.50 113.55 C 60.05 111.03 61.01 108.11 63.15 106.00 C 65.27 105.68 66.19 108.27 65.45 109.92 C 63.51 114.82 60.50 119.27 58.98 124.34 C 64.91 121.61 67.87 114.78 74.03 112.39 C 76.33 112.18 76.84 114.74 77.39 116.42 C 78.57 120.27 78.31 124.37 76.97 128.14 C 79.76 129.22 82.07 131.50 84.99 132.12 C 92.36 128.70 99.90 125.58 107.20 121.97 C 110.74 120.65 113.60 124.69 113.37 127.90 C 112.11 132.33 109.27 136.74 110.52 141.51 C 111.15 143.72 113.90 143.78 115.52 142.64 C 120.16 139.80 125.61 137.09 127.77 131.74 C 131.20 123.32 135.89 115.49 141.10 108.07 M 137.02 123.89 C 140.40 119.88 143.52 115.54 145.60 110.70 C 141.56 114.13 138.63 118.87 137.02 123.89 M 103.30 129.37 C 100.00 133.75 97.61 139.04 97.85 144.64 C 102.96 140.15 106.60 134.00 108.57 127.52 C 106.74 127.79 104.59 127.82 103.30 129.37 M 75.84 149.04 C 80.67 148.88 82.02 143.38 82.17 139.45 C 78.14 140.58 75.48 144.95 75.84 149.04 Z" />
<path fill="#ffffff" opacity="1.00" d=" M 140.29 158.01 C 142.73 155.96 146.50 159.69 143.72 161.77 C 141.34 164.82 136.48 160.11 140.29 158.01 Z" />
<path fill="#ffffff" opacity="1.00" d=" M 99.00 167.07 C 104.18 164.58 108.25 159.93 114.02 158.67 C 117.82 157.90 121.24 160.88 122.94 164.02 C 124.90 168.18 122.80 172.91 120.48 176.45 C 115.73 183.20 107.65 186.05 100.10 188.35 C 99.37 191.06 101.30 194.09 102.19 196.74 C 103.43 200.18 107.66 198.78 110.27 198.09 C 117.72 195.32 123.50 189.45 128.62 183.58 C 131.40 180.67 132.32 176.21 135.97 174.16 C 136.87 175.23 138.50 176.23 137.85 177.88 C 135.94 183.72 130.86 188.28 130.71 194.71 C 139.88 189.04 147.96 181.83 156.98 175.95 C 159.40 174.42 161.67 172.24 164.70 172.15 C 165.56 174.33 166.36 176.63 166.14 179.02 C 165.92 182.57 163.94 186.19 165.81 189.62 C 168.57 188.53 171.70 187.95 174.02 186.00 C 176.09 181.45 177.92 175.86 183.19 174.09 C 185.94 173.03 187.64 176.40 186.73 178.63 C 184.82 182.65 181.61 185.81 178.86 189.25 C 177.17 191.37 179.34 194.95 182.02 194.59 C 188.85 193.27 195.62 189.08 198.49 182.55 C 199.60 179.22 196.47 176.73 195.85 173.68 C 200.81 174.18 203.92 180.24 201.82 184.67 C 199.07 192.88 190.17 196.08 182.77 198.77 C 178.42 198.93 174.93 195.28 173.04 191.65 C 169.38 193.62 164.48 193.27 161.74 196.73 C 159.16 199.22 156.15 202.39 152.21 201.82 C 146.84 200.71 144.10 192.94 148.36 189.12 C 151.97 187.42 155.93 190.20 159.77 189.76 C 161.34 185.97 161.73 181.81 161.29 177.76 C 155.11 180.33 150.40 185.23 144.82 188.77 C 140.83 192.88 135.49 195.33 131.64 199.59 C 130.26 201.40 127.58 201.49 125.81 200.22 C 124.40 198.05 125.52 195.33 125.32 192.93 C 119.13 197.47 112.61 203.80 104.26 202.56 C 99.14 201.63 97.88 195.99 96.02 191.97 C 95.01 188.55 91.24 186.71 88.16 186.03 C 84.45 190.41 82.59 195.96 79.91 200.97 C 78.92 203.52 74.61 201.83 75.53 199.32 C 78.30 191.69 83.09 184.95 86.25 177.49 C 83.17 178.77 81.10 181.52 78.53 183.53 C 70.24 190.35 62.25 198.01 52.14 202.06 C 48.69 202.99 43.97 203.83 41.44 200.60 C 38.21 196.27 39.52 190.34 41.97 185.98 C 45.94 178.65 51.44 171.49 59.40 168.31 C 61.80 166.97 65.79 168.01 66.27 171.00 C 63.85 177.73 58.94 183.03 54.02 188.03 C 53.16 188.76 52.14 189.08 50.96 188.98 C 51.12 188.37 51.45 187.16 51.61 186.55 C 55.89 181.75 61.80 177.46 63.15 170.83 C 55.13 173.09 48.28 179.42 45.06 187.11 C 43.51 190.39 41.57 194.09 42.89 197.79 C 43.73 200.21 46.66 201.10 48.89 200.08 C 60.73 196.09 70.23 187.57 79.55 179.57 C 83.35 176.03 87.50 172.84 91.03 169.02 C 93.55 166.34 94.86 162.77 97.32 160.05 C 98.50 158.98 100.35 159.98 100.87 161.29 C 100.57 163.31 99.62 165.15 99.00 167.07 M 102.86 168.87 C 98.35 171.91 94.45 175.91 91.83 180.69 C 94.03 181.96 95.85 183.92 98.24 184.83 C 102.45 184.04 106.44 182.20 110.17 180.13 C 114.67 177.08 119.50 172.87 119.62 166.99 C 119.96 164.66 118.48 161.84 115.90 161.77 C 110.70 162.07 106.89 166.05 102.86 168.87 M 149.23 193.93 C 150.10 195.62 151.26 197.14 152.95 198.09 C 154.43 196.81 155.85 195.46 157.08 193.94 C 154.59 192.78 151.24 191.02 149.23 193.93 Z" />
</g>
</svg>
