<?xml version="1.0" encoding="UTF-8" ?>
<!DOCTYPE svg PUBLIC "-//W3C//DTD SVG 1.1//EN" "http://www.w3.org/Graphics/SVG/1.1/DTD/svg11.dtd">
<svg width="512pt" height="128pt" viewBox="0 0 512 128" version="1.1" xmlns="http://www.w3.org/2000/svg">
<g id="#ffffffff">
<path fill="#ffffff" opacity="1.00" d=" M 415.81 40.84 C 418.12 38.75 419.89 34.88 423.46 35.20 C 423.94 39.40 423.49 43.62 422.87 47.77 C 420.59 52.60 416.85 56.42 413.33 60.34 C 411.25 62.05 408.96 63.56 407.25 65.68 C 410.19 65.51 413.13 65.25 416.08 65.51 C 416.29 66.88 416.87 68.41 415.99 69.68 C 413.11 71.10 409.83 71.40 406.95 72.83 C 408.74 74.26 410.43 76.48 412.97 76.36 C 421.39 75.75 430.31 72.47 435.23 65.23 C 436.70 63.38 436.81 60.05 439.67 59.75 C 439.98 63.60 438.56 67.11 435.63 69.61 C 432.80 74.44 427.38 76.29 422.54 78.43 C 418.74 79.33 414.89 80.40 410.97 80.45 C 406.36 79.50 404.20 74.71 401.88 71.13 C 398.51 72.11 397.21 75.68 394.34 77.34 C 394.00 75.83 393.73 74.31 393.51 72.78 C 388.22 73.56 383.17 75.39 377.99 76.62 C 373.06 76.56 372.45 71.02 372.16 67.24 C 374.90 63.02 378.66 59.22 383.92 58.57 C 384.44 59.98 384.96 61.39 385.43 62.82 C 381.03 64.43 374.85 65.99 374.97 71.85 C 376.58 72.16 378.24 72.59 379.89 72.15 C 385.55 70.98 391.25 69.75 396.62 67.54 C 398.23 66.94 399.18 65.43 400.08 64.05 C 405.07 56.15 409.19 47.58 415.81 40.84 M 412.73 50.73 C 410.08 54.60 407.42 58.49 405.18 62.61 C 412.47 57.77 421.11 51.29 421.32 41.69 C 417.63 43.80 415.17 47.37 412.73 50.73 Z" />
<path fill="#ffffff" opacity="1.00" d=" M 119.42 64.01 C 131.01 55.36 142.12 46.07 153.22 36.80 C 154.43 37.08 155.26 37.81 155.71 39.01 C 154.39 42.37 152.97 45.71 151.41 48.97 C 154.21 49.28 157.71 51.31 160.16 49.12 C 162.38 45.89 163.81 42.17 165.94 38.88 C 167.45 38.69 168.35 40.79 168.47 42.05 C 168.04 45.01 165.99 47.35 164.83 50.04 C 165.16 51.99 166.90 53.40 167.71 55.18 C 165.19 55.83 161.79 54.54 160.04 57.02 C 157.02 61.17 153.67 65.30 152.34 70.37 C 158.55 67.67 164.84 64.45 169.38 59.28 C 170.32 60.57 172.13 62.02 171.03 63.78 C 169.49 66.09 166.58 67.83 167.08 71.00 C 170.43 70.51 173.58 69.14 176.63 67.71 C 178.63 66.93 178.24 64.40 178.95 62.74 C 180.99 57.32 184.00 52.21 187.96 47.95 C 190.44 45.24 193.04 42.09 196.89 41.47 C 200.34 42.98 199.60 47.43 198.17 50.13 C 194.00 56.76 189.70 63.69 182.82 67.84 C 181.24 68.60 180.92 70.16 181.03 71.77 C 185.23 72.37 188.88 69.98 192.60 68.48 C 197.22 66.26 201.48 63.36 205.67 60.43 C 203.98 59.88 201.91 60.13 200.49 58.93 C 200.59 57.68 200.74 56.43 200.95 55.18 C 203.93 55.08 206.92 55.81 209.88 55.38 C 212.66 52.37 214.98 48.95 218.01 46.16 C 218.99 47.43 219.94 48.73 220.86 50.04 C 219.22 51.76 217.27 53.35 216.66 55.76 C 224.36 56.59 232.32 57.55 240.00 56.08 C 240.51 57.32 241.32 58.50 241.41 59.89 C 237.96 62.01 233.72 62.10 229.92 60.92 C 223.99 61.89 218.05 59.54 212.14 60.74 C 209.30 62.21 208.13 65.47 206.77 68.17 C 205.68 70.51 207.03 74.09 210.03 73.63 C 214.84 72.81 218.99 69.59 222.13 65.96 C 222.87 67.40 223.52 68.90 223.99 70.46 C 220.04 73.03 216.53 76.67 211.74 77.60 C 208.51 78.37 204.69 76.24 204.06 72.89 C 203.70 70.49 203.93 68.05 203.78 65.63 C 200.56 66.14 199.90 70.14 196.77 70.78 C 192.28 72.06 188.46 75.13 183.84 75.97 C 180.74 76.68 179.45 72.98 176.98 72.11 C 174.07 73.28 171.24 74.80 167.99 74.51 C 164.85 75.20 163.81 71.52 163.67 69.11 C 159.50 71.21 155.86 74.76 151.08 75.34 C 147.96 74.76 148.33 70.52 148.94 68.17 C 150.80 63.39 153.63 59.05 156.03 54.52 C 153.67 54.10 151.32 53.61 148.96 53.17 C 147.54 55.38 145.83 57.38 144.00 59.26 C 144.18 60.39 144.38 61.52 144.59 62.64 C 140.48 66.59 135.86 69.93 131.20 73.19 C 126.48 76.62 120.20 78.31 114.50 76.59 C 111.52 76.22 108.97 74.43 106.07 73.84 C 102.63 75.26 99.69 77.67 96.21 79.04 C 92.21 80.63 88.34 82.54 84.66 84.77 C 81.56 86.09 78.12 86.37 74.94 87.49 C 69.68 86.36 65.79 81.39 66.01 76.01 C 66.34 70.58 67.55 64.61 71.91 60.92 C 75.65 57.73 80.14 55.56 84.65 53.68 C 88.82 51.57 94.42 53.90 96.16 58.14 C 96.44 61.76 94.19 65.08 91.90 67.69 C 91.31 67.24 90.14 66.35 89.56 65.91 C 90.58 63.18 93.05 61.10 93.40 58.11 C 92.66 56.92 91.39 55.74 89.90 55.82 C 83.10 56.72 77.02 60.49 72.08 65.10 C 69.68 68.86 68.00 73.37 68.27 77.89 C 68.52 80.61 69.85 84.04 73.03 84.24 C 79.36 84.41 84.88 80.96 90.45 78.46 C 95.11 76.47 99.80 74.46 104.11 71.79 C 103.95 68.02 100.61 64.85 100.21 60.94 C 98.50 55.54 101.75 50.18 106.03 47.08 C 108.33 44.62 113.35 43.38 115.63 46.42 C 118.61 51.83 117.70 58.25 119.42 64.01 M 143.24 48.06 C 144.86 47.87 146.71 48.12 148.06 46.98 C 149.07 45.47 149.52 43.68 150.14 42.00 C 147.68 43.81 144.92 45.42 143.24 48.06 M 103.22 55.31 C 101.47 60.64 103.74 66.31 106.97 70.59 C 110.29 68.53 114.15 67.48 117.20 64.96 C 115.98 60.13 115.83 55.11 114.67 50.27 C 114.53 48.62 112.75 47.02 111.08 47.81 C 107.65 49.15 104.94 52.12 103.22 55.31 M 182.82 62.77 C 188.66 59.39 193.22 53.71 195.59 47.42 C 189.51 50.53 185.39 56.59 182.82 62.77 M 119.64 66.16 C 124.00 68.58 129.16 67.16 133.61 65.81 C 137.99 62.60 140.90 57.95 143.81 53.47 C 142.45 52.27 141.37 50.80 141.06 48.97 C 134.04 54.84 126.78 60.43 119.64 66.16 M 109.71 72.29 C 114.85 75.10 121.37 74.68 126.29 71.58 C 122.93 71.18 120.11 69.47 117.98 66.88 C 115.21 68.66 112.32 70.26 109.71 72.29 Z" />
<path fill="#ffffff" opacity="1.00" d=" M 339.33 36.85 C 340.79 38.97 342.32 41.96 340.18 44.20 C 334.99 50.95 330.26 58.03 325.66 65.19 C 329.79 63.69 333.80 61.86 338.05 60.68 C 340.18 64.15 338.64 67.84 337.53 71.34 C 339.17 70.75 340.79 70.10 342.43 69.48 C 341.21 72.51 339.56 76.67 335.48 75.85 C 334.75 72.87 335.27 69.83 335.50 66.82 C 328.60 67.87 323.09 72.29 318.00 76.71 C 317.50 74.95 316.30 73.10 317.12 71.24 C 318.65 67.78 321.25 64.88 322.40 61.24 C 317.20 64.79 311.23 67.21 306.42 71.37 C 303.88 73.02 300.77 73.50 297.93 74.45 C 293.44 74.98 289.06 73.18 285.04 71.36 C 281.04 73.74 277.10 76.34 272.55 77.55 C 266.72 79.23 261.46 83.37 255.16 82.92 C 250.93 82.11 249.09 77.51 247.87 73.88 C 246.64 71.60 248.54 69.51 249.59 67.60 C 251.31 64.37 254.68 62.68 257.23 60.22 C 261.24 57.21 265.74 53.87 270.88 53.58 C 273.56 56.33 275.67 59.99 275.68 63.92 C 275.42 67.41 272.99 70.19 271.74 73.36 C 276.22 73.56 278.58 69.02 282.93 68.87 C 282.25 65.71 280.85 62.56 281.43 59.26 C 282.04 56.15 283.99 53.39 286.60 51.60 C 289.76 55.03 289.80 60.51 293.94 63.09 C 301.42 56.33 310.17 51.27 318.14 45.13 C 320.78 43.27 322.01 40.17 323.93 37.67 C 324.75 39.05 325.56 40.44 326.35 41.84 C 323.21 48.51 319.94 55.14 315.98 61.37 C 319.64 59.82 323.77 58.56 326.32 55.32 C 331.20 49.56 334.99 43.00 339.33 36.85 M 296.54 64.14 C 301.70 64.24 308.76 64.99 311.81 59.81 C 314.44 55.86 317.52 51.93 318.32 47.12 C 311.02 52.74 303.61 58.22 296.54 64.14 M 284.32 65.69 C 286.22 67.38 288.45 65.62 290.39 64.99 C 289.20 62.18 288.09 59.34 286.95 56.51 C 285.10 59.00 282.21 62.60 284.32 65.69 M 269.61 58.63 C 264.70 60.76 259.95 63.41 255.73 66.71 C 253.58 68.83 250.66 70.89 250.32 74.12 C 249.86 76.23 251.74 78.65 253.97 78.44 C 258.84 78.61 263.28 76.47 267.72 74.78 C 267.44 69.15 273.96 65.88 273.12 60.09 C 273.30 58.18 270.86 57.92 269.61 58.63 M 291.47 67.18 C 291.24 67.64 290.79 68.57 290.57 69.03 C 292.72 69.14 295.19 70.31 297.17 69.01 C 295.34 68.19 293.40 67.66 291.47 67.18 Z" />
<path fill="#ffffff" opacity="1.00" d=" M 174.05 47.84 C 176.75 48.32 177.11 51.73 174.90 53.13 C 171.61 53.41 172.46 49.36 174.05 47.84 Z" />
<path fill="#ffffff" opacity="1.00" d=" M 345.90 69.86 C 349.28 63.48 355.78 57.62 363.28 57.51 C 364.01 62.21 360.75 66.22 360.68 70.82 C 364.56 70.47 368.08 68.74 371.73 67.51 C 368.69 71.06 364.54 73.45 360.29 75.27 C 359.30 73.17 358.49 70.99 357.82 68.78 C 354.23 71.39 350.65 74.01 346.97 76.49 C 345.96 74.49 344.43 72.06 345.90 69.86 Z" />
</g>
</svg>
