<?xml version="1.0" encoding="UTF-8" ?>
<!DOCTYPE svg PUBLIC "-//W3C//DTD SVG 1.1//EN" "http://www.w3.org/Graphics/SVG/1.1/DTD/svg11.dtd">
<svg width="256pt" height="128pt" viewBox="0 0 256 128" version="1.1" xmlns="http://www.w3.org/2000/svg">
<g id="#ffffffff">
<path fill="#ffffff" opacity="1.00" d=" M 48.03 30.02 C 55.39 25.63 61.10 18.89 64.92 11.28 C 67.32 14.60 64.99 18.42 63.91 21.78 C 60.84 29.93 58.47 38.39 54.53 46.19 C 55.07 46.73 56.13 47.80 56.66 48.33 C 51.13 50.04 49.50 56.20 44.89 59.15 C 42.62 60.46 40.04 59.27 38.05 58.03 C 33.57 55.65 30.08 51.91 26.69 48.23 C 22.15 50.99 17.53 53.70 12.62 55.75 C 9.43 56.91 4.97 57.28 2.87 54.03 C -1.49 47.10 1.18 37.99 5.97 32.00 C 11.95 25.36 18.50 18.76 27.09 15.66 C 31.25 14.52 34.28 19.16 33.61 22.89 C 32.75 28.05 30.42 32.87 27.79 37.35 C 26.17 32.90 30.14 29.31 31.24 25.26 C 32.99 22.59 31.74 17.72 28.00 18.03 C 23.63 18.96 20.00 21.86 16.64 24.66 C 12.49 28.49 7.68 32.00 5.34 37.34 C 3.01 41.73 1.62 47.23 4.14 51.85 C 4.80 53.36 6.49 53.70 7.97 53.55 C 14.79 53.59 20.02 48.68 25.90 45.97 C 24.56 43.57 23.53 40.98 23.90 38.16 C 26.20 39.50 27.58 41.79 29.03 43.92 C 35.81 39.94 42.13 35.21 48.03 30.02 M 51.43 29.35 C 47.40 31.91 44.19 35.49 40.31 38.26 C 36.80 40.59 33.96 43.73 30.55 46.18 C 33.74 47.94 37.20 49.67 40.96 49.45 C 44.69 49.35 49.51 49.35 51.35 45.39 C 55.23 37.77 58.07 29.64 60.54 21.46 C 57.18 23.71 54.46 26.72 51.43 29.35 M 34.30 52.21 C 36.34 54.33 39.05 55.76 41.96 56.19 C 44.60 56.11 45.86 53.46 47.31 51.66 C 43.08 52.99 38.64 52.26 34.30 52.21 Z" />
<path fill="#ffffff" opacity="1.00" d=" M 74.85 29.88 C 77.40 25.21 79.23 20.20 80.99 15.19 C 81.65 15.64 82.97 16.54 83.63 16.99 C 82.21 22.22 79.87 27.12 77.51 31.98 C 79.10 32.54 80.68 33.08 82.26 33.66 C 82.37 34.19 82.58 35.26 82.69 35.79 C 79.92 36.40 76.29 35.72 74.47 38.44 C 72.70 41.87 71.05 45.43 69.98 49.15 C 76.45 46.55 81.88 41.92 87.38 37.73 C 90.62 40.72 87.19 44.82 87.12 48.40 C 90.83 47.58 94.15 45.40 97.05 43.04 C 99.87 37.60 101.78 31.59 105.81 26.84 C 108.44 23.78 110.92 20.23 114.75 18.60 C 118.20 23.39 114.99 29.02 112.22 33.23 C 109.38 37.70 105.00 40.77 100.98 44.08 C 99.30 45.13 99.65 47.16 99.83 48.82 C 105.62 47.76 110.47 44.26 115.57 41.57 C 118.18 40.24 118.63 37.12 119.82 34.73 C 123.11 27.90 128.15 21.54 135.18 18.33 C 137.94 21.00 135.78 24.77 134.61 27.66 C 131.78 32.91 127.30 37.12 122.46 40.52 C 119.88 42.27 118.69 45.27 118.80 48.32 C 124.79 47.46 129.87 43.96 134.99 40.98 C 137.66 39.53 139.66 37.21 141.98 35.31 C 142.18 36.25 142.58 38.14 142.78 39.08 C 140.72 41.50 138.80 44.06 137.50 46.99 C 141.23 44.91 144.58 42.27 148.04 39.80 C 150.42 43.58 145.45 47.34 148.51 51.06 C 151.66 49.19 154.89 47.03 156.68 43.71 C 158.36 40.48 157.98 36.69 158.95 33.25 C 162.02 36.31 160.02 40.44 159.12 43.95 C 157.93 49.72 152.64 54.23 147.05 55.56 C 145.10 53.00 144.39 49.91 144.60 46.73 C 141.49 49.85 137.71 52.28 133.51 53.64 C 133.64 50.80 134.44 48.08 134.97 45.31 C 129.63 48.32 124.30 51.87 118.19 52.99 C 114.35 52.48 116.01 48.09 115.99 45.51 C 110.50 48.15 105.45 52.17 99.23 52.94 C 97.13 52.33 97.04 49.81 96.15 48.16 C 92.22 50.34 88.28 53.13 83.67 53.45 C 83.69 50.36 84.24 47.33 84.70 44.29 C 78.77 48.18 73.28 52.91 66.68 55.66 C 65.93 49.10 68.58 42.65 71.45 36.89 C 68.24 36.49 64.80 37.28 61.76 35.94 C 61.72 35.10 61.66 33.43 61.63 32.60 C 65.27 32.88 68.95 32.90 72.58 32.39 C 73.69 31.97 74.24 30.82 74.85 29.88 M 102.43 38.92 C 107.30 34.91 112.73 30.26 113.83 23.70 C 108.96 27.79 104.66 32.89 102.43 38.92 M 122.46 36.44 C 127.27 33.33 131.46 28.95 133.50 23.52 C 128.51 26.40 125.26 31.56 122.46 36.44 Z" />
<path fill="#ffffff" opacity="1.00" d=" M 209.09 24.15 C 211.14 21.93 212.73 19.29 215.10 17.36 C 215.72 19.80 215.76 22.32 215.85 24.82 C 220.87 25.36 225.84 24.03 230.85 24.41 C 230.82 26.03 230.67 27.65 230.37 29.24 C 225.05 29.24 219.74 29.45 214.43 29.75 C 212.57 29.60 211.67 31.42 210.52 32.53 C 208.42 35.11 205.35 36.71 203.39 39.41 C 201.34 42.27 200.25 45.70 199.73 49.16 C 204.81 47.93 210.19 46.71 214.36 43.37 C 216.99 40.16 219.55 35.69 224.22 35.63 C 224.08 37.68 224.42 40.21 222.68 41.71 C 220.59 43.49 218.13 44.92 216.70 47.35 C 224.17 44.65 230.71 39.99 237.91 36.69 C 241.07 40.86 238.28 45.97 236.55 50.10 C 242.71 49.57 248.31 46.22 252.26 41.56 C 251.51 40.78 250.75 40.01 249.99 39.24 C 251.05 38.30 252.08 37.32 253.17 36.42 C 256.10 37.63 255.11 41.63 253.77 43.73 C 249.11 49.88 242.03 55.55 233.88 54.75 C 233.31 50.22 236.01 46.32 237.17 42.12 C 228.42 43.56 222.20 51.56 213.24 52.45 C 212.51 51.49 211.82 50.51 211.17 49.50 C 206.74 51.14 202.47 54.19 197.54 53.67 C 196.38 49.94 197.85 46.25 198.68 42.63 C 192.11 46.98 185.51 51.66 177.81 53.74 C 177.45 51.40 177.50 49.04 177.51 46.68 C 173.99 49.27 170.45 51.84 166.82 54.26 C 164.21 54.21 165.46 51.48 166.00 50.00 C 168.16 43.80 172.85 38.82 178.23 35.21 C 179.55 37.18 180.82 39.17 182.10 41.17 C 181.99 43.85 179.99 45.98 179.50 48.59 C 185.14 47.59 189.63 44.16 194.55 41.52 C 198.90 38.58 203.62 35.44 205.29 30.16 C 198.55 30.61 191.29 29.55 185.03 32.53 C 182.93 32.31 180.89 31.76 178.85 31.28 C 179.25 30.02 179.67 28.76 180.09 27.50 C 186.38 26.78 192.70 26.35 199.01 25.90 C 202.38 25.76 206.32 26.62 209.09 24.15 M 174.52 43.14 C 173.37 43.54 172.55 44.27 172.04 45.33 C 172.87 47.52 178.07 42.47 174.52 43.14 Z" />
<path fill="#ffffff" opacity="1.00" d=" M 88.73 31.92 C 87.31 29.01 88.95 26.04 92.20 25.85 C 92.62 28.59 91.88 31.45 88.73 31.92 Z" />
<path fill="#ffffff" opacity="1.00" d=" M 62.45 85.37 C 68.05 72.12 82.61 65.58 96.02 63.43 C 102.22 63.51 106.29 70.24 105.75 75.97 C 104.78 83.91 101.09 91.72 94.76 96.76 C 90.21 100.50 84.97 103.98 79.01 104.73 C 76.75 105.20 75.41 103.32 74.11 101.84 C 71.36 103.82 68.55 105.80 66.53 108.57 C 74.31 114.47 84.47 110.71 93.35 111.85 C 86.90 114.94 79.17 116.01 72.07 114.74 C 68.78 114.33 66.27 111.89 63.15 111.05 C 59.30 113.34 56.57 117.18 52.16 118.62 C 51.81 117.94 51.11 116.57 50.76 115.89 C 54.46 113.48 58.00 110.83 61.28 107.85 C 58.67 100.56 58.58 92.24 62.45 85.37 M 91.01 67.15 C 82.32 70.06 73.68 74.64 68.03 82.04 C 63.96 88.99 60.59 97.69 63.93 105.62 C 69.02 102.43 73.67 98.26 76.89 93.13 C 79.64 95.54 78.15 98.86 77.78 101.90 C 81.66 101.90 84.98 100.35 87.74 97.72 C 93.68 94.89 98.17 89.75 101.05 83.91 C 103.02 79.12 104.73 73.14 101.42 68.52 C 98.98 65.31 94.36 66.24 91.01 67.15 Z" />
<path fill="#ffffff" opacity="1.00" d=" M 132.16 98.21 C 137.31 89.35 142.93 80.77 148.38 72.09 C 148.97 73.33 150.08 74.51 149.89 75.99 C 148.99 84.65 143.98 92.05 138.76 98.72 C 140.56 99.14 142.43 99.35 144.21 99.92 C 145.97 101.72 146.00 104.43 146.71 106.72 C 150.95 106.73 155.08 105.43 159.02 103.96 C 163.06 102.68 164.52 98.32 167.28 95.51 C 167.71 97.15 168.73 98.95 167.69 100.58 C 165.90 103.84 162.91 106.32 161.54 109.84 C 169.60 107.59 177.09 103.69 184.09 99.17 C 184.18 101.06 184.22 102.96 184.21 104.85 C 187.75 103.25 191.41 101.30 195.43 101.89 C 195.69 104.99 195.57 108.10 195.45 111.20 C 199.10 109.60 202.70 107.54 205.45 104.60 C 205.81 102.55 205.89 100.44 206.98 98.59 C 209.15 101.88 209.21 107.31 205.53 109.57 C 201.20 112.24 197.07 115.86 191.76 116.21 C 192.00 112.92 192.79 109.71 193.19 106.45 C 186.77 106.37 181.85 110.86 178.01 115.46 C 177.52 115.42 176.52 115.35 176.02 115.31 C 176.68 112.50 177.88 109.86 178.67 107.10 C 171.94 110.02 165.15 114.47 157.62 114.29 C 158.01 111.98 158.58 109.70 159.10 107.42 C 155.26 107.69 152.12 110.28 148.26 110.47 C 143.08 111.24 137.63 116.19 132.58 112.33 C 131.05 110.86 129.08 111.67 127.26 111.95 C 126.95 110.80 126.66 109.65 126.38 108.49 C 123.06 110.30 119.33 111.14 116.03 112.98 C 113.99 114.15 111.26 113.87 109.29 112.72 C 108.42 111.47 107.97 110.00 107.37 108.62 C 104.47 110.83 101.50 113.08 98.00 114.26 C 96.43 114.38 95.16 113.16 93.74 112.66 C 95.17 108.51 96.03 103.64 100.00 101.06 C 105.40 97.48 111.08 93.16 117.86 93.20 C 120.82 94.03 121.41 97.30 122.40 99.77 C 121.95 100.62 121.07 102.32 120.62 103.16 C 120.05 101.23 119.62 99.26 119.17 97.29 C 116.21 97.03 113.43 98.04 110.76 99.17 C 112.60 102.38 112.38 105.92 111.37 109.35 C 114.66 109.37 117.59 107.71 120.59 106.61 C 124.91 104.60 129.71 102.57 132.16 98.21 M 99.56 108.01 C 103.58 106.59 107.59 104.30 109.47 100.26 C 105.20 101.30 101.88 104.41 99.56 108.01 M 134.27 106.80 C 137.76 107.72 142.00 108.21 144.36 104.85 C 143.42 104.13 142.55 102.70 141.18 103.40 C 138.67 104.04 136.06 104.79 134.27 106.80 Z" />
<path fill="#ffffff" opacity="1.00" d=" M 175.10 81.05 C 175.77 80.02 176.44 79.00 177.12 77.99 C 178.34 80.56 179.51 83.22 179.88 86.08 C 177.45 85.36 176.25 83.10 175.10 81.05 Z" />
</g>
</svg>
