<?xml version="1.0" encoding="UTF-8" ?>
<!DOCTYPE svg PUBLIC "-//W3C//DTD SVG 1.1//EN" "http://www.w3.org/Graphics/SVG/1.1/DTD/svg11.dtd">
<svg width="256pt" height="256pt" viewBox="0 0 256 256" version="1.1" xmlns="http://www.w3.org/2000/svg">
<g id="#ffffffff">
<path fill="#ffffff" opacity="1.00" d=" M 39.15 64.16 C 45.19 59.93 51.19 55.36 58.16 52.79 C 60.96 51.65 63.72 53.48 65.73 55.28 C 71.34 60.82 73.80 69.32 71.95 77.00 C 69.99 85.31 67.34 93.93 61.17 100.14 C 56.75 104.54 51.73 109.62 45.12 109.91 C 40.71 108.34 40.76 102.62 39.76 98.78 C 35.44 105.12 31.17 111.50 26.73 117.77 C 24.40 121.13 21.57 124.15 19.59 127.75 C 22.81 129.31 26.31 130.92 29.99 130.37 C 41.44 128.87 51.78 123.31 61.69 117.71 C 64.27 116.09 67.36 114.61 68.50 111.57 C 70.74 105.87 72.97 100.16 75.58 94.61 C 78.15 89.26 79.34 83.00 83.76 78.74 C 84.76 77.90 85.98 76.54 87.33 77.60 C 88.88 80.58 87.98 84.04 87.05 87.06 C 84.73 94.30 81.82 101.40 78.03 108.00 C 76.29 111.43 71.79 112.53 70.66 116.33 C 74.01 114.51 76.85 111.89 80.24 110.12 C 84.96 114.20 80.43 120.11 81.36 125.20 C 84.97 124.61 88.54 122.51 89.84 118.94 C 92.19 113.32 96.63 108.59 102.28 106.24 C 104.12 105.62 105.87 107.32 106.22 109.04 C 105.22 111.83 103.82 114.48 103.16 117.40 C 102.76 119.46 100.76 121.69 102.28 123.70 C 105.01 125.13 108.17 122.96 110.39 121.40 C 113.04 115.96 116.64 110.55 122.42 108.09 C 122.11 100.82 121.40 92.88 125.40 86.40 C 127.81 82.65 129.81 78.19 133.86 75.93 C 136.53 74.29 140.51 75.35 141.58 78.42 C 143.54 84.15 142.26 90.45 140.08 95.93 C 135.57 107.16 128.23 117.20 119.11 125.15 C 116.98 126.90 114.21 129.52 111.27 128.07 C 108.12 126.37 104.48 127.60 101.08 127.20 C 100.09 125.83 99.11 124.45 98.12 123.08 C 96.01 124.88 94.34 127.21 92.01 128.74 C 90.47 128.35 89.24 127.29 87.96 126.43 C 85.35 128.50 80.62 129.99 78.57 126.41 C 77.49 122.85 78.78 119.03 78.99 115.39 C 73.34 118.40 69.55 123.69 65.03 128.01 C 61.87 126.56 63.35 123.07 63.93 120.54 C 53.31 126.27 42.42 132.66 30.02 133.13 C 25.64 134.00 22.05 131.05 18.12 129.82 C 16.15 131.85 15.30 134.65 13.71 136.94 C 12.42 136.93 11.71 135.91 11.13 134.91 C 12.42 132.21 15.07 130.13 15.62 127.12 C 12.21 121.98 10.15 115.79 11.68 109.61 C 15.90 92.23 24.32 74.87 39.15 64.16 M 43.77 64.76 C 31.67 74.13 23.47 87.51 17.49 101.39 C 14.33 108.72 13.38 117.61 17.06 124.92 C 21.02 120.21 24.83 115.35 28.20 110.19 C 32.51 103.61 37.43 97.34 40.40 89.99 C 40.94 88.08 43.39 90.82 42.96 92.03 C 43.34 97.11 41.94 102.34 43.98 107.23 C 45.91 106.92 48.07 106.99 49.63 105.64 C 54.51 101.92 59.55 98.15 63.05 93.02 C 67.91 85.99 70.03 77.39 70.34 68.94 C 69.98 63.48 66.35 58.71 61.84 55.87 C 54.75 55.74 48.98 60.53 43.77 64.76 M 131.42 83.41 C 128.38 87.77 126.39 92.85 125.49 98.07 C 125.47 102.21 124.64 106.80 127.23 110.41 C 132.87 105.03 135.52 97.39 138.32 90.30 C 139.95 86.48 140.49 82.23 139.20 78.22 C 135.90 78.49 133.24 80.81 131.42 83.41 M 79.06 96.03 C 77.57 100.85 73.78 104.94 73.79 110.17 C 77.76 107.59 78.72 102.52 80.38 98.40 C 81.53 93.22 84.72 88.72 85.33 83.39 C 82.10 86.90 81.06 91.80 79.06 96.03 M 91.70 123.57 C 95.68 120.55 100.11 116.86 100.93 111.64 C 96.06 113.68 93.63 118.99 91.70 123.57 M 114.65 122.33 C 118.89 121.74 121.85 116.99 122.23 112.91 C 119.17 115.39 115.13 118.22 114.65 122.33 Z" />
<path fill="#ffffff" opacity="1.00" d=" M 216.78 84.76 C 217.54 84.01 218.42 82.72 219.69 83.20 C 221.48 86.27 221.62 90.26 220.35 93.57 C 218.71 98.14 216.66 102.71 213.30 106.29 C 210.19 109.48 207.41 112.98 204.50 116.35 C 207.98 115.42 211.27 113.54 214.95 113.55 C 218.18 114.12 217.84 118.10 215.92 119.92 C 214.21 122.54 210.88 121.73 208.27 121.69 C 209.73 122.58 211.23 123.65 213.03 123.61 C 220.90 123.88 229.00 122.70 236.08 119.10 C 240.83 116.79 244.19 111.43 243.50 106.09 C 243.21 104.59 241.50 104.09 240.53 103.11 C 241.68 102.21 242.39 100.30 243.96 100.18 C 246.92 101.44 246.51 105.36 246.59 108.02 C 246.72 114.21 242.07 119.05 237.25 122.26 C 229.86 127.13 220.59 127.44 212.03 127.22 C 207.89 127.18 205.62 123.70 203.04 121.09 C 200.89 123.06 199.61 125.71 197.90 128.03 C 194.07 127.72 196.53 123.26 196.91 121.00 C 191.91 122.33 187.59 126.37 182.21 125.89 C 179.93 125.65 178.69 123.32 179.41 121.23 C 180.93 115.42 185.58 109.13 192.12 109.14 C 192.22 110.72 193.15 113.48 190.64 113.50 C 186.16 114.10 181.88 117.59 182.19 122.45 C 183.52 122.51 184.95 122.83 186.15 122.04 C 189.66 120.19 193.30 118.63 196.86 116.86 C 201.04 114.62 203.22 110.19 205.04 106.02 C 208.43 98.67 211.46 90.98 216.78 84.76 M 211.01 100.96 C 210.15 102.35 209.63 103.90 209.49 105.53 C 214.68 101.85 217.73 95.38 218.22 89.13 C 214.86 92.42 213.25 96.93 211.01 100.96 Z" />
<path fill="#ffffff" opacity="1.00" d=" M 172.10 97.96 C 173.55 95.87 177.25 102.15 174.19 102.60 C 172.35 101.99 170.83 99.79 172.10 97.96 Z" />
<path fill="#ffffff" opacity="1.00" d=" M 142.07 105.82 C 142.46 106.12 143.25 106.71 143.65 107.00 C 142.80 112.69 139.15 117.18 136.92 122.29 C 141.60 120.22 145.31 116.61 149.07 113.26 C 149.64 113.37 150.78 113.61 151.35 113.72 C 150.63 115.90 149.73 118.01 149.17 120.24 C 152.47 118.94 152.21 114.82 153.11 111.97 C 159.15 111.37 165.32 111.61 171.23 109.98 C 173.68 108.74 175.28 112.40 174.27 114.30 C 172.72 117.93 170.37 121.14 168.32 124.48 C 167.45 125.77 166.29 126.03 164.84 125.29 C 165.72 121.00 169.18 117.81 170.46 113.62 C 165.72 113.81 161.01 114.67 156.24 114.32 C 154.19 118.09 153.60 123.40 148.88 124.88 C 146.62 125.47 146.02 122.75 145.03 121.35 C 141.06 123.23 137.52 128.90 132.65 126.12 C 134.30 118.71 139.77 112.99 142.07 105.82 Z" />
<path fill="#ffffff" opacity="1.00" d=" M 43.61 147.62 C 49.45 145.40 55.82 145.19 61.99 145.20 C 72.35 145.40 82.70 145.62 93.04 146.10 C 94.70 146.29 96.31 145.87 97.90 145.47 C 100.17 148.23 103.87 147.28 106.99 147.53 C 114.53 147.99 122.15 149.20 129.67 147.80 C 133.69 147.01 137.96 146.65 141.41 144.19 C 142.13 145.37 142.81 146.58 143.44 147.82 C 139.64 149.87 135.42 151.15 131.11 151.43 C 120.33 152.58 109.53 151.04 98.77 150.41 C 94.90 157.00 92.54 164.35 88.65 170.93 C 91.74 171.39 94.84 171.92 97.96 172.09 C 101.01 172.10 102.69 169.33 104.17 167.10 C 101.26 164.60 103.61 161.53 105.23 159.07 C 106.96 158.85 107.44 160.60 107.52 161.98 C 107.11 166.83 104.80 171.35 101.74 175.06 C 96.91 176.43 91.90 174.65 87.01 174.58 C 83.94 179.34 81.88 184.76 80.11 190.14 C 76.45 188.31 75.47 184.07 72.67 181.38 C 71.52 179.82 68.81 178.29 70.31 176.10 C 71.32 174.50 72.66 176.88 73.57 177.45 C 75.43 179.49 76.90 181.85 78.78 183.88 C 80.29 180.65 82.22 177.55 83.02 174.03 C 81.27 174.11 79.69 174.82 78.16 175.60 C 77.20 174.57 76.37 173.41 75.82 172.11 C 78.06 169.43 81.86 171.83 84.77 171.03 C 86.00 169.37 86.90 167.50 87.83 165.66 C 78.98 167.29 69.91 166.62 61.07 165.28 C 54.52 164.77 47.97 163.11 42.28 159.75 C 39.95 158.33 37.63 155.97 37.73 153.06 C 38.26 150.19 41.21 148.73 43.61 147.62 M 44.77 150.57 C 42.64 151.09 39.99 153.16 41.30 155.59 C 44.45 158.92 49.12 160.00 53.27 161.53 C 61.41 163.04 69.72 163.41 77.99 163.62 C 81.62 163.55 86.07 160.65 88.49 164.83 C 90.46 159.77 93.62 155.04 94.39 149.61 C 87.59 149.36 80.86 148.12 74.04 148.17 C 64.27 148.15 54.20 147.55 44.77 150.57 Z" />
<path fill="#ffffff" opacity="1.00" d=" M 121.67 166.68 C 123.13 165.75 125.59 164.00 126.94 166.03 C 127.77 168.54 127.74 171.30 127.68 173.93 C 126.82 178.39 123.92 182.13 122.81 186.53 C 129.14 183.63 133.37 177.78 137.19 172.20 C 138.62 170.30 138.78 167.86 139.33 165.63 C 141.55 165.18 143.74 164.35 146.04 164.49 C 148.34 164.32 150.04 166.79 149.88 168.90 C 147.99 175.70 141.52 180.27 139.91 187.17 C 148.30 185.79 155.95 180.86 161.62 174.61 C 163.19 173.05 164.05 170.99 165.07 169.08 C 165.56 167.67 167.31 168.81 168.31 168.77 C 168.25 170.29 168.18 171.82 168.11 173.35 C 171.36 171.74 174.28 167.97 178.27 169.46 C 178.72 171.79 179.01 174.14 179.28 176.49 C 182.15 174.72 184.81 172.53 187.99 171.30 C 190.46 171.76 190.08 175.10 190.40 177.01 C 189.86 180.88 188.40 184.55 187.88 188.43 C 193.18 187.91 197.70 184.86 201.95 181.90 C 205.31 179.37 208.64 176.62 211.02 173.12 C 211.93 170.56 211.41 167.70 211.90 165.04 C 212.68 165.11 214.23 165.25 215.00 165.32 C 216.21 171.42 211.98 176.86 208.16 181.14 C 203.54 185.85 197.86 189.57 191.67 191.86 C 189.15 192.95 185.25 191.97 184.76 188.94 C 184.94 184.80 186.55 180.88 187.10 176.79 C 180.57 178.96 176.08 184.44 172.03 189.67 C 169.06 190.14 169.34 186.23 170.55 184.59 C 172.71 181.17 174.72 177.62 175.76 173.68 C 170.50 175.65 167.07 180.38 163.14 184.13 C 160.92 186.18 160.20 191.67 156.33 189.87 C 156.33 188.10 156.50 186.33 156.71 184.58 C 151.15 187.40 145.82 191.95 139.15 191.12 C 135.56 189.49 136.59 184.76 137.98 181.95 C 140.97 177.43 143.99 172.92 146.87 168.32 C 144.90 168.39 142.22 168.04 141.11 170.09 C 137.14 177.11 133.10 184.59 126.35 189.34 C 124.66 190.48 121.57 192.07 120.31 189.57 C 118.54 186.93 120.49 183.98 121.12 181.33 C 116.10 185.04 112.12 190.02 106.91 193.49 C 105.61 189.97 104.37 185.82 106.30 182.28 C 109.63 175.60 115.74 170.93 121.67 166.68 M 116.34 176.35 C 112.61 178.93 109.41 182.54 108.66 187.17 C 113.02 183.73 117.00 179.84 121.30 176.32 C 123.62 174.56 124.73 171.80 125.37 169.05 C 121.70 170.58 118.58 173.07 116.34 176.35 Z" />
</g>
</svg>
