<?xml version="1.0" encoding="UTF-8" ?>
<!DOCTYPE svg PUBLIC "-//W3C//DTD SVG 1.1//EN" "http://www.w3.org/Graphics/SVG/1.1/DTD/svg11.dtd">
<svg width="256pt" height="128pt" viewBox="0 0 256 128" version="1.1" xmlns="http://www.w3.org/2000/svg">
<g id="#ffffffff">
<path fill="#ffffff" opacity="1.00" d=" M 40.56 5.69 C 43.84 4.35 47.00 6.51 49.08 8.91 C 51.41 11.72 53.50 15.19 53.06 18.99 C 52.43 25.24 49.52 30.98 46.22 36.22 C 40.31 45.60 31.62 53.63 20.93 57.07 C 14.84 58.98 8.80 52.12 10.39 46.23 C 10.92 43.16 12.22 38.09 16.19 38.60 C 14.59 41.22 12.41 43.76 12.41 47.01 C 11.72 51.87 17.01 56.28 21.66 54.68 C 25.68 52.96 29.83 51.14 33.02 48.06 C 29.43 48.09 25.32 48.23 22.60 45.42 C 18.88 41.81 19.14 36.00 20.46 31.37 C 23.31 20.67 29.94 10.03 40.56 5.69 M 39.44 8.41 C 30.60 13.41 25.18 22.84 22.45 32.36 C 21.14 36.34 21.52 41.26 24.80 44.18 C 27.45 46.74 31.46 46.70 34.87 46.26 C 39.64 42.91 43.05 37.95 45.91 32.94 C 48.91 27.45 52.01 21.10 50.18 14.71 C 48.71 10.48 44.25 5.43 39.44 8.41 Z" />
<path fill="#ffffff" opacity="1.00" d=" M 93.31 22.33 C 94.87 19.72 97.66 17.26 100.89 17.58 C 103.26 18.73 102.99 21.79 103.13 24.00 C 103.26 31.48 98.13 37.45 94.56 43.57 C 90.33 49.40 85.85 55.73 79.01 58.65 C 75.38 57.86 77.57 53.90 77.91 51.55 C 72.50 53.31 66.95 56.22 61.13 55.33 C 57.17 53.14 59.19 47.84 59.67 44.35 C 54.64 46.41 49.67 49.59 44.04 49.37 C 42.17 49.27 42.13 47.25 41.69 45.91 C 43.16 46.36 44.57 47.03 46.09 47.32 C 50.50 46.43 54.74 44.78 58.72 42.68 C 62.96 40.72 63.52 35.51 66.09 32.06 C 68.28 29.11 69.66 24.51 73.81 23.92 C 75.23 24.64 75.00 26.62 75.14 27.96 C 74.65 33.95 69.18 37.48 65.06 41.06 C 61.78 43.86 61.11 48.44 61.37 52.51 C 67.16 54.39 72.77 50.95 78.19 49.33 C 80.71 48.74 81.99 46.37 83.77 44.75 C 85.64 42.87 88.19 41.99 90.59 41.00 C 88.36 34.72 90.17 27.94 93.31 22.33 M 95.59 23.61 C 92.49 28.76 90.80 35.34 92.96 41.15 C 97.69 35.22 102.60 27.46 100.14 19.60 C 98.35 20.58 96.55 21.74 95.59 23.61 M 66.78 37.10 C 69.98 34.90 72.50 31.63 73.00 27.70 C 69.32 29.33 68.17 33.66 66.78 37.10 M 79.75 55.23 C 83.40 53.08 86.86 50.35 89.14 46.73 C 84.91 47.84 80.62 50.64 79.75 55.23 Z" />
<path fill="#ffffff" opacity="1.00" d=" M 119.48 29.48 C 125.87 26.77 133.00 26.72 139.78 27.55 C 149.79 29.00 159.94 29.35 170.05 29.08 C 172.87 29.11 175.21 27.19 177.99 26.88 C 177.61 28.12 177.68 29.69 176.54 30.55 C 170.66 32.76 164.28 31.95 158.15 32.11 C 156.11 32.78 155.82 35.29 154.84 36.92 C 150.94 44.76 146.20 52.14 141.56 59.55 C 140.63 60.81 139.20 63.44 137.45 61.71 C 135.04 59.64 132.67 57.12 131.91 53.95 C 135.28 53.58 136.62 57.11 138.91 58.84 C 142.81 52.69 146.37 46.34 150.00 40.03 C 151.68 37.51 153.19 34.86 154.03 31.93 C 146.34 31.31 138.67 30.41 130.98 29.78 C 126.88 29.91 122.46 30.38 119.05 32.87 C 124.04 38.21 131.77 38.58 138.53 39.57 C 139.00 39.93 139.94 40.65 140.41 41.00 C 139.80 41.23 138.56 41.69 137.94 41.91 C 133.00 41.32 128.12 40.15 123.37 38.67 C 120.49 37.77 117.69 35.91 116.58 32.99 C 116.67 31.31 118.05 30.12 119.48 29.48 Z" />
<path fill="#ffffff" opacity="1.00" d=" M 219.35 32.19 C 220.02 32.16 221.36 32.11 222.03 32.08 C 219.62 38.15 216.69 44.33 212.10 49.05 C 213.48 43.02 217.27 37.96 219.35 32.19 Z" />
<path fill="#ffffff" opacity="1.00" d=" M 153.65 51.70 C 156.10 48.19 158.89 44.72 162.70 42.63 C 164.86 46.34 169.48 44.53 172.95 44.97 C 176.26 45.76 173.45 49.51 173.22 51.56 C 176.84 49.91 180.21 46.96 184.49 47.66 C 184.75 49.81 184.52 51.97 184.27 54.12 C 188.09 52.56 191.92 50.33 196.22 50.84 C 196.28 53.80 195.73 56.73 195.54 59.68 C 198.28 59.07 200.74 57.69 203.34 56.70 C 201.88 59.16 199.31 60.54 196.94 61.96 C 195.71 62.67 193.91 63.41 193.08 61.74 C 191.68 59.05 193.14 56.03 193.35 53.24 C 188.35 54.02 184.27 57.11 180.92 60.73 C 180.45 60.55 179.52 60.21 179.06 60.04 C 179.29 56.51 181.68 53.53 181.95 49.97 C 175.98 51.92 171.78 56.97 167.89 61.64 C 166.51 61.26 165.93 60.39 166.14 59.00 C 167.28 54.96 169.84 51.53 171.72 47.82 C 168.94 47.09 166.05 47.29 163.21 47.31 C 160.74 53.02 157.88 59.28 152.05 62.26 C 149.70 58.90 151.65 54.71 153.65 51.70 M 153.85 57.29 C 157.41 55.51 159.34 51.53 160.39 47.86 C 157.05 49.96 155.10 53.66 153.85 57.29 Z" />
<path fill="#ffffff" opacity="1.00" d=" M 234.41 52.43 C 238.73 50.50 242.84 48.10 247.16 46.19 C 248.26 45.54 250.29 46.73 249.60 48.10 C 247.82 53.65 246.22 59.85 241.62 63.77 C 241.24 63.85 240.48 64.01 240.10 64.10 C 238.19 62.26 236.16 60.43 234.89 58.06 C 237.00 58.36 238.89 59.35 240.79 60.27 C 242.61 57.20 244.70 54.16 245.29 50.55 C 239.71 52.19 234.94 55.70 229.42 57.49 C 224.72 59.87 219.53 61.18 215.06 64.03 C 213.66 65.06 210.52 65.85 210.72 63.16 C 218.08 58.47 226.63 56.26 234.41 52.43 Z" />
<path fill="#ffffff" opacity="1.00" d=" M 178.93 82.95 C 181.27 78.69 184.31 74.26 189.01 72.42 C 189.38 72.63 190.13 73.06 190.51 73.27 C 190.95 82.96 185.90 91.93 180.96 99.94 C 178.05 103.38 176.11 107.65 172.48 110.45 C 169.03 113.16 165.18 115.51 160.98 116.83 C 158.69 117.66 158.03 114.67 157.33 113.17 C 154.21 113.39 151.70 116.37 148.50 115.61 C 145.55 114.26 147.93 110.70 148.03 108.39 C 144.34 110.15 141.36 112.98 138.77 116.08 C 137.42 116.08 136.66 115.42 136.50 114.09 C 137.51 111.96 138.74 109.93 139.39 107.65 C 134.10 110.73 129.47 114.84 124.00 117.64 C 121.01 115.21 121.84 111.43 122.51 108.16 C 116.79 109.91 111.71 114.57 105.38 113.73 C 103.49 112.22 103.47 109.65 103.11 107.47 C 100.80 107.80 98.58 108.57 96.44 109.45 C 94.21 110.18 93.42 112.64 91.72 114.05 C 89.53 115.53 86.23 113.56 86.08 111.04 C 87.29 107.99 94.18 108.67 91.91 104.32 C 90.40 101.07 87.17 103.53 84.85 104.27 C 83.24 105.42 81.37 102.38 83.29 101.45 C 85.84 99.12 89.62 98.63 91.96 95.97 C 94.56 93.02 97.50 89.95 98.31 85.96 C 93.76 87.85 90.35 91.54 86.45 94.43 C 80.24 98.95 76.84 106.09 71.98 111.84 C 70.56 110.66 70.01 108.93 71.14 107.35 C 74.99 98.86 82.01 91.89 84.38 82.76 C 81.42 84.63 79.66 87.76 77.03 90.00 C 71.36 94.99 66.84 101.25 60.55 105.54 C 55.50 109.07 50.31 112.57 44.48 114.66 C 40.97 116.07 36.72 113.51 36.30 109.78 C 35.79 105.28 38.13 101.14 40.58 97.56 C 43.71 93.38 48.04 89.31 53.58 89.19 C 55.32 91.84 55.91 95.33 54.07 98.10 C 52.51 100.31 50.88 103.49 47.77 103.37 C 49.63 99.44 53.63 96.38 53.22 91.60 C 51.28 91.87 49.29 92.43 47.80 93.78 C 42.72 98.32 37.89 104.68 39.05 111.91 C 44.31 112.81 48.82 109.57 53.22 107.25 C 63.24 101.65 70.86 92.90 79.01 85.01 C 82.39 81.97 84.25 77.53 88.02 74.92 C 90.10 81.30 86.09 87.24 83.83 92.93 C 89.18 89.29 93.83 84.38 99.98 82.07 C 102.31 82.02 101.84 85.08 101.53 86.57 C 100.05 91.96 96.24 96.30 92.07 99.84 C 93.66 101.95 94.85 104.30 95.67 106.80 C 98.59 105.69 101.66 104.94 104.40 103.42 C 106.54 101.08 107.47 97.91 109.37 95.39 C 112.59 90.98 115.04 85.82 119.58 82.55 C 120.67 81.79 122.02 80.64 123.31 81.70 C 124.33 85.80 121.95 89.79 120.50 93.50 C 117.21 97.86 112.95 101.41 108.42 104.43 C 106.48 105.66 106.46 108.14 105.99 110.14 C 111.74 110.77 116.85 107.34 121.59 104.57 C 124.43 103.09 126.54 99.93 130.00 99.96 C 128.79 104.42 125.79 108.16 124.76 112.71 C 131.15 110.60 136.29 105.96 142.13 102.73 C 145.18 102.14 143.00 106.19 143.09 107.74 C 146.10 106.62 148.85 102.88 152.13 103.82 C 152.52 106.71 150.62 109.36 150.06 112.16 C 154.64 111.16 159.66 110.56 163.31 107.33 C 166.24 104.88 170.29 103.39 173.99 105.01 C 172.47 97.25 176.05 89.92 178.93 82.95 M 176.50 100.47 C 182.77 94.15 186.54 85.48 188.02 76.79 C 180.73 82.28 177.82 91.78 176.50 100.47 M 111.76 98.44 C 116.08 95.89 119.73 91.68 120.32 86.54 C 116.39 89.54 113.73 93.97 111.76 98.44 M 161.86 112.95 C 163.97 112.12 166.00 111.09 167.92 109.89 C 168.97 109.12 170.82 108.46 170.35 106.77 C 167.33 108.41 163.22 109.45 161.86 112.95 Z" />
<path fill="#ffffff" opacity="1.00" d=" M 135.21 87.16 C 136.67 86.83 137.42 87.44 137.47 88.99 C 137.06 91.13 135.27 93.04 132.99 93.08 C 133.06 90.98 132.96 88.21 135.21 87.16 Z" />
</g>
</svg>
