<?xml version="1.0" encoding="UTF-8" ?>
<!DOCTYPE svg PUBLIC "-//W3C//DTD SVG 1.1//EN" "http://www.w3.org/Graphics/SVG/1.1/DTD/svg11.dtd">
<svg width="512pt" height="128pt" viewBox="0 0 512 128" version="1.1" xmlns="http://www.w3.org/2000/svg">
<g id="#ffffffff">
<path fill="#ffffff" opacity="1.00" d=" M 94.68 21.63 C 102.47 11.26 113.79 2.69 127.05 1.44 C 133.33 0.27 139.71 1.93 145.32 4.73 C 149.64 7.07 153.44 11.06 154.43 15.98 C 154.46 22.24 152.00 28.33 148.46 33.43 C 141.55 43.21 133.20 51.99 123.69 59.24 C 127.80 58.56 131.26 56.06 135.24 54.97 C 134.54 57.10 132.18 57.59 130.40 58.50 C 124.61 61.16 118.49 62.99 112.68 65.57 C 108.48 66.94 104.45 69.05 99.97 69.33 C 97.28 69.50 94.68 67.86 93.63 65.38 C 91.85 62.06 93.70 58.10 92.15 54.73 C 90.00 49.79 87.98 44.46 88.72 38.98 C 89.65 32.91 90.97 26.67 94.68 21.63 M 112.72 8.77 C 103.38 14.10 94.99 22.45 92.42 33.18 C 91.04 39.63 90.82 47.03 94.77 52.66 C 96.63 50.58 97.79 47.15 101.09 47.16 C 102.69 50.87 97.71 52.66 97.34 55.97 C 99.79 60.48 105.39 61.57 110.01 62.46 C 116.35 60.24 121.94 56.27 127.45 52.49 C 132.04 49.45 135.26 44.94 139.15 41.13 C 144.87 35.16 150.05 28.17 151.89 19.97 C 153.00 15.19 150.61 10.04 146.36 7.66 C 136.09 1.28 122.88 3.19 112.72 8.77 M 95.57 59.68 C 95.79 61.48 95.48 63.66 97.00 64.99 C 99.01 67.00 102.46 66.27 104.55 64.83 C 101.86 62.66 98.46 61.56 95.57 59.68 Z" />
<path fill="#ffffff" opacity="1.00" d=" M 211.06 39.03 C 217.00 31.60 221.62 22.96 229.20 16.96 C 230.59 15.92 232.95 17.58 232.70 19.29 C 232.71 24.08 230.16 28.53 226.69 31.70 C 222.41 36.20 216.09 38.33 212.49 43.54 C 209.18 48.38 205.54 53.01 202.69 58.15 C 205.63 59.88 208.99 58.87 212.11 58.36 C 214.24 57.94 216.44 57.53 218.32 56.38 C 220.18 54.46 221.12 51.72 223.41 50.21 C 225.75 48.11 230.50 50.76 229.32 53.89 C 227.55 56.74 224.05 57.52 221.47 59.38 C 220.62 61.01 222.68 61.77 223.96 61.26 C 229.09 60.09 234.26 58.57 238.75 55.75 C 240.53 54.72 241.06 52.59 241.90 50.86 C 245.86 41.59 252.23 33.41 260.08 27.12 C 261.51 25.97 263.84 24.69 265.16 26.73 C 266.15 29.56 265.63 32.70 264.42 35.38 C 260.33 45.17 251.00 50.94 243.77 58.09 C 249.14 56.82 254.56 55.29 259.24 52.26 C 264.40 49.58 265.89 43.53 269.23 39.19 C 273.36 33.72 276.98 27.42 283.20 24.03 C 284.75 23.01 286.97 24.47 287.34 26.10 C 287.73 29.11 287.69 32.38 286.00 35.01 C 281.29 42.32 273.49 46.60 266.73 51.71 C 264.42 53.39 263.51 56.25 262.98 58.93 C 269.53 58.39 275.12 54.60 280.95 51.93 C 285.51 49.91 289.50 46.84 293.98 44.70 C 298.33 45.10 302.67 44.40 307.02 44.50 C 309.06 44.69 312.33 45.29 312.16 47.99 C 310.45 52.36 307.58 56.34 306.90 61.07 C 312.86 58.22 317.32 53.03 322.95 49.63 C 323.91 50.25 325.06 51.41 324.49 52.66 C 323.16 56.30 322.39 60.12 322.26 63.99 C 325.75 65.53 328.17 61.24 329.57 58.65 C 332.79 53.29 331.58 46.49 334.96 41.23 C 335.32 41.67 336.02 42.53 336.38 42.96 C 336.49 48.27 335.22 53.58 333.69 58.65 C 332.23 63.52 328.33 68.07 323.12 68.86 C 318.51 67.49 318.94 61.43 319.03 57.56 C 313.85 60.21 309.99 66.02 303.85 66.32 C 302.22 59.91 305.45 53.94 307.88 48.25 C 304.48 47.66 300.72 47.10 297.46 48.46 C 295.56 54.30 293.99 60.87 288.73 64.71 C 287.27 66.09 283.91 67.70 283.27 64.72 C 281.59 61.03 284.21 57.70 285.32 54.34 C 277.77 56.97 271.15 62.30 263.05 63.33 C 259.66 63.08 259.39 59.38 258.76 56.82 C 253.81 58.56 249.03 60.88 243.88 62.02 C 242.02 62.36 240.74 60.30 238.94 60.14 C 233.32 61.94 227.95 64.96 221.98 65.38 C 219.05 65.58 218.19 62.40 217.04 60.38 C 212.94 61.72 208.65 62.15 204.36 62.29 C 204.05 67.42 202.47 72.37 199.66 76.67 C 196.14 83.88 191.43 90.67 184.92 95.46 C 181.27 96.65 179.50 92.11 180.45 89.25 C 183.72 78.65 190.51 69.66 196.52 60.48 C 197.85 59.08 197.18 57.19 197.13 55.49 C 201.94 55.78 202.94 50.04 205.02 46.81 C 198.95 48.00 194.58 53.11 188.57 54.49 C 185.75 55.05 182.96 54.04 180.14 53.97 C 176.22 55.74 172.42 58.17 168.04 58.59 C 165.94 58.95 163.97 57.10 164.45 54.97 C 164.67 49.44 169.42 44.39 175.08 44.51 C 176.75 44.21 179.34 45.29 180.00 43.06 C 181.48 39.94 182.92 36.78 184.90 33.94 C 189.45 27.28 194.87 20.29 203.08 18.19 C 205.55 17.69 207.71 19.79 208.30 22.03 C 209.09 26.01 208.02 30.29 205.34 33.35 C 200.60 38.98 194.61 43.35 188.97 48.01 C 188.04 48.71 187.39 49.68 186.90 50.71 C 191.56 51.25 195.34 48.14 199.38 46.40 C 203.38 44.16 208.24 42.92 211.06 39.03 M 188.72 33.74 C 186.01 38.04 182.59 42.61 182.88 47.95 C 187.68 45.24 191.94 41.69 196.21 38.23 C 199.23 35.61 202.59 33.16 204.68 29.67 C 205.98 27.48 205.62 24.86 205.51 22.45 C 204.88 22.27 203.61 21.90 202.97 21.72 C 196.92 23.72 192.51 28.84 188.72 33.74 M 219.74 33.98 C 223.98 31.42 227.68 27.61 229.17 22.79 C 225.05 25.50 222.02 29.68 219.74 33.98 M 281.45 29.46 C 276.91 33.77 272.92 38.82 270.46 44.60 C 274.01 43.51 276.43 40.51 279.18 38.20 C 282.22 35.55 285.00 32.11 285.13 27.89 C 283.78 28.08 282.35 28.33 281.45 29.46 M 257.84 33.81 C 252.81 38.69 248.36 44.39 245.95 51.04 C 251.96 46.80 257.29 41.49 261.14 35.20 C 262.06 33.86 262.18 32.21 262.44 30.66 C 260.75 31.47 259.16 32.47 257.84 33.81 M 168.58 52.39 C 170.85 52.52 173.23 52.42 175.25 51.24 C 176.16 50.62 179.11 49.31 177.11 48.13 C 173.76 47.75 169.98 49.11 168.58 52.39 M 287.04 60.13 C 290.41 58.47 291.93 54.75 293.00 51.36 C 289.64 52.98 288.38 56.91 287.04 60.13 M 195.92 67.97 C 190.88 74.94 186.40 82.49 183.82 90.74 C 186.47 90.07 188.03 87.67 189.78 85.77 C 194.30 80.10 198.48 74.01 201.13 67.23 C 201.98 65.39 201.50 63.37 201.05 61.50 C 198.66 63.05 197.51 65.72 195.92 67.97 Z" />
<path fill="#ffffff" opacity="1.00" d=" M 166.44 19.55 C 172.32 17.77 180.44 23.19 178.80 29.79 C 175.91 35.81 171.51 41.18 165.97 44.93 C 162.53 47.16 159.88 50.47 156.11 52.19 C 152.20 54.19 148.80 57.17 144.66 58.72 C 141.57 60.07 140.79 55.19 137.80 55.06 C 141.73 54.12 142.58 49.74 145.31 47.30 C 147.36 45.18 150.10 44.02 152.68 42.71 C 153.14 39.73 153.46 36.66 154.90 33.96 C 157.70 28.49 160.50 22.22 166.44 19.55 M 163.17 26.18 C 160.11 30.37 157.34 34.98 156.18 40.08 C 155.50 42.82 158.40 44.27 159.93 46.00 C 166.27 41.41 173.09 36.33 176.22 28.92 C 177.48 25.65 173.98 24.06 171.50 23.26 C 168.48 21.32 165.11 23.84 163.17 26.18 M 144.60 54.11 C 147.82 52.91 150.81 51.21 153.86 49.66 C 153.83 48.99 153.77 47.66 153.74 46.99 C 149.57 47.09 146.12 50.40 144.60 54.11 Z" />
<path fill="#ffffff" opacity="1.00" d=" M 346.17 49.15 C 347.96 40.68 353.37 33.42 359.16 27.25 C 361.53 28.18 360.63 30.88 359.24 32.21 C 354.74 37.17 351.09 42.82 347.72 48.59 C 347.33 48.73 346.56 49.01 346.17 49.15 Z" />
<path fill="#ffffff" opacity="1.00" d=" M 368.54 53.65 C 372.71 52.15 376.79 50.42 380.91 48.77 C 381.81 49.35 382.50 50.14 382.95 51.12 C 381.69 56.05 378.08 59.87 375.50 64.13 C 380.81 64.66 386.46 64.80 391.37 62.39 C 396.88 59.69 402.31 55.71 404.33 49.64 C 405.98 50.22 407.53 51.82 406.77 53.69 C 401.85 62.50 392.14 68.55 381.97 68.54 C 377.22 68.78 372.38 67.26 367.72 68.67 C 366.06 69.13 364.04 69.88 362.72 68.29 C 361.34 66.37 360.50 62.30 363.44 61.43 C 365.87 60.91 368.13 63.15 370.53 62.56 C 372.95 60.84 374.95 58.49 376.21 55.79 C 369.16 56.84 362.91 60.56 356.02 62.22 C 353.00 62.89 350.14 64.09 347.17 64.88 C 344.74 64.17 346.32 61.47 348.05 61.00 C 354.68 58.03 361.99 56.87 368.54 53.65 Z" />
<path fill="#ffffff" opacity="1.00" d=" M 270.01 84.02 C 274.99 80.72 276.51 74.37 281.14 70.70 C 284.37 69.69 283.41 73.67 282.06 75.06 C 278.79 79.17 275.68 83.46 273.75 88.39 C 279.73 85.99 285.48 82.43 291.97 81.70 C 296.91 81.92 297.60 88.41 295.95 92.00 C 291.40 100.78 282.76 108.00 272.64 108.81 C 270.96 110.26 272.69 113.52 273.55 115.35 C 274.20 117.42 276.81 117.20 278.46 116.61 C 283.37 114.88 288.24 112.65 292.16 109.16 C 294.79 106.87 295.20 103.08 297.62 100.62 C 299.53 98.65 301.59 96.75 303.97 95.36 C 306.84 95.23 308.52 99.47 306.58 101.50 C 302.29 107.06 293.55 109.86 293.13 117.83 C 298.31 117.56 301.73 113.13 306.28 111.23 C 314.45 107.50 322.51 103.50 330.98 100.45 C 333.95 100.95 333.59 104.66 333.06 106.85 C 332.46 110.93 329.65 114.07 327.59 117.47 C 333.93 116.71 339.34 112.98 344.55 109.55 C 348.72 106.41 353.26 103.46 356.25 99.08 C 347.31 98.53 338.32 97.64 329.68 95.16 C 328.31 94.40 328.04 93.32 328.88 91.92 C 333.25 90.55 337.62 92.96 342.01 93.14 C 347.95 93.50 353.91 95.13 359.87 94.16 C 362.78 93.00 362.68 88.50 365.85 87.84 C 367.64 89.58 366.68 92.15 366.70 94.32 C 373.45 93.54 380.21 92.74 386.96 92.06 C 388.89 91.87 389.24 94.84 387.62 95.61 C 385.25 96.80 382.52 96.89 379.94 97.23 C 374.38 97.61 368.88 98.74 363.28 98.59 C 356.99 104.98 352.28 112.94 349.79 121.57 C 354.73 120.44 358.10 116.40 362.07 113.58 C 364.48 112.72 365.24 116.28 363.44 117.35 C 359.10 120.83 355.05 124.95 349.80 127.05 C 348.55 127.51 346.22 127.77 345.96 125.95 C 344.99 120.59 347.95 115.60 350.01 110.85 C 347.88 111.60 346.25 113.20 344.44 114.48 C 340.83 117.08 336.79 118.99 332.71 120.72 C 328.05 122.75 322.88 122.54 317.97 123.39 C 313.88 123.35 313.36 117.71 315.14 114.99 C 317.66 114.73 318.99 118.81 321.52 117.56 C 325.61 114.51 328.90 110.07 329.98 105.01 C 327.01 105.15 324.38 106.63 321.70 107.74 C 313.60 111.41 305.72 115.56 297.99 119.97 C 295.45 121.30 292.98 123.20 289.95 122.88 C 288.92 120.57 289.48 118.12 289.87 115.75 C 284.79 117.71 279.89 121.44 274.20 120.75 C 269.76 119.73 269.39 114.39 268.39 110.77 C 268.03 107.90 265.79 105.06 267.11 102.20 C 269.61 102.08 270.49 105.34 273.02 105.40 C 282.96 104.42 292.49 96.54 293.77 86.38 C 292.42 85.48 290.87 84.58 289.23 85.29 C 280.23 87.69 271.69 92.55 265.81 99.86 C 261.27 105.56 257.74 111.96 253.83 118.08 C 253.13 118.08 251.73 118.09 251.02 118.09 C 252.01 109.40 259.06 103.45 263.46 96.44 C 265.21 93.51 267.66 91.03 269.08 87.91 C 266.12 89.08 263.79 91.33 261.41 93.36 C 250.78 102.87 238.92 111.23 225.68 116.67 C 222.44 117.98 218.92 119.26 215.40 118.52 C 212.85 118.02 211.43 115.40 211.21 113.00 C 210.38 104.86 213.95 96.41 220.32 91.28 C 226.18 86.38 233.21 82.24 241.01 81.80 C 242.61 81.93 244.15 82.65 245.37 83.69 C 246.69 85.59 245.75 87.96 244.74 89.75 C 241.00 96.11 235.32 100.96 229.97 105.92 C 229.23 106.79 226.71 108.30 226.73 106.07 C 227.33 104.41 228.77 103.24 230.05 102.08 C 235.31 97.95 240.68 93.25 243.34 86.97 C 244.34 85.01 241.20 84.73 239.98 84.62 C 234.55 84.45 229.69 87.51 225.22 90.25 C 218.42 94.78 212.90 102.53 213.71 111.04 C 213.77 113.10 214.72 115.84 217.21 115.85 C 221.96 115.64 226.26 113.28 230.57 111.50 C 237.33 108.68 243.33 104.44 249.45 100.48 C 256.89 95.76 262.92 89.22 270.01 84.02 Z" />
</g>
</svg>
