<?xml version="1.0" encoding="UTF-8" ?>
<!DOCTYPE svg PUBLIC "-//W3C//DTD SVG 1.1//EN" "http://www.w3.org/Graphics/SVG/1.1/DTD/svg11.dtd">
<svg width="256pt" height="256pt" viewBox="0 0 256 256" version="1.1" xmlns="http://www.w3.org/2000/svg">
<g id="#ffffffff">
<path fill="#ffffff" opacity="1.00" d=" M 45.52 59.45 C 48.87 58.50 51.83 55.45 55.53 56.43 C 59.41 57.90 60.87 62.15 62.38 65.65 C 66.27 73.87 64.85 83.52 61.82 91.78 C 59.14 98.52 56.25 105.22 52.46 111.42 C 51.29 113.20 50.71 115.26 50.61 117.39 C 55.06 113.24 58.55 108.11 63.57 104.57 C 63.89 104.71 64.55 104.99 64.87 105.14 C 64.89 105.46 64.94 106.10 64.96 106.42 C 60.48 111.78 55.12 116.43 51.33 122.35 C 48.26 127.38 46.04 133.07 42.00 137.43 C 38.61 137.34 40.28 133.63 40.64 131.62 C 42.07 124.28 46.27 118.01 49.24 111.28 C 53.58 103.32 57.70 95.18 60.52 86.55 C 62.66 80.05 62.27 72.82 59.36 66.62 C 58.11 63.85 56.92 59.55 53.02 60.06 C 46.78 60.79 41.31 64.23 35.48 66.32 C 30.69 67.93 26.50 70.77 22.03 73.03 C 16.79 75.91 12.62 80.32 8.35 84.41 C 5.03 87.76 6.50 92.81 8.53 96.42 C 11.25 101.73 15.42 107.82 22.02 108.06 C 24.20 108.02 26.88 108.28 28.46 106.44 C 31.55 103.64 34.37 100.51 36.19 96.72 C 36.56 97.22 37.28 98.21 37.64 98.71 C 35.05 104.52 30.30 109.78 23.98 111.43 C 20.59 112.16 17.44 110.10 14.86 108.16 C 9.46 103.78 5.62 97.44 4.23 90.63 C 3.25 86.67 6.09 83.30 8.37 80.42 C 13.00 74.63 20.41 72.49 26.20 68.19 C 29.82 65.40 34.04 62.90 38.70 62.66 C 40.91 61.45 43.07 60.13 45.52 59.45 Z" />
<path fill="#ffffff" opacity="1.00" d=" M 149.90 73.91 C 151.53 70.78 157.05 71.90 157.70 75.22 C 158.59 78.76 158.97 82.78 157.03 86.05 C 153.62 91.77 148.61 96.27 144.13 101.13 C 140.65 104.88 138.79 109.76 137.04 114.48 C 142.56 109.95 148.64 105.40 155.99 104.69 C 158.94 104.99 161.87 107.69 161.91 110.77 C 160.64 113.00 158.48 114.79 156.01 115.52 C 153.08 115.74 150.19 114.97 147.28 114.72 C 147.40 117.49 146.43 120.72 148.75 122.85 C 152.30 121.18 155.60 119.04 158.80 116.77 C 161.59 114.76 165.04 114.23 168.26 113.26 C 171.85 110.33 176.11 108.25 179.19 104.69 C 181.04 105.10 183.00 106.06 184.90 105.31 C 190.23 103.27 195.41 100.85 200.65 98.58 C 202.83 97.74 204.11 95.71 205.34 93.85 C 199.07 93.98 192.79 94.02 186.54 94.57 C 185.93 93.06 185.54 91.48 185.40 89.87 C 190.86 88.80 196.48 89.15 202.02 89.09 C 207.22 89.71 213.30 89.20 216.90 84.91 C 219.30 82.49 219.38 78.56 221.97 76.33 C 223.20 76.99 224.36 77.86 225.09 79.09 C 224.91 81.16 224.03 83.09 223.44 85.06 C 224.79 87.14 228.60 88.91 227.17 91.79 C 225.07 94.96 220.89 94.58 217.70 95.71 C 215.88 97.07 215.31 99.42 214.48 101.43 C 212.86 106.20 210.80 110.84 209.74 115.78 C 218.19 112.76 225.04 106.44 232.05 100.98 C 233.15 102.29 234.32 103.59 235.08 105.15 C 233.72 109.57 230.78 113.80 231.43 118.65 C 231.82 118.85 232.60 119.24 233.00 119.44 C 236.65 118.33 240.11 116.45 243.03 113.98 C 245.01 112.46 244.13 109.67 244.58 107.54 C 245.98 108.74 248.01 109.95 247.90 112.06 C 247.78 116.68 243.72 119.80 240.34 122.33 C 237.26 124.17 232.67 126.40 229.57 123.47 C 226.79 119.66 227.62 114.69 227.90 110.30 C 225.14 111.09 222.77 112.77 220.68 114.69 C 217.89 117.41 214.14 118.73 211.11 121.12 C 209.82 121.96 208.32 123.53 206.71 122.45 C 204.85 121.00 205.11 118.35 205.34 116.28 C 206.91 109.08 209.85 102.28 211.93 95.23 C 207.80 97.12 204.93 100.95 200.68 102.67 C 195.11 104.58 191.03 109.44 184.92 110.02 C 185.70 112.81 187.28 115.83 185.87 118.70 C 184.00 122.12 182.91 126.69 178.80 128.11 C 176.61 129.28 173.97 127.72 173.48 125.41 C 172.10 121.99 173.62 118.44 174.19 115.03 C 170.39 116.04 166.79 117.66 163.21 119.23 C 157.98 122.33 153.81 128.21 147.20 128.18 C 143.19 125.22 144.74 119.59 143.16 115.44 C 137.23 117.75 134.60 124.42 131.97 129.77 C 131.22 129.69 129.70 129.53 128.95 129.45 C 127.69 123.77 131.61 118.76 132.65 113.36 C 127.31 115.86 124.14 121.19 119.04 124.05 C 113.86 127.16 108.54 131.44 102.17 131.03 C 97.77 129.81 97.91 124.45 96.39 120.99 C 91.68 124.49 86.90 128.38 81.01 129.62 C 77.70 129.85 76.95 125.67 77.34 123.15 C 78.69 113.88 84.71 106.25 87.25 97.36 C 87.91 94.82 87.93 92.14 87.38 89.58 C 85.57 89.97 83.68 90.19 82.05 91.12 C 76.10 94.60 71.08 99.41 66.44 104.45 C 66.11 104.36 65.44 104.18 65.11 104.10 C 64.18 101.25 66.70 99.05 69.05 98.05 C 72.61 96.47 74.81 93.14 77.48 90.48 C 79.71 88.24 83.49 88.22 85.02 85.20 C 86.85 86.41 89.10 86.93 90.80 88.35 C 91.98 93.46 90.51 98.74 88.60 103.49 C 87.83 106.49 86.55 109.32 84.86 111.91 C 82.35 115.68 81.63 120.21 80.62 124.53 C 85.77 124.02 90.22 121.20 94.38 118.36 C 96.19 117.14 97.55 115.37 98.34 113.35 C 99.88 109.31 103.20 106.42 105.97 103.24 C 107.81 104.47 110.65 106.07 109.78 108.74 C 108.27 112.01 105.78 114.74 103.12 117.13 C 100.21 119.46 99.58 124.50 102.95 126.74 C 108.68 125.22 113.69 121.97 118.25 118.28 C 124.47 115.12 129.69 110.49 134.67 105.70 C 137.58 104.12 137.57 100.62 138.98 97.99 C 142.99 90.13 144.55 81.09 149.90 73.91 M 153.62 77.65 C 149.90 81.82 147.25 87.10 146.89 92.74 C 152.02 88.91 157.21 83.55 156.11 76.54 C 155.49 76.82 154.24 77.37 153.62 77.65 M 177.05 119.09 C 176.82 120.57 177.49 121.44 179.05 121.70 C 181.05 119.87 181.73 117.13 182.66 114.68 C 183.57 113.16 182.18 112.05 181.27 111.01 C 179.55 113.51 177.75 116.08 177.05 119.09 Z" />
<path fill="#ffffff" opacity="1.00" d=" M 244.48 83.91 C 245.66 82.51 246.85 81.13 248.04 79.74 C 249.35 80.73 250.61 81.78 251.84 82.87 C 250.59 84.94 249.27 86.97 248.02 89.03 C 247.07 88.60 246.13 88.17 245.18 87.75 C 244.95 86.47 244.72 85.19 244.48 83.91 Z" />
<path fill="#ffffff" opacity="1.00" d=" M 95.29 142.62 C 96.89 144.03 99.12 146.21 97.50 148.45 C 93.87 154.60 91.08 161.18 87.37 167.28 C 96.25 161.31 105.32 154.64 116.07 152.68 C 120.35 151.74 122.30 156.82 123.27 160.08 C 123.95 165.99 119.47 170.79 116.31 175.31 C 113.20 181.00 107.16 184.02 101.71 187.02 C 97.40 187.37 93.29 188.73 89.14 189.87 C 90.85 193.14 92.70 196.34 94.25 199.70 C 94.89 200.86 95.40 202.60 97.04 202.60 C 100.56 201.71 103.22 199.09 106.30 197.33 C 109.64 195.37 112.91 193.30 116.07 191.08 C 121.69 187.82 128.34 185.71 132.70 180.70 C 134.34 177.00 138.88 178.91 142.01 178.16 C 150.45 176.78 159.00 176.04 167.56 176.48 C 168.28 177.40 168.85 178.43 169.43 179.44 C 163.56 182.04 158.44 186.77 156.57 193.03 C 156.51 195.02 155.60 198.16 158.17 198.94 C 159.52 199.62 160.94 198.83 162.21 198.36 C 169.37 195.08 176.24 191.18 182.70 186.69 C 186.62 184.05 190.97 181.36 192.63 176.66 C 196.35 167.33 200.74 158.05 207.43 150.46 C 209.12 148.61 212.34 147.44 214.46 149.27 C 217.32 151.63 216.19 155.75 216.32 158.98 C 213.75 161.92 212.72 166.28 209.05 168.07 C 206.94 169.30 205.63 171.40 204.30 173.36 C 201.56 177.61 196.70 180.06 194.54 184.75 C 200.37 182.15 205.91 177.74 212.67 178.38 C 215.50 178.72 216.65 182.38 214.43 184.28 C 211.28 188.72 205.49 188.02 200.88 189.45 C 201.47 193.07 202.08 198.02 206.01 199.49 C 212.44 199.82 219.00 197.87 224.45 194.49 C 228.49 192.24 231.03 188.35 234.04 185.00 C 235.15 186.33 236.63 187.87 236.02 189.77 C 232.55 194.11 228.10 197.83 222.81 199.70 C 220.29 200.46 218.57 203.39 215.67 202.60 C 211.57 203.00 207.10 205.05 203.14 202.75 C 198.72 199.99 197.28 194.70 196.01 189.98 C 191.79 193.62 189.43 198.76 186.95 203.62 C 185.28 202.93 183.05 202.24 183.12 200.03 C 183.97 196.77 185.51 193.74 186.38 190.49 C 183.73 191.69 180.97 192.81 178.74 194.73 C 176.06 196.99 172.51 197.75 169.57 199.59 C 166.05 201.36 162.36 204.28 158.18 203.01 C 153.91 202.07 151.09 197.33 152.10 193.12 C 153.19 188.76 155.73 184.99 157.43 180.87 C 151.63 179.62 146.00 181.82 140.38 182.94 C 142.82 191.45 138.77 202.12 129.89 204.89 C 126.74 204.49 125.01 200.91 125.59 198.01 C 126.32 194.23 128.28 190.85 129.31 187.16 C 125.19 189.98 119.94 190.74 116.31 194.30 C 111.97 198.10 106.79 200.72 102.22 204.20 C 99.67 206.31 95.96 206.49 93.05 205.06 C 89.04 201.78 89.22 195.87 85.90 192.08 C 84.09 189.65 80.91 189.01 78.72 187.04 C 80.62 182.87 84.84 187.21 88.00 186.41 C 100.02 184.51 112.13 177.64 117.09 166.06 C 118.78 162.96 119.28 159.40 118.20 156.01 C 116.16 156.03 114.15 156.46 112.32 157.37 C 108.89 159.04 104.96 159.58 101.75 161.71 C 96.84 165.08 91.62 168.13 87.62 172.64 C 80.70 177.95 76.41 185.70 72.21 193.17 C 71.29 194.92 71.18 196.95 70.57 198.82 C 68.84 200.38 66.79 198.31 65.99 196.76 C 65.74 193.05 68.20 189.94 69.87 186.84 C 75.18 178.63 80.83 170.50 84.51 161.40 C 82.78 162.23 81.15 163.26 79.46 164.16 C 80.40 161.14 83.15 159.38 85.10 157.08 C 89.13 152.72 91.82 147.39 95.29 142.62 M 209.66 156.68 C 206.46 160.36 204.07 164.73 202.51 169.34 C 207.63 166.07 212.14 161.14 212.84 154.87 C 211.68 155.27 210.41 155.61 209.66 156.68 M 131.48 196.80 C 135.36 195.49 136.20 190.87 136.55 187.30 C 134.24 190.06 132.06 193.16 131.48 196.80 Z" />
<path fill="#ffffff" opacity="1.00" d=" M 35.97 164.94 C 39.17 161.75 42.66 157.27 47.78 158.22 C 53.68 158.95 56.41 166.30 54.23 171.27 C 51.60 174.49 50.82 178.83 47.78 181.76 C 44.85 184.50 42.99 188.36 39.52 190.49 C 37.65 191.34 36.37 189.59 35.26 188.39 C 40.46 185.33 44.15 180.42 47.63 175.62 C 49.95 172.08 52.85 167.95 51.47 163.50 C 51.11 161.20 48.27 160.88 46.43 161.42 C 43.45 162.05 41.99 165.03 39.62 166.65 C 34.21 170.12 30.47 175.48 25.94 179.93 C 23.35 184.50 20.25 190.11 22.56 195.42 C 23.84 198.79 27.47 200.85 31.01 200.47 C 36.72 199.70 41.86 196.83 46.47 193.50 C 49.75 191.08 53.54 189.34 56.43 186.42 C 59.49 183.46 63.23 181.29 66.05 178.07 C 68.90 174.78 71.88 171.58 75.23 168.80 C 74.93 175.29 68.01 177.94 64.83 182.87 C 56.53 190.76 47.61 198.44 36.84 202.78 C 26.83 206.98 14.50 195.16 19.00 184.95 C 22.86 176.99 29.18 170.49 35.97 164.94 Z" />
<path fill="#ffffff" opacity="1.00" d=" M 75.92 169.39 C 76.40 166.95 77.64 164.65 80.46 164.65 C 79.99 167.02 78.25 168.79 75.92 169.39 Z" />
</g>
</svg>
