<?xml version="1.0" encoding="UTF-8" ?>
<!DOCTYPE svg PUBLIC "-//W3C//DTD SVG 1.1//EN" "http://www.w3.org/Graphics/SVG/1.1/DTD/svg11.dtd">
<svg width="256pt" height="128pt" viewBox="0 0 256 128" version="1.1" xmlns="http://www.w3.org/2000/svg">
<g id="#ffffffff">
<path fill="#ffffff" opacity="1.00" d=" M 28.77 11.77 C 33.71 7.60 40.20 6.17 46.32 4.65 C 49.10 3.91 52.56 3.98 54.13 6.82 C 57.03 14.42 55.83 23.12 52.32 30.32 C 48.96 37.13 44.83 43.54 41.81 50.51 C 46.16 48.50 48.70 44.26 52.04 41.03 C 57.60 35.57 62.34 29.38 67.87 23.89 C 71.60 20.11 74.74 15.83 78.14 11.77 C 79.11 13.16 79.63 14.77 79.86 16.45 C 74.54 20.21 70.83 25.71 66.29 30.30 C 57.77 39.14 50.60 49.42 40.56 56.65 C 39.13 57.99 36.89 57.21 37.42 55.06 C 40.85 46.04 45.43 37.49 49.92 28.95 C 53.47 22.92 54.86 15.34 52.32 8.68 C 51.78 7.41 50.03 7.62 48.91 7.32 C 42.98 6.91 37.43 9.68 32.32 12.35 C 29.67 13.64 27.54 16.01 26.92 18.93 C 28.31 23.65 34.19 26.52 38.81 24.87 C 40.24 24.66 41.98 23.53 43.06 25.06 C 42.63 27.58 39.89 28.25 37.74 28.54 C 32.51 29.05 26.93 25.70 25.30 20.63 C 24.45 17.30 26.22 13.86 28.77 11.77 Z" />
<path fill="#ffffff" opacity="1.00" d=" M 127.05 17.04 C 127.63 15.73 128.92 15.14 130.27 14.89 C 130.23 16.66 130.19 18.54 129.07 20.02 C 126.51 23.80 124.54 27.92 122.64 32.05 C 127.56 32.07 132.44 31.45 137.24 30.38 C 138.98 29.90 140.49 31.03 141.88 31.89 C 135.55 36.66 127.41 35.97 119.98 36.88 C 118.25 41.11 115.04 44.96 115.03 49.70 C 119.92 49.81 123.97 46.63 128.55 45.39 C 133.09 44.20 134.67 38.91 139.03 37.44 C 140.88 36.95 143.00 38.03 143.35 39.99 C 142.73 43.56 138.89 44.71 136.04 46.03 C 133.45 47.02 132.39 49.77 131.52 52.17 C 139.01 50.05 143.65 42.84 151.06 40.58 C 154.06 39.84 156.80 42.96 156.06 45.84 C 155.12 49.92 151.95 53.12 151.39 57.34 C 155.74 57.76 159.86 55.78 163.42 53.47 C 164.83 52.54 165.16 50.72 166.04 49.37 C 166.97 50.61 168.57 51.96 167.80 53.69 C 166.11 58.27 160.83 59.38 156.80 61.03 C 153.86 62.04 149.41 62.22 148.01 58.78 C 147.60 53.37 152.02 49.25 153.12 44.18 C 148.82 43.94 145.92 47.45 142.66 49.64 C 139.19 53.28 134.88 56.20 130.04 57.63 C 126.33 56.31 127.65 51.97 128.29 49.15 C 124.05 50.58 120.04 52.62 115.80 54.08 C 114.02 54.92 111.17 53.97 111.15 51.74 C 110.86 46.61 113.77 42.09 115.70 37.53 C 111.48 37.30 107.28 37.97 103.06 37.68 C 99.57 37.37 95.79 37.98 92.70 35.93 C 93.19 34.99 93.74 34.07 94.34 33.18 C 102.30 32.99 110.64 34.44 118.39 32.42 C 121.51 27.44 123.95 22.05 127.05 17.04 M 133.75 45.01 C 136.43 43.74 139.46 42.42 140.87 39.64 C 137.90 40.46 135.48 42.52 133.75 45.01 Z" />
<path fill="#ffffff" opacity="1.00" d=" M 184.07 16.09 C 187.74 18.24 185.69 22.56 184.61 25.64 C 182.44 30.48 180.10 36.30 174.66 38.16 C 175.55 34.65 178.45 32.19 179.89 28.94 C 182.07 24.93 182.69 20.38 184.07 16.09 Z" />
<path fill="#ffffff" opacity="1.00" d=" M 72.38 37.29 C 75.41 35.60 78.26 40.01 76.78 42.66 C 74.59 47.72 68.25 48.80 65.52 53.47 C 73.77 51.82 81.04 47.13 87.11 41.45 C 88.78 43.74 87.78 46.35 87.04 48.77 C 89.38 48.08 91.86 44.70 94.28 46.65 C 95.55 49.98 93.51 54.09 96.25 56.96 C 99.29 56.40 102.09 55.06 105.04 54.24 C 103.53 56.98 100.66 58.73 97.70 59.51 C 95.80 59.97 93.23 59.57 92.56 57.44 C 91.91 55.21 91.85 52.85 91.50 50.56 C 87.41 51.91 85.15 55.77 81.89 58.26 C 81.37 58.25 80.32 58.23 79.80 58.22 C 80.42 55.08 81.87 52.21 83.16 49.31 C 78.31 51.69 73.56 54.25 68.81 56.81 C 67.23 57.76 65.34 57.61 63.57 57.74 C 63.05 56.68 62.53 55.61 62.01 54.54 C 59.75 55.70 57.46 56.87 54.96 57.43 C 51.63 56.98 53.54 53.57 54.99 52.11 C 55.70 52.70 56.41 53.30 57.12 53.90 C 59.63 52.27 63.08 51.35 64.21 48.29 C 65.93 44.04 68.22 39.59 72.38 37.29 M 67.27 48.33 C 69.64 45.61 73.87 43.86 74.17 39.91 C 70.58 41.30 68.80 45.05 67.27 48.33 Z" />
<path fill="#ffffff" opacity="1.00" d=" M 225.83 43.71 C 227.00 42.15 229.32 44.43 228.09 45.76 C 224.76 50.81 222.87 56.96 218.09 60.92 C 215.80 59.73 214.10 57.81 214.91 55.08 C 216.24 55.44 217.57 55.85 218.90 56.24 C 220.14 54.07 221.41 51.92 222.31 49.58 C 213.68 53.59 204.61 56.67 196.20 61.18 C 190.23 64.21 183.92 66.62 178.31 70.31 C 175.84 71.82 173.59 73.86 170.66 74.42 C 171.03 73.03 171.06 71.28 172.52 70.53 C 185.68 61.89 200.41 56.15 214.69 49.68 C 218.33 47.50 222.96 47.10 225.83 43.71 Z" />
<path fill="#ffffff" opacity="1.00" d=" M 49.81 68.79 C 55.16 65.18 61.69 63.95 67.95 62.89 C 72.66 62.03 77.30 63.76 82.00 63.34 C 88.85 62.83 95.28 65.59 101.75 67.34 C 106.50 68.58 111.00 71.11 114.13 74.94 C 116.38 77.72 116.78 81.82 115.04 84.96 C 110.88 92.67 103.51 98.21 95.68 101.82 C 92.31 103.57 88.14 102.52 84.86 103.98 C 80.77 109.52 77.17 115.45 72.96 120.93 C 71.15 118.72 70.06 116.01 68.15 113.89 C 66.85 113.01 65.44 112.29 64.35 111.14 C 68.25 109.32 71.23 112.31 73.17 115.33 C 78.24 109.23 81.65 101.88 86.80 95.80 C 90.62 91.28 93.40 86.04 96.30 80.92 C 97.48 82.93 98.22 85.51 96.72 87.57 C 93.72 91.57 90.27 95.31 88.08 99.85 C 94.58 99.04 100.69 95.92 105.35 91.34 C 108.40 88.48 112.38 85.57 112.57 80.99 C 112.75 77.91 110.30 75.55 107.86 74.09 C 98.01 68.16 86.31 66.32 74.99 65.85 C 66.59 65.67 57.74 66.91 50.56 71.55 C 45.41 75.30 45.25 83.71 50.45 87.49 C 56.77 91.67 64.14 94.45 71.77 94.64 C 73.37 94.51 75.16 96.01 73.86 97.56 C 67.14 99.33 60.86 95.78 54.44 94.50 C 51.62 93.24 49.35 90.97 47.10 88.91 C 41.49 83.30 43.49 73.06 49.81 68.79 Z" />
<path fill="#ffffff" opacity="1.00" d=" M 128.68 87.64 C 129.93 86.38 132.71 84.92 133.46 87.47 C 134.86 92.82 130.70 97.63 127.20 101.19 C 124.11 104.47 120.68 107.39 117.14 110.16 C 114.95 111.75 115.29 114.72 115.21 117.09 C 122.74 117.40 128.76 110.09 136.48 111.49 C 139.95 108.48 143.22 104.40 148.31 104.54 C 148.43 106.55 148.36 108.57 148.64 110.57 C 149.41 113.68 147.02 116.66 148.50 119.73 C 151.93 119.29 155.34 118.60 158.67 117.67 C 160.50 117.22 161.31 115.46 161.72 113.80 C 163.08 108.73 166.86 103.99 171.98 102.45 C 174.42 103.21 175.31 105.87 174.34 108.10 C 173.05 107.79 171.76 107.48 170.46 107.21 C 167.65 109.75 163.17 112.84 164.80 117.23 C 169.78 116.37 174.67 115.03 179.55 113.72 C 181.97 108.62 185.10 103.06 191.04 101.62 C 195.13 101.85 195.65 107.17 193.96 109.99 C 191.56 112.89 187.61 113.79 184.83 116.25 C 189.96 116.48 195.08 114.86 199.69 112.68 C 203.16 111.11 205.28 107.83 208.18 105.51 C 209.89 110.29 205.18 113.44 201.98 116.00 C 195.22 119.81 185.77 123.47 178.90 118.02 C 173.15 119.82 166.69 122.66 160.81 119.92 C 157.02 120.49 153.79 123.44 149.91 123.75 C 146.38 123.25 145.54 119.08 144.50 116.27 C 140.63 118.99 136.71 121.97 131.98 122.97 C 130.50 119.64 133.09 116.70 134.37 113.81 C 129.06 116.43 123.85 119.31 118.26 121.28 C 116.46 122.02 114.03 121.90 112.95 120.06 C 112.01 118.06 112.01 115.77 111.53 113.63 C 106.79 115.81 102.17 118.44 96.98 119.39 C 95.29 119.33 93.55 118.82 92.15 117.86 C 90.18 115.59 90.58 111.42 93.29 109.89 C 93.29 111.69 93.25 113.50 93.18 115.30 C 98.06 116.23 102.38 113.48 106.67 111.66 C 109.64 110.19 113.08 108.90 114.79 105.84 C 118.55 99.18 123.23 93.02 128.68 87.64 M 122.16 100.62 C 125.78 98.77 128.53 95.38 129.86 91.55 C 126.65 93.92 124.08 97.14 122.16 100.62 M 185.29 111.07 C 187.17 110.37 188.99 109.53 190.80 108.67 C 190.82 107.98 190.85 106.60 190.87 105.91 C 188.49 106.98 186.15 108.44 185.29 111.07 M 137.58 115.83 C 140.43 114.52 143.39 112.82 144.71 109.81 C 141.87 111.17 139.24 113.10 137.58 115.83 Z" />
</g>
</svg>
