<?xml version="1.0" encoding="UTF-8" ?>
<!DOCTYPE svg PUBLIC "-//W3C//DTD SVG 1.1//EN" "http://www.w3.org/Graphics/SVG/1.1/DTD/svg11.dtd">
<svg width="256pt" height="256pt" viewBox="0 0 256 256" version="1.1" xmlns="http://www.w3.org/2000/svg">
<g id="#ffffffff">
<path fill="#ffffff" opacity="1.00" d=" M 231.84 44.02 C 233.02 40.40 234.28 35.38 238.67 34.66 C 237.46 38.19 235.31 41.32 234.50 45.02 C 238.06 48.94 239.61 54.20 238.36 59.39 C 242.10 56.48 245.07 52.76 248.42 49.44 C 249.28 48.30 250.72 48.04 252.00 47.63 C 250.91 52.04 247.36 55.19 244.51 58.53 C 241.12 62.65 236.00 64.79 231.04 66.35 C 229.96 65.18 229.96 63.49 229.62 62.03 C 231.56 61.26 234.32 61.54 235.44 59.43 C 237.00 57.08 236.11 54.03 235.34 51.55 C 233.50 49.44 230.94 47.16 231.84 44.02 Z" />
<path fill="#ffffff" opacity="1.00" d=" M 223.64 38.80 C 222.11 37.42 225.82 35.23 226.26 37.54 C 227.60 39.43 228.50 41.81 227.51 44.07 C 226.09 42.41 224.71 40.71 223.64 38.80 Z" />
<path fill="#ffffff" opacity="1.00" d=" M 218.51 67.49 C 220.78 62.86 222.21 57.76 225.47 53.66 C 226.13 60.02 225.63 67.23 221.21 72.27 C 220.30 73.44 218.50 73.92 217.22 73.04 C 214.36 71.34 213.14 68.05 211.33 65.43 C 207.86 68.77 205.44 72.98 202.65 76.85 C 200.72 78.14 198.78 75.80 198.78 73.95 C 198.56 71.29 198.74 68.61 198.64 65.95 C 198.52 64.67 198.89 62.83 197.15 62.58 C 193.96 64.44 191.04 66.96 189.18 70.19 C 189.18 72.57 191.85 74.39 191.22 76.91 C 190.23 81.09 187.86 84.95 184.79 87.92 C 182.27 88.07 180.67 85.69 178.79 84.40 C 172.94 89.42 168.45 96.41 160.94 99.23 C 158.89 99.36 157.02 98.27 155.03 97.99 C 151.42 99.52 150.21 103.95 146.70 105.67 C 143.86 107.10 141.09 108.65 138.62 110.66 C 136.86 112.34 134.32 111.52 132.16 111.61 C 131.21 118.07 132.11 124.54 132.74 130.97 C 131.13 130.58 128.80 130.92 128.06 129.04 C 125.00 122.13 128.60 114.58 126.72 107.46 C 123.02 111.01 122.90 117.60 117.63 119.68 C 114.63 121.02 112.21 118.11 109.95 116.63 C 108.64 119.44 107.48 122.32 106.00 125.04 C 105.10 126.98 102.34 126.07 101.65 124.47 C 101.01 122.14 100.64 119.74 99.95 117.43 C 95.26 121.43 94.20 127.83 91.91 133.24 C 90.94 132.83 90.00 132.38 89.09 131.87 C 87.77 128.19 87.86 124.13 86.18 120.54 C 83.76 122.11 81.05 123.53 79.40 125.98 C 80.98 130.90 81.60 136.72 78.11 141.02 C 76.67 143.63 72.93 144.67 70.76 142.32 C 69.41 139.78 68.89 136.90 67.80 134.25 C 64.83 136.48 62.74 139.63 60.83 142.76 C 56.99 147.91 52.99 152.95 48.84 157.86 C 43.57 164.40 36.43 169.09 29.30 173.35 C 26.79 176.38 27.68 181.60 23.74 183.46 C 23.12 180.16 24.40 176.97 24.80 173.74 C 19.29 171.69 13.54 168.63 11.06 162.99 C 6.73 152.99 9.31 141.77 13.06 132.02 C 17.24 122.60 21.05 112.77 27.81 104.82 C 32.67 98.78 38.56 91.87 46.99 91.73 C 52.61 92.24 58.92 93.76 62.35 98.66 C 64.93 102.99 63.91 108.35 63.06 113.04 C 60.69 121.71 55.65 129.33 50.91 136.86 C 49.51 138.85 47.94 141.83 45.06 141.39 C 42.65 140.36 41.07 138.09 38.95 136.63 C 36.95 145.73 34.06 154.60 31.75 163.63 C 31.37 165.05 31.32 166.52 31.25 167.99 C 37.70 165.43 42.59 160.19 47.16 155.15 C 53.29 148.89 58.66 141.94 64.01 135.02 C 66.90 131.56 68.12 127.14 70.35 123.29 C 72.01 122.33 74.03 123.58 75.85 123.20 C 79.25 121.16 81.97 117.81 85.99 116.92 C 88.57 117.32 90.14 119.68 91.90 121.37 C 94.06 117.98 95.62 113.47 99.83 112.15 C 101.70 113.09 103.24 114.54 104.93 115.74 C 106.86 112.85 107.88 109.06 110.94 107.12 C 114.36 108.45 114.09 112.39 114.99 115.33 C 117.50 115.16 118.48 112.50 119.68 110.68 C 122.71 104.71 125.37 98.47 126.82 91.92 C 128.09 86.18 127.20 80.32 127.20 74.52 C 129.33 74.43 131.94 75.53 131.77 78.05 C 132.03 85.68 131.65 93.31 131.86 100.94 C 134.85 99.48 137.21 96.07 140.78 96.21 C 143.61 96.70 143.38 99.99 144.23 102.09 C 149.23 97.74 153.06 92.20 156.73 86.72 C 158.80 83.71 159.90 80.09 162.30 77.30 C 166.99 77.18 167.36 82.73 169.37 85.74 C 169.69 85.72 170.33 85.67 170.65 85.65 C 174.56 82.09 177.50 77.66 180.00 73.04 C 183.83 70.52 185.84 66.21 189.42 63.39 C 192.45 60.86 195.47 57.07 199.88 57.65 C 203.44 59.02 202.61 63.51 203.47 66.48 C 206.55 64.59 208.76 61.32 212.05 59.90 C 215.71 60.73 215.31 65.63 216.66 68.39 C 217.12 68.17 218.05 67.72 218.51 67.49 M 184.84 80.12 C 186.08 78.60 188.64 74.55 184.98 74.46 C 183.53 76.07 184.21 78.33 184.84 80.12 M 158.62 93.99 C 162.94 93.78 164.25 89.20 163.80 85.58 C 160.65 87.13 159.47 90.84 158.62 93.99 M 43.40 95.41 C 36.64 98.53 31.47 104.36 27.50 110.54 C 21.65 119.58 16.85 129.37 13.86 139.73 C 12.09 146.86 11.19 154.75 14.22 161.67 C 15.83 165.57 18.92 169.15 23.06 170.35 C 25.75 170.75 26.94 167.76 27.63 165.72 C 29.41 159.99 31.19 154.26 32.58 148.43 C 34.15 140.86 37.41 133.68 37.94 125.89 C 38.43 125.80 39.42 125.62 39.91 125.53 C 42.23 127.70 40.78 131.43 41.91 134.20 C 42.42 135.82 43.40 139.02 45.62 137.73 C 48.56 134.86 50.56 131.21 52.76 127.77 C 57.12 120.17 61.55 111.98 61.26 102.94 C 61.32 100.09 59.83 96.95 56.86 96.24 C 52.50 95.27 47.77 93.66 43.40 95.41 M 137.32 101.86 C 136.26 102.31 135.60 104.41 137.07 104.75 C 139.13 105.24 139.58 101.15 137.32 101.86 M 73.35 130.37 C 71.98 133.37 72.71 136.70 74.11 139.54 C 76.20 137.13 78.11 133.58 76.64 130.42 C 76.22 128.83 73.72 128.70 73.35 130.37 Z" />
<path fill="#ffffff" opacity="1.00" d=" M 201.75 89.72 C 203.52 87.29 205.64 84.05 209.07 84.36 C 214.53 84.00 218.87 88.56 220.55 93.38 C 222.39 100.70 221.00 108.21 220.23 115.57 C 218.32 123.64 214.96 131.39 210.24 138.21 C 208.82 139.95 207.38 142.07 205.04 142.58 C 202.95 140.81 202.79 137.89 201.83 135.50 C 195.32 137.98 193.31 145.98 187.01 148.55 C 184.28 146.85 183.92 143.28 182.04 140.86 C 179.80 144.75 179.12 149.35 176.80 153.17 C 175.28 154.43 174.00 152.51 173.69 151.19 C 172.91 149.06 172.16 146.91 171.10 144.90 C 165.95 151.68 163.70 161.02 156.00 165.59 C 152.97 164.43 151.25 161.46 149.02 159.28 C 146.54 161.79 145.08 165.46 141.82 167.07 C 137.44 168.04 135.89 162.98 135.32 159.66 C 134.24 156.71 135.39 152.97 133.22 150.50 C 127.53 157.43 121.93 164.45 116.71 171.75 C 114.06 174.97 115.02 179.49 112.94 182.94 C 111.38 185.27 108.32 184.29 106.08 183.85 C 102.15 183.13 98.72 181.00 95.33 179.01 C 91.38 184.79 87.71 190.79 83.16 196.13 C 81.01 198.69 77.81 200.73 74.37 200.60 C 71.26 199.52 69.95 196.02 68.78 193.22 C 65.53 182.38 70.89 170.02 80.33 164.09 C 82.90 162.97 85.56 165.25 86.33 167.63 C 87.61 172.08 86.85 176.87 85.38 181.18 C 85.05 182.40 84.26 183.23 83.02 183.66 C 83.87 178.47 85.72 173.09 84.04 167.86 C 83.02 165.12 79.95 167.32 78.59 168.62 C 74.01 173.30 71.03 179.61 70.34 186.12 C 70.11 189.81 70.38 194.24 73.37 196.84 C 75.92 198.47 78.82 196.43 80.48 194.48 C 84.19 189.85 87.99 185.29 91.55 180.55 C 93.55 178.32 91.95 174.37 94.82 172.76 C 96.27 171.58 97.99 170.56 98.72 168.75 C 101.55 162.64 104.48 156.58 107.69 150.66 C 109.77 147.26 109.74 143.14 110.99 139.44 C 113.18 141.29 114.35 144.07 114.23 146.93 C 113.93 153.49 114.87 160.00 115.88 166.46 C 120.17 162.87 123.87 158.63 127.59 154.47 C 129.32 152.61 126.70 150.55 126.20 148.69 C 127.92 147.18 129.86 145.98 131.72 144.67 C 133.61 143.34 133.54 140.78 134.21 138.80 C 135.74 139.20 137.23 140.10 138.86 139.92 C 144.02 137.70 148.25 133.45 153.85 132.21 C 155.05 132.57 155.73 133.68 156.54 134.55 C 151.17 137.94 145.36 140.56 140.06 144.06 C 138.01 145.20 137.60 147.78 137.87 149.92 C 138.25 154.17 137.94 158.49 138.91 162.68 C 142.90 160.20 145.49 156.02 148.27 152.33 C 148.98 148.47 148.82 143.77 152.06 140.99 C 154.75 138.80 158.36 142.09 157.78 145.06 C 157.02 149.42 153.87 152.82 152.63 156.99 C 151.96 158.65 153.54 160.14 155.05 160.47 C 157.30 159.33 158.89 157.31 160.26 155.25 C 164.50 148.85 168.40 142.20 173.18 136.17 C 175.26 133.51 177.89 131.12 181.16 130.07 C 182.96 129.44 184.29 131.26 185.71 132.02 C 183.70 135.55 184.45 140.29 187.70 142.83 C 195.09 135.05 203.52 128.32 210.46 120.09 C 206.56 120.64 201.87 119.75 200.24 115.68 C 196.75 107.47 197.60 97.54 201.75 89.72 M 202.82 97.68 C 201.63 103.38 200.53 110.04 203.71 115.30 C 206.79 117.82 210.46 114.14 213.71 113.55 C 213.92 115.56 214.10 117.57 214.42 119.56 C 218.68 112.58 219.47 103.79 218.20 95.84 C 217.52 91.83 215.02 86.45 210.17 87.02 C 205.70 88.53 204.63 93.87 202.82 97.68 M 205.80 137.65 C 207.19 135.82 207.92 133.63 208.59 131.46 C 209.31 128.65 211.64 126.73 213.09 124.31 C 208.17 126.36 204.83 132.34 205.80 137.65 M 175.40 145.60 C 177.04 143.89 177.36 141.44 178.47 139.42 C 179.55 137.44 180.87 135.59 181.78 133.52 C 176.43 134.63 175.62 141.08 175.40 145.60 M 151.85 151.01 C 153.71 148.74 154.64 145.90 153.99 142.97 C 152.24 145.28 151.56 148.15 151.85 151.01 M 101.23 168.21 C 99.98 170.61 98.08 172.89 97.98 175.71 C 99.33 177.25 101.59 179.47 103.74 178.09 C 106.54 176.22 109.04 173.84 111.07 171.16 C 112.11 167.90 111.49 164.32 111.55 160.94 C 111.20 157.20 111.82 153.20 110.10 149.72 C 106.61 155.62 104.82 162.36 101.23 168.21 Z" />
</g>
</svg>
