<?xml version="1.0" encoding="UTF-8" ?>
<!DOCTYPE svg PUBLIC "-//W3C//DTD SVG 1.1//EN" "http://www.w3.org/Graphics/SVG/1.1/DTD/svg11.dtd">
<svg width="512pt" height="128pt" viewBox="0 0 512 128" version="1.1" xmlns="http://www.w3.org/2000/svg">
<g id="#ffffffff">
<path fill="#ffffff" opacity="1.00" d=" M 81.60 7.56 C 87.86 4.25 95.04 3.42 101.98 2.64 C 108.38 2.55 115.75 1.72 120.98 6.22 C 122.82 12.70 119.22 18.84 117.35 24.84 C 125.34 20.46 133.05 14.24 142.41 13.32 C 143.76 17.63 141.41 21.71 139.41 25.37 C 137.90 28.16 134.86 29.92 133.95 33.04 C 142.07 28.16 150.55 23.87 159.45 20.62 C 160.50 20.35 161.57 20.19 162.66 20.13 C 162.93 21.65 163.63 23.28 162.89 24.79 C 160.27 30.83 155.05 35.09 151.41 40.46 C 149.87 42.82 146.50 44.02 146.42 47.15 C 154.65 44.24 162.34 39.99 170.56 37.05 C 171.32 38.17 171.70 39.77 173.08 40.33 C 179.48 40.63 185.96 39.65 192.32 40.75 C 193.51 41.07 195.37 41.49 195.34 43.07 C 195.48 46.68 193.36 49.88 192.13 53.17 C 200.59 55.50 209.72 53.28 217.19 48.98 C 218.96 47.73 220.89 50.02 219.71 51.70 C 217.84 54.80 215.34 57.45 213.08 60.27 C 215.47 61.80 218.39 61.17 221.06 61.05 C 224.57 60.61 228.29 60.34 231.39 58.44 C 233.10 57.61 234.66 55.99 236.72 56.35 C 237.53 57.42 237.53 58.49 236.70 59.56 C 234.49 62.74 230.34 64.26 229.01 68.12 C 237.30 64.23 245.58 60.25 253.99 56.61 C 256.25 57.51 255.68 59.98 254.53 61.53 C 251.27 66.33 247.10 70.45 243.72 75.16 C 245.46 74.93 247.21 74.74 248.97 74.59 C 246.17 79.25 239.75 79.31 236.11 83.11 C 229.90 89.54 223.95 96.35 216.77 101.74 C 215.01 102.45 214.13 100.25 213.74 98.95 C 214.28 93.39 217.80 88.50 222.04 85.04 C 225.48 82.18 229.75 80.70 233.71 78.74 C 236.90 76.64 239.11 73.41 241.68 70.64 C 243.62 68.20 246.12 66.02 247.12 62.98 C 240.92 66.06 234.53 68.86 228.83 72.84 C 226.64 74.30 224.23 75.69 221.51 75.68 C 219.17 71.16 224.53 67.92 226.24 64.19 C 221.47 64.04 216.74 64.67 211.99 64.89 C 208.10 65.06 205.81 69.21 201.99 69.56 C 198.96 69.56 197.64 66.28 196.96 63.84 C 196.10 61.53 198.08 59.64 199.07 57.77 C 195.89 57.27 192.64 57.27 189.44 57.52 C 185.37 60.94 181.38 65.08 175.96 66.19 C 173.22 66.49 170.84 63.70 171.52 61.04 C 172.41 56.82 176.76 54.62 180.64 53.83 C 182.83 53.27 185.33 53.61 187.28 52.32 C 189.06 50.24 190.03 47.61 191.06 45.11 C 184.48 41.62 176.54 43.78 169.50 44.53 C 167.87 46.77 167.98 49.95 166.14 52.16 C 163.10 56.15 159.30 59.95 154.46 61.62 C 152.02 62.53 149.49 59.75 150.37 57.38 C 151.54 53.28 154.93 50.46 157.10 46.93 C 151.77 48.61 146.62 50.90 141.85 53.80 C 139.45 54.59 137.22 51.27 139.27 49.41 C 144.79 41.48 151.76 34.64 157.49 26.85 C 157.14 26.53 156.45 25.87 156.10 25.54 C 148.70 28.67 141.16 31.82 134.73 36.75 C 130.21 40.18 126.22 44.23 122.15 48.16 C 120.92 49.94 118.26 47.80 118.84 46.09 C 124.22 35.38 135.07 28.22 139.23 16.78 C 129.87 19.44 121.20 24.42 114.18 31.17 C 110.24 35.24 106.53 39.58 102.26 43.32 C 100.66 44.78 98.27 42.24 99.53 40.62 C 103.15 34.42 108.30 29.35 112.96 23.96 C 116.21 18.87 119.01 12.94 118.52 6.76 C 107.00 4.11 94.57 5.01 83.63 9.59 C 81.07 10.89 78.44 12.62 77.15 15.27 C 76.58 18.32 78.76 21.22 81.21 22.81 C 84.59 24.98 88.32 26.71 92.24 27.61 C 96.29 27.98 99.91 25.66 103.61 24.40 C 103.57 27.65 99.97 28.39 97.66 29.69 C 91.98 32.67 85.87 28.95 81.12 25.88 C 77.75 23.14 73.41 19.35 74.54 14.50 C 75.81 11.32 78.64 9.09 81.60 7.56 M 155.68 56.37 C 159.86 54.74 163.28 51.19 164.39 46.80 C 160.55 48.91 157.54 52.43 155.68 56.37 M 203.90 57.10 C 205.04 58.19 206.22 59.49 207.93 59.58 C 209.35 59.02 209.70 57.57 209.95 56.24 C 207.92 56.44 205.90 56.71 203.90 57.10 M 176.81 58.68 C 175.93 59.57 173.78 60.63 174.86 62.14 C 178.41 62.30 181.46 59.46 183.23 56.59 C 181.00 56.90 178.66 57.31 176.81 58.68 M 201.19 61.11 C 200.99 62.52 199.76 65.00 201.95 65.51 C 203.17 64.97 204.40 64.23 204.95 62.95 C 204.16 61.63 202.48 61.58 201.19 61.11 M 220.02 93.03 C 222.75 91.60 224.63 89.00 226.27 86.47 C 223.20 87.42 221.17 90.17 220.02 93.03 Z" />
<path fill="#ffffff" opacity="1.00" d=" M 261.54 43.94 C 261.43 40.21 265.92 38.91 268.80 40.34 C 278.37 43.84 287.26 49.09 297.09 51.90 C 306.82 54.66 316.69 58.15 326.96 57.48 C 329.89 57.42 332.82 56.36 335.76 57.01 C 335.86 57.74 336.05 59.21 336.15 59.95 C 334.72 60.57 333.34 61.32 331.83 61.70 C 322.15 62.26 312.51 60.40 303.24 57.72 C 297.87 56.11 292.39 54.80 287.22 52.60 C 280.70 49.86 274.47 46.45 267.86 43.92 C 266.58 43.27 264.02 44.32 264.47 46.03 C 265.40 54.81 272.92 61.40 280.84 64.24 C 283.85 65.52 287.36 65.32 290.15 67.12 C 290.75 70.22 286.90 69.78 284.98 69.27 C 273.08 66.86 261.07 57.03 261.54 43.94 Z" />
<path fill="#ffffff" opacity="1.00" d=" M 303.47 63.49 C 304.41 62.59 306.61 63.68 306.07 64.99 C 305.37 68.58 302.97 71.49 300.82 74.34 C 306.07 76.63 312.20 75.72 317.78 75.24 C 318.55 76.92 319.20 79.02 317.29 80.21 C 313.92 82.91 311.35 87.23 306.87 88.06 C 306.55 84.93 309.91 82.87 310.00 80.16 C 305.80 79.00 301.33 78.58 296.98 78.42 C 293.93 80.42 291.94 83.79 289.01 86.03 C 284.79 89.49 281.31 94.54 276.06 96.30 C 271.85 91.98 272.52 85.22 269.89 80.02 C 271.19 80.21 273.43 79.40 273.82 81.28 C 275.02 84.54 275.27 88.12 276.97 91.21 C 283.20 87.87 287.51 82.00 292.21 76.89 C 288.46 76.79 283.73 75.28 283.75 70.74 C 288.00 70.30 291.65 74.28 295.85 73.15 C 299.23 70.67 300.93 66.70 303.47 63.49 Z" />
<path fill="#ffffff" opacity="1.00" d=" M 358.37 64.41 C 360.14 63.60 362.82 64.84 362.55 67.02 C 362.26 72.29 357.85 75.91 354.39 79.38 C 348.82 83.44 342.92 87.18 336.39 89.51 C 332.22 91.56 327.20 94.26 325.87 99.02 C 330.30 98.72 334.60 97.37 339.07 97.48 C 344.52 97.62 349.93 95.41 355.35 96.67 C 357.21 97.16 357.26 99.20 357.24 100.76 C 355.07 100.90 352.67 100.43 350.76 101.72 C 348.60 103.35 347.35 105.83 345.91 108.06 C 348.34 109.69 351.19 108.44 353.79 108.01 C 359.33 106.93 364.70 104.70 368.93 100.89 C 372.37 97.71 375.81 94.51 378.99 91.05 C 375.64 89.94 370.05 87.61 372.06 83.19 C 375.74 82.67 378.29 86.74 382.07 86.66 C 385.92 87.70 387.75 82.60 391.51 83.30 C 391.64 84.91 391.65 86.52 391.66 88.13 C 395.89 89.13 400.51 89.05 404.42 91.07 C 404.92 92.77 403.78 94.35 402.03 94.52 C 397.65 94.22 393.40 92.66 388.98 92.78 C 385.46 92.90 383.54 96.12 380.87 97.89 C 376.52 100.81 372.81 104.59 368.33 107.31 C 366.94 108.18 365.79 109.44 365.59 111.13 C 373.83 109.28 382.33 106.87 390.82 107.97 C 393.44 108.10 393.01 110.97 392.56 112.76 C 392.05 115.74 388.15 117.00 388.35 120.21 C 393.05 120.86 398.40 122.71 402.66 119.70 C 404.45 118.58 406.34 119.95 407.80 120.96 C 406.55 123.15 404.55 124.99 401.98 125.36 C 396.08 125.91 390.12 125.26 384.39 123.87 C 382.04 123.20 379.14 123.51 377.33 121.62 C 375.91 120.15 375.41 116.81 377.98 116.25 C 379.67 116.73 381.10 118.35 382.93 118.18 C 385.15 116.53 386.71 114.19 388.18 111.89 C 384.55 110.69 380.71 112.17 377.01 112.31 C 371.66 113.69 366.29 114.99 360.99 116.56 C 358.57 116.36 358.76 113.13 357.94 111.46 C 353.32 111.48 348.86 113.32 344.20 112.88 C 342.53 112.19 342.00 110.31 341.15 108.90 C 339.11 109.75 336.83 111.70 334.56 110.43 C 331.75 107.36 335.83 104.12 336.64 101.08 C 331.05 100.96 325.94 104.31 320.40 103.58 C 319.57 100.33 321.82 97.58 322.77 94.65 C 314.00 95.38 305.21 99.51 296.44 96.52 C 293.33 95.77 292.53 92.10 293.59 89.44 C 294.79 89.43 296.09 89.17 297.19 89.82 C 298.08 90.88 298.08 92.36 298.49 93.64 C 308.32 94.45 318.06 91.78 327.52 89.43 C 331.25 87.39 333.43 83.37 336.74 80.73 C 343.58 74.87 349.58 67.40 358.37 64.41 M 338.75 84.72 C 346.49 81.63 354.42 76.77 358.29 69.13 C 350.30 72.19 344.53 78.72 338.75 84.72 Z" />
</g>
</svg>
