<?xml version="1.0" encoding="UTF-8" ?>
<!DOCTYPE svg PUBLIC "-//W3C//DTD SVG 1.1//EN" "http://www.w3.org/Graphics/SVG/1.1/DTD/svg11.dtd">
<svg width="512pt" height="256pt" viewBox="0 0 512 256" version="1.1" xmlns="http://www.w3.org/2000/svg">
<g id="#ffffffff">
<path fill="#ffffff" opacity="1.00" d=" M 217.31 34.86 C 220.72 37.05 222.86 40.89 222.93 44.96 C 223.39 52.20 219.40 58.64 215.18 64.16 C 207.56 73.80 199.19 83.27 188.34 89.35 C 182.77 92.41 180.11 98.46 175.89 102.92 C 173.62 105.53 170.70 107.65 169.27 110.90 C 175.89 114.26 183.29 111.58 189.72 109.27 C 187.46 113.34 182.19 114.24 178.02 115.31 C 174.06 116.38 170.51 114.22 166.98 112.84 C 163.88 113.62 161.57 116.93 158.05 116.36 C 153.88 115.99 152.03 111.73 150.63 108.36 C 149.06 104.38 148.38 99.37 150.71 95.57 C 151.76 93.73 154.03 94.48 155.37 95.54 C 159.64 98.93 162.43 103.73 166.10 107.70 C 171.42 103.91 175.36 98.61 178.92 93.22 C 173.94 91.48 167.85 91.16 164.47 86.56 C 162.77 84.03 160.44 80.87 161.76 77.72 C 163.95 81.52 165.26 86.44 169.71 88.29 C 174.15 90.12 180.49 91.24 183.81 86.82 C 194.01 74.06 200.96 59.14 209.09 45.06 C 211.34 41.28 214.51 38.21 217.31 34.86 M 200.42 67.43 C 197.79 72.60 193.90 77.07 191.90 82.55 C 198.25 80.72 202.55 75.44 206.65 70.63 C 212.04 64.49 218.18 58.34 220.17 50.14 C 221.32 46.49 221.77 41.54 218.05 39.19 C 210.49 47.42 206.09 57.93 200.42 67.43 M 153.13 97.84 C 150.98 99.91 151.45 103.19 151.94 105.84 C 152.57 108.78 153.82 112.34 157.13 113.09 C 159.70 113.45 162.18 112.08 163.86 110.22 C 161.65 106.50 159.10 102.99 156.34 99.68 C 155.44 98.93 154.51 97.23 153.13 97.84 Z" />
<path fill="#ffffff" opacity="1.00" d=" M 257.22 69.14 C 260.24 69.55 260.23 73.31 259.46 75.56 C 257.26 85.67 248.93 92.41 242.96 100.26 C 247.18 99.18 251.32 97.37 255.73 97.35 C 258.49 97.32 259.57 100.70 259.59 102.97 C 257.62 107.28 252.44 108.30 248.32 109.49 C 246.85 111.09 248.94 113.73 249.07 115.70 C 253.32 114.79 257.41 112.37 259.21 108.26 C 261.19 103.86 265.16 100.41 270.01 99.67 C 270.53 100.79 271.01 101.92 271.45 103.08 C 268.79 106.84 265.04 109.67 261.70 112.79 C 259.30 115.22 262.02 118.43 264.24 119.80 C 268.31 122.62 273.24 120.04 277.09 118.10 C 282.08 115.51 285.12 110.61 286.99 105.47 C 289.97 108.62 287.89 112.90 285.93 115.96 C 282.37 120.77 276.86 124.15 271.01 125.31 C 265.06 126.13 259.93 121.83 257.64 116.66 C 254.95 117.75 252.42 121.01 249.34 119.89 C 245.23 116.30 245.83 110.05 242.19 106.11 C 238.92 108.95 236.09 112.34 234.30 116.31 C 233.44 117.77 233.07 119.92 231.10 120.23 C 228.50 116.79 231.24 112.91 232.47 109.56 C 226.56 112.68 220.88 116.97 214.00 117.52 C 210.61 117.48 209.10 114.03 207.55 111.59 C 205.34 113.73 203.54 116.41 200.77 117.88 C 198.04 118.94 196.97 115.12 197.71 113.14 C 200.37 105.37 205.40 98.76 210.22 92.23 C 211.55 90.27 214.72 87.49 216.44 90.61 C 218.76 93.25 216.47 96.15 214.42 98.00 C 214.73 98.75 215.35 100.23 215.66 100.97 C 213.37 104.51 210.43 108.35 211.31 112.86 C 212.68 114.37 215.08 113.24 216.79 112.93 C 226.67 109.04 235.83 102.65 241.73 93.68 C 244.77 89.26 246.61 84.14 249.70 79.75 C 252.20 76.21 253.80 71.95 257.22 69.14 M 204.74 107.49 C 208.15 104.82 210.72 101.11 212.12 97.02 C 209.03 99.98 206.11 103.37 204.74 107.49 M 245.55 105.15 C 249.28 105.80 253.90 104.96 255.51 101.07 C 251.87 101.39 248.17 102.48 245.55 105.15 Z" />
<path fill="#ffffff" opacity="1.00" d=" M 161.30 77.50 C 161.72 75.22 162.71 73.03 164.81 71.85 C 164.22 73.99 163.64 76.61 161.30 77.50 Z" />
<path fill="#ffffff" opacity="1.00" d=" M 119.22 113.20 C 122.08 108.55 123.03 102.82 127.10 98.94 C 129.23 102.45 125.94 105.46 124.46 108.45 C 122.08 112.98 119.86 117.61 117.31 122.06 C 123.11 129.52 126.20 139.32 123.84 148.69 C 121.55 156.13 116.79 163.90 108.70 165.83 C 103.71 167.47 98.86 165.02 94.12 163.78 C 91.99 165.05 90.68 167.31 88.90 168.99 C 84.60 167.05 82.17 162.79 80.28 158.70 C 79.33 156.60 78.56 153.93 80.19 151.94 C 81.35 151.55 82.42 151.73 83.39 152.48 C 86.72 154.50 89.76 156.94 93.03 159.05 C 98.70 151.39 102.45 142.58 107.53 134.56 C 109.30 131.12 111.90 128.02 112.85 124.22 C 104.98 118.17 94.31 118.82 85.00 120.03 C 74.08 121.89 62.53 124.55 53.99 132.04 C 47.98 137.26 45.04 147.18 49.88 154.08 C 53.35 159.88 59.80 162.63 65.65 165.37 C 69.39 167.17 73.52 167.75 77.50 168.74 C 73.79 170.25 69.84 168.83 66.14 168.01 C 57.39 165.79 48.64 160.28 45.43 151.46 C 43.04 146.18 45.17 140.33 47.38 135.38 C 51.36 127.64 59.56 123.71 67.04 120.10 C 74.08 118.79 80.66 115.25 87.97 115.14 C 92.87 115.26 97.78 114.92 102.67 115.35 C 107.16 115.77 111.01 118.22 114.95 120.16 C 116.82 118.15 117.81 115.53 119.22 113.20 M 115.49 125.59 C 110.35 133.61 106.12 142.16 101.39 150.41 C 99.53 153.80 96.98 156.82 95.76 160.53 C 98.98 162.20 102.72 163.89 106.33 162.33 C 116.12 160.57 121.36 150.08 122.20 141.00 C 121.57 135.46 119.99 129.27 115.49 125.59 M 81.17 155.85 C 82.02 159.77 84.29 163.57 87.98 165.38 C 89.48 164.78 90.15 163.23 91.02 162.00 C 87.95 159.72 85.23 156.21 81.17 155.85 Z" />
<path fill="#ffffff" opacity="1.00" d=" M 322.98 130.90 C 330.88 126.36 340.10 125.11 348.97 123.71 C 350.60 123.22 352.73 124.00 352.52 126.03 C 352.82 134.16 351.25 142.41 347.74 149.77 C 346.45 152.76 344.58 155.61 344.42 158.95 C 347.25 158.50 350.22 158.23 352.80 156.88 C 354.67 155.59 355.44 153.34 356.45 151.41 C 358.88 146.54 360.87 141.41 363.97 136.92 C 364.96 138.46 367.00 139.95 366.28 142.03 C 364.95 146.80 363.68 151.77 361.00 155.99 C 353.41 165.65 348.40 177.01 343.85 188.34 C 342.31 187.49 340.04 186.12 340.75 184.03 C 343.29 176.68 346.71 169.68 350.15 162.72 C 346.62 162.72 341.91 162.37 339.90 165.94 C 333.83 175.42 330.23 186.17 325.17 196.18 C 324.20 194.93 321.91 193.88 322.57 191.98 C 326.42 182.34 331.16 173.07 335.33 163.58 C 331.30 163.04 327.21 163.17 323.20 162.51 C 321.48 162.11 319.02 161.22 319.33 159.03 C 320.59 157.91 322.42 158.82 323.91 158.76 C 328.49 159.07 333.20 159.72 337.75 158.97 C 341.88 153.22 344.43 146.43 346.63 139.74 C 347.82 135.56 348.80 131.25 348.49 126.88 C 341.27 127.91 334.03 129.44 327.32 132.34 C 325.32 133.40 322.54 134.38 322.33 137.01 C 326.19 141.85 332.89 142.91 338.51 144.66 C 340.27 144.81 339.94 146.93 340.37 148.13 C 336.28 148.66 332.65 146.47 329.08 144.85 C 325.71 143.04 321.95 141.21 319.98 137.76 C 318.58 135.09 320.58 132.13 322.98 130.90 Z" />
<path fill="#ffffff" opacity="1.00" d=" M 238.87 136.82 C 242.52 135.64 244.00 131.74 246.15 128.92 C 248.63 130.99 248.05 134.13 246.54 136.58 C 243.21 142.42 239.92 148.42 238.09 154.92 C 241.14 154.99 243.67 153.12 246.28 151.81 C 247.18 153.30 248.74 154.90 248.08 156.79 C 247.12 160.18 245.63 163.40 244.77 166.82 C 249.04 164.58 251.65 160.33 254.94 156.96 C 255.71 158.51 257.07 159.99 256.92 161.85 C 255.99 164.78 254.18 167.37 253.49 170.39 C 257.66 168.64 261.64 165.89 263.81 161.81 C 266.16 157.34 269.75 153.73 272.58 149.59 C 276.76 143.53 282.16 138.45 286.06 132.19 C 286.89 133.65 288.57 135.06 288.10 136.92 C 286.84 142.50 285.46 148.29 282.05 153.02 C 278.96 157.55 274.61 160.97 270.63 164.66 C 267.77 167.45 263.69 169.57 262.96 173.88 C 272.39 170.98 280.51 165.03 288.44 159.35 C 289.32 160.38 291.24 161.20 290.70 162.86 C 289.94 165.03 288.71 167.00 287.96 169.18 C 291.26 167.48 294.78 166.02 297.55 163.48 C 300.76 161.96 305.75 159.84 308.05 163.90 C 312.21 170.85 304.80 178.68 298.14 179.81 C 294.16 178.67 295.14 173.92 295.13 170.80 C 291.04 172.35 287.75 175.33 283.98 177.46 C 283.30 177.35 281.93 177.13 281.25 177.02 C 281.23 174.18 281.99 171.44 282.53 168.67 C 276.59 171.53 271.68 176.33 265.27 178.20 C 263.81 178.59 262.15 179.24 260.73 178.39 C 259.51 177.14 258.86 175.48 258.00 174.00 C 255.79 174.69 253.60 175.61 251.27 175.81 C 248.68 175.00 249.97 171.56 249.46 169.58 C 246.17 170.75 243.63 174.88 239.98 174.11 C 238.87 168.70 242.33 163.62 243.47 158.44 C 239.64 159.20 234.72 159.95 233.02 164.03 C 229.82 170.05 227.52 176.48 224.68 182.66 C 222.16 188.20 219.87 194.24 215.00 198.19 C 212.69 196.55 211.12 194.18 211.21 191.25 C 212.46 191.95 213.70 192.65 214.95 193.36 C 219.95 186.57 222.48 178.46 225.66 170.76 C 226.74 167.80 229.04 165.32 229.20 162.05 C 224.63 163.12 220.18 164.61 215.65 165.78 C 213.49 166.12 212.35 168.09 210.92 169.50 C 210.30 167.08 209.45 163.68 212.16 162.17 C 215.92 160.22 220.39 160.29 224.21 158.39 C 227.39 156.86 232.19 157.66 233.92 153.95 C 235.77 149.51 237.79 145.14 240.29 141.02 C 226.79 145.01 212.62 144.34 198.73 145.39 C 203.08 149.35 208.87 151.05 214.47 152.37 C 219.68 153.39 224.71 151.19 229.73 150.18 C 227.86 154.36 223.16 156.17 218.92 156.77 C 214.37 157.44 210.19 155.32 206.00 153.97 C 201.32 152.49 197.68 149.04 194.05 145.91 C 192.35 144.56 192.59 142.30 192.84 140.40 C 204.66 139.54 216.60 141.15 228.35 139.25 C 231.83 138.32 235.37 137.68 238.87 136.82 M 272.71 156.24 C 276.33 153.39 279.98 150.06 281.54 145.60 C 278.01 148.57 274.90 152.17 272.71 156.24 M 301.48 167.45 C 299.29 169.38 297.97 172.45 298.70 175.36 C 301.80 173.32 305.80 171.18 306.29 167.08 C 304.94 165.52 302.80 166.30 301.48 167.45 Z" />
<path fill="#ffffff" opacity="1.00" d=" M 295.04 143.02 C 296.13 141.11 297.93 143.81 299.19 144.21 C 299.36 146.42 299.66 148.62 299.93 150.83 C 297.81 148.80 293.13 146.50 295.04 143.02 Z" />
<path fill="#ffffff" opacity="1.00" d=" M 133.56 148.61 C 135.33 145.36 139.16 147.82 141.98 147.40 C 144.97 147.66 148.59 145.59 151.11 147.92 C 153.93 150.85 150.29 154.41 149.69 157.53 C 153.47 155.37 157.07 152.87 161.13 151.26 C 162.24 152.90 163.30 154.81 162.79 156.87 C 162.01 160.93 160.85 164.99 161.21 169.18 C 168.04 168.79 173.76 163.87 177.30 158.32 C 179.51 155.15 178.63 151.16 178.90 147.56 C 181.59 148.97 181.32 152.43 181.73 155.02 C 181.77 162.74 175.32 168.62 168.99 172.00 C 165.86 173.45 160.85 175.12 158.64 171.40 C 156.77 166.62 159.50 161.56 159.73 156.68 C 155.51 157.94 152.12 161.03 148.85 163.86 C 146.76 165.47 145.94 168.93 143.02 169.17 C 141.50 167.75 142.49 165.67 142.91 163.99 C 144.52 159.40 147.38 155.35 148.71 150.65 C 143.34 149.47 137.31 151.71 134.75 156.74 C 132.69 161.32 129.40 165.16 125.96 168.76 C 123.26 168.02 124.00 164.77 124.60 162.77 C 126.58 157.47 130.53 153.29 133.56 148.61 Z" />
<path fill="#ffffff" opacity="1.00" d=" M 376.93 162.53 C 380.68 162.31 384.48 160.70 388.21 161.74 C 389.90 163.23 390.84 165.69 390.37 167.92 C 389.14 171.31 386.54 174.06 385.70 177.61 C 390.05 174.58 394.54 171.76 399.01 168.91 C 399.71 170.57 400.90 172.19 400.77 174.08 C 400.03 176.57 398.53 178.76 397.68 181.22 C 406.33 176.93 414.18 171.10 422.85 166.81 C 423.88 166.57 425.56 165.37 426.30 166.68 C 428.16 168.60 427.11 171.24 426.58 173.47 C 425.94 176.28 424.77 178.96 424.31 181.81 C 426.60 183.81 430.27 181.49 432.91 180.87 C 436.52 177.88 438.77 172.84 443.74 171.72 C 444.29 173.67 445.30 175.70 444.68 177.76 C 443.50 182.74 436.17 182.69 435.31 187.82 C 435.53 191.08 439.65 190.73 441.97 190.40 C 448.48 189.00 455.69 186.53 459.20 180.41 C 459.82 180.63 461.04 181.06 461.65 181.27 C 461.57 182.60 461.78 183.99 461.34 185.27 C 457.68 188.38 454.34 192.16 449.64 193.71 C 445.75 195.08 441.26 197.02 437.30 194.79 C 433.77 193.27 432.58 189.35 431.48 186.01 C 427.52 187.21 422.59 186.20 419.60 189.60 C 417.91 191.09 416.02 192.38 413.93 193.23 C 409.73 191.76 407.24 187.07 407.61 182.74 C 411.04 182.47 414.49 183.92 417.87 183.25 C 420.91 180.44 421.73 175.96 422.85 172.11 C 419.58 172.42 417.36 175.12 414.59 176.59 C 411.54 178.11 409.12 180.59 406.09 182.12 C 402.00 184.15 398.64 187.28 394.87 189.78 C 390.83 187.79 391.90 183.16 392.53 179.59 C 387.80 181.78 384.48 185.76 381.75 190.06 C 378.66 190.77 377.64 186.53 378.31 184.23 C 380.01 177.90 383.49 172.26 386.01 166.26 C 381.73 166.52 377.39 166.45 373.21 167.54 C 373.33 171.48 374.10 175.64 372.25 179.33 C 370.63 182.73 368.43 186.29 364.93 187.99 C 361.84 187.50 360.76 183.78 361.04 181.08 C 362.12 174.49 367.89 170.10 369.95 163.90 C 371.96 162.62 374.64 163.02 376.93 162.53 Z" />
</g>
</svg>
