<?xml version="1.0" encoding="UTF-8" ?>
<!DOCTYPE svg PUBLIC "-//W3C//DTD SVG 1.1//EN" "http://www.w3.org/Graphics/SVG/1.1/DTD/svg11.dtd">
<svg width="512pt" height="128pt" viewBox="0 0 512 128" version="1.1" xmlns="http://www.w3.org/2000/svg">
<g id="#ffffffff">
<path fill="#ffffff" opacity="1.00" d=" M 401.76 0.00 L 403.54 0.00 C 405.32 3.20 406.92 6.59 407.51 10.23 C 408.12 15.31 406.95 20.41 405.36 25.21 C 403.55 30.05 399.99 35.10 394.50 35.86 C 393.20 33.85 391.98 31.79 390.75 29.74 C 386.78 33.84 384.76 39.58 379.84 42.80 C 378.81 41.60 377.30 40.55 377.13 38.84 C 376.68 33.42 378.73 28.22 379.08 22.85 C 377.58 23.41 375.37 23.27 374.89 25.19 C 374.37 28.35 374.79 31.64 373.85 34.75 C 372.31 40.02 369.45 44.83 366.27 49.27 C 365.09 51.05 362.38 52.33 360.79 50.30 C 359.22 47.23 359.44 43.68 359.07 40.34 C 355.71 43.93 352.62 47.74 349.43 51.47 C 346.89 54.19 343.85 56.90 340.04 57.49 C 335.31 56.35 335.28 50.42 333.78 46.67 C 328.87 51.63 325.26 58.04 318.93 61.49 C 318.50 61.41 317.65 61.26 317.22 61.19 C 312.04 56.13 314.27 48.19 313.71 41.75 C 308.11 44.23 303.35 48.22 297.97 51.13 C 298.44 54.07 299.20 56.99 299.23 59.99 C 298.88 64.80 295.84 69.04 292.00 71.79 C 287.47 69.41 288.44 63.77 287.95 59.54 C 283.10 63.72 280.90 70.00 276.70 74.73 C 275.49 76.51 272.22 76.15 271.90 73.87 C 271.08 69.62 272.15 65.23 271.14 61.00 C 267.30 63.91 264.29 67.80 262.09 72.06 C 260.62 74.88 259.76 78.20 256.97 80.07 C 252.66 77.21 254.70 71.64 254.45 67.39 C 249.68 73.04 246.55 80.44 239.72 84.05 C 238.22 85.09 236.42 83.63 235.40 82.54 C 232.09 79.04 232.76 73.85 230.83 69.71 C 224.85 73.65 222.70 80.92 219.74 87.05 C 218.67 86.90 217.60 86.74 216.54 86.58 C 216.03 81.89 217.04 77.24 216.95 72.55 C 213.45 75.03 211.89 79.15 209.57 82.59 C 207.07 86.32 204.25 89.85 201.15 93.11 C 200.09 94.09 198.85 95.67 197.21 94.92 C 193.61 94.07 193.79 89.71 192.60 86.95 C 187.95 89.86 184.93 94.93 179.82 97.13 C 176.33 98.55 173.88 94.90 171.77 92.76 C 167.90 95.98 164.06 99.75 158.99 100.86 C 156.58 101.44 155.28 98.85 154.84 96.92 C 153.38 91.18 156.69 85.75 157.01 80.07 C 153.78 82.08 151.00 84.72 147.79 86.78 C 144.41 88.99 140.61 90.83 138.12 94.14 C 135.35 97.65 135.19 102.36 133.15 106.24 C 130.58 111.30 129.38 116.91 127.01 122.04 C 126.41 124.05 123.42 124.64 122.37 122.67 C 120.15 118.64 119.73 113.82 120.20 109.31 C 120.57 104.16 124.59 100.42 127.65 96.64 C 131.19 93.28 134.78 89.55 135.43 84.45 C 128.46 89.38 122.40 95.48 115.45 100.45 C 108.78 105.83 100.74 110.28 91.96 110.26 C 83.90 110.10 77.40 103.19 75.42 95.75 C 73.44 88.11 73.96 79.86 76.51 72.40 C 79.73 62.11 86.73 53.64 93.64 45.59 C 104.86 33.50 117.76 22.46 133.19 16.17 C 135.84 15.13 138.84 14.25 141.61 15.37 C 146.18 17.10 149.29 21.22 151.90 25.16 C 154.98 29.73 156.12 35.73 154.01 40.95 C 150.82 48.52 145.91 55.31 139.93 60.92 C 134.62 65.88 129.13 71.19 121.97 73.27 C 119.52 74.21 116.36 72.98 115.53 70.41 C 114.36 66.64 114.72 62.61 114.28 58.72 C 108.97 64.27 104.10 70.23 98.53 75.52 C 94.00 79.65 90.46 85.47 84.21 87.13 C 83.85 85.85 82.86 84.61 83.13 83.23 C 84.89 80.61 87.66 78.98 90.09 77.08 C 95.46 73.19 99.77 68.09 104.31 63.32 C 110.15 57.13 115.69 50.61 120.14 43.32 C 121.66 44.29 123.95 45.49 122.68 47.64 C 119.90 53.62 117.12 60.12 118.04 66.85 C 118.74 69.50 121.97 69.10 123.68 67.71 C 128.82 64.30 134.36 61.17 138.29 56.30 C 140.99 53.00 144.71 50.64 147.03 47.01 C 149.41 43.31 151.71 39.36 152.58 35.00 C 152.78 29.69 148.81 25.22 144.97 22.02 C 141.42 19.01 136.66 20.26 132.75 21.71 C 122.87 25.73 113.85 31.77 106.30 39.30 C 97.62 46.73 90.26 55.60 84.25 65.30 C 79.10 73.31 77.58 83.28 78.59 92.63 C 79.65 97.95 82.56 104.23 88.40 105.43 C 94.20 106.87 99.58 103.70 104.92 102.00 C 110.14 100.38 114.12 96.52 118.65 93.66 C 122.87 90.95 126.39 87.33 130.40 84.35 C 133.94 81.85 136.30 78.15 138.14 74.30 C 139.37 75.47 141.34 76.34 141.58 78.21 C 141.52 80.91 140.79 83.54 140.61 86.24 C 146.00 84.66 149.88 80.40 152.76 75.79 C 155.17 71.47 162.95 74.02 162.30 78.97 C 161.66 84.54 158.49 89.50 158.07 95.13 C 164.15 91.92 170.35 87.63 173.02 81.01 C 174.74 77.42 176.27 73.57 179.08 70.67 C 182.29 69.88 184.69 74.07 183.22 76.83 C 180.74 82.04 175.54 86.18 175.97 92.50 C 182.95 90.42 187.44 84.28 192.26 79.24 C 196.22 75.43 197.14 69.63 200.93 65.67 C 202.30 67.17 204.68 68.57 204.25 70.93 C 203.43 73.60 201.39 75.64 200.00 78.01 C 198.03 81.14 197.29 84.86 197.03 88.50 C 198.20 87.90 199.47 87.37 200.29 86.28 C 203.70 82.31 207.08 78.24 209.61 73.63 C 211.89 69.40 215.10 65.81 218.01 62.02 C 220.85 64.23 221.38 67.86 222.58 71.03 C 225.25 68.46 227.89 65.85 230.21 62.94 C 236.81 65.81 234.85 74.00 237.06 79.54 C 241.67 76.05 246.05 71.96 248.82 66.82 C 251.17 62.59 254.07 58.71 256.61 54.60 C 259.42 50.02 259.55 44.50 260.68 39.39 C 261.88 33.86 263.34 28.22 266.44 23.42 C 267.38 21.50 270.37 22.13 271.15 23.88 C 273.87 29.44 272.32 35.81 270.39 41.36 C 268.86 45.49 265.53 48.57 263.51 52.43 C 261.90 55.50 261.47 58.99 261.12 62.39 C 264.89 60.30 267.65 56.94 270.99 54.29 C 275.81 56.50 275.57 62.23 276.00 66.68 C 278.68 64.39 280.16 61.12 282.39 58.45 C 285.91 53.93 290.38 50.10 292.92 44.88 C 300.32 44.15 306.60 39.78 312.22 35.24 C 313.99 33.73 316.16 32.29 316.71 29.86 C 318.85 22.28 321.69 14.76 326.00 8.13 C 331.38 11.87 331.96 19.58 329.06 25.03 C 326.71 30.36 321.22 33.61 319.29 39.14 C 318.03 43.98 317.42 49.24 318.79 54.11 C 323.21 51.88 325.80 47.56 328.84 43.87 C 332.13 39.69 335.98 35.64 337.16 30.27 C 339.06 22.16 343.37 14.97 346.34 7.26 C 346.72 5.96 347.60 5.29 348.98 5.24 C 352.98 9.29 351.11 15.47 350.21 20.39 C 348.68 28.06 341.94 32.98 339.04 39.98 C 337.91 43.84 337.81 48.29 339.75 51.92 C 349.16 46.73 354.61 37.17 360.87 28.86 C 362.73 26.31 364.32 23.59 366.07 20.98 C 367.12 22.50 369.20 23.88 368.71 25.99 C 367.49 31.86 364.30 37.21 363.66 43.23 C 367.70 40.38 370.00 35.65 371.18 30.98 C 372.25 27.28 370.56 23.70 369.79 20.14 C 373.77 18.61 377.94 17.65 382.06 16.55 C 384.79 20.97 382.25 25.97 382.67 30.73 C 383.90 29.95 385.15 29.07 385.74 27.68 C 387.92 23.73 390.23 19.86 392.03 15.71 C 395.55 19.37 394.40 24.70 395.28 29.25 C 396.40 28.80 397.70 28.50 398.41 27.40 C 401.91 23.14 404.09 17.66 403.74 12.09 C 403.74 9.38 401.47 7.44 400.84 4.91 C 400.70 3.22 401.36 1.61 401.76 0.00 M 266.05 40.24 C 267.73 37.75 268.63 34.84 268.94 31.87 C 266.42 33.83 265.84 37.23 266.05 40.24 M 292.26 64.25 C 296.01 62.30 296.08 57.29 296.04 53.61 C 291.83 54.95 292.81 60.73 292.26 64.25 M 124.15 115.36 C 126.21 111.83 127.23 107.80 128.05 103.83 C 124.69 106.60 123.95 111.25 124.15 115.36 Z" />
</g>
</svg>
