<?xml version="1.0" encoding="UTF-8" ?>
<!DOCTYPE svg PUBLIC "-//W3C//DTD SVG 1.1//EN" "http://www.w3.org/Graphics/SVG/1.1/DTD/svg11.dtd">
<svg width="256pt" height="256pt" viewBox="0 0 256 256" version="1.1" xmlns="http://www.w3.org/2000/svg">
<g id="#ffffffff">
<path fill="#ffffff" opacity="1.00" d=" M 73.37 34.35 C 76.48 30.53 81.46 28.98 86.14 28.15 C 93.87 26.54 101.75 28.15 109.31 29.87 C 113.33 30.84 117.73 32.50 119.80 36.36 C 120.93 38.21 119.74 40.29 118.98 42.03 C 116.47 47.24 112.00 51.40 106.68 53.66 C 98.20 57.50 88.83 59.14 80.53 63.34 C 90.66 61.92 101.20 60.72 111.18 63.79 C 112.95 64.48 115.65 64.56 115.74 67.01 C 111.28 70.89 105.21 71.89 99.80 73.87 C 95.56 75.52 90.79 76.10 87.06 78.84 C 97.98 79.37 109.50 78.10 119.87 82.24 C 119.80 82.59 119.67 83.28 119.60 83.63 C 113.15 87.20 105.81 88.84 99.23 92.18 C 98.05 92.72 97.36 93.84 96.56 94.79 C 99.83 96.40 103.30 97.91 106.96 98.29 C 111.03 97.88 115.68 96.24 119.42 98.67 C 120.80 99.48 120.95 100.49 119.88 101.71 C 115.18 102.62 110.66 100.21 105.98 100.59 C 103.69 100.78 101.85 102.26 100.35 103.88 C 106.85 107.43 114.40 105.96 121.25 104.48 C 124.53 103.29 126.23 107.10 127.94 109.14 C 123.64 111.33 118.46 110.86 114.33 113.43 C 114.16 113.79 113.83 114.52 113.66 114.89 C 117.98 118.23 123.37 119.66 128.41 121.53 C 133.97 123.72 139.93 121.89 145.37 120.25 C 150.97 118.51 156.92 117.59 162.77 118.41 C 163.91 118.57 164.79 119.13 165.41 120.12 C 165.72 122.53 162.99 123.33 161.41 124.47 C 152.90 129.50 142.76 126.36 133.65 125.24 C 137.50 128.89 144.77 129.87 145.93 136.00 C 141.84 136.25 138.93 133.00 135.95 130.73 C 134.78 132.39 133.80 134.17 133.10 136.09 C 139.80 139.78 147.48 140.96 154.90 142.39 C 155.14 142.82 155.61 143.69 155.85 144.13 C 151.11 145.29 145.65 144.47 141.66 147.89 C 147.48 150.07 153.55 151.52 159.39 153.67 C 160.79 153.99 161.88 154.92 162.87 155.92 C 160.74 156.92 158.54 157.77 156.41 158.77 C 161.93 160.88 167.81 162.71 171.97 167.18 C 169.19 170.05 164.54 169.74 162.03 173.01 C 165.14 175.20 168.91 175.52 172.48 174.39 C 170.75 178.50 165.34 177.67 162.18 175.82 C 160.72 174.80 158.55 173.41 159.21 171.32 C 161.54 168.59 165.42 168.27 168.50 166.78 C 163.10 162.24 155.93 160.67 149.12 159.70 C 148.93 159.26 148.56 158.38 148.37 157.93 C 151.08 156.91 153.94 156.38 156.71 155.55 C 151.01 151.40 142.83 152.75 137.41 147.94 C 139.13 144.75 142.94 144.28 145.88 142.80 C 140.67 140.80 134.85 140.30 130.20 136.93 C 130.49 133.81 132.40 131.27 133.89 128.63 C 129.54 126.09 124.67 128.89 120.23 128.07 C 120.30 127.67 120.42 126.85 120.49 126.45 C 123.12 125.42 125.99 125.00 128.47 123.57 C 122.58 121.86 116.75 119.77 111.64 116.31 C 110.50 115.73 110.29 114.46 110.35 113.31 C 114.13 109.75 119.75 109.77 124.44 108.13 C 124.07 107.57 123.34 106.46 122.97 105.90 C 115.09 107.61 106.05 109.86 98.73 105.20 C 96.29 102.62 100.75 100.85 102.28 99.23 C 99.42 98.01 96.10 97.28 94.04 94.76 C 93.60 93.45 95.09 92.63 95.87 91.89 C 102.14 87.68 109.99 86.69 116.35 82.72 C 108.71 80.99 100.82 80.70 93.01 80.99 C 89.23 81.04 85.35 81.14 81.70 80.00 C 83.96 77.14 87.67 76.26 90.87 74.85 C 98.31 71.87 106.83 71.08 113.38 66.17 C 102.62 61.78 90.65 63.14 79.56 65.46 C 76.61 66.00 73.81 67.43 70.76 67.32 C 72.27 64.82 75.12 63.83 77.60 62.58 C 87.52 58.02 98.47 56.11 108.22 51.19 C 112.70 48.70 115.77 44.26 117.64 39.59 C 118.71 37.04 116.90 34.47 114.66 33.34 C 108.05 29.74 100.38 29.05 92.99 28.81 C 87.67 28.68 82.21 29.74 77.57 32.41 C 74.45 34.17 72.55 37.99 73.56 41.52 C 75.58 47.85 80.90 53.03 87.37 54.71 C 87.60 55.04 88.08 55.70 88.32 56.04 C 81.21 56.01 75.43 50.53 72.59 44.41 C 71.00 41.23 71.10 37.18 73.37 34.35 M 141.44 124.53 C 146.92 125.24 152.79 126.26 158.06 124.05 C 159.86 123.29 162.26 122.63 162.35 120.26 C 155.25 120.03 147.67 120.95 141.44 124.53 Z" />
<path fill="#ffffff" opacity="1.00" d=" M 68.88 105.82 C 70.10 104.53 71.30 104.42 72.46 105.48 C 81.31 112.64 92.37 116.26 103.46 118.14 C 98.10 123.40 89.82 122.70 83.20 125.35 C 88.22 128.16 94.79 126.71 99.76 129.83 C 95.05 131.68 89.94 133.26 86.33 137.00 C 86.41 137.46 86.58 138.39 86.66 138.86 C 91.83 140.73 97.59 141.17 102.76 139.05 C 102.29 142.09 98.47 142.26 96.03 142.56 C 91.58 142.53 85.86 142.32 83.30 138.03 C 84.91 133.70 89.87 132.38 93.30 129.88 C 87.67 128.12 81.34 128.99 76.08 126.06 C 82.74 121.76 91.11 122.05 98.21 118.94 C 94.24 117.82 90.15 117.15 86.30 115.62 C 81.50 114.05 77.28 111.12 72.46 109.63 C 70.90 108.79 70.06 107.08 68.88 105.82 Z" />
<path fill="#ffffff" opacity="1.00" d=" M 175.34 142.11 C 176.72 140.64 178.88 143.08 177.49 144.40 C 176.18 145.86 174.05 143.37 175.34 142.11 Z" />
<path fill="#ffffff" opacity="1.00" d=" M 90.16 150.37 C 97.16 147.99 104.94 147.75 111.98 150.13 C 113.61 150.67 115.32 151.94 115.10 153.88 C 113.35 156.35 110.51 153.32 108.25 154.11 C 105.50 154.95 102.63 155.40 99.95 156.46 C 101.59 160.13 105.76 161.23 109.04 162.94 C 111.88 164.06 114.74 166.06 117.94 165.35 C 123.91 164.25 129.93 163.34 136.01 163.20 C 137.40 163.19 139.00 162.93 140.00 164.17 C 140.25 165.53 139.40 166.67 138.19 167.19 C 132.23 170.04 125.36 169.99 118.98 168.83 C 115.59 168.20 111.80 168.75 109.68 171.75 C 113.92 174.78 118.73 177.56 123.96 178.20 C 130.59 177.37 137.32 177.25 143.96 178.01 C 145.32 178.16 146.32 179.21 147.44 179.89 C 143.68 185.50 136.24 183.39 130.71 182.44 C 126.59 181.61 120.76 179.65 117.96 183.99 C 118.55 185.99 120.66 186.77 122.27 187.77 C 125.09 189.26 128.16 191.20 131.49 190.37 C 135.39 189.53 139.81 188.78 143.51 190.68 C 145.67 191.57 143.92 193.95 142.43 194.42 C 137.82 196.26 132.94 194.27 128.25 193.96 C 129.53 196.28 132.40 196.45 134.58 197.48 C 139.14 199.39 143.57 201.69 147.72 204.38 C 148.74 206.51 145.83 207.52 144.35 208.29 C 140.79 209.13 136.90 208.79 133.69 210.86 C 136.87 213.75 140.69 215.98 144.81 217.20 C 147.94 218.16 151.23 217.55 154.44 217.75 C 153.85 219.04 153.56 220.89 151.72 220.69 C 144.66 221.14 137.73 218.16 132.40 213.65 C 131.34 212.76 130.41 211.55 130.52 210.09 C 133.34 206.25 138.68 206.93 142.75 205.62 C 143.33 203.59 140.21 203.07 138.96 202.06 C 134.13 199.00 128.29 198.63 123.24 196.18 C 123.73 194.84 124.24 193.51 124.75 192.19 C 120.93 190.16 115.71 188.73 114.40 184.04 C 115.04 181.96 117.05 180.79 118.43 179.25 C 114.45 177.38 109.76 176.30 106.83 172.79 C 105.22 169.99 109.30 168.64 110.75 166.86 C 106.68 164.34 101.78 163.13 98.26 159.76 C 96.40 158.45 98.18 155.87 96.86 154.37 C 94.62 153.82 92.35 153.40 90.13 152.80 C 90.14 152.19 90.15 150.98 90.16 150.37 M 98.45 151.65 C 100.95 152.22 103.52 152.54 106.09 152.32 C 104.13 150.55 100.61 149.91 98.45 151.65 M 124.79 166.92 C 127.94 168.22 131.52 167.37 134.45 165.89 C 131.20 165.73 127.94 166.13 124.79 166.92 M 134.41 180.32 C 136.86 181.35 139.90 182.16 142.29 180.54 C 139.70 179.95 137.03 179.89 134.41 180.32 Z" />
<path fill="#ffffff" opacity="1.00" d=" M 182.33 177.94 C 183.46 175.86 185.84 175.35 187.94 174.85 C 187.22 177.41 184.50 177.49 182.33 177.94 Z" />
<path fill="#ffffff" opacity="1.00" d=" M 169.64 182.59 C 171.74 182.82 173.85 183.25 175.74 184.25 C 182.59 187.63 189.35 191.37 196.77 193.38 C 196.82 193.86 196.92 194.84 196.97 195.32 C 191.17 196.07 185.16 196.82 179.90 199.55 C 183.08 202.88 186.40 206.20 190.42 208.51 C 192.27 209.64 194.50 210.30 195.78 212.18 C 191.47 212.43 187.92 209.69 184.47 207.51 C 180.37 204.89 177.73 200.64 173.76 197.85 C 174.83 196.01 176.22 194.40 177.86 193.03 C 178.68 194.10 179.49 195.19 180.28 196.29 C 183.35 195.32 186.48 194.53 189.49 193.39 C 183.01 190.66 177.31 186.18 170.40 184.56 C 170.21 184.07 169.83 183.08 169.64 182.59 Z" />
</g>
</svg>
