<?xml version="1.0" encoding="UTF-8" ?>
<!DOCTYPE svg PUBLIC "-//W3C//DTD SVG 1.1//EN" "http://www.w3.org/Graphics/SVG/1.1/DTD/svg11.dtd">
<svg width="256pt" height="256pt" viewBox="0 0 256 256" version="1.1" xmlns="http://www.w3.org/2000/svg">
<g id="#ffffffff">
<path fill="#ffffff" opacity="1.00" d=" M 72.30 59.35 C 75.85 58.85 79.64 58.65 82.27 55.85 C 82.91 59.39 80.38 62.18 79.37 65.36 C 77.11 72.07 73.50 78.19 70.61 84.62 C 67.48 91.37 63.20 97.59 60.68 104.62 C 67.86 100.37 74.70 95.48 81.14 90.16 C 84.95 87.24 89.30 85.09 92.98 81.98 C 97.97 77.69 103.26 73.76 108.25 69.47 C 109.46 69.78 110.08 70.56 110.09 71.82 C 105.95 74.74 102.17 78.16 97.89 80.90 C 94.87 83.21 92.29 86.13 88.82 87.83 C 83.94 90.40 79.72 93.95 75.85 97.84 C 68.90 102.58 61.49 107.19 56.78 114.37 C 56.32 114.33 55.39 114.24 54.92 114.19 C 55.56 109.25 58.54 105.04 60.50 100.55 C 66.48 87.53 74.41 75.31 78.43 61.46 C 69.94 61.87 61.51 63.30 53.00 63.33 C 46.30 63.41 39.77 61.60 33.08 61.47 C 25.58 61.29 17.48 59.70 10.61 63.63 C 5.10 66.36 5.60 75.49 11.06 77.94 C 13.73 79.31 16.50 80.49 19.29 81.60 C 22.77 82.96 26.43 81.45 29.91 80.91 C 34.31 80.28 37.15 76.58 40.75 74.39 C 40.60 77.98 37.53 80.21 34.62 81.67 C 29.97 83.88 24.72 85.89 19.52 84.54 C 14.55 83.30 9.23 80.96 6.79 76.15 C 4.86 72.95 4.86 68.77 6.38 65.41 C 8.56 61.21 13.43 59.36 17.91 59.04 C 27.63 58.55 37.32 59.83 47.02 60.06 C 50.96 60.92 55.00 59.95 58.93 61.05 C 63.33 60.03 67.92 60.55 72.30 59.35 Z" />
<path fill="#ffffff" opacity="1.00" d=" M 141.01 96.01 C 145.45 89.36 149.69 82.52 155.19 76.67 C 156.36 78.50 158.29 80.41 157.81 82.77 C 157.01 85.14 155.40 87.10 154.06 89.17 C 151.48 88.14 154.61 85.08 154.64 83.32 C 151.58 85.56 149.64 88.89 147.54 91.97 C 149.12 91.49 151.11 88.97 152.59 90.91 C 145.05 98.04 135.04 104.19 132.69 115.06 C 134.41 115.25 136.17 115.60 137.89 115.11 C 146.97 113.20 156.05 110.65 164.28 106.29 C 168.00 104.32 169.69 100.28 171.93 96.96 C 175.39 91.80 178.83 85.76 185.02 83.55 C 186.68 82.73 188.23 84.51 188.35 86.05 C 188.22 91.01 185.36 95.53 181.62 98.63 C 178.10 101.49 174.51 104.28 170.65 106.67 C 167.31 108.81 164.96 112.45 165.09 116.49 C 169.37 117.47 173.62 116.07 177.86 115.62 C 182.02 114.99 186.34 114.83 190.27 113.23 C 193.87 111.71 195.87 108.13 198.99 105.97 C 200.77 104.68 202.75 103.73 204.76 102.86 C 205.62 104.45 207.67 106.28 206.13 108.12 C 204.11 112.20 199.72 113.90 195.52 114.74 C 192.21 115.18 191.58 118.68 190.34 121.18 C 190.98 123.06 193.14 122.90 194.74 122.67 C 200.27 121.79 205.27 118.91 210.83 118.17 C 211.18 118.55 211.89 119.31 212.24 119.69 C 205.24 121.88 198.64 125.93 191.10 125.88 C 189.00 126.07 187.55 124.00 187.19 122.16 C 187.87 120.26 188.85 118.47 189.51 116.56 C 181.34 117.62 173.34 120.25 165.03 120.39 C 163.34 120.09 161.45 118.93 161.54 116.99 C 161.83 115.07 162.45 113.21 162.83 111.30 C 153.75 114.60 144.50 117.57 134.95 119.20 C 132.35 119.08 129.36 116.94 129.32 114.15 C 129.98 111.47 131.71 109.20 132.67 106.63 C 126.80 108.84 121.32 112.00 115.56 114.49 C 111.73 116.16 106.59 116.58 103.16 113.85 C 101.04 110.43 103.17 106.32 102.97 102.62 C 96.42 105.28 92.71 112.59 85.77 114.41 C 85.25 106.79 91.51 101.29 96.14 96.10 C 98.78 92.49 102.65 89.84 106.92 88.56 C 108.89 91.44 111.14 95.38 108.72 98.69 C 106.17 102.71 104.45 107.30 105.14 112.14 C 110.36 113.37 115.54 111.14 120.40 109.48 C 127.79 105.96 136.12 103.00 141.01 96.01 M 181.32 90.30 C 178.72 93.14 174.70 95.35 174.75 99.72 C 180.29 98.11 184.95 93.25 186.33 87.65 C 184.40 87.98 182.60 88.79 181.32 90.30 M 97.87 97.86 C 95.59 100.80 92.51 103.09 90.74 106.42 C 97.24 104.54 102.13 98.94 105.48 93.27 C 102.77 94.44 99.79 95.49 97.87 97.86 Z" />
<path fill="#ffffff" opacity="1.00" d=" M 212.13 116.77 C 216.97 114.99 220.82 111.67 224.76 108.51 C 224.83 112.59 222.26 116.03 220.57 119.58 C 219.17 122.12 214.25 124.06 216.97 127.42 C 222.15 127.09 226.35 123.39 231.44 122.67 C 229.48 125.94 225.43 126.50 222.42 128.41 C 220.25 129.47 218.10 131.69 215.51 130.57 C 214.52 129.93 212.88 129.33 212.92 127.92 C 213.08 123.37 216.86 120.23 218.54 116.24 C 216.43 116.79 214.41 118.19 212.17 117.86 C 212.16 117.59 212.14 117.04 212.13 116.77 Z" />
<path fill="#ffffff" opacity="1.00" d=" M 231.66 119.18 C 234.89 117.35 237.76 115.03 240.12 112.16 C 240.52 112.39 241.33 112.83 241.73 113.06 C 240.89 118.70 236.31 122.84 233.53 127.60 C 232.40 129.75 230.84 131.60 229.52 133.63 C 234.90 132.13 239.83 129.42 244.70 126.75 C 247.30 125.42 246.99 121.66 249.78 120.47 C 250.00 121.38 250.42 123.18 250.63 124.08 C 244.16 132.37 231.85 132.22 224.88 139.86 C 221.36 142.78 219.69 147.28 216.03 150.04 C 212.10 154.32 209.56 159.69 206.50 164.60 C 205.52 165.68 203.99 164.19 202.80 164.14 C 203.84 158.33 205.20 152.40 208.33 147.32 C 210.86 143.18 214.99 140.34 219.31 138.31 C 221.72 137.23 223.81 135.52 225.35 133.38 C 228.26 129.36 231.15 125.33 234.00 121.27 C 233.21 120.57 232.43 119.88 231.66 119.18 M 213.12 145.09 C 210.90 148.58 208.21 152.02 207.75 156.27 C 210.58 154.17 211.91 150.79 214.23 148.24 C 215.83 146.48 217.39 144.69 218.47 142.56 C 216.66 143.24 214.18 143.20 213.12 145.09 Z" />
<path fill="#ffffff" opacity="1.00" d=" M 88.22 130.03 C 91.00 129.92 92.52 127.50 94.10 125.58 C 94.90 126.83 96.44 127.99 95.84 129.66 C 95.02 132.97 93.32 135.97 92.08 139.13 C 89.66 144.45 88.36 150.24 85.42 155.33 C 84.43 156.95 83.88 158.76 83.61 160.63 C 88.75 157.54 93.23 153.46 98.37 150.34 C 103.55 147.30 107.42 142.49 112.80 139.77 C 116.56 137.77 119.78 134.96 123.22 132.49 C 124.66 133.05 126.09 135.17 124.09 136.04 C 114.65 142.54 105.27 149.15 96.23 156.22 C 91.14 160.05 85.53 163.50 81.78 168.78 C 80.18 170.89 78.82 173.62 76.02 174.30 C 75.14 173.38 74.93 172.35 75.39 171.19 C 79.71 158.44 86.95 146.81 90.20 133.69 C 86.23 132.01 82.04 132.76 77.96 133.45 C 67.21 133.68 56.60 131.54 45.95 130.43 C 41.70 130.35 37.20 131.21 33.64 133.64 C 31.03 135.35 29.08 139.59 32.09 141.90 C 37.07 145.46 43.64 146.83 49.61 145.41 C 54.18 144.33 57.64 140.69 62.26 139.73 C 61.87 141.07 61.72 142.65 60.42 143.47 C 54.06 149.19 44.39 150.74 36.50 147.52 C 33.43 146.07 30.22 144.11 28.81 140.86 C 27.85 136.35 30.80 131.55 35.06 129.95 C 43.37 126.42 52.50 128.80 61.10 129.64 C 70.06 131.14 79.22 131.14 88.22 130.03 Z" />
<path fill="#ffffff" opacity="1.00" d=" M 133.94 141.58 C 136.53 139.75 138.91 137.66 141.42 135.73 C 142.03 136.83 142.58 137.96 143.06 139.12 C 142.33 141.34 140.44 142.98 139.13 144.87 C 137.10 144.28 135.31 143.19 133.94 141.58 Z" />
<path fill="#ffffff" opacity="1.00" d=" M 117.18 164.19 C 120.48 160.23 123.19 155.74 127.01 152.25 C 127.53 153.94 128.96 155.86 127.66 157.56 C 123.50 163.90 116.99 168.60 113.97 175.69 C 118.15 176.54 121.40 173.49 125.02 172.06 C 128.34 170.61 132.44 169.80 134.29 166.31 C 136.69 161.79 140.18 157.60 145.04 155.64 C 147.33 158.81 146.23 163.04 143.79 165.77 C 141.00 167.97 137.14 169.04 135.39 172.38 C 133.86 175.23 131.77 177.94 131.63 181.30 C 140.73 180.19 148.68 175.47 156.95 171.92 C 162.28 169.27 166.97 165.55 172.19 162.72 C 174.47 166.26 172.10 170.08 170.24 173.21 C 168.29 176.04 166.54 179.02 165.49 182.32 C 166.24 182.09 167.74 181.64 168.49 181.42 C 175.39 177.35 183.45 175.12 189.08 169.13 C 191.70 171.17 190.33 174.56 188.46 176.55 C 186.24 178.93 186.08 182.30 185.58 185.34 C 189.05 185.86 192.60 184.50 194.47 181.46 C 197.43 177.93 197.02 173.17 196.90 168.89 C 200.25 170.87 203.97 172.41 207.97 171.78 C 215.33 171.10 224.37 172.40 229.58 165.92 C 230.45 167.47 231.56 169.43 230.14 171.05 C 227.77 172.60 225.00 173.61 222.14 173.46 C 214.48 174.96 206.42 177.28 198.63 175.20 C 199.43 181.24 195.48 186.61 190.27 189.18 C 188.10 189.65 185.01 190.70 183.61 188.29 C 181.20 185.30 183.21 181.51 183.61 178.23 C 176.07 179.97 170.63 186.22 163.10 187.95 C 161.22 187.76 159.73 185.91 160.15 184.03 C 161.03 178.90 165.08 175.15 166.91 170.40 C 165.12 170.54 163.30 170.80 161.68 171.61 C 158.73 175.60 153.46 176.09 149.34 178.35 C 143.99 180.46 139.25 184.68 133.30 184.87 C 128.30 184.22 128.84 178.21 129.44 174.56 C 123.85 175.13 119.98 180.87 114.14 179.80 C 112.35 179.92 110.52 178.88 110.40 176.95 C 110.74 171.90 114.28 168.02 117.18 164.19 Z" />
</g>
</svg>
