<?xml version="1.0" encoding="UTF-8" ?>
<!DOCTYPE svg PUBLIC "-//W3C//DTD SVG 1.1//EN" "http://www.w3.org/Graphics/SVG/1.1/DTD/svg11.dtd">
<svg width="256pt" height="128pt" viewBox="0 0 256 128" version="1.1" xmlns="http://www.w3.org/2000/svg">
<g id="#ffffffff">
<path fill="#ffffff" opacity="1.00" d=" M 165.50 34.95 C 165.34 30.00 167.24 24.91 171.18 21.79 C 172.49 20.75 174.20 21.83 175.41 22.49 C 178.14 24.06 177.41 27.69 178.18 30.27 C 178.95 29.14 179.70 27.98 180.42 26.81 C 181.35 27.52 183.22 27.53 183.32 28.97 C 181.31 33.81 177.76 38.45 178.43 43.98 C 178.84 49.39 178.65 54.82 178.34 60.23 C 178.34 62.02 177.61 63.66 176.93 65.27 C 174.19 64.51 171.18 63.96 169.00 62.00 C 166.91 59.91 166.83 56.56 168.01 53.99 C 170.07 49.40 172.00 44.75 174.19 40.22 C 175.95 37.00 174.98 33.18 174.76 29.71 C 171.79 31.84 170.91 35.77 167.87 37.83 C 165.61 39.44 164.56 42.44 162.01 43.61 C 157.53 43.91 156.90 38.79 155.62 35.68 C 152.03 38.31 151.47 43.14 149.89 47.01 C 149.68 48.56 147.39 48.67 146.68 47.44 C 146.39 45.78 146.32 44.08 146.08 42.41 C 143.23 46.03 142.06 50.77 138.72 54.03 C 135.39 56.01 134.21 51.40 133.00 49.28 C 130.21 53.07 128.52 58.30 123.89 60.26 C 119.94 60.79 120.77 55.42 119.29 53.12 C 115.98 56.67 113.95 61.07 111.95 65.42 C 109.79 64.87 108.99 62.95 108.40 61.01 C 105.73 64.43 103.09 67.94 99.84 70.84 C 96.72 73.00 92.10 71.27 90.76 67.80 C 88.45 70.70 87.04 74.18 84.85 77.15 C 84.42 77.19 83.55 77.26 83.12 77.30 C 81.47 74.38 81.80 70.77 81.04 67.55 C 78.29 68.96 75.49 70.30 72.88 71.96 C 71.75 72.57 71.81 73.95 71.61 75.04 C 71.17 78.51 70.56 82.01 69.07 85.20 C 62.46 83.70 55.56 84.22 48.97 83.00 L 48.40 81.62 C 54.59 81.14 60.72 82.55 66.90 82.51 C 68.22 79.84 68.29 76.71 68.71 73.80 C 65.87 74.10 60.82 76.78 59.56 72.86 C 62.83 72.67 66.66 72.70 69.20 70.35 C 70.05 66.24 70.49 62.01 70.20 57.80 C 58.23 60.69 46.47 64.56 34.98 68.89 C 32.47 69.92 35.23 71.09 36.60 71.25 C 43.22 72.89 49.71 70.27 55.97 68.46 C 54.49 71.57 50.69 72.01 47.73 72.86 C 41.86 74.27 34.83 74.10 30.02 70.03 C 32.28 68.21 34.61 66.32 37.45 65.51 C 44.16 63.64 50.62 60.97 57.34 59.13 C 61.09 57.98 64.96 57.13 68.55 55.49 C 70.11 54.98 70.46 53.32 70.96 51.97 C 72.35 52.75 73.82 54.15 75.54 53.40 C 80.19 51.80 85.18 50.80 89.22 47.84 C 90.03 46.55 93.96 48.68 91.88 49.66 C 86.28 53.15 79.53 53.88 73.54 56.46 C 72.22 60.53 72.59 65.04 72.49 69.30 C 76.35 67.72 79.55 65.03 82.98 62.72 C 84.38 65.12 84.70 67.88 85.13 70.57 C 89.57 65.53 93.65 60.09 98.52 55.43 C 99.47 54.54 100.49 54.48 101.59 55.25 C 102.68 57.54 102.65 60.14 103.16 62.58 C 106.00 60.03 107.94 56.43 108.74 52.72 C 109.27 46.66 108.23 40.57 108.70 34.50 C 112.76 35.12 113.58 39.59 113.73 43.00 C 113.34 47.30 112.03 51.54 112.54 55.91 C 115.46 54.25 116.87 50.56 120.00 49.39 C 123.22 50.13 123.16 53.76 123.74 56.33 C 128.27 52.18 130.75 46.44 133.84 41.25 C 134.49 41.58 135.78 42.25 136.43 42.58 C 136.56 44.92 136.62 47.26 136.91 49.59 C 138.72 48.45 139.86 46.61 140.70 44.70 C 142.28 41.10 144.13 37.62 145.95 34.14 C 147.37 35.13 148.67 36.28 149.93 37.49 C 151.42 35.47 152.35 32.56 154.96 31.73 C 159.12 32.61 159.81 37.57 160.97 40.95 C 162.81 39.33 165.69 37.80 165.50 34.95 M 171.51 26.18 C 170.00 26.85 169.22 28.63 169.08 30.19 C 169.57 31.56 170.77 29.55 171.06 29.04 C 171.41 28.36 173.13 26.38 171.51 26.18 M 171.32 55.21 C 170.99 56.95 169.93 59.02 171.38 60.55 C 172.40 61.28 173.64 61.59 174.82 61.99 C 175.75 56.79 176.37 51.25 175.17 46.07 C 173.92 49.13 172.31 52.05 171.32 55.21 M 91.35 67.19 C 93.28 67.75 95.18 68.42 97.05 69.16 C 99.43 66.15 99.75 62.23 99.41 58.54 C 96.19 60.88 93.80 64.11 91.35 67.19 Z" />
<path fill="#ffffff" opacity="1.00" d=" M 135.07 31.23 C 135.56 30.92 136.53 30.30 137.02 29.99 C 138.39 31.20 139.77 32.47 140.35 34.27 C 138.31 33.80 136.34 32.96 135.07 31.23 Z" />
<path fill="#ffffff" opacity="1.00" d=" M 154.60 46.30 C 157.56 45.79 158.33 48.52 158.41 50.93 C 159.98 50.71 161.57 50.61 163.15 50.87 C 163.44 53.93 160.52 55.04 158.43 56.46 C 158.45 61.07 157.52 65.81 158.90 70.30 C 160.12 68.56 161.13 66.68 162.23 64.86 C 163.79 66.85 164.29 70.32 161.99 71.98 C 160.16 73.57 157.06 73.23 155.88 71.03 C 153.53 67.18 154.85 62.48 154.37 58.25 C 151.05 61.63 148.14 65.41 144.99 68.94 C 146.55 72.62 146.42 76.70 144.07 80.04 C 142.85 82.24 139.55 80.94 139.00 78.87 C 138.20 76.09 138.40 73.16 138.34 70.31 C 136.12 71.30 134.12 72.72 132.37 74.41 C 131.72 76.91 132.85 79.87 130.96 82.02 C 129.16 85.01 125.44 85.86 123.24 88.33 C 121.74 93.14 122.64 98.38 121.06 103.18 C 120.12 102.39 119.14 101.63 118.35 100.68 C 117.88 94.27 120.01 88.02 119.78 81.60 C 116.91 85.98 113.87 90.39 109.56 93.50 C 105.46 96.18 99.35 95.86 95.87 92.28 C 92.17 95.76 88.77 99.59 84.84 102.83 C 84.45 102.42 83.68 101.60 83.29 101.20 C 86.06 97.68 89.66 94.94 92.67 91.65 C 96.99 86.91 101.50 82.32 106.36 78.14 C 107.39 77.06 109.22 78.20 109.48 79.41 C 110.37 83.52 109.75 87.77 108.17 91.63 C 113.24 88.97 116.55 84.00 119.19 79.08 C 121.95 73.81 121.21 67.68 122.08 61.98 C 123.18 62.22 124.20 62.62 125.16 63.20 C 125.87 66.28 125.24 69.46 125.30 72.59 C 127.09 73.07 128.84 74.20 130.74 73.98 C 134.22 71.92 137.06 68.99 140.01 66.27 C 141.25 66.76 142.50 67.22 143.76 67.66 C 145.95 65.05 149.08 63.15 150.36 59.86 C 146.84 60.42 143.99 64.56 140.27 62.92 C 140.25 62.51 140.20 61.70 140.17 61.30 C 143.99 58.50 148.55 57.03 152.66 54.75 C 155.15 52.76 154.18 49.09 154.60 46.30 M 124.40 75.31 C 124.55 76.74 124.62 78.41 126.36 78.74 C 125.29 80.43 124.44 82.25 123.96 84.20 C 126.59 83.19 128.29 80.90 129.16 78.30 C 128.54 78.25 127.31 78.16 126.69 78.11 C 127.20 77.05 127.67 75.98 128.11 74.90 C 126.87 75.00 125.63 75.14 124.40 75.31 M 96.53 91.81 C 98.03 92.21 99.50 92.73 101.04 92.96 C 104.94 91.39 106.83 86.86 106.78 82.85 C 102.51 84.55 99.51 88.45 96.53 91.81 Z" />
<path fill="#ffffff" opacity="1.00" d=" M 81.61 60.94 C 82.10 59.08 82.50 55.96 85.22 57.03 C 86.07 58.87 84.69 60.50 84.02 62.12 C 83.41 61.82 82.21 61.23 81.61 60.94 Z" />
</g>
</svg>
