<?xml version="1.0" encoding="UTF-8" ?>
<!DOCTYPE svg PUBLIC "-//W3C//DTD SVG 1.1//EN" "http://www.w3.org/Graphics/SVG/1.1/DTD/svg11.dtd">
<svg width="512pt" height="128pt" viewBox="0 0 512 128" version="1.1" xmlns="http://www.w3.org/2000/svg">
<g id="#ffffffff">
<path fill="#ffffff" opacity="1.00" d=" M 125.87 47.92 C 130.21 39.59 135.34 31.73 140.03 23.61 C 142.82 26.14 145.15 29.40 145.61 33.23 C 146.59 40.05 143.53 46.53 140.43 52.40 C 137.69 57.76 133.47 62.29 128.51 65.69 C 127.92 64.84 127.38 63.96 126.89 63.05 C 130.04 60.14 133.67 57.63 135.83 53.81 C 141.03 46.68 145.91 37.20 142.41 28.30 C 133.70 39.80 128.15 53.27 120.51 65.46 C 118.26 69.94 114.50 73.32 111.77 77.47 C 117.62 78.27 123.58 79.26 129.48 78.46 C 133.79 77.88 136.95 74.64 140.57 72.57 C 138.49 77.66 133.93 82.41 128.06 82.26 C 122.35 81.84 116.62 81.46 110.95 80.65 C 107.33 79.88 104.86 84.19 101.15 83.37 C 98.29 81.46 97.51 77.81 96.13 74.87 C 99.45 75.26 102.63 76.68 106.00 76.58 C 109.44 74.56 111.41 70.88 113.76 67.78 C 118.47 61.59 121.74 54.49 125.87 47.92 Z" />
<path fill="#ffffff" opacity="1.00" d=" M 307.53 53.60 C 312.10 43.81 322.15 37.95 332.29 35.43 C 336.68 34.41 341.40 37.56 342.05 42.03 C 342.67 48.32 340.26 54.57 336.52 59.55 C 332.41 65.26 327.68 71.28 320.87 73.78 C 316.79 73.61 316.95 68.64 316.77 65.68 C 313.90 68.08 311.05 70.50 308.23 72.94 C 309.95 75.22 312.19 77.50 315.24 77.67 C 321.83 78.29 327.74 74.82 333.79 72.80 C 337.97 71.64 339.13 66.83 342.54 64.56 C 344.50 63.05 347.98 60.48 349.98 63.27 C 351.20 65.58 348.75 67.14 347.47 68.67 C 346.18 71.75 345.34 75.02 344.73 78.30 C 349.69 77.50 354.26 75.14 358.46 72.49 C 362.16 70.25 363.28 65.84 365.28 62.29 C 368.87 55.73 370.90 48.35 375.29 42.23 C 375.84 41.18 376.71 40.68 377.91 40.72 C 379.99 44.73 379.74 49.73 377.57 53.65 C 374.73 58.85 372.01 64.30 367.51 68.30 C 369.39 69.45 372.16 70.41 372.20 73.05 C 372.05 78.66 365.60 83.28 360.30 81.07 C 358.75 79.94 358.22 77.99 357.38 76.36 C 353.69 78.12 350.16 80.74 345.98 81.13 C 342.99 81.29 342.64 77.79 341.75 75.74 C 339.27 77.80 337.09 80.37 333.88 81.32 C 333.43 79.15 334.02 77.03 334.46 74.91 C 328.80 77.12 323.28 80.39 317.06 80.59 C 312.58 80.61 309.22 77.26 306.19 74.40 C 299.59 78.70 293.43 83.65 286.69 87.74 C 283.85 89.32 282.05 92.50 278.74 93.22 C 282.39 86.67 289.96 84.13 295.47 79.49 C 298.54 76.68 303.00 75.44 305.41 71.98 C 303.82 65.82 304.28 59.17 307.53 53.60 M 330.35 38.22 C 322.58 40.88 315.12 45.62 310.84 52.80 C 307.73 58.04 305.69 64.42 307.54 70.46 C 312.91 66.71 317.70 62.19 321.60 56.91 C 322.06 58.40 321.94 59.95 321.15 61.30 C 319.58 64.42 318.88 67.92 319.31 71.40 C 322.30 70.84 324.70 68.86 326.96 66.95 C 332.11 62.36 336.97 56.98 339.23 50.34 C 340.07 47.21 340.91 43.67 339.55 40.57 C 337.88 37.20 333.46 37.03 330.35 38.22 M 369.10 62.21 C 372.11 59.37 374.03 55.63 375.90 51.99 C 377.03 49.93 377.49 47.58 377.26 45.25 C 373.48 50.29 371.02 56.24 369.10 62.21 M 337.53 75.39 C 341.41 73.06 344.50 69.70 346.64 65.72 C 342.15 67.09 339.69 71.56 337.53 75.39 M 360.59 78.69 C 364.67 79.57 370.15 76.36 369.24 71.76 C 365.17 71.95 362.21 75.24 360.59 78.69 Z" />
<path fill="#ffffff" opacity="1.00" d=" M 199.19 40.43 C 203.56 43.85 201.98 49.91 200.66 54.44 C 198.69 58.86 196.04 62.95 193.56 67.09 C 196.58 66.50 200.02 65.45 202.89 67.12 C 204.80 68.63 205.97 72.03 203.86 73.87 C 201.53 75.96 198.28 75.44 195.42 75.66 C 196.48 76.61 197.27 79.00 199.07 78.37 C 205.45 77.00 210.25 72.12 214.30 67.30 C 215.11 68.20 215.87 69.14 216.59 70.11 C 215.78 72.28 214.60 74.30 213.86 76.49 C 219.05 73.39 223.69 69.47 228.21 65.48 C 228.68 65.60 229.60 65.82 230.06 65.93 C 231.22 69.93 228.63 73.80 227.10 77.36 C 226.16 78.96 227.42 80.93 226.60 82.57 C 224.83 84.46 222.57 85.93 221.31 88.27 C 217.11 95.43 212.04 102.03 208.05 109.31 C 205.40 107.95 203.20 105.18 203.62 102.05 C 204.53 96.03 207.17 89.84 212.37 86.34 C 214.67 84.51 217.47 83.52 219.92 81.96 C 221.52 79.55 222.65 76.86 223.73 74.20 C 219.62 75.89 217.44 80.63 212.99 81.43 C 210.17 82.33 210.25 78.42 209.21 76.78 C 206.15 79.35 202.73 83.16 198.27 81.63 C 193.93 80.15 193.87 74.81 192.10 71.30 C 189.75 73.27 188.98 76.32 187.64 78.94 C 185.76 79.56 184.91 77.35 183.68 76.41 C 179.95 78.79 176.45 82.08 171.90 82.71 C 168.12 83.27 165.55 79.21 165.32 75.90 C 165.27 71.11 167.43 66.08 171.50 63.39 C 173.50 62.14 175.78 63.93 176.14 65.98 C 174.96 68.97 171.60 70.25 169.43 72.42 C 168.03 74.44 168.34 77.03 168.49 79.33 C 174.84 78.82 180.29 74.97 185.09 71.09 C 189.22 67.84 191.10 62.79 193.17 58.14 C 195.76 52.44 196.67 46.16 199.19 40.43 M 194.17 70.69 C 196.65 73.25 200.38 72.40 202.47 69.82 C 199.66 69.41 196.83 69.67 194.17 70.69 M 211.30 92.29 C 209.46 95.64 207.34 99.00 206.89 102.88 C 210.30 98.91 212.71 94.15 215.06 89.50 C 213.74 90.31 211.99 90.75 211.30 92.29 Z" />
<path fill="#ffffff" opacity="1.00" d=" M 249.98 47.02 C 250.36 45.94 251.46 45.42 252.25 44.67 C 252.58 45.50 253.24 47.16 253.57 47.99 C 251.37 52.29 248.82 56.42 246.89 60.86 C 246.02 62.96 244.55 64.77 242.54 65.88 C 244.58 59.43 247.37 53.25 249.98 47.02 Z" />
<path fill="#ffffff" opacity="1.00" d=" M 391.81 55.19 C 394.10 55.43 395.69 56.67 395.00 59.15 C 392.43 60.14 392.47 56.75 391.81 55.19 Z" />
<path fill="#ffffff" opacity="1.00" d=" M 145.68 62.41 C 146.49 63.27 147.34 64.10 148.00 65.10 C 147.27 68.06 145.90 70.81 144.93 73.69 C 148.23 71.38 151.18 68.62 154.30 66.08 C 155.51 66.10 156.47 66.95 156.75 68.10 C 155.90 71.46 154.18 74.61 154.20 78.17 C 157.32 76.84 160.28 75.14 163.50 74.06 C 162.76 78.23 158.43 80.13 155.03 81.83 C 151.96 80.47 152.34 76.64 150.25 74.66 C 147.28 76.86 144.53 79.32 141.83 81.85 C 140.88 80.49 139.75 78.99 140.31 77.22 C 140.53 71.84 143.39 67.13 145.68 62.41 Z" />
<path fill="#ffffff" opacity="1.00" d=" M 255.08 70.88 C 261.28 68.80 266.97 65.40 273.29 63.63 C 273.34 65.33 273.44 67.07 272.78 68.67 C 271.20 73.32 269.97 78.59 265.91 81.78 C 263.26 79.95 260.67 77.72 259.19 74.81 C 259.38 74.42 259.74 73.64 259.92 73.25 C 261.75 74.49 263.13 76.22 264.63 77.82 C 266.71 74.92 268.51 71.80 269.65 68.41 C 262.10 71.04 254.62 73.98 246.97 76.41 C 246.73 75.87 246.25 74.79 246.02 74.25 C 248.99 73.00 252.01 71.88 255.08 70.88 Z" />
<path fill="#ffffff" opacity="1.00" d=" M 380.29 72.47 C 381.56 71.10 382.67 68.54 384.94 69.22 C 385.14 73.64 380.98 76.65 379.72 80.69 C 384.90 78.18 389.34 74.42 394.25 71.44 C 396.57 72.30 395.59 74.85 395.43 76.67 C 399.26 74.18 403.40 71.91 408.00 71.33 C 409.56 70.97 411.24 72.35 410.99 73.97 C 410.72 76.92 409.70 79.74 409.04 82.61 C 413.93 80.95 419.38 79.19 422.47 74.75 C 422.46 73.46 422.27 72.17 422.19 70.88 C 423.43 71.49 424.66 72.12 425.90 72.77 C 425.76 77.59 421.56 80.64 417.69 82.70 C 414.40 84.60 410.72 86.08 406.85 85.57 C 405.64 81.58 408.08 77.85 408.76 74.01 C 402.12 75.27 396.79 79.67 391.73 83.85 C 391.07 83.87 389.74 83.91 389.07 83.93 C 389.30 81.98 389.77 80.07 390.19 78.16 C 385.67 80.13 382.29 84.90 377.01 84.79 C 375.36 80.28 379.22 76.61 380.29 72.47 Z" />
</g>
</svg>
