<?xml version="1.0" encoding="UTF-8" ?>
<!DOCTYPE svg PUBLIC "-//W3C//DTD SVG 1.1//EN" "http://www.w3.org/Graphics/SVG/1.1/DTD/svg11.dtd">
<svg width="512pt" height="128pt" viewBox="0 0 512 128" version="1.1" xmlns="http://www.w3.org/2000/svg">
<g id="#ffffffff">
<path fill="#ffffff" opacity="1.00" d=" M 130.79 24.77 C 132.97 23.30 135.67 21.42 138.40 22.44 C 141.05 24.28 142.91 27.33 143.06 30.59 C 141.38 29.01 140.58 26.49 138.51 25.37 C 135.51 24.78 132.97 27.05 130.76 28.74 C 124.23 34.66 119.12 41.94 114.23 49.23 C 112.09 51.95 114.58 55.14 114.82 58.07 C 115.51 64.89 113.33 72.42 107.99 76.95 C 100.48 81.36 91.10 82.90 82.71 80.22 C 77.62 78.22 71.75 81.20 67.00 78.01 C 63.50 76.10 65.34 70.04 69.01 69.66 C 73.08 70.25 75.42 75.25 79.80 74.79 C 86.03 73.85 91.20 69.82 95.90 65.88 C 100.35 61.99 104.32 57.58 107.84 52.84 C 108.51 51.80 109.48 50.50 108.86 49.21 C 107.28 45.14 103.93 41.92 100.09 39.96 C 96.99 38.25 93.34 38.53 89.94 38.24 C 79.68 37.63 69.44 39.60 59.74 42.83 C 54.37 45.00 48.57 47.16 44.91 51.89 C 41.41 56.40 38.58 61.53 37.11 67.07 C 35.67 72.31 36.11 77.80 36.52 83.15 C 37.20 91.19 42.03 98.96 49.34 102.57 C 53.65 104.89 58.94 103.57 63.23 105.96 C 56.29 107.11 48.16 106.30 42.96 101.05 C 40.18 98.17 36.93 95.49 35.49 91.63 C 29.08 76.60 33.32 58.21 44.86 46.86 C 48.74 43.26 53.91 41.71 58.65 39.61 C 63.20 37.51 68.20 36.81 73.07 35.82 C 77.26 35.07 81.45 33.64 85.76 34.30 C 90.88 34.96 96.33 34.50 101.06 36.92 C 105.58 39.05 108.68 43.17 111.09 47.41 C 117.30 39.58 122.80 30.95 130.79 24.77 M 96.16 70.21 C 93.04 72.82 89.42 74.72 86.11 77.06 C 91.11 78.20 96.27 77.27 101.15 75.99 C 110.35 73.71 114.69 62.16 111.23 53.81 C 106.83 59.81 102.05 65.62 96.16 70.21 Z" />
<path fill="#ffffff" opacity="1.00" d=" M 329.73 31.78 C 330.39 33.41 331.52 35.04 331.30 36.88 C 329.64 42.14 327.31 47.14 325.23 52.24 C 329.59 50.38 333.72 46.90 338.67 47.17 C 342.74 49.76 342.94 56.32 339.80 59.77 C 335.17 65.07 329.06 68.76 322.76 71.74 C 325.38 78.13 333.17 80.55 339.36 78.39 C 341.84 75.16 343.30 71.18 346.31 68.32 C 349.70 64.69 354.15 62.21 358.79 60.56 C 360.18 63.20 361.50 66.68 359.44 69.34 C 357.15 72.18 354.70 75.12 354.27 78.91 C 361.72 75.44 368.39 70.45 375.04 65.64 C 375.89 67.73 376.47 69.91 376.80 72.13 C 381.46 69.87 386.29 67.73 391.49 67.13 C 394.81 70.72 392.88 75.34 391.00 79.09 C 392.17 79.26 393.35 79.43 394.54 79.61 C 392.62 81.22 390.67 82.79 388.64 84.24 C 387.93 83.49 387.27 82.69 386.65 81.87 C 387.38 78.44 389.09 75.31 389.81 71.87 C 382.74 73.04 376.16 77.22 372.13 83.15 C 371.34 85.23 368.16 83.94 368.54 81.96 C 369.15 79.47 370.09 77.09 370.81 74.63 C 364.98 77.14 360.96 82.65 354.84 84.59 C 351.27 85.09 350.60 80.78 350.03 78.23 C 347.37 80.14 344.66 83.02 341.05 82.33 C 337.42 81.59 333.89 83.98 330.31 82.86 C 324.58 81.58 321.69 75.95 318.03 71.94 C 316.36 70.50 317.07 67.59 319.37 67.45 C 325.54 66.19 330.95 62.69 335.62 58.59 C 337.38 56.81 339.20 54.59 339.29 52.00 C 338.64 49.60 335.98 50.88 334.51 51.55 C 326.62 55.48 318.91 60.47 313.80 67.82 C 310.38 72.15 307.82 77.07 304.52 81.48 C 303.68 80.94 302.87 80.37 302.10 79.75 C 303.73 73.62 308.09 68.73 311.61 63.60 C 315.07 58.56 318.90 53.78 322.15 48.61 C 317.64 50.67 314.47 54.59 310.92 57.90 C 299.52 68.48 286.71 78.04 271.81 83.01 C 268.09 84.28 263.14 82.28 262.72 78.02 C 262.35 69.58 266.19 61.09 272.57 55.58 C 275.50 53.00 279.75 51.68 283.46 53.37 C 285.53 59.37 280.88 64.20 278.07 68.95 C 277.21 70.42 275.88 71.47 274.28 72.02 C 275.22 65.94 280.97 61.87 282.15 55.77 C 277.52 55.37 273.97 58.99 271.29 62.30 C 267.82 66.78 265.36 72.29 265.45 78.04 C 267.01 80.19 269.77 79.13 271.93 78.81 C 274.93 78.31 277.40 76.44 280.05 75.09 C 291.99 69.37 302.67 61.29 312.54 52.54 C 318.80 46.11 326.65 40.58 329.73 31.78 M 353.53 67.70 C 354.79 68.50 355.77 70.22 357.47 69.91 C 357.61 68.53 357.71 67.16 357.76 65.78 C 356.32 66.36 354.91 67.00 353.53 67.70 M 347.56 73.70 C 350.03 72.51 352.31 70.81 353.62 68.34 C 350.95 69.23 348.43 70.86 347.56 73.70 Z" />
<path fill="#ffffff" opacity="1.00" d=" M 430.27 67.27 C 436.16 58.05 441.87 48.69 447.98 39.63 C 450.01 45.19 450.05 51.78 446.91 56.95 C 444.72 61.26 440.38 63.77 437.33 67.38 C 435.67 69.32 433.61 70.88 432.04 72.91 C 434.95 73.00 438.76 71.40 440.83 74.33 C 441.44 76.61 441.11 79.02 441.36 81.35 C 448.26 79.63 454.56 76.22 461.23 73.86 C 461.84 75.91 461.76 78.48 459.69 79.68 C 454.25 82.92 448.25 85.02 442.34 87.19 C 440.68 87.89 438.29 87.96 437.51 85.97 C 437.18 83.13 437.83 80.31 438.10 77.49 C 432.03 77.75 426.98 81.39 423.14 85.82 C 422.58 85.35 421.45 84.40 420.88 83.93 C 421.25 82.41 421.63 80.90 421.97 79.37 C 415.99 81.40 410.54 85.57 404.02 85.70 C 401.29 86.09 398.73 83.65 398.74 80.96 C 398.91 76.76 400.77 72.70 403.61 69.64 C 404.95 68.17 406.88 67.20 408.91 67.43 C 411.71 69.82 412.24 74.25 409.95 77.18 C 409.18 75.67 408.50 74.13 407.89 72.56 C 404.48 73.81 401.79 76.61 401.45 80.35 C 406.78 80.93 411.74 78.41 416.60 76.60 C 421.57 74.27 427.01 71.90 430.27 67.27 M 440.61 58.97 C 444.51 57.29 447.14 52.74 447.07 48.54 C 444.32 51.59 442.35 55.27 440.61 58.97 Z" />
<path fill="#ffffff" opacity="1.00" d=" M 118.94 70.93 C 121.16 65.31 124.35 59.55 129.97 56.75 C 131.05 57.63 132.11 58.52 133.18 59.42 C 137.69 58.32 142.32 57.71 146.96 57.59 C 148.52 58.27 148.63 60.43 148.87 61.92 C 148.23 66.47 144.40 69.86 143.98 74.50 C 149.48 71.86 152.45 66.21 157.10 62.51 C 159.57 66.21 156.51 70.49 157.60 74.55 C 161.21 76.03 164.37 73.08 166.22 70.26 C 167.43 67.50 167.20 64.36 168.14 61.52 C 172.14 61.59 176.05 60.74 180.02 60.51 C 184.06 60.96 181.78 65.97 181.98 68.57 C 185.01 67.46 188.20 63.27 191.51 65.49 C 193.85 68.24 191.36 72.21 192.36 75.47 C 195.71 75.12 199.07 73.86 201.70 71.72 C 205.26 67.63 207.11 60.72 213.35 60.05 C 214.93 63.01 214.64 66.81 212.09 69.14 C 209.91 71.90 205.90 72.83 204.56 76.26 C 210.61 75.98 216.10 73.11 221.39 70.42 C 229.60 66.52 237.40 61.26 246.44 59.51 C 246.83 65.68 244.18 71.72 240.76 76.73 C 239.53 78.68 236.62 80.81 234.61 78.60 C 232.04 75.60 233.57 71.31 233.95 67.80 C 225.13 71.88 217.44 78.43 207.88 80.83 C 204.54 81.82 202.30 78.78 200.14 76.82 C 197.24 78.28 194.12 80.44 190.71 79.47 C 187.32 77.04 188.65 72.35 188.75 68.83 C 184.51 72.10 179.93 75.06 176.69 79.41 C 175.81 78.93 174.93 78.45 174.06 77.96 C 175.61 73.44 177.65 69.09 178.94 64.48 C 176.34 64.50 173.71 64.49 171.16 65.09 C 170.43 68.42 170.26 72.14 167.76 74.74 C 165.51 77.18 162.56 79.71 159.05 79.61 C 155.46 79.11 154.74 75.01 153.40 72.29 C 149.52 75.38 146.33 80.50 140.88 80.63 C 138.82 74.13 142.72 68.07 144.92 62.20 C 140.38 61.96 135.91 62.85 131.51 63.83 C 130.56 70.16 128.75 77.47 122.64 80.75 C 120.87 81.94 118.64 80.48 117.88 78.79 C 116.93 76.15 118.06 73.41 118.94 70.93 M 121.05 75.94 C 125.77 73.69 128.74 68.51 127.63 63.27 C 123.48 66.17 122.16 71.30 121.05 75.94 M 235.33 67.01 C 235.86 69.29 236.40 71.58 237.33 73.75 C 239.46 71.23 241.21 68.35 241.90 65.09 C 239.62 65.37 237.44 66.13 235.33 67.01 Z" />
</g>
</svg>
