<?xml version="1.0" encoding="UTF-8" ?>
<!DOCTYPE svg PUBLIC "-//W3C//DTD SVG 1.1//EN" "http://www.w3.org/Graphics/SVG/1.1/DTD/svg11.dtd">
<svg width="256pt" height="128pt" viewBox="0 0 256 128" version="1.1" xmlns="http://www.w3.org/2000/svg">
<g id="#ffffffff">
<path fill="#ffffff" opacity="1.00" d=" M 28.16 19.65 C 26.07 15.42 29.24 9.44 34.07 9.19 C 37.75 8.74 41.42 9.48 45.00 10.28 C 50.35 10.86 55.86 10.41 61.03 12.11 C 65.12 12.65 69.31 11.70 73.40 12.51 C 79.89 13.78 86.49 12.98 93.03 13.22 C 101.25 13.98 109.48 12.49 117.67 13.80 C 118.94 12.41 120.15 10.96 121.42 9.57 C 121.94 11.87 122.80 16.02 119.66 16.66 C 116.16 17.98 112.54 16.73 109.00 16.64 C 105.97 17.20 102.11 16.20 99.97 19.01 C 96.61 23.55 93.82 28.56 91.68 33.78 C 97.91 34.06 104.18 33.60 110.34 32.64 C 112.16 35.67 109.42 38.58 108.35 41.36 C 107.06 43.51 106.23 47.20 103.10 47.04 C 100.33 45.91 98.02 43.94 95.52 42.35 C 95.24 40.68 94.98 39.01 94.66 37.35 C 92.40 37.25 89.41 36.76 88.31 39.35 C 84.83 46.09 80.81 52.54 77.14 59.18 C 75.56 61.58 73.88 64.59 70.94 65.35 C 66.92 64.72 64.07 61.31 60.59 59.42 C 56.66 56.65 51.94 55.40 47.82 53.02 C 47.87 51.61 48.58 50.91 49.95 50.93 C 55.04 53.43 60.32 55.66 64.78 59.24 C 67.15 61.08 71.01 63.35 73.53 60.50 C 77.29 56.02 79.26 50.36 82.51 45.53 C 84.23 42.91 85.48 40.02 86.56 37.08 C 82.06 37.15 77.49 37.54 73.77 40.33 C 74.06 38.74 73.87 36.42 75.79 35.80 C 79.92 33.63 84.91 34.76 89.05 33.01 C 92.63 27.92 95.24 22.17 98.45 16.83 C 94.61 16.30 90.84 17.70 87.00 16.98 C 78.95 17.00 71.07 14.84 63.03 15.45 C 54.94 14.94 47.04 13.00 39.04 11.87 C 36.40 11.77 33.27 11.22 31.09 13.09 C 29.16 15.23 29.50 18.70 31.23 20.85 C 34.11 24.62 37.57 28.48 42.36 29.65 C 45.89 30.54 49.33 31.88 52.97 32.31 C 60.76 32.54 69.10 33.29 76.06 29.01 C 74.92 32.56 71.31 34.40 67.85 34.96 C 60.66 36.15 53.36 34.91 46.26 33.69 C 38.77 31.66 31.15 27.18 28.16 19.65 M 96.37 37.76 C 98.27 39.82 100.36 41.89 103.04 42.88 C 105.80 42.57 105.81 39.11 106.44 37.05 C 103.08 37.24 99.73 37.64 96.37 37.76 Z" />
<path fill="#ffffff" opacity="1.00" d=" M 121.47 37.42 C 124.18 35.44 127.02 32.58 130.70 33.36 C 133.63 34.15 134.10 37.97 133.46 40.49 C 132.21 43.34 128.93 44.87 128.13 48.01 C 127.07 52.02 127.19 56.25 127.30 60.36 C 130.90 58.39 134.54 56.39 137.65 53.67 C 144.22 48.41 151.39 43.82 158.98 40.17 C 161.84 42.14 164.55 46.23 161.22 49.17 C 159.66 48.15 158.54 44.75 156.29 46.08 C 151.36 48.99 147.19 54.79 148.88 60.75 C 158.47 60.01 166.08 53.60 174.26 49.28 C 178.47 47.35 179.74 42.12 184.12 40.49 C 184.63 41.94 186.03 44.02 184.50 45.31 C 180.31 49.08 175.30 53.44 176.00 59.71 C 179.65 60.34 183.60 59.98 186.60 57.62 C 192.91 54.06 201.37 50.40 202.06 42.19 C 202.61 42.07 203.70 41.84 204.24 41.73 C 205.51 46.84 202.06 51.30 198.52 54.52 C 194.29 58.15 189.52 61.23 184.35 63.32 C 181.17 64.45 176.84 65.43 174.32 62.49 C 172.36 59.90 173.68 56.49 173.78 53.56 C 166.89 57.73 160.23 62.97 151.99 64.13 C 149.47 65.28 146.19 63.75 145.79 60.94 C 145.37 56.86 147.10 53.01 148.15 49.16 C 140.44 53.38 135.83 62.12 127.02 64.56 C 121.91 60.84 125.47 53.82 125.26 48.64 C 120.40 52.66 116.84 58.06 111.63 61.69 C 111.03 61.86 109.84 62.21 109.24 62.39 C 108.60 60.44 107.10 58.34 108.19 56.27 C 109.45 53.42 110.72 50.58 111.70 47.62 C 114.78 44.07 117.36 39.91 121.47 37.42 M 126.63 37.65 C 119.13 41.70 113.86 48.98 110.75 56.76 C 117.53 52.03 122.86 45.46 128.36 39.33 C 129.32 39.82 130.28 40.32 131.25 40.81 C 131.27 39.56 131.26 38.32 131.21 37.07 C 129.68 37.14 128.02 36.85 126.63 37.65 Z" />
<path fill="#ffffff" opacity="1.00" d=" M 97.02 83.98 C 100.17 76.61 106.51 71.34 110.96 64.80 C 111.92 65.85 112.87 66.89 113.81 67.94 C 109.31 75.00 102.75 80.66 99.25 88.35 C 102.12 86.82 104.04 83.66 107.57 83.53 C 108.34 80.01 112.13 79.42 114.50 77.29 C 117.41 76.41 120.45 76.13 123.41 75.45 C 127.61 74.28 129.57 80.61 127.78 83.58 C 126.82 90.40 119.50 93.06 113.74 94.78 C 110.67 96.04 107.32 95.39 104.13 95.94 C 101.99 98.73 104.54 102.50 105.77 105.25 C 106.81 108.03 109.66 106.30 111.56 105.58 C 114.74 104.12 118.25 103.25 121.03 101.04 C 122.20 99.88 123.82 99.65 125.40 99.73 C 120.57 105.13 113.88 108.20 108.12 112.36 C 106.21 110.32 104.17 108.42 101.92 106.78 C 101.89 103.22 100.86 99.81 99.91 96.41 C 99.13 96.14 97.58 95.59 96.80 95.32 C 94.04 99.33 89.99 102.29 87.56 106.54 C 86.71 107.88 85.83 109.56 84.00 109.57 C 81.24 106.95 84.66 103.60 84.51 100.58 C 82.95 101.25 81.41 102.02 80.14 103.18 C 76.69 106.38 72.12 107.84 68.10 110.15 C 63.26 113.03 57.75 115.06 52.10 115.27 C 47.29 113.74 46.70 107.51 48.39 103.47 C 54.23 95.53 62.07 88.92 71.05 84.83 C 72.73 86.44 75.46 88.09 74.88 90.82 C 73.60 95.27 70.54 98.96 67.67 102.50 C 66.25 103.90 65.46 101.39 66.42 100.52 C 68.99 96.77 72.41 93.41 73.33 88.78 C 68.82 87.13 64.81 90.95 61.46 93.44 C 56.27 97.12 51.92 102.07 49.63 108.06 C 49.18 110.21 51.56 112.71 53.78 111.74 C 58.14 109.87 63.40 110.38 67.09 107.08 C 72.99 104.13 79.02 101.29 84.37 97.38 C 88.52 92.85 93.51 89.08 97.02 83.98 M 109.80 83.79 C 107.13 87.14 102.30 88.55 100.70 92.68 C 104.03 92.73 107.39 92.58 110.64 91.81 C 115.66 90.84 119.67 87.47 123.95 84.90 C 126.43 83.73 125.28 80.57 124.23 78.78 C 118.99 76.75 113.77 80.75 109.80 83.79 Z" />
<path fill="#ffffff" opacity="1.00" d=" M 192.25 77.24 C 194.82 75.16 197.99 73.93 200.69 72.00 C 202.05 73.13 203.63 74.02 204.80 75.37 C 204.84 78.24 203.71 80.99 202.78 83.66 C 202.38 83.87 201.56 84.30 201.16 84.52 C 201.47 81.92 202.64 79.41 202.30 76.76 C 200.08 75.80 198.51 77.74 196.94 78.97 C 193.89 81.62 191.07 84.64 189.01 88.13 C 187.80 91.34 186.44 94.49 185.14 97.66 C 187.26 96.31 189.14 94.62 191.11 93.06 C 192.31 94.09 193.12 96.21 195.05 95.74 C 197.06 95.49 199.01 96.09 200.93 96.59 C 201.08 102.50 195.13 105.59 190.68 108.07 C 196.28 113.03 204.39 112.44 211.21 111.04 C 217.08 109.82 221.60 105.81 226.33 102.46 C 226.40 103.34 226.53 105.11 226.59 106.00 C 222.51 110.62 216.75 113.26 210.97 114.91 C 204.44 114.65 197.30 117.48 191.27 113.85 C 187.28 111.89 184.59 108.27 182.37 104.55 C 180.09 106.34 178.25 108.59 176.11 110.53 C 175.75 109.84 175.05 108.45 174.70 107.76 C 169.86 111.65 163.72 113.40 157.88 115.18 C 154.61 116.42 150.84 114.13 149.87 110.91 C 150.01 106.89 151.33 103.01 152.56 99.21 C 149.04 99.19 145.38 99.14 142.33 97.16 C 138.69 98.62 136.39 102.08 136.23 105.99 C 133.90 108.50 131.37 111.20 127.69 111.38 C 126.74 106.93 128.20 102.61 129.35 98.37 C 131.91 94.86 135.20 92.06 138.39 89.14 C 139.65 91.07 139.81 93.26 139.26 95.46 C 144.18 95.33 149.13 94.99 154.05 95.49 C 157.79 95.13 160.93 91.62 164.88 92.61 C 166.91 93.07 167.28 95.24 167.47 96.98 C 163.10 98.13 158.06 98.36 154.67 101.73 C 153.38 104.03 153.21 106.82 152.40 109.32 C 154.58 110.42 157.07 111.02 159.49 110.36 C 165.89 108.75 172.03 106.09 177.73 102.77 C 179.07 102.02 179.31 100.32 179.99 99.07 C 181.47 95.36 184.10 92.20 185.24 88.33 C 186.40 83.99 189.85 80.89 192.25 77.24 M 130.82 102.11 C 130.86 102.94 130.94 104.61 130.98 105.44 C 134.27 104.41 135.25 100.82 135.70 97.79 C 134.11 99.26 132.61 100.85 130.82 102.11 M 186.53 102.33 C 190.06 103.40 194.41 103.20 196.23 99.43 C 192.90 99.79 189.21 100.08 186.53 102.33 Z" />
</g>
</svg>
