<?xml version="1.0" encoding="UTF-8" ?>
<!DOCTYPE svg PUBLIC "-//W3C//DTD SVG 1.1//EN" "http://www.w3.org/Graphics/SVG/1.1/DTD/svg11.dtd">
<svg width="512pt" height="256pt" viewBox="0 0 512 256" version="1.1" xmlns="http://www.w3.org/2000/svg">
<g id="#ffffffff">
<path fill="#ffffff" opacity="1.00" d=" M 137.90 5.62 C 143.56 4.51 149.35 3.98 155.05 5.15 C 169.17 5.95 183.79 11.91 192.34 23.56 C 195.74 27.78 194.83 33.87 192.43 38.34 C 190.72 41.91 187.03 43.71 184.10 46.11 C 177.68 49.47 170.82 52.01 163.93 54.20 C 158.88 54.38 154.03 56.62 148.95 56.03 C 145.78 55.77 142.80 53.18 142.45 49.99 C 142.85 46.63 145.11 43.93 146.51 40.96 C 140.17 43.47 134.95 48.01 128.70 50.71 C 121.91 53.71 115.06 58.63 107.26 57.41 C 105.37 56.75 107.09 53.69 108.62 54.61 C 112.06 56.47 115.59 53.97 118.87 52.91 C 130.26 47.80 141.33 41.80 151.45 34.46 C 153.86 33.01 155.74 29.22 158.93 30.21 C 160.28 31.91 157.49 33.37 156.56 34.60 C 152.35 37.93 149.62 42.62 147.29 47.37 C 146.29 49.04 147.03 50.94 147.29 52.70 C 155.35 53.36 163.36 51.51 170.92 48.86 C 177.06 47.05 183.55 44.81 187.68 39.60 C 191.22 35.61 191.43 29.15 188.09 24.96 C 180.98 15.65 169.48 10.66 158.05 9.37 C 151.73 8.38 145.33 9.03 138.97 9.26 C 127.12 11.41 115.17 14.45 104.81 20.83 C 99.03 24.95 92.46 29.33 90.34 36.52 C 87.81 43.47 89.89 51.66 95.42 56.58 C 101.03 62.47 109.56 62.96 117.03 64.63 C 133.35 66.22 149.88 65.40 166.07 62.90 C 169.73 62.47 173.06 60.20 176.82 60.70 C 177.13 63.78 177.40 66.88 178.19 69.89 C 186.08 69.14 194.00 67.36 201.36 64.36 C 204.64 63.19 207.38 60.47 210.96 60.27 C 211.13 60.70 211.46 61.55 211.63 61.98 C 207.63 68.23 200.06 71.06 196.42 77.61 C 201.59 77.07 206.55 73.79 211.80 74.89 C 216.12 76.39 213.82 81.48 212.19 84.23 C 210.86 87.29 207.40 88.35 205.55 90.95 C 214.45 90.05 223.18 85.84 228.42 78.43 C 230.41 76.03 232.02 71.51 235.92 73.00 C 235.25 80.23 229.21 85.09 225.21 90.61 C 227.76 90.31 230.25 89.60 232.79 89.22 C 234.58 93.10 231.03 96.24 228.94 99.09 C 229.82 101.34 233.34 101.08 235.13 100.05 C 239.37 97.84 244.63 94.10 249.34 97.11 C 247.72 100.49 244.65 103.18 240.93 103.92 C 237.90 105.04 233.74 105.38 232.60 108.98 C 232.73 110.49 233.56 111.21 235.07 111.14 C 243.19 109.65 250.55 105.76 258.06 102.53 C 261.09 102.20 264.71 104.53 265.99 107.11 C 264.91 113.89 255.56 115.06 253.44 121.18 C 258.09 121.43 262.52 119.80 267.01 118.91 C 270.21 118.24 273.56 117.38 275.85 114.86 C 284.22 106.99 292.69 97.10 304.98 96.20 C 307.23 95.37 310.49 97.20 309.19 99.83 C 302.62 110.12 290.99 115.33 279.74 118.82 C 278.30 119.09 277.16 119.92 276.62 121.31 C 281.84 120.22 286.82 117.98 292.22 117.77 C 292.20 118.56 292.17 120.14 292.15 120.92 C 289.69 123.77 286.58 126.01 284.33 129.05 C 284.54 129.44 284.96 130.23 285.17 130.62 C 291.49 130.22 297.78 128.91 303.63 126.45 C 305.53 125.88 307.60 124.69 309.61 125.42 C 311.84 127.56 308.59 129.20 306.74 129.65 C 303.20 130.61 300.24 132.81 297.71 135.40 C 300.53 137.07 303.89 136.10 306.98 136.15 C 316.19 135.21 325.50 135.91 334.57 137.66 C 334.74 139.18 335.81 141.10 334.45 142.37 C 331.95 145.03 329.59 147.84 327.78 151.02 C 332.76 152.25 337.90 151.12 342.96 151.66 C 348.13 151.93 353.16 153.54 358.36 153.51 C 350.67 141.59 354.80 125.02 364.43 115.43 C 370.81 108.72 381.15 105.70 389.97 108.92 C 393.70 110.47 398.00 112.43 399.09 116.74 C 401.28 123.42 396.08 129.32 392.20 134.16 C 387.61 140.30 381.42 144.89 375.13 149.14 C 372.58 150.60 371.40 153.40 369.36 155.36 C 366.92 157.33 363.38 156.15 360.87 157.97 C 358.22 159.69 355.09 160.31 352.16 161.36 C 349.21 162.30 346.22 163.68 343.05 163.25 C 341.44 162.80 339.40 161.96 339.24 160.03 C 339.91 158.25 340.88 156.61 341.64 154.86 C 337.35 153.64 333.29 156.35 328.98 155.41 C 326.77 155.12 323.31 154.74 322.96 151.98 C 323.70 149.83 325.08 147.93 325.50 145.66 C 321.35 146.08 318.20 149.36 314.12 149.86 C 312.16 150.18 311.14 148.33 310.18 147.01 C 312.59 143.91 315.81 141.64 319.22 139.77 C 316.95 138.61 314.39 139.13 311.96 139.14 C 308.26 139.42 304.44 138.81 300.89 140.17 C 298.33 140.67 294.83 141.26 293.14 138.71 C 292.43 136.87 292.96 134.88 292.96 132.98 C 288.52 133.50 282.04 135.97 279.32 131.01 C 279.89 127.73 282.63 125.64 284.32 122.97 C 279.72 123.45 275.57 125.53 271.63 127.82 C 270.29 128.76 268.71 128.27 267.25 128.06 C 267.09 126.39 266.96 124.72 266.84 123.05 C 262.31 124.26 257.68 125.03 253.07 125.83 C 250.74 125.34 247.60 123.13 248.40 120.43 C 251.25 115.06 257.24 112.60 260.90 107.94 C 260.17 107.62 258.71 107.00 257.98 106.68 C 250.61 108.97 244.05 113.62 236.26 114.49 C 233.97 114.97 231.02 115.46 229.28 113.51 C 227.18 110.64 229.36 107.22 229.95 104.22 C 226.39 102.12 222.25 102.55 218.32 102.82 C 217.32 101.56 216.30 100.33 215.31 99.08 C 211.82 102.70 207.65 105.55 203.85 108.82 C 200.60 111.52 197.58 114.52 194.00 116.79 C 193.28 115.73 191.05 114.69 192.09 113.16 C 197.32 104.80 208.53 102.30 213.40 93.71 C 207.10 95.68 200.19 95.96 193.81 94.23 C 191.92 93.69 189.25 91.31 191.42 89.50 C 193.21 87.31 195.80 89.33 197.97 89.55 C 200.90 88.59 203.38 86.68 205.77 84.80 C 207.79 83.07 210.12 81.08 210.07 78.17 C 208.45 78.10 206.79 77.82 205.23 78.37 C 198.79 80.49 191.85 82.02 186.65 86.66 C 178.47 93.79 170.69 101.39 163.01 109.06 C 162.19 110.03 160.75 109.29 159.67 109.43 C 157.93 105.36 162.18 103.08 164.42 100.46 C 167.39 97.10 170.54 93.88 174.09 91.12 C 180.82 85.89 186.46 79.46 192.72 73.70 C 194.02 72.51 195.14 71.13 196.16 69.68 C 189.97 70.50 184.03 72.52 177.98 73.97 C 172.12 75.07 168.37 80.30 162.97 82.46 C 160.48 82.75 156.49 82.15 156.41 78.95 C 156.20 73.15 162.54 70.58 164.71 65.89 C 145.34 68.11 125.38 70.86 106.14 66.11 C 93.83 63.56 83.62 50.75 86.18 38.07 C 87.17 33.45 89.30 29.02 92.70 25.69 C 104.83 13.95 121.26 7.42 137.90 5.62 M 161.42 78.21 C 164.53 77.48 167.68 76.47 170.09 74.29 C 168.66 73.13 167.22 71.99 165.81 70.81 C 164.23 73.19 161.68 75.19 161.42 78.21 M 224.33 94.55 C 222.87 94.33 220.92 96.95 223.06 97.18 C 225.36 98.34 228.15 93.29 224.33 94.55 M 284.39 112.81 C 289.87 111.62 294.84 108.71 299.11 105.15 C 300.71 103.70 302.55 102.26 303.15 100.08 C 295.59 101.71 289.44 107.22 284.39 112.81 M 370.15 115.17 C 367.93 116.93 366.17 119.21 364.15 121.19 C 359.02 127.78 357.42 136.75 359.13 144.84 C 359.79 147.73 362.37 149.45 364.94 150.51 C 373.04 146.13 381.27 141.42 387.30 134.31 C 391.15 130.09 396.09 125.33 395.15 119.05 C 394.79 115.16 390.67 113.79 387.80 112.06 C 381.78 110.64 375.45 112.16 370.15 115.17 Z" />
<path fill="#ffffff" opacity="1.00" d=" M 216.06 125.11 C 221.29 122.79 226.55 120.47 231.95 118.60 C 234.11 119.41 234.79 121.93 234.91 124.01 C 235.05 128.35 233.19 133.10 229.36 135.41 C 225.57 137.23 221.56 138.59 217.50 139.63 C 213.21 140.75 208.76 140.09 204.41 140.54 C 201.86 141.29 200.02 143.41 197.77 144.73 C 191.12 149.30 183.23 151.32 175.66 153.76 C 181.82 159.36 190.35 160.96 198.25 162.58 C 200.35 163.40 201.82 161.41 203.19 160.19 C 208.46 154.99 215.07 151.26 222.02 148.84 C 225.23 148.19 229.06 146.91 231.99 149.01 C 234.20 151.86 233.95 156.22 232.09 159.17 C 227.72 162.07 222.55 164.81 220.56 170.00 C 230.13 169.38 239.13 165.45 248.37 163.37 C 250.11 166.99 246.41 169.14 245.54 172.29 C 250.93 171.42 256.36 169.90 261.86 170.91 C 264.75 171.56 265.15 174.92 264.24 177.27 C 263.52 180.76 260.78 183.17 258.93 186.04 C 263.95 186.48 269.01 186.24 274.05 186.29 C 276.90 186.28 279.41 184.77 281.59 183.09 C 280.44 179.89 279.09 176.51 279.85 173.05 C 281.00 167.12 285.80 162.94 290.10 159.12 C 294.20 155.62 300.22 153.24 305.46 155.53 C 308.72 157.88 308.45 162.83 307.40 166.30 C 304.59 173.88 298.03 179.06 293.01 185.09 C 293.07 185.46 293.20 186.20 293.27 186.57 C 298.52 188.11 303.98 188.70 309.33 189.76 C 311.17 189.98 311.04 192.37 310.79 193.72 C 309.53 196.62 305.87 197.29 304.29 199.95 C 311.57 199.86 318.70 198.10 325.93 197.81 C 326.18 200.48 325.57 203.08 324.80 205.62 C 329.09 205.10 333.47 204.16 337.77 205.11 C 338.41 209.56 335.40 212.98 333.67 216.73 C 338.54 216.89 343.66 217.08 348.22 215.06 C 353.59 212.75 358.95 209.59 364.95 209.51 C 367.91 209.92 367.77 213.66 366.88 215.77 C 364.99 219.44 361.97 222.36 359.93 225.92 C 358.73 228.12 360.19 232.41 356.73 232.69 C 353.72 233.29 350.75 234.29 348.39 236.33 C 341.51 242.01 334.03 246.89 326.34 251.39 C 325.14 251.77 323.39 253.47 322.34 252.03 C 319.15 249.26 320.71 244.66 322.56 241.58 C 327.23 232.81 337.60 228.87 347.06 228.53 C 351.62 228.59 355.60 225.11 357.39 221.10 C 351.54 222.30 346.10 224.95 340.28 226.14 C 339.97 224.45 339.71 222.76 339.46 221.07 C 335.97 221.35 332.59 222.68 329.07 222.42 C 327.88 221.91 326.23 220.54 326.88 219.09 C 328.65 215.59 332.20 213.17 333.28 209.27 C 326.72 208.65 320.64 211.46 314.92 214.26 C 313.28 215.27 311.60 212.66 312.13 211.19 C 314.07 208.60 316.76 206.67 318.51 203.92 C 311.65 204.01 304.86 205.36 298.00 205.20 C 295.79 205.45 294.11 202.45 295.79 200.86 C 298.26 198.24 301.20 196.13 303.82 193.67 C 299.13 191.56 293.85 191.63 289.02 189.95 C 281.69 191.56 276.02 198.36 268.24 198.82 C 266.44 199.14 265.54 196.69 266.33 195.34 C 267.45 193.39 268.98 191.71 270.18 189.81 C 265.39 189.62 260.57 189.99 255.96 191.32 C 254.05 192.26 251.51 190.07 252.88 188.16 C 255.63 183.59 260.03 180.00 261.63 174.75 C 254.19 173.56 246.72 176.06 239.98 178.99 C 237.88 180.03 234.41 183.75 233.04 179.90 C 234.00 175.58 239.18 173.54 241.41 169.76 C 233.89 170.81 226.84 174.19 219.21 174.62 C 217.38 174.75 215.42 173.03 216.03 171.12 C 216.65 169.09 217.72 167.23 218.47 165.24 C 213.57 166.41 209.04 169.18 203.98 169.59 C 200.79 169.86 200.70 165.83 198.56 164.58 C 192.89 163.87 187.11 163.22 181.77 161.06 C 177.74 159.38 174.61 156.19 170.71 154.28 C 165.94 151.71 159.98 150.98 156.35 146.61 C 153.53 143.08 151.92 137.85 153.96 133.59 C 160.30 136.14 162.20 143.65 167.43 147.61 C 171.42 151.75 177.52 149.36 182.30 148.22 C 187.18 146.31 192.83 144.70 196.23 140.49 C 188.84 140.65 181.24 140.01 174.57 136.53 C 169.49 133.62 166.08 127.94 165.91 122.09 C 165.86 120.67 166.58 119.84 168.07 119.61 C 167.75 124.31 168.45 129.49 172.37 132.62 C 175.60 136.16 180.65 135.96 185.03 136.15 C 192.35 136.63 199.85 135.46 206.57 132.53 C 209.58 129.87 212.28 126.74 216.06 125.11 M 220.62 127.59 C 217.05 129.64 214.12 132.62 211.05 135.32 C 216.59 136.36 222.31 134.65 227.28 132.25 C 230.23 131.05 231.88 128.10 232.03 125.00 C 228.12 125.23 224.25 126.16 220.62 127.59 M 155.09 137.80 C 154.17 143.13 158.88 147.35 163.60 148.67 C 161.27 144.75 159.01 140.33 155.09 137.80 M 210.06 159.09 C 208.44 160.35 205.99 161.39 205.97 163.77 C 210.37 163.92 214.16 161.45 218.23 160.18 C 222.70 158.77 226.70 156.23 231.17 154.83 C 231.10 153.01 230.07 151.30 227.98 151.72 C 221.47 152.36 215.52 155.66 210.06 159.09 M 293.93 160.91 C 288.94 163.76 284.89 168.40 282.64 173.68 C 281.02 177.96 284.89 181.45 287.95 183.75 C 294.08 179.43 299.72 174.11 303.56 167.61 C 304.73 165.29 306.65 161.99 304.28 159.78 C 301.02 157.63 297.06 159.41 293.93 160.91 M 324.23 245.97 C 325.51 247.21 327.07 245.91 328.30 245.34 C 334.24 241.92 339.88 237.93 345.14 233.53 C 336.78 232.93 326.43 237.10 324.23 245.97 Z" />
<path fill="#ffffff" opacity="1.00" d=" M 328.04 185.14 C 324.88 183.06 326.16 177.98 329.49 176.81 C 329.89 179.69 329.97 182.75 328.04 185.14 Z" />
</g>
</svg>
