<?xml version="1.0" encoding="UTF-8" ?>
<!DOCTYPE svg PUBLIC "-//W3C//DTD SVG 1.1//EN" "http://www.w3.org/Graphics/SVG/1.1/DTD/svg11.dtd">
<svg width="256pt" height="256pt" viewBox="0 0 256 256" version="1.1" xmlns="http://www.w3.org/2000/svg">
<g id="#ffffffff">
<path fill="#ffffff" opacity="1.00" d=" M 194.91 72.01 C 194.90 69.80 197.94 67.02 199.80 69.13 C 202.72 73.23 205.09 78.06 204.66 83.24 C 202.51 79.37 200.99 75.14 198.18 71.66 C 197.29 81.69 200.60 91.42 201.75 101.30 C 203.94 99.08 206.07 96.63 209.04 95.43 C 210.20 95.80 210.82 96.59 210.88 97.79 C 210.17 100.41 208.19 102.38 206.73 104.59 C 214.22 105.13 221.26 99.99 224.29 93.34 C 225.85 90.32 222.99 85.88 226.90 84.26 C 229.79 89.39 227.45 95.64 223.68 99.62 C 220.12 103.64 215.59 107.43 210.00 107.80 C 207.42 108.11 204.99 107.05 202.61 106.22 C 202.92 108.69 203.14 111.22 201.98 113.52 C 201.20 112.55 199.83 111.87 199.66 110.55 C 198.90 106.37 198.48 102.15 197.86 97.95 C 196.87 89.31 194.45 80.78 194.91 72.01 Z" />
<path fill="#ffffff" opacity="1.00" d=" M 159.09 72.05 C 160.46 71.33 161.87 69.49 163.57 70.45 C 168.66 73.19 169.44 79.87 168.99 85.06 C 168.75 91.66 165.23 97.41 161.86 102.87 C 159.41 106.30 155.69 110.27 151.02 108.67 C 148.29 112.92 145.08 116.97 141.01 120.00 C 139.37 121.21 137.33 120.33 135.53 120.12 C 133.98 122.66 132.63 125.44 130.38 127.46 C 128.87 128.97 126.80 127.90 125.05 127.61 C 124.26 130.80 122.89 133.80 120.85 136.37 C 119.93 135.44 119.04 134.48 118.15 133.53 C 115.96 138.23 113.89 143.80 108.79 146.04 C 106.70 147.30 104.88 145.17 103.09 144.35 C 101.12 149.26 99.15 154.72 94.51 157.76 C 92.91 159.13 90.81 158.35 88.96 158.16 C 87.28 161.84 85.79 165.96 82.35 168.38 C 80.80 169.55 78.78 169.01 77.00 169.07 C 76.03 171.69 75.09 174.38 73.33 176.60 C 70.49 171.29 69.45 164.61 72.08 159.02 C 72.87 157.25 74.61 156.32 76.18 155.37 C 77.67 158.79 76.39 163.18 78.95 166.10 C 81.15 168.08 83.20 165.06 84.33 163.36 C 85.78 160.30 88.21 156.88 86.75 153.38 C 84.34 146.51 82.71 139.27 82.85 131.96 C 83.18 129.88 83.35 126.66 86.04 126.39 C 92.55 131.85 91.72 141.36 91.17 149.01 C 91.21 151.13 89.17 153.95 91.55 155.40 C 92.44 156.52 94.19 155.97 94.86 154.89 C 97.74 151.49 99.47 147.29 101.18 143.22 C 102.31 140.87 101.22 138.32 100.82 135.94 C 99.66 130.66 99.47 125.14 100.60 119.84 C 100.69 118.30 101.64 117.06 102.95 116.32 C 106.38 117.69 107.03 121.70 107.12 124.94 C 106.74 129.99 105.28 134.89 104.73 139.91 C 105.10 141.83 106.85 143.61 108.90 143.51 C 112.84 140.05 115.51 135.34 117.76 130.67 C 118.57 125.65 117.16 118.46 122.98 116.00 C 125.06 119.26 125.47 123.67 128.80 126.01 C 130.89 123.86 133.08 121.69 134.40 118.96 C 134.78 115.62 133.31 112.31 133.98 108.97 C 134.32 106.62 134.85 103.36 137.77 103.07 C 139.51 103.52 139.72 105.45 140.35 106.85 C 139.22 106.56 138.09 106.26 136.96 105.95 C 136.39 109.27 135.88 112.79 137.03 116.05 C 137.43 117.40 139.17 118.37 140.37 117.36 C 144.11 114.59 147.18 110.92 149.44 106.86 C 149.50 102.78 147.19 98.71 148.64 94.63 C 149.51 90.60 156.68 89.82 157.64 94.16 C 157.15 98.50 153.37 101.91 153.49 106.46 C 154.16 106.16 155.52 105.55 156.19 105.24 C 160.81 100.08 165.05 94.07 166.06 87.05 C 166.75 82.86 166.70 78.25 164.41 74.52 C 163.38 72.58 160.91 72.65 159.09 72.05 M 152.07 93.79 C 149.78 96.15 150.67 99.58 151.90 102.21 C 153.01 99.99 154.48 97.82 154.76 95.29 C 154.06 94.45 153.17 93.95 152.07 93.79 M 102.95 119.94 C 102.21 124.77 102.31 129.76 103.01 134.60 C 104.83 130.11 106.14 124.05 102.95 119.94 M 121.58 130.28 C 123.00 127.36 121.77 124.38 121.07 121.47 C 120.41 124.38 119.64 127.67 121.58 130.28 M 85.74 129.33 C 84.53 136.21 86.03 143.35 88.63 149.75 C 90.55 143.02 90.06 135.06 85.74 129.33 M 73.69 159.62 C 72.67 162.99 72.50 166.57 73.60 169.96 C 75.23 166.39 74.06 162.32 75.59 158.73 C 75.12 158.95 74.17 159.39 73.69 159.62 Z" />
<path fill="#ffffff" opacity="1.00" d=" M 184.99 111.00 C 187.33 108.84 188.55 105.15 191.98 104.45 C 194.96 105.42 195.69 108.84 196.40 111.50 C 197.39 115.21 195.72 119.32 192.44 121.30 C 190.23 118.03 189.76 114.07 189.28 110.25 C 186.93 112.13 184.68 114.13 182.43 116.12 C 186.33 121.29 185.58 129.43 179.91 133.03 C 178.62 131.46 177.51 129.76 176.48 128.01 C 173.86 133.37 172.48 139.79 167.72 143.76 C 166.41 145.18 164.48 144.61 162.83 144.42 C 160.66 147.68 158.48 151.04 155.47 153.60 C 154.50 154.35 152.42 154.84 151.85 153.35 C 149.90 149.97 151.54 145.82 150.06 142.28 C 146.86 149.49 147.20 158.15 142.34 164.64 C 140.75 167.17 138.50 164.55 137.24 163.16 C 136.05 163.64 134.86 164.11 133.66 164.56 C 134.38 162.64 135.50 160.88 136.10 158.92 C 135.95 155.07 134.20 149.94 138.01 147.27 C 142.29 148.90 140.15 154.35 139.47 157.64 C 138.64 159.42 139.84 160.98 140.79 162.40 C 144.81 155.61 145.40 147.54 148.20 140.29 C 148.57 138.95 149.43 138.49 150.77 138.91 C 154.08 142.36 153.33 147.42 153.77 151.76 C 156.66 149.28 159.13 146.20 160.64 142.69 C 161.20 141.37 160.44 139.99 160.12 138.72 C 157.93 132.71 156.57 126.37 156.39 119.96 C 156.42 117.94 156.42 114.99 158.97 114.57 C 161.61 117.17 162.66 120.90 163.39 124.42 C 163.87 128.22 165.14 131.98 164.56 135.85 C 164.48 137.92 163.37 140.84 166.01 141.81 C 170.41 138.33 172.48 132.80 174.89 127.90 C 176.79 124.40 176.37 120.40 176.66 116.59 C 179.27 114.50 182.74 113.61 184.99 111.00 M 191.95 111.66 C 192.52 112.97 193.06 114.29 193.63 115.60 C 193.83 114.18 194.01 112.75 194.17 111.32 C 193.62 111.40 192.51 111.58 191.95 111.66 M 179.93 119.22 C 179.34 122.27 179.48 125.38 179.98 128.43 C 182.51 125.79 182.42 121.85 179.93 119.22 M 159.10 119.89 C 158.45 125.08 161.26 129.83 161.24 134.99 C 161.63 134.94 162.41 134.84 162.80 134.79 C 162.28 129.74 162.51 124.05 159.10 119.89 Z" />
<path fill="#ffffff" opacity="1.00" d=" M 61.23 143.91 C 62.41 144.51 63.43 145.36 64.46 146.18 C 63.85 146.56 62.62 147.34 62.01 147.73 C 61.29 158.71 60.87 169.79 62.56 180.72 C 62.97 183.03 64.58 185.49 63.12 187.76 C 57.50 185.40 56.93 178.21 53.93 173.54 C 51.08 182.62 51.75 192.28 50.10 201.53 C 44.77 199.12 43.22 192.96 42.09 187.77 C 39.82 178.99 40.70 169.23 35.68 161.30 C 34.07 158.98 32.54 156.21 29.92 154.94 C 25.75 156.18 23.08 160.23 20.61 163.60 C 16.74 170.11 12.84 178.27 16.10 185.83 C 17.41 189.79 21.81 192.44 25.90 191.14 C 29.26 190.77 31.05 187.80 33.27 185.67 C 32.89 192.80 22.71 195.90 17.90 191.04 C 13.20 186.55 12.34 179.19 14.42 173.24 C 16.79 166.42 20.48 159.83 25.91 154.97 C 27.44 153.72 29.52 151.92 31.58 153.17 C 36.90 157.92 40.40 164.60 41.43 171.66 C 43.11 180.50 42.85 190.50 48.51 197.98 C 49.58 188.06 50.84 178.12 52.99 168.37 C 56.60 171.15 57.34 175.91 59.70 179.58 C 59.77 172.19 58.89 164.80 59.45 157.41 C 59.85 152.91 59.33 148.13 61.23 143.91 Z" />
<path fill="#ffffff" opacity="1.00" d=" M 101.95 156.93 C 104.66 154.70 108.20 156.67 110.62 158.37 C 114.79 161.51 115.93 166.86 117.72 171.47 C 120.08 168.79 119.89 164.26 123.02 162.43 C 125.34 165.21 125.56 168.97 126.84 172.24 C 129.45 167.42 129.53 161.94 129.45 156.62 C 129.83 156.48 130.60 156.20 130.98 156.05 C 134.17 163.26 130.86 171.38 126.86 177.54 C 123.25 175.50 123.23 170.96 122.08 167.45 C 119.96 170.74 117.89 174.14 116.84 177.94 C 115.12 183.66 114.50 189.92 110.91 194.89 C 109.29 197.31 105.35 198.04 103.48 195.49 C 98.66 189.49 97.85 180.78 100.81 173.78 C 100.33 168.19 98.35 161.93 101.95 156.93 M 102.44 166.01 C 102.71 172.04 104.25 179.09 109.95 182.28 C 112.21 180.05 114.88 177.51 114.60 174.04 C 115.01 167.55 111.77 159.93 104.99 158.16 C 102.05 159.61 102.54 163.29 102.44 166.01 M 101.52 177.30 C 100.69 183.56 101.69 191.10 107.03 195.21 C 110.68 192.12 112.05 187.40 113.32 182.98 C 111.86 183.51 110.44 184.15 108.92 184.49 C 105.09 183.97 103.69 179.92 101.52 177.30 Z" />
</g>
</svg>
