<?xml version="1.0" encoding="UTF-8" ?>
<!DOCTYPE svg PUBLIC "-//W3C//DTD SVG 1.1//EN" "http://www.w3.org/Graphics/SVG/1.1/DTD/svg11.dtd">
<svg width="512pt" height="256pt" viewBox="0 0 512 256" version="1.1" xmlns="http://www.w3.org/2000/svg">
<g id="#ffffffff">
<path fill="#ffffff" opacity="1.00" d=" M 207.78 56.69 C 208.20 55.74 208.90 55.06 209.85 54.63 C 213.24 57.18 213.29 61.85 212.71 65.67 C 211.61 70.78 208.93 75.52 205.15 79.14 C 202.95 81.55 199.73 83.23 198.68 86.51 C 197.21 90.64 195.31 94.58 193.75 98.67 C 197.55 98.76 201.45 97.29 205.13 97.97 C 205.29 98.51 205.62 99.59 205.79 100.13 C 201.38 101.16 196.79 100.32 192.32 100.89 C 194.03 102.97 196.00 105.12 196.16 107.96 C 196.81 114.78 195.31 121.64 193.05 128.05 C 191.38 133.00 187.52 136.78 185.63 141.64 C 188.14 140.10 188.77 135.88 192.51 137.25 C 188.78 142.31 182.05 144.96 180.03 151.18 C 179.26 151.03 177.73 150.74 176.96 150.59 C 178.19 147.86 177.58 144.99 177.02 142.18 C 175.64 147.01 171.40 150.77 171.96 156.07 C 172.76 154.45 173.39 152.75 174.12 151.10 C 174.63 151.59 175.64 152.58 176.15 153.08 C 175.64 155.78 172.96 157.20 171.44 159.31 C 170.52 162.34 169.50 165.35 168.47 168.35 C 171.89 168.32 176.13 168.94 178.96 166.81 C 178.33 165.89 177.45 165.22 176.33 164.81 C 179.91 163.79 182.94 161.64 185.51 159.00 C 186.79 159.28 188.06 159.58 189.34 159.86 C 188.76 158.81 188.17 157.77 187.57 156.74 C 190.06 154.88 192.35 152.75 194.29 150.32 C 196.06 148.12 198.45 146.10 198.83 143.14 C 198.32 141.73 197.41 140.51 196.70 139.20 C 195.49 139.03 194.29 138.85 193.09 138.68 C 193.21 137.87 193.45 136.25 193.57 135.45 C 196.65 136.37 200.10 137.99 200.38 141.64 C 202.00 145.88 198.80 149.43 196.62 152.69 C 193.16 159.13 186.51 162.72 180.68 166.68 C 178.89 167.70 177.88 169.54 176.65 171.12 C 178.89 174.88 176.28 179.45 178.81 183.13 C 179.71 186.00 182.86 187.79 185.78 186.95 C 190.43 185.72 193.20 181.51 195.92 177.89 C 197.40 176.03 198.36 173.84 199.24 171.65 C 202.02 172.66 203.69 170.10 205.34 168.34 C 207.47 165.64 210.50 163.93 213.10 161.75 C 215.48 162.72 218.32 163.23 220.08 165.23 C 221.29 169.64 217.58 173.22 217.34 177.51 C 217.07 180.13 214.85 183.88 217.88 185.64 C 223.72 183.06 226.98 177.15 231.47 172.89 C 231.64 173.79 231.98 175.58 232.15 176.48 C 237.02 174.15 240.70 170.36 244.24 166.38 C 244.72 166.87 245.68 167.83 246.16 168.32 C 243.48 173.73 240.58 179.04 238.68 184.80 C 240.81 183.46 242.96 182.17 245.29 181.21 C 249.89 179.29 251.10 173.77 255.49 171.51 C 256.33 172.18 257.17 172.86 257.96 173.60 C 256.49 175.52 254.77 177.25 253.45 179.28 C 260.73 174.14 263.94 165.44 267.82 157.80 C 272.00 150.79 276.19 143.70 281.56 137.53 C 285.79 134.35 289.38 130.43 292.79 126.40 C 293.95 127.30 295.11 128.20 296.29 129.09 C 295.46 131.22 295.04 133.46 294.78 135.73 C 293.92 136.98 292.74 137.97 291.71 139.08 C 291.65 141.03 292.49 143.35 290.99 144.97 C 286.60 150.09 284.48 156.84 279.46 161.45 C 277.65 163.71 275.94 166.04 273.79 168.00 C 273.14 166.87 272.48 165.74 271.83 164.62 C 274.64 162.13 278.09 159.88 279.46 156.22 C 280.22 156.60 280.99 156.96 281.76 157.33 C 281.50 156.22 281.24 155.12 280.97 154.02 C 284.06 151.37 283.83 146.51 287.34 144.13 C 287.76 140.97 289.35 138.22 290.36 135.25 C 285.66 138.48 282.04 143.14 278.94 147.89 C 272.94 152.52 272.37 160.87 267.83 166.64 C 270.38 166.19 272.56 166.78 274.07 168.98 C 272.38 169.29 270.68 169.55 268.99 169.81 C 268.10 174.51 262.71 175.99 261.63 180.55 C 261.02 182.93 260.48 186.83 263.24 187.96 C 267.09 187.97 270.30 185.39 273.45 183.48 C 277.28 181.26 280.12 176.72 285.09 177.36 C 284.26 176.67 283.45 175.98 282.64 175.29 C 285.95 175.05 287.97 172.51 290.27 170.47 C 288.87 177.01 283.61 182.04 277.64 184.65 C 274.33 187.23 271.14 190.03 267.11 191.46 C 264.39 190.36 261.18 190.09 258.93 188.08 C 257.76 185.55 259.08 181.74 256.20 180.26 C 255.39 181.17 254.60 182.11 253.85 183.07 C 253.27 182.36 252.69 181.64 252.11 180.93 C 248.30 184.17 244.68 187.69 240.45 190.41 C 237.74 191.80 236.19 188.08 234.26 186.82 C 235.51 184.06 236.21 181.12 236.66 178.13 C 234.49 179.54 232.27 181.27 229.54 180.41 C 226.36 184.63 221.95 188.54 216.27 188.03 C 213.15 186.00 213.14 181.80 213.06 178.48 C 209.61 182.61 206.81 188.58 200.99 189.56 C 197.41 190.12 195.88 186.23 195.63 183.36 C 192.83 189.59 183.79 191.55 178.50 187.47 C 174.28 183.85 176.81 177.23 173.67 173.37 C 170.65 173.82 167.69 174.60 164.60 174.21 C 163.78 176.70 163.14 179.32 161.32 181.31 C 158.44 184.50 159.74 189.43 157.13 192.74 C 155.45 192.31 153.88 191.58 152.28 190.91 C 156.23 178.68 163.07 167.63 166.94 155.36 C 163.89 158.42 161.83 162.26 159.45 165.82 C 157.76 165.52 156.06 165.27 154.36 165.01 C 156.15 163.60 158.44 162.70 159.62 160.64 C 162.14 156.20 166.57 153.15 168.28 148.22 C 173.65 144.47 175.19 137.81 178.48 132.52 C 180.03 128.20 180.80 123.64 182.28 119.30 C 184.55 113.07 187.02 106.91 189.15 100.64 C 185.07 104.43 182.44 109.64 177.68 112.68 C 175.27 114.97 172.68 117.08 169.83 118.79 C 167.36 118.85 166.08 116.13 164.29 114.81 C 165.54 112.06 166.24 109.13 166.68 106.15 C 164.49 107.72 162.17 109.04 159.42 108.34 C 153.77 112.53 147.62 117.99 140.13 117.44 C 136.24 116.09 136.11 111.64 136.75 108.24 C 133.41 112.39 129.09 116.65 123.27 116.02 C 120.17 114.07 120.35 109.82 119.75 106.62 C 117.57 110.05 115.09 113.33 111.99 115.99 C 109.78 117.65 106.01 118.55 104.15 115.91 C 101.89 113.19 103.58 109.50 104.53 106.59 C 106.26 101.70 110.48 98.51 113.78 94.75 C 115.74 92.91 118.02 91.47 120.08 89.75 C 122.44 90.75 125.38 91.18 127.07 93.25 C 128.30 97.55 124.71 101.05 124.39 105.20 C 124.18 107.90 121.77 111.84 124.89 113.63 C 131.27 111.42 133.49 103.75 139.62 101.34 C 142.70 97.22 145.18 91.97 150.35 90.13 C 152.45 89.54 155.47 90.67 156.10 92.98 C 155.39 97.16 152.26 100.47 148.62 102.40 C 148.56 100.48 149.03 98.72 150.83 97.77 C 152.97 96.57 152.76 94.06 152.40 91.99 C 148.41 94.75 145.50 98.79 142.76 102.73 C 141.79 105.85 140.65 108.95 140.04 112.17 C 139.91 113.49 140.50 114.33 141.81 114.70 C 151.01 109.65 160.46 103.59 165.74 94.27 C 167.02 97.55 165.62 100.59 164.02 103.41 C 165.93 102.27 167.99 101.24 169.42 99.48 C 171.07 97.41 173.77 95.92 173.93 93.01 C 175.54 94.09 177.40 94.12 179.05 93.13 C 184.78 91.22 189.92 88.06 195.15 85.11 C 198.97 83.00 198.78 78.13 200.74 74.71 C 203.84 69.00 204.72 62.41 207.78 56.69 M 201.75 79.15 C 207.17 76.47 210.05 70.60 211.33 64.96 C 212.11 62.02 211.08 59.06 210.03 56.34 C 205.74 63.30 205.24 71.80 201.75 79.15 M 176.19 96.00 C 173.69 101.61 170.55 106.91 168.68 112.80 C 171.32 110.90 174.41 109.84 177.13 108.10 C 180.08 106.36 180.84 102.53 183.79 100.79 C 185.80 99.62 188.23 99.43 190.25 98.28 C 192.50 94.99 193.66 91.10 195.21 87.46 C 189.09 90.72 183.00 94.40 176.19 96.00 M 112.47 99.47 C 108.99 103.92 105.34 109.38 107.00 115.33 C 110.98 112.08 113.77 107.80 116.58 103.57 C 119.56 100.21 123.41 96.53 122.31 91.54 C 118.03 92.62 115.63 96.71 112.47 99.47 M 182.84 129.93 C 183.38 130.41 184.48 131.37 185.03 131.85 C 183.59 133.53 181.93 135.01 180.39 136.60 C 180.28 138.00 180.48 139.40 180.60 140.79 C 186.07 135.53 190.04 128.85 192.72 121.80 C 193.73 115.53 196.01 108.47 192.11 102.73 C 188.13 111.44 185.05 120.61 182.84 129.93 M 205.45 171.49 C 201.94 175.90 198.40 181.39 199.99 187.31 C 204.01 184.10 206.78 179.80 209.58 175.57 C 212.57 172.22 216.37 168.54 215.34 163.55 C 211.04 164.66 208.60 168.69 205.45 171.49 Z" />
<path fill="#ffffff" opacity="1.00" d=" M 341.38 55.20 C 344.13 54.67 346.97 54.18 349.76 54.71 C 353.54 58.35 352.86 63.99 352.70 68.75 C 351.69 70.36 350.81 72.01 350.88 73.97 C 350.39 80.36 345.91 85.41 344.72 91.58 C 342.15 96.95 339.55 102.31 336.29 107.31 C 335.08 111.63 334.66 116.26 334.78 120.75 C 340.08 117.11 343.91 111.80 347.75 106.75 C 349.91 104.14 350.78 99.76 354.89 99.75 C 353.90 101.19 352.33 102.30 352.01 104.10 C 350.85 108.08 348.36 111.55 345.31 114.32 C 342.03 117.25 339.64 121.09 335.99 123.62 C 331.61 123.85 331.91 119.01 332.10 115.98 C 331.70 108.10 336.89 101.73 339.85 94.86 C 342.34 89.21 343.67 83.09 346.57 77.60 C 348.90 70.92 350.89 63.48 348.24 56.58 C 332.85 56.13 319.00 65.02 308.30 75.33 C 302.55 80.88 299.48 91.23 305.12 97.85 C 309.46 103.26 317.56 104.38 323.70 101.65 C 327.07 100.28 329.22 97.18 331.76 94.73 C 334.82 91.71 335.47 87.32 336.25 83.30 C 336.73 83.08 337.70 82.63 338.19 82.41 C 338.81 93.02 330.39 101.89 320.93 105.29 C 317.46 105.04 313.81 106.23 310.62 104.38 C 301.99 102.08 298.19 91.45 300.46 83.42 C 302.13 79.72 304.58 76.35 307.35 73.39 C 312.52 67.32 319.81 63.78 326.23 59.26 C 330.96 56.99 336.23 56.02 341.38 55.20 Z" />
<path fill="#ffffff" opacity="1.00" d=" M 69.17 59.01 C 76.03 57.57 83.00 56.51 90.02 56.90 C 95.38 56.07 100.53 57.85 105.66 59.08 C 111.82 60.86 116.77 65.80 119.32 71.58 C 120.81 77.11 117.45 82.25 114.72 86.77 C 110.66 88.92 108.01 93.11 103.42 94.31 C 98.63 97.80 92.49 97.04 86.97 98.14 C 85.41 98.18 83.75 97.30 82.26 98.00 C 79.58 98.77 78.44 101.97 78.94 104.52 C 78.42 104.83 77.37 105.44 76.85 105.75 C 74.41 112.80 67.68 116.74 62.65 121.77 C 56.56 126.48 48.49 125.56 41.35 124.69 C 39.70 123.82 38.27 122.61 36.78 121.51 C 39.06 116.65 44.83 117.07 49.13 115.30 C 49.82 115.91 51.21 117.14 51.90 117.76 C 48.33 118.98 44.34 118.84 41.13 121.10 C 43.47 122.16 45.97 122.70 48.49 123.08 C 49.08 121.99 49.67 120.91 50.27 119.83 C 52.41 120.65 54.47 122.47 56.90 121.86 C 59.46 121.56 60.96 119.27 62.97 117.95 C 68.18 114.90 71.91 109.74 74.25 104.27 C 75.50 100.16 78.55 96.99 80.06 92.99 C 81.48 93.72 82.88 94.48 84.33 95.15 C 83.63 93.77 82.88 92.43 82.07 91.12 C 83.19 89.88 84.34 88.67 85.28 87.29 C 86.06 85.51 85.58 83.44 86.31 81.64 C 87.55 80.21 88.91 78.89 90.44 77.76 C 89.97 76.93 89.54 76.09 89.15 75.22 C 90.34 69.99 92.50 65.10 93.94 59.95 C 90.04 59.94 86.09 59.18 82.23 60.06 C 78.34 60.98 74.22 60.05 70.45 61.61 C 67.44 63.08 63.93 61.43 60.99 63.07 C 56.81 65.20 51.87 64.65 47.71 66.77 C 42.79 69.14 37.00 69.23 32.53 72.55 C 28.84 74.89 24.43 77.54 23.37 82.10 C 23.65 84.66 24.25 87.28 25.42 89.60 C 27.82 92.43 31.16 94.84 34.98 95.08 C 39.66 95.47 44.37 95.33 49.07 95.55 C 51.69 95.95 53.52 93.65 55.78 92.75 C 58.95 91.51 62.38 91.21 65.72 90.71 C 67.37 89.48 68.97 88.11 71.06 87.68 C 68.94 91.90 64.20 92.79 60.09 93.88 C 53.22 98.09 44.72 97.78 36.97 97.17 C 30.96 96.70 23.99 94.95 20.92 89.20 C 20.38 86.28 18.38 83.03 20.21 80.21 C 23.82 73.08 31.79 69.83 38.75 66.88 C 43.84 66.05 48.37 63.36 53.48 62.66 C 55.61 62.30 57.58 61.42 59.57 60.66 C 62.64 59.50 66.00 59.77 69.17 59.01 M 94.43 70.00 C 94.06 69.39 93.33 68.16 92.97 67.54 C 93.15 71.66 94.18 76.18 92.12 80.00 C 90.66 80.78 89.11 81.37 87.61 82.04 C 89.11 86.45 87.27 90.99 86.30 95.31 C 89.51 96.24 92.91 94.70 96.16 94.42 C 98.48 94.58 99.52 92.08 101.58 91.49 C 106.29 89.65 110.28 86.31 113.80 82.77 C 116.27 79.70 118.49 75.37 116.68 71.45 C 113.28 65.02 106.11 61.35 99.12 60.42 C 94.40 60.81 94.13 66.35 94.43 70.00 Z" />
<path fill="#ffffff" opacity="1.00" d=" M 361.63 74.66 C 364.38 70.29 367.06 65.79 370.79 62.16 C 371.52 62.59 373.00 63.47 373.73 63.90 C 370.69 67.06 372.19 71.64 370.50 75.34 C 369.35 77.21 367.87 78.86 366.40 80.47 C 366.63 81.98 367.13 83.62 366.21 85.02 C 362.45 93.13 358.56 101.29 356.39 109.99 C 356.88 113.09 358.39 116.36 361.19 118.01 C 363.95 117.78 365.94 115.61 367.95 113.94 C 373.36 109.62 376.70 103.43 381.30 98.34 C 383.40 96.27 383.20 93.20 383.79 90.53 C 385.47 91.56 385.31 93.29 385.00 94.97 C 386.87 94.27 389.20 94.02 390.26 96.16 C 390.20 101.61 386.11 105.76 384.63 110.81 C 389.21 106.55 391.21 100.12 396.32 96.30 C 399.21 94.35 402.13 92.42 405.13 90.63 C 405.77 95.13 402.63 98.83 402.01 103.13 C 401.54 106.61 400.76 110.02 400.07 113.46 C 405.30 110.38 409.05 105.30 414.44 102.43 C 418.29 100.65 420.37 96.73 423.67 94.22 C 426.01 96.56 423.67 99.27 422.57 101.57 C 420.43 105.07 419.22 109.03 417.68 112.81 C 419.81 111.47 421.97 110.19 424.30 109.22 C 428.76 107.33 430.06 102.12 434.08 99.62 C 435.16 100.17 436.24 100.74 437.32 101.32 C 432.18 108.15 426.07 114.21 418.82 118.76 C 416.33 118.88 415.06 116.11 413.29 114.79 C 414.55 112.02 415.26 109.06 415.65 106.04 C 408.26 109.91 403.05 117.26 394.63 119.19 C 395.52 112.15 399.41 105.66 399.11 98.43 C 393.63 102.70 391.25 109.58 386.66 114.62 C 383.82 116.53 381.41 119.15 378.18 120.43 C 377.32 115.63 381.30 112.09 382.94 107.95 C 384.32 104.56 387.01 101.32 386.42 97.48 C 383.93 99.25 381.80 101.48 379.24 103.16 C 379.34 103.65 379.56 104.64 379.66 105.13 C 375.78 110.65 371.24 115.99 365.30 119.35 C 361.12 122.20 354.71 118.69 354.11 113.84 C 353.20 107.11 356.71 100.95 358.75 94.76 C 359.96 90.80 361.69 87.03 363.12 83.15 C 364.07 80.79 364.13 77.74 366.71 76.46 C 366.38 75.34 366.08 74.21 365.79 73.07 C 367.08 73.55 368.37 74.04 369.66 74.54 C 368.45 73.40 367.19 72.29 366.11 71.03 C 363.65 75.23 362.39 79.96 360.10 84.28 C 359.50 84.40 358.30 84.66 357.70 84.79 C 358.29 85.01 359.47 85.46 360.06 85.69 C 357.67 87.41 358.17 90.13 358.13 92.66 C 356.80 91.44 356.19 89.74 355.78 88.03 C 356.90 83.25 360.01 79.25 361.63 74.66 Z" />
<path fill="#ffffff" opacity="1.00" d=" M 177.07 89.09 C 176.78 86.49 178.71 84.66 179.88 82.56 C 181.25 83.03 182.62 83.50 184.00 83.97 C 181.96 86.01 179.63 87.75 177.07 89.09 Z" />
<path fill="#ffffff" opacity="1.00" d=" M 227.07 89.09 C 226.81 86.53 228.66 84.68 229.84 82.61 C 231.23 83.04 232.63 83.49 234.03 83.94 C 231.97 85.98 229.65 87.75 227.07 89.09 Z" />
<path fill="#ffffff" opacity="1.00" d=" M 426.34 88.90 C 425.28 86.47 427.96 84.70 428.78 82.61 C 430.19 83.05 431.60 83.49 433.02 83.94 C 430.96 85.79 428.92 87.80 426.34 88.90 Z" />
<path fill="#ffffff" opacity="1.00" d=" M 248.42 90.29 C 250.95 89.15 253.40 90.99 254.91 92.90 C 253.67 96.88 251.02 100.19 247.51 102.40 C 247.43 101.64 247.26 100.11 247.18 99.35 C 249.99 97.93 251.78 95.52 251.26 92.23 C 246.79 94.22 244.30 98.78 241.40 102.50 C 240.60 106.61 237.04 110.96 239.61 114.99 C 249.13 109.95 258.92 103.76 264.27 94.12 C 266.25 100.48 260.92 105.71 256.52 109.49 C 252.12 112.81 247.39 116.17 241.95 117.41 C 238.59 118.50 234.60 115.54 234.98 111.97 C 235.00 108.55 236.56 105.45 237.68 102.29 C 234.28 105.38 232.21 109.77 228.24 112.23 C 225.58 114.53 223.01 117.07 219.85 118.68 C 217.36 119.11 216.10 116.03 214.26 114.82 C 215.51 112.06 216.22 109.11 216.64 106.12 C 214.72 107.27 212.79 108.42 210.77 109.39 C 209.24 105.85 212.81 103.82 215.44 102.42 C 219.15 100.71 221.30 97.05 224.24 94.38 C 224.72 94.87 225.68 95.84 226.16 96.32 C 223.48 101.73 220.58 107.04 218.68 112.81 C 220.81 111.46 222.96 110.17 225.29 109.21 C 229.82 107.29 231.11 101.96 235.30 99.54 C 236.27 100.24 237.23 100.97 238.19 101.70 C 240.75 97.33 243.55 92.37 248.42 90.29 Z" />
<path fill="#ffffff" opacity="1.00" d=" M 473.57 99.53 C 476.57 95.49 481.46 93.75 485.23 90.60 C 486.60 94.55 483.66 98.00 482.85 101.72 C 482.03 105.62 481.47 109.59 480.59 113.49 C 484.19 111.45 486.82 108.15 490.21 105.82 C 491.01 105.81 492.62 105.79 493.43 105.78 C 491.94 109.36 488.41 111.22 485.60 113.60 C 482.80 116.53 478.85 117.81 475.17 119.23 C 475.91 112.13 480.00 105.63 479.59 98.35 C 474.37 102.75 471.70 109.25 467.41 114.42 C 465.09 116.12 462.83 117.91 460.56 119.66 C 459.09 121.01 457.52 118.92 458.55 117.54 C 461.32 111.05 465.64 105.19 467.46 98.27 C 463.58 98.22 459.72 98.64 456.06 99.96 C 455.44 105.12 451.40 108.55 448.31 112.34 C 445.45 115.63 441.27 117.62 436.97 118.15 C 434.50 118.39 431.94 115.63 433.02 113.20 C 436.07 105.56 441.94 99.37 448.35 94.38 C 450.70 93.99 453.09 94.04 455.26 95.14 C 458.45 94.96 461.64 95.11 464.81 95.43 C 466.90 94.56 469.46 93.54 470.81 96.11 C 470.71 101.60 466.64 105.76 465.06 110.81 C 468.72 107.73 470.41 103.05 473.57 99.53 M 451.27 96.10 C 450.63 97.72 451.16 98.21 452.85 97.57 C 453.45 95.95 452.92 95.46 451.27 96.10 M 439.33 106.34 C 437.16 109.18 434.17 112.05 434.73 115.98 C 438.97 115.81 442.73 113.57 445.93 110.94 C 449.04 108.29 452.46 105.59 453.67 101.49 C 451.17 100.49 448.68 99.46 446.20 98.44 C 443.67 100.86 441.42 103.54 439.33 106.34 Z" />
<path fill="#ffffff" opacity="1.00" d=" M 352.65 99.33 C 353.77 97.25 355.11 95.25 357.17 94.00 C 357.54 97.02 355.08 98.43 352.65 99.33 Z" />
<path fill="#ffffff" opacity="1.00" d=" M 146.14 134.08 C 149.54 132.67 153.26 133.45 156.73 134.13 C 159.09 135.64 161.81 138.32 160.12 141.33 C 158.81 138.86 157.94 135.55 154.69 135.14 C 147.97 132.72 142.51 138.85 136.07 138.84 C 135.56 139.76 135.01 140.66 134.44 141.54 C 124.72 148.12 115.75 157.37 113.01 169.12 C 111.68 174.15 113.69 179.39 116.50 183.53 C 118.59 186.48 122.15 189.11 125.95 188.05 C 132.69 186.80 137.78 181.92 143.25 178.21 C 146.18 176.77 146.96 173.32 149.10 171.10 C 150.82 169.30 152.58 167.32 154.94 166.38 C 155.72 166.73 157.29 167.44 158.07 167.79 C 155.67 170.20 152.32 171.51 150.39 174.41 C 144.44 181.29 137.19 187.71 128.29 190.29 C 122.54 191.48 114.97 189.21 112.94 183.15 C 108.38 175.17 110.09 164.73 115.67 157.68 C 118.25 154.58 120.47 151.17 123.13 148.15 C 127.83 144.52 132.37 140.67 137.43 137.54 C 140.39 136.54 143.23 135.22 146.14 134.08 Z" />
<path fill="#ffffff" opacity="1.00" d=" M 159.23 142.19 C 160.56 142.41 160.78 143.14 159.88 144.39 C 158.57 144.15 158.35 143.42 159.23 142.19 Z" />
<path fill="#ffffff" opacity="1.00" d=" M 378.70 145.53 C 383.54 143.16 389.28 141.54 394.55 143.50 C 397.27 144.63 399.89 146.02 402.34 147.65 C 405.66 152.07 405.03 157.77 404.13 162.85 C 401.94 166.97 400.76 171.51 398.70 175.68 C 395.53 180.56 392.37 186.98 385.90 187.76 C 381.86 188.41 379.12 184.65 378.32 181.15 C 375.55 185.18 371.25 188.30 366.16 188.03 C 362.50 186.53 362.80 181.69 362.41 178.38 C 359.92 182.15 357.28 186.07 353.48 188.65 C 350.66 190.56 346.32 189.44 345.57 185.90 C 345.44 181.07 347.54 176.30 350.63 172.65 C 354.23 168.89 357.67 164.90 362.17 162.17 C 363.91 161.75 365.58 162.99 367.26 163.37 C 365.51 158.88 367.03 153.73 370.73 150.74 C 373.49 149.17 376.11 147.38 378.70 145.53 M 370.81 153.82 C 369.07 155.74 369.04 158.52 368.97 160.95 C 368.80 164.06 370.74 167.21 369.22 170.23 C 367.20 174.20 366.59 178.65 365.78 182.97 C 366.02 183.69 366.50 185.14 366.74 185.86 C 371.90 184.05 374.94 179.29 378.52 175.49 C 382.47 171.65 386.94 168.42 391.68 165.62 C 394.20 164.15 396.72 166.57 399.05 167.36 C 400.27 164.16 400.96 160.79 401.71 157.46 C 402.82 154.55 401.01 151.66 400.08 148.95 C 397.76 145.48 393.16 143.99 389.13 144.28 C 382.12 145.21 375.92 149.12 370.81 153.82 M 355.69 170.71 C 351.67 175.24 347.83 181.16 349.55 187.49 C 352.18 184.76 355.04 182.23 356.84 178.82 C 359.46 173.72 366.26 170.19 364.72 163.61 C 360.80 164.55 358.52 168.16 355.69 170.71 M 385.59 172.60 C 382.68 175.10 380.67 179.05 381.77 182.93 C 381.97 184.24 383.10 186.26 384.69 185.53 C 388.96 183.61 391.39 179.29 394.99 176.46 C 394.38 175.84 393.78 175.24 393.18 174.64 C 395.30 172.51 396.06 169.61 396.26 166.69 C 391.97 166.95 388.71 169.97 385.59 172.60 Z" />
<path fill="#ffffff" opacity="1.00" d=" M 247.07 161.10 C 246.80 158.53 248.66 156.68 249.84 154.61 C 251.24 155.04 252.63 155.48 254.03 155.94 C 251.97 157.98 249.65 159.75 247.07 161.10 Z" />
<path fill="#ffffff" opacity="1.00" d=" M 152.41 155.96 C 154.02 155.47 154.59 156.03 154.10 157.62 C 152.47 158.12 151.90 157.56 152.41 155.96 Z" />
<path fill="#ffffff" opacity="1.00" d=" M 148.35 161.99 C 151.44 160.52 148.35 165.31 148.35 161.99 Z" />
<path fill="#ffffff" opacity="1.00" d=" M 304.91 168.97 C 305.05 166.18 307.40 164.39 309.15 162.51 C 309.79 162.83 311.05 163.47 311.68 163.79 C 310.31 165.91 308.88 167.99 307.48 170.08 C 308.95 171.03 310.44 171.94 311.91 172.92 C 309.38 177.96 303.26 180.96 302.65 186.89 C 310.21 184.78 318.88 182.39 323.42 175.44 C 326.03 172.01 329.43 169.33 332.59 166.44 C 335.14 165.92 337.71 166.07 340.10 167.15 C 342.96 166.99 345.84 166.70 348.68 167.34 C 347.72 171.11 343.51 170.94 340.51 172.02 C 339.93 174.36 339.38 176.83 337.69 178.65 C 334.27 182.54 331.17 187.21 326.06 189.00 C 323.58 189.77 320.21 191.18 318.21 188.73 C 316.42 187.23 317.92 184.85 318.15 183.01 C 313.20 185.27 308.45 188.26 303.08 189.37 C 301.03 188.85 300.21 186.94 300.56 184.98 C 300.59 179.97 307.76 177.71 306.09 172.49 C 303.76 174.01 302.11 176.29 300.11 178.19 C 296.09 182.56 291.11 185.89 286.26 189.24 C 285.95 187.79 286.35 186.39 287.69 185.63 C 292.01 181.90 297.33 179.28 301.00 174.84 C 301.89 172.57 304.82 171.58 304.91 168.97 M 336.30 167.87 C 334.80 168.24 335.26 170.70 336.85 169.82 C 338.38 169.51 337.84 166.97 336.30 167.87 M 322.47 180.47 C 320.53 182.33 319.28 184.70 318.63 187.31 C 322.18 188.63 325.57 186.35 328.42 184.47 C 332.26 181.43 336.60 178.39 338.25 173.54 C 335.75 172.53 333.26 171.53 330.83 170.37 C 327.41 173.19 325.04 176.93 322.47 180.47 Z" />
<path fill="#ffffff" opacity="1.00" d=" M 142.36 169.30 C 145.32 167.75 142.45 172.64 142.36 169.30 Z" />
<path fill="#ffffff" opacity="1.00" d=" M 138.64 171.37 C 139.39 170.44 141.81 170.18 141.91 171.76 C 141.71 173.86 137.32 173.67 138.64 171.37 Z" />
</g>
</svg>
