<?xml version="1.0" encoding="UTF-8" ?>
<!DOCTYPE svg PUBLIC "-//W3C//DTD SVG 1.1//EN" "http://www.w3.org/Graphics/SVG/1.1/DTD/svg11.dtd">
<svg width="512pt" height="256pt" viewBox="0 0 512 256" version="1.1" xmlns="http://www.w3.org/2000/svg">
<g id="#ffffffff">
<path fill="#ffffff" opacity="1.00" d=" M 123.50 32.32 C 135.63 29.78 148.92 32.41 158.58 40.36 C 164.44 45.17 170.70 51.77 169.65 60.01 C 169.84 63.67 167.02 66.29 164.68 68.70 C 158.69 74.77 150.39 78.17 142.01 79.21 C 137.65 79.30 132.70 77.08 131.03 72.80 C 129.95 69.73 131.35 66.56 131.83 63.51 C 128.45 64.23 125.61 66.32 122.41 67.51 C 116.19 69.89 110.00 72.36 103.75 74.65 C 99.56 75.89 93.81 78.62 90.16 75.16 C 93.47 72.89 96.98 70.65 101.04 70.04 C 99.26 71.66 97.04 72.72 95.31 74.40 C 101.30 73.37 106.85 70.74 112.52 68.65 C 121.98 64.95 131.93 61.49 139.77 54.80 C 141.14 53.11 145.86 50.81 145.23 54.83 C 141.55 58.21 136.70 60.80 134.78 65.68 C 133.88 68.26 133.06 71.17 133.92 73.86 C 135.71 76.67 139.58 77.17 142.57 76.42 C 150.33 74.64 158.12 71.52 163.83 65.81 C 167.73 61.82 168.46 55.33 165.53 50.57 C 162.04 45.06 156.82 40.69 150.93 37.92 C 140.27 32.65 127.70 33.00 116.65 36.85 C 109.22 39.62 101.25 41.85 95.17 47.20 C 89.32 51.63 83.54 56.75 80.76 63.73 C 76.77 73.19 80.54 85.37 89.54 90.51 C 97.20 94.91 106.20 96.70 114.99 96.42 C 127.66 96.12 140.21 93.84 152.47 90.69 C 155.74 89.80 159.51 89.58 162.03 87.02 C 170.59 79.02 180.28 72.31 190.34 66.35 C 192.15 65.33 193.96 64.23 195.98 63.69 C 198.83 64.28 201.32 67.86 199.77 70.66 C 198.26 73.73 194.96 75.25 192.51 77.47 C 186.35 82.82 178.38 85.17 170.93 88.12 C 164.52 89.58 158.49 94.24 157.24 100.98 C 158.07 103.33 161.05 102.49 162.96 102.58 C 172.06 101.37 180.98 99.07 190.02 97.48 C 191.90 96.80 194.13 99.89 192.11 101.09 C 188.14 104.43 182.72 107.36 181.80 112.95 C 191.36 111.71 200.49 108.31 209.98 106.66 C 211.72 105.99 212.83 107.70 213.40 109.06 C 212.85 111.15 211.57 112.96 210.79 114.97 C 218.08 114.29 225.85 110.62 232.94 114.06 C 237.06 116.88 233.69 121.83 232.68 125.37 C 241.98 124.09 251.03 121.25 260.08 118.79 C 262.21 118.08 263.76 119.91 265.23 121.11 C 263.40 122.60 262.73 124.65 263.37 126.95 C 262.25 128.23 261.12 129.51 260.23 130.97 C 265.19 130.71 269.92 128.79 274.89 128.70 C 277.58 130.13 276.51 133.60 276.62 136.04 C 280.35 135.28 284.03 134.07 287.84 133.82 C 291.45 135.09 291.01 139.21 289.90 142.08 C 293.28 141.57 296.66 140.99 300.07 140.59 C 302.85 139.90 305.82 142.88 304.75 145.66 C 303.67 148.59 301.30 150.76 299.64 153.35 C 307.10 153.01 314.55 151.60 322.04 152.30 C 326.07 152.75 330.03 151.54 334.04 151.69 C 338.05 151.95 341.21 155.27 342.20 159.01 C 342.08 164.16 335.30 164.99 334.41 169.52 C 340.98 168.49 347.42 166.76 353.98 165.65 C 355.98 164.89 356.82 167.56 356.61 169.05 C 354.94 171.64 351.96 172.97 349.85 175.16 C 356.00 176.79 362.52 175.02 368.75 176.20 C 370.16 176.65 370.98 178.48 370.21 179.81 C 368.78 181.99 366.67 183.71 365.64 186.15 C 364.83 187.83 366.15 189.70 367.71 190.33 C 373.06 192.55 379.94 192.54 384.39 188.41 C 387.39 185.20 389.10 181.05 391.30 177.29 C 392.74 175.22 391.33 172.89 390.81 170.79 C 393.39 170.50 396.17 172.04 395.55 175.00 C 393.34 182.17 389.34 188.80 384.32 194.35 C 378.38 197.28 370.03 198.16 365.05 192.96 C 361.72 189.35 362.51 184.01 364.37 179.90 C 357.27 178.13 350.08 181.40 342.89 180.85 C 340.88 176.44 346.05 174.28 347.64 170.87 C 341.99 171.55 336.67 173.76 331.10 174.79 C 328.66 175.35 327.21 172.19 328.18 170.25 C 329.47 167.24 332.52 165.40 333.82 162.37 C 329.70 163.27 325.80 165.00 322.21 167.20 C 319.70 168.74 316.87 169.90 313.86 169.57 C 311.20 163.25 317.67 158.08 322.15 154.72 C 318.74 153.13 314.93 154.04 311.38 154.52 C 306.46 155.22 301.78 156.96 296.97 158.12 C 294.80 158.38 293.39 155.28 294.64 153.65 C 296.63 150.58 299.21 147.92 301.12 144.78 C 293.88 143.31 287.21 147.50 281.86 151.89 C 280.99 150.84 279.48 149.78 280.06 148.20 C 282.26 144.86 285.40 142.13 286.90 138.32 C 278.07 138.11 270.74 143.80 263.91 148.67 C 263.10 147.45 261.24 146.03 262.41 144.44 C 265.66 140.26 271.79 138.03 272.78 132.34 C 267.39 133.31 261.94 134.16 256.73 135.84 C 252.97 136.99 250.49 140.19 247.98 143.00 C 241.24 150.64 233.12 156.87 225.20 163.22 C 221.97 166.24 217.96 168.30 213.72 169.49 C 210.17 170.60 206.51 167.87 205.43 164.57 C 204.96 160.78 207.41 157.46 209.65 154.67 C 216.44 146.93 226.29 143.31 235.43 139.20 C 233.63 133.60 240.11 130.75 242.49 126.60 C 238.80 127.32 235.49 129.19 231.93 130.30 C 230.25 131.09 227.97 129.63 228.22 127.77 C 228.60 123.66 231.44 120.29 232.01 116.22 C 222.56 114.34 213.33 118.25 204.76 121.76 C 202.74 122.81 201.41 120.63 200.61 119.14 C 203.04 116.35 205.71 113.72 207.65 110.54 C 199.42 110.50 191.98 114.91 183.95 116.19 C 181.10 116.67 177.75 114.39 178.37 111.25 C 179.15 107.38 183.00 105.25 184.71 101.84 C 177.61 102.47 170.81 104.84 163.78 105.88 C 159.96 106.46 155.14 104.89 153.94 100.85 C 153.52 98.03 155.14 95.49 155.88 92.87 C 140.04 95.69 124.18 100.81 107.91 98.77 C 97.18 97.83 86.39 92.89 80.03 83.98 C 74.35 76.06 74.96 64.55 81.05 57.02 C 90.73 42.95 107.28 35.71 123.50 32.32 M 193.18 69.22 C 187.08 72.64 181.54 76.93 175.60 80.60 C 173.60 82.01 171.38 83.51 170.54 85.93 C 180.07 83.62 189.10 79.00 196.36 72.38 C 197.66 71.21 197.96 69.47 198.11 67.81 C 196.42 68.11 194.69 68.37 193.18 69.22 M 243.76 132.21 C 249.35 130.02 254.80 127.18 259.55 123.50 C 253.65 124.86 247.84 127.63 243.76 132.21 M 234.53 143.60 C 227.43 146.96 219.92 149.74 213.77 154.76 C 210.23 157.29 207.28 161.31 208.06 165.89 C 213.21 167.02 217.89 163.72 221.89 160.92 C 229.66 155.10 237.07 148.74 243.80 141.75 C 240.59 140.38 237.46 142.52 234.53 143.60 M 319.58 162.91 C 323.50 161.94 327.22 160.35 331.01 159.00 C 332.57 158.34 334.47 157.99 335.33 156.35 C 329.41 155.71 323.05 157.91 319.58 162.91 Z" />
<path fill="#ffffff" opacity="1.00" d=" M 210.29 83.37 C 211.76 82.09 213.15 84.83 213.61 86.02 C 212.91 88.23 211.91 90.34 211.03 92.48 C 209.71 89.70 208.73 86.26 210.29 83.37 Z" />
</g>
</svg>
