<?xml version="1.0" encoding="UTF-8" ?>
<!DOCTYPE svg PUBLIC "-//W3C//DTD SVG 1.1//EN" "http://www.w3.org/Graphics/SVG/1.1/DTD/svg11.dtd">
<svg width="256pt" height="256pt" viewBox="0 0 256 256" version="1.1" xmlns="http://www.w3.org/2000/svg">
<g id="#ffffffff">
<path fill="#ffffff" opacity="1.00" d=" M 183.93 58.12 C 188.86 57.76 190.14 63.55 190.82 67.32 C 191.92 76.81 192.06 87.74 185.39 95.38 C 182.20 98.74 177.94 102.06 173.08 101.85 C 169.82 101.69 168.41 98.42 166.01 96.85 C 162.59 100.98 161.47 106.81 157.34 110.41 C 155.77 111.73 153.49 110.67 153.23 108.71 C 152.78 103.72 154.67 98.98 156.21 94.35 C 152.82 95.12 150.36 97.85 147.13 99.04 C 145.10 100.08 142.57 100.22 140.84 101.74 C 138.95 107.95 135.61 113.57 133.80 119.81 C 133.62 121.18 131.79 122.71 130.62 121.37 C 128.51 118.60 128.70 114.79 126.98 111.79 C 121.03 118.57 116.93 127.41 108.78 131.97 C 106.60 133.26 104.46 130.53 102.32 131.20 C 100.17 132.87 98.10 135.31 95.07 134.96 C 91.65 134.54 91.00 130.66 89.69 128.13 C 89.34 128.18 88.64 128.26 88.29 128.30 C 85.40 132.59 84.51 138.54 80.00 141.54 C 75.46 139.33 76.85 133.01 76.92 128.85 C 71.69 134.97 66.99 141.57 61.12 147.12 C 58.00 150.02 55.40 153.81 51.25 155.35 C 45.46 157.72 38.31 155.27 34.85 150.13 C 29.98 143.82 28.33 135.74 27.68 127.98 C 28.41 121.23 29.88 114.42 33.60 108.63 C 37.81 100.19 45.07 93.61 53.33 89.25 C 57.06 87.28 61.68 86.61 65.60 88.40 C 69.72 90.10 72.68 93.90 73.82 98.15 C 76.47 107.16 73.67 116.90 68.41 124.41 C 66.14 127.95 62.99 132.18 58.22 131.64 C 55.24 131.56 54.45 128.16 53.01 126.17 C 48.71 134.56 46.31 143.81 41.89 152.16 C 46.57 155.23 52.30 152.27 56.01 149.00 C 62.58 142.89 69.05 136.58 74.56 129.47 C 76.78 126.77 77.84 123.43 78.12 119.98 C 79.44 118.46 81.64 120.35 81.28 122.01 C 81.40 125.83 80.44 129.62 80.76 133.45 C 84.20 130.36 85.44 125.73 87.91 121.95 C 89.29 119.90 89.84 117.47 90.93 115.29 C 92.25 115.42 93.28 116.04 94.02 117.14 C 94.02 121.48 92.37 126.27 94.82 130.25 C 95.12 130.39 95.72 130.69 96.02 130.83 C 98.67 128.97 101.72 126.51 101.61 122.94 C 101.48 116.90 105.23 111.93 107.71 106.72 C 109.05 103.76 113.62 105.25 113.65 108.25 C 113.95 115.50 108.51 120.97 106.09 127.39 C 108.82 127.48 110.66 125.17 112.57 123.57 C 117.83 118.40 122.28 112.44 126.30 106.28 C 128.05 103.89 128.02 100.78 129.36 98.22 C 131.04 96.58 134.14 98.96 133.33 100.99 C 132.28 104.70 131.49 108.54 132.08 112.41 C 134.17 111.18 134.60 108.65 135.66 106.67 C 137.15 103.66 138.27 100.46 138.60 97.10 C 145.03 98.61 150.26 94.30 155.70 91.70 C 159.77 89.67 160.28 84.24 164.24 82.06 C 166.09 81.27 169.08 81.72 169.55 84.03 C 169.79 88.53 168.03 93.97 171.51 97.64 C 173.55 99.84 176.08 96.96 177.97 95.93 C 187.39 89.39 189.17 76.53 187.01 66.02 C 186.80 63.08 184.63 60.89 183.93 58.12 M 54.39 92.38 C 43.16 98.47 34.82 109.42 31.76 121.80 C 29.94 131.21 31.80 141.29 37.40 149.14 C 40.41 149.20 40.65 145.81 41.74 143.72 C 45.23 133.87 50.00 124.49 52.66 114.36 C 53.52 112.34 55.82 114.26 56.39 115.48 C 57.01 119.53 55.56 124.48 58.36 127.85 C 61.07 128.40 63.09 125.49 64.71 123.69 C 69.33 116.90 73.10 108.57 71.51 100.19 C 70.88 96.64 69.04 92.93 65.61 91.40 C 61.99 89.67 57.81 90.73 54.39 92.38 Z" />
<path fill="#ffffff" opacity="1.00" d=" M 221.29 116.15 C 221.97 116.14 223.32 116.14 224.00 116.13 C 224.31 117.73 224.83 119.35 224.49 120.99 C 223.17 128.85 220.77 137.14 214.67 142.68 C 211.51 145.45 208.36 148.91 204.01 149.60 C 199.33 149.45 198.00 144.26 196.87 140.62 C 194.02 145.11 192.99 150.52 189.83 154.83 C 188.71 156.30 185.84 156.86 185.06 154.73 C 184.21 152.52 184.62 150.11 184.51 147.80 C 181.89 149.11 180.96 152.07 179.21 154.22 C 177.03 157.04 175.15 160.10 172.83 162.82 C 171.25 164.39 168.61 166.10 166.44 164.68 C 163.27 161.97 163.25 157.50 163.04 153.69 C 160.09 155.21 160.75 159.29 158.56 161.53 C 155.48 164.92 154.43 169.92 150.41 172.47 C 149.11 173.42 147.23 172.98 146.49 171.56 C 145.10 168.88 144.78 165.82 144.04 162.93 C 140.35 165.20 136.68 167.57 133.29 170.25 C 131.34 173.59 131.68 177.97 129.02 180.99 C 126.38 183.98 121.82 183.76 118.32 182.67 C 115.25 181.82 112.98 179.36 110.03 178.27 C 104.19 185.29 99.25 193.24 92.01 198.99 C 89.72 200.84 86.11 201.32 83.85 199.16 C 78.48 195.12 79.10 187.42 80.80 181.68 C 82.92 175.80 86.02 169.93 90.99 165.97 C 94.31 163.30 99.48 167.09 99.27 170.96 C 99.41 175.84 98.46 181.04 95.80 185.18 C 93.86 186.80 92.94 183.45 93.95 182.18 C 95.14 178.29 97.17 174.47 96.85 170.29 C 96.32 168.37 93.92 168.52 92.75 169.71 C 87.08 174.51 83.31 181.60 82.55 188.99 C 82.43 191.80 82.54 195.41 85.21 197.08 C 87.36 198.29 89.55 196.44 91.12 195.10 C 97.21 189.31 102.75 182.88 107.44 175.90 L 107.50 175.01 C 104.36 170.47 100.51 166.19 99.14 160.69 C 97.54 155.69 98.62 149.18 103.45 146.37 C 106.49 144.58 109.39 147.58 111.74 149.22 C 115.05 151.47 116.40 155.30 118.40 158.57 C 118.71 158.58 119.34 158.60 119.65 158.61 C 124.15 150.89 129.89 143.69 132.04 134.83 C 132.91 135.62 134.09 136.20 134.56 137.35 C 135.66 146.96 133.46 156.52 133.26 166.12 C 136.78 165.72 139.87 163.72 142.50 161.47 C 145.24 159.37 144.85 155.58 145.76 152.59 C 146.69 149.20 147.31 144.65 151.02 143.19 C 153.48 144.19 154.46 147.23 153.66 149.64 C 152.59 153.22 150.99 156.80 147.98 159.17 C 147.86 162.21 147.90 165.25 148.25 168.27 C 157.91 160.07 160.93 146.66 169.59 137.56 C 172.98 135.98 175.85 140.74 175.17 143.75 C 173.53 143.87 171.86 143.72 170.25 144.10 C 167.03 148.69 166.36 154.76 167.34 160.19 C 171.09 159.09 173.34 155.57 175.70 152.69 C 178.95 148.01 182.84 143.85 186.57 139.56 C 189.44 135.24 191.77 130.20 196.34 127.37 C 198.68 126.98 199.94 130.05 199.69 132.01 C 199.97 136.43 199.85 142.02 203.10 145.29 C 214.48 140.78 221.89 128.26 221.29 116.15 M 188.74 147.30 C 191.29 145.20 192.14 141.85 193.06 138.83 C 190.15 140.60 189.28 144.17 188.74 147.30 M 124.44 155.43 C 123.14 157.78 121.02 160.01 121.08 162.84 C 121.68 164.96 123.31 166.63 124.95 168.03 C 126.31 169.27 129.31 168.74 129.36 166.60 C 130.05 159.82 131.08 153.04 131.11 146.22 C 128.16 148.69 126.63 152.35 124.44 155.43 M 104.53 149.56 C 101.20 152.02 100.15 156.80 101.48 160.64 C 102.90 165.06 105.59 168.97 108.37 172.63 C 108.71 172.68 109.38 172.76 109.72 172.81 C 112.12 169.65 114.35 166.34 116.32 162.89 C 115.96 159.10 113.68 155.62 111.33 152.67 C 109.65 150.85 107.25 148.38 104.53 149.56 M 118.31 165.76 C 116.14 168.77 113.86 171.73 112.15 175.03 C 114.36 178.46 119.11 179.57 122.98 179.29 C 126.12 178.80 127.62 175.85 128.31 173.08 C 124.23 171.75 121.18 168.80 118.31 165.76 Z" />
</g>
</svg>
