<?xml version="1.0" encoding="UTF-8" ?>
<!DOCTYPE svg PUBLIC "-//W3C//DTD SVG 1.1//EN" "http://www.w3.org/Graphics/SVG/1.1/DTD/svg11.dtd">
<svg width="512pt" height="256pt" viewBox="0 0 512 256" version="1.1" xmlns="http://www.w3.org/2000/svg">
<g id="#ffffffff">
<path fill="#ffffff" opacity="1.00" d=" M 239.24 53.20 C 241.73 51.71 244.91 50.63 247.62 52.29 C 251.04 54.37 255.35 56.84 255.90 61.20 C 255.74 66.62 251.16 70.46 249.40 75.37 C 247.90 79.80 244.24 83.13 242.99 87.67 C 243.76 87.85 245.28 88.23 246.04 88.41 C 247.49 86.02 249.86 84.86 252.58 84.61 C 255.36 82.76 259.24 82.01 260.77 78.74 C 264.41 72.02 269.14 65.97 274.52 60.55 C 275.46 59.78 276.49 58.45 277.88 58.91 C 280.69 59.79 281.40 63.25 281.05 65.81 C 278.69 70.01 274.79 73.07 271.31 76.31 C 268.79 78.81 264.95 79.98 263.38 83.37 C 261.85 86.30 259.70 89.37 260.08 92.82 C 260.50 96.02 264.27 96.95 267.00 96.54 C 275.07 95.69 281.09 89.34 288.89 87.64 C 291.93 87.26 293.33 84.20 295.17 82.15 C 296.68 79.95 299.24 79.01 301.61 78.05 C 298.37 72.71 298.29 66.14 299.43 60.17 C 299.94 56.94 302.56 53.89 306.01 53.83 C 309.40 53.90 312.80 55.44 314.87 58.16 C 318.29 62.61 318.46 69.07 315.86 73.95 C 313.56 77.82 310.10 80.79 307.01 84.00 C 302.91 87.93 298.92 92.03 294.37 95.46 C 293.05 96.57 291.02 96.58 289.82 95.27 C 288.89 93.49 289.14 91.37 288.86 89.44 C 283.65 92.71 277.54 94.08 272.37 97.42 C 268.60 99.62 262.81 101.34 259.46 97.54 C 255.96 93.88 256.74 88.43 258.03 84.00 C 251.91 88.43 244.99 92.60 237.29 92.99 C 232.93 97.80 227.37 101.70 220.96 103.13 C 216.66 104.00 211.79 102.37 209.42 98.55 C 205.95 93.29 206.53 86.46 208.61 80.79 C 210.41 75.67 214.66 72.07 218.09 68.06 C 223.84 61.48 231.74 57.43 239.24 53.20 M 240.26 56.28 C 232.76 60.88 225.70 66.23 219.48 72.47 C 213.35 78.14 210.02 86.64 211.32 94.99 C 211.82 98.11 213.59 101.77 217.26 101.64 C 224.88 102.39 229.39 94.97 235.05 91.21 C 232.04 87.53 230.89 82.39 233.08 78.01 C 234.76 73.47 239.74 71.95 243.91 70.61 C 245.05 71.31 246.19 72.02 247.32 72.74 C 249.07 69.69 251.42 66.94 252.54 63.57 C 252.96 60.40 252.02 56.35 248.68 55.14 C 245.93 53.71 242.72 54.73 240.26 56.28 M 306.36 57.33 C 302.90 61.02 303.44 66.41 302.68 71.05 C 302.70 74.56 303.64 78.70 307.14 80.34 C 311.47 76.79 314.52 71.56 315.16 65.97 C 315.31 62.54 313.51 59.19 310.81 57.12 C 309.53 56.11 307.46 55.98 306.36 57.33 M 274.46 67.49 C 271.86 70.96 268.49 73.93 266.81 78.02 C 270.50 75.41 273.88 72.32 276.97 69.02 C 278.34 67.83 278.33 65.97 278.41 64.31 C 276.55 64.55 275.53 66.17 274.46 67.49 M 235.81 80.11 C 235.11 82.94 235.78 85.86 236.97 88.45 C 238.13 87.35 239.83 86.56 240.32 84.92 C 240.28 83.58 239.65 82.37 239.27 81.11 C 241.12 79.36 242.83 77.40 243.70 74.96 C 240.52 75.47 237.03 76.85 235.81 80.11 M 292.65 91.53 C 296.07 90.50 299.88 88.24 301.29 84.83 C 297.39 85.13 295.23 89.03 292.65 91.53 Z" />
<path fill="#ffffff" opacity="1.00" d=" M 410.07 81.03 C 410.67 79.57 412.51 79.07 413.92 79.61 C 417.19 80.36 418.99 83.94 419.38 87.01 C 418.48 90.73 415.80 93.64 413.78 96.79 C 410.97 101.35 405.93 104.50 405.08 110.14 C 408.12 110.89 413.08 108.12 414.41 112.10 C 414.99 116.17 410.25 117.40 407.23 118.22 C 406.62 120.44 409.56 120.67 411.09 120.91 C 418.29 120.26 425.04 117.01 430.88 112.88 C 434.20 110.39 437.41 107.21 438.37 103.02 C 439.12 99.91 434.88 100.10 433.06 98.98 C 434.38 96.96 437.41 95.85 439.46 97.42 C 441.77 99.76 442.22 103.62 440.68 106.49 C 438.31 111.93 433.09 115.20 428.43 118.48 C 423.16 121.62 417.24 124.48 410.98 124.45 C 407.28 124.36 404.71 121.63 402.85 118.74 C 400.32 119.61 400.34 122.93 398.70 124.75 C 397.68 126.54 395.41 125.41 393.91 125.09 C 394.74 123.22 395.66 121.38 396.27 119.42 C 390.93 121.42 386.86 126.35 381.03 127.27 C 376.46 125.96 378.82 120.05 376.96 116.75 C 371.25 118.53 367.41 123.45 365.70 129.00 C 364.42 128.56 363.21 127.94 362.04 127.27 C 358.89 129.90 355.75 132.82 351.94 134.42 C 349.08 135.56 347.32 132.44 345.81 130.61 C 343.06 131.97 340.67 133.91 338.74 136.28 C 336.57 135.54 334.83 133.35 335.54 130.98 C 335.85 127.32 339.07 124.91 339.82 121.42 C 335.45 122.69 331.00 123.59 326.53 124.44 C 323.67 130.63 319.13 136.30 312.89 139.29 C 308.23 139.37 308.67 133.15 305.19 131.20 C 304.04 135.70 299.71 137.74 296.21 140.15 C 294.58 140.99 293.08 142.80 291.12 142.50 C 286.86 139.28 288.98 133.38 288.75 128.87 C 285.82 130.05 283.22 131.89 280.65 133.68 C 278.13 135.31 277.91 138.80 275.57 140.59 C 274.36 141.45 272.64 140.37 272.29 139.07 C 272.63 136.58 273.50 134.14 273.30 131.59 C 267.87 135.02 263.17 139.90 256.88 141.80 C 253.73 142.14 253.21 138.13 250.96 136.83 C 247.09 139.30 243.32 142.03 238.96 143.63 C 235.46 143.36 233.64 140.13 232.08 137.44 C 227.84 139.82 223.86 143.15 218.91 143.83 C 216.55 144.18 214.05 142.44 214.05 139.94 C 213.80 135.47 215.59 131.24 216.90 127.05 C 215.17 127.28 213.21 126.66 211.63 127.49 C 207.88 132.56 201.03 133.10 195.69 135.67 C 192.09 137.95 188.21 140.18 185.82 143.83 C 183.30 147.10 182.39 151.19 180.93 154.95 C 179.38 156.57 178.27 159.25 176.01 159.77 C 174.07 158.19 173.95 155.31 173.90 153.00 C 174.62 146.87 180.31 143.36 183.83 138.88 C 185.88 134.77 186.70 130.14 187.83 125.71 C 184.19 128.44 180.81 131.50 177.01 134.02 C 170.11 138.96 163.07 145.50 154.03 145.30 C 148.29 144.56 145.95 138.57 145.06 133.60 C 140.84 136.95 136.32 139.89 131.85 142.90 C 130.79 143.82 129.40 144.00 128.05 143.92 C 128.39 142.77 128.72 141.52 129.84 140.87 C 134.28 137.61 138.59 134.07 143.50 131.53 C 145.35 130.46 145.34 128.00 145.97 126.19 C 149.37 111.38 162.32 99.72 177.06 96.77 C 181.26 96.60 184.00 100.95 184.55 104.69 C 186.15 112.51 181.56 119.92 176.41 125.39 C 172.60 128.67 168.78 132.19 164.05 134.09 C 161.69 135.06 158.52 135.35 156.64 133.28 C 154.73 131.33 155.04 128.39 154.74 125.90 C 152.52 127.75 149.39 129.04 148.46 132.01 C 148.06 135.87 148.48 141.33 153.06 142.39 C 167.35 139.57 180.39 131.33 190.12 120.61 C 191.25 120.73 192.28 121.19 193.21 121.98 C 192.68 126.58 189.91 130.55 189.61 135.15 C 192.93 134.20 195.98 132.59 199.05 131.07 C 202.42 129.43 206.45 128.71 208.98 125.73 C 209.80 123.93 209.02 121.85 209.20 119.94 C 211.01 120.76 212.62 121.94 214.16 123.18 C 217.03 121.78 221.78 121.79 221.84 125.99 C 219.91 130.66 217.47 135.21 216.91 140.33 C 221.79 140.27 225.77 136.98 230.05 135.06 C 234.29 133.51 234.75 128.52 237.26 125.32 C 238.54 123.78 239.49 121.28 241.75 121.10 C 245.03 122.50 244.35 126.59 243.09 129.21 C 241.50 132.46 236.74 133.22 236.19 137.13 C 235.89 138.14 236.45 140.35 237.91 139.63 C 242.58 138.12 246.97 135.77 251.01 133.00 C 255.39 130.44 255.40 124.03 260.19 121.85 C 262.05 120.67 263.97 122.02 265.60 122.91 C 264.22 125.34 263.76 128.70 261.00 130.01 C 258.17 131.62 254.65 134.31 255.16 137.94 C 256.35 138.60 257.50 138.55 258.63 137.79 C 264.95 134.68 270.01 129.66 275.63 125.51 C 276.61 124.57 278.50 124.24 279.20 125.72 C 280.75 127.65 279.16 129.99 278.82 132.05 C 282.41 129.07 286.42 126.54 290.95 125.28 C 293.21 126.52 293.41 129.96 291.87 131.89 C 290.37 133.71 290.42 137.69 293.02 138.35 C 296.80 136.58 299.65 133.42 302.87 130.84 C 305.28 128.60 308.17 126.82 310.12 124.13 C 314.18 117.50 316.29 109.39 322.43 104.22 C 323.38 103.03 325.11 104.33 325.41 105.44 C 327.02 108.83 325.77 112.74 323.63 115.58 C 321.73 118.40 318.52 120.10 317.09 123.26 C 314.36 126.62 312.42 130.48 310.82 134.48 C 311.33 134.45 312.34 134.37 312.85 134.33 C 315.81 132.22 318.73 129.90 320.96 127.00 C 322.55 125.02 321.39 122.35 321.45 120.07 C 323.79 120.52 326.20 121.25 328.57 120.47 C 336.49 118.44 344.67 116.87 351.88 112.84 C 352.67 113.88 353.48 114.91 354.27 115.95 C 351.27 119.80 348.88 124.99 349.75 129.93 C 358.03 127.69 362.71 120.12 367.03 113.36 C 368.59 114.53 368.91 116.41 369.00 118.24 C 371.74 115.64 376.49 111.56 380.10 114.78 C 380.83 117.79 380.63 120.95 381.29 123.98 C 387.50 124.12 391.56 118.52 396.09 115.11 C 400.69 112.25 402.19 106.74 403.85 101.92 C 406.10 95.01 406.78 87.59 410.07 81.03 M 414.26 83.10 C 411.33 88.45 408.69 94.27 408.66 100.49 C 411.14 98.82 411.86 95.77 413.35 93.34 C 414.58 90.94 416.41 88.74 416.85 86.01 C 417.22 84.46 416.01 82.48 414.26 83.10 M 172.42 101.49 C 163.44 107.23 154.07 114.06 150.21 124.43 C 155.28 123.33 157.61 118.23 162.20 116.34 C 162.60 116.72 163.42 117.48 163.83 117.86 C 160.44 121.45 156.76 125.82 157.94 131.16 C 161.40 132.09 164.32 129.71 167.20 128.20 C 172.09 125.61 175.62 121.25 179.07 117.06 C 182.57 112.38 184.35 105.32 180.46 100.34 C 178.09 98.12 174.76 100.29 172.42 101.49 M 341.91 127.09 C 344.68 125.74 346.74 123.31 348.07 120.57 C 345.12 121.66 343.47 124.55 341.91 127.09 Z" />
<path fill="#ffffff" opacity="1.00" d=" M 243.51 157.40 C 244.62 156.21 246.07 157.26 247.29 157.61 C 249.43 162.87 245.60 167.60 242.03 171.02 C 237.97 174.79 234.36 179.69 234.29 185.46 C 238.08 187.42 241.70 184.69 245.01 183.04 C 248.02 181.53 249.89 178.66 252.08 176.24 C 252.24 178.22 252.33 180.21 252.57 182.19 C 247.88 185.67 243.54 191.03 237.12 190.69 C 232.92 191.02 231.15 186.43 230.03 183.19 C 225.34 187.21 220.72 192.66 214.12 193.02 C 210.70 193.29 211.91 188.13 209.07 187.96 C 206.10 191.01 203.20 194.15 200.07 197.05 C 198.17 198.83 194.42 199.82 192.71 197.30 C 192.04 194.10 192.68 190.80 192.46 187.56 C 189.83 189.58 187.44 191.96 184.36 193.33 C 184.33 194.68 184.29 196.04 184.25 197.40 C 181.97 197.76 179.33 196.66 179.52 193.98 C 180.19 187.20 181.75 180.41 181.09 173.55 C 176.14 174.16 172.82 178.20 169.53 181.52 C 164.28 186.26 164.04 194.26 158.80 199.04 C 157.93 198.19 156.21 197.60 156.48 196.09 C 158.93 188.76 162.38 181.27 161.37 173.34 C 157.90 173.24 155.33 175.84 152.76 177.78 C 149.27 180.56 145.15 182.93 142.94 186.96 C 141.17 190.39 139.09 193.69 137.90 197.39 C 136.51 196.73 134.39 195.89 134.88 193.93 C 136.77 184.75 140.74 175.70 139.68 166.14 C 139.53 163.29 136.78 161.34 134.04 161.64 C 124.49 163.81 114.32 165.97 106.87 172.84 C 104.29 174.92 101.09 178.96 103.91 182.11 C 108.50 185.65 114.72 183.55 120.01 183.51 C 122.30 183.71 125.33 181.98 127.07 184.09 C 125.75 186.04 123.06 185.33 121.07 185.64 C 114.76 185.88 107.49 187.09 102.14 182.89 C 99.12 180.76 100.02 176.52 101.97 173.99 C 107.64 166.26 117.00 162.18 126.21 160.51 C 130.41 159.89 135.17 158.52 139.05 160.97 C 142.68 163.15 143.72 167.90 142.90 171.81 C 142.26 174.88 142.11 178.01 142.35 181.13 C 147.77 177.33 151.94 171.60 158.40 169.40 C 160.10 168.79 161.88 169.76 162.87 171.14 C 164.82 173.70 165.20 177.00 165.62 180.10 C 170.38 176.50 174.39 171.70 179.99 169.37 C 182.05 170.06 183.76 171.88 184.06 174.07 C 185.15 179.55 183.71 185.03 182.90 190.44 C 185.22 189.40 186.96 187.49 188.74 185.74 C 191.69 182.73 194.93 180.03 197.93 177.08 C 199.01 178.69 201.08 180.56 199.78 182.66 C 197.89 186.35 195.11 189.78 194.87 194.10 C 201.83 191.33 206.79 185.17 211.98 179.99 C 215.31 173.74 216.91 166.64 220.45 160.47 C 221.30 159.07 223.16 157.95 224.74 158.94 C 226.48 161.06 228.23 164.03 227.07 166.83 C 225.19 171.97 220.31 175.02 217.49 179.55 C 215.58 182.38 214.57 185.72 214.02 189.07 C 217.36 188.11 220.08 185.81 222.89 183.87 C 227.46 180.17 232.44 176.50 235.07 171.07 C 237.37 166.25 239.35 160.96 243.51 157.40 Z" />
<path fill="#ffffff" opacity="1.00" d=" M 202.79 166.78 C 200.21 169.42 196.74 164.46 198.70 162.02 C 200.06 163.54 202.66 164.48 202.79 166.78 Z" />
</g>
</svg>
