<?xml version="1.0" encoding="UTF-8" ?>
<!DOCTYPE svg PUBLIC "-//W3C//DTD SVG 1.1//EN" "http://www.w3.org/Graphics/SVG/1.1/DTD/svg11.dtd">
<svg width="512pt" height="256pt" viewBox="0 0 512 256" version="1.1" xmlns="http://www.w3.org/2000/svg">
<g id="#ffffffff">
<path fill="#ffffff" opacity="1.00" d=" M 125.75 45.92 C 128.49 43.75 131.58 47.14 131.12 49.99 C 130.00 59.54 128.46 69.34 123.85 77.91 C 121.75 82.09 119.07 85.99 117.54 90.43 C 125.19 85.73 130.59 78.11 137.84 72.83 C 140.70 70.74 143.47 68.53 146.21 66.29 C 149.37 68.81 149.31 73.37 149.26 77.05 C 148.81 85.06 142.52 91.19 141.74 99.10 C 147.68 94.28 153.22 88.95 159.48 84.51 C 163.78 81.64 167.16 77.33 172.14 75.57 C 172.51 76.83 173.02 78.12 172.61 79.44 C 171.41 85.29 170.62 91.36 167.84 96.73 C 166.25 100.21 163.96 103.49 163.60 107.40 C 170.39 104.49 175.47 98.63 181.88 95.00 C 184.07 96.29 182.13 98.81 181.48 100.50 C 179.44 103.85 177.97 107.65 178.47 111.66 C 182.05 111.96 185.08 109.70 188.10 108.12 C 192.20 105.68 196.65 103.50 199.87 99.88 C 204.09 94.31 206.43 87.62 209.29 81.31 C 211.50 76.45 214.84 72.24 218.17 68.10 C 218.74 68.25 219.89 68.54 220.46 68.68 C 221.52 73.80 219.34 78.75 217.40 83.36 C 214.37 90.22 208.35 95.01 203.71 100.70 C 201.90 103.14 200.00 106.05 200.64 109.24 C 208.91 106.94 215.24 100.72 222.66 96.70 C 227.13 93.19 232.57 90.31 234.82 84.74 C 237.41 78.50 241.00 72.08 247.12 68.75 C 250.19 67.28 251.33 71.59 250.94 73.82 C 249.80 78.40 245.61 81.26 242.55 84.56 C 240.00 87.39 235.56 88.29 234.03 92.02 C 231.76 97.68 228.41 103.23 228.75 109.56 C 234.65 108.21 240.09 105.36 245.26 102.28 C 251.01 99.14 253.63 92.34 259.69 89.62 C 261.16 88.88 262.71 89.61 264.16 89.99 C 263.26 94.01 259.95 96.69 256.44 98.45 C 252.15 100.74 249.03 105.00 248.58 109.90 C 249.12 112.56 252.46 112.23 254.32 111.30 C 267.54 104.83 279.90 96.79 292.89 89.90 C 294.55 88.88 296.45 88.47 298.39 88.49 C 298.69 95.04 297.10 101.64 293.96 107.39 C 299.15 107.33 303.43 104.01 308.05 102.09 C 315.68 99.04 322.46 94.30 329.97 90.99 C 333.45 88.52 337.45 86.76 341.82 87.34 C 341.65 93.08 339.69 98.46 338.79 104.09 C 338.23 105.35 339.07 108.11 340.83 106.83 C 349.55 102.74 356.63 96.00 365.05 91.42 C 368.20 91.04 367.11 94.42 366.00 96.01 C 364.89 97.54 364.73 99.39 364.77 101.22 C 370.73 98.16 376.54 94.70 383.12 93.08 C 383.70 97.37 382.81 101.81 380.57 105.52 C 379.44 106.86 379.99 109.49 382.07 109.36 C 388.04 107.86 393.74 105.22 398.95 101.96 C 402.36 99.90 404.73 96.55 408.03 94.36 C 409.35 94.70 410.31 96.20 409.47 97.44 C 407.65 99.95 404.88 101.57 402.96 104.00 C 401.63 105.69 401.40 107.89 400.89 109.91 C 405.79 112.94 411.65 109.68 416.05 107.13 C 420.75 104.65 418.70 98.69 420.06 94.50 C 424.83 96.61 423.02 102.63 421.23 106.24 C 418.86 110.95 413.43 112.22 408.97 114.09 C 405.75 115.46 401.81 116.40 398.61 114.50 C 395.88 112.75 397.07 109.20 397.08 106.56 C 393.71 107.34 391.72 110.74 388.25 111.37 C 384.33 112.08 380.29 113.84 376.31 112.82 C 375.86 107.65 378.84 103.21 379.80 98.31 C 375.79 97.77 372.63 100.60 369.27 102.24 C 363.64 104.89 360.85 110.89 355.91 114.42 C 354.35 114.39 353.74 113.63 354.06 112.13 C 356.19 107.41 360.38 103.56 360.88 98.17 C 357.73 98.76 355.55 101.26 353.08 103.07 C 348.94 106.50 344.37 109.33 339.76 112.05 C 337.92 113.40 335.14 112.02 334.78 109.88 C 334.35 107.13 335.07 104.34 335.08 101.58 C 328.69 104.24 324.98 110.86 318.69 113.73 C 317.18 114.46 314.84 113.91 314.91 111.93 C 315.44 108.49 316.84 105.26 317.65 101.88 C 308.99 104.35 301.57 109.81 293.29 113.21 C 289.40 114.33 285.64 115.81 281.82 117.13 C 279.41 118.18 276.79 116.00 276.38 113.63 C 275.58 109.88 276.83 106.15 278.33 102.76 C 268.32 104.30 261.84 113.98 251.78 115.55 C 249.83 115.72 247.48 116.68 245.84 115.18 C 244.55 112.44 245.71 109.39 246.03 106.56 C 238.86 108.44 232.72 112.73 225.86 115.38 C 223.02 108.95 227.10 102.50 228.33 96.22 C 226.85 96.65 225.24 96.98 224.07 98.06 C 221.15 100.95 217.16 102.37 214.20 105.21 C 211.21 108.20 206.66 108.69 203.69 111.71 C 202.03 113.32 199.78 114.07 197.48 113.69 C 197.18 111.44 197.13 109.17 196.91 106.92 C 192.31 109.67 187.66 112.34 182.97 114.93 C 180.81 115.97 178.32 115.85 175.98 115.93 C 174.60 111.30 176.10 106.73 177.34 102.28 C 171.45 104.97 167.44 110.63 161.69 113.65 C 161.04 113.73 159.72 113.88 159.07 113.95 C 159.58 102.46 168.63 93.38 169.02 81.87 C 163.62 83.17 160.11 87.82 155.45 90.45 C 147.69 95.37 142.41 103.02 136.67 109.97 C 136.11 110.14 135.01 110.46 134.46 110.63 C 135.58 103.58 139.08 97.24 141.66 90.66 C 143.95 84.87 147.97 78.67 145.60 72.25 C 145.22 72.10 144.46 71.80 144.08 71.64 C 140.25 74.22 136.04 76.43 133.09 80.08 C 127.07 85.73 121.05 91.41 115.40 97.43 C 112.43 102.83 109.93 108.56 106.72 113.78 C 106.18 113.91 105.11 114.17 104.57 114.30 C 105.68 108.16 107.69 102.16 110.66 96.67 C 114.60 89.25 118.52 81.82 122.41 74.37 C 125.90 67.76 127.14 60.28 128.21 52.97 C 128.83 50.29 126.92 48.11 125.75 45.92 M 239.56 82.50 C 242.99 80.68 247.18 77.90 247.43 73.67 C 243.54 75.11 240.51 78.46 239.56 82.50 M 209.31 89.58 C 213.38 86.74 215.63 81.89 216.43 77.10 C 212.76 80.30 210.40 84.88 209.31 89.58 M 279.65 100.90 C 281.50 102.69 282.76 104.91 283.74 107.27 C 284.24 108.84 286.13 110.25 287.62 108.88 C 292.56 105.18 294.34 98.55 294.18 92.62 C 289.15 95.03 284.02 97.37 279.65 100.90 M 319.47 107.56 C 321.11 107.51 322.65 106.98 323.83 105.81 C 328.54 101.86 334.04 98.51 337.14 93.02 C 328.91 93.71 322.47 100.26 319.47 107.56 Z" />
<path fill="#ffffff" opacity="1.00" d=" M 87.78 54.72 C 93.82 52.98 99.45 49.63 105.87 49.39 C 105.25 51.14 103.28 51.45 101.77 52.00 C 92.24 54.55 82.87 58.18 74.62 63.66 C 69.05 67.79 63.44 73.61 63.52 81.02 C 63.30 85.34 65.86 89.60 69.89 91.24 C 77.70 94.42 86.82 92.22 93.63 87.68 C 96.44 86.01 97.94 81.71 101.42 81.66 C 102.14 84.34 99.20 85.95 97.76 87.78 C 94.65 91.39 90.10 93.00 85.88 94.91 C 81.92 96.74 77.53 94.93 73.37 95.68 C 71.09 94.93 68.66 94.55 66.50 93.47 C 64.13 91.16 63.04 87.86 61.51 84.98 C 61.44 81.07 62.36 77.19 63.18 73.39 C 65.61 70.11 67.69 66.48 70.74 63.74 C 75.98 60.00 81.54 56.48 87.78 54.72 Z" />
<path fill="#ffffff" opacity="1.00" d=" M 416.52 68.57 C 417.46 68.00 418.42 68.01 419.39 68.57 C 422.11 71.72 416.66 77.34 413.48 74.52 C 411.12 72.16 414.76 69.88 416.52 68.57 Z" />
<path fill="#ffffff" opacity="1.00" d=" M 185.14 77.91 C 183.45 74.81 187.26 70.00 190.16 73.12 C 190.74 76.05 188.03 78.60 185.14 77.91 Z" />
<path fill="#ffffff" opacity="1.00" d=" M 245.34 136.35 C 248.72 136.51 252.22 135.24 255.47 136.58 C 260.57 138.37 265.10 143.26 264.42 148.99 C 264.78 154.62 261.32 159.31 259.43 164.35 C 254.00 172.18 246.32 178.33 237.93 182.76 C 233.72 185.09 227.50 184.55 224.82 180.20 C 222.46 176.75 223.74 172.50 224.16 168.70 C 221.01 170.98 218.22 173.71 215.30 176.27 C 214.00 177.51 212.31 178.96 212.93 180.97 C 213.42 184.97 214.14 190.59 218.99 191.46 C 226.98 192.11 234.09 187.87 241.30 185.14 C 246.79 183.36 251.88 180.59 257.05 178.06 C 259.40 177.11 260.33 174.60 261.68 172.65 C 265.74 165.93 270.42 159.56 275.93 153.95 C 280.37 149.36 285.05 144.59 291.18 142.37 C 293.34 141.82 294.05 144.72 295.26 145.95 C 293.81 148.74 292.81 151.72 291.73 154.66 C 289.01 159.15 285.88 163.44 282.17 167.18 C 279.97 169.52 276.36 169.78 274.36 172.37 C 271.86 175.35 267.89 176.42 265.18 179.14 C 263.28 181.64 263.24 185.00 263.92 187.95 C 269.61 188.17 274.87 185.71 280.29 184.41 C 282.98 183.81 285.70 182.58 287.03 180.03 C 291.28 172.63 298.54 167.21 306.63 164.68 C 310.56 163.60 315.14 162.84 318.74 165.28 C 321.36 166.53 323.97 170.45 319.97 171.91 C 318.71 170.14 317.71 167.39 315.04 167.69 C 308.41 166.89 302.79 171.05 297.74 174.72 C 294.37 177.09 291.80 180.56 290.73 184.56 C 293.85 183.77 296.50 181.88 299.12 180.09 C 302.99 177.34 307.15 174.86 310.09 171.03 C 311.32 172.45 313.47 173.77 313.03 175.96 C 312.17 178.49 310.63 180.79 310.40 183.53 C 313.17 183.61 315.60 182.20 317.97 180.95 C 324.09 177.60 330.19 174.22 336.08 170.49 C 336.81 171.61 338.25 172.50 338.23 173.98 C 336.83 177.93 334.12 181.38 333.33 185.54 C 337.44 185.43 341.01 183.24 344.71 181.74 C 351.41 178.99 357.24 174.70 362.96 170.34 C 363.93 171.52 365.45 172.44 365.77 174.05 C 365.03 176.06 363.41 177.59 362.54 179.55 C 363.09 179.44 364.20 179.21 364.75 179.10 C 369.31 175.97 374.64 174.04 379.91 172.55 C 382.34 173.82 382.14 177.18 383.14 179.44 C 388.51 177.76 393.12 174.42 398.22 172.15 C 400.28 171.07 402.38 172.11 404.25 173.07 C 403.43 176.65 402.33 180.20 402.00 183.87 C 402.56 185.38 404.32 186.65 405.97 186.21 C 412.51 184.64 419.09 181.77 423.61 176.63 C 425.78 173.34 426.57 168.36 423.86 165.14 C 423.08 164.09 422.33 163.02 421.67 161.90 C 423.84 162.02 426.70 161.88 427.69 164.31 C 430.46 168.02 430.06 173.18 427.98 177.08 C 425.92 179.13 424.50 181.63 423.40 184.29 C 421.44 184.54 419.24 184.09 417.61 185.44 C 414.37 187.62 410.49 188.47 406.95 190.04 C 404.47 190.93 401.20 192.32 399.11 189.91 C 396.83 185.77 399.38 181.26 399.49 176.97 C 398.15 174.23 395.15 176.26 393.60 177.65 C 390.37 180.62 385.50 181.26 382.94 185.00 C 381.27 186.51 380.31 188.57 378.88 190.27 C 377.44 191.22 376.10 189.22 374.76 188.83 C 375.92 185.03 377.85 181.44 378.22 177.42 C 372.52 179.35 366.63 181.15 361.67 184.68 C 359.44 186.19 358.37 189.02 355.90 190.19 C 354.44 190.19 352.70 189.76 352.58 188.01 C 353.40 185.86 354.59 183.87 355.52 181.77 C 351.23 181.45 347.81 184.49 344.12 186.19 C 340.81 188.51 336.73 188.90 332.91 189.80 C 330.96 190.38 329.18 188.74 328.59 187.02 C 328.46 184.54 329.09 182.12 329.29 179.67 C 326.49 180.48 323.99 181.98 321.59 183.58 C 318.32 185.77 314.31 186.68 311.44 189.47 C 309.15 191.86 305.69 190.82 303.36 189.12 C 303.48 187.29 303.63 185.46 303.70 183.63 C 298.29 186.22 293.36 189.73 287.98 192.43 C 285.25 191.90 282.91 190.32 282.94 187.27 C 280.94 187.65 278.82 187.94 277.16 189.21 C 273.47 191.90 268.75 193.39 264.20 192.76 C 259.93 191.60 258.74 186.79 257.25 183.21 C 255.35 183.50 253.36 183.66 251.67 184.67 C 245.44 188.19 238.59 190.34 232.02 193.11 C 226.92 194.55 221.05 197.19 216.05 194.06 C 211.43 192.08 210.36 186.79 208.77 182.57 C 204.42 185.65 201.16 190.32 196.07 192.37 C 195.58 191.04 194.68 189.30 196.28 188.32 C 200.61 184.57 205.59 181.25 208.10 175.87 C 208.83 171.44 207.88 166.49 210.52 162.56 C 213.21 158.34 215.84 153.94 219.77 150.74 C 227.30 144.35 236.76 141.02 245.34 136.35 M 228.70 148.72 C 220.07 153.67 212.51 162.66 212.74 173.03 C 217.65 171.11 220.43 166.51 224.51 163.47 C 226.26 162.02 227.51 160.11 228.92 158.35 C 229.77 159.23 230.58 160.16 231.33 161.13 C 230.11 165.52 228.25 169.75 227.43 174.25 C 227.43 176.41 227.84 179.30 230.11 180.23 C 234.25 180.78 238.05 178.64 241.15 176.13 C 246.70 172.51 251.87 168.19 255.79 162.80 C 258.90 158.47 262.08 153.57 261.58 147.98 C 261.69 142.18 255.48 137.80 249.99 139.06 C 242.21 140.44 235.56 145.09 228.70 148.72 M 282.77 153.77 C 277.55 159.24 272.13 164.77 268.74 171.62 C 272.64 170.31 275.99 167.65 279.56 165.58 C 284.49 160.98 290.57 155.98 290.91 148.68 C 287.54 148.95 285.04 151.52 282.77 153.77 Z" />
<path fill="#ffffff" opacity="1.00" d=" M 346.15 159.86 C 345.27 156.76 346.60 152.65 350.15 152.09 C 352.44 151.30 356.39 153.95 354.51 156.41 C 353.05 159.57 349.47 161.40 346.15 159.86 Z" />
</g>
</svg>
