<?xml version="1.0" encoding="UTF-8" ?>
<!DOCTYPE svg PUBLIC "-//W3C//DTD SVG 1.1//EN" "http://www.w3.org/Graphics/SVG/1.1/DTD/svg11.dtd">
<svg width="512pt" height="128pt" viewBox="0 0 512 128" version="1.1" xmlns="http://www.w3.org/2000/svg">
<g id="#ffffffff">
<path fill="#ffffff" opacity="1.00" d=" M 243.12 0.00 L 244.36 0.00 C 244.91 2.26 245.73 4.56 245.30 6.92 C 243.85 15.99 241.30 24.85 239.68 33.88 C 245.34 33.32 250.84 31.78 256.28 30.20 C 258.35 29.57 260.84 28.86 261.55 26.53 C 264.32 18.82 266.30 10.70 270.62 3.65 C 271.93 0.89 276.14 0.76 277.71 3.33 C 280.42 7.36 279.70 12.49 278.99 17.01 C 278.39 20.29 278.25 24.19 275.42 26.45 C 272.08 28.98 267.81 29.92 264.47 32.45 C 260.80 38.30 260.26 45.44 258.13 51.90 C 259.13 52.23 260.13 52.56 261.14 52.89 C 258.86 55.56 257.13 58.65 254.88 61.34 C 254.36 61.27 253.34 61.13 252.82 61.06 C 251.84 57.41 253.20 53.70 254.30 50.24 C 256.15 44.93 257.86 39.53 258.44 33.91 C 252.56 35.39 246.58 36.43 240.69 37.78 C 236.96 38.92 236.70 43.34 235.54 46.43 C 232.90 54.10 230.68 61.90 229.21 69.88 C 228.32 69.82 226.55 69.68 225.66 69.61 C 225.75 59.33 230.75 49.87 232.39 39.82 C 223.15 41.19 214.20 44.01 205.08 45.97 C 204.45 45.01 203.86 44.03 203.33 43.01 C 213.22 39.26 223.90 38.25 233.94 35.06 C 235.72 32.35 235.84 28.93 236.71 25.87 C 237.99 19.23 240.57 12.75 240.32 5.90 C 228.22 7.98 215.92 11.44 205.98 18.96 C 203.79 20.68 201.30 22.36 200.25 25.07 C 204.53 27.08 209.32 27.80 214.02 27.74 C 219.23 27.75 224.34 25.94 229.56 26.75 C 229.31 27.47 228.80 28.90 228.55 29.62 C 219.68 32.27 209.95 31.61 201.15 28.96 C 198.52 28.33 195.88 25.39 197.59 22.69 C 202.51 15.24 211.14 11.72 218.94 8.12 C 226.75 4.65 235.70 4.37 243.12 0.00 M 272.30 8.22 C 269.63 14.02 267.53 20.10 266.13 26.34 C 269.17 25.35 272.61 24.24 274.18 21.19 C 276.44 17.01 278.11 11.97 276.93 7.23 C 275.84 5.06 273.09 6.58 272.30 8.22 Z" />
<path fill="#ffffff" opacity="1.00" d=" M 148.78 2.68 C 151.85 1.24 154.94 5.15 155.07 7.96 C 154.10 11.51 152.64 14.91 151.39 18.36 C 150.82 20.39 148.52 20.79 146.88 21.62 C 145.36 26.99 143.58 32.30 142.45 37.77 C 146.20 36.76 149.12 33.50 153.10 33.30 C 155.62 33.08 158.03 34.95 158.52 37.41 C 159.30 41.58 157.10 45.46 156.44 49.47 C 160.70 47.30 164.50 44.25 167.96 40.97 C 171.27 37.85 172.92 32.49 177.98 31.70 C 181.19 32.21 182.08 36.07 180.75 38.66 C 179.60 43.42 172.66 43.19 171.69 48.07 C 171.12 50.14 171.04 53.98 173.99 53.95 C 179.99 52.56 184.93 48.45 189.14 44.13 C 190.74 42.65 190.68 40.27 191.31 38.33 C 195.06 38.76 196.02 43.08 193.81 45.74 C 189.76 50.41 185.16 54.92 179.42 57.43 C 176.47 58.55 172.58 59.28 170.02 56.95 C 167.38 54.40 168.47 50.39 167.96 47.15 C 162.91 49.76 159.13 54.88 153.34 55.89 C 151.66 54.49 152.37 52.14 152.47 50.26 C 152.81 45.76 155.95 41.66 154.87 37.07 C 150.09 37.33 146.07 40.58 142.88 43.90 C 139.63 47.44 138.47 52.22 136.65 56.54 C 135.96 56.59 134.56 56.69 133.86 56.74 C 133.63 54.27 133.76 51.76 134.57 49.41 C 136.99 41.49 139.31 33.54 141.75 25.64 C 142.27 24.21 142.36 22.69 142.43 21.19 C 137.24 21.04 132.07 21.75 126.88 21.59 C 125.72 25.41 125.49 29.42 124.45 33.27 C 122.10 42.44 118.22 51.21 113.24 59.26 C 111.95 61.10 110.50 63.36 108.04 63.59 C 104.05 61.95 102.15 57.73 99.08 54.94 C 97.25 52.62 93.87 50.99 93.91 47.68 C 95.66 46.93 96.92 48.97 98.24 49.78 C 101.70 52.38 103.75 56.38 107.17 58.99 C 108.53 59.69 109.39 57.95 110.14 57.14 C 116.57 48.24 120.38 37.75 123.00 27.17 C 123.37 25.38 123.98 23.51 123.42 21.69 C 122.00 21.26 120.52 21.25 119.06 21.22 C 98.77 21.47 78.45 20.11 58.17 21.55 C 56.96 21.63 55.93 22.35 54.92 22.96 C 59.07 28.59 65.89 31.56 72.43 33.45 C 80.57 35.35 89.13 35.58 97.38 34.31 C 98.62 34.25 100.90 33.38 101.30 35.13 C 102.41 36.97 99.86 37.53 98.62 37.78 C 92.36 39.42 85.82 38.87 79.46 38.19 C 73.27 37.32 66.81 36.15 61.68 32.33 C 57.79 29.51 52.78 27.05 51.49 21.99 C 52.31 19.50 54.62 17.82 57.24 17.78 C 77.47 16.65 97.75 17.38 118.00 17.29 C 126.23 17.34 134.55 18.08 142.71 16.79 C 143.03 16.57 143.67 16.15 143.99 15.94 C 145.83 11.64 145.26 6.14 148.78 2.68 M 172.20 42.07 C 174.91 40.29 177.20 37.87 179.05 35.22 C 175.52 35.76 173.94 39.38 172.20 42.07 Z" />
<path fill="#ffffff" opacity="1.00" d=" M 393.31 11.25 C 398.24 10.17 398.31 17.26 396.05 19.94 C 393.33 18.46 390.80 13.78 393.31 11.25 Z" />
<path fill="#ffffff" opacity="1.00" d=" M 441.14 34.17 C 444.91 30.74 449.92 27.05 455.31 28.81 C 455.19 29.54 454.95 31.01 454.83 31.74 C 448.04 34.85 441.25 38.61 436.65 44.69 C 435.74 46.06 435.44 47.72 435.01 49.28 C 436.55 48.49 437.99 47.49 439.22 46.25 C 443.65 41.93 448.32 37.83 453.35 34.20 C 455.03 32.69 457.53 35.09 456.41 36.94 C 455.06 40.11 453.81 43.40 453.61 46.87 C 454.82 48.09 456.22 49.11 457.57 50.18 C 452.37 55.76 448.02 62.20 445.63 69.49 C 444.35 74.10 441.18 77.76 438.78 81.79 C 436.84 84.85 434.97 88.20 431.80 90.14 C 429.86 91.32 428.09 89.11 427.26 87.59 C 425.73 84.88 427.19 81.84 428.24 79.25 C 432.10 71.25 437.48 64.03 443.84 57.83 C 448.24 53.53 449.17 47.14 450.41 41.40 C 444.82 46.11 439.86 51.58 433.99 55.96 C 432.36 57.30 429.59 57.08 428.74 54.95 C 428.75 52.98 429.23 51.06 429.42 49.11 C 426.45 50.57 424.21 53.31 421.04 54.36 C 419.70 54.09 417.71 53.68 417.83 51.89 C 417.92 47.98 419.48 44.27 419.91 40.39 C 415.12 41.86 411.25 45.31 407.79 48.80 C 405.24 51.32 403.63 54.67 400.84 56.93 C 398.89 56.94 397.47 54.84 397.88 53.02 C 398.24 49.21 400.51 45.73 399.84 41.81 C 391.63 44.63 387.81 53.43 380.41 57.48 C 378.80 58.57 376.22 58.67 375.30 56.65 C 373.97 51.34 377.58 46.70 378.59 41.71 C 374.35 43.29 369.99 44.74 366.09 47.06 C 364.39 47.94 364.16 49.98 363.49 51.56 C 362.13 55.52 359.19 58.63 357.26 62.29 C 354.03 68.15 351.12 74.46 345.90 78.86 C 343.74 80.64 340.39 80.54 338.37 78.60 C 334.16 74.71 333.57 67.67 337.09 63.12 C 342.74 55.50 351.49 51.21 359.47 46.51 C 362.41 44.97 362.75 41.44 363.02 38.51 C 359.40 39.18 356.90 42.01 354.00 44.00 C 348.38 47.97 344.08 53.43 338.84 57.83 C 337.74 58.81 335.81 59.89 334.69 58.32 C 333.15 55.96 335.35 53.45 336.48 51.43 C 338.60 47.65 342.21 44.93 344.12 41.03 C 342.51 41.23 340.94 41.67 339.59 42.58 C 334.90 45.43 330.18 48.37 326.32 52.31 C 324.16 54.41 322.25 56.75 319.93 58.68 C 318.51 58.78 317.62 58.16 317.26 56.82 C 316.98 52.32 319.55 48.12 319.44 43.70 L 318.32 43.53 C 312.87 47.40 309.75 53.54 305.01 58.09 C 303.55 60.03 301.01 58.03 301.30 56.03 C 301.92 52.08 303.65 48.37 304.14 44.38 C 297.20 47.64 293.26 55.11 286.82 59.20 C 285.49 60.10 283.71 59.13 283.32 57.69 C 282.58 54.05 283.71 50.40 283.94 46.76 C 280.70 48.97 279.22 52.81 276.10 55.14 C 273.60 57.03 272.03 61.08 268.30 60.24 C 267.80 58.04 267.50 55.69 268.62 53.61 C 271.75 46.84 275.66 40.28 281.02 35.02 C 282.75 33.30 285.07 31.56 287.67 32.17 C 290.48 33.67 289.32 37.41 289.54 39.99 C 289.83 44.42 287.08 48.35 287.49 52.78 C 294.24 48.48 299.05 41.66 306.14 37.84 C 307.63 36.63 308.71 39.05 308.87 40.22 C 308.92 42.28 308.16 44.25 308.02 46.30 C 309.45 47.42 310.65 45.39 311.80 44.79 C 314.80 42.50 317.31 39.32 320.98 38.11 C 322.59 37.48 324.92 39.13 324.11 40.94 C 323.42 43.74 322.54 46.54 322.82 49.47 C 325.91 47.75 328.52 45.30 331.63 43.60 C 337.60 40.20 344.22 37.96 350.98 36.79 C 353.32 36.21 355.61 37.27 357.96 37.22 C 361.02 36.17 363.81 33.86 367.25 34.55 C 367.50 37.24 367.17 39.91 366.78 42.56 C 371.81 41.23 376.44 38.83 381.05 36.50 C 382.39 35.56 385.30 37.13 384.38 38.92 C 382.39 42.64 381.48 46.73 380.90 50.88 C 382.40 50.12 383.85 49.22 385.03 48.00 C 388.98 44.19 393.48 41.02 398.11 38.09 C 399.58 37.24 401.11 36.07 402.93 36.42 C 405.12 38.40 404.42 41.77 405.30 44.36 C 411.06 41.78 415.72 35.65 422.55 36.31 C 426.60 39.31 421.81 44.39 422.62 48.38 C 428.62 43.41 435.37 39.42 441.14 34.17 M 276.94 47.18 C 280.85 44.46 284.11 40.69 286.28 36.45 C 281.98 38.75 279.30 43.08 276.94 47.18 M 346.28 58.26 C 342.48 60.64 339.32 64.46 338.73 69.02 C 338.29 71.80 339.85 74.29 341.25 76.55 C 344.15 74.75 346.62 72.27 348.37 69.34 C 351.82 63.53 355.45 57.79 358.17 51.59 C 353.39 52.10 350.14 55.85 346.28 58.26 M 432.48 82.54 C 436.89 77.85 439.91 71.94 442.14 65.94 C 437.50 70.46 434.06 76.25 432.48 82.54 Z" />
<path fill="#ffffff" opacity="1.00" d=" M 203.21 65.17 C 204.27 62.79 207.68 64.91 207.20 67.06 C 206.48 72.21 203.25 76.49 201.72 81.37 C 206.97 78.17 211.57 73.84 217.24 71.32 C 219.52 70.22 222.72 70.86 223.75 73.36 C 225.07 76.49 224.12 80.01 223.03 83.06 C 220.55 89.90 216.16 95.93 210.94 100.95 C 208.99 102.86 205.92 103.54 204.51 105.98 C 205.35 108.53 206.01 111.46 208.10 113.32 C 210.51 113.44 212.59 111.70 214.68 110.66 C 222.99 105.38 231.05 99.71 239.15 94.12 C 240.53 93.22 241.95 92.18 243.66 92.11 C 244.83 93.50 245.58 95.17 246.44 96.76 C 251.81 97.36 257.25 97.01 262.60 96.40 C 266.25 96.11 269.69 92.45 273.36 94.64 C 274.92 95.18 275.48 96.69 275.38 98.22 C 269.07 98.56 263.41 103.57 263.03 109.99 C 262.39 112.05 263.07 115.95 265.98 115.22 C 275.57 112.74 283.24 105.88 289.39 98.41 C 294.27 90.30 298.52 81.72 304.52 74.35 C 305.73 72.43 308.01 73.96 309.12 75.16 C 309.90 78.01 309.19 81.15 307.55 83.58 C 304.32 88.27 299.51 91.69 296.58 96.62 C 295.10 99.23 293.97 102.03 292.89 104.82 C 298.22 102.34 303.72 100.25 309.25 98.23 C 311.64 97.32 315.21 98.98 314.84 101.85 C 312.48 106.22 307.61 108.36 303.27 110.26 C 304.54 113.97 306.89 118.32 311.06 119.17 C 318.96 118.62 326.67 114.93 331.92 108.96 C 334.06 106.58 335.75 103.81 338.08 101.59 C 338.76 101.73 340.12 101.99 340.80 102.13 C 341.03 104.02 340.85 106.01 339.49 107.47 C 335.16 112.50 330.68 117.83 324.43 120.52 C 319.83 122.45 314.79 124.92 309.71 123.40 C 306.53 122.28 303.07 120.50 301.80 117.16 C 300.46 113.80 298.29 110.88 296.22 107.95 C 292.83 110.60 289.32 113.53 287.69 117.65 C 287.13 118.83 286.72 120.11 285.87 121.12 C 284.04 121.13 281.36 120.24 281.77 117.93 C 282.17 115.72 283.04 113.63 283.61 111.46 C 278.36 114.31 273.48 118.11 267.67 119.75 C 263.13 121.07 258.74 117.24 258.45 112.77 C 257.58 108.40 259.60 104.33 261.13 100.39 C 256.01 100.23 250.86 100.46 245.75 100.92 C 243.03 101.44 243.79 104.95 243.38 106.96 C 243.34 112.45 238.47 116.29 234.00 118.57 C 231.17 118.69 230.57 115.15 230.92 112.99 C 231.65 109.42 233.37 106.16 234.51 102.72 C 227.16 107.22 220.44 112.73 212.81 116.76 C 210.78 117.90 208.03 118.54 206.06 116.93 C 202.01 113.86 201.45 108.41 198.37 104.60 C 197.09 103.00 196.15 100.16 198.00 98.63 C 199.70 99.21 201.23 100.28 203.03 100.56 C 209.24 97.88 212.97 91.91 216.21 86.28 C 218.08 82.73 219.59 78.90 219.86 74.87 C 216.48 75.78 213.49 77.68 210.69 79.72 C 201.31 86.86 194.10 96.60 189.39 107.37 C 187.66 110.87 186.88 114.81 184.84 118.15 C 182.60 119.79 179.92 117.43 180.65 114.97 C 183.20 103.59 191.16 94.45 194.52 83.34 C 190.86 85.68 188.40 89.34 185.32 92.32 C 178.75 98.77 172.34 105.52 164.54 110.52 C 161.00 112.73 157.41 115.67 153.01 115.56 C 150.74 115.66 148.70 113.99 148.01 111.89 C 144.91 104.27 146.15 95.34 150.39 88.39 C 153.67 82.87 158.38 77.26 165.06 76.14 C 167.85 75.40 170.72 78.14 170.14 80.95 C 169.65 84.27 167.80 87.18 165.84 89.83 C 162.94 93.70 160.33 97.85 156.72 101.13 C 155.95 102.85 152.08 100.56 153.94 99.25 C 159.18 93.21 165.45 87.39 167.24 79.25 C 160.63 80.78 156.07 86.46 153.34 92.34 C 149.84 98.14 148.94 105.78 152.27 111.86 C 154.96 111.37 157.57 110.42 159.86 108.91 C 173.86 99.92 185.26 87.62 196.48 75.50 C 199.47 72.57 201.14 68.71 203.21 65.17 M 234.84 113.43 C 238.20 111.87 239.21 107.58 239.30 104.19 C 236.14 106.18 235.04 109.90 234.84 113.43 Z" />
</g>
</svg>
