<?xml version="1.0" encoding="UTF-8" ?>
<!DOCTYPE svg PUBLIC "-//W3C//DTD SVG 1.1//EN" "http://www.w3.org/Graphics/SVG/1.1/DTD/svg11.dtd">
<svg width="512pt" height="128pt" viewBox="0 0 512 128" version="1.1" xmlns="http://www.w3.org/2000/svg">
<g id="#ffffffff">
<path fill="#ffffff" opacity="1.00" d=" M 135.04 4.98 C 138.40 4.80 141.67 4.00 144.98 3.53 C 153.23 5.35 161.96 5.60 169.70 9.29 C 175.37 11.89 180.36 16.26 183.16 21.88 C 185.89 27.38 183.94 34.48 179.14 38.17 C 173.43 42.70 165.97 43.76 158.92 44.09 C 157.43 44.42 155.29 43.82 154.44 45.48 C 151.52 50.69 150.05 56.54 147.84 62.05 C 147.43 62.03 146.60 61.97 146.19 61.95 C 143.52 58.47 143.06 53.93 140.83 50.22 C 139.29 50.40 137.76 50.60 136.22 50.74 C 136.92 48.54 139.23 47.97 141.11 47.17 C 143.22 49.98 144.64 53.21 146.41 56.23 C 149.98 50.13 150.93 42.79 155.02 36.98 C 158.79 29.05 162.66 21.15 165.88 12.98 C 166.85 14.36 167.65 16.04 166.83 17.71 C 164.43 25.35 160.18 32.26 157.56 39.81 C 164.30 40.14 171.55 39.23 177.09 35.06 C 180.05 32.90 181.82 28.98 180.62 25.37 C 178.30 18.19 171.30 13.93 164.58 11.46 C 152.15 7.30 138.62 7.40 125.85 9.84 C 119.25 11.07 112.40 12.77 107.14 17.17 C 105.99 17.84 105.72 19.40 106.54 20.43 C 109.53 24.55 114.75 25.81 119.18 27.74 C 127.50 29.61 136.16 30.28 144.64 29.21 C 145.13 30.18 145.62 31.16 146.11 32.13 C 140.36 34.72 134.01 33.63 127.99 33.04 C 119.99 32.25 111.63 29.94 105.61 24.38 C 102.19 21.48 102.24 15.59 106.17 13.16 C 114.72 7.68 125.05 5.71 135.04 4.98 Z" />
<path fill="#ffffff" opacity="1.00" d=" M 192.13 37.17 C 196.12 30.49 200.80 23.94 207.10 19.25 C 210.07 20.95 210.22 24.78 209.62 27.77 C 206.97 37.16 199.98 44.69 191.98 49.97 C 189.07 51.76 188.18 55.65 189.86 58.59 C 196.08 57.82 202.13 55.67 207.54 52.53 C 209.93 48.84 211.04 44.31 214.16 41.07 C 216.44 39.00 220.13 41.15 220.14 44.01 C 220.00 47.31 218.17 50.57 215.32 52.30 C 213.17 53.76 210.18 54.97 210.21 58.03 C 216.49 57.09 222.20 53.73 228.64 53.78 C 234.27 49.05 239.05 41.84 247.05 41.25 C 247.89 42.88 249.86 44.66 248.64 46.60 C 246.49 51.00 243.98 55.34 243.53 60.33 C 250.84 59.02 257.10 54.85 263.74 51.81 C 269.82 49.04 275.89 46.27 282.00 43.59 C 282.47 45.77 283.62 48.21 282.36 50.34 C 279.30 55.87 276.90 63.02 270.08 64.83 C 265.77 64.85 265.89 59.02 267.95 56.45 C 269.07 57.56 270.12 58.76 271.16 59.96 C 274.91 57.59 276.36 53.15 278.23 49.37 C 272.66 51.57 267.15 53.96 261.85 56.76 C 257.43 58.49 253.85 62.01 249.10 62.93 C 246.29 63.56 243.45 65.97 240.52 64.54 C 238.97 61.96 240.51 58.76 240.38 55.95 C 236.70 57.75 233.15 59.78 229.49 61.61 C 228.37 62.47 227.22 61.31 226.22 60.89 C 226.66 59.19 227.15 57.50 227.55 55.79 C 220.99 58.36 214.91 63.56 207.43 62.65 C 206.91 61.13 206.45 59.60 205.98 58.07 C 200.50 60.53 194.63 63.68 188.44 62.58 C 185.22 61.54 185.76 57.44 185.09 54.79 C 180.61 56.39 176.04 58.64 171.17 58.14 C 167.55 55.77 168.59 50.48 171.85 48.31 C 172.42 48.77 173.56 49.69 174.13 50.15 C 172.94 51.08 171.77 52.04 170.64 53.04 C 174.42 56.10 179.36 52.84 183.11 51.17 C 188.85 48.72 189.14 41.85 192.13 37.17 M 203.17 27.15 C 199.48 32.47 195.26 37.65 193.54 44.01 C 199.96 39.61 206.18 33.09 207.03 25.01 C 205.66 25.53 204.02 25.82 203.17 27.15 M 211.94 50.48 C 214.52 49.27 217.34 47.18 216.98 43.97 C 214.05 44.90 212.68 47.72 211.94 50.48 M 234.40 54.13 C 237.81 52.42 241.18 50.27 243.32 47.03 C 239.83 48.54 236.02 50.46 234.40 54.13 Z" />
<path fill="#ffffff" opacity="1.00" d=" M 290.73 51.75 C 293.66 48.53 296.94 45.34 301.17 43.93 C 302.96 42.87 305.34 44.92 304.62 46.84 C 304.03 49.00 305.24 50.96 305.95 52.93 C 304.52 54.90 302.96 56.79 301.88 58.99 C 309.87 56.74 316.62 51.67 324.02 48.13 C 327.23 49.27 324.92 53.18 324.26 55.38 C 328.08 53.79 331.75 51.51 335.92 50.99 C 339.57 52.57 336.11 56.99 335.99 59.74 C 338.69 59.12 341.28 58.13 344.01 57.65 C 341.25 61.55 336.92 64.53 332.06 64.88 C 330.95 61.89 332.65 58.89 333.02 55.91 C 328.22 56.51 324.29 59.68 320.90 62.90 C 319.91 64.06 317.60 64.08 317.66 62.13 C 318.32 59.91 319.28 57.81 319.97 55.61 C 312.99 58.50 306.76 63.75 299.02 64.57 C 298.16 63.04 297.34 61.51 296.48 59.99 C 293.10 60.89 290.10 63.55 286.41 62.56 C 285.74 58.45 287.94 54.59 290.73 51.75 M 291.26 57.47 C 294.83 56.30 297.90 54.09 300.81 51.78 C 300.85 50.94 300.94 49.26 300.99 48.42 C 296.23 49.22 293.21 53.42 291.26 57.47 Z" />
<path fill="#ffffff" opacity="1.00" d=" M 380.11 46.12 C 382.29 44.22 386.46 45.15 387.11 48.16 C 387.58 51.06 385.25 53.60 382.85 54.86 C 380.93 56.10 378.20 56.60 377.46 59.06 C 383.60 58.02 389.86 57.00 395.60 54.46 C 398.99 53.16 400.45 49.60 403.05 47.33 C 402.71 51.30 400.92 55.30 397.46 57.48 C 391.08 61.53 383.41 63.16 375.95 63.55 C 373.47 63.96 371.67 62.06 369.98 60.59 C 363.84 62.69 357.64 65.01 351.08 65.18 C 349.37 65.01 348.01 63.59 347.77 61.92 C 348.65 55.19 352.22 47.93 359.05 45.62 C 361.01 44.92 362.86 45.82 364.33 47.11 C 363.82 48.60 363.27 50.08 362.66 51.54 C 361.75 50.57 360.84 49.60 359.94 48.63 C 354.62 50.09 351.60 55.29 350.88 60.47 C 353.51 60.65 356.21 60.77 358.74 59.85 C 363.32 58.33 368.13 57.41 372.59 55.55 C 374.96 52.31 376.68 48.45 380.11 46.12 M 378.87 53.00 C 381.03 51.97 383.97 50.85 383.97 47.98 C 381.09 48.00 379.91 50.78 378.87 53.00 Z" />
<path fill="#ffffff" opacity="1.00" d=" M 182.37 69.31 C 191.21 68.68 200.63 72.51 209.03 68.34 C 209.67 69.52 210.79 70.59 210.84 72.02 C 209.88 74.84 208.32 77.42 207.14 80.15 C 204.28 86.32 199.72 91.66 197.59 98.17 C 202.65 97.63 207.62 96.49 212.58 95.36 C 215.00 94.87 216.67 92.83 217.76 90.75 C 221.31 83.84 224.70 76.75 226.34 69.10 C 226.91 69.12 228.05 69.17 228.62 69.20 C 229.19 77.78 224.69 85.43 220.56 92.58 C 218.99 95.12 218.36 98.13 216.65 100.60 C 212.78 106.47 209.80 112.91 205.44 118.45 C 205.07 118.67 204.33 119.11 203.96 119.33 C 202.93 115.80 205.19 112.73 206.86 109.84 C 208.73 106.85 210.40 103.72 211.71 100.44 C 206.02 101.79 200.14 102.10 194.44 103.39 C 188.78 109.91 186.10 118.43 181.98 125.92 C 181.31 125.76 179.98 125.43 179.31 125.27 C 179.41 123.66 179.77 122.07 180.49 120.62 C 183.16 114.98 186.32 109.57 188.75 103.82 C 184.62 102.40 180.38 103.84 176.22 103.84 C 174.13 103.36 174.91 100.98 175.56 99.66 C 181.12 97.71 187.40 100.41 192.62 97.59 C 197.25 89.93 202.17 82.25 205.29 73.81 C 197.68 73.94 190.11 73.12 182.53 72.98 C 184.75 76.21 189.47 77.14 190.38 81.37 C 186.62 82.25 183.76 79.05 181.25 76.77 C 178.83 74.73 179.29 70.33 182.37 69.31 Z" />
<path fill="#ffffff" opacity="1.00" d=" M 227.08 114.82 C 228.67 107.64 233.96 101.73 240.12 97.95 C 245.84 100.96 252.55 99.21 258.70 98.94 C 259.22 100.00 259.74 101.06 260.26 102.13 C 258.92 104.86 257.45 107.54 256.31 110.38 C 262.88 107.79 268.41 103.22 274.62 99.95 C 275.87 105.07 271.63 109.28 270.06 113.86 C 279.23 112.37 287.14 107.32 295.26 103.16 C 298.66 101.28 302.13 99.49 305.37 97.32 C 308.44 101.89 305.22 107.15 304.16 111.84 C 306.93 112.69 310.43 112.93 312.18 110.11 C 315.59 105.73 320.10 99.58 326.49 101.46 C 328.73 104.06 327.63 108.18 325.49 110.50 C 322.38 113.63 317.87 114.35 313.71 115.02 C 314.15 118.04 317.88 116.93 320.04 117.23 C 327.42 116.46 334.63 113.83 340.97 109.98 C 344.31 108.12 345.28 104.14 348.07 101.74 C 349.04 103.92 349.35 106.70 347.62 108.60 C 339.93 117.26 328.54 121.95 317.11 122.64 C 313.21 122.80 310.03 120.00 309.04 116.34 C 305.90 116.82 302.70 117.07 299.60 117.73 C 297.25 118.97 294.61 121.89 291.79 120.30 C 288.58 117.65 289.36 112.96 290.83 109.58 C 284.36 111.29 279.57 116.62 272.92 117.80 C 270.77 118.18 267.10 119.59 266.32 116.57 C 265.94 113.41 267.96 110.73 268.90 107.87 C 263.13 110.17 258.49 114.63 252.85 117.26 C 251.74 118.14 248.89 116.64 249.90 115.14 C 251.51 111.17 253.96 107.60 255.75 103.71 C 252.69 101.90 249.24 103.39 245.95 103.19 C 244.20 103.24 241.51 102.71 240.86 104.93 C 239.57 109.37 237.02 113.76 232.61 115.67 C 230.85 116.53 228.00 117.11 227.08 114.82 M 292.83 109.78 C 294.76 110.71 297.15 113.01 299.31 111.40 C 301.25 109.42 301.65 106.52 302.32 103.95 C 298.84 105.08 293.67 105.36 292.83 109.78 M 232.40 110.41 C 234.69 109.30 236.44 107.39 237.32 105.00 C 235.16 106.24 233.10 107.91 232.40 110.41 M 317.41 110.13 C 320.04 109.83 323.32 109.34 324.00 106.26 C 320.92 105.42 318.28 107.14 317.41 110.13 Z" />
</g>
</svg>
