<?xml version="1.0" encoding="UTF-8" ?>
<!DOCTYPE svg PUBLIC "-//W3C//DTD SVG 1.1//EN" "http://www.w3.org/Graphics/SVG/1.1/DTD/svg11.dtd">
<svg width="256pt" height="256pt" viewBox="0 0 256 256" version="1.1" xmlns="http://www.w3.org/2000/svg">
<g id="#ffffffff">
<path fill="#ffffff" opacity="1.00" d=" M 56.49 18.46 C 61.90 10.95 72.16 7.78 81.01 10.02 C 90.18 11.82 98.28 16.88 105.57 22.52 C 108.37 24.61 109.91 28.35 108.91 31.77 C 107.86 35.39 104.51 37.68 101.28 39.24 C 87.13 45.69 71.35 46.82 56.71 51.71 C 62.14 52.34 67.64 51.87 73.06 52.63 C 79.27 53.51 85.43 54.74 91.49 56.36 C 92.99 56.78 94.59 57.22 95.67 58.42 C 96.35 61.17 93.22 62.25 91.34 63.33 C 83.62 66.53 75.03 66.69 67.22 69.58 C 79.51 70.66 91.96 72.13 103.49 76.80 C 101.32 81.16 96.41 82.65 92.22 84.35 C 87.62 86.28 82.52 87.10 78.39 90.03 C 82.99 91.54 87.89 91.92 92.48 93.52 C 101.23 96.45 109.79 100.30 117.12 106.00 C 116.85 106.57 116.31 107.71 116.03 108.29 C 114.00 107.93 111.78 106.59 109.79 107.80 C 105.94 109.67 102.21 111.94 99.22 115.04 C 104.49 117.07 110.30 115.91 115.71 117.40 C 120.82 118.85 126.03 120.04 131.03 121.89 C 130.57 122.52 129.67 123.77 129.22 124.40 C 122.82 121.15 114.90 122.68 109.63 127.36 C 112.71 131.61 118.10 132.74 122.84 134.12 C 130.51 135.74 138.21 137.44 146.06 137.83 C 144.41 140.31 141.24 139.96 138.68 140.57 C 134.56 141.38 130.23 142.43 126.93 145.19 C 127.74 148.66 132.33 148.58 135.21 148.55 C 135.93 143.79 140.91 141.52 145.30 141.84 C 144.54 144.02 143.57 146.12 142.62 148.23 C 147.17 150.79 152.48 151.40 157.10 153.79 C 155.84 156.81 153.37 158.93 150.75 160.76 C 155.24 161.84 160.20 161.38 164.29 163.74 C 161.22 166.91 157.09 168.56 153.57 171.12 C 159.34 171.65 165.20 171.94 170.78 173.60 C 168.06 176.98 164.64 179.66 161.58 182.70 C 165.94 184.00 170.54 184.07 175.06 184.35 C 186.16 185.13 196.10 176.61 207.22 178.76 C 201.85 183.80 194.45 186.92 187.03 186.57 C 181.60 186.35 175.71 188.76 172.34 193.02 C 172.74 197.12 178.20 196.65 181.28 196.66 C 182.00 195.15 182.69 193.63 183.45 192.15 C 184.79 193.05 186.06 194.05 187.28 195.10 C 184.71 198.01 180.96 199.69 177.05 199.15 C 173.91 198.70 169.20 198.54 168.31 194.73 C 168.01 190.51 172.36 188.50 175.09 186.23 C 169.41 185.79 162.77 187.16 157.99 183.35 C 159.97 179.86 163.48 177.77 166.06 174.79 C 159.67 172.66 152.83 173.19 146.40 174.81 C 146.61 174.21 147.01 173.01 147.21 172.42 C 151.08 169.32 155.73 167.31 159.40 163.95 C 155.95 163.28 152.45 162.80 148.94 162.58 C 145.08 162.38 141.47 164.13 137.66 164.38 C 137.97 163.74 138.61 162.46 138.93 161.82 C 143.84 159.23 150.04 159.10 154.08 154.94 C 150.46 153.22 146.53 152.38 142.72 151.23 C 137.40 149.11 131.45 152.46 126.23 149.72 C 124.27 148.98 122.55 146.86 123.62 144.74 C 125.88 141.16 130.47 140.60 133.89 138.61 C 129.01 136.49 123.52 137.25 118.51 135.61 C 114.13 134.37 108.57 133.61 106.47 128.95 C 106.85 122.42 114.74 121.26 119.75 120.01 C 112.22 115.90 102.97 120.66 95.54 116.42 C 96.45 111.90 101.00 110.02 104.20 107.38 C 98.26 106.27 92.03 108.56 86.19 106.90 C 84.54 104.75 87.36 103.64 88.93 102.79 C 93.19 100.87 98.00 101.00 102.54 100.18 C 96.71 96.70 90.08 94.79 83.40 93.80 C 80.17 93.17 76.26 93.35 74.11 90.37 C 80.92 83.39 91.93 84.05 99.41 78.00 C 97.30 76.83 95.07 75.92 92.71 75.42 C 84.62 73.50 76.34 72.03 67.99 72.20 C 65.40 72.20 62.85 71.66 60.35 71.06 C 63.09 67.46 67.92 67.08 71.97 65.99 C 79.16 64.14 86.84 63.50 93.38 59.71 C 91.37 58.04 88.80 57.45 86.33 56.89 C 76.40 54.78 66.21 53.03 56.04 54.15 C 53.23 54.39 50.36 55.39 47.59 54.41 C 50.38 51.92 53.86 50.44 57.41 49.40 C 69.76 45.75 82.67 44.13 94.83 39.77 C 99.13 38.11 103.89 36.39 106.56 32.37 C 108.79 29.22 106.11 25.44 103.67 23.33 C 95.16 16.18 84.43 10.73 73.06 11.21 C 67.32 11.56 61.21 14.00 58.07 19.04 C 55.83 22.96 57.50 27.66 59.92 31.06 C 61.50 33.80 64.52 35.35 65.84 38.27 C 60.32 36.90 56.94 31.76 55.16 26.71 C 54.06 23.97 54.73 20.77 56.49 18.46 M 92.74 104.72 C 97.44 105.09 102.27 105.33 106.90 104.23 C 102.47 102.27 96.94 102.11 92.74 104.72 Z" />
<path fill="#ffffff" opacity="1.00" d=" M 82.51 156.51 C 89.16 152.13 98.12 153.36 104.68 157.29 C 107.47 159.01 108.60 162.22 109.91 165.05 C 118.40 163.43 127.34 165.32 135.07 168.97 C 141.69 171.75 142.00 181.53 137.13 186.11 C 132.36 190.66 124.98 190.59 118.94 189.16 C 116.18 188.41 112.23 187.56 111.99 184.05 C 112.40 181.66 113.91 179.66 114.93 177.51 C 112.91 177.19 110.89 176.95 108.88 176.68 C 107.98 177.59 107.10 178.50 106.19 179.41 C 105.14 178.27 104.26 176.94 102.98 176.03 C 97.50 174.66 91.74 175.05 86.23 173.77 C 84.75 173.77 84.21 172.40 83.56 171.33 C 90.16 170.82 96.61 172.96 103.14 173.62 C 104.18 170.95 105.72 168.53 106.92 165.94 C 106.33 162.55 103.86 159.63 100.76 158.20 C 96.00 155.97 90.24 155.20 85.33 157.38 C 81.41 159.57 79.54 164.55 80.29 168.87 C 81.46 175.71 85.63 181.73 91.06 185.94 C 98.67 192.05 107.80 195.89 117.00 198.92 C 120.54 200.20 124.33 200.20 128.05 200.36 C 126.63 203.13 123.86 204.60 121.46 206.37 C 125.72 208.21 130.60 208.27 134.49 211.01 C 133.18 216.49 127.19 217.44 123.33 220.47 C 128.03 222.83 133.42 223.34 138.07 225.84 C 142.65 228.26 146.90 231.40 151.95 232.82 C 153.58 229.69 155.33 226.30 158.69 224.73 C 165.51 221.32 173.52 220.37 180.99 221.85 C 183.40 222.31 186.70 223.95 186.07 226.91 C 185.15 230.51 182.12 233.38 178.78 234.86 C 173.26 236.90 167.43 238.20 161.53 238.44 C 161.14 239.72 160.75 241.01 160.36 242.30 C 157.54 241.66 154.65 238.37 151.99 240.93 C 151.20 240.38 150.39 239.87 149.55 239.42 C 144.56 238.96 139.47 238.97 134.60 237.66 C 133.01 237.43 132.11 236.05 131.08 235.01 C 133.59 231.80 137.80 231.75 141.45 231.03 C 137.13 227.50 131.62 225.97 126.28 224.74 C 123.87 224.08 121.25 223.70 119.24 222.10 C 120.46 216.55 127.31 215.91 130.98 212.47 C 123.44 209.34 115.18 208.91 107.17 208.20 C 107.56 207.60 108.32 206.39 108.70 205.78 C 113.19 204.18 117.99 203.63 122.49 202.07 C 112.31 199.51 102.04 196.52 93.07 190.90 C 86.23 186.46 79.98 180.06 78.40 171.77 C 77.05 166.52 78.06 160.03 82.51 156.51 M 109.08 174.34 C 112.66 175.44 116.42 175.46 120.11 175.78 C 117.83 178.48 115.07 180.85 113.68 184.19 C 119.19 188.25 126.68 188.99 133.13 187.07 C 139.33 184.90 139.99 174.92 134.25 171.76 C 127.86 168.20 120.31 167.03 113.06 167.14 C 109.29 167.08 109.36 171.65 109.08 174.34 M 167.41 224.67 C 163.39 225.75 158.82 226.88 156.35 230.55 C 154.76 232.37 156.16 236.00 158.72 235.72 C 165.78 235.34 173.22 234.94 179.60 231.61 C 181.44 230.64 184.39 227.96 181.95 226.06 C 177.70 223.36 172.17 223.92 167.41 224.67 M 140.08 234.63 C 142.38 235.80 144.99 235.92 147.51 235.61 C 145.35 233.91 142.63 233.94 140.08 234.63 Z" />
<path fill="#ffffff" opacity="1.00" d=" M 205.92 197.51 C 211.10 193.36 217.59 191.33 223.03 187.55 C 223.57 187.88 224.65 188.54 225.19 188.87 C 219.58 193.25 212.72 195.70 205.92 197.51 Z" />
<path fill="#ffffff" opacity="1.00" d=" M 184.20 210.31 C 185.36 209.30 186.50 207.93 188.22 208.24 C 196.97 208.22 205.15 211.74 213.66 213.22 C 216.07 213.76 218.87 213.54 220.65 215.57 C 216.25 217.12 211.71 218.32 207.66 220.71 C 211.48 224.53 216.02 227.78 219.02 232.34 C 212.18 229.97 207.28 224.17 200.77 221.15 C 198.96 220.59 198.27 218.89 197.69 217.26 C 199.88 216.96 202.06 217.32 204.22 217.67 C 206.86 218.16 209.27 216.71 211.51 215.53 C 202.65 212.81 193.61 209.66 184.20 210.31 Z" />
</g>
</svg>
