<?xml version="1.0" encoding="UTF-8" ?>
<!DOCTYPE svg PUBLIC "-//W3C//DTD SVG 1.1//EN" "http://www.w3.org/Graphics/SVG/1.1/DTD/svg11.dtd">
<svg width="512pt" height="128pt" viewBox="0 0 512 128" version="1.1" xmlns="http://www.w3.org/2000/svg">
<g id="#ffffffff">
<path fill="#ffffff" opacity="1.00" d=" M 155.83 39.85 C 161.90 26.83 175.18 18.29 189.00 15.61 C 194.30 16.06 198.54 20.87 199.34 25.99 C 199.77 29.86 198.92 33.81 197.38 37.35 C 195.09 42.67 189.45 45.17 184.61 47.64 C 181.15 49.38 176.84 47.86 175.61 44.13 C 170.84 49.94 165.66 55.50 161.72 61.92 C 167.79 63.66 173.99 61.06 179.41 58.47 C 185.46 55.49 191.84 52.47 195.98 46.93 C 197.03 44.81 199.27 45.81 200.99 46.29 C 206.40 46.05 211.98 44.31 217.33 45.88 C 216.30 50.20 214.23 54.17 212.95 58.41 C 217.39 56.26 220.65 52.39 224.75 49.72 C 225.96 48.60 227.59 48.43 229.17 48.50 C 229.13 50.17 229.09 51.84 229.05 53.51 C 233.25 50.47 237.89 47.90 242.95 46.62 C 244.68 47.16 246.00 49.11 245.28 50.91 C 244.09 54.48 243.18 58.14 242.75 61.89 C 241.99 61.93 240.49 62.00 239.73 62.03 C 239.12 57.82 241.80 54.17 242.20 50.08 C 233.81 51.49 228.52 58.58 222.83 64.16 C 222.32 64.17 221.29 64.19 220.78 64.20 C 219.54 60.19 223.42 57.10 224.31 53.41 C 219.53 56.34 215.82 60.77 210.97 63.65 C 210.48 63.50 209.51 63.20 209.02 63.05 C 209.07 57.67 212.51 53.18 213.93 48.13 C 209.41 47.79 204.81 48.21 200.57 49.84 C 200.61 52.62 201.14 55.79 199.10 58.05 C 197.13 60.16 194.75 63.21 191.49 62.48 C 188.53 61.16 190.84 57.30 190.82 54.90 C 183.35 59.60 175.54 64.16 166.81 65.98 C 163.88 66.85 161.09 65.21 158.21 64.99 C 150.08 72.50 142.45 80.56 134.71 88.46 C 134.53 87.28 133.90 85.94 135.02 85.03 C 141.59 77.24 149.48 70.70 156.45 63.30 C 151.52 56.41 152.51 47.20 155.83 39.85 M 159.10 40.07 C 155.89 46.22 154.37 54.43 159.01 60.29 C 162.04 57.84 164.06 54.46 166.65 51.61 C 170.62 47.19 174.68 42.70 177.21 37.26 C 177.68 35.90 178.70 35.05 180.18 35.00 C 180.11 38.32 176.24 43.16 180.08 45.40 C 189.38 45.22 197.91 36.44 197.32 27.01 C 196.69 21.89 191.40 17.40 186.18 19.04 C 175.03 22.37 164.36 29.41 159.10 40.07 M 192.59 59.44 C 196.28 58.33 199.57 54.69 197.57 50.72 C 195.18 53.11 193.42 56.16 192.59 59.44 Z" />
<path fill="#ffffff" opacity="1.00" d=" M 345.00 32.99 C 347.89 29.72 351.51 25.27 356.43 26.33 C 356.55 28.22 356.97 30.24 356.06 32.01 C 352.41 39.87 345.89 46.00 338.97 51.01 C 336.12 53.30 338.67 58.14 342.07 57.92 C 348.31 58.21 354.14 55.20 359.67 52.67 C 363.78 50.94 366.49 47.02 370.64 45.46 C 369.94 50.18 365.65 52.70 362.05 55.10 C 355.39 59.02 347.62 63.06 339.68 61.43 C 336.43 60.99 335.23 57.77 333.89 55.26 C 328.43 57.54 323.17 61.28 317.05 61.15 C 313.97 61.25 313.16 57.96 311.08 56.53 C 307.05 58.41 303.50 61.47 299.03 62.27 C 296.25 62.32 294.97 59.57 293.59 57.65 C 290.72 59.53 288.04 61.80 284.79 63.01 C 283.52 63.53 281.87 63.20 281.16 61.94 C 282.01 55.71 287.25 51.56 291.32 47.29 C 294.23 45.14 298.27 43.11 301.90 44.18 C 302.09 44.66 302.46 45.63 302.65 46.11 C 299.57 48.29 295.28 47.73 292.41 50.32 C 289.74 52.74 286.95 55.30 285.56 58.70 C 289.74 57.25 293.31 54.46 295.97 50.95 C 296.93 49.43 298.69 48.98 299.56 50.87 C 298.67 53.26 297.19 55.54 297.89 58.20 C 302.60 57.56 306.90 55.28 310.96 52.92 C 313.88 51.19 314.24 47.48 315.78 44.74 C 319.18 38.16 323.94 31.57 331.03 28.69 C 333.08 28.63 334.34 31.25 333.19 32.90 C 331.82 38.58 327.40 42.50 323.72 46.72 C 321.40 49.11 318.45 50.85 316.40 53.50 C 315.18 54.89 316.16 57.90 318.22 57.68 C 323.99 57.25 329.64 54.76 334.11 51.14 C 337.02 44.70 340.17 38.27 345.00 32.99 M 346.46 36.43 C 344.30 39.77 341.65 42.80 340.00 46.44 C 346.06 42.92 351.04 37.15 353.19 30.44 C 350.28 31.56 348.11 33.86 346.46 36.43 M 318.93 46.33 C 323.55 43.32 327.35 38.98 329.51 33.90 C 324.64 36.61 320.67 40.99 318.93 46.33 Z" />
<path fill="#ffffff" opacity="1.00" d=" M 255.96 46.98 C 256.62 45.77 257.97 45.38 259.15 44.87 C 259.61 49.70 254.35 52.69 253.71 57.38 C 257.62 56.50 258.84 50.28 263.27 51.77 C 262.99 54.50 259.67 59.57 264.06 60.40 C 268.33 59.49 271.94 56.05 273.16 51.88 C 273.58 49.60 273.51 47.19 274.68 45.09 C 276.33 46.03 277.97 46.99 279.62 47.94 C 276.23 49.24 276.68 53.30 274.89 55.93 C 272.28 60.07 268.03 63.56 263.09 64.29 C 260.50 63.94 259.19 61.37 257.80 59.48 C 255.45 60.78 251.63 64.33 249.56 61.01 C 249.98 55.79 253.01 51.16 255.96 46.98 Z" />
<path fill="#ffffff" opacity="1.00" d=" M 125.66 77.66 C 129.49 74.92 132.51 70.75 137.39 69.82 C 137.82 73.09 133.66 72.97 132.01 74.98 C 122.87 83.74 111.58 89.75 100.13 94.93 C 103.34 98.60 108.38 99.12 112.82 97.72 C 117.50 97.34 117.86 91.50 121.49 89.34 C 124.65 86.69 128.22 92.99 125.11 95.12 C 122.42 97.95 115.30 97.80 116.76 103.20 C 124.21 102.02 128.94 95.00 134.77 90.77 C 136.98 89.07 139.75 90.62 142.03 91.31 C 140.72 95.93 137.26 99.70 136.79 104.61 C 141.57 103.32 146.03 100.99 149.92 97.94 C 153.63 95.36 157.44 92.70 159.94 88.85 C 161.31 86.69 164.47 88.06 164.73 90.33 C 166.38 96.69 161.69 104.74 154.93 105.54 C 154.45 102.41 155.18 99.33 155.61 96.25 C 152.74 98.14 150.32 100.60 147.46 102.50 C 143.80 105.11 139.61 106.77 135.59 108.74 C 132.48 103.41 137.36 97.86 138.68 92.67 C 134.40 92.61 131.94 96.50 128.88 98.84 C 124.70 102.12 120.46 107.69 114.49 106.17 C 114.37 104.04 114.40 101.91 114.48 99.78 C 111.10 100.66 107.61 102.15 104.05 101.35 C 101.81 100.67 99.94 99.21 97.98 97.98 C 96.11 101.69 96.13 106.92 92.27 109.24 C 92.82 104.58 95.43 100.52 96.43 95.98 C 93.48 95.74 90.28 96.09 87.79 94.15 C 90.44 91.10 94.36 91.06 97.91 92.30 C 99.61 88.40 101.11 84.38 101.60 80.13 C 96.87 79.96 91.41 79.14 88.46 75.00 C 88.85 73.86 89.42 72.82 90.15 71.87 C 96.05 70.68 101.83 73.15 107.62 73.99 C 104.69 79.48 102.17 85.15 100.77 91.24 C 109.77 88.18 118.08 83.34 125.66 77.66 M 91.62 74.27 C 94.69 77.51 99.94 77.46 104.15 77.74 C 103.97 77.39 103.62 76.69 103.44 76.34 C 99.70 74.89 95.62 74.36 91.62 74.27 M 118.95 95.69 C 121.17 95.03 123.89 94.38 124.28 91.65 C 121.60 91.34 120.12 93.71 118.95 95.69 M 157.03 101.58 C 160.84 99.70 163.53 95.27 162.28 91.00 C 159.63 94.00 157.89 97.69 157.03 101.58 Z" />
<path fill="#ffffff" opacity="1.00" d=" M 324.41 71.50 C 328.54 70.28 332.79 71.46 336.95 71.84 C 349.85 72.93 363.03 75.60 375.82 72.22 C 375.82 72.85 375.81 74.13 375.80 74.76 C 367.84 78.41 358.72 77.76 350.21 77.13 C 346.87 86.41 342.05 95.01 337.88 103.92 C 337.17 105.39 336.09 106.62 335.05 107.86 C 332.01 105.17 329.74 101.52 325.73 100.14 C 326.19 99.53 327.11 98.33 327.57 97.72 C 330.82 98.95 333.03 101.70 335.43 104.07 C 340.22 95.24 344.98 86.32 348.41 76.85 C 341.96 75.81 335.44 75.39 328.96 74.58 C 326.55 74.33 322.91 74.25 322.25 77.26 C 321.43 79.02 322.66 81.12 324.44 81.65 C 328.97 83.66 333.81 81.53 338.49 81.62 C 337.58 85.16 333.65 85.00 330.74 85.53 C 327.13 86.12 323.06 85.23 320.52 82.48 C 318.94 78.55 321.10 73.81 324.41 71.50 Z" />
<path fill="#ffffff" opacity="1.00" d=" M 293.71 73.66 C 295.14 72.35 297.53 73.10 298.24 74.81 C 299.76 77.12 297.95 79.70 296.83 81.75 C 295.29 84.62 292.73 86.70 290.68 89.17 C 290.40 91.86 292.01 94.32 293.29 96.57 C 294.95 94.64 294.57 92.07 294.67 89.73 C 301.94 91.25 309.04 88.13 316.31 88.57 C 315.79 88.95 314.74 89.70 314.21 90.07 C 308.44 91.67 302.53 93.02 296.51 93.12 C 296.08 95.02 295.50 96.88 294.91 98.74 C 296.67 101.04 299.63 103.04 299.31 106.29 C 296.81 104.50 295.22 101.81 292.96 99.79 C 289.48 101.06 286.17 104.42 282.21 103.09 C 279.55 102.54 279.42 99.29 280.06 97.18 C 281.32 92.82 285.20 90.06 288.84 87.74 C 288.89 82.77 289.18 76.76 293.71 73.66 M 290.36 86.23 C 293.38 83.93 295.92 80.78 296.97 77.09 C 296.43 76.26 295.79 75.54 295.03 74.91 C 291.18 77.26 290.43 82.10 290.36 86.23 M 281.64 100.26 C 285.22 101.56 288.72 99.73 291.79 98.03 C 290.66 95.44 289.71 92.79 288.71 90.15 C 285.10 92.36 281.20 95.52 281.64 100.26 Z" />
<path fill="#ffffff" opacity="1.00" d=" M 247.03 85.99 C 248.23 84.87 249.92 85.50 251.36 85.51 C 251.80 88.08 252.13 90.79 251.24 93.30 C 249.36 95.35 246.54 96.11 244.12 97.34 C 244.13 97.96 244.17 99.21 244.18 99.83 C 250.40 100.95 256.47 98.46 262.22 96.41 C 266.07 94.82 270.18 93.11 272.32 89.27 C 275.19 92.34 271.23 95.10 268.88 96.87 C 261.99 100.92 254.00 103.63 245.97 103.56 C 243.01 103.93 241.49 101.21 240.05 99.16 C 236.21 100.42 232.43 102.45 228.25 101.88 C 228.17 98.83 229.16 95.93 229.89 93.02 C 226.97 94.21 224.05 95.55 221.68 97.67 C 219.58 99.36 217.90 101.79 215.09 102.31 C 215.30 100.35 215.85 98.45 216.38 96.56 C 211.30 98.97 206.81 102.96 200.96 103.37 C 198.31 103.97 197.31 100.96 196.15 99.25 C 192.87 99.90 189.54 100.33 186.26 100.94 C 183.96 102.13 181.96 104.38 179.17 104.18 C 177.13 102.34 176.28 98.00 178.98 96.44 C 181.01 96.53 182.97 97.12 184.98 97.36 C 187.24 96.57 187.98 93.85 189.09 91.94 C 183.02 93.14 177.14 95.17 171.49 97.68 C 170.10 98.32 168.58 98.57 167.07 98.76 C 167.42 97.61 167.70 96.29 169.11 96.09 C 175.90 93.56 182.60 90.71 189.59 88.77 C 190.81 88.70 192.66 87.62 193.47 89.01 C 192.59 92.04 190.48 94.56 189.24 97.47 C 191.81 97.20 194.38 96.76 196.87 96.06 C 199.88 93.41 201.64 88.89 206.02 88.09 C 208.18 86.96 210.21 89.94 208.97 91.73 C 207.00 95.89 201.63 95.74 198.85 99.08 C 200.33 99.75 201.97 100.00 203.52 99.39 C 207.49 97.97 211.54 96.53 215.03 94.10 C 217.55 92.35 219.00 88.87 222.43 88.69 C 222.18 90.53 221.75 92.34 221.31 94.14 C 225.04 92.48 229.67 88.38 233.59 91.71 C 232.62 94.08 231.49 96.40 230.88 98.90 C 234.28 98.40 237.68 97.37 240.74 95.84 C 242.43 92.35 243.89 88.48 247.03 85.99 M 244.29 94.38 C 247.13 93.90 249.89 91.59 249.38 88.45 C 246.96 89.67 245.06 91.75 244.29 94.38 Z" />
<path fill="#ffffff" opacity="1.00" d=" M 359.58 88.44 C 360.86 87.52 363.74 86.52 364.20 88.82 C 366.67 93.05 362.89 97.31 363.62 101.77 C 369.65 99.82 372.72 93.64 378.02 90.65 C 382.38 90.63 386.75 90.61 391.07 89.78 C 390.61 94.15 387.26 97.52 386.81 101.91 C 391.68 102.13 395.68 99.01 399.64 96.62 C 401.91 95.66 401.24 92.88 401.79 90.95 C 402.70 92.17 405.08 93.12 404.46 94.98 C 402.69 98.60 399.18 100.91 395.73 102.75 C 392.29 104.43 388.50 106.52 384.57 105.22 C 384.18 100.87 386.31 96.96 387.81 93.03 C 384.53 93.31 381.24 93.29 378.01 92.69 C 372.64 97.08 369.04 104.02 361.85 105.77 C 361.23 102.84 361.56 99.86 361.91 96.92 C 357.40 100.56 354.23 106.57 348.16 107.75 C 348.75 100.09 353.03 92.53 359.58 88.44 M 350.74 103.62 C 354.04 101.76 356.50 98.81 359.33 96.36 C 360.82 94.77 363.48 93.24 362.26 90.71 C 356.13 91.77 352.06 97.90 350.74 103.62 Z" />
</g>
</svg>
