<?xml version="1.0" encoding="UTF-8" ?>
<!DOCTYPE svg PUBLIC "-//W3C//DTD SVG 1.1//EN" "http://www.w3.org/Graphics/SVG/1.1/DTD/svg11.dtd">
<svg width="512pt" height="256pt" viewBox="0 0 512 256" version="1.1" xmlns="http://www.w3.org/2000/svg">
<g id="#ffffffff">
<path fill="#ffffff" opacity="1.00" d=" M 135.11 23.75 C 136.34 24.87 139.34 25.61 138.33 27.79 C 135.89 33.89 131.64 39.07 129.09 45.14 C 127.15 49.98 124.16 54.45 123.09 59.60 C 126.52 57.23 128.85 53.68 131.99 50.98 C 136.97 46.62 141.49 41.41 147.68 38.72 C 151.68 36.99 158.00 38.34 158.54 43.38 C 160.24 49.02 157.00 54.17 153.50 58.27 C 155.01 60.23 156.86 61.99 157.90 64.27 C 158.50 66.28 158.59 68.40 158.93 70.47 C 163.12 70.29 167.82 70.52 171.56 68.53 C 174.10 64.27 176.35 59.11 181.43 57.32 C 185.33 55.84 189.78 61.57 186.79 64.73 C 184.60 67.91 182.05 71.13 178.24 72.38 C 175.58 72.94 175.88 76.02 175.40 78.11 C 174.99 79.89 175.93 81.52 176.63 83.09 C 181.28 80.75 185.34 77.43 189.79 74.76 C 192.38 73.24 193.83 70.55 194.72 67.79 C 196.03 63.63 199.85 60.68 204.05 59.84 C 206.92 58.66 209.60 61.47 210.40 64.03 C 206.50 67.62 202.03 70.60 197.93 73.97 C 196.02 76.51 196.32 79.89 196.83 82.84 C 197.36 84.24 199.34 84.49 200.23 83.27 C 207.17 77.04 214.73 71.48 222.79 66.76 C 224.85 64.86 226.16 62.18 228.65 60.70 C 232.72 56.98 240.88 60.74 239.63 66.45 C 236.42 66.21 232.69 64.30 229.97 66.96 C 226.83 70.72 224.63 76.13 226.69 80.95 C 234.31 77.62 240.50 71.98 247.12 67.10 C 251.20 63.51 252.82 58.11 255.55 53.56 C 258.16 49.17 259.75 44.06 263.27 40.28 C 266.30 36.64 272.69 41.39 270.45 45.35 C 268.39 49.81 267.13 54.91 263.39 58.35 C 259.37 62.43 254.12 66.08 253.28 72.20 C 256.72 71.03 259.80 69.10 262.76 67.03 C 263.97 68.06 265.18 69.10 266.39 70.15 C 266.19 73.34 266.07 76.54 266.23 79.73 C 270.42 78.97 272.74 74.89 274.38 71.34 C 275.66 68.26 278.98 66.99 281.88 65.90 C 283.33 65.47 285.00 64.37 286.35 65.67 C 287.20 66.94 287.50 68.47 287.92 69.92 C 283.94 72.60 280.77 76.26 276.87 79.03 C 275.24 80.16 275.44 82.38 274.87 84.06 C 275.91 84.49 276.97 84.86 278.05 85.19 C 289.23 81.50 297.49 72.52 304.62 63.55 C 306.36 61.56 306.87 58.90 307.79 56.49 C 311.59 57.36 315.96 58.50 318.06 62.14 C 317.37 67.00 313.23 70.21 311.52 74.63 C 309.86 78.24 307.43 81.87 307.49 85.94 C 309.23 88.33 312.84 87.20 315.04 86.02 C 318.37 84.48 319.33 80.76 321.06 77.87 C 324.85 77.89 325.30 82.96 323.64 85.55 C 321.21 91.24 314.11 91.09 308.99 92.39 C 304.33 91.22 301.28 86.03 302.22 81.37 C 302.38 76.79 306.32 73.55 306.81 69.05 C 304.07 69.07 302.90 71.62 301.33 73.40 C 299.03 76.08 296.35 78.40 294.06 81.08 C 291.02 84.66 286.47 86.25 282.51 88.53 C 280.39 89.61 277.76 91.33 275.44 89.81 C 273.14 88.24 271.99 85.56 270.22 83.49 C 267.92 84.33 265.84 86.62 263.23 86.01 C 259.34 83.22 260.41 77.98 260.38 73.87 C 256.79 75.92 252.97 78.03 250.65 81.59 C 249.38 83.65 248.34 85.85 247.00 87.87 C 244.80 87.48 242.66 86.09 242.26 83.75 C 242.58 81.09 243.75 78.62 244.23 75.99 C 238.30 79.43 233.14 84.30 226.59 86.60 C 224.28 87.47 222.19 85.32 221.61 83.25 C 220.72 79.20 221.39 75.02 221.12 70.92 C 216.60 74.07 212.57 77.83 208.53 81.54 C 204.46 84.10 202.18 88.69 197.84 90.91 C 192.61 89.67 192.87 83.17 191.67 79.03 C 186.33 81.39 182.44 86.11 176.96 88.25 C 170.39 86.66 171.00 78.73 170.60 73.46 C 166.21 73.13 160.54 72.59 157.47 76.43 C 154.95 81.86 151.15 86.77 146.26 90.25 C 142.32 92.68 136.68 89.50 136.45 84.98 C 136.62 82.29 138.25 79.92 139.94 77.92 C 143.79 73.83 149.72 72.97 154.21 69.89 C 154.43 67.09 153.01 64.51 150.97 62.70 C 145.98 64.85 142.98 69.72 138.50 72.60 C 136.01 74.44 132.40 70.86 134.18 68.37 C 136.18 64.98 139.99 63.28 143.07 61.04 C 148.13 58.43 150.78 53.15 153.68 48.53 C 154.75 46.46 154.81 42.49 151.82 42.16 C 149.13 42.49 146.96 44.30 144.82 45.81 C 128.91 58.19 115.72 74.45 108.11 93.18 C 106.68 95.51 104.68 93.48 103.36 92.20 C 107.25 79.29 114.15 67.59 119.17 55.12 C 120.43 51.79 122.24 48.71 123.41 45.35 C 119.23 48.44 116.17 52.86 111.86 55.84 C 107.43 59.05 104.21 63.60 99.96 67.00 C 96.57 68.81 94.35 72.05 91.27 74.27 C 84.46 79.48 77.95 85.12 70.69 89.71 C 64.10 93.93 55.95 95.79 48.21 94.54 C 44.47 93.98 42.65 90.07 41.40 86.94 C 41.18 83.98 42.57 81.20 43.21 78.36 C 44.88 73.04 45.65 66.96 50.00 63.00 C 55.83 57.44 61.79 51.93 68.56 47.52 C 71.01 45.97 73.06 43.91 75.40 42.21 C 79.49 41.21 83.37 38.10 87.75 39.25 C 91.23 40.00 93.33 43.58 93.35 46.98 C 93.32 51.32 91.86 55.67 89.09 59.04 C 84.24 65.15 79.81 72.34 72.32 75.48 C 72.28 74.69 72.21 73.10 72.17 72.31 C 75.86 68.97 80.37 66.37 82.97 61.98 C 85.66 57.33 90.50 53.62 90.71 47.85 C 91.49 45.27 89.81 41.96 86.89 42.00 C 82.42 42.06 78.45 44.49 74.83 46.87 C 66.96 52.14 59.70 58.32 53.23 65.25 C 48.49 69.85 47.93 76.80 45.73 82.71 C 44.14 86.17 47.46 89.47 50.32 90.91 C 54.87 92.17 59.90 91.34 63.94 88.93 C 75.03 82.72 85.22 75.06 95.11 67.11 C 98.60 64.28 102.48 61.83 105.19 58.17 C 107.81 54.73 112.16 53.22 114.54 49.55 C 120.22 44.92 125.69 39.87 129.63 33.63 C 131.58 30.40 133.05 26.91 135.11 23.75 M 141.83 86.62 C 146.65 85.31 150.08 81.21 151.88 76.72 C 146.94 77.58 141.22 80.80 141.83 86.62 Z" />
<path fill="#ffffff" opacity="1.00" d=" M 354.37 36.42 C 356.23 35.30 357.05 37.71 357.61 39.05 C 357.33 41.51 355.86 43.60 354.74 45.74 C 351.84 50.63 348.68 55.46 344.53 59.38 C 345.18 50.82 349.90 43.45 354.37 36.42 Z" />
<path fill="#ffffff" opacity="1.00" d=" M 400.64 58.68 C 401.60 59.92 403.48 61.08 402.35 62.86 C 398.10 71.56 392.62 79.62 388.14 88.21 C 393.65 88.46 398.59 85.89 403.23 83.26 C 404.12 84.20 405.00 85.16 405.87 86.13 C 399.37 91.96 389.97 94.26 381.45 92.39 C 378.73 89.93 377.54 86.03 377.89 82.43 C 380.04 83.39 381.82 84.96 383.72 86.33 C 387.26 81.57 390.87 76.71 392.83 71.05 C 382.91 75.11 373.72 80.83 363.71 84.73 C 359.56 86.23 355.60 88.41 352.37 91.45 C 350.92 92.68 348.27 92.02 347.85 90.05 C 352.93 83.06 362.34 82.52 369.40 78.51 C 378.27 73.68 387.80 69.97 396.05 64.05 C 398.09 62.75 399.23 60.56 400.64 58.68 Z" />
<path fill="#ffffff" opacity="1.00" d=" M 236.84 107.93 C 239.33 107.36 241.03 105.37 242.83 103.72 C 243.97 104.83 245.10 105.94 246.23 107.07 C 240.32 114.94 239.03 124.97 234.47 133.55 C 231.72 138.27 230.75 143.65 229.48 148.90 C 235.67 149.58 241.91 149.00 248.12 149.50 C 253.42 149.94 258.73 149.32 263.90 148.16 C 266.00 145.97 266.87 142.86 268.15 140.15 C 272.32 129.22 276.72 118.29 278.91 106.75 C 282.39 107.46 286.76 109.71 286.30 113.91 C 285.13 117.64 283.52 121.24 281.34 124.49 C 280.53 129.33 278.14 133.93 278.74 138.96 C 278.66 141.77 279.83 144.81 278.50 147.45 C 276.19 150.57 271.70 150.50 268.98 153.03 C 266.49 156.61 265.92 161.11 264.22 165.07 C 262.22 169.79 261.02 174.81 258.80 179.43 C 256.49 178.36 253.70 176.13 255.00 173.24 C 257.64 167.29 259.71 161.12 261.71 154.92 C 260.72 152.70 257.96 153.72 256.07 153.36 C 248.05 152.47 240.02 153.47 232.00 153.71 C 230.13 153.98 227.48 153.63 226.48 155.63 C 222.51 165.82 220.17 176.56 216.19 186.75 C 214.60 185.76 212.24 185.01 212.09 182.81 C 211.79 181.49 212.79 180.35 213.22 179.18 C 215.10 175.43 216.15 171.35 217.58 167.42 C 219.14 162.75 221.24 158.27 222.41 153.48 C 215.62 153.37 208.81 154.02 202.01 153.89 C 195.37 155.47 188.46 153.32 181.90 155.38 C 174.71 154.78 168.03 158.04 160.96 158.59 C 156.20 158.92 151.70 160.64 147.00 161.32 C 143.59 161.53 141.07 164.18 137.81 164.94 C 133.19 165.97 129.27 168.83 125.61 171.70 C 122.90 175.75 126.49 179.96 128.23 183.56 C 124.17 181.69 120.63 177.76 121.04 173.03 C 121.00 169.27 124.76 167.39 127.25 165.26 C 130.89 162.25 135.48 161.04 139.93 159.82 C 147.28 155.81 155.81 155.32 163.85 153.61 C 170.32 152.99 176.40 150.00 182.98 150.46 C 189.34 150.75 195.62 149.49 201.95 149.12 C 208.85 148.60 215.78 149.21 222.67 148.64 C 222.92 148.37 223.42 147.84 223.66 147.58 C 227.61 139.85 230.10 131.49 233.59 123.56 C 235.16 119.83 236.50 116.01 237.42 112.07 C 235.26 112.21 233.10 112.43 230.97 112.82 C 223.70 114.30 216.32 112.76 208.99 112.96 C 200.59 113.27 192.10 112.94 183.81 114.64 C 177.67 115.41 171.30 117.31 166.88 121.87 C 164.08 125.38 166.31 130.15 168.98 133.02 C 173.57 138.60 181.32 139.38 188.01 140.18 C 193.06 140.99 197.45 138.02 202.07 136.59 C 203.98 136.50 204.96 139.25 202.98 139.99 C 192.52 146.58 178.33 144.41 168.69 137.31 C 163.84 132.75 161.23 124.69 164.66 118.63 C 173.11 113.30 183.08 110.38 193.09 110.33 C 203.71 109.30 214.39 109.69 225.00 110.67 C 229.19 111.21 232.94 109.03 236.84 107.93 Z" />
<path fill="#ffffff" opacity="1.00" d=" M 318.84 141.85 C 325.67 136.48 325.30 126.80 329.86 120.09 C 331.69 121.10 333.88 122.63 333.65 125.01 C 333.19 130.21 331.19 135.14 328.61 139.63 C 325.60 144.95 324.22 150.97 321.45 156.39 C 319.76 160.10 317.56 163.63 316.66 167.64 C 322.30 163.74 325.45 157.05 331.14 153.20 C 337.64 154.31 339.70 162.14 340.44 167.75 C 343.92 166.60 347.94 166.15 350.79 163.71 C 352.52 160.14 353.24 156.04 355.92 152.95 C 357.70 150.02 360.97 148.79 364.12 147.95 C 365.28 150.21 366.45 152.88 365.33 155.40 C 363.87 158.51 362.04 161.45 361.04 164.77 C 358.98 165.68 355.98 165.87 355.24 168.39 C 354.11 170.45 355.60 173.94 358.22 173.59 C 361.10 173.57 363.95 172.79 366.51 171.49 C 374.23 167.29 382.47 163.76 389.08 157.82 C 390.29 159.12 391.63 160.59 390.52 162.42 C 389.69 166.58 385.01 167.10 381.89 168.83 C 377.82 170.57 374.84 174.20 370.57 175.52 C 367.26 176.65 363.98 177.82 360.75 179.13 C 357.07 180.66 352.98 177.56 351.93 174.04 C 351.16 172.55 350.96 170.30 349.02 169.88 C 347.03 170.32 345.09 170.91 343.10 171.27 C 337.44 172.58 332.84 176.38 327.58 178.61 C 324.12 180.27 319.56 177.73 316.57 180.60 C 312.34 186.99 309.21 194.02 306.20 201.04 C 304.71 204.29 305.25 208.03 303.88 211.30 C 301.62 211.93 298.91 210.30 298.58 207.94 C 298.15 204.49 299.10 201.08 299.99 197.77 C 303.10 187.05 306.06 176.19 311.23 166.23 C 313.49 159.95 316.58 153.95 318.30 147.49 C 311.54 151.09 304.73 154.92 297.12 156.37 C 297.84 160.66 298.26 165.25 296.28 169.29 C 294.61 172.82 292.38 177.02 288.02 177.46 C 285.58 176.76 284.32 174.22 283.96 171.89 C 283.68 164.43 289.90 158.22 289.26 150.78 C 293.05 151.52 294.69 147.85 297.07 145.70 C 298.69 147.02 299.75 148.79 300.48 150.73 C 306.64 147.88 313.11 145.52 318.84 141.85 M 324.73 166.93 C 327.33 168.25 330.70 169.49 333.24 167.35 C 335.92 164.75 335.05 160.39 332.19 158.32 C 329.26 160.77 326.53 163.53 324.73 166.93 M 289.73 169.31 C 291.92 166.99 293.11 163.94 293.29 160.78 C 291.14 163.10 289.65 166.09 289.73 169.31 Z" />
</g>
</svg>
