<?xml version="1.0" encoding="UTF-8" ?>
<!DOCTYPE svg PUBLIC "-//W3C//DTD SVG 1.1//EN" "http://www.w3.org/Graphics/SVG/1.1/DTD/svg11.dtd">
<svg width="256pt" height="256pt" viewBox="0 0 256 256" version="1.1" xmlns="http://www.w3.org/2000/svg">
<g id="#ffffffff">
<path fill="#ffffff" opacity="1.00" d=" M 172.67 33.60 C 173.82 32.35 174.71 29.84 176.84 30.43 C 182.06 31.83 187.95 34.28 190.42 39.42 C 191.38 45.92 190.37 53.05 186.59 58.57 C 183.82 62.61 177.28 62.34 174.40 58.56 C 171.56 55.61 170.46 51.47 167.70 48.50 C 167.44 55.14 171.19 61.33 170.27 67.98 C 170.06 70.73 170.56 74.34 167.60 75.84 C 164.93 77.76 162.14 75.21 159.74 74.09 C 159.41 75.87 159.31 77.73 158.49 79.37 C 157.29 81.31 154.39 81.90 152.58 80.46 C 149.30 78.14 147.83 74.19 144.99 71.44 C 142.62 77.57 143.68 84.66 146.73 90.38 C 148.57 92.41 145.47 95.62 143.40 93.80 C 140.44 91.28 138.77 87.70 136.76 84.46 C 135.78 86.20 136.72 87.98 137.41 89.62 C 139.30 93.94 139.20 98.74 139.78 103.33 C 140.10 106.68 140.09 110.35 138.41 113.37 C 136.98 115.92 133.43 116.39 131.07 114.90 C 127.63 113.33 125.48 110.13 122.71 107.72 C 121.66 114.51 123.09 121.27 123.60 128.02 C 124.16 130.40 121.21 132.36 119.18 131.17 C 115.44 128.90 112.88 125.14 109.11 122.90 C 110.90 129.56 112.10 136.59 110.45 143.42 C 109.90 145.18 108.07 146.79 106.14 146.19 C 103.39 145.23 101.46 142.86 98.97 141.43 C 99.24 145.63 99.78 149.81 100.13 154.00 C 100.50 156.41 97.10 159.04 95.29 156.78 C 89.85 151.29 86.50 144.08 80.90 138.72 C 79.48 143.28 80.69 148.13 81.25 152.74 C 83.37 156.59 85.95 160.24 87.50 164.39 C 88.74 167.81 88.26 171.65 86.83 174.94 C 86.06 176.50 83.39 177.47 82.34 175.66 C 78.56 169.77 79.34 162.38 76.79 156.07 C 74.57 156.00 71.68 156.10 70.62 158.46 C 69.77 161.44 69.81 164.56 69.50 167.62 C 69.29 169.25 67.26 169.49 66.12 170.26 C 64.57 167.79 64.17 164.85 64.82 162.03 C 66.30 155.16 64.13 148.10 60.92 142.05 C 59.98 140.58 57.78 138.37 56.07 140.06 C 53.99 141.75 53.82 144.66 53.32 147.11 C 52.08 153.68 51.84 160.56 53.76 167.03 C 54.78 169.99 54.21 173.36 55.87 176.10 C 57.57 179.12 59.23 182.18 60.66 185.34 C 62.42 189.34 65.47 192.72 66.66 196.98 C 66.72 198.51 65.52 199.65 64.02 199.70 C 62.54 198.48 61.95 196.57 61.05 194.94 C 56.02 185.16 50.54 175.62 44.66 166.32 C 41.25 161.01 38.51 155.22 34.43 150.36 C 37.59 166.25 41.77 181.95 44.25 197.98 C 44.80 202.29 45.64 206.65 44.96 211.01 C 44.13 218.55 45.24 227.04 40.57 233.56 C 37.88 237.55 32.40 239.11 28.04 237.01 C 23.07 234.53 19.36 229.95 17.00 224.99 C 11.56 214.18 10.03 201.45 12.84 189.68 C 13.79 186.76 15.41 183.62 18.51 182.56 C 22.00 181.43 25.72 183.40 27.92 186.08 C 32.01 191.27 33.18 197.91 34.80 204.12 C 34.73 204.76 34.59 206.04 34.52 206.68 C 33.90 206.80 32.67 207.03 32.05 207.14 C 32.46 205.10 33.09 202.97 32.22 200.95 C 30.41 194.91 28.77 187.32 22.32 184.62 C 19.63 183.27 17.20 185.81 16.13 188.05 C 12.82 194.22 14.12 201.38 14.49 208.03 C 14.98 215.82 19.04 222.68 22.67 229.37 C 24.33 232.15 27.48 233.51 30.26 234.90 C 33.66 236.41 37.22 233.77 39.10 231.07 C 42.31 227.13 41.55 221.74 41.76 217.02 C 41.50 194.29 36.13 172.07 31.82 149.87 C 31.44 147.35 31.36 144.81 31.15 142.28 C 31.82 142.24 33.16 142.16 33.82 142.11 C 36.80 147.10 40.61 151.53 43.35 156.68 C 45.71 160.01 47.51 163.78 50.28 166.78 C 49.85 158.13 48.71 149.09 51.84 140.77 C 52.92 137.87 56.08 135.19 59.28 136.69 C 66.04 138.97 67.73 146.81 68.59 153.03 C 71.35 152.87 74.08 152.45 76.81 152.06 C 77.41 145.90 76.92 139.67 77.66 133.53 C 78.71 131.82 80.96 132.84 82.14 133.84 C 87.90 138.28 89.98 145.93 95.79 150.33 C 95.03 142.42 93.23 134.64 92.71 126.71 C 95.13 126.15 97.44 127.59 98.02 129.98 C 99.56 134.67 102.50 138.72 106.21 141.93 C 107.87 138.67 106.86 134.99 106.22 131.62 C 104.61 124.58 104.17 117.24 101.52 110.47 C 101.40 109.00 99.54 108.35 98.65 109.55 C 93.99 114.90 88.70 119.67 83.38 124.36 C 82.17 125.56 80.50 125.92 78.88 126.14 C 79.15 124.79 79.18 123.27 80.31 122.30 C 85.85 116.50 92.66 111.86 97.32 105.23 C 98.24 103.96 97.14 102.48 96.70 101.25 C 94.94 97.70 93.71 93.64 94.89 89.70 C 99.90 89.40 100.75 95.49 102.81 98.85 C 106.68 93.90 109.58 88.29 113.19 83.19 C 114.65 81.22 116.46 83.00 117.86 84.01 C 116.27 85.71 114.52 87.31 113.43 89.41 C 110.72 94.47 106.89 98.83 104.35 103.99 C 106.45 108.94 107.60 114.53 111.55 118.47 C 114.04 120.86 116.46 123.38 119.23 125.45 C 119.50 119.22 118.86 112.98 119.51 106.76 C 120.07 101.77 119.33 96.64 120.57 91.74 C 121.33 89.05 124.59 88.40 126.81 89.72 C 125.24 93.15 123.52 97.04 124.98 100.82 C 126.79 104.89 128.54 109.79 132.99 111.63 C 136.32 110.74 135.33 106.60 135.53 104.01 C 134.90 94.42 132.08 85.14 130.01 75.79 C 128.87 70.16 125.98 65.13 124.03 59.78 C 123.29 58.30 123.76 56.69 124.04 55.17 C 125.93 54.91 128.03 55.29 128.56 57.42 C 131.56 65.63 135.20 73.64 140.12 80.90 C 141.59 75.70 140.61 69.92 143.31 65.03 C 150.22 65.46 149.67 74.87 155.43 77.13 C 156.15 73.26 156.88 69.20 155.75 65.33 C 155.16 62.40 153.79 59.44 154.34 56.42 C 154.82 54.08 157.61 55.21 157.99 56.99 C 159.54 61.65 160.03 66.82 163.15 70.83 C 163.47 72.25 165.97 72.51 166.04 70.86 C 167.51 62.50 164.25 54.29 163.47 46.04 C 164.20 43.14 168.42 40.72 170.94 43.05 C 174.44 47.71 175.09 54.80 181.04 57.27 C 183.51 56.79 184.36 54.22 185.06 52.14 C 186.22 48.46 187.17 44.49 186.35 40.65 C 184.40 37.26 180.59 35.52 177.28 33.74 C 175.88 32.73 174.20 33.50 172.67 33.60 M 82.03 162.65 C 82.09 164.94 82.41 167.21 82.75 169.47 C 83.25 169.55 84.25 169.70 84.75 169.78 C 84.25 167.26 83.90 164.58 82.03 162.65 Z" />
<path fill="#ffffff" opacity="1.00" d=" M 231.45 75.99 C 231.68 73.20 235.32 73.68 236.57 75.45 C 241.14 81.51 244.90 89.13 243.35 96.93 C 242.02 102.29 240.49 108.34 235.48 111.49 C 229.59 115.33 222.13 112.37 216.62 109.24 C 214.09 113.61 216.84 118.15 218.55 122.22 C 219.58 124.60 216.47 126.31 214.47 125.48 C 211.01 124.80 212.58 119.58 209.91 118.44 C 209.03 124.61 208.92 131.24 205.83 136.82 C 203.20 140.62 198.37 139.80 194.51 138.95 C 193.33 144.94 192.85 152.58 186.83 155.86 C 183.84 157.75 180.67 155.58 177.86 154.48 C 176.54 160.69 177.11 167.70 173.06 173.00 C 170.66 175.99 165.79 175.27 163.66 172.33 C 159.92 167.65 158.97 161.50 156.95 156.00 C 154.23 155.79 151.67 154.90 149.14 153.93 C 147.52 166.11 147.00 178.41 145.32 190.58 C 143.85 199.60 141.04 208.89 134.81 215.80 C 130.36 220.68 123.57 222.49 117.15 222.43 C 116.07 224.21 115.10 229.07 112.37 226.74 C 112.05 224.29 114.09 221.17 111.62 219.38 C 103.70 212.81 100.49 202.52 98.72 192.75 C 97.07 182.37 97.88 171.70 100.36 161.52 C 102.17 153.80 108.47 147.29 116.21 145.45 C 121.05 144.25 126.74 143.83 130.89 147.11 C 134.51 150.05 136.63 154.42 138.29 158.68 C 140.07 166.44 141.97 174.95 138.55 182.55 C 136.94 187.18 130.66 189.25 126.66 186.35 C 123.96 184.87 122.69 181.46 119.55 180.77 C 119.19 190.35 118.66 199.91 118.15 209.48 C 118.14 212.35 116.62 215.80 118.70 218.26 C 122.85 220.72 127.90 217.99 130.91 214.91 C 136.96 208.42 139.80 199.60 141.17 191.00 C 142.61 179.32 143.44 167.58 145.10 155.93 C 145.47 153.70 145.90 150.98 148.16 149.87 C 150.58 148.58 153.27 151.37 155.67 149.82 C 157.51 148.61 160.08 148.73 160.82 151.13 C 162.44 156.89 164.06 162.74 166.92 168.04 C 167.43 169.39 168.85 169.81 170.02 170.40 C 172.32 163.83 173.37 156.92 174.10 150.02 C 174.86 144.59 171.62 139.36 173.07 133.93 C 174.57 133.79 176.31 133.08 177.62 134.22 C 179.14 136.14 178.58 138.74 178.74 140.99 C 178.67 145.70 180.96 150.40 184.84 153.11 C 189.40 147.86 190.24 140.64 190.82 133.99 C 189.52 129.87 187.35 125.74 188.30 121.24 C 188.46 118.73 191.75 118.11 193.60 119.22 C 196.28 122.53 194.71 126.99 195.26 130.83 C 195.73 133.53 198.31 134.98 200.18 136.66 C 202.41 135.12 203.09 132.42 203.96 130.00 C 205.88 124.52 205.80 118.65 206.40 112.95 C 207.03 108.41 204.34 104.48 202.46 100.60 C 199.09 93.82 195.50 86.71 195.46 78.96 C 195.33 76.97 196.84 74.78 199.03 75.20 C 203.03 76.09 206.36 79.25 207.89 83.01 C 210.37 90.22 209.48 98.01 210.70 105.42 C 211.02 105.70 211.67 106.26 212.00 106.53 C 213.65 103.82 213.69 100.24 215.95 97.85 C 217.14 96.72 218.91 97.19 220.24 97.78 C 222.78 99.91 220.26 103.21 220.79 105.89 C 223.04 107.57 225.50 109.07 228.16 110.01 C 231.04 110.50 233.66 108.36 235.09 106.03 C 239.68 98.75 239.97 88.87 235.51 81.47 C 234.36 79.49 232.35 78.10 231.45 75.99 M 200.05 79.91 C 200.43 85.18 202.64 90.33 205.85 94.49 C 205.78 91.21 205.72 87.82 204.40 84.76 C 203.53 82.76 202.58 80.13 200.05 79.91 M 106.08 156.06 C 101.56 163.93 102.48 173.30 101.73 182.01 C 102.19 193.72 104.77 206.40 113.28 215.05 C 113.80 213.99 114.17 212.90 114.39 211.76 C 115.23 197.91 116.28 184.08 116.30 170.20 C 117.20 169.77 118.11 169.35 119.01 168.94 C 121.68 172.40 122.85 176.86 126.11 179.88 C 127.99 181.57 129.47 184.00 131.99 184.78 C 134.29 184.35 135.18 181.84 135.58 179.82 C 137.01 171.00 136.08 161.42 131.28 153.71 C 128.88 149.99 125.00 146.39 120.21 147.14 C 114.61 147.97 108.77 150.82 106.08 156.06 Z" />
</g>
</svg>
