<?xml version="1.0" encoding="UTF-8" ?>
<!DOCTYPE svg PUBLIC "-//W3C//DTD SVG 1.1//EN" "http://www.w3.org/Graphics/SVG/1.1/DTD/svg11.dtd">
<svg width="512pt" height="256pt" viewBox="0 0 512 256" version="1.1" xmlns="http://www.w3.org/2000/svg">
<g id="#ffffffff">
<path fill="#ffffff" opacity="1.00" d=" M 158.01 41.02 C 167.09 34.67 177.88 30.65 189.02 30.48 C 198.18 30.80 208.15 35.69 211.18 44.89 C 212.92 52.64 211.56 61.30 206.71 67.72 C 203.01 72.78 197.33 75.71 192.37 79.33 C 189.32 81.36 186.32 83.68 182.77 84.73 C 179.14 85.78 175.11 83.42 173.94 79.91 C 173.47 77.56 174.46 75.04 173.19 72.85 C 168.67 78.15 162.85 82.04 157.79 86.78 C 145.74 97.43 131.72 105.48 119.00 115.25 C 124.25 120.28 132.05 122.93 139.21 121.08 C 151.37 118.13 162.72 112.63 173.73 106.79 C 178.82 104.04 184.14 101.41 188.34 97.36 C 191.53 93.31 194.85 89.28 199.02 86.20 C 201.16 86.08 202.42 88.75 201.28 90.44 C 198.72 94.73 193.95 97.09 191.32 101.36 C 188.87 105.31 185.66 109.33 185.69 114.20 C 188.84 113.10 191.61 111.21 194.29 109.27 C 200.06 104.92 205.84 100.40 210.13 94.51 C 212.04 95.07 213.22 96.78 212.64 98.78 C 211.19 103.13 208.71 107.20 208.29 111.85 C 208.67 112.05 209.45 112.44 209.84 112.63 C 212.80 110.04 216.20 107.42 217.55 103.59 C 217.83 100.77 215.90 98.38 214.99 95.85 C 217.46 93.54 220.96 93.79 224.04 93.09 C 229.06 92.15 234.01 90.42 239.19 90.72 C 241.04 98.08 234.91 104.39 234.52 111.58 C 237.19 110.92 239.10 108.86 241.17 107.20 C 248.27 101.30 254.98 94.95 262.00 88.97 C 263.20 87.62 265.62 88.41 265.97 90.15 C 266.45 93.18 266.37 96.27 266.74 99.32 C 272.28 95.92 276.59 90.82 282.05 87.26 C 283.85 89.11 285.92 91.25 285.68 94.06 C 285.32 98.45 283.97 102.75 284.20 107.20 C 287.62 105.90 290.13 103.13 293.05 101.04 C 297.66 97.69 301.09 92.95 306.02 90.02 C 309.44 87.80 313.32 86.48 317.21 85.35 C 319.95 84.82 320.52 81.72 322.15 79.88 C 324.77 79.25 326.13 82.77 325.24 84.83 C 322.33 92.48 319.66 100.25 317.67 108.18 C 326.21 103.14 334.50 97.43 341.49 90.33 C 342.99 88.57 341.87 85.33 344.19 84.18 C 345.92 83.74 347.72 85.19 347.43 87.02 C 347.81 91.99 343.76 95.49 340.09 98.08 C 333.84 102.51 328.36 108.07 321.37 111.36 C 316.58 114.98 311.80 119.77 311.27 126.10 C 310.78 130.57 307.44 133.97 306.36 138.25 C 305.67 140.79 305.15 143.42 303.76 145.70 C 301.75 149.03 300.97 153.74 296.83 155.18 C 294.29 156.25 291.97 154.34 290.12 152.84 C 287.40 150.64 285.62 146.73 287.07 143.33 C 290.64 133.16 298.25 125.20 306.09 118.11 C 307.90 116.25 310.38 114.66 310.92 111.94 C 312.23 106.66 314.26 101.61 316.08 96.49 C 309.70 96.60 306.86 102.97 302.53 106.51 C 299.11 108.42 296.17 111.00 293.05 113.33 C 291.41 112.13 289.84 110.83 288.20 109.63 C 285.57 111.18 283.08 115.28 279.62 113.41 C 278.14 111.70 278.83 109.32 279.21 107.34 C 280.31 102.85 281.53 98.30 281.28 93.63 C 277.23 94.65 274.78 98.21 271.84 100.86 C 270.13 102.50 268.06 103.70 266.33 105.31 C 264.40 107.78 263.09 110.76 260.60 112.77 C 258.86 114.34 257.39 111.99 256.03 111.11 C 258.34 105.92 261.43 100.88 261.65 95.02 C 259.49 96.34 257.53 97.96 255.80 99.80 C 252.40 103.44 247.97 105.91 244.45 109.44 C 241.31 112.30 238.33 115.50 234.57 117.53 C 231.72 118.62 230.31 115.39 230.64 113.05 C 229.81 106.96 233.80 101.80 234.17 95.87 C 230.40 95.73 226.65 96.63 223.11 97.89 C 220.56 98.80 221.50 101.88 221.01 103.92 C 220.53 108.79 216.78 112.27 213.62 115.63 C 211.56 118.01 208.13 117.69 205.30 117.87 C 203.03 114.79 204.02 110.94 204.06 107.42 C 202.69 107.86 201.20 108.15 200.10 109.15 C 195.38 112.98 190.85 117.43 185.01 119.47 C 183.11 120.17 181.64 118.39 181.22 116.74 C 180.49 112.24 183.27 108.25 183.87 103.92 C 177.68 106.30 173.05 111.67 166.67 113.79 C 161.78 115.18 158.04 118.90 153.18 120.33 C 146.04 122.82 138.89 126.52 131.09 125.67 C 125.62 125.41 121.02 122.19 116.44 119.54 C 114.57 118.19 112.48 119.83 110.96 120.93 C 107.91 122.96 104.91 125.65 101.08 125.94 C 101.28 125.40 101.68 124.31 101.87 123.77 C 105.12 121.02 108.98 119.07 112.10 116.15 C 108.93 111.70 106.35 106.62 106.53 101.00 C 106.12 94.56 109.22 88.20 114.45 84.45 C 119.34 81.03 123.49 76.53 128.95 73.95 C 131.75 72.52 134.81 71.69 137.72 70.54 C 137.65 66.91 136.84 63.04 138.74 59.71 C 143.20 51.78 150.31 45.69 158.01 41.02 M 177.89 35.04 C 167.96 37.91 159.44 44.09 151.36 50.33 C 146.13 55.21 139.72 61.53 141.64 69.41 C 146.90 70.63 152.66 69.67 157.55 72.36 C 161.27 73.83 160.46 79.62 157.32 81.30 C 153.11 82.02 148.33 81.85 144.75 79.25 C 142.59 77.79 140.86 75.09 137.95 75.25 C 132.14 75.74 127.27 79.34 123.02 83.04 C 119.34 86.31 114.55 88.66 112.35 93.30 C 109.01 99.83 110.59 108.38 116.14 113.21 C 121.14 110.32 125.56 106.55 130.44 103.46 C 145.35 93.70 159.42 82.62 172.15 70.13 C 175.22 67.14 177.54 63.52 180.13 60.14 C 180.96 61.02 181.77 61.92 182.55 62.84 C 179.97 67.35 176.89 72.42 178.02 77.84 C 178.28 80.09 180.72 81.23 182.76 80.57 C 188.43 79.00 193.25 75.37 197.90 71.89 C 202.17 68.71 205.87 64.50 207.36 59.29 C 209.70 52.03 208.04 43.02 201.83 38.16 C 194.88 33.54 185.81 32.77 177.89 35.04 M 147.02 74.46 C 148.28 77.58 152.06 77.80 154.92 77.45 C 153.19 74.78 149.92 74.38 147.02 74.46 M 303.04 127.01 C 297.97 132.41 292.97 138.50 291.52 145.97 C 291.50 148.54 293.62 150.34 295.98 150.84 C 300.21 143.70 303.18 135.81 305.64 127.90 C 306.43 126.13 303.71 125.54 303.04 127.01 Z" />
<path fill="#ffffff" opacity="1.00" d=" M 245.99 65.45 C 250.77 67.23 250.05 74.29 245.97 76.32 C 244.91 75.58 243.97 74.69 243.02 73.82 C 243.86 70.98 244.81 68.17 245.99 65.45 Z" />
<path fill="#ffffff" opacity="1.00" d=" M 357.90 150.23 C 353.39 147.55 355.95 140.17 360.98 140.18 C 362.09 141.65 363.65 143.03 363.66 145.02 C 362.47 147.41 359.86 148.58 357.90 150.23 Z" />
<path fill="#ffffff" opacity="1.00" d=" M 222.17 144.67 C 223.31 145.07 224.45 145.50 225.59 145.94 C 225.06 148.98 223.94 151.87 222.61 154.64 C 219.59 160.96 216.93 167.46 213.56 173.60 C 212.72 175.07 212.07 176.63 211.67 178.27 C 214.60 177.53 215.75 174.60 217.51 172.48 C 220.25 168.92 223.83 166.13 226.69 162.67 C 230.77 157.71 236.08 154.01 241.01 149.96 C 243.59 147.26 248.90 148.34 250.06 151.94 C 250.98 154.88 250.94 158.10 250.09 161.06 C 247.99 167.66 244.08 173.47 239.93 178.95 C 241.54 181.49 243.14 184.06 245.18 186.29 C 250.71 184.97 255.61 181.96 260.94 180.06 C 265.17 178.60 267.73 174.78 270.83 171.83 C 272.63 169.99 276.02 169.44 278.11 170.89 C 279.39 173.75 282.25 177.13 280.19 180.25 C 277.35 185.49 275.72 191.41 275.75 197.39 C 277.32 197.26 279.03 197.39 280.39 196.44 C 284.09 194.15 287.75 191.77 291.35 189.32 C 293.88 187.67 294.48 184.50 296.15 182.16 C 297.45 180.50 299.82 181.11 301.63 180.60 C 307.80 177.39 312.34 172.02 317.62 167.64 C 319.66 165.95 321.12 163.72 322.69 161.61 C 325.39 160.25 326.99 163.71 326.34 165.97 C 324.64 172.85 322.47 179.63 320.39 186.39 C 323.04 185.74 325.28 184.11 326.96 182.00 C 330.58 177.56 336.01 175.08 339.51 170.53 C 341.68 167.86 342.76 164.55 344.04 161.41 C 346.03 161.25 348.97 162.55 348.34 164.92 C 343.62 171.48 341.95 179.56 339.88 187.23 C 339.22 188.75 339.96 190.27 340.40 191.73 C 346.11 190.03 350.06 185.13 354.76 181.73 C 356.93 180.53 357.55 177.94 359.45 176.46 C 363.18 173.41 364.89 168.76 367.36 164.77 C 368.78 165.20 370.51 165.55 371.16 167.09 C 371.31 170.50 370.64 173.89 370.64 177.30 C 375.13 175.43 378.72 171.89 383.33 170.26 C 385.45 169.57 388.06 168.11 390.01 169.99 C 392.10 175.81 389.18 183.00 393.07 188.12 C 397.75 185.69 403.16 184.68 407.32 181.30 C 409.70 179.38 412.01 177.33 413.96 174.97 C 415.49 173.24 414.59 170.88 414.24 168.89 C 413.02 168.31 411.79 167.74 410.59 167.14 C 411.25 165.02 410.45 161.62 413.07 160.74 C 418.94 162.47 418.81 169.82 418.74 174.79 C 416.54 181.00 410.71 185.04 405.23 188.23 C 401.65 191.42 396.80 192.43 392.16 192.80 C 390.22 193.03 388.80 191.30 388.35 189.60 C 386.87 184.85 387.81 179.77 386.76 174.93 C 384.37 174.90 382.04 175.64 380.26 177.26 C 376.11 180.77 371.16 183.47 367.97 188.00 C 366.29 190.15 364.93 193.86 361.50 192.69 C 360.08 187.56 362.39 182.76 363.66 177.92 C 362.16 178.68 361.20 180.06 360.18 181.33 C 358.20 183.97 355.38 185.76 353.09 188.10 C 349.32 191.78 345.80 195.99 340.99 198.34 C 335.99 197.70 335.53 191.97 335.21 188.00 C 334.61 184.26 337.00 181.11 337.59 177.57 C 334.75 178.53 333.59 181.56 331.36 183.35 C 325.17 188.52 319.29 194.12 312.49 198.50 C 308.79 200.65 304.65 198.47 301.24 196.80 C 298.57 195.61 296.73 193.27 294.87 191.11 C 288.93 194.92 284.15 200.99 276.99 202.55 C 272.40 203.03 272.12 197.45 270.78 194.41 C 265.88 198.07 264.13 205.13 258.05 207.29 C 255.94 203.99 255.46 199.62 257.21 196.06 C 259.22 191.99 261.00 187.81 262.40 183.48 C 260.75 183.46 259.09 183.75 257.73 184.73 C 254.36 186.94 250.21 187.59 246.88 189.86 C 245.09 190.95 245.45 193.22 245.17 194.98 C 244.81 201.88 238.91 208.08 232.09 208.85 C 227.19 208.18 224.91 203.39 223.85 199.11 C 228.40 194.99 233.37 191.18 239.14 188.95 C 241.24 188.05 239.16 185.73 238.09 184.88 C 236.95 183.50 235.16 184.24 233.86 184.92 C 229.33 187.23 226.27 192.24 220.91 192.82 C 220.13 190.55 219.25 187.31 221.81 185.79 C 231.14 180.26 240.33 172.90 244.45 162.54 C 245.06 159.97 246.83 156.72 244.98 154.36 L 244.01 154.46 C 236.20 159.22 229.43 165.55 223.59 172.56 C 216.34 181.30 208.29 189.37 201.45 198.44 C 199.29 201.16 198.24 204.51 196.48 207.45 C 195.93 207.60 194.83 207.89 194.29 208.04 C 193.84 206.19 192.59 204.30 193.30 202.37 C 196.10 193.57 201.05 185.70 206.00 177.99 C 208.13 174.74 209.98 171.24 210.68 167.39 C 207.64 169.56 206.10 173.04 203.96 175.97 C 200.37 180.97 196.09 185.40 192.14 190.11 C 185.26 198.68 175.83 204.57 167.14 211.10 C 161.35 215.57 151.10 214.00 148.09 206.95 C 144.01 197.65 143.87 186.52 148.42 177.36 C 152.28 168.97 159.55 162.25 168.17 158.97 C 173.80 157.07 180.36 160.50 182.28 166.05 C 181.86 171.45 177.95 175.68 174.76 179.75 C 172.50 182.24 170.36 185.37 166.81 185.97 C 167.34 183.24 168.51 180.52 170.72 178.74 C 174.03 175.90 176.35 172.11 178.37 168.29 C 179.80 165.32 176.57 162.53 173.93 161.88 C 168.38 161.44 163.10 164.43 159.30 168.28 C 155.80 171.85 152.23 175.64 150.45 180.41 C 147.53 188.71 148.12 198.14 151.85 206.08 C 153.53 209.70 158.12 211.46 161.79 209.85 C 167.65 207.50 172.49 203.24 177.44 199.42 C 186.03 192.73 193.20 184.50 200.34 176.35 C 208.06 166.10 214.33 154.82 222.17 144.67 M 303.44 183.97 C 304.43 187.20 305.72 190.39 307.93 193.00 C 309.85 192.54 312.20 192.01 312.85 189.83 C 315.16 183.75 317.90 177.78 319.42 171.44 C 318.89 171.57 317.81 171.83 317.28 171.96 C 312.09 175.22 307.50 179.40 303.44 183.97 M 266.82 189.41 C 271.10 186.48 273.45 181.61 275.03 176.83 C 270.46 179.44 267.51 184.23 266.82 189.41 M 228.48 201.05 C 228.37 203.60 231.60 204.63 233.58 203.60 C 237.38 201.81 240.69 197.93 240.30 193.51 C 235.94 195.20 231.30 197.11 228.48 201.05 Z" />
</g>
</svg>
