<?xml version="1.0" encoding="UTF-8" ?>
<!DOCTYPE svg PUBLIC "-//W3C//DTD SVG 1.1//EN" "http://www.w3.org/Graphics/SVG/1.1/DTD/svg11.dtd">
<svg width="256pt" height="128pt" viewBox="0 0 256 128" version="1.1" xmlns="http://www.w3.org/2000/svg">
<g id="#ffffffff">
<path fill="#ffffff" opacity="1.00" d=" M 92.14 6.73 C 92.66 7.09 93.71 7.82 94.23 8.18 C 92.90 14.21 89.45 19.58 87.45 25.41 C 85.64 30.54 83.40 35.50 81.30 40.51 C 86.81 41.05 92.32 40.08 97.66 38.76 C 99.44 38.40 100.30 36.64 101.14 35.23 C 104.39 29.16 106.86 22.72 109.49 16.38 C 109.89 15.05 110.93 14.15 112.02 13.37 C 113.65 16.72 110.88 19.77 109.93 22.87 C 108.15 28.25 105.18 33.12 103.43 38.50 C 102.22 40.89 100.33 42.93 99.57 45.55 C 97.82 51.36 93.64 56.29 93.33 62.53 C 92.22 62.69 91.10 62.78 89.98 62.82 C 90.77 55.08 95.55 48.70 97.70 41.39 C 92.00 42.29 86.16 42.52 80.52 43.52 C 76.64 47.26 75.78 52.94 73.75 57.73 C 72.45 60.57 72.08 64.33 68.91 65.79 C 70.13 57.93 73.85 50.88 76.32 43.42 C 63.59 43.75 50.41 41.92 38.16 46.34 C 34.38 47.72 29.98 49.68 28.68 53.84 C 30.18 55.27 31.71 56.68 33.03 58.29 C 30.25 57.21 26.54 55.34 26.38 52.01 C 28.91 48.59 32.66 46.11 36.56 44.49 C 49.75 39.54 64.08 42.05 77.79 40.64 C 81.31 33.65 84.06 26.30 87.12 19.10 C 80.73 19.00 74.36 19.57 67.98 19.62 C 62.55 19.36 57.14 18.53 51.70 18.73 C 52.77 22.32 54.48 26.34 58.26 27.76 C 62.08 29.55 66.45 28.68 70.39 29.94 C 67.29 31.97 63.42 30.76 60.05 30.18 C 54.34 28.99 50.26 23.80 49.65 18.12 C 52.05 16.14 55.17 16.73 58.02 16.91 C 67.87 18.05 77.88 17.79 87.71 16.73 C 89.91 13.81 90.37 9.93 92.14 6.73 Z" />
<path fill="#ffffff" opacity="1.00" d=" M 194.56 34.99 C 197.28 35.07 199.32 37.57 199.76 40.08 C 199.33 43.83 197.59 47.36 195.32 50.34 C 191.66 55.06 185.87 57.27 180.55 59.52 C 178.70 60.45 175.03 59.57 175.44 56.99 C 175.78 53.70 177.63 50.84 178.39 47.66 C 172.34 49.02 167.99 53.60 164.12 58.12 C 163.45 57.81 162.10 57.17 161.43 56.86 C 163.73 52.59 165.87 48.19 166.65 43.35 C 164.59 43.63 162.50 43.87 160.59 44.72 C 159.66 46.58 159.43 48.69 158.58 50.59 C 157.32 54.14 154.18 56.58 150.93 58.22 C 150.25 57.99 148.90 57.53 148.22 57.30 C 148.77 55.18 149.31 53.05 149.69 50.89 C 146.51 53.65 143.55 56.69 140.07 59.07 C 138.48 60.40 136.38 59.36 134.60 59.16 C 134.16 54.83 135.49 50.69 137.10 46.75 C 135.23 47.10 132.81 46.81 131.62 48.63 C 128.15 53.05 125.23 58.50 119.71 60.64 C 118.35 61.35 116.81 60.31 116.35 59.00 C 116.46 56.52 117.40 54.19 117.94 51.79 C 114.75 54.30 112.05 57.36 108.91 59.92 C 108.16 58.80 106.86 57.73 107.35 56.23 C 108.13 52.76 110.01 49.66 110.82 46.19 C 107.48 48.74 104.65 52.38 100.18 52.94 C 100.26 50.22 103.29 49.53 104.98 47.98 C 108.03 46.11 110.15 42.67 113.78 41.89 C 114.65 46.04 112.33 49.77 111.38 53.68 C 115.50 51.03 118.28 46.84 122.22 43.94 C 122.49 44.69 123.03 46.19 123.30 46.94 C 122.06 50.32 120.42 53.59 119.92 57.20 C 125.16 54.69 127.40 49.16 131.05 45.08 C 134.53 44.46 138.03 43.29 141.59 43.45 C 142.86 45.20 141.04 46.82 140.27 48.33 C 138.27 50.98 137.73 54.30 136.94 57.44 C 144.49 54.61 150.20 48.46 155.87 42.96 C 160.47 42.33 165.17 39.61 169.81 41.18 C 169.89 43.72 169.45 46.23 168.98 48.72 C 172.86 47.24 177.11 43.44 181.35 45.92 C 180.94 49.76 179.74 53.44 178.89 57.19 C 186.47 54.50 195.46 50.63 197.52 41.98 C 198.34 39.14 195.19 37.51 194.56 34.99 M 150.69 55.54 C 154.41 53.58 156.58 49.63 157.34 45.62 C 153.71 47.49 151.28 51.56 150.69 55.54 Z" />
<path fill="#ffffff" opacity="1.00" d=" M 84.71 72.71 C 92.99 67.88 101.96 62.41 111.94 63.32 C 115.51 63.37 118.75 65.73 120.10 68.99 C 122.52 74.24 120.00 80.36 116.38 84.38 C 113.57 87.32 110.49 90.22 106.67 91.75 C 103.25 93.22 99.14 91.16 97.69 87.90 C 97.39 85.91 97.49 83.89 97.44 81.88 C 89.91 86.63 83.27 92.89 74.73 95.92 C 75.47 98.58 76.07 101.76 78.70 103.26 C 82.43 104.49 86.56 104.63 90.31 103.37 C 98.33 101.02 106.64 98.42 113.19 93.03 C 115.61 96.41 112.14 100.14 111.00 103.42 C 111.93 103.51 113.78 103.69 114.71 103.78 C 112.32 106.70 108.95 108.81 107.23 112.24 C 105.06 116.47 102.92 120.70 100.94 125.02 C 100.15 123.47 98.68 121.94 99.21 120.06 C 99.75 116.03 103.38 113.55 105.08 110.07 C 106.67 106.76 108.55 103.56 109.67 100.06 C 108.46 97.94 106.11 99.88 104.60 100.56 C 97.78 104.51 90.04 107.40 82.04 106.80 C 77.98 106.41 75.33 102.88 73.15 99.82 C 70.23 94.84 72.74 89.27 74.47 84.37 C 76.85 79.74 80.68 75.94 84.71 72.71 M 86.42 75.37 C 80.87 79.67 75.86 85.57 75.37 92.88 C 82.93 89.38 89.42 84.06 96.03 79.06 C 98.42 77.35 100.21 74.78 103.05 73.75 C 103.13 74.31 103.31 75.42 103.40 75.98 C 101.60 80.03 99.96 84.28 100.29 88.81 C 101.76 89.11 103.33 89.74 104.82 89.12 C 110.83 86.85 115.55 81.71 117.89 75.78 C 118.99 73.00 118.46 69.68 116.65 67.33 C 114.31 65.35 110.94 65.35 108.06 65.77 C 100.44 67.85 92.68 70.36 86.42 75.37 Z" />
<path fill="#ffffff" opacity="1.00" d=" M 125.53 91.60 C 128.88 83.95 131.77 73.76 140.99 71.53 C 143.85 74.71 141.76 78.81 139.80 81.83 C 136.89 86.13 133.05 89.76 128.86 92.79 C 125.94 94.63 126.70 98.60 126.69 101.52 C 129.97 101.73 132.98 100.25 135.86 98.87 C 139.57 97.18 139.41 91.92 143.18 90.22 C 145.46 88.26 150.00 89.50 149.56 92.94 C 148.71 97.02 143.96 97.40 141.00 99.28 C 140.35 101.05 142.34 102.13 143.86 101.65 C 148.94 100.55 154.09 98.60 157.78 94.79 C 159.09 93.40 160.63 92.24 162.46 91.63 C 162.31 93.85 161.80 96.02 161.39 98.21 C 165.72 95.75 170.27 92.26 175.57 93.40 C 175.89 96.76 175.11 100.08 174.85 103.41 C 180.95 102.24 186.70 97.97 188.93 92.06 C 190.70 92.75 191.75 94.78 190.39 96.39 C 186.61 101.82 180.69 105.75 174.11 106.77 C 171.77 103.73 172.43 99.84 172.73 96.30 C 168.62 96.93 164.73 98.85 161.69 101.69 C 160.22 102.91 158.90 104.48 157.04 105.11 C 154.70 103.84 156.75 101.17 156.82 99.22 C 152.40 102.17 147.46 104.80 141.98 104.54 C 139.80 104.73 138.78 102.45 137.54 101.10 C 133.95 102.66 130.24 105.20 126.15 104.10 C 123.93 102.12 124.47 98.72 124.16 96.05 C 121.16 97.23 118.21 100.91 114.80 99.15 C 118.12 96.30 122.57 94.85 125.53 91.60 M 128.96 89.56 C 134.46 86.26 139.20 80.92 140.70 74.60 C 134.02 76.66 131.54 83.80 128.96 89.56 M 140.14 97.36 C 142.97 96.09 147.17 95.22 147.39 91.40 C 143.90 91.56 141.76 94.66 140.14 97.36 Z" />
</g>
</svg>
