<?xml version="1.0" encoding="UTF-8" ?>
<!DOCTYPE svg PUBLIC "-//W3C//DTD SVG 1.1//EN" "http://www.w3.org/Graphics/SVG/1.1/DTD/svg11.dtd">
<svg width="256pt" height="128pt" viewBox="0 0 256 128" version="1.1" xmlns="http://www.w3.org/2000/svg">
<g id="#ffffffff">
<path fill="#ffffff" opacity="1.00" d=" M 116.96 2.14 C 118.22 2.72 119.47 3.32 120.72 3.93 C 118.49 11.93 113.75 18.84 110.26 26.30 C 108.56 30.11 105.35 33.18 104.57 37.39 C 105.82 36.75 107.07 36.04 108.05 35.00 C 112.92 30.22 117.31 24.96 122.55 20.58 C 125.85 17.87 128.57 14.39 132.34 12.28 C 136.84 10.41 142.41 15.13 141.08 19.92 C 138.63 27.50 131.90 32.31 125.94 37.03 C 129.10 39.03 132.14 41.19 134.95 43.66 C 139.94 42.53 145.10 41.76 149.84 39.83 C 153.22 35.33 156.29 30.16 161.52 27.54 C 164.21 26.35 167.72 28.06 168.26 31.00 C 167.43 34.91 164.62 38.24 161.21 40.22 C 158.66 41.73 155.34 41.94 153.31 44.28 C 151.17 47.18 149.77 50.88 150.76 54.50 C 152.36 54.49 153.95 54.15 155.35 53.33 C 161.06 50.23 166.49 46.60 171.43 42.39 C 175.88 38.60 180.69 35.08 186.18 32.95 C 188.46 31.98 191.33 33.67 191.97 35.98 C 189.68 38.31 186.08 38.30 183.25 39.66 C 183.95 40.75 184.66 41.85 185.37 42.94 C 184.17 47.22 181.10 51.87 182.89 56.32 C 187.64 52.65 192.18 48.55 195.58 43.56 C 198.51 39.77 203.59 37.28 204.31 32.08 C 204.89 28.17 207.11 24.58 210.48 22.48 C 212.65 21.66 214.45 23.25 215.60 24.92 C 213.27 27.96 211.62 31.41 209.96 34.84 C 211.64 36.21 214.71 36.71 215.31 38.92 C 212.94 42.94 210.21 46.75 207.48 50.53 C 206.43 51.56 206.68 53.59 208.37 53.72 C 214.98 53.42 221.84 49.83 224.69 43.65 C 224.92 41.70 223.53 39.47 225.10 37.83 C 227.46 37.46 228.95 40.14 229.51 42.06 C 229.81 46.08 226.93 49.56 224.09 52.08 C 219.78 55.41 214.63 58.46 208.97 57.93 C 206.29 57.74 202.12 58.15 201.34 54.74 C 201.04 48.91 205.30 44.48 208.28 39.95 C 207.06 39.85 205.55 38.34 204.47 39.38 C 200.75 43.41 196.85 47.39 194.41 52.37 C 191.46 55.12 188.78 58.33 185.10 60.16 C 183.22 61.27 180.88 62.17 178.73 61.28 C 176.62 59.35 177.83 56.22 177.59 53.74 C 172.86 54.75 171.17 60.29 166.61 61.60 C 164.95 62.14 162.80 61.43 162.31 59.63 C 161.69 57.41 162.88 55.21 163.21 53.04 C 160.32 55.37 157.17 57.38 153.83 59.00 C 151.23 59.86 147.39 59.53 146.08 56.74 C 144.92 52.84 145.98 48.82 146.52 44.92 C 143.00 45.57 139.34 45.68 135.98 46.99 C 134.55 49.10 134.27 51.75 132.89 53.89 C 130.06 57.81 125.87 61.12 120.90 61.54 C 119.06 61.61 116.77 62.15 115.34 60.65 C 113.34 58.48 114.03 54.90 115.78 52.80 C 119.56 49.25 124.59 47.59 128.83 44.75 C 129.18 42.81 127.02 42.02 125.67 41.26 C 121.65 39.13 117.29 44.42 113.52 40.93 C 113.90 40.44 114.66 39.46 115.04 38.97 C 121.33 35.17 127.71 31.16 132.56 25.56 C 134.73 22.82 137.35 19.01 135.08 15.55 C 130.46 18.28 126.69 22.15 122.76 25.76 C 114.28 33.65 106.71 42.44 99.25 51.28 C 97.01 53.85 95.52 56.94 93.54 59.70 C 92.17 61.14 90.44 59.43 89.09 58.87 C 93.08 44.98 102.28 33.51 107.96 20.41 C 100.56 24.91 95.61 32.52 88.39 37.34 C 78.95 44.91 68.40 50.86 58.07 57.10 C 52.63 60.29 45.78 61.71 39.79 59.24 C 33.92 57.50 31.23 50.61 31.52 44.98 C 32.83 38.60 34.23 31.79 38.81 26.83 C 44.04 19.84 51.18 14.19 59.68 11.80 C 64.00 10.09 68.99 10.62 72.99 12.93 C 75.05 14.33 76.45 17.40 74.84 19.63 C 72.15 24.28 69.83 29.83 64.87 32.48 C 64.48 32.15 63.68 31.50 63.29 31.17 C 65.81 26.53 70.41 23.12 71.73 17.83 C 72.41 16.04 70.69 14.53 69.33 13.70 C 66.88 12.22 63.96 13.03 61.39 13.68 C 51.83 16.36 43.86 23.46 39.10 32.05 C 36.31 38.41 34.27 46.02 37.18 52.69 C 39.15 57.66 45.73 59.58 50.34 57.27 C 55.32 55.20 60.43 53.15 64.56 49.58 C 66.79 47.56 69.96 47.19 72.19 45.16 C 79.00 39.83 87.06 36.31 93.43 30.40 C 99.11 25.10 105.46 20.41 109.83 13.87 C 113.05 10.50 115.19 6.41 116.96 2.14 M 154.55 39.41 C 158.22 37.64 163.60 35.81 163.96 31.07 C 159.76 32.30 156.83 35.88 154.55 39.41 M 169.67 53.22 C 173.14 50.72 176.26 47.57 178.34 43.81 C 174.97 46.28 170.43 48.76 169.67 53.22 M 118.67 58.33 C 121.60 58.95 124.15 57.09 126.30 55.35 C 128.12 53.76 129.96 51.54 129.35 48.95 C 124.82 50.55 120.06 53.42 118.67 58.33 Z" />
<path fill="#ffffff" opacity="1.00" d=" M 94.03 62.04 C 97.58 60.26 102.15 58.84 105.80 61.15 C 109.77 63.58 110.29 68.79 110.33 73.01 C 109.08 85.31 102.71 97.38 92.25 104.27 C 87.09 107.42 82.26 111.80 75.99 112.40 C 72.32 112.27 67.21 110.51 67.57 105.97 C 67.05 104.51 68.42 101.41 66.18 101.31 C 63.14 103.64 59.41 106.04 58.45 109.99 C 59.89 117.32 68.04 121.28 75.04 120.26 C 84.89 118.83 93.90 114.16 102.65 109.64 C 105.90 107.88 110.25 106.61 111.59 102.78 C 115.84 89.87 123.99 78.09 135.14 70.24 C 137.45 68.40 141.93 67.50 142.79 71.29 C 144.51 78.94 139.45 86.16 134.14 91.15 C 128.93 95.95 124.48 101.74 118.12 105.13 C 113.90 107.11 115.20 112.94 116.75 116.28 C 123.40 117.29 129.76 113.76 136.00 111.93 C 138.99 111.24 140.51 108.46 142.21 106.20 C 146.32 100.90 151.29 95.49 158.23 94.28 C 161.52 93.20 166.22 96.95 164.33 100.40 C 161.83 104.64 159.03 108.81 157.70 113.61 C 164.28 111.86 168.51 105.65 174.30 102.32 C 177.84 100.45 180.33 97.26 183.10 94.47 C 184.45 95.51 185.66 96.69 186.78 97.96 C 183.41 102.65 179.69 107.31 178.10 112.97 C 184.22 110.67 188.95 105.91 193.94 101.85 C 194.88 102.58 195.83 103.31 196.77 104.05 C 195.36 107.93 192.71 111.57 193.02 115.87 C 197.94 115.05 202.14 111.41 204.01 106.84 C 205.20 103.90 203.14 101.02 203.03 98.07 C 205.86 97.99 208.78 100.07 209.00 103.00 C 208.68 110.17 203.63 116.29 197.28 119.23 C 195.06 120.17 192.19 121.90 189.96 120.09 C 187.60 118.00 188.47 114.55 188.19 111.79 C 185.10 112.96 183.54 116.16 180.63 117.61 C 178.70 118.54 176.70 119.85 174.46 119.61 C 170.88 116.42 173.36 111.61 174.07 107.75 C 168.82 111.62 163.84 115.86 158.48 119.58 C 157.32 120.49 155.57 121.00 154.30 119.99 C 151.87 118.67 152.78 115.56 152.25 113.32 C 148.70 115.45 145.62 118.35 141.80 120.00 C 139.02 121.38 137.01 118.09 134.88 116.82 C 129.66 118.34 124.56 120.79 119.02 120.73 C 115.81 120.78 112.39 119.12 110.99 116.14 C 110.37 114.44 110.25 112.61 109.87 110.86 C 107.16 110.74 105.23 112.83 102.96 113.94 C 94.84 117.77 86.71 121.96 77.78 123.55 C 71.74 124.60 65.52 122.86 60.46 119.54 C 57.91 117.73 56.18 115.05 54.08 112.78 C 49.08 116.85 44.73 121.71 38.91 124.69 C 37.67 124.48 36.79 123.42 35.74 122.81 C 41.59 119.15 47.35 115.15 51.87 109.87 C 54.82 106.40 52.86 101.51 54.62 97.60 C 57.88 89.75 65.02 84.67 71.03 79.05 C 77.84 72.32 85.66 66.65 94.03 62.04 M 89.91 68.92 C 86.08 71.74 81.78 73.93 78.39 77.34 C 72.85 82.82 66.56 87.60 61.71 93.74 C 59.51 96.39 58.43 99.72 58.15 103.12 C 61.75 102.70 63.46 99.11 65.96 96.96 C 69.76 93.47 73.19 89.60 75.90 85.19 C 76.64 85.65 78.13 86.57 78.87 87.03 C 75.87 93.09 71.76 99.03 71.42 106.00 C 71.30 108.23 73.77 109.44 75.69 108.76 C 86.89 106.07 96.46 98.08 102.18 88.21 C 105.32 81.95 108.05 74.71 106.24 67.65 C 105.69 65.72 104.41 63.17 102.00 63.49 C 97.70 64.50 93.30 65.95 89.91 68.92 M 117.86 100.13 C 123.13 98.58 126.36 93.79 130.62 90.65 C 134.93 86.20 140.48 80.69 139.17 73.92 C 128.88 79.18 121.74 89.46 117.86 100.13 M 149.72 104.72 C 148.06 106.46 145.99 108.33 146.03 110.95 C 147.67 110.47 149.12 109.57 150.30 108.33 C 153.33 105.29 157.25 102.92 159.12 98.91 C 155.28 99.37 152.47 102.27 149.72 104.72 Z" />
</g>
</svg>
