<?xml version="1.0" encoding="UTF-8" ?>
<!DOCTYPE svg PUBLIC "-//W3C//DTD SVG 1.1//EN" "http://www.w3.org/Graphics/SVG/1.1/DTD/svg11.dtd">
<svg width="256pt" height="256pt" viewBox="0 0 256 256" version="1.1" xmlns="http://www.w3.org/2000/svg">
<g id="#ffffffff">
<path fill="#ffffff" opacity="1.00" d=" M 58.67 63.65 C 60.27 62.34 62.25 60.59 64.47 61.55 C 73.46 65.95 77.42 76.46 77.32 85.95 C 76.66 91.87 76.17 97.99 73.48 103.42 C 71.20 108.73 67.10 112.90 64.03 117.72 C 74.82 114.25 85.11 109.33 95.89 105.87 C 96.38 106.23 97.35 106.96 97.83 107.32 C 97.47 111.32 95.51 114.96 94.88 118.92 C 100.49 117.46 105.30 114.14 110.22 111.21 C 112.95 109.61 114.76 106.93 116.16 104.16 C 117.14 104.87 119.08 105.54 118.66 107.11 C 118.25 109.47 117.28 111.69 116.68 114.01 C 121.08 110.32 125.57 106.77 130.12 103.28 C 131.00 104.28 132.17 105.13 132.60 106.44 C 132.61 108.59 131.71 110.59 131.19 112.65 C 134.85 110.05 138.50 107.45 142.16 104.86 C 143.42 106.07 144.99 107.21 145.39 109.02 C 144.63 113.05 143.69 117.06 143.49 121.17 C 145.01 121.28 146.54 121.42 148.06 121.58 C 146.49 123.02 144.88 124.48 142.92 125.35 C 141.17 125.30 140.26 123.60 140.45 122.00 C 140.58 117.86 141.97 113.87 142.15 109.72 C 139.00 111.62 135.92 113.71 133.24 116.24 C 130.65 118.59 129.61 122.15 127.01 124.50 C 126.57 124.31 125.67 123.95 125.22 123.76 C 124.64 118.88 127.85 114.46 128.29 109.63 C 123.49 112.95 118.66 116.51 115.36 121.40 C 113.76 123.58 112.26 126.69 109.00 125.97 C 108.93 121.69 111.49 118.02 112.29 113.91 C 109.47 115.45 106.95 117.48 104.12 118.99 C 99.23 121.21 93.65 122.47 89.90 126.58 C 85.23 126.09 80.30 122.20 80.29 117.18 C 82.97 117.56 84.43 119.87 85.96 121.82 C 87.32 121.24 88.76 120.79 90.00 119.96 C 91.93 117.21 92.61 113.83 93.62 110.68 C 84.64 113.27 75.97 116.79 67.45 120.59 C 63.66 122.45 58.88 121.65 55.65 124.63 C 50.72 128.24 44.95 132.42 38.47 130.61 C 34.16 129.69 32.83 124.86 32.61 121.04 C 31.98 112.96 36.05 105.65 39.80 98.81 C 43.07 90.15 46.23 81.22 51.71 73.65 C 53.96 70.28 55.64 66.43 58.67 63.65 M 61.93 64.93 C 58.04 68.50 55.10 73.01 52.68 77.68 C 51.06 80.79 48.89 83.64 47.83 87.02 C 50.85 84.61 53.28 81.56 56.26 79.09 C 58.54 78.48 58.49 81.58 59.31 82.95 C 58.31 82.73 57.31 82.52 56.31 82.30 C 51.27 88.04 44.36 93.05 42.77 100.99 C 41.75 106.06 41.34 112.57 45.95 116.06 C 48.65 118.35 52.28 117.15 55.44 117.08 C 55.08 118.42 54.24 119.18 52.93 119.35 C 49.01 120.20 45.14 118.22 42.37 115.59 C 40.46 113.03 39.74 109.82 38.61 106.89 C 35.23 112.76 34.31 120.09 36.43 126.55 C 37.34 129.00 40.45 128.76 42.54 128.44 C 48.18 126.87 52.78 122.91 57.02 119.04 C 62.01 115.37 65.93 110.46 69.40 105.38 C 72.91 97.78 76.11 89.48 74.82 80.95 C 73.93 75.34 72.24 69.07 67.21 65.74 C 65.76 64.73 63.52 63.48 61.93 64.93 Z" />
<path fill="#ffffff" opacity="1.00" d=" M 212.01 97.16 C 213.13 95.94 213.77 93.61 215.83 93.98 C 219.35 97.60 220.44 103.02 219.07 107.83 C 216.90 113.26 212.93 117.92 208.05 121.10 C 203.25 123.75 198.10 127.11 192.41 126.58 C 187.65 125.35 188.88 119.51 189.63 115.93 C 186.69 117.40 183.80 119.07 181.40 121.35 C 180.02 122.49 178.82 124.07 177.00 124.52 C 175.55 124.32 174.89 123.51 175.03 122.08 C 175.89 119.11 177.59 116.47 178.51 113.51 C 173.39 117.31 169.59 122.73 163.93 125.86 C 161.13 125.99 160.89 122.99 160.72 120.91 C 158.30 122.92 156.21 125.86 153.03 126.56 C 150.09 126.21 149.96 122.71 150.70 120.50 C 153.35 112.96 159.28 106.23 166.99 103.69 C 169.64 104.34 171.37 108.21 169.53 110.42 C 167.61 113.06 166.88 116.28 165.80 119.30 C 171.26 115.40 175.96 110.51 181.03 106.12 C 182.46 105.97 183.58 107.71 183.62 109.00 C 183.10 111.27 182.17 113.43 181.60 115.69 C 185.11 114.08 188.35 111.89 192.06 110.72 C 193.80 114.80 191.25 118.89 191.75 123.04 C 199.08 122.86 205.76 118.88 210.84 113.83 C 214.45 110.04 217.62 104.63 216.14 99.26 C 214.87 98.36 213.39 97.84 212.01 97.16 M 154.68 120.56 C 158.45 118.51 160.97 114.93 163.77 111.80 C 165.03 110.24 166.66 108.91 167.31 106.96 C 162.05 110.22 156.30 114.18 154.68 120.56 Z" />
<path fill="#ffffff" opacity="1.00" d=" M 87.80 133.66 C 91.80 132.51 95.83 131.08 99.99 130.72 C 104.89 131.70 109.47 134.47 112.60 138.40 C 114.85 141.31 114.33 145.30 113.39 148.60 C 110.25 156.16 103.82 161.93 96.61 165.56 C 93.52 166.85 89.75 168.47 86.59 166.49 C 84.19 165.43 83.84 162.63 83.14 160.42 C 79.19 165.34 74.76 169.85 70.00 173.99 C 67.84 175.91 65.17 177.33 63.64 179.88 C 69.92 184.16 78.00 182.62 84.34 179.32 C 91.52 175.55 98.77 171.70 105.02 166.48 C 105.93 167.34 106.86 168.18 107.81 168.99 C 105.84 172.07 103.83 175.17 102.64 178.65 C 109.45 174.66 116.43 170.29 120.41 163.21 C 123.42 162.81 127.81 163.51 128.51 167.04 C 128.11 172.17 121.92 175.04 122.61 180.43 C 126.23 180.17 129.54 178.54 133.08 177.91 C 133.06 179.94 131.11 180.85 129.63 181.82 C 126.19 182.99 121.97 184.80 118.92 181.73 C 118.80 181.29 118.57 180.41 118.46 179.97 C 119.37 175.12 122.15 170.98 124.31 166.65 C 120.18 167.16 118.60 171.50 116.20 174.24 C 110.38 177.98 104.40 181.62 99.39 186.44 C 96.65 192.97 94.80 200.10 89.93 205.48 C 88.52 205.89 86.83 204.29 86.58 202.97 C 87.00 198.32 88.00 193.55 90.55 189.56 C 92.08 187.13 94.45 185.40 96.19 183.15 C 97.63 180.73 98.50 178.01 99.32 175.33 C 92.01 178.83 85.47 184.75 77.06 185.45 C 74.10 185.23 71.09 185.29 68.18 184.65 C 65.63 184.06 63.76 181.97 61.28 181.28 C 55.88 185.54 50.91 190.44 44.96 193.97 C 43.42 194.73 40.62 195.60 40.36 193.07 C 47.04 188.94 53.34 184.15 59.10 178.80 C 58.94 177.02 57.95 175.46 57.54 173.74 C 56.33 164.76 59.80 155.52 66.14 149.12 C 72.09 142.37 80.22 138.25 87.80 133.66 M 90.28 136.28 C 83.08 139.61 76.39 144.13 70.91 149.89 C 67.05 153.15 64.16 157.44 62.07 162.00 C 61.05 166.75 60.15 171.87 61.92 176.57 C 70.74 169.38 79.20 161.36 85.23 151.64 C 90.09 154.13 86.58 159.79 87.10 163.91 C 90.74 165.46 94.18 162.99 97.23 161.26 C 104.04 156.97 110.98 150.68 111.25 142.04 C 110.60 138.50 107.51 135.86 104.28 134.63 C 99.64 132.88 94.63 134.43 90.28 136.28 Z" />
<path fill="#ffffff" opacity="1.00" d=" M 149.09 164.38 C 154.33 166.57 159.59 163.07 164.94 163.61 C 168.45 164.21 167.02 168.08 166.16 170.31 C 165.02 173.55 162.06 175.86 161.41 179.30 C 166.87 176.49 170.36 171.42 174.01 166.73 C 174.41 168.57 175.81 170.70 174.57 172.50 C 172.38 175.93 169.12 178.71 165.49 180.52 C 163.55 182.42 161.70 184.57 158.98 185.33 C 157.06 185.22 155.80 182.99 156.27 181.21 C 157.60 175.95 161.93 172.11 163.56 166.97 C 160.13 167.01 156.75 167.65 153.42 168.42 C 150.02 169.29 152.26 173.23 151.59 175.62 C 150.17 179.47 147.75 183.05 144.48 185.56 C 142.58 187.24 139.07 185.24 139.11 182.81 C 139.14 177.37 142.67 172.92 145.48 168.56 C 146.39 166.93 147.78 165.68 149.09 164.38 M 142.79 181.63 C 146.30 180.05 148.25 176.39 149.02 172.78 C 148.53 172.77 147.55 172.73 147.06 172.72 C 145.56 175.67 142.64 178.05 142.79 181.63 Z" />
<path fill="#ffffff" opacity="1.00" d=" M 182.55 176.56 C 184.02 172.61 186.73 168.41 190.96 167.17 C 194.43 166.85 195.28 171.23 193.73 173.64 C 192.20 178.00 186.96 178.58 184.41 182.02 C 189.15 184.65 194.32 182.46 198.99 180.90 C 202.88 179.42 206.39 177.12 209.88 174.89 C 212.16 173.48 213.14 170.87 214.79 168.88 C 214.99 169.67 215.40 171.25 215.60 172.04 C 213.68 174.60 211.97 177.40 209.45 179.43 C 204.74 182.79 199.28 184.89 193.77 186.54 C 191.61 187.13 189.35 186.89 187.18 186.56 C 184.67 186.32 183.38 183.91 181.51 182.57 C 178.24 181.74 174.18 181.25 172.78 177.65 C 175.91 177.61 181.18 181.06 182.55 176.56 M 185.57 177.10 C 188.42 175.75 190.98 173.64 192.25 170.68 C 189.18 171.54 186.62 174.13 185.57 177.10 Z" />
</g>
</svg>
