<?xml version="1.0" encoding="UTF-8" ?>
<!DOCTYPE svg PUBLIC "-//W3C//DTD SVG 1.1//EN" "http://www.w3.org/Graphics/SVG/1.1/DTD/svg11.dtd">
<svg width="512pt" height="128pt" viewBox="0 0 512 128" version="1.1" xmlns="http://www.w3.org/2000/svg">
<g id="#ffffffff">
<path fill="#ffffff" opacity="1.00" d=" M 103.00 24.96 C 111.10 19.72 119.73 15.13 129.01 12.42 C 136.99 11.89 144.67 19.99 143.38 27.99 C 140.74 39.37 134.03 49.65 124.72 56.73 C 121.80 58.84 118.79 61.46 115.01 61.61 C 112.76 61.73 110.69 60.11 109.99 58.02 C 108.91 54.82 109.24 51.40 109.22 48.08 C 104.85 53.10 100.62 58.22 96.22 63.21 C 92.27 67.96 87.67 72.18 84.26 77.36 C 88.53 81.23 94.80 81.69 100.09 79.93 C 110.87 77.55 120.55 72.11 130.55 67.67 C 132.19 65.41 133.37 62.86 134.67 60.40 C 135.52 61.30 136.49 62.12 137.13 63.20 C 136.46 66.60 134.25 69.45 133.56 72.86 C 138.57 71.58 143.35 69.42 147.55 66.39 C 148.82 65.07 151.40 67.31 150.15 68.70 C 147.94 72.33 145.68 76.10 145.83 80.52 C 152.32 80.00 156.95 74.54 162.06 71.03 C 164.91 65.87 167.60 60.58 170.37 55.36 C 172.95 50.91 174.57 45.47 178.99 42.44 C 181.53 43.42 182.74 46.42 182.05 48.97 C 180.90 54.35 177.66 59.00 174.07 63.05 C 169.88 67.58 164.26 72.46 165.15 79.31 C 166.69 78.89 168.28 78.52 169.65 77.65 C 174.69 74.44 180.00 71.51 184.29 67.28 C 186.88 64.27 187.65 60.18 189.97 56.98 C 193.29 52.16 197.02 47.32 201.98 44.11 C 204.21 44.89 206.14 47.37 204.83 49.72 C 201.94 56.39 196.26 61.24 190.97 65.99 C 187.88 68.76 185.23 72.61 185.55 76.94 C 186.14 80.13 190.22 80.23 192.75 79.73 C 198.33 77.91 203.18 74.37 207.68 70.68 C 207.45 69.23 207.21 67.79 207.03 66.34 C 208.71 67.06 210.74 68.06 210.84 70.17 C 211.35 72.59 209.13 74.19 207.48 75.49 C 202.11 79.41 196.09 83.69 189.12 83.20 C 184.74 81.89 182.55 77.57 182.38 73.26 C 177.53 76.76 172.83 80.87 166.97 82.53 C 163.26 82.58 162.49 78.42 161.47 75.71 C 157.38 78.13 154.07 81.86 149.53 83.49 C 147.61 84.30 144.99 83.73 144.19 81.63 C 142.65 78.12 144.06 74.28 144.62 70.71 C 141.01 72.42 137.38 74.10 133.78 75.82 C 128.61 78.13 127.50 84.26 124.58 88.58 C 122.40 91.65 121.62 96.07 118.05 97.88 C 113.29 95.21 113.24 88.73 115.40 84.34 C 117.36 79.90 122.56 78.83 126.11 76.09 C 128.40 74.57 129.65 72.05 130.73 69.62 C 119.83 74.82 109.17 81.45 97.02 83.19 C 91.80 84.10 87.11 81.35 82.94 78.62 C 80.22 80.67 78.47 85.41 74.39 84.29 C 75.94 81.35 79.08 79.77 80.80 76.95 C 77.56 70.73 74.97 63.50 77.37 56.50 C 80.75 47.15 86.60 38.69 93.90 31.95 C 97.07 29.80 99.95 27.26 103.00 24.96 M 125.56 16.52 C 119.08 19.12 112.63 21.92 106.79 25.77 C 96.11 32.58 87.29 42.40 81.90 53.86 C 78.66 60.38 78.46 68.56 82.31 74.86 C 90.04 67.70 96.19 59.08 103.38 51.41 C 106.59 47.97 108.82 43.80 111.28 39.84 C 112.45 40.46 114.00 41.26 113.30 42.87 C 112.32 47.76 111.25 52.82 112.11 57.80 C 112.39 59.43 114.66 59.55 115.92 59.12 C 120.53 57.46 123.99 53.78 127.65 50.68 C 134.23 44.98 138.56 37.13 141.07 28.88 C 142.55 24.12 140.36 18.48 135.99 16.04 C 132.69 14.56 128.82 15.24 125.56 16.52 M 172.75 59.75 C 176.57 57.27 179.65 53.30 179.16 48.49 C 176.29 51.76 174.43 55.77 172.75 59.75 M 193.49 58.71 C 197.71 57.61 200.11 53.17 202.36 49.72 C 198.37 51.42 195.86 55.26 193.49 58.71 M 117.78 86.73 C 116.86 88.77 117.01 91.08 116.86 93.27 C 120.10 89.61 122.27 85.15 124.13 80.68 C 121.67 82.26 119.15 84.06 117.78 86.73 Z" />
<path fill="#ffffff" opacity="1.00" d=" M 289.34 17.25 C 290.60 13.65 295.12 16.42 296.27 18.76 C 300.41 24.32 298.79 31.49 297.81 37.78 C 294.90 48.25 289.37 58.00 281.76 65.78 C 279.55 67.83 278.15 71.76 274.59 71.38 C 276.72 67.99 279.53 65.13 282.29 62.27 C 289.68 53.72 295.14 43.27 296.84 32.04 C 297.04 27.07 297.82 21.40 293.73 17.66 C 287.18 29.02 282.86 41.59 275.56 52.56 C 269.00 62.35 262.52 72.22 255.32 81.57 C 260.61 83.91 266.51 83.89 272.06 85.31 C 277.33 85.24 282.83 86.74 287.97 85.12 C 291.29 77.89 295.97 71.07 302.66 66.56 C 303.81 65.91 305.35 65.34 306.54 66.28 C 308.97 68.16 308.95 71.77 308.42 74.52 C 307.09 78.24 304.36 81.37 303.60 85.33 C 307.34 83.73 309.48 80.04 312.72 77.74 C 315.34 75.93 316.99 73.19 318.84 70.68 C 320.43 72.76 321.36 75.14 320.47 77.75 C 323.75 75.73 327.10 73.62 330.85 72.60 C 336.20 76.08 331.14 81.88 331.41 86.58 C 334.21 86.15 337.58 85.96 339.37 83.42 C 342.85 78.95 346.95 74.67 352.52 72.95 C 350.07 65.30 352.33 57.33 355.04 50.09 C 357.08 45.50 359.76 40.79 364.33 38.30 C 366.14 37.00 369.10 36.31 370.63 38.40 C 373.19 41.95 374.14 46.66 372.92 50.90 C 371.26 57.04 368.23 62.70 365.27 68.29 C 359.95 77.58 352.77 86.59 342.77 91.03 C 340.03 92.52 338.13 89.52 337.11 87.43 C 334.79 88.60 332.56 90.04 330.02 90.72 C 326.56 86.58 330.36 81.35 330.37 76.71 C 323.29 78.12 318.66 84.10 314.01 89.07 C 311.45 88.42 311.89 85.70 311.53 83.65 C 308.46 85.74 305.92 90.91 301.65 89.47 C 299.69 87.70 300.68 84.73 300.27 82.42 C 297.28 84.81 294.69 87.85 291.11 89.40 C 289.42 88.85 287.82 87.82 285.98 88.20 C 275.51 88.68 265.21 86.43 254.90 85.00 C 252.30 84.58 250.60 87.75 248.04 87.36 C 243.63 86.07 240.51 81.90 239.84 77.43 C 243.22 78.38 246.29 80.35 249.80 80.83 C 251.75 79.85 252.94 77.91 254.26 76.24 C 262.32 65.19 270.35 54.06 277.17 42.19 C 281.91 34.22 285.44 25.63 289.34 17.25 M 367.35 41.10 C 360.05 44.79 356.47 53.25 355.05 60.92 C 354.17 65.49 352.54 71.01 355.93 74.96 C 362.48 69.57 365.54 61.47 369.08 54.03 C 370.69 50.41 371.40 46.29 370.58 42.38 C 370.20 40.89 368.63 39.98 367.35 41.10 M 303.40 70.36 C 298.15 73.26 295.48 79.09 292.71 84.14 C 296.12 81.79 299.58 79.46 302.73 76.77 C 304.03 74.80 305.83 72.58 305.20 70.08 C 304.75 70.15 303.85 70.29 303.40 70.36 M 343.65 86.36 C 347.27 84.62 351.04 82.16 352.40 78.17 C 348.01 78.39 343.93 81.84 343.65 86.36 M 244.44 82.52 C 243.84 84.14 247.38 85.20 247.65 83.47 C 247.11 82.44 245.45 81.84 244.44 82.52 Z" />
<path fill="#ffffff" opacity="1.00" d=" M 153.67 49.84 C 156.10 50.29 157.74 52.13 158.89 54.21 C 156.02 54.26 153.83 52.83 153.67 49.84 Z" />
<path fill="#ffffff" opacity="1.00" d=" M 381.64 61.45 C 383.66 62.36 384.90 64.16 385.44 66.27 C 382.68 66.13 381.86 63.85 381.64 61.45 Z" />
<path fill="#ffffff" opacity="1.00" d=" M 411.49 76.49 C 414.34 73.36 417.92 70.89 421.99 69.65 C 424.15 71.64 425.09 74.54 426.42 77.09 C 426.11 78.38 425.06 79.29 424.34 80.35 C 415.87 90.93 409.36 102.87 402.39 114.44 C 401.41 116.26 398.58 117.94 396.87 116.11 C 394.81 114.41 395.49 111.36 396.03 109.11 C 398.33 101.39 403.92 95.03 410.33 90.34 C 412.86 88.30 416.28 87.00 417.32 83.62 C 413.50 85.23 410.37 88.05 406.73 89.94 C 404.75 90.94 403.71 88.52 403.31 86.99 C 404.64 82.58 408.48 79.72 411.49 76.49 M 414.30 79.59 C 416.74 78.79 419.12 77.63 420.89 75.71 C 418.01 74.21 415.65 77.48 414.30 79.59 M 398.92 112.73 C 403.06 108.25 405.87 102.70 408.43 97.21 C 403.43 100.80 399.64 106.55 398.92 112.73 Z" />
<path fill="#ffffff" opacity="1.00" d=" M 370.08 82.89 C 375.85 80.42 380.61 76.00 385.11 71.69 C 386.09 72.68 386.96 73.78 387.71 74.96 C 386.93 76.67 385.84 78.22 384.97 79.88 C 389.10 78.76 392.30 75.37 396.61 74.89 C 397.93 78.43 396.24 82.02 395.95 85.59 C 397.00 86.44 398.05 87.29 399.11 88.15 C 397.46 89.01 395.63 90.61 393.78 89.24 C 392.07 85.46 394.32 81.42 394.73 77.58 C 391.48 79.26 388.61 81.54 385.71 83.73 C 383.72 85.25 383.04 88.72 380.22 88.86 C 377.00 86.55 380.64 82.70 381.29 79.90 C 376.16 82.43 372.37 86.80 367.64 89.89 C 366.07 91.14 363.79 88.66 364.53 87.02 C 366.09 81.54 369.78 77.05 373.26 72.67 C 374.68 73.10 375.28 74.50 375.15 75.90 C 373.85 78.50 371.52 80.38 370.08 82.89 Z" />
</g>
</svg>
