<?xml version="1.0" encoding="UTF-8" ?>
<!DOCTYPE svg PUBLIC "-//W3C//DTD SVG 1.1//EN" "http://www.w3.org/Graphics/SVG/1.1/DTD/svg11.dtd">
<svg width="256pt" height="128pt" viewBox="0 0 256 128" version="1.1" xmlns="http://www.w3.org/2000/svg">
<g id="#ffffffff">
<path fill="#ffffff" opacity="1.00" d=" M 72.15 12.14 C 76.48 7.72 81.49 3.99 87.05 1.24 C 88.49 1.93 89.68 3.04 90.92 4.03 C 85.55 4.47 81.83 8.68 77.90 11.87 C 70.58 17.98 65.64 26.26 59.13 33.12 C 51.01 45.58 45.68 59.84 35.93 71.24 C 32.38 70.98 32.92 66.63 33.11 64.07 C 34.62 55.88 37.57 48.03 40.23 40.16 C 42.17 34.15 47.44 28.82 45.93 22.07 C 45.20 19.39 44.58 15.81 41.98 14.43 C 33.13 16.95 25.19 22.22 18.82 28.80 C 16.92 30.74 15.29 34.20 17.31 36.59 C 20.39 38.55 24.23 38.44 27.75 38.56 C 29.28 38.39 29.83 39.84 30.42 40.93 C 26.13 42.50 21.36 41.29 17.25 39.71 C 13.31 38.17 12.20 32.93 14.65 29.64 C 18.80 24.05 24.92 20.39 30.67 16.65 C 34.10 14.34 38.34 14.08 42.14 12.70 C 44.17 11.91 45.58 14.16 46.36 15.69 C 48.35 19.90 50.23 24.83 48.62 29.48 C 44.68 39.97 38.96 50.04 37.51 61.29 C 42.63 57.02 44.52 50.44 47.85 44.90 C 54.04 32.72 62.52 21.80 72.15 12.14 Z" />
<path fill="#ffffff" opacity="1.00" d=" M 213.08 12.75 C 215.45 12.36 216.43 15.72 215.37 17.44 C 212.83 23.51 209.70 29.38 205.94 34.77 C 203.80 34.20 205.59 31.86 205.80 30.57 C 207.93 24.53 210.42 18.57 213.08 12.75 Z" />
<path fill="#ffffff" opacity="1.00" d=" M 101.37 21.33 C 103.18 22.98 103.96 25.24 104.05 27.65 C 108.72 27.25 113.38 26.69 118.02 26.05 C 120.22 25.83 121.37 23.72 122.76 22.28 C 124.56 23.74 126.36 25.87 128.94 25.49 C 134.89 25.25 140.84 24.90 146.75 24.33 C 149.04 24.35 149.88 26.77 150.12 28.66 C 145.30 29.19 140.44 29.12 135.60 29.56 C 132.20 29.90 128.63 29.17 125.33 30.24 C 123.22 33.73 122.28 37.78 120.50 41.43 C 118.67 46.23 115.51 50.99 116.56 56.36 C 120.80 56.59 124.26 53.80 127.56 51.54 C 130.19 49.56 133.69 48.42 135.23 45.27 C 137.57 41.06 139.55 35.58 144.90 34.54 C 147.05 35.64 149.09 38.28 148.03 40.78 C 146.72 44.45 142.90 45.98 139.82 47.84 C 136.81 49.56 136.20 53.28 135.84 56.42 C 144.49 55.20 150.45 48.08 155.78 41.81 C 158.69 38.25 162.25 35.08 163.86 30.66 C 166.36 31.84 169.18 32.77 171.03 34.92 C 171.92 36.73 172.08 38.83 172.13 40.81 C 169.02 45.53 166.22 50.54 164.54 55.96 C 164.71 56.70 165.05 58.19 165.22 58.93 C 175.49 56.46 184.08 47.81 186.65 37.56 C 187.71 38.82 189.71 39.97 189.24 41.90 C 187.67 49.26 181.84 54.69 176.17 59.17 C 172.44 61.28 168.33 64.90 163.77 63.48 C 160.96 61.38 160.05 57.39 160.99 54.10 C 162.20 48.12 166.21 43.32 168.71 37.89 C 166.22 33.70 162.79 38.76 160.96 40.92 C 156.32 49.43 148.75 56.20 139.91 60.14 C 138.24 60.88 135.90 61.20 134.61 59.58 C 133.22 57.79 132.93 55.45 132.14 53.37 C 128.63 56.26 124.91 59.07 120.62 60.67 C 116.54 62.09 112.43 58.03 112.60 54.03 C 112.46 46.49 117.44 40.35 119.74 33.47 C 112.53 40.15 108.78 49.82 100.99 55.96 C 98.84 57.66 96.67 59.51 94.04 60.42 C 91.90 60.21 90.19 58.15 90.49 55.99 C 90.76 50.31 93.65 45.25 94.91 39.79 C 90.51 43.59 88.28 49.14 84.32 53.32 C 80.36 57.60 75.43 61.20 69.84 63.00 C 66.00 63.55 62.81 60.32 62.61 56.56 C 59.98 56.50 57.32 56.70 54.73 56.19 C 54.04 55.19 53.51 54.11 53.12 52.95 C 56.67 52.99 60.40 52.52 63.30 50.30 C 65.09 43.99 67.75 36.70 74.39 34.10 C 76.40 32.35 78.43 34.92 79.36 36.61 C 80.59 40.14 77.90 43.37 76.40 46.36 C 74.44 50.16 70.79 52.55 67.12 54.50 C 66.85 56.11 66.72 57.75 66.70 59.38 C 71.07 57.92 75.15 55.61 78.81 52.81 C 85.43 47.60 89.72 40.22 94.53 33.45 C 91.62 33.26 88.18 35.35 85.84 32.78 C 85.83 32.12 85.82 30.81 85.82 30.16 C 89.20 28.71 93.06 29.49 96.56 28.44 C 99.08 26.87 99.73 23.65 101.37 21.33 M 103.35 32.26 C 100.89 34.81 100.11 38.53 98.62 41.67 C 97.07 45.95 94.88 50.14 94.79 54.78 C 96.73 53.82 98.86 53.02 100.37 51.40 C 106.01 44.62 111.51 37.72 116.77 30.65 C 112.30 31.18 107.74 31.18 103.35 32.26 M 73.37 39.36 C 71.05 41.96 68.54 44.77 68.27 48.42 C 71.94 45.85 75.26 42.32 76.87 38.09 C 75.54 37.88 74.17 38.22 73.37 39.36 Z" />
<path fill="#ffffff" opacity="1.00" d=" M 233.72 42.74 C 236.88 41.10 239.16 38.30 241.99 36.19 C 242.86 37.25 245.17 38.28 244.41 39.92 C 241.60 46.71 239.25 53.86 234.74 59.76 C 233.75 61.15 231.82 62.34 230.22 61.15 C 228.11 59.24 226.15 57.15 224.24 55.04 C 226.09 51.37 230.02 54.29 232.10 56.08 C 234.09 53.02 235.98 49.83 236.84 46.23 C 233.46 47.50 230.57 49.73 227.29 51.22 C 219.88 54.95 211.70 57.14 204.86 61.98 C 200.19 63.99 196.07 66.97 191.81 69.68 C 188.51 70.43 188.68 66.10 191.03 65.07 C 195.80 62.22 200.05 58.50 205.23 56.37 C 214.75 51.87 224.55 47.96 233.72 42.74 Z" />
<path fill="#ffffff" opacity="1.00" d=" M 100.98 68.95 C 105.99 66.39 111.20 63.80 116.84 63.10 C 119.68 64.10 120.88 67.51 121.53 70.21 C 121.50 75.19 122.60 80.96 119.18 85.14 C 115.25 89.51 110.47 93.26 104.91 95.31 C 103.58 95.88 101.54 95.40 101.02 93.91 C 100.64 92.09 100.95 90.21 100.86 88.37 C 98.82 90.16 96.83 92.05 95.22 94.25 C 95.94 96.44 97.66 98.40 97.19 100.84 C 94.92 101.04 93.04 99.85 91.08 98.95 C 85.62 104.65 79.43 109.75 74.55 115.97 C 75.92 118.72 78.43 120.97 81.49 121.60 C 88.80 123.37 96.52 121.54 103.05 118.07 C 107.12 115.90 111.65 114.30 114.96 110.96 C 117.82 108.19 118.27 103.87 121.02 101.01 C 123.29 98.65 125.99 96.58 129.04 95.35 C 133.15 96.31 135.06 101.84 133.34 105.54 C 131.83 104.03 130.98 102.03 129.60 100.43 C 126.91 99.94 124.88 102.84 124.25 105.16 C 123.28 109.83 117.32 112.16 118.59 117.48 C 124.48 116.73 129.69 113.74 134.65 110.69 C 137.54 108.69 140.96 106.80 142.16 103.26 C 145.20 94.49 149.13 85.99 154.25 78.24 C 155.91 76.26 157.39 73.66 160.05 72.97 C 163.73 73.46 165.32 78.54 163.63 81.57 C 160.88 87.23 157.82 92.85 153.53 97.52 C 149.66 102.12 145.03 106.29 142.73 111.97 C 149.48 108.78 155.93 104.97 162.97 102.36 C 165.02 102.96 165.37 105.86 164.68 107.61 C 163.47 110.79 162.22 113.99 162.06 117.43 C 169.36 114.99 174.86 109.47 180.58 104.60 C 184.23 101.44 186.80 97.27 190.23 93.89 C 194.28 93.39 196.02 98.74 195.25 102.00 C 193.93 110.75 187.22 119.93 177.85 120.67 C 176.48 117.64 177.36 114.47 178.04 111.41 C 171.95 115.40 166.58 121.46 159.06 122.51 C 157.84 117.56 159.44 112.65 160.57 107.85 C 152.96 110.42 145.84 114.60 140.09 120.23 C 139.21 121.63 137.66 121.39 136.25 121.32 C 136.21 119.05 136.48 116.79 136.67 114.52 C 130.94 117.85 125.12 122.16 118.19 122.05 C 116.20 121.01 115.50 118.68 114.33 116.92 C 106.29 121.03 98.36 126.48 89.06 126.98 C 83.87 126.78 77.34 126.83 74.18 121.90 C 73.10 120.80 72.70 118.68 71.02 118.39 C 67.00 120.92 63.83 124.61 59.81 127.10 C 57.55 128.17 58.14 124.81 58.62 123.66 C 62.42 119.87 68.15 117.74 70.55 112.65 C 70.85 108.44 69.86 103.52 73.23 100.23 C 77.62 96.00 83.80 94.45 89.35 92.35 C 89.94 88.44 89.86 84.33 91.64 80.69 C 93.81 76.17 96.91 71.93 100.98 68.95 M 96.24 79.22 C 93.37 82.94 92.54 87.73 92.71 92.32 C 95.61 89.35 98.74 86.58 101.28 83.30 C 102.64 81.81 102.45 78.41 105.13 78.88 C 105.60 83.16 103.41 87.20 103.49 91.50 C 108.07 90.29 111.82 87.29 115.58 84.58 C 119.61 81.41 119.86 75.74 119.07 71.08 C 118.74 69.91 118.26 68.08 116.77 68.03 C 108.84 68.83 100.85 72.52 96.24 79.22 M 158.33 79.41 C 154.32 84.14 151.55 89.84 149.59 95.70 C 153.50 92.53 156.41 88.31 159.02 84.04 C 160.07 82.08 161.54 80.16 161.36 77.82 C 160.10 77.91 159.09 78.43 158.33 79.41 M 189.79 97.46 C 188.60 104.14 181.38 108.18 181.47 115.35 C 186.26 112.63 190.58 108.32 191.63 102.71 C 192.30 100.69 191.19 98.83 189.79 97.46 M 76.16 103.17 C 73.92 104.86 74.14 107.96 74.10 110.46 C 78.82 107.16 82.89 102.98 86.54 98.55 C 82.78 99.27 79.21 100.87 76.16 103.17 Z" />
</g>
</svg>
