<?xml version="1.0" encoding="UTF-8" ?>
<!DOCTYPE svg PUBLIC "-//W3C//DTD SVG 1.1//EN" "http://www.w3.org/Graphics/SVG/1.1/DTD/svg11.dtd">
<svg width="512pt" height="128pt" viewBox="0 0 512 128" version="1.1" xmlns="http://www.w3.org/2000/svg">
<g id="#ffffffff">
<path fill="#ffffff" opacity="1.00" d=" M 118.06 18.09 C 125.21 12.44 133.51 6.87 143.02 7.11 C 153.27 6.19 160.96 18.09 158.23 27.32 C 154.12 36.04 146.04 42.12 137.98 46.99 C 135.32 48.68 130.87 49.92 128.70 46.86 C 128.35 43.68 129.78 40.69 130.40 37.64 C 123.11 44.05 115.64 50.32 108.62 57.02 C 111.79 60.31 116.30 62.69 120.97 62.29 C 125.65 62.03 130.21 60.89 134.80 60.01 C 140.15 58.98 144.82 56.03 149.61 53.59 C 150.90 53.03 150.95 51.41 151.45 50.28 C 154.01 40.81 160.54 33.12 167.25 26.25 C 169.75 24.07 171.99 21.28 175.22 20.19 C 177.80 19.29 180.49 21.58 180.81 24.09 C 180.83 25.84 179.60 27.24 178.58 28.54 C 172.87 34.85 168.67 42.59 161.72 47.70 C 159.27 50.14 156.87 52.63 154.31 54.96 C 154.54 55.70 155.00 57.18 155.23 57.92 C 159.19 58.62 163.03 57.20 166.61 55.65 C 176.22 51.84 181.47 41.72 191.10 37.90 C 194.99 36.16 200.80 40.94 197.89 44.88 C 194.82 48.54 190.15 51.22 189.58 56.47 C 192.12 55.10 194.65 53.69 197.02 52.05 C 199.58 50.27 201.06 47.41 203.34 45.35 C 205.02 44.63 206.24 46.45 206.28 47.95 C 205.12 51.26 202.27 53.55 200.66 56.62 C 205.89 54.18 210.22 50.29 214.40 46.40 C 215.70 45.19 216.99 47.16 217.84 47.96 C 216.49 51.42 214.49 54.73 214.56 58.57 C 220.11 56.61 224.44 51.89 226.36 46.39 C 227.09 44.46 226.12 42.47 225.88 40.55 C 228.21 40.24 230.52 41.66 230.62 44.15 C 230.09 47.71 228.60 51.04 227.67 54.50 C 234.93 53.16 241.67 50.05 248.66 47.78 C 252.42 46.58 255.83 44.58 259.16 42.50 C 259.63 43.65 260.01 44.83 260.33 46.03 C 257.83 52.99 254.48 60.28 247.77 64.10 C 246.59 64.59 245.40 64.63 244.20 64.21 C 241.36 62.03 238.25 59.12 239.04 55.17 L 238.56 54.69 C 233.37 55.79 228.47 59.90 223.02 58.34 C 220.72 59.84 218.49 61.49 215.98 62.62 C 212.48 62.12 210.80 58.70 209.81 55.71 C 206.40 57.41 203.97 61.15 199.82 61.58 C 197.36 62.39 196.26 59.67 195.02 58.13 C 192.48 59.45 190.13 61.63 187.15 61.72 C 185.06 61.69 184.39 59.42 183.40 58.00 C 181.24 59.57 179.11 61.87 176.23 61.73 C 173.96 61.54 172.88 59.23 171.49 57.75 C 166.32 60.28 160.58 62.94 154.69 61.33 C 153.02 60.10 151.83 58.32 150.09 57.17 C 145.73 59.16 141.40 61.27 136.85 62.81 C 131.02 64.41 125.00 65.23 118.95 65.39 C 114.32 64.01 109.82 61.94 105.98 58.97 C 102.60 61.78 99.85 65.21 96.83 68.37 C 95.49 68.23 95.03 67.56 95.46 66.34 C 97.30 62.38 101.37 60.16 103.95 56.76 C 104.54 54.25 102.93 51.64 103.38 49.01 C 102.93 37.06 109.42 25.91 118.06 18.09 M 113.90 27.89 C 108.98 35.44 104.18 45.12 107.68 54.16 C 116.65 45.87 126.26 38.23 134.39 29.07 C 135.39 29.34 136.06 29.98 136.37 30.98 C 134.69 35.94 131.86 40.62 131.66 45.99 C 137.21 45.00 141.45 41.10 145.74 37.76 C 149.89 34.39 154.02 30.34 155.30 24.96 C 156.02 21.21 154.86 17.30 152.84 14.14 C 150.57 10.65 146.05 9.28 142.08 9.80 C 130.74 11.74 120.91 19.02 113.90 27.89 M 173.16 26.24 C 166.70 32.56 160.11 39.17 156.55 47.64 C 160.96 45.53 163.42 41.13 166.92 37.93 C 168.43 36.42 170.45 35.28 171.23 33.18 C 172.54 29.77 176.69 28.25 176.84 24.24 C 175.48 24.68 174.25 25.34 173.16 26.24 M 177.62 56.75 C 182.58 53.57 187.44 49.89 190.96 45.09 C 192.20 45.66 193.42 46.27 194.64 46.90 C 194.71 45.03 194.77 43.17 194.81 41.31 C 187.10 43.43 181.09 49.76 177.62 56.75 M 240.61 53.99 C 240.49 54.16 240.25 54.51 240.13 54.68 C 242.39 56.52 245.31 57.96 245.89 61.09 C 250.15 58.25 253.21 54.00 255.20 49.34 C 250.32 50.83 245.53 52.62 240.61 53.99 Z" />
<path fill="#ffffff" opacity="1.00" d=" M 331.52 39.56 C 334.86 34.43 336.96 28.65 340.02 23.37 C 343.33 28.14 338.71 32.67 336.85 36.92 C 335.01 39.72 333.85 44.26 329.80 44.16 C 330.11 42.54 330.56 40.93 331.52 39.56 Z" />
<path fill="#ffffff" opacity="1.00" d=" M 272.88 45.98 C 278.44 44.33 284.54 42.13 290.31 43.87 C 293.31 46.75 289.50 50.75 289.21 54.12 C 293.43 52.42 297.41 50.00 301.88 48.96 C 303.94 48.98 304.62 51.23 304.83 52.91 C 303.99 55.77 301.16 58.00 302.25 61.24 C 307.95 59.53 312.64 55.68 316.22 51.03 C 319.05 49.88 319.10 54.16 317.50 55.39 C 314.13 58.07 310.10 60.02 307.52 63.59 C 305.14 64.44 302.42 64.25 300.06 65.40 C 296.42 62.51 299.90 57.71 299.92 53.97 C 294.14 55.24 288.72 58.46 285.12 63.18 C 283.64 66.14 280.40 62.06 281.67 60.09 C 283.54 55.81 286.13 51.86 287.79 47.47 C 283.90 47.49 279.58 47.18 276.14 49.33 C 275.45 53.17 275.17 57.38 272.43 60.45 C 270.27 62.84 267.57 65.60 264.16 65.66 C 260.67 64.69 260.66 60.32 261.72 57.54 C 263.75 52.88 266.12 48.12 270.12 44.83 C 271.42 44.89 272.09 45.57 272.14 46.88 C 269.19 51.44 264.67 55.42 264.26 61.19 C 270.27 58.99 274.72 52.41 272.88 45.98 Z" />
<path fill="#ffffff" opacity="1.00" d=" M 352.68 50.68 C 355.64 49.33 358.30 47.43 361.24 46.03 C 363.14 44.74 364.66 47.37 364.99 48.93 C 363.16 52.88 360.14 56.12 358.34 60.07 C 360.23 60.02 362.68 58.03 364.09 60.07 C 362.05 65.51 355.46 63.83 350.95 64.17 C 347.17 64.33 345.24 60.91 343.84 57.97 C 339.73 60.28 335.40 62.18 331.15 64.21 C 329.82 65.00 328.27 64.75 326.81 64.71 C 326.56 64.01 326.05 62.62 325.79 61.92 C 330.45 59.89 335.21 58.12 339.77 55.87 C 343.96 53.85 348.55 52.85 352.68 50.68 M 347.15 57.03 C 347.31 57.67 347.64 58.95 347.80 59.59 C 352.31 60.46 355.54 56.06 357.63 52.70 C 353.95 53.63 350.47 55.22 347.15 57.03 Z" />
<path fill="#ffffff" opacity="1.00" d=" M 225.89 87.87 C 230.14 82.04 234.50 75.47 241.57 72.86 C 245.06 79.31 239.48 85.85 237.10 91.67 C 242.44 87.92 246.91 83.01 252.40 79.45 C 254.06 78.64 256.54 76.99 258.06 78.87 C 259.82 80.65 260.84 83.35 259.90 85.79 C 258.30 90.93 254.47 95.02 250.46 98.44 C 246.56 101.78 241.63 103.40 237.28 105.99 C 238.04 108.24 238.43 111.41 241.16 112.13 C 244.10 112.77 247.08 111.70 249.89 110.90 C 252.38 110.11 253.26 107.43 254.35 105.33 C 256.15 101.54 259.64 98.86 263.23 96.88 C 265.32 95.54 267.94 97.83 267.87 100.03 C 267.84 102.58 266.17 104.74 264.48 106.49 C 261.85 109.25 257.57 109.97 255.63 113.46 C 259.67 112.89 262.80 109.96 266.57 108.59 C 275.25 105.00 282.86 99.47 290.57 94.22 C 291.17 95.80 291.92 97.38 292.04 99.09 C 291.21 103.32 288.38 106.74 286.66 110.61 C 289.53 110.28 292.44 109.55 294.78 107.75 C 299.50 104.39 304.19 100.66 307.31 95.69 C 303.55 95.18 298.42 97.12 296.12 93.01 C 297.16 90.75 299.96 91.36 301.98 90.95 C 304.94 90.45 308.18 91.17 310.97 89.97 C 313.31 87.71 313.91 84.27 315.95 81.76 C 318.22 84.14 317.94 87.22 317.15 90.14 C 318.97 90.22 320.81 90.22 322.61 89.84 C 329.19 88.62 335.91 88.06 342.60 88.51 C 342.48 90.05 342.35 91.59 342.21 93.13 C 335.46 93.56 328.73 94.11 322.00 94.64 C 318.77 94.74 314.24 94.00 312.61 97.61 C 310.52 102.30 306.40 106.05 305.77 111.34 C 311.89 111.86 316.84 107.59 320.34 103.08 C 321.72 101.27 322.34 104.89 322.07 105.84 C 319.20 111.25 313.55 114.41 307.93 116.32 C 305.74 116.77 302.73 116.33 302.16 113.75 C 301.81 110.87 303.14 108.15 303.61 105.36 C 298.24 107.82 294.44 114.71 287.83 113.60 C 285.08 113.29 282.64 114.62 281.00 116.78 C 277.30 115.89 274.07 113.88 272.52 110.28 C 267.62 112.90 262.83 115.83 257.67 117.90 C 255.12 118.97 253.33 116.56 251.70 115.04 C 248.02 115.89 244.03 117.41 240.34 115.77 C 236.29 114.22 234.91 109.69 233.78 105.92 C 232.69 103.70 235.14 102.34 236.84 101.63 C 244.61 98.50 251.71 93.12 255.91 85.77 C 256.05 84.98 256.33 83.39 256.47 82.60 C 252.40 84.66 248.86 87.58 245.04 90.04 C 239.04 93.96 234.73 99.76 229.97 104.99 C 226.79 108.32 225.49 113.06 221.97 116.09 C 219.80 115.79 218.56 113.70 219.84 111.79 C 225.55 100.75 234.39 91.29 238.17 79.28 C 234.36 80.41 231.50 83.29 229.74 86.77 C 224.90 95.26 218.19 102.48 211.17 109.20 C 206.98 113.20 202.12 116.68 196.54 118.41 C 192.67 119.62 187.33 118.02 186.37 113.66 C 185.62 109.23 186.43 104.56 188.65 100.65 C 192.37 93.69 199.27 89.38 206.23 86.17 C 211.07 89.29 208.72 95.42 206.38 99.36 C 204.44 102.13 202.83 106.73 198.64 105.90 C 201.13 100.57 205.98 96.36 206.70 90.22 C 202.58 90.90 199.54 93.92 196.52 96.54 C 191.59 101.00 188.41 107.90 189.41 114.58 C 192.65 115.72 196.00 114.19 198.97 112.94 C 210.32 107.64 218.69 97.84 225.89 87.87 M 256.22 108.35 C 260.13 106.54 263.38 103.15 265.45 99.41 C 261.02 100.12 258.27 104.69 256.22 108.35 M 275.36 108.98 C 276.99 110.40 279.33 111.45 281.44 110.39 C 284.64 108.66 285.59 104.80 286.73 101.63 C 282.97 104.10 278.53 105.71 275.36 108.98 Z" />
</g>
</svg>
