<?xml version="1.0" encoding="UTF-8" ?>
<!DOCTYPE svg PUBLIC "-//W3C//DTD SVG 1.1//EN" "http://www.w3.org/Graphics/SVG/1.1/DTD/svg11.dtd">
<svg width="512pt" height="128pt" viewBox="0 0 512 128" version="1.1" xmlns="http://www.w3.org/2000/svg">
<g id="#ffffffff">
<path fill="#ffffff" opacity="1.00" d=" M 86.40 59.15 C 88.73 45.05 100.97 33.58 115.06 31.67 C 121.62 31.73 126.66 37.47 128.79 43.24 C 130.75 48.56 127.51 53.70 125.51 58.47 C 122.29 65.91 115.69 70.94 110.35 76.76 C 116.28 76.54 121.98 74.56 127.50 72.53 C 130.12 71.51 130.13 68.34 131.21 66.15 C 134.55 58.56 138.10 50.76 144.14 44.89 C 146.95 45.17 148.24 48.50 148.20 50.99 C 148.25 53.97 145.58 55.84 143.97 58.02 C 141.52 60.83 141.45 65.36 137.68 67.02 C 138.63 64.49 139.69 62.01 140.33 59.38 C 141.38 55.32 145.96 52.94 145.83 48.47 C 144.97 49.05 144.18 49.72 143.48 50.48 C 138.45 57.19 135.08 65.00 133.00 73.09 C 133.08 74.26 133.31 75.40 133.66 76.53 C 137.34 76.69 140.80 75.09 144.29 74.15 C 150.34 72.63 152.59 65.82 158.38 63.71 C 156.98 55.10 158.95 46.01 163.66 38.69 C 164.66 36.96 167.18 34.81 168.84 37.06 C 171.21 42.03 170.29 47.93 169.34 53.19 C 167.68 60.25 164.93 67.45 159.54 72.53 C 156.04 76.12 152.40 81.04 146.76 80.54 C 146.63 78.98 146.52 77.41 146.45 75.84 C 142.39 77.75 138.14 80.16 133.49 79.51 C 130.62 78.92 130.25 75.65 129.43 73.37 C 122.53 76.15 115.62 79.76 107.99 79.72 C 104.11 79.82 100.99 83.09 96.99 82.59 C 91.67 82.45 88.10 76.92 88.42 71.95 C 88.89 67.50 85.46 63.66 86.40 59.15 M 113.46 34.56 C 104.09 36.64 95.82 43.13 91.90 51.94 C 88.77 57.71 89.41 64.93 92.36 70.63 C 94.40 74.67 99.04 76.17 103.20 76.88 C 105.51 77.16 107.28 75.28 109.01 74.05 C 114.37 69.40 120.04 64.64 123.08 58.06 C 125.23 53.47 128.60 48.50 126.87 43.22 C 124.93 37.96 119.43 32.93 113.46 34.56 M 160.50 56.23 C 160.02 59.35 159.77 62.62 160.87 65.65 C 166.30 58.02 168.58 48.38 167.46 39.11 C 162.94 43.68 161.71 50.18 160.50 56.23 M 150.51 75.63 C 154.07 75.30 155.77 72.07 157.25 69.25 C 154.36 70.59 152.01 72.83 150.51 75.63 M 90.21 72.57 C 90.67 75.10 91.03 78.07 93.44 79.56 C 95.65 80.96 98.25 80.10 100.44 79.16 C 96.67 77.56 93.15 75.45 90.21 72.57 Z" />
<path fill="#ffffff" opacity="1.00" d=" M 348.02 44.89 C 352.15 44.34 357.33 47.49 360.10 43.00 C 361.06 43.80 361.59 45.51 363.06 45.45 C 368.85 45.61 374.75 45.18 380.26 43.27 C 381.71 44.33 382.53 46.47 380.42 47.30 C 373.61 49.85 366.16 48.88 359.05 49.06 C 356.59 52.78 354.35 56.65 352.67 60.78 C 354.32 60.54 356.73 61.48 357.62 59.54 C 358.90 57.35 359.81 54.97 361.15 52.81 C 362.67 55.47 362.79 58.55 362.84 61.54 C 357.34 63.67 358.28 70.83 353.77 73.83 C 353.38 70.43 354.79 67.24 355.38 63.95 C 353.83 64.25 352.24 64.40 350.76 64.94 C 347.38 69.49 345.98 75.19 342.80 79.87 C 342.22 81.19 340.72 81.12 339.75 80.29 C 337.42 78.24 335.93 75.45 333.84 73.18 C 332.30 71.44 329.88 71.07 327.85 70.19 C 329.40 69.33 330.80 67.29 332.79 68.07 C 336.24 70.26 338.45 73.86 341.24 76.78 C 343.39 73.14 345.16 69.28 347.09 65.52 C 343.59 64.79 337.79 65.75 337.64 60.67 C 341.51 60.75 345.90 62.41 349.49 60.64 C 351.78 56.90 353.54 52.87 355.52 48.97 C 347.67 48.45 339.80 48.43 331.96 47.76 C 324.73 47.41 316.94 46.74 310.29 50.19 C 311.34 51.58 312.43 53.19 314.25 53.61 C 321.29 55.67 328.87 56.49 336.03 54.57 C 338.35 53.97 338.41 57.00 336.38 57.39 C 329.93 60.15 322.58 58.45 315.96 57.12 C 312.69 56.35 308.03 55.12 307.93 50.99 C 307.86 47.54 311.56 46.21 314.24 45.27 C 318.33 43.72 322.74 44.59 326.99 44.24 C 334.01 43.31 340.97 45.55 348.02 44.89 Z" />
<path fill="#ffffff" opacity="1.00" d=" M 232.59 43.24 C 232.98 43.74 233.75 44.73 234.14 45.23 C 233.68 54.00 229.17 61.80 225.95 69.79 C 223.58 74.90 221.95 80.37 219.09 85.24 C 218.84 84.75 218.35 83.79 218.11 83.30 C 219.02 78.90 220.46 74.63 222.11 70.46 C 217.55 70.79 212.98 71.11 208.45 71.69 C 206.60 71.86 205.97 73.84 205.22 75.23 C 202.30 81.74 199.99 88.51 197.10 95.04 C 196.50 94.77 195.29 94.25 194.69 93.98 C 197.23 86.61 200.39 79.47 203.25 72.21 C 197.22 72.37 191.15 72.53 185.25 73.93 C 186.16 75.17 187.07 76.41 187.94 77.68 C 185.69 76.60 183.49 75.21 182.28 72.95 C 183.14 71.54 184.68 70.80 186.29 70.60 C 192.31 69.74 198.42 69.53 204.43 68.51 C 206.67 62.46 208.85 56.37 210.68 50.18 C 204.62 49.60 198.05 47.32 192.26 50.27 C 194.88 51.08 197.79 51.27 200.01 53.07 C 196.13 54.09 191.74 53.42 188.61 50.84 C 189.21 48.60 191.66 47.92 193.65 47.48 C 199.61 46.25 205.67 47.44 211.65 47.76 C 212.77 46.55 213.86 45.30 214.98 44.08 C 215.40 44.84 216.25 46.37 216.68 47.13 C 212.19 53.48 210.79 61.31 207.80 68.39 C 211.93 68.24 216.03 67.64 220.11 67.01 C 222.04 66.73 224.36 66.13 225.14 64.10 C 228.05 57.30 229.55 49.98 232.59 43.24 Z" />
<path fill="#ffffff" opacity="1.00" d=" M 277.63 60.65 C 279.33 62.09 282.16 63.25 282.02 65.88 C 281.27 68.99 279.94 71.94 279.30 75.09 C 285.02 72.63 290.05 68.84 295.12 65.28 C 296.15 68.28 294.64 71.02 293.73 73.81 C 298.41 70.02 303.77 66.81 307.18 61.72 C 307.93 62.92 309.71 64.05 308.58 65.58 C 306.42 70.18 304.96 75.09 302.60 79.59 C 296.18 89.25 292.02 100.18 286.04 110.09 C 282.73 109.35 282.42 105.74 282.28 102.93 C 282.13 97.28 284.22 91.82 287.03 87.01 C 289.24 83.37 293.74 82.46 296.86 79.87 C 299.39 77.44 300.97 74.22 302.33 71.04 C 297.31 72.15 295.53 80.44 289.71 78.46 C 290.00 76.40 290.36 74.35 290.71 72.29 C 287.75 74.11 284.75 75.88 281.94 77.92 C 280.09 79.14 277.77 80.62 275.52 79.51 C 273.61 74.32 278.54 70.06 278.91 65.06 C 276.11 65.45 274.65 68.04 272.87 69.92 C 269.26 73.95 265.59 77.97 261.50 81.53 C 259.72 82.95 255.82 83.81 255.30 80.71 C 254.70 76.20 257.37 72.22 258.44 68.00 C 251.30 71.49 248.61 79.94 241.79 83.84 C 240.83 83.92 239.87 83.93 238.92 83.87 C 238.41 82.01 238.00 80.14 237.57 78.26 C 235.72 81.04 233.76 84.40 229.93 84.29 C 228.58 77.60 233.03 71.09 237.80 66.80 C 239.49 65.55 242.74 63.06 244.14 65.87 C 245.94 68.09 243.72 70.62 242.59 72.57 C 241.09 74.65 240.85 77.26 240.68 79.74 C 247.30 75.54 251.16 68.10 258.20 64.39 C 259.66 65.61 261.75 66.80 261.53 69.02 C 261.21 72.56 258.77 75.43 257.74 78.77 C 262.41 78.34 265.11 74.18 268.25 71.25 C 271.69 68.00 274.77 64.41 277.63 60.65 M 236.64 71.65 C 235.21 74.68 233.41 77.52 232.15 80.62 C 233.89 79.57 235.18 78.01 236.32 76.36 C 238.08 73.70 240.89 71.79 241.77 68.59 C 239.89 69.21 237.58 69.68 236.64 71.65 M 285.57 104.20 C 288.75 98.57 291.62 92.73 293.91 86.68 C 287.57 89.84 284.59 97.42 285.57 104.20 Z" />
<path fill="#ffffff" opacity="1.00" d=" M 373.57 63.55 C 375.99 62.24 378.73 64.69 378.62 67.21 C 379.18 72.25 374.31 75.20 371.32 78.42 C 376.04 77.54 379.29 73.71 383.00 71.00 C 385.95 68.89 387.86 65.77 390.49 63.34 C 391.41 66.43 390.00 69.39 389.01 72.25 C 391.46 70.96 393.77 68.74 396.73 69.03 C 399.11 72.13 396.01 75.99 396.24 79.46 C 402.44 78.26 408.34 74.65 411.29 68.92 C 414.38 69.67 412.40 73.44 410.90 74.90 C 406.76 78.76 401.98 82.56 396.18 83.30 C 391.69 81.42 394.58 76.19 394.50 72.67 C 390.47 74.37 387.95 77.98 384.93 80.92 C 382.11 79.06 384.77 75.81 384.95 73.26 C 380.34 76.12 376.68 80.81 371.18 82.06 C 369.93 81.20 368.85 80.14 367.72 79.15 C 365.02 79.82 362.28 80.58 359.47 80.14 C 360.75 76.60 365.15 76.89 367.94 75.12 C 369.02 71.00 369.90 66.22 373.57 63.55 M 370.98 73.59 C 373.20 72.20 377.92 69.01 375.12 66.26 C 372.66 67.95 371.43 70.73 370.98 73.59 Z" />
</g>
</svg>
