<?xml version="1.0" encoding="UTF-8" ?>
<!DOCTYPE svg PUBLIC "-//W3C//DTD SVG 1.1//EN" "http://www.w3.org/Graphics/SVG/1.1/DTD/svg11.dtd">
<svg width="256pt" height="256pt" viewBox="0 0 256 256" version="1.1" xmlns="http://www.w3.org/2000/svg">
<g id="#ffffffff">
<path fill="#ffffff" opacity="1.00" d=" M 224.46 38.95 C 226.18 39.73 227.98 40.95 227.97 43.08 C 228.47 49.74 229.80 56.84 227.29 63.26 C 225.15 66.98 220.03 63.67 218.38 61.07 C 219.65 59.04 222.23 59.60 224.24 59.29 C 224.42 56.22 224.47 53.15 224.25 50.09 C 220.72 53.38 218.62 57.82 215.32 61.31 C 212.02 64.73 208.86 68.32 206.36 72.37 C 205.05 74.48 204.76 77.12 203.14 79.04 C 201.72 79.94 199.99 79.57 198.42 79.59 C 196.60 76.20 199.89 73.83 201.41 71.18 C 202.56 68.92 201.43 66.46 200.42 64.40 C 195.96 70.89 193.57 78.55 188.92 84.92 C 186.82 87.50 185.79 91.21 182.64 92.76 C 180.41 93.97 178.34 91.86 176.34 91.10 C 175.22 94.25 174.21 97.65 171.68 100.00 C 169.87 101.41 168.01 99.23 167.56 97.54 C 166.16 90.25 166.75 82.18 170.72 75.74 C 172.34 72.84 177.58 73.96 178.00 77.22 C 178.65 81.27 178.76 85.51 180.81 89.19 C 184.90 84.90 187.48 79.51 190.48 74.46 C 194.10 68.49 196.55 61.76 201.33 56.54 C 205.33 58.54 204.33 63.60 206.00 67.11 C 213.77 59.00 221.98 50.28 224.46 38.95 Z" />
<path fill="#ffffff" opacity="1.00" d=" M 147.67 62.52 C 150.14 60.00 153.58 62.91 154.74 65.33 C 155.44 70.09 155.29 75.03 154.53 79.79 C 153.64 85.54 151.05 91.15 152.00 97.06 C 152.61 101.42 152.92 105.96 155.00 109.93 C 158.97 106.88 159.74 101.59 160.66 97.00 C 159.33 95.53 156.01 94.43 157.94 92.08 C 160.90 90.55 164.02 92.97 164.12 96.07 C 164.40 101.33 163.13 106.79 160.35 111.30 C 158.91 113.42 155.91 115.72 153.40 113.86 C 148.65 110.93 149.09 104.66 147.92 99.87 C 145.33 103.63 141.85 106.56 138.59 109.67 C 136.98 115.32 136.90 121.93 132.37 126.30 C 131.27 128.14 129.12 127.98 127.27 128.28 C 124.31 130.64 123.36 135.19 119.59 136.56 C 116.42 136.98 113.87 134.46 111.27 133.06 C 111.20 137.86 109.58 142.39 106.79 146.26 C 104.73 145.48 102.14 144.62 101.82 142.07 C 100.44 134.65 100.86 126.43 104.75 119.80 C 105.66 117.72 110.31 116.72 109.97 119.83 C 105.42 125.20 102.83 133.35 105.78 139.98 C 108.14 135.24 107.91 129.82 108.21 124.67 C 108.88 124.71 110.22 124.77 110.89 124.81 C 112.76 127.81 114.02 132.19 117.91 133.07 C 121.89 130.67 125.42 125.96 124.58 121.05 C 123.98 115.20 125.18 109.12 128.48 104.20 C 124.36 96.83 122.05 88.09 123.83 79.68 C 124.72 76.90 126.45 73.28 129.88 73.38 C 133.94 73.90 136.30 77.91 137.81 81.33 C 141.16 88.76 138.79 96.99 139.17 104.80 C 143.90 101.14 147.93 95.28 147.09 89.03 C 146.37 82.37 146.82 75.66 146.86 68.98 C 147.00 66.82 146.77 64.55 147.67 62.52 M 151.00 65.04 C 150.82 71.24 150.71 77.47 150.96 83.67 C 153.57 80.30 153.09 75.95 153.26 71.95 C 153.19 69.52 153.24 66.60 151.00 65.04 M 130.08 76.48 C 126.03 81.72 126.56 89.00 129.08 94.78 C 130.49 98.01 131.41 102.03 135.07 103.44 C 136.96 94.41 138.45 82.84 130.08 76.48 M 128.90 116.20 C 130.52 113.72 131.69 110.97 132.28 108.07 C 129.66 109.85 127.77 112.96 128.90 116.20 Z" />
<path fill="#ffffff" opacity="1.00" d=" M 230.29 88.17 C 234.88 84.43 239.33 80.53 243.79 76.64 C 244.67 77.78 245.55 78.93 246.43 80.09 C 241.99 85.82 234.97 88.82 230.53 94.48 C 229.58 99.15 228.83 103.86 227.63 108.48 C 226.48 112.41 229.15 115.89 231.14 119.00 C 237.14 114.61 241.79 107.56 242.13 100.01 C 244.67 98.51 247.80 102.32 246.09 104.69 C 242.94 111.46 240.00 119.27 233.19 123.16 C 229.04 125.19 226.39 120.46 225.00 117.34 C 221.33 123.76 219.29 131.65 213.20 136.31 C 211.05 132.28 210.11 127.74 207.86 123.75 C 202.76 130.38 205.61 139.80 200.69 146.43 C 197.55 143.76 195.96 139.93 194.89 136.06 C 190.14 143.08 189.00 152.11 182.99 158.36 C 178.41 154.18 179.98 147.45 178.03 142.11 C 172.48 143.51 170.00 149.33 165.47 152.34 C 168.52 157.97 167.52 164.45 165.27 170.16 C 164.90 171.72 163.21 172.16 162.04 172.96 C 160.83 171.48 159.22 170.12 158.85 168.15 C 157.58 161.38 158.16 153.93 162.07 148.09 C 163.60 145.93 166.88 146.63 168.59 144.64 C 171.65 142.33 174.27 137.68 178.60 138.34 C 182.83 140.84 181.74 146.78 183.51 150.80 C 187.42 143.32 190.46 135.42 193.63 127.60 C 198.67 128.92 196.99 135.30 199.41 138.84 C 202.33 132.51 201.31 123.91 207.27 119.23 C 211.56 120.29 212.29 125.76 214.20 129.15 C 217.77 125.08 219.85 120.00 222.17 115.17 C 224.62 110.71 221.82 105.84 221.59 101.18 C 218.84 103.37 216.25 105.86 213.02 107.34 C 211.39 107.09 210.62 104.74 210.96 103.30 C 214.13 100.33 218.14 98.30 221.01 95.04 C 222.30 91.43 221.53 87.24 223.81 83.91 C 226.43 84.57 228.58 86.13 230.29 88.17 M 161.80 165.57 C 163.80 162.62 163.94 158.87 163.47 155.45 C 160.79 158.04 161.17 162.22 161.80 165.57 Z" />
<path fill="#ffffff" opacity="1.00" d=" M 173.17 124.35 C 175.60 121.92 180.06 119.87 182.84 122.94 C 180.00 124.59 177.27 126.41 174.63 128.35 C 174.03 127.07 173.03 125.84 173.17 124.35 Z" />
<path fill="#ffffff" opacity="1.00" d=" M 88.52 131.74 C 89.79 129.29 93.41 130.62 94.25 132.80 C 96.69 137.61 98.33 143.15 97.45 148.57 C 96.82 150.83 95.36 153.49 92.81 153.84 C 89.85 153.57 87.20 152.13 84.52 150.95 C 83.13 155.51 83.08 160.52 80.72 164.75 C 79.99 166.79 77.01 166.62 76.15 164.77 C 74.70 162.09 74.48 159.00 73.77 156.10 C 71.04 162.31 69.11 169.23 64.13 174.12 C 61.50 176.84 60.26 181.17 56.21 182.19 C 51.90 184.03 47.36 182.53 43.23 181.00 C 37.58 189.11 33.68 198.25 28.87 206.85 C 26.87 210.54 23.86 215.00 19.16 214.95 C 13.38 213.45 9.33 208.08 7.69 202.56 C 6.34 196.89 8.25 191.21 9.71 185.78 C 10.43 182.79 13.18 180.51 16.24 180.36 C 21.56 179.77 26.58 183.44 29.03 187.93 C 28.41 190.38 26.23 191.64 23.78 191.33 C 24.27 189.90 24.81 188.48 25.35 187.06 C 23.27 184.40 19.33 181.48 16.10 184.08 C 10.20 191.54 9.11 203.73 16.21 210.82 C 17.89 212.59 20.58 211.62 21.93 209.96 C 27.71 203.06 31.51 194.82 36.11 187.14 C 37.56 184.54 40.01 182.22 40.36 179.18 C 38.02 176.42 34.38 174.49 33.48 170.73 C 32.55 166.80 36.32 163.20 40.11 163.10 C 43.18 162.63 45.64 164.80 48.14 166.17 C 49.36 164.68 50.59 163.19 52.05 161.94 C 51.64 164.22 49.86 166.35 50.16 168.69 C 52.30 171.25 55.53 172.91 58.81 173.49 C 61.93 165.34 59.74 156.53 59.51 148.10 C 59.85 145.80 57.15 144.32 57.79 142.01 C 58.12 139.16 58.42 136.30 58.93 133.48 C 60.47 134.39 62.33 135.36 62.19 137.45 C 62.92 148.14 64.30 158.81 64.24 169.55 C 69.11 164.84 71.17 158.23 72.80 151.87 C 72.81 148.98 72.10 146.09 72.59 143.20 C 73.30 143.34 74.73 143.62 75.45 143.76 C 76.87 148.53 77.04 153.54 77.97 158.41 C 79.64 155.28 79.94 151.70 80.53 148.27 C 80.45 146.69 81.84 145.95 82.90 145.09 C 85.69 147.32 88.49 149.78 92.16 150.37 C 95.30 144.09 92.98 136.72 88.52 131.74 M 36.28 170.03 C 37.07 173.09 39.81 174.99 42.12 176.89 C 43.81 174.55 45.36 172.10 46.35 169.38 C 44.49 168.06 42.65 166.10 40.18 166.19 C 38.32 166.70 37.15 168.42 36.28 170.03 M 44.60 177.93 C 48.61 179.98 53.85 180.71 57.26 177.11 C 54.03 175.48 50.86 173.75 47.89 171.69 C 46.66 173.70 45.48 175.74 44.60 177.93 Z" />
<path fill="#ffffff" opacity="1.00" d=" M 137.40 136.42 C 144.28 133.77 153.42 137.55 155.06 145.07 C 156.73 150.93 154.39 157.09 150.47 161.48 C 146.08 166.80 139.59 169.52 134.06 173.37 C 134.40 180.48 137.51 187.27 137.12 194.40 C 132.62 192.09 128.13 189.36 122.87 189.39 C 123.00 188.76 123.27 187.50 123.40 186.87 C 127.08 185.82 130.58 187.65 133.97 188.83 C 132.17 176.37 129.08 164.07 128.32 151.47 C 130.05 151.95 131.29 153.30 131.28 155.15 C 131.63 159.92 132.16 164.69 133.39 169.32 C 139.52 165.74 145.54 161.62 149.96 155.98 C 152.30 152.54 153.62 147.62 151.10 143.92 C 148.41 139.89 142.75 138.72 138.34 140.25 C 132.53 142.37 127.24 145.64 122.15 149.10 C 115.77 152.94 109.78 157.37 103.92 161.94 C 98.92 165.90 93.40 169.28 89.11 174.07 C 90.50 176.95 92.91 180.71 96.69 179.56 C 106.25 177.19 114.01 170.61 121.28 164.30 C 123.92 166.87 120.31 169.66 118.58 171.57 C 111.86 177.30 103.99 182.61 95.00 183.60 C 90.09 182.73 86.75 177.76 86.45 173.01 C 86.87 169.59 90.27 167.73 92.65 165.67 C 107.41 155.71 120.61 143.02 137.40 136.42 Z" />
<path fill="#ffffff" opacity="1.00" d=" M 53.23 160.27 C 53.54 155.24 54.14 149.19 57.97 145.58 C 57.56 148.11 56.49 150.46 55.86 152.94 C 55.14 155.44 54.99 158.21 53.23 160.27 Z" />
</g>
</svg>
