<?xml version="1.0" encoding="UTF-8" ?>
<!DOCTYPE svg PUBLIC "-//W3C//DTD SVG 1.1//EN" "http://www.w3.org/Graphics/SVG/1.1/DTD/svg11.dtd">
<svg width="512pt" height="128pt" viewBox="0 0 512 128" version="1.1" xmlns="http://www.w3.org/2000/svg">
<g id="#ffffffff">
<path fill="#ffffff" opacity="1.00" d=" M 50.94 39.91 C 53.71 36.94 58.11 36.94 61.87 37.16 C 75.99 38.43 89.96 41.00 104.01 42.87 C 106.48 43.46 107.25 40.56 108.53 39.11 C 108.99 40.55 109.36 42.01 109.72 43.47 C 116.50 43.46 123.34 43.39 130.00 41.94 C 132.42 41.55 134.02 39.45 136.26 38.61 C 137.06 42.68 132.70 43.99 129.67 44.82 C 122.57 46.33 115.25 45.66 108.08 45.74 C 102.76 57.19 96.89 68.41 90.10 79.06 C 87.48 83.03 85.54 87.54 82.12 90.92 C 79.07 88.19 77.28 84.45 74.65 81.35 C 73.15 79.20 70.94 77.35 70.59 74.60 C 76.09 76.80 78.48 82.89 82.06 87.22 C 85.15 81.96 87.98 76.53 91.55 71.58 C 97.25 63.59 100.70 54.35 105.20 45.69 C 102.59 44.76 99.81 44.63 97.08 44.36 C 85.66 43.04 74.42 40.44 62.95 39.49 C 59.37 39.37 55.26 39.03 52.33 41.48 C 50.47 43.65 52.32 46.43 53.99 48.04 C 58.24 51.86 63.63 54.14 69.01 55.86 C 75.73 57.73 82.61 59.62 89.66 59.13 C 88.62 62.35 84.90 61.58 82.26 61.46 C 75.58 59.74 68.72 58.52 62.35 55.78 C 57.70 53.67 53.58 50.40 50.31 46.50 C 48.70 44.56 49.17 41.58 50.94 39.91 Z" />
<path fill="#ffffff" opacity="1.00" d=" M 369.40 38.65 C 372.55 38.16 376.15 37.25 379.08 38.94 C 383.67 42.40 384.88 49.26 382.26 54.29 C 379.12 60.48 375.22 66.39 370.20 71.23 C 367.28 73.91 363.98 76.52 360.00 77.33 C 357.41 77.81 354.62 75.63 354.55 72.97 C 354.54 70.78 355.30 68.68 355.60 66.53 C 349.42 73.01 344.17 80.38 337.67 86.59 C 343.59 91.34 351.64 89.61 358.17 87.22 C 361.37 86.37 361.26 82.39 363.22 80.23 C 367.91 74.50 375.53 70.04 383.13 71.86 C 382.07 77.58 375.59 80.29 374.71 86.16 C 378.20 87.44 381.18 84.61 384.05 83.07 C 390.31 79.45 394.85 73.65 398.65 67.63 C 402.18 61.66 401.98 53.73 406.96 48.63 C 407.40 49.72 407.73 50.84 407.95 52.00 C 406.35 58.90 401.94 64.74 400.02 71.52 C 401.56 71.80 403.13 71.96 404.68 72.29 C 406.66 72.84 407.23 75.07 408.21 76.62 C 412.46 75.40 416.84 74.14 420.47 71.49 C 422.86 69.75 424.41 67.19 426.29 64.97 C 426.89 66.47 428.33 68.20 427.11 69.80 C 425.12 73.47 423.19 77.18 421.84 81.14 C 427.70 78.94 432.60 74.85 438.32 72.42 C 438.59 75.21 437.40 77.79 436.84 80.46 C 441.75 77.95 445.77 73.93 450.90 71.83 C 453.99 75.35 449.29 79.73 449.91 83.81 C 455.48 82.86 460.88 80.09 464.05 75.27 C 465.22 75.66 466.27 77.14 465.24 78.22 C 461.91 82.35 457.07 85.16 451.93 86.36 C 450.16 86.94 447.83 85.99 447.77 83.92 C 447.79 81.07 448.81 78.34 449.24 75.53 C 443.40 78.06 440.17 84.44 433.90 86.28 C 432.56 83.37 434.22 80.46 434.85 77.62 C 429.43 79.26 425.59 85.10 419.52 84.59 C 418.62 80.61 420.96 77.03 421.93 73.31 C 417.17 74.96 412.80 77.55 408.01 79.09 C 406.10 84.20 401.09 87.21 396.03 88.49 C 392.83 88.49 393.09 84.32 392.31 82.13 C 391.17 82.26 389.96 82.25 389.03 83.01 C 385.30 85.35 381.79 88.10 377.77 89.91 C 376.44 90.60 375.03 89.66 373.72 89.43 C 373.51 87.88 373.32 86.32 373.09 84.77 C 370.22 86.23 367.65 88.36 364.58 89.38 C 358.21 89.22 352.56 93.52 346.10 92.68 C 342.13 92.71 339.12 90.03 336.05 87.93 C 330.87 92.21 325.76 96.58 320.79 101.10 C 320.27 101.24 319.25 101.53 318.74 101.68 C 318.89 98.47 321.95 96.97 324.09 95.12 C 327.85 92.37 331.02 88.94 334.64 86.02 C 332.73 82.13 331.95 77.55 333.13 73.33 C 335.19 64.93 339.80 57.08 346.52 51.56 C 352.65 45.10 360.89 40.98 369.40 38.65 M 370.51 41.29 C 364.57 42.12 359.65 45.77 354.35 48.27 C 348.32 53.54 341.59 58.60 338.08 66.03 C 335.62 71.74 333.74 78.31 335.94 84.41 C 344.99 77.10 351.74 67.41 359.12 58.52 C 359.48 59.83 360.35 61.21 359.55 62.55 C 358.11 66.58 356.17 70.70 356.76 75.09 C 368.07 72.72 376.52 63.16 380.85 52.86 C 382.48 49.19 382.15 44.59 379.37 41.58 C 376.74 39.70 373.40 40.83 370.51 41.29 M 363.46 84.95 C 368.94 82.70 374.25 79.46 378.09 74.87 C 372.21 76.15 366.47 79.74 363.46 84.95 M 396.19 80.07 C 398.98 78.88 401.89 78.00 404.66 76.78 C 404.82 76.37 405.15 75.55 405.32 75.15 C 401.48 74.60 397.85 76.58 396.19 80.07 M 395.63 85.31 C 398.67 84.80 401.71 83.46 403.47 80.80 C 400.26 80.81 396.80 82.03 395.63 85.31 Z" />
<path fill="#ffffff" opacity="1.00" d=" M 166.25 43.93 C 168.96 42.86 168.34 46.12 167.63 47.62 C 163.58 57.25 157.73 66.12 154.78 76.21 C 157.73 75.34 160.76 73.69 163.90 74.81 C 166.23 75.19 167.04 77.66 168.20 79.37 C 173.72 77.05 179.85 74.33 182.77 68.74 C 186.87 60.97 189.03 52.35 193.04 44.54 C 193.86 45.72 195.40 46.97 194.51 48.55 C 191.00 57.52 186.53 66.14 183.62 75.33 C 186.31 74.42 188.68 71.56 191.69 72.18 C 195.08 73.43 193.72 77.53 193.57 80.22 C 195.13 79.98 196.72 79.84 198.24 79.37 C 200.64 76.84 202.47 73.26 206.14 72.43 C 208.88 71.62 209.88 75.58 208.24 77.25 C 207.01 80.15 204.09 81.32 201.30 82.20 C 199.17 82.56 199.78 87.02 201.99 86.56 C 211.89 83.81 216.69 73.29 226.03 69.60 C 228.42 70.33 230.08 73.33 228.84 75.66 C 227.25 78.88 224.46 81.47 223.70 85.09 C 229.82 85.17 236.36 82.93 240.37 78.11 C 240.72 79.66 240.96 81.39 239.45 82.43 C 235.66 85.64 230.63 86.82 225.86 87.66 C 224.06 87.73 221.49 87.96 220.73 85.87 C 221.69 81.02 225.19 77.31 227.01 72.83 C 224.19 73.16 221.50 74.43 219.73 76.71 C 215.42 81.79 210.51 87.11 203.78 88.75 C 201.75 89.36 198.94 88.94 198.05 86.75 C 197.62 85.28 197.52 83.75 197.27 82.25 C 194.17 83.08 190.86 83.43 188.04 85.08 C 185.27 86.62 182.41 88.18 179.18 88.39 C 177.59 91.94 176.29 95.61 174.91 99.25 C 172.12 100.79 172.04 96.67 172.91 95.07 C 175.38 88.28 178.14 81.59 181.14 75.01 C 177.30 77.23 173.75 80.01 169.58 81.62 C 165.03 83.02 161.02 86.28 156.07 86.16 C 154.20 86.17 153.00 84.47 151.56 83.54 C 148.76 88.85 146.63 94.53 145.01 100.30 C 144.01 99.42 142.37 98.65 142.75 97.01 C 144.41 89.55 148.27 82.85 151.06 75.80 C 146.62 77.71 143.83 82.44 139.01 83.48 C 135.67 83.85 135.59 80.03 135.70 77.70 C 132.74 80.04 129.77 82.99 125.88 83.52 C 120.98 82.75 116.93 86.88 112.04 86.48 C 110.41 86.28 108.88 84.82 109.17 83.08 C 109.62 77.03 114.91 73.15 117.46 68.01 C 116.02 67.39 114.58 66.79 113.12 66.23 C 108.30 71.85 101.89 75.67 96.06 80.11 C 94.48 81.19 92.99 82.65 90.98 82.82 C 90.23 81.61 90.40 80.55 91.48 79.65 C 95.96 75.92 101.58 73.85 106.03 70.05 C 108.42 68.10 110.22 65.54 112.36 63.34 C 114.99 64.44 117.74 65.46 120.01 67.21 C 119.53 73.82 112.54 77.57 111.70 84.10 C 115.34 83.97 118.93 82.97 122.07 81.11 C 125.74 79.25 127.99 75.67 130.96 72.98 C 134.86 69.09 139.62 65.90 145.02 64.62 C 147.81 65.56 146.06 69.17 144.33 70.36 C 140.95 72.80 138.35 76.30 137.72 80.50 C 143.84 80.28 148.06 75.08 152.24 71.23 C 155.17 68.86 156.22 65.15 157.98 61.97 C 160.98 56.07 163.52 49.95 166.25 43.93 M 134.71 72.72 C 132.53 74.51 130.10 76.47 129.64 79.45 C 132.62 78.40 134.42 75.68 136.53 73.51 C 138.52 70.87 142.29 70.63 144.20 67.90 C 140.60 68.44 137.48 70.46 134.71 72.72 M 182.71 81.86 C 186.55 81.46 192.54 79.72 191.20 74.65 C 187.80 76.21 184.45 78.43 182.71 81.86 M 201.45 80.11 C 204.00 78.88 206.18 76.91 207.36 74.30 C 204.32 74.63 202.60 77.59 201.45 80.11 M 156.28 79.27 C 155.64 80.75 156.96 81.54 158.22 81.83 C 161.29 83.11 164.01 80.00 165.24 77.49 C 162.16 77.25 158.89 77.44 156.28 79.27 Z" />
<path fill="#ffffff" opacity="1.00" d=" M 258.20 49.84 C 258.59 47.56 258.07 44.82 260.04 43.12 C 262.56 44.68 260.59 47.90 259.98 50.03 C 259.15 53.53 256.24 55.81 253.30 57.57 C 254.59 54.78 257.01 52.68 258.20 49.84 Z" />
<path fill="#ffffff" opacity="1.00" d=" M 436.96 55.24 C 436.06 52.26 439.53 51.03 441.21 49.29 C 443.47 52.03 439.60 55.82 436.96 55.24 Z" />
<path fill="#ffffff" opacity="1.00" d=" M 257.85 85.82 C 272.17 79.58 287.13 74.38 300.21 65.69 C 300.51 67.39 300.99 69.26 299.89 70.80 C 296.28 76.85 292.11 82.58 288.87 88.85 C 286.88 90.86 281.91 93.27 280.62 89.34 C 280.03 86.90 277.27 83.23 279.87 81.36 C 282.04 82.64 281.81 86.92 284.84 86.46 C 289.65 82.27 293.12 76.82 296.29 71.35 C 292.89 72.32 289.86 74.18 286.71 75.72 C 277.35 80.45 267.59 84.33 257.76 87.94 C 253.88 89.10 251.51 93.39 247.03 92.78 C 246.88 92.35 246.58 91.47 246.44 91.04 C 249.38 87.79 254.09 87.64 257.85 85.82 Z" />
</g>
</svg>
