<?xml version="1.0" encoding="UTF-8" ?>
<!DOCTYPE svg PUBLIC "-//W3C//DTD SVG 1.1//EN" "http://www.w3.org/Graphics/SVG/1.1/DTD/svg11.dtd">
<svg width="256pt" height="128pt" viewBox="0 0 256 128" version="1.1" xmlns="http://www.w3.org/2000/svg">
<g id="#ffffffff">
<path fill="#ffffff" opacity="1.00" d=" M 181.22 4.31 C 182.33 2.49 184.59 0.58 186.83 1.74 C 189.28 3.48 190.11 6.57 190.87 9.32 C 192.54 16.44 190.72 23.75 188.76 30.62 C 186.82 37.65 183.69 44.43 179.09 50.10 C 177.38 52.40 174.13 52.18 172.15 54.09 C 169.78 56.06 167.10 57.89 163.99 58.35 C 161.67 57.81 160.00 55.94 158.15 54.57 C 156.22 57.23 154.60 60.32 151.79 62.16 C 149.21 63.42 146.67 60.40 146.69 57.97 C 146.69 51.18 150.09 44.60 155.09 40.11 C 157.07 38.32 160.96 37.92 162.24 40.72 C 163.01 44.82 162.35 48.90 161.49 52.92 C 162.21 53.94 162.93 54.95 163.65 55.97 C 165.80 54.62 167.82 53.09 169.89 51.62 C 169.24 44.28 171.32 35.21 178.65 31.87 C 177.20 28.09 177.42 23.99 177.47 20.02 C 177.56 14.62 178.44 9.04 181.22 4.31 M 185.27 4.11 C 180.84 10.91 181.07 19.27 180.93 27.06 C 180.52 29.91 183.23 31.44 185.01 33.08 C 186.10 27.97 188.01 23.08 188.99 17.94 C 189.97 13.10 189.06 7.56 185.27 4.11 M 173.96 49.27 C 176.26 49.20 177.10 46.82 178.30 45.26 C 180.49 41.91 182.96 37.81 181.03 33.75 C 176.53 37.21 172.09 43.35 173.96 49.27 M 153.66 44.65 C 151.14 49.28 148.64 55.18 150.86 60.33 C 153.64 56.21 155.68 51.65 158.49 47.55 C 159.99 45.48 160.24 42.88 161.05 40.52 C 157.87 40.00 155.01 41.83 153.66 44.65 Z" />
<path fill="#ffffff" opacity="1.00" d=" M 132.52 24.54 C 136.85 21.24 143.70 24.84 144.18 30.08 C 145.82 41.24 146.05 53.39 140.49 63.57 C 138.92 66.29 137.40 69.22 134.81 71.11 C 132.09 72.57 129.36 69.67 129.69 66.97 C 129.58 61.28 133.36 56.74 137.01 52.83 C 133.25 50.48 130.27 46.92 129.35 42.50 C 127.91 36.57 127.45 28.92 132.52 24.54 M 131.41 34.11 C 130.91 40.17 132.58 46.84 137.26 51.00 C 138.63 51.74 140.16 50.64 141.57 50.50 C 142.89 44.98 142.78 39.22 142.24 33.60 C 141.73 30.40 140.62 26.30 136.99 25.45 C 132.98 26.22 131.86 30.65 131.41 34.11 M 132.86 69.58 C 137.57 65.16 139.12 58.49 140.83 52.49 C 135.58 56.28 132.19 63.11 132.86 69.58 Z" />
<path fill="#ffffff" opacity="1.00" d=" M 233.91 47.83 C 234.58 46.63 236.41 46.93 236.57 48.36 C 237.24 53.20 237.36 58.56 235.02 62.99 C 232.41 66.47 227.59 64.82 224.21 63.60 C 221.43 66.70 218.54 69.70 216.02 73.02 C 214.63 75.00 212.11 75.12 210.10 76.08 C 208.22 77.75 206.72 80.37 204.00 80.66 C 201.04 80.95 200.41 77.53 199.23 75.56 C 195.38 80.18 192.32 86.05 186.61 88.61 C 184.40 89.65 182.65 87.47 181.01 86.37 C 177.89 89.77 175.41 94.61 170.52 95.64 C 167.97 96.38 166.18 94.09 164.41 92.71 C 160.92 96.97 157.78 101.50 155.01 106.26 C 154.41 106.05 153.19 105.61 152.58 105.39 C 151.24 100.29 151.71 94.95 152.93 89.87 C 153.49 89.77 154.60 89.55 155.16 89.45 C 155.03 93.07 154.31 96.71 154.99 100.32 C 158.47 96.94 161.65 93.11 163.93 88.82 C 164.76 80.83 163.37 72.24 167.40 64.87 C 169.50 65.72 171.63 67.43 171.35 69.96 C 172.24 77.98 164.96 85.67 169.05 93.43 C 175.37 90.87 181.11 84.22 179.87 77.02 C 179.44 69.97 180.95 62.80 184.08 56.48 C 186.92 57.35 186.82 60.53 187.19 62.96 C 188.15 69.89 183.38 76.07 183.74 82.95 C 183.84 84.31 185.14 85.11 185.85 86.16 C 190.77 83.05 194.19 78.28 197.87 73.88 C 199.59 71.87 200.18 69.24 201.31 66.91 C 201.79 66.91 202.75 66.92 203.23 66.92 C 203.85 69.29 202.90 71.66 202.88 74.04 C 203.03 75.42 202.99 77.37 204.89 77.29 C 206.12 76.25 207.28 75.12 208.28 73.86 C 208.77 71.34 207.82 68.73 208.43 66.20 C 209.11 63.05 210.45 60.00 212.43 57.45 C 213.81 56.08 217.04 54.52 217.97 57.20 C 219.57 61.28 216.11 64.93 215.19 68.76 C 222.65 63.00 228.55 55.51 233.91 47.83 M 224.81 62.69 C 227.11 62.02 229.45 61.47 231.85 61.23 C 233.80 59.37 233.30 56.17 233.36 53.71 C 230.32 56.52 227.71 59.75 224.81 62.69 M 211.40 68.81 C 214.41 66.45 215.46 62.53 216.01 58.92 C 212.29 60.29 211.91 65.40 211.40 68.81 M 184.37 65.38 C 183.67 66.60 183.03 68.40 183.87 69.69 C 185.67 70.05 186.49 64.14 184.37 65.38 M 168.22 72.65 C 167.38 73.29 167.16 75.90 168.71 75.52 C 169.56 74.90 169.67 72.33 168.22 72.65 Z" />
<path fill="#ffffff" opacity="1.00" d=" M 197.37 52.33 C 198.18 51.72 199.02 51.14 199.88 50.60 C 202.08 52.92 202.07 56.01 200.80 58.79 C 200.24 58.74 199.11 58.65 198.54 58.61 C 198.22 56.50 197.64 54.44 197.37 52.33 Z" />
<path fill="#ffffff" opacity="1.00" d=" M 36.30 66.28 C 40.02 61.22 43.30 54.53 50.03 53.12 C 55.11 52.13 62.39 53.34 63.91 59.16 C 67.10 69.44 65.20 81.24 58.97 90.02 C 57.30 92.21 54.13 94.66 51.38 92.87 C 49.54 91.12 48.78 88.58 47.40 86.49 C 45.66 96.33 43.85 106.36 39.71 115.50 C 39.30 115.64 38.48 115.93 38.07 116.07 C 39.47 110.27 41.77 104.69 42.58 98.74 C 43.99 91.88 43.49 84.76 45.06 77.94 C 45.15 76.18 46.98 76.58 48.21 76.30 C 48.86 81.72 49.93 87.36 53.32 91.79 C 55.46 92.72 56.64 90.08 57.72 88.70 C 61.40 81.76 63.38 73.83 63.36 65.97 C 63.40 61.59 61.49 56.39 56.81 55.20 C 50.95 53.28 44.90 56.83 41.69 61.66 C 32.81 74.68 24.24 88.95 23.26 105.08 C 22.76 111.27 24.35 118.53 30.08 121.90 C 33.84 123.70 38.49 123.25 42.06 121.19 C 47.63 118.29 52.23 113.63 55.07 108.04 C 58.96 100.70 60.37 92.13 65.42 85.40 C 66.97 82.86 71.45 82.23 72.74 85.32 C 73.82 91.69 70.77 97.95 71.73 104.32 C 74.78 102.71 77.75 100.68 79.93 97.99 C 78.36 92.06 80.16 85.73 84.18 81.17 C 86.45 78.31 88.99 74.97 92.91 74.56 C 94.78 74.43 95.20 76.63 95.17 78.04 C 95.02 81.58 93.83 85.00 93.77 88.56 C 99.10 84.12 100.30 76.62 102.54 70.36 C 103.28 70.06 104.76 69.46 105.50 69.15 C 105.70 73.26 105.20 77.38 105.72 81.47 C 109.67 77.25 110.16 71.02 113.45 66.35 C 114.48 66.14 115.52 65.98 116.56 65.86 C 117.20 68.79 117.39 71.82 118.32 74.68 C 119.96 75.62 120.98 73.84 121.59 72.57 C 123.45 68.02 122.46 63.04 121.61 58.39 C 123.13 58.73 125.20 58.44 125.82 60.28 C 126.01 65.70 125.92 71.95 122.21 76.29 C 118.82 79.39 115.52 74.72 114.28 71.78 C 112.34 75.36 110.65 79.07 108.82 82.71 C 107.87 84.64 105.99 85.62 103.92 85.88 C 103.14 84.51 102.38 83.12 101.62 81.73 C 98.89 85.42 97.16 89.87 93.83 93.09 C 92.09 93.62 91.37 91.63 90.31 90.71 C 88.36 94.13 86.49 98.27 82.45 99.61 C 79.68 100.60 78.17 103.44 75.41 104.46 C 73.44 105.35 70.83 106.46 68.92 104.89 C 68.01 98.65 70.26 92.40 69.75 86.19 C 69.33 86.05 68.49 85.77 68.07 85.63 C 64.57 88.73 63.40 93.47 61.65 97.63 C 58.59 105.78 54.94 114.39 47.55 119.56 C 43.05 122.67 37.67 125.12 32.09 124.71 C 27.53 124.24 24.43 120.12 22.83 116.15 C 20.85 111.19 19.80 105.64 21.15 100.37 C 23.95 88.17 28.93 76.44 36.30 66.28 M 88.62 79.59 C 85.22 84.02 82.01 89.43 83.20 95.25 C 88.43 90.59 91.73 83.56 92.25 76.61 C 90.90 77.41 89.53 78.27 88.62 79.59 Z" />
<path fill="#ffffff" opacity="1.00" d=" M 149.87 74.87 C 153.94 73.89 153.01 78.84 152.13 81.13 C 150.23 79.56 149.01 77.34 149.87 74.87 Z" />
<path fill="#ffffff" opacity="1.00" d=" M 141.87 76.68 C 143.82 76.94 145.10 78.54 145.33 80.42 C 146.22 87.09 146.92 94.10 144.45 100.54 C 142.70 105.07 141.37 109.88 138.62 113.92 C 137.01 115.46 135.55 113.60 134.66 112.29 C 131.74 107.95 131.91 102.48 130.10 97.70 C 124.40 105.75 123.59 115.92 120.12 124.94 C 119.56 126.36 117.95 127.99 116.45 126.69 C 115.17 124.36 114.98 121.63 114.82 119.03 C 114.65 111.34 114.72 103.63 115.36 95.96 C 115.53 93.00 115.76 89.62 113.77 87.17 C 111.76 85.15 108.93 86.69 106.96 87.92 C 102.97 90.63 100.37 94.90 98.16 99.09 C 97.06 101.21 96.66 104.49 99.04 105.92 C 102.59 107.74 106.65 106.65 110.43 106.50 C 107.09 109.22 102.45 109.31 98.43 108.38 C 95.89 107.80 93.81 105.08 94.55 102.45 C 96.14 96.54 99.68 91.21 104.42 87.36 C 107.01 85.31 110.36 83.59 113.75 84.26 C 116.49 84.72 118.54 87.31 118.56 90.06 C 118.81 98.72 118.15 107.37 117.93 116.02 C 117.85 117.75 118.04 119.52 118.90 121.06 C 121.69 114.97 122.13 108.08 125.03 102.02 C 126.69 98.69 128.22 95.28 130.04 92.03 C 130.74 92.08 132.13 92.18 132.83 92.23 C 134.51 97.92 134.82 104.00 137.27 109.45 C 142.45 101.47 144.66 91.47 142.71 82.10 C 142.35 80.30 142.05 78.50 141.87 76.68 Z" />
</g>
</svg>
