<?xml version="1.0" encoding="UTF-8" ?>
<!DOCTYPE svg PUBLIC "-//W3C//DTD SVG 1.1//EN" "http://www.w3.org/Graphics/SVG/1.1/DTD/svg11.dtd">
<svg width="256pt" height="128pt" viewBox="0 0 256 128" version="1.1" xmlns="http://www.w3.org/2000/svg">
<g id="#ffffffff">
<path fill="#ffffff" opacity="1.00" d=" M 215.35 17.27 C 217.53 12.75 218.06 7.75 219.58 3.01 C 220.14 3.77 221.25 5.28 221.81 6.04 C 220.78 10.17 220.94 16.72 215.35 17.27 Z" />
<path fill="#ffffff" opacity="1.00" d=" M 127.01 4.64 C 130.35 7.17 128.17 11.76 126.93 14.91 C 121.87 24.53 118.59 34.97 113.65 44.65 C 111.30 49.66 108.31 54.61 108.41 60.33 C 107.05 58.59 106.42 56.36 107.04 54.19 C 108.83 46.83 112.71 40.21 115.51 33.22 C 109.94 33.85 104.28 33.95 98.75 34.80 C 95.83 39.10 95.34 44.44 93.23 49.10 C 91.34 53.43 90.54 58.15 88.67 62.48 C 88.26 62.70 87.45 63.14 87.04 63.36 C 87.22 61.52 87.45 59.67 88.03 57.91 C 90.55 50.20 93.14 42.51 95.56 34.77 C 90.06 34.34 84.54 34.65 79.03 34.71 C 69.41 35.28 60.12 38.11 51.03 41.12 C 46.46 43.14 40.37 44.55 38.72 49.97 C 39.28 51.75 40.84 52.95 41.84 54.48 C 36.89 54.28 34.85 47.60 38.64 44.58 C 49.14 36.87 62.25 34.37 74.88 32.55 C 82.06 31.65 89.40 32.79 96.52 31.53 C 97.76 29.94 98.36 27.97 99.19 26.15 C 101.35 21.01 104.21 16.19 106.35 11.03 C 96.04 9.93 86.17 13.45 75.99 14.20 C 74.05 14.23 72.27 14.93 70.68 16.01 C 71.67 19.45 75.52 20.85 76.51 24.19 C 72.64 22.59 68.87 18.68 69.88 14.19 C 70.26 12.25 72.46 12.44 73.96 12.16 C 84.97 11.18 95.86 8.51 106.98 9.19 C 107.78 7.92 108.56 6.63 109.35 5.36 C 110.30 6.49 111.22 7.65 112.11 8.83 C 108.47 11.93 106.90 16.60 104.72 20.71 C 103.13 24.35 100.62 27.65 99.98 31.65 C 105.81 31.96 112.37 31.87 117.26 28.29 C 121.09 20.69 125.05 12.98 127.01 4.64 Z" />
<path fill="#ffffff" opacity="1.00" d=" M 194.16 22.77 C 192.99 19.08 197.39 15.91 200.62 17.36 C 202.30 20.72 197.17 23.40 194.16 22.77 Z" />
<path fill="#ffffff" opacity="1.00" d=" M 232.59 36.58 C 237.86 32.89 243.28 29.40 248.37 25.46 C 249.74 26.70 251.66 28.42 250.42 30.44 C 247.76 36.18 246.25 42.49 242.50 47.68 C 239.01 50.29 234.96 45.35 235.85 41.81 C 237.54 42.47 238.96 43.60 240.38 44.70 C 242.31 40.66 244.65 36.74 245.64 32.33 C 240.76 34.18 237.27 38.30 232.68 40.69 C 224.10 46.44 214.79 50.90 205.61 55.60 C 202.94 56.80 201.33 60.05 198.18 60.11 C 196.98 59.45 196.54 57.64 197.84 56.85 C 208.72 48.92 221.97 44.93 232.59 36.58 Z" />
<path fill="#ffffff" opacity="1.00" d=" M 134.18 31.16 C 135.90 29.79 137.80 28.52 139.95 27.95 C 142.31 28.06 142.41 31.01 141.92 32.74 C 140.18 38.55 139.08 44.54 138.77 50.59 C 140.81 49.83 142.80 48.89 144.52 47.53 C 150.35 42.96 155.68 37.76 160.39 32.04 C 161.69 31.86 162.24 33.34 163.05 34.05 C 162.33 36.12 161.51 38.20 161.61 40.43 C 166.24 37.55 170.33 33.26 175.93 32.37 C 177.85 33.42 177.77 35.82 177.48 37.70 C 176.78 40.93 175.18 43.87 174.11 46.99 C 175.31 46.71 176.60 46.48 177.51 45.54 C 181.50 42.13 185.79 39.00 189.12 34.89 C 190.65 35.93 191.98 37.82 190.75 39.63 C 188.14 43.30 188.01 47.94 186.13 51.93 C 181.87 50.59 185.20 46.23 185.16 43.28 C 182.60 44.21 181.64 47.04 179.37 48.36 C 176.96 49.90 174.51 51.38 172.05 52.84 C 171.39 52.36 170.07 51.40 169.41 50.92 C 170.42 45.75 173.72 41.25 174.23 36.00 C 166.29 38.45 161.09 45.75 157.51 52.85 C 156.86 54.55 154.39 53.11 154.19 51.74 C 154.58 47.84 156.47 44.32 157.35 40.54 C 153.20 41.95 151.58 46.69 147.69 48.75 C 144.35 50.16 141.45 54.92 137.45 52.64 C 134.77 49.87 136.84 45.47 136.34 42.05 C 132.94 45.83 130.20 50.19 126.53 53.73 C 124.36 55.61 121.48 52.33 122.22 50.03 C 123.77 42.56 128.45 36.06 134.18 31.16 M 125.87 49.06 C 131.69 44.36 135.02 37.55 139.38 31.64 C 133.02 35.47 128.00 41.91 125.87 49.06 Z" />
<path fill="#ffffff" opacity="1.00" d=" M 33.81 99.83 C 47.39 82.75 60.94 65.60 73.97 48.11 C 77.09 51.35 76.16 56.15 74.92 60.01 C 70.54 72.30 61.27 82.12 56.65 94.27 C 63.21 88.20 69.82 82.06 77.38 77.23 C 78.49 76.31 79.69 76.21 80.97 76.92 C 81.10 78.14 80.91 79.30 80.38 80.39 C 78.29 84.90 75.60 89.08 72.76 93.14 C 75.79 93.86 77.48 96.31 78.32 99.16 C 80.82 98.33 83.78 97.74 85.35 95.39 C 87.39 92.41 88.60 88.42 92.19 86.88 C 93.97 86.04 95.87 87.16 97.62 87.54 C 98.61 95.73 84.01 95.12 86.12 103.96 C 92.60 103.12 97.15 97.87 101.28 93.30 C 103.74 90.22 106.83 87.53 108.40 83.84 C 104.91 84.17 101.47 84.90 98.02 85.46 C 96.21 85.65 96.27 83.33 95.73 82.19 C 100.40 81.51 105.11 81.12 109.79 80.49 C 114.09 80.50 112.88 72.57 117.40 73.57 C 117.75 75.85 115.92 77.74 115.17 79.80 C 120.48 79.82 125.78 78.95 131.09 79.52 C 134.52 75.27 138.11 71.13 142.02 67.31 C 142.69 67.73 144.02 68.58 144.69 69.00 C 141.46 76.17 137.04 82.91 131.04 88.07 C 128.40 90.29 126.53 93.28 125.46 96.54 C 130.61 94.50 135.02 88.99 141.13 90.98 C 141.02 95.19 137.51 98.20 136.98 102.31 C 141.45 100.89 146.45 99.24 149.05 95.02 C 151.42 91.35 154.25 87.11 158.97 86.49 C 161.30 86.01 162.87 88.06 163.79 89.88 C 161.45 91.84 159.35 94.19 156.55 95.51 C 154.38 96.57 151.95 97.46 150.48 99.50 C 149.08 102.35 151.94 105.88 155.02 105.25 C 163.92 103.60 172.02 98.71 178.44 92.45 C 182.23 85.25 185.90 77.61 192.21 72.23 C 193.81 70.65 196.55 70.34 198.02 72.27 C 198.87 74.39 197.31 76.51 196.20 78.23 C 192.33 83.59 188.18 88.82 183.15 93.15 C 179.86 95.50 179.87 100.05 180.29 103.67 C 180.52 105.36 182.49 106.29 184.07 105.96 C 193.67 104.93 202.38 99.81 209.43 93.41 C 211.08 92.12 211.31 89.94 211.95 88.10 C 214.09 88.48 215.69 90.89 213.95 92.70 C 207.48 100.86 198.00 106.35 187.93 108.77 C 184.50 109.72 180.26 109.00 178.21 105.84 C 177.08 103.50 177.21 100.81 176.92 98.29 C 169.86 102.63 162.68 108.00 154.03 108.23 C 150.24 107.85 148.27 104.16 146.94 101.04 C 143.78 102.53 140.76 104.79 137.15 104.91 C 135.54 104.92 134.89 103.32 134.71 101.98 C 135.26 98.78 136.83 95.89 137.86 92.83 C 131.59 95.17 126.60 99.83 121.85 104.38 C 118.97 102.27 121.36 99.16 121.91 96.53 C 116.58 99.34 111.26 103.09 105.11 103.47 C 101.76 102.32 102.99 98.01 102.82 95.34 C 98.38 99.61 94.22 104.89 88.00 106.51 C 84.10 107.27 83.02 102.86 83.15 99.91 C 81.28 100.38 79.42 100.89 77.57 101.39 C 76.32 105.47 72.98 108.44 69.01 109.80 C 68.04 108.17 66.80 106.20 68.31 104.46 C 69.66 100.87 75.23 101.00 75.37 96.81 C 70.12 95.50 67.34 100.99 62.85 102.26 C 61.94 98.00 66.91 96.84 68.90 93.95 C 71.97 89.75 76.22 85.86 77.15 80.54 C 75.38 81.15 73.80 82.15 72.45 83.44 C 64.70 90.42 56.38 97.07 50.58 105.87 C 49.66 105.80 48.78 105.56 47.94 105.13 C 54.46 90.46 63.62 77.22 71.12 63.06 C 72.54 59.61 74.72 55.75 73.35 51.97 C 64.30 66.68 51.91 78.90 42.03 93.01 C 35.44 102.10 27.55 111.13 16.70 115.04 C 11.95 117.16 6.22 112.96 6.31 107.89 C 5.63 102.03 9.65 97.29 12.83 92.86 C 17.23 86.96 21.63 80.61 28.21 76.98 C 30.69 75.60 33.10 78.77 32.85 81.09 C 32.44 85.44 30.13 89.31 28.14 93.11 C 27.58 94.53 26.44 95.28 24.89 94.88 C 26.64 89.42 31.59 84.94 31.03 78.76 C 27.21 79.87 24.29 82.77 21.62 85.59 C 17.01 90.79 12.39 96.11 9.22 102.34 C 7.46 106.34 9.04 112.70 14.05 113.21 C 22.56 112.76 28.54 105.74 33.81 99.83 M 192.03 77.01 C 189.84 80.01 187.37 82.86 185.74 86.22 C 190.02 83.41 193.11 79.02 195.23 74.43 C 193.91 74.96 192.81 75.84 192.03 77.01 M 115.04 83.14 C 112.56 83.08 111.55 85.64 110.43 87.39 C 108.14 91.58 105.33 95.80 105.28 100.76 C 115.81 99.28 124.95 91.83 129.91 82.59 C 124.98 81.81 119.97 82.77 115.04 83.14 M 87.53 95.61 C 90.32 94.05 93.45 92.13 94.51 88.94 C 91.10 89.66 89.00 92.69 87.53 95.61 M 151.90 95.55 C 155.02 93.72 158.76 92.00 160.57 88.77 C 156.75 89.35 153.35 91.94 151.90 95.55 Z" />
</g>
</svg>
