<?xml version="1.0" encoding="UTF-8" ?>
<!DOCTYPE svg PUBLIC "-//W3C//DTD SVG 1.1//EN" "http://www.w3.org/Graphics/SVG/1.1/DTD/svg11.dtd">
<svg width="256pt" height="128pt" viewBox="0 0 256 128" version="1.1" xmlns="http://www.w3.org/2000/svg">
<g id="#ffffffff">
<path fill="#ffffff" opacity="1.00" d=" M 71.33 5.27 C 75.61 2.69 80.80 0.47 85.85 1.99 C 92.22 3.69 99.77 4.50 104.00 10.21 C 104.39 13.19 101.07 14.93 98.60 15.51 C 96.58 15.72 93.51 16.84 92.53 14.33 C 95.87 14.00 99.75 14.17 101.98 11.14 C 98.85 7.30 93.90 5.95 89.31 4.75 C 83.85 3.41 77.57 3.41 72.81 6.77 C 71.08 7.93 70.05 9.88 69.69 11.90 C 71.34 14.96 75.04 15.86 78.05 17.02 C 90.03 20.77 102.94 23.44 115.43 20.75 C 121.79 20.09 128.15 19.50 134.41 18.16 C 134.19 18.76 133.75 19.95 133.53 20.55 C 128.52 24.21 121.94 24.31 116.51 27.05 C 124.02 27.73 132.02 26.91 139.09 29.89 C 135.11 34.95 128.01 34.95 122.15 35.45 C 121.79 38.01 120.86 40.45 118.99 42.29 C 119.90 43.12 120.78 43.98 121.59 44.91 C 116.54 42.75 110.38 47.44 106.22 42.92 C 106.54 39.13 111.40 40.84 113.96 40.77 C 116.61 41.40 118.36 39.02 119.48 37.02 C 116.18 34.70 111.98 35.35 108.32 34.05 C 109.46 33.20 110.57 31.97 112.16 32.27 C 119.30 32.82 127.06 34.07 133.75 30.81 C 128.03 28.91 121.88 29.40 115.94 29.29 C 109.74 29.15 103.65 30.41 97.61 31.68 C 96.29 32.16 95.04 31.53 93.91 30.89 C 95.42 29.07 97.86 28.72 100.00 28.09 C 106.73 26.47 113.39 24.58 120.13 23.00 C 121.45 22.79 122.60 22.08 123.55 21.15 C 117.98 21.48 112.55 23.00 106.98 23.32 C 97.32 23.91 87.71 21.95 78.44 19.43 C 74.73 18.26 70.51 17.17 68.08 13.88 C 66.17 10.76 68.51 6.90 71.33 5.27 Z" />
<path fill="#ffffff" opacity="1.00" d=" M 48.64 45.77 C 49.01 44.48 49.83 43.79 51.11 43.71 C 59.61 43.31 67.60 47.39 76.09 47.10 C 79.22 46.89 82.07 48.28 84.80 49.60 C 92.89 45.22 103.58 45.32 111.13 50.80 C 114.80 52.85 112.90 58.19 110.59 60.60 C 106.80 62.33 102.45 63.37 98.28 62.53 C 94.80 61.87 90.92 62.09 87.85 60.08 C 85.10 58.01 88.68 55.24 90.06 53.55 C 88.67 53.30 87.28 53.07 85.89 52.86 C 85.35 55.48 84.90 58.12 84.07 60.66 C 80.58 58.87 83.07 54.93 81.98 52.22 C 79.23 51.54 76.48 50.86 73.76 50.07 C 70.02 48.59 66.33 52.52 66.08 56.06 C 66.40 61.39 70.60 65.41 74.75 68.25 C 77.80 70.23 80.68 72.58 84.09 73.91 C 86.75 73.58 89.28 72.49 91.99 72.46 C 95.08 72.29 97.94 73.69 100.97 73.98 C 103.86 72.72 106.15 70.35 109.19 69.36 C 113.82 67.79 118.62 66.05 123.59 66.90 C 122.45 73.01 117.38 77.88 111.70 79.98 C 103.06 82.08 93.83 82.67 85.31 79.72 C 83.03 77.61 81.13 75.02 78.09 73.85 C 72.20 69.89 64.11 66.00 63.47 58.00 C 62.82 54.44 64.70 51.27 66.83 48.61 C 63.02 47.63 59.05 46.39 55.10 47.27 C 52.93 46.84 50.79 46.28 48.64 45.77 M 89.46 51.20 C 92.18 51.54 94.92 51.62 97.64 51.91 C 96.05 55.12 92.35 56.00 89.66 58.00 C 94.32 60.23 99.63 60.86 104.74 60.57 C 107.76 60.26 111.69 57.94 110.75 54.39 C 107.46 50.47 101.92 49.20 96.99 49.28 C 94.43 49.49 91.38 49.11 89.46 51.20 M 105.42 74.40 C 103.85 75.32 103.25 77.09 102.65 78.70 C 109.62 79.32 116.81 75.84 120.02 69.52 C 114.91 70.12 109.78 71.61 105.42 74.40 M 88.77 75.92 C 92.16 77.82 96.44 79.77 100.28 78.02 C 96.86 75.94 92.73 74.90 88.77 75.92 Z" />
<path fill="#ffffff" opacity="1.00" d=" M 121.99 44.54 C 126.61 45.07 130.24 49.00 135.03 48.66 C 138.70 48.70 143.19 49.23 145.31 52.66 C 141.70 55.18 137.62 56.81 133.51 58.33 C 138.45 60.98 144.12 61.51 149.56 62.37 C 149.79 62.77 150.26 63.57 150.49 63.97 C 147.87 64.78 145.17 65.26 142.52 65.94 C 148.25 68.31 154.74 68.22 160.79 69.51 C 161.04 69.91 161.55 70.71 161.81 71.11 C 158.77 72.36 155.50 72.78 152.35 73.63 C 152.30 73.89 152.21 74.41 152.17 74.67 C 156.34 76.41 160.27 79.00 164.90 79.34 C 167.19 79.46 169.02 80.92 170.88 82.09 C 169.25 85.75 164.92 85.90 162.19 88.30 C 161.96 90.90 165.26 91.83 167.10 92.95 C 170.18 93.97 173.96 96.39 176.94 93.90 C 183.35 89.49 191.44 88.50 199.04 88.53 C 202.02 88.44 204.84 89.56 207.35 91.08 C 206.18 92.58 205.04 94.27 203.21 95.04 C 194.37 96.98 185.41 98.85 176.29 98.43 C 176.21 98.81 176.04 99.57 175.96 99.94 C 178.01 101.92 180.78 102.83 183.38 103.85 C 186.97 105.68 190.41 102.63 193.81 101.71 C 200.61 99.23 209.68 97.60 214.97 103.89 C 213.10 105.95 211.37 108.52 208.50 109.21 C 201.80 111.00 195.09 108.29 188.37 108.20 C 186.14 109.06 184.86 112.35 186.74 114.18 C 189.68 117.19 193.41 119.58 197.57 120.50 C 200.18 121.24 202.87 120.17 205.50 120.78 C 204.45 122.87 202.42 124.28 200.01 123.73 C 193.78 123.16 187.55 120.25 183.60 115.33 C 181.45 112.72 183.17 109.47 184.17 106.79 C 180.68 105.35 176.97 104.25 173.82 102.13 C 172.81 100.60 172.72 98.66 171.73 97.11 C 167.56 96.21 163.38 94.74 160.14 91.85 C 158.41 90.50 158.82 88.15 158.69 86.23 C 156.38 85.19 152.35 85.19 151.89 82.16 C 153.12 80.39 155.30 79.90 157.15 79.06 C 153.35 77.39 149.54 74.24 145.14 75.22 C 137.85 77.04 130.53 79.56 122.95 79.51 C 120.58 79.91 119.33 76.90 121.15 75.43 C 125.50 70.82 132.48 68.77 138.66 70.20 C 143.22 70.94 148.16 73.41 152.44 70.34 C 147.10 69.48 141.31 69.74 136.57 66.73 C 137.66 65.58 138.82 64.52 140.00 63.47 C 136.55 62.34 133.02 61.47 129.67 60.05 C 129.78 58.66 129.90 57.27 130.04 55.89 C 127.05 55.70 124.08 55.22 121.32 54.02 C 122.10 50.71 125.31 49.72 128.21 48.97 C 126.00 47.70 123.26 46.95 121.99 44.54 M 126.32 52.84 C 129.91 53.85 133.69 53.98 137.37 53.37 C 134.27 50.84 129.57 50.22 126.32 52.84 M 124.33 76.97 C 130.18 76.72 135.80 74.92 141.42 73.43 C 135.91 70.52 128.08 71.83 124.33 76.97 M 156.24 82.94 C 159.57 83.85 163.07 84.09 166.47 83.43 C 163.80 80.79 159.21 80.79 156.24 82.94 M 190.40 91.66 C 186.80 92.54 182.69 92.92 180.05 95.83 C 187.85 96.10 196.12 95.40 203.21 91.94 C 199.15 90.10 194.63 91.01 190.40 91.66 M 199.84 102.83 C 196.88 103.59 193.68 104.19 191.28 106.21 C 197.79 107.10 206.50 110.49 211.29 104.04 C 207.91 101.69 203.66 102.03 199.84 102.83 Z" />
<path fill="#ffffff" opacity="1.00" d=" M 105.48 86.65 C 111.19 85.60 117.16 86.31 122.58 88.34 C 122.99 90.36 123.97 92.16 125.06 93.89 C 122.37 95.48 119.34 96.30 116.55 97.69 C 118.30 98.31 120.02 99.07 121.86 99.40 C 124.28 98.77 126.51 97.42 129.02 97.15 C 132.29 97.09 134.37 99.93 136.36 102.10 C 132.75 106.96 126.65 103.26 121.84 103.19 C 120.72 105.81 122.51 108.10 124.77 109.29 C 130.69 112.86 137.72 113.49 144.34 114.89 C 143.26 115.64 142.50 117.46 140.96 117.14 C 134.24 116.64 127.27 115.11 121.55 111.45 C 118.13 109.36 117.49 105.19 118.92 101.68 C 115.43 100.43 111.55 98.62 107.83 99.94 C 102.35 101.49 96.77 102.96 91.08 103.44 C 87.88 102.86 88.79 99.03 90.17 97.12 C 92.35 93.08 97.59 92.92 101.57 93.61 C 106.10 94.24 111.01 97.49 115.22 94.04 C 111.38 92.45 106.99 92.51 103.30 90.58 C 101.39 88.89 103.61 86.84 105.48 86.65 M 110.48 89.15 C 113.25 90.56 116.30 91.40 119.43 91.28 C 116.92 89.20 113.64 88.66 110.48 89.15 M 91.54 100.29 C 96.04 99.90 100.47 98.94 104.76 97.55 C 100.60 95.61 93.18 94.64 91.54 100.29 Z" />
</g>
</svg>
