<?xml version="1.0" encoding="UTF-8" ?>
<!DOCTYPE svg PUBLIC "-//W3C//DTD SVG 1.1//EN" "http://www.w3.org/Graphics/SVG/1.1/DTD/svg11.dtd">
<svg width="256pt" height="128pt" viewBox="0 0 256 128" version="1.1" xmlns="http://www.w3.org/2000/svg">
<g id="#ffffffff">
<path fill="#ffffff" opacity="1.00" d=" M 36.47 40.44 C 40.68 34.52 44.24 27.36 51.20 24.25 C 54.52 28.37 55.58 34.06 54.02 39.12 C 51.35 47.47 45.54 54.33 39.39 60.37 C 36.34 62.81 32.93 65.78 28.74 65.30 C 28.85 64.86 29.08 63.98 29.19 63.54 C 33.68 62.61 37.23 59.53 40.40 56.41 C 45.04 51.88 48.75 46.44 51.55 40.61 C 53.69 36.24 53.12 31.02 51.12 26.70 C 45.65 30.81 42.02 36.76 38.52 42.51 C 34.70 47.49 31.23 52.75 28.35 58.34 C 25.18 64.52 19.86 69.14 15.42 74.37 C 20.83 76.78 26.97 77.91 32.86 77.05 C 39.72 75.93 37.33 64.38 44.93 64.52 C 48.31 67.88 44.43 72.39 41.54 74.57 C 39.49 75.73 39.01 77.98 38.82 80.16 C 46.98 78.27 53.68 72.49 59.06 66.32 C 59.50 66.50 60.39 66.85 60.83 67.02 C 60.77 69.73 59.30 72.11 58.59 74.67 C 62.71 72.53 66.44 69.29 71.20 68.69 C 71.32 72.48 70.05 76.16 70.31 79.96 C 74.74 79.19 78.27 76.26 82.02 74.01 C 84.96 72.22 87.72 70.12 90.13 67.66 C 95.44 71.39 101.58 68.11 107.10 66.83 C 109.39 65.95 111.31 68.82 110.81 70.87 C 109.62 74.81 105.95 77.78 105.75 82.06 C 108.25 82.13 110.84 81.96 113.19 81.03 C 115.48 80.15 116.47 77.70 117.97 75.94 C 120.83 72.17 125.37 68.89 130.35 69.61 C 129.92 73.20 128.43 76.51 127.56 79.98 C 128.19 81.72 129.86 83.67 131.93 82.89 C 135.58 81.67 139.28 79.77 141.59 76.57 C 144.08 72.89 145.73 68.75 147.49 64.69 C 147.89 64.52 148.69 64.16 149.08 63.98 C 149.62 69.21 146.66 73.87 144.18 78.22 C 141.42 82.97 135.73 84.48 130.92 86.28 C 127.62 86.39 126.11 82.94 124.74 80.53 C 122.05 81.97 119.69 83.96 116.99 85.39 C 115.34 85.87 114.33 84.03 113.10 83.28 C 110.70 84.15 108.10 85.26 105.52 84.49 C 103.64 84.00 102.02 82.05 102.59 80.04 C 103.79 76.27 106.30 73.08 107.70 69.39 C 103.00 70.43 98.34 71.67 93.58 72.38 C 92.20 77.37 89.16 82.47 83.95 84.11 C 79.50 83.14 82.33 77.82 83.22 75.03 C 79.12 77.42 75.51 80.73 71.00 82.33 C 69.29 82.92 68.33 81.19 67.93 79.83 C 67.48 77.44 67.82 74.98 67.80 72.57 C 62.71 73.67 59.52 78.06 55.85 81.34 C 52.03 81.81 54.15 76.68 54.56 74.63 C 50.08 77.98 45.43 81.54 39.90 82.90 C 37.53 83.42 36.75 80.64 35.75 79.11 C 29.04 80.47 22.19 79.42 15.71 77.50 C 13.04 76.37 10.70 78.43 8.13 78.77 C 6.57 78.17 4.09 76.88 4.20 75.08 C 5.86 71.09 11.09 75.42 13.56 72.65 C 18.89 67.17 23.86 61.19 27.35 54.34 C 29.90 49.40 33.47 45.10 36.47 40.44 M 39.74 73.28 C 41.80 71.61 43.60 69.47 44.18 66.82 C 41.90 68.30 40.56 70.76 39.74 73.28 M 84.63 80.31 C 88.02 78.58 89.95 75.11 90.66 71.49 C 87.75 73.68 85.85 76.93 84.63 80.31 M 118.98 80.14 C 122.83 79.53 124.81 75.80 126.60 72.75 C 123.15 74.04 119.77 76.29 118.98 80.14 Z" />
<path fill="#ffffff" opacity="1.00" d=" M 170.41 41.38 C 175.68 38.92 181.98 36.65 187.65 39.17 C 191.16 41.50 191.20 46.20 190.96 49.97 C 190.16 57.78 186.58 64.99 182.62 71.67 C 180.94 74.49 179.16 77.28 178.07 80.40 C 188.84 70.41 197.91 58.70 208.27 48.28 C 209.09 47.47 210.09 46.97 211.25 46.76 C 212.02 51.97 206.24 54.08 203.37 57.38 C 194.88 66.86 186.58 76.55 177.68 85.66 C 176.59 87.44 173.31 87.68 173.48 84.97 C 175.04 77.10 180.40 70.82 183.82 63.74 C 186.84 57.50 189.23 50.51 188.33 43.49 C 187.90 40.08 183.73 40.06 181.12 40.34 C 176.38 41.30 170.70 42.67 168.44 47.47 C 167.58 48.62 168.28 49.97 169.02 50.96 C 172.55 55.33 179.16 55.73 182.33 60.42 C 176.73 58.37 170.74 55.85 167.12 50.88 C 164.45 47.53 167.50 43.35 170.41 41.38 Z" />
<path fill="#ffffff" opacity="1.00" d=" M 207.90 63.09 C 208.77 62.08 209.90 61.56 211.30 61.53 C 211.49 63.23 211.07 64.77 210.01 66.13 C 208.92 65.35 208.21 64.34 207.90 63.09 Z" />
<path fill="#ffffff" opacity="1.00" d=" M 209.22 79.24 C 210.80 74.66 213.74 69.01 219.41 69.31 C 219.69 70.81 220.33 72.31 220.11 73.86 C 218.67 78.60 211.68 79.27 211.42 84.61 C 218.52 82.22 224.64 77.41 230.13 72.42 C 230.60 72.52 231.53 72.73 232.00 72.83 C 232.08 76.60 229.38 79.63 228.76 83.26 C 232.61 81.57 235.46 78.34 239.18 76.42 C 239.99 79.06 239.18 81.75 238.83 84.38 C 242.45 85.22 245.45 82.07 247.17 79.25 C 249.26 76.14 248.39 72.35 248.15 68.89 C 252.93 70.21 252.19 76.17 250.69 79.74 C 248.92 84.48 244.08 86.64 239.89 88.77 C 237.92 87.24 236.46 85.23 235.50 82.95 C 233.40 84.43 231.30 85.98 228.91 86.97 C 225.31 86.77 226.15 81.98 225.83 79.50 C 221.91 82.37 218.11 85.60 213.56 87.43 C 210.75 88.69 209.43 85.38 208.13 83.56 C 204.94 84.87 201.82 87.11 198.24 86.97 C 195.76 86.34 195.54 83.37 196.34 81.36 C 197.75 77.30 199.75 73.25 203.09 70.42 C 203.35 71.06 203.87 72.34 204.13 72.97 C 202.21 76.63 199.47 79.98 198.67 84.14 C 202.31 82.98 206.49 81.99 209.22 79.24 M 212.47 78.43 C 215.03 76.66 217.63 74.58 218.01 71.26 C 215.27 72.79 213.45 75.50 212.47 78.43 Z" />
</g>
</svg>
