<?xml version="1.0" encoding="UTF-8" ?>
<!DOCTYPE svg PUBLIC "-//W3C//DTD SVG 1.1//EN" "http://www.w3.org/Graphics/SVG/1.1/DTD/svg11.dtd">
<svg width="256pt" height="512pt" viewBox="0 0 256 512" version="1.1" xmlns="http://www.w3.org/2000/svg">
<g id="#ffffffff">
<path fill="#ffffff" opacity="1.00" d=" M 177.59 93.01 C 184.45 92.30 189.74 97.32 194.57 101.39 C 195.07 104.34 197.67 106.22 198.47 109.01 C 198.71 111.87 198.23 115.17 196.35 117.43 C 192.88 119.35 188.83 117.68 185.25 116.94 C 184.98 117.49 184.44 118.59 184.16 119.14 C 186.01 123.17 186.61 127.63 185.93 132.01 C 185.42 135.34 187.43 138.90 186.09 142.04 C 183.59 143.09 181.72 140.47 179.62 139.59 C 178.82 143.09 181.16 146.46 180.04 149.99 C 179.19 153.72 181.21 160.48 176.03 161.44 C 169.90 158.56 167.69 151.35 162.96 146.85 C 160.42 146.92 161.06 150.30 160.14 151.99 C 159.45 151.71 158.05 151.15 157.36 150.88 C 158.87 153.39 158.18 156.28 158.77 159.02 C 158.84 161.53 157.69 163.97 158.31 166.51 C 162.42 167.25 165.94 169.38 168.45 172.73 C 170.69 174.15 169.57 177.95 167.00 178.20 C 164.94 177.87 162.96 177.20 160.92 176.81 C 160.74 178.52 160.38 180.29 160.93 181.98 C 162.30 186.80 162.92 191.82 162.84 196.82 C 162.68 198.26 161.33 198.84 160.07 199.01 C 156.99 197.96 154.58 195.61 151.68 194.18 C 151.14 201.26 152.54 208.68 157.41 214.11 C 156.27 215.44 154.46 217.77 152.53 216.43 C 149.62 213.70 146.85 210.80 143.73 208.30 C 143.46 208.98 142.91 210.34 142.63 211.02 C 144.63 216.13 146.14 221.47 148.63 226.38 C 151.96 230.71 155.27 235.07 159.05 238.98 C 161.92 245.09 166.24 250.56 168.24 257.04 C 167.86 260.55 167.77 266.46 163.01 266.64 C 158.40 265.82 155.38 261.57 153.26 257.73 C 149.64 250.93 148.08 243.34 146.21 235.95 C 145.20 232.92 144.44 229.02 140.99 227.91 C 140.93 228.68 140.81 230.23 140.75 231.01 C 142.44 236.04 144.36 241.01 145.64 246.17 C 146.65 248.76 142.71 250.86 140.81 249.19 C 138.56 247.73 136.61 245.86 134.49 244.24 C 133.37 246.83 134.49 249.44 134.85 252.05 C 135.08 258.12 138.56 263.64 138.08 269.81 C 137.43 272.29 134.34 273.35 132.17 272.16 C 128.98 270.63 126.66 267.82 123.75 265.87 C 122.19 273.32 127.07 279.99 128.73 286.99 C 129.15 288.35 128.28 289.96 126.93 290.42 C 124.98 290.39 123.62 288.88 122.23 287.74 C 118.43 284.48 114.93 280.85 110.79 278.02 C 109.30 281.25 108.75 285.30 110.21 288.62 C 112.63 290.09 115.84 289.12 118.16 290.84 C 121.20 293.06 122.54 296.82 123.59 300.28 C 124.31 302.91 123.29 306.87 120.07 307.05 C 115.96 305.39 113.22 301.58 110.81 298.02 C 110.14 298.15 108.79 298.41 108.11 298.54 C 107.16 294.83 105.31 291.45 104.07 287.84 C 104.40 284.67 105.79 281.69 106.47 278.58 C 107.13 276.65 107.67 273.78 110.03 273.37 C 114.87 273.80 117.77 278.12 121.67 280.42 C 120.55 273.59 118.48 266.85 118.76 259.87 C 120.05 259.38 121.39 258.27 122.82 259.03 C 127.24 260.39 128.97 265.34 132.93 267.44 C 132.06 260.56 130.50 253.79 129.30 246.99 C 129.71 239.43 129.16 231.84 130.02 224.31 C 132.37 223.83 134.16 222.38 135.72 220.63 C 137.59 219.96 139.59 220.59 141.49 220.74 C 140.21 213.29 139.10 205.42 135.24 198.80 C 131.60 195.42 127.55 192.43 124.37 188.58 C 121.99 185.72 121.44 181.02 124.27 178.27 C 126.16 175.86 129.46 176.09 132.16 175.49 C 133.91 177.60 136.79 179.03 137.36 181.91 C 137.92 183.94 138.65 185.93 139.08 188.01 C 139.54 190.54 138.78 193.39 140.35 195.65 C 142.27 198.64 144.73 201.32 147.63 203.39 C 148.96 198.75 146.40 194.03 148.11 189.38 C 151.69 188.51 154.73 190.12 157.46 192.26 C 158.19 186.21 156.65 180.22 156.42 174.19 C 156.55 171.26 154.18 169.26 153.26 166.75 C 153.55 164.03 154.44 161.44 155.21 158.84 C 155.06 153.94 156.22 149.12 157.25 144.37 C 158.45 139.42 165.80 140.38 167.90 144.06 C 169.86 148.04 172.46 151.66 175.01 155.28 C 176.77 146.78 175.38 137.75 171.88 129.85 C 171.12 128.56 172.27 126.86 173.76 127.13 C 176.70 128.78 178.71 131.66 181.66 133.26 C 181.16 126.62 180.06 119.98 181.24 113.32 C 184.71 108.82 189.21 117.75 192.92 113.69 C 194.94 109.28 192.29 104.08 188.59 101.39 C 185.35 98.02 180.74 96.42 177.59 93.01 M 127.50 181.04 C 128.13 185.81 132.07 189.08 135.86 191.52 C 135.93 187.44 134.90 183.40 133.14 179.74 C 131.87 177.33 127.77 178.41 127.50 181.04 M 151.95 239.62 C 150.94 242.88 153.82 245.40 154.38 248.46 C 155.18 252.21 157.56 255.29 159.36 258.60 C 160.12 260.19 161.80 260.90 163.19 261.81 C 163.42 261.09 163.87 259.63 164.09 258.90 C 162.87 253.24 159.24 248.59 156.11 243.87 C 154.96 242.24 153.99 240.27 151.95 239.62 Z" />
<path fill="#ffffff" opacity="1.00" d=" M 240.54 159.05 C 240.98 157.02 243.29 157.24 244.86 156.84 C 247.01 162.98 247.27 169.56 247.75 175.99 C 247.73 177.78 248.05 180.18 246.29 181.31 C 244.02 183.15 241.00 181.61 238.44 181.49 C 238.17 186.23 240.31 190.80 239.67 195.51 C 237.42 195.97 235.15 195.86 232.92 195.37 C 233.33 201.50 234.22 207.67 233.54 213.82 C 233.32 216.61 230.97 219.39 228.00 219.16 C 225.68 218.94 223.44 218.25 221.12 218.03 C 220.26 225.16 223.47 232.06 224.55 239.04 C 224.22 240.63 222.50 241.36 221.13 241.84 C 217.10 240.11 214.44 236.25 210.37 234.56 C 209.49 241.76 211.38 248.98 214.46 255.45 C 215.98 257.52 213.37 260.34 211.21 259.29 C 209.50 258.10 208.05 256.59 206.35 255.39 C 207.21 262.26 207.89 269.14 208.31 276.05 C 208.35 277.48 207.58 278.82 206.53 279.76 C 204.34 281.11 201.92 279.31 199.69 278.97 C 201.27 283.83 202.61 288.81 203.16 293.89 C 202.50 296.30 199.56 296.56 198.10 298.29 C 197.59 303.64 201.00 309.59 197.38 314.37 C 194.40 318.43 188.68 316.84 184.38 317.34 C 182.47 318.57 181.58 320.83 180.16 322.54 C 178.53 322.30 176.91 322.07 175.28 321.82 C 177.70 329.11 183.10 334.64 187.44 340.75 C 186.97 341.37 186.04 342.62 185.57 343.24 C 178.43 340.88 176.82 332.16 170.63 328.52 C 171.96 336.05 175.36 343.20 176.43 350.84 C 177.21 357.22 178.54 363.55 178.65 370.00 C 178.86 375.58 176.26 381.38 171.57 384.53 C 166.39 387.24 159.90 384.90 155.92 381.07 C 149.02 374.05 145.86 363.71 146.72 353.99 C 147.05 350.40 150.65 346.46 154.41 347.43 C 158.30 351.14 160.48 356.22 163.42 360.65 C 164.68 362.14 163.48 363.93 163.09 365.51 C 162.10 364.65 160.78 364.07 160.15 362.87 C 158.09 358.25 156.17 353.03 151.95 349.94 C 149.22 351.99 149.26 355.86 149.35 358.95 C 149.97 365.78 152.39 372.75 157.31 377.69 C 160.57 380.95 165.35 382.88 169.97 382.32 C 173.18 381.35 174.32 377.75 175.05 374.83 C 176.31 368.36 174.68 361.81 173.75 355.40 C 172.86 347.75 170.36 340.42 169.03 332.85 C 166.26 325.19 163.17 317.43 157.87 311.11 C 155.84 308.49 153.23 306.23 151.94 303.10 C 153.28 302.70 154.63 302.44 156.02 302.30 C 161.90 306.62 164.23 314.19 170.04 318.59 C 169.58 314.07 167.78 309.79 167.51 305.24 C 167.18 300.17 167.24 295.07 167.05 289.99 C 166.75 287.21 169.54 285.34 171.99 285.02 C 174.48 285.40 176.09 287.62 177.64 289.40 C 181.40 293.90 182.07 299.89 184.06 305.20 C 184.02 307.74 182.36 311.28 185.28 312.86 C 188.27 313.68 191.47 312.64 194.52 312.51 C 194.88 305.99 194.16 299.48 193.16 293.05 C 192.66 290.22 191.22 287.71 189.75 285.30 C 187.09 281.04 185.51 276.02 185.44 271.01 C 187.04 268.58 190.34 268.00 193.01 267.44 C 197.51 266.69 199.20 272.23 202.99 273.61 C 204.11 268.38 202.33 263.25 201.66 258.10 C 200.85 252.94 198.85 248.09 197.31 243.13 C 198.78 242.42 200.26 241.71 201.75 241.02 C 203.29 242.64 204.66 244.63 206.95 245.25 C 206.81 241.10 205.88 237.04 205.44 232.94 C 205.06 230.48 207.57 228.39 209.94 229.14 C 212.53 229.99 214.80 231.64 217.46 232.34 C 217.89 229.02 218.75 225.61 217.74 222.31 C 216.82 219.75 218.51 217.10 217.54 214.56 C 217.10 211.38 214.26 209.19 213.85 206.03 C 214.69 201.92 219.31 200.43 222.95 199.87 C 222.11 203.36 220.33 206.93 221.43 210.58 C 222.39 212.92 224.72 214.23 226.91 215.24 C 228.55 211.15 229.17 206.64 228.46 202.28 C 227.10 195.04 227.84 187.03 223.30 180.75 C 219.88 174.29 213.51 169.88 210.73 163.06 C 214.22 159.52 220.30 159.84 223.62 163.43 C 226.81 167.27 228.14 172.22 229.16 177.01 C 229.59 179.27 230.68 181.32 232.21 183.05 C 232.74 179.69 233.12 176.31 234.30 173.09 C 237.30 171.75 239.83 173.38 241.62 175.78 C 243.92 170.20 240.90 164.64 240.54 159.05 M 170.71 298.98 C 170.06 306.27 172.73 313.13 174.89 319.94 C 177.33 317.46 180.82 315.01 179.93 311.00 C 179.10 303.72 178.59 295.29 172.84 289.99 C 168.78 290.81 171.19 296.11 170.71 298.98 Z" />
<path fill="#ffffff" opacity="1.00" d=" M 107.98 299.62 C 108.82 300.18 109.67 300.75 110.52 301.31 C 110.80 303.16 111.13 304.99 111.45 306.83 C 108.14 306.05 108.84 302.15 107.98 299.62 Z" />
<path fill="#ffffff" opacity="1.00" d=" M 52.99 305.91 C 57.46 303.80 62.81 303.40 67.30 305.66 C 72.44 309.19 76.35 314.86 77.05 321.13 C 78.86 330.01 77.60 339.11 75.78 347.86 C 74.37 351.28 71.99 356.29 67.47 354.85 C 67.42 354.28 67.32 353.15 67.27 352.58 C 70.38 351.73 72.63 349.26 73.02 346.04 C 75.05 335.88 74.97 324.89 70.71 315.29 C 68.57 310.04 62.66 306.40 57.00 307.93 C 48.09 309.46 41.26 316.04 36.08 323.04 C 24.44 338.91 19.17 358.59 17.65 377.99 C 17.63 382.64 18.22 387.26 18.49 391.90 C 19.02 398.48 19.97 405.47 24.14 410.85 C 27.75 415.41 34.96 414.39 38.99 410.95 C 45.56 405.08 50.45 397.25 52.74 388.73 C 53.66 385.74 53.36 382.10 56.16 380.04 C 56.60 381.62 57.58 383.24 57.18 384.94 C 54.77 394.18 49.88 402.57 44.09 410.09 C 41.11 413.92 36.40 415.85 31.92 417.33 C 27.10 418.06 22.64 414.66 20.35 410.65 C 14.93 401.82 15.47 390.96 15.49 381.00 C 14.47 372.47 16.87 364.12 17.88 355.72 C 20.54 348.48 22.37 340.92 26.08 334.11 C 26.78 332.97 26.91 331.61 27.38 330.39 C 33.29 320.11 40.72 308.94 52.99 305.91 Z" />
<path fill="#ffffff" opacity="1.00" d=" M 109.88 309.67 C 110.62 309.71 112.11 309.77 112.85 309.81 C 113.18 317.26 115.49 324.51 115.43 331.99 C 114.64 333.67 113.11 335.75 111.03 335.54 C 107.10 334.39 104.75 330.77 102.04 327.97 C 99.43 325.27 98.11 321.70 95.95 318.68 C 94.37 321.60 93.08 324.67 92.14 327.85 C 99.03 336.24 104.13 345.95 107.93 356.09 C 108.82 357.63 107.53 359.05 106.92 360.41 C 102.96 359.37 99.98 355.08 100.17 351.00 C 98.95 345.05 94.85 340.26 91.98 335.03 C 90.39 331.94 87.21 330.29 84.82 327.93 C 86.15 326.89 87.61 326.01 88.87 324.88 C 91.33 320.71 91.19 314.63 96.10 312.30 C 102.01 317.65 103.49 327.44 111.33 330.71 C 111.96 323.65 110.17 316.70 109.88 309.67 Z" />
<path fill="#ffffff" opacity="1.00" d=" M 50.56 350.63 C 54.66 350.97 57.11 354.52 60.04 356.93 C 63.67 359.98 66.62 363.73 70.34 366.68 C 73.28 369.08 75.16 372.49 77.99 374.99 C 82.89 378.37 87.16 382.64 91.00 387.14 C 90.58 390.56 87.07 392.51 85.01 395.01 C 82.02 398.73 77.31 400.06 73.60 402.84 C 72.14 404.45 68.89 401.82 71.32 400.53 C 77.01 396.95 83.40 393.81 87.20 388.00 C 74.62 376.73 62.94 364.50 50.72 352.85 C 50.68 352.29 50.60 351.18 50.56 350.63 Z" />
</g>
</svg>
