<?xml version="1.0" encoding="UTF-8" ?>
<!DOCTYPE svg PUBLIC "-//W3C//DTD SVG 1.1//EN" "http://www.w3.org/Graphics/SVG/1.1/DTD/svg11.dtd">
<svg width="512pt" height="128pt" viewBox="0 0 512 128" version="1.1" xmlns="http://www.w3.org/2000/svg">
<g id="#ffffffff">
<path fill="#ffffff" opacity="1.00" d=" M 307.22 36.40 C 313.09 34.28 319.55 33.80 325.60 35.45 C 327.92 36.11 330.21 37.79 330.76 40.25 C 331.00 47.14 326.62 52.82 323.68 58.68 C 319.83 66.52 315.51 74.23 313.15 82.68 C 319.16 77.52 325.56 72.79 331.04 67.03 C 339.46 58.52 348.46 50.62 357.28 42.54 C 360.57 43.47 358.14 47.17 356.25 48.26 C 351.36 50.80 347.74 55.07 343.65 58.66 C 335.79 66.48 327.86 74.26 319.19 81.20 C 316.12 83.45 314.37 86.97 311.53 89.45 C 310.51 90.02 309.63 89.82 308.89 88.85 C 309.02 82.62 312.08 77.04 314.45 71.44 C 317.93 63.49 322.40 56.03 326.22 48.26 C 327.30 45.17 328.89 41.16 326.82 38.22 C 324.02 36.23 320.29 36.51 317.02 36.49 C 308.37 37.05 299.26 39.68 293.14 46.14 C 289.59 49.41 291.19 55.57 295.00 57.95 C 301.34 62.15 309.32 61.06 316.30 62.97 C 313.58 64.98 310.14 63.72 307.07 63.59 C 300.75 62.73 293.20 61.22 289.83 55.15 C 287.89 52.50 289.09 49.07 290.56 46.51 C 294.76 41.38 300.74 37.79 307.22 36.40 Z" />
<path fill="#ffffff" opacity="1.00" d=" M 226.49 37.46 C 229.05 35.85 231.69 38.64 231.96 41.13 C 232.79 46.21 230.58 51.07 228.48 55.55 C 223.46 66.96 215.45 76.98 205.73 84.73 C 203.61 86.24 201.26 88.30 198.47 87.77 C 197.42 87.01 196.89 85.79 196.15 84.77 C 192.44 86.65 188.89 88.98 184.86 90.13 C 182.91 90.81 180.43 89.15 180.91 86.98 C 181.39 83.46 183.65 80.57 185.03 77.38 C 179.62 81.36 175.51 87.32 168.94 89.60 C 166.51 89.95 165.40 87.16 164.48 85.42 C 162.58 82.06 162.57 77.91 160.08 74.87 C 155.56 77.90 153.36 83.08 149.67 86.89 C 149.17 87.02 148.16 87.28 147.65 87.41 C 147.49 81.64 151.53 77.10 154.51 72.56 C 161.83 62.50 172.06 53.64 174.27 40.78 C 170.71 43.70 167.13 46.67 164.27 50.31 C 156.39 60.00 148.22 69.57 138.51 77.49 C 132.28 82.51 125.68 87.49 117.91 89.81 C 113.52 90.88 108.05 90.76 104.77 87.19 C 102.77 85.07 102.17 81.99 102.50 79.16 C 102.99 72.61 106.23 66.48 110.89 61.92 C 115.43 56.70 120.93 52.40 126.82 48.80 C 129.37 47.48 132.97 46.49 135.45 48.47 C 138.21 50.72 137.08 54.63 136.28 57.54 C 133.60 64.34 129.84 71.14 123.64 75.32 C 123.66 71.69 127.62 70.16 129.33 67.36 C 131.82 63.53 134.07 59.38 135.19 54.92 C 135.92 52.62 135.06 48.89 131.96 49.40 C 126.29 50.08 122.12 54.46 117.84 57.83 C 111.69 63.48 104.88 70.12 104.48 79.01 C 103.97 83.21 106.47 87.99 110.99 88.48 C 115.85 88.65 120.65 87.10 124.91 84.84 C 133.05 80.34 140.28 74.38 146.97 67.96 C 156.99 58.47 164.34 46.49 175.04 37.68 C 176.50 38.97 177.10 40.81 176.48 42.70 C 174.39 50.80 169.52 57.83 164.18 64.15 C 160.94 68.66 156.35 72.22 154.09 77.40 C 162.97 68.80 171.32 59.17 182.41 53.31 C 183.74 52.43 185.25 53.19 186.63 53.47 C 187.08 58.57 182.29 61.88 179.10 65.12 C 174.96 69.66 169.29 72.19 163.97 75.02 C 165.09 79.24 165.82 83.67 168.16 87.44 C 175.99 84.60 181.07 77.47 187.24 72.23 C 189.67 70.55 191.01 66.71 194.38 67.02 C 191.96 74.56 183.78 79.79 183.66 88.08 C 188.84 86.61 193.53 83.85 198.14 81.15 C 202.38 77.40 206.12 72.81 211.59 70.74 C 208.62 64.47 210.95 57.53 213.71 51.66 C 216.46 45.84 220.83 40.62 226.49 37.46 M 214.74 55.73 C 212.79 60.58 211.24 67.60 216.00 71.30 C 221.69 65.08 225.69 57.54 228.75 49.73 C 230.04 46.42 230.40 42.60 229.05 39.24 C 221.73 41.59 217.53 49.03 214.74 55.73 M 170.17 64.17 C 167.29 66.95 164.08 69.47 161.91 72.88 C 167.81 71.19 173.09 67.75 177.60 63.64 C 180.35 61.03 183.18 58.29 184.56 54.67 C 178.95 56.34 174.56 60.50 170.17 64.17 M 199.57 84.91 C 204.39 83.42 208.40 79.99 211.41 76.02 C 207.21 78.52 202.04 80.41 199.57 84.91 Z" />
<path fill="#ffffff" opacity="1.00" d=" M 195.77 53.78 C 198.71 53.05 201.93 52.67 204.65 54.33 C 202.17 54.75 199.34 54.77 197.93 57.22 C 197.19 56.08 196.47 54.93 195.77 53.78 Z" />
<path fill="#ffffff" opacity="1.00" d=" M 356.59 60.77 C 358.54 61.05 357.35 65.38 355.49 64.48 C 354.45 63.33 355.30 61.34 356.59 60.77 Z" />
<path fill="#ffffff" opacity="1.00" d=" M 268.10 72.05 C 269.85 69.35 270.40 65.87 273.00 63.76 C 271.29 76.35 260.84 87.87 247.96 89.21 C 245.35 89.32 243.94 86.90 242.57 85.10 C 239.30 86.24 235.65 86.65 232.83 88.80 C 228.12 93.69 226.51 101.07 220.92 105.20 C 217.77 102.17 216.79 96.78 218.99 92.94 C 221.12 89.77 225.10 88.96 228.36 87.44 C 232.13 85.66 233.96 81.62 235.48 77.98 C 230.92 80.39 226.96 83.91 222.03 85.62 C 221.57 85.17 220.64 84.26 220.17 83.80 C 221.50 80.53 223.38 77.43 226.05 75.08 C 229.87 71.70 233.90 68.08 239.04 67.01 C 241.85 66.47 243.58 69.88 242.46 72.19 C 240.53 76.61 237.29 80.31 235.37 84.74 C 237.80 84.37 240.31 83.78 242.26 82.19 C 243.49 78.77 244.68 75.15 247.91 73.06 C 249.32 74.10 251.72 74.86 251.50 77.05 C 251.45 80.46 248.01 82.02 245.95 84.18 C 245.28 86.72 248.27 86.64 249.92 86.15 C 257.41 83.84 264.23 78.98 268.10 72.05 M 224.59 81.23 C 228.68 79.81 232.15 77.16 235.64 74.68 C 237.51 73.19 239.94 71.99 240.51 69.45 C 233.74 70.45 228.15 75.63 224.59 81.23 M 247.26 76.96 C 246.39 77.46 244.97 79.61 246.62 80.00 C 248.38 80.19 249.74 75.90 247.26 76.96 M 220.55 94.62 C 219.48 96.79 220.56 99.17 221.11 101.32 C 223.99 97.92 226.10 93.95 228.24 90.06 C 225.45 91.03 222.04 91.79 220.55 94.62 Z" />
<path fill="#ffffff" opacity="1.00" d=" M 342.07 71.95 C 342.80 70.86 343.84 70.43 345.21 70.66 C 344.79 74.14 341.66 76.15 339.98 78.98 C 338.33 81.63 336.20 84.10 335.63 87.26 C 338.81 87.35 341.60 85.69 344.38 84.38 C 348.95 82.74 349.24 76.62 353.66 74.70 C 356.17 73.28 359.07 73.88 361.43 75.29 C 359.73 82.10 349.43 81.15 348.16 88.31 C 356.09 86.86 363.41 82.55 368.58 76.36 C 369.67 74.68 372.06 77.36 370.81 78.63 C 368.93 81.89 366.38 84.75 364.98 88.28 C 369.56 86.09 373.05 82.29 377.25 79.54 C 378.65 78.99 379.35 80.64 378.78 81.72 C 377.42 85.11 376.46 88.99 377.95 92.51 C 386.97 91.79 391.16 82.04 392.22 74.19 C 390.91 73.47 389.59 72.77 388.33 71.99 C 390.12 71.36 392.25 70.58 393.88 72.05 C 396.92 75.18 394.19 79.63 392.90 82.96 C 391.11 88.04 387.04 91.93 382.39 94.44 C 380.67 95.16 378.31 95.66 376.86 94.16 C 374.17 92.02 374.48 88.27 374.24 85.21 C 370.44 87.75 367.08 90.95 362.84 92.78 C 359.89 90.52 362.84 87.19 363.44 84.50 C 359.11 87.16 354.48 89.32 349.65 90.89 C 348.29 91.35 346.87 90.99 345.50 90.85 C 345.14 89.53 344.79 88.21 344.43 86.89 C 340.67 88.87 336.41 91.92 332.16 89.15 C 333.96 82.69 337.86 77.08 342.07 71.95 M 355.63 77.11 C 354.37 77.66 352.20 78.42 352.28 80.06 C 353.60 80.48 354.78 79.11 355.91 78.60 C 357.13 78.30 357.09 76.37 355.63 77.11 Z" />
</g>
</svg>
