<?xml version="1.0" encoding="UTF-8" ?>
<!DOCTYPE svg PUBLIC "-//W3C//DTD SVG 1.1//EN" "http://www.w3.org/Graphics/SVG/1.1/DTD/svg11.dtd">
<svg width="256pt" height="128pt" viewBox="0 0 256 128" version="1.1" xmlns="http://www.w3.org/2000/svg">
<g id="#ffffffff">
<path fill="#ffffff" opacity="1.00" d=" M 200.53 32.45 C 195.86 22.18 199.30 8.24 209.06 2.16 C 210.63 4.50 212.23 7.01 212.27 9.94 C 212.38 17.31 210.90 24.56 208.79 31.59 C 211.72 31.71 214.20 29.98 216.72 28.75 C 220.94 26.36 225.34 24.29 229.97 22.84 C 230.29 24.00 231.03 25.20 230.60 26.44 C 229.33 31.74 227.93 37.05 225.62 42.00 C 222.22 41.56 217.86 39.25 217.78 35.44 C 219.94 36.00 221.81 37.24 223.87 38.06 C 226.35 35.47 226.56 31.26 227.18 27.81 C 222.73 29.26 218.69 31.64 214.39 33.45 C 211.43 34.98 207.84 35.98 205.99 38.99 C 202.98 43.42 200.05 48.01 196.00 51.59 C 193.24 49.40 190.12 51.61 187.10 51.44 C 182.23 49.05 185.96 42.96 185.95 38.90 C 184.66 39.08 183.48 39.64 182.70 40.71 C 178.63 45.10 175.35 50.23 170.81 54.17 C 168.50 55.83 167.26 52.67 166.45 51.06 C 163.45 53.43 160.95 56.79 157.02 57.65 C 153.27 57.27 153.69 52.57 153.49 49.82 C 150.94 50.98 148.84 53.00 147.37 55.37 C 146.22 57.12 145.69 59.56 143.34 60.04 C 143.21 58.18 143.17 56.33 143.04 54.48 C 141.26 55.90 139.91 57.77 138.22 59.29 C 136.39 60.89 133.94 61.48 132.03 62.93 C 130.51 64.90 129.46 67.55 126.95 68.46 C 125.46 68.88 123.83 67.82 124.13 66.18 C 125.39 65.27 126.94 64.94 128.30 64.23 C 129.96 62.71 128.66 60.58 127.96 58.95 C 119.26 64.69 119.68 76.14 117.42 85.18 C 117.67 87.54 113.65 87.60 114.55 85.01 C 115.77 76.51 117.97 68.18 119.65 59.77 C 115.13 63.12 112.23 68.69 106.77 70.68 C 104.14 71.47 102.62 68.71 101.16 67.07 C 99.03 69.62 97.10 72.71 93.93 74.06 C 89.68 73.30 91.09 67.29 88.18 64.87 C 84.83 68.09 82.62 72.21 80.24 76.12 C 79.85 76.41 79.09 76.99 78.70 77.28 C 78.36 74.77 78.49 72.25 78.55 69.73 C 75.05 72.79 70.40 74.90 68.40 79.34 C 66.90 82.68 64.88 86.54 60.96 87.37 C 56.77 86.26 53.46 83.06 50.32 80.21 C 45.87 84.49 41.42 88.79 36.56 92.61 C 31.76 96.42 27.00 100.69 21.00 102.45 C 17.79 103.29 14.59 100.96 13.81 97.88 C 12.62 93.49 14.34 89.04 16.13 85.07 C 18.60 80.33 21.44 75.00 27.03 73.49 C 31.00 73.63 33.16 78.17 32.59 81.73 C 31.90 85.75 29.95 89.43 27.84 92.87 C 27.25 94.08 26.13 94.80 24.85 95.14 C 26.61 90.64 29.88 86.76 30.82 81.93 C 31.30 79.28 29.37 75.47 26.23 76.23 C 21.68 77.89 19.65 82.64 17.66 86.65 C 16.31 90.05 14.29 94.03 16.29 97.58 C 17.59 100.95 22.07 100.04 24.46 98.48 C 33.31 92.71 41.62 86.09 49.21 78.75 C 48.23 77.49 47.19 76.28 46.12 75.10 C 46.39 74.51 46.95 73.32 47.22 72.73 C 48.96 73.45 50.57 74.44 52.15 75.45 C 60.10 68.48 65.50 59.25 72.22 51.19 C 74.47 48.53 75.10 45.03 76.14 41.80 C 78.86 43.77 76.79 47.37 76.80 50.08 C 76.10 57.79 73.49 65.10 71.14 72.42 C 74.49 70.96 77.34 68.44 79.42 65.47 C 81.60 57.86 81.62 49.74 84.20 42.22 C 84.99 40.44 85.63 37.88 88.02 37.88 C 88.91 42.98 88.77 48.29 87.35 53.28 C 85.78 58.90 81.72 63.56 80.96 69.45 C 83.86 67.03 85.63 62.50 89.81 62.11 C 92.52 64.13 92.28 68.25 94.05 71.03 C 97.07 68.84 100.03 66.06 101.40 62.55 C 100.61 56.80 105.25 51.34 110.90 50.66 C 112.81 51.02 113.89 53.16 113.41 54.98 C 112.38 59.24 108.67 62.05 105.03 64.08 C 102.95 64.65 104.15 68.09 106.01 67.82 C 107.68 67.48 108.99 66.31 110.29 65.29 C 114.47 61.82 118.48 57.92 120.90 52.98 C 123.36 47.85 123.36 42.00 124.53 36.58 C 124.92 36.28 125.70 35.69 126.09 35.39 C 126.75 37.79 127.55 40.35 126.83 42.84 C 125.27 48.63 123.87 54.47 122.24 60.25 C 124.01 59.06 125.39 57.33 127.29 56.33 C 129.93 55.51 130.81 59.20 133.01 59.63 C 136.24 58.66 138.37 55.92 140.62 53.60 C 142.43 51.65 144.37 49.56 144.83 46.84 C 146.02 40.50 147.90 34.30 148.60 27.88 C 148.73 26.56 149.13 25.32 149.78 24.16 C 152.11 26.45 153.13 29.79 152.42 32.99 C 151.82 39.61 148.50 45.44 146.03 51.47 C 148.70 50.33 150.49 47.90 153.01 46.51 C 156.89 47.29 155.67 52.23 156.29 55.09 C 159.63 53.78 162.28 51.28 164.93 48.95 C 168.23 46.31 166.86 40.95 170.48 38.54 C 171.42 38.43 172.36 38.40 173.32 38.42 C 173.73 40.09 174.51 41.93 173.57 43.57 C 172.34 46.40 168.53 47.67 168.86 51.20 C 175.58 46.75 179.53 39.13 185.97 34.26 C 187.10 36.31 188.76 38.47 188.34 40.97 C 187.90 43.30 187.18 45.58 187.05 47.96 C 189.65 48.31 192.74 47.57 194.12 45.15 C 195.66 42.67 196.71 39.87 198.63 37.63 C 199.71 36.14 201.67 34.46 200.53 32.45 M 200.85 22.01 C 201.21 25.93 201.34 31.44 205.69 33.11 C 208.98 25.03 211.45 15.92 209.39 7.26 C 209.04 7.00 208.32 6.50 207.96 6.25 C 203.11 9.92 201.66 16.31 200.85 22.01 M 196.83 44.99 C 199.83 43.64 201.70 40.80 203.06 37.93 C 200.01 39.05 198.15 42.17 196.83 44.99 M 168.87 46.13 C 170.72 44.58 171.77 42.36 172.15 40.00 C 169.91 41.22 169.19 43.77 168.87 46.13 M 83.85 57.38 C 86.79 53.60 86.88 48.42 86.57 43.85 C 84.04 47.78 84.68 52.92 83.85 57.38 M 67.90 58.95 C 63.40 65.09 58.65 71.03 53.93 76.99 C 56.43 77.95 59.18 78.69 61.79 77.60 C 64.38 76.53 67.82 75.60 68.48 72.47 C 70.78 65.59 73.79 58.81 74.26 51.48 C 71.61 53.48 69.91 56.38 67.90 58.95 M 103.60 61.27 C 107.22 60.49 110.57 57.65 111.10 53.85 C 107.00 53.83 103.68 57.21 103.60 61.27 M 56.46 81.32 C 57.63 83.03 59.66 84.41 61.80 83.92 C 64.27 83.55 64.98 80.85 66.04 78.99 C 62.92 80.06 59.78 81.13 56.46 81.32 Z" />
<path fill="#ffffff" opacity="1.00" d=" M 80.11 90.94 C 81.58 87.76 81.97 84.17 83.73 81.12 C 86.46 84.67 83.72 89.01 84.83 92.90 C 87.21 90.06 89.39 87.02 92.14 84.51 C 93.62 83.66 94.46 85.89 95.34 86.70 C 97.93 90.82 97.08 96.42 94.12 100.12 C 91.44 103.91 87.06 105.79 82.92 107.51 C 84.12 109.10 85.57 110.47 87.04 111.81 C 89.63 110.22 92.07 108.39 94.24 106.26 C 98.25 102.25 102.86 98.80 106.04 94.04 C 109.93 96.94 106.37 101.40 105.92 105.06 C 111.05 100.78 117.01 97.52 121.64 92.64 C 123.44 90.81 125.16 88.90 126.99 87.09 C 130.93 90.78 128.78 96.46 128.76 101.11 C 130.72 100.49 132.61 99.57 134.08 98.10 C 136.51 96.11 135.91 92.62 137.03 89.96 C 137.79 87.88 139.42 85.26 141.95 85.49 C 144.94 85.96 145.53 89.96 144.15 92.17 C 142.60 94.52 140.33 96.24 138.32 98.17 C 139.34 99.03 140.37 100.51 141.91 100.13 C 148.16 97.61 152.67 92.31 156.49 86.96 C 155.95 85.84 155.43 84.72 154.92 83.59 C 157.48 83.13 159.32 85.46 159.03 87.88 C 155.82 94.63 150.71 100.73 143.86 103.95 C 140.68 104.41 138.58 101.37 136.13 99.89 C 133.63 102.33 130.66 104.21 127.38 105.40 C 125.06 106.28 122.99 109.45 120.31 107.84 C 117.99 106.82 117.34 104.12 116.17 102.12 C 112.19 104.57 109.10 108.26 105.03 110.52 C 101.41 109.91 103.23 104.99 102.93 102.46 C 99.15 106.16 95.23 109.71 91.63 113.58 C 90.48 115.09 88.21 115.51 86.68 114.33 C 84.15 112.54 82.27 109.83 79.26 108.76 C 77.98 112.05 77.32 115.57 75.80 118.75 C 75.33 118.86 74.40 119.07 73.94 119.18 C 72.59 111.48 78.49 105.21 79.09 97.76 C 74.48 101.49 72.83 107.55 68.72 111.70 C 63.70 117.55 58.65 124.21 51.01 126.64 C 47.67 126.24 44.40 123.77 43.82 120.34 C 42.83 115.98 42.92 110.67 46.47 107.43 C 48.47 105.65 50.36 103.45 52.99 102.65 C 57.42 104.38 57.24 110.81 54.99 114.21 C 52.47 111.69 56.68 106.51 53.04 105.35 C 48.76 108.08 44.77 112.56 45.47 118.01 C 45.81 120.56 47.29 124.67 50.62 123.62 C 56.10 121.16 60.38 116.78 64.62 112.66 C 67.75 110.05 70.02 106.66 72.47 103.45 C 75.35 99.50 78.51 95.62 80.11 90.94 M 81.54 104.11 C 86.53 102.58 91.79 99.82 93.70 94.62 C 94.99 92.32 94.36 89.63 93.06 87.49 C 88.50 92.46 83.95 97.70 81.54 104.11 M 138.13 95.17 C 140.35 93.36 141.71 90.63 142.33 87.88 C 139.24 88.80 138.95 92.54 138.13 95.17 M 117.91 100.89 C 120.18 100.98 122.68 102.15 124.83 101.16 C 126.27 98.68 126.55 95.78 126.74 92.98 C 123.32 95.00 120.74 98.16 117.91 100.89 Z" />
<path fill="#ffffff" opacity="1.00" d=" M 107.19 84.31 C 110.02 82.61 111.45 88.42 109.05 89.64 C 106.57 89.14 106.38 86.24 107.19 84.31 Z" />
</g>
</svg>
