<?xml version="1.0" encoding="UTF-8" ?>
<!DOCTYPE svg PUBLIC "-//W3C//DTD SVG 1.1//EN" "http://www.w3.org/Graphics/SVG/1.1/DTD/svg11.dtd">
<svg width="256pt" height="256pt" viewBox="0 0 256 256" version="1.1" xmlns="http://www.w3.org/2000/svg">
<g id="#ffffffff">
<path fill="#ffffff" opacity="1.00" d=" M 238.55 77.70 C 239.36 70.88 243.48 64.07 249.99 61.41 C 255.96 64.43 255.78 72.47 254.21 78.06 C 253.15 82.86 250.16 86.85 248.29 91.32 C 244.52 99.11 238.57 106.14 230.78 110.10 C 228.59 111.45 226.30 109.79 224.10 109.42 C 221.84 109.85 219.65 111.59 217.30 110.74 C 215.90 110.40 215.29 109.51 215.46 108.05 C 215.64 105.54 216.27 103.10 216.52 100.60 C 211.29 102.30 208.05 106.91 203.97 110.25 C 202.94 109.59 202.05 108.75 201.14 107.95 C 198.97 109.57 196.87 111.58 194.11 112.06 C 192.03 111.77 191.77 109.43 190.93 107.92 C 188.97 109.44 187.08 111.07 184.91 112.28 C 183.57 112.05 182.36 111.37 181.11 110.89 C 178.25 112.33 175.35 114.01 172.10 114.30 C 169.55 114.12 168.27 111.26 168.86 109.01 C 169.60 105.56 171.83 102.72 173.11 99.48 C 170.00 100.69 167.56 103.01 164.86 104.88 C 161.82 107.10 158.64 109.38 156.62 112.63 C 153.51 118.10 151.33 124.27 147.02 128.95 C 143.48 127.02 145.49 122.49 146.72 119.69 C 148.91 114.20 154.56 111.21 156.87 105.83 C 151.91 109.86 146.15 112.73 140.37 115.38 C 136.62 116.88 132.53 118.05 128.46 117.43 C 126.15 116.94 124.21 115.50 122.18 114.39 C 117.79 117.24 114.42 121.78 109.41 123.53 C 109.43 120.47 112.54 119.29 114.47 117.48 C 116.48 115.63 118.93 114.24 120.70 112.14 C 119.82 109.48 118.44 106.88 118.58 104.00 C 118.74 98.11 121.95 92.91 125.14 88.17 C 128.79 82.58 133.81 78.08 138.97 73.92 C 143.54 70.20 148.77 67.21 154.46 65.62 C 157.61 64.88 161.62 65.77 163.10 68.94 C 166.79 75.27 165.48 83.08 162.45 89.38 C 159.49 96.10 153.34 100.70 147.07 104.13 C 144.81 105.15 142.15 106.71 139.67 105.44 C 138.54 104.23 138.14 102.56 137.46 101.09 C 133.31 105.27 128.51 108.73 124.46 112.99 C 128.90 115.85 134.46 114.86 139.18 113.34 C 145.96 111.02 152.25 107.34 157.61 102.59 C 159.60 100.77 160.33 97.62 163.22 96.88 C 163.44 99.76 161.57 102.15 160.74 104.78 C 165.32 102.15 169.32 98.64 173.27 95.16 C 174.34 96.71 175.53 98.26 176.07 100.10 C 174.67 103.85 172.12 107.18 171.73 111.29 C 176.53 110.08 182.67 109.04 184.86 103.93 C 187.28 99.24 191.15 95.03 196.18 93.18 C 198.13 92.27 199.98 94.05 200.26 95.92 C 197.18 99.54 194.87 103.93 194.39 108.73 C 198.92 107.29 202.15 103.66 205.37 100.38 C 207.08 98.64 208.32 96.30 210.78 95.51 C 210.78 97.25 210.71 99.00 210.57 100.74 C 213.29 99.20 216.11 97.60 219.34 97.62 C 219.97 101.28 218.62 104.82 218.35 108.44 C 220.93 107.59 224.18 107.25 225.67 104.65 C 228.11 100.56 231.51 96.74 236.21 95.32 C 238.72 94.10 240.70 99.77 242.37 96.33 C 237.08 91.73 237.11 84.02 238.55 77.70 M 241.36 80.07 C 241.33 84.72 239.91 90.66 243.91 94.11 C 246.22 90.57 247.89 86.67 249.84 82.93 C 252.68 77.33 254.03 70.37 250.99 64.56 C 244.37 66.27 242.33 74.13 241.36 80.07 M 141.17 75.16 C 133.72 81.39 126.20 88.35 122.91 97.77 C 120.97 101.84 120.92 106.51 122.94 110.56 C 127.56 107.02 131.78 102.99 136.03 99.02 C 139.00 96.39 140.65 92.70 143.11 89.66 C 143.57 89.72 144.49 89.83 144.94 89.88 C 145.15 92.33 143.15 94.08 142.25 96.18 C 140.92 98.43 140.79 101.07 140.88 103.61 C 146.53 102.74 150.99 98.79 155.15 95.17 C 160.97 90.03 163.89 81.85 162.62 74.19 C 162.04 71.67 160.87 68.35 157.81 68.16 C 151.51 67.78 146.03 71.63 141.17 75.16 M 186.50 107.39 C 191.21 104.53 194.35 99.81 197.76 95.62 C 192.26 97.18 188.36 102.18 186.50 107.39 M 228.16 107.37 C 231.79 104.71 237.03 103.10 238.07 98.17 C 233.09 98.68 229.69 102.91 228.16 107.37 Z" />
<path fill="#ffffff" opacity="1.00" d=" M 47.98 74.92 C 50.99 74.93 51.75 71.54 53.29 69.63 C 53.60 71.36 53.26 73.09 53.01 74.81 C 60.79 74.53 68.58 74.22 76.36 73.89 C 76.60 78.58 79.27 83.67 75.97 87.96 C 72.89 94.89 64.83 97.86 62.13 104.92 C 65.92 103.10 69.33 99.72 73.82 100.00 C 74.02 103.15 73.25 106.23 73.14 109.35 C 75.47 109.34 78.47 108.53 79.09 105.95 C 80.40 100.92 83.29 95.54 88.64 94.00 C 89.54 95.48 91.35 96.96 90.27 98.84 C 88.34 103.06 84.05 105.44 81.36 109.09 C 82.74 109.42 84.20 110.24 85.61 109.53 C 91.12 107.15 96.43 103.50 99.14 97.98 C 100.40 100.12 99.86 102.45 98.07 104.08 C 94.64 107.87 90.31 110.94 85.47 112.63 C 82.92 113.52 80.81 111.44 78.87 110.14 C 76.62 110.98 73.98 113.19 71.65 111.36 C 69.40 108.89 71.47 105.38 71.43 102.49 C 67.94 104.02 64.53 106.00 62.07 108.99 C 60.99 110.37 59.63 111.52 57.84 111.82 C 58.03 109.63 58.33 107.45 58.59 105.27 C 54.11 107.59 49.42 111.30 44.09 110.32 C 41.48 108.83 42.68 105.68 44.14 103.83 C 44.44 105.49 44.70 107.15 44.93 108.82 C 53.31 107.18 61.33 101.89 65.00 94.00 C 68.29 88.13 71.72 82.33 75.02 76.46 C 67.43 76.30 59.83 76.74 52.27 77.25 C 50.80 79.00 50.31 81.32 49.33 83.34 C 46.31 89.88 43.02 96.30 39.74 102.71 C 38.21 105.61 37.33 108.95 34.94 111.32 C 32.96 110.75 32.09 108.62 30.80 107.19 C 28.81 104.24 25.91 102.15 23.24 99.88 C 24.99 99.33 26.80 99.52 28.05 100.95 C 30.61 103.14 32.54 105.92 34.83 108.36 C 38.87 100.51 42.71 92.56 46.70 84.68 C 47.87 82.40 48.78 79.99 49.45 77.51 C 42.30 77.27 35.14 77.11 27.99 77.38 C 20.16 77.66 12.29 76.08 4.49 77.42 C 9.69 83.18 17.73 84.80 25.00 86.27 C 28.50 87.27 31.77 85.36 35.11 84.63 C 32.93 88.45 27.89 88.93 23.98 88.19 C 16.64 86.97 8.93 84.81 3.46 79.50 C 1.51 77.97 2.26 74.61 5.00 74.82 C 19.32 74.46 33.66 75.34 47.98 74.92 M 67.84 94.60 C 71.59 91.31 75.78 87.05 75.41 81.66 C 72.16 85.48 70.12 90.17 67.84 94.60 M 82.35 104.50 C 85.19 102.73 87.77 100.18 88.39 96.76 C 85.07 98.04 82.96 101.06 82.35 104.50 Z" />
<path fill="#ffffff" opacity="1.00" d=" M 98.70 134.72 C 99.86 133.81 101.16 132.77 102.74 133.06 C 105.06 134.46 105.88 137.43 105.58 139.99 C 104.44 138.43 103.45 136.78 102.31 135.22 C 93.16 142.41 86.52 152.14 77.83 159.83 C 73.57 163.86 68.75 167.22 64.29 171.02 C 66.29 173.59 68.23 176.42 71.19 177.98 C 73.49 178.57 75.91 178.11 78.23 178.57 C 76.35 180.04 73.99 181.40 71.52 180.67 C 67.21 179.62 64.92 175.49 61.97 172.57 C 59.23 175.40 58.19 179.35 56.74 182.91 C 55.76 182.60 54.77 182.30 53.78 182.01 C 54.42 180.05 55.15 178.12 55.92 176.21 C 53.57 175.75 50.60 176.16 48.98 174.02 C 45.03 169.69 49.31 162.09 54.84 162.22 C 57.38 162.50 59.06 164.73 61.07 166.07 C 64.78 158.79 67.75 151.16 70.45 143.45 C 62.80 145.45 55.00 147.41 47.04 147.30 C 45.66 147.36 44.29 147.50 42.92 147.72 C 45.35 150.70 49.13 152.52 52.98 152.50 C 55.43 152.11 57.80 151.22 60.30 151.07 C 58.22 154.78 53.20 155.19 49.44 154.40 C 45.03 153.21 40.38 150.03 39.57 145.25 C 49.89 145.54 60.33 144.46 70.18 141.28 C 72.12 140.45 73.59 138.84 75.33 137.68 C 77.03 141.00 73.24 143.49 72.56 146.59 C 70.46 153.43 67.06 159.76 64.69 166.50 C 70.92 162.28 76.28 156.90 81.74 151.74 C 87.31 145.99 92.49 139.82 98.70 134.72 M 50.64 172.30 C 54.06 174.37 58.08 171.73 60.14 168.91 C 58.87 167.46 57.65 165.76 55.74 165.14 C 51.93 163.50 47.10 169.26 50.64 172.30 Z" />
<path fill="#ffffff" opacity="1.00" d=" M 140.64 149.01 C 140.81 147.72 141.55 147.05 142.86 146.98 C 144.04 149.64 145.49 152.62 144.36 155.54 C 142.87 153.53 141.21 151.50 140.64 149.01 Z" />
<path fill="#ffffff" opacity="1.00" d=" M 158.46 160.52 C 161.17 159.61 165.49 160.43 165.39 164.01 C 164.85 168.23 162.28 171.85 161.31 175.98 C 166.72 173.48 171.89 170.33 175.90 165.87 C 178.09 164.30 183.04 160.26 183.86 165.02 C 179.19 167.22 174.31 170.06 172.63 175.31 C 176.97 172.78 180.41 169.05 184.18 165.79 C 184.67 165.66 185.66 165.40 186.15 165.28 C 185.95 168.47 185.49 171.64 185.27 174.83 C 190.15 173.42 194.16 170.18 198.14 167.18 C 200.51 165.55 201.84 162.52 204.82 161.86 C 204.82 163.70 204.63 165.54 204.39 167.37 C 206.84 166.07 209.16 164.36 211.93 163.81 C 214.11 163.83 214.05 166.26 213.79 167.83 C 213.12 170.77 212.21 173.65 211.71 176.62 C 214.37 176.29 217.08 175.76 219.43 174.39 C 225.67 170.67 232.22 166.84 236.19 160.53 C 238.85 159.63 238.42 163.08 237.37 164.37 C 235.06 167.08 232.40 169.50 229.45 171.50 C 224.01 175.00 218.72 179.29 212.11 180.23 C 210.27 180.56 208.46 178.75 208.77 176.91 C 209.01 173.65 209.98 170.52 210.59 167.33 C 206.07 169.12 201.86 171.97 199.26 176.17 C 198.56 177.61 197.04 178.15 195.60 178.52 C 195.55 176.63 195.73 174.75 195.94 172.87 C 192.44 175.13 188.97 177.67 184.87 178.70 C 181.39 178.84 182.12 174.21 181.55 171.93 C 178.16 174.76 175.17 178.14 171.40 180.48 C 169.98 181.57 167.75 180.94 167.56 179.03 C 168.07 177.15 168.95 175.40 169.61 173.58 C 165.19 175.94 160.79 178.68 157.62 182.64 C 154.17 188.86 150.86 195.15 147.41 201.37 C 146.65 202.90 145.21 203.89 143.98 205.01 C 140.77 200.62 142.36 194.87 144.39 190.35 C 146.59 185.39 151.65 182.93 155.56 179.55 C 157.49 177.30 158.59 174.48 159.53 171.72 C 154.73 175.14 150.26 179.18 144.86 181.64 C 142.40 182.45 141.25 179.17 142.08 177.31 C 144.77 169.77 150.57 162.81 158.46 160.52 M 144.71 177.97 C 149.28 176.68 152.79 173.27 156.45 170.41 C 158.85 168.24 161.91 166.48 163.14 163.31 C 161.52 162.95 159.79 162.17 158.25 163.21 C 151.81 165.63 146.24 171.23 144.71 177.97 M 144.98 198.69 C 148.47 194.80 150.46 189.81 152.79 185.19 C 147.82 187.65 144.78 193.19 144.98 198.69 Z" />
<path fill="#ffffff" opacity="1.00" d=" M 82.27 179.77 C 82.90 173.50 87.25 168.31 91.74 164.21 C 95.54 167.68 100.50 164.04 104.89 164.48 C 110.25 168.75 104.21 174.90 102.66 179.56 C 105.45 178.68 108.30 177.55 110.37 175.40 C 113.71 171.84 115.96 167.26 120.02 164.39 C 121.82 164.06 123.94 166.07 123.03 167.89 C 121.97 171.08 120.69 174.20 119.89 177.48 C 126.95 175.47 133.06 171.16 139.20 167.29 C 140.68 166.57 142.23 163.08 143.90 164.99 C 143.99 165.46 144.16 166.41 144.25 166.88 C 142.99 171.32 141.47 175.72 139.75 180.00 C 138.40 180.60 137.54 180.18 137.18 178.75 C 137.33 175.98 138.67 173.46 139.27 170.79 C 132.85 173.69 127.50 178.60 120.75 180.82 C 119.37 181.48 117.87 181.16 116.44 180.93 C 115.48 176.97 117.64 173.45 118.72 169.82 C 115.42 172.22 114.18 176.44 110.94 178.91 C 108.11 181.04 104.89 183.09 101.22 183.06 C 98.94 181.72 99.40 178.59 100.51 176.63 C 102.09 173.67 103.55 170.63 104.59 167.43 C 100.82 167.12 97.18 168.38 93.51 169.04 C 93.59 174.22 91.07 179.21 86.78 182.12 C 84.91 183.39 81.95 182.26 82.27 179.77 M 85.60 178.30 C 88.52 176.74 90.62 173.93 90.92 170.59 C 87.78 171.88 86.77 175.43 85.60 178.30 Z" />
</g>
</svg>
