<?xml version="1.0" encoding="UTF-8" ?>
<!DOCTYPE svg PUBLIC "-//W3C//DTD SVG 1.1//EN" "http://www.w3.org/Graphics/SVG/1.1/DTD/svg11.dtd">
<svg width="64pt" height="64pt" viewBox="0 0 64 64" version="1.1" xmlns="http://www.w3.org/2000/svg">
<g id="#ffffffff">
<path fill="#ffffff" opacity="1.00" d=" M 35.89 22.56 C 39.63 19.41 43.43 14.59 48.87 15.33 C 50.47 15.14 51.74 16.20 53.05 16.93 C 49.49 20.08 47.22 24.18 45.03 28.31 C 43.45 27.17 41.95 25.94 40.43 24.73 C 38.77 24.33 37.11 23.84 35.89 22.56 Z" />
<path fill="#ffffff" opacity="1.00" d=" M 27.71 15.69 C 31.72 14.67 31.47 18.98 31.52 21.62 C 32.55 23.28 33.22 24.97 32.23 26.84 C 29.95 25.61 27.83 26.61 26.35 28.52 C 23.71 27.67 21.17 26.55 18.64 25.41 C 19.58 28.01 20.48 30.65 21.80 33.09 C 21.31 34.42 20.80 35.74 20.32 37.07 C 22.68 39.53 25.58 41.27 28.74 42.47 C 30.71 44.59 26.96 45.69 25.43 46.30 C 22.29 46.66 18.71 47.36 15.80 45.81 C 14.30 46.38 12.70 46.50 11.14 46.08 C 11.52 40.87 14.50 35.70 19.51 33.73 C 15.26 29.84 11.03 25.50 5.26 24.00 C 5.88 22.87 5.85 20.82 7.47 20.60 C 11.44 19.50 15.67 18.53 19.71 19.89 C 19.73 19.03 19.77 17.32 19.79 16.47 C 22.39 17.31 25.02 18.04 27.68 18.68 C 27.69 17.93 27.70 16.44 27.71 15.69 M 13.53 23.00 C 13.09 24.38 13.58 24.86 15.01 24.43 C 15.47 23.02 14.98 22.55 13.53 23.00 Z" />
<path fill="#ffffff" opacity="1.00" d=" M 29.19 33.12 C 29.56 31.65 28.41 29.35 30.11 28.51 C 32.17 28.99 30.83 31.91 31.37 33.40 C 33.21 31.73 35.25 28.17 38.15 29.58 C 39.03 31.20 36.23 31.99 35.59 33.24 C 36.60 33.22 38.62 33.19 39.62 33.17 C 38.71 34.11 37.75 34.99 36.76 35.85 C 37.73 36.85 38.48 38.00 39.00 39.29 C 36.55 38.53 34.20 37.50 31.89 36.38 C 33.63 38.82 35.99 41.22 35.16 44.50 C 36.57 43.97 37.98 43.43 39.39 42.90 C 39.03 40.18 39.00 37.12 40.71 34.81 C 41.92 33.14 43.08 31.41 43.66 29.41 C 48.37 29.20 53.30 30.92 56.57 34.37 C 57.32 35.90 55.55 36.70 54.63 37.53 C 51.18 38.14 46.84 35.87 44.36 39.35 C 40.43 42.45 42.15 47.57 41.81 51.82 C 41.74 53.63 39.75 52.58 38.99 51.96 C 36.25 50.01 33.77 47.64 32.10 44.69 C 30.92 43.39 32.81 42.05 33.27 40.89 C 32.05 39.91 30.95 38.07 29.13 38.56 C 27.65 38.92 26.26 39.58 24.81 40.04 C 24.64 39.00 24.47 37.95 24.32 36.90 C 23.40 36.25 22.50 35.59 21.61 34.92 C 23.36 34.38 25.16 34.67 26.93 34.95 C 25.56 33.52 24.14 32.06 23.94 29.98 C 25.96 30.51 27.56 31.88 29.19 33.12 Z" />
</g>
</svg>
