<?xml version="1.0" encoding="UTF-8" ?>
<!DOCTYPE svg PUBLIC "-//W3C//DTD SVG 1.1//EN" "http://www.w3.org/Graphics/SVG/1.1/DTD/svg11.dtd">
<svg width="64pt" height="64pt" viewBox="0 0 64 64" version="1.1" xmlns="http://www.w3.org/2000/svg">
<g id="#ffffffff">
<path fill="#ffffff" opacity="1.00" d=" M 43.72 11.14 C 48.13 9.09 46.30 3.08 49.90 0.26 C 51.22 3.42 50.41 6.81 50.05 10.08 C 52.60 8.16 54.84 5.47 58.15 4.93 C 59.04 8.92 55.01 11.11 53.35 14.20 C 56.01 13.16 59.23 9.31 62.02 12.03 C 61.43 14.31 58.96 15.11 57.27 16.41 C 59.35 18.19 61.19 20.27 62.31 22.80 C 61.10 23.47 59.87 24.13 58.64 24.77 C 58.69 26.51 58.67 28.24 58.51 29.97 C 56.00 28.99 54.36 26.89 53.03 24.63 C 52.11 27.27 51.85 30.27 49.87 32.39 C 48.99 29.73 49.08 26.92 49.25 24.16 C 45.88 24.79 42.44 24.83 39.06 24.30 C 39.92 22.87 40.80 21.46 41.68 20.04 C 41.09 18.51 40.49 16.99 39.95 15.44 C 41.58 16.62 43.18 17.86 44.80 19.06 C 44.02 20.33 43.25 21.61 42.58 22.94 C 44.50 21.91 46.36 20.75 48.29 19.73 C 48.39 18.37 48.51 17.02 48.64 15.66 C 49.26 16.48 50.81 16.92 50.64 18.12 C 50.95 20.09 49.03 21.23 47.96 22.59 C 49.86 21.69 52.15 21.27 53.29 19.30 C 54.46 19.56 55.63 19.80 56.81 20.02 C 55.09 17.17 52.14 15.05 51.25 11.75 C 48.96 13.50 46.99 15.60 44.97 17.64 C 41.97 14.39 38.42 9.14 41.66 4.93 C 42.33 6.20 45.10 7.11 43.85 8.80 C 43.45 8.85 42.63 8.95 42.23 9.01 C 42.73 9.71 43.23 10.42 43.72 11.14 Z" />
<path fill="#ffffff" opacity="1.00" d=" M 16.24 17.01 C 19.52 16.91 22.73 18.13 24.04 21.33 C 24.93 20.29 25.85 19.27 26.78 18.27 C 27.56 18.52 29.12 19.02 29.91 19.27 C 29.60 22.04 30.02 24.88 29.18 27.57 C 31.64 27.00 34.17 27.12 36.18 28.82 C 34.44 29.95 32.69 31.05 30.91 32.12 C 32.94 33.53 35.01 34.90 36.83 36.59 C 38.24 34.08 39.77 30.74 43.27 31.65 C 42.86 34.50 42.58 37.36 42.60 40.25 C 43.09 39.06 43.52 37.85 44.03 36.66 C 45.33 36.75 46.63 36.85 47.94 36.95 C 47.68 38.90 47.18 40.81 45.87 42.33 C 46.86 42.94 47.85 43.56 48.84 44.19 C 47.64 46.87 46.62 49.63 45.83 52.46 C 46.51 52.46 47.86 52.46 48.54 52.46 C 48.04 53.88 47.53 55.29 47.01 56.70 C 45.55 55.87 44.10 55.04 42.68 54.16 C 42.18 55.57 41.65 56.95 41.10 58.34 C 38.90 58.16 36.81 58.77 34.84 59.71 C 33.39 56.30 29.47 56.89 26.69 55.42 C 24.90 55.31 23.10 55.40 21.31 55.33 C 22.55 54.17 23.89 53.11 25.25 52.10 C 23.66 50.14 22.06 48.18 20.65 46.08 C 22.00 46.26 23.34 46.50 24.68 46.71 C 25.11 45.97 25.54 45.23 25.97 44.49 C 23.62 44.21 21.70 43.11 20.49 41.04 C 19.33 41.68 18.18 42.33 17.02 42.96 C 16.44 42.02 15.87 41.08 15.29 40.14 C 15.43 40.78 15.72 42.04 15.86 42.68 C 14.81 42.62 12.71 42.51 11.66 42.45 C 10.80 39.67 10.15 36.82 9.66 33.95 C 12.34 34.59 13.93 36.83 15.56 38.84 C 15.54 37.81 15.53 36.77 15.53 35.74 C 13.99 35.24 12.46 34.71 10.94 34.16 C 12.00 32.98 13.09 31.84 14.21 30.73 C 12.31 29.15 9.42 27.79 9.44 24.94 C 10.62 23.96 12.21 24.27 13.62 24.24 C 13.30 23.00 13.01 21.76 12.74 20.52 C 14.04 20.58 15.33 20.66 16.62 20.76 C 16.46 19.52 16.33 18.27 16.24 17.01 M 17.97 24.81 C 17.79 24.83 17.42 24.86 17.24 24.87 C 18.02 25.40 19.56 26.46 20.33 26.99 C 17.59 28.20 15.00 26.76 12.35 26.14 C 14.19 28.39 16.90 29.54 19.27 31.10 C 17.91 32.10 16.56 33.11 15.26 34.19 C 16.89 33.31 18.42 32.28 19.90 31.17 C 21.07 33.85 23.62 34.94 26.21 35.79 C 26.47 33.48 27.23 31.28 27.71 29.02 C 24.69 27.41 20.76 27.21 17.97 24.81 M 24.25 40.01 C 24.36 43.43 27.14 38.46 24.25 40.01 M 33.87 40.12 C 33.12 42.26 31.75 44.06 30.09 45.57 C 30.69 48.20 32.27 50.24 34.92 51.00 C 33.80 52.28 32.73 53.61 31.80 55.04 C 36.42 53.03 41.73 49.52 42.29 44.07 C 41.21 40.39 36.90 40.76 33.87 40.12 M 27.96 52.34 C 26.46 55.32 31.37 52.39 27.96 52.34 Z" />
<path fill="#ffffff" opacity="1.00" d=" M 4.88 38.45 C 9.01 39.01 12.77 43.89 10.85 47.88 C 10.53 47.91 9.88 47.95 9.56 47.98 C 7.32 45.20 4.94 42.21 4.88 38.45 Z" />
<path fill="#ffffff" opacity="1.00" d=" M 36.16 42.87 C 37.56 42.38 37.99 42.87 37.47 44.34 C 36.08 44.83 35.65 44.34 36.16 42.87 Z" />
<path fill="#ffffff" opacity="1.00" d=" M 18.15 49.45 C 15.13 48.85 14.14 44.42 16.93 43.01 C 19.21 44.26 18.17 47.37 18.15 49.45 Z" />
<path fill="#ffffff" opacity="1.00" d=" M 0.72 46.72 C 5.80 43.31 9.17 51.18 14.29 49.30 C 12.88 51.54 11.76 54.02 9.84 55.88 C 8.43 57.09 6.42 56.59 4.73 56.74 C 5.46 54.50 6.91 52.63 8.15 50.67 C 5.33 50.07 2.44 49.26 0.72 46.72 Z" />
<path fill="#ffffff" opacity="1.00" d=" M 16.42 49.53 C 20.02 49.32 19.63 53.51 21.26 55.65 C 22.17 57.84 24.53 60.72 22.18 62.76 C 20.07 60.92 17.11 59.42 16.65 56.38 C 17.81 56.73 18.97 57.10 20.11 57.49 C 18.58 54.99 16.84 52.51 16.42 49.53 Z" />
<path fill="#ffffff" opacity="1.00" d=" M 13.05 53.52 C 13.99 54.00 14.93 54.49 15.86 54.98 C 14.70 57.81 15.17 62.00 11.61 63.07 C 10.19 59.78 11.63 56.51 13.05 53.52 Z" />
</g>
</svg>
