<?xml version="1.0" encoding="UTF-8" ?>
<!DOCTYPE svg PUBLIC "-//W3C//DTD SVG 1.1//EN" "http://www.w3.org/Graphics/SVG/1.1/DTD/svg11.dtd">
<svg width="64pt" height="64pt" viewBox="0 0 64 64" version="1.1" xmlns="http://www.w3.org/2000/svg">
<g id="#ffffffff">
<path fill="#ffffff" opacity="1.00" d=" M 56.02 3.30 C 57.53 2.80 58.80 5.46 57.91 6.59 C 56.39 7.06 55.17 4.45 56.02 3.30 Z" />
<path fill="#ffffff" opacity="1.00" d=" M 19.72 9.51 C 22.77 13.25 24.70 17.70 27.65 21.50 C 31.77 16.00 38.07 12.34 44.89 11.49 C 45.37 12.79 44.99 14.96 46.78 15.32 C 51.27 16.73 56.11 16.12 60.60 17.63 C 60.61 18.70 60.65 19.78 60.70 20.85 C 57.83 21.56 54.60 21.27 52.08 23.04 C 47.04 26.72 41.98 30.40 36.84 33.96 C 39.92 35.18 42.86 36.75 46.05 37.67 C 48.10 38.13 49.15 40.10 50.56 41.45 C 53.38 44.33 56.09 47.30 58.75 50.33 C 58.77 50.99 58.80 52.32 58.82 52.99 C 54.39 54.29 50.00 52.81 45.68 51.89 C 41.68 51.36 38.46 48.37 34.32 48.40 C 30.74 47.12 27.97 44.19 24.92 41.97 C 24.13 47.09 22.68 52.11 22.64 57.33 C 18.40 55.63 17.07 50.67 14.60 47.21 C 15.21 45.47 15.85 43.74 16.23 41.93 C 12.79 42.20 9.60 40.96 6.60 39.43 C 5.67 36.41 3.87 33.78 2.63 30.90 C 2.99 30.55 3.70 29.85 4.06 29.50 C 8.42 30.91 12.85 32.01 17.33 32.98 C 16.06 29.83 12.95 27.96 11.51 25.00 C 13.32 19.39 16.33 14.29 19.72 9.51 M 28.13 38.87 C 28.13 41.90 31.95 41.01 33.97 41.70 C 32.19 40.44 30.37 39.12 28.13 38.87 M 46.91 46.44 C 46.14 48.22 50.37 49.24 50.63 47.46 C 49.86 46.41 48.11 45.81 46.91 46.44 Z" />
</g>
</svg>
