<?xml version="1.0" encoding="UTF-8" ?>
<!DOCTYPE svg PUBLIC "-//W3C//DTD SVG 1.1//EN" "http://www.w3.org/Graphics/SVG/1.1/DTD/svg11.dtd">
<svg width="64pt" height="64pt" viewBox="0 0 64 64" version="1.1" xmlns="http://www.w3.org/2000/svg">
<g id="#ffffffff">
<path fill="#ffffff" opacity="1.00" d=" M 31.43 10.48 C 34.31 9.51 37.56 9.36 40.41 10.54 C 45.13 12.34 50.06 13.57 54.69 15.62 C 54.85 16.84 53.71 17.74 53.24 18.78 C 50.86 18.48 48.46 18.19 46.05 18.37 C 38.88 18.75 31.52 17.68 24.52 19.74 C 20.91 21.26 17.74 23.63 14.81 26.20 C 14.23 25.25 13.60 24.32 13.11 23.31 C 14.56 21.38 15.49 18.97 17.43 17.46 C 21.85 14.66 26.64 12.53 31.43 10.48 Z" />
<path fill="#ffffff" opacity="1.00" d=" M 30.61 21.74 C 36.34 20.30 42.40 21.24 48.14 19.71 C 51.31 18.35 52.10 22.28 53.39 24.24 C 48.35 24.20 43.61 26.06 38.72 26.95 C 38.38 26.19 37.71 24.68 37.37 23.92 C 33.84 24.32 31.11 26.82 27.80 27.86 C 23.95 29.05 19.93 29.86 15.88 29.39 C 19.65 25.07 25.46 23.70 30.61 21.74 Z" />
<path fill="#ffffff" opacity="1.00" d=" M 32.39 31.19 C 32.20 29.05 31.46 24.58 35.06 25.67 C 36.66 26.41 35.74 28.34 35.93 29.66 C 35.17 30.08 33.64 30.92 32.87 31.34 C 34.97 32.02 37.04 32.79 38.97 33.84 C 36.80 37.68 37.57 42.29 38.56 46.36 C 37.08 48.24 35.29 49.84 32.97 50.58 C 33.15 45.97 35.07 41.62 34.39 36.95 C 32.35 35.81 30.36 34.59 28.35 33.40 C 29.68 32.65 31.03 31.91 32.39 31.19 Z" />
</g>
</svg>
