<?xml version="1.0" encoding="UTF-8" ?>
<!DOCTYPE svg PUBLIC "-//W3C//DTD SVG 1.1//EN" "http://www.w3.org/Graphics/SVG/1.1/DTD/svg11.dtd">
<svg width="64pt" height="64pt" viewBox="0 0 64 64" version="1.1" xmlns="http://www.w3.org/2000/svg">
<g id="#ffffffff">
<path fill="#ffffff" opacity="1.00" d=" M 40.20 2.90 C 41.72 2.44 43.32 2.31 44.89 2.12 C 44.88 8.40 41.79 14.14 38.07 19.01 C 36.40 17.51 34.36 15.67 35.33 13.18 C 36.60 9.63 37.79 5.86 40.20 2.90 Z" />
<path fill="#ffffff" opacity="1.00" d=" M 15.89 25.48 C 16.46 22.71 18.53 19.12 21.73 19.31 C 23.82 20.46 25.08 22.63 26.46 24.51 C 28.92 27.54 28.08 31.70 28.83 35.29 C 30.07 29.73 30.68 23.83 33.95 18.99 C 34.35 19.50 35.15 20.51 35.55 21.01 C 33.02 27.75 30.61 34.60 30.27 41.87 C 32.14 37.19 34.78 32.86 37.61 28.71 C 42.07 32.75 42.11 39.56 42.72 45.15 C 39.80 42.44 39.19 38.36 38.09 34.73 C 35.63 36.93 35.05 40.30 33.69 43.15 C 38.28 44.95 40.97 49.22 41.89 53.90 C 38.93 51.39 37.84 45.90 33.28 46.07 C 30.97 51.66 28.89 57.35 27.18 63.15 C 25.82 61.55 24.30 60.10 22.71 58.74 C 22.52 56.18 22.57 53.59 22.03 51.08 C 20.97 48.65 18.76 47.00 16.84 45.29 C 15.19 46.25 13.65 47.40 11.89 48.17 C 12.69 46.10 13.97 43.89 16.21 43.18 C 19.15 43.11 20.72 46.15 22.74 47.82 C 22.12 40.24 20.60 32.72 17.84 25.63 C 18.51 25.85 19.84 26.30 20.50 26.53 C 23.77 33.98 25.08 42.09 25.87 50.13 C 27.83 40.66 26.94 30.17 20.99 22.22 C 19.33 23.38 17.69 24.55 15.89 25.48 Z" />
</g>
</svg>
