<?xml version="1.0" encoding="UTF-8" ?>
<!DOCTYPE svg PUBLIC "-//W3C//DTD SVG 1.1//EN" "http://www.w3.org/Graphics/SVG/1.1/DTD/svg11.dtd">
<svg width="64pt" height="64pt" viewBox="0 0 64 64" version="1.1" xmlns="http://www.w3.org/2000/svg">
<g id="#ffffffff">
<path fill="#ffffff" opacity="1.00" d=" M 31.30 5.28 C 33.95 3.80 37.09 3.84 40.01 3.31 C 41.59 4.70 43.19 6.08 44.83 7.40 C 44.92 10.23 42.67 11.68 40.22 12.41 C 40.67 16.37 40.96 20.37 40.51 24.35 C 37.95 24.96 35.38 24.97 33.13 23.43 C 33.32 20.03 33.66 16.63 34.48 13.31 C 32.34 13.53 30.19 13.67 28.05 13.78 C 27.92 12.33 27.32 10.86 27.60 9.40 C 28.70 7.92 29.87 6.46 31.30 5.28 Z" />
<path fill="#ffffff" opacity="1.00" d=" M 18.51 30.36 C 21.89 29.15 25.54 29.70 29.04 29.23 C 31.02 31.16 32.92 33.16 35.01 34.97 C 34.43 36.68 34.54 38.84 32.94 40.01 C 31.43 40.68 29.79 40.97 28.19 41.37 C 28.58 46.19 28.90 51.08 28.17 55.88 C 27.80 57.97 25.47 57.92 23.89 58.55 C 24.03 57.07 24.17 55.59 24.28 54.11 C 23.87 56.08 23.50 58.12 21.89 59.51 C 20.91 57.66 19.46 56.15 17.38 55.60 C 18.38 51.12 19.07 46.59 20.45 42.20 C 17.47 42.55 14.47 42.47 11.49 42.16 C 11.62 40.23 11.55 38.30 11.26 36.38 C 13.63 34.34 15.30 31.20 18.51 30.36 Z" />
<path fill="#ffffff" opacity="1.00" d=" M 45.21 37.96 C 47.12 37.53 49.09 37.51 51.03 37.29 C 52.35 38.65 53.66 40.02 55.04 41.34 C 55.56 44.32 53.45 46.05 50.94 47.07 C 51.33 50.65 51.53 54.28 51.16 57.87 C 50.40 59.32 48.64 59.37 47.27 59.84 C 46.28 59.06 45.28 58.29 44.23 57.58 C 44.29 54.12 44.94 50.72 45.86 47.40 C 43.90 47.47 41.95 47.48 40.00 47.42 C 39.91 45.95 39.80 44.48 39.67 43.01 C 41.23 41.07 42.61 38.63 45.21 37.96 Z" />
</g>
</svg>
