<?xml version="1.0" encoding="UTF-8" ?>
<!DOCTYPE svg PUBLIC "-//W3C//DTD SVG 1.1//EN" "http://www.w3.org/Graphics/SVG/1.1/DTD/svg11.dtd">
<svg width="64pt" height="64pt" viewBox="0 0 64 64" version="1.1" xmlns="http://www.w3.org/2000/svg">
<g id="#ffffffff">
<path fill="#ffffff" opacity="1.00" d=" M 10.20 11.21 C 13.55 11.29 8.69 14.23 10.20 11.21 Z" />
<path fill="#ffffff" opacity="1.00" d=" M 23.02 14.22 C 27.05 14.24 28.26 19.57 28.85 22.86 C 27.23 23.22 25.59 23.47 23.95 23.65 C 23.07 20.66 21.34 17.22 23.02 14.22 Z" />
<path fill="#ffffff" opacity="1.00" d=" M 32.51 15.51 C 34.59 14.49 36.51 16.28 36.99 18.23 C 38.52 20.67 36.74 23.42 34.79 24.96 C 33.21 25.20 31.87 23.91 30.48 23.33 C 28.77 20.78 28.95 16.45 32.51 15.51 Z" />
<path fill="#ffffff" opacity="1.00" d=" M 14.40 20.35 C 16.06 19.15 18.19 20.98 20.08 20.89 C 22.12 20.84 23.02 22.92 24.25 24.19 C 23.67 27.15 19.61 26.49 17.62 25.37 C 15.71 24.63 12.74 22.65 14.40 20.35 Z" />
<path fill="#ffffff" opacity="1.00" d=" M 37.03 26.03 C 38.75 23.93 40.56 21.79 42.99 20.46 C 45.38 20.68 47.98 23.30 47.21 25.86 C 45.10 27.79 41.89 28.53 39.12 28.42 C 38.59 27.83 37.55 26.63 37.03 26.03 Z" />
<path fill="#ffffff" opacity="1.00" d=" M 10.23 25.94 C 14.37 24.38 17.94 27.84 21.95 28.34 C 21.88 30.53 21.25 32.94 18.92 33.72 C 15.97 33.61 13.10 32.80 10.26 32.02 C 10.27 29.99 10.18 27.97 10.23 25.94 Z" />
<path fill="#ffffff" opacity="1.00" d=" M 44.11 29.34 C 47.09 29.92 50.08 30.41 53.09 30.74 C 52.00 32.97 50.32 35.30 47.87 36.09 C 44.79 36.39 41.31 35.15 39.81 32.27 C 41.26 31.32 42.71 30.36 44.11 29.34 Z" />
<path fill="#ffffff" opacity="1.00" d=" M 13.13 39.04 C 16.73 37.47 19.57 34.48 23.34 33.32 C 23.60 35.93 23.21 38.58 21.63 40.74 C 20.29 41.87 18.60 42.48 17.09 43.33 C 15.74 41.92 14.40 40.51 13.13 39.04 Z" />
<path fill="#ffffff" opacity="1.00" d=" M 40.50 38.99 C 40.45 37.23 42.93 37.34 44.02 36.49 C 46.88 38.89 51.13 40.14 52.35 44.04 C 51.58 45.76 50.06 47.09 48.09 47.04 C 44.54 45.59 42.11 42.35 40.50 38.99 Z" />
<path fill="#ffffff" opacity="1.00" d=" M 22.14 41.24 C 23.40 39.94 24.63 38.63 25.85 37.31 C 26.93 37.88 28.01 38.46 29.08 39.03 C 28.18 42.52 27.86 46.16 26.57 49.55 C 25.27 50.67 23.42 50.60 21.84 50.97 C 21.85 48.39 20.16 45.43 21.39 43.10 C 23.08 40.14 24.13 44.46 23.66 45.95 C 23.87 45.12 24.09 44.29 24.31 43.46 C 23.59 42.71 22.87 41.98 22.14 41.24 Z" />
<path fill="#ffffff" opacity="1.00" d=" M 31.06 39.01 C 34.69 38.51 35.29 42.58 36.14 45.17 C 36.96 47.45 36.80 49.87 35.86 52.08 C 34.10 52.13 32.39 51.70 30.72 51.20 C 31.06 47.13 29.81 42.98 31.06 39.01 Z" />
<path fill="#ffffff" opacity="1.00" d=" M 36.94 39.09 C 40.51 40.11 41.70 44.26 43.75 46.98 C 43.07 48.03 42.38 49.09 41.70 50.15 C 40.41 49.56 38.42 49.56 38.13 47.82 C 37.46 44.99 35.91 42.00 36.94 39.09 Z" />
</g>
</svg>
