<?xml version="1.0" encoding="UTF-8" ?>
<!DOCTYPE svg PUBLIC "-//W3C//DTD SVG 1.1//EN" "http://www.w3.org/Graphics/SVG/1.1/DTD/svg11.dtd">
<svg width="64pt" height="64pt" viewBox="0 0 64 64" version="1.1" xmlns="http://www.w3.org/2000/svg">
<g id="#ffffffff">
<path fill="#ffffff" opacity="1.00" d=" M 22.54 10.56 C 26.57 10.06 30.59 8.45 34.69 9.35 C 37.28 9.97 39.88 10.61 42.34 11.64 C 45.07 13.53 46.97 16.38 48.62 19.20 C 47.24 25.58 43.83 31.33 41.29 37.30 C 44.60 33.70 46.77 29.24 48.88 24.87 C 50.93 22.78 52.38 20.25 53.77 17.69 C 54.76 17.28 56.24 17.12 57.05 17.97 C 59.76 21.46 61.72 25.61 62.24 30.04 C 61.65 33.58 60.61 37.40 57.97 39.98 C 53.18 43.84 48.95 48.91 42.62 50.20 C 40.69 50.64 38.59 50.42 37.19 48.88 C 35.54 52.55 33.84 57.62 28.87 57.18 C 29.46 54.16 30.56 51.28 32.06 48.60 C 27.80 49.08 23.43 48.69 19.86 46.10 C 15.82 43.08 10.85 41.38 7.39 37.63 C 5.77 36.24 4.03 35.02 2.37 33.69 C 2.89 31.22 2.13 28.78 2.12 26.31 C 5.05 23.47 10.39 23.80 12.06 19.39 C 17.81 19.85 22.84 23.68 25.26 28.85 C 26.46 30.93 26.81 33.61 28.79 35.16 C 27.23 29.84 24.46 24.92 23.40 19.45 C 22.94 17.46 21.68 15.78 20.63 14.06 C 21.28 12.91 21.93 11.75 22.54 10.56 M 12.32 27.04 C 12.54 30.50 15.11 25.36 12.32 27.04 M 6.26 29.21 C 5.88 30.81 6.48 31.42 8.08 31.03 C 8.50 29.43 7.89 28.82 6.26 29.21 M 31.18 42.09 C 31.31 45.53 34.17 40.54 31.18 42.09 M 25.58 44.07 C 25.45 45.48 27.92 45.52 28.57 44.58 C 28.83 43.10 26.24 43.22 25.58 44.07 M 41.27 44.30 C 40.69 45.98 41.21 46.56 42.81 46.04 C 43.37 44.40 42.86 43.82 41.27 44.30 Z" />
</g>
</svg>
