<?xml version="1.0" encoding="UTF-8" ?>
<!DOCTYPE svg PUBLIC "-//W3C//DTD SVG 1.1//EN" "http://www.w3.org/Graphics/SVG/1.1/DTD/svg11.dtd">
<svg width="64pt" height="64pt" viewBox="0 0 64 64" version="1.1" xmlns="http://www.w3.org/2000/svg">
<g id="#ffffffff">
<path fill="#ffffff" opacity="1.00" d=" M 26.34 8.11 C 26.76 7.98 27.60 7.70 28.02 7.57 C 32.06 10.83 33.95 16.21 38.77 18.63 C 41.14 16.43 43.42 13.98 46.47 12.70 C 44.98 16.88 44.72 21.31 44.08 25.67 C 45.53 25.66 46.98 25.69 48.43 25.77 C 45.96 28.92 41.88 30.28 39.67 33.64 C 41.98 33.55 44.29 33.31 46.60 33.16 C 47.57 34.15 48.55 35.12 49.55 36.09 C 46.19 37.31 43.05 38.98 39.93 40.69 C 42.40 42.31 45.20 43.30 47.89 44.47 C 44.73 46.17 40.99 46.09 37.72 47.53 C 37.22 45.54 36.73 43.54 36.29 41.53 C 35.84 41.42 34.95 41.19 34.50 41.07 C 34.43 44.92 34.52 48.78 34.26 52.62 C 31.27 50.80 32.64 46.47 31.25 43.61 C 29.41 46.56 27.00 49.06 23.43 49.75 C 23.57 47.91 23.77 46.07 23.96 44.23 C 22.44 45.00 20.91 45.74 19.33 46.38 C 19.33 45.53 19.33 43.84 19.33 42.99 C 17.28 43.23 15.21 43.35 13.16 43.48 C 12.16 42.60 11.15 41.73 10.15 40.87 C 12.68 38.65 15.34 36.58 18.29 34.93 C 16.17 33.98 14.02 33.07 11.97 31.97 C 13.62 30.57 15.56 29.61 17.49 28.66 C 15.88 26.16 13.27 24.17 12.76 21.09 C 15.71 22.01 18.36 23.62 21.15 24.92 C 20.83 22.04 19.70 19.15 20.46 16.25 C 22.28 17.56 24.03 18.98 25.92 20.20 C 25.32 19.06 24.67 17.95 24.01 16.85 C 25.22 14.06 25.96 11.12 26.34 8.11 Z" />
</g>
</svg>
