<?xml version="1.0" encoding="UTF-8" ?>
<!DOCTYPE svg PUBLIC "-//W3C//DTD SVG 1.1//EN" "http://www.w3.org/Graphics/SVG/1.1/DTD/svg11.dtd">
<svg width="64pt" height="64pt" viewBox="0 0 64 64" version="1.1" xmlns="http://www.w3.org/2000/svg">
<g id="#ffffffff">
<path fill="#ffffff" opacity="1.00" d=" M 54.65 16.81 C 56.75 16.31 58.86 15.82 60.98 15.35 C 60.63 16.79 60.14 18.19 59.78 19.63 C 60.21 21.20 60.65 22.78 60.66 24.43 C 58.74 25.22 56.72 25.69 54.69 26.10 C 55.49 26.54 57.09 27.42 57.89 27.86 C 55.21 28.93 52.22 29.71 49.37 28.88 C 48.98 26.96 48.51 25.06 48.27 23.12 C 49.50 24.50 50.55 26.04 51.87 27.34 C 51.24 25.69 50.30 24.19 49.20 22.81 C 51.09 20.88 52.21 18.16 54.65 16.81 M 53.24 20.44 C 52.46 21.73 52.73 24.04 54.18 24.75 C 55.82 24.22 54.89 20.10 53.24 20.44 Z" />
<path fill="#ffffff" opacity="1.00" d=" M 18.67 18.65 C 21.91 19.77 24.77 22.00 27.18 24.34 C 27.28 28.20 27.68 32.09 27.31 35.95 C 24.52 33.82 20.10 33.77 19.00 29.89 C 17.70 26.98 12.59 23.72 15.84 20.50 C 16.69 21.60 17.52 22.72 18.35 23.85 C 18.42 22.11 18.52 20.38 18.67 18.65 Z" />
<path fill="#ffffff" opacity="1.00" d=" M 35.22 25.17 C 37.61 24.29 40.19 24.19 42.68 23.81 C 42.11 25.74 41.74 27.72 41.63 29.73 C 39.52 32.89 37.42 36.87 32.98 36.69 C 33.69 34.95 34.48 33.24 35.18 31.50 C 32.93 31.30 31.90 33.52 30.37 34.73 C 30.54 31.08 31.66 26.89 35.22 25.17 Z" />
<path fill="#ffffff" opacity="1.00" d=" M 5.22 27.49 C 6.28 28.06 7.33 28.65 8.35 29.28 C 8.74 29.06 9.51 28.64 9.89 28.42 C 11.59 29.56 13.68 30.22 15.00 31.85 C 15.81 34.20 16.03 36.72 16.62 39.13 C 14.44 40.67 10.59 42.05 8.68 39.47 C 10.63 39.30 12.74 39.64 14.43 38.39 C 12.31 38.18 10.19 38.21 8.08 38.37 C 7.60 37.85 6.64 36.80 6.16 36.28 C 7.75 36.37 9.34 36.48 10.93 36.54 C 10.32 34.46 7.64 35.60 6.06 35.14 C 6.52 34.27 6.99 33.40 7.48 32.55 C 6.78 30.84 5.97 29.18 5.22 27.49 Z" />
<path fill="#ffffff" opacity="1.00" d=" M 1.89 29.68 C 3.72 30.17 5.41 31.02 7.03 31.98 C 5.43 34.11 2.63 31.42 1.89 29.68 Z" />
<path fill="#ffffff" opacity="1.00" d=" M 41.48 36.00 C 42.40 32.54 46.73 35.19 49.00 35.86 C 51.12 36.34 50.29 38.64 49.06 39.60 C 46.44 38.67 43.35 38.29 41.48 36.00 Z" />
<path fill="#ffffff" opacity="1.00" d=" M 25.63 42.60 C 26.91 41.31 28.08 39.92 29.31 38.59 C 30.72 38.29 32.20 38.52 33.64 38.45 C 33.35 40.14 32.83 41.77 32.12 43.33 C 31.32 43.36 29.71 43.41 28.91 43.44 C 28.63 45.36 28.41 47.29 28.13 49.22 C 27.57 49.56 26.46 50.24 25.91 50.58 C 26.01 48.37 26.19 46.17 26.09 43.97 C 25.74 46.39 25.56 48.82 25.30 51.25 C 23.24 51.57 21.48 50.20 19.83 49.18 C 17.88 50.60 16.09 52.58 13.49 52.61 C 14.63 50.47 16.69 49.13 18.58 47.72 C 18.02 44.71 19.15 41.95 20.72 39.45 C 22.60 38.64 24.64 38.48 26.67 38.51 C 26.33 39.88 25.98 41.24 25.63 42.60 Z" />
<path fill="#ffffff" opacity="1.00" d=" M 36.11 38.33 C 40.00 37.53 42.90 40.57 45.22 43.23 C 45.42 44.25 45.50 45.28 45.64 46.31 C 47.07 47.74 49.96 48.47 49.76 50.90 C 45.73 50.02 41.99 48.01 37.90 47.18 C 37.42 44.20 36.02 41.40 36.11 38.33 Z" />
</g>
</svg>
