<?xml version="1.0" encoding="UTF-8" ?>
<!DOCTYPE svg PUBLIC "-//W3C//DTD SVG 1.1//EN" "http://www.w3.org/Graphics/SVG/1.1/DTD/svg11.dtd">
<svg width="64pt" height="64pt" viewBox="0 0 64 64" version="1.1" xmlns="http://www.w3.org/2000/svg">
<g id="#ffffffff">
<path fill="#ffffff" opacity="1.00" d=" M 1.39 7.49 C 1.62 6.30 2.29 5.94 3.40 6.40 C 4.12 8.87 4.60 11.41 4.87 13.97 C 1.66 13.74 1.27 10.03 1.39 7.49 Z" />
<path fill="#ffffff" opacity="1.00" d=" M 53.09 8.51 C 55.96 9.51 54.48 12.95 54.22 15.16 C 53.63 15.49 52.45 16.17 51.86 16.50 C 51.94 13.80 52.39 11.12 53.09 8.51 Z" />
<path fill="#ffffff" opacity="1.00" d=" M 26.42 14.29 C 29.23 15.06 30.36 17.94 31.98 20.06 C 32.61 17.94 34.02 16.50 36.35 16.55 C 36.22 18.55 35.96 20.54 35.66 22.52 C 31.73 21.22 26.28 19.36 26.42 14.29 Z" />
<path fill="#ffffff" opacity="1.00" d=" M 0.74 17.86 C 3.25 14.43 7.99 16.52 8.74 20.27 C 6.00 19.73 3.32 18.91 0.74 17.86 Z" />
<path fill="#ffffff" opacity="1.00" d=" M 14.06 22.84 C 11.16 22.19 9.27 17.72 12.88 16.55 C 13.34 18.63 13.75 20.72 14.06 22.84 Z" />
<path fill="#ffffff" opacity="1.00" d=" M 51.79 24.46 C 51.30 21.37 53.03 18.06 56.37 17.71 C 55.66 20.35 54.34 23.18 51.79 24.46 Z" />
<path fill="#ffffff" opacity="1.00" d=" M 49.07 18.70 C 51.38 19.19 50.63 21.56 50.52 23.24 C 50.49 24.60 50.22 27.85 48.08 26.25 C 48.20 23.71 48.61 21.20 49.07 18.70 Z" />
<path fill="#ffffff" opacity="1.00" d=" M 5.23 23.68 C 7.20 20.11 12.27 22.31 12.51 25.89 C 10.01 25.42 7.59 24.61 5.23 23.68 Z" />
<path fill="#ffffff" opacity="1.00" d=" M 26.51 23.66 C 29.73 24.02 33.01 24.66 35.68 26.61 C 36.35 25.99 37.03 25.37 37.71 24.77 C 38.16 25.31 39.05 26.41 39.50 26.96 C 39.27 28.49 39.06 30.03 38.85 31.57 C 36.87 31.53 34.12 31.99 33.28 29.64 C 32.15 26.41 27.93 26.67 26.51 23.66 Z" />
<path fill="#ffffff" opacity="1.00" d=" M 15.10 25.93 C 17.01 27.11 20.40 27.59 19.60 30.60 C 17.46 30.62 15.51 29.57 13.50 28.98 C 14.02 27.95 14.55 26.94 15.10 25.93 Z" />
<path fill="#ffffff" opacity="1.00" d=" M 48.76 32.54 C 48.79 29.63 51.13 27.83 53.06 26.03 C 54.23 26.46 55.68 27.17 54.46 28.50 C 52.93 30.29 50.81 31.45 48.76 32.54 Z" />
<path fill="#ffffff" opacity="1.00" d=" M 44.93 27.86 C 48.03 30.02 47.20 34.40 47.32 37.68 C 44.10 35.66 44.65 31.15 44.93 27.86 Z" />
<path fill="#ffffff" opacity="1.00" d=" M 22.10 31.01 C 25.43 31.30 24.10 35.75 24.64 38.06 C 21.45 37.60 22.41 33.33 22.10 31.01 Z" />
<path fill="#ffffff" opacity="1.00" d=" M 31.86 31.07 C 34.52 31.14 35.88 34.08 37.75 35.62 C 38.48 34.21 39.23 32.81 40.02 31.44 C 40.96 32.15 41.71 33.01 42.27 34.02 C 41.40 35.53 40.19 36.80 38.94 38.00 C 39.87 40.26 39.74 42.72 40.00 45.11 C 41.47 43.91 42.89 39.93 44.67 42.94 C 44.36 45.38 43.06 47.89 40.30 47.92 C 40.69 49.01 41.04 50.10 41.33 51.22 C 38.86 50.31 36.12 49.30 35.19 46.55 C 36.03 46.61 37.70 46.73 38.54 46.79 C 37.92 45.17 37.51 43.48 37.18 41.78 C 36.14 41.50 35.11 41.22 34.07 40.94 C 34.91 39.93 35.76 38.92 36.60 37.91 C 35.17 35.64 31.44 33.97 31.86 31.07 Z" />
<path fill="#ffffff" opacity="1.00" d=" M 14.47 32.86 C 17.33 31.97 21.25 32.91 21.19 36.54 C 18.53 36.26 15.98 35.14 14.47 32.86 Z" />
<path fill="#ffffff" opacity="1.00" d=" M 23.10 40.02 C 25.20 40.41 27.35 40.97 29.42 40.11 C 30.11 42.06 30.45 44.11 30.29 46.19 C 27.94 44.93 25.57 43.69 23.05 42.80 C 23.06 42.10 23.09 40.71 23.10 40.02 Z" />
<path fill="#ffffff" opacity="1.00" d=" M 29.81 46.76 C 34.47 47.98 36.19 53.31 34.00 57.40 C 32.92 55.70 33.01 53.76 33.22 51.86 C 30.94 51.26 26.71 49.33 29.81 46.76 Z" />
<path fill="#ffffff" opacity="1.00" d=" M 37.37 52.60 C 38.38 51.66 40.56 51.92 40.96 53.37 C 40.79 55.39 36.34 54.57 37.37 52.60 Z" />
<path fill="#ffffff" opacity="1.00" d=" M 42.41 51.41 C 45.16 52.13 47.53 55.77 45.33 58.23 C 43.97 56.14 42.72 53.92 42.41 51.41 Z" />
<path fill="#ffffff" opacity="1.00" d=" M 40.05 55.39 C 43.43 55.40 38.52 58.45 40.05 55.39 Z" />
</g>
</svg>
