<?xml version="1.0" encoding="UTF-8" ?>
<!DOCTYPE svg PUBLIC "-//W3C//DTD SVG 1.1//EN" "http://www.w3.org/Graphics/SVG/1.1/DTD/svg11.dtd">
<svg width="64pt" height="64pt" viewBox="0 0 64 64" version="1.1" xmlns="http://www.w3.org/2000/svg">
<g id="#ffffffff">
<path fill="#ffffff" opacity="1.00" d=" M 34.18 21.16 C 39.59 17.69 45.55 13.83 52.29 14.60 C 52.57 15.77 52.84 16.94 53.09 18.12 C 50.12 19.06 47.08 17.66 44.14 18.00 C 41.22 19.64 38.08 21.20 35.81 23.72 C 39.44 23.66 43.05 21.84 46.65 23.10 C 50.01 23.90 55.33 23.59 55.83 28.17 C 53.22 29.06 50.18 29.10 48.20 26.89 C 46.30 24.78 43.21 24.81 40.70 25.67 C 34.73 27.45 29.84 31.49 24.55 34.61 C 24.66 34.79 24.89 35.14 25.00 35.31 C 27.22 33.54 29.91 32.53 32.60 31.74 C 34.17 33.72 30.80 35.27 31.53 37.36 C 32.65 38.87 34.05 40.33 33.50 42.39 C 29.67 40.91 25.56 40.47 21.57 41.63 C 18.71 43.15 17.67 46.41 15.67 48.70 C 13.52 49.83 11.60 51.27 10.04 53.14 C 7.92 48.82 11.43 44.86 13.28 41.18 C 18.93 33.27 26.62 27.16 34.18 21.16 Z" />
<path fill="#ffffff" opacity="1.00" d=" M 34.22 31.27 C 39.11 31.23 44.00 31.52 48.89 31.50 C 50.29 33.01 51.68 34.52 52.95 36.14 C 51.68 37.10 49.94 37.84 48.78 36.29 C 44.89 32.48 39.07 33.16 34.15 33.79 C 34.17 33.16 34.20 31.90 34.22 31.27 Z" />
</g>
</svg>
