<?xml version="1.0" encoding="UTF-8" ?>
<!DOCTYPE svg PUBLIC "-//W3C//DTD SVG 1.1//EN" "http://www.w3.org/Graphics/SVG/1.1/DTD/svg11.dtd">
<svg width="64pt" height="64pt" viewBox="0 0 64 64" version="1.1" xmlns="http://www.w3.org/2000/svg">
<g id="#ffffffff">
<path fill="#ffffff" opacity="1.00" d=" M 28.53 21.24 C 30.12 15.91 28.90 7.84 35.44 5.60 C 37.27 11.28 35.33 17.11 35.47 22.88 C 37.72 18.45 43.08 17.67 46.58 14.58 C 47.80 13.29 48.86 11.85 50.16 10.62 C 51.32 10.95 52.41 11.43 53.44 12.07 C 53.81 15.63 52.10 19.00 52.51 22.58 C 53.29 27.44 48.70 31.60 44.13 31.85 C 44.15 32.19 44.21 32.88 44.23 33.22 C 49.70 35.30 54.20 39.17 59.47 41.65 C 55.30 44.78 50.40 47.64 45.02 47.50 C 41.62 46.15 40.03 42.50 37.37 40.21 C 37.65 45.48 39.65 50.62 39.21 55.94 C 37.14 58.23 33.89 58.81 31.02 59.49 C 28.37 60.19 28.06 56.82 27.03 55.17 C 25.67 50.14 26.22 44.69 28.71 40.07 C 23.74 41.71 17.86 42.73 13.13 39.86 C 9.06 38.24 6.91 34.27 4.27 31.05 C 9.98 28.32 16.51 30.66 22.54 29.42 C 24.96 28.85 27.42 28.53 29.86 28.05 C 30.08 27.39 30.51 26.07 30.73 25.41 C 28.23 25.70 25.81 26.50 23.31 26.73 C 17.59 22.23 16.92 14.54 14.07 8.31 C 14.94 8.52 16.69 8.94 17.57 9.15 C 21.60 12.82 25.09 17.02 28.53 21.24 M 30.21 29.14 C 29.90 29.62 29.27 30.58 28.96 31.06 C 27.03 31.28 25.14 31.72 23.67 33.11 C 26.45 33.78 29.32 33.22 32.10 33.84 C 32.64 32.66 33.19 31.49 33.76 30.32 C 32.58 29.92 31.45 29.32 30.21 29.14 M 48.32 38.40 C 48.01 39.80 48.55 40.29 49.94 39.89 C 50.27 38.52 49.73 38.03 48.32 38.40 M 30.87 56.41 C 31.94 55.98 33.02 55.55 34.09 55.12 C 30.54 52.66 31.84 47.97 31.06 44.32 C 27.92 47.76 29.96 52.49 30.87 56.41 Z" />
</g>
</svg>
