<?xml version="1.0" encoding="UTF-8" ?>
<!DOCTYPE svg PUBLIC "-//W3C//DTD SVG 1.1//EN" "http://www.w3.org/Graphics/SVG/1.1/DTD/svg11.dtd">
<svg width="64pt" height="64pt" viewBox="0 0 64 64" version="1.1" xmlns="http://www.w3.org/2000/svg">
<g id="#ffffffff">
<path fill="#ffffff" opacity="1.00" d=" M 29.90 8.15 C 31.69 8.84 33.46 9.56 35.28 10.17 C 33.95 12.44 32.44 14.65 29.88 15.65 C 30.64 13.16 30.62 10.64 29.90 8.15 Z" />
<path fill="#ffffff" opacity="1.00" d=" M 20.80 18.98 C 21.77 17.86 22.72 16.72 23.67 15.58 C 24.87 17.70 26.07 19.83 27.10 22.05 C 25.55 21.89 24.00 21.73 22.45 21.55 C 21.92 20.69 21.37 19.83 20.80 18.98 Z" />
<path fill="#ffffff" opacity="1.00" d=" M 12.83 18.73 C 14.71 18.62 16.59 18.44 18.43 18.06 C 17.81 19.51 17.33 21.01 17.00 22.55 C 15.63 22.70 14.26 22.93 12.90 23.18 C 12.89 21.70 12.88 20.21 12.83 18.73 Z" />
<path fill="#ffffff" opacity="1.00" d=" M 41.73 19.83 C 44.33 18.97 46.67 19.53 48.13 21.91 C 46.56 22.92 45.04 24.02 43.53 25.12 C 42.98 23.34 42.34 21.59 41.73 19.83 Z" />
<path fill="#ffffff" opacity="1.00" d=" M 28.01 22.85 C 29.38 21.86 30.60 23.71 31.87 24.09 C 30.91 25.12 29.97 26.17 29.04 27.24 C 28.44 25.84 27.65 24.44 28.01 22.85 Z" />
<path fill="#ffffff" opacity="1.00" d=" M 33.01 22.77 C 34.32 22.75 35.61 22.68 36.91 22.58 C 37.71 24.75 38.68 26.86 39.31 29.09 C 37.32 27.95 35.51 26.54 33.52 25.38 C 33.39 24.73 33.14 23.43 33.01 22.77 Z" />
<path fill="#ffffff" opacity="1.00" d=" M 3.29 25.60 C 6.14 26.49 7.60 28.79 8.34 31.54 C 6.68 31.51 5.02 31.57 3.37 31.73 C 3.57 29.69 3.49 27.64 3.29 25.60 Z" />
<path fill="#ffffff" opacity="1.00" d=" M 12.40 28.57 C 13.59 27.92 14.77 27.25 15.94 26.55 C 16.28 27.70 16.61 28.85 16.92 30.01 C 15.98 30.86 15.05 31.73 14.13 32.60 C 13.58 31.25 13.01 29.90 12.40 28.57 Z" />
<path fill="#ffffff" opacity="1.00" d=" M 22.31 26.92 C 23.42 27.01 24.53 27.11 25.65 27.21 C 25.84 27.96 26.22 29.44 26.41 30.19 C 25.15 31.19 23.85 32.15 22.65 33.22 C 22.66 31.12 22.58 29.01 22.31 26.92 Z" />
<path fill="#ffffff" opacity="1.00" d=" M 40.30 30.50 C 41.81 29.40 43.13 28.09 44.47 26.80 C 44.49 28.84 45.35 30.60 46.82 32.00 C 45.79 32.17 44.77 32.32 43.74 32.46 C 42.96 33.84 42.08 35.16 41.09 36.40 C 40.84 34.43 40.67 32.45 40.30 30.50 Z" />
<path fill="#ffffff" opacity="1.00" d=" M 29.70 29.30 C 30.99 29.32 32.27 29.31 33.56 29.27 C 34.21 30.65 34.90 32.00 35.67 33.31 C 33.90 33.83 32.20 34.52 30.55 35.35 C 30.24 33.34 29.99 31.31 29.70 29.30 Z" />
<path fill="#ffffff" opacity="1.00" d=" M 53.45 33.68 C 55.13 33.62 56.80 33.46 58.45 33.20 C 57.70 34.70 57.50 36.33 57.83 37.98 C 56.45 38.11 55.08 38.32 53.72 38.56 C 53.70 36.93 53.63 35.30 53.45 33.68 Z" />
<path fill="#ffffff" opacity="1.00" d=" M 15.12 34.52 C 16.42 35.72 17.82 36.81 19.24 37.85 C 17.86 38.90 16.53 40.01 15.29 41.23 C 14.53 40.05 13.74 38.88 12.93 37.73 C 11.04 39.64 11.86 42.00 12.49 44.25 C 10.81 43.67 9.14 43.07 7.43 42.59 C 7.52 41.01 7.47 39.43 7.34 37.86 C 10.61 39.85 13.49 37.32 15.12 34.52 Z" />
<path fill="#ffffff" opacity="1.00" d=" M 23.32 36.02 C 25.10 36.28 26.88 36.55 28.67 36.79 C 28.90 39.27 26.78 40.41 24.88 41.32 C 24.34 39.56 23.77 37.81 23.32 36.02 Z" />
<path fill="#ffffff" opacity="1.00" d=" M 31.40 37.75 C 32.74 38.16 34.08 38.57 35.42 38.96 C 35.46 39.72 35.54 41.25 35.57 42.01 C 34.82 42.47 33.31 43.40 32.55 43.87 C 32.01 41.86 31.71 39.80 31.40 37.75 Z" />
<path fill="#ffffff" opacity="1.00" d=" M 41.14 41.30 C 43.04 41.19 44.93 40.91 46.79 40.51 C 46.28 42.09 45.84 43.69 45.57 45.33 C 43.97 45.39 42.40 45.68 40.84 46.00 C 41.01 44.44 41.15 42.87 41.14 41.30 Z" />
<path fill="#ffffff" opacity="1.00" d=" M 26.47 41.82 C 27.80 42.30 29.13 42.77 30.48 43.17 C 30.65 44.49 30.84 45.81 31.06 47.13 C 32.17 47.32 33.28 47.50 34.40 47.68 C 34.41 49.00 34.53 50.31 34.66 51.62 C 32.82 51.41 30.97 51.55 29.15 51.86 C 29.72 50.20 30.28 48.53 30.78 46.84 C 29.17 46.49 27.53 46.41 25.90 46.52 C 26.17 44.96 26.36 43.40 26.47 41.82 Z" />
<path fill="#ffffff" opacity="1.00" d=" M 19.51 43.96 C 20.74 44.24 21.98 44.51 23.23 44.77 C 23.38 46.44 23.61 48.11 23.83 49.77 C 21.91 48.32 18.31 47.02 19.51 43.96 Z" />
<path fill="#ffffff" opacity="1.00" d=" M 37.79 51.10 C 38.61 48.85 40.09 47.39 42.61 48.05 C 42.60 49.69 42.66 51.33 42.80 52.96 C 41.16 52.25 39.49 51.64 37.79 51.10 Z" />
</g>
</svg>
