<?xml version="1.0" encoding="UTF-8" ?>
<!DOCTYPE svg PUBLIC "-//W3C//DTD SVG 1.1//EN" "http://www.w3.org/Graphics/SVG/1.1/DTD/svg11.dtd">
<svg width="64pt" height="64pt" viewBox="0 0 64 64" version="1.1" xmlns="http://www.w3.org/2000/svg">
<g id="#ffffffff">
<path fill="#ffffff" opacity="1.00" d=" M 28.29 10.13 C 29.25 7.96 30.80 5.92 33.17 5.19 C 35.20 7.68 32.81 10.46 31.49 12.63 C 29.31 15.11 31.39 18.40 31.77 21.16 C 33.17 18.62 34.31 15.96 35.60 13.36 C 36.57 13.41 37.53 13.44 38.50 13.46 C 38.96 14.66 38.49 15.76 37.52 16.53 C 34.38 19.66 32.40 23.68 30.01 27.36 C 31.49 28.40 33.09 29.31 34.38 30.61 C 36.13 35.90 35.53 41.52 35.73 47.00 C 35.51 51.40 36.32 55.91 35.09 60.22 C 30.72 56.97 31.11 50.90 27.87 46.86 C 27.10 41.35 23.50 36.16 25.11 30.44 C 27.09 29.93 29.08 29.43 31.06 28.90 C 29.71 27.49 27.88 26.50 26.84 24.81 C 26.58 22.43 26.31 20.03 25.06 17.92 C 24.28 15.29 21.23 14.95 19.21 13.63 C 19.22 13.01 19.26 11.79 19.27 11.18 C 23.67 10.92 25.49 15.64 28.16 18.25 C 28.93 15.57 28.61 12.84 28.29 10.13 Z" />
</g>
</svg>
