<?xml version="1.0" encoding="UTF-8" ?>
<!DOCTYPE svg PUBLIC "-//W3C//DTD SVG 1.1//EN" "http://www.w3.org/Graphics/SVG/1.1/DTD/svg11.dtd">
<svg width="64pt" height="64pt" viewBox="0 0 64 64" version="1.1" xmlns="http://www.w3.org/2000/svg">
<g id="#ffffffff">
<path fill="#ffffff" opacity="1.00" d=" M 31.32 25.92 C 34.45 22.10 37.21 17.79 42.01 15.88 C 42.98 17.76 45.01 19.40 44.71 21.70 C 42.05 26.17 36.50 27.57 33.32 31.55 C 33.90 32.58 34.56 33.56 35.30 34.48 C 34.44 35.74 33.63 37.03 32.84 38.34 C 31.87 36.88 30.89 35.44 29.85 34.04 C 23.64 35.11 17.75 37.24 11.96 39.68 C 11.38 39.15 10.22 38.08 9.64 37.55 C 12.94 32.96 19.05 33.60 23.86 31.97 C 21.66 29.47 18.92 27.59 16.27 25.61 C 16.08 24.89 15.71 23.47 15.52 22.76 C 20.82 23.62 26.73 22.48 31.32 25.92 M 40.25 19.36 C 38.66 19.70 39.26 22.38 40.88 21.81 C 42.50 21.50 41.85 18.80 40.25 19.36 Z" />
<path fill="#ffffff" opacity="1.00" d=" M 37.03 30.22 C 39.68 30.56 42.27 29.51 44.90 29.76 C 48.18 30.80 52.19 31.95 53.61 35.47 C 54.65 37.68 54.99 40.13 55.52 42.49 C 51.41 43.12 48.57 39.52 44.97 38.27 C 41.88 36.67 37.84 36.09 35.97 32.84 C 35.96 31.84 36.31 30.97 37.03 30.22 M 46.64 33.71 C 48.17 35.53 50.02 37.05 52.14 38.14 C 51.57 35.45 48.91 34.57 46.64 33.71 Z" />
<path fill="#ffffff" opacity="1.00" d=" M 26.79 37.86 C 27.86 38.63 28.94 39.39 30.00 40.18 C 29.92 40.79 29.75 42.00 29.67 42.60 C 28.87 42.92 27.29 43.54 26.49 43.85 C 26.03 41.85 26.27 39.82 26.79 37.86 Z" />
<path fill="#ffffff" opacity="1.00" d=" M 34.51 42.01 C 34.80 41.30 35.36 39.88 35.65 39.18 C 36.64 40.00 37.64 40.83 38.65 41.65 C 38.73 42.67 38.82 43.69 38.90 44.71 C 38.28 44.71 37.03 44.71 36.41 44.71 C 35.78 43.81 35.15 42.91 34.51 42.01 Z" />
<path fill="#ffffff" opacity="1.00" d=" M 30.84 44.33 C 33.50 44.43 33.56 46.85 33.38 48.89 C 32.57 48.85 30.94 48.79 30.13 48.75 C 30.34 47.27 30.58 45.80 30.84 44.33 Z" />
</g>
</svg>
