<?xml version="1.0" encoding="UTF-8" ?>
<!DOCTYPE svg PUBLIC "-//W3C//DTD SVG 1.1//EN" "http://www.w3.org/Graphics/SVG/1.1/DTD/svg11.dtd">
<svg width="64pt" height="64pt" viewBox="0 0 64 64" version="1.1" xmlns="http://www.w3.org/2000/svg">
<g id="#ffffffff">
<path fill="#ffffff" opacity="1.00" d=" M 45.81 5.49 C 47.57 5.69 49.59 5.69 50.82 7.20 C 52.93 10.02 52.80 13.66 52.59 16.99 C 54.56 17.89 56.81 18.80 57.70 20.96 C 57.39 22.23 57.02 23.48 56.61 24.72 C 55.50 25.04 54.39 25.34 53.28 25.64 C 55.64 28.38 58.78 32.16 56.36 35.83 C 53.46 35.14 50.60 34.30 47.86 33.10 C 47.39 34.43 46.91 35.75 46.42 37.07 C 43.18 36.16 40.87 33.51 37.84 32.16 C 35.18 31.00 34.00 28.33 32.88 25.86 C 32.15 26.51 31.41 27.17 30.67 27.82 C 31.85 28.84 33.09 29.81 34.16 30.95 C 35.22 32.42 34.41 34.31 34.29 35.94 C 35.96 36.82 37.37 38.20 39.15 38.85 C 41.58 38.81 44.01 38.72 46.43 38.95 C 46.49 40.86 46.58 42.78 46.76 44.68 C 45.82 44.71 44.88 44.74 43.94 44.77 C 44.67 46.86 45.60 48.88 46.46 50.93 C 43.33 52.33 43.05 56.62 39.71 57.58 C 37.15 57.81 35.38 55.59 33.90 53.84 C 31.47 55.30 28.82 56.13 26.16 54.71 C 26.78 52.80 27.51 50.92 27.92 48.95 C 26.07 48.50 24.29 47.83 22.55 47.06 C 23.51 45.84 24.47 44.63 25.43 43.41 C 27.72 43.31 30.01 43.34 32.28 43.57 C 32.39 44.68 32.49 45.80 32.57 46.91 C 34.06 47.49 35.52 48.17 36.95 48.88 C 38.38 47.83 39.88 46.87 41.44 46.02 C 40.08 44.79 38.85 43.35 37.20 42.49 C 34.91 42.21 32.59 42.40 30.30 42.08 C 30.34 40.11 30.39 38.14 30.43 36.17 C 28.07 36.92 25.06 37.43 24.01 40.03 C 22.60 43.28 20.81 46.72 17.09 47.72 C 14.91 45.46 13.40 42.72 12.20 39.83 C 13.89 38.07 15.85 36.61 17.79 35.13 C 18.80 36.79 19.90 38.40 20.98 40.02 C 23.24 36.93 26.94 34.53 26.91 30.28 C 25.27 29.26 23.57 28.33 21.93 27.30 C 19.71 29.58 16.77 31.30 16.02 34.62 C 13.64 34.33 11.30 33.82 8.96 33.28 C 8.33 30.86 7.66 28.44 7.35 25.95 C 9.55 25.71 12.01 26.04 13.73 24.34 C 14.89 26.10 16.38 27.61 18.42 28.34 C 17.45 24.40 16.35 20.37 17.34 16.31 C 19.32 16.30 21.38 15.98 23.30 16.57 C 25.24 18.48 24.42 21.49 24.83 23.90 C 26.25 21.64 27.37 19.19 29.02 17.07 C 32.07 18.36 33.77 21.56 33.44 24.80 C 34.38 23.73 35.37 22.69 36.42 21.72 C 33.83 18.14 31.26 13.34 32.88 8.88 C 36.94 6.36 40.40 11.32 41.22 14.82 C 44.42 12.75 44.91 8.88 45.81 5.49 M 47.13 11.49 C 46.70 12.91 47.17 13.41 48.54 12.99 C 48.97 11.57 48.50 11.07 47.13 11.49 M 45.40 17.39 C 43.37 18.28 41.02 18.78 39.39 20.38 C 38.84 22.80 38.65 25.28 38.26 27.72 C 40.79 28.74 42.70 30.79 45.16 31.97 C 45.42 30.42 45.70 28.87 46.08 27.34 C 47.19 27.28 48.30 27.29 49.41 27.36 C 50.67 29.11 51.54 31.34 53.79 32.05 C 53.43 28.94 50.50 27.41 48.65 25.25 C 47.16 23.54 48.97 21.69 49.94 20.28 C 48.54 19.20 47.55 16.25 45.40 17.39 M 17.14 42.85 C 16.64 44.25 17.09 44.73 18.50 44.27 C 19.00 42.85 18.54 42.38 17.14 42.85 Z" />
<path fill="#ffffff" opacity="1.00" d=" M 36.12 34.21 C 39.04 32.53 36.36 37.59 36.12 34.21 Z" />
</g>
</svg>
