<?xml version="1.0" encoding="UTF-8" ?>
<!DOCTYPE svg PUBLIC "-//W3C//DTD SVG 1.1//EN" "http://www.w3.org/Graphics/SVG/1.1/DTD/svg11.dtd">
<svg width="64pt" height="64pt" viewBox="0 0 64 64" version="1.1" xmlns="http://www.w3.org/2000/svg">
<g id="#ffffffff">
<path fill="#ffffff" opacity="1.00" d=" M 27.10 15.13 C 29.52 9.10 36.18 7.02 41.15 3.67 C 43.59 3.18 44.68 5.53 45.96 7.08 C 48.81 7.99 51.23 9.94 54.23 10.36 C 54.43 11.59 54.63 12.83 54.86 14.06 C 54.24 14.66 53.61 15.27 52.98 15.87 C 53.98 15.73 55.97 15.46 56.97 15.32 C 56.26 18.55 54.73 21.56 54.15 24.83 C 54.86 27.92 56.14 30.84 56.99 33.89 C 55.32 36.92 53.26 39.74 51.75 42.86 C 53.14 42.13 54.49 41.31 55.91 40.62 C 55.53 44.12 54.35 47.45 53.56 50.86 C 52.81 50.81 52.06 50.74 51.31 50.67 C 48.29 55.16 44.71 59.25 41.11 63.28 C 40.36 62.42 39.59 61.58 38.79 60.77 C 36.54 60.61 34.33 61.27 32.09 61.25 C 27.25 59.31 23.79 55.27 19.59 52.36 C 15.69 49.04 10.75 46.15 9.10 40.99 C 7.82 37.07 6.30 33.20 4.02 29.75 C 1.84 25.01 7.53 21.03 6.49 16.37 C 9.06 13.98 11.33 11.29 14.01 9.03 C 16.77 10.83 19.14 14.72 23.08 13.39 C 24.33 16.68 26.27 19.75 27.17 23.13 C 27.61 24.87 26.85 29.15 29.83 27.69 C 31.17 23.31 26.93 19.54 27.10 15.13 M 10.30 15.03 C 8.95 15.73 8.92 16.37 10.22 16.95 C 11.62 16.25 11.65 15.61 10.30 15.03 M 12.23 19.14 C 11.42 20.40 13.41 22.16 14.47 20.98 C 15.25 19.76 13.25 17.90 12.23 19.14 M 8.18 29.21 C 6.88 29.87 6.89 30.53 8.19 31.18 C 9.53 30.48 9.52 29.82 8.18 29.21 M 41.99 35.22 C 40.48 38.12 45.43 35.31 41.99 35.22 M 41.09 43.01 C 42.21 45.47 43.44 47.89 44.59 50.34 C 45.04 51.27 45.80 51.80 46.87 51.93 C 46.53 48.17 43.46 45.63 41.09 43.01 Z" />
</g>
</svg>
