<?xml version="1.0" encoding="UTF-8" ?>
<!DOCTYPE svg PUBLIC "-//W3C//DTD SVG 1.1//EN" "http://www.w3.org/Graphics/SVG/1.1/DTD/svg11.dtd">
<svg width="64pt" height="64pt" viewBox="0 0 64 64" version="1.1" xmlns="http://www.w3.org/2000/svg">
<g id="#ffffffff">
<path fill="#ffffff" opacity="1.00" d=" M 33.95 3.93 C 35.60 1.92 38.53 0.34 41.06 1.72 C 37.90 5.33 34.12 8.81 32.95 13.65 C 32.32 16.82 31.98 20.05 31.28 23.20 C 30.49 23.28 28.91 23.44 28.12 23.51 C 27.91 24.42 27.67 25.33 27.38 26.22 C 30.58 26.19 32.08 28.75 32.22 31.64 C 33.43 31.03 34.64 30.42 35.86 29.84 C 38.36 31.64 40.81 34.56 39.34 37.80 C 37.68 40.92 33.97 40.55 30.98 40.67 C 31.41 42.32 31.77 44.00 32.12 45.67 C 30.72 46.46 29.29 47.20 27.83 47.91 C 28.43 46.02 28.78 44.08 29.14 42.14 C 28.05 42.39 26.97 42.66 25.89 42.95 C 26.19 44.18 27.58 45.45 26.71 46.75 C 25.06 48.81 23.90 45.39 24.10 43.95 C 24.02 40.51 28.13 40.09 30.66 39.47 C 30.67 37.78 30.70 36.08 30.77 34.39 C 28.43 34.59 26.09 34.39 24.00 33.22 C 24.43 32.01 24.82 30.79 25.24 29.58 C 25.51 30.35 26.04 31.89 26.30 32.66 C 26.98 32.85 28.33 33.21 29.01 33.39 C 29.44 32.26 29.88 31.14 30.32 30.03 C 29.98 29.65 29.29 28.90 28.95 28.53 C 26.42 28.78 23.88 28.65 21.37 28.32 C 22.75 27.28 24.24 26.39 25.58 25.29 C 26.20 23.82 25.49 22.25 25.32 20.76 C 23.36 21.72 21.60 24.33 19.19 23.19 C 15.34 20.92 11.34 18.79 7.96 15.81 C 10.86 13.15 15.28 14.15 18.60 15.41 C 20.89 16.20 21.88 19.01 24.34 19.36 C 25.58 19.65 26.77 20.12 27.97 20.55 C 28.62 14.68 30.13 8.60 33.95 3.93 M 13.53 16.73 C 15.29 18.66 17.71 19.68 20.26 20.07 C 18.62 17.94 16.16 16.95 13.53 16.73 M 33.73 32.91 C 33.69 34.71 33.35 36.48 33.04 38.26 C 33.84 38.23 35.44 38.19 36.24 38.17 C 36.35 36.72 36.44 35.26 36.51 33.80 C 35.59 33.49 34.66 33.19 33.73 32.91 Z" />
<path fill="#ffffff" opacity="1.00" d=" M 7.84 6.32 C 9.67 5.40 11.53 4.50 13.57 4.17 C 13.62 4.65 13.72 5.61 13.77 6.09 C 11.79 6.20 9.82 6.26 7.84 6.32 Z" />
<path fill="#ffffff" opacity="1.00" d=" M 36.41 20.13 C 39.25 15.51 42.13 9.76 47.73 8.18 C 50.00 9.75 48.40 12.95 48.03 15.13 C 46.84 19.74 42.39 21.87 38.54 23.87 C 40.34 23.61 42.03 22.30 43.87 22.63 C 45.69 24.43 47.13 27.18 46.18 29.76 C 45.06 31.49 43.26 32.88 41.10 32.70 C 39.20 31.98 39.37 29.60 38.72 28.02 C 36.65 28.47 34.54 28.76 32.41 28.77 C 32.26 26.98 31.85 25.16 32.16 23.36 C 33.27 21.92 34.96 21.15 36.41 20.13 M 39.31 20.73 C 43.01 19.93 44.63 16.43 45.06 13.03 C 42.67 15.18 40.33 17.60 39.31 20.73 M 33.67 27.32 C 35.71 27.24 38.03 24.44 35.91 22.91 C 33.33 22.64 33.88 25.64 33.67 27.32 M 41.35 24.99 C 41.29 27.09 41.38 29.18 41.55 31.26 C 44.14 30.12 44.83 25.16 41.35 24.99 Z" />
<path fill="#ffffff" opacity="1.00" d=" M 3.47 10.16 C 4.51 10.64 5.55 11.13 6.61 11.56 C 5.61 12.19 4.59 12.82 3.58 13.44 C 3.59 12.35 3.55 11.25 3.47 10.16 Z" />
<path fill="#ffffff" opacity="1.00" d=" M 39.67 38.40 C 40.98 36.19 41.99 33.06 44.97 32.74 C 47.35 33.21 48.50 36.81 46.15 38.06 C 44.42 40.21 41.76 39.65 39.67 38.40 Z" />
<path fill="#ffffff" opacity="1.00" d=" M 22.42 35.41 C 24.47 35.47 27.23 34.82 28.37 37.09 C 27.96 40.54 24.60 37.84 23.24 36.56 C 23.40 37.85 23.53 39.14 23.63 40.44 C 22.20 39.10 22.15 37.22 22.42 35.41 Z" />
<path fill="#ffffff" opacity="1.00" d=" M 39.51 42.18 C 40.46 40.70 43.23 42.05 41.92 43.62 C 41.00 45.07 38.22 43.70 39.51 42.18 Z" />
<path fill="#ffffff" opacity="1.00" d=" M 31.43 49.57 C 32.95 46.80 34.48 43.72 38.03 43.33 C 39.25 45.38 41.58 48.10 39.57 50.43 C 38.58 52.24 36.56 52.72 34.69 53.07 C 33.75 55.74 32.63 58.76 29.74 59.85 C 27.93 61.09 25.97 59.80 24.26 59.11 C 24.78 54.92 27.52 51.18 31.43 49.57 M 36.19 47.56 C 35.28 48.75 35.52 49.44 36.90 49.61 C 37.82 48.42 37.58 47.74 36.19 47.56 M 26.52 54.67 C 26.92 56.13 27.38 57.58 27.82 59.03 C 30.19 57.37 32.71 55.35 32.76 52.17 C 30.54 52.61 28.49 53.59 26.52 54.67 Z" />
</g>
</svg>
