<?xml version="1.0" standalone="no"?>
<svg xmlns="http://www.w3.org/2000/svg" viewBox="0 0 150 150">
  <defs>
    <style>.cls-1{fill:#fff;}</style>
  </defs>
  <g id="Layer_2" data-name="Layer 2">
  <g id="Layer_1-2" data-name="Layer 1">
  <path class="cls-1" d="M150,150H0V0H150ZM76.27,5C63.69,4.64,54.14,9.67,45.2,18.06S32.58,36.44,34.37,48.12A87.33,87.33,0,0,0,48.76,84c10,14.83,19.37,29.88,20.47,48.51.32,5.56,2.44,7.25,7.53,7.11,4.56-.12,5.91-3.14,6.76-7.18,1.67-8,2.79-16.29,6.09-23.57,4.9-10.82,11.87-20.68,17.28-31.29C111.23,69,116.3,60.28,118,51.09c2.7-15-1.48-28.62-15.26-37.67-2.06-1.36-3.77-3.68-6-4.25C90,7.43,83.1,6.34,76.27,5Z"/>
  <path d="M76.27,5C83.1,6.34,90,7.43,96.71,9.17c2.21.57,3.92,2.89,6,4.25,13.78,9,18,22.68,15.26,37.67-1.65,9.19-6.72,17.92-11.06,26.44C101.48,88.14,94.51,98,89.61,108.82c-3.3,7.28-4.42,15.61-6.09,23.57-.85,4-2.2,7.06-6.76,7.18-5.09.14-7.21-1.55-7.53-7.11C68.13,113.83,58.77,98.78,48.76,84A87.33,87.33,0,0,1,34.37,48.12C32.58,36.44,36.14,26.55,45.2,18.06S63.69,4.64,76.27,5Zm0,129.17a26,26,0,0,0,1.38-2.79c3.46-11.21,5.83-22.92,10.62-33.53,5.85-13,14-24.87,20.66-37.52,10.7-20.42-.45-44.53-24.71-47.73-3.12-.41-6.34,0-9.49-.35C60.55,10.75,50.89,18.38,43.5,28.92c-2.8,4-4.16,10-3.79,14.92.95,12.91,5.59,24.7,12.81,35.73,10.26,15.68,21.13,31.3,22.16,51.08C74.72,131.49,75.42,132.3,76.3,134.16Z"/>
  <path class="cls-1" d="M76.3,134.16c-.88-1.86-1.58-2.67-1.62-3.51-1-19.78-11.9-35.4-22.16-51.08-7.22-11-11.86-22.82-12.81-35.73-.37-4.92,1-11,3.79-14.92,7.39-10.54,17-18.17,31.26-16.68,3.15.32,6.37-.06,9.49.35,24.26,3.2,35.41,27.31,24.71,47.73C102.33,73,94.15,84.87,88.3,97.84c-4.79,10.61-7.16,22.32-10.62,33.53A26,26,0,0,1,76.3,134.16ZM76,57.64c6.86.13,12.92-5,13-11.1s-5.72-12-11.65-12.16c-6.59-.17-14,6.09-14,11.86C63.32,51.38,70.16,57.54,76,57.64Z"/>
  <path d="M76,57.64c-5.84-.1-12.68-6.26-12.67-11.4,0-5.77,7.42-12,14-11.86,5.93.15,11.71,6.19,11.65,12.16S82.86,57.77,76,57.64ZM70.22,44.48c.84,4.38,3.18,7,7.11,6.68,1.82-.15,4.52-2.25,4.9-3.9S81,42.68,79.4,41.73C75.89,39.65,72.88,41.65,70.22,44.48Z"/>
  <path class="cls-1" d="M70.22,44.48c2.66-2.83,5.67-4.83,9.18-2.75,1.59,1,3.2,3.93,2.83,5.53s-3.08,3.75-4.9,3.9C73.4,51.49,71.06,48.86,70.22,44.48Z"/>
  </g>
  </g>
</svg>