<?xml version="1.0" encoding="UTF-8" ?>
<!DOCTYPE svg PUBLIC "-//W3C//DTD SVG 1.1//EN" "http://www.w3.org/Graphics/SVG/1.1/DTD/svg11.dtd">
<svg width="128pt" height="128pt" viewBox="0 0 128 128" version="1.1" xmlns="http://www.w3.org/2000/svg">
<g id="#000000ff">
<path fill="#000000" opacity="1.00" d=" M 83.63 24.54 C 88.64 22.62 94.18 21.47 99.32 23.65 C 100.88 29.39 109.04 26.55 111.59 31.50 C 108.43 31.76 104.95 30.36 102.10 32.34 C 100.74 37.53 101.30 43.20 99.25 48.27 C 98.12 51.04 97.66 53.98 97.11 56.89 C 95.43 61.58 91.98 65.32 89.60 69.64 C 88.56 71.52 87.35 73.50 85.22 74.29 C 81.21 76.48 77.17 80.78 72.23 79.49 C 71.06 83.26 70.93 87.26 70.12 91.12 C 72.68 91.77 74.40 93.64 74.74 96.27 C 79.12 97.79 83.58 99.04 88.06 100.20 L 88.54 101.28 C 83.18 101.38 78.23 98.78 72.89 98.60 C 72.10 100.68 72.80 104.35 70.07 104.99 C 70.56 102.89 71.31 100.86 72.15 98.88 C 69.40 96.74 65.61 95.36 62.40 97.45 C 61.23 100.22 61.08 104.42 57.77 105.47 C 58.93 102.04 60.79 98.81 61.01 95.11 C 60.31 95.17 58.93 95.28 58.23 95.34 C 57.42 97.66 58.12 100.82 55.73 102.29 C 56.27 99.72 56.99 97.16 56.87 94.51 C 54.18 94.03 51.47 93.62 48.85 92.85 L 48.44 91.58 C 50.29 91.39 52.14 91.48 53.99 91.65 C 48.64 90.00 43.18 88.73 37.81 87.18 C 35.52 85.70 38.60 85.08 39.86 85.73 C 45.47 86.99 51.00 88.60 56.42 90.53 C 58.39 91.62 60.27 89.85 61.38 88.37 C 63.88 84.38 64.79 79.73 65.73 75.19 C 64.86 76.46 64.59 78.88 62.61 78.77 C 55.30 79.67 48.78 73.72 41.48 75.63 C 34.82 78.25 29.07 82.72 22.48 85.48 L 22.53 84.17 C 24.81 82.18 27.77 81.12 30.05 79.10 C 26.27 80.35 22.69 82.20 18.74 82.86 C 17.78 80.92 18.30 78.75 18.75 76.75 C 25.45 74.42 32.30 72.51 38.85 69.75 C 42.16 68.92 44.91 66.67 48.25 66.00 C 48.95 65.13 49.65 64.27 50.35 63.40 C 49.66 63.49 48.26 63.66 47.57 63.74 C 48.75 60.45 51.91 58.63 54.33 56.32 C 56.87 53.85 59.95 52.02 62.46 49.52 C 64.00 48.34 63.11 45.97 64.56 44.73 C 67.92 40.93 72.54 38.64 76.66 35.80 C 78.15 31.59 80.85 27.99 83.63 24.54 M 95.17 24.22 C 94.64 25.82 95.19 26.35 96.83 25.80 C 97.35 24.19 96.79 23.66 95.17 24.22 M 51.50 68.27 C 50.36 68.90 48.86 70.17 49.23 71.61 C 50.75 72.52 54.39 67.82 51.50 68.27 M 72.52 74.18 C 71.32 74.68 69.74 75.04 69.16 76.33 C 69.67 78.64 75.87 74.20 72.52 74.18 M 76.25 74.07 C 74.73 74.35 75.12 76.95 76.73 75.98 C 78.25 75.67 77.87 73.13 76.25 74.07 M 67.53 79.42 C 66.33 82.79 66.14 86.47 64.59 89.72 C 64.21 90.75 63.18 91.60 63.28 92.77 C 64.21 93.58 65.57 93.55 66.70 93.91 C 67.81 89.61 68.12 85.13 69.58 80.92 C 70.13 79.71 68.55 78.69 67.53 79.42 Z" />
<path fill="#000000" opacity="1.00" d=" M 67.86 105.41 C 65.59 103.38 66.43 99.12 68.84 97.82 C 71.14 99.90 68.75 103.15 67.86 105.41 Z" />
</g>
</svg>
