<?xml version="1.0" encoding="UTF-8" ?>
<!DOCTYPE svg PUBLIC "-//W3C//DTD SVG 1.1//EN" "http://www.w3.org/Graphics/SVG/1.1/DTD/svg11.dtd">
<svg width="128pt" height="64pt" viewBox="0 0 128 64" version="1.1" xmlns="http://www.w3.org/2000/svg">
<g id="#000000ff">
<path fill="#000000" opacity="1.00" d=" M 15.90 1.48 C 17.20 3.01 18.45 4.62 19.94 5.98 C 23.32 8.05 27.35 8.61 31.25 8.64 C 34.26 8.60 35.51 11.29 36.75 13.55 C 36.31 12.54 35.41 10.53 34.96 9.53 C 35.99 9.95 38.04 10.77 39.06 11.19 C 38.85 11.55 38.43 12.26 38.22 12.62 C 40.54 13.15 42.69 14.21 44.91 15.03 C 42.54 13.96 40.15 12.70 39.05 10.17 C 43.39 10.12 46.97 14.65 51.33 12.98 C 56.97 11.30 62.88 13.09 68.60 12.21 C 73.02 11.02 77.72 11.36 82.19 12.18 C 85.10 12.62 88.15 11.84 90.99 12.86 C 94.48 14.10 98.52 14.97 100.85 18.12 C 103.37 21.48 105.97 25.08 106.31 29.41 C 106.88 34.44 108.73 39.16 110.04 44.02 C 110.50 45.88 112.48 46.59 113.93 47.54 C 115.49 46.63 117.01 45.65 118.58 44.75 C 118.56 45.96 118.53 47.16 118.49 48.37 C 115.29 50.67 111.31 50.65 107.57 50.23 C 104.62 48.21 103.56 44.39 101.69 41.46 C 99.41 35.49 97.94 29.23 95.65 23.26 C 95.11 21.75 93.77 20.77 92.62 19.75 C 92.35 24.15 92.54 28.59 94.11 32.76 C 92.75 32.73 91.40 32.68 90.04 32.65 C 89.72 31.38 89.39 30.12 89.04 28.86 C 88.32 30.51 87.33 32.14 87.26 33.99 C 88.22 39.55 90.27 45.08 94.72 48.81 C 93.05 52.81 92.44 58.32 87.95 60.24 C 85.70 60.67 83.40 60.65 81.12 60.63 C 81.55 58.40 82.82 56.51 84.72 55.25 C 83.01 56.11 81.17 56.69 79.24 56.70 C 80.64 53.81 83.89 52.91 86.41 51.29 C 84.28 48.13 82.05 45.03 80.43 41.57 C 78.89 38.15 74.99 36.38 74.30 32.52 C 69.71 34.66 64.58 35.07 59.93 37.05 C 55.40 38.91 50.54 39.84 45.64 39.88 C 45.26 43.96 46.06 48.25 44.40 52.12 C 43.32 54.38 43.69 56.93 43.53 59.35 C 40.23 59.84 36.89 59.83 33.57 59.62 C 34.86 56.75 37.20 54.55 39.95 53.09 C 39.38 48.76 39.72 44.38 39.27 40.05 C 37.26 36.59 32.74 35.84 30.37 32.63 C 27.20 28.45 24.62 23.81 21.94 19.29 C 19.24 21.38 16.49 19.58 14.02 18.10 C 15.08 19.07 16.12 20.06 17.14 21.08 C 16.09 21.67 15.02 22.22 13.92 22.72 C 12.35 22.46 12.04 20.77 11.32 19.63 C 10.59 18.04 9.06 17.10 7.80 15.98 C 10.93 11.43 14.49 6.91 15.90 1.48 M 28.65 14.75 C 30.62 17.56 32.58 20.38 34.29 23.36 C 33.53 21.11 32.98 18.80 32.44 16.48 C 31.18 15.89 29.92 15.31 28.65 14.75 M 67.45 22.63 C 67.51 23.27 67.63 24.56 67.69 25.20 C 68.88 25.55 70.07 25.89 71.27 26.22 C 70.02 25.00 68.72 23.82 67.45 22.63 M 82.25 25.26 C 82.85 25.83 82.85 25.83 82.25 25.26 M 47.86 31.11 C 47.80 33.24 47.40 35.32 46.21 37.11 C 47.85 36.79 49.50 36.46 51.15 36.15 C 50.12 34.43 48.99 32.77 47.86 31.11 Z" />
</g>
</svg>
