<?xml version="1.0" encoding="UTF-8" ?>
<!DOCTYPE svg PUBLIC "-//W3C//DTD SVG 1.1//EN" "http://www.w3.org/Graphics/SVG/1.1/DTD/svg11.dtd">
<svg width="128pt" height="128pt" viewBox="0 0 128 128" version="1.1" xmlns="http://www.w3.org/2000/svg">
<g id="#000000ff">
<path fill="#000000" opacity="1.00" d=" M 101.30 8.51 C 101.95 8.49 103.24 8.44 103.89 8.42 C 104.04 11.81 102.92 15.06 101.19 17.94 C 98.86 15.04 102.00 11.76 101.30 8.51 Z" />
<path fill="#000000" opacity="1.00" d=" M 96.56 10.50 C 96.95 9.84 97.74 8.51 98.14 7.84 C 99.62 10.39 98.89 13.16 98.32 15.84 C 99.37 16.63 100.42 17.41 101.47 18.20 C 100.75 19.37 99.60 20.38 99.53 21.84 C 99.09 25.86 95.66 28.83 95.26 32.88 C 96.36 30.54 97.38 28.13 99.13 26.18 C 101.47 23.61 101.36 19.55 104.05 17.28 C 104.53 17.39 105.49 17.62 105.97 17.73 C 105.55 23.85 100.51 28.29 99.46 34.18 C 100.01 33.17 100.32 32.00 101.13 31.16 C 104.50 27.88 106.30 23.46 108.35 19.32 C 109.04 19.31 110.42 19.29 111.11 19.27 C 109.52 26.98 104.53 33.77 98.70 38.91 C 104.30 36.47 108.44 31.40 111.11 26.02 C 112.07 26.49 113.02 26.96 113.97 27.43 C 110.33 35.76 102.57 41.17 95.79 46.81 C 93.26 49.17 89.61 49.98 87.37 52.68 C 96.69 49.35 104.73 42.96 111.17 35.56 C 111.87 35.63 113.26 35.76 113.96 35.82 C 112.22 41.48 106.58 44.61 102.99 49.04 C 102.56 48.59 101.69 47.67 101.25 47.21 C 101.49 48.00 101.72 48.79 101.95 49.58 C 97.36 52.67 92.32 54.91 87.36 57.30 C 87.23 57.66 86.98 58.37 86.86 58.73 C 91.67 58.07 95.19 53.05 100.31 54.44 C 100.31 53.77 100.32 53.10 100.32 52.43 C 104.71 51.31 108.34 48.53 112.02 46.04 C 113.31 45.05 115.47 44.99 115.64 47.03 C 112.98 50.83 108.37 52.43 105.29 55.78 C 107.04 55.72 107.86 53.72 109.53 53.44 C 112.23 52.91 114.73 51.80 117.04 50.32 C 117.74 50.80 119.14 51.75 119.84 52.23 C 115.85 56.03 110.02 56.84 105.58 60.00 C 108.05 59.44 110.37 58.34 112.92 58.17 C 112.52 60.78 110.12 61.15 107.99 61.66 C 109.10 62.39 110.21 63.12 111.31 63.89 C 107.23 65.23 103.04 66.14 98.86 67.09 C 103.22 68.25 107.77 66.40 112.13 67.79 C 110.87 68.97 109.36 69.72 107.61 69.56 C 107.44 72.54 103.96 75.74 107.00 78.22 C 105.93 79.62 104.85 81.01 103.94 82.52 C 100.53 82.71 97.04 82.25 93.68 83.02 C 96.83 82.82 99.56 84.12 101.86 86.21 C 99.36 87.98 96.06 87.95 93.93 85.66 C 93.68 87.51 92.48 88.92 91.43 90.39 C 92.61 89.23 93.72 88.01 94.86 86.81 C 95.97 87.83 97.89 88.35 98.19 90.01 C 98.49 92.93 101.38 94.45 102.90 96.74 C 104.53 96.49 106.18 96.39 107.83 96.31 C 108.28 97.05 109.19 98.54 109.65 99.28 C 108.52 99.81 107.39 100.31 106.25 100.81 C 106.29 102.15 106.02 103.73 107.58 104.32 C 109.71 105.51 110.42 107.87 110.85 110.10 C 110.86 109.36 110.88 107.89 110.90 107.15 C 113.68 108.42 117.15 108.75 119.04 111.43 C 117.67 111.15 116.31 110.81 114.95 110.48 C 112.27 112.78 109.20 114.62 106.89 117.33 C 100.27 113.69 93.77 109.73 87.49 105.52 C 84.36 102.48 79.78 104.05 75.98 104.44 C 72.74 104.38 69.27 104.40 66.38 102.71 C 59.76 99.69 53.06 96.33 47.89 91.10 C 46.30 89.63 45.60 87.57 45.26 85.50 C 34.97 83.01 27.23 74.48 16.50 73.24 C 13.17 70.06 7.18 72.79 4.70 68.40 C 7.26 68.28 9.84 68.69 12.38 68.27 C 14.38 66.95 16.01 64.90 18.54 64.60 C 18.62 64.91 18.80 65.54 18.88 65.86 C 17.98 66.41 17.07 66.94 16.13 67.43 C 16.27 67.95 16.56 68.99 16.70 69.51 C 17.59 69.61 18.49 69.70 19.39 69.79 C 19.44 68.56 19.82 67.47 20.54 66.52 C 21.53 65.54 22.67 67.12 23.62 67.45 C 30.19 71.41 37.08 76.00 45.05 75.93 C 45.98 73.83 47.44 72.03 48.48 69.99 C 48.65 67.65 48.53 65.30 48.47 62.95 C 48.45 58.51 45.97 54.49 46.13 50.00 C 50.01 50.11 51.18 54.65 53.85 56.86 C 53.10 54.74 53.51 49.82 56.64 52.29 C 58.59 58.40 58.44 65.07 61.39 70.89 C 60.27 65.94 64.10 62.23 66.26 58.24 C 68.98 54.37 71.65 50.13 76.03 47.99 C 80.81 43.53 83.69 37.45 86.76 31.77 C 87.53 30.62 87.56 29.23 87.78 27.92 C 90.30 27.63 93.15 26.17 93.48 23.41 C 94.35 19.06 96.40 14.98 96.56 10.50 M 78.11 51.35 C 77.02 51.04 75.43 52.30 76.46 53.35 C 77.79 54.73 80.14 51.98 78.11 51.35 M 66.33 69.37 C 68.03 68.40 67.47 66.28 67.72 64.67 C 66.07 65.67 66.56 67.76 66.33 69.37 M 95.93 66.48 C 95.59 67.87 96.12 68.39 97.51 68.04 C 97.88 66.62 97.35 66.10 95.93 66.48 M 90.21 68.02 C 91.61 68.66 93.03 69.31 94.44 69.94 C 94.50 69.09 94.62 67.40 94.68 66.55 C 93.06 66.61 91.50 66.97 90.21 68.02 M 51.24 79.63 C 51.83 79.58 53.02 79.48 53.62 79.43 C 53.63 78.24 53.65 77.05 53.66 75.86 C 52.85 77.11 52.05 78.37 51.24 79.63 M 38.52 79.83 C 39.83 81.70 42.14 82.22 44.10 83.13 C 44.44 82.20 44.79 81.28 45.15 80.36 C 44.61 80.73 43.52 81.46 42.98 81.83 C 41.56 81.02 40.10 80.26 38.52 79.83 M 52.63 90.66 C 54.42 92.72 56.81 94.11 59.19 95.38 C 58.07 92.54 55.61 90.98 52.63 90.66 Z" />
<path fill="#000000" opacity="1.00" d=" M 102.25 94.90 C 105.28 93.35 102.48 98.31 102.25 94.90 Z" />
</g>
</svg>
