<?xml version="1.0" encoding="UTF-8" ?>
<!DOCTYPE svg PUBLIC "-//W3C//DTD SVG 1.1//EN" "http://www.w3.org/Graphics/SVG/1.1/DTD/svg11.dtd">
<svg width="128pt" height="128pt" viewBox="0 0 128 128" version="1.1" xmlns="http://www.w3.org/2000/svg">
<g id="#000000ff">
<path fill="#000000" opacity="1.00" d=" M 105.54 15.10 C 107.68 14.50 109.75 13.14 112.06 13.47 C 118.16 13.58 121.34 19.57 125.17 23.44 C 123.54 23.50 121.91 23.43 120.29 23.31 C 118.06 26.44 115.30 29.14 112.25 31.46 C 115.15 39.14 112.09 47.16 111.42 54.93 C 110.72 54.82 109.32 54.59 108.62 54.48 C 111.60 55.59 113.31 58.68 111.98 61.73 C 109.51 65.69 107.05 69.66 104.88 73.79 C 103.47 76.69 100.06 77.69 98.43 80.41 C 96.96 82.60 94.32 83.63 92.91 85.87 C 91.38 88.21 89.36 90.17 87.20 91.94 C 92.89 95.06 96.22 100.90 101.69 104.25 C 107.06 105.44 113.75 103.08 118.07 107.23 C 113.93 107.94 109.66 107.56 105.67 106.29 C 105.62 107.08 105.53 108.67 105.49 109.46 C 101.66 106.48 96.83 107.58 92.38 107.01 C 93.78 105.94 95.34 105.10 96.95 104.37 C 96.84 103.90 96.62 102.98 96.51 102.52 C 92.35 100.55 89.20 97.17 85.52 94.55 C 82.92 94.30 80.32 94.02 77.80 93.28 C 76.63 91.19 77.49 87.37 75.14 86.41 C 73.64 87.46 72.14 88.53 70.75 89.73 C 69.66 91.75 68.67 93.82 67.46 95.76 C 68.21 97.53 68.43 99.66 70.01 100.94 C 71.95 102.56 74.46 103.22 76.66 104.41 C 76.64 104.83 76.61 105.68 76.59 106.10 C 73.47 106.75 70.91 104.14 68.33 102.80 C 69.37 106.17 72.32 107.77 75.14 109.42 C 73.67 109.45 72.14 109.86 70.69 109.44 C 67.62 106.57 65.51 102.82 63.70 99.06 C 61.75 100.24 59.65 101.15 57.42 101.67 C 57.45 101.21 57.51 100.29 57.54 99.83 C 61.49 97.91 63.89 94.04 66.94 91.02 C 64.64 88.54 65.57 85.35 66.65 82.54 C 64.70 84.38 62.70 86.17 60.64 87.89 C 59.82 87.46 59.01 87.02 58.20 86.58 C 52.39 91.32 45.35 94.12 38.88 97.78 C 32.37 100.75 25.90 104.12 18.88 105.66 C 15.77 105.53 12.26 106.28 9.61 104.28 C 15.33 101.05 21.07 97.81 27.01 94.99 C 28.83 94.01 31.56 93.80 31.99 91.36 C 26.40 92.01 21.76 95.69 16.59 97.66 C 16.46 96.50 16.33 95.33 16.22 94.17 C 13.24 94.58 10.22 94.47 7.34 93.54 C 7.33 92.45 7.34 91.36 7.36 90.27 C 15.47 85.37 25.19 84.71 33.73 80.95 C 26.30 79.15 19.65 84.43 12.24 83.90 C 12.30 83.27 12.43 82.02 12.49 81.40 C 15.74 80.43 18.38 77.84 21.86 77.63 C 28.31 76.44 34.62 74.50 40.46 71.46 C 47.86 68.81 52.45 61.82 59.50 58.55 C 65.33 55.96 69.63 51.08 75.31 48.18 C 76.18 48.75 77.05 49.33 77.92 49.91 C 79.61 48.18 81.28 46.33 83.52 45.29 C 89.28 42.17 94.71 37.71 97.45 31.66 C 96.87 26.36 99.33 21.46 102.44 17.34 C 104.41 14.93 108.24 16.28 108.51 19.31 C 110.64 19.17 112.20 20.59 113.87 21.67 C 114.37 20.94 115.36 19.49 115.86 18.76 C 114.09 16.89 111.82 16.79 110.11 18.86 C 108.97 17.16 107.39 15.97 105.54 15.10 M 83.78 79.17 C 85.97 76.41 87.11 73.04 87.92 69.66 C 86.20 72.66 84.47 75.74 83.78 79.17 M 34.26 78.26 C 39.12 78.91 43.80 77.34 48.61 77.07 C 49.06 76.72 49.98 76.02 50.44 75.67 C 46.69 75.38 42.95 75.74 39.20 75.58 C 37.40 76.14 35.85 77.28 34.26 78.26 M 89.07 84.52 C 88.57 86.20 89.11 86.78 90.67 86.26 C 91.16 84.55 90.63 83.98 89.07 84.52 M 10.19 91.73 C 12.76 91.84 15.33 91.55 17.89 91.50 C 19.05 90.17 20.24 88.86 21.39 87.53 C 17.64 88.79 13.15 88.78 10.19 91.73 M 79.20 89.24 C 78.71 90.39 79.76 92.06 81.03 92.12 C 83.07 91.33 80.76 88.21 79.20 89.24 Z" />
<path fill="#000000" opacity="1.00" d=" M 105.71 107.49 C 107.74 107.24 109.72 107.62 111.35 108.92 C 111.46 112.36 105.31 110.38 105.71 107.49 Z" />
</g>
</svg>
