<?xml version="1.0" encoding="UTF-8" ?>
<!DOCTYPE svg PUBLIC "-//W3C//DTD SVG 1.1//EN" "http://www.w3.org/Graphics/SVG/1.1/DTD/svg11.dtd">
<svg width="128pt" height="128pt" viewBox="0 0 128 128" version="1.1" xmlns="http://www.w3.org/2000/svg">
<g id="#000000ff">
<path fill="#000000" opacity="1.00" d=" M 91.49 21.61 C 95.94 21.43 100.78 20.76 104.73 23.36 C 108.22 29.85 111.54 37.63 118.93 40.47 C 118.71 41.53 118.46 42.59 118.21 43.64 C 113.96 42.19 109.61 40.96 105.12 40.52 C 104.61 39.71 104.11 38.89 103.61 38.08 C 102.15 39.50 100.64 40.88 99.28 42.39 C 98.45 46.16 98.26 50.05 98.10 53.90 C 99.12 56.56 102.27 57.83 103.57 60.42 C 105.65 64.19 108.09 67.75 110.51 71.29 C 110.94 75.75 110.77 80.27 110.45 84.73 C 108.23 91.23 101.82 94.68 97.52 99.65 C 90.28 102.97 83.82 108.08 76.00 110.02 C 75.07 109.42 74.16 108.79 73.24 108.18 C 71.16 109.44 68.86 110.23 66.57 111.00 C 67.99 112.64 69.49 114.22 70.92 115.85 C 70.41 116.27 69.38 117.11 68.86 117.52 C 66.71 116.21 65.38 114.07 64.22 111.90 C 60.63 112.60 57.26 114.62 53.52 114.33 C 50.17 114.10 46.64 114.75 43.52 113.18 C 43.02 113.41 42.04 113.86 41.55 114.08 C 41.53 113.37 41.51 111.94 41.49 111.22 C 40.71 111.87 39.93 112.53 39.13 113.18 C 34.74 111.51 29.51 110.37 26.85 106.09 C 24.47 101.80 21.89 97.60 19.75 93.18 C 17.90 89.88 17.57 85.75 19.88 82.58 C 18.01 78.80 23.24 78.53 25.56 77.41 C 23.92 78.94 24.22 81.23 24.16 83.27 C 23.89 84.42 24.30 85.18 25.38 85.56 C 28.52 85.80 31.69 85.74 34.81 85.32 C 36.77 84.46 38.56 83.26 40.47 82.30 C 40.55 82.94 40.70 84.23 40.78 84.87 C 41.06 83.87 41.31 82.86 41.57 81.85 C 49.37 77.81 58.39 76.77 65.64 71.56 C 71.52 67.21 79.08 67.61 85.72 65.32 C 85.71 58.98 79.53 54.45 80.36 48.02 C 80.08 43.08 80.42 38.15 80.95 33.24 C 82.97 28.26 86.96 24.35 91.49 21.61 M 98.52 28.36 C 97.02 29.82 97.75 31.86 98.29 33.55 C 99.82 33.05 101.33 32.50 102.83 31.90 C 102.69 30.64 102.57 29.39 102.47 28.13 C 101.21 27.87 99.46 26.97 98.52 28.36 Z" />
<path fill="#000000" opacity="1.00" d=" M 69.22 110.74 C 72.03 109.04 75.05 109.39 77.64 111.24 C 76.84 117.59 85.62 116.56 88.01 121.19 C 85.57 122.35 83.21 120.63 80.92 119.91 C 78.33 118.77 75.50 116.63 75.39 113.57 C 72.98 113.90 69.97 113.53 69.22 110.74 Z" />
</g>
</svg>
