<?xml version="1.0" encoding="UTF-8" ?>
<!DOCTYPE svg PUBLIC "-//W3C//DTD SVG 1.1//EN" "http://www.w3.org/Graphics/SVG/1.1/DTD/svg11.dtd">
<svg width="128pt" height="128pt" viewBox="0 0 128 128" version="1.1" xmlns="http://www.w3.org/2000/svg">
<g id="#000000ff">
<path fill="#000000" opacity="1.00" d=" M 30.40 8.33 C 32.70 7.42 35.28 7.59 37.52 6.42 C 34.39 9.64 38.28 13.93 39.44 17.26 C 44.11 15.11 48.14 11.88 52.63 9.43 C 55.16 7.98 59.00 7.46 61.04 9.98 C 63.26 12.44 65.76 14.69 67.58 17.48 C 68.17 20.63 66.96 23.80 67.22 26.98 C 67.57 29.74 64.88 31.19 63.22 32.88 C 59.93 31.73 56.44 31.23 53.33 29.57 C 53.89 33.32 56.28 36.55 58.89 39.19 C 59.14 40.22 59.44 41.24 59.78 42.24 C 59.72 41.32 59.60 39.46 59.54 38.54 C 62.42 38.27 65.27 37.73 68.13 37.25 C 68.22 35.03 70.64 32.97 72.78 34.15 C 77.08 35.93 81.71 36.33 86.19 37.39 C 89.35 37.79 92.41 36.73 95.47 36.14 C 95.66 34.97 95.90 33.82 96.21 32.67 C 100.45 32.87 102.23 37.56 105.80 39.21 C 109.63 41.02 113.23 44.79 112.81 49.31 C 112.80 53.99 114.56 58.95 112.23 63.34 C 111.23 64.82 112.23 66.32 112.74 67.77 C 111.70 68.80 110.33 69.64 109.88 71.13 C 110.03 77.78 112.52 84.62 109.66 91.06 C 112.76 91.42 111.20 94.90 111.62 96.96 C 113.02 103.25 111.51 109.60 111.14 115.90 C 110.57 119.06 108.51 121.33 105.35 121.94 C 105.78 116.90 107.13 111.93 109.22 107.33 C 108.84 107.05 108.10 106.48 107.73 106.20 C 107.97 102.16 107.79 98.11 107.62 94.08 C 107.65 91.51 105.24 89.85 104.80 87.40 C 103.90 82.73 103.19 78.02 102.20 73.36 C 102.00 73.38 101.60 73.44 101.40 73.47 C 101.60 79.66 102.75 85.85 101.98 92.04 C 101.78 95.97 103.88 99.83 102.86 103.74 C 101.63 108.06 102.45 112.57 102.07 116.98 C 101.67 116.49 100.88 115.51 100.48 115.02 C 100.18 108.35 101.08 101.57 99.38 95.03 C 97.49 89.07 95.15 83.26 93.02 77.38 C 91.61 78.58 90.21 79.79 88.84 81.03 C 85.70 79.90 82.38 80.65 79.14 80.32 C 75.71 79.63 72.30 78.79 68.82 78.30 C 68.60 86.54 69.09 94.86 67.89 103.04 C 68.21 107.37 68.92 111.68 68.87 116.02 C 68.40 116.06 67.46 116.13 66.99 116.17 C 66.42 112.72 67.85 108.55 64.96 105.87 C 65.10 96.62 63.70 87.41 62.56 78.24 C 62.32 78.27 61.82 78.34 61.57 78.38 C 61.50 81.59 61.42 84.83 60.84 88.00 C 59.81 92.65 62.14 97.41 60.70 102.01 C 59.92 105.98 61.33 110.12 60.10 114.00 C 59.51 114.36 58.33 115.07 57.74 115.43 C 59.41 107.96 58.23 100.39 56.53 93.05 C 57.60 87.26 56.03 81.16 52.49 76.47 C 51.04 74.61 48.95 73.15 48.18 70.83 C 47.08 67.55 44.25 65.33 41.97 62.88 C 42.64 62.22 43.31 61.55 43.97 60.88 C 43.38 58.85 42.82 56.66 40.68 55.73 C 40.22 48.15 38.99 40.43 36.03 33.42 C 34.86 35.82 32.09 36.85 29.55 36.85 C 28.50 34.94 27.46 33.03 26.49 31.08 C 28.26 26.94 30.49 23.01 32.19 18.85 C 30.27 20.51 29.01 22.73 27.93 24.99 C 27.34 24.92 26.76 24.86 26.17 24.80 C 25.59 27.24 22.92 26.84 21.00 26.68 C 17.08 26.57 13.56 23.09 14.05 19.05 C 17.63 19.72 19.71 24.13 23.74 22.83 C 26.69 21.31 28.49 18.14 31.21 16.19 C 29.87 16.46 28.54 16.73 27.21 17.00 C 28.75 14.28 30.56 11.60 30.40 8.33 M 48.75 21.33 C 51.00 23.88 53.15 26.55 54.64 29.63 C 56.88 29.17 59.12 28.80 61.38 28.44 C 61.99 26.06 62.73 23.58 62.05 21.13 C 61.54 18.94 59.56 17.62 58.15 16.03 C 55.33 18.30 52.06 19.90 48.75 21.33 M 38.43 21.33 C 37.55 22.03 36.98 23.24 37.74 24.24 C 39.06 24.65 40.73 24.58 40.96 22.88 C 42.06 21.53 39.38 19.68 38.43 21.33 M 43.54 30.95 C 43.10 32.37 43.56 32.89 44.92 32.50 C 45.36 31.06 44.90 30.55 43.54 30.95 M 95.68 37.10 C 96.65 38.89 98.29 40.12 99.97 41.18 C 99.23 39.18 97.68 37.79 95.68 37.10 M 107.24 72.23 C 107.81 72.81 107.81 72.81 107.24 72.23 M 76.38 77.04 C 76.35 80.49 79.30 75.55 76.38 77.04 Z" />
</g>
</svg>
