<?xml version="1.0" encoding="UTF-8" ?>
<!DOCTYPE svg PUBLIC "-//W3C//DTD SVG 1.1//EN" "http://www.w3.org/Graphics/SVG/1.1/DTD/svg11.dtd">
<svg width="200pt" height="200pt" viewBox="0 0 200 200" version="1.1" xmlns="http://www.w3.org/2000/svg">
<g id="#000000ff">
<path fill="#000000" opacity="1.00" d=" M 30.67 53.85 C 30.61 51.91 32.23 51.92 33.67 52.33 C 39.17 55.44 44.64 58.61 49.97 62.02 C 63.99 70.68 78.47 78.59 92.03 87.98 C 96.77 90.65 100.65 94.85 105.99 96.34 C 109.24 94.89 111.88 92.41 114.99 90.69 C 110.41 85.66 113.81 78.41 116.59 73.32 C 122.56 72.78 127.50 76.80 131.19 81.03 C 136.64 77.96 142.42 75.30 147.21 71.23 C 148.12 68.42 148.35 65.39 149.82 62.77 C 151.78 64.37 153.60 66.12 155.33 67.97 C 158.61 66.23 160.67 61.18 165.03 63.13 C 168.82 60.90 172.82 58.78 177.21 58.04 C 176.03 62.86 170.09 63.43 166.58 66.01 C 166.16 68.23 166.46 70.48 166.98 72.66 C 168.46 71.53 169.40 69.91 170.36 68.35 C 170.54 68.59 170.91 69.07 171.10 69.30 C 171.37 66.50 173.46 64.94 176.14 64.61 C 176.60 68.82 176.23 73.08 176.93 77.26 C 177.72 73.37 179.29 69.70 181.31 66.29 C 182.61 66.18 183.92 66.10 185.24 66.05 C 186.76 72.47 186.78 79.19 185.77 85.69 C 185.55 86.91 185.12 89.30 183.42 87.85 C 180.21 85.20 175.91 85.60 172.03 85.19 C 164.45 84.37 156.74 84.05 149.15 84.94 C 145.12 87.00 141.13 89.26 137.69 92.23 C 143.44 93.63 149.46 93.27 155.15 94.91 C 159.42 96.00 163.59 97.46 167.65 99.18 C 170.81 100.45 174.12 101.93 177.60 101.59 C 183.84 100.74 188.56 105.74 193.86 108.10 C 196.83 109.24 198.80 111.84 199.22 114.99 C 198.34 119.75 197.06 124.43 196.02 129.15 C 194.24 136.74 189.54 143.17 184.72 149.12 C 184.34 148.40 183.99 147.68 183.67 146.95 C 184.87 142.03 188.69 138.35 190.62 133.75 C 185.51 136.82 181.54 142.52 175.16 142.79 C 176.70 137.97 181.89 136.48 185.27 133.27 C 189.12 130.20 191.53 125.80 193.65 121.44 C 192.62 122.46 191.67 123.57 190.76 124.70 C 189.71 124.54 188.66 124.39 187.61 124.25 C 187.60 125.36 187.59 126.47 187.58 127.58 C 186.44 128.09 185.30 128.60 184.15 129.09 C 184.93 127.94 185.70 126.80 186.46 125.64 C 184.64 125.29 182.78 125.16 181.36 126.57 C 177.82 129.64 172.57 124.48 169.47 128.46 C 166.45 131.26 163.22 133.82 159.75 136.03 C 163.48 138.68 166.64 142.02 170.41 144.61 C 175.11 148.61 180.32 152.17 183.95 157.25 C 179.83 159.18 177.24 154.31 173.82 152.86 C 176.61 155.88 179.64 158.65 182.44 161.66 C 186.07 164.78 190.00 167.91 192.14 172.32 C 191.42 172.25 189.97 172.10 189.24 172.03 C 183.50 167.76 177.96 163.18 173.00 158.01 C 171.46 156.44 169.64 155.20 167.91 153.86 C 168.49 153.29 169.08 152.72 169.67 152.15 C 163.37 151.97 159.93 145.80 155.16 142.55 C 152.04 143.42 148.97 144.51 145.74 144.91 C 144.97 142.26 146.35 140.17 148.62 138.94 C 144.05 140.55 139.29 141.49 134.64 142.83 C 132.86 143.39 130.96 143.44 129.12 143.14 C 122.62 141.96 115.98 142.37 109.41 142.28 C 108.84 143.47 108.41 144.73 107.95 145.96 C 107.06 145.72 106.17 145.49 105.29 145.26 C 105.60 146.12 105.91 146.98 106.23 147.84 C 103.40 150.10 100.61 152.59 97.06 153.65 C 95.92 151.23 94.32 149.10 92.87 146.86 C 90.21 145.86 88.18 143.86 86.06 142.05 C 87.59 141.24 89.10 140.39 90.58 139.49 C 88.49 138.50 86.46 137.12 84.11 136.90 C 78.17 141.23 72.01 145.34 65.18 148.16 C 61.39 145.15 56.29 144.60 52.80 141.12 C 50.30 143.18 48.02 145.49 45.89 147.94 C 45.47 147.63 44.62 147.00 44.20 146.69 C 44.26 147.04 44.38 147.76 44.45 148.12 C 45.55 148.02 46.69 147.69 47.76 148.16 C 47.72 148.39 47.63 148.86 47.59 149.09 C 43.60 151.19 39.86 153.69 36.02 156.04 C 35.89 155.49 35.63 154.41 35.50 153.87 C 33.98 154.33 30.61 155.02 31.39 152.35 C 36.67 146.09 44.01 142.04 49.85 136.37 C 48.61 134.64 47.14 132.97 46.44 130.92 C 46.45 129.23 47.15 127.67 47.71 126.11 C 42.46 124.11 36.61 123.81 31.51 126.48 C 24.58 128.47 19.67 133.95 13.86 137.87 C 12.33 138.92 10.34 138.48 8.61 138.69 C 11.67 134.22 17.33 132.70 21.42 129.34 C 20.78 128.26 20.10 127.21 19.37 126.20 C 19.41 126.84 19.50 128.12 19.55 128.75 C 15.28 130.70 11.33 133.27 7.91 136.48 C 7.43 136.03 6.47 135.11 5.99 134.65 C 6.43 132.98 8.17 132.21 9.29 131.05 C 7.75 131.66 6.21 132.27 4.63 132.77 C 3.90 131.00 3.47 129.13 3.38 127.21 C 7.42 125.71 11.41 124.12 15.35 122.39 C 10.83 123.82 6.22 125.04 1.44 124.76 C 1.60 122.78 1.75 120.80 1.90 118.82 C 3.25 118.29 4.59 117.76 5.92 117.20 C 4.44 116.59 2.94 116.02 1.45 115.45 C 0.97 114.16 0.48 112.89 0.00 111.60 L 0.00 110.67 C 0.58 109.76 1.15 108.84 1.71 107.92 C 2.32 107.75 3.56 107.41 4.17 107.24 C 3.04 105.90 1.69 104.76 0.32 103.68 C 1.13 102.45 1.95 101.23 2.79 100.02 C 1.83 99.78 0.88 99.50 0.00 99.03 L 0.00 97.60 C 7.72 98.67 15.61 98.73 23.12 101.01 C 25.49 101.89 28.01 101.76 30.46 101.41 C 32.78 100.93 34.80 102.67 37.10 102.56 C 39.42 102.46 41.85 102.00 43.98 103.22 C 44.62 102.09 45.26 100.96 45.87 99.83 C 46.95 99.47 48.03 99.11 49.11 98.74 C 45.94 98.60 42.72 98.23 39.81 96.87 C 38.11 94.10 42.04 92.38 44.31 92.23 C 51.13 92.21 57.98 91.88 64.78 92.49 C 68.39 92.55 70.28 96.86 73.98 96.40 C 80.14 96.32 86.30 96.45 92.44 96.99 C 86.13 90.58 77.75 86.80 70.58 81.47 C 63.48 78.19 56.38 74.64 50.06 69.95 C 43.78 66.09 35.86 63.68 31.65 57.25 C 35.09 59.14 38.28 61.42 41.68 63.36 C 41.52 62.33 41.89 60.94 40.73 60.37 C 37.30 58.32 33.73 56.45 30.67 53.85 M 42.29 64.14 C 42.05 65.27 43.72 66.87 44.80 66.25 C 45.15 65.03 43.41 63.47 42.29 64.14 M 178.86 78.15 C 176.93 78.64 174.94 78.85 172.97 79.10 C 172.81 77.37 172.68 75.65 172.56 73.93 C 171.45 75.02 170.36 76.13 169.27 77.24 C 166.19 76.78 163.28 77.64 160.67 79.25 C 159.18 80.61 157.59 78.49 157.01 77.27 C 158.79 75.23 161.50 74.79 163.90 73.89 C 163.40 73.70 162.40 73.32 161.90 73.14 C 158.48 74.98 154.53 76.19 151.64 78.84 C 153.14 78.20 154.51 77.14 156.18 77.02 C 156.87 79.20 158.80 80.50 161.07 80.49 C 168.16 80.43 175.16 81.79 182.25 81.80 C 182.21 78.48 182.36 75.16 182.49 71.85 C 181.28 73.95 180.29 76.18 178.86 78.15 M 141.25 83.21 C 141.81 83.85 141.81 83.85 141.25 83.21 M 72.83 101.07 C 73.49 101.84 74.16 102.61 74.85 103.36 C 74.74 104.06 74.63 104.76 74.52 105.47 C 76.80 103.65 79.87 104.55 82.54 104.19 C 82.61 104.72 82.73 105.79 82.80 106.32 C 84.73 106.21 86.64 106.43 88.28 107.55 C 86.05 106.31 84.48 104.32 82.92 102.37 C 81.90 102.87 80.92 103.45 79.92 104.00 C 77.61 102.89 75.26 101.86 72.83 101.07 M 70.12 103.19 C 69.48 104.58 69.90 105.02 71.37 104.49 C 71.97 103.08 71.55 102.65 70.12 103.19 M 23.26 105.20 C 23.83 105.84 23.83 105.84 23.26 105.20 M 14.45 106.50 C 15.17 107.83 17.68 109.21 19.15 108.12 C 19.01 105.99 15.92 106.86 14.45 106.50 M 20.12 106.33 C 20.80 107.01 20.80 107.01 20.12 106.33 M 41.97 106.26 C 43.38 107.79 45.16 109.45 47.17 107.77 C 45.44 107.24 43.70 106.75 41.97 106.26 M 52.78 110.00 C 53.89 109.15 54.97 108.26 56.06 107.40 C 56.08 109.07 56.88 110.05 58.47 110.34 C 57.59 108.65 56.20 107.34 54.92 105.95 C 54.23 107.31 53.47 108.64 52.78 110.00 M 5.21 106.91 C 5.23 110.29 8.21 105.44 5.21 106.91 M 31.28 108.21 C 31.57 109.55 31.86 110.88 32.20 112.21 C 32.88 111.05 33.43 109.82 33.88 108.56 C 35.20 108.43 36.51 108.33 37.83 108.24 L 37.64 107.07 C 35.49 107.30 33.35 107.62 31.28 108.21 M 172.17 111.56 C 170.83 111.57 169.49 111.53 168.16 111.43 C 167.42 112.27 166.74 113.16 166.15 114.11 C 167.29 114.76 168.41 115.44 169.54 116.12 C 169.20 115.07 168.87 114.02 168.54 112.96 C 169.64 113.16 170.74 113.37 171.85 113.59 C 170.90 117.39 173.96 120.80 176.57 123.15 C 176.17 123.89 175.78 124.64 175.39 125.39 C 175.55 125.42 175.87 125.48 176.03 125.51 C 176.93 122.99 180.29 123.72 182.09 122.03 C 182.52 122.61 182.96 123.19 183.40 123.78 C 184.04 121.53 186.24 120.85 188.10 119.86 C 186.96 119.30 185.81 118.75 184.67 118.21 C 184.60 117.66 184.48 116.54 184.42 115.99 C 185.96 116.75 187.18 117.93 187.98 119.47 C 189.61 119.20 191.31 118.14 192.91 119.10 C 192.86 119.61 192.75 120.62 192.70 121.13 C 193.33 120.57 193.97 120.02 194.62 119.48 C 193.66 118.52 192.63 117.64 191.62 116.75 C 192.96 116.06 194.28 115.34 195.58 114.58 C 193.04 110.93 189.25 107.81 184.73 107.06 C 184.61 107.66 184.36 108.84 184.23 109.43 C 180.87 109.36 177.04 109.85 174.60 107.02 C 172.57 107.77 172.07 109.52 172.17 111.56 M 28.25 108.43 C 27.80 110.05 28.37 110.60 29.98 110.08 C 30.43 108.45 29.85 107.90 28.25 108.43 M 16.35 110.72 C 17.27 112.29 18.04 113.94 18.83 115.58 C 19.63 115.51 21.22 115.35 22.01 115.28 C 20.28 116.29 17.78 116.75 17.86 119.27 C 19.93 119.15 22.36 119.95 24.08 118.41 C 22.33 120.00 22.48 122.41 22.11 124.55 C 22.79 124.53 24.16 124.49 24.85 124.47 C 23.82 125.78 22.71 127.03 21.84 128.47 C 24.43 127.65 24.95 124.35 27.64 123.61 C 32.62 121.99 37.81 119.36 43.17 120.81 C 50.22 122.40 56.91 125.50 64.02 126.85 C 65.79 126.22 67.15 124.80 68.75 123.84 C 68.66 123.43 68.47 122.61 68.37 122.20 C 68.95 122.19 70.09 122.16 70.66 122.15 C 71.68 120.96 72.72 119.70 74.23 119.11 C 78.35 117.27 82.01 114.47 84.97 111.07 C 81.49 111.19 78.52 113.80 74.99 113.04 C 71.52 112.41 68.19 113.79 64.83 114.40 C 63.94 114.55 63.27 114.19 62.81 113.35 C 61.40 113.56 59.99 113.74 58.57 113.89 C 58.55 115.82 59.22 117.64 59.61 119.50 C 58.38 117.49 56.09 117.41 53.99 117.07 C 54.74 115.98 58.73 115.65 57.13 114.01 C 54.84 113.35 52.62 112.48 50.44 111.53 C 50.78 113.50 51.30 115.44 51.75 117.39 C 50.30 116.38 48.35 115.66 48.10 113.67 C 45.48 113.72 42.85 113.47 40.35 112.65 C 39.79 111.53 39.23 110.40 38.46 109.42 C 38.71 111.04 39.13 112.64 39.40 114.27 C 38.19 112.99 37.13 111.57 35.91 110.29 C 34.10 111.61 32.86 114.36 30.19 113.45 C 30.31 114.46 30.54 116.48 30.65 117.49 C 28.06 116.28 29.12 112.97 28.11 110.76 C 27.41 111.44 26.72 112.13 26.04 112.83 C 24.08 111.56 22.21 109.97 19.92 109.37 C 18.72 109.79 17.53 110.24 16.35 110.72 M 47.53 110.17 C 46.68 111.32 48.69 112.72 49.52 111.57 C 50.46 110.37 48.38 109.06 47.53 110.17 M 156.63 111.81 C 158.23 111.73 161.16 109.90 160.44 112.90 C 158.32 114.25 155.92 115.13 153.93 116.69 C 154.53 115.61 155.11 114.52 155.65 113.41 C 153.93 113.33 152.91 114.10 152.57 115.72 C 152.17 115.29 151.36 114.42 150.96 113.99 C 149.61 115.32 148.28 116.66 146.95 118.01 C 146.45 117.61 145.44 116.81 144.94 116.41 C 142.76 117.41 140.40 117.75 138.02 117.51 C 138.68 116.90 139.99 115.69 140.64 115.08 C 140.18 113.79 138.62 113.61 137.55 113.07 C 136.75 114.78 135.51 117.38 136.89 119.00 C 138.90 119.37 140.90 119.70 142.82 120.45 C 145.88 119.38 151.05 117.52 152.35 121.74 C 150.98 121.25 149.63 120.70 148.29 120.15 C 148.19 120.58 148.01 121.46 147.91 121.90 C 147.41 121.51 146.39 120.73 145.88 120.33 C 144.97 121.33 142.92 121.84 143.35 123.53 C 148.06 126.03 151.72 130.06 156.79 131.98 C 156.34 131.54 155.45 130.64 155.01 130.20 C 156.31 128.76 157.81 127.55 159.83 127.43 C 160.45 128.40 161.08 129.37 161.72 130.34 C 164.21 128.15 166.67 125.89 168.65 123.20 C 167.61 122.26 166.54 121.37 165.59 120.36 C 165.10 118.65 165.34 116.84 165.19 115.10 C 163.95 115.33 162.71 115.55 161.47 115.76 C 161.51 113.85 161.55 111.94 161.60 110.03 C 159.88 110.40 158.08 110.73 156.63 111.81 M 3.35 111.23 C 3.51 112.82 7.24 112.34 7.62 111.11 C 6.39 110.41 4.54 110.43 3.35 111.23 M 63.35 111.30 C 62.86 112.43 64.62 114.06 65.63 113.13 C 66.21 111.94 64.37 110.53 63.35 111.30 M 106.56 112.23 C 108.07 113.81 109.90 115.08 112.03 115.64 C 111.42 114.13 110.68 112.66 110.20 111.09 C 108.99 111.47 107.77 111.84 106.56 112.23 M 140.13 111.33 C 138.59 114.26 143.57 111.37 140.13 111.33 M 145.63 115.12 C 147.25 114.00 150.12 113.60 150.04 111.15 C 147.46 110.48 146.68 113.42 145.63 115.12 M 114.37 113.01 C 113.58 114.21 115.53 115.45 116.50 114.69 C 117.13 113.59 115.33 111.95 114.37 113.01 M 101.47 118.20 C 100.67 117.51 99.89 116.80 99.10 116.09 C 94.25 118.04 89.61 120.70 85.67 124.11 C 85.60 124.75 85.47 126.02 85.40 126.66 C 86.23 126.62 87.88 126.56 88.71 126.52 C 88.64 126.79 88.49 127.31 88.42 127.58 C 86.38 127.50 83.70 127.38 84.68 124.54 C 81.10 126.76 77.31 128.66 74.03 131.33 C 79.55 133.03 85.49 133.29 90.72 136.03 C 90.72 134.82 90.71 133.62 90.72 132.41 C 93.38 133.87 96.60 133.16 99.15 134.91 C 99.47 134.78 100.10 134.53 100.42 134.40 C 100.48 134.97 100.62 136.09 100.68 136.66 C 101.79 136.35 102.89 135.99 103.97 135.60 C 109.49 138.18 116.08 138.58 121.98 137.36 C 122.27 137.59 122.84 138.05 123.13 138.28 C 125.27 137.12 127.73 137.30 130.07 137.52 C 130.49 137.02 131.33 136.00 131.75 135.50 C 132.99 136.03 134.27 136.49 135.53 136.98 C 134.00 137.52 132.44 138.00 130.90 138.53 C 133.21 141.26 136.28 137.76 136.61 135.25 C 137.46 135.29 138.31 135.33 139.17 135.37 C 138.36 136.34 137.60 137.33 136.87 138.35 C 138.94 137.19 140.65 135.50 142.53 134.06 C 142.94 134.55 143.75 135.51 144.16 136.00 C 143.91 132.16 139.85 130.81 137.48 128.42 C 135.88 126.57 132.26 126.78 132.05 123.89 C 133.43 123.80 134.81 123.73 136.19 123.67 C 134.19 122.06 132.09 120.59 129.83 119.37 C 130.28 120.70 130.73 122.03 131.18 123.37 C 127.56 121.49 124.55 118.57 120.73 117.06 C 121.28 118.28 122.16 119.30 122.99 120.34 C 121.75 120.30 120.52 120.27 119.28 120.23 C 119.35 119.72 119.49 118.70 119.55 118.19 C 118.26 117.79 116.98 117.38 115.68 117.02 C 116.33 118.05 117.06 119.03 117.81 120.00 C 117.49 120.20 116.84 120.59 116.52 120.79 C 115.68 119.57 114.82 118.35 113.95 117.14 C 111.86 118.79 113.78 120.50 114.88 122.01 C 113.38 121.51 111.88 121.01 110.38 120.54 C 110.45 118.37 110.13 116.26 108.79 114.48 C 108.58 115.12 108.16 116.39 107.95 117.03 C 107.08 116.70 106.21 116.37 105.34 116.06 C 105.06 116.56 104.51 117.56 104.23 118.07 C 104.25 116.56 104.25 115.06 104.24 113.56 C 102.50 114.53 102.05 116.46 101.47 118.20 M 126.15 116.52 C 125.60 118.09 126.17 118.61 127.86 118.07 C 128.37 116.50 127.79 115.98 126.15 116.52 M 169.46 118.12 C 168.68 119.36 170.59 121.19 171.71 120.12 C 172.34 118.96 170.52 116.84 169.46 118.12 M 19.28 120.14 C 19.92 120.78 19.92 120.78 19.28 120.14 M 50.13 127.06 C 49.09 128.47 48.81 130.30 49.81 131.82 C 51.82 131.00 54.01 126.24 50.13 127.06 M 138.59 126.60 C 139.97 128.67 141.80 130.55 144.24 131.29 C 143.03 129.09 140.80 127.64 138.59 126.60 M 53.37 128.21 C 54.29 130.50 53.04 132.61 51.11 133.91 C 54.51 135.90 56.59 131.09 59.05 129.48 C 57.14 129.12 55.23 128.76 53.37 128.21 M 145.26 131.97 C 145.38 135.39 148.25 130.45 145.26 131.97 M 70.07 134.01 C 66.58 137.54 62.80 140.73 58.70 143.51 C 63.47 143.36 67.07 140.01 71.02 137.77 C 71.57 138.73 72.13 139.69 72.67 140.66 C 74.66 139.35 76.80 138.22 78.38 136.40 C 75.53 135.88 72.72 135.19 70.07 134.01 M 93.67 143.66 C 95.21 142.57 97.53 142.07 97.97 139.98 C 96.09 140.61 94.76 142.07 93.67 143.66 M 65.45 143.06 C 65.22 146.49 68.44 141.69 65.45 143.06 Z" />
<path fill="#000000" opacity="1.00" d=" M 185.53 108.39 C 186.40 108.44 188.14 108.55 189.01 108.60 C 189.17 109.53 189.48 111.38 189.64 112.31 C 188.39 112.61 187.14 112.89 185.89 113.16 C 185.53 111.60 185.40 109.99 185.53 108.39 Z" />
<path fill="#000000" opacity="1.00" d=" M 59.83 115.29 C 61.21 115.55 62.57 115.85 63.94 116.17 C 63.64 116.66 63.05 117.64 62.76 118.12 C 61.26 117.83 60.42 116.59 59.83 115.29 Z" />
<path fill="#000000" opacity="1.00" d=" M 172.97 115.57 C 174.18 115.41 176.27 115.59 176.74 116.92 C 176.03 119.15 172.11 117.45 172.97 115.57 Z" />
<path fill="#000000" opacity="1.00" d=" M 33.24 117.28 C 33.87 117.90 33.87 117.90 33.24 117.28 Z" />
<path fill="#000000" opacity="1.00" d=" M 32.24 119.13 C 32.86 119.76 32.86 119.76 32.24 119.13 Z" />
<path fill="#000000" opacity="1.00" d=" M 59.61 119.50 C 62.16 119.42 64.78 119.03 67.23 119.95 C 65.04 120.49 62.74 120.74 60.49 120.40 C 60.27 120.18 59.83 119.73 59.61 119.50 Z" />
<path fill="#000000" opacity="1.00" d=" M 108.22 119.22 C 108.86 119.80 108.86 119.80 108.22 119.22 Z" />
<path fill="#000000" opacity="1.00" d=" M 175.36 119.46 C 176.43 117.86 179.91 118.55 179.68 120.58 C 178.16 120.45 176.55 120.31 175.04 120.50 C 175.12 120.24 175.28 119.72 175.36 119.46 Z" />
<path fill="#000000" opacity="1.00" d=" M 88.13 123.21 C 88.65 121.86 90.81 122.00 91.87 122.48 C 92.56 124.70 88.32 125.31 88.13 123.21 Z" />
<path fill="#000000" opacity="1.00" d=" M 93.73 125.94 C 94.75 124.59 95.61 123.09 96.85 121.93 C 97.99 122.21 98.51 125.29 99.66 123.88 C 99.79 123.41 100.05 122.47 100.18 122.01 C 100.92 122.54 101.65 123.07 102.40 123.59 C 102.62 124.74 102.85 125.88 103.11 127.03 C 101.09 126.17 99.05 125.34 97.02 124.51 C 97.17 125.11 97.46 126.30 97.61 126.90 C 96.32 126.56 95.03 126.25 93.73 125.94 Z" />
<path fill="#000000" opacity="1.00" d=" M 105.02 124.62 C 107.88 124.61 110.73 124.78 113.58 124.65 C 114.68 125.52 115.88 126.23 117.08 126.95 C 118.61 126.55 120.15 126.18 121.69 125.84 C 121.28 128.74 118.06 128.20 116.10 129.42 C 111.92 128.31 107.54 128.60 103.26 128.70 C 103.97 127.40 104.54 126.02 105.02 124.62 M 109.12 125.19 C 109.78 125.86 109.78 125.86 109.12 125.19 M 107.31 126.29 C 105.63 129.34 110.72 126.37 107.31 126.29 Z" />
<path fill="#000000" opacity="1.00" d=" M 122.11 125.04 C 124.87 125.96 127.70 125.81 130.52 125.33 C 130.78 125.71 131.29 126.47 131.55 126.85 C 130.26 126.51 128.97 126.17 127.68 125.83 C 128.16 126.82 128.64 127.81 129.11 128.81 C 128.62 128.41 127.62 127.62 127.13 127.23 C 125.61 127.83 124.11 128.48 122.61 129.13 C 122.51 127.76 122.33 126.39 122.11 125.04 Z" />
<path fill="#000000" opacity="1.00" d=" M 52.52 142.72 C 52.86 142.84 53.54 143.09 53.89 143.21 C 53.93 143.50 54.01 144.09 54.05 144.39 C 52.52 145.36 51.16 147.93 49.09 146.91 C 47.91 144.69 51.36 144.01 52.52 142.72 Z" />
</g>
</svg>
