<?xml version="1.0" encoding="UTF-8" ?>
<!DOCTYPE svg PUBLIC "-//W3C//DTD SVG 1.1//EN" "http://www.w3.org/Graphics/SVG/1.1/DTD/svg11.dtd">
<svg width="128pt" height="128pt" viewBox="0 0 128 128" version="1.1" xmlns="http://www.w3.org/2000/svg">
<g id="#000000ff">
<path fill="#000000" opacity="1.00" d=" M 100.97 11.77 C 102.01 10.86 103.06 9.95 104.11 9.05 C 107.17 11.96 110.25 15.51 110.64 19.90 C 112.47 17.45 115.22 16.86 118.13 17.33 C 118.38 18.20 118.65 19.07 118.92 19.94 C 112.30 21.26 109.10 27.56 106.14 32.91 C 109.84 35.89 113.03 39.44 116.97 42.13 C 118.93 43.75 117.01 46.02 116.42 47.82 C 112.35 48.01 108.53 46.31 104.48 46.25 C 101.98 54.71 95.20 60.81 91.13 68.46 C 92.70 69.44 94.31 70.36 95.92 71.29 C 91.18 73.71 86.50 76.29 81.89 78.91 C 79.18 83.24 81.83 88.31 81.63 93.00 C 82.80 100.03 81.89 107.24 83.68 114.19 C 82.59 114.29 80.41 114.48 79.32 114.58 C 78.31 109.42 79.17 103.30 74.80 99.47 C 74.52 103.31 74.78 107.18 74.11 110.99 C 75.68 112.47 77.27 113.93 78.84 115.41 C 76.61 115.47 74.06 116.21 72.01 115.06 C 70.30 112.36 69.68 109.04 69.06 105.93 C 69.58 103.65 71.03 101.56 70.73 99.13 C 69.65 91.36 71.31 83.56 70.48 75.76 C 67.77 75.34 65.10 74.44 62.32 74.63 C 57.33 74.95 52.55 73.21 47.69 72.40 C 45.35 76.95 41.83 80.68 38.63 84.62 C 36.15 89.00 37.72 94.27 37.39 99.04 C 37.06 103.36 37.70 107.68 39.39 111.67 C 36.84 111.31 33.45 112.36 31.64 110.06 C 31.47 103.76 31.36 97.47 31.72 91.18 C 30.40 92.23 29.05 93.27 27.68 94.27 C 27.54 98.52 26.57 102.70 26.56 106.96 C 27.68 109.50 30.08 111.28 31.61 113.61 C 25.29 114.52 20.72 107.70 21.48 102.00 C 21.62 97.56 24.01 93.49 23.59 88.98 C 22.74 84.29 27.83 80.91 26.31 76.21 C 24.63 72.46 23.15 68.64 21.56 64.85 C 22.60 59.14 26.25 54.23 26.79 48.41 C 32.60 49.31 37.92 45.55 43.71 46.69 C 49.55 48.33 55.77 46.77 61.55 48.75 C 62.10 47.72 62.64 46.68 63.18 45.64 C 66.93 47.61 71.23 47.56 75.22 48.74 C 77.99 49.94 80.39 51.87 83.26 52.87 C 89.71 45.55 92.52 35.77 92.95 26.18 C 93.49 24.08 96.47 23.73 97.87 25.15 C 99.35 26.32 100.63 27.72 102.00 29.02 C 103.15 24.98 105.71 20.87 104.48 16.55 C 103.63 14.74 102.19 13.32 100.97 11.77 Z" />
<path fill="#000000" opacity="1.00" d=" M 18.96 47.99 C 21.84 45.88 25.19 44.09 28.79 43.67 C 30.80 43.18 31.94 45.04 33.29 46.14 C 29.44 47.72 24.03 47.84 22.21 52.30 C 20.64 56.64 20.12 61.29 19.03 65.77 C 14.43 60.86 16.18 53.37 18.96 47.99 Z" />
</g>
</svg>
