<?xml version="1.0" encoding="UTF-8" ?>
<!DOCTYPE svg PUBLIC "-//W3C//DTD SVG 1.1//EN" "http://www.w3.org/Graphics/SVG/1.1/DTD/svg11.dtd">
<svg width="200pt" height="200pt" viewBox="0 0 200 200" version="1.1" xmlns="http://www.w3.org/2000/svg">
<g id="#000000ff">
<path fill="#000000" opacity="1.00" d=" M 64.22 20.23 C 67.16 22.13 68.90 25.24 71.01 27.93 C 76.79 36.01 81.97 44.49 86.93 53.09 C 88.24 51.40 89.54 49.70 90.97 48.11 C 93.30 50.14 95.95 51.72 98.52 53.42 C 101.49 58.00 104.33 63.28 109.10 66.15 C 107.10 62.08 104.39 58.36 101.49 54.88 C 101.79 54.46 102.41 53.62 102.71 53.20 C 102.01 52.09 101.55 50.89 101.34 49.60 C 104.43 50.53 106.02 53.66 108.73 55.27 C 108.04 52.88 108.01 50.42 108.57 48.00 C 112.39 48.71 115.09 51.50 117.60 54.23 C 117.30 53.65 116.68 52.48 116.38 51.89 C 117.52 50.87 118.70 49.89 119.89 48.92 C 123.17 50.81 125.27 53.94 127.75 56.67 C 127.22 55.43 126.58 54.25 125.96 53.06 C 127.68 51.53 129.01 49.55 130.96 48.30 C 133.81 50.95 135.24 54.77 137.01 58.17 C 140.43 54.57 139.07 49.47 140.17 45.05 C 140.84 41.90 140.64 38.62 141.36 35.48 C 141.83 33.23 143.96 32.11 145.78 31.07 C 148.28 33.51 150.04 36.57 151.41 39.75 C 150.76 36.81 152.92 34.51 154.10 32.03 C 155.14 29.82 157.43 28.76 159.39 27.54 C 159.00 28.98 158.70 30.44 158.49 31.92 C 160.66 30.69 161.61 27.92 163.95 27.01 C 166.39 28.93 163.78 31.69 162.41 33.40 C 159.93 36.12 161.79 39.83 161.74 43.04 C 164.45 39.59 166.19 34.47 171.01 33.53 C 173.99 36.10 172.13 40.71 172.49 44.18 C 174.02 41.13 175.37 37.98 177.01 34.98 C 177.65 33.39 179.54 33.29 180.89 32.62 C 182.24 35.72 182.98 39.16 182.32 42.52 C 181.49 47.27 181.37 52.09 181.18 56.90 C 180.27 58.38 178.54 58.25 177.04 58.25 C 166.73 58.86 156.53 55.51 146.23 56.64 C 144.41 58.97 142.33 61.22 141.39 64.08 C 144.46 67.58 148.91 69.49 152.06 72.92 C 154.04 75.10 156.39 76.91 159.19 77.90 C 164.72 81.56 168.55 87.18 173.67 91.33 C 177.12 94.89 180.15 98.91 182.93 103.01 C 184.81 108.00 188.22 112.45 188.77 117.89 C 187.86 119.98 185.05 120.05 184.06 122.07 C 180.54 128.13 174.67 132.19 168.94 135.94 C 166.32 137.75 162.92 137.63 160.23 139.27 C 155.89 141.86 150.53 141.68 146.23 144.32 C 144.03 145.43 141.55 145.79 139.22 146.54 C 142.16 153.94 145.66 161.10 148.25 168.64 C 148.73 170.07 148.59 171.60 148.64 173.08 C 143.90 171.24 144.44 165.03 141.30 161.75 C 139.49 160.33 137.90 158.44 135.48 158.15 C 134.37 155.07 133.36 151.94 131.77 149.07 C 131.58 151.85 132.94 154.38 133.52 157.04 C 132.01 156.81 130.51 156.59 129.01 156.34 C 128.87 160.79 125.45 163.78 122.33 166.46 C 119.63 167.68 116.90 168.86 114.21 170.10 C 111.54 171.44 108.67 170.07 106.09 169.23 C 104.23 165.60 102.17 162.07 99.44 159.01 C 102.52 155.77 105.96 152.84 109.29 149.83 C 106.29 149.49 103.25 149.32 100.33 148.49 C 100.35 147.88 100.38 146.65 100.40 146.04 C 100.24 146.65 99.91 147.87 99.75 148.49 C 95.97 146.72 93.47 143.00 89.32 141.91 C 89.64 142.39 90.29 143.34 90.61 143.81 C 89.77 144.96 88.93 146.12 88.11 147.30 C 89.82 146.27 91.48 145.16 93.17 144.09 C 93.47 144.89 94.08 146.47 94.38 147.26 C 91.15 149.57 87.68 151.56 84.81 154.34 C 83.93 153.70 83.04 153.07 82.15 152.44 C 79.13 154.35 75.94 155.94 72.87 157.74 C 71.14 156.84 69.43 155.94 67.71 155.02 C 62.23 160.44 57.32 166.45 51.52 171.55 C 50.42 172.64 48.86 171.26 48.57 170.07 C 50.60 167.15 53.71 165.10 55.32 161.87 C 48.91 167.33 42.90 173.23 36.58 178.79 C 35.05 180.33 33.12 177.99 34.49 176.49 C 40.78 169.42 47.82 163.09 54.63 156.52 C 54.97 157.13 55.64 158.36 55.97 158.98 C 56.15 157.46 56.22 155.93 56.56 154.44 C 57.66 153.12 59.02 152.06 60.30 150.93 C 53.53 149.51 49.75 141.99 51.20 135.56 C 51.09 133.15 48.71 130.21 51.24 128.22 C 53.89 126.24 56.79 123.46 60.01 123.10 C 60.46 123.95 60.80 124.85 61.02 125.78 C 58.06 127.98 54.07 129.09 52.24 132.52 C 52.69 132.74 53.60 133.19 54.06 133.42 C 58.96 129.92 64.47 127.28 68.98 123.26 C 66.41 123.65 63.87 124.19 61.33 124.74 C 59.96 122.82 61.78 121.13 62.88 119.69 C 59.15 114.70 52.67 114.16 47.37 111.72 C 47.32 112.44 47.22 113.90 47.17 114.63 C 46.06 114.76 45.34 113.92 44.57 113.29 C 36.95 117.39 29.95 123.58 20.98 124.31 C 17.87 124.88 15.85 121.91 13.18 120.93 C 10.31 120.05 10.67 116.40 10.88 114.03 C 11.59 109.85 11.63 105.06 14.73 101.81 C 16.93 99.69 18.73 97.22 20.55 94.79 C 19.49 93.38 17.91 92.28 17.29 90.59 C 16.10 85.82 14.54 81.10 14.54 76.13 C 17.60 74.65 16.81 70.96 18.09 68.34 C 18.93 66.97 20.19 65.93 21.31 64.79 C 21.63 66.39 21.79 68.03 22.28 69.59 C 28.22 75.18 34.02 80.95 40.67 85.71 C 40.10 84.01 39.43 82.36 39.05 80.61 C 38.61 80.64 37.73 80.70 37.29 80.73 C 32.25 75.02 25.97 70.32 22.13 63.65 C 23.65 63.58 25.69 62.58 26.60 64.37 C 32.80 71.82 40.34 78.02 46.31 85.66 C 49.62 88.79 54.57 87.80 58.68 87.52 C 58.85 87.18 59.20 86.48 59.38 86.14 C 53.44 82.20 47.73 75.90 48.36 68.28 C 48.53 64.95 48.10 61.11 50.40 58.39 C 56.08 52.05 63.92 46.82 72.77 47.21 C 72.60 46.48 72.27 45.03 72.11 44.30 C 75.01 45.13 76.50 47.89 78.84 49.56 C 76.44 46.23 74.64 42.40 71.72 39.48 C 72.38 41.30 73.45 42.93 74.37 44.63 C 72.89 44.37 71.17 44.10 70.44 42.59 C 66.97 37.22 64.77 31.15 61.18 25.86 C 62.43 24.12 63.37 22.19 64.22 20.23 M 68.96 36.36 C 68.60 37.61 70.39 39.48 71.66 38.98 C 72.09 37.66 70.27 35.86 68.96 36.36 M 145.07 36.03 C 144.62 40.33 144.36 44.63 144.05 48.93 C 144.97 46.74 146.70 45.12 148.47 43.61 C 147.53 41.00 146.67 38.33 145.07 36.03 M 163.80 46.80 C 160.60 46.07 158.05 44.25 157.00 41.03 C 154.57 45.06 151.52 48.66 149.13 52.72 C 151.41 52.65 153.71 52.45 155.99 52.76 C 162.95 53.81 170.02 53.86 177.05 53.55 C 177.24 49.86 177.62 46.19 178.15 42.53 C 176.19 45.40 173.65 47.47 170.12 47.90 C 169.42 47.27 168.71 46.64 168.01 46.01 C 168.33 43.99 168.61 41.97 168.83 39.94 C 167.18 42.25 165.59 44.60 163.80 46.80 M 66.68 51.45 C 71.30 56.11 75.74 60.96 80.38 65.61 C 82.18 67.29 83.47 69.82 86.07 70.36 C 82.83 62.73 75.75 57.67 71.94 50.36 C 70.18 50.71 68.43 51.06 66.68 51.45 M 60.87 53.21 C 62.16 55.49 64.48 56.89 66.31 58.69 C 69.94 61.80 73.30 65.19 76.86 68.38 C 77.11 68.57 77.61 68.97 77.86 69.16 C 78.45 70.18 79.01 71.22 79.54 72.27 C 78.94 72.29 77.73 72.33 77.13 72.35 C 71.03 68.92 66.49 63.42 61.35 58.78 C 61.50 58.51 61.81 57.96 61.96 57.69 C 60.69 57.23 59.47 56.66 58.20 56.20 C 56.36 57.00 55.08 58.65 53.64 59.98 C 62.09 62.43 68.48 68.66 75.83 73.15 C 77.84 74.47 79.72 71.88 81.50 71.13 C 75.08 66.38 69.93 60.28 64.46 54.51 C 63.66 53.29 62.14 53.43 60.87 53.21 M 90.59 55.88 C 93.32 59.61 96.65 62.85 99.79 66.24 C 100.62 67.22 101.90 67.51 103.06 67.92 C 102.84 65.61 101.15 63.92 99.82 62.17 C 96.95 58.97 94.76 55.23 91.65 52.23 C 91.10 53.40 90.75 54.61 90.59 55.88 M 108.80 57.70 C 110.97 60.45 112.54 64.24 116.06 65.49 C 114.59 61.91 112.21 58.84 110.34 55.49 C 109.03 54.82 107.81 56.73 108.80 57.70 M 116.99 57.29 C 117.07 60.18 119.27 62.26 120.93 64.39 C 121.77 64.35 123.45 64.27 124.29 64.23 C 122.31 61.53 121.06 57.09 116.99 57.29 M 127.11 60.91 C 127.39 61.47 127.95 62.59 128.23 63.15 C 129.43 63.12 130.63 63.09 131.84 63.07 C 131.23 61.76 130.63 60.46 130.03 59.14 C 129.07 59.74 128.10 60.34 127.11 60.91 M 53.48 62.84 C 50.01 67.05 52.24 72.39 54.45 76.59 C 58.07 76.38 61.69 76.07 65.23 75.19 C 61.56 74.48 57.92 73.60 54.36 72.48 C 51.81 70.84 55.19 68.95 57.00 69.62 C 61.33 70.60 65.49 72.26 69.76 73.52 C 69.60 73.13 69.30 72.37 69.14 71.99 C 65.75 71.63 63.50 68.85 60.79 67.11 C 58.41 65.61 55.96 64.19 53.48 62.84 M 112.98 71.98 C 112.80 71.53 112.43 70.61 112.25 70.15 C 110.14 70.45 108.01 70.63 105.97 71.24 C 105.43 70.37 104.88 69.50 104.32 68.64 C 104.71 69.37 105.50 70.82 105.90 71.54 C 103.83 72.02 101.77 72.50 99.70 72.95 C 100.13 73.96 100.56 74.96 101.01 75.96 C 103.19 73.75 106.40 73.62 108.95 72.07 C 109.24 72.78 109.82 74.19 110.11 74.90 C 110.78 73.59 111.47 72.30 112.18 71.01 C 112.60 72.90 112.62 74.82 112.52 76.73 C 113.98 74.67 115.96 73.14 118.09 71.83 C 118.90 73.39 119.74 74.93 120.72 76.39 C 120.58 75.08 120.40 73.78 120.20 72.48 C 122.60 72.55 125.00 72.60 127.40 72.53 C 127.62 71.93 128.07 70.73 128.29 70.13 C 127.07 70.41 125.86 70.70 124.65 71.01 C 124.15 70.09 123.66 69.18 123.17 68.26 C 119.83 69.97 115.38 68.53 112.98 71.98 M 127.27 68.32 C 127.40 71.68 130.24 66.74 127.27 68.32 M 140.53 74.28 C 139.48 73.34 138.44 72.39 137.37 71.49 C 134.69 74.11 131.64 76.39 129.80 79.74 C 124.70 85.97 120.05 92.57 114.90 98.76 C 119.83 105.30 122.47 113.22 126.89 120.06 C 130.04 121.87 133.52 122.83 137.04 123.61 C 135.15 126.02 134.29 129.10 132.00 131.22 C 133.47 131.61 134.93 132.06 136.37 132.57 C 135.35 133.38 134.33 134.19 133.31 135.00 C 134.24 136.13 135.15 137.26 136.06 138.39 C 137.32 137.85 138.57 137.22 139.95 137.00 C 141.73 137.57 141.74 139.68 142.38 141.13 C 140.96 140.39 139.61 139.55 138.31 138.64 C 138.56 140.33 138.59 142.03 138.50 143.73 C 140.11 142.98 141.78 142.36 143.48 141.87 C 143.52 141.11 143.57 140.35 143.62 139.59 C 148.96 138.14 155.71 138.63 159.25 133.68 C 157.88 133.52 156.51 133.38 155.14 133.27 C 154.36 132.05 153.54 130.86 152.71 129.68 C 153.43 129.05 154.16 128.43 154.89 127.82 C 154.21 127.23 152.83 126.07 152.14 125.49 C 155.42 125.56 156.64 128.78 159.07 130.30 C 164.48 131.85 168.46 127.14 172.05 123.95 C 172.96 124.32 173.87 124.69 174.78 125.06 C 174.38 124.55 173.58 123.54 173.17 123.03 C 176.46 120.08 180.06 117.44 184.05 115.52 C 182.52 111.65 181.38 107.51 178.84 104.15 C 176.42 100.56 171.72 99.31 169.67 95.38 C 167.99 92.01 164.86 89.74 161.45 88.32 C 161.27 86.84 161.09 85.35 160.83 83.89 C 160.75 84.83 160.58 86.71 160.50 87.65 C 157.61 85.78 155.02 83.47 153.40 80.39 C 150.74 78.78 146.76 78.96 145.55 75.52 C 144.18 75.46 142.83 75.37 141.47 75.25 C 142.05 73.69 142.67 72.15 143.12 70.55 C 142.01 71.61 141.21 72.92 140.53 74.28 M 19.83 71.98 C 19.66 73.54 19.48 75.10 19.27 76.66 C 20.04 76.53 20.81 76.41 21.58 76.29 C 24.08 79.77 27.57 82.37 30.48 85.50 C 33.16 87.52 35.76 91.03 39.52 90.13 C 36.59 86.78 32.54 84.76 29.37 81.67 C 25.74 78.89 23.17 75.05 19.83 71.98 M 103.98 74.85 C 103.73 75.41 103.21 76.54 102.95 77.11 C 104.43 77.83 105.90 78.59 107.34 79.38 C 106.48 79.40 104.75 79.44 103.88 79.46 C 104.46 80.94 105.08 82.41 105.77 83.84 C 107.59 83.24 109.48 83.25 111.24 84.06 C 109.74 84.69 108.25 85.35 106.77 86.05 C 108.10 86.71 109.45 87.33 110.79 87.96 C 110.16 89.48 110.29 91.07 110.85 92.60 C 115.89 87.66 119.70 81.60 124.28 76.24 C 122.47 76.42 120.68 76.67 118.89 76.98 C 118.05 76.05 117.19 75.13 116.31 74.25 C 116.41 74.91 116.60 76.25 116.70 76.91 C 114.45 77.46 112.37 78.66 110.06 78.92 C 107.70 78.15 105.98 76.22 103.98 74.85 M 107.60 75.08 C 106.70 76.24 108.54 78.38 109.59 76.94 C 110.53 75.74 108.67 73.73 107.60 75.08 M 77.91 77.42 C 77.52 78.78 78.04 79.26 79.46 78.87 C 79.84 77.50 79.32 77.02 77.91 77.42 M 18.37 78.75 C 18.28 80.59 18.27 82.76 20.10 83.81 C 23.58 86.08 26.94 88.51 30.35 90.87 C 28.36 88.46 25.98 86.43 23.76 84.24 C 21.90 82.46 20.85 79.82 18.37 78.75 M 56.82 79.45 C 58.66 81.25 60.67 82.86 62.79 84.32 C 65.28 82.48 68.11 81.19 70.97 80.00 C 66.30 79.12 61.54 79.09 56.82 79.45 M 90.22 79.22 C 90.80 79.83 90.80 79.83 90.22 79.22 M 74.08 80.48 C 72.54 83.41 77.41 80.63 74.08 80.48 M 66.68 98.00 C 67.58 99.76 68.42 101.55 69.11 103.41 C 70.86 103.36 72.60 103.54 74.31 103.93 C 74.39 103.28 74.55 101.98 74.63 101.33 C 73.93 101.46 72.54 101.71 71.85 101.84 C 74.25 100.33 76.47 98.55 78.78 96.89 C 78.78 100.34 76.47 103.91 72.95 104.63 C 70.82 104.84 70.89 107.33 70.04 108.81 C 68.24 106.20 66.68 103.45 65.06 100.74 C 64.32 100.75 62.85 100.79 62.12 100.81 C 60.66 99.49 62.26 97.97 62.71 96.58 C 60.53 98.46 57.55 99.48 56.02 102.04 C 57.57 101.32 58.83 100.13 60.15 99.07 C 60.43 99.77 60.99 101.18 61.27 101.88 C 61.49 103.71 58.27 102.88 58.32 104.66 C 58.04 106.98 60.28 108.73 60.96 110.84 C 57.61 111.75 56.28 108.66 55.74 105.99 C 55.90 107.44 54.84 109.56 56.59 110.33 C 57.96 111.48 59.72 111.21 61.36 111.02 C 61.67 112.22 62.00 113.42 62.44 114.58 C 62.48 112.01 61.38 109.70 59.99 107.61 C 58.73 106.00 60.26 104.20 61.26 102.95 C 63.93 108.49 66.02 114.38 69.67 119.40 C 73.60 121.44 77.79 122.98 81.52 125.39 C 83.25 126.38 84.62 124.20 85.94 123.41 C 85.72 124.73 85.53 126.05 85.36 127.38 C 88.86 124.38 92.61 121.13 94.86 117.15 C 91.74 117.66 90.26 121.24 87.98 123.17 C 87.80 122.66 87.45 121.63 87.27 121.12 C 89.80 119.05 91.60 115.77 95.09 115.29 C 94.60 115.13 93.62 114.80 93.13 114.64 C 97.10 110.67 100.00 105.85 103.70 101.66 C 100.94 97.27 99.25 92.03 95.16 88.62 C 92.70 90.69 89.50 91.30 86.59 92.45 C 87.39 91.17 88.16 89.86 89.15 88.71 C 91.34 87.98 93.57 87.33 95.90 87.31 C 94.80 85.78 93.81 84.17 92.85 82.54 C 83.66 86.87 75.12 92.40 66.68 98.00 M 19.84 88.56 C 21.63 90.63 23.89 92.21 25.95 93.99 C 23.53 97.19 21.33 100.56 18.77 103.66 C 23.79 101.41 28.92 99.35 33.61 96.46 C 35.50 94.94 37.61 93.74 39.87 92.88 C 39.18 94.71 38.48 96.55 38.30 98.52 C 39.11 99.17 39.93 99.82 40.75 100.47 C 40.30 99.35 39.85 98.22 39.40 97.11 C 39.91 95.61 40.32 94.09 40.75 92.57 C 38.01 92.00 35.77 94.44 33.00 93.71 C 27.89 94.21 24.77 88.60 19.84 88.56 M 51.19 93.35 C 51.32 95.72 51.65 98.07 52.06 100.41 C 53.33 98.08 52.53 95.45 51.19 93.35 M 52.96 100.58 C 52.54 101.97 53.03 102.46 54.43 102.04 C 54.84 100.65 54.35 100.16 52.96 100.58 M 16.77 115.34 C 16.45 114.76 15.83 113.60 15.51 113.02 C 18.07 109.32 22.72 107.96 26.09 105.15 C 22.32 105.44 19.20 107.75 15.62 108.71 C 15.47 111.55 15.37 114.38 15.04 117.21 C 23.24 112.44 32.35 109.49 40.66 104.97 C 39.77 103.98 38.89 102.98 37.88 102.11 C 31.22 107.11 23.53 110.49 16.77 115.34 M 109.60 104.91 C 110.29 106.97 110.75 109.15 111.98 110.99 C 114.09 114.30 115.20 118.10 117.08 121.52 C 118.02 121.47 118.96 121.43 119.91 121.40 C 117.38 117.88 116.21 113.64 114.09 109.89 C 113.05 108.07 112.05 106.22 111.40 104.21 C 110.95 104.39 110.05 104.74 109.60 104.91 M 49.71 105.32 C 48.89 106.22 49.26 108.11 50.42 108.56 C 52.40 108.37 51.72 104.39 49.71 105.32 M 103.25 105.69 C 102.02 106.09 101.76 108.81 103.54 107.69 C 104.99 107.43 104.98 104.58 103.25 105.69 M 24.34 116.43 C 22.03 117.49 19.42 118.10 17.62 120.02 C 26.28 121.72 33.57 115.52 40.69 111.61 C 40.85 110.94 41.18 109.60 41.35 108.93 C 35.81 111.73 30.01 113.92 24.34 116.43 M 96.16 115.86 C 98.85 114.31 100.34 111.09 101.69 108.37 C 99.17 110.14 96.91 112.86 96.16 115.86 M 90.64 129.47 C 92.48 130.26 94.29 131.11 96.08 132.02 C 96.31 130.98 96.62 129.97 97.01 128.98 C 101.46 124.29 108.31 123.75 114.28 122.50 C 111.81 118.10 110.15 113.31 107.44 109.05 C 101.60 115.66 96.47 122.85 90.64 129.47 M 66.20 117.24 C 66.84 117.88 66.84 117.88 66.20 117.24 M 69.68 123.52 C 72.49 127.76 76.82 130.61 81.13 133.14 C 80.19 131.79 79.19 130.47 78.30 129.09 C 74.92 128.00 73.10 124.47 69.68 123.52 M 68.77 127.40 C 68.74 129.80 66.83 131.19 65.30 132.76 C 64.56 131.71 63.79 130.68 63.00 129.67 C 63.24 131.26 65.39 133.02 63.89 134.52 C 63.47 134.36 62.63 134.02 62.21 133.85 C 61.94 133.23 61.40 131.98 61.13 131.36 C 58.67 133.44 54.89 134.01 53.33 136.96 C 55.91 136.15 58.38 135.00 60.92 134.05 C 61.53 134.66 62.15 135.27 62.78 135.89 C 65.49 133.37 68.46 130.51 72.37 130.30 C 72.58 131.67 72.81 133.04 73.04 134.41 C 69.84 139.02 65.23 142.24 61.06 145.86 C 60.11 145.45 59.16 145.03 58.21 144.63 C 59.96 143.03 61.81 141.50 63.13 139.51 C 59.91 140.59 56.17 141.03 54.01 143.97 C 56.56 145.69 59.56 147.73 62.64 147.68 C 67.44 142.57 73.75 138.64 76.82 132.13 C 75.63 132.71 74.43 133.28 73.23 133.85 C 73.35 133.00 73.61 131.32 73.74 130.48 C 72.97 130.37 71.41 130.17 70.63 130.06 C 70.55 129.38 70.39 128.02 70.31 127.34 C 69.92 127.36 69.15 127.39 68.77 127.40 M 100.29 131.65 C 103.31 133.08 106.55 134.48 109.97 134.26 C 113.56 134.14 116.88 135.66 120.31 136.48 C 120.14 135.75 119.80 134.30 119.64 133.57 C 117.13 133.69 114.63 133.81 112.12 133.91 C 111.32 130.25 116.26 130.97 117.93 128.71 C 113.25 128.06 108.59 130.01 103.94 128.74 C 102.48 128.99 99.54 129.62 100.29 131.65 M 89.14 132.25 C 89.80 132.91 89.80 132.91 89.14 132.25 M 84.61 134.90 C 89.53 139.58 96.52 140.47 102.75 142.36 C 105.26 143.16 107.89 143.47 110.52 143.51 C 110.56 144.23 110.65 145.68 110.69 146.40 C 113.44 146.50 116.16 146.11 118.85 145.60 C 118.51 144.63 118.16 143.66 117.80 142.70 C 119.17 142.27 120.52 141.79 121.92 141.47 C 122.69 142.34 123.43 143.24 124.16 144.16 C 123.67 142.50 123.16 140.85 122.69 139.18 C 120.52 139.26 118.32 139.49 116.18 138.99 C 110.95 137.93 105.36 137.97 100.55 135.44 C 98.41 134.00 95.68 134.75 93.52 133.29 C 93.43 133.93 93.26 135.21 93.17 135.85 C 90.44 134.99 87.45 133.77 84.61 134.90 M 53.92 138.32 C 52.93 139.23 54.19 141.20 55.42 140.74 C 56.20 139.86 55.17 137.74 53.92 138.32 M 82.36 138.97 C 79.05 144.30 74.16 148.34 70.49 153.35 C 75.59 150.22 79.28 145.14 83.31 140.76 C 83.67 140.85 84.40 141.03 84.76 141.12 C 85.13 141.57 85.88 142.49 86.25 142.95 C 84.09 146.89 80.14 149.35 77.76 153.05 C 81.67 149.68 85.15 145.74 88.17 141.54 C 86.20 140.75 84.26 139.91 82.36 138.97 M 108.25 145.09 C 108.92 145.77 108.92 145.77 108.25 145.09 M 122.37 148.22 C 121.34 148.42 119.77 150.60 121.58 150.84 C 123.50 151.30 125.12 147.30 122.37 148.22 M 103.54 159.40 C 104.98 161.87 107.16 164.03 110.23 163.94 C 109.63 161.86 107.20 161.95 105.56 161.15 C 108.92 156.28 114.32 153.39 117.99 148.80 C 112.30 150.86 108.40 155.94 103.54 159.40 M 55.96 160.20 C 54.46 163.16 59.36 160.18 55.96 160.20 M 108.77 168.04 C 112.69 166.62 116.22 164.29 120.22 163.06 C 121.78 162.84 121.53 161.32 121.63 160.15 C 117.61 163.22 112.37 164.49 108.77 168.04 Z" />
<path fill="#000000" opacity="1.00" d=" M 97.31 47.49 C 98.41 47.33 99.52 47.17 100.63 47.03 C 99.82 48.57 100.49 52.00 98.13 51.88 C 96.93 50.72 97.43 48.97 97.31 47.49 Z" />
<path fill="#000000" opacity="1.00" d=" M 120.34 70.03 C 121.37 68.55 124.30 70.12 123.58 71.75 C 122.46 72.56 119.41 71.85 120.34 70.03 Z" />
<path fill="#000000" opacity="1.00" d=" M 111.26 82.00 C 112.49 82.54 113.71 83.10 114.93 83.67 C 115.53 83.28 116.71 82.51 117.30 82.13 C 117.09 82.66 116.66 83.72 116.44 84.25 C 115.15 84.33 113.86 84.43 112.57 84.55 C 112.13 83.70 111.70 82.85 111.26 82.00 Z" />
<path fill="#000000" opacity="1.00" d=" M 143.30 83.17 C 144.09 81.77 146.81 82.81 145.38 84.28 C 144.58 85.61 141.77 84.61 143.30 83.17 Z" />
<path fill="#000000" opacity="1.00" d=" M 137.98 85.81 C 139.50 82.86 140.47 88.13 137.98 85.81 Z" />
<path fill="#000000" opacity="1.00" d=" M 137.04 88.87 C 137.32 87.84 137.63 86.82 137.98 85.81 C 138.16 88.47 139.91 90.27 141.85 91.87 C 142.96 91.14 144.09 90.45 145.24 89.79 C 145.51 88.56 145.81 87.33 146.10 86.11 C 146.15 86.77 146.24 88.09 146.28 88.75 C 147.05 88.69 148.59 88.57 149.35 88.52 C 145.86 90.08 142.83 92.42 140.27 95.25 C 137.95 96.22 135.58 97.06 133.20 97.88 C 133.35 96.79 133.51 95.70 133.68 94.61 C 134.53 94.67 136.23 94.77 137.08 94.83 C 136.25 93.94 135.43 93.06 134.62 92.16 C 134.54 92.78 134.38 94.02 134.29 94.64 C 133.16 94.36 132.03 94.09 130.90 93.82 C 129.25 95.59 126.94 96.33 124.69 96.98 C 124.69 95.93 124.69 94.87 124.68 93.81 C 127.55 93.48 129.92 91.39 130.71 88.63 C 132.82 88.43 134.96 88.36 137.04 88.87 M 133.42 89.10 C 132.48 89.46 130.48 90.19 131.26 91.55 C 132.91 93.20 136.78 88.60 133.42 89.10 Z" />
<path fill="#000000" opacity="1.00" d=" M 151.75 90.58 C 155.52 94.26 160.41 91.00 164.86 91.93 C 162.18 94.23 158.75 94.52 155.54 95.54 C 153.22 98.32 151.81 101.65 151.20 105.20 C 149.29 105.02 147.38 104.77 145.49 104.45 C 145.63 106.34 145.53 108.24 145.06 110.09 C 150.86 114.23 155.17 121.26 162.62 122.48 C 162.62 124.37 162.01 126.14 161.16 127.82 C 156.06 124.63 151.01 121.35 146.08 117.91 C 143.35 116.19 142.70 112.93 143.93 110.07 C 141.36 108.26 140.48 104.95 141.98 102.14 C 143.68 100.66 146.05 101.28 148.09 101.29 C 148.84 98.51 151.03 96.69 153.16 94.94 C 152.43 94.94 150.96 94.93 150.23 94.92 C 151.05 93.59 151.66 92.16 151.75 90.58 Z" />
<path fill="#000000" opacity="1.00" d=" M 79.68 95.62 C 81.74 94.28 83.89 93.05 86.15 92.08 C 85.74 93.30 85.36 94.57 84.51 95.58 C 82.94 96.02 81.28 95.60 79.68 95.62 Z" />
<path fill="#000000" opacity="1.00" d=" M 161.47 95.61 C 165.53 96.97 164.43 102.68 164.33 106.10 C 163.85 105.79 162.88 105.17 162.39 104.86 C 162.30 101.76 161.70 98.71 161.47 95.61 Z" />
<path fill="#000000" opacity="1.00" d=" M 83.39 105.21 C 85.94 104.22 84.34 107.93 82.69 107.66 C 81.13 107.39 82.41 105.37 83.39 105.21 Z" />
<path fill="#000000" opacity="1.00" d=" M 170.10 108.29 C 171.02 106.73 171.73 104.17 174.02 104.50 C 176.61 103.81 178.51 105.85 180.38 107.25 C 180.28 110.26 179.03 113.41 175.97 114.50 C 172.58 114.69 169.48 111.77 170.10 108.29 Z" />
<path fill="#000000" opacity="1.00" d=" M 159.80 107.92 C 161.58 107.61 163.36 107.32 165.15 107.14 C 165.84 111.83 163.64 116.32 164.44 121.02 C 163.38 120.82 162.31 120.65 161.23 120.50 C 160.31 116.89 161.67 113.30 161.86 109.66 C 161.17 109.08 160.48 108.50 159.80 107.92 Z" />
<path fill="#000000" opacity="1.00" d=" M 72.00 107.52 C 74.72 111.15 79.35 113.52 79.80 118.49 C 78.31 117.60 77.33 116.24 76.96 114.55 C 75.37 113.78 73.63 113.10 72.55 111.61 C 72.34 110.25 72.16 108.89 72.00 107.52 Z" />
<path fill="#000000" opacity="1.00" d=" M 152.36 134.46 C 153.23 134.04 155.24 134.45 154.68 135.77 C 153.53 136.74 151.75 136.33 150.35 136.51 C 150.10 135.50 151.66 134.92 152.36 134.46 Z" />
<path fill="#000000" opacity="1.00" d=" M 112.66 142.54 C 114.84 142.48 117.80 141.39 118.12 144.55 C 116.01 144.43 113.91 144.45 111.82 144.69 C 112.03 144.15 112.45 143.07 112.66 142.54 Z" />
<path fill="#000000" opacity="1.00" d=" M 130.02 157.10 C 131.00 157.22 132.97 157.45 133.95 157.57 C 134.22 161.97 138.86 167.02 135.01 170.84 C 132.59 166.55 131.87 161.62 130.02 157.10 Z" />
</g>
</svg>
