<?xml version="1.0" encoding="UTF-8" ?>
<!DOCTYPE svg PUBLIC "-//W3C//DTD SVG 1.1//EN" "http://www.w3.org/Graphics/SVG/1.1/DTD/svg11.dtd">
<svg width="180pt" height="180pt" viewBox="0 0 180 180" version="1.1" xmlns="http://www.w3.org/2000/svg">
<g id="#000000ff">
<path fill="#000000" opacity="1.00" d=" M 78.67 5.89 C 79.04 4.87 79.44 3.86 79.87 2.86 C 83.72 7.07 87.89 10.97 92.11 14.81 C 94.55 11.38 96.18 7.47 98.28 3.84 C 99.61 2.23 100.94 4.27 101.38 5.47 C 102.55 8.10 104.04 10.58 105.70 12.92 C 107.55 9.57 108.91 5.73 112.12 3.40 C 113.66 6.54 115.42 9.58 117.78 12.18 C 120.26 9.06 122.16 5.28 125.25 2.76 C 127.40 1.35 127.58 4.66 127.43 5.98 C 127.71 13.85 128.25 21.86 126.63 29.62 C 120.18 32.83 112.92 31.47 106.00 31.66 C 98.46 31.57 90.91 31.78 83.38 31.43 C 81.63 22.95 79.91 14.46 78.67 5.89 M 83.04 11.25 C 84.71 16.86 86.20 22.57 86.36 28.46 C 88.37 27.38 90.61 26.62 92.91 26.64 C 100.61 26.93 108.34 26.16 116.02 27.05 C 118.31 27.31 120.62 27.35 122.92 27.24 C 123.58 22.24 123.22 17.19 123.33 12.16 C 121.26 14.43 119.39 16.91 117.04 18.91 C 116.72 18.83 116.06 18.69 115.73 18.62 C 114.57 15.99 113.33 13.39 111.99 10.84 C 110.08 13.68 108.55 16.74 106.75 19.65 C 102.95 18.36 101.31 14.53 98.80 11.76 C 97.51 14.40 96.14 16.99 94.60 19.49 C 93.47 19.57 92.35 19.66 91.23 19.77 C 88.65 16.79 85.88 13.98 83.04 11.25 Z" />
<path fill="#000000" opacity="1.00" d=" M 89.95 42.50 C 95.35 41.72 100.75 39.78 106.25 40.68 C 104.18 42.27 102.29 44.47 99.53 44.73 C 95.00 45.68 90.62 47.16 86.38 48.99 C 86.43 49.72 86.49 50.44 86.55 51.17 C 84.93 51.66 83.35 52.33 81.66 52.58 C 81.82 54.06 81.50 55.52 80.99 56.91 C 79.79 55.92 78.55 54.96 77.29 54.06 C 77.42 57.46 80.60 59.10 81.79 62.05 C 79.95 65.29 76.45 65.77 73.05 66.04 C 73.27 67.12 73.53 68.20 73.80 69.27 C 72.11 70.58 71.42 72.57 70.80 74.54 C 70.35 72.80 70.54 71.02 70.75 69.26 C 69.47 68.55 68.19 67.82 66.90 67.13 C 66.72 68.15 66.53 69.17 66.35 70.20 C 65.14 69.56 63.93 68.93 62.72 68.29 C 61.94 70.38 61.49 72.58 61.54 74.82 C 62.27 74.69 63.72 74.45 64.44 74.32 C 63.63 73.09 62.88 71.81 62.14 70.53 C 63.71 70.55 65.28 70.57 66.85 70.60 C 65.54 71.65 65.18 73.11 65.44 74.71 C 62.07 76.14 59.89 79.21 56.89 81.20 C 58.85 81.30 60.67 81.89 61.82 83.57 C 59.98 83.02 58.13 82.47 56.25 82.04 C 56.29 82.84 56.34 83.65 56.39 84.45 C 51.68 84.90 51.42 90.12 49.21 93.26 C 46.75 97.71 41.10 99.31 39.40 104.34 C 42.60 101.59 46.06 99.10 50.25 98.13 C 50.63 96.96 51.01 95.79 51.43 94.64 C 51.51 95.53 51.65 97.31 51.73 98.20 C 52.30 98.07 53.46 97.82 54.03 97.69 C 54.52 95.09 55.06 92.35 54.41 89.73 C 55.43 88.89 56.48 88.07 57.53 87.27 C 58.13 90.43 56.07 92.93 54.53 95.44 C 56.62 95.00 58.73 94.63 60.85 94.35 C 60.65 93.75 60.27 92.55 60.07 91.96 C 62.67 90.44 63.40 87.40 65.22 85.18 C 65.36 85.68 65.51 86.19 65.65 86.70 C 62.12 90.00 63.42 95.60 60.90 99.55 C 61.34 97.92 61.78 96.30 62.12 94.66 C 59.18 96.08 56.93 98.64 53.78 99.69 C 50.10 101.63 45.31 101.18 42.34 104.36 C 40.97 105.75 38.98 106.05 37.20 106.62 C 37.46 108.58 37.61 110.56 37.94 112.52 C 36.42 111.19 34.57 110.37 32.87 109.32 C 32.52 109.97 31.82 111.26 31.47 111.91 C 31.77 112.58 32.37 113.91 32.67 114.58 C 34.86 114.66 37.06 114.60 39.26 114.50 C 38.44 115.10 37.62 115.69 36.81 116.31 C 35.75 115.91 34.68 115.54 33.59 115.22 C 32.50 119.27 33.12 123.65 31.46 127.53 C 34.21 129.53 37.26 131.21 39.54 133.79 C 37.32 132.75 35.36 131.26 33.50 129.68 C 32.40 132.69 32.39 135.78 33.36 138.80 C 31.57 144.76 35.57 150.22 37.93 155.42 C 38.97 156.85 38.56 158.62 38.60 160.25 C 40.99 161.91 43.30 163.76 46.05 164.81 C 46.83 166.88 47.67 168.94 48.10 171.13 C 48.66 170.23 49.22 169.33 49.78 168.43 C 50.55 168.50 52.10 168.63 52.88 168.69 C 54.26 172.29 53.24 176.05 50.85 178.95 C 50.17 176.31 50.26 173.60 50.88 170.96 C 49.84 172.49 48.81 174.21 46.65 173.78 C 45.19 171.69 45.23 169.20 46.49 167.04 C 44.74 165.62 42.98 164.14 40.65 163.95 C 40.55 165.16 40.43 166.37 40.31 167.59 C 40.95 167.82 42.24 168.28 42.88 168.51 C 42.75 169.61 42.48 171.81 42.35 172.91 C 40.49 171.16 38.27 170.05 35.68 170.25 C 36.88 169.47 38.08 168.70 39.27 167.91 C 37.58 165.93 36.27 163.31 33.77 162.23 C 32.11 162.22 30.47 162.51 28.83 162.68 C 29.30 161.93 29.77 161.17 30.24 160.41 C 32.12 160.50 34.01 160.58 35.90 160.62 C 34.61 156.36 32.23 152.62 30.20 148.72 C 28.86 143.40 25.42 138.67 25.72 133.00 C 26.62 125.64 25.51 117.96 28.63 110.98 C 31.57 104.80 35.15 98.88 39.29 93.44 C 42.10 86.96 47.35 82.10 51.75 76.73 C 54.32 72.59 56.01 67.91 58.98 64.01 C 62.11 60.46 65.78 57.45 69.01 54.00 C 74.59 48.08 82.46 45.16 89.95 42.50 M 69.95 58.46 C 68.43 61.43 73.35 58.53 69.95 58.46 M 73.42 62.86 C 73.07 64.29 73.59 64.79 74.97 64.35 C 75.32 62.95 74.81 62.45 73.42 62.86 M 70.13 66.24 C 69.38 67.29 71.02 68.97 72.15 68.59 C 72.95 67.51 71.28 65.83 70.13 66.24 M 59.30 76.15 C 57.90 76.80 57.82 77.47 59.07 78.15 C 60.49 77.50 60.57 76.83 59.30 76.15 M 41.39 94.34 C 39.84 94.78 39.86 98.32 41.90 97.29 C 43.73 96.80 43.54 93.61 41.39 94.34 M 38.33 98.88 C 37.91 100.31 38.38 100.87 39.73 100.55 C 40.13 99.11 39.66 98.56 38.33 98.88 M 37.34 102.04 C 36.83 103.55 37.24 104.01 38.58 103.43 C 39.07 101.89 38.66 101.43 37.34 102.04 Z" />
<path fill="#000000" opacity="1.00" d=" M 104.89 42.05 C 110.82 42.67 115.02 47.24 119.87 50.17 C 121.72 51.05 122.00 53.21 122.87 54.84 C 125.31 57.26 128.59 58.57 131.18 60.80 C 133.78 63.52 135.40 66.98 137.83 69.85 C 138.86 69.73 139.89 69.63 140.93 69.53 C 141.89 70.64 142.85 71.75 143.80 72.87 C 140.05 75.47 137.74 79.50 136.72 83.89 C 136.60 85.80 134.81 86.71 133.52 87.82 C 133.30 84.95 133.54 82.07 133.70 79.21 C 130.86 80.74 130.21 83.78 129.26 86.59 C 128.53 86.62 127.05 86.69 126.32 86.72 C 126.54 84.96 126.74 83.19 126.92 81.42 C 124.81 79.91 122.35 79.33 119.78 79.63 C 119.67 78.94 119.44 77.56 119.33 76.87 C 117.25 81.04 116.08 85.56 114.42 89.90 C 118.23 91.63 121.99 93.53 125.94 94.93 C 123.76 96.93 122.27 99.61 119.89 101.39 C 116.02 101.92 112.35 99.89 108.73 98.77 C 108.53 100.10 108.35 101.42 108.17 102.75 C 111.38 102.61 114.48 103.61 117.68 103.68 C 117.08 104.12 115.86 104.99 115.25 105.43 C 115.43 106.45 115.61 107.46 115.80 108.48 C 118.57 106.36 120.86 102.96 124.76 103.34 C 124.65 104.25 124.55 105.17 124.45 106.10 C 122.18 106.33 120.00 107.02 117.88 107.83 C 118.43 108.32 119.53 109.30 120.08 109.79 C 122.37 108.53 124.74 107.41 126.92 105.97 C 127.64 106.64 128.38 107.29 129.12 107.94 C 128.50 106.92 127.86 105.92 127.20 104.92 C 129.68 103.96 131.91 101.85 134.74 102.31 C 134.64 101.25 134.55 100.19 134.46 99.13 C 132.06 100.27 129.76 101.77 127.05 102.03 C 127.12 101.49 127.26 100.41 127.33 99.87 C 130.15 99.57 132.45 97.96 134.44 96.05 C 133.06 95.55 131.68 95.07 130.31 94.52 C 133.80 94.31 137.65 95.25 140.46 92.60 C 149.32 91.66 159.19 100.76 156.29 110.04 C 154.09 108.65 153.45 106.07 152.31 103.91 C 152.80 105.78 153.38 107.62 153.93 109.47 C 152.98 109.59 151.10 109.81 150.16 109.92 C 150.30 108.51 150.42 107.09 150.51 105.68 C 149.86 105.57 148.57 105.33 147.92 105.22 C 147.28 107.77 147.50 110.40 147.66 112.99 C 147.08 112.82 145.92 112.47 145.33 112.30 C 145.63 109.19 145.97 106.08 145.68 102.96 C 147.14 101.95 148.62 100.98 150.13 100.07 C 148.73 98.74 147.37 97.37 146.00 96.00 C 142.79 97.23 138.46 97.23 136.73 100.73 C 140.12 100.01 143.51 98.77 147.02 99.64 C 146.29 101.37 145.33 102.99 144.53 104.69 C 140.57 103.79 136.42 104.55 132.58 105.69 C 128.81 109.09 124.01 110.98 119.98 114.07 C 119.14 113.31 118.29 112.57 117.42 111.85 C 116.99 114.87 120.15 116.25 122.04 117.97 C 126.40 121.52 132.23 123.39 135.61 128.05 C 135.27 128.48 134.59 129.36 134.25 129.79 C 130.17 128.98 127.64 124.17 123.00 125.41 C 126.24 126.76 129.01 129.04 130.35 132.36 C 127.58 133.51 125.34 132.01 124.25 129.43 C 123.65 129.41 122.45 129.37 121.85 129.35 C 123.42 131.84 126.57 133.92 125.26 137.26 C 122.16 135.91 120.21 133.11 118.58 130.28 C 117.86 128.44 115.62 128.88 114.05 128.65 C 111.18 128.82 108.31 128.54 105.45 128.46 C 101.90 130.88 97.76 132.06 93.73 133.39 C 91.60 136.15 95.52 135.57 97.17 135.66 C 94.89 137.54 92.72 139.56 90.43 141.44 C 88.32 144.55 87.64 148.43 85.06 151.27 C 85.55 152.11 86.04 152.95 86.52 153.80 C 89.68 151.32 93.79 150.95 97.63 151.45 C 97.58 151.92 97.48 152.86 97.43 153.33 C 93.21 153.30 88.73 154.31 85.71 157.47 C 83.52 158.99 84.72 161.92 84.76 164.12 C 82.99 166.04 81.73 168.33 80.75 170.73 C 79.92 168.86 79.17 166.96 78.39 165.07 C 77.66 165.55 76.21 166.51 75.48 166.99 C 75.91 168.37 76.34 169.75 76.77 171.14 C 75.44 171.64 74.13 172.19 72.82 172.74 C 74.10 169.20 73.67 165.39 73.68 161.71 C 71.06 162.75 68.49 164.24 65.55 163.71 C 67.12 162.14 69.06 161.04 70.96 159.94 C 70.01 158.45 67.84 157.24 68.21 155.23 C 68.39 153.28 68.59 151.33 69.03 149.42 C 69.14 152.68 69.72 155.87 70.82 158.94 C 72.10 154.90 75.86 152.19 76.74 147.91 C 77.51 148.41 79.03 149.41 79.80 149.91 C 79.16 150.40 77.88 151.39 77.24 151.89 C 77.51 152.20 78.06 152.82 78.33 153.13 C 80.47 151.43 82.26 149.28 82.83 146.54 C 81.78 145.60 80.75 144.64 79.66 143.76 C 80.44 145.20 81.38 146.55 82.24 147.95 C 81.66 148.21 80.49 148.74 79.91 149.01 C 79.20 147.90 78.51 146.80 77.83 145.69 C 76.43 145.62 75.04 145.52 73.65 145.38 C 76.14 141.00 80.32 138.11 84.64 135.72 C 84.58 135.11 84.46 133.88 84.41 133.26 C 81.71 133.95 78.99 134.83 76.20 134.05 C 76.33 132.81 76.49 131.57 76.66 130.33 C 78.28 130.47 79.91 130.56 81.54 130.69 C 81.58 129.92 81.66 128.39 81.70 127.63 C 80.41 128.52 79.41 130.52 77.58 129.67 C 76.64 128.54 75.90 127.27 75.08 126.06 C 74.39 126.68 73.01 127.90 72.32 128.52 C 73.46 128.57 75.73 128.69 76.86 128.74 C 76.45 129.61 75.62 131.36 75.20 132.24 C 73.18 130.04 70.75 128.00 69.86 125.04 C 71.07 123.52 72.69 124.52 73.88 125.43 C 74.28 125.29 75.08 125.01 75.48 124.86 C 75.82 123.02 75.18 119.92 77.90 119.94 C 78.15 122.52 78.25 125.12 78.68 127.68 C 79.72 126.16 79.65 124.30 79.78 122.56 C 82.01 125.38 83.93 128.42 86.02 131.34 C 86.26 130.50 86.75 128.82 86.99 127.98 C 86.24 126.84 85.50 125.70 84.74 124.56 C 87.24 124.55 89.42 125.69 90.95 127.66 C 91.85 126.75 92.74 125.82 93.62 124.89 C 92.02 124.68 89.87 125.15 89.64 122.97 C 91.64 123.56 93.58 124.33 95.57 124.95 C 95.51 126.10 95.47 127.25 95.46 128.41 C 97.14 126.94 98.40 125.09 99.79 123.37 C 103.04 124.60 105.75 121.94 108.88 121.61 C 110.51 122.01 112.09 122.56 113.71 123.02 C 112.37 123.75 111.02 124.46 109.66 125.15 C 114.10 125.36 119.27 127.51 122.90 123.89 C 117.41 121.36 114.40 115.51 108.57 113.57 C 101.28 111.97 93.81 110.73 86.32 111.32 C 85.45 111.76 84.60 112.25 83.78 112.77 C 80.54 110.28 77.26 107.42 76.30 103.24 C 77.98 104.66 79.34 106.41 81.00 107.86 C 79.20 103.22 76.42 98.77 76.25 93.66 C 78.35 93.70 80.44 93.73 82.53 93.61 C 85.04 97.46 86.74 101.88 86.40 106.55 C 91.40 106.70 96.33 107.61 101.31 107.96 C 101.83 106.26 102.39 104.57 103.11 102.94 C 100.41 101.91 102.41 99.00 102.65 97.03 C 103.90 97.81 105.17 98.57 106.45 99.30 C 106.57 98.00 106.71 96.70 106.86 95.40 C 105.45 95.61 104.03 95.72 102.61 95.84 C 101.46 94.61 100.31 93.37 99.16 92.14 C 100.41 90.35 101.91 88.77 103.85 87.74 C 106.55 92.04 111.54 93.71 115.60 96.39 C 117.36 97.82 119.63 97.37 121.72 97.52 C 118.40 95.45 115.04 93.45 111.40 91.96 C 111.16 89.99 112.99 87.14 111.04 85.82 C 108.56 86.12 109.89 89.03 109.42 90.68 C 107.88 89.18 107.40 87.16 107.45 85.07 C 106.44 85.51 105.43 85.97 104.44 86.45 C 104.67 83.49 105.51 80.62 106.38 77.80 C 106.39 79.70 106.28 81.60 106.16 83.50 C 108.18 83.47 109.99 84.32 111.86 84.95 C 113.77 81.89 114.49 77.64 118.40 76.40 C 123.19 75.91 128.31 79.73 132.92 77.22 C 132.01 74.66 131.84 71.95 131.63 69.27 C 130.92 66.57 129.05 64.39 127.62 62.06 C 124.91 63.09 123.70 65.79 123.04 68.42 C 121.42 67.53 119.35 66.84 118.87 64.81 C 117.98 62.91 119.84 61.24 120.65 59.67 C 122.12 60.79 123.61 61.88 125.15 62.92 C 125.45 62.18 126.49 60.67 125.00 60.45 C 122.12 59.26 119.65 57.13 119.29 53.88 C 113.47 51.46 108.18 47.50 104.89 42.05 M 101.94 90.84 C 101.46 92.23 101.93 92.70 103.35 92.23 C 103.84 90.82 103.37 90.36 101.94 90.84 M 79.77 94.08 C 80.35 97.70 82.28 100.93 84.61 103.70 C 83.35 100.38 83.02 96.13 79.77 94.08 M 105.86 105.42 C 106.41 106.92 107.18 108.34 108.37 109.43 C 108.51 107.97 108.63 106.51 108.74 105.05 C 108.02 105.14 106.58 105.33 105.86 105.42 M 110.45 107.98 C 111.53 109.89 113.15 111.46 115.26 112.20 C 114.67 109.89 112.32 109.02 110.45 107.98 M 92.36 127.83 C 92.32 131.24 95.43 126.38 92.36 127.83 M 88.56 137.07 C 87.80 138.15 87.94 140.34 89.38 140.78 C 91.32 140.47 90.59 136.03 88.56 137.07 M 76.93 159.92 C 79.53 158.17 81.91 156.13 84.48 154.33 C 84.66 153.85 85.00 152.87 85.17 152.38 C 82.17 154.54 79.19 156.98 76.93 159.92 Z" />
<path fill="#000000" opacity="1.00" d=" M 91.25 49.47 C 93.70 47.97 96.38 47.16 99.25 47.05 C 99.68 47.60 100.11 48.14 100.54 48.70 C 102.72 47.86 104.70 49.07 106.55 50.13 C 106.49 50.70 106.35 51.83 106.29 52.39 C 103.76 51.65 101.13 51.53 98.52 51.47 C 96.60 53.65 95.21 56.17 94.07 58.82 C 90.77 56.80 91.89 52.69 91.25 49.47 Z" />
<path fill="#000000" opacity="1.00" d=" M 99.85 56.77 C 100.50 58.25 101.17 59.73 101.86 61.19 C 99.48 61.46 97.11 61.75 94.73 62.03 C 96.12 62.90 97.52 63.74 98.89 64.62 C 97.60 64.99 96.29 65.33 94.98 65.63 C 94.37 64.68 93.75 63.75 93.11 62.83 C 94.76 61.02 96.48 58.77 99.26 59.83 C 99.41 59.07 99.70 57.54 99.85 56.77 Z" />
<path fill="#000000" opacity="1.00" d=" M 87.45 62.87 C 90.95 63.14 91.62 66.69 92.58 69.38 C 93.06 72.64 92.34 75.95 89.90 78.28 C 90.63 78.25 92.10 78.20 92.84 78.18 C 92.26 78.83 91.69 79.49 91.12 80.14 C 91.59 80.98 92.06 81.82 92.52 82.68 C 91.97 83.72 91.45 84.79 90.94 85.85 C 88.34 82.12 87.38 77.40 89.16 73.10 C 88.70 69.67 87.85 66.31 87.45 62.87 Z" />
<path fill="#000000" opacity="1.00" d=" M 67.67 74.00 C 69.24 73.36 69.74 73.91 69.18 75.64 C 67.60 76.25 67.10 75.70 67.67 74.00 Z" />
<path fill="#000000" opacity="1.00" d=" M 64.37 82.84 C 61.33 82.72 62.77 79.28 62.91 77.41 C 63.38 79.22 63.85 81.04 64.37 82.84 Z" />
<path fill="#000000" opacity="1.00" d=" M 62.22 84.14 C 62.77 84.78 62.77 84.78 62.22 84.14 Z" />
<path fill="#000000" opacity="1.00" d=" M 58.19 85.35 C 59.48 86.06 59.48 86.76 58.18 87.46 C 56.92 86.74 56.93 86.03 58.19 85.35 Z" />
<path fill="#000000" opacity="1.00" d=" M 53.17 88.21 C 53.79 88.83 53.79 88.83 53.17 88.21 Z" />
<path fill="#000000" opacity="1.00" d=" M 72.24 97.42 C 73.66 97.35 73.90 99.85 72.36 99.77 C 70.95 99.83 70.73 97.36 72.24 97.42 Z" />
<path fill="#000000" opacity="1.00" d=" M 94.46 105.03 C 96.34 103.44 98.12 101.73 99.98 100.11 C 99.11 102.07 98.06 103.95 96.93 105.77 C 96.31 105.58 95.08 105.22 94.46 105.03 Z" />
<path fill="#000000" opacity="1.00" d=" M 56.44 105.20 C 60.92 103.53 65.69 102.91 70.28 101.62 C 68.56 104.81 65.13 107.20 61.45 107.48 C 56.07 108.53 50.99 110.78 45.99 112.96 C 42.26 115.79 40.72 120.88 36.47 123.16 C 36.48 121.16 36.49 119.13 37.01 117.18 C 37.11 118.63 37.16 120.09 37.15 121.56 C 37.69 121.19 38.76 120.46 39.30 120.10 C 39.83 117.22 40.63 114.39 41.67 111.66 C 45.41 107.38 51.35 106.86 56.44 105.20 Z" />
<path fill="#000000" opacity="1.00" d=" M 43.26 125.64 C 53.07 133.02 60.52 143.36 64.29 155.05 C 63.82 158.35 62.87 161.64 63.44 165.01 C 62.75 165.15 61.38 165.43 60.69 165.57 C 61.36 163.84 62.11 162.15 62.88 160.47 C 60.88 160.35 58.88 160.58 56.89 160.34 C 58.18 159.67 59.48 159.03 60.79 158.42 C 60.72 155.63 60.52 152.62 58.13 150.76 C 58.16 152.84 58.62 154.87 59.46 156.77 C 56.81 158.38 56.45 161.55 55.98 164.32 C 59.87 163.75 62.08 167.24 64.62 169.51 C 65.97 171.20 68.29 170.61 70.15 170.92 C 68.83 171.64 67.34 171.58 65.91 171.25 C 64.11 172.45 62.76 174.13 61.79 176.05 C 61.17 174.82 60.57 173.59 59.96 172.37 C 59.00 173.93 58.06 175.49 57.01 177.00 C 55.92 174.46 54.55 172.05 53.43 169.53 C 54.80 169.96 56.17 170.39 57.54 170.83 C 57.45 167.20 54.74 164.53 54.25 161.06 C 53.90 158.27 51.20 156.32 51.57 153.36 C 47.49 151.28 47.07 145.93 43.34 143.39 C 44.04 143.05 44.64 142.31 45.49 142.43 C 48.58 146.59 50.70 151.55 55.12 154.58 C 53.64 148.03 48.62 143.18 45.23 137.59 C 45.69 136.64 46.15 135.71 46.64 134.78 C 48.41 137.95 49.53 142.25 53.55 143.21 C 51.44 138.94 48.77 134.96 45.26 131.71 C 43.41 130.17 42.97 127.95 43.26 125.64 Z" />
<path fill="#000000" opacity="1.00" d=" M 68.58 141.29 C 69.95 140.27 71.32 142.55 70.16 143.54 C 68.83 144.48 67.34 142.24 68.58 141.29 Z" />
<path fill="#000000" opacity="1.00" d=" M 35.21 145.77 C 36.73 146.39 37.70 147.74 38.75 148.93 C 37.96 149.21 36.39 149.76 35.61 150.03 C 35.46 148.61 35.32 147.19 35.21 145.77 Z" />
<path fill="#000000" opacity="1.00" d=" M 64.80 147.59 C 67.13 147.39 69.51 147.83 71.83 147.41 C 73.45 146.80 75.08 146.19 76.83 146.08 C 76.31 147.55 75.76 149.01 75.19 150.46 C 72.08 148.31 68.35 148.33 64.80 147.59 Z" />
<path fill="#000000" opacity="1.00" d=" M 64.40 149.06 C 65.90 148.61 66.39 149.25 65.88 150.98 C 64.38 151.45 63.88 150.81 64.40 149.06 Z" />
<path fill="#000000" opacity="1.00" d=" M 39.44 153.41 C 40.61 152.67 41.99 154.65 40.94 155.54 C 39.71 156.38 38.52 154.31 39.44 153.41 Z" />
<path fill="#000000" opacity="1.00" d=" M 87.39 160.59 C 91.30 159.95 94.06 156.11 98.18 156.70 C 94.95 159.72 90.54 161.01 87.22 163.95 C 87.27 162.83 87.33 161.71 87.39 160.59 Z" />
<path fill="#000000" opacity="1.00" d=" M 101.99 160.44 C 104.59 159.09 107.07 157.49 109.76 156.30 C 109.64 156.81 109.40 157.84 109.27 158.35 C 107.62 158.82 105.99 159.33 104.35 159.85 C 104.43 161.19 104.52 162.53 104.62 163.88 C 103.83 163.31 103.05 162.75 102.26 162.19 C 102.83 164.26 102.16 166.17 101.14 167.97 C 100.39 168.18 99.65 168.40 98.91 168.62 C 100.68 166.97 100.85 164.59 100.71 162.30 C 97.13 161.80 94.79 164.89 92.02 166.58 C 91.43 165.82 90.82 165.08 90.22 164.33 C 92.03 163.08 93.82 161.79 95.75 160.74 C 97.76 160.09 99.92 160.60 101.99 160.44 Z" />
<path fill="#000000" opacity="1.00" d=" M 41.28 157.33 C 44.71 157.56 39.64 160.19 41.28 157.33 Z" />
<path fill="#000000" opacity="1.00" d=" M 111.09 164.93 C 111.66 163.67 112.67 162.72 113.60 161.73 C 113.67 163.18 113.70 164.63 113.69 166.09 C 112.80 165.74 111.94 165.36 111.09 164.93 Z" />
<path fill="#000000" opacity="1.00" d=" M 33.70 166.25 C 34.69 166.55 35.68 166.83 36.68 167.11 C 34.28 166.71 33.29 168.85 32.81 170.78 C 31.01 170.42 29.20 170.09 27.41 169.63 C 27.35 168.45 27.28 167.27 27.21 166.09 C 28.88 166.76 30.53 167.46 32.22 168.08 C 32.59 167.62 33.33 166.71 33.70 166.25 Z" />
<path fill="#000000" opacity="1.00" d=" M 89.83 169.33 C 93.24 169.53 88.31 172.29 89.83 169.33 Z" />
<path fill="#000000" opacity="1.00" d=" M 87.24 170.34 C 90.67 170.58 85.59 173.26 87.24 170.34 Z" />
</g>
</svg>
