<?xml version="1.0" encoding="UTF-8" ?>
<!DOCTYPE svg PUBLIC "-//W3C//DTD SVG 1.1//EN" "http://www.w3.org/Graphics/SVG/1.1/DTD/svg11.dtd">
<svg width="128pt" height="64pt" viewBox="0 0 128 64" version="1.1" xmlns="http://www.w3.org/2000/svg">
<g id="#000000ff">
<path fill="#000000" opacity="1.00" d=" M 51.50 27.44 C 50.00 24.44 54.00 23.37 56.04 22.44 C 60.02 23.21 64.07 23.14 68.10 23.51 C 71.09 23.72 73.32 26.28 76.37 26.35 C 79.73 26.48 83.12 26.68 86.37 27.65 C 92.88 30.10 100.04 28.31 106.67 30.20 C 111.14 33.98 117.33 33.44 122.56 35.41 C 124.39 36.28 125.68 37.85 126.06 39.84 C 121.21 39.40 116.47 37.41 111.54 38.48 C 106.89 39.44 101.77 36.56 97.66 39.76 C 92.60 39.22 87.47 39.01 82.46 38.02 C 81.68 38.06 80.93 38.23 80.21 38.55 C 81.55 38.57 82.88 38.55 84.22 38.48 C 84.65 39.80 85.05 41.13 85.43 42.47 C 80.46 42.93 75.64 41.00 71.14 39.09 C 69.54 38.62 68.75 37.12 67.83 35.87 C 68.94 35.22 70.05 34.56 71.15 33.89 C 74.10 32.85 77.10 34.48 80.09 34.59 C 78.38 30.85 74.16 33.31 71.09 32.60 C 69.14 33.90 67.64 36.05 65.87 37.68 C 68.99 40.63 70.68 44.60 72.77 48.25 C 72.80 48.92 72.86 50.25 72.89 50.92 C 68.24 50.39 63.58 50.13 58.93 50.96 C 59.22 49.97 59.51 48.98 59.79 47.99 C 62.36 47.59 64.90 47.05 67.38 46.25 C 65.64 43.96 63.47 41.93 62.48 39.18 C 62.60 40.09 62.83 41.91 62.94 42.82 C 60.29 43.00 59.91 39.61 58.59 37.96 C 56.88 39.64 54.22 40.90 54.01 43.55 C 48.75 43.22 43.09 44.86 38.24 42.15 C 38.71 42.58 39.65 43.43 40.12 43.86 C 38.28 46.59 35.73 49.86 32.01 49.39 C 28.31 48.98 24.80 50.16 21.28 51.08 C 21.22 50.33 21.09 48.84 21.03 48.09 C 23.99 45.35 28.22 44.70 32.05 45.57 C 33.06 44.66 34.07 43.76 35.09 42.86 C 32.70 41.59 30.14 40.67 27.75 39.40 C 26.67 41.03 25.76 43.10 23.71 43.69 C 19.19 45.11 14.48 45.69 9.84 46.52 C 7.87 46.84 6.04 45.76 4.27 45.08 C 7.96 42.57 12.60 43.17 16.80 42.45 C 18.95 41.98 21.63 42.03 22.94 39.93 C 24.81 37.44 26.14 34.60 28.00 32.10 C 24.55 36.00 19.80 38.40 15.04 40.32 C 11.39 41.88 7.52 40.65 3.73 40.93 C 3.58 39.69 3.41 38.46 3.24 37.22 C 4.17 36.53 5.10 35.83 6.03 35.13 C 8.87 36.02 11.83 35.58 14.74 35.56 C 16.70 35.72 17.65 33.70 18.79 32.50 C 19.93 33.78 21.31 34.80 22.97 35.32 C 23.89 32.50 20.70 32.82 18.91 32.29 C 19.58 29.29 22.06 31.18 23.95 31.57 C 25.08 31.44 26.19 31.23 27.31 31.07 C 26.51 30.02 25.89 28.85 25.39 27.64 C 28.09 27.40 30.96 28.45 33.54 27.26 C 38.81 25.08 44.54 24.60 50.17 24.27 C 50.12 24.91 50.01 26.18 49.96 26.82 C 48.57 27.74 47.07 28.46 45.60 29.23 C 47.49 28.39 49.36 27.33 51.50 27.44 M 6.25 37.19 C 6.86 37.80 6.86 37.80 6.25 37.19 Z" />
</g>
</svg>
