<?xml version="1.0" encoding="UTF-8" ?>
<!DOCTYPE svg PUBLIC "-//W3C//DTD SVG 1.1//EN" "http://www.w3.org/Graphics/SVG/1.1/DTD/svg11.dtd">
<svg width="128pt" height="64pt" viewBox="0 0 128 64" version="1.1" xmlns="http://www.w3.org/2000/svg">
<g id="#000000ff">
<path fill="#000000" opacity="1.00" d=" M 67.53 4.24 C 73.50 4.85 79.63 4.84 85.39 6.72 C 88.82 7.79 90.28 12.05 94.02 12.28 C 97.35 13.12 100.04 15.52 103.34 16.45 C 105.83 16.93 108.34 16.41 110.84 16.30 C 115.43 17.97 119.59 21.38 120.84 26.29 C 120.38 28.95 119.00 31.36 118.23 33.94 C 117.03 32.78 116.28 31.04 114.79 30.24 C 112.20 30.84 109.82 32.47 107.12 32.44 C 105.02 31.74 103.02 30.78 101.02 29.83 C 100.04 32.46 98.76 34.96 96.46 36.68 C 95.57 38.74 94.85 40.87 93.89 42.91 C 96.66 42.77 99.44 42.58 102.21 42.74 C 101.54 43.61 100.86 44.49 100.18 45.36 C 97.66 45.45 95.07 45.85 92.58 45.32 C 89.03 43.20 90.11 38.10 88.24 34.78 C 84.11 34.90 80.02 34.15 75.90 34.33 C 75.20 33.66 74.53 32.98 73.87 32.28 C 73.84 34.42 73.05 36.41 72.01 38.26 C 75.50 38.92 79.03 39.69 82.11 41.51 C 76.20 42.36 70.00 37.54 64.50 41.14 C 68.35 40.01 72.11 41.81 75.99 41.89 C 76.54 42.23 77.64 42.92 78.19 43.26 C 74.49 43.94 70.69 43.33 66.98 44.09 C 64.91 44.64 62.92 43.69 60.94 43.24 C 62.48 41.16 63.99 38.97 64.10 36.29 C 59.75 36.77 55.39 36.60 51.04 36.55 C 48.27 37.31 45.81 38.79 43.36 40.23 C 39.63 41.74 35.56 41.91 31.64 42.53 C 30.63 43.26 29.73 44.13 28.80 44.95 C 23.30 43.53 17.51 43.94 12.17 41.83 C 11.31 39.93 10.39 38.04 9.64 36.08 C 16.04 32.41 23.32 35.30 30.02 36.24 C 33.66 36.98 37.53 35.81 40.96 37.61 C 46.03 35.05 50.84 30.15 50.83 24.15 C 53.17 16.44 59.55 10.63 66.30 6.62 C 66.60 6.03 67.22 4.83 67.53 4.24 Z" />
</g>
</svg>
