<?xml version="1.0" encoding="UTF-8" ?>
<!DOCTYPE svg PUBLIC "-//W3C//DTD SVG 1.1//EN" "http://www.w3.org/Graphics/SVG/1.1/DTD/svg11.dtd">
<svg width="128pt" height="128pt" viewBox="0 0 128 128" version="1.1" xmlns="http://www.w3.org/2000/svg">
<g id="#000000ff">
<path fill="#000000" opacity="1.00" d=" M 94.09 27.18 C 97.09 25.23 97.89 21.60 99.92 18.85 C 101.57 21.30 102.96 23.90 104.33 26.52 C 108.59 26.04 112.13 28.87 115.42 31.15 C 114.85 31.54 113.71 32.32 113.15 32.71 C 114.30 33.18 115.50 33.55 116.58 34.18 C 118.41 37.26 120.15 40.41 122.56 43.10 C 121.44 44.42 120.48 45.92 119.09 46.98 C 114.85 48.32 110.42 48.86 106.06 49.62 C 107.34 51.61 108.25 54.72 111.18 54.42 C 115.17 54.43 119.10 55.48 122.33 57.87 C 121.16 58.86 120.07 60.00 118.71 60.73 C 114.68 60.79 110.64 60.17 106.60 60.61 C 105.00 60.53 104.22 62.22 103.09 63.08 C 100.67 65.70 97.66 67.76 94.13 68.55 C 93.74 73.85 94.45 79.36 92.53 84.44 C 91.27 88.17 89.42 91.94 85.85 93.94 C 83.69 95.03 83.09 97.37 82.32 99.46 C 83.63 98.95 84.94 98.47 86.26 98.01 C 86.00 99.47 85.72 100.94 85.48 102.41 C 79.42 100.03 72.74 101.28 66.66 99.07 C 62.43 97.80 56.72 97.40 55.18 92.41 C 54.15 92.62 53.11 92.84 52.08 93.05 C 52.62 94.03 53.18 95.00 53.73 95.98 C 51.42 95.52 49.10 95.07 46.80 94.58 C 48.01 93.13 49.31 91.75 50.57 90.34 C 50.40 88.34 50.24 86.34 50.16 84.34 C 49.59 83.95 49.02 83.56 48.46 83.17 C 48.70 84.77 49.13 86.37 49.12 88.00 C 48.41 89.63 47.49 91.16 46.52 92.65 C 45.07 93.03 43.58 92.49 42.13 92.36 C 42.13 91.43 42.14 90.50 42.14 89.58 C 41.07 88.80 40.01 88.01 38.96 87.20 C 40.34 88.72 41.97 90.19 41.90 92.44 C 38.69 91.93 35.62 90.85 32.66 89.55 C 32.11 87.94 31.47 86.36 30.86 84.78 C 32.57 84.59 34.29 84.45 36.01 84.35 C 33.84 83.53 31.11 83.18 30.14 80.72 C 31.52 80.57 32.91 80.44 34.30 80.33 C 31.33 78.79 29.09 76.33 26.87 73.88 C 27.07 73.30 27.46 72.14 27.66 71.56 C 29.47 71.38 31.28 71.16 33.10 71.00 C 29.94 71.14 27.11 69.84 24.83 67.70 C 26.98 66.67 29.09 67.92 31.10 68.64 C 28.31 65.93 24.45 63.82 23.51 59.76 C 25.44 60.56 27.25 61.64 29.03 62.73 C 27.10 60.16 24.99 57.68 23.69 54.71 C 21.13 55.10 18.57 55.37 16.00 55.60 C 16.49 57.84 17.12 60.13 16.59 62.43 C 16.11 64.62 17.61 66.55 18.15 68.58 C 16.62 68.46 15.09 68.33 13.56 68.21 C 14.93 72.68 18.00 76.19 21.51 79.17 C 20.77 80.13 20.02 81.08 19.28 82.03 C 19.86 83.58 20.40 85.13 20.88 86.71 C 19.67 87.12 18.46 87.50 17.24 87.84 C 17.25 86.30 17.31 84.77 17.42 83.23 C 16.32 82.53 15.24 81.80 14.16 81.08 C 14.93 83.75 15.65 86.45 15.85 89.23 C 14.48 88.67 13.00 88.23 11.87 87.22 C 10.56 85.79 11.33 83.84 11.72 82.22 C 11.27 82.52 10.36 83.12 9.91 83.41 C 7.90 80.50 5.38 77.69 5.15 73.97 C 5.51 72.55 6.33 71.33 6.99 70.04 C 5.33 70.97 3.65 71.84 1.86 72.51 C 2.47 68.80 5.87 66.71 8.05 63.96 C 6.24 65.02 4.46 66.16 2.57 67.09 C 2.61 64.94 2.38 62.76 2.68 60.62 C 4.12 58.69 6.16 57.26 7.44 55.18 C 4.84 56.44 2.45 58.05 0.00 59.56 L 0.00 57.80 C 1.31 53.59 3.17 49.44 6.61 46.53 C 8.58 45.33 10.40 46.76 12.02 47.82 C 10.61 46.14 9.37 44.32 8.56 42.28 C 9.67 42.35 10.78 42.43 11.88 42.54 C 11.93 41.32 11.99 40.11 12.09 38.89 C 13.84 39.58 15.31 40.76 16.59 42.11 C 16.25 41.10 15.91 40.08 15.58 39.05 C 16.56 39.15 18.50 39.33 19.47 39.42 C 19.52 38.66 19.63 37.12 19.68 36.35 C 20.30 36.10 21.53 35.60 22.15 35.35 C 23.68 37.54 24.55 40.07 25.13 42.65 C 25.53 40.39 27.18 38.79 28.74 37.24 C 30.02 37.66 31.29 38.08 32.57 38.49 C 32.84 39.87 33.09 41.26 33.35 42.64 C 34.26 42.18 35.14 41.67 36.09 41.28 C 37.97 42.35 39.57 43.84 41.37 45.03 C 41.13 46.98 40.84 48.93 40.58 50.88 C 41.39 51.08 43.01 51.48 43.82 51.68 C 42.93 54.64 42.25 57.64 41.67 60.67 C 42.44 60.93 43.96 61.45 44.73 61.71 C 42.93 69.21 45.02 77.34 50.40 82.88 C 50.35 80.30 50.18 77.67 50.91 75.16 C 51.63 73.74 52.88 72.56 53.01 70.90 C 53.95 65.38 55.35 59.93 57.18 54.63 C 57.61 55.10 58.47 56.05 58.90 56.52 C 60.07 55.11 61.20 53.68 62.20 52.15 C 60.55 52.85 58.93 53.63 57.29 54.36 C 57.64 53.69 58.32 52.35 58.66 51.68 C 63.23 47.80 68.40 44.39 74.39 43.31 C 78.46 40.37 83.26 38.86 87.70 36.66 C 90.32 33.90 90.85 29.51 94.09 27.18 M 108.12 36.71 C 109.95 39.10 112.22 36.07 113.71 34.92 C 112.60 33.92 111.31 33.15 109.98 32.48 C 108.91 33.50 106.42 35.11 108.12 36.71 M 5.92 49.23 C 4.32 52.21 9.40 49.31 5.92 49.23 M 7.96 55.02 C 8.92 56.37 9.85 57.76 10.91 59.04 C 10.47 58.00 10.01 56.97 9.50 55.96 C 11.49 54.00 12.60 51.43 12.33 48.62 C 10.91 50.78 9.48 52.93 7.96 55.02 M 11.28 73.47 C 10.74 74.95 12.15 77.65 13.98 76.69 C 15.06 75.27 12.56 73.43 11.28 73.47 M 79.15 97.23 C 77.51 100.04 82.58 97.47 79.15 97.23 Z" />
<path fill="#000000" opacity="1.00" d=" M 86.59 102.38 C 87.31 100.08 89.54 99.45 91.68 99.47 C 91.63 99.99 91.53 101.03 91.48 101.56 C 89.90 102.11 88.27 102.47 86.59 102.38 Z" />
</g>
</svg>
