<?xml version="1.0" encoding="UTF-8" ?>
<!DOCTYPE svg PUBLIC "-//W3C//DTD SVG 1.1//EN" "http://www.w3.org/Graphics/SVG/1.1/DTD/svg11.dtd">
<svg width="180pt" height="180pt" viewBox="0 0 180 180" version="1.1" xmlns="http://www.w3.org/2000/svg">
<g id="#000000ff">
<path fill="#000000" opacity="1.00" d=" M 86.08 13.23 C 87.10 9.89 88.02 6.24 91.07 4.12 C 92.84 6.57 94.07 9.34 95.64 11.90 C 96.72 9.46 97.95 7.05 99.77 5.06 C 100.96 5.68 102.16 6.31 103.35 6.95 C 103.40 9.04 103.37 11.12 103.35 13.20 C 104.90 10.50 106.62 7.85 109.13 5.92 C 111.89 8.60 111.27 12.56 111.46 16.04 C 111.36 20.12 112.44 24.59 109.87 28.18 C 99.37 30.02 88.73 27.30 78.28 26.15 C 76.92 20.12 77.87 13.82 76.33 7.82 C 76.74 7.42 77.55 6.61 77.96 6.21 C 80.62 8.61 83.23 11.06 86.08 13.23 M 86.97 17.87 C 84.83 16.58 82.72 15.24 80.61 13.90 C 81.34 16.95 81.52 20.08 81.21 23.19 C 89.99 23.27 98.60 25.46 107.40 25.18 C 107.45 21.38 107.48 17.58 107.47 13.78 C 105.80 15.84 105.26 19.60 102.17 19.90 C 98.61 19.04 100.00 14.50 99.52 11.84 C 98.61 13.34 97.79 14.90 96.80 16.34 C 93.79 17.56 92.76 13.53 91.29 11.75 C 91.63 10.78 91.97 9.82 92.31 8.85 C 90.46 11.82 88.72 14.84 86.97 17.87 Z" />
<path fill="#000000" opacity="1.00" d=" M 62.56 28.64 C 65.62 28.20 68.67 27.71 71.72 27.20 C 72.40 28.37 73.04 29.56 73.70 30.75 C 76.14 30.74 78.58 30.55 81.03 30.51 C 85.37 30.87 89.28 32.94 93.58 33.54 C 95.69 34.56 99.28 35.23 98.73 38.29 C 93.76 40.35 88.30 38.61 83.11 38.51 C 83.27 37.36 83.45 36.21 83.64 35.07 C 81.61 35.44 79.54 36.16 77.47 35.60 C 75.35 34.96 73.02 36.13 71.03 35.03 C 69.00 33.97 66.35 33.95 64.94 31.91 C 59.63 34.37 54.92 37.84 50.28 41.36 C 50.40 43.03 50.47 44.69 50.54 46.36 C 49.56 47.29 48.64 48.27 47.74 49.27 C 47.75 48.36 47.65 47.46 47.47 46.57 C 46.23 45.35 45.20 47.28 44.13 47.78 C 46.36 49.75 46.94 52.55 46.38 55.39 C 47.79 55.72 49.18 56.10 50.57 56.50 C 50.40 58.30 50.24 60.11 50.13 61.91 C 48.52 60.34 46.34 59.03 45.76 56.71 C 44.56 52.88 44.17 48.75 42.02 45.27 C 44.60 45.27 47.50 44.56 49.44 46.80 C 49.79 43.05 48.28 39.52 47.50 35.92 C 52.99 34.53 57.71 31.41 62.56 28.64 Z" />
<path fill="#000000" opacity="1.00" d=" M 99.07 38.37 C 101.29 38.80 103.66 38.44 105.78 39.29 C 107.47 39.78 107.22 41.90 107.73 43.22 C 104.09 42.89 100.46 42.37 96.80 42.33 C 97.34 40.72 98.50 39.52 99.81 38.48 C 99.62 38.46 99.26 38.40 99.07 38.37 Z" />
<path fill="#000000" opacity="1.00" d=" M 32.56 43.78 C 35.66 40.03 40.58 38.79 45.20 38.18 C 45.22 39.81 45.33 41.45 45.57 43.07 C 45.14 43.28 44.26 43.69 43.83 43.90 C 42.83 43.25 41.85 42.58 40.86 41.92 C 39.36 43.71 38.42 46.26 36.02 47.04 C 32.88 48.80 27.83 49.46 25.86 45.76 C 28.04 44.92 30.32 44.43 32.56 43.78 Z" />
<path fill="#000000" opacity="1.00" d=" M 104.21 45.98 C 109.01 42.41 114.25 46.86 119.01 48.04 C 128.77 49.57 138.43 52.82 146.57 58.52 C 150.83 60.41 155.87 60.00 160.06 62.00 C 162.73 64.99 165.66 67.82 169.19 69.79 C 170.55 70.80 172.74 71.95 172.39 73.96 C 171.69 77.98 173.03 81.89 174.30 85.63 C 175.33 88.55 174.63 91.66 174.63 94.67 C 175.40 96.51 177.05 98.03 177.26 100.07 C 177.08 106.11 179.77 112.59 176.05 118.11 C 175.38 117.97 174.02 117.68 173.35 117.53 C 170.48 112.41 170.87 106.37 170.06 100.73 C 171.15 100.37 172.24 99.98 173.31 99.55 C 172.06 99.80 170.82 100.08 169.58 100.37 C 170.61 93.67 171.27 86.68 169.00 80.12 C 168.40 79.45 167.78 78.82 167.13 78.22 C 167.85 76.83 168.57 75.44 169.24 74.02 C 168.23 74.93 167.23 75.87 166.21 76.79 C 161.67 74.29 158.32 70.26 153.95 67.52 C 154.53 70.99 158.53 72.25 158.98 75.77 C 154.05 75.99 151.00 71.75 146.71 70.24 C 145.28 69.82 144.36 68.74 143.80 67.41 C 147.02 67.15 150.03 68.46 152.82 69.90 C 152.57 67.96 152.10 66.06 151.63 64.17 C 147.92 63.21 144.36 61.79 141.00 59.96 C 140.54 60.42 139.61 61.35 139.15 61.81 C 133.77 59.94 127.88 58.86 123.44 55.04 C 123.52 58.67 120.35 60.54 118.10 62.84 C 117.29 63.69 115.99 63.60 114.94 63.94 C 114.19 66.46 112.76 68.68 111.60 71.01 C 111.55 73.36 112.22 75.89 110.75 77.96 C 109.46 76.40 109.17 73.30 106.78 73.04 C 106.01 75.12 106.76 76.99 107.44 78.91 C 106.77 82.00 107.05 85.11 109.67 87.23 C 109.20 88.53 108.74 89.84 108.28 91.15 C 109.44 91.63 110.59 92.12 111.75 92.61 C 111.21 94.08 110.67 95.55 110.08 97.00 C 108.52 94.91 107.04 92.74 105.09 90.98 C 105.41 89.38 105.76 87.70 104.57 86.35 C 102.98 84.23 103.53 81.52 103.56 79.07 C 102.16 81.62 100.36 83.96 98.06 85.76 C 99.21 90.62 95.46 94.66 94.28 99.15 C 92.67 103.07 93.34 107.33 93.66 111.42 C 92.31 110.22 90.97 109.00 89.56 107.89 C 90.20 109.28 90.50 110.97 91.73 112.01 C 94.45 112.93 97.25 113.57 99.99 114.39 C 101.35 113.82 102.70 113.24 104.08 112.73 C 106.56 112.74 108.93 113.58 111.24 114.41 C 116.46 114.46 121.82 115.12 126.79 113.13 C 126.15 112.26 125.53 111.38 124.91 110.50 C 126.40 110.52 127.90 110.56 129.40 110.60 C 132.06 107.50 135.34 104.97 138.62 102.57 C 140.55 101.70 142.32 99.70 144.62 100.27 C 147.96 102.16 151.67 103.79 154.03 106.96 C 155.27 108.18 154.30 109.95 154.60 111.44 C 156.57 114.20 158.94 116.73 160.18 119.94 C 161.30 123.26 165.17 124.90 165.66 128.48 C 166.59 132.03 166.25 135.73 166.75 139.34 C 167.05 141.45 166.98 143.58 166.36 145.63 C 167.90 145.41 169.45 145.24 171.00 145.12 C 170.65 146.06 170.29 147.00 169.94 147.93 C 166.57 147.67 163.00 146.82 159.97 148.80 C 160.13 148.23 160.46 147.09 160.62 146.51 C 161.61 146.66 162.59 146.82 163.58 146.98 C 163.12 140.80 162.39 134.66 162.47 128.46 C 160.62 125.74 157.12 124.20 156.32 120.78 C 155.52 117.93 153.20 115.89 151.66 113.43 C 151.65 115.73 151.14 118.23 152.55 120.25 C 153.98 123.27 157.18 125.90 156.30 129.54 C 155.34 128.78 154.39 128.01 153.46 127.22 C 151.89 131.78 152.12 136.73 150.51 141.27 C 151.41 141.73 152.31 142.21 153.20 142.70 C 153.52 138.51 153.73 134.32 153.93 130.12 C 154.91 130.36 155.89 130.59 156.88 130.82 C 156.52 134.87 156.50 138.94 156.85 142.99 C 154.39 144.76 151.31 145.03 148.41 144.53 C 148.38 138.61 148.11 132.65 149.90 126.92 C 145.74 123.23 143.30 118.13 140.73 113.31 C 137.51 115.31 133.57 116.14 130.84 118.88 C 129.51 120.25 127.60 120.71 125.94 121.53 C 125.23 120.48 124.53 119.44 123.82 118.40 C 113.03 118.30 101.79 119.62 91.57 115.28 C 92.96 118.48 94.09 121.78 95.02 125.13 C 94.27 125.20 92.77 125.33 92.02 125.40 C 90.02 122.84 87.59 120.68 84.92 118.84 C 86.24 117.96 87.68 117.28 89.25 117.01 C 87.06 114.44 84.99 111.74 82.37 109.59 C 82.56 107.64 82.67 105.68 82.44 103.74 C 84.21 102.66 86.17 102.18 88.25 102.43 C 86.91 100.20 85.55 97.99 84.03 95.89 C 85.06 94.85 86.02 93.74 86.89 92.58 C 88.32 92.37 90.23 92.80 91.02 91.23 C 92.33 88.17 93.85 85.03 93.78 81.63 C 94.83 81.14 95.89 80.66 96.96 80.21 C 96.33 75.66 96.25 70.90 94.51 66.62 C 96.31 67.98 98.11 69.35 99.97 70.64 C 99.30 68.09 98.03 65.72 97.59 63.12 C 97.98 61.59 98.47 60.08 98.79 58.53 C 99.95 58.64 101.11 58.73 102.27 58.86 C 101.08 59.46 100.02 60.23 99.09 61.17 C 99.70 63.06 101.47 64.32 102.48 66.01 C 102.76 64.15 103.25 62.34 103.59 60.50 C 106.17 59.23 108.61 57.45 111.56 57.19 C 110.97 55.00 111.44 52.75 111.65 50.54 C 109.52 48.47 106.99 46.98 104.21 45.98 M 115.49 50.53 C 116.32 54.35 114.26 57.44 113.32 60.95 C 116.38 58.66 118.29 53.67 115.49 50.53 M 118.17 52.81 C 118.38 54.73 118.57 56.65 118.55 58.58 C 119.63 57.87 120.71 57.19 121.81 56.51 C 121.77 56.02 121.71 55.05 121.68 54.56 C 120.50 53.99 119.33 53.40 118.17 52.81 M 111.09 61.13 C 109.72 62.05 111.30 64.41 112.59 63.32 C 113.51 62.31 112.52 59.70 111.09 61.13 M 105.36 62.82 C 106.22 63.96 107.13 65.07 108.04 66.17 C 106.92 66.71 105.79 67.25 104.65 67.77 C 104.53 68.80 104.29 70.85 104.17 71.88 C 105.84 72.19 107.53 72.34 109.22 72.54 C 109.61 69.24 109.68 65.91 109.72 62.58 C 108.26 62.64 106.81 62.72 105.36 62.82 M 156.44 65.84 C 156.39 69.21 159.46 64.44 156.44 65.84 M 158.30 66.80 C 159.78 69.38 162.44 70.83 164.62 72.74 C 163.47 69.87 161.18 67.83 158.30 66.80 M 96.29 70.86 C 96.56 74.29 99.21 69.25 96.29 70.86 M 85.42 104.12 C 83.56 104.38 84.09 107.21 85.94 106.12 C 87.94 105.89 87.28 103.19 85.42 104.12 M 145.32 108.57 C 144.88 110.21 145.46 110.75 147.06 110.21 C 147.51 108.56 146.93 108.02 145.32 108.57 M 135.14 109.22 C 135.82 109.89 135.82 109.89 135.14 109.22 M 132.12 111.16 C 132.78 111.82 132.78 111.82 132.12 111.16 Z" />
<path fill="#000000" opacity="1.00" d=" M 16.98 49.29 C 19.16 49.46 20.56 47.54 22.22 46.46 C 22.93 46.79 24.33 47.47 25.03 47.80 C 23.49 51.47 18.69 51.29 16.50 54.39 C 12.98 57.41 9.01 62.40 11.58 67.12 C 8.63 70.03 7.21 74.92 9.82 78.49 C 9.27 79.07 8.72 79.65 8.16 80.23 C 9.16 81.47 10.13 82.73 11.09 84.00 C 10.17 86.71 9.20 89.40 8.22 92.09 C 9.73 93.20 11.18 94.39 12.63 95.59 C 12.68 97.32 12.76 99.05 12.87 100.78 C 13.63 99.96 14.39 99.14 15.15 98.33 C 15.68 98.48 16.74 98.78 17.27 98.93 C 17.68 100.98 18.13 103.03 18.49 105.10 C 20.49 104.17 22.51 103.22 24.73 102.98 C 22.79 106.78 24.10 110.79 24.76 114.72 C 25.92 112.41 26.45 109.89 27.13 107.42 C 28.32 107.38 29.50 107.35 30.69 107.31 C 31.60 108.91 32.44 110.55 33.29 112.19 C 34.58 111.21 35.85 110.20 37.14 109.23 C 36.41 107.14 35.80 105.01 35.32 102.85 C 36.09 102.28 36.88 101.71 37.66 101.15 C 38.62 102.50 39.58 103.86 40.57 105.19 C 40.12 99.40 40.64 93.47 42.90 88.07 C 43.61 88.74 44.32 89.41 45.04 90.09 C 44.98 92.65 42.48 97.56 46.49 97.87 C 46.30 99.52 46.13 101.17 45.96 102.82 C 47.13 102.29 48.31 101.78 49.49 101.27 C 49.30 105.25 49.13 109.23 49.54 113.21 C 50.25 110.95 51.28 108.77 51.73 106.44 C 51.97 103.53 51.40 100.64 51.26 97.74 C 51.82 97.59 52.95 97.28 53.52 97.13 C 53.74 102.25 56.24 107.56 53.18 112.34 C 54.68 111.19 56.11 109.95 57.47 108.63 C 57.43 110.58 57.44 112.53 57.75 114.46 C 59.15 112.77 60.41 110.97 61.57 109.10 C 62.95 109.60 64.33 110.06 65.69 110.62 C 66.86 111.74 66.20 113.61 66.47 115.05 C 67.42 114.65 68.37 114.26 69.33 113.87 C 68.23 118.98 74.86 120.13 74.76 124.79 C 73.36 123.86 72.03 122.86 70.64 121.92 C 71.09 123.45 71.74 124.90 72.78 126.12 C 74.52 125.04 76.39 124.19 78.47 124.09 C 75.66 127.06 73.09 130.32 71.15 133.93 C 70.09 135.64 70.86 137.70 71.17 139.51 C 71.94 137.05 71.76 134.30 73.02 132.01 C 73.94 131.63 74.88 131.28 75.83 130.95 C 78.13 135.13 78.81 139.94 81.20 144.07 C 79.96 144.31 78.72 144.53 77.47 144.74 C 77.84 147.98 76.23 150.84 74.53 153.45 C 73.42 153.51 72.31 153.57 71.20 153.64 C 69.73 151.91 68.25 150.15 67.33 148.06 C 66.47 148.08 64.75 148.14 63.89 148.17 C 64.89 146.89 66.22 145.98 67.68 145.29 C 67.71 143.69 67.73 142.09 67.77 140.50 C 67.12 140.43 65.83 140.30 65.19 140.24 C 65.85 141.88 66.50 143.54 67.03 145.23 C 66.37 145.32 65.05 145.48 64.39 145.56 C 63.73 143.15 62.92 140.78 62.17 138.40 C 63.73 138.53 65.29 138.66 66.86 138.73 C 65.83 135.15 65.35 131.47 65.84 127.75 C 65.00 128.48 64.17 129.21 63.34 129.95 C 64.06 132.55 64.61 135.20 64.73 137.91 C 63.92 136.86 62.38 136.03 62.63 134.49 C 62.63 131.55 61.36 128.76 61.49 125.81 C 62.65 125.14 63.88 124.61 65.09 124.04 C 62.45 122.41 59.67 121.10 56.67 120.31 C 53.69 118.31 50.30 116.95 47.56 114.60 C 47.53 115.45 47.49 117.17 47.47 118.02 C 43.77 117.65 42.77 114.13 40.92 111.58 C 41.29 113.65 43.13 115.55 42.17 117.71 C 40.26 119.82 38.07 121.68 36.15 123.80 C 34.70 122.61 33.28 121.40 31.87 120.16 C 32.81 121.79 33.77 123.41 34.72 125.05 C 32.79 125.89 30.86 126.74 28.94 127.60 C 26.96 125.07 23.83 124.38 21.38 122.53 C 20.47 119.12 19.03 115.71 19.66 112.11 C 20.32 112.54 21.62 113.38 22.27 113.81 C 20.14 112.45 20.15 110.10 20.29 107.84 C 16.87 108.10 13.59 106.94 10.40 105.84 C 10.48 103.59 10.50 101.34 10.67 99.09 C 7.81 97.12 6.32 93.93 4.56 91.05 C 5.30 88.93 5.98 86.79 6.71 84.67 C 5.22 83.38 3.79 82.03 2.35 80.69 C 4.80 77.65 4.70 73.79 3.79 70.18 C 4.66 69.27 5.53 68.36 6.42 67.47 C 5.69 65.06 4.68 62.65 4.56 60.12 C 7.90 55.87 10.96 49.76 16.98 49.29 M 28.40 110.69 C 29.49 111.46 30.59 112.20 31.72 112.91 C 31.08 113.92 30.46 114.94 29.86 115.97 C 28.83 115.34 27.80 114.69 26.78 114.04 C 26.21 115.36 25.61 116.67 24.99 117.97 C 25.98 117.49 26.97 117.01 27.96 116.53 C 27.24 118.77 26.43 120.98 25.84 123.25 C 26.96 121.02 28.36 118.97 30.47 117.56 C 30.58 118.41 30.82 120.10 30.93 120.95 C 31.18 117.80 31.46 114.64 32.75 111.71 C 31.30 111.35 29.85 111.01 28.40 110.69 M 57.42 115.03 C 59.79 116.47 62.28 118.05 62.85 120.99 C 64.59 120.12 66.13 118.94 67.36 117.43 C 65.87 117.44 64.38 117.48 62.89 117.53 C 62.56 116.09 62.22 114.66 61.92 113.22 C 60.46 113.92 58.95 114.50 57.42 115.03 M 70.69 141.65 C 70.83 144.56 70.91 147.48 70.66 150.39 C 72.40 150.46 74.13 150.66 75.86 150.90 C 75.30 147.78 75.10 144.60 75.48 141.44 C 73.88 141.51 72.29 141.58 70.69 141.65 Z" />
<path fill="#000000" opacity="1.00" d=" M 32.14 51.17 C 35.08 53.46 36.22 57.83 35.46 61.40 C 34.74 60.81 33.30 59.63 32.57 59.03 C 31.11 62.60 31.43 67.69 27.37 69.53 C 26.90 66.55 27.52 63.59 28.84 60.91 C 30.37 57.82 30.87 54.36 32.14 51.17 Z" />
<path fill="#000000" opacity="1.00" d=" M 59.88 52.30 C 61.10 51.37 63.38 53.12 62.33 54.46 C 61.11 55.40 58.69 53.64 59.88 52.30 Z" />
<path fill="#000000" opacity="1.00" d=" M 39.67 65.92 C 41.25 63.75 42.49 61.36 43.65 58.95 C 44.51 61.36 44.79 63.87 44.15 66.37 C 45.16 65.70 46.17 65.03 47.18 64.35 C 47.44 64.89 47.97 65.97 48.23 66.51 C 47.33 66.50 46.42 66.49 45.52 66.49 C 45.34 67.05 44.97 68.18 44.79 68.74 C 45.93 68.52 47.07 68.30 48.21 68.08 C 47.41 69.83 46.62 71.60 46.29 73.51 C 45.03 73.47 43.77 73.47 42.51 73.51 C 43.71 74.38 44.97 75.16 46.19 76.01 C 44.58 75.80 42.98 75.54 41.37 75.33 C 42.39 76.69 43.51 77.97 44.66 79.21 C 43.86 81.08 43.45 83.06 43.54 85.09 C 42.13 86.05 40.49 86.82 39.47 88.24 C 39.77 92.23 37.63 95.94 38.65 99.94 C 37.72 99.70 36.79 99.46 35.86 99.22 C 35.39 97.82 34.89 96.43 34.36 95.05 C 35.03 93.52 36.43 92.18 36.30 90.41 C 35.99 87.32 37.95 84.76 39.00 82.02 C 38.32 80.31 37.68 78.59 37.07 76.86 C 38.87 73.49 40.29 69.88 41.10 66.15 C 37.34 68.01 38.38 73.55 34.40 75.05 C 34.01 75.24 33.23 75.64 32.84 75.84 C 32.72 75.16 32.49 73.79 32.37 73.11 C 34.14 71.42 35.78 69.61 37.28 67.67 C 37.99 65.75 37.35 63.91 36.27 62.30 C 36.92 61.41 37.56 60.52 38.20 59.63 C 38.59 61.75 39.10 63.84 39.67 65.92 Z" />
<path fill="#000000" opacity="1.00" d=" M 28.14 75.83 C 29.80 75.24 30.40 75.76 29.93 77.38 C 28.26 77.94 27.66 77.42 28.14 75.83 Z" />
<path fill="#000000" opacity="1.00" d=" M 11.10 79.46 C 12.68 78.93 14.66 81.67 12.96 82.59 C 11.74 82.53 9.12 80.33 11.10 79.46 Z" />
<path fill="#000000" opacity="1.00" d=" M 21.97 81.05 C 22.75 79.90 23.89 79.09 24.94 78.21 C 26.29 79.65 29.83 80.79 28.17 83.23 C 26.68 84.28 24.65 83.68 22.95 83.93 C 22.59 82.98 22.26 82.02 21.97 81.05 Z" />
<path fill="#000000" opacity="1.00" d=" M 111.13 83.96 C 111.71 83.81 112.89 83.51 113.48 83.35 C 114.13 84.88 114.82 86.39 115.42 87.95 C 112.92 87.99 111.59 86.20 111.13 83.96 Z" />
<path fill="#000000" opacity="1.00" d=" M 51.72 87.95 C 52.64 87.48 53.56 86.98 54.47 86.47 C 53.34 89.63 53.72 93.09 52.39 96.20 C 51.28 93.58 51.67 90.72 51.72 87.95 Z" />
<path fill="#000000" opacity="1.00" d=" M 111.90 97.56 C 112.49 96.13 113.19 94.73 114.24 93.58 C 114.33 94.84 114.41 96.11 114.46 97.38 C 113.82 97.43 112.54 97.52 111.90 97.56 Z" />
<path fill="#000000" opacity="1.00" d=" M 96.41 96.66 C 98.86 95.74 97.60 101.90 95.52 100.24 C 95.19 98.91 95.49 97.71 96.41 96.66 Z" />
<path fill="#000000" opacity="1.00" d=" M 84.46 99.30 C 86.19 99.30 85.38 101.74 84.05 101.72 C 82.46 101.81 83.26 99.26 84.46 99.30 Z" />
<path fill="#000000" opacity="1.00" d=" M 160.79 107.50 C 163.26 105.07 165.17 102.31 165.85 98.84 C 166.76 100.07 168.93 101.19 168.20 103.03 C 167.50 105.94 166.33 108.78 166.18 111.80 C 166.80 116.28 170.00 119.83 171.31 124.06 C 170.91 130.61 173.47 137.10 172.18 143.63 C 171.66 143.63 170.61 143.63 170.09 143.63 C 168.14 137.45 168.15 130.83 167.59 124.41 C 164.87 118.98 162.50 113.33 160.79 107.50 Z" />
<path fill="#000000" opacity="1.00" d=" M 73.63 105.16 C 75.37 106.81 74.69 108.97 74.06 110.91 C 75.20 110.59 76.35 110.29 77.51 110.02 C 77.52 111.32 77.52 112.63 77.52 113.94 C 76.15 113.43 74.79 112.89 73.39 112.46 C 73.39 110.02 73.27 107.58 73.63 105.16 Z" />
<path fill="#000000" opacity="1.00" d=" M 123.41 110.34 C 125.32 110.74 123.26 112.72 122.15 112.20 C 120.26 111.74 122.25 109.78 123.41 110.34 Z" />
<path fill="#000000" opacity="1.00" d=" M 80.79 119.56 C 82.43 118.30 85.07 121.44 83.16 122.56 C 81.85 122.50 80.34 120.87 80.79 119.56 Z" />
<path fill="#000000" opacity="1.00" d=" M 86.17 122.34 C 89.44 122.81 85.57 125.69 83.92 124.68 C 83.74 123.55 85.19 122.60 86.17 122.34 Z" />
<path fill="#000000" opacity="1.00" d=" M 89.23 128.92 C 89.33 127.52 89.92 126.40 91.00 125.55 C 92.55 125.65 93.65 126.93 94.87 127.76 C 94.40 128.28 93.45 129.32 92.98 129.84 C 91.73 129.53 90.48 129.23 89.23 128.92 Z" />
<path fill="#000000" opacity="1.00" d=" M 85.22 127.22 C 85.88 127.88 85.88 127.88 85.22 127.22 Z" />
<path fill="#000000" opacity="1.00" d=" M 87.08 128.99 C 89.04 130.46 91.09 131.81 92.92 133.46 C 92.06 137.65 89.77 141.41 85.97 143.53 C 83.70 142.29 81.29 140.99 79.75 138.83 C 79.00 136.56 79.24 134.12 79.63 131.80 C 83.09 133.34 82.31 137.88 85.62 139.46 C 87.34 137.62 90.23 136.18 89.46 133.18 C 87.53 134.12 86.43 137.04 84.13 136.85 C 85.11 134.82 86.04 132.78 85.47 130.45 C 85.87 130.09 86.68 129.35 87.08 128.99 Z" />
</g>
</svg>
