<?xml version="1.0" encoding="UTF-8" ?>
<!DOCTYPE svg PUBLIC "-//W3C//DTD SVG 1.1//EN" "http://www.w3.org/Graphics/SVG/1.1/DTD/svg11.dtd">
<svg width="128pt" height="128pt" viewBox="0 0 128 128" version="1.1" xmlns="http://www.w3.org/2000/svg">
<g id="#000000ff">
<path fill="#000000" opacity="1.00" d=" M 46.12 23.21 C 49.52 23.36 53.00 22.83 56.32 23.74 C 59.93 25.16 63.40 27.11 66.11 29.93 C 67.15 28.64 68.12 26.76 70.10 27.36 C 77.63 28.08 85.19 27.73 92.72 27.29 C 97.98 28.88 103.21 31.00 107.74 34.18 C 107.14 33.15 106.56 32.12 106.00 31.08 C 107.25 29.06 109.56 29.43 110.72 31.27 C 114.24 35.94 119.41 39.88 120.47 45.95 C 122.54 52.52 119.81 59.64 122.59 66.06 C 120.68 68.70 119.64 71.72 118.99 74.89 C 117.86 74.05 116.75 73.19 115.69 72.26 C 116.78 74.68 116.28 77.38 116.30 79.95 C 116.24 86.72 116.83 93.91 113.90 100.19 C 108.01 101.41 102.09 102.68 96.05 102.74 C 95.33 100.66 93.00 98.74 94.04 96.43 C 96.68 96.21 99.34 96.24 101.98 96.17 C 100.63 94.11 99.57 91.88 98.22 89.84 C 95.73 87.37 92.21 85.58 91.05 82.08 C 90.47 80.66 89.93 79.22 89.39 77.78 C 84.47 76.32 79.30 76.88 74.30 75.88 C 72.55 77.69 70.58 79.31 69.04 81.31 C 68.02 89.08 65.14 96.96 59.62 102.68 C 56.42 102.36 53.45 103.73 50.27 103.77 C 50.49 102.79 50.76 101.82 51.06 100.86 C 51.99 97.82 55.59 97.01 57.14 94.38 C 55.77 95.42 54.50 96.59 53.22 97.74 C 51.64 94.10 46.62 95.05 43.42 93.79 C 45.20 91.18 47.92 89.13 48.89 86.02 C 50.16 81.68 50.26 77.11 50.79 72.65 C 49.30 71.56 47.88 70.40 46.48 69.22 C 45.66 71.94 45.09 74.75 44.00 77.39 C 41.65 74.93 41.46 71.37 41.22 68.16 C 40.40 69.08 39.58 69.98 38.74 70.88 C 38.47 69.22 38.23 67.57 38.00 65.91 C 36.92 68.01 36.13 70.36 34.24 71.90 C 34.16 69.82 34.22 67.73 34.28 65.64 C 33.72 65.49 32.61 65.20 32.06 65.05 C 32.16 63.47 32.22 61.89 32.29 60.31 C 34.22 59.05 35.08 57.00 35.14 54.74 C 34.56 56.17 34.02 57.62 33.50 59.08 C 32.26 56.87 30.85 54.75 29.07 52.93 C 29.48 55.08 30.06 57.20 30.65 59.31 C 29.41 59.52 28.16 59.72 26.92 59.89 C 26.73 58.80 26.56 57.70 26.40 56.60 C 25.02 57.37 23.61 58.07 22.18 58.74 C 20.65 55.58 19.46 52.28 18.30 48.98 C 19.10 52.46 20.07 55.93 20.13 59.52 C 15.81 57.74 16.78 52.28 14.61 48.87 C 13.98 52.03 15.69 54.89 16.11 57.95 C 13.20 57.10 12.61 52.29 9.16 53.24 C 8.02 53.46 6.88 53.71 5.75 53.99 C 4.06 51.47 1.53 49.25 0.99 46.13 C 4.16 42.25 9.29 39.77 10.86 34.77 C 13.37 34.36 14.76 32.08 16.83 30.86 C 19.53 29.27 22.16 27.37 25.34 26.90 C 25.47 28.10 25.61 29.30 25.74 30.49 C 26.49 30.48 27.99 30.45 28.73 30.43 C 28.62 29.77 28.39 28.45 28.27 27.79 C 33.57 27.30 38.86 26.20 44.21 26.88 C 44.83 25.65 45.48 24.43 46.12 23.21 M 77.48 30.23 C 80.92 31.69 84.71 31.37 88.32 32.03 C 84.99 30.29 81.19 29.84 77.48 30.23 M 53.08 38.83 C 53.15 41.30 54.31 43.49 55.96 45.28 C 55.27 43.02 54.35 40.83 53.08 38.83 M 36.33 60.45 C 35.43 61.44 35.30 62.48 35.92 63.58 C 37.97 64.48 38.71 58.77 36.33 60.45 M 78.58 59.92 C 77.52 60.80 78.46 63.49 79.92 62.32 C 81.05 61.45 80.01 58.78 78.58 59.92 M 74.15 64.09 C 74.20 65.21 74.23 66.32 74.26 67.44 C 76.12 67.48 77.98 67.57 79.84 67.70 C 79.81 66.38 79.79 65.06 79.77 63.74 C 78.54 64.84 77.30 65.94 76.03 66.99 C 75.40 66.03 74.77 65.06 74.15 64.09 M 90.73 65.83 C 90.20 68.58 92.16 70.40 93.94 72.13 C 93.30 69.88 93.41 66.67 90.73 65.83 M 106.85 77.96 C 106.16 73.81 105.02 69.76 103.94 65.70 C 102.79 70.09 104.54 74.29 106.85 77.96 M 82.50 67.02 C 80.35 67.99 82.46 70.29 84.07 69.30 C 86.01 68.39 84.09 65.53 82.50 67.02 M 60.12 75.33 C 59.62 80.49 63.03 85.63 60.62 90.58 C 61.90 88.21 64.05 85.93 63.38 83.02 C 62.52 80.37 61.42 77.79 60.12 75.33 Z" />
</g>
</svg>
