<?xml version="1.0" encoding="UTF-8" ?>
<!DOCTYPE svg PUBLIC "-//W3C//DTD SVG 1.1//EN" "http://www.w3.org/Graphics/SVG/1.1/DTD/svg11.dtd">
<svg width="128pt" height="128pt" viewBox="0 0 128 128" version="1.1" xmlns="http://www.w3.org/2000/svg">
<g id="#000000ff">
<path fill="#000000" opacity="1.00" d=" M 97.60 37.64 C 98.98 35.17 100.00 32.45 101.97 30.36 C 103.95 30.98 105.74 32.25 106.69 34.13 C 106.80 36.44 106.01 38.65 105.46 40.87 C 107.74 43.48 110.59 45.53 112.73 48.27 C 114.01 49.96 115.57 51.48 117.51 52.39 C 119.62 52.81 122.07 52.09 123.72 53.84 C 121.59 58.28 118.05 62.44 113.04 63.55 C 110.73 58.13 104.37 56.82 99.49 54.48 C 99.66 54.98 100.00 55.98 100.17 56.48 C 103.38 59.06 106.30 61.98 109.79 64.20 C 102.58 67.28 94.73 64.92 87.34 64.49 C 85.45 68.46 85.41 73.86 81.29 76.39 C 79.27 77.45 78.36 79.73 76.46 80.90 C 75.58 80.09 74.71 79.27 73.85 78.46 C 72.43 81.11 72.54 84.13 72.61 87.04 C 72.73 91.41 71.52 95.83 72.63 100.15 C 73.05 102.67 76.90 103.07 76.73 105.79 C 73.38 107.21 70.83 103.80 67.82 102.93 C 69.00 104.72 70.91 106.08 71.47 108.24 C 64.93 106.84 60.91 101.06 56.47 96.59 C 52.74 92.70 54.48 86.99 53.76 82.35 C 46.26 83.73 38.96 87.05 31.15 86.17 C 28.90 90.37 27.74 95.16 26.68 99.80 C 29.22 99.59 31.77 98.25 34.30 99.03 C 34.55 100.42 34.76 101.81 34.94 103.21 C 33.21 105.43 30.52 106.04 27.86 105.54 C 27.61 106.94 27.67 108.85 25.84 109.11 C 22.24 109.32 18.48 108.43 15.33 106.64 C 11.34 102.63 9.39 96.85 9.41 91.25 C 11.00 87.32 12.18 82.85 10.47 78.74 C 9.50 77.92 8.12 77.33 8.07 75.86 C 6.63 67.72 7.83 59.45 7.13 51.26 C 12.29 48.38 14.74 42.73 17.95 38.06 C 19.05 37.21 20.61 37.57 21.91 37.34 C 28.26 36.91 34.59 36.15 40.97 36.14 C 47.53 35.16 54.19 35.67 60.70 36.74 C 62.50 37.02 63.96 38.12 65.38 39.19 C 65.32 38.82 65.25 38.46 65.19 38.10 C 63.63 37.03 60.11 36.83 61.91 34.26 C 66.45 35.73 71.17 36.69 75.96 36.52 C 83.20 36.37 90.37 38.32 97.60 37.64 M 15.83 47.40 C 18.77 46.43 20.19 43.43 22.52 41.60 C 27.73 40.47 33.06 40.56 38.33 40.01 C 33.99 39.10 29.50 39.78 25.10 39.73 C 20.51 39.56 18.01 44.06 15.83 47.40 M 102.89 49.70 C 104.19 48.92 105.43 48.05 106.63 47.11 C 105.71 45.86 104.77 44.63 103.78 43.44 C 102.02 45.10 100.61 47.76 102.89 49.70 M 96.52 51.16 C 95.23 52.74 97.68 54.41 99.06 53.39 C 100.22 52.08 97.71 49.81 96.52 51.16 M 42.26 54.31 C 41.20 54.28 39.43 55.33 40.21 56.55 C 41.95 58.02 45.78 54.33 42.26 54.31 M 31.12 83.85 C 32.16 83.72 33.19 83.54 34.21 83.31 C 34.35 82.76 34.63 81.66 34.76 81.11 C 33.21 81.50 32.08 82.63 31.12 83.85 M 21.35 101.19 C 22.89 98.59 23.68 95.57 23.37 92.54 C 20.89 94.69 21.35 98.26 21.35 101.19 Z" />
<path fill="#000000" opacity="1.00" d=" M 6.23 109.19 C 6.82 109.79 6.82 109.79 6.23 109.19 Z" />
</g>
</svg>
