<?xml version="1.0" encoding="UTF-8" ?>
<!DOCTYPE svg PUBLIC "-//W3C//DTD SVG 1.1//EN" "http://www.w3.org/Graphics/SVG/1.1/DTD/svg11.dtd">
<svg width="128pt" height="64pt" viewBox="0 0 128 64" version="1.1" xmlns="http://www.w3.org/2000/svg">
<g id="#000000ff">
<path fill="#000000" opacity="1.00" d=" M 109.12 14.40 C 109.38 12.23 110.22 10.04 112.03 8.70 C 115.99 7.71 119.78 9.34 123.70 9.38 C 123.74 10.17 123.84 11.77 123.88 12.56 C 120.72 12.77 117.56 12.51 114.40 12.37 C 111.86 13.72 112.08 17.95 108.77 18.56 C 103.53 21.82 96.80 19.14 91.70 22.73 C 87.93 20.70 83.93 22.33 79.95 22.34 C 82.60 25.34 85.46 28.12 88.70 30.48 C 89.55 33.60 87.66 36.58 86.71 39.47 C 83.06 41.52 78.96 42.47 75.10 44.03 C 64.00 49.62 51.18 50.08 39.74 54.78 C 36.58 55.81 33.61 57.91 30.14 57.35 C 29.93 57.90 29.52 59.00 29.31 59.56 C 20.75 59.65 12.66 56.08 5.71 51.33 C 5.56 49.40 5.46 47.46 5.45 45.52 C 10.03 42.53 14.31 38.85 19.65 37.29 C 21.64 36.86 22.72 34.96 24.13 33.68 C 24.81 33.66 26.16 33.63 26.84 33.61 C 28.21 37.17 31.93 37.85 35.11 39.01 C 34.47 40.75 32.90 41.72 31.19 42.21 C 32.25 42.24 33.31 42.29 34.37 42.37 C 34.79 41.14 35.20 39.89 35.60 38.65 C 41.86 38.05 48.32 37.74 54.21 35.33 C 62.19 32.55 70.69 32.10 78.98 31.04 C 74.77 29.25 69.37 25.81 70.25 20.52 C 73.20 18.83 75.92 16.42 79.46 16.14 C 85.42 15.40 91.42 14.87 97.39 14.18 C 97.57 14.48 97.93 15.07 98.11 15.36 C 98.51 13.94 99.42 13.41 100.83 13.76 C 103.54 14.47 106.33 14.59 109.12 14.40 M 18.78 44.66 C 17.48 46.97 19.67 48.81 20.89 50.53 C 22.11 49.03 23.60 47.72 24.45 45.95 C 24.08 44.13 23.46 42.38 22.86 40.63 C 20.78 41.21 19.13 42.41 18.78 44.66 Z" />
</g>
</svg>
