<?xml version="1.0" encoding="UTF-8" ?>
<!DOCTYPE svg PUBLIC "-//W3C//DTD SVG 1.1//EN" "http://www.w3.org/Graphics/SVG/1.1/DTD/svg11.dtd">
<svg width="200pt" height="200pt" viewBox="0 0 200 200" version="1.1" xmlns="http://www.w3.org/2000/svg">
<g id="#000000ff">
<path fill="#000000" opacity="1.00" d=" M 147.58 37.65 C 148.17 37.41 149.36 36.94 149.95 36.71 C 154.07 41.72 155.81 48.06 157.71 54.12 C 157.79 55.85 156.74 57.36 156.18 58.94 C 155.41 58.76 153.86 58.38 153.08 58.19 C 154.10 58.73 155.12 59.28 156.14 59.85 C 151.56 61.79 146.58 62.33 141.82 63.68 C 136.94 64.85 132.29 66.94 127.25 67.45 C 127.28 65.70 127.43 63.96 127.61 62.22 C 127.11 63.13 126.62 64.06 126.13 64.98 C 125.37 59.85 123.12 55.09 122.41 49.95 C 121.79 48.00 123.23 46.35 123.93 44.67 C 126.06 46.98 128.44 49.05 130.58 51.36 C 130.43 49.04 130.43 46.71 130.11 44.40 C 131.40 43.96 132.71 43.55 134.03 43.18 C 135.48 44.61 136.82 46.13 138.18 47.64 C 138.37 44.80 138.52 41.96 138.82 39.13 C 144.66 38.33 145.87 44.92 147.35 49.06 C 147.41 45.26 147.15 41.44 147.58 37.65 M 141.78 44.76 C 141.60 48.21 140.77 51.56 139.11 54.60 C 136.20 52.85 134.75 49.75 133.27 46.85 C 133.25 49.76 133.14 52.67 132.50 55.52 C 131.69 55.45 130.07 55.30 129.26 55.22 C 129.80 57.85 129.96 60.54 129.82 63.22 C 137.40 60.20 145.40 58.54 153.40 57.09 C 152.95 53.24 152.10 49.43 150.96 45.73 C 150.19 49.00 149.54 52.67 145.96 53.99 C 143.73 51.33 142.95 47.94 141.78 44.76 M 138.19 48.20 C 138.81 48.82 138.81 48.82 138.19 48.20 Z" />
<path fill="#000000" opacity="1.00" d=" M 80.39 62.75 C 91.31 61.45 101.85 65.19 111.85 69.09 C 111.39 69.68 110.45 70.86 109.99 71.45 C 101.94 68.62 93.73 65.62 85.12 65.23 C 84.58 65.35 83.49 65.60 82.94 65.72 C 84.06 67.20 85.32 68.76 87.37 68.65 C 95.72 69.18 104.03 70.59 111.76 73.91 C 111.27 73.47 110.28 72.61 109.78 72.18 C 110.38 71.50 111.58 70.13 112.18 69.45 C 113.14 70.11 114.10 70.77 115.06 71.43 C 122.27 69.13 129.95 68.83 137.39 67.56 C 140.43 67.26 145.33 67.34 145.04 71.62 C 142.26 70.95 139.38 70.26 136.53 70.99 C 131.30 72.14 125.81 72.21 120.80 74.28 C 122.06 75.25 123.49 75.78 125.08 75.88 C 123.55 76.31 122.00 76.71 120.43 76.99 C 120.96 77.86 121.51 78.72 122.08 79.57 C 120.65 78.51 118.93 78.29 117.22 78.57 C 118.04 78.14 118.87 77.74 119.71 77.35 C 119.37 77.23 118.68 76.97 118.33 76.85 C 118.96 76.62 120.21 76.15 120.84 75.92 C 120.81 75.55 120.75 74.80 120.72 74.42 C 115.04 75.48 110.14 78.68 105.43 81.84 C 106.33 83.38 107.31 84.92 109.00 85.69 C 108.16 86.35 107.37 87.05 106.57 87.76 C 105.39 87.58 104.22 87.36 103.05 87.20 C 102.09 91.58 97.90 93.81 94.09 95.36 C 94.14 94.63 94.24 93.18 94.30 92.45 C 95.36 92.62 96.42 92.79 97.48 92.96 C 97.05 92.07 96.62 91.19 96.19 90.30 C 97.14 90.47 98.10 90.63 99.06 90.80 C 100.28 88.26 101.67 85.81 102.93 83.29 C 98.79 84.05 94.74 85.29 90.84 86.86 C 89.52 87.35 88.44 88.27 87.73 89.47 C 87.33 89.06 86.93 88.66 86.52 88.26 C 83.60 90.07 80.23 91.34 76.78 90.34 C 74.02 93.09 70.16 94.00 66.73 95.56 C 58.03 98.82 50.36 104.27 43.53 110.49 C 38.06 113.12 33.16 116.80 28.13 120.19 C 27.74 124.95 29.18 131.32 34.40 132.78 C 36.01 133.50 37.08 134.99 38.39 136.11 C 38.35 130.45 43.13 127.06 46.08 122.82 C 48.44 123.63 50.92 123.88 53.38 123.42 C 54.48 121.62 55.58 119.75 57.50 118.70 C 57.51 120.57 57.53 122.44 57.68 124.31 C 59.66 123.51 61.74 122.85 63.45 121.53 C 61.32 121.27 58.06 122.98 57.93 119.66 C 62.99 119.25 68.27 120.20 73.10 118.23 C 73.95 119.31 74.78 120.41 75.63 121.50 C 75.57 120.42 75.51 119.34 75.45 118.26 C 76.63 117.92 77.82 117.60 79.00 117.28 C 78.77 118.54 78.55 119.80 78.34 121.06 C 79.48 119.85 80.24 118.22 81.66 117.31 C 84.80 116.07 88.28 117.13 91.47 116.00 C 91.48 115.34 91.51 114.03 91.52 113.37 C 91.86 113.73 92.55 114.45 92.89 114.81 C 93.75 113.14 94.59 111.47 95.51 109.84 C 95.47 111.35 95.38 112.86 95.28 114.37 C 97.05 114.45 98.82 114.46 100.58 114.63 C 100.42 114.04 100.09 112.86 99.92 112.26 C 101.06 112.92 102.19 113.59 103.31 114.27 C 103.45 112.13 103.52 109.99 103.45 107.85 C 103.96 108.51 104.47 109.17 104.98 109.85 C 107.01 108.93 109.07 109.70 111.01 110.47 C 110.48 109.09 109.96 107.71 109.48 106.32 C 111.09 105.49 112.68 104.61 114.17 103.56 C 113.82 104.13 113.11 105.28 112.76 105.85 C 113.61 105.76 115.31 105.58 116.16 105.49 C 115.97 104.85 115.59 103.56 115.40 102.92 C 117.63 102.45 119.92 102.20 122.15 102.85 C 120.68 103.87 119.07 103.98 117.31 103.17 C 117.32 104.51 117.30 105.85 117.25 107.19 C 115.10 107.82 112.95 107.60 110.91 106.69 C 111.48 108.05 112.06 109.40 112.60 110.77 C 116.99 110.94 119.82 105.98 124.32 107.37 C 125.40 106.29 126.65 105.39 127.92 104.54 C 128.42 105.32 129.42 106.89 129.92 107.67 C 129.31 107.64 128.10 107.58 127.49 107.55 C 127.85 108.63 128.16 109.72 128.46 110.82 C 130.36 110.53 132.27 110.31 134.19 110.16 C 134.28 108.69 134.36 107.22 134.53 105.76 C 135.95 107.01 137.29 108.36 138.78 109.53 C 138.07 108.56 137.34 107.61 136.58 106.68 C 137.42 106.22 138.25 105.76 139.08 105.30 C 137.05 105.55 135.01 105.63 132.98 105.44 C 133.12 106.29 133.40 108.00 133.54 108.86 C 131.30 108.60 130.19 106.83 129.14 105.09 C 132.26 103.38 135.76 102.64 138.97 101.14 C 139.56 101.83 140.15 102.51 140.75 103.20 C 140.80 102.43 140.91 100.90 140.96 100.13 C 142.15 100.27 143.35 100.40 144.55 100.52 C 143.44 101.78 142.35 103.04 141.28 104.33 C 142.27 104.67 143.26 105.04 144.23 105.45 C 142.92 101.81 147.16 103.65 149.19 102.97 L 147.88 102.39 C 147.25 102.48 146.00 102.66 145.37 102.75 C 145.17 101.98 144.78 100.45 144.58 99.68 C 148.05 99.42 151.28 98.09 154.63 97.28 C 155.10 98.14 155.57 99.01 156.05 99.88 C 153.92 99.84 151.79 99.69 149.67 99.84 C 153.74 102.20 158.06 99.63 162.19 99.00 C 159.06 97.41 156.28 95.14 154.63 91.98 C 155.20 91.93 156.34 91.81 156.90 91.76 C 159.14 93.69 161.51 95.39 164.26 96.54 C 166.34 95.28 168.82 95.29 171.14 95.75 C 172.95 94.75 174.70 93.65 176.44 92.53 C 177.21 93.24 178.05 93.91 178.69 94.76 C 176.82 96.60 174.27 98.30 171.53 97.49 C 168.56 96.58 167.63 100.51 165.14 101.13 C 158.95 103.45 152.60 105.43 146.74 108.54 C 150.16 109.16 153.10 107.05 156.35 106.48 C 154.66 110.21 151.46 113.26 147.76 114.96 C 147.48 113.58 147.27 112.20 147.09 110.80 C 145.80 112.09 144.46 113.34 143.13 114.60 C 143.31 112.50 143.97 110.53 144.88 108.64 C 139.35 111.71 133.67 114.63 127.32 115.51 C 122.96 117.36 118.42 118.80 114.18 120.96 C 114.36 122.86 114.39 124.77 114.44 126.68 C 112.50 126.09 110.58 125.43 108.63 124.89 C 109.54 125.66 110.47 126.40 111.43 127.12 C 111.30 128.36 111.21 129.60 111.14 130.84 C 109.75 130.66 108.36 130.52 106.97 130.43 C 107.54 129.11 108.08 127.77 108.58 126.42 C 106.58 127.95 106.24 130.41 106.11 132.75 C 108.28 132.24 110.47 131.82 112.68 131.52 C 113.12 129.95 113.54 128.36 114.06 126.81 C 115.54 128.67 116.03 131.34 114.25 133.18 C 111.84 137.66 106.11 141.70 101.12 138.64 C 99.92 136.27 102.11 133.79 102.37 131.36 C 102.80 127.59 105.78 124.99 107.44 121.77 C 108.35 119.45 110.87 118.81 112.89 117.79 C 112.28 116.83 111.66 115.88 111.06 114.92 C 109.55 116.53 107.78 117.88 105.75 118.78 C 105.63 117.76 105.38 115.73 105.26 114.71 C 102.09 115.94 99.58 118.30 96.55 119.80 C 97.50 118.36 98.54 116.98 99.49 115.55 C 98.73 115.75 97.20 116.17 96.43 116.38 C 95.83 117.88 95.19 119.37 94.38 120.77 C 93.73 119.96 93.10 119.13 92.49 118.29 C 91.11 119.71 89.53 120.90 87.93 122.06 C 92.01 122.14 97.30 119.51 100.31 123.30 C 91.77 124.86 82.76 125.50 74.28 123.42 C 73.49 126.79 70.46 128.85 68.38 131.41 C 64.64 135.09 62.54 139.94 59.62 144.22 C 58.15 143.41 56.26 142.70 55.94 140.82 C 55.29 137.45 55.50 133.94 54.36 130.66 C 54.17 129.56 52.46 128.31 51.58 129.54 C 48.52 132.50 45.33 135.38 42.57 138.65 C 40.92 146.23 38.37 153.57 36.06 160.96 C 34.50 162.83 32.67 164.45 30.97 166.19 C 28.61 162.39 27.93 157.90 26.07 153.87 C 26.90 152.72 27.72 151.57 28.43 150.35 C 27.44 151.01 26.49 151.70 25.54 152.40 C 25.05 151.24 24.51 150.10 23.94 148.98 C 24.41 151.39 27.08 154.25 24.63 156.39 C 23.72 157.37 22.43 156.19 21.37 156.12 C 21.25 152.68 21.29 149.23 21.86 145.82 C 17.62 148.40 14.52 143.46 11.83 140.90 C 15.15 138.47 18.32 135.85 21.28 132.98 C 17.64 134.84 14.04 136.96 11.87 140.55 C 8.72 139.58 8.92 136.40 8.40 133.72 C 10.60 132.61 12.86 130.37 15.35 132.01 C 15.41 129.00 19.37 128.91 21.59 129.31 C 23.20 130.50 24.80 131.71 26.44 132.85 C 25.70 129.59 24.60 126.37 24.43 123.01 C 25.35 120.38 26.37 117.48 28.77 115.83 C 35.31 110.62 42.37 106.11 48.92 100.93 C 54.53 96.55 61.51 94.49 67.00 89.98 C 72.55 87.05 78.52 84.94 84.68 83.69 C 87.03 82.96 90.04 83.21 91.51 80.85 C 89.06 80.41 86.65 80.88 84.35 81.71 C 84.09 80.07 84.85 77.83 83.28 76.70 C 81.48 75.67 83.18 73.88 83.79 72.72 C 82.15 69.63 80.19 66.38 80.39 62.75 M 85.44 71.80 C 85.70 72.27 86.21 73.22 86.47 73.70 C 92.70 75.25 99.02 77.25 105.53 76.71 C 105.17 76.25 104.45 75.33 104.09 74.87 C 98.11 72.70 91.67 72.63 85.44 71.80 M 86.69 76.68 C 86.53 77.67 86.36 78.67 86.19 79.66 C 87.57 79.17 88.96 78.69 90.34 78.21 C 89.13 77.68 87.90 77.20 86.69 76.68 M 92.12 78.28 C 92.19 79.50 92.30 80.72 92.47 81.93 C 94.39 81.34 96.30 80.71 98.15 79.91 C 96.13 79.38 94.13 78.81 92.12 78.28 M 120.15 109.22 C 120.78 109.81 120.78 109.81 120.15 109.22 M 119.88 111.74 C 117.27 112.74 114.35 114.39 114.01 117.46 C 116.62 116.92 119.14 115.78 121.13 113.99 C 123.06 112.08 126.01 111.36 127.24 108.75 C 124.45 108.91 122.60 111.37 119.88 111.74 M 107.45 110.24 C 106.52 110.94 104.85 112.15 105.52 113.48 C 107.10 114.44 110.35 110.18 107.45 110.24 M 126.14 112.17 C 126.81 112.85 126.81 112.85 126.14 112.17 M 89.18 118.21 C 89.80 118.79 89.80 118.79 89.18 118.21 M 64.78 125.90 C 64.66 126.74 65.00 127.74 64.36 128.42 C 61.98 131.62 58.11 134.32 58.60 138.78 C 61.70 132.28 66.69 127.00 72.41 122.73 C 69.66 123.26 67.50 125.25 64.78 125.90 M 54.96 128.58 C 54.39 130.21 54.92 130.74 56.56 130.19 C 57.12 128.55 56.59 128.01 54.96 128.58 M 57.36 130.98 C 57.67 134.43 60.14 129.22 57.36 130.98 M 27.78 134.50 C 27.93 138.41 25.06 141.53 25.39 145.52 C 26.96 146.39 28.54 147.31 29.71 148.70 C 30.02 148.56 30.62 148.28 30.92 148.13 C 32.21 151.21 30.10 154.74 30.50 158.07 C 32.77 156.09 33.21 153.05 34.09 150.33 C 34.49 150.70 35.28 151.44 35.67 151.81 C 33.16 147.40 37.43 143.00 38.02 138.56 C 36.57 138.06 35.12 137.55 33.67 137.03 C 33.82 140.18 33.23 143.28 32.68 146.37 C 31.86 146.76 30.24 147.54 29.42 147.93 C 28.57 143.52 31.66 139.35 30.17 134.99 C 29.57 134.86 28.38 134.62 27.78 134.50 M 108.15 134.91 C 107.70 136.35 108.16 136.85 109.52 136.42 C 109.94 134.97 109.49 134.46 108.15 134.91 Z" />
<path fill="#000000" opacity="1.00" d=" M 144.74 68.26 C 152.10 70.74 159.92 69.01 167.45 70.21 C 171.35 70.78 175.55 69.95 179.17 71.89 C 183.09 73.41 186.25 76.31 190.11 77.98 C 189.10 79.98 188.99 82.26 188.28 84.36 C 186.24 87.27 184.11 90.12 181.68 92.72 C 181.04 92.70 179.77 92.66 179.14 92.65 C 179.92 90.09 181.44 87.77 184.35 87.52 C 184.57 84.99 186.06 82.85 186.99 80.55 C 182.91 82.10 179.45 85.97 174.73 84.54 C 177.34 81.81 180.67 80.02 183.80 77.99 C 183.32 77.49 182.37 76.48 181.89 75.97 C 179.45 77.79 176.70 79.15 173.81 80.12 C 173.29 78.06 173.54 75.95 173.87 73.88 C 168.65 73.69 163.45 73.15 158.22 73.25 C 155.72 76.02 153.76 79.34 150.89 81.72 C 150.15 81.73 148.67 81.73 147.93 81.74 C 149.19 77.65 153.05 75.13 155.23 71.53 C 152.31 73.66 148.68 71.86 145.39 72.05 C 145.20 70.78 144.97 69.52 144.74 68.26 M 151.21 78.25 C 151.82 78.81 151.82 78.81 151.21 78.25 Z" />
<path fill="#000000" opacity="1.00" d=" M 131.47 74.99 C 132.83 75.53 134.18 76.08 135.57 76.56 C 134.47 76.95 133.37 77.36 132.27 77.77 C 132.81 78.78 133.36 79.79 133.91 80.80 C 132.67 80.49 131.44 80.21 130.20 79.94 C 131.81 78.71 131.71 76.79 131.47 74.99 Z" />
<path fill="#000000" opacity="1.00" d=" M 161.59 76.60 C 162.92 76.53 164.26 76.50 165.61 76.50 C 164.43 79.25 165.04 82.12 166.84 84.46 C 166.46 84.77 165.71 85.39 165.34 85.71 C 166.12 85.48 166.91 85.25 167.70 85.03 C 168.49 85.97 169.29 86.91 170.09 87.85 C 168.46 87.74 166.82 87.65 165.19 87.66 C 162.41 84.58 162.34 80.44 161.59 76.60 Z" />
<path fill="#000000" opacity="1.00" d=" M 134.95 78.06 C 136.37 77.52 136.82 77.96 136.32 79.38 C 134.89 79.92 134.43 79.48 134.95 78.06 Z" />
<path fill="#000000" opacity="1.00" d=" M 147.48 82.15 C 148.22 82.19 149.72 82.29 150.47 82.33 C 151.09 85.73 152.59 88.82 153.73 92.06 C 152.05 91.24 150.09 90.67 148.90 89.15 C 147.02 87.31 147.81 84.48 147.48 82.15 Z" />
<path fill="#000000" opacity="1.00" d=" M 97.28 85.78 C 98.78 84.88 99.43 87.53 97.82 87.72 C 96.20 88.55 95.83 86.20 97.28 85.78 Z" />
<path fill="#000000" opacity="1.00" d=" M 119.23 90.45 C 120.48 88.67 121.12 86.18 123.44 85.49 C 122.67 87.61 120.92 89.08 119.23 90.45 Z" />
<path fill="#000000" opacity="1.00" d=" M 176.12 86.04 C 176.78 86.72 176.78 86.72 176.12 86.04 Z" />
<path fill="#000000" opacity="1.00" d=" M 112.32 88.06 C 115.41 88.03 111.67 91.80 110.19 91.43 C 109.72 90.04 111.12 88.58 112.32 88.06 Z" />
<path fill="#000000" opacity="1.00" d=" M 77.42 101.83 C 79.37 98.49 83.57 97.47 86.32 94.86 C 84.43 98.37 80.58 99.78 77.42 101.83 Z" />
<path fill="#000000" opacity="1.00" d=" M 134.10 96.45 C 135.52 96.02 136.03 96.51 135.65 97.90 C 134.22 98.33 133.71 97.85 134.10 96.45 Z" />
<path fill="#000000" opacity="1.00" d=" M 124.42 98.93 C 127.51 98.67 130.59 98.33 133.68 98.02 C 130.50 99.76 127.59 102.65 123.76 102.51 C 124.39 101.31 125.35 100.52 126.62 100.17 C 126.07 99.86 124.97 99.24 124.42 98.93 Z" />
<path fill="#000000" opacity="1.00" d=" M 100.37 108.56 C 101.41 107.84 103.24 109.50 102.07 110.46 C 100.94 111.30 99.37 109.56 100.37 108.56 Z" />
<path fill="#000000" opacity="1.00" d=" M 14.05 121.96 C 17.48 120.21 21.20 117.47 25.24 118.65 C 23.64 123.74 16.74 122.79 14.46 127.33 C 13.64 129.04 11.25 130.15 10.71 127.59 C 10.67 128.43 10.65 129.27 10.61 130.11 C 7.14 131.57 2.62 132.46 0.24 128.66 C 4.84 126.40 9.71 124.72 14.05 121.96 Z" />
<path fill="#000000" opacity="1.00" d=" M 100.37 121.23 C 101.01 121.86 101.01 121.86 100.37 121.23 Z" />
</g>
</svg>
