<?xml version="1.0" encoding="UTF-8" ?>
<!DOCTYPE svg PUBLIC "-//W3C//DTD SVG 1.1//EN" "http://www.w3.org/Graphics/SVG/1.1/DTD/svg11.dtd">
<svg width="128pt" height="64pt" viewBox="0 0 128 64" version="1.1" xmlns="http://www.w3.org/2000/svg">
<g id="#000000ff">
<path fill="#000000" opacity="1.00" d=" M 107.45 13.49 C 109.48 12.67 111.10 14.41 112.55 15.54 C 115.30 16.74 119.63 16.25 120.83 19.58 C 119.82 19.50 117.81 19.35 116.80 19.27 C 117.43 19.53 118.69 20.06 119.32 20.32 C 115.13 26.33 113.02 33.58 108.12 39.13 C 106.09 42.15 102.36 42.86 99.12 43.85 C 97.89 41.85 97.55 39.23 95.63 37.74 C 95.14 41.59 94.04 45.33 93.45 49.16 C 93.81 52.77 95.82 56.08 95.61 59.78 C 91.80 56.68 93.15 50.67 90.08 46.96 C 91.13 43.72 91.91 40.39 92.61 37.06 C 88.57 38.39 84.71 40.61 80.33 40.55 C 81.17 39.70 82.03 38.88 82.92 38.08 C 80.57 38.28 78.22 38.36 75.88 38.55 C 80.05 39.29 82.53 43.16 83.06 47.13 C 79.75 46.30 78.08 43.01 75.95 40.66 C 74.63 40.63 73.31 40.60 72.00 40.56 C 68.61 44.03 68.15 48.93 66.35 53.20 C 65.97 53.45 65.23 53.94 64.86 54.19 C 65.26 49.48 66.23 44.83 67.29 40.23 C 66.50 40.20 64.92 40.14 64.14 40.11 C 59.98 45.53 53.04 47.26 47.66 51.11 C 47.66 49.87 48.12 48.86 49.04 48.08 C 53.02 44.66 57.71 42.22 62.12 39.41 C 60.44 39.36 58.77 39.40 57.10 39.29 C 54.05 38.57 50.77 36.76 47.79 38.70 C 44.22 41.03 40.41 43.44 38.33 47.30 C 29.95 52.33 20.41 55.88 10.64 56.55 C 10.61 55.97 10.56 54.81 10.53 54.23 C 9.43 54.49 8.31 54.72 7.19 54.91 C 6.90 50.43 10.72 46.96 14.37 45.03 C 13.41 48.09 10.11 49.60 9.06 52.63 C 14.18 52.72 19.15 51.32 24.10 50.21 C 27.28 49.46 30.57 48.36 32.85 45.88 C 35.88 42.57 38.37 38.48 42.63 36.58 C 46.60 34.65 51.53 32.55 52.14 27.57 C 60.89 24.85 69.95 23.62 79.01 22.43 C 78.58 23.15 77.73 24.59 77.31 25.31 C 80.11 21.93 84.62 21.19 88.44 19.47 C 90.69 18.96 92.66 17.37 94.91 17.10 C 95.24 17.44 95.91 18.11 96.24 18.45 C 96.66 18.21 97.07 17.97 97.48 17.73 C 97.15 17.50 96.50 17.04 96.17 16.81 C 96.26 16.53 96.43 15.97 96.52 15.69 C 100.22 15.31 103.90 14.64 107.45 13.49 M 102.80 23.18 C 104.48 25.31 106.88 23.58 108.72 22.73 C 108.74 21.57 108.77 20.42 108.80 19.26 C 107.33 18.74 105.84 17.81 104.22 18.19 C 101.90 18.44 100.68 21.76 102.80 23.18 M 99.15 40.23 C 99.81 40.89 99.81 40.89 99.15 40.23 M 35.32 44.84 C 34.01 45.20 34.00 47.76 35.68 46.82 C 37.17 46.58 37.00 43.79 35.32 44.84 Z" />
</g>
</svg>
