<?xml version="1.0" encoding="UTF-8" ?>
<!DOCTYPE svg PUBLIC "-//W3C//DTD SVG 1.1//EN" "http://www.w3.org/Graphics/SVG/1.1/DTD/svg11.dtd">
<svg width="128pt" height="64pt" viewBox="0 0 128 64" version="1.1" xmlns="http://www.w3.org/2000/svg">
<g id="#000000ff">
<path fill="#000000" opacity="1.00" d=" M 13.63 4.73 C 15.19 3.56 15.50 0.70 17.81 0.87 C 18.77 2.72 19.35 4.76 20.46 6.53 C 21.84 7.64 23.43 8.44 24.92 9.39 C 25.87 8.87 26.83 8.36 27.78 7.85 C 32.03 11.11 37.40 12.16 42.34 13.90 C 45.29 15.06 48.51 14.24 51.20 12.81 C 58.03 14.34 65.21 14.83 72.10 13.33 C 74.57 13.43 75.94 11.10 77.62 9.68 C 84.46 9.29 91.15 11.91 96.25 16.42 C 97.38 16.07 98.51 15.70 99.65 15.34 C 102.82 17.48 105.11 20.54 107.34 23.58 C 109.53 30.10 110.85 36.90 111.67 43.71 C 112.16 47.23 113.98 50.37 116.28 53.01 C 117.45 52.46 118.60 51.87 119.76 51.29 C 119.63 52.67 119.51 54.04 119.38 55.41 C 115.60 55.90 109.50 55.99 109.00 51.00 C 106.80 46.14 107.05 40.46 103.88 36.06 C 101.97 31.69 98.65 28.16 94.75 25.50 C 94.20 29.85 93.05 34.16 90.66 37.89 C 92.33 40.74 93.13 43.99 94.41 47.02 C 93.75 51.46 92.91 55.98 91.03 60.09 C 88.42 62.65 84.17 62.14 80.79 62.75 C 80.53 62.03 80.01 60.59 79.75 59.88 C 81.41 59.57 83.07 59.23 84.71 58.84 C 84.70 58.17 84.69 56.82 84.69 56.15 C 83.16 56.63 81.63 57.10 80.09 57.55 C 79.80 56.80 79.50 56.05 79.21 55.30 C 82.67 52.69 84.33 48.75 85.45 44.70 C 81.17 41.77 78.79 36.86 74.14 34.31 C 71.81 34.95 69.44 35.59 66.99 35.36 C 60.56 34.82 53.98 36.23 47.68 34.32 C 44.73 41.42 45.50 49.33 45.58 56.84 C 44.91 58.19 43.29 58.92 41.95 59.46 C 38.76 59.38 35.25 60.39 32.45 58.37 C 33.23 57.03 34.00 55.68 34.68 54.28 C 36.06 54.03 37.43 53.80 38.81 53.57 C 38.30 49.16 38.76 44.69 37.79 40.34 C 37.27 38.32 37.50 35.77 35.59 34.44 C 30.87 30.65 28.43 24.93 24.56 20.41 C 21.82 18.44 18.13 16.35 15.04 18.87 C 14.68 18.62 13.97 18.11 13.61 17.86 C 12.18 19.32 10.51 20.52 8.57 21.20 C 8.99 18.93 8.96 16.59 7.27 14.81 C 8.26 10.52 14.05 9.50 13.63 4.73 M 33.50 17.03 C 32.59 18.30 34.68 20.04 35.69 18.78 C 36.58 17.53 34.51 15.83 33.50 17.03 Z" />
</g>
</svg>
