<?xml version="1.0" encoding="UTF-8" ?>
<!DOCTYPE svg PUBLIC "-//W3C//DTD SVG 1.1//EN" "http://www.w3.org/Graphics/SVG/1.1/DTD/svg11.dtd">
<svg width="180pt" height="180pt" viewBox="0 0 180 180" version="1.1" xmlns="http://www.w3.org/2000/svg">
<g id="#000000ff">
<path fill="#000000" opacity="1.00" d=" M 54.56 30.08 C 53.90 26.01 54.01 21.65 55.99 17.93 C 61.89 23.47 62.90 31.79 65.32 39.09 C 65.07 40.18 64.45 40.95 63.45 41.41 C 59.17 43.55 54.40 44.24 49.84 45.53 C 46.27 46.31 42.82 48.01 39.08 47.73 C 37.34 47.25 36.89 45.31 36.21 43.88 C 34.42 39.01 31.83 34.27 31.95 28.93 C 34.84 31.22 37.65 33.62 40.52 35.95 C 40.49 32.06 40.59 28.17 40.53 24.28 C 44.47 24.48 45.37 29.36 47.71 31.93 C 46.99 27.79 46.91 23.48 48.00 19.39 C 51.32 22.06 53.05 26.21 54.56 30.08 M 55.11 35.87 C 53.50 34.58 52.00 33.15 50.45 31.79 C 49.65 33.80 48.93 35.83 48.11 37.83 C 46.25 36.59 44.78 34.91 43.90 32.85 C 42.29 35.37 42.52 38.31 42.44 41.16 C 40.43 39.84 38.57 38.33 36.74 36.78 C 37.84 39.43 39.01 42.06 39.84 44.81 C 41.23 44.44 42.60 43.98 43.95 43.46 C 49.44 40.91 55.59 40.35 61.16 38.00 C 60.33 34.36 59.06 30.81 59.05 27.04 C 57.56 29.91 56.90 33.14 55.11 35.87 Z" />
<path fill="#000000" opacity="1.00" d=" M 83.88 22.88 C 86.92 20.90 90.60 21.06 94.00 21.81 C 91.88 23.11 89.74 24.36 87.55 25.52 C 87.33 30.19 86.67 34.90 87.58 39.53 C 88.65 43.34 91.41 46.51 91.89 50.51 C 92.69 50.57 93.49 50.64 94.29 50.71 C 92.24 44.07 91.90 36.93 92.82 30.06 C 93.19 27.43 94.29 24.97 95.76 22.77 C 95.53 26.22 93.94 29.55 95.25 32.98 C 95.06 38.89 95.48 45.08 98.62 50.27 C 97.74 50.64 96.87 51.01 96.00 51.38 C 97.29 51.45 98.57 51.53 99.86 51.62 C 98.97 46.64 100.43 41.59 103.34 37.52 C 104.58 37.45 105.82 37.39 107.06 37.34 C 105.66 41.05 104.35 44.97 105.12 48.98 C 105.01 54.78 105.49 60.53 106.80 66.19 C 109.33 67.38 111.83 68.64 114.37 69.83 C 113.83 63.80 115.24 57.87 117.10 52.18 C 117.84 52.23 119.34 52.33 120.08 52.38 C 119.25 56.55 118.27 60.69 117.97 64.93 C 119.32 65.64 120.70 67.11 122.34 66.27 C 124.78 64.86 126.29 62.29 128.18 60.26 C 124.77 56.49 122.10 52.11 118.40 48.59 C 116.35 46.71 116.19 43.73 116.62 41.15 C 118.03 42.79 119.30 44.55 120.68 46.21 C 119.45 41.49 117.20 37.09 116.19 32.29 C 116.27 34.14 116.42 35.98 116.64 37.82 C 116.00 37.70 114.72 37.48 114.08 37.36 C 112.48 34.28 112.64 30.73 112.39 27.36 C 113.08 26.85 113.78 26.34 114.48 25.83 C 114.81 27.83 115.20 29.82 115.57 31.82 C 116.73 31.64 117.88 31.46 119.03 31.27 C 118.32 30.79 116.89 29.83 116.18 29.35 C 116.43 28.92 116.94 28.04 117.20 27.61 C 117.97 28.73 118.75 29.85 119.52 30.97 C 120.82 29.97 122.06 28.90 123.25 27.76 C 126.65 30.32 130.06 32.90 132.98 36.01 C 134.77 37.95 137.33 39.43 138.05 42.12 C 138.70 45.17 138.73 48.33 138.84 51.44 C 138.50 52.81 138.17 54.19 137.84 55.57 C 135.90 55.44 133.98 55.20 132.07 54.87 C 132.56 55.91 133.04 56.96 133.53 58.00 C 132.33 61.91 129.52 64.89 127.10 68.07 C 129.94 65.03 134.48 63.24 135.68 58.97 C 136.94 56.30 139.79 54.82 141.17 52.19 C 143.63 49.39 144.45 44.83 148.49 43.83 C 147.51 48.29 148.33 53.08 146.27 57.30 C 145.21 60.74 142.77 63.45 140.86 66.43 C 143.93 65.24 146.79 63.47 150.03 62.74 C 150.39 63.11 151.10 63.83 151.45 64.19 C 153.52 61.99 153.51 58.44 156.28 56.85 C 156.31 55.43 156.34 54.01 156.38 52.59 C 158.62 52.06 160.74 51.17 162.82 50.20 C 162.69 51.77 162.50 53.37 161.66 54.74 C 158.89 60.87 154.83 66.30 150.16 71.10 C 158.17 68.61 161.31 60.08 166.15 54.07 C 166.47 54.80 167.13 56.26 167.46 56.99 C 165.28 63.25 160.76 68.19 155.78 72.38 C 158.39 71.67 160.88 70.57 163.50 69.86 C 163.43 71.62 163.38 73.79 161.39 74.48 C 155.89 76.82 148.73 79.80 143.43 75.45 C 143.39 76.08 143.31 77.33 143.28 77.96 C 140.58 76.71 137.64 76.56 134.72 76.85 C 138.28 77.95 142.12 78.54 145.13 80.92 C 143.94 81.58 142.74 82.24 141.54 82.89 C 143.81 84.86 146.65 86.56 147.62 89.58 C 148.89 92.48 151.77 94.71 151.85 98.06 C 152.19 102.30 148.52 105.30 145.55 107.72 C 145.65 108.61 145.84 110.39 145.93 111.27 C 142.71 111.44 139.48 111.36 136.26 111.49 C 134.28 108.09 131.80 104.31 127.50 103.92 C 127.42 108.67 127.95 113.50 129.47 118.02 C 129.06 118.24 128.24 118.67 127.83 118.89 C 126.59 117.08 124.64 116.19 122.61 115.55 C 123.35 116.94 124.22 118.25 125.09 119.57 C 124.38 119.53 122.95 119.44 122.24 119.40 C 122.19 116.84 122.27 114.18 124.46 112.47 C 123.69 112.43 122.16 112.35 121.39 112.31 C 120.88 109.94 120.15 107.62 119.44 105.30 C 116.28 109.60 113.76 114.30 110.62 118.61 C 108.47 121.23 108.15 124.66 107.45 127.84 C 106.64 132.26 105.02 136.50 104.56 140.98 C 103.87 149.42 102.90 157.96 104.66 166.33 C 105.11 166.77 106.01 167.64 106.46 168.07 C 106.08 168.59 105.31 169.64 104.92 170.16 C 104.25 169.99 102.91 169.65 102.24 169.48 C 99.34 161.68 100.55 153.07 100.49 144.92 C 101.13 142.95 99.61 141.60 98.52 140.20 C 100.35 134.82 99.48 128.94 98.10 123.56 C 96.36 127.19 94.10 130.90 94.40 135.09 C 94.71 137.65 94.50 140.22 94.07 142.76 C 97.26 146.89 96.85 153.06 95.00 157.72 C 94.27 156.07 93.62 154.39 93.07 152.67 C 94.05 151.98 95.04 151.31 96.03 150.64 C 95.37 150.59 94.04 150.48 93.38 150.43 C 93.42 148.63 93.56 146.84 93.74 145.05 C 92.91 144.56 92.09 144.06 91.27 143.57 C 92.32 138.21 88.98 133.36 89.55 128.03 C 89.41 124.45 88.20 120.98 88.53 117.36 C 89.02 117.37 90.00 117.38 90.49 117.39 C 90.50 121.44 92.02 125.23 92.96 129.11 C 93.80 127.73 94.63 126.35 95.49 124.99 C 92.98 123.97 92.01 120.01 94.56 118.50 C 96.50 116.80 98.76 115.46 100.46 113.48 C 100.75 111.81 100.58 110.09 100.62 108.41 C 98.85 109.93 96.65 111.63 97.66 114.28 C 94.41 114.87 91.14 114.31 87.88 114.17 C 92.22 112.64 97.20 110.69 98.95 106.02 C 99.55 103.85 101.31 101.34 99.66 99.24 C 97.57 96.25 98.12 91.42 101.38 89.44 C 101.54 91.41 101.47 93.40 101.64 95.38 C 102.69 97.14 103.89 98.81 105.11 100.45 C 104.54 101.27 103.95 102.07 103.35 102.87 C 103.96 103.03 105.17 103.36 105.77 103.53 C 105.34 104.29 104.47 105.82 104.04 106.58 C 105.12 106.21 106.20 105.82 107.27 105.43 C 107.80 103.48 108.35 101.54 108.91 99.60 C 110.39 101.62 111.66 103.80 113.54 105.50 C 113.17 104.89 112.42 103.68 112.05 103.07 C 112.49 102.40 113.36 101.06 113.80 100.39 C 114.93 101.12 115.77 103.79 117.35 102.42 C 118.37 101.26 119.18 99.93 120.11 98.70 C 120.85 100.54 121.57 102.40 122.46 104.18 C 122.00 102.74 121.47 101.33 120.95 99.93 C 122.53 98.64 124.01 97.23 125.21 95.58 C 125.51 96.17 126.10 97.35 126.39 97.94 C 129.51 95.76 132.48 93.36 135.69 91.32 C 134.53 94.58 132.07 97.09 130.19 99.93 C 134.03 101.11 136.17 104.54 138.14 107.76 C 139.53 107.64 140.93 107.54 142.33 107.43 C 142.89 106.77 143.45 106.12 144.03 105.48 C 143.08 105.65 142.14 105.83 141.21 106.01 C 140.76 105.65 139.88 104.95 139.44 104.59 C 139.38 103.97 139.25 102.72 139.19 102.10 C 140.28 100.84 141.33 99.55 142.37 98.26 C 142.96 98.22 144.15 98.15 144.75 98.12 C 144.76 98.78 144.78 100.11 144.79 100.78 C 143.77 101.50 142.75 102.20 141.73 102.92 C 142.32 103.29 143.51 104.01 144.11 104.38 C 145.65 102.76 147.57 101.48 148.84 99.63 C 148.85 98.33 148.61 97.04 148.49 95.76 C 144.22 94.77 143.54 89.96 140.71 87.29 C 139.02 85.54 137.79 83.44 136.50 81.40 C 134.21 80.11 131.62 78.99 131.78 75.93 C 131.72 76.74 131.61 78.38 131.56 79.20 C 129.55 77.68 127.57 76.14 125.61 74.58 C 123.72 74.54 121.84 74.40 119.96 74.20 C 120.26 72.91 120.58 71.62 120.92 70.34 C 119.61 70.54 118.31 70.72 117.00 70.84 C 117.32 72.02 117.62 73.20 117.91 74.38 C 114.74 74.75 111.59 73.86 109.20 71.74 C 107.20 69.94 104.53 70.28 102.13 70.81 C 100.09 66.01 93.40 66.07 92.00 60.73 C 91.53 61.33 90.59 62.53 90.12 63.13 C 88.48 61.31 86.84 59.50 85.10 57.78 C 85.45 57.45 86.15 56.79 86.50 56.46 C 85.95 56.50 84.83 56.60 84.27 56.65 C 80.55 52.42 73.86 48.20 75.52 41.73 C 75.99 38.79 74.48 35.68 75.84 32.88 C 76.82 30.46 77.20 27.84 78.45 25.52 C 79.41 25.35 80.36 25.18 81.32 25.00 C 83.32 27.85 81.65 31.26 83.09 34.17 C 83.56 31.75 84.14 29.35 84.32 26.89 C 84.07 25.56 82.95 24.18 83.88 22.88 M 79.41 28.27 C 79.49 31.72 82.39 26.73 79.41 28.27 M 121.79 30.49 C 124.24 34.35 127.20 38.12 131.15 40.52 C 128.78 36.59 125.65 33.01 121.79 30.49 M 79.55 33.07 C 78.56 34.03 79.67 36.55 81.07 35.47 C 82.16 34.54 80.90 31.99 79.55 33.07 M 82.43 34.39 C 81.51 35.24 82.57 37.41 83.82 36.62 C 84.79 35.78 83.66 33.62 82.43 34.39 M 120.36 34.40 C 121.90 40.33 123.98 46.28 127.54 51.33 C 128.51 52.66 128.34 54.40 128.72 55.93 C 129.86 54.04 131.36 52.41 132.97 50.90 C 131.48 48.08 131.51 44.23 128.40 42.58 C 125.15 40.43 123.00 37.16 120.36 34.40 M 80.02 38.83 C 80.41 43.25 82.67 47.18 85.91 50.13 C 86.29 48.90 86.67 47.66 87.09 46.43 C 86.34 46.87 84.86 47.73 84.11 48.17 C 84.63 46.30 85.31 44.49 85.88 42.64 C 84.92 44.04 84.07 45.51 83.16 46.94 C 82.64 44.05 82.49 40.84 80.02 38.83 M 133.15 43.33 C 132.31 44.53 132.59 45.23 133.97 45.43 C 134.83 44.22 134.56 43.52 133.15 43.33 M 134.08 48.31 C 132.55 51.21 137.54 48.55 134.08 48.31 M 87.07 50.50 C 88.82 54.72 92.32 57.78 96.45 59.60 C 95.86 58.29 95.99 56.35 94.44 55.69 C 91.79 54.25 89.49 52.28 87.07 50.50 M 98.24 54.24 C 98.81 54.82 98.81 54.82 98.24 54.24 M 127.70 70.61 C 131.78 70.51 135.62 68.98 139.48 67.79 C 137.75 67.16 136.95 65.86 137.23 64.04 C 135.05 67.58 131.06 68.64 127.70 70.61 M 136.76 72.01 C 141.69 73.33 146.22 69.75 149.27 66.25 C 144.79 67.69 141.79 72.27 136.76 72.01 M 102.98 116.58 C 102.58 118.01 103.06 118.52 104.42 118.12 C 104.82 116.70 104.34 116.18 102.98 116.58 Z" />
<path fill="#000000" opacity="1.00" d=" M 82.34 71.32 C 84.97 68.32 88.15 65.87 90.90 62.98 C 92.28 63.87 93.64 64.78 95.02 65.67 C 94.60 67.15 93.41 68.55 93.78 70.16 C 94.37 71.72 96.26 71.87 97.51 72.68 C 95.24 74.16 92.65 74.93 90.09 75.73 C 89.45 75.15 88.82 74.57 88.18 74.00 C 87.15 75.11 86.10 76.20 85.02 77.27 C 84.31 76.41 83.59 75.56 82.86 74.72 C 82.73 75.40 82.47 76.78 82.33 77.46 C 77.67 77.74 72.74 76.79 68.33 78.71 C 62.95 81.71 57.20 84.53 53.36 89.53 C 51.88 89.60 50.47 89.96 49.27 90.86 C 48.91 90.11 48.54 89.37 48.17 88.62 C 47.54 89.79 46.91 90.96 46.29 92.13 C 47.78 92.80 49.25 93.49 50.70 94.24 C 50.19 99.03 50.93 103.78 52.54 108.30 C 53.65 109.35 55.04 110.02 56.34 110.79 C 56.36 109.03 56.37 107.28 56.37 105.53 C 55.17 106.18 53.99 106.85 52.77 107.46 C 54.38 106.00 56.14 104.71 57.74 103.24 C 58.44 104.92 59.17 106.58 60.01 108.20 C 58.91 109.15 57.83 110.10 56.75 111.07 C 58.68 112.17 60.69 113.13 62.70 114.09 C 62.66 114.78 62.60 116.15 62.56 116.83 C 63.60 116.08 64.65 115.35 65.71 114.64 C 65.54 113.61 65.37 112.58 65.20 111.55 C 63.38 112.02 61.54 112.39 59.67 112.62 C 60.28 111.20 60.93 109.80 61.63 108.43 C 64.24 109.50 67.09 110.29 68.92 112.60 C 71.14 112.31 73.37 112.08 75.60 111.77 C 76.08 109.50 76.55 107.22 76.91 104.92 C 77.33 104.78 78.18 104.48 78.60 104.33 C 78.66 106.91 78.50 109.49 78.47 112.07 C 81.59 112.85 84.27 114.74 86.99 116.39 C 85.33 116.72 83.64 116.63 81.97 116.42 C 85.99 120.36 86.00 126.22 87.47 131.32 C 88.17 135.25 89.23 139.09 90.48 142.88 C 90.10 148.36 91.90 153.63 92.50 159.04 C 93.39 158.90 94.29 158.77 95.20 158.65 C 96.32 162.62 96.11 166.85 97.59 170.72 C 97.50 172.20 97.29 173.67 97.17 175.15 C 94.42 176.01 91.55 175.25 89.27 173.59 C 90.45 165.93 88.61 158.19 88.28 150.48 C 87.31 147.50 87.40 144.40 87.49 141.31 C 85.87 137.96 85.23 134.29 84.10 130.78 C 82.01 126.09 80.48 121.17 79.31 116.17 C 77.96 117.39 76.39 118.42 75.29 119.89 C 74.53 121.65 74.08 123.52 73.28 125.26 C 72.63 124.72 71.35 123.65 70.71 123.11 C 71.47 124.00 72.24 124.90 73.01 125.79 C 72.09 127.95 70.81 129.99 70.26 132.30 C 70.54 136.29 70.36 140.38 71.64 144.22 C 72.48 146.76 72.63 149.44 72.71 152.10 C 74.31 154.55 74.93 157.35 74.28 160.23 C 76.28 161.29 79.78 162.12 79.64 164.93 C 79.24 168.41 75.11 165.51 73.35 164.57 C 69.34 162.99 69.12 158.27 68.09 154.71 C 66.63 148.37 64.53 142.15 64.12 135.63 C 64.83 134.81 65.54 133.99 66.25 133.17 C 65.05 134.20 63.85 135.24 62.61 136.22 C 62.58 132.85 63.24 129.54 63.57 126.21 C 61.32 123.47 58.56 121.07 57.12 117.77 C 54.91 122.58 55.62 129.37 50.27 132.14 C 50.13 127.75 51.98 123.66 53.66 119.70 C 54.36 117.84 56.16 116.98 57.87 116.24 C 55.54 114.65 53.42 112.32 50.40 112.33 C 48.86 107.02 48.57 101.44 48.54 95.95 C 48.90 94.25 46.21 91.72 45.85 94.64 C 45.19 101.14 48.28 107.43 47.75 113.96 C 47.33 118.67 48.91 123.29 48.27 128.01 C 47.29 133.93 47.84 139.96 47.27 145.91 C 47.38 151.03 45.75 156.04 46.30 161.16 C 47.81 161.91 48.76 161.51 49.15 159.95 C 48.12 151.01 49.24 142.02 49.70 133.08 C 50.38 132.55 51.75 131.47 52.43 130.93 C 53.15 139.69 51.77 148.44 52.32 157.19 C 51.80 157.48 50.74 158.06 50.22 158.35 C 52.41 161.23 56.18 163.98 55.29 168.01 C 53.23 167.56 51.19 165.98 49.10 167.16 C 47.31 166.04 45.45 165.03 43.41 164.48 C 42.00 159.71 43.49 154.86 43.69 150.04 C 45.17 138.97 44.55 127.76 44.08 116.65 C 43.56 108.37 42.09 100.14 42.55 91.82 C 42.45 88.57 44.90 86.11 46.53 83.54 C 48.14 80.88 50.96 79.45 53.72 78.27 C 55.95 77.45 57.12 75.03 59.43 74.36 C 63.26 73.17 67.43 71.97 71.08 74.29 C 74.86 73.94 79.76 74.79 82.34 71.32 M 52.31 84.30 C 52.35 87.67 55.34 82.76 52.31 84.30 M 66.49 131.30 C 68.11 128.62 69.36 125.69 69.83 122.58 C 67.79 125.00 67.09 128.26 66.49 131.30 M 93.30 172.63 C 93.95 172.44 95.24 172.05 95.89 171.86 C 95.45 170.75 94.83 169.73 94.25 168.70 C 94.29 167.13 94.30 165.55 94.19 163.99 C 92.70 166.58 93.68 169.78 93.30 172.63 Z" />
<path fill="#000000" opacity="1.00" d=" M 125.03 81.74 C 126.89 81.66 128.76 81.66 130.63 81.58 C 131.24 82.46 131.85 83.34 132.46 84.22 C 130.87 85.18 129.31 86.19 127.77 87.21 C 126.74 85.45 125.72 83.67 125.03 81.74 Z" />
<path fill="#000000" opacity="1.00" d=" M 65.14 102.99 C 68.44 102.22 71.72 101.35 75.13 101.35 C 73.88 102.44 72.79 104.22 70.93 104.23 C 69.01 103.79 67.10 103.27 65.14 102.99 Z" />
</g>
</svg>
