<?xml version="1.0" encoding="UTF-8" ?>
<!DOCTYPE svg PUBLIC "-//W3C//DTD SVG 1.1//EN" "http://www.w3.org/Graphics/SVG/1.1/DTD/svg11.dtd">
<svg width="180pt" height="180pt" viewBox="0 0 180 180" version="1.1" xmlns="http://www.w3.org/2000/svg">
<g id="#000000ff">
<path fill="#000000" opacity="1.00" d=" M 75.76 29.52 C 77.37 25.59 77.00 20.32 80.95 17.82 C 82.42 19.65 83.67 21.70 84.02 24.06 C 85.01 29.44 86.57 34.86 86.20 40.38 C 77.61 42.09 68.95 43.42 60.32 44.77 C 58.31 43.89 58.61 41.46 58.14 39.68 C 57.44 34.45 56.15 29.30 55.71 24.04 C 55.33 22.30 56.87 21.21 57.86 20.06 C 61.24 22.93 63.45 26.80 66.05 30.31 C 67.17 26.56 66.22 21.53 69.92 19.10 C 73.63 21.36 74.29 25.80 75.76 29.52 M 59.56 27.63 C 61.17 31.81 61.85 36.26 62.41 40.68 C 68.95 39.27 75.45 37.74 82.01 36.43 C 81.53 33.39 81.05 30.34 80.48 27.31 C 79.13 29.90 78.38 33.07 75.88 34.85 C 74.88 34.72 73.90 34.56 72.93 34.35 C 72.21 32.07 71.51 29.78 70.78 27.51 C 69.70 30.25 68.97 33.42 66.12 34.91 C 63.47 32.94 61.30 30.43 59.56 27.63 Z" />
<path fill="#000000" opacity="1.00" d=" M 38.42 27.52 C 39.73 27.44 41.03 27.63 42.34 27.71 C 43.25 33.45 45.36 39.22 44.28 45.07 C 43.73 47.57 46.31 48.76 47.73 50.29 C 50.80 52.78 50.88 57.07 52.69 60.35 C 53.78 63.75 57.19 65.36 59.84 67.38 C 59.73 67.64 59.52 68.17 59.41 68.44 C 64.65 68.37 70.29 69.76 75.02 66.69 C 74.82 67.89 74.42 70.27 74.22 71.47 C 75.04 69.83 75.74 68.15 76.55 66.51 C 77.69 67.75 78.81 69.02 79.93 70.28 C 81.55 67.72 83.80 65.87 86.93 65.68 C 86.13 66.95 85.30 68.21 84.47 69.47 C 89.02 69.54 93.56 69.30 97.97 68.08 C 99.32 68.81 100.68 69.54 102.10 70.18 C 100.89 68.93 99.56 67.81 98.27 66.66 C 99.95 66.45 101.63 66.29 103.31 66.13 C 103.34 67.29 103.37 68.45 103.40 69.62 C 106.89 70.26 110.22 71.58 113.76 71.97 C 117.26 72.53 121.00 71.82 124.25 73.58 C 130.09 75.65 133.87 80.75 137.83 85.20 C 139.32 86.87 139.89 89.08 140.69 91.11 C 137.91 90.75 136.38 88.38 134.52 86.58 C 134.62 88.30 134.71 90.03 134.80 91.76 C 137.18 92.66 140.03 92.24 142.20 93.49 C 143.98 96.84 145.49 100.33 146.78 103.90 C 145.82 105.05 145.00 106.28 144.31 107.60 C 143.07 103.30 140.79 99.42 138.16 95.83 C 130.99 88.16 123.50 80.34 113.81 75.88 C 110.34 73.46 105.63 74.49 102.26 71.85 C 102.37 72.64 102.58 74.24 102.69 75.04 C 100.52 75.02 99.30 73.90 99.15 71.79 C 98.11 71.50 97.07 71.20 96.04 70.90 C 96.94 71.75 97.84 72.61 98.74 73.47 C 93.58 73.25 88.55 74.42 83.45 74.97 C 83.35 74.32 83.14 73.03 83.04 72.39 C 80.07 72.90 76.75 74.39 73.98 72.47 C 72.88 73.37 71.77 74.26 70.67 75.16 C 72.39 74.75 74.15 74.47 75.93 74.37 C 74.97 77.13 74.09 80.02 71.82 82.02 C 71.71 81.19 71.48 79.54 71.37 78.72 C 70.21 79.55 69.04 80.38 67.86 81.18 C 67.84 79.01 67.86 76.73 66.06 75.18 C 66.57 74.45 67.09 73.72 67.60 72.99 C 64.83 73.40 62.04 73.91 59.22 73.77 C 54.69 71.00 50.09 68.31 45.74 65.21 C 47.09 65.80 48.43 66.37 49.79 66.94 C 49.06 63.63 47.00 60.31 43.52 59.47 C 43.27 57.40 42.68 55.38 41.36 53.74 C 41.91 53.01 42.46 52.27 43.00 51.53 C 41.92 49.78 40.43 48.05 40.59 45.86 C 40.68 41.40 39.42 37.07 39.26 32.63 C 36.26 35.62 33.98 39.21 32.13 43.00 C 29.66 42.29 27.33 41.19 25.03 40.05 C 24.28 43.29 22.53 46.53 23.94 49.87 C 25.70 48.75 27.44 47.59 29.22 46.50 C 29.73 48.46 30.34 50.40 30.98 52.32 C 29.64 52.46 28.31 52.61 26.98 52.78 C 25.39 51.52 23.74 50.33 22.10 49.13 C 18.60 51.39 14.23 53.35 12.65 57.51 C 11.56 59.70 10.49 61.92 9.78 64.28 C 8.75 63.15 7.74 62.00 6.74 60.84 C 8.11 60.33 9.47 59.79 10.81 59.22 C 9.76 59.35 7.66 59.60 6.60 59.73 C 6.35 58.53 6.13 57.33 5.93 56.12 C 11.05 53.42 14.69 48.85 18.96 45.07 C 17.58 39.79 18.81 34.31 18.72 28.94 C 19.70 28.68 20.68 28.41 21.65 28.15 C 23.43 32.23 25.88 36.29 30.45 37.58 C 32.54 33.82 35.43 30.57 38.42 27.52 M 76.15 70.82 C 76.26 74.17 79.12 69.29 76.15 70.82 M 122.80 75.14 C 124.97 78.00 126.70 81.54 130.29 82.85 C 128.56 79.62 125.26 77.76 122.80 75.14 Z" />
<path fill="#000000" opacity="1.00" d=" M 32.07 49.90 C 33.48 51.01 34.95 52.04 36.46 53.01 C 35.17 53.30 33.88 53.59 32.60 53.89 C 32.43 52.56 32.26 51.23 32.07 49.90 Z" />
<path fill="#000000" opacity="1.00" d=" M 28.33 57.32 C 31.82 57.05 35.36 57.44 38.05 59.89 C 36.81 61.24 35.65 62.66 34.51 64.11 C 35.81 65.18 36.98 67.51 38.83 65.92 C 39.32 65.48 40.31 64.61 40.81 64.18 C 42.51 66.53 44.26 68.87 45.57 71.48 C 43.72 70.14 42.41 68.29 41.43 66.26 C 40.21 67.14 38.85 67.65 37.36 67.80 C 37.62 69.10 37.90 70.40 38.22 71.69 C 39.28 72.50 40.31 73.33 41.34 74.18 C 41.40 75.40 41.51 76.61 41.60 77.83 C 40.72 77.64 39.84 77.45 38.96 77.27 C 38.68 76.03 38.35 74.80 37.98 73.59 C 37.04 73.45 35.17 73.17 34.24 73.02 C 35.07 75.08 35.98 77.11 36.88 79.14 C 36.43 79.60 35.55 80.51 35.11 80.97 C 35.90 81.96 36.67 82.97 37.43 84.00 C 36.06 83.07 34.74 82.07 33.37 81.15 C 33.59 84.47 34.22 87.74 34.49 91.05 C 35.29 89.63 36.05 88.17 36.84 86.74 C 37.25 88.78 37.64 90.83 37.91 92.89 C 38.82 91.59 39.76 90.31 40.82 89.14 C 42.05 94.36 45.95 98.63 46.87 103.86 C 46.58 103.94 46.00 104.10 45.71 104.18 C 43.75 102.58 41.69 101.12 39.42 100.01 C 39.79 102.96 40.77 105.89 40.25 108.88 C 39.44 108.64 38.64 108.39 37.83 108.13 C 37.71 109.64 37.18 112.61 35.16 110.86 C 35.12 109.15 35.51 107.46 35.63 105.77 C 35.17 106.79 34.74 107.84 34.33 108.89 C 32.56 108.59 30.77 108.45 28.98 108.34 C 28.94 105.09 27.74 102.20 26.33 99.35 C 26.56 97.37 28.01 95.76 28.68 93.92 C 29.90 94.57 31.13 95.21 32.36 95.83 C 31.10 93.61 29.32 91.77 27.56 89.95 C 27.57 91.34 27.62 92.74 27.70 94.13 C 26.33 94.39 24.96 94.64 23.58 94.86 C 23.82 92.67 23.48 90.62 21.68 89.17 C 22.90 87.24 24.34 85.47 26.02 83.91 C 25.22 84.08 23.62 84.41 22.82 84.58 C 23.14 83.68 23.46 82.79 23.79 81.90 C 21.70 81.89 19.12 80.46 19.71 78.03 C 20.13 75.54 19.11 73.25 18.35 70.95 C 19.58 69.40 20.66 67.74 21.70 66.06 C 23.26 67.62 24.53 70.53 27.17 69.06 C 26.24 67.95 25.26 66.89 24.25 65.86 C 24.67 65.40 25.50 64.49 25.92 64.03 C 24.20 64.43 22.47 64.81 20.73 65.14 C 20.51 66.06 20.08 67.92 19.87 68.84 C 19.01 68.17 18.17 67.50 17.33 66.81 C 17.34 67.87 17.38 69.98 17.40 71.04 C 16.48 69.72 15.61 68.37 14.76 67.01 C 16.36 66.30 17.99 65.64 19.60 64.95 C 17.54 64.55 15.45 64.28 13.37 63.93 L 13.92 63.12 C 14.39 62.65 15.33 61.71 15.80 61.24 C 19.14 62.23 22.56 63.22 26.06 62.23 C 27.14 64.38 28.65 66.24 30.27 68.01 C 30.66 70.83 30.46 73.71 31.12 76.50 C 31.54 73.39 31.38 70.24 31.74 67.13 C 32.67 68.92 33.44 70.78 34.21 72.64 C 34.99 72.53 36.54 72.31 37.32 72.20 C 32.99 68.04 33.52 60.80 28.33 57.32 M 21.05 71.26 C 21.08 71.88 21.14 73.10 21.17 73.72 C 22.08 73.07 23.00 72.43 23.92 71.79 C 24.20 72.27 24.76 73.23 25.04 73.71 C 24.87 73.11 24.53 71.91 24.36 71.31 C 23.26 71.30 22.15 71.29 21.05 71.26 M 35.42 91.21 C 35.58 94.59 38.34 89.63 35.42 91.21 M 33.21 100.23 C 33.83 100.83 33.83 100.83 33.21 100.23 M 31.94 105.52 C 32.57 105.49 33.81 105.41 34.43 105.38 C 34.45 104.03 34.46 102.69 34.45 101.35 C 33.57 102.71 32.78 104.13 31.94 105.52 Z" />
<path fill="#000000" opacity="1.00" d=" M 12.48 61.19 C 14.86 61.43 11.42 64.80 11.21 62.42 C 11.52 62.11 12.16 61.49 12.48 61.19 Z" />
<path fill="#000000" opacity="1.00" d=" M 108.26 76.34 C 108.99 76.32 110.44 76.28 111.17 76.26 C 111.39 77.31 111.61 78.37 111.80 79.43 C 113.62 79.33 115.56 78.90 117.31 79.60 C 120.80 81.57 124.02 84.01 126.92 86.79 C 125.13 86.65 123.34 86.53 121.57 86.35 C 121.29 87.05 120.75 88.46 120.48 89.16 C 120.46 88.12 120.45 87.08 120.44 86.04 C 119.84 86.19 118.63 86.49 118.03 86.64 C 118.28 87.96 118.56 89.28 118.83 90.60 C 118.13 90.60 116.74 90.59 116.05 90.59 C 116.74 88.93 117.46 87.28 118.16 85.63 C 117.45 85.61 116.02 85.56 115.30 85.54 C 115.40 86.62 115.50 87.70 115.59 88.78 C 114.62 88.76 113.66 88.74 112.70 88.73 C 113.53 87.35 114.29 85.93 115.04 84.50 C 112.44 82.91 109.75 81.49 107.14 79.93 C 107.47 78.72 107.84 77.52 108.26 76.34 Z" />
<path fill="#000000" opacity="1.00" d=" M 50.50 83.52 C 51.21 82.64 51.91 81.76 52.61 80.87 C 54.46 82.32 56.47 83.53 58.46 84.78 C 58.52 85.74 58.59 86.70 58.65 87.66 C 55.87 86.39 53.25 84.84 50.50 83.52 Z" />
<path fill="#000000" opacity="1.00" d=" M 67.37 85.93 C 69.00 83.94 71.21 82.66 73.58 81.72 C 72.81 83.30 72.05 84.88 71.35 86.49 C 70.25 86.80 69.15 87.13 68.06 87.47 C 67.89 87.08 67.54 86.32 67.37 85.93 Z" />
<path fill="#000000" opacity="1.00" d=" M 68.72 95.80 C 71.11 97.99 74.97 99.59 74.86 103.39 C 74.17 103.53 72.80 103.81 72.12 103.95 C 71.78 102.31 71.53 100.66 71.50 98.99 C 70.43 99.35 69.36 99.70 68.28 100.03 C 68.40 98.62 68.53 97.21 68.72 95.80 Z" />
<path fill="#000000" opacity="1.00" d=" M 59.40 97.78 C 60.31 97.62 61.22 97.46 62.13 97.31 C 62.82 100.99 63.32 105.01 66.00 107.88 C 65.51 108.22 64.54 108.92 64.05 109.27 C 62.55 105.42 61.10 101.55 59.40 97.78 Z" />
<path fill="#000000" opacity="1.00" d=" M 112.98 102.69 C 115.43 101.31 117.84 99.77 120.56 98.98 C 119.96 105.36 118.37 111.64 118.16 118.06 C 117.99 122.75 120.19 128.09 124.93 129.70 C 127.98 132.08 129.82 135.74 133.00 138.04 C 133.29 134.29 130.85 131.24 130.19 127.70 C 128.24 121.04 131.20 114.41 132.61 107.96 C 133.65 107.63 134.69 107.28 135.72 106.91 C 135.28 107.97 134.75 109.00 134.43 110.11 C 135.48 111.95 136.87 113.65 137.00 115.87 C 135.62 117.12 133.11 117.99 133.49 120.27 C 133.13 126.50 133.40 134.58 139.66 137.85 C 138.44 133.64 136.98 129.50 136.27 125.17 C 138.24 122.59 137.44 119.43 137.03 116.49 C 137.51 116.52 138.47 116.56 138.95 116.59 C 138.74 117.33 138.33 118.80 138.12 119.54 C 139.36 118.62 140.60 117.71 141.87 116.83 C 140.83 114.69 139.98 112.40 141.15 110.09 C 142.48 112.82 142.98 115.84 143.90 118.71 C 144.43 120.68 146.54 121.67 147.16 123.58 C 147.61 125.32 147.48 127.12 147.43 128.90 C 148.78 128.24 150.13 127.60 151.51 127.01 C 151.31 130.84 151.12 134.91 153.06 138.39 C 153.64 135.73 154.04 133.05 154.67 130.40 C 157.91 133.23 156.96 137.89 158.73 141.48 C 160.03 140.98 161.33 140.48 162.64 140.00 C 164.74 141.61 166.95 143.07 169.07 144.66 C 169.56 143.67 170.07 142.69 170.59 141.72 C 172.88 142.86 175.33 143.69 177.54 144.99 C 177.47 145.55 177.33 146.67 177.26 147.23 C 172.71 146.93 167.53 148.98 163.83 145.30 C 163.35 146.18 162.87 147.06 162.40 147.94 C 157.11 147.05 151.78 145.69 147.25 142.69 C 145.04 140.93 142.06 141.95 139.48 141.47 C 140.56 143.57 142.35 145.67 141.42 148.20 C 140.37 149.66 139.20 151.04 138.18 152.53 C 137.13 151.35 136.08 150.18 135.03 149.01 C 135.60 152.20 136.49 155.33 136.88 158.56 C 136.15 158.57 134.68 158.58 133.95 158.59 C 133.04 151.92 130.93 145.30 126.85 139.88 C 127.41 141.56 128.10 143.20 128.79 144.83 C 127.99 144.74 126.39 144.57 125.59 144.48 C 127.30 146.33 128.81 148.37 129.87 150.67 C 125.46 150.56 122.93 146.65 119.67 144.33 C 115.34 141.02 110.80 137.94 107.01 133.99 C 104.87 131.44 101.14 130.32 100.04 126.94 C 98.57 122.91 96.65 118.97 96.16 114.65 C 93.21 115.56 90.11 115.63 87.05 115.49 C 88.70 117.76 90.08 120.21 91.46 122.66 C 87.27 121.78 83.04 121.10 78.95 119.84 C 75.88 118.63 72.68 120.27 69.56 119.51 C 67.08 118.06 64.58 116.63 61.85 115.68 C 62.81 116.81 63.78 117.93 64.72 119.07 C 61.31 123.02 60.26 128.16 57.85 132.67 C 57.42 132.34 56.57 131.67 56.15 131.34 C 56.03 132.49 57.09 133.05 57.84 133.69 C 57.22 137.42 56.42 141.15 56.36 144.96 C 56.54 147.09 54.75 148.54 53.72 150.20 C 54.86 154.35 54.34 158.67 53.86 162.88 C 53.75 164.38 52.97 165.45 51.53 166.09 C 51.17 162.27 51.55 158.41 50.93 154.61 C 50.12 157.89 49.82 161.26 49.17 164.56 C 48.02 163.25 46.96 161.87 45.97 160.43 C 45.73 161.00 45.49 161.57 45.25 162.14 C 45.71 162.28 46.64 162.56 47.10 162.70 C 46.07 163.72 45.03 164.74 44.00 165.75 C 45.75 165.67 47.51 165.62 49.27 165.66 C 48.36 168.00 46.14 169.17 43.82 169.71 C 41.98 169.28 40.34 168.31 38.61 167.59 C 39.57 166.39 40.57 165.21 41.57 164.03 C 41.14 162.71 40.67 161.41 40.32 160.06 C 41.97 158.34 44.55 158.18 46.67 157.34 C 46.35 149.89 47.05 142.43 46.49 134.99 C 46.03 129.85 47.73 124.77 47.02 119.66 C 43.84 128.07 42.77 137.13 43.29 146.07 C 43.88 150.04 39.88 152.56 40.07 156.55 C 38.39 155.87 36.68 155.24 34.95 154.66 C 35.62 156.13 36.33 157.59 37.00 159.06 C 35.16 159.54 33.32 160.08 31.47 160.53 C 31.47 158.18 31.62 155.83 31.91 153.50 C 33.52 153.38 35.13 153.29 36.74 153.23 C 36.09 146.65 36.17 140.01 36.36 133.41 C 36.61 131.31 35.49 129.41 34.87 127.48 C 34.05 125.52 34.63 123.33 34.02 121.33 C 32.99 117.55 31.36 113.83 31.68 109.82 C 33.45 111.04 35.29 112.16 37.21 113.15 C 37.14 114.65 37.41 116.13 38.72 117.05 C 38.31 117.63 37.51 118.78 37.11 119.35 C 38.54 118.18 39.93 116.96 41.32 115.74 C 40.52 115.41 38.92 114.76 38.12 114.43 C 38.43 113.75 38.74 113.07 39.05 112.39 C 40.48 113.24 41.94 114.05 43.44 114.79 C 42.65 112.97 41.77 111.20 40.99 109.38 C 42.60 109.55 44.20 109.84 45.81 109.94 C 46.58 108.53 45.87 106.19 47.79 105.65 C 49.45 105.85 49.04 108.61 49.56 109.88 C 50.49 116.82 51.86 124.11 49.77 130.95 C 49.45 135.48 50.15 139.98 51.06 144.40 C 51.40 138.73 51.82 133.04 51.38 127.37 C 51.98 127.39 53.18 127.43 53.77 127.45 C 53.57 129.36 53.45 131.30 53.87 133.19 C 55.21 130.38 56.83 127.56 57.35 124.48 C 55.97 120.93 54.42 117.40 54.06 113.57 C 54.78 113.39 56.23 113.04 56.95 112.87 C 56.13 113.60 55.31 114.34 54.49 115.08 C 55.43 115.27 57.29 115.65 58.22 115.84 C 58.21 113.20 59.88 111.14 61.31 109.11 C 61.81 111.12 62.30 113.13 62.92 115.11 C 65.01 111.34 67.75 108.04 70.85 105.07 C 72.11 106.33 73.41 107.55 74.82 108.64 C 74.50 109.27 74.19 109.90 73.88 110.54 C 77.23 110.05 80.62 110.46 83.98 110.69 C 88.34 108.09 93.14 106.26 97.24 103.24 C 100.32 104.47 103.30 106.20 106.77 105.75 C 104.96 104.45 103.52 102.75 102.86 100.60 C 105.17 101.55 107.31 102.82 109.33 104.28 C 109.82 103.11 110.29 101.94 110.77 100.77 C 111.32 101.25 112.42 102.21 112.98 102.69 M 70.28 108.93 C 70.50 112.33 73.13 107.23 70.28 108.93 M 90.33 109.08 C 90.57 112.51 93.21 107.43 90.33 109.08 M 41.32 114.56 C 41.68 115.95 42.06 117.34 42.45 118.72 C 43.65 118.53 44.85 118.34 46.04 118.12 C 44.35 117.09 42.82 115.85 41.32 114.56 M 81.86 116.36 C 82.94 117.14 84.02 117.92 85.08 118.73 C 86.02 118.09 86.96 117.44 87.90 116.78 C 85.88 116.65 83.87 116.54 81.86 116.36 M 57.25 118.28 C 57.86 118.89 57.86 118.89 57.25 118.28 M 142.27 122.41 C 140.78 125.44 145.64 122.39 142.27 122.41 M 113.65 129.41 C 114.08 132.97 117.88 132.83 120.58 133.67 C 118.80 132.35 116.82 131.24 115.42 129.48 C 114.97 129.46 114.09 129.43 113.65 129.41 M 118.31 135.21 C 116.76 138.16 121.68 135.30 118.31 135.21 M 121.31 135.33 C 120.90 136.74 123.29 138.26 124.53 137.63 C 125.13 136.03 122.62 134.73 121.31 135.33 Z" />
<path fill="#000000" opacity="1.00" d=" M 80.98 108.97 C 78.09 107.91 72.60 105.31 75.73 101.56 C 78.11 103.53 79.75 106.17 80.98 108.97 Z" />
<path fill="#000000" opacity="1.00" d=" M 57.69 104.01 C 58.64 104.79 59.61 105.56 60.61 106.29 C 60.55 107.37 60.49 108.45 60.44 109.53 C 59.52 108.77 58.60 108.01 57.68 107.25 C 57.69 106.17 57.70 105.09 57.69 104.01 Z" />
<path fill="#000000" opacity="1.00" d=" M 83.12 106.25 C 83.79 106.91 83.79 106.91 83.12 106.25 Z" />
<path fill="#000000" opacity="1.00" d=" M 146.03 105.99 C 146.39 105.88 147.10 105.67 147.46 105.56 C 149.13 110.71 151.26 115.93 155.40 119.61 C 160.47 123.90 165.16 128.59 170.23 132.87 C 173.40 135.04 176.38 137.65 178.22 141.09 C 177.38 141.29 175.72 141.67 174.89 141.86 C 172.72 140.04 171.30 137.47 169.35 135.54 C 165.01 134.31 162.58 130.39 159.03 127.94 C 155.90 125.71 154.39 121.99 151.56 119.47 C 148.76 117.04 147.14 113.62 145.01 110.65 C 143.75 109.15 145.36 107.36 146.03 105.99 Z" />
<path fill="#000000" opacity="1.00" d=" M 56.43 109.49 C 57.55 108.71 59.14 110.49 58.08 111.46 C 56.97 112.28 55.44 110.43 56.43 109.49 Z" />
<path fill="#000000" opacity="1.00" d=" M 140.53 150.78 C 142.29 149.31 143.73 152.97 141.88 153.66 C 140.54 153.73 139.87 151.78 140.53 150.78 Z" />
<path fill="#000000" opacity="1.00" d=" M 125.19 155.99 C 126.19 155.67 127.21 155.37 128.22 155.06 C 131.09 157.59 130.33 161.50 130.72 164.89 C 127.65 165.98 124.73 167.95 121.34 167.65 C 120.39 163.83 124.56 160.65 128.15 161.28 C 128.37 160.79 128.83 159.80 129.06 159.31 C 127.92 159.01 126.78 158.71 125.64 158.41 C 125.53 157.80 125.30 156.59 125.19 155.99 Z" />
<path fill="#000000" opacity="1.00" d=" M 136.42 161.68 C 137.48 161.74 138.54 161.81 139.60 161.87 C 137.90 164.68 137.08 168.41 133.81 169.86 C 133.21 168.83 132.61 167.81 132.02 166.78 C 133.58 166.27 135.14 165.76 136.71 165.30 C 136.60 164.09 136.51 162.88 136.42 161.68 Z" />
</g>
</svg>
