<?xml version="1.0" encoding="UTF-8" ?>
<!DOCTYPE svg PUBLIC "-//W3C//DTD SVG 1.1//EN" "http://www.w3.org/Graphics/SVG/1.1/DTD/svg11.dtd">
<svg width="180pt" height="180pt" viewBox="0 0 180 180" version="1.1" xmlns="http://www.w3.org/2000/svg">
<g id="#000000ff">
<path fill="#000000" opacity="1.00" d=" M 56.12 17.92 C 61.98 23.46 62.98 31.75 65.36 39.03 C 64.55 42.39 60.26 42.51 57.59 43.65 C 51.15 44.69 45.04 48.08 38.45 47.70 C 36.97 46.29 36.35 44.28 35.55 42.47 C 33.86 38.06 31.55 33.67 31.83 28.80 C 34.83 31.02 37.61 33.49 40.49 35.84 C 40.36 31.95 40.55 28.05 40.46 24.16 C 44.48 24.02 44.87 28.97 47.60 31.08 C 46.70 27.23 46.81 23.19 48.01 19.42 C 51.03 21.11 51.75 24.74 53.72 27.35 C 54.40 24.17 54.07 20.65 56.12 17.92 M 56.76 30.48 C 57.07 32.68 56.75 35.09 54.27 35.79 C 53.09 34.43 51.92 33.07 50.61 31.83 C 49.57 33.93 49.34 36.70 47.03 37.86 C 45.90 36.29 44.82 34.69 43.87 33.01 C 42.31 35.46 42.65 38.32 42.58 41.08 C 40.29 40.17 38.54 38.43 36.77 36.79 C 37.85 39.44 39.01 42.06 39.96 44.75 C 46.72 41.62 54.17 40.62 61.07 37.92 C 60.38 34.55 58.79 31.29 59.22 27.76 C 58.41 28.68 57.60 29.59 56.76 30.48 Z" />
<path fill="#000000" opacity="1.00" d=" M 83.97 22.58 C 87.17 20.97 90.71 20.92 94.12 21.83 C 92.01 23.22 89.83 24.48 87.61 25.68 C 87.39 30.53 86.51 35.51 87.87 40.28 C 89.05 43.60 90.95 46.59 92.20 49.88 C 91.20 50.58 90.20 51.27 89.21 51.97 C 88.08 51.15 86.99 50.30 85.91 49.42 C 86.19 48.74 86.74 47.38 87.02 46.70 C 86.49 46.80 85.42 47.00 84.89 47.10 C 84.53 45.53 85.48 44.10 85.80 42.62 C 84.99 44.03 84.35 45.53 83.65 46.99 C 82.50 44.24 82.39 40.92 80.01 38.83 C 80.57 43.15 82.63 47.33 86.09 50.04 C 88.38 51.77 89.14 54.79 91.46 56.49 C 92.92 57.64 94.54 58.55 96.15 59.48 C 96.01 58.69 95.73 57.11 95.59 56.32 C 93.27 55.38 90.99 54.15 89.42 52.14 C 90.83 51.68 92.34 51.40 93.61 50.58 C 92.71 42.88 91.19 34.98 93.35 27.32 C 93.72 25.62 94.71 24.16 95.77 22.81 C 95.76 25.15 95.02 27.41 94.88 29.71 C 95.78 33.34 94.96 37.10 95.55 40.77 C 95.96 44.06 97.16 47.16 98.47 50.19 C 97.90 50.49 96.78 51.10 96.21 51.40 C 97.39 51.43 98.56 51.47 99.74 51.53 C 99.29 47.08 99.85 42.27 102.61 38.60 C 103.56 37.01 105.58 37.44 107.13 37.09 C 104.39 43.42 105.25 50.37 105.33 57.06 C 105.70 60.10 106.38 63.10 106.88 66.13 C 109.32 67.29 111.71 68.55 114.20 69.59 C 113.84 63.59 115.15 57.67 117.09 52.03 C 117.83 52.10 119.29 52.24 120.03 52.31 C 119.51 56.54 118.27 60.66 118.03 64.94 C 119.00 65.29 119.99 65.63 120.97 65.98 C 123.09 63.87 126.63 62.73 127.92 60.11 C 125.16 56.86 122.79 53.28 119.78 50.24 C 117.41 47.82 114.89 44.58 115.89 41.00 C 117.75 42.32 119.16 44.12 120.77 45.70 C 119.81 43.26 118.74 40.85 117.96 38.34 C 116.83 38.40 115.70 38.46 114.57 38.51 C 112.41 34.84 112.41 30.57 112.33 26.45 C 112.95 26.39 114.18 26.29 114.80 26.23 C 115.04 28.05 115.31 29.86 115.59 31.67 C 118.86 32.14 121.19 29.98 123.18 27.69 C 128.31 31.20 132.81 35.52 137.08 39.99 C 139.49 44.28 138.79 49.52 138.55 54.24 C 142.56 50.93 145.39 46.31 147.14 41.45 C 147.68 42.41 148.22 43.36 148.76 44.32 C 148.37 45.27 147.96 46.21 147.56 47.15 C 148.61 47.95 149.64 48.76 150.72 49.52 C 150.27 48.81 149.36 47.40 148.91 46.69 C 152.87 44.25 156.71 41.59 161.00 39.74 C 162.45 40.94 164.00 42.02 165.60 43.01 C 164.92 44.15 164.27 45.36 163.13 46.11 C 157.48 50.45 151.97 54.98 146.43 59.46 C 143.94 61.44 142.59 64.43 140.35 66.64 C 139.01 66.98 137.62 66.64 136.26 66.65 C 134.67 67.47 133.35 68.69 131.99 69.83 C 138.18 68.90 143.23 64.77 149.08 62.79 C 150.25 62.92 151.40 63.27 152.55 63.53 C 153.34 59.64 155.75 56.41 156.66 52.57 C 158.62 51.98 160.47 51.11 162.19 49.99 C 162.40 50.53 162.82 51.61 163.03 52.14 C 159.97 59.07 155.79 65.44 150.53 70.88 C 158.28 68.25 161.36 59.91 166.06 53.96 C 167.40 55.17 168.03 57.03 166.93 58.62 C 164.51 63.22 161.80 68.15 157.15 70.81 C 156.71 70.68 155.82 70.44 155.37 70.31 C 155.97 70.96 156.54 71.62 157.11 72.30 C 159.15 71.21 161.24 70.19 163.54 69.79 C 163.43 71.50 163.50 73.83 161.54 74.55 C 156.08 76.78 149.31 79.70 143.85 75.92 C 143.45 76.60 143.04 77.28 142.64 77.95 C 140.16 76.86 137.46 76.65 134.79 76.83 C 138.41 77.86 142.29 78.45 145.28 80.94 C 144.10 81.63 142.92 82.28 141.73 82.93 C 143.41 84.43 145.23 85.80 146.76 87.46 C 148.13 91.53 151.67 94.52 152.46 98.83 C 151.47 102.51 148.62 105.31 145.77 107.67 C 145.83 108.89 145.88 110.11 145.92 111.33 C 142.71 111.50 139.50 111.38 136.29 111.62 C 134.63 109.07 133.06 106.16 130.30 104.65 C 126.17 103.51 122.54 106.28 119.83 109.05 C 120.01 107.54 120.20 106.04 120.43 104.54 C 119.43 105.70 118.41 106.84 117.42 108.01 C 118.71 108.79 120.02 109.57 121.27 110.42 C 120.74 106.87 124.66 105.41 127.44 104.68 C 127.49 108.16 128.19 111.58 128.65 115.02 C 137.99 120.08 147.73 124.79 155.40 132.29 C 154.86 131.03 154.32 129.78 153.78 128.52 C 157.62 131.31 161.68 133.81 165.78 136.21 C 165.30 136.33 164.36 136.58 163.89 136.70 C 160.94 135.36 158.25 133.51 155.56 131.72 C 155.67 132.46 155.89 133.93 156.00 134.66 C 159.76 137.12 164.26 138.63 167.42 141.88 C 166.25 142.46 165.08 143.03 163.90 143.60 C 162.50 142.45 161.17 141.17 159.52 140.38 C 153.03 137.50 147.35 133.13 141.00 129.99 C 137.29 128.15 134.03 125.52 130.38 123.59 C 125.04 120.38 119.39 117.59 114.74 113.38 C 111.86 116.72 108.73 120.34 108.14 124.87 C 107.18 130.73 105.10 136.36 104.49 142.28 C 103.98 150.26 102.91 158.35 104.81 166.24 C 105.30 166.76 106.27 167.79 106.76 168.30 C 105.80 169.10 104.84 169.89 103.87 170.68 C 102.79 169.54 101.26 168.54 101.10 166.84 C 99.99 158.90 100.04 150.82 100.59 142.84 C 99.83 141.99 99.08 141.13 98.34 140.26 C 100.63 134.26 98.85 127.79 98.06 121.69 C 96.78 126.77 93.80 131.67 94.59 137.06 C 95.00 139.60 93.17 142.46 95.39 144.54 C 96.10 146.75 96.85 151.21 93.28 151.00 C 93.37 148.87 93.46 146.73 93.72 144.61 C 92.91 144.58 91.29 144.52 90.49 144.49 C 90.17 148.42 91.70 152.14 92.06 156.01 C 92.19 158.34 93.28 160.42 94.26 162.49 C 94.24 161.22 94.24 159.94 94.23 158.67 C 97.89 161.83 95.20 167.40 98.17 171.02 C 97.73 171.36 96.85 172.02 96.42 172.35 C 96.72 173.24 97.03 174.14 97.33 175.03 C 94.23 176.47 91.13 174.98 88.54 173.23 C 89.59 170.61 90.16 167.84 89.55 165.03 C 88.54 158.94 88.98 152.66 87.39 146.69 C 87.05 144.51 88.06 142.15 86.80 140.16 C 85.18 137.03 85.14 133.39 83.79 130.17 C 81.48 125.96 80.50 121.21 79.38 116.58 C 77.77 117.82 75.53 118.79 74.92 120.90 C 73.79 124.85 71.55 128.38 70.32 132.30 C 70.78 140.96 72.52 149.54 74.88 157.87 C 75.38 160.67 78.22 162.01 79.91 164.04 C 79.76 164.69 79.46 165.99 79.30 166.64 C 74.86 166.50 69.85 163.53 69.02 158.87 C 67.28 151.54 65.19 144.26 63.93 136.87 C 61.91 133.96 62.88 130.50 63.35 127.30 C 62.13 124.40 60.06 122.00 57.83 119.84 C 55.33 121.09 55.47 124.09 54.66 126.39 C 54.11 128.63 52.23 130.52 52.61 132.95 C 53.07 139.99 52.04 147.02 52.24 154.07 C 52.49 155.83 51.74 157.45 51.11 159.05 C 52.74 161.84 56.58 164.31 55.20 167.90 C 52.08 166.96 48.13 168.22 45.96 165.13 C 45.02 165.36 44.08 165.60 43.14 165.84 C 41.95 158.93 43.88 152.01 43.88 145.08 C 44.92 139.14 44.55 133.12 44.35 127.13 C 36.84 131.27 29.32 135.46 21.42 138.82 C 21.07 138.30 20.38 137.24 20.03 136.71 C 23.22 134.54 26.52 132.52 30.08 131.02 C 32.25 127.94 33.43 123.62 37.32 122.28 C 39.66 121.38 41.80 120.07 43.84 118.64 C 40.87 119.30 38.27 121.16 35.17 121.28 C 31.34 124.00 26.77 125.62 22.09 125.96 C 22.51 122.56 26.28 121.97 28.89 120.91 C 34.10 119.03 38.50 115.56 43.63 113.52 C 43.40 105.42 41.37 97.31 42.85 89.22 C 45.51 83.99 49.37 78.73 55.54 77.62 C 55.92 76.84 56.29 76.06 56.67 75.28 C 41.98 64.30 27.62 52.87 13.72 40.88 C 14.17 39.90 14.64 38.91 15.10 37.94 C 18.23 39.93 20.87 42.64 24.24 44.25 C 18.45 38.54 12.52 32.96 6.48 27.52 C 5.37 26.72 5.48 25.28 5.19 24.10 C 7.28 24.10 9.38 24.74 10.62 26.53 C 12.52 29.01 15.52 30.20 17.59 32.48 C 21.14 36.27 25.44 39.23 29.18 42.81 C 28.51 43.37 27.84 43.93 27.17 44.49 C 29.18 44.62 31.70 43.85 33.13 45.72 C 35.53 48.38 38.34 50.59 40.98 52.98 C 42.79 55.07 45.82 55.74 47.16 58.29 C 47.43 59.81 47.55 61.36 47.97 62.86 C 48.15 61.99 48.52 60.25 48.70 59.39 C 51.95 62.10 55.93 64.11 58.45 67.59 C 62.66 69.80 66.45 72.76 71.03 74.26 C 74.73 73.71 79.57 74.79 82.16 71.39 C 84.58 68.54 87.48 66.13 90.33 63.71 C 86.92 58.73 81.94 55.17 78.43 50.33 C 79.29 49.47 80.13 48.58 80.95 47.66 C 79.83 48.47 78.74 49.32 77.69 50.22 C 76.50 48.23 75.53 46.14 74.47 44.08 C 77.10 40.68 73.93 36.37 75.80 32.79 C 76.92 30.39 76.75 27.52 78.58 25.43 C 79.80 25.03 81.10 25.28 82.35 25.30 C 82.86 28.01 82.58 30.74 81.96 33.40 C 82.31 33.22 83.00 32.85 83.35 32.66 C 83.78 29.32 85.03 25.94 83.97 22.58 M 79.41 28.24 C 79.55 31.68 82.40 26.70 79.41 28.24 M 121.84 30.59 C 124.34 34.28 127.19 38.01 131.01 40.41 C 128.75 36.52 125.56 33.12 121.84 30.59 M 79.48 33.18 C 78.43 34.15 79.71 36.54 81.06 35.49 C 82.20 34.54 80.81 32.13 79.48 33.18 M 82.40 34.34 C 81.24 35.27 82.61 37.61 83.96 36.69 C 85.12 35.74 83.76 33.43 82.40 34.34 M 119.90 33.72 C 122.07 39.72 123.83 46.04 127.62 51.28 C 128.64 52.57 128.34 54.32 128.73 55.83 C 129.86 53.96 131.30 52.31 132.88 50.81 C 131.94 48.71 131.19 46.53 130.48 44.35 C 126.15 41.66 123.03 37.64 119.90 33.72 M 131.29 40.40 C 132.31 42.70 132.70 45.54 134.69 47.23 C 134.82 44.49 133.53 41.98 131.29 40.40 M 25.25 45.18 C 25.88 45.80 25.88 45.80 25.25 45.18 M 120.17 48.25 C 120.78 48.88 120.78 48.88 120.17 48.25 M 133.93 48.56 C 133.53 50.01 134.01 50.55 135.37 50.16 C 135.75 48.73 135.27 48.19 133.93 48.56 M 36.16 51.16 C 36.82 51.80 36.82 51.80 36.16 51.16 M 133.33 55.05 C 132.69 56.63 133.22 57.13 134.92 56.56 C 135.55 54.95 135.02 54.44 133.33 55.05 M 45.12 59.14 C 45.78 59.80 45.78 59.80 45.12 59.14 M 49.85 62.34 C 49.54 63.72 50.09 64.29 51.50 64.05 C 51.80 62.65 51.25 62.08 49.85 62.34 M 93.99 71.10 C 96.30 69.67 98.88 69.36 101.54 69.73 C 99.99 67.42 97.43 66.28 94.95 65.27 C 94.60 67.21 94.29 69.15 93.99 71.10 M 136.88 72.01 C 141.70 73.22 145.92 69.80 149.12 66.63 C 144.54 67.56 141.85 72.52 136.88 72.01 M 101.85 71.60 C 102.16 72.74 102.47 73.88 102.77 75.03 C 102.30 74.81 101.37 74.38 100.91 74.16 C 101.22 72.92 101.51 71.66 101.78 70.41 C 98.23 70.22 96.44 73.83 93.86 75.68 C 93.20 75.41 92.54 75.13 91.89 74.85 C 91.34 75.23 90.79 75.62 90.23 76.00 C 89.52 75.37 88.81 74.74 88.10 74.12 C 87.24 75.16 86.68 76.80 85.06 76.72 C 84.26 76.33 83.57 75.78 82.84 75.28 C 82.67 75.87 82.33 77.04 82.16 77.62 C 79.46 77.51 76.75 77.56 74.05 77.64 C 78.11 81.73 83.35 84.40 88.04 87.71 C 91.22 85.22 94.93 83.56 98.12 81.09 C 102.19 77.99 107.09 76.00 110.64 72.25 C 107.88 70.64 104.70 69.51 101.85 71.60 M 110.69 77.73 C 106.14 81.40 100.64 83.57 95.99 87.08 C 94.29 88.19 92.41 88.99 90.66 90.02 C 91.75 90.25 92.85 90.45 93.95 90.66 C 96.85 86.71 101.40 84.48 105.82 82.68 C 110.55 79.06 116.51 76.85 120.11 71.93 C 117.20 74.24 114.00 76.09 110.69 77.73 M 123.61 75.57 C 116.06 80.63 109.20 86.68 101.55 91.61 C 101.59 92.84 101.58 94.08 101.70 95.32 C 103.11 97.95 106.25 99.91 105.94 103.21 C 106.98 101.87 108.14 100.63 109.37 99.46 C 111.10 100.35 110.51 102.67 110.94 104.23 C 111.99 102.89 112.98 101.50 113.98 100.12 C 114.77 101.10 115.56 102.09 116.33 103.09 C 117.68 101.70 118.89 100.18 120.15 98.71 C 120.87 100.53 121.59 102.35 122.44 104.12 C 121.94 102.67 121.38 101.25 120.82 99.84 C 122.22 98.76 123.58 97.62 124.83 96.36 C 128.98 97.54 131.92 93.40 134.85 91.17 C 135.05 91.61 135.44 92.51 135.63 92.95 C 133.79 95.15 132.11 97.46 130.48 99.82 C 134.11 101.24 136.26 104.54 138.20 107.72 C 139.54 107.61 140.89 107.52 142.24 107.45 C 141.23 106.21 139.97 105.15 139.17 103.75 C 138.76 100.69 141.96 98.99 143.95 97.28 C 144.37 97.97 145.20 99.35 145.62 100.04 C 144.41 101.04 143.17 102.00 141.90 102.93 C 142.46 103.27 143.57 103.96 144.12 104.30 C 145.66 102.71 147.29 101.22 148.93 99.75 C 148.73 98.06 148.50 96.37 148.39 94.67 C 148.00 94.93 147.23 95.43 146.84 95.69 C 143.66 91.98 141.28 87.69 138.04 84.01 C 136.58 79.95 131.84 79.63 128.84 77.20 C 127.29 76.31 125.46 74.02 123.61 75.57 M 70.24 78.31 C 69.47 79.36 71.02 81.07 72.18 80.63 C 72.97 79.58 71.39 77.83 70.24 78.31 M 73.26 78.29 C 71.68 81.21 76.64 78.56 73.26 78.29 M 52.26 90.73 C 51.81 90.25 50.92 89.28 50.47 88.80 C 50.73 90.26 50.43 92.76 48.33 92.06 C 48.34 90.85 48.42 89.64 48.57 88.44 C 47.87 89.53 47.22 90.67 46.58 91.81 C 48.00 92.65 49.44 93.46 50.79 94.42 C 50.21 99.26 51.34 104.06 52.81 108.64 C 53.85 106.53 55.30 104.70 56.96 103.05 C 57.67 103.70 58.39 104.36 59.11 105.02 C 66.31 100.79 73.69 96.80 80.62 92.14 C 77.24 89.13 73.16 87.12 69.68 84.25 C 68.21 83.10 66.54 82.22 64.85 81.45 C 59.59 82.57 55.71 86.89 52.26 90.73 M 74.20 81.40 C 75.54 83.90 77.78 85.74 80.63 86.17 C 79.08 83.91 76.70 82.42 74.20 81.40 M 52.37 84.29 C 52.34 87.64 55.43 82.78 52.37 84.29 M 80.95 86.38 C 80.63 87.62 82.45 89.42 83.71 88.86 C 84.23 87.49 82.23 85.89 80.95 86.38 M 48.22 111.11 C 48.79 110.70 49.36 110.30 49.92 109.89 C 48.60 105.20 48.49 100.29 48.49 95.45 C 48.04 94.80 47.13 93.51 46.68 92.86 C 44.55 98.76 47.26 105.16 48.22 111.11 M 73.22 100.15 C 73.49 100.86 73.75 101.58 74.01 102.30 C 78.39 100.18 82.66 97.70 86.15 94.29 C 80.81 93.69 77.89 98.72 73.22 100.15 M 78.72 107.59 C 78.61 109.13 78.51 110.68 78.41 112.23 C 76.98 111.60 75.90 110.61 75.17 109.25 C 73.85 111.14 71.96 112.43 69.91 113.41 C 70.68 113.92 71.19 114.67 71.53 115.51 C 71.63 114.91 71.83 113.70 71.93 113.10 C 74.12 111.28 77.33 112.69 79.95 112.37 C 82.41 113.39 84.64 114.92 87.07 116.05 C 85.33 118.46 83.47 116.60 81.73 115.39 C 85.93 120.36 86.38 126.93 87.89 133.00 C 88.43 136.20 89.85 139.25 89.54 142.56 C 90.07 142.13 91.11 141.27 91.64 140.84 C 90.98 136.57 89.04 132.46 89.47 128.07 C 89.27 124.25 87.87 120.49 88.69 116.62 C 89.11 116.90 89.93 117.45 90.34 117.72 C 91.36 121.51 91.89 125.42 93.00 129.19 C 93.72 127.82 94.41 126.44 95.13 125.08 C 93.62 123.81 92.95 122.01 92.46 120.16 C 95.16 117.90 97.86 115.66 100.59 113.45 C 100.56 111.80 100.51 110.14 100.42 108.49 C 99.76 109.49 99.29 110.59 98.82 111.68 C 98.38 111.62 97.51 111.51 97.07 111.45 C 97.46 112.34 97.84 113.22 98.22 114.11 C 94.75 115.12 91.21 114.35 87.69 114.22 C 89.78 113.09 91.91 112.01 94.13 111.16 C 96.96 110.16 98.22 107.12 99.71 104.76 C 97.32 102.24 93.94 101.10 91.31 98.87 C 87.37 102.11 82.98 104.79 78.72 107.59 M 103.01 116.56 C 102.59 117.99 103.05 118.49 104.42 118.08 C 104.85 116.66 104.38 116.15 103.01 116.56 M 66.27 131.23 C 68.11 128.75 69.23 125.81 69.78 122.79 C 67.56 124.95 67.43 128.45 66.27 131.23 M 48.33 125.26 C 47.70 137.27 47.15 149.32 46.16 161.31 C 46.83 161.18 48.17 160.92 48.85 160.79 C 48.78 156.54 48.53 152.29 48.81 148.04 C 49.50 139.81 48.61 131.22 52.08 123.48 C 50.82 124.05 49.58 124.65 48.33 125.26 M 93.16 172.27 C 93.64 172.26 94.62 172.26 95.10 172.25 C 96.55 170.85 94.47 169.51 93.94 168.17 C 94.17 166.87 94.34 165.57 94.48 164.26 C 92.45 166.30 93.91 169.67 93.16 172.27 Z" />
<path fill="#000000" opacity="1.00" d=" M 117.10 28.16 C 118.18 28.05 119.68 29.43 119.01 30.51 C 117.71 31.32 115.02 28.96 117.10 28.16 Z" />
<path fill="#000000" opacity="1.00" d=" M 126.00 81.37 C 127.56 81.55 129.14 81.59 130.71 81.57 C 131.39 82.64 132.08 83.72 132.76 84.80 C 131.02 85.38 129.38 86.22 127.79 87.13 C 126.88 85.77 125.99 84.41 125.04 83.09 C 125.28 82.66 125.76 81.80 126.00 81.37 Z" />
<path fill="#000000" opacity="1.00" d=" M 52.14 103.08 C 52.81 103.74 52.81 103.74 52.14 103.08 Z" />
<path fill="#000000" opacity="1.00" d=" M 93.06 151.66 C 93.95 151.36 95.71 150.76 96.59 150.46 C 96.41 152.68 96.21 154.91 95.82 157.11 C 93.11 156.80 93.62 153.60 93.06 151.66 Z" />
</g>
</svg>
