<?xml version="1.0" encoding="UTF-8" ?>
<!DOCTYPE svg PUBLIC "-//W3C//DTD SVG 1.1//EN" "http://www.w3.org/Graphics/SVG/1.1/DTD/svg11.dtd">
<svg width="200pt" height="200pt" viewBox="0 0 200 200" version="1.1" xmlns="http://www.w3.org/2000/svg">
<g id="#000000ff">
<path fill="#000000" opacity="1.00" d=" M 34.48 19.96 C 38.94 21.61 41.74 25.77 45.25 28.76 C 48.88 31.55 51.99 34.94 55.43 37.96 C 53.61 34.66 50.72 32.17 48.35 29.29 C 49.00 28.75 50.29 27.68 50.93 27.14 C 55.51 31.87 60.52 36.20 64.58 41.42 C 71.87 48.48 78.58 56.09 85.47 63.53 C 86.52 62.36 87.62 61.24 88.80 60.21 C 92.61 62.19 95.70 65.22 98.52 68.41 C 99.46 69.97 101.25 70.28 102.94 70.28 C 100.02 66.55 96.29 63.59 92.66 60.60 C 92.97 59.99 93.61 58.78 93.93 58.18 C 96.08 58.01 97.56 59.72 99.11 60.91 C 102.39 63.77 105.66 66.69 108.42 70.07 C 108.30 70.48 108.06 71.28 107.94 71.69 C 105.39 71.76 102.85 71.47 100.31 71.77 C 102.25 72.15 104.13 72.72 105.93 73.54 C 109.29 73.08 112.53 71.81 115.90 73.23 C 116.25 72.61 116.95 71.36 117.30 70.74 C 115.03 66.95 112.03 63.51 110.68 59.25 C 110.04 59.98 109.39 60.70 108.74 61.42 C 108.65 60.73 108.46 59.37 108.36 58.68 C 113.67 56.42 116.73 62.97 119.18 66.53 C 123.69 58.90 126.40 50.44 129.80 42.30 C 130.77 42.31 132.70 42.33 133.67 42.34 C 132.90 45.30 131.64 48.15 131.32 51.22 C 133.03 48.18 134.19 44.88 135.25 41.57 C 138.06 41.02 139.91 38.77 142.05 37.09 C 144.16 33.50 144.27 28.09 148.71 26.48 C 148.88 30.92 146.81 35.02 144.90 38.90 C 141.27 47.77 138.49 57.10 133.33 65.24 C 131.07 69.55 129.61 74.22 127.30 78.50 C 128.17 78.63 129.90 78.88 130.76 79.01 C 130.39 78.12 129.63 76.34 129.25 75.45 C 132.95 75.10 136.24 77.30 139.45 78.82 C 139.40 79.52 139.31 80.91 139.26 81.61 C 136.56 80.40 134.00 78.91 131.62 77.15 C 131.07 79.46 133.43 80.32 134.87 81.52 C 134.61 81.77 134.08 82.25 133.82 82.50 C 131.02 82.07 128.18 82.11 125.38 82.42 C 121.58 88.22 119.26 94.95 115.09 100.54 C 116.24 101.16 117.36 101.80 118.48 102.46 C 118.24 106.75 122.16 109.42 124.27 112.72 C 127.18 117.01 131.13 120.47 134.05 124.74 C 135.53 124.11 137.03 123.52 138.55 122.96 C 135.80 120.47 132.51 118.67 129.77 116.18 C 128.62 113.85 130.59 111.45 130.30 109.05 C 130.14 105.19 130.22 100.78 132.80 97.66 C 134.27 97.43 135.76 97.39 137.25 97.34 C 136.22 99.23 134.22 100.78 134.35 103.11 C 134.20 104.26 133.87 106.14 135.59 106.10 C 135.50 105.45 135.32 104.15 135.23 103.50 C 135.97 103.95 136.71 104.40 137.45 104.86 C 137.84 104.30 138.61 103.20 139.00 102.65 C 139.17 107.89 139.87 113.20 142.36 117.90 C 149.95 114.82 156.13 109.03 163.78 106.16 C 162.59 104.03 162.50 101.55 161.62 99.32 C 159.23 95.01 154.22 93.38 150.58 90.38 C 147.20 87.21 143.32 84.58 140.35 80.98 C 140.43 80.20 140.60 78.65 140.69 77.88 C 148.70 85.51 158.80 90.71 165.94 99.33 C 165.23 100.45 165.05 101.81 164.27 102.91 C 165.26 104.32 167.46 105.79 166.45 107.75 C 162.95 111.80 159.22 115.65 155.48 119.48 C 152.48 121.07 149.64 123.05 146.49 124.33 C 142.56 124.75 138.82 126.00 135.25 127.67 C 139.53 132.23 142.32 137.87 146.13 142.78 C 149.76 147.27 152.51 152.37 156.12 156.87 C 159.48 160.82 161.42 165.80 165.24 169.37 C 164.87 170.68 164.77 172.32 163.08 172.51 C 160.34 169.23 158.03 165.62 155.71 162.05 C 154.96 162.20 153.44 162.50 152.68 162.66 C 155.05 165.38 158.86 167.90 158.63 171.93 C 155.74 168.65 153.04 165.21 150.51 161.65 C 150.48 160.86 150.49 160.08 150.55 159.29 C 147.87 157.70 146.51 154.82 144.55 152.53 C 140.98 148.62 138.72 143.77 135.62 139.50 C 133.86 135.49 131.26 131.89 128.08 128.89 C 124.67 128.24 121.38 129.82 118.11 130.53 L 118.80 132.07 C 121.11 131.14 123.52 130.09 125.82 131.66 C 121.59 138.62 114.94 143.44 109.82 149.65 C 107.24 149.36 104.63 149.13 102.15 148.28 C 101.80 143.58 105.41 140.63 108.04 137.30 C 109.55 134.47 113.09 133.11 113.50 129.69 C 108.67 134.45 102.57 138.62 100.11 145.17 C 99.23 143.91 98.37 142.64 97.50 141.37 C 98.87 139.42 99.99 137.30 101.35 135.35 C 103.24 133.37 105.50 131.78 107.40 129.81 C 104.05 129.79 100.71 129.61 97.40 129.04 C 95.58 132.60 93.46 135.99 91.10 139.22 C 83.98 151.51 76.95 163.93 68.31 175.25 C 67.30 176.96 65.84 178.29 63.99 179.02 C 63.31 177.13 62.41 175.34 61.11 173.80 C 67.98 162.05 73.83 149.69 81.05 138.12 C 80.53 137.03 80.02 135.94 79.52 134.84 C 76.33 136.82 72.00 139.18 68.83 135.81 C 69.42 135.17 70.01 134.54 70.62 133.91 C 69.69 133.54 68.77 133.17 67.85 132.80 C 70.57 129.45 73.26 125.03 78.17 125.19 C 76.30 124.73 74.43 124.27 72.57 123.77 C 71.03 121.12 74.17 121.43 75.83 121.43 C 78.75 121.19 81.20 123.27 83.91 124.04 C 80.96 127.52 76.42 129.37 74.39 133.68 C 74.91 133.89 75.43 134.10 75.95 134.31 C 77.77 130.45 83.91 129.73 83.88 124.91 C 85.39 125.32 86.91 125.72 88.44 126.07 C 87.08 124.84 85.70 123.63 84.44 122.30 C 84.12 122.64 83.47 123.31 83.14 123.65 C 81.32 122.24 79.52 120.78 77.58 119.53 C 75.87 119.68 74.20 120.13 72.49 120.35 C 72.23 125.76 68.36 129.57 65.10 133.49 C 64.60 133.43 63.59 133.31 63.09 133.26 C 64.43 129.41 66.76 126.03 69.41 122.97 C 68.60 122.41 67.79 121.85 66.98 121.29 C 65.44 124.74 63.32 127.89 60.92 130.79 C 57.04 130.33 53.64 128.51 50.72 125.98 C 51.86 122.59 54.48 120.02 56.17 116.93 C 54.80 115.92 53.43 114.92 52.06 113.92 C 52.89 113.06 53.73 112.21 54.51 111.31 C 53.33 112.11 52.19 112.97 51.05 113.82 C 48.92 112.03 46.39 110.34 45.36 107.64 C 44.75 105.19 44.28 102.70 43.53 100.28 C 42.29 100.92 41.05 101.56 39.80 102.18 C 40.23 101.14 40.65 100.10 41.08 99.06 C 42.13 99.53 43.19 100.00 44.24 100.48 C 44.74 97.80 45.63 95.22 46.42 92.62 C 44.97 90.90 42.98 92.39 41.17 92.25 C 39.29 91.81 37.54 91.00 35.85 90.07 C 35.99 90.71 36.27 91.98 36.41 92.61 C 35.00 91.81 34.00 89.60 32.13 90.12 C 31.99 90.45 31.71 91.10 31.57 91.42 C 33.98 93.31 38.32 93.72 37.82 97.68 C 35.00 97.17 32.16 96.75 29.33 96.29 C 28.92 92.73 30.59 89.72 32.66 86.98 C 32.24 86.48 31.38 85.47 30.96 84.97 C 30.42 85.58 29.35 86.80 28.82 87.41 C 29.77 85.29 30.87 83.17 30.47 80.76 C 26.71 82.76 26.24 87.56 25.43 91.31 C 24.43 95.88 29.47 98.38 30.94 102.23 C 31.38 101.76 32.27 100.81 32.71 100.33 C 32.62 100.96 32.45 102.21 32.36 102.83 C 34.44 102.02 36.56 101.30 38.57 100.32 C 38.65 100.59 38.81 101.14 38.88 101.41 C 35.12 102.34 31.34 103.25 27.48 103.62 C 25.19 107.81 23.44 112.23 22.28 116.86 C 24.22 115.02 26.59 112.99 25.50 110.02 C 30.73 106.55 36.81 104.98 42.69 103.04 C 42.95 103.58 43.49 104.67 43.76 105.21 C 42.49 106.44 41.50 108.00 39.92 108.86 C 33.44 112.48 26.28 115.72 21.69 121.79 C 24.70 122.17 27.73 122.23 30.75 122.57 C 29.86 119.00 33.20 116.60 35.51 114.51 C 38.45 112.36 41.46 109.80 45.22 109.40 C 45.77 109.80 46.86 110.60 47.40 111.00 C 44.64 113.08 41.47 114.55 38.85 116.83 C 35.26 119.54 32.48 123.28 28.53 125.50 C 24.98 125.85 21.22 124.76 18.63 122.26 C 18.81 114.67 19.81 106.40 25.42 100.64 C 22.22 97.69 20.77 93.26 22.01 89.03 C 23.17 84.76 23.97 79.38 28.09 76.94 C 32.63 77.59 36.53 80.16 40.07 82.92 C 44.15 85.91 48.98 89.37 48.85 95.04 C 51.65 92.36 54.56 89.43 58.47 88.57 C 60.93 88.22 62.47 86.29 64.04 84.60 C 58.85 85.00 52.85 84.81 48.53 81.63 C 51.86 77.21 51.71 70.92 56.09 67.13 C 61.41 63.80 68.09 62.02 74.25 63.93 C 73.75 62.63 73.28 61.31 72.86 59.98 C 74.76 61.41 75.91 63.86 78.40 64.36 C 77.33 62.57 75.91 61.06 74.59 59.46 C 72.84 59.75 70.89 59.97 69.60 58.45 C 65.15 53.40 60.54 48.49 55.42 44.11 C 55.55 43.25 55.80 41.52 55.92 40.66 C 55.58 41.25 54.89 42.41 54.55 43.00 C 50.76 38.91 46.51 35.32 42.43 31.55 C 39.69 28.59 36.99 25.59 34.10 22.77 C 34.20 22.07 34.39 20.67 34.48 19.96 M 56.17 38.28 C 56.80 38.91 56.80 38.91 56.17 38.28 M 63.17 49.18 C 63.82 49.82 63.82 49.82 63.17 49.18 M 72.13 57.28 C 72.78 57.92 72.78 57.92 72.13 57.28 M 63.13 66.73 C 61.02 68.10 58.79 69.39 57.34 71.52 C 62.78 72.36 68.00 74.19 73.03 76.39 C 74.52 77.18 76.19 76.42 77.71 76.15 C 73.48 73.59 68.55 72.28 64.64 69.13 C 67.45 69.37 70.60 69.01 72.92 70.93 C 76.00 72.66 78.92 75.64 82.69 75.30 C 84.52 77.09 87.92 77.17 89.77 75.40 C 87.40 75.19 84.86 75.75 82.73 74.42 C 81.73 71.86 80.33 69.47 78.13 67.76 C 73.37 65.66 68.15 66.64 63.13 66.73 M 88.48 64.01 C 89.12 66.10 89.08 68.68 90.78 70.29 C 92.69 70.92 94.71 71.16 96.66 71.68 C 94.30 68.75 92.01 65.64 88.48 64.01 M 54.88 73.74 C 54.88 74.49 54.87 75.99 54.87 76.74 C 58.32 76.81 61.78 76.71 65.20 76.20 C 61.83 75.12 58.31 74.61 54.88 73.74 M 111.37 74.21 C 110.94 75.42 112.28 77.66 113.69 77.10 C 114.24 75.86 112.70 73.83 111.37 74.21 M 53.58 79.82 C 58.26 81.86 64.00 82.13 68.59 79.69 C 63.57 80.19 58.55 78.77 53.58 79.82 M 106.34 82.22 C 106.77 83.31 107.21 84.39 107.65 85.48 C 106.48 85.95 105.30 86.43 104.13 86.91 C 105.27 88.08 106.40 89.26 107.52 90.45 C 108.81 88.06 110.07 85.65 111.35 83.25 C 110.24 82.50 109.14 81.73 108.05 80.95 C 107.63 81.27 106.77 81.90 106.34 82.22 M 72.16 88.72 C 69.99 89.73 67.57 90.24 65.56 88.55 C 66.65 89.62 67.74 90.69 68.84 91.75 C 64.60 93.08 61.07 95.83 56.98 97.45 C 55.46 98.22 54.22 96.61 52.89 96.13 C 51.94 97.36 50.89 98.49 49.82 99.61 C 50.75 98.99 51.59 98.05 52.80 98.06 C 53.64 98.69 54.46 99.34 55.26 100.01 C 57.90 98.16 61.11 97.55 64.16 96.69 C 66.29 96.72 68.42 96.60 70.46 95.90 C 68.17 97.38 65.63 98.55 63.70 100.53 C 65.91 100.48 68.01 99.81 70.03 98.99 C 71.12 101.40 73.39 102.71 75.47 104.16 C 73.50 105.17 71.37 106.36 69.12 105.51 C 69.79 106.22 70.44 106.95 71.08 107.69 C 69.52 107.55 67.96 107.37 66.40 107.20 C 66.03 107.58 65.31 108.35 64.95 108.73 C 65.70 108.75 67.20 108.78 67.94 108.80 C 66.96 110.54 66.20 112.44 66.99 114.42 C 67.72 112.68 68.07 110.70 69.29 109.22 C 73.41 106.90 78.04 105.85 82.44 104.20 C 84.18 108.23 78.89 108.74 76.72 110.86 C 80.11 110.66 82.63 108.06 86.00 107.68 C 85.75 108.81 85.48 109.95 85.21 111.08 C 81.89 110.89 79.29 112.73 76.65 114.43 C 74.15 114.72 71.61 114.67 69.14 114.16 C 69.23 115.39 69.35 116.63 69.48 117.86 C 68.10 117.76 66.72 117.76 65.35 117.88 C 66.81 118.20 68.30 118.27 69.79 118.39 C 70.19 116.41 71.63 115.41 73.60 115.20 C 73.47 116.49 73.33 117.78 73.17 119.07 C 74.89 117.48 77.03 116.60 79.22 115.87 C 83.29 113.98 87.75 112.78 92.27 113.44 C 92.08 118.07 85.66 117.57 85.06 122.01 C 86.17 122.24 88.39 122.70 89.50 122.93 C 92.60 117.59 95.66 112.22 98.39 106.69 C 98.25 105.15 97.14 103.76 97.44 102.18 C 98.29 100.87 99.19 99.60 100.14 98.35 C 100.59 99.31 101.48 101.22 101.93 102.18 C 101.82 100.19 101.63 98.21 101.63 96.23 C 100.52 93.90 99.01 91.74 98.49 89.17 C 101.20 90.36 102.48 93.40 105.24 94.53 C 103.56 92.08 101.38 90.04 99.70 87.60 C 98.87 88.43 98.06 89.27 97.24 90.11 C 96.17 88.55 95.09 87.00 94.07 85.41 C 90.48 86.44 86.92 87.55 83.46 88.97 C 82.18 83.92 88.65 84.58 91.19 82.11 C 84.72 83.95 78.95 88.08 72.16 88.72 M 32.32 82.06 C 34.66 86.42 39.58 88.15 43.32 91.02 C 40.09 87.55 36.44 84.42 32.32 82.06 M 115.13 82.78 C 113.12 86.29 111.22 89.88 109.65 93.62 C 110.18 94.30 110.69 95.00 111.19 95.71 C 112.97 91.13 115.76 87.01 117.36 82.34 C 116.80 82.45 115.69 82.67 115.13 82.78 M 64.25 90.20 C 64.89 90.85 64.89 90.85 64.25 90.20 M 59.35 92.08 C 57.95 92.74 57.91 93.36 59.24 93.93 C 60.67 93.28 60.71 92.67 59.35 92.08 M 60.97 100.00 C 59.90 101.49 62.47 102.51 63.42 101.44 C 64.45 100.09 61.84 98.97 60.97 100.00 M 54.77 102.01 C 54.36 103.39 54.85 103.91 56.25 103.57 C 56.65 102.18 56.16 101.66 54.77 102.01 M 66.45 104.08 C 66.07 105.46 66.60 105.93 68.02 105.48 C 68.39 104.11 67.86 103.64 66.45 104.08 M 48.23 105.10 C 46.63 108.00 51.61 105.29 48.23 105.10 M 103.39 105.92 C 102.21 106.40 101.24 109.75 103.44 108.73 C 105.09 108.56 105.43 105.08 103.39 105.92 M 135.31 107.15 C 135.28 109.31 135.38 111.49 135.73 113.62 C 136.73 115.52 137.97 117.34 138.27 119.52 C 139.80 119.52 141.32 119.43 142.84 119.26 C 141.08 117.93 138.61 116.53 138.52 114.06 C 138.51 111.43 136.97 109.06 135.31 107.15 M 61.21 108.23 C 61.80 108.86 61.80 108.86 61.21 108.23 M 107.38 113.63 C 110.11 112.94 112.90 112.59 115.71 112.41 C 114.79 110.34 112.71 109.06 111.13 107.50 C 110.10 109.68 108.96 111.80 107.38 113.63 M 115.27 108.19 C 115.89 108.81 115.89 108.81 115.27 108.19 M 50.91 109.16 C 50.47 110.50 50.98 110.95 52.43 110.51 C 52.83 109.13 52.32 108.68 50.91 109.16 M 61.18 110.41 C 59.66 113.34 64.60 110.46 61.18 110.41 M 71.59 111.32 C 71.02 112.93 71.55 113.52 73.18 113.10 C 73.77 111.50 73.25 110.91 71.59 111.32 M 86.55 114.29 C 85.54 114.70 84.17 116.89 85.78 117.37 C 87.38 117.44 89.12 113.14 86.55 114.29 M 99.04 113.73 C 97.83 117.78 94.47 120.87 94.11 125.21 C 96.11 122.46 97.95 119.59 99.69 116.66 C 99.56 115.67 99.28 114.70 99.04 113.73 M 112.87 116.15 C 113.86 116.30 115.83 116.60 116.82 116.74 C 113.33 120.18 108.26 117.89 103.98 118.22 C 103.63 119.51 103.31 120.81 103.06 122.13 C 101.86 123.14 100.72 124.21 99.63 125.32 C 102.26 125.61 104.87 126.12 107.40 126.90 C 107.37 125.67 107.35 124.44 107.34 123.22 C 110.87 122.19 114.99 122.10 117.48 125.30 C 115.81 124.95 114.20 124.40 112.59 123.86 C 113.47 125.27 114.43 126.65 114.91 128.27 C 115.58 127.56 115.97 126.26 117.14 126.32 C 120.21 126.19 123.21 125.32 126.30 125.52 C 122.96 121.78 120.01 117.71 116.78 113.88 C 115.47 114.62 114.18 115.40 112.87 116.15 M 154.25 114.17 C 152.84 114.81 152.77 115.47 154.03 116.13 C 155.47 115.44 155.54 114.79 154.25 114.17 M 82.21 116.28 C 82.89 116.95 82.89 116.95 82.21 116.28 M 53.67 127.37 C 56.62 124.86 58.71 121.52 61.70 119.04 C 62.10 122.37 59.59 124.81 58.41 127.67 C 60.62 125.87 62.40 123.63 64.45 121.68 C 63.23 120.39 62.09 118.72 60.21 118.40 C 57.43 120.87 55.17 123.97 53.67 127.37 M 79.64 117.97 C 78.65 119.38 81.19 120.45 82.12 119.45 C 83.12 118.04 80.57 116.90 79.64 117.97 M 148.22 117.89 C 148.63 121.24 151.06 116.19 148.22 117.89 M 146.49 119.17 C 145.20 119.35 143.69 119.91 143.15 121.19 C 143.78 122.88 148.66 120.06 146.49 119.17 M 108.67 125.04 C 108.07 126.61 111.97 127.91 112.06 125.85 C 111.77 124.36 109.68 124.29 108.67 125.04 M 114.40 131.24 C 114.37 133.31 114.60 135.39 114.37 137.46 C 111.08 140.19 107.76 142.90 105.21 146.40 C 105.83 146.47 107.07 146.60 107.69 146.67 C 111.50 142.38 115.67 138.43 119.68 134.32 C 118.54 132.98 117.54 131.50 117.63 129.67 C 116.56 130.21 115.48 130.72 114.40 131.24 M 152.09 161.22 C 152.73 161.87 152.73 161.87 152.09 161.22 Z" />
<path fill="#000000" opacity="1.00" d=" M 130.05 42.10 C 131.97 37.68 132.68 32.82 135.01 28.57 C 135.61 29.41 136.18 30.27 136.71 31.16 C 136.42 34.79 134.78 38.13 133.87 41.63 C 132.92 41.75 131.01 41.98 130.05 42.10 Z" />
<path fill="#000000" opacity="1.00" d=" M 156.86 66.63 C 159.38 62.97 158.58 57.33 163.08 55.20 C 163.61 57.92 163.84 60.69 164.71 63.33 C 165.98 60.69 167.02 57.48 170.34 56.96 C 170.62 62.90 171.14 68.86 170.47 74.80 C 162.14 73.15 153.92 76.73 145.55 75.47 C 144.22 74.33 142.96 73.10 141.78 71.80 C 141.42 66.44 141.89 61.08 143.79 56.02 C 146.15 58.10 147.88 60.72 149.27 63.52 C 149.85 61.67 150.41 59.81 150.98 57.96 C 152.16 57.59 153.33 57.18 154.49 56.74 C 156.17 59.78 156.80 63.18 156.86 66.63 M 151.20 70.21 C 147.54 69.49 146.84 65.32 144.62 62.89 C 144.63 66.51 144.82 70.14 144.50 73.76 C 150.53 71.93 156.95 72.62 163.02 70.98 C 164.64 70.49 166.33 70.47 168.01 70.50 C 167.76 68.49 167.59 66.47 167.40 64.45 C 166.53 65.56 165.72 66.73 164.78 67.79 C 164.06 67.60 162.62 67.21 161.91 67.02 C 162.60 66.54 163.98 65.57 164.67 65.09 C 163.39 64.47 162.14 63.77 160.92 63.06 C 160.73 66.09 158.32 68.08 156.70 70.42 C 156.01 70.14 155.32 69.86 154.64 69.59 C 154.19 67.27 153.63 64.98 153.07 62.69 C 152.29 65.16 151.66 67.67 151.20 70.21 Z" />
<path fill="#000000" opacity="1.00" d=" M 100.46 59.39 C 105.63 57.90 109.01 62.83 111.37 66.57 C 112.54 68.24 110.78 69.39 109.61 70.30 C 107.65 65.80 103.82 62.77 100.46 59.39 Z" />
<path fill="#000000" opacity="1.00" d=" M 135.19 91.05 C 136.29 89.85 138.18 91.80 137.41 93.02 C 136.33 94.22 134.46 92.24 135.19 91.05 Z" />
<path fill="#000000" opacity="1.00" d=" M 150.84 97.24 C 151.88 96.60 152.88 95.88 153.99 95.37 C 156.39 95.94 158.65 97.10 160.29 98.98 C 160.13 101.60 157.43 103.01 155.03 102.71 C 152.74 101.78 152.11 99.13 150.84 97.24 Z" />
<path fill="#000000" opacity="1.00" d=" M 40.95 96.48 C 42.40 96.13 42.93 96.63 42.52 97.98 C 41.10 98.30 40.58 97.80 40.95 96.48 Z" />
<path fill="#000000" opacity="1.00" d=" M 38.19 97.08 C 41.11 95.45 38.57 100.49 38.19 97.08 Z" />
<path fill="#000000" opacity="1.00" d=" M 115.59 133.92 C 117.02 133.46 117.53 133.93 117.13 135.33 C 115.70 135.78 115.19 135.31 115.59 133.92 Z" />
</g>
</svg>
