<?xml version="1.0" encoding="UTF-8" ?>
<!DOCTYPE svg PUBLIC "-//W3C//DTD SVG 1.1//EN" "http://www.w3.org/Graphics/SVG/1.1/DTD/svg11.dtd">
<svg width="128pt" height="128pt" viewBox="0 0 128 128" version="1.1" xmlns="http://www.w3.org/2000/svg">
<g id="#000000ff">
<path fill="#000000" opacity="1.00" d=" M 27.37 24.16 C 31.89 23.19 37.59 23.24 40.77 27.21 C 44.97 33.19 46.85 40.44 47.52 47.64 C 50.65 47.45 53.85 47.75 56.87 46.73 C 64.04 45.55 71.52 44.59 78.67 46.33 C 80.21 50.42 83.07 53.88 86.49 56.56 C 88.74 58.23 89.93 60.84 91.37 63.17 C 90.69 63.92 90.01 64.65 89.31 65.38 C 93.51 65.98 97.62 67.05 101.84 67.52 C 105.60 68.19 109.61 68.09 113.01 70.08 C 111.96 71.94 109.83 72.23 107.97 72.74 C 110.03 72.53 112.66 71.58 113.84 73.99 C 113.61 75.95 111.49 75.05 110.26 75.53 C 112.07 75.56 113.88 75.68 115.61 76.25 C 115.30 78.08 114.85 79.88 114.32 81.66 C 113.05 81.62 111.77 81.57 110.49 81.51 C 109.51 82.77 108.71 84.74 106.83 84.71 C 102.86 84.83 98.69 85.22 94.91 83.74 C 93.49 85.03 92.36 87.30 90.08 86.85 C 86.32 86.54 82.52 86.35 78.77 86.88 L 78.68 85.74 C 81.56 85.49 84.39 84.80 87.17 84.04 C 84.75 82.13 81.97 83.88 79.46 84.57 C 77.98 84.93 77.42 86.53 76.58 87.61 C 75.45 88.24 73.41 87.86 72.97 89.34 C 71.76 96.98 71.06 104.69 70.30 112.39 C 70.11 113.83 70.54 115.24 70.74 116.66 C 68.68 118.33 66.69 120.08 64.75 121.88 C 62.45 121.12 60.11 121.27 57.98 122.48 C 57.44 122.08 56.35 121.28 55.80 120.88 C 58.80 117.18 63.43 115.70 67.33 113.25 C 67.90 105.12 68.92 96.98 69.97 88.88 C 66.22 90.69 62.03 90.69 57.96 90.67 C 57.58 95.04 57.07 99.40 57.51 103.79 C 58.00 108.19 56.71 112.67 57.81 117.00 C 54.83 119.22 51.26 120.29 47.91 121.79 C 45.15 120.09 42.37 118.23 41.76 114.80 C 45.61 113.83 49.60 114.30 53.51 114.54 C 54.76 110.13 54.80 105.41 53.95 100.92 C 53.57 97.59 56.08 93.24 52.85 90.77 C 47.93 90.51 43.21 88.95 38.59 87.35 C 36.93 86.84 36.08 85.20 34.87 84.09 C 33.32 82.31 30.78 81.65 29.61 79.51 C 26.83 75.19 23.33 71.36 20.93 66.80 C 20.28 64.47 20.41 62.00 20.11 59.61 C 23.69 58.72 26.83 53.90 24.90 50.51 C 23.82 53.58 23.75 57.88 20.17 59.11 C 20.43 55.43 21.36 51.13 24.33 48.68 C 24.14 46.49 25.93 45.06 27.12 43.48 C 27.62 43.74 28.63 44.25 29.13 44.51 C 28.37 43.72 27.60 42.95 26.83 42.17 C 27.68 41.62 28.52 41.05 29.36 40.46 C 28.64 40.81 27.20 41.51 26.48 41.85 C 26.33 40.58 26.18 39.31 26.00 38.03 C 26.50 37.43 27.00 36.82 27.50 36.21 C 22.74 36.25 19.63 40.48 15.19 41.26 C 15.66 38.67 15.89 35.53 18.40 34.03 C 22.16 31.51 24.62 27.65 27.37 24.16 M 31.13 29.16 C 28.77 31.80 33.81 35.79 35.48 32.49 C 37.19 30.02 33.12 27.42 31.13 29.16 M 90.08 82.19 C 90.77 82.86 90.77 82.86 90.08 82.19 Z" />
</g>
</svg>
