<?xml version="1.0" encoding="UTF-8" ?>
<!DOCTYPE svg PUBLIC "-//W3C//DTD SVG 1.1//EN" "http://www.w3.org/Graphics/SVG/1.1/DTD/svg11.dtd">
<svg width="128pt" height="128pt" viewBox="0 0 128 128" version="1.1" xmlns="http://www.w3.org/2000/svg">
<g id="#000000ff">
<path fill="#000000" opacity="1.00" d=" M 87.73 0.00 L 89.44 0.00 C 90.72 0.32 92.01 0.64 93.29 0.97 C 93.48 3.86 93.66 6.76 93.79 9.66 C 94.79 10.39 95.78 11.13 96.77 11.88 C 94.85 8.85 95.60 5.24 95.55 1.87 C 96.81 2.46 98.07 3.08 99.32 3.71 C 99.57 4.69 99.82 5.67 100.07 6.65 C 99.01 6.39 97.94 6.14 96.87 5.89 C 98.65 8.29 98.96 11.17 98.58 14.06 C 99.45 13.81 100.33 13.56 101.20 13.31 C 100.24 14.68 99.25 16.03 98.30 17.41 C 98.99 17.40 100.36 17.37 101.04 17.36 C 101.53 23.15 101.79 29.04 100.28 34.71 C 99.27 34.51 98.27 34.32 97.27 34.13 C 98.58 36.91 98.69 39.98 98.96 42.99 C 101.19 41.38 100.40 38.63 100.36 36.32 C 100.69 36.31 101.37 36.30 101.71 36.29 C 102.07 39.90 100.70 43.08 98.24 45.66 C 99.12 45.57 100.86 45.39 101.74 45.30 C 100.67 46.17 99.57 46.99 98.49 47.84 C 97.92 54.71 100.82 61.43 99.22 68.26 C 98.90 68.49 98.26 68.96 97.94 69.19 C 96.39 69.49 95.02 68.61 93.63 68.08 C 93.64 70.85 93.41 73.62 93.56 76.39 C 94.00 76.51 94.90 76.76 95.35 76.88 C 95.77 74.11 95.79 70.29 99.01 69.29 C 101.91 76.25 100.08 84.03 99.91 91.32 C 98.41 91.36 96.91 91.46 95.42 91.57 C 96.23 89.11 97.07 86.65 97.83 84.17 C 97.34 84.03 96.37 83.75 95.88 83.61 C 95.56 85.98 94.31 88.18 94.31 90.59 C 95.08 92.05 96.73 93.19 96.55 95.01 C 96.53 99.09 96.87 103.24 96.14 107.27 C 94.89 109.00 93.09 110.38 92.30 112.41 C 90.94 117.53 89.63 122.68 89.31 128.00 L 88.52 128.00 C 85.44 110.78 89.12 93.14 86.37 75.90 C 87.94 75.41 89.52 74.91 91.06 74.31 C 89.24 74.74 87.45 75.27 85.66 75.77 C 84.67 66.05 86.36 56.33 85.61 46.61 C 82.53 49.09 80.61 53.20 76.19 53.46 C 76.10 56.40 76.93 59.21 77.54 62.06 C 76.90 64.54 75.45 66.68 74.49 69.04 C 74.67 70.50 75.58 71.74 76.20 73.04 C 75.10 76.35 73.82 79.67 73.46 83.17 C 73.34 88.56 75.99 93.63 75.45 99.04 C 75.19 101.27 73.91 103.54 74.80 105.78 C 76.37 110.34 78.12 114.87 79.03 119.63 C 78.37 119.69 77.05 119.80 76.39 119.86 C 76.39 117.96 76.36 116.05 76.32 114.14 C 73.15 111.54 71.41 107.85 70.68 103.86 C 69.93 102.14 71.91 101.00 72.69 99.73 C 71.33 100.91 69.93 102.03 68.49 103.11 C 68.95 106.04 69.88 108.87 70.41 111.78 C 69.74 111.75 68.40 111.69 67.72 111.65 C 65.90 103.64 61.90 96.35 58.40 88.97 C 56.77 88.19 55.27 87.18 53.80 86.13 C 53.56 87.43 53.33 88.73 53.10 90.03 C 49.53 84.61 45.26 79.73 40.83 74.99 C 41.42 76.86 42.13 78.68 42.77 80.53 C 40.87 79.43 38.19 78.58 37.88 76.06 C 37.05 72.04 35.87 68.01 33.52 64.59 C 34.12 64.06 34.72 63.52 35.32 62.98 C 33.94 60.21 32.12 57.69 30.79 54.89 C 31.19 50.68 33.35 46.63 31.82 42.36 C 32.33 42.72 33.34 43.44 33.84 43.80 C 32.43 41.26 32.50 37.81 30.13 35.90 C 27.39 34.48 24.14 34.22 21.54 32.47 C 19.91 30.45 18.78 28.08 17.34 25.93 C 17.13 27.25 16.89 28.57 16.63 29.88 C 16.11 29.66 15.07 29.21 14.56 28.99 C 15.14 25.48 17.73 22.62 20.01 20.02 C 23.69 16.90 28.53 15.40 33.26 14.89 C 35.21 10.98 37.60 7.33 39.74 3.53 C 40.28 3.49 41.36 3.40 41.90 3.36 C 41.59 8.05 40.96 12.72 39.83 17.29 C 42.49 19.46 45.19 21.58 47.79 23.82 C 53.59 21.94 59.01 25.28 63.71 28.29 C 66.85 30.17 67.94 34.04 70.84 36.20 C 73.96 38.52 74.03 42.82 75.29 46.20 C 76.77 43.48 77.77 40.54 78.25 37.49 C 80.97 37.87 83.45 36.93 85.67 35.41 C 85.43 25.93 85.44 16.45 85.21 6.97 C 85.13 4.40 86.46 2.13 87.73 0.00 M 95.16 14.44 C 94.27 15.64 94.50 16.36 95.87 16.60 C 96.75 15.38 96.52 14.66 95.16 14.44 M 29.09 19.09 C 28.48 20.37 27.84 21.63 27.35 22.96 C 28.00 25.08 30.58 24.55 32.25 24.94 C 32.69 23.24 32.76 21.48 32.79 19.73 C 31.56 19.47 30.33 19.26 29.09 19.09 M 99.19 22.27 C 98.81 23.70 99.28 24.28 100.61 24.01 C 101.02 22.56 100.54 21.98 99.19 22.27 M 99.10 25.34 C 97.50 28.31 102.55 25.47 99.10 25.34 M 48.59 26.08 C 48.18 27.48 48.66 27.97 50.03 27.54 C 50.44 26.11 49.97 25.63 48.59 26.08 M 99.26 28.60 C 98.38 29.82 98.66 30.52 100.08 30.72 C 100.91 29.52 100.64 28.82 99.26 28.60 M 95.99 36.53 C 96.26 34.20 96.43 31.85 96.37 29.51 C 94.14 31.01 93.49 34.95 95.99 36.53 M 95.47 37.99 C 95.04 39.42 95.50 39.93 96.85 39.52 C 97.28 38.08 96.82 37.57 95.47 37.99 M 80.89 45.73 C 82.46 45.03 84.08 44.41 85.55 43.51 C 86.44 42.06 86.01 40.23 86.18 38.63 C 83.62 40.27 81.83 42.87 80.89 45.73 M 95.40 46.14 C 96.39 44.57 96.49 42.69 96.63 40.89 C 94.49 41.72 95.57 44.41 95.40 46.14 M 95.22 50.22 C 95.80 50.83 95.80 50.83 95.22 50.22 M 92.28 53.21 C 92.87 53.85 92.87 53.85 92.28 53.21 M 95.16 60.40 C 93.66 63.36 98.62 60.40 95.16 60.40 M 96.99 62.47 C 96.49 64.08 97.06 64.65 98.71 64.16 C 99.20 62.54 98.62 61.97 96.99 62.47 M 96.08 66.33 C 94.49 69.21 99.60 66.42 96.08 66.33 M 39.12 72.25 C 39.76 72.90 39.76 72.90 39.12 72.25 M 97.08 75.52 C 96.15 76.68 96.40 77.34 97.84 77.48 C 98.78 76.32 98.53 75.67 97.08 75.52 M 47.86 77.17 C 49.18 80.08 51.33 82.51 53.22 85.07 C 54.67 81.49 50.89 78.34 47.86 77.17 M 90.43 77.28 C 90.86 81.76 90.11 86.25 90.48 90.73 C 90.74 93.19 90.53 95.65 90.45 98.11 C 91.19 97.56 91.68 96.82 91.91 95.91 C 92.47 96.13 93.61 96.59 94.17 96.81 C 93.42 95.72 91.03 94.47 92.95 93.28 C 91.92 90.22 92.45 86.94 92.64 83.78 C 93.56 82.91 94.42 81.96 95.18 80.94 C 94.40 80.84 92.85 80.62 92.07 80.52 C 92.29 79.41 92.51 78.31 92.71 77.20 C 92.14 77.22 91.00 77.26 90.43 77.28 M 94.33 78.21 C 94.36 81.68 97.31 76.61 94.33 78.21 M 89.34 115.93 C 89.26 119.40 92.32 114.41 89.34 115.93 Z" />
</g>
</svg>
