<?xml version="1.0" encoding="UTF-8" ?>
<!DOCTYPE svg PUBLIC "-//W3C//DTD SVG 1.1//EN" "http://www.w3.org/Graphics/SVG/1.1/DTD/svg11.dtd">
<svg width="128pt" height="128pt" viewBox="0 0 128 128" version="1.1" xmlns="http://www.w3.org/2000/svg">
<g id="#000000ff">
<path fill="#000000" opacity="1.00" d=" M 69.65 13.68 C 69.51 7.54 74.50 2.63 80.16 1.18 C 85.30 -0.42 89.93 3.30 94.75 4.44 C 100.41 6.53 106.52 7.38 111.86 10.25 C 108.85 11.74 105.67 9.86 102.58 9.68 C 95.76 9.36 88.89 7.53 82.09 8.99 C 79.15 10.42 76.22 11.90 73.00 12.66 C 73.33 10.19 74.90 8.22 76.14 6.16 C 76.66 6.43 77.69 6.99 78.21 7.27 C 77.66 6.73 77.11 6.19 76.56 5.65 C 73.83 7.94 71.66 10.76 69.65 13.68 M 81.25 3.40 C 81.24 4.00 81.23 5.19 81.22 5.78 C 82.54 5.80 83.86 5.81 85.19 5.84 C 85.23 5.03 85.32 3.42 85.37 2.61 C 83.99 2.85 82.62 3.11 81.25 3.40 Z" />
<path fill="#000000" opacity="1.00" d=" M 74.17 15.70 C 73.59 13.56 76.09 12.55 77.27 11.27 C 79.31 15.80 81.08 20.89 85.07 24.08 C 86.96 27.07 87.49 30.69 89.27 33.74 C 90.59 35.90 90.71 38.49 90.71 40.95 C 90.68 46.47 91.23 52.15 89.31 57.45 C 88.16 53.45 88.29 49.31 88.60 45.21 C 86.79 46.82 86.85 49.43 86.05 51.55 C 85.60 50.86 84.71 49.47 84.26 48.78 C 81.52 52.56 76.65 54.27 74.60 58.59 C 71.44 64.53 68.55 70.62 65.77 76.75 C 65.11 78.89 62.29 79.78 62.42 82.22 C 62.34 85.59 61.12 88.74 60.42 91.99 C 60.82 98.92 61.09 105.86 61.87 112.76 C 65.81 112.45 70.37 109.99 73.86 112.85 C 70.60 114.47 66.88 114.41 63.54 115.77 C 69.22 115.20 74.87 116.27 80.55 115.50 C 79.71 117.03 78.64 118.42 77.54 119.77 C 74.45 118.52 70.99 118.04 67.75 119.05 C 62.59 120.56 57.27 121.43 51.97 122.33 C 51.83 119.73 54.71 119.89 56.47 119.18 C 56.05 117.98 55.64 116.78 55.24 115.57 C 53.39 115.79 51.53 115.84 49.67 115.76 C 51.02 114.31 53.12 114.61 54.90 114.38 C 53.13 105.76 53.41 96.91 53.52 88.16 C 53.86 84.96 54.98 81.91 56.05 78.89 C 52.69 76.66 48.78 77.61 45.03 77.37 C 44.42 80.60 41.44 82.11 39.11 83.98 C 37.75 83.66 36.37 83.40 34.99 83.21 C 35.32 81.32 35.87 79.30 33.91 78.09 C 32.06 79.84 30.57 82.16 28.03 82.99 C 28.49 78.77 32.25 76.01 34.84 72.97 C 33.92 72.56 32.99 72.15 32.07 71.75 C 32.42 71.25 33.12 70.23 33.47 69.73 C 32.67 70.57 31.87 71.42 31.08 72.26 C 31.63 72.89 32.19 73.53 32.74 74.16 C 30.29 75.68 28.57 79.18 25.24 78.33 C 22.59 80.98 21.06 85.04 17.41 86.44 C 17.52 85.91 17.74 84.85 17.85 84.32 C 20.82 80.66 22.82 76.12 26.79 73.36 C 25.47 73.77 24.11 73.88 22.78 73.38 C 24.63 71.54 26.69 69.94 28.70 68.27 C 27.01 68.76 25.35 69.33 23.64 69.74 C 24.86 67.76 26.81 66.07 26.57 63.54 C 31.22 60.72 36.25 58.62 41.03 56.06 C 35.33 57.03 30.16 59.80 24.53 61.05 C 24.62 60.59 24.80 59.67 24.89 59.21 C 30.70 56.24 37.13 54.60 43.30 52.49 C 39.45 53.34 35.56 53.99 31.72 54.87 C 32.85 53.21 32.39 51.69 31.02 50.40 C 34.54 49.71 37.99 48.70 41.55 48.26 C 43.75 47.97 46.09 47.62 47.77 46.02 C 48.72 44.95 50.14 46.05 51.27 46.18 C 52.13 46.18 52.99 46.15 53.85 46.13 C 47.02 42.47 38.42 47.43 32.13 41.96 C 34.68 39.55 38.23 39.64 41.43 40.33 C 40.98 41.09 40.09 42.62 39.64 43.38 C 40.36 42.43 41.06 41.46 41.74 40.48 C 49.05 40.61 56.84 41.99 63.69 38.68 C 67.78 37.37 71.86 35.08 76.28 35.59 C 76.39 36.50 76.61 38.32 76.72 39.22 C 79.28 37.03 80.38 33.75 82.00 30.90 C 78.29 26.51 75.77 21.19 74.17 15.70 M 39.93 80.59 C 43.47 76.01 46.15 70.75 48.66 65.53 C 44.60 69.74 41.75 75.07 39.93 80.59 M 55.76 86.59 C 54.50 95.68 55.54 104.88 56.93 113.89 C 58.09 113.57 59.25 113.26 60.41 112.96 C 58.25 106.44 60.03 99.55 58.32 92.97 C 59.84 84.69 61.51 76.47 63.97 68.39 C 60.25 73.94 57.29 80.06 55.76 86.59 M 46.21 74.26 C 46.85 74.79 46.85 74.79 46.21 74.26 M 56.29 115.69 C 56.92 118.79 60.71 117.89 62.13 115.94 C 60.29 114.89 58.23 115.15 56.29 115.69 Z" />
<path fill="#000000" opacity="1.00" d=" M 33.32 46.60 C 38.05 45.29 42.98 45.43 47.84 45.35 C 47.21 45.82 45.94 46.78 45.31 47.25 C 40.99 47.71 36.63 47.65 32.31 48.23 C 32.57 47.83 33.07 47.01 33.32 46.60 Z" />
</g>
</svg>
