<?xml version="1.0" encoding="UTF-8" ?>
<!DOCTYPE svg PUBLIC "-//W3C//DTD SVG 1.1//EN" "http://www.w3.org/Graphics/SVG/1.1/DTD/svg11.dtd">
<svg width="128pt" height="128pt" viewBox="0 0 128 128" version="1.1" xmlns="http://www.w3.org/2000/svg">
<g id="#000000ff">
<path fill="#000000" opacity="1.00" d=" M 58.13 42.63 C 61.67 43.60 65.29 44.27 68.79 45.38 C 68.74 46.24 68.68 47.09 68.63 47.95 C 70.46 46.45 72.43 44.86 74.97 45.60 C 80.68 46.84 86.55 48.26 91.54 51.44 C 98.92 55.75 107.37 57.58 115.58 59.59 C 117.68 61.21 119.97 62.40 122.57 63.03 C 121.99 63.41 120.82 64.16 120.24 64.53 C 122.53 65.67 123.62 67.99 124.99 69.99 C 123.93 69.85 121.81 69.56 120.75 69.41 C 122.44 71.93 124.50 74.19 125.94 76.87 C 123.56 76.08 121.34 74.91 119.07 73.86 C 122.09 76.29 124.68 79.46 125.49 83.35 C 123.70 82.60 122.01 81.65 120.28 80.81 C 122.10 83.48 124.34 85.82 126.25 88.42 C 120.91 84.48 114.48 82.02 109.87 77.14 C 105.74 72.12 101.12 67.41 98.41 61.40 C 94.97 59.69 91.50 58.03 88.16 56.12 C 87.63 56.59 86.59 57.52 86.06 57.98 C 87.40 61.38 88.27 65.05 91.33 67.38 C 87.96 66.85 85.75 64.19 85.04 60.99 C 82.16 62.47 79.05 61.63 76.09 60.92 C 76.53 62.10 77.00 63.26 77.51 64.41 C 78.80 65.61 80.69 65.81 82.18 66.70 C 80.05 66.80 77.91 66.68 75.78 66.56 C 75.65 65.12 75.57 63.68 75.52 62.24 C 74.17 62.41 72.81 62.56 71.46 62.67 C 67.96 57.94 61.80 56.75 57.47 52.99 C 58.12 55.28 58.98 57.51 59.55 59.83 C 61.18 59.26 62.85 58.81 64.58 58.65 C 60.82 63.04 54.96 64.55 49.86 66.79 C 38.69 70.49 30.16 79.00 19.55 83.79 C 21.27 80.68 24.52 78.95 26.71 76.24 C 21.94 78.18 18.91 82.62 14.62 85.30 C 15.06 83.97 15.52 82.64 15.99 81.32 C 14.18 82.68 12.34 84.01 10.34 85.09 C 12.37 80.36 18.23 79.27 20.73 74.93 C 15.82 77.60 11.37 81.18 6.13 83.20 C 7.50 80.45 10.79 79.70 12.80 77.51 C 9.03 78.45 5.96 81.04 2.18 81.96 C 2.83 79.65 5.38 79.24 7.22 78.23 C 13.82 74.99 20.43 71.76 27.07 68.63 C 29.68 68.71 31.88 67.29 33.97 65.91 C 33.37 65.52 32.17 64.74 31.58 64.35 C 37.96 58.50 46.08 55.26 54.17 52.55 C 55.57 52.55 56.97 52.76 58.37 52.86 C 57.25 51.38 56.11 49.91 55.07 48.38 C 52.53 49.02 50.10 49.97 47.64 50.86 C 50.14 46.89 55.17 46.16 58.13 42.63 M 57.54 47.82 C 58.48 47.74 60.35 47.59 61.29 47.52 C 60.55 46.27 59.75 45.05 58.90 43.87 C 58.41 45.18 57.96 46.49 57.54 47.82 M 78.18 48.74 C 76.85 49.10 76.78 51.75 78.52 50.71 C 80.01 50.48 79.86 47.73 78.18 48.74 M 101.01 62.18 C 100.31 63.55 101.71 65.42 103.01 65.87 C 104.68 65.03 102.68 61.43 101.01 62.18 M 34.17 67.09 C 32.83 67.83 32.77 68.53 33.99 69.19 C 35.33 68.42 35.39 67.72 34.17 67.09 M 110.77 75.61 C 112.72 78.64 115.81 80.88 119.40 81.46 C 116.68 79.31 113.85 77.23 110.77 75.61 M 17.21 80.29 C 17.86 80.93 17.86 80.93 17.21 80.29 Z" />
</g>
</svg>
