<?xml version="1.0" encoding="UTF-8" ?>
<!DOCTYPE svg PUBLIC "-//W3C//DTD SVG 1.1//EN" "http://www.w3.org/Graphics/SVG/1.1/DTD/svg11.dtd">
<svg width="128pt" height="128pt" viewBox="0 0 128 128" version="1.1" xmlns="http://www.w3.org/2000/svg">
<g id="#000000ff">
<path fill="#000000" opacity="1.00" d=" M 82.21 9.49 C 86.82 6.55 92.49 5.60 97.88 5.25 C 100.24 6.16 101.90 8.50 103.60 10.34 C 108.84 18.82 117.43 24.27 125.81 29.25 C 125.41 32.31 124.16 35.15 123.47 38.14 C 118.12 38.09 112.57 34.94 107.41 37.24 C 103.17 43.27 103.40 50.90 100.94 57.61 C 100.19 59.22 101.54 60.56 102.24 61.89 C 101.11 64.05 99.98 66.21 98.88 68.39 C 98.06 68.03 97.23 67.67 96.41 67.32 C 96.85 68.09 97.27 68.88 97.67 69.67 C 95.64 72.32 93.87 75.17 91.74 77.75 C 89.78 80.38 89.65 83.77 89.92 86.91 C 89.36 93.58 88.69 100.30 89.39 107.00 C 89.49 109.60 90.57 112.38 89.12 114.82 C 87.94 114.20 87.38 113.25 87.44 111.96 C 87.22 107.31 86.18 102.73 86.33 98.06 C 86.54 91.44 84.87 84.91 82.29 78.85 C 80.20 79.80 76.92 79.56 76.04 82.11 C 75.49 85.20 74.66 88.60 76.40 91.47 C 77.39 98.02 74.43 104.44 74.86 111.04 C 75.33 114.00 74.23 116.84 74.12 119.78 C 73.70 119.81 72.87 119.87 72.45 119.90 C 72.11 115.25 72.63 110.56 71.83 105.94 C 71.41 103.39 72.72 100.90 72.24 98.36 C 70.86 93.03 71.52 87.41 69.89 82.11 C 70.53 81.91 71.80 81.49 72.43 81.28 C 72.95 80.18 73.49 79.11 74.00 78.01 C 73.01 79.06 72.13 80.21 71.05 81.17 C 64.77 82.86 58.24 83.19 51.80 83.90 C 48.92 84.28 46.37 85.87 43.50 86.35 C 41.76 86.73 39.45 86.55 38.51 88.43 C 36.83 92.35 35.64 96.47 33.82 100.35 L 33.14 100.46 C 32.63 100.07 31.61 99.27 31.10 98.87 C 30.82 97.61 31.83 96.83 32.66 96.11 C 32.99 94.45 33.37 92.81 33.75 91.17 C 33.06 94.38 31.08 97.05 30.12 100.14 C 30.79 100.35 32.15 100.77 32.82 100.98 C 31.36 108.23 29.10 115.47 29.90 123.00 C 27.43 123.25 28.16 120.61 27.85 119.03 C 27.89 116.81 26.31 115.07 25.85 112.97 C 24.56 108.85 26.38 104.68 27.75 100.85 C 29.31 96.14 27.83 91.22 27.24 86.48 C 24.53 89.32 21.54 91.89 18.39 94.23 C 17.51 94.67 16.48 94.39 15.53 94.49 C 11.47 101.02 5.13 106.57 4.37 114.66 C 3.83 114.80 2.76 115.08 2.23 115.21 C 2.34 112.21 2.48 109.21 2.78 106.23 C 4.13 102.13 6.14 98.22 8.98 94.95 C 11.35 92.33 12.46 88.90 13.25 85.52 C 13.47 80.56 12.22 75.67 12.06 70.72 C 9.75 72.10 7.72 73.84 5.83 75.75 C 5.71 75.09 5.47 73.78 5.35 73.13 C 7.33 69.15 10.58 65.56 10.75 60.91 C 11.85 61.64 12.94 62.39 14.08 63.07 C 13.49 62.04 12.87 61.03 12.23 60.03 C 16.58 56.79 20.15 52.71 23.71 48.66 C 26.43 48.15 29.28 49.01 32.00 48.19 C 37.73 46.89 43.53 45.93 49.39 45.45 C 50.88 44.87 52.02 46.27 52.74 47.33 C 50.23 47.87 47.70 48.31 45.16 48.73 C 48.84 48.55 52.42 47.71 55.96 46.73 C 53.99 47.27 52.57 46.85 52.43 44.70 C 56.13 44.07 59.81 43.33 63.55 43.10 C 68.62 40.97 74.01 39.83 79.26 38.24 C 81.02 37.61 82.50 39.18 84.02 39.81 C 87.62 38.80 90.98 37.12 94.12 35.11 C 96.23 31.23 97.57 26.03 94.76 22.15 C 93.53 20.32 94.63 17.93 96.32 16.82 C 96.36 17.52 96.44 18.91 96.48 19.60 C 97.08 18.71 97.72 17.84 98.40 17.00 C 96.89 15.72 95.63 14.09 93.84 13.19 C 89.16 13.36 86.08 17.92 85.04 22.07 C 85.43 24.43 86.78 26.53 87.19 28.90 C 87.45 31.53 90.61 32.45 91.10 35.02 C 86.84 33.83 83.64 30.34 80.87 27.06 C 77.24 22.93 78.08 16.65 80.69 12.21 C 81.80 11.83 82.65 12.83 83.54 13.30 C 83.90 13.22 84.61 13.06 84.97 12.99 C 84.04 11.83 83.07 10.71 82.21 9.49 M 92.11 8.33 C 92.99 10.22 95.53 9.67 97.20 10.22 C 96.34 7.89 94.15 8.01 92.11 8.33 M 104.17 19.03 C 104.44 22.45 107.05 17.43 104.17 19.03 M 106.55 21.47 C 106.01 22.61 105.45 23.74 104.92 24.88 C 106.09 25.80 107.43 26.46 108.93 26.63 C 109.74 24.89 110.06 22.79 111.63 21.52 C 109.94 21.73 108.24 21.58 106.55 21.47 M 99.10 26.29 C 97.57 29.19 102.55 26.35 99.10 26.29 M 30.41 60.39 C 29.19 60.69 27.74 61.26 27.19 62.46 C 27.49 64.65 32.36 61.31 30.41 60.39 M 94.51 62.34 C 93.51 62.98 92.66 64.55 93.23 65.69 C 94.61 66.00 96.42 62.54 94.51 62.34 M 82.91 73.64 C 82.16 75.33 82.63 75.82 84.32 75.11 C 85.05 73.45 84.58 72.96 82.91 73.64 M 47.68 80.70 C 50.86 80.97 54.24 80.83 56.98 78.99 C 53.90 77.45 50.61 79.67 47.68 80.70 M 87.30 77.95 C 86.79 79.37 87.22 79.86 88.59 79.42 C 89.11 77.97 88.68 77.48 87.30 77.95 Z" />
</g>
</svg>
