<?xml version="1.0" encoding="UTF-8" ?>
<!DOCTYPE svg PUBLIC "-//W3C//DTD SVG 1.1//EN" "http://www.w3.org/Graphics/SVG/1.1/DTD/svg11.dtd">
<svg width="200pt" height="200pt" viewBox="0 0 200 200" version="1.1" xmlns="http://www.w3.org/2000/svg">
<g id="#000000ff">
<path fill="#000000" opacity="1.00" d=" M 151.19 39.87 C 152.41 36.16 153.70 32.40 155.95 29.17 C 161.50 31.37 161.09 38.09 161.74 43.04 C 164.12 39.97 165.63 35.99 169.22 34.08 C 170.66 32.84 172.69 34.27 172.52 35.99 C 172.75 38.71 172.58 41.45 172.49 44.17 C 174.15 40.92 175.52 37.51 177.39 34.36 C 177.97 33.12 179.58 33.32 180.70 33.11 C 182.75 35.54 182.66 39.03 182.39 42.02 C 181.53 46.93 181.35 51.92 181.18 56.89 C 179.79 58.95 177.09 58.01 175.02 58.27 C 170.31 58.63 165.68 57.61 161.03 57.12 C 154.74 56.34 148.39 56.57 142.08 56.18 C 140.41 56.17 139.21 54.46 139.40 52.88 C 139.35 47.60 140.90 42.45 141.03 37.17 C 141.01 34.21 143.36 32.27 145.78 31.08 C 148.39 33.45 149.89 36.66 151.19 39.87 M 145.05 35.98 C 144.88 41.55 143.82 47.01 143.18 52.52 C 154.52 52.04 165.72 54.49 177.06 53.55 C 177.24 49.87 177.62 46.20 178.14 42.55 C 176.19 45.41 173.64 47.47 170.13 47.90 C 169.42 47.27 168.71 46.64 168.00 46.01 C 168.33 43.99 168.61 41.97 168.84 39.94 C 167.18 42.24 165.59 44.59 163.81 46.79 C 162.07 46.04 160.08 45.66 158.62 44.38 C 157.48 42.02 157.26 39.38 156.80 36.84 C 155.32 39.18 154.66 42.39 151.98 43.69 C 147.47 44.29 147.17 38.65 145.05 35.98 Z" />
<path fill="#000000" opacity="1.00" d=" M 50.86 57.85 C 57.03 51.23 66.01 45.55 75.41 47.73 C 78.80 49.67 82.40 51.35 85.35 53.96 C 87.51 52.30 89.24 50.19 91.00 48.13 C 92.80 49.68 94.77 51.01 96.80 52.22 C 99.41 53.33 99.82 56.45 101.65 58.37 C 104.09 61.00 105.66 64.66 109.11 66.14 C 107.07 62.04 104.36 58.28 101.39 54.80 C 101.77 54.38 102.52 53.54 102.90 53.11 C 101.58 51.87 100.19 50.48 102.75 49.72 C 104.62 51.71 106.49 53.71 108.74 55.29 C 108.05 52.89 108.01 50.43 108.56 48.00 C 112.41 48.71 115.10 51.54 117.65 54.26 C 117.33 53.67 116.68 52.50 116.36 51.91 C 117.51 50.88 118.70 49.89 119.90 48.92 C 123.30 50.72 125.08 54.23 127.98 56.57 C 127.31 55.49 126.59 54.43 125.84 53.40 C 127.58 51.78 128.80 49.47 130.96 48.41 C 135.37 52.71 136.90 59.34 140.99 64.00 C 143.10 65.93 145.42 67.61 147.76 69.26 C 151.77 71.91 154.41 76.43 159.19 77.90 C 164.72 81.56 168.55 87.18 173.67 91.33 C 177.13 94.90 180.15 98.91 182.94 103.02 C 184.81 108.00 188.21 112.45 188.77 117.88 C 187.87 119.99 185.04 120.04 184.06 122.07 C 180.54 128.13 174.67 132.19 168.94 135.94 C 166.31 137.75 162.92 137.63 160.22 139.27 C 155.89 141.87 150.52 141.66 146.23 144.33 C 142.61 146.13 138.40 146.19 134.67 147.64 C 132.38 149.40 129.30 152.41 126.69 149.40 C 127.97 150.59 129.17 151.86 130.36 153.13 C 128.60 156.56 128.80 160.98 125.51 163.50 C 122.69 167.13 118.12 168.12 114.21 170.10 C 111.53 171.45 108.66 170.06 106.07 169.22 C 104.13 165.68 102.43 161.88 99.29 159.20 C 102.53 155.98 105.83 152.81 109.30 149.82 C 106.32 149.49 103.29 149.35 100.40 148.48 C 100.38 147.86 100.34 146.60 100.33 145.98 C 100.23 146.61 100.02 147.89 99.92 148.53 C 95.99 146.86 93.54 142.92 89.25 141.91 C 89.60 142.38 90.31 143.31 90.66 143.78 C 89.79 144.94 88.93 146.10 88.09 147.28 C 89.86 146.22 91.59 145.09 93.37 144.05 C 93.46 145.39 94.74 147.24 93.12 148.16 C 90.25 150.13 87.25 151.94 84.75 154.41 C 83.90 153.74 83.05 153.07 82.19 152.42 C 79.15 154.33 75.93 155.94 72.84 157.77 C 70.78 156.69 68.65 155.69 66.91 154.12 C 63.34 150.36 57.16 151.31 53.86 147.13 C 51.50 143.47 49.87 138.87 51.47 134.55 C 49.71 132.70 49.37 129.20 51.80 127.74 C 54.34 125.97 57.08 123.42 60.03 122.95 C 60.55 123.85 60.84 124.81 60.90 125.84 C 58.27 127.85 54.70 128.88 52.89 131.78 C 54.81 131.70 56.99 132.08 58.48 130.57 C 62.22 127.49 68.17 126.15 69.59 121.00 C 68.36 120.59 67.12 120.18 65.88 119.82 C 66.51 120.75 68.41 121.37 67.76 122.78 C 66.26 124.50 63.55 124.02 61.54 124.71 C 59.74 122.83 61.91 120.94 63.02 119.44 C 60.91 118.02 59.30 115.77 56.73 115.12 C 53.51 114.27 50.54 112.73 47.38 111.71 C 47.33 112.38 47.22 113.73 47.17 114.40 C 45.98 115.26 45.36 113.99 44.67 113.22 C 36.52 117.61 28.85 124.57 19.05 124.31 C 16.41 123.18 14.41 120.92 11.52 120.30 C 10.11 116.27 11.06 112.00 11.87 107.95 C 12.49 102.32 17.91 99.36 20.55 94.78 C 19.49 93.37 17.90 92.28 17.29 90.59 C 16.05 85.73 14.54 80.90 14.49 75.83 C 15.04 75.53 16.14 74.92 16.69 74.62 C 16.96 70.84 18.01 66.99 21.36 64.77 C 21.64 66.40 21.87 68.03 22.14 69.66 C 28.44 74.92 33.86 81.33 40.93 85.63 C 40.31 84.34 39.62 83.08 38.90 81.84 C 39.12 81.48 39.55 80.76 39.77 80.40 C 39.15 80.50 37.91 80.69 37.29 80.78 C 32.37 75.03 26.00 70.45 22.25 63.78 C 23.71 63.35 25.69 62.62 26.59 64.37 C 32.82 71.82 40.36 78.05 46.36 85.70 C 49.67 88.79 54.59 87.80 58.69 87.52 C 58.86 87.17 59.20 86.48 59.36 86.13 C 53.66 82.30 48.04 76.34 48.37 69.00 C 48.49 65.22 47.98 60.78 50.86 57.85 M 66.67 51.46 C 72.61 57.75 78.93 63.70 84.54 70.30 C 86.38 69.56 88.18 68.71 89.94 67.79 C 89.05 68.09 88.17 68.40 87.29 68.72 C 83.04 64.89 79.30 60.56 75.71 56.11 C 74.66 55.17 74.68 53.77 74.53 52.48 C 74.14 52.57 73.36 52.76 72.97 52.86 C 72.70 52.00 72.43 51.15 72.16 50.30 C 70.33 50.68 68.50 51.05 66.67 51.46 M 60.71 53.63 C 66.14 58.61 71.75 63.40 76.97 68.61 C 77.18 68.76 77.62 69.05 77.83 69.19 C 78.44 70.20 79.02 71.22 79.57 72.26 C 78.95 72.28 77.72 72.33 77.11 72.35 C 70.99 68.88 66.44 63.34 61.24 58.70 C 61.54 58.42 62.15 57.86 62.45 57.58 C 61.03 57.18 59.65 56.64 58.23 56.26 C 56.39 56.89 55.01 58.49 53.83 59.99 C 55.90 61.08 58.19 61.66 60.29 62.70 C 66.13 65.93 71.05 70.68 77.02 73.67 C 78.64 73.07 80.04 72.05 81.49 71.14 C 74.72 66.05 69.19 59.61 63.50 53.37 C 62.81 53.43 61.41 53.57 60.71 53.63 M 91.13 56.57 C 93.74 60.03 96.86 63.05 99.76 66.25 C 100.63 67.28 101.98 67.51 103.20 67.88 C 102.19 64.02 98.86 61.48 96.69 58.30 C 95.25 56.08 93.43 54.16 91.65 52.22 C 91.37 53.58 89.81 55.32 91.13 56.57 M 79.90 55.00 C 83.26 60.02 88.08 63.80 91.96 68.39 C 93.55 68.33 95.13 68.23 96.72 68.09 C 94.28 65.27 91.67 62.61 89.07 59.94 C 86.02 58.31 82.93 56.69 79.90 55.00 M 108.79 57.70 C 110.98 60.44 112.54 64.24 116.05 65.49 C 114.54 61.66 111.82 58.51 110.01 54.83 C 109.63 55.77 107.66 56.65 108.79 57.70 M 116.95 57.30 C 117.46 60.85 120.14 65.23 124.30 64.40 C 122.41 61.59 121.08 57.08 116.95 57.30 M 127.11 60.91 C 127.39 61.47 127.95 62.59 128.23 63.15 C 129.43 63.12 130.63 63.09 131.83 63.07 C 131.23 61.76 130.62 60.45 130.03 59.14 C 129.07 59.74 128.10 60.33 127.11 60.91 M 53.50 62.82 C 50.00 67.04 52.22 72.42 54.49 76.61 C 58.09 76.38 61.70 76.09 65.21 75.21 C 61.56 74.47 57.92 73.59 54.36 72.48 C 51.82 70.85 55.18 68.94 56.99 69.62 C 61.30 70.59 65.45 72.23 69.67 73.54 C 69.56 73.14 69.34 72.33 69.23 71.93 C 65.44 71.64 62.95 68.44 60.04 66.40 C 57.75 65.41 55.67 64.02 53.50 62.82 M 113.24 71.77 C 111.83 69.14 108.15 70.79 105.93 71.39 C 105.42 70.45 104.89 69.52 104.35 68.60 C 104.71 69.34 105.45 70.80 105.81 71.54 C 102.16 72.32 98.53 73.23 94.98 74.39 C 95.36 75.08 95.76 75.76 96.18 76.43 C 97.22 76.08 98.22 75.63 99.24 75.21 C 100.21 75.18 101.35 75.78 102.21 75.10 C 104.30 73.72 106.84 73.35 108.98 72.05 C 109.26 72.77 109.81 74.21 110.09 74.93 C 110.77 73.59 111.49 72.27 112.23 70.96 C 112.60 72.86 112.62 74.79 112.51 76.72 C 113.99 74.68 115.97 73.15 118.09 71.82 C 118.90 73.40 119.75 74.95 120.76 76.42 C 120.59 75.10 120.40 73.79 120.18 72.48 C 122.95 72.47 125.89 73.09 128.50 71.86 C 130.78 71.71 133.03 71.37 135.31 71.17 C 134.30 72.30 133.98 74.74 132.05 74.49 C 127.61 74.12 123.62 76.72 119.21 76.94 C 118.12 76.15 117.16 75.20 116.12 74.35 C 116.29 74.99 116.62 76.26 116.79 76.90 C 114.51 77.44 112.40 78.64 110.07 78.92 C 107.72 78.17 106.02 76.24 104.03 74.89 C 103.76 75.43 103.21 76.51 102.94 77.05 C 104.34 77.75 105.72 78.50 107.11 79.23 C 104.74 79.70 102.41 80.36 100.05 80.85 C 100.91 79.40 101.83 77.97 102.68 76.50 C 101.18 76.61 99.70 76.82 98.23 77.12 C 98.34 78.90 98.49 80.68 98.78 82.45 C 97.84 82.02 96.89 81.65 95.92 81.32 C 85.45 85.53 76.05 91.88 66.64 98.01 C 67.53 99.73 68.32 101.50 69.18 103.24 C 70.97 103.48 72.78 103.62 74.57 103.90 C 74.88 101.78 74.00 101.02 71.92 101.62 C 74.39 100.32 76.53 98.52 78.79 96.89 C 78.78 100.85 75.69 104.89 71.51 104.91 C 71.05 106.24 70.59 107.57 70.11 108.89 C 68.24 106.27 66.69 103.45 65.07 100.68 C 64.33 100.73 62.83 100.82 62.08 100.86 C 60.72 99.48 62.23 97.98 62.71 96.58 C 60.53 98.48 57.50 99.46 56.04 102.08 C 57.57 101.33 58.81 100.14 60.11 99.06 C 62.77 106.06 65.28 113.25 69.67 119.40 C 75.26 121.94 80.61 125.02 86.37 127.18 C 85.72 128.18 84.97 129.11 84.25 130.06 C 85.21 129.44 86.12 128.74 87.13 128.20 C 89.23 128.34 90.93 129.65 92.67 130.68 C 93.81 131.10 94.94 131.52 96.08 131.94 C 96.32 128.52 99.47 126.63 102.28 125.37 C 111.00 122.32 120.32 122.01 129.33 120.30 C 129.67 120.84 130.34 121.92 130.68 122.46 C 132.90 122.45 135.07 122.83 137.15 123.62 C 135.63 125.33 134.11 127.13 134.23 129.57 C 127.31 131.45 120.42 133.80 113.20 134.12 C 115.01 134.98 116.88 135.74 118.84 136.19 C 122.44 135.02 125.88 133.40 129.56 132.48 C 131.60 132.04 133.86 130.85 135.86 132.06 C 135.71 134.41 132.78 135.08 130.99 135.98 C 125.90 137.24 120.79 140.46 115.42 138.86 C 110.93 138.15 106.40 137.59 102.01 136.32 C 101.57 136.81 100.67 137.80 100.22 138.29 C 100.62 137.74 101.41 136.64 101.81 136.09 C 100.05 135.07 98.13 133.62 96.06 134.75 C 95.45 134.30 94.24 133.40 93.64 132.94 C 93.51 133.80 93.25 135.52 93.12 136.38 C 92.61 135.86 91.59 134.83 91.07 134.32 C 90.59 134.66 89.62 135.36 89.13 135.71 C 88.71 135.27 87.87 134.37 87.45 133.93 C 88.38 133.35 89.29 132.75 90.19 132.13 C 88.25 129.99 86.44 133.76 84.50 134.32 C 84.91 133.07 85.33 131.83 85.76 130.59 C 84.87 131.26 83.99 131.95 83.11 132.64 C 81.44 131.58 79.78 130.49 78.32 129.15 C 74.93 128.04 73.14 124.47 69.69 123.54 C 75.11 130.71 83.35 135.13 91.29 138.97 C 97.56 140.96 103.93 143.29 110.57 143.52 C 110.59 144.24 110.62 145.68 110.64 146.39 C 113.20 146.44 115.77 146.24 118.31 145.84 C 116.71 143.68 114.09 144.48 111.86 144.74 C 112.06 144.18 112.44 143.08 112.64 142.52 C 115.23 142.33 117.87 142.68 120.42 142.08 C 124.59 141.34 128.39 139.12 132.70 139.07 C 132.58 140.14 132.36 142.29 132.24 143.36 C 130.59 143.67 128.95 144.03 127.33 144.46 C 127.72 145.72 128.10 146.98 128.55 148.22 C 128.50 147.35 128.39 145.61 128.34 144.74 C 131.30 144.34 134.20 143.53 137.18 143.32 C 139.95 142.92 143.68 142.87 144.18 139.42 C 145.73 139.16 147.28 138.86 148.83 138.60 C 152.65 137.71 156.99 137.29 159.27 133.64 C 157.84 133.50 156.41 133.39 154.99 133.31 C 154.34 132.14 153.64 131.01 153.04 129.82 C 153.54 129.04 154.16 128.34 154.75 127.63 C 154.11 127.11 152.82 126.07 152.18 125.56 C 155.49 125.50 156.63 128.84 159.11 130.27 C 164.50 131.88 168.48 127.11 172.06 123.93 C 172.99 124.32 173.91 124.71 174.85 125.10 C 174.42 124.58 173.58 123.56 173.15 123.04 C 176.45 120.10 180.05 117.44 184.05 115.52 C 182.28 110.41 180.31 105.25 176.52 101.26 C 175.97 101.24 175.42 101.21 174.88 101.19 C 172.86 98.85 170.35 96.93 168.87 94.16 C 167.46 91.23 164.26 90.10 161.79 88.30 C 160.90 87.06 161.10 85.34 160.66 83.90 C 160.63 84.84 160.57 86.72 160.54 87.65 C 158.18 85.96 155.60 84.30 154.23 81.63 C 152.64 78.03 146.61 79.95 145.95 75.62 C 144.45 75.50 142.95 75.37 141.46 75.20 C 142.05 73.67 142.67 72.15 143.12 70.57 C 141.91 71.59 141.23 73.02 140.63 74.44 C 139.45 73.35 138.28 72.27 137.04 71.25 C 137.50 70.16 137.96 69.06 138.41 67.96 C 134.20 70.16 129.32 69.96 124.76 70.90 C 124.22 70.05 123.75 69.15 123.07 68.40 C 119.80 69.74 115.58 68.61 113.24 71.77 M 127.23 68.26 C 127.38 71.62 130.17 66.65 127.23 68.26 M 19.82 71.95 C 19.66 73.55 19.48 75.14 19.28 76.74 C 20.04 76.57 20.80 76.40 21.56 76.23 C 24.02 79.77 27.57 82.34 30.47 85.49 C 33.16 87.53 35.76 91.01 39.54 90.14 C 36.60 86.79 32.55 84.76 29.37 81.68 C 25.74 78.88 23.15 75.05 19.82 71.95 M 107.59 75.08 C 106.69 76.24 108.54 78.37 109.59 76.93 C 110.53 75.74 108.67 73.73 107.59 75.08 M 77.92 77.43 C 77.54 78.78 78.05 79.26 79.47 78.87 C 79.85 77.50 79.33 77.02 77.92 77.43 M 89.98 78.42 C 89.40 80.04 89.95 80.52 91.62 79.86 C 92.19 78.27 91.64 77.79 89.98 78.42 M 18.35 78.76 C 18.30 80.60 18.26 82.77 20.10 83.81 C 23.57 86.07 26.92 88.50 30.32 90.86 C 28.34 88.45 25.98 86.42 23.76 84.24 C 21.90 82.46 20.86 79.79 18.35 78.76 M 56.83 79.45 C 58.66 81.25 60.67 82.86 62.78 84.33 C 65.28 82.47 68.12 81.18 70.98 80.00 C 66.31 79.12 61.55 79.09 56.83 79.45 M 74.20 81.18 C 74.85 81.82 74.85 81.82 74.20 81.18 M 19.84 88.69 C 21.71 90.64 23.91 92.23 25.95 93.99 C 23.52 97.19 21.32 100.56 18.77 103.66 C 26.28 100.41 33.91 97.07 40.29 91.87 C 38.06 92.49 36.07 94.18 33.63 93.74 C 29.43 94.04 25.87 91.28 22.79 88.76 C 21.81 88.71 20.82 88.70 19.84 88.69 M 38.21 95.33 C 38.32 97.36 38.94 99.25 40.45 100.67 C 39.60 98.43 39.39 96.18 40.70 94.09 C 39.87 94.50 39.04 94.91 38.21 95.33 M 51.17 93.36 C 51.32 95.71 51.65 98.06 52.06 100.38 C 53.31 98.06 52.55 95.43 51.17 93.36 M 52.98 100.57 C 52.54 101.96 53.03 102.45 54.43 102.04 C 54.86 100.65 54.37 100.16 52.98 100.57 M 21.34 112.28 C 19.74 113.04 18.57 114.79 16.69 114.82 C 16.14 113.65 15.36 111.73 17.09 111.09 C 19.96 108.92 23.22 107.34 26.08 105.15 C 22.32 105.44 19.21 107.74 15.64 108.71 C 15.40 111.54 15.25 114.37 15.05 117.21 C 20.22 114.08 25.94 112.03 31.34 109.35 C 34.26 107.85 37.78 107.27 40.19 104.93 C 39.84 103.70 38.88 102.85 37.89 102.12 C 32.62 105.89 26.96 109.07 21.34 112.28 M 58.20 104.43 C 57.17 105.29 58.26 108.03 59.61 106.95 C 60.55 106.02 59.69 103.36 58.20 104.43 M 49.70 105.32 C 48.89 106.23 49.26 108.10 50.41 108.56 C 52.40 108.38 51.71 104.39 49.70 105.32 M 18.65 118.78 C 16.75 121.01 20.70 120.20 21.97 120.41 C 28.85 119.17 34.81 115.31 40.52 111.50 C 40.78 110.87 41.28 109.59 41.54 108.96 C 33.98 112.39 26.32 115.60 18.65 118.78 M 66.20 117.24 C 66.84 117.88 66.84 117.88 66.20 117.24 M 68.74 127.41 C 68.77 129.83 66.81 131.20 65.28 132.76 C 64.54 131.74 63.76 130.75 62.96 129.78 C 63.52 131.21 64.17 132.59 64.76 134.01 C 67.02 132.20 69.52 130.48 72.52 130.35 C 72.58 131.83 72.92 133.34 72.67 134.83 C 69.62 139.33 65.03 142.36 60.99 145.87 C 60.07 145.45 59.15 145.03 58.22 144.62 C 59.96 143.03 61.80 141.51 63.12 139.52 C 60.93 140.19 58.72 140.82 56.58 141.62 C 55.69 142.19 53.47 143.56 55.06 144.64 C 57.13 146.56 60.08 147.02 62.59 148.17 C 66.10 144.18 70.11 140.60 74.35 137.40 C 75.12 136.29 75.79 135.11 76.51 133.96 C 75.66 133.78 73.97 133.43 73.12 133.25 C 73.31 132.55 73.70 131.13 73.89 130.43 C 73.05 130.38 71.36 130.27 70.52 130.22 C 70.49 129.49 70.43 128.05 70.40 127.32 C 69.98 127.34 69.15 127.39 68.74 127.41 M 103.34 128.72 C 102.08 129.42 99.50 129.67 100.29 131.66 C 104.03 133.62 108.19 134.66 112.43 134.31 C 112.04 133.21 111.65 132.12 111.27 131.02 C 117.01 130.13 122.77 129.03 128.30 127.30 C 119.96 127.46 111.65 129.98 103.34 128.72 M 81.32 129.12 C 81.64 132.52 84.18 127.45 81.32 129.12 M 53.34 136.95 C 56.17 135.90 59.91 135.42 61.01 132.12 C 58.40 133.50 54.68 134.01 53.34 136.95 M 78.22 134.19 C 78.86 134.83 78.86 134.83 78.22 134.19 M 64.79 149.16 C 66.06 149.97 67.28 150.87 68.43 151.86 C 68.55 151.21 68.80 149.92 68.92 149.27 C 72.58 146.10 75.46 142.12 79.26 139.11 C 79.61 139.53 80.30 140.36 80.64 140.78 C 78.33 145.79 73.29 148.72 70.52 153.37 C 75.58 150.15 79.30 145.14 83.33 140.74 C 83.70 140.84 84.45 141.02 84.82 141.11 C 85.12 141.56 85.72 142.46 86.01 142.91 C 84.37 147.16 79.91 149.23 77.79 153.07 C 81.64 149.65 85.14 145.78 88.15 141.59 C 84.78 140.33 81.77 138.35 78.74 136.45 C 75.12 141.64 70.33 146.08 64.79 149.16 M 53.93 138.32 C 52.94 139.23 54.19 141.21 55.43 140.75 C 56.21 139.87 55.18 137.75 53.93 138.32 M 108.24 145.09 C 108.92 145.77 108.92 145.77 108.24 145.09 M 103.54 159.41 C 104.99 161.81 107.08 163.82 110.00 164.11 C 110.10 161.67 107.37 162.03 105.76 161.36 C 108.59 156.09 114.44 153.48 118.03 148.80 C 112.31 150.84 108.40 155.94 103.54 159.41 M 121.24 159.44 C 118.39 163.91 112.19 164.11 108.79 167.96 C 112.73 166.65 116.22 164.28 120.21 163.06 C 122.21 162.79 121.35 160.78 121.24 159.44 Z" />
<path fill="#000000" opacity="1.00" d=" M 97.56 47.62 C 98.56 47.30 99.57 47.02 100.60 46.79 C 100.03 48.93 100.11 51.69 97.82 52.83 C 97.31 51.16 96.97 49.32 97.56 47.62 Z" />
<path fill="#000000" opacity="1.00" d=" M 120.33 70.05 C 121.35 68.55 124.31 70.12 123.58 71.76 C 122.45 72.58 119.42 71.86 120.33 70.05 Z" />
<path fill="#000000" opacity="1.00" d=" M 114.13 83.21 C 114.42 82.74 115.00 81.81 115.29 81.34 C 116.23 82.10 117.09 82.94 117.98 83.76 C 115.26 84.14 112.48 84.58 110.16 86.17 C 110.24 87.16 110.50 88.11 110.95 89.03 C 108.99 89.96 107.05 90.94 105.01 91.68 C 103.84 91.18 103.21 90.01 102.41 89.11 C 104.29 87.49 108.33 88.60 109.01 86.04 L 108.70 85.34 C 105.26 85.16 102.39 87.40 99.15 88.18 C 94.84 89.16 90.80 90.94 86.68 92.49 C 87.45 91.17 88.24 89.86 89.02 88.54 C 90.93 88.82 92.43 87.57 93.85 86.49 C 94.48 87.03 95.11 87.57 95.74 88.11 C 95.97 87.40 96.44 85.97 96.67 85.26 C 97.03 85.58 97.74 86.21 98.10 86.53 C 100.45 84.66 103.85 85.01 106.57 83.83 C 108.25 82.97 110.01 83.87 111.76 83.85 C 111.77 83.42 111.78 82.55 111.79 82.11 C 112.57 82.47 113.35 82.84 114.13 83.21 Z" />
<path fill="#000000" opacity="1.00" d=" M 143.29 83.17 C 144.08 81.77 146.81 82.81 145.38 84.28 C 144.59 85.60 141.78 84.61 143.29 83.17 Z" />
<path fill="#000000" opacity="1.00" d=" M 137.98 85.81 C 139.48 82.85 140.47 88.12 137.98 85.81 Z" />
<path fill="#000000" opacity="1.00" d=" M 137.06 88.88 C 137.33 87.85 137.63 86.82 137.98 85.81 C 138.16 88.47 139.91 90.27 141.86 91.87 C 142.94 91.15 144.05 90.46 145.17 89.80 C 145.53 88.51 145.93 87.23 146.37 85.97 C 146.28 86.69 146.11 88.15 146.02 88.87 C 146.89 88.73 148.64 88.45 149.51 88.31 C 146.04 90.07 142.87 92.34 140.27 95.25 C 137.96 96.21 135.59 97.05 133.23 97.90 C 133.36 96.75 133.50 95.61 133.65 94.47 C 134.50 94.58 136.20 94.82 137.05 94.93 C 136.30 94.05 135.54 93.17 134.81 92.28 C 134.92 95.20 132.59 94.20 130.75 93.77 C 129.23 95.65 126.91 96.34 124.69 96.99 C 124.69 95.90 124.68 94.82 124.67 93.73 C 127.69 93.81 129.87 91.30 130.68 88.60 C 132.81 88.43 134.96 88.37 137.06 88.88 M 133.42 89.10 C 132.48 89.46 130.48 90.19 131.26 91.55 C 132.91 93.20 136.78 88.60 133.42 89.10 Z" />
<path fill="#000000" opacity="1.00" d=" M 151.20 90.49 C 153.06 91.14 154.70 92.88 156.80 92.45 C 159.42 92.11 162.01 91.51 164.67 91.78 C 163.59 92.57 162.57 93.44 161.59 94.35 C 159.53 94.40 157.42 94.61 155.55 95.55 C 153.68 97.92 152.12 100.57 151.63 103.59 C 151.10 106.55 147.38 104.43 145.47 104.44 C 145.71 106.38 145.69 108.32 144.58 110.01 C 150.87 113.74 154.95 121.36 162.66 122.48 C 162.53 124.32 162.03 126.08 161.35 127.79 C 157.76 125.77 154.29 123.56 150.96 121.15 C 148.21 119.52 145.31 117.85 143.55 115.08 C 142.98 113.37 143.39 111.63 144.25 110.11 C 141.33 108.57 140.47 105.00 141.98 102.14 C 143.68 100.65 146.06 101.28 148.10 101.29 C 148.84 98.48 151.06 96.65 153.23 94.91 C 152.39 94.86 150.72 94.78 149.88 94.73 C 150.54 94.09 151.20 93.46 151.86 92.83 C 151.70 92.24 151.37 91.07 151.20 90.49 Z" />
<path fill="#000000" opacity="1.00" d=" M 79.69 95.63 C 81.75 94.27 83.91 93.03 86.19 92.08 C 85.75 93.30 85.33 94.56 84.50 95.59 C 82.93 95.99 81.29 95.62 79.69 95.63 Z" />
<path fill="#000000" opacity="1.00" d=" M 161.47 95.58 C 165.40 96.94 164.54 102.44 164.33 105.81 C 163.83 105.61 162.81 105.22 162.31 105.02 C 162.42 101.84 161.72 98.74 161.47 95.58 Z" />
<path fill="#000000" opacity="1.00" d=" M 83.40 105.21 C 85.94 104.22 84.34 107.94 82.69 107.66 C 81.14 107.38 82.42 105.37 83.40 105.21 Z" />
<path fill="#000000" opacity="1.00" d=" M 170.10 108.29 C 171.02 106.73 171.74 104.18 174.02 104.50 C 176.61 103.81 178.51 105.85 180.38 107.25 C 180.27 110.25 179.03 113.43 175.96 114.50 C 172.57 114.69 169.48 111.76 170.10 108.29 Z" />
<path fill="#000000" opacity="1.00" d=" M 159.77 107.93 C 161.56 107.61 163.35 107.32 165.16 107.13 C 165.85 111.83 163.63 116.33 164.45 121.04 C 163.44 120.84 162.43 120.66 161.42 120.50 C 161.16 119.35 160.86 118.21 160.55 117.08 C 161.86 114.79 161.27 112.10 161.86 109.62 C 161.16 109.06 160.46 108.49 159.77 107.93 Z" />
<path fill="#000000" opacity="1.00" d=" M 72.00 107.53 C 74.72 111.04 78.94 113.44 79.93 118.06 C 79.33 117.81 78.13 117.32 77.52 117.07 C 77.47 116.16 77.43 115.25 77.40 114.35 C 73.71 114.76 71.74 110.73 72.00 107.53 Z" />
<path fill="#000000" opacity="1.00" d=" M 152.35 134.46 C 153.22 134.03 155.22 134.44 154.68 135.77 C 153.53 136.74 151.75 136.34 150.35 136.52 C 150.11 135.50 151.65 134.92 152.35 134.46 Z" />
<path fill="#000000" opacity="1.00" d=" M 138.93 137.37 C 140.51 136.50 142.38 138.71 141.64 140.22 C 140.24 141.10 138.02 138.73 138.93 137.37 Z" />
<path fill="#000000" opacity="1.00" d=" M 132.61 142.08 C 132.35 138.97 135.52 138.39 137.73 137.46 C 138.36 139.20 139.10 140.90 139.86 142.59 C 137.44 142.38 135.01 142.39 132.61 142.08 Z" />
</g>
</svg>
