<?xml version="1.0" encoding="UTF-8" ?>
<!DOCTYPE svg PUBLIC "-//W3C//DTD SVG 1.1//EN" "http://www.w3.org/Graphics/SVG/1.1/DTD/svg11.dtd">
<svg width="128pt" height="128pt" viewBox="0 0 128 128" version="1.1" xmlns="http://www.w3.org/2000/svg">
<g id="#000000ff">
<path fill="#000000" opacity="1.00" d=" M 70.32 1.23 C 70.93 1.28 72.14 1.36 72.75 1.41 C 72.71 2.57 72.66 3.74 72.62 4.91 C 73.43 3.88 74.25 2.86 75.08 1.84 C 77.77 2.00 80.39 1.40 83.02 0.98 C 87.14 1.29 90.81 3.73 95.00 3.68 C 97.53 3.61 99.64 5.20 101.88 6.13 C 101.56 7.07 101.23 8.00 100.89 8.93 C 99.11 8.21 97.26 7.36 96.52 5.44 C 96.03 6.13 95.54 6.82 95.05 7.52 C 91.26 6.96 87.30 4.15 83.54 6.10 C 82.55 6.55 81.46 6.21 80.43 6.18 C 78.81 9.37 74.74 9.88 72.73 12.71 C 71.04 14.97 69.28 17.21 67.23 19.17 C 69.77 22.51 72.70 25.62 76.27 27.87 C 73.78 25.31 70.38 23.52 69.18 19.90 C 69.89 19.81 71.30 19.63 72.01 19.54 C 71.24 19.54 69.71 19.54 68.94 19.54 C 68.97 17.34 70.74 15.84 72.90 16.10 C 75.04 17.36 76.13 19.67 77.10 21.85 C 78.39 25.14 81.20 27.60 82.37 30.94 C 83.56 34.44 81.28 37.67 80.29 40.89 C 79.59 43.11 78.22 45.01 77.01 46.97 C 76.52 46.86 75.53 46.65 75.04 46.54 C 75.41 47.32 75.79 48.10 76.17 48.88 C 74.06 52.10 70.15 53.87 69.06 57.74 C 65.51 61.79 61.69 65.70 57.45 69.04 C 56.10 68.13 54.61 67.44 52.98 67.22 C 54.02 67.91 55.11 68.52 56.23 69.09 C 54.49 72.45 52.64 75.85 51.81 79.57 C 51.41 84.70 51.42 89.86 51.62 95.00 C 52.18 101.99 54.73 108.60 56.66 115.29 C 56.91 116.76 56.28 118.20 56.20 119.66 C 58.13 120.70 60.52 120.41 62.44 121.53 C 63.05 122.46 63.38 123.53 63.78 124.56 C 57.48 126.57 48.44 129.05 44.32 122.03 C 44.67 121.62 45.37 120.80 45.72 120.39 C 48.26 121.23 50.79 122.16 53.48 122.39 C 51.87 117.42 52.43 111.39 48.56 107.43 C 47.75 103.06 48.91 98.43 47.99 94.00 C 46.98 88.63 48.71 82.38 44.61 78.00 C 42.96 80.00 43.46 82.62 43.42 85.00 C 43.60 89.89 43.56 94.80 44.22 99.66 C 45.23 105.71 44.21 111.91 45.71 117.90 C 45.91 120.18 43.72 120.61 41.93 120.57 C 40.54 114.33 41.71 107.85 40.52 101.56 C 39.05 95.14 40.07 88.53 39.37 82.03 C 36.46 84.28 34.32 87.24 32.04 90.07 C 28.87 92.06 24.97 92.62 21.90 94.80 C 20.92 95.62 19.64 95.80 18.42 96.04 C 18.47 95.20 18.55 93.53 18.59 92.69 C 17.97 92.56 16.74 92.29 16.12 92.16 C 18.55 89.47 19.69 85.96 21.75 83.03 C 21.04 82.12 20.34 81.20 19.64 80.28 C 21.43 78.16 22.70 75.64 23.50 72.99 C 23.62 69.44 22.10 65.85 23.42 62.38 C 26.72 54.56 34.00 49.49 38.42 42.40 C 40.18 40.24 42.20 38.18 44.64 36.79 C 47.99 35.90 50.95 33.94 54.40 33.35 C 54.20 34.16 53.82 35.77 53.62 36.58 C 54.73 34.91 55.61 33.10 55.90 31.09 C 58.91 31.65 62.57 30.52 64.78 33.21 C 68.70 36.17 69.05 41.57 68.56 46.07 C 70.72 41.25 75.00 36.93 74.10 31.25 C 70.81 28.45 67.04 26.01 64.85 22.17 C 62.99 18.83 60.71 15.11 61.82 11.14 C 63.48 6.95 67.52 4.56 70.32 1.23 M 27.02 63.69 C 29.56 62.31 30.30 59.27 31.31 56.77 C 29.03 58.44 27.50 60.92 27.02 63.69 Z" />
</g>
</svg>
