<?xml version="1.0" encoding="UTF-8" ?>
<!DOCTYPE svg PUBLIC "-//W3C//DTD SVG 1.1//EN" "http://www.w3.org/Graphics/SVG/1.1/DTD/svg11.dtd">
<svg width="128pt" height="128pt" viewBox="0 0 128 128" version="1.1" xmlns="http://www.w3.org/2000/svg">
<g id="#000000ff">
<path fill="#000000" opacity="1.00" d=" M 97.21 28.31 C 99.48 25.68 101.17 22.61 103.50 20.02 C 105.03 21.66 105.85 23.63 105.78 25.89 C 107.00 29.49 109.72 32.45 110.83 36.15 C 112.06 40.79 117.04 42.44 119.74 45.98 C 117.85 48.46 114.17 47.98 111.59 49.50 C 112.61 51.38 113.64 53.27 114.40 55.28 C 111.47 55.07 108.83 53.70 106.00 53.12 C 104.32 52.80 103.31 54.32 102.33 55.38 C 100.70 57.42 98.93 59.46 98.03 61.95 C 98.17 63.97 101.26 61.65 102.53 61.71 C 99.73 62.82 97.21 64.49 95.20 66.76 C 95.73 65.54 96.56 64.44 96.88 63.14 C 93.91 63.56 92.26 67.13 90.01 68.99 C 87.44 73.60 86.87 79.05 85.48 84.10 C 84.95 88.36 85.73 92.63 85.91 96.89 C 88.73 97.64 90.58 99.90 91.83 102.41 C 88.12 103.88 84.06 101.82 81.00 99.83 C 80.17 93.56 80.27 87.09 77.80 81.13 C 78.42 80.94 79.66 80.55 80.27 80.36 C 79.40 80.47 77.65 80.70 76.77 80.81 C 77.47 79.16 78.17 77.50 78.85 75.84 C 77.97 74.95 77.09 74.06 76.23 73.16 C 76.66 72.11 77.52 70.03 77.95 68.98 C 77.15 69.40 75.54 70.24 74.74 70.66 C 71.10 70.26 67.78 71.75 64.60 73.30 C 64.57 72.45 64.51 70.73 64.48 69.87 C 63.29 71.38 62.12 73.30 59.88 72.62 C 56.95 72.00 54.51 73.80 51.78 74.39 C 47.50 74.50 45.19 78.75 42.64 81.60 C 42.09 81.57 40.98 81.49 40.43 81.46 C 40.72 81.76 41.31 82.35 41.60 82.65 C 39.79 84.05 38.13 85.63 36.59 87.31 C 36.04 86.53 35.50 85.75 34.97 84.96 C 35.27 87.94 32.70 89.21 30.42 90.32 C 31.67 93.39 31.10 97.00 33.04 99.80 C 34.81 101.07 36.63 102.26 38.26 103.72 C 34.82 103.58 30.57 105.01 27.86 102.17 C 26.77 101.30 27.49 100.09 27.86 99.06 C 29.51 95.20 28.08 90.96 27.32 87.06 C 28.85 84.08 31.28 81.81 33.37 79.26 C 33.03 78.70 32.36 77.57 32.03 77.01 C 28.90 83.33 22.94 87.37 17.66 91.64 C 15.26 92.68 12.85 93.72 10.31 94.40 C 10.10 91.67 12.93 91.25 14.85 90.36 C 13.37 87.79 14.88 85.68 16.85 83.93 C 15.41 83.28 13.98 82.61 12.58 81.88 C 14.17 82.14 15.75 82.49 17.32 82.85 C 18.50 80.32 20.13 77.68 23.20 77.39 C 22.49 76.84 21.79 76.30 21.09 75.75 C 22.58 73.08 24.06 70.41 25.44 67.68 C 25.59 62.78 28.06 58.24 27.27 53.31 C 29.43 51.17 32.03 49.27 35.21 49.34 C 35.49 48.76 36.06 47.59 36.34 47.01 C 45.56 42.29 56.30 43.11 66.21 41.00 C 72.96 39.22 80.52 39.64 86.46 35.50 C 89.97 32.99 94.26 31.58 97.21 28.31 M 107.90 34.33 C 106.34 37.26 111.24 34.58 107.90 34.33 M 98.10 37.40 C 97.73 40.00 98.08 42.93 96.20 45.06 C 92.92 50.57 89.21 55.94 86.95 61.97 C 90.07 59.92 91.05 56.14 93.10 53.21 C 95.61 49.68 97.02 45.54 98.53 41.52 C 98.53 40.13 98.32 38.76 98.10 37.40 M 81.61 44.40 C 80.26 46.70 84.71 46.85 84.85 44.71 C 84.82 43.04 82.35 43.54 81.61 44.40 M 38.24 48.46 C 36.96 49.34 37.67 51.48 39.16 51.60 C 41.23 51.41 40.25 47.04 38.24 48.46 M 60.42 50.34 C 58.73 52.90 64.33 51.87 63.49 49.84 C 62.39 49.25 61.36 49.42 60.42 50.34 M 71.01 52.01 C 70.53 53.41 70.99 53.87 72.40 53.40 C 72.87 52.00 72.41 51.53 71.01 52.01 M 100.41 52.15 C 98.84 55.37 96.56 58.15 94.79 61.24 C 98.15 58.53 100.18 54.62 103.32 51.67 C 102.59 51.79 101.14 52.03 100.41 52.15 M 80.27 57.33 C 78.79 57.31 79.00 59.76 80.37 59.77 C 81.85 59.79 81.64 57.33 80.27 57.33 M 83.59 57.26 C 82.53 57.77 81.63 59.38 82.31 60.46 C 83.68 60.84 85.48 57.42 83.59 57.26 M 52.40 63.04 C 55.61 63.90 58.97 65.32 62.30 64.15 C 59.34 62.57 55.53 61.14 52.40 63.04 M 63.44 65.42 C 62.00 65.48 61.53 68.22 63.24 68.21 C 64.77 68.20 65.07 65.49 63.44 65.42 M 79.29 66.38 C 77.73 66.72 77.89 69.91 79.75 69.15 C 81.37 68.75 81.21 65.74 79.29 66.38 M 50.34 66.98 C 50.50 70.40 53.24 65.32 50.34 66.98 M 48.73 70.56 C 50.45 72.80 53.19 72.46 55.67 72.33 C 53.95 70.28 51.24 69.68 48.73 70.56 Z" />
<path fill="#000000" opacity="1.00" d=" M 20.21 48.24 C 20.85 48.87 20.85 48.87 20.21 48.24 Z" />
</g>
</svg>
