<?xml version="1.0" encoding="UTF-8" ?>
<!DOCTYPE svg PUBLIC "-//W3C//DTD SVG 1.1//EN" "http://www.w3.org/Graphics/SVG/1.1/DTD/svg11.dtd">
<svg width="200pt" height="200pt" viewBox="0 0 200 200" version="1.1" xmlns="http://www.w3.org/2000/svg">
<g id="#000000ff">
<path fill="#000000" opacity="1.00" d=" M 148.03 62.00 C 150.52 58.54 154.33 56.40 157.88 54.19 C 158.40 54.54 159.44 55.24 159.95 55.58 C 157.45 58.83 153.36 60.40 150.95 63.74 C 149.86 65.93 148.23 67.95 148.16 70.50 C 145.10 72.54 141.91 74.38 138.92 76.54 C 142.01 76.63 144.15 73.91 147.01 73.14 C 147.18 74.09 147.52 75.99 147.69 76.94 C 143.49 80.04 138.52 82.04 134.77 85.75 C 130.32 89.87 125.01 92.91 120.47 96.89 C 126.97 96.30 133.61 97.51 139.98 95.84 C 144.58 95.66 149.11 96.83 153.57 97.81 C 153.26 98.58 152.63 100.11 152.32 100.88 C 148.16 100.39 144.07 99.24 139.85 99.36 C 136.86 103.07 132.31 104.80 127.84 106.00 C 128.19 103.07 131.18 102.07 133.01 100.18 C 130.84 100.23 128.77 100.82 126.88 101.88 C 126.02 101.21 125.16 100.54 124.30 99.86 C 126.75 101.98 125.50 104.69 124.07 106.98 C 122.13 106.32 120.19 105.68 118.24 105.06 C 119.73 103.48 121.40 102.07 123.03 100.63 C 120.84 100.68 118.66 100.93 116.49 101.23 C 116.70 103.51 117.75 106.43 115.12 107.74 C 112.44 107.46 113.36 104.67 113.13 102.81 C 110.68 104.69 108.12 106.47 106.04 108.77 C 110.92 110.84 115.23 115.16 120.84 114.61 C 126.98 114.28 133.16 114.08 139.25 113.08 C 139.55 113.49 140.17 114.31 140.48 114.72 C 139.39 109.65 143.90 105.94 148.06 104.18 C 148.42 104.88 149.15 106.29 149.51 107.00 C 147.26 110.72 148.95 115.65 145.97 118.98 C 145.08 120.40 143.82 121.52 142.30 122.22 C 140.74 120.54 139.74 118.50 139.31 116.25 C 135.14 117.15 131.11 118.58 126.90 119.31 C 132.32 121.98 137.50 125.12 142.65 128.27 C 153.46 132.40 162.20 140.40 172.46 145.63 C 175.01 146.86 177.39 148.39 179.78 149.91 C 179.39 150.66 178.60 152.18 178.20 152.94 C 175.11 151.19 172.03 149.38 168.65 148.26 C 176.03 152.79 182.37 158.70 189.58 163.49 C 189.61 164.10 189.68 165.33 189.72 165.94 C 188.51 165.68 187.24 165.61 186.12 165.06 C 180.97 161.35 175.48 158.15 170.21 154.62 C 167.49 152.72 164.83 150.70 161.87 149.18 C 156.10 146.49 151.81 141.26 145.68 139.25 C 144.22 137.62 143.66 135.45 142.76 133.50 C 142.56 134.68 142.40 135.88 142.23 137.07 C 140.41 135.70 138.59 134.31 136.55 133.30 C 132.39 131.44 128.75 128.59 124.47 126.99 C 124.65 125.59 124.80 124.18 124.92 122.77 C 123.58 123.52 122.47 124.57 121.51 125.74 C 118.56 123.11 115.10 120.91 110.95 121.78 C 111.60 123.54 112.87 126.59 110.12 127.19 C 108.11 127.71 105.72 129.77 103.79 128.20 C 102.41 125.34 101.84 122.17 101.48 119.04 C 98.21 120.19 94.80 120.80 91.38 121.28 C 84.22 126.77 77.87 133.18 71.05 139.07 C 67.26 142.61 62.84 145.47 59.56 149.54 C 56.72 153.09 52.68 155.32 49.49 158.50 C 47.98 159.79 46.63 161.59 44.66 162.15 C 43.51 158.68 48.11 157.13 49.94 154.82 C 53.07 152.85 54.46 147.30 58.83 148.33 C 58.56 147.59 58.29 146.85 58.02 146.11 C 59.48 144.60 60.94 143.10 62.27 141.49 C 62.61 141.76 63.29 142.30 63.63 142.57 C 63.55 141.95 63.37 140.72 63.28 140.10 C 63.86 140.20 65.02 140.41 65.60 140.51 C 65.52 139.94 65.36 138.79 65.28 138.22 C 67.65 136.35 69.65 133.92 72.54 132.84 C 74.08 129.66 77.53 128.26 79.77 125.69 C 81.46 123.83 83.70 122.65 85.90 121.52 C 84.55 121.54 83.19 121.51 81.84 121.47 C 79.03 124.77 75.69 127.58 72.44 130.43 C 65.63 137.29 59.00 144.32 52.07 151.05 C 49.71 154.81 45.04 156.61 43.47 160.94 C 43.69 161.43 44.12 162.41 44.34 162.90 C 41.15 166.07 37.90 169.44 33.81 171.46 C 31.96 170.73 30.19 169.83 28.36 169.05 C 31.42 163.71 36.87 160.42 40.41 155.44 C 43.72 150.78 48.37 147.39 52.44 143.46 C 56.78 139.80 60.31 135.30 64.72 131.73 C 69.72 127.72 74.32 123.18 78.16 118.04 C 81.97 115.16 85.37 111.79 88.79 108.46 C 87.11 107.29 82.47 106.56 85.04 103.89 C 85.71 103.79 87.05 103.57 87.72 103.47 C 86.67 103.40 85.62 103.42 84.57 103.40 C 83.84 105.36 83.04 107.30 82.20 109.23 C 78.62 107.76 79.24 103.59 80.31 100.61 C 78.77 102.49 77.37 104.49 76.77 106.89 C 76.35 108.42 75.32 108.86 73.68 108.22 C 73.13 105.73 74.59 103.47 75.55 101.28 C 73.29 101.76 70.98 101.80 68.68 101.78 C 69.57 104.33 70.38 107.75 68.10 109.80 C 64.04 109.30 65.81 104.50 66.71 102.02 C 65.79 102.65 64.88 103.29 63.97 103.92 C 63.10 103.44 62.24 102.93 61.39 102.42 C 60.54 103.57 59.70 104.73 58.87 105.90 C 58.02 105.16 57.18 104.43 56.33 103.69 C 56.69 104.33 57.40 105.61 57.76 106.24 C 51.58 105.46 46.67 109.73 41.18 111.72 C 41.31 111.09 41.56 109.83 41.69 109.21 C 40.31 109.81 37.21 108.54 37.14 110.68 C 39.32 111.62 41.37 112.80 43.39 114.04 C 42.69 116.31 43.13 119.94 39.88 120.02 C 39.44 118.68 39.01 117.33 38.59 115.99 C 37.78 116.29 36.98 116.61 36.18 116.92 C 36.70 117.88 38.29 118.59 37.86 119.85 C 37.87 121.63 35.77 121.57 34.55 121.98 C 33.88 120.59 33.21 118.08 31.17 119.34 C 28.15 120.74 24.26 120.32 21.86 122.88 C 23.82 122.30 25.73 121.50 27.78 121.27 C 27.29 124.14 23.94 124.55 21.59 124.89 C 21.56 125.37 21.52 126.34 21.49 126.83 C 24.32 127.37 27.43 124.58 29.84 126.17 C 35.36 123.73 40.53 120.58 45.96 117.94 C 47.03 118.56 47.34 119.45 46.88 120.61 C 46.73 124.20 42.55 125.42 41.42 128.64 C 41.57 128.89 41.87 129.38 42.02 129.63 C 43.62 125.90 46.75 123.22 49.12 120.02 C 49.78 120.92 50.43 121.83 51.06 122.75 C 54.10 121.05 58.27 120.99 60.23 117.79 C 66.10 117.81 71.63 114.98 77.53 115.74 C 78.92 118.52 74.51 119.04 72.79 120.01 C 66.44 120.99 60.43 123.27 54.37 125.31 C 52.83 126.54 52.36 128.68 51.20 130.25 C 48.61 133.26 45.36 136.31 41.04 135.53 C 39.54 134.68 38.02 133.89 36.52 133.06 C 36.83 130.84 37.77 128.80 38.59 126.75 C 35.08 129.29 30.37 130.08 27.66 133.62 C 25.29 136.28 22.63 138.73 20.88 141.86 C 20.12 144.24 16.64 143.68 15.58 141.84 C 15.40 140.68 15.37 139.51 15.49 138.34 C 14.35 139.10 13.20 139.84 12.05 140.58 C 6.92 137.37 1.79 132.46 1.38 126.06 C 5.49 121.88 11.82 121.06 17.06 118.72 C 22.80 118.58 28.24 116.22 33.44 114.01 C 30.20 113.18 26.80 112.73 23.76 111.24 C 23.08 110.28 22.96 108.83 24.05 108.11 C 27.74 105.00 32.72 104.27 37.21 102.94 C 42.76 101.38 48.45 103.00 54.03 103.45 C 58.97 101.56 63.87 99.56 68.94 98.02 C 62.71 97.20 57.87 92.85 51.99 91.05 C 48.01 89.10 43.49 88.67 39.52 86.66 C 35.02 84.00 30.23 81.96 26.15 78.64 C 26.77 79.81 27.45 80.95 28.09 82.12 C 25.05 80.21 21.07 80.10 18.59 77.38 C 17.56 77.35 16.54 77.32 15.52 77.27 C 18.40 74.71 22.24 78.07 25.16 79.15 C 25.42 78.59 25.95 77.48 26.21 76.93 C 22.25 75.47 18.27 74.08 14.36 72.48 C 14.34 71.85 14.30 70.59 14.28 69.96 C 18.13 69.15 21.45 71.95 25.12 72.71 C 35.06 77.38 45.33 81.24 55.47 85.44 C 60.92 87.52 65.77 90.96 71.40 92.57 C 75.17 93.77 78.31 96.46 82.12 97.49 C 88.06 97.09 94.06 97.40 99.96 98.15 C 108.38 91.16 116.24 83.50 125.40 77.46 C 128.69 75.07 131.94 72.61 135.01 69.94 C 139.23 67.27 143.43 64.55 147.33 61.42 C 147.50 61.56 147.85 61.85 148.03 62.00 M 137.05 77.27 C 136.67 78.58 137.20 79.06 138.64 78.69 C 139.01 77.33 138.48 76.86 137.05 77.27 M 120.17 92.23 C 120.81 92.87 120.81 92.87 120.17 92.23 M 110.82 97.99 C 113.73 98.08 117.27 96.80 118.15 93.75 C 115.47 94.71 113.04 96.24 110.82 97.99 M 32.27 108.31 C 29.36 109.52 33.53 111.32 34.56 109.49 C 35.69 108.00 33.12 107.64 32.27 108.31 M 103.32 112.34 C 103.42 115.71 106.29 110.79 103.32 112.34 M 96.25 117.11 C 97.91 117.37 99.58 117.55 101.23 117.87 C 101.64 117.34 102.45 116.28 102.86 115.75 C 101.59 115.05 100.31 114.36 99.03 113.68 C 98.07 114.80 97.13 115.93 96.25 117.11 M 4.10 125.81 C 5.20 127.66 6.30 129.51 7.38 131.38 C 7.30 130.79 7.13 129.62 7.04 129.03 C 11.18 126.04 15.76 123.76 20.18 121.24 C 14.69 122.47 9.89 126.18 4.10 125.81 M 120.04 121.54 C 119.20 122.86 121.71 124.13 122.66 123.17 C 123.46 121.71 121.06 120.59 120.04 121.54 M 43.56 131.91 C 47.84 131.79 48.11 127.00 49.91 124.12 C 47.98 126.87 45.60 129.25 43.56 131.91 M 125.80 124.68 C 125.09 126.57 128.43 127.06 129.72 126.79 C 129.59 125.42 127.12 124.24 125.80 124.68 M 7.88 133.25 C 11.13 132.48 13.44 129.85 16.05 127.94 C 13.16 129.38 9.85 130.52 7.88 133.25 M 132.12 128.22 C 132.76 128.85 132.76 128.85 132.12 128.22 M 138.87 132.36 C 138.41 133.91 139.03 134.45 140.73 133.98 C 141.17 132.39 140.55 131.85 138.87 132.36 M 21.01 133.77 C 19.65 135.99 18.05 138.07 16.90 140.43 C 20.31 139.75 20.87 135.64 22.77 133.23 C 22.33 133.37 21.45 133.63 21.01 133.77 M 166.23 147.20 C 166.54 150.59 169.03 145.49 166.23 147.20 Z" />
<path fill="#000000" opacity="1.00" d=" M 147.34 72.78 C 150.90 70.83 154.21 68.43 157.91 66.74 C 158.44 67.10 159.50 67.84 160.03 68.21 C 156.32 71.40 152.08 73.87 147.90 76.38 C 147.76 75.48 147.48 73.68 147.34 72.78 Z" />
<path fill="#000000" opacity="1.00" d=" M 157.38 80.97 C 158.78 78.43 159.49 75.18 161.94 73.44 C 166.65 72.94 166.24 79.30 164.81 82.19 C 165.26 82.27 165.71 82.35 166.16 82.44 C 168.06 79.28 169.78 74.11 174.46 75.38 C 174.70 79.86 174.92 84.37 174.76 88.85 C 174.48 91.97 170.92 89.60 169.05 89.75 C 162.07 89.54 155.16 91.58 148.16 90.37 C 148.75 88.88 149.48 87.45 150.32 86.08 C 150.12 82.80 150.06 79.50 150.60 76.24 C 154.08 75.40 155.55 78.77 157.38 80.97 M 156.79 84.94 C 155.21 83.78 153.69 82.53 152.37 81.08 C 152.92 83.16 153.33 85.27 153.70 87.39 C 159.55 86.06 165.61 86.80 171.51 85.82 C 171.38 84.15 171.29 82.48 171.23 80.81 C 170.02 82.08 169.18 83.83 167.59 84.66 C 166.24 84.81 164.89 84.73 163.56 84.58 C 162.58 82.76 162.52 80.68 162.25 78.68 C 160.96 81.21 158.98 83.20 156.79 84.94 Z" />
<path fill="#000000" opacity="1.00" d=" M 153.74 101.15 C 151.74 99.40 155.11 97.55 156.79 98.34 C 162.29 100.13 167.96 101.68 172.80 104.96 C 177.80 106.21 183.20 105.89 188.11 107.69 C 191.18 108.84 194.22 110.09 197.28 111.27 C 196.43 113.20 194.68 114.40 193.07 115.65 C 178.43 112.60 163.44 113.82 148.60 113.79 C 147.79 112.34 148.12 111.35 149.60 110.82 C 158.96 108.44 168.62 110.61 178.12 110.30 C 174.61 108.52 170.42 108.64 167.21 106.16 C 166.55 107.02 165.88 107.88 165.21 108.74 C 164.64 108.31 163.49 107.44 162.92 107.01 C 163.44 106.01 163.96 105.00 164.49 104.00 C 161.26 101.95 157.36 101.98 153.74 101.15 Z" />
<path fill="#000000" opacity="1.00" d=" M 63.56 112.55 C 59.27 114.30 57.36 107.17 61.09 105.47 C 63.19 107.04 63.62 110.06 63.56 112.55 Z" />
<path fill="#000000" opacity="1.00" d=" M 53.97 106.76 C 57.99 106.89 56.06 110.97 55.16 113.27 C 54.17 115.12 53.33 117.02 53.23 119.16 C 52.85 119.24 52.10 119.41 51.73 119.50 C 53.46 115.43 51.06 110.58 53.97 106.76 Z" />
<path fill="#000000" opacity="1.00" d=" M 117.74 112.08 C 118.13 108.75 121.81 107.60 124.16 109.84 C 123.05 112.54 120.29 113.27 117.74 112.08 Z" />
<path fill="#000000" opacity="1.00" d=" M 46.80 117.76 C 43.47 115.84 46.33 111.53 47.95 109.27 C 48.66 109.38 50.06 109.61 50.76 109.72 C 49.34 112.32 49.88 116.39 46.80 117.76 Z" />
<path fill="#000000" opacity="1.00" d=" M 14.20 141.09 C 14.88 141.77 14.88 141.77 14.20 141.09 Z" />
</g>
</svg>
