<?xml version="1.0" encoding="UTF-8" ?>
<!DOCTYPE svg PUBLIC "-//W3C//DTD SVG 1.1//EN" "http://www.w3.org/Graphics/SVG/1.1/DTD/svg11.dtd">
<svg width="128pt" height="128pt" viewBox="0 0 128 128" version="1.1" xmlns="http://www.w3.org/2000/svg">
<g id="#000000ff">
<path fill="#000000" opacity="1.00" d=" M 13.58 7.72 C 15.10 8.32 16.42 9.27 17.72 10.24 C 20.04 12.00 23.11 12.18 25.59 13.63 C 27.05 15.21 27.10 17.76 28.95 19.02 C 36.90 22.68 43.08 29.10 50.24 34.02 C 55.17 34.73 60.23 34.77 65.13 33.75 C 71.42 33.21 77.74 33.09 84.04 33.38 C 88.72 33.31 93.46 33.98 97.80 35.80 C 96.68 36.52 95.59 37.27 94.52 38.05 C 98.03 38.07 102.04 39.78 105.07 37.25 C 108.89 39.46 113.29 40.51 117.70 40.41 C 121.44 43.35 122.00 48.39 122.50 52.80 C 122.62 56.25 124.21 59.43 124.58 62.83 C 124.67 64.92 122.41 65.85 121.21 67.22 C 122.27 70.61 122.86 74.12 122.71 77.67 C 120.75 76.43 118.51 76.53 116.32 76.86 C 116.13 73.30 115.96 69.35 112.48 67.38 C 112.47 65.95 112.66 64.52 112.43 63.11 C 109.23 56.63 109.02 49.14 105.65 42.72 C 107.23 48.94 106.73 55.54 105.03 61.69 C 104.09 63.98 105.88 66.17 105.50 68.49 C 105.31 71.07 105.85 73.62 105.92 76.19 C 107.75 77.57 109.53 79.01 111.43 80.31 C 111.10 83.58 111.04 87.30 108.04 89.40 C 106.36 85.16 104.11 81.20 102.03 77.16 C 103.35 80.78 103.92 84.59 104.74 88.32 C 105.98 89.84 108.35 89.84 110.05 90.71 C 108.19 93.31 109.10 96.27 109.68 99.13 C 109.50 104.07 105.25 108.09 100.32 108.48 C 100.87 106.17 102.93 104.88 104.41 103.19 C 101.01 103.00 96.50 106.57 94.07 102.99 C 95.86 102.10 97.68 101.28 99.53 100.52 C 100.13 98.17 100.59 95.78 100.91 93.38 C 101.42 93.40 102.43 93.45 102.94 93.47 C 98.80 86.86 98.25 78.87 95.35 71.74 C 90.44 70.30 88.61 65.09 85.49 61.57 C 83.62 61.07 82.15 62.75 80.56 63.41 C 71.83 67.92 61.12 70.18 51.81 66.07 C 52.83 73.30 55.52 80.20 55.67 87.56 C 54.05 88.87 52.49 90.26 51.27 91.95 C 51.76 92.71 52.28 93.44 52.82 94.16 C 51.04 96.39 50.60 99.32 49.06 101.69 C 48.14 101.41 47.22 101.11 46.30 100.79 C 46.42 94.20 46.49 87.61 46.61 81.02 C 46.28 75.44 45.94 69.80 46.88 64.25 C 45.56 63.24 44.34 62.10 43.19 60.89 C 44.38 63.95 46.28 67.28 44.80 70.60 C 43.72 77.37 45.90 84.58 43.42 91.13 C 44.16 96.62 42.35 102.02 42.96 107.51 C 40.50 108.26 38.17 109.35 35.99 110.72 C 35.34 110.29 34.04 109.43 33.39 109.00 C 35.44 105.99 37.13 102.75 39.18 99.74 C 39.35 94.34 39.27 88.89 40.25 83.54 C 41.00 79.44 38.50 75.77 37.22 72.04 C 35.25 66.33 31.89 61.09 31.05 55.01 C 30.11 48.80 26.95 43.28 24.46 37.61 C 23.28 34.88 23.13 31.29 20.30 29.62 C 18.30 28.01 15.48 28.75 13.13 28.89 C 10.16 30.42 7.44 32.38 4.54 34.04 C 4.16 31.65 2.54 29.18 3.83 26.81 C 5.14 23.88 7.47 21.50 8.51 18.41 C 9.31 15.96 11.89 14.92 13.24 12.89 C 13.41 11.17 13.45 9.44 13.58 7.72 M 68.98 36.67 C 67.40 36.59 66.43 38.08 65.66 39.23 C 69.38 39.17 73.10 39.79 76.81 39.49 C 77.73 38.73 78.32 37.64 79.05 36.71 C 75.69 36.83 72.34 36.56 68.98 36.67 M 53.77 37.47 C 56.21 38.56 59.30 40.20 61.38 37.54 C 58.85 37.37 56.30 37.37 53.77 37.47 M 48.46 39.15 C 48.45 39.62 48.42 40.54 48.41 41.00 C 51.40 41.50 53.22 43.64 53.70 46.55 C 55.24 45.82 56.88 45.36 58.59 45.38 C 55.02 43.63 51.98 41.00 48.46 39.15 M 91.62 45.06 C 93.27 47.72 95.09 50.56 98.22 51.61 C 97.00 48.72 94.83 45.81 91.62 45.06 M 76.20 47.83 C 75.88 49.77 79.91 50.14 80.36 48.60 C 79.25 47.81 77.47 47.13 76.20 47.83 M 33.94 50.93 C 34.73 54.32 36.70 57.40 36.68 60.97 C 37.26 60.66 37.84 60.35 38.42 60.05 C 36.47 57.23 37.17 52.64 33.94 50.93 M 97.72 53.90 C 97.29 55.29 97.77 55.80 99.17 55.41 C 99.60 53.99 99.12 53.49 97.72 53.90 M 55.43 55.30 C 55.45 56.37 55.45 57.44 55.45 58.51 C 56.56 58.62 57.67 58.73 58.78 58.85 C 58.26 57.82 57.74 56.78 57.22 55.75 C 56.77 55.63 55.88 55.41 55.43 55.30 M 104.91 99.26 C 106.39 97.37 106.56 94.98 106.58 92.69 C 104.02 93.96 104.54 96.95 104.91 99.26 Z" />
</g>
</svg>
