<?xml version="1.0" encoding="UTF-8" ?>
<!DOCTYPE svg PUBLIC "-//W3C//DTD SVG 1.1//EN" "http://www.w3.org/Graphics/SVG/1.1/DTD/svg11.dtd">
<svg width="64pt" height="64pt" viewBox="0 0 64 64" version="1.1" xmlns="http://www.w3.org/2000/svg">
<g id="#000000ff">
<path fill="#000000" opacity="1.00" d=" M 46.70 7.63 C 50.22 6.21 53.46 9.20 57.00 8.84 C 59.36 8.68 61.58 9.52 63.73 10.38 C 60.74 11.44 57.63 12.13 54.52 12.70 C 53.88 19.24 52.85 25.85 50.64 32.06 C 49.68 35.49 45.86 36.34 43.51 38.54 C 42.10 40.29 41.09 42.32 39.93 44.24 C 42.56 45.97 44.92 48.07 47.34 50.08 C 50.35 50.73 53.54 50.42 56.49 51.49 C 52.85 51.59 48.97 51.90 45.55 50.46 C 43.03 48.23 40.18 46.35 37.86 43.90 C 37.73 42.29 37.74 40.67 37.70 39.05 C 34.87 38.47 32.11 39.18 29.44 40.07 C 32.25 43.21 35.32 46.20 39.33 47.74 C 35.01 47.60 30.67 47.82 26.37 47.38 C 28.40 46.69 30.53 46.47 32.64 46.17 C 30.67 44.44 28.73 42.67 27.01 40.68 C 19.75 42.51 12.94 45.83 5.54 47.13 C 6.26 43.85 8.91 41.84 11.28 39.76 C 7.75 41.58 4.22 44.18 0.00 43.32 L 0.00 42.44 C 4.73 39.34 9.52 36.30 14.39 33.41 C 16.91 31.72 20.09 32.67 22.85 31.66 C 21.08 31.62 19.32 31.63 17.56 31.72 C 20.58 26.87 26.04 24.63 30.70 21.72 C 34.22 19.42 39.27 18.36 40.64 13.86 C 41.54 10.96 43.68 8.44 46.70 7.63 M 48.28 10.31 C 47.08 11.76 49.54 13.50 50.59 12.00 C 51.75 10.58 49.31 8.79 48.28 10.31 M 37.42 34.27 C 36.25 34.49 35.50 35.16 35.17 36.27 C 35.78 38.35 39.73 34.68 37.42 34.27 Z" />
<path fill="#000000" opacity="1.00" d=" M 41.24 49.95 C 44.20 48.34 41.54 53.30 41.24 49.95 Z" />
</g>
</svg>
