<?xml version="1.0" encoding="UTF-8" ?>
<!DOCTYPE svg PUBLIC "-//W3C//DTD SVG 1.1//EN" "http://www.w3.org/Graphics/SVG/1.1/DTD/svg11.dtd">
<svg width="200pt" height="200pt" viewBox="0 0 200 200" version="1.1" xmlns="http://www.w3.org/2000/svg">
<g id="#000000ff">
<path fill="#000000" opacity="1.00" d=" M 160.72 59.19 C 161.88 55.75 163.29 52.27 165.97 49.71 C 170.01 52.54 167.45 57.92 169.32 61.88 C 170.05 59.07 170.45 56.17 171.38 53.42 C 172.53 52.03 174.17 51.15 175.51 49.95 C 176.34 51.22 177.35 52.49 177.42 54.06 C 177.94 59.33 178.06 64.65 177.49 69.92 C 177.81 70.53 178.45 71.74 178.77 72.35 C 174.97 74.97 170.25 73.45 165.98 74.00 C 160.03 74.60 154.04 74.42 148.08 74.73 C 146.62 75.41 145.27 76.31 143.86 77.08 C 141.56 73.41 144.33 69.52 143.30 65.68 C 142.38 61.65 141.61 57.59 141.23 53.47 C 142.56 52.92 143.99 51.76 145.46 52.59 C 147.80 54.67 149.35 57.48 151.36 59.86 C 152.30 56.40 153.51 52.15 157.58 51.38 C 159.10 53.77 159.60 56.62 160.72 59.19 M 145.15 57.96 C 146.24 62.17 146.84 66.54 146.50 70.90 C 155.23 70.44 163.97 70.04 172.71 69.77 C 173.58 65.77 173.92 61.69 174.33 57.63 C 172.79 59.25 172.02 61.33 171.51 63.47 C 169.66 63.33 167.80 63.29 165.95 63.33 C 165.59 62.26 165.24 61.19 164.90 60.12 C 162.88 61.50 160.48 62.02 158.16 62.64 C 157.48 60.99 156.83 59.33 156.12 57.69 C 155.37 59.84 154.59 61.98 153.51 63.99 C 149.37 64.65 147.59 60.43 145.15 57.96 Z" />
<path fill="#000000" opacity="1.00" d=" M 80.30 59.59 C 81.83 59.22 83.39 58.98 84.96 58.85 C 92.67 60.29 100.76 61.88 107.00 66.96 C 114.34 69.49 122.20 70.31 129.75 72.12 C 136.04 74.08 142.29 76.32 148.22 79.14 C 148.88 82.19 144.97 81.94 143.15 83.04 C 141.06 84.29 139.73 79.99 137.60 81.68 C 137.42 82.77 137.29 83.87 137.21 84.98 C 136.69 84.72 135.64 84.19 135.11 83.92 C 133.85 85.13 132.64 86.55 130.87 86.99 C 127.97 87.93 125.35 89.68 122.26 89.98 C 122.34 90.37 122.48 91.15 122.56 91.54 C 123.95 91.66 125.35 91.78 126.74 91.95 C 124.27 93.97 119.01 95.29 118.26 90.96 C 118.73 88.41 121.92 87.63 123.50 85.81 C 116.38 86.37 109.36 89.22 102.21 88.39 C 102.91 87.07 103.62 85.77 104.43 84.51 C 98.83 87.25 91.64 84.38 86.58 88.54 C 85.73 87.63 84.88 86.72 84.02 85.81 C 81.16 87.54 78.05 88.77 74.85 89.71 C 76.89 88.12 78.73 85.54 81.60 85.72 C 83.26 85.82 85.18 85.33 86.53 86.58 C 87.57 85.40 88.69 84.31 89.83 83.23 C 91.01 83.77 92.19 84.31 93.37 84.85 C 93.39 83.02 93.35 81.20 93.31 79.38 C 91.82 79.49 89.24 80.61 89.13 78.25 C 89.83 76.75 91.43 75.80 92.44 74.49 C 92.72 74.94 93.27 75.86 93.54 76.32 C 94.23 75.76 94.94 75.23 95.66 74.73 C 95.25 74.51 94.43 74.09 94.01 73.87 C 93.72 73.29 93.14 72.14 92.85 71.56 C 94.57 71.48 96.30 71.42 98.03 71.40 C 97.77 72.64 97.53 73.89 97.29 75.14 C 97.70 75.19 98.52 75.27 98.94 75.31 C 98.68 73.66 98.47 72.02 98.31 70.36 C 100.34 70.89 102.09 71.98 103.39 73.62 C 105.69 73.25 107.85 74.10 109.99 74.83 C 109.02 75.76 108.04 76.69 107.07 77.62 C 105.53 77.19 104.00 76.75 102.48 76.31 C 102.47 77.09 102.46 78.65 102.46 79.43 C 103.56 78.93 104.65 78.43 105.76 77.93 C 105.99 78.47 106.47 79.55 106.71 80.10 C 108.73 78.59 110.65 76.81 113.09 76.02 C 114.32 76.85 115.47 77.80 116.62 78.75 C 117.32 78.29 118.02 77.84 118.73 77.38 C 119.55 77.84 120.40 78.27 121.26 78.65 C 127.09 78.12 132.83 79.73 138.69 79.40 C 134.69 76.67 129.81 75.87 125.19 74.81 C 118.83 73.84 112.63 72.08 106.35 70.71 C 106.01 69.70 105.64 68.69 105.27 67.70 C 105.32 68.43 105.44 69.89 105.49 70.63 C 102.33 70.21 99.68 68.91 97.93 66.21 C 92.95 64.32 87.85 62.64 82.51 62.16 C 81.82 63.65 81.08 65.12 80.35 66.60 C 85.17 63.45 91.77 64.39 96.12 67.91 C 94.30 68.63 92.72 69.74 91.58 71.33 C 92.44 71.96 92.86 72.78 92.84 73.80 C 91.08 76.24 88.06 75.82 85.46 75.53 C 87.90 76.96 88.03 80.26 90.71 81.34 C 88.92 81.72 87.34 82.62 85.81 83.57 C 84.89 82.79 84.00 81.99 83.12 81.18 C 78.93 82.77 74.44 83.51 70.50 85.76 C 70.45 84.82 70.36 82.93 70.31 81.98 C 69.64 83.34 69.48 84.84 69.32 86.33 C 66.43 86.87 63.68 87.94 61.13 89.38 C 61.42 88.16 61.69 86.94 61.92 85.72 C 60.40 87.61 59.65 90.15 57.40 91.38 C 57.38 90.51 57.35 88.77 57.34 87.90 C 55.10 91.36 50.44 92.00 46.69 92.92 C 45.25 94.25 44.99 96.34 44.05 97.99 C 43.76 97.28 43.17 95.86 42.87 95.15 C 38.97 97.45 34.74 102.48 29.91 99.37 C 28.48 100.45 26.95 101.38 25.44 102.35 C 26.68 102.39 27.92 102.43 29.16 102.47 C 29.26 103.92 29.25 105.37 29.18 106.82 C 31.50 106.69 33.83 106.59 36.15 106.81 C 32.07 110.58 26.72 112.85 23.85 117.81 C 26.61 114.69 30.59 113.28 34.17 111.35 C 34.77 111.76 35.97 112.56 36.57 112.97 C 34.51 114.08 32.47 115.27 30.81 116.95 C 33.12 116.05 35.33 114.91 37.62 113.98 C 37.40 112.11 37.29 110.24 37.09 108.37 C 38.45 110.46 40.95 109.48 42.95 109.18 C 41.90 110.44 40.78 111.66 39.96 113.09 C 41.68 112.54 43.00 111.27 44.39 110.19 C 46.21 110.77 47.98 111.65 49.92 111.69 C 50.91 110.98 51.75 110.11 52.59 109.25 C 52.54 109.92 52.43 111.26 52.37 111.93 C 55.04 111.67 57.25 110.10 59.57 108.91 C 59.46 109.87 59.36 110.84 59.26 111.81 C 61.21 112.07 63.17 112.31 65.10 112.70 C 65.38 111.63 65.68 110.57 65.99 109.52 C 66.79 110.53 67.57 111.57 68.35 112.60 C 72.55 111.62 77.06 115.22 80.93 112.64 C 81.48 113.63 82.02 114.61 82.58 115.60 C 84.83 114.48 87.33 114.34 89.77 114.05 C 88.76 115.05 87.72 116.02 86.66 116.97 C 88.88 117.47 91.31 118.03 92.87 115.89 C 93.68 117.34 94.46 118.84 95.80 119.89 C 95.45 118.44 95.04 117.02 94.58 115.61 C 96.04 115.51 97.51 115.40 98.98 115.26 C 99.26 116.22 99.53 117.18 99.78 118.14 C 103.36 115.96 107.55 114.27 111.81 114.72 C 118.16 112.95 124.21 110.27 130.25 107.67 C 131.95 106.96 133.81 107.38 135.58 107.15 C 137.66 106.12 139.68 104.96 141.63 103.70 C 141.80 104.26 142.15 105.39 142.32 105.95 C 144.90 105.40 147.53 105.33 149.73 106.97 C 152.20 104.66 155.52 106.16 158.00 107.62 C 154.22 107.19 150.81 109.26 147.03 108.85 C 147.41 110.29 147.82 111.72 148.29 113.13 C 145.66 113.96 143.12 115.05 140.65 116.27 C 140.69 117.12 140.76 117.97 140.85 118.82 C 139.24 120.16 137.70 121.59 136.01 122.83 C 132.59 121.74 128.63 121.04 126.17 118.18 C 122.72 119.59 119.11 120.49 115.51 121.44 C 114.10 122.01 112.88 121.02 111.68 120.43 C 108.37 121.04 105.03 121.53 101.66 121.57 C 101.43 126.57 97.79 130.29 95.60 134.53 C 91.67 133.27 89.91 138.23 86.28 138.69 C 87.10 136.89 88.39 135.33 89.12 133.49 C 88.26 133.03 87.40 132.59 86.54 132.17 C 86.55 132.89 86.58 134.33 86.60 135.04 C 84.45 135.28 82.31 135.56 80.16 135.78 C 79.44 132.65 82.45 131.13 84.18 129.13 C 86.37 126.91 87.87 124.15 89.35 121.44 C 82.16 118.85 74.62 117.38 67.16 115.84 C 64.69 117.28 63.47 120.61 61.77 122.97 C 63.88 121.02 65.83 118.77 68.83 118.30 C 67.41 123.32 63.41 126.81 60.38 130.84 C 55.78 130.33 50.87 130.57 46.73 128.23 C 45.72 128.12 44.70 128.18 43.69 128.18 C 43.16 125.69 43.30 123.13 45.40 121.38 C 45.77 122.06 46.51 123.41 46.88 124.08 C 46.61 122.81 46.33 121.55 46.07 120.29 C 47.39 119.21 48.56 117.97 49.27 116.40 C 49.78 116.38 50.80 116.35 51.31 116.33 C 50.96 115.91 50.24 115.06 49.88 114.64 C 47.73 114.74 45.23 113.76 43.37 115.24 C 40.68 117.32 37.19 117.73 34.23 119.29 C 32.18 120.55 30.38 122.21 28.19 123.25 C 22.68 125.91 20.86 132.23 18.11 137.21 C 14.72 138.78 15.58 134.44 16.01 132.51 C 15.23 132.56 14.46 132.60 13.68 132.64 C 11.27 127.70 13.44 122.32 12.82 117.12 C 14.23 114.00 16.15 111.09 18.52 108.61 C 12.50 104.86 4.79 102.33 1.44 95.58 C 0.66 94.58 1.27 92.15 2.90 92.87 C 6.16 93.66 9.30 95.00 12.65 95.39 C 15.49 95.81 18.43 95.72 21.14 96.75 C 26.23 95.20 31.74 96.10 36.85 94.70 C 39.18 93.17 41.17 91.09 43.46 89.46 C 51.71 80.85 63.38 76.80 74.69 73.98 C 72.85 72.65 70.96 71.40 69.15 70.03 C 69.67 69.37 70.69 68.03 71.21 67.37 C 72.14 67.73 73.08 68.11 74.02 68.48 C 75.49 65.13 77.59 62.04 80.30 59.59 M 76.21 69.17 C 77.45 70.80 78.60 72.50 79.91 74.08 C 79.79 71.88 78.75 69.97 77.76 68.06 C 77.38 68.34 76.60 68.89 76.21 69.17 M 85.24 70.24 C 85.81 70.82 85.81 70.82 85.24 70.24 M 99.69 77.46 C 99.32 78.82 99.87 79.30 101.34 78.90 C 101.69 77.57 101.14 77.09 99.69 77.46 M 69.17 79.21 C 68.88 79.52 68.30 80.15 68.02 80.46 C 68.64 83.83 72.99 78.38 69.17 79.21 M 96.12 79.30 C 95.91 79.96 95.48 81.27 95.27 81.93 C 96.63 81.80 98.00 81.68 99.37 81.57 C 99.38 80.95 99.42 79.71 99.44 79.08 C 98.61 79.14 96.95 79.25 96.12 79.30 M 100.88 79.91 C 100.37 81.52 100.94 82.06 102.62 81.53 C 103.07 79.88 102.49 79.34 100.88 79.91 M 104.23 80.24 C 104.84 80.81 104.84 80.81 104.23 80.24 M 7.56 97.43 C 9.26 98.77 10.97 100.10 12.84 101.20 C 15.29 103.15 18.32 101.00 20.98 100.72 C 16.68 99.03 11.84 99.35 7.56 97.43 M 19.99 105.63 C 21.67 106.74 23.81 107.35 24.93 109.14 C 25.55 111.59 22.65 110.08 21.33 110.32 C 19.87 112.79 18.43 115.28 17.23 117.89 C 18.27 118.39 19.29 118.93 20.29 119.49 C 19.22 115.00 23.24 111.49 26.98 109.91 C 26.44 109.33 25.89 108.77 25.33 108.21 C 26.49 107.40 27.64 106.57 28.78 105.74 C 25.86 105.23 22.92 105.32 19.99 105.63 M 126.23 111.20 C 126.90 111.87 126.90 111.87 126.23 111.20 M 46.23 112.24 C 46.82 112.81 46.82 112.81 46.23 112.24 M 114.78 116.63 C 118.17 116.91 121.77 116.63 124.62 114.56 C 121.27 114.76 117.71 114.77 114.78 116.63 M 59.85 115.99 C 59.75 120.50 55.28 123.19 52.96 126.68 C 54.79 126.99 56.62 127.28 58.45 127.56 C 57.70 126.79 56.94 126.02 56.18 125.27 C 58.42 121.79 61.11 118.61 63.02 114.92 C 61.96 115.27 60.90 115.63 59.85 115.99 M 27.83 115.96 C 27.35 117.59 27.91 118.15 29.52 117.63 C 29.96 115.98 29.40 115.43 27.83 115.96 M 53.23 116.25 C 53.85 116.79 53.85 116.79 53.23 116.25 M 54.58 117.53 C 51.99 120.22 49.53 123.10 47.66 126.34 C 52.10 124.16 54.99 119.60 58.05 115.80 C 56.75 116.03 55.39 116.38 54.58 117.53 M 112.50 116.15 C 112.08 117.55 112.57 118.05 113.95 117.64 C 114.36 116.24 113.87 115.74 112.50 116.15 M 137.26 117.38 C 136.16 117.61 134.82 118.89 135.44 120.09 C 136.77 121.17 138.85 117.98 137.26 117.38 M 16.41 126.96 C 15.63 128.14 15.55 129.35 16.16 130.60 C 18.37 131.67 18.81 125.52 16.41 126.96 Z" />
<path fill="#000000" opacity="1.00" d=" M 149.15 80.17 C 154.80 80.68 160.54 81.40 166.12 82.60 C 171.19 82.09 176.44 82.31 181.38 83.62 C 183.64 83.95 184.37 85.48 183.83 87.67 C 175.28 85.77 166.41 86.21 157.89 84.25 C 156.57 87.29 154.81 90.54 156.09 93.92 C 156.77 95.76 157.13 99.12 159.68 98.96 C 159.74 97.85 159.77 96.73 159.79 95.62 C 161.29 98.32 163.00 101.17 162.65 104.40 C 166.14 104.38 169.63 104.40 172.89 105.80 C 172.48 102.35 169.30 101.90 166.62 100.87 C 168.86 100.21 172.29 100.60 171.82 97.32 C 172.03 97.71 172.46 98.49 172.67 98.88 C 173.88 96.72 175.94 95.50 178.30 94.98 C 176.69 89.82 183.58 88.81 186.21 85.81 C 190.41 83.81 196.48 87.92 195.30 92.95 C 193.40 92.82 191.48 92.19 189.58 92.64 C 187.84 94.64 186.94 97.20 185.29 99.28 C 181.99 103.05 178.29 106.57 173.83 108.95 C 169.59 111.86 164.10 109.06 159.64 111.37 C 157.94 112.24 156.00 111.85 155.20 110.04 C 154.11 111.52 153.30 113.96 150.99 113.40 C 149.15 113.89 149.28 111.58 148.93 110.48 C 153.45 109.46 158.07 109.12 162.67 109.75 C 161.73 107.95 160.87 106.11 160.46 104.12 C 157.82 103.20 154.96 102.03 153.83 99.25 C 152.64 96.04 151.28 92.65 151.77 89.16 C 152.49 86.98 154.58 85.99 156.38 84.87 C 154.78 83.37 152.52 83.86 150.56 83.41 C 149.24 82.89 147.95 81.50 149.15 80.17 M 178.09 98.13 C 178.19 98.32 178.40 98.71 178.50 98.90 C 176.08 100.57 171.11 101.76 172.97 105.64 C 178.12 102.08 182.91 97.56 184.92 91.47 C 181.92 92.88 180.28 95.81 178.09 98.13 Z" />
<path fill="#000000" opacity="1.00" d=" M 143.28 87.92 C 144.19 86.10 145.95 85.02 147.53 83.85 C 147.60 84.45 147.73 85.65 147.80 86.25 C 146.26 86.71 144.79 87.38 143.28 87.92 Z" />
<path fill="#000000" opacity="1.00" d=" M 184.19 85.11 C 187.22 83.39 184.29 88.54 184.19 85.11 Z" />
<path fill="#000000" opacity="1.00" d=" M 167.02 88.43 C 168.51 87.95 170.56 86.41 171.77 88.21 C 173.39 89.18 172.68 91.13 172.70 92.66 C 169.59 93.66 167.58 91.25 167.02 88.43 Z" />
<path fill="#000000" opacity="1.00" d=" M 142.37 88.65 C 143.25 88.64 145.00 88.62 145.87 88.61 C 145.17 91.34 145.41 94.15 145.67 96.92 C 143.09 94.92 142.44 91.74 142.37 88.65 Z" />
<path fill="#000000" opacity="1.00" d=" M 41.17 98.11 C 41.85 98.78 41.85 98.78 41.17 98.11 Z" />
<path fill="#000000" opacity="1.00" d=" M 144.35 101.87 C 145.93 100.90 146.24 103.56 144.84 103.91 C 143.25 104.78 142.97 102.24 144.35 101.87 Z" />
<path fill="#000000" opacity="1.00" d=" M 157.43 105.10 C 158.80 104.71 159.32 105.21 158.99 106.60 C 157.61 107.00 157.09 106.50 157.43 105.10 Z" />
<path fill="#000000" opacity="1.00" d=" M 111.31 108.13 C 114.33 106.75 111.47 111.56 111.31 108.13 Z" />
<path fill="#000000" opacity="1.00" d=" M 115.24 108.24 C 117.92 107.31 115.93 110.88 114.37 110.75 C 112.61 110.53 114.37 108.48 115.24 108.24 Z" />
</g>
</svg>
