<?xml version="1.0" encoding="UTF-8" ?>
<!DOCTYPE svg PUBLIC "-//W3C//DTD SVG 1.1//EN" "http://www.w3.org/Graphics/SVG/1.1/DTD/svg11.dtd">
<svg width="128pt" height="128pt" viewBox="0 0 128 128" version="1.1" xmlns="http://www.w3.org/2000/svg">
<g id="#000000ff">
<path fill="#000000" opacity="1.00" d=" M 66.77 20.94 C 66.95 16.84 69.54 12.97 73.30 11.29 C 76.13 10.97 78.64 13.81 81.52 12.49 C 84.57 11.09 87.87 12.47 91.05 11.71 C 95.99 13.03 101.12 12.58 106.17 13.00 C 105.66 14.04 104.86 14.55 103.76 14.54 C 99.34 15.09 94.51 13.72 90.63 16.48 C 85.52 16.51 79.36 15.30 75.16 19.18 C 72.15 20.65 73.61 24.37 74.35 26.82 C 75.25 30.59 78.34 33.36 79.03 37.20 C 79.92 40.27 79.83 43.87 82.33 46.22 C 81.52 49.85 80.67 53.51 79.09 56.89 C 76.71 60.79 73.18 63.82 70.84 67.74 C 67.41 73.12 63.23 78.48 62.34 84.97 C 60.00 94.21 63.79 103.54 62.78 112.88 C 66.21 112.75 69.60 112.07 73.03 112.17 C 74.61 114.48 71.52 115.89 69.68 116.37 C 63.69 117.47 57.39 118.41 51.41 116.84 C 51.24 108.56 52.10 100.25 51.37 91.99 C 51.29 89.62 50.12 87.53 48.17 86.18 C 47.13 88.07 46.22 90.04 44.95 91.80 C 41.75 88.83 38.21 84.73 39.58 80.04 C 38.69 82.68 36.32 84.26 35.05 86.67 C 34.31 86.34 32.84 85.69 32.10 85.37 C 32.45 83.33 33.67 81.63 34.74 79.92 C 33.56 80.76 32.40 81.63 31.23 82.50 C 30.62 82.04 29.38 81.12 28.77 80.66 C 30.33 78.65 32.18 76.89 34.02 75.14 C 32.18 75.57 29.81 77.66 28.69 75.07 C 30.48 72.59 32.84 70.61 34.97 68.44 C 34.28 68.21 32.91 67.77 32.22 67.55 C 31.72 65.03 33.09 63.23 35.56 62.74 C 36.40 58.77 41.15 58.27 43.78 55.81 C 48.77 51.01 55.45 48.46 62.05 46.73 C 66.07 45.71 69.64 43.51 73.47 41.97 C 70.31 35.26 68.62 28.07 66.77 20.94 M 55.36 91.95 C 56.03 99.51 54.22 107.19 56.09 114.65 C 57.25 114.68 58.42 114.73 59.58 114.80 C 59.62 109.78 60.13 104.67 58.43 99.84 C 58.81 94.14 58.29 88.35 59.56 82.74 C 56.39 84.42 54.93 88.51 55.36 91.95 Z" />
<path fill="#000000" opacity="1.00" d=" M 37.12 85.13 C 38.82 83.78 39.71 86.01 40.84 86.95 C 40.38 87.70 39.46 89.20 39.00 89.96 C 37.69 88.70 35.19 87.02 37.12 85.13 Z" />
</g>
</svg>
