<?xml version="1.0" encoding="UTF-8" ?>
<!DOCTYPE svg PUBLIC "-//W3C//DTD SVG 1.1//EN" "http://www.w3.org/Graphics/SVG/1.1/DTD/svg11.dtd">
<svg width="180pt" height="180pt" viewBox="0 0 180 180" version="1.1" xmlns="http://www.w3.org/2000/svg">
<g id="#000000ff">
<path fill="#000000" opacity="1.00" d=" M 22.57 20.58 C 24.34 18.98 26.70 18.23 28.83 17.22 C 31.79 21.38 35.73 24.66 38.99 28.57 C 43.19 27.01 47.51 27.84 51.71 28.79 C 53.86 27.70 53.81 24.15 56.34 23.33 C 58.90 22.28 61.54 21.44 64.14 20.49 C 65.59 23.48 66.85 26.64 67.16 29.97 C 66.19 34.09 63.92 37.81 63.24 42.03 C 61.97 45.54 62.75 49.34 61.64 52.89 C 65.52 52.69 69.31 51.93 73.11 51.18 C 78.09 51.71 83.69 52.99 86.56 57.51 C 91.07 60.76 96.01 64.98 101.95 64.24 C 104.28 64.34 106.80 63.96 108.95 65.07 C 109.04 65.48 109.22 66.30 109.31 66.71 C 105.70 68.89 101.37 68.66 97.32 68.67 C 92.84 67.88 89.53 64.49 85.86 62.09 C 82.78 60.08 79.97 57.68 76.83 55.77 C 74.58 55.69 72.09 56.20 70.41 57.82 C 68.48 59.54 65.75 59.74 63.39 60.58 C 63.08 61.86 62.77 63.15 62.47 64.45 C 61.71 63.99 60.95 63.53 60.19 63.08 C 57.04 65.19 53.86 67.63 49.94 67.95 C 50.13 71.47 48.02 74.01 45.65 76.29 C 44.74 81.90 44.09 87.54 43.52 93.19 C 42.80 98.38 45.27 103.22 46.95 107.97 C 48.17 111.79 51.27 114.45 53.77 117.42 C 54.78 120.95 54.06 124.77 55.11 128.33 C 55.50 126.13 55.90 123.93 56.72 121.85 C 58.67 123.53 59.58 125.92 60.12 128.36 C 59.61 128.52 58.60 128.82 58.09 128.98 C 59.20 129.94 60.37 130.83 61.33 131.95 C 61.39 136.50 60.47 141.01 60.69 145.57 C 61.87 143.65 62.87 141.63 64.09 139.74 C 65.44 144.92 63.06 149.92 61.81 154.85 C 63.50 154.31 65.17 153.73 66.86 153.21 C 66.09 156.59 65.18 160.02 65.71 163.51 C 66.15 166.31 65.20 168.99 64.30 171.58 C 65.55 170.79 66.86 170.06 67.98 169.07 C 69.70 163.29 70.21 157.03 69.06 151.07 C 67.95 144.16 68.03 137.11 67.15 130.19 C 64.49 127.06 61.12 124.61 58.12 121.89 C 54.92 115.80 50.28 110.27 48.82 103.41 C 48.19 99.60 48.60 95.68 47.51 91.94 C 50.75 94.72 49.61 99.42 51.44 102.92 C 53.50 107.20 55.51 111.67 58.97 115.03 C 61.21 117.15 64.89 117.68 66.14 120.78 C 67.06 122.83 69.44 123.84 70.03 126.06 C 71.11 129.30 71.95 132.62 72.96 135.89 C 73.94 138.41 72.53 140.95 72.62 143.51 C 73.71 152.87 74.53 162.86 70.89 171.80 C 67.42 173.90 64.00 176.16 62.24 180.00 L 60.43 180.00 C 60.87 177.32 60.20 174.79 58.43 172.73 C 58.53 174.39 60.35 176.39 59.01 177.82 C 54.32 179.49 49.41 177.54 45.11 175.63 C 45.13 173.59 45.11 171.26 47.05 170.02 C 49.11 167.75 52.32 168.43 55.03 168.40 C 56.15 163.30 56.82 158.05 56.62 152.82 C 55.28 148.50 53.36 144.36 52.11 140.00 C 48.75 128.19 43.63 116.93 40.73 104.98 C 40.14 101.69 37.11 99.51 36.77 96.15 C 36.04 89.98 34.70 83.82 35.51 77.58 C 31.84 74.85 31.99 69.86 29.28 66.43 C 27.76 67.73 25.91 68.86 24.00 67.57 C 25.27 66.13 26.56 64.71 27.75 63.21 C 24.14 63.41 21.68 66.22 19.01 68.28 C 18.85 67.90 18.69 67.53 18.54 67.15 C 20.91 65.28 23.14 63.23 25.41 61.24 C 24.68 59.42 23.84 57.63 23.32 55.74 C 22.99 52.17 24.67 48.71 23.99 45.15 C 23.56 43.09 24.56 41.15 25.11 39.21 C 23.03 36.05 18.64 33.29 20.05 28.99 C 20.49 26.11 20.56 22.91 22.57 20.58 M 24.18 31.63 C 25.73 33.49 27.52 35.16 28.91 37.15 C 28.88 39.59 27.72 41.80 27.20 44.15 C 27.22 45.53 28.20 46.64 28.53 47.94 C 28.07 50.62 27.48 53.29 26.72 55.90 C 27.88 57.50 29.14 59.04 30.74 60.22 C 31.41 57.71 32.03 55.19 32.75 52.70 C 34.01 52.21 35.29 51.74 36.58 51.34 C 36.52 50.56 36.46 49.78 36.40 49.00 C 38.46 48.69 40.55 48.36 42.42 47.36 C 39.33 44.48 31.76 45.06 32.05 39.36 C 35.07 38.13 37.99 39.25 40.45 41.10 C 40.55 39.73 40.70 38.36 40.88 36.99 C 42.00 37.52 43.47 37.80 43.78 39.21 C 44.93 42.70 46.56 46.62 44.61 50.16 C 46.89 51.06 49.26 51.72 51.73 51.72 C 51.15 49.28 50.52 46.83 50.65 44.30 C 51.11 44.31 52.04 44.33 52.51 44.34 C 52.52 43.75 52.54 42.57 52.55 41.98 C 54.82 41.02 57.28 40.82 58.86 43.06 C 57.44 44.57 55.65 45.66 54.20 47.13 C 53.23 49.31 53.50 51.76 53.38 54.08 C 51.99 55.06 50.58 56.02 49.19 57.01 C 49.80 58.47 50.45 59.90 51.10 61.34 C 52.89 60.75 54.77 60.54 56.65 60.43 C 55.95 58.31 55.46 56.13 55.54 53.89 C 56.62 54.30 57.69 54.73 58.76 55.17 C 57.12 52.29 60.34 49.72 59.26 46.82 C 58.96 45.00 60.72 43.50 60.29 41.65 C 59.93 38.48 58.34 35.57 58.15 32.35 C 59.67 32.38 61.18 32.47 62.70 32.58 C 62.58 30.10 63.12 27.59 62.42 25.16 C 60.86 26.02 59.05 26.53 57.74 27.77 C 56.52 29.74 55.65 31.93 54.15 33.73 C 51.60 32.62 49.01 30.86 46.11 31.34 C 42.23 31.49 40.23 35.52 36.79 36.79 C 35.44 37.27 34.73 36.10 34.01 35.21 C 35.46 33.96 36.88 32.68 38.23 31.31 C 36.50 30.54 34.81 29.69 33.13 28.83 C 33.80 30.47 34.87 32.09 34.28 33.93 C 33.10 33.83 31.92 33.70 30.75 33.56 C 30.19 34.64 29.60 35.70 28.98 36.75 C 26.61 33.93 27.80 30.35 28.67 27.22 C 29.30 27.65 30.56 28.51 31.19 28.94 C 29.60 26.75 28.44 24.32 27.12 21.97 C 24.01 24.05 24.83 28.39 24.18 31.63 M 36.78 54.48 C 35.97 54.02 35.15 53.56 34.34 53.11 C 35.30 56.36 37.11 59.23 39.98 61.12 C 42.14 59.77 44.28 58.41 46.29 56.85 C 45.37 56.31 44.44 55.78 43.50 55.26 C 43.26 52.96 43.38 50.65 43.55 48.35 C 41.22 50.31 39.19 52.60 36.78 54.48 M 60.26 56.17 C 60.81 56.81 60.81 56.81 60.26 56.17 M 43.39 64.11 C 45.14 65.82 47.39 64.81 49.34 64.14 C 48.06 61.96 47.12 59.58 47.62 57.01 C 46.50 59.54 45.05 61.90 43.39 64.11 M 35.57 63.81 C 37.06 64.95 38.62 66.03 40.17 67.09 C 39.42 68.12 38.67 69.15 37.95 70.21 C 40.95 70.73 43.85 69.67 46.76 69.14 C 44.27 68.17 42.08 66.72 40.41 64.62 C 40.92 63.73 41.42 62.83 41.90 61.92 C 39.75 62.41 37.60 62.95 35.57 63.81 M 53.13 64.21 C 53.80 64.89 53.80 64.89 53.13 64.21 M 36.87 73.11 C 37.06 72.71 37.43 71.92 37.62 71.53 C 36.26 69.95 35.56 67.99 34.95 66.04 C 34.18 68.57 34.85 71.34 36.87 73.11 M 47.26 69.17 C 46.69 70.49 47.14 70.96 48.61 70.58 C 49.15 69.20 48.70 68.73 47.26 69.17 M 56.24 132.20 C 56.84 132.80 56.84 132.80 56.24 132.20 M 62.27 156.28 C 60.68 159.25 65.67 156.52 62.27 156.28 M 60.21 165.11 C 62.18 163.53 61.62 160.92 61.71 158.70 C 60.14 160.48 60.06 162.87 60.21 165.11 Z" />
<path fill="#000000" opacity="1.00" d=" M 91.73 25.50 C 92.67 25.37 93.62 25.25 94.56 25.13 C 96.48 28.55 97.99 32.19 100.10 35.51 C 101.85 32.84 101.84 29.13 104.33 26.99 C 105.53 25.62 107.15 27.00 108.26 27.70 C 109.04 30.42 108.60 33.29 108.72 36.08 C 110.97 33.01 111.70 28.77 115.04 26.58 C 116.51 26.41 118.63 27.18 118.41 29.01 C 118.52 32.18 117.98 35.33 118.01 38.49 C 120.17 35.31 121.01 31.40 123.42 28.37 C 124.64 27.70 125.65 28.73 126.64 29.32 C 126.72 34.04 127.60 38.77 126.62 43.45 C 125.62 48.54 126.71 54.91 122.78 58.82 C 115.38 59.09 108.00 58.04 100.67 57.11 C 97.08 56.40 93.27 55.97 90.23 53.74 C 91.05 44.33 89.52 34.76 91.73 25.50 M 95.24 34.77 C 94.44 40.35 94.85 46.02 94.14 51.61 C 103.03 53.60 112.10 53.90 121.14 54.60 C 121.39 49.73 122.02 44.91 122.45 40.06 C 119.78 42.22 119.57 47.62 115.00 46.51 C 113.32 43.20 113.31 39.55 113.65 35.95 C 111.99 38.95 110.83 42.73 107.04 43.57 C 104.68 41.63 104.51 38.65 104.61 35.83 C 103.50 37.87 102.37 39.91 101.00 41.79 C 97.83 40.70 96.87 37.33 95.24 34.77 Z" />
<path fill="#000000" opacity="1.00" d=" M 109.82 64.26 C 115.06 65.88 120.65 65.07 126.09 65.55 C 130.00 72.66 137.89 76.14 143.97 81.09 C 145.65 83.58 144.88 86.99 146.34 89.64 C 148.48 94.09 148.76 99.07 149.01 103.91 C 150.95 116.73 148.46 129.80 150.57 142.59 C 152.10 145.96 154.62 148.94 157.33 151.44 C 162.98 152.33 167.16 147.64 172.15 145.88 C 172.81 149.92 174.01 154.31 172.06 158.18 C 171.15 159.94 169.12 160.54 167.40 161.16 C 161.80 163.08 154.61 162.57 151.10 157.22 C 151.63 159.96 153.00 162.82 151.87 165.60 C 151.16 167.53 151.15 170.01 149.29 171.28 C 146.89 173.45 143.41 172.62 140.47 172.77 C 139.56 170.51 139.02 168.04 140.49 165.87 C 138.65 166.75 136.74 167.62 134.64 167.50 C 135.35 164.28 138.30 162.55 139.90 159.89 C 138.74 154.33 136.74 148.96 135.24 143.48 C 133.23 139.97 130.22 137.05 128.90 133.13 C 125.97 127.06 124.65 120.08 120.13 114.90 C 119.53 115.25 118.92 115.61 118.32 115.96 C 119.44 116.92 121.39 117.29 121.75 118.90 C 120.35 122.27 118.30 125.31 116.69 128.57 C 115.96 129.63 116.65 130.83 117.00 131.88 C 119.15 136.80 120.19 142.11 122.17 147.10 C 121.32 148.09 120.47 149.07 119.76 150.16 C 118.74 155.84 119.04 161.76 117.19 167.28 C 116.24 166.77 115.29 166.27 114.36 165.74 C 114.41 167.22 114.45 168.69 114.49 170.17 C 107.57 172.02 100.73 169.13 94.14 167.30 C 95.06 166.16 95.67 164.44 97.31 164.21 C 100.57 163.39 103.81 162.38 107.19 162.26 C 107.35 157.85 108.93 153.59 108.88 149.18 C 108.74 146.23 106.24 144.46 104.09 142.89 C 98.80 139.11 97.04 131.99 91.29 128.75 C 91.74 135.57 90.60 142.77 86.19 148.23 C 84.19 150.31 84.54 153.33 84.37 155.98 C 84.26 160.69 82.95 165.28 83.10 170.01 C 83.25 173.22 80.92 175.70 79.28 178.20 C 77.64 178.96 75.89 179.42 74.19 180.00 L 69.14 180.00 C 67.99 179.30 66.87 178.56 65.78 177.77 C 68.12 177.42 70.49 177.42 72.83 177.07 C 75.38 175.39 77.38 172.97 79.20 170.54 C 79.65 165.05 77.51 159.31 79.88 154.02 C 81.56 150.31 80.80 145.31 84.35 142.65 C 83.71 142.62 82.44 142.55 81.81 142.51 C 81.69 140.52 81.58 138.53 81.48 136.55 C 83.01 137.38 84.54 138.24 86.12 138.98 C 84.89 137.90 83.60 136.88 82.30 135.89 C 82.81 132.69 82.68 129.44 82.96 126.23 C 84.11 127.78 85.25 129.33 86.48 130.82 C 86.71 126.28 83.13 121.71 85.57 117.43 C 86.56 117.92 87.55 118.41 88.55 118.91 C 87.02 113.77 86.36 108.15 88.43 103.07 C 87.37 98.55 85.65 94.20 84.52 89.69 C 85.98 90.42 87.53 91.19 88.27 92.76 C 91.34 98.45 93.77 104.72 93.65 111.29 C 95.31 111.70 96.94 112.21 98.57 112.73 C 99.57 111.00 100.65 109.31 101.66 107.59 C 100.17 108.95 98.79 110.42 97.41 111.88 C 96.67 110.94 95.02 110.36 95.13 108.98 C 95.50 104.47 99.19 101.20 102.71 98.81 C 101.72 101.25 100.52 103.59 99.30 105.91 C 104.63 103.54 110.16 101.29 116.07 101.01 C 114.51 102.68 112.90 104.32 111.52 106.15 C 114.28 104.60 117.21 103.38 120.07 102.07 C 122.43 98.88 125.47 96.21 127.21 92.59 C 125.23 92.07 123.24 91.61 121.23 91.24 C 123.95 88.18 124.46 83.85 122.25 80.31 C 120.89 80.83 119.54 81.37 118.17 81.89 C 115.54 77.10 112.64 72.44 110.22 67.53 C 109.58 66.49 109.44 65.40 109.82 64.26 M 122.94 74.72 C 124.18 77.59 125.79 80.29 127.01 83.17 C 126.40 83.96 125.79 84.75 125.17 85.53 C 125.94 85.40 126.72 85.29 127.50 85.19 C 127.45 84.62 127.35 83.50 127.29 82.93 C 128.84 81.65 130.49 80.47 132.43 79.86 C 131.63 78.85 130.91 77.76 132.53 77.07 C 132.34 76.85 131.97 76.40 131.78 76.18 C 130.78 77.47 129.84 78.80 128.90 80.14 C 126.12 79.30 125.28 76.19 122.94 74.72 M 131.83 81.80 C 133.11 82.15 134.39 82.48 135.66 82.85 C 135.70 82.07 135.77 80.52 135.80 79.74 C 134.47 80.41 133.14 81.09 131.83 81.80 M 132.25 83.52 C 131.67 84.73 133.61 86.07 134.51 84.99 C 135.25 83.74 133.11 82.70 132.25 83.52 M 135.23 94.14 C 133.27 92.35 131.18 90.70 129.03 89.15 C 128.50 89.61 127.43 90.55 126.90 91.02 C 127.84 91.84 128.78 92.65 129.73 93.46 C 129.03 95.50 128.35 97.55 127.64 99.59 C 128.98 100.82 130.21 102.22 130.70 104.01 C 130.33 105.28 129.70 106.44 129.18 107.65 C 130.10 107.51 131.02 107.37 131.94 107.23 C 130.75 110.38 133.08 113.42 132.09 116.57 C 131.25 120.91 131.85 125.36 131.53 129.74 C 132.35 132.82 133.86 135.76 135.57 138.45 C 138.92 141.60 139.16 146.47 140.39 150.63 C 141.60 154.02 142.66 157.47 143.70 160.92 C 142.74 162.13 141.78 163.34 140.85 164.58 C 142.20 164.54 143.55 164.51 144.90 164.51 C 143.98 166.27 142.93 167.96 141.94 169.67 C 143.70 169.64 145.47 169.61 147.24 169.59 C 147.57 167.02 148.46 164.55 148.69 161.97 C 148.06 159.17 146.76 156.58 146.06 153.80 C 144.72 149.25 145.10 144.25 142.58 140.07 C 143.22 139.08 143.88 138.10 144.54 137.12 C 143.09 133.60 142.38 129.72 143.20 125.96 C 143.65 123.64 142.28 121.72 141.36 119.73 C 141.25 117.47 141.10 115.22 140.78 112.99 C 141.41 110.70 141.72 108.34 140.70 106.10 C 141.28 105.07 141.88 104.06 142.49 103.05 C 142.14 101.77 141.81 100.48 141.51 99.19 C 142.53 98.55 143.56 97.91 144.58 97.28 C 143.24 93.10 142.72 88.63 140.42 84.80 C 138.50 87.81 137.39 91.26 135.23 94.14 M 136.57 86.25 C 135.79 87.48 134.84 88.77 134.60 90.24 C 136.07 92.42 138.95 85.48 136.57 86.25 M 144.24 102.38 C 143.22 103.08 143.16 104.79 143.63 105.84 C 145.24 106.24 146.04 102.49 144.24 102.38 M 117.00 112.22 C 117.59 112.71 118.19 113.20 118.79 113.69 C 119.81 112.04 120.81 110.37 121.68 108.63 C 119.97 109.62 118.55 111.01 117.00 112.22 M 126.90 116.96 C 127.53 117.96 128.27 118.89 128.98 119.85 C 129.77 117.61 129.37 115.23 128.28 113.17 C 128.87 111.73 129.47 110.30 129.88 108.79 C 127.78 110.96 127.37 114.11 126.90 116.96 M 143.13 112.29 C 141.42 115.08 146.56 112.61 143.13 112.29 M 148.07 147.97 C 148.73 149.71 149.56 151.40 150.52 153.01 C 151.28 153.05 152.05 153.12 152.81 153.23 C 152.69 154.10 152.52 154.97 152.29 155.82 C 152.69 155.29 153.49 154.23 153.90 153.70 C 156.45 155.95 159.32 158.53 163.03 157.78 C 167.57 158.54 169.92 153.80 170.02 149.97 C 167.16 151.94 166.25 157.01 162.01 156.31 C 156.48 155.58 151.72 151.99 148.07 147.97 Z" />
<path fill="#000000" opacity="1.00" d=" M 54.95 71.09 C 55.44 71.36 56.42 71.91 56.92 72.19 C 56.85 75.55 56.50 78.89 56.31 82.25 C 57.36 80.19 58.20 78.03 58.86 75.82 C 59.27 75.68 60.09 75.41 60.50 75.27 C 60.88 79.03 59.17 82.60 59.57 86.35 C 59.70 87.71 59.37 89.05 59.17 90.39 C 60.56 90.00 61.94 89.60 63.33 89.26 C 62.83 90.39 62.29 91.50 61.65 92.56 C 63.00 95.06 62.38 98.01 62.36 100.72 C 64.33 98.78 66.38 96.51 69.01 95.59 C 71.24 98.90 70.08 103.44 70.42 107.27 C 69.76 110.57 72.63 113.45 71.22 116.69 C 71.78 116.05 72.34 115.42 72.91 114.79 C 74.55 117.74 74.68 121.07 74.57 124.36 C 73.42 125.21 71.93 124.91 71.34 123.57 C 68.62 120.16 68.52 115.51 65.98 112.00 C 63.56 108.22 61.85 104.04 60.51 99.77 C 60.47 97.76 61.11 95.80 61.32 93.81 C 58.31 95.84 60.06 100.25 58.41 103.22 C 56.21 100.16 54.96 96.56 54.61 92.82 C 54.84 90.31 55.79 87.94 56.41 85.51 C 54.92 87.82 54.49 90.59 53.96 93.24 C 52.90 92.72 52.39 91.89 52.43 90.75 C 52.22 85.46 53.43 80.27 53.78 75.01 C 53.89 73.63 54.52 72.38 54.95 71.09 M 56.18 91.25 C 56.80 91.88 56.80 91.88 56.18 91.25 Z" />
<path fill="#000000" opacity="1.00" d=" M 48.18 88.16 C 48.86 88.83 48.86 88.83 48.18 88.16 Z" />
<path fill="#000000" opacity="1.00" d=" M 67.29 92.88 C 68.63 92.49 69.11 93.03 68.75 94.49 C 67.42 94.85 66.93 94.31 67.29 92.88 Z" />
<path fill="#000000" opacity="1.00" d=" M 64.04 95.33 C 67.56 95.37 62.46 98.28 64.04 95.33 Z" />
<path fill="#000000" opacity="1.00" d=" M 72.61 95.51 C 73.06 95.51 73.98 95.50 74.44 95.49 C 74.42 98.26 74.64 101.05 74.18 103.79 C 73.72 103.94 72.80 104.24 72.34 104.39 C 72.47 101.43 72.60 98.47 72.61 95.51 Z" />
<path fill="#000000" opacity="1.00" d=" M 133.98 103.65 C 133.30 101.41 133.50 97.37 136.85 98.40 C 136.51 103.64 135.40 108.77 135.20 114.01 C 134.25 112.74 133.34 111.44 132.43 110.15 C 133.00 108.03 134.77 105.91 133.98 103.65 Z" />
<path fill="#000000" opacity="1.00" d=" M 75.96 102.58 C 77.33 102.19 77.82 102.71 77.43 104.14 C 76.02 104.54 75.53 104.02 75.96 102.58 Z" />
<path fill="#000000" opacity="1.00" d=" M 59.98 109.23 C 57.67 107.94 58.15 105.27 58.65 103.10 C 59.72 104.04 60.77 105.00 61.82 105.97 C 61.20 107.05 60.59 108.14 59.98 109.23 Z" />
<path fill="#000000" opacity="1.00" d=" M 72.46 111.05 C 72.29 109.05 72.38 107.05 72.76 105.09 C 76.06 105.85 74.50 109.77 72.46 111.05 Z" />
<path fill="#000000" opacity="1.00" d=" M 59.96 113.77 C 58.56 111.74 61.03 109.76 61.90 108.07 C 63.32 110.93 64.53 113.91 65.18 117.05 C 63.24 116.37 60.91 115.85 59.96 113.77 M 61.54 112.26 C 61.12 113.60 61.63 114.10 63.07 113.76 C 63.51 112.43 63.00 111.93 61.54 112.26 Z" />
<path fill="#000000" opacity="1.00" d=" M 133.90 169.66 C 134.20 169.68 134.80 169.71 135.10 169.72 C 136.64 169.57 139.19 168.79 139.58 171.03 C 140.10 173.30 137.25 172.07 136.06 172.35 C 135.30 171.48 134.62 170.55 133.90 169.66 Z" />
</g>
</svg>
