<?xml version="1.0" encoding="UTF-8" ?>
<!DOCTYPE svg PUBLIC "-//W3C//DTD SVG 1.1//EN" "http://www.w3.org/Graphics/SVG/1.1/DTD/svg11.dtd">
<svg width="64pt" height="64pt" viewBox="0 0 64 64" version="1.1" xmlns="http://www.w3.org/2000/svg">
<g id="#000000ff">
<path fill="#000000" opacity="1.00" d=" M 12.47 8.64 C 13.70 6.43 13.91 3.02 16.94 2.54 C 19.51 3.81 19.41 7.49 19.51 10.02 C 20.10 14.68 14.46 17.21 15.09 21.88 C 20.42 22.84 25.83 23.32 31.09 24.63 C 32.86 23.57 34.76 22.09 36.91 22.19 C 40.30 23.16 43.51 24.69 46.69 26.19 C 49.95 28.69 52.09 32.37 53.68 36.09 C 54.88 38.73 54.92 41.87 56.83 44.17 C 58.71 45.06 60.88 45.04 62.90 45.38 C 62.89 45.96 62.86 47.13 62.85 47.72 C 60.32 48.39 58.03 49.66 55.63 50.67 C 52.09 51.06 48.44 50.54 45.04 49.50 C 44.70 50.69 44.41 51.90 44.13 53.11 C 40.71 55.12 36.71 54.29 32.96 54.20 C 31.19 54.00 28.63 53.82 28.18 51.67 C 28.13 50.02 29.05 48.48 30.44 47.64 C 33.15 47.55 35.82 47.17 38.24 45.85 C 37.72 47.26 37.01 48.58 36.11 49.79 C 35.39 49.70 33.96 49.52 33.24 49.43 C 34.99 49.93 36.79 50.28 38.55 50.76 C 38.13 50.32 37.29 49.42 36.86 48.98 C 37.61 48.14 38.36 47.31 39.12 46.48 C 38.78 46.03 38.51 45.52 38.15 45.08 C 37.68 45.23 36.72 45.52 36.24 45.67 C 35.26 43.24 32.93 40.91 30.10 41.52 C 26.85 44.76 24.96 48.99 23.12 53.11 C 21.08 54.12 18.75 53.61 16.56 53.84 C 15.96 52.36 15.57 50.82 15.12 49.29 C 16.76 49.24 18.40 49.45 20.04 49.45 C 21.13 47.64 21.80 45.58 21.62 43.44 C 20.20 41.16 17.57 40.02 15.98 37.88 C 14.58 35.51 13.89 32.80 13.35 30.13 C 9.74 31.57 5.79 31.75 2.16 30.25 C 2.16 27.03 4.76 24.90 6.95 22.95 C 8.89 21.38 10.32 19.26 12.42 17.87 C 12.01 14.85 10.84 11.49 12.47 8.64 M 33.89 28.47 C 32.64 29.47 34.26 31.65 35.57 30.73 C 36.70 29.73 35.20 27.57 33.89 28.47 M 19.30 36.10 C 19.79 39.48 22.03 34.28 19.30 36.10 M 23.37 40.99 C 23.34 44.42 26.32 39.54 23.37 40.99 Z" />
</g>
</svg>
