<?xml version="1.0" encoding="UTF-8" ?>
<!DOCTYPE svg PUBLIC "-//W3C//DTD SVG 1.1//EN" "http://www.w3.org/Graphics/SVG/1.1/DTD/svg11.dtd">
<svg width="128pt" height="128pt" viewBox="0 0 128 128" version="1.1" xmlns="http://www.w3.org/2000/svg">
<g id="#000000ff">
<path fill="#000000" opacity="1.00" d=" M 20.16 19.45 C 24.96 20.89 25.29 26.86 23.24 30.66 C 26.77 35.16 30.23 39.71 34.04 43.98 C 36.37 47.33 40.98 47.50 44.67 47.55 C 50.31 44.97 56.36 48.23 62.27 47.49 C 62.57 46.99 63.16 45.98 63.46 45.48 C 64.04 46.16 64.61 46.85 65.19 47.53 C 69.95 46.35 74.84 45.77 79.54 44.32 C 83.24 43.07 87.20 43.68 90.93 44.46 C 91.96 43.67 92.82 42.54 94.12 42.17 C 96.03 42.39 97.61 43.58 99.21 44.55 C 99.21 43.91 99.21 42.64 99.21 42.00 C 100.21 42.18 102.21 42.53 103.21 42.71 C 103.30 44.09 103.38 45.47 103.45 46.85 C 108.75 46.20 113.91 44.35 119.30 44.65 C 119.19 46.01 119.10 47.36 119.03 48.71 C 113.18 47.53 109.00 52.39 103.49 52.88 C 104.16 56.31 105.03 59.76 104.76 63.30 C 104.91 66.92 106.29 70.36 106.74 73.95 C 109.12 75.62 111.49 77.40 113.49 79.51 C 114.78 87.13 116.03 94.88 115.64 102.64 C 115.06 107.16 112.35 110.96 109.90 114.66 C 108.52 111.47 105.63 110.02 102.30 109.81 C 101.32 105.75 99.91 101.00 95.18 100.12 C 95.39 97.38 97.83 95.98 99.07 93.80 C 99.40 90.41 99.38 87.00 99.46 83.60 C 96.64 81.01 94.06 78.21 92.13 74.91 C 88.06 73.60 83.84 72.31 79.52 72.66 C 73.69 72.64 67.86 72.33 62.03 72.53 C 62.27 78.02 63.01 83.48 62.83 88.99 C 62.85 94.41 61.88 100.51 65.53 105.06 C 65.35 108.38 61.79 109.85 58.84 109.60 C 56.42 107.04 59.12 103.99 58.24 101.09 C 56.57 92.80 55.54 84.36 55.36 75.90 C 54.99 76.17 54.23 76.72 53.86 76.99 C 53.24 81.64 52.30 86.30 52.76 91.02 C 53.34 96.69 54.22 102.34 54.73 108.01 C 52.99 111.30 49.89 113.76 46.48 115.17 C 46.13 111.71 49.71 109.36 49.62 105.97 C 48.72 98.72 47.30 91.53 47.17 84.21 C 43.10 78.58 41.87 71.53 38.36 65.58 C 35.52 62.12 32.62 58.71 29.65 55.36 C 26.40 50.61 23.07 45.84 18.89 41.84 C 19.52 40.82 20.16 39.81 20.79 38.79 C 17.85 38.73 14.92 38.68 11.99 38.50 C 14.33 39.30 17.64 38.49 19.15 40.75 C 14.85 40.99 10.55 40.66 6.25 40.52 C 6.39 38.89 6.32 37.26 6.19 35.64 C 10.24 35.83 11.96 31.89 15.00 30.00 C 17.05 28.57 19.41 27.68 21.62 26.52 C 20.82 24.23 20.30 21.87 20.16 19.45 M 79.87 50.30 C 80.36 52.26 82.00 53.42 83.41 54.69 C 84.58 54.48 85.74 54.30 86.92 54.15 C 85.10 51.91 83.06 49.69 79.87 50.30 M 99.81 78.46 C 100.07 78.79 100.61 79.45 100.87 79.78 C 102.75 79.96 104.54 80.55 105.80 82.03 C 104.47 83.51 104.40 85.35 104.48 87.22 C 105.62 87.29 106.76 87.36 107.89 87.48 C 107.81 90.62 105.53 93.08 105.07 96.13 C 104.37 100.61 105.30 105.10 105.80 109.55 C 107.99 106.52 112.66 103.82 111.42 99.50 C 110.01 93.65 109.60 87.62 108.26 81.76 C 105.54 80.40 102.49 79.91 99.81 78.46 Z" />
</g>
</svg>
