<?xml version="1.0" encoding="UTF-8" ?>
<!DOCTYPE svg PUBLIC "-//W3C//DTD SVG 1.1//EN" "http://www.w3.org/Graphics/SVG/1.1/DTD/svg11.dtd">
<svg width="128pt" height="128pt" viewBox="0 0 128 128" version="1.1" xmlns="http://www.w3.org/2000/svg">
<g id="#000000ff">
<path fill="#000000" opacity="1.00" d=" M 26.48 5.32 C 27.16 3.59 27.61 1.14 29.81 0.85 C 30.75 5.53 29.37 10.22 29.67 14.92 C 30.39 14.22 31.61 13.84 31.81 12.73 C 32.67 9.67 33.70 6.66 35.00 3.76 C 36.23 4.09 36.84 4.85 36.81 6.05 C 36.65 13.09 33.76 19.68 31.14 26.09 C 35.94 21.57 39.41 15.80 44.31 11.34 C 45.19 10.15 46.63 10.25 47.85 10.80 C 46.15 13.19 44.35 15.53 42.26 17.60 C 42.59 19.51 42.73 21.47 41.57 23.15 C 43.82 20.82 46.49 18.88 49.39 17.44 C 50.60 16.57 51.57 18.17 52.48 18.72 C 54.18 18.12 55.90 17.57 57.71 17.49 C 56.96 19.36 55.46 20.71 54.10 22.12 C 56.37 21.33 58.96 18.54 61.09 21.03 C 58.62 23.03 55.27 23.81 53.42 26.55 C 58.43 25.49 63.80 23.20 68.88 24.91 C 67.07 26.97 65.26 29.03 63.74 31.31 C 66.75 31.20 69.77 31.15 72.78 31.29 C 73.07 32.69 73.34 34.10 73.58 35.51 C 71.61 36.03 68.86 34.69 67.47 36.54 C 70.86 35.92 74.52 35.93 76.85 38.91 C 75.60 39.54 74.35 40.17 73.08 40.77 C 74.24 40.98 75.39 41.18 76.55 41.38 C 77.22 43.59 79.09 48.16 75.72 48.66 C 78.04 50.82 77.21 54.31 78.26 57.07 C 84.41 53.65 90.77 50.49 97.58 48.57 C 97.78 52.59 92.98 53.81 90.72 56.46 C 92.12 55.84 93.51 55.19 94.89 54.53 C 95.88 55.18 96.87 55.83 97.87 56.47 C 101.52 55.90 105.59 54.63 109.05 56.54 C 107.56 58.08 106.11 59.73 106.71 62.02 C 105.92 62.50 105.12 62.96 104.33 63.43 C 106.73 63.60 109.07 64.18 111.33 65.02 C 110.57 67.87 107.40 67.50 105.10 67.63 C 106.38 68.05 107.65 68.49 108.93 68.95 C 108.69 69.97 108.47 71.01 108.25 72.04 C 108.72 71.06 109.18 70.08 109.62 69.09 C 110.38 69.45 111.89 70.16 112.65 70.51 C 112.76 72.30 112.82 74.08 112.86 75.87 C 108.74 75.78 104.90 74.23 101.00 73.09 C 104.32 75.36 107.99 77.26 110.70 80.29 C 110.83 83.38 106.41 82.56 105.40 80.59 C 103.46 76.26 98.79 74.30 94.90 72.10 C 97.01 74.42 99.78 75.90 102.48 77.41 C 105.02 78.67 105.07 81.84 106.01 84.17 C 105.21 84.78 104.40 85.38 103.59 85.96 C 103.77 87.25 105.26 88.83 103.98 89.96 C 101.69 91.35 99.67 88.92 97.90 87.74 C 97.66 88.23 97.19 89.21 96.95 89.71 C 90.82 88.63 84.77 86.81 79.63 83.14 C 79.18 84.09 78.72 85.04 78.25 85.98 C 78.70 87.01 79.15 88.03 79.61 89.05 C 77.86 90.85 76.21 96.06 73.14 93.90 C 73.76 92.91 74.70 92.12 74.82 90.87 C 72.84 91.22 73.04 93.52 72.46 94.99 C 71.75 94.67 70.35 94.03 69.65 93.71 C 71.36 94.92 73.19 95.94 75.00 96.99 C 73.25 99.00 70.62 99.92 68.88 101.97 C 69.05 102.56 69.39 103.76 69.56 104.35 C 67.30 105.20 65.02 106.68 62.57 105.63 C 60.15 110.58 55.06 113.44 52.13 118.07 C 50.69 117.52 49.27 116.94 47.86 116.36 C 48.79 118.06 49.86 119.76 49.90 121.78 C 47.71 121.86 46.59 119.86 45.37 118.40 C 44.84 118.34 43.79 118.23 43.27 118.17 C 44.10 121.26 45.22 124.27 45.80 127.42 C 41.76 126.45 40.99 121.45 38.85 118.37 C 37.80 118.99 36.76 119.60 35.70 120.19 C 35.61 118.13 35.80 116.08 35.93 114.03 C 35.52 114.03 34.70 114.04 34.29 114.04 C 34.00 117.24 35.35 120.91 33.21 123.66 C 32.03 122.45 30.81 121.27 29.56 120.14 C 29.92 116.68 29.79 113.23 27.98 110.17 C 27.78 114.27 27.78 120.04 22.67 120.95 C 21.69 116.43 23.78 112.03 23.23 107.53 C 21.97 109.32 20.89 111.24 19.82 113.16 C 18.96 113.22 17.24 113.33 16.38 113.39 C 17.17 111.28 18.22 109.28 19.41 107.36 C 21.65 103.72 21.99 99.36 22.95 95.30 C 24.01 93.63 25.60 92.33 26.45 90.52 C 28.88 85.48 31.95 80.54 32.66 74.89 C 33.14 72.14 30.78 70.29 29.39 68.26 C 25.85 69.18 22.12 69.13 18.89 67.28 C 17.06 69.04 16.70 71.58 16.07 73.92 C 12.57 71.92 12.43 66.72 14.70 63.77 C 16.95 60.55 20.04 57.94 23.65 56.35 C 24.87 57.27 26.19 58.04 27.58 58.68 C 28.57 57.76 29.57 56.86 30.59 55.98 C 30.34 51.31 29.98 46.66 29.65 42.00 C 29.35 39.35 26.95 36.99 28.05 34.23 C 29.20 32.61 30.74 31.32 32.01 29.81 C 30.14 30.43 28.29 31.12 26.38 31.63 C 26.78 29.84 27.62 28.13 27.62 26.26 C 26.91 27.94 26.53 29.74 26.01 31.48 C 27.20 33.30 27.54 35.46 27.75 37.58 C 27.12 37.61 25.88 37.66 25.26 37.69 C 24.16 35.48 23.04 33.22 20.76 32.00 C 19.57 26.11 19.54 20.08 19.15 14.10 C 19.63 10.76 19.89 7.39 19.89 4.01 C 21.28 3.77 22.04 4.28 22.15 5.53 C 22.81 10.73 23.49 15.93 23.80 21.17 C 26.17 16.21 25.55 10.61 26.48 5.32 M 94.94 59.99 C 97.76 59.82 100.45 58.88 103.08 57.92 C 100.28 57.56 96.74 57.43 94.94 59.99 M 22.36 59.81 C 21.47 60.32 20.39 62.45 21.89 62.85 C 23.73 63.08 24.77 58.80 22.36 59.81 M 56.86 73.09 C 56.34 74.72 56.88 75.27 58.48 74.74 C 59.00 73.09 58.46 72.54 56.86 73.09 M 94.60 76.41 C 95.93 79.97 99.90 81.31 102.90 83.15 C 100.75 80.25 97.70 78.19 94.60 76.41 M 93.09 79.71 C 94.49 83.27 97.94 85.22 101.02 87.14 C 98.88 84.19 96.15 81.69 93.09 79.71 M 42.43 113.35 C 40.99 113.50 40.73 116.20 42.29 116.35 C 43.63 116.12 44.04 113.41 42.43 113.35 Z" />
</g>
</svg>
