<?xml version="1.0" encoding="UTF-8" ?>
<!DOCTYPE svg PUBLIC "-//W3C//DTD SVG 1.1//EN" "http://www.w3.org/Graphics/SVG/1.1/DTD/svg11.dtd">
<svg width="128pt" height="128pt" viewBox="0 0 128 128" version="1.1" xmlns="http://www.w3.org/2000/svg">
<g id="#000000ff">
<path fill="#000000" opacity="1.00" d=" M 14.17 23.50 C 13.59 19.31 16.70 15.75 20.02 13.66 C 22.94 13.55 25.95 13.81 28.39 15.61 C 33.72 21.83 35.54 30.13 40.21 36.78 C 41.59 39.07 43.95 40.47 46.18 41.80 C 53.26 45.54 59.39 50.82 66.43 54.63 C 75.53 60.34 83.67 67.41 92.53 73.46 C 99.07 80.38 108.63 83.16 115.59 89.55 C 117.48 91.05 119.98 91.70 121.51 93.67 C 118.47 92.80 115.48 91.73 112.39 91.05 C 112.51 92.13 112.74 94.28 112.86 95.36 C 108.81 91.77 103.63 89.98 99.03 87.29 C 97.63 87.89 96.17 88.65 94.61 88.17 C 94.58 88.74 94.51 89.86 94.48 90.43 C 91.26 90.42 88.29 88.67 85.03 89.55 C 74.88 88.24 64.60 87.77 54.49 86.02 C 55.92 87.94 57.63 89.63 59.45 91.18 C 58.20 94.47 56.38 97.46 53.77 99.85 C 49.84 95.90 47.17 90.64 42.13 87.89 C 37.04 83.99 31.01 81.17 26.94 76.06 C 22.97 72.22 21.47 66.78 19.21 61.91 C 18.00 59.48 18.56 56.70 18.05 54.12 C 16.59 48.09 18.36 41.93 19.41 35.99 C 19.97 33.37 18.29 31.05 17.13 28.86 C 13.39 27.72 9.22 28.63 5.34 28.83 C 5.35 28.24 5.38 27.06 5.40 26.46 C 8.20 25.17 10.94 23.20 14.17 23.50 M 16.98 19.15 C 17.56 20.79 18.37 22.33 19.29 23.80 C 19.94 23.79 21.24 23.77 21.89 23.75 C 22.39 22.43 23.33 20.89 22.00 19.71 C 20.34 19.41 18.65 19.32 16.98 19.15 M 36.69 53.75 C 37.85 56.63 39.52 59.36 42.21 61.04 C 40.90 58.25 39.02 55.77 36.69 53.75 M 56.56 83.01 C 55.42 84.37 57.83 85.71 58.72 84.43 C 59.82 83.05 57.47 81.68 56.56 83.01 M 108.15 89.19 C 108.77 89.81 108.77 89.81 108.15 89.19 Z" />
<path fill="#000000" opacity="1.00" d=" M 49.42 104.66 C 50.01 102.51 50.99 100.49 52.22 98.64 C 53.32 100.87 52.63 103.31 52.39 105.65 C 55.16 105.56 57.92 105.20 60.62 104.58 C 60.48 105.31 60.18 106.78 60.04 107.51 C 62.66 107.52 65.30 107.48 67.87 108.03 C 66.06 110.74 62.32 109.29 59.63 109.95 C 61.11 112.05 63.36 112.70 65.83 112.36 C 65.77 112.73 65.65 113.47 65.59 113.84 C 61.86 112.63 57.34 113.09 54.25 110.37 C 51.18 110.99 48.25 108.96 45.21 109.97 C 39.74 110.76 34.22 112.05 28.66 111.22 C 32.67 108.63 37.74 109.25 42.22 108.15 C 39.54 104.80 35.07 107.99 31.54 107.59 C 31.46 107.12 31.31 106.20 31.24 105.73 C 33.17 105.54 35.06 105.14 36.97 104.79 C 41.11 105.06 45.40 106.35 49.42 104.66 Z" />
</g>
</svg>
