<?xml version="1.0" encoding="UTF-8" ?>
<!DOCTYPE svg PUBLIC "-//W3C//DTD SVG 1.1//EN" "http://www.w3.org/Graphics/SVG/1.1/DTD/svg11.dtd">
<svg width="180pt" height="180pt" viewBox="0 0 180 180" version="1.1" xmlns="http://www.w3.org/2000/svg">
<g id="#000000ff">
<path fill="#000000" opacity="1.00" d=" M 137.38 58.31 C 137.98 58.27 139.18 58.20 139.78 58.16 C 140.77 60.38 141.60 62.82 143.57 64.39 C 144.63 61.87 145.54 59.27 146.93 56.90 C 150.70 58.19 150.82 62.47 151.89 65.68 C 153.56 63.08 155.27 60.51 157.27 58.15 C 160.98 62.86 160.60 69.36 160.17 75.01 C 160.37 76.93 158.51 78.35 156.72 78.32 C 150.23 78.69 143.64 79.30 137.20 78.04 C 133.38 77.31 129.33 77.76 125.75 75.99 C 124.43 70.46 123.49 64.75 123.95 59.06 C 128.34 59.12 130.71 63.43 133.31 66.34 C 134.73 63.69 136.00 60.97 137.38 58.31 M 142.88 71.01 C 141.23 68.84 140.09 66.36 139.04 63.86 C 137.56 66.37 135.85 68.74 133.99 70.98 C 131.47 69.40 129.39 67.28 127.44 65.06 C 128.02 67.82 128.49 70.59 128.74 73.40 C 137.91 73.31 147.02 75.40 156.19 74.27 C 156.43 71.45 156.60 68.62 156.73 65.80 C 155.61 67.32 154.63 68.97 153.24 70.27 C 151.74 70.65 150.19 70.65 148.66 70.69 C 148.44 68.40 148.26 66.12 148.00 63.84 C 146.50 66.37 144.82 68.79 142.88 71.01 Z" />
<path fill="#000000" opacity="1.00" d=" M 68.42 78.47 C 73.69 77.04 79.13 76.09 84.62 76.24 C 90.44 76.78 96.27 75.94 102.07 75.52 C 104.26 75.50 105.84 77.15 107.70 78.03 C 112.74 79.90 117.00 83.28 122.23 84.77 C 123.43 84.21 124.62 83.64 125.84 83.10 C 126.66 84.10 127.51 85.08 128.39 86.03 C 130.81 86.47 133.31 86.51 135.67 87.29 C 139.44 88.42 143.87 88.28 146.89 91.16 C 148.44 92.36 147.58 94.45 147.69 96.09 C 145.79 95.70 144.60 94.19 143.22 92.99 C 141.16 91.81 138.82 91.26 136.46 91.12 C 138.30 93.71 141.48 94.96 143.47 97.46 C 140.23 97.70 136.97 97.38 133.74 97.74 C 133.32 96.16 132.90 94.58 132.46 93.01 C 129.58 93.88 126.85 96.65 123.68 95.42 C 122.29 95.08 120.98 94.51 119.64 94.01 C 120.13 91.66 120.93 89.40 121.99 87.25 C 120.11 88.56 118.24 89.90 116.34 91.19 C 116.44 89.37 116.58 87.55 116.78 85.74 C 116.01 87.61 115.10 89.43 114.02 91.15 C 112.99 90.41 111.19 89.94 111.69 88.29 C 113.06 86.98 114.39 85.62 115.19 83.88 C 113.26 83.67 111.26 84.06 109.37 83.58 C 106.16 81.83 102.88 79.52 99.06 79.69 C 93.64 79.74 88.11 79.25 82.83 80.75 C 79.84 80.63 76.80 79.98 73.85 80.83 C 68.36 81.50 63.98 85.12 58.86 86.87 C 57.07 87.28 55.91 88.75 54.56 89.86 C 56.67 92.64 55.18 96.27 54.70 99.37 C 58.33 95.39 59.73 89.99 63.05 85.79 C 64.99 85.50 66.96 85.37 68.93 85.34 C 67.83 86.50 66.59 87.50 65.34 88.48 C 65.34 89.10 65.34 90.34 65.34 90.96 C 68.56 89.57 72.00 88.74 75.07 87.01 C 76.83 88.55 77.86 90.57 77.98 92.93 C 79.80 91.23 81.64 89.55 83.73 88.19 C 83.08 90.02 82.41 91.86 81.45 93.55 C 78.91 95.60 75.89 97.32 74.31 100.31 C 72.45 103.28 71.34 106.61 70.00 109.82 C 71.85 111.38 73.81 112.81 75.69 114.34 C 75.20 116.42 74.79 118.60 76.43 120.31 C 74.05 120.41 71.53 120.01 69.71 118.33 C 66.74 115.59 63.36 113.31 59.83 111.33 C 59.69 109.96 59.52 108.58 59.34 107.21 C 57.20 107.52 55.13 108.15 53.03 108.59 C 43.24 108.80 33.50 107.73 23.81 106.57 C 24.25 105.82 25.13 104.32 25.57 103.57 C 24.76 104.58 23.98 105.62 23.22 106.67 C 19.51 106.59 15.79 106.71 12.09 106.38 C 9.26 105.25 6.40 104.23 3.58 103.08 C 5.16 102.54 6.74 101.99 8.31 101.42 C 9.06 102.23 9.81 103.05 10.56 103.88 C 10.50 101.46 10.70 99.04 10.89 96.63 C 9.15 98.68 7.02 100.16 4.18 99.66 C 4.82 98.48 5.58 97.40 6.46 96.42 C 11.16 94.42 15.86 91.53 21.19 92.33 C 25.05 91.41 28.91 90.16 32.95 90.08 C 33.40 90.50 34.29 91.35 34.74 91.78 C 34.09 95.46 33.47 99.18 33.60 102.93 C 36.70 104.54 41.08 104.86 44.39 103.18 C 44.16 99.24 44.64 95.30 45.46 91.45 C 44.03 91.56 42.60 91.72 41.17 91.89 C 44.42 94.91 40.53 98.93 37.72 100.55 C 38.09 96.64 36.45 93.04 36.06 89.21 C 37.66 89.44 39.26 89.68 40.86 89.91 C 42.73 88.59 44.12 86.38 46.33 85.70 C 51.85 85.98 56.76 82.97 62.17 82.38 C 64.94 82.39 65.81 78.96 68.42 78.47 M 47.58 89.81 C 47.71 94.31 46.84 98.71 46.30 103.15 C 48.39 102.54 50.46 101.90 52.53 101.25 C 51.90 97.06 52.13 92.83 52.81 88.67 C 51.11 89.26 49.38 89.76 47.58 89.81 M 67.22 95.18 C 65.14 99.48 64.06 104.29 61.13 108.16 C 64.95 110.36 68.33 113.23 71.82 115.92 C 71.47 116.54 70.77 117.78 70.42 118.40 C 71.25 117.61 72.07 116.80 72.88 116.00 C 70.73 113.68 68.01 111.81 66.48 108.97 C 65.69 100.76 76.41 96.80 75.48 88.61 C 74.10 92.32 69.96 92.89 67.22 95.18 M 123.40 90.28 C 122.34 90.54 120.96 91.00 121.00 92.35 C 125.37 93.11 130.07 92.94 134.15 91.06 C 131.12 88.69 126.84 89.04 123.40 90.28 M 63.92 91.37 C 63.46 92.72 63.95 93.21 65.39 92.84 C 65.85 91.49 65.36 91.00 63.92 91.37 M 27.98 103.42 C 29.19 103.56 30.39 103.70 31.61 103.84 C 31.25 100.25 31.30 96.65 31.50 93.06 C 27.16 94.64 29.27 99.96 27.98 103.42 M 18.29 95.27 C 18.95 97.85 18.26 100.50 18.14 103.10 C 20.98 103.43 23.80 102.85 26.61 102.52 C 26.14 99.83 26.18 97.08 26.85 94.42 C 25.38 94.93 23.92 95.47 22.41 95.85 C 23.59 97.96 24.58 103.03 20.97 102.83 C 19.01 101.12 20.76 97.81 20.68 95.43 C 19.88 95.38 19.08 95.32 18.29 95.27 M 13.27 103.37 C 16.56 102.47 15.10 98.20 15.61 95.71 C 12.65 96.95 13.76 100.84 13.27 103.37 M 61.50 102.31 C 60.39 102.31 59.19 104.82 60.90 104.74 C 62.05 104.69 63.36 102.22 61.50 102.31 Z" />
<path fill="#000000" opacity="1.00" d=" M 76.29 82.37 C 76.95 83.02 76.95 83.02 76.29 82.37 Z" />
<path fill="#000000" opacity="1.00" d=" M 86.81 84.66 C 87.77 84.63 88.73 84.61 89.70 84.59 C 89.54 85.90 89.34 87.20 89.13 88.50 C 88.18 87.89 87.23 87.29 86.29 86.68 C 86.42 86.17 86.68 85.16 86.81 84.66 Z" />
<path fill="#000000" opacity="1.00" d=" M 92.38 85.44 C 93.28 85.57 94.18 85.69 95.09 85.82 C 95.22 86.40 95.49 87.56 95.63 88.14 C 94.53 88.43 93.43 88.70 92.32 88.95 C 92.33 87.78 92.35 86.61 92.38 85.44 Z" />
<path fill="#000000" opacity="1.00" d=" M 98.12 86.12 C 98.84 86.15 100.26 86.19 100.97 86.21 C 100.93 86.82 100.84 88.04 100.80 88.64 C 100.19 88.65 98.98 88.66 98.38 88.66 C 98.32 88.03 98.19 86.76 98.12 86.12 Z" />
<path fill="#000000" opacity="1.00" d=" M 103.19 86.24 C 104.40 86.24 105.60 86.25 106.81 86.26 C 106.68 86.78 106.43 87.82 106.30 88.34 C 105.71 88.61 104.53 89.14 103.94 89.40 C 103.68 88.34 103.44 87.29 103.19 86.24 Z" />
<path fill="#000000" opacity="1.00" d=" M 107.94 93.14 C 108.82 91.69 109.68 90.23 110.61 88.81 C 110.35 92.26 110.93 95.78 109.96 99.15 C 109.26 101.73 109.72 104.42 109.79 107.05 C 111.16 105.68 112.43 104.20 113.75 102.78 C 113.42 103.34 112.76 104.47 112.43 105.03 C 113.63 106.37 114.78 107.77 116.09 109.02 C 119.39 110.67 123.26 110.06 126.74 111.05 C 136.67 114.37 147.14 115.37 157.45 116.84 C 157.43 116.25 157.40 115.08 157.39 114.49 C 153.47 113.71 149.40 113.92 145.66 112.37 C 140.93 112.23 135.71 110.49 133.49 105.97 C 132.77 110.01 128.15 110.28 125.01 109.09 C 119.83 108.42 116.54 103.56 115.38 98.84 C 115.83 99.90 116.24 100.97 116.65 102.04 C 121.60 104.50 126.89 106.70 132.54 105.73 C 130.31 101.53 125.14 102.77 121.44 101.09 C 122.55 97.11 126.84 98.72 129.79 99.24 C 135.38 100.16 137.56 106.23 142.36 108.55 C 145.92 108.97 149.56 108.95 153.01 110.03 C 157.77 111.50 162.50 113.48 167.56 113.54 C 167.73 113.90 168.07 114.63 168.24 114.99 C 167.86 116.15 167.18 117.11 166.21 117.89 C 164.33 116.91 162.40 116.00 160.43 115.21 C 161.33 117.42 164.12 117.14 165.97 118.05 C 164.77 119.61 163.20 121.12 161.05 120.66 C 149.35 119.67 137.57 118.34 126.33 114.70 C 122.43 112.77 117.87 113.56 113.93 114.94 C 110.53 111.62 105.52 110.97 101.10 112.33 C 105.14 115.88 109.82 118.60 113.61 122.41 C 115.71 123.11 117.98 123.17 119.93 124.32 C 117.01 126.32 113.40 125.54 110.09 125.74 C 105.29 125.90 101.16 123.16 96.69 121.91 C 94.58 119.99 91.93 118.97 89.04 119.37 C 88.39 118.31 87.74 117.25 87.11 116.18 C 85.41 116.76 83.69 117.26 81.95 117.68 C 80.68 116.55 79.45 115.39 78.27 114.17 C 78.99 112.57 79.68 110.96 80.42 109.38 C 79.52 108.82 78.63 108.27 77.74 107.72 C 79.41 105.31 81.34 103.11 83.22 100.87 C 83.78 101.51 84.35 102.15 84.91 102.80 C 89.50 100.37 92.98 95.60 98.09 94.46 C 98.64 94.79 99.73 95.45 100.27 95.78 C 97.18 98.93 93.05 100.78 89.98 103.95 C 88.30 105.70 86.21 106.93 84.25 108.32 C 83.36 109.85 82.02 111.79 82.47 113.57 C 84.30 114.56 86.20 115.48 88.16 116.19 C 90.94 116.48 93.97 115.92 96.50 117.36 C 100.24 119.82 104.48 121.43 108.64 123.02 C 106.95 120.76 104.01 119.96 102.25 117.78 C 101.28 116.74 100.57 115.41 99.34 114.65 C 97.19 113.75 94.51 113.92 92.83 112.11 C 90.98 110.18 87.96 109.29 87.31 106.43 C 89.40 106.33 91.50 106.39 93.58 106.62 C 96.01 104.41 98.75 102.59 101.66 101.06 C 101.59 99.35 101.61 97.64 101.79 95.93 C 103.01 97.36 104.19 98.83 105.38 100.28 C 106.25 98.50 107.18 96.76 108.03 94.97 C 107.10 95.25 105.23 95.80 104.30 96.08 C 106.35 94.48 105.46 91.78 105.71 89.58 C 106.46 90.76 107.20 91.95 107.94 93.14 M 105.20 103.72 C 103.86 104.16 104.16 106.60 105.75 105.74 C 107.29 105.46 106.72 102.88 105.20 103.72 M 102.20 105.26 C 102.87 105.90 102.87 105.90 102.20 105.26 M 93.76 111.75 C 95.03 110.97 96.27 110.13 97.48 109.26 C 98.09 110.06 98.70 110.86 99.32 111.66 C 99.94 111.07 100.56 110.48 101.18 109.90 C 100.38 109.02 99.59 108.14 98.81 107.24 C 96.85 108.41 94.52 109.38 93.76 111.75 Z" />
<path fill="#000000" opacity="1.00" d=" M 147.62 96.90 C 148.36 96.05 149.11 95.21 149.87 94.37 C 153.61 96.60 158.14 98.23 160.35 102.25 C 163.24 102.17 166.10 102.75 169.00 102.78 C 172.06 102.55 174.27 105.10 176.85 106.33 C 178.25 110.44 176.37 114.45 175.51 118.44 C 173.02 121.23 168.62 120.85 165.55 119.17 C 167.14 118.08 168.77 117.02 170.50 116.17 C 169.96 115.64 169.32 115.15 169.12 114.38 C 171.90 114.22 173.82 112.53 174.76 109.97 C 173.45 108.33 172.26 106.10 169.80 106.38 C 166.19 106.62 162.59 106.08 159.63 103.86 C 155.26 102.17 151.85 98.86 147.62 96.90 Z" />
<path fill="#000000" opacity="1.00" d=" M 2.42 100.18 C 4.05 99.25 4.20 101.83 2.91 102.25 C 1.31 103.15 0.98 100.51 2.42 100.18 Z" />
<path fill="#000000" opacity="1.00" d=" M 106.53 112.99 C 107.29 111.73 109.67 113.10 108.36 114.23 C 107.43 115.24 105.32 114.31 106.53 112.99 Z" />
</g>
</svg>
