<?xml version="1.0" encoding="UTF-8" ?>
<!DOCTYPE svg PUBLIC "-//W3C//DTD SVG 1.1//EN" "http://www.w3.org/Graphics/SVG/1.1/DTD/svg11.dtd">
<svg width="128pt" height="128pt" viewBox="0 0 128 128" version="1.1" xmlns="http://www.w3.org/2000/svg">
<g id="#000000ff">
<path fill="#000000" opacity="1.00" d=" M 49.27 3.19 C 49.93 3.20 51.24 3.21 51.89 3.22 C 51.37 10.26 51.54 17.51 49.14 24.25 C 52.82 20.48 57.93 18.45 61.27 14.32 C 63.96 11.26 66.55 8.10 68.42 4.46 C 68.73 3.21 71.47 2.07 71.62 3.93 C 70.53 10.39 64.78 14.26 61.52 19.54 C 60.14 22.25 55.72 21.50 55.11 24.67 C 59.51 23.47 64.07 23.36 68.55 22.65 C 71.12 20.80 73.29 18.47 75.88 16.65 C 76.45 17.04 77.60 17.82 78.17 18.21 C 76.45 21.72 71.86 22.66 70.24 26.18 C 74.46 27.62 78.93 27.32 83.31 27.58 C 83.40 28.14 83.60 29.24 83.69 29.80 C 80.50 30.96 77.25 29.39 74.00 29.59 C 70.97 30.14 68.96 27.48 67.01 25.65 C 61.03 25.95 55.26 27.92 49.24 27.39 C 42.89 31.07 36.54 34.78 29.88 37.90 C 29.27 37.45 28.67 37.00 28.07 36.54 C 27.50 37.17 26.93 37.80 26.35 38.42 C 25.13 38.04 23.91 37.71 22.67 37.43 C 20.86 32.49 18.31 27.59 18.49 22.19 C 18.56 20.13 19.92 18.46 21.72 17.58 C 21.43 19.76 20.93 21.90 20.45 24.04 C 22.66 26.45 23.46 29.64 24.56 32.63 C 25.58 32.61 26.60 32.58 27.63 32.56 C 29.57 29.03 29.59 24.95 29.85 21.04 C 30.35 19.32 31.46 18.85 33.17 19.64 C 32.01 24.81 34.05 30.76 30.34 35.13 C 32.86 32.66 36.34 31.16 38.12 27.97 C 39.32 25.53 39.64 22.80 40.21 20.18 C 40.12 18.63 41.35 17.88 42.78 18.07 C 42.89 21.75 42.77 25.47 41.37 28.92 C 44.76 28.85 45.34 25.08 46.40 22.59 C 48.95 16.41 47.79 9.58 49.27 3.19 Z" />
<path fill="#000000" opacity="1.00" d=" M 12.89 27.94 C 11.44 23.94 13.34 19.83 16.11 16.94 C 17.83 19.69 14.89 22.72 15.44 25.72 C 15.50 30.76 21.33 32.82 21.78 37.74 C 16.79 37.34 14.41 32.06 12.89 27.94 Z" />
<path fill="#000000" opacity="1.00" d=" M 0.00 48.47 C 6.73 43.71 14.58 41.13 22.13 38.00 C 25.02 39.60 24.25 42.66 23.44 45.25 C 24.52 43.53 25.60 41.81 26.84 40.21 C 32.23 45.44 39.75 47.08 46.87 48.42 C 53.42 47.14 59.96 44.94 66.71 45.32 C 73.71 47.46 80.39 51.65 87.95 51.25 C 90.64 51.12 93.34 51.27 96.03 51.33 C 98.72 51.49 101.08 48.94 103.80 49.84 C 110.81 52.27 116.97 56.51 123.55 59.86 C 122.68 63.30 121.60 66.69 119.95 69.85 C 120.71 68.78 121.45 67.69 122.18 66.60 C 123.37 66.84 124.57 67.08 125.77 67.32 C 125.59 68.27 125.42 69.23 125.26 70.18 C 123.14 70.93 120.99 71.61 118.80 72.11 C 116.72 78.33 115.28 85.04 116.81 91.56 C 119.32 100.30 115.89 109.22 115.68 118.05 C 115.81 120.73 114.70 123.19 113.73 125.63 C 113.11 125.71 111.86 125.88 111.23 125.97 C 111.92 118.57 112.96 111.21 114.36 103.92 C 112.37 99.07 111.66 93.70 108.82 89.21 C 106.78 85.88 105.75 81.68 102.23 79.49 C 104.95 86.17 106.25 93.33 108.86 100.05 C 106.23 104.54 106.02 109.81 105.28 114.83 C 104.07 117.70 102.65 120.50 100.91 123.09 C 99.06 117.79 101.47 112.33 102.46 107.11 C 102.76 104.86 103.89 102.87 104.96 100.91 C 103.46 97.22 101.38 93.81 99.90 90.11 C 98.27 86.40 97.43 82.28 94.75 79.10 C 90.40 80.64 85.86 81.52 81.32 82.30 C 76.04 83.35 70.61 81.73 65.39 83.29 C 65.24 88.17 66.02 93.12 64.89 97.94 C 64.12 102.67 61.39 106.92 61.37 111.80 C 60.72 116.49 62.42 121.13 61.58 125.81 C 58.87 125.57 56.29 124.70 53.71 123.94 C 54.65 121.84 56.06 119.97 56.85 117.82 C 58.21 111.77 57.45 105.52 57.43 99.38 C 57.80 94.52 56.23 89.77 54.69 85.24 C 51.26 81.03 46.88 77.70 43.55 73.41 C 43.20 71.59 43.47 69.74 43.55 67.91 C 42.65 69.28 41.77 70.66 40.86 72.02 C 40.01 71.70 39.16 71.38 38.31 71.07 C 39.22 69.03 40.13 66.99 40.92 64.90 C 38.92 67.01 37.36 69.47 35.54 71.71 C 33.69 72.25 31.91 70.71 30.20 70.16 C 33.27 64.67 37.25 59.70 39.62 53.82 C 35.70 58.93 32.86 64.73 29.23 70.02 C 27.02 68.18 24.83 66.31 22.95 64.13 C 25.07 60.60 27.61 57.35 30.06 54.06 C 26.42 57.32 23.36 61.15 19.76 64.47 C 18.96 63.54 17.84 62.80 17.38 61.63 C 16.56 59.66 18.67 58.28 19.57 56.78 C 19.05 56.39 18.54 56.00 18.03 55.60 C 17.34 58.26 15.60 60.42 13.96 62.55 C 13.32 62.22 12.05 61.55 11.41 61.22 C 12.72 59.02 14.05 56.81 14.97 54.42 C 11.08 53.22 6.90 53.17 3.03 54.49 C 2.02 53.53 1.00 52.59 0.00 51.62 L 0.00 48.47 M 48.37 50.00 C 48.40 52.36 48.43 54.71 48.29 57.06 C 50.72 55.78 52.80 53.68 53.16 50.84 C 51.92 51.69 51.42 53.10 50.81 54.40 C 49.25 53.27 50.22 50.70 48.37 50.00 M 71.22 51.00 C 70.18 52.92 74.26 54.38 74.63 52.31 C 74.21 51.09 72.33 49.93 71.22 51.00 M 106.36 55.30 C 105.57 56.59 107.29 59.36 108.79 58.13 C 109.79 56.74 107.84 54.47 106.36 55.30 M 115.22 60.23 C 115.82 60.82 115.82 60.82 115.22 60.23 M 105.44 68.20 C 105.41 68.63 105.35 69.50 105.32 69.93 C 108.26 72.51 108.49 65.39 105.44 68.20 M 50.16 74.94 C 51.33 75.95 52.53 76.95 54.02 77.43 C 53.83 76.70 53.46 75.25 53.27 74.52 C 52.23 74.66 51.20 74.79 50.16 74.94 Z" />
</g>
</svg>
