<?xml version="1.0" encoding="UTF-8" ?>
<!DOCTYPE svg PUBLIC "-//W3C//DTD SVG 1.1//EN" "http://www.w3.org/Graphics/SVG/1.1/DTD/svg11.dtd">
<svg width="128pt" height="128pt" viewBox="0 0 128 128" version="1.1" xmlns="http://www.w3.org/2000/svg">
<g id="#000000ff">
<path fill="#000000" opacity="1.00" d=" M 69.40 5.07 C 70.91 8.17 70.44 11.71 70.94 15.03 C 71.52 18.62 72.64 22.13 72.67 25.80 C 68.56 24.04 69.81 19.16 69.03 15.65 C 68.16 12.14 68.80 8.56 69.40 5.07 Z" />
<path fill="#000000" opacity="1.00" d=" M 63.58 6.23 C 65.36 11.32 66.54 16.62 68.46 21.65 C 70.21 23.91 71.48 26.68 70.62 29.58 C 71.44 29.36 72.26 29.15 73.08 28.95 C 73.54 31.66 74.05 34.87 72.21 37.20 C 68.97 41.45 68.33 47.11 68.58 52.30 C 69.39 50.43 69.55 48.35 70.34 46.48 C 71.31 44.99 72.54 43.62 72.93 41.83 C 73.61 42.36 74.97 43.42 75.64 43.95 C 75.46 42.18 75.32 40.40 75.22 38.62 C 76.65 40.49 77.24 42.79 77.97 44.98 C 79.45 42.38 78.13 39.43 78.16 36.65 C 79.34 38.16 80.26 39.84 81.32 41.43 C 81.56 39.41 81.35 37.28 82.18 35.37 C 82.69 37.27 83.04 39.23 83.83 41.04 C 84.94 38.66 84.27 35.06 86.89 33.64 C 86.68 35.63 86.27 37.59 86.01 39.58 C 87.33 37.58 88.21 35.30 89.94 33.59 C 89.43 36.30 88.37 38.86 87.93 41.58 C 89.64 39.70 90.22 37.00 92.34 35.48 C 91.60 39.86 88.12 43.34 88.26 47.91 C 87.16 47.28 86.06 46.64 84.97 46.00 C 81.00 49.77 77.81 54.25 74.00 58.17 C 77.93 57.72 81.44 55.26 85.47 55.57 C 87.92 55.65 90.37 55.02 92.81 55.33 C 95.34 56.44 98.04 56.96 100.79 57.18 C 98.75 59.80 96.12 61.82 93.79 64.14 C 92.42 67.16 91.23 70.44 88.55 72.58 C 85.92 74.87 82.20 75.68 80.29 78.81 C 81.96 78.40 83.60 77.85 85.29 77.52 C 80.71 83.21 74.22 86.70 68.01 90.29 C 64.47 90.82 61.03 91.77 57.58 92.71 C 57.77 93.69 57.95 94.68 58.13 95.67 C 56.59 96.75 55.04 97.85 53.19 98.35 C 53.20 96.58 54.44 95.60 55.81 94.76 C 55.24 93.55 54.68 92.33 54.13 91.12 C 53.25 92.97 53.17 95.38 51.54 96.76 C 50.25 98.11 48.45 96.73 47.03 96.43 C 48.58 94.88 50.22 93.39 51.36 91.50 C 49.25 91.16 47.13 90.89 45.01 90.62 C 44.80 89.95 44.39 88.60 44.18 87.93 C 45.32 87.25 46.47 86.58 47.62 85.92 C 46.67 84.85 45.74 83.78 44.82 82.69 C 41.69 84.14 38.55 88.78 34.92 86.21 C 35.67 85.15 36.42 84.08 37.16 83.01 C 36.07 83.81 35.01 84.66 33.89 85.43 C 31.73 85.16 29.60 84.63 27.45 84.29 C 27.32 83.53 27.18 82.77 27.05 82.00 C 25.22 81.76 23.48 81.18 22.06 79.96 C 27.16 78.96 32.22 77.77 37.25 76.45 C 40.56 76.21 43.37 74.41 46.26 73.00 C 49.05 72.64 51.93 72.31 54.11 70.32 C 55.07 70.81 56.05 71.29 57.03 71.76 C 54.86 70.04 52.04 68.93 50.62 66.43 C 49.49 64.34 48.15 62.37 46.46 60.69 C 47.08 59.83 47.68 58.96 48.27 58.07 C 46.95 57.40 45.63 56.73 44.29 56.11 C 44.92 54.04 45.49 51.93 46.61 50.06 C 45.78 50.61 44.95 51.15 44.12 51.70 C 42.51 49.66 40.70 47.79 39.05 45.80 C 41.92 46.51 44.52 47.98 47.33 48.90 C 45.41 46.58 42.50 45.54 40.09 43.85 C 40.94 43.50 42.65 42.79 43.51 42.44 C 42.56 41.55 41.61 40.67 40.73 39.71 C 44.36 40.88 47.90 42.28 51.59 43.26 C 48.46 39.92 43.76 38.92 40.57 35.78 C 44.01 36.25 46.97 38.26 50.34 39.01 C 47.69 36.68 44.27 35.39 41.82 32.80 C 46.24 33.60 49.56 37.06 53.75 38.56 C 53.13 37.05 52.75 35.45 52.03 33.98 C 49.82 31.93 47.32 30.22 44.96 28.34 C 45.61 27.37 46.25 26.41 46.89 25.44 C 49.62 27.79 52.40 30.20 55.68 31.77 C 53.18 27.60 48.59 25.32 45.95 21.28 C 49.71 21.77 52.00 25.06 54.94 27.08 C 56.58 28.13 58.27 29.12 59.96 30.11 C 56.62 27.43 53.77 24.23 51.17 20.85 C 49.31 18.24 45.71 17.11 44.83 13.81 C 50.16 16.92 54.69 21.29 60.13 24.25 C 60.19 23.17 60.25 22.09 60.29 21.01 C 56.67 18.68 54.66 14.69 52.32 11.21 C 53.44 10.94 54.56 10.66 55.68 10.37 C 60.45 14.36 62.88 20.09 65.22 25.68 C 65.36 23.21 65.98 20.45 64.52 18.24 C 62.68 15.23 61.87 11.81 61.20 8.39 C 61.80 7.85 62.99 6.77 63.58 6.23 M 50.20 30.20 C 50.82 30.82 50.82 30.82 50.20 30.20 M 85.08 60.19 C 83.59 61.53 85.96 63.70 87.29 62.38 C 88.72 61.08 86.40 58.79 85.08 60.19 Z" />
<path fill="#000000" opacity="1.00" d=" M 42.57 30.49 C 46.12 31.72 50.62 32.94 52.55 36.31 C 49.12 34.62 45.18 33.44 42.57 30.49 Z" />
</g>
</svg>
