<?xml version="1.0" encoding="UTF-8" ?>
<!DOCTYPE svg PUBLIC "-//W3C//DTD SVG 1.1//EN" "http://www.w3.org/Graphics/SVG/1.1/DTD/svg11.dtd">
<svg width="180pt" height="180pt" viewBox="0 0 180 180" version="1.1" xmlns="http://www.w3.org/2000/svg">
<g id="#000000ff">
<path fill="#000000" opacity="1.00" d=" M 79.57 18.54 C 81.64 17.52 82.97 19.96 83.43 21.61 C 85.00 27.70 86.21 33.93 86.49 40.22 C 77.77 42.43 68.76 43.04 60.06 45.20 C 59.30 43.84 58.41 42.50 58.29 40.90 C 57.49 35.26 56.14 29.69 55.68 24.00 C 55.30 22.27 56.98 21.18 57.89 19.99 C 61.23 22.81 63.37 26.65 66.03 30.05 C 66.89 26.68 66.77 23.02 68.30 19.84 C 70.06 18.77 71.47 20.39 72.74 21.42 C 74.04 23.94 74.73 26.72 75.65 29.40 C 77.24 25.89 77.02 21.53 79.57 18.54 M 59.55 27.69 C 61.26 31.76 61.86 36.16 62.30 40.51 C 68.90 39.38 75.39 37.63 81.98 36.39 C 81.47 33.41 80.99 30.43 80.45 27.46 C 79.17 30.48 77.91 33.65 75.11 35.61 C 72.17 33.92 71.58 30.60 70.78 27.60 C 69.69 30.37 69.07 33.65 66.06 35.00 C 63.46 32.97 61.24 30.51 59.55 27.69 Z" />
<path fill="#000000" opacity="1.00" d=" M 121.45 35.44 C 129.05 30.08 136.06 23.88 144.00 19.02 C 144.58 19.37 145.74 20.07 146.32 20.42 C 143.80 23.31 140.42 25.22 137.61 27.78 C 136.06 30.09 135.04 32.73 134.21 35.38 C 130.64 38.53 126.49 41.01 122.97 44.22 C 126.34 42.49 129.29 40.03 132.67 38.29 C 137.11 35.97 140.93 31.88 146.22 31.67 C 145.76 35.10 142.07 36.05 139.66 37.83 C 127.70 46.35 116.11 55.38 104.93 64.92 C 103.33 65.83 103.46 67.79 103.14 69.35 C 108.38 70.62 113.53 72.49 119.02 72.26 C 127.71 72.85 133.64 79.99 138.74 86.27 C 139.54 87.64 140.06 89.16 140.73 90.60 C 140.08 90.67 138.78 90.81 138.13 90.88 C 136.43 88.28 134.17 86.14 131.93 84.03 C 133.47 86.39 134.98 88.78 135.47 91.61 C 137.11 93.09 139.84 92.53 141.95 92.74 C 143.18 95.49 144.23 98.46 146.24 100.75 C 153.34 106.23 162.17 109.13 168.93 115.02 C 167.32 117.36 164.93 116.40 163.08 115.05 C 162.79 115.36 162.20 115.97 161.90 116.27 C 163.97 116.99 165.94 117.99 167.66 119.36 C 171.05 122.04 174.89 124.08 178.38 126.62 C 178.65 127.32 179.19 128.71 179.46 129.41 C 175.86 130.07 173.37 127.06 170.46 125.57 C 165.50 122.98 161.01 119.61 156.15 116.85 C 154.70 116.10 153.60 114.85 152.95 113.37 C 152.45 113.38 151.45 113.39 150.95 113.40 C 152.16 116.20 154.11 118.65 156.54 120.49 C 161.51 124.14 165.35 129.08 170.30 132.76 C 173.47 135.02 176.49 137.66 178.45 141.08 C 174.42 143.38 171.75 138.88 169.95 135.94 C 165.12 134.57 162.40 130.24 158.41 127.58 C 155.55 125.38 154.24 121.79 151.47 119.49 C 147.23 116.26 146.24 109.97 141.15 107.67 C 137.63 105.11 131.76 104.27 131.42 99.01 C 130.99 100.00 130.56 100.99 130.13 101.98 C 128.92 100.95 127.67 99.98 126.39 99.04 C 127.32 98.88 129.18 98.57 130.10 98.41 C 126.47 96.70 123.06 94.56 119.42 92.88 C 121.45 95.58 124.99 96.33 127.27 98.69 C 124.60 98.59 122.22 97.35 120.01 95.97 C 117.51 94.33 114.54 93.53 112.24 91.59 C 114.53 91.70 116.78 92.20 119.07 92.36 C 113.51 89.23 107.57 86.75 102.19 83.27 C 102.30 84.62 102.38 85.97 102.45 87.33 C 97.46 84.74 92.32 82.53 87.21 80.20 C 81.26 85.64 75.41 91.18 69.63 96.78 C 71.85 98.08 73.79 99.75 75.30 101.83 C 74.36 102.76 73.42 103.69 72.44 104.58 C 71.85 102.69 71.40 100.76 71.40 98.77 C 70.60 99.26 69.81 99.74 69.02 100.23 C 68.67 99.75 67.98 98.78 67.64 98.29 C 66.41 99.66 65.08 100.94 63.70 102.16 C 64.18 104.69 66.25 107.06 65.13 109.70 C 63.71 107.90 62.50 105.87 60.64 104.46 C 60.60 105.98 60.58 107.50 60.60 109.02 C 59.29 108.59 57.98 108.19 56.65 107.81 C 57.14 109.13 57.65 110.44 58.16 111.75 C 57.18 111.31 56.33 110.42 55.21 110.37 C 53.44 111.82 51.56 113.32 50.48 115.38 C 50.55 119.26 51.09 123.12 51.58 126.96 C 52.27 126.81 53.65 126.49 54.34 126.34 C 55.14 121.66 54.00 116.90 54.60 112.20 C 55.31 112.50 56.01 112.80 56.71 113.10 C 56.21 113.59 55.20 114.57 54.70 115.06 C 55.88 115.32 57.07 115.58 58.26 115.85 C 58.40 114.01 58.88 112.22 59.39 110.45 C 60.13 110.34 61.62 110.13 62.37 110.03 C 62.29 111.53 62.23 113.04 62.18 114.56 C 64.90 112.73 66.60 109.69 67.88 106.74 C 68.43 106.68 69.52 106.56 70.07 106.49 C 68.77 104.85 67.32 103.34 65.88 101.83 C 69.36 103.31 71.85 106.18 74.81 108.41 C 74.56 109.31 74.32 110.21 74.08 111.11 C 74.58 110.67 75.57 109.79 76.06 109.35 C 79.11 111.84 82.77 109.94 85.03 107.42 C 83.19 107.46 81.43 107.95 79.70 108.52 C 77.32 107.91 75.51 105.96 74.21 103.97 C 74.57 103.46 75.27 102.45 75.62 101.94 C 77.15 102.86 78.54 104.05 80.23 104.69 C 82.86 104.88 85.19 103.64 87.51 102.57 C 86.29 103.58 84.95 104.41 83.62 105.27 C 84.75 106.60 85.88 107.94 86.96 109.31 C 88.75 108.16 90.49 106.92 92.21 105.67 C 92.42 106.11 92.84 106.97 93.05 107.40 C 94.23 105.81 95.21 103.82 97.17 103.07 C 98.44 103.31 99.68 103.88 100.17 105.17 C 102.01 105.36 103.85 105.58 105.67 105.92 C 106.07 105.55 106.86 104.81 107.26 104.44 C 106.17 104.53 105.07 104.64 103.98 104.75 C 103.69 103.34 103.39 101.93 103.11 100.51 C 105.25 101.50 107.24 102.75 109.15 104.12 C 109.91 102.64 110.66 101.15 111.64 99.79 C 111.53 100.69 111.32 102.50 111.21 103.40 C 114.27 101.84 117.20 99.65 120.66 99.15 C 119.99 105.45 118.43 111.67 118.20 118.02 C 117.98 122.08 119.98 125.76 122.42 128.85 C 123.35 128.80 124.28 128.74 125.21 128.67 C 128.25 133.52 131.99 138.06 136.59 141.50 C 132.60 135.43 128.97 128.50 129.50 121.01 C 130.29 116.58 131.20 112.17 132.55 107.88 C 133.57 107.43 134.58 106.96 135.59 106.47 C 135.36 108.51 134.10 110.66 135.44 112.58 C 136.21 110.98 136.93 109.35 137.71 107.76 C 137.46 110.47 136.96 113.26 137.73 115.94 C 138.97 116.79 140.31 117.47 141.74 117.99 C 141.17 115.44 139.94 112.91 140.86 110.28 C 144.27 113.46 142.11 120.01 147.23 121.86 C 147.40 124.22 147.62 126.58 147.36 128.94 C 148.74 128.13 150.17 127.41 151.65 126.78 C 151.34 130.61 151.08 134.73 153.07 138.19 C 153.67 135.63 153.97 133.01 154.61 130.46 C 158.59 132.90 156.60 137.87 158.87 141.36 C 160.12 140.87 161.38 140.39 162.65 139.93 C 164.60 141.47 166.67 142.85 168.74 144.25 C 169.41 143.40 170.10 142.55 170.79 141.71 C 173.25 143.36 177.36 143.44 178.01 146.91 C 175.31 147.81 172.46 146.94 169.73 147.62 C 167.50 148.26 165.73 146.46 163.92 145.52 C 163.37 146.34 162.82 147.16 162.28 147.99 C 156.26 146.80 149.75 145.50 145.12 141.16 C 144.46 141.80 143.80 142.45 143.14 143.10 C 142.00 142.39 140.86 141.68 139.71 141.02 C 140.40 143.36 142.31 145.51 141.50 148.08 C 140.57 149.49 139.40 150.71 138.37 152.04 C 139.23 154.11 140.13 156.16 140.90 158.27 C 139.43 156.77 138.01 155.22 136.50 153.76 C 136.55 155.49 136.60 157.21 136.65 158.94 C 136.02 158.81 134.76 158.56 134.13 158.43 C 132.54 152.00 131.07 145.33 126.92 139.94 C 127.49 141.62 128.18 143.25 128.85 144.90 C 128.01 144.81 126.34 144.64 125.51 144.56 C 127.09 146.15 128.62 147.80 130.10 149.49 C 129.04 150.24 127.98 150.99 126.93 151.75 C 128.17 153.20 129.52 154.62 130.28 156.40 C 130.61 159.21 130.45 162.06 130.80 164.87 C 128.25 165.86 125.81 167.19 123.15 167.90 C 122.18 167.35 121.24 166.75 120.34 166.10 C 122.37 162.78 125.64 160.67 129.42 159.89 C 127.70 159.26 126.10 158.38 124.65 157.27 C 125.46 156.22 126.26 155.16 127.05 154.09 C 125.18 152.06 124.41 149.39 122.99 147.10 C 120.13 144.54 116.99 142.30 113.84 140.10 C 109.79 137.20 106.66 133.20 102.53 130.40 C 101.15 129.41 100.32 127.88 99.75 126.33 C 98.36 122.63 96.74 118.99 96.07 115.08 C 93.01 115.47 89.93 115.61 86.85 115.63 C 89.09 117.36 90.17 119.94 91.07 122.53 C 90.38 122.56 88.99 122.63 88.30 122.67 C 88.08 122.29 87.64 121.53 87.42 121.15 C 82.60 122.30 78.16 119.30 73.66 117.98 C 73.67 118.66 73.68 120.02 73.68 120.70 C 70.36 120.02 67.29 118.63 64.69 116.44 C 64.57 119.17 63.37 121.55 61.84 123.75 C 60.63 126.56 59.45 129.40 58.29 132.23 C 57.01 136.95 56.63 141.85 56.22 146.71 C 55.49 147.87 54.64 148.95 53.82 150.06 C 54.83 154.94 54.47 160.07 53.59 164.93 C 53.05 165.21 51.97 165.78 51.43 166.07 C 51.10 162.32 51.65 158.48 50.68 154.81 C 50.01 158.08 50.76 161.63 48.96 164.62 C 47.85 163.23 46.83 161.78 45.88 160.28 C 45.92 162.32 45.87 164.41 44.30 165.93 C 45.93 165.66 47.57 165.53 49.22 165.69 C 48.60 167.21 47.75 168.66 46.02 169.04 C 43.52 170.72 40.99 168.48 38.61 167.71 C 39.52 166.41 40.51 165.15 41.51 163.91 C 41.05 162.53 40.57 161.16 40.08 159.80 C 42.18 158.70 44.43 157.98 46.70 157.34 C 46.10 150.56 47.16 143.76 46.49 136.98 C 45.96 131.41 47.16 125.90 47.22 120.35 C 46.29 120.57 45.35 120.78 44.41 120.98 C 45.01 121.32 46.22 122.01 46.82 122.35 C 44.12 125.84 44.63 130.48 43.55 134.56 C 42.29 140.22 44.75 146.38 42.10 151.74 C 41.05 150.89 40.03 150.02 39.00 149.15 C 38.79 149.43 38.36 149.99 38.14 150.28 C 38.84 150.48 40.23 150.89 40.92 151.09 C 40.74 152.96 40.54 154.84 40.19 156.69 C 38.49 156.06 36.81 155.40 35.09 154.81 C 35.75 156.14 36.54 157.42 36.93 158.86 C 35.26 159.67 33.25 161.46 31.45 159.98 C 31.24 157.80 31.62 155.61 31.93 153.46 C 33.54 153.33 35.16 153.24 36.78 153.17 C 35.85 147.02 36.46 140.76 35.98 134.58 C 35.90 133.50 36.58 132.56 36.88 131.56 C 35.62 130.67 34.34 129.83 33.06 128.98 C 33.53 127.93 34.00 126.87 34.48 125.82 C 33.63 127.00 32.80 128.20 31.94 129.38 C 32.61 129.58 33.95 129.97 34.62 130.17 C 31.09 133.27 27.58 136.41 23.98 139.43 C 21.96 138.66 19.90 137.97 17.86 137.26 C 21.95 130.39 28.54 125.37 32.99 118.81 C 32.40 115.76 31.13 112.75 31.89 109.59 C 32.48 110.11 33.67 111.16 34.27 111.68 C 34.46 110.87 34.65 110.06 34.84 109.25 C 32.93 108.55 30.91 108.42 28.89 108.45 C 28.48 106.38 28.84 104.06 27.63 102.23 C 27.03 100.80 25.46 99.19 26.59 97.63 C 27.31 96.69 28.07 95.77 28.86 94.89 C 26.99 93.12 25.50 95.70 23.54 95.38 C 23.37 93.93 23.53 92.47 23.70 91.03 C 22.90 90.70 22.10 90.37 21.30 90.03 C 22.25 87.53 23.71 85.33 26.19 84.12 C 25.35 84.22 23.69 84.42 22.85 84.53 C 23.22 83.42 23.59 82.31 23.96 81.20 C 23.50 81.57 22.58 82.32 22.12 82.69 C 21.00 80.98 18.98 79.42 19.68 77.13 C 20.16 74.97 18.71 73.12 18.42 71.04 C 19.54 69.29 20.73 67.59 21.87 65.84 C 22.93 67.18 23.95 68.56 24.92 69.97 C 25.66 69.19 26.42 68.41 27.16 67.64 C 26.36 67.31 24.74 66.65 23.93 66.32 C 24.40 65.72 25.33 64.53 25.79 63.93 C 24.14 64.48 22.47 64.98 20.76 65.33 C 20.54 66.17 20.11 67.84 19.90 68.68 C 18.95 68.09 18.02 67.48 17.10 66.85 C 17.39 68.18 17.63 69.52 17.81 70.87 C 16.51 69.81 15.50 68.47 14.62 67.06 C 16.19 66.28 17.82 65.63 19.47 65.00 C 15.86 64.10 12.17 63.47 8.44 63.55 C 7.49 61.40 6.57 59.24 5.69 57.07 C 5.78 55.57 7.51 55.33 8.49 54.55 C 10.86 52.89 12.87 50.78 15.01 48.84 C 13.70 47.60 12.84 45.86 11.33 44.87 C 7.84 43.57 4.37 42.23 0.87 40.96 C 0.97 40.24 1.17 38.80 1.28 38.08 C 4.47 38.14 7.17 40.05 10.20 40.82 C 13.08 41.60 15.84 42.75 18.59 43.92 C 17.78 38.97 18.71 33.98 18.64 29.01 C 19.64 28.66 20.64 28.32 21.64 27.99 C 23.47 32.09 25.76 36.38 30.53 37.47 C 32.24 33.86 35.24 31.19 37.64 28.07 C 38.91 26.62 40.94 27.84 42.52 27.92 C 43.22 32.57 44.44 37.16 44.74 41.87 C 44.58 44.00 43.38 46.73 45.61 48.24 C 48.42 50.35 50.28 53.20 51.49 56.46 C 55.83 59.19 60.98 60.12 65.45 62.61 C 69.79 64.19 73.99 67.28 78.81 66.48 C 79.60 66.91 80.36 67.39 81.11 67.90 C 83.54 66.40 86.39 65.53 88.42 63.42 C 98.94 53.53 110.03 44.26 121.45 35.44 M 32.38 42.98 C 29.66 42.57 27.27 41.18 24.86 39.95 C 24.74 42.08 24.09 44.09 23.34 46.07 C 30.63 46.25 36.14 52.35 43.35 52.51 C 42.36 50.30 40.37 48.37 40.51 45.79 C 40.71 41.38 39.25 37.14 39.28 32.74 C 36.29 35.63 34.06 39.18 32.38 42.98 M 18.45 51.22 C 16.95 52.56 15.31 53.73 13.88 55.14 C 13.02 56.81 12.52 58.64 11.91 60.40 C 16.67 60.96 21.25 63.69 26.10 62.06 C 27.12 64.29 28.36 66.47 30.63 67.62 C 30.37 70.50 30.53 73.43 31.14 76.26 C 31.45 73.83 31.62 71.36 31.27 68.93 C 32.49 67.80 33.37 66.39 34.02 64.87 C 31.75 62.57 31.32 59.02 28.22 57.43 C 30.01 57.36 31.81 57.42 33.61 57.36 C 30.18 55.75 26.51 54.70 23.26 52.71 C 21.84 51.71 20.12 51.49 18.45 51.22 M 33.50 56.74 C 34.87 57.90 36.35 58.93 37.79 60.00 C 36.23 62.07 35.30 64.50 34.18 66.81 C 34.81 66.78 36.08 66.73 36.71 66.70 C 37.61 68.99 37.87 71.91 40.46 72.96 C 40.38 74.07 40.31 75.19 40.20 76.31 C 40.82 76.49 42.04 76.87 42.66 77.06 C 41.39 77.41 40.08 77.56 38.77 77.66 C 38.60 76.39 38.44 75.12 38.30 73.85 C 37.20 73.56 36.10 73.27 35.00 72.97 C 35.47 72.62 36.41 71.92 36.88 71.58 C 35.63 70.23 34.60 68.65 33.03 67.64 C 33.21 71.60 35.41 74.98 36.84 78.56 C 36.09 80.48 36.41 82.52 36.54 84.51 C 35.51 82.66 34.64 80.73 33.57 78.89 C 33.31 82.91 34.28 86.86 34.34 90.86 C 35.21 89.51 36.00 88.11 36.84 86.74 C 37.28 88.85 37.70 90.97 37.97 93.11 C 38.60 91.78 39.21 90.43 40.00 89.18 C 42.31 90.51 42.57 93.63 42.62 96.06 C 45.62 97.39 46.06 101.29 47.56 103.90 C 49.21 103.14 50.58 101.97 51.61 100.49 C 58.64 93.44 66.05 86.66 72.03 78.66 C 70.53 79.42 69.10 80.33 67.65 81.17 C 67.64 79.82 67.72 78.47 67.82 77.12 C 66.96 76.63 66.10 76.13 65.25 75.63 C 66.01 74.77 66.75 73.89 67.48 73.00 C 64.73 73.45 61.97 73.96 59.18 73.89 C 54.78 70.88 49.99 68.49 45.78 65.18 C 47.15 65.52 48.53 65.86 49.90 66.21 C 48.91 62.99 45.88 61.19 42.85 60.23 C 39.65 59.29 36.73 57.59 33.50 56.74 M 106.98 57.41 C 105.53 60.39 110.42 57.31 106.98 57.41 M 9.30 59.23 C 9.90 59.81 9.90 59.81 9.30 59.23 M 92.52 69.56 C 97.61 67.67 101.74 63.92 105.41 60.05 C 99.71 60.70 95.96 65.47 92.52 69.56 M 21.29 71.03 C 19.82 72.25 21.89 75.00 23.10 73.06 C 24.74 71.67 22.76 69.21 21.29 71.03 M 102.23 72.41 C 102.59 75.79 105.14 70.76 102.23 72.41 M 95.45 74.54 C 98.67 78.17 103.92 78.88 107.76 81.78 C 107.44 79.57 107.61 77.38 108.59 75.34 C 111.31 76.38 114.06 79.51 117.14 77.97 C 114.48 76.61 112.13 74.05 108.94 74.36 C 104.44 74.62 99.95 74.68 95.45 74.54 M 34.07 76.37 C 33.15 77.58 33.38 78.27 34.75 78.44 C 35.67 77.22 35.44 76.53 34.07 76.37 M 91.28 78.34 C 90.53 80.03 93.33 81.40 94.66 80.71 C 95.22 79.18 92.57 77.51 91.28 78.34 M 117.14 77.97 C 117.24 78.35 117.46 79.10 117.57 79.48 C 120.59 82.06 124.33 83.76 126.96 86.84 C 124.84 86.70 122.71 86.59 120.59 86.62 C 123.04 89.71 127.12 90.46 130.28 92.57 C 133.33 94.05 136.32 96.04 139.76 96.44 C 133.97 92.93 130.47 86.91 124.99 83.04 C 122.41 81.31 120.17 78.88 117.14 77.97 M 124.49 77.84 C 126.24 80.43 128.73 82.35 131.45 83.83 C 129.66 81.28 127.57 78.81 124.49 77.84 M 95.20 79.99 C 95.80 83.11 99.44 83.46 101.88 84.39 C 100.18 82.22 97.70 80.98 95.20 79.99 M 27.31 91.50 C 26.99 92.98 27.47 93.51 28.77 93.09 C 29.11 91.62 28.63 91.09 27.31 91.50 M 35.39 91.16 C 35.39 94.54 38.37 89.67 35.39 91.16 M 29.92 93.32 C 28.63 94.32 30.52 96.34 31.73 95.45 C 33.02 94.38 31.18 92.44 29.92 93.32 M 33.19 100.23 C 33.82 100.85 33.82 100.85 33.19 100.23 M 39.34 100.10 C 39.70 102.38 40.43 104.59 40.63 106.89 C 39.65 109.01 37.41 110.26 35.86 111.97 C 36.47 112.83 37.05 113.71 37.62 114.60 C 40.23 110.87 43.88 108.14 47.14 105.03 C 44.60 103.29 42.17 101.37 39.34 100.10 M 31.93 105.63 C 32.52 105.53 33.70 105.34 34.29 105.25 C 34.42 104.01 34.54 102.77 34.65 101.53 C 33.71 102.87 32.83 104.26 31.93 105.63 M 70.25 108.94 C 70.41 112.36 73.12 107.27 70.25 108.94 M 90.39 108.76 C 90.01 110.16 90.51 110.66 91.90 110.24 C 92.28 108.85 91.78 108.36 90.39 108.76 M 67.33 110.30 C 66.06 110.94 66.95 113.48 68.27 112.24 C 69.30 111.51 68.73 108.95 67.33 110.30 M 83.33 110.14 C 84.00 110.80 84.00 110.80 83.33 110.14 M 155.18 111.21 C 155.55 114.59 157.96 109.45 155.18 111.21 M 161.20 114.28 C 161.83 114.92 161.83 114.92 161.20 114.28 M 62.29 116.23 C 62.89 116.83 62.89 116.83 62.29 116.23 M 42.23 116.94 C 42.35 120.33 45.12 115.33 42.23 116.94 M 133.78 118.12 C 133.04 124.22 133.14 130.93 136.99 136.06 C 137.66 137.23 139.09 136.56 140.12 136.54 C 137.50 133.35 136.87 129.12 136.30 125.16 C 137.86 122.51 137.67 119.62 136.78 116.75 C 135.76 117.18 134.76 117.64 133.78 118.12 M 57.25 118.26 C 57.85 118.85 57.85 118.85 57.25 118.26 M 141.87 122.45 C 141.34 124.12 141.88 124.66 143.46 124.08 C 143.99 122.42 143.46 121.87 141.87 122.45 M 53.15 132.29 C 56.34 130.66 56.68 126.57 56.91 123.41 C 54.32 125.58 53.98 129.22 53.15 132.29 M 51.11 144.13 C 51.10 138.73 52.15 133.25 51.13 127.90 C 48.52 132.97 50.11 138.85 51.11 144.13 M 113.61 128.73 C 113.89 129.89 114.30 131.01 114.84 132.07 C 116.70 132.64 118.58 133.11 120.47 133.60 C 118.09 132.10 115.90 130.35 113.61 128.73 M 118.25 135.22 C 116.76 138.18 121.65 135.22 118.25 135.22 M 137.15 152.22 C 137.81 152.87 137.81 152.87 137.15 152.22 Z" />
<path fill="#000000" opacity="1.00" d=" M 5.10 44.90 C 8.30 45.92 11.96 46.73 14.11 49.56 C 10.92 48.50 6.78 48.32 5.10 44.90 Z" />
<path fill="#000000" opacity="1.00" d=" M 42.16 66.22 C 42.80 66.85 42.80 66.85 42.16 66.22 Z" />
<path fill="#000000" opacity="1.00" d=" M 42.20 69.86 C 42.37 69.11 42.71 67.62 42.88 66.87 C 43.88 68.29 44.83 69.74 45.80 71.19 C 44.60 70.75 43.39 70.32 42.20 69.86 Z" />
<path fill="#000000" opacity="1.00" d=" M 49.55 81.35 C 52.71 80.09 55.85 83.22 58.56 84.64 C 58.60 85.66 58.63 86.69 58.66 87.72 C 55.27 86.18 51.77 84.45 49.55 81.35 Z" />
<path fill="#000000" opacity="1.00" d=" M 103.96 86.14 C 107.30 86.44 102.34 89.13 103.96 86.14 Z" />
<path fill="#000000" opacity="1.00" d=" M 105.22 87.13 C 107.92 87.25 110.12 88.89 111.65 91.00 C 109.14 90.54 106.07 89.95 105.22 87.13 Z" />
<path fill="#000000" opacity="1.00" d=" M 140.55 150.86 C 142.36 149.26 143.76 152.89 141.93 153.67 C 140.62 153.77 139.85 151.84 140.55 150.86 Z" />
<path fill="#000000" opacity="1.00" d=" M 136.41 161.71 C 137.53 161.77 138.64 161.82 139.76 161.88 C 138.04 164.72 137.22 168.75 133.66 169.83 C 133.05 168.85 132.44 167.88 131.84 166.90 C 133.39 166.28 134.96 165.68 136.54 165.14 C 136.49 163.99 136.45 162.85 136.41 161.71 Z" />
</g>
</svg>
