<?xml version="1.0" encoding="UTF-8" ?>
<!DOCTYPE svg PUBLIC "-//W3C//DTD SVG 1.1//EN" "http://www.w3.org/Graphics/SVG/1.1/DTD/svg11.dtd">
<svg width="200pt" height="200pt" viewBox="0 0 200 200" version="1.1" xmlns="http://www.w3.org/2000/svg">
<g id="#000000ff">
<path fill="#000000" opacity="1.00" d=" M 143.87 60.05 C 147.69 59.94 148.81 63.72 150.45 66.40 C 151.73 64.90 152.61 63.12 153.57 61.41 C 155.15 61.33 156.74 61.26 158.33 61.24 C 158.47 64.20 159.65 66.89 161.74 68.99 C 161.30 68.05 160.86 67.10 160.42 66.16 C 161.88 64.31 163.25 62.38 164.36 60.29 C 164.94 60.34 166.10 60.45 166.69 60.51 C 166.81 62.64 166.76 64.76 166.81 66.89 C 168.81 64.81 170.54 62.48 172.35 60.23 C 173.08 60.93 173.81 61.63 174.55 62.33 C 174.45 65.89 174.54 69.45 174.61 73.01 C 176.24 73.87 179.67 77.09 176.02 77.53 C 167.35 77.93 158.65 77.44 149.98 77.34 C 147.68 77.58 146.89 75.09 145.55 73.75 C 145.56 74.68 145.59 76.54 145.60 77.47 C 145.06 76.93 143.99 75.86 143.45 75.32 C 144.05 70.24 143.10 65.12 143.87 60.05 M 151.92 70.56 C 150.17 70.91 148.69 69.53 147.10 69.03 C 147.14 70.51 147.18 71.99 147.21 73.47 C 155.06 72.78 162.82 75.19 170.66 74.06 C 170.74 72.36 170.85 70.66 170.96 68.96 C 169.39 69.99 167.71 70.74 165.81 70.76 C 165.30 69.73 164.78 68.71 164.24 67.69 C 163.36 68.72 162.49 69.76 161.59 70.77 C 158.77 71.00 156.53 69.36 155.14 67.04 C 154.16 68.29 153.23 69.62 151.92 70.56 Z" />
<path fill="#000000" opacity="1.00" d=" M 104.23 79.19 C 108.45 78.90 112.04 81.42 115.21 83.88 C 116.01 82.01 117.19 77.10 119.84 78.93 C 119.92 82.67 117.67 85.91 115.55 88.80 C 114.95 88.74 113.76 88.62 113.17 88.56 C 114.30 87.52 115.49 86.54 116.53 85.40 C 114.81 85.38 113.08 85.96 111.38 85.64 C 109.79 84.78 108.45 83.55 107.02 82.45 C 106.28 83.86 106.14 86.24 104.01 85.98 C 101.10 84.48 103.67 81.34 104.23 79.19 Z" />
<path fill="#000000" opacity="1.00" d=" M 131.36 78.77 C 134.49 80.94 136.48 84.72 140.63 85.11 C 141.20 83.87 141.76 82.63 142.31 81.38 C 142.98 81.42 144.31 81.51 144.98 81.55 C 146.73 84.16 148.68 86.60 150.66 89.03 C 150.91 90.87 150.09 91.67 148.19 91.45 C 146.71 90.35 145.71 88.78 144.62 87.33 C 140.29 90.42 134.19 87.55 132.58 82.79 C 131.70 84.54 130.82 86.30 129.82 87.99 C 125.66 88.29 120.88 85.56 120.77 80.99 C 123.50 81.64 125.89 83.12 128.15 84.73 C 129.16 82.71 130.16 80.69 131.36 78.77 Z" />
<path fill="#000000" opacity="1.00" d=" M 90.33 83.36 C 92.17 82.32 94.07 81.40 95.98 80.51 C 98.62 81.67 101.24 82.97 103.03 85.34 C 100.30 87.91 96.78 84.60 93.97 83.54 C 93.76 84.85 93.55 86.16 93.33 87.46 C 92.72 87.57 91.49 87.78 90.87 87.89 C 90.66 86.38 90.49 84.87 90.33 83.36 Z" />
<path fill="#000000" opacity="1.00" d=" M 76.07 84.83 C 80.33 81.77 85.36 84.21 89.08 86.87 C 87.18 90.36 83.25 87.82 80.51 87.05 C 80.68 90.74 75.91 92.06 76.22 95.78 C 76.73 97.06 78.20 96.71 79.28 96.98 C 78.03 98.65 76.70 100.26 75.38 101.88 C 77.20 103.19 79.27 104.24 80.62 106.10 C 79.09 109.76 75.25 106.05 73.50 104.45 C 71.73 103.11 72.51 101.02 73.60 99.54 C 75.34 97.39 74.41 94.56 74.91 92.05 C 73.10 91.67 71.31 91.16 69.55 90.59 C 69.48 92.25 69.40 93.91 69.19 95.55 C 66.02 93.98 64.35 90.63 62.85 87.60 C 67.29 86.12 72.81 86.72 76.74 89.28 C 76.48 87.80 76.27 86.32 76.07 84.83 Z" />
<path fill="#000000" opacity="1.00" d=" M 45.61 87.75 C 50.77 86.63 55.62 89.62 59.98 92.00 C 62.62 93.89 67.01 92.38 67.81 96.48 C 65.01 96.56 62.06 96.98 59.41 95.83 C 58.71 94.86 58.11 93.84 57.46 92.85 C 56.80 97.94 51.28 99.71 48.13 103.07 C 46.43 98.24 43.47 93.92 42.29 88.89 C 43.00 88.54 44.42 87.86 45.14 87.52 C 46.41 90.90 48.20 94.06 49.32 97.51 C 51.70 96.00 54.02 94.42 56.34 92.82 C 52.35 92.15 48.42 90.82 45.61 87.75 Z" />
<path fill="#000000" opacity="1.00" d=" M 94.33 88.65 C 95.48 88.53 96.63 88.42 97.78 88.32 C 97.67 89.39 97.55 90.46 97.40 91.52 C 95.28 91.77 94.07 90.86 94.33 88.65 Z" />
<path fill="#000000" opacity="1.00" d=" M 152.51 88.38 C 156.09 88.54 159.93 88.00 163.06 90.16 C 167.24 93.01 172.66 93.34 176.72 96.23 L 176.17 97.34 C 171.26 97.29 165.81 96.25 163.11 91.70 C 162.43 91.85 161.08 92.15 160.40 92.30 C 160.88 93.55 161.39 94.78 161.88 96.03 C 159.46 97.94 158.02 100.93 155.12 102.21 C 155.73 103.53 155.43 104.98 155.38 106.37 C 157.18 107.32 158.92 108.39 160.72 109.34 C 162.76 109.73 164.86 109.69 166.93 109.94 C 168.81 108.57 170.59 106.48 173.08 106.44 C 178.70 106.76 183.86 104.01 189.04 102.24 C 185.02 99.75 179.95 100.62 176.01 98.11 C 176.54 97.46 177.60 96.15 178.13 95.50 C 181.15 95.81 184.09 96.58 186.49 98.54 C 190.50 98.50 194.56 97.92 198.51 99.05 C 198.53 99.70 198.58 101.01 198.60 101.66 C 196.44 103.38 193.97 104.62 191.48 105.76 C 192.38 108.88 195.62 112.65 193.20 115.71 C 192.60 115.30 191.41 114.48 190.81 114.07 C 190.38 112.24 190.02 110.39 189.55 108.57 C 188.13 111.25 186.97 114.10 184.81 116.30 C 183.96 113.09 185.32 110.12 186.92 107.42 C 181.67 110.10 175.32 109.08 170.40 112.37 C 168.47 113.29 166.33 113.57 164.27 114.08 C 164.40 113.31 164.65 111.79 164.78 111.03 C 164.54 111.62 164.06 112.80 163.83 113.39 C 162.01 113.58 160.18 113.68 158.37 113.85 C 158.28 115.73 158.44 117.73 157.57 119.47 C 155.65 123.25 154.51 127.53 151.49 130.65 C 150.22 132.24 147.89 131.33 146.18 131.58 C 147.03 129.75 147.92 127.93 148.72 126.07 C 145.76 127.22 143.40 129.14 141.90 131.97 C 139.74 129.87 139.32 126.80 138.78 123.99 C 138.87 122.62 139.11 120.95 140.68 120.53 C 143.82 119.03 147.20 118.07 150.26 116.38 C 140.83 117.02 131.32 113.82 122.01 116.12 C 115.15 117.95 111.42 124.21 106.91 129.06 C 106.69 128.52 106.24 127.43 106.02 126.89 C 106.43 122.96 106.31 118.88 108.21 115.30 C 101.20 115.92 93.71 116.56 87.80 120.77 C 86.93 119.78 86.11 118.77 85.28 117.76 C 83.14 119.18 80.93 120.69 78.29 120.91 C 78.16 119.77 78.12 118.62 78.15 117.47 C 79.85 116.93 81.59 116.47 83.33 116.07 C 83.13 114.89 82.93 113.71 82.74 112.52 C 86.01 112.39 89.29 112.37 92.56 112.20 C 92.61 113.04 92.66 113.88 92.70 114.73 C 96.87 111.88 102.22 112.28 107.02 111.62 C 116.47 111.67 125.95 111.17 135.39 111.67 C 142.17 113.78 149.70 110.99 156.13 114.47 C 154.42 112.46 152.01 111.30 149.67 110.17 C 149.47 108.75 149.29 107.33 149.09 105.91 C 146.57 105.46 144.33 104.27 143.13 101.91 C 143.81 101.55 145.19 100.82 145.87 100.45 C 146.97 101.29 148.06 102.15 149.16 103.00 C 151.49 100.82 151.34 96.87 154.43 95.45 C 156.32 94.30 159.97 94.88 159.37 91.64 C 157.06 92.00 154.77 92.40 152.52 92.97 C 152.52 91.44 152.51 89.91 152.51 88.38 M 142.10 122.80 C 142.41 124.15 142.71 125.49 143.08 126.82 C 145.22 124.17 147.44 121.40 150.73 120.14 C 147.86 121.04 145.03 122.11 142.10 122.80 Z" />
<path fill="#000000" opacity="1.00" d=" M 185.97 94.97 C 187.75 93.14 189.65 91.43 191.73 89.93 C 192.18 90.46 193.09 91.50 193.55 92.03 C 191.50 93.86 189.43 95.67 187.63 97.76 C 187.08 96.83 186.52 95.90 185.97 94.97 Z" />
<path fill="#000000" opacity="1.00" d=" M 130.37 98.56 C 132.19 95.79 135.37 94.46 137.95 92.52 C 138.49 93.31 139.06 94.09 139.63 94.87 C 136.95 96.95 133.91 98.80 130.37 98.56 Z" />
<path fill="#000000" opacity="1.00" d=" M 99.52 99.07 C 101.91 96.92 103.80 93.69 107.28 93.32 C 107.36 93.91 107.53 95.10 107.62 95.69 C 106.06 97.03 104.47 98.31 102.95 99.69 C 104.96 101.22 106.60 103.15 108.09 105.18 C 103.88 106.45 100.82 102.56 99.52 99.07 Z" />
<path fill="#000000" opacity="1.00" d=" M 90.31 100.10 C 93.21 97.91 95.61 95.17 98.36 92.82 C 99.96 96.32 96.08 98.09 94.02 100.14 C 95.64 101.44 97.13 102.90 98.27 104.66 C 94.66 105.48 92.20 102.74 90.31 100.10 Z" />
<path fill="#000000" opacity="1.00" d=" M 109.86 97.93 C 111.51 95.84 113.86 94.63 116.18 93.45 C 117.21 94.23 118.23 95.03 119.24 95.84 C 117.31 97.10 115.42 98.41 113.44 99.58 C 111.97 100.14 110.97 98.58 109.86 97.93 Z" />
<path fill="#000000" opacity="1.00" d=" M 125.04 95.00 C 126.37 94.05 128.03 92.69 129.64 93.92 C 130.03 96.98 126.25 97.67 124.39 99.19 C 125.72 101.22 127.53 102.97 128.34 105.31 C 124.73 105.89 121.17 102.69 121.13 99.11 C 121.78 97.25 123.57 96.18 125.04 95.00 Z" />
<path fill="#000000" opacity="1.00" d=" M 85.21 95.17 C 85.99 95.20 87.55 95.27 88.33 95.31 C 87.55 97.68 85.89 99.54 84.17 101.27 C 85.99 102.65 87.92 103.86 89.79 105.18 C 88.92 105.88 88.05 106.58 87.18 107.28 C 85.02 105.90 81.37 105.21 81.38 102.04 C 82.40 99.62 83.87 97.42 85.21 95.17 Z" />
<path fill="#000000" opacity="1.00" d=" M 141.37 101.06 C 140.21 97.09 144.26 93.96 147.99 94.62 C 147.85 98.12 144.11 99.74 141.37 101.06 Z" />
<path fill="#000000" opacity="1.00" d=" M 61.18 99.01 C 62.05 99.46 62.91 99.92 63.77 100.39 C 62.78 101.29 61.74 102.12 60.60 102.81 C 62.73 105.30 64.65 107.98 66.08 110.93 C 60.45 110.67 56.63 103.06 61.18 99.01 Z" />
<path fill="#000000" opacity="1.00" d=" M 65.85 104.79 C 64.76 101.91 67.33 99.60 69.45 98.10 C 69.49 99.78 69.35 101.47 69.11 103.14 C 70.81 104.38 72.47 105.70 73.97 107.20 C 70.94 108.61 67.70 107.43 65.85 104.79 Z" />
<path fill="#000000" opacity="1.00" d=" M 170.11 99.98 C 171.25 99.30 172.25 97.59 173.78 98.22 C 175.29 98.83 175.53 100.56 176.09 101.90 C 174.75 102.28 173.41 102.65 172.08 103.03 C 171.40 102.02 170.75 101.00 170.11 99.98 Z" />
<path fill="#000000" opacity="1.00" d=" M 132.20 98.74 C 132.91 98.61 134.33 98.36 135.04 98.23 C 136.90 100.39 138.76 102.60 140.12 105.12 C 135.85 106.50 133.44 102.04 132.20 98.74 Z" />
<path fill="#000000" opacity="1.00" d=" M 111.83 100.85 C 112.76 100.63 113.70 100.43 114.64 100.25 C 115.73 102.09 116.94 103.87 118.09 105.68 C 117.50 106.16 116.33 107.12 115.74 107.60 C 113.28 106.15 112.23 103.55 111.83 100.85 Z" />
<path fill="#000000" opacity="1.00" d=" M 51.19 105.06 C 52.74 103.00 53.79 99.69 57.01 100.69 C 56.65 102.13 56.17 103.55 55.65 104.94 C 57.42 106.08 58.47 107.84 58.54 109.95 C 55.29 109.82 52.35 108.22 51.19 105.06 Z" />
<path fill="#000000" opacity="1.00" d=" M 43.50 108.67 C 44.00 105.02 47.02 102.14 50.85 103.54 C 49.95 104.69 48.99 105.80 48.03 106.91 C 48.72 107.01 50.08 107.21 50.77 107.30 C 50.95 108.09 51.32 109.67 51.50 110.46 C 48.82 110.76 46.12 110.62 43.43 110.52 C 44.26 112.29 44.91 114.14 45.52 116.00 C 53.98 115.97 62.12 112.56 70.61 113.71 C 74.62 113.17 78.64 112.61 82.70 112.53 C 82.74 113.43 82.80 115.23 82.84 116.13 C 76.44 116.46 70.04 117.24 63.69 117.85 C 58.07 120.79 55.00 127.32 48.63 129.30 C 48.60 128.59 48.55 127.18 48.53 126.47 C 47.11 127.32 45.39 128.70 44.54 126.38 C 45.68 124.00 47.25 121.83 48.07 119.30 C 46.47 119.35 44.86 119.37 43.27 119.56 C 40.57 121.42 37.75 123.14 35.19 125.17 C 33.81 127.28 32.97 129.72 31.27 131.64 C 30.58 130.51 29.90 129.38 29.22 128.25 C 27.46 130.31 25.55 132.23 23.75 134.26 C 25.55 133.28 27.26 132.14 29.07 131.18 C 29.32 131.91 29.82 133.38 30.07 134.12 C 27.27 136.06 24.73 138.37 21.72 140.01 C 21.30 139.44 20.45 138.32 20.02 137.75 C 18.58 137.78 17.14 137.82 15.70 137.87 C 15.12 133.05 18.41 128.78 18.58 123.94 C 14.30 124.28 11.17 120.94 7.34 119.67 C 4.07 118.53 1.53 115.97 0.92 112.49 C 3.84 112.88 6.57 111.84 9.37 111.18 C 8.49 110.04 7.64 108.88 6.89 107.66 C 14.86 106.21 22.99 106.91 31.01 107.42 C 32.67 107.49 33.97 108.60 35.27 109.50 C 37.87 108.44 40.76 107.64 43.50 108.67 M 37.37 115.73 C 37.87 114.30 38.39 112.88 38.94 111.47 C 36.04 113.21 33.35 115.26 30.95 117.65 C 29.70 117.11 28.43 116.58 27.16 116.09 C 25.52 117.46 23.82 118.75 22.12 120.04 C 23.42 124.09 21.20 128.08 21.07 132.14 C 23.49 131.16 23.22 128.24 24.11 126.20 C 25.30 122.29 28.67 119.70 31.78 117.34 C 31.81 119.54 30.24 120.98 28.79 122.38 C 30.42 122.28 32.05 122.60 33.67 122.42 C 35.95 120.88 37.87 118.80 40.34 117.56 C 41.88 117.48 43.42 117.55 44.95 117.42 C 44.80 114.63 43.89 111.98 42.52 109.56 C 42.02 112.51 40.12 114.61 37.37 115.73 M 6.40 114.92 C 6.99 115.84 7.59 116.76 8.19 117.69 C 9.90 115.35 12.85 115.32 15.34 114.41 C 12.36 114.48 9.38 114.71 6.40 114.92 Z" />
<path fill="#000000" opacity="1.00" d=" M 74.54 118.22 C 78.70 118.32 79.10 124.20 79.67 127.42 C 81.24 125.67 82.66 123.79 84.15 121.97 C 85.07 122.45 85.98 122.94 86.89 123.45 C 84.81 125.95 82.86 128.85 79.72 130.09 C 77.64 126.25 74.41 122.92 74.54 118.22 Z" />
<path fill="#000000" opacity="1.00" d=" M 143.85 131.09 C 145.47 131.56 147.03 132.18 148.54 132.93 C 146.75 133.87 144.90 134.70 143.06 135.52 C 143.32 134.04 143.59 132.57 143.85 131.09 Z" />
</g>
</svg>
