<?xml version="1.0" encoding="UTF-8" ?>
<!DOCTYPE svg PUBLIC "-//W3C//DTD SVG 1.1//EN" "http://www.w3.org/Graphics/SVG/1.1/DTD/svg11.dtd">
<svg width="180pt" height="180pt" viewBox="0 0 180 180" version="1.1" xmlns="http://www.w3.org/2000/svg">
<g id="#000000ff">
<path fill="#000000" opacity="1.00" d=" M 109.93 27.87 C 112.91 23.27 113.15 17.28 116.87 13.18 C 120.81 16.67 125.22 19.55 129.58 22.48 C 130.62 23.10 132.21 23.07 133.15 22.26 C 136.17 19.99 139.31 17.59 143.17 17.08 C 144.14 22.66 140.40 28.51 143.31 33.86 C 144.89 37.00 149.44 39.72 147.92 43.66 C 147.22 43.74 146.52 43.83 145.83 43.93 C 145.25 45.28 144.69 46.64 143.86 47.86 C 142.04 47.72 140.36 46.85 138.65 46.28 C 140.59 44.77 143.38 43.73 143.93 41.03 C 142.19 37.71 139.23 34.87 139.41 30.80 C 136.60 29.40 132.95 30.11 131.06 27.14 C 130.05 27.75 129.03 28.36 128.02 28.96 C 125.92 27.64 123.97 26.10 122.41 24.16 C 121.18 26.73 119.17 28.78 117.72 31.20 C 116.61 33.66 115.48 36.25 113.17 37.83 C 113.89 39.32 116.01 40.47 115.33 42.32 C 114.23 42.85 113.11 43.34 111.98 43.77 C 112.30 44.06 112.95 44.63 113.28 44.92 C 114.36 44.61 115.44 44.31 116.52 43.99 C 115.36 46.30 114.21 48.68 114.22 51.32 C 116.53 51.91 119.01 52.77 121.17 51.26 C 121.37 51.79 121.76 52.84 121.95 53.36 C 120.68 53.50 119.41 53.57 118.13 53.61 C 118.25 54.68 118.40 55.74 118.44 56.82 C 117.25 59.12 113.49 59.21 114.42 62.53 C 113.78 62.79 112.48 63.31 111.83 63.57 C 112.58 64.34 113.33 65.10 114.08 65.87 C 118.23 63.15 119.01 57.68 123.26 55.17 C 122.83 56.65 122.91 58.52 121.35 59.35 C 118.84 60.85 118.26 63.82 117.24 66.33 C 118.78 65.89 120.33 65.47 121.84 64.89 C 124.10 66.47 125.41 69.66 122.62 71.52 C 122.61 69.84 122.71 68.17 122.82 66.50 C 120.93 66.50 119.04 66.51 117.15 66.50 C 117.69 68.34 118.24 70.19 118.96 71.98 C 122.13 74.22 125.74 74.98 129.56 74.68 C 131.01 72.17 133.32 70.33 134.90 67.93 C 133.79 65.13 132.90 62.23 133.15 59.16 C 137.80 60.76 142.07 63.06 145.95 66.10 C 147.34 63.68 148.49 61.14 149.61 58.59 C 151.27 57.35 153.03 56.23 154.09 54.38 C 155.26 57.52 154.99 61.99 151.70 63.72 C 149.62 64.93 148.30 66.99 146.45 68.47 C 144.90 69.70 143.36 67.79 141.99 67.19 C 137.40 70.50 134.29 75.23 130.90 79.63 C 127.25 80.02 123.60 79.56 119.98 79.17 C 117.03 78.24 115.15 75.44 113.78 72.82 C 115.17 72.59 116.53 72.26 117.87 71.84 C 118.06 70.19 115.99 70.28 114.99 69.64 C 112.86 68.95 111.80 66.77 110.24 65.32 C 108.76 66.78 106.72 67.26 104.69 67.35 C 107.17 63.76 110.77 61.17 113.35 57.71 C 111.59 58.34 110.00 59.34 108.64 60.62 C 108.04 60.05 107.44 59.47 106.84 58.91 C 107.28 61.92 105.49 64.13 103.74 66.33 C 100.15 63.56 94.71 59.65 96.77 54.48 C 97.45 55.83 98.10 57.20 98.70 58.59 C 99.84 57.52 101.01 56.49 102.20 55.48 C 102.69 55.99 103.68 57.00 104.18 57.51 C 102.60 58.83 100.91 60.00 99.25 61.20 C 100.33 61.37 101.42 61.54 102.50 61.70 C 104.46 58.90 107.67 57.42 110.09 55.09 C 109.68 54.67 108.84 53.83 108.43 53.41 C 107.12 54.92 105.53 56.09 103.62 56.71 C 104.45 55.21 105.47 53.81 106.63 52.54 C 108.61 51.73 110.76 51.50 112.83 51.06 C 112.34 49.82 111.83 48.59 111.29 47.37 C 109.73 48.28 108.11 49.09 106.43 49.77 C 107.20 48.64 107.99 47.53 108.80 46.43 C 107.57 47.04 106.35 47.67 105.12 48.29 C 105.84 49.23 106.56 50.17 107.27 51.12 C 105.47 51.31 103.67 51.49 101.87 51.55 C 101.58 50.40 101.40 47.83 99.59 49.02 C 96.91 50.50 93.66 48.16 91.21 50.19 C 90.38 50.73 89.58 51.29 88.78 51.86 C 90.33 55.42 91.58 59.10 93.39 62.54 C 95.87 67.14 101.84 69.43 102.75 74.88 C 100.01 74.40 98.22 72.25 96.39 70.36 C 97.38 72.11 98.02 74.01 97.91 76.05 C 95.60 73.92 94.33 70.99 92.37 68.59 C 90.52 67.05 88.96 65.24 87.64 63.24 C 84.59 64.84 82.25 67.74 78.54 67.89 C 78.44 68.51 78.24 69.75 78.14 70.38 C 80.06 69.95 81.98 69.48 83.95 69.31 C 81.82 70.95 78.92 70.60 76.56 71.77 C 78.71 73.69 81.61 73.32 84.25 73.78 C 82.42 75.79 80.13 77.34 77.32 77.41 C 73.31 82.50 70.44 88.37 66.17 93.28 C 65.59 92.59 64.43 91.21 63.85 90.52 C 64.88 89.46 65.93 88.41 66.97 87.35 C 65.85 87.36 64.72 87.36 63.60 87.36 C 63.45 89.43 64.18 92.31 61.35 92.75 C 61.42 91.23 61.49 89.72 61.56 88.20 C 59.35 89.62 57.22 91.21 54.69 92.01 C 54.33 90.58 53.93 89.16 53.53 87.74 C 50.16 87.28 47.69 84.95 45.31 82.73 C 45.34 80.75 45.28 78.77 45.31 76.79 C 44.27 76.31 43.26 75.78 42.25 75.23 C 42.73 78.26 41.97 81.42 43.26 84.32 C 43.47 88.78 46.61 92.44 46.68 96.92 C 46.51 97.59 46.35 98.26 46.19 98.93 C 44.89 95.60 42.22 92.64 42.39 88.86 C 42.04 87.61 43.07 85.26 41.15 85.07 C 40.38 86.09 39.79 87.22 39.18 88.34 C 38.58 87.93 37.37 87.09 36.77 86.68 C 35.83 91.45 34.29 96.12 33.79 100.96 C 34.15 104.54 34.16 108.13 34.24 111.72 C 35.46 117.49 36.63 123.34 36.53 129.27 C 43.24 122.37 48.66 114.29 54.36 106.65 C 57.67 108.62 54.22 112.24 54.54 115.05 C 56.35 113.16 56.76 110.66 57.33 108.21 C 56.44 107.55 55.63 106.79 54.94 105.92 C 55.23 104.16 56.36 102.68 56.99 101.04 C 55.63 98.90 51.88 97.51 52.64 94.60 C 53.86 94.41 55.09 94.43 56.32 94.39 C 57.43 99.93 64.69 98.68 67.31 103.03 C 68.24 102.42 69.17 101.80 70.09 101.18 C 70.61 105.60 73.47 109.10 76.70 111.94 C 77.09 110.95 77.48 109.96 77.88 108.98 C 79.11 110.11 80.70 111.07 81.18 112.79 C 82.62 116.70 84.04 120.78 83.52 125.01 C 84.50 130.98 86.64 136.83 86.55 142.96 C 86.52 145.84 87.81 148.60 87.41 151.49 C 87.17 153.60 87.27 155.73 87.41 157.84 C 83.16 158.66 83.78 153.70 83.34 150.99 C 82.20 141.88 80.45 132.85 78.94 123.80 C 75.03 126.45 71.36 129.80 66.64 130.90 C 66.59 129.69 66.75 128.45 66.44 127.27 C 66.12 132.48 67.15 137.75 66.19 142.93 C 65.79 145.44 65.21 147.96 65.24 150.52 C 67.26 151.89 69.74 152.30 72.01 153.09 C 71.77 154.29 71.53 155.49 71.28 156.69 C 67.69 154.50 63.20 156.48 59.81 153.82 C 61.49 150.35 61.75 146.42 60.89 142.71 C 59.03 139.03 58.42 134.92 56.87 131.13 C 56.52 130.06 55.83 128.79 56.73 127.79 C 58.55 124.72 61.06 121.84 61.03 118.07 C 58.24 121.98 53.93 124.26 50.41 127.40 C 48.37 129.21 45.24 129.33 43.55 131.58 C 38.98 136.80 39.54 144.25 39.42 150.73 C 41.06 153.05 45.07 153.99 44.90 157.21 C 43.14 158.54 41.38 156.21 39.80 155.59 C 39.34 156.66 38.87 157.73 38.40 158.80 C 36.26 158.68 34.11 158.57 31.98 158.37 C 32.54 155.36 35.27 153.73 37.92 152.74 C 36.47 151.62 34.95 150.59 33.39 149.63 C 33.40 148.78 33.42 147.93 33.43 147.09 C 31.87 148.23 32.44 150.75 31.76 152.47 C 33.34 153.70 33.03 156.25 31.18 157.04 C 29.94 157.89 28.55 156.96 27.29 156.68 C 26.86 153.61 29.08 151.08 29.24 148.08 C 29.53 141.32 29.50 134.36 32.01 127.97 C 34.24 123.55 30.11 119.39 30.00 114.93 C 29.63 108.43 28.20 102.00 28.46 95.47 C 29.16 95.44 30.56 95.38 31.26 95.35 C 31.11 92.68 31.47 89.99 32.37 87.47 C 33.95 82.84 33.57 77.57 36.34 73.36 C 40.38 67.81 43.54 61.36 49.35 57.39 C 55.49 53.98 62.54 52.97 69.31 51.51 C 74.05 50.28 78.74 54.49 83.37 52.31 C 87.13 48.93 91.20 45.88 95.88 43.90 C 101.66 39.68 105.97 33.75 109.93 27.87 M 115.54 26.38 C 116.28 25.04 116.96 23.66 117.61 22.27 C 119.45 22.43 121.30 22.56 123.15 22.64 C 121.42 21.23 119.63 19.90 117.86 18.54 C 117.11 21.17 116.30 23.77 115.54 26.38 M 132.82 26.81 C 134.69 27.21 136.57 27.59 138.46 27.88 C 138.63 26.21 138.81 24.53 138.96 22.85 C 136.86 24.09 134.81 25.40 132.82 26.81 M 111.50 54.85 C 110.97 56.43 111.34 56.94 112.63 56.38 C 113.18 54.83 112.80 54.32 111.50 54.85 M 81.32 57.14 C 83.35 57.51 86.54 58.93 86.41 55.55 C 84.68 55.96 82.96 56.45 81.32 57.14 M 115.23 56.25 C 113.67 59.28 118.68 56.22 115.23 56.25 M 46.48 65.13 C 49.68 63.40 52.80 61.41 55.33 58.77 C 51.23 58.76 48.70 62.17 46.48 65.13 M 77.18 63.10 C 80.63 64.11 84.23 63.55 87.68 62.88 C 87.67 61.70 87.67 60.52 87.69 59.35 C 85.27 62.73 80.52 61.24 77.18 63.10 M 136.23 66.23 C 136.81 66.81 136.81 66.81 136.23 66.23 M 37.41 79.32 C 40.12 78.77 41.09 76.17 41.23 73.72 C 39.44 75.16 37.78 76.95 37.41 79.32 M 49.90 82.69 C 50.93 83.79 52.00 84.84 53.06 85.90 C 53.92 81.78 57.93 79.97 60.31 76.88 C 56.67 78.51 53.64 81.23 49.90 82.69 M 63.33 86.14 C 66.05 85.77 67.00 82.91 68.34 80.92 C 66.49 82.48 64.78 84.20 63.33 86.14 M 40.38 82.16 C 38.73 82.43 39.52 85.64 40.92 84.05 C 42.10 83.44 42.10 81.18 40.38 82.16 M 63.05 102.86 C 63.75 106.82 64.23 110.82 64.52 114.83 C 67.16 115.77 66.16 118.20 65.65 120.27 C 67.94 118.69 70.27 117.17 72.73 115.86 C 70.41 112.06 66.31 108.78 66.54 103.94 C 65.37 103.60 64.21 103.24 63.05 102.86 M 72.55 118.73 C 73.28 118.67 74.74 118.54 75.47 118.48 C 75.81 117.56 76.15 116.65 76.50 115.74 C 75.14 116.68 73.82 117.68 72.55 118.73 M 42.58 128.14 C 44.87 126.46 47.30 124.60 48.21 121.78 C 45.56 123.01 43.77 125.55 42.58 128.14 M 37.50 131.84 C 36.41 131.31 35.33 130.77 34.25 130.23 C 34.25 132.62 34.99 135.13 33.98 137.42 C 32.91 140.22 33.76 143.31 32.70 146.13 C 34.68 144.18 34.28 141.05 34.98 138.55 C 35.68 136.37 34.20 132.51 37.59 132.22 C 37.49 133.86 37.36 135.49 37.20 137.13 C 37.86 134.16 39.22 131.45 40.28 128.62 C 39.28 129.62 38.38 130.73 37.50 131.84 M 60.19 129.22 C 58.54 132.12 63.63 129.45 60.19 129.22 Z" />
<path fill="#000000" opacity="1.00" d=" M 51.34 18.37 C 51.69 18.30 52.37 18.14 52.71 18.07 C 54.69 20.40 55.74 23.29 57.18 25.95 C 57.59 22.63 57.67 18.84 61.02 17.03 C 62.68 20.04 63.08 23.52 64.63 26.57 C 65.70 23.23 66.45 19.63 69.14 17.13 C 72.26 22.66 72.56 28.95 73.27 35.09 C 73.44 36.31 73.18 37.44 72.49 38.47 C 63.61 41.60 54.16 42.13 44.83 42.49 C 42.41 39.85 42.74 36.17 42.06 32.89 C 41.46 28.63 39.61 24.20 41.72 20.06 C 45.52 21.29 46.74 25.57 49.16 28.35 C 49.79 25.02 49.74 21.42 51.34 18.37 M 53.01 26.06 C 52.67 29.35 51.84 32.82 49.29 35.12 C 47.37 32.89 45.83 30.37 44.42 27.79 C 45.25 31.48 45.73 35.23 46.52 38.93 C 53.96 37.57 61.63 37.63 68.96 35.54 C 68.76 32.69 68.82 29.79 68.13 27.00 C 66.99 29.27 65.40 31.26 62.98 32.21 C 61.91 30.47 61.16 28.58 60.50 26.65 C 59.58 28.33 58.68 30.03 57.71 31.69 C 57.17 31.66 56.07 31.60 55.52 31.58 C 54.75 29.70 53.87 27.89 53.01 26.06 Z" />
<path fill="#000000" opacity="1.00" d=" M 120.02 28.49 C 121.20 31.50 123.43 33.79 126.01 35.66 C 124.75 35.55 123.50 35.45 122.25 35.39 C 121.64 34.80 121.02 34.20 120.41 33.62 C 120.29 31.91 120.13 30.20 120.02 28.49 Z" />
<path fill="#000000" opacity="1.00" d=" M 125.29 29.47 C 127.98 30.50 131.08 30.35 133.46 32.14 C 130.88 32.43 128.28 32.53 125.69 32.57 C 125.58 31.53 125.44 30.50 125.29 29.47 Z" />
<path fill="#000000" opacity="1.00" d=" M 115.84 38.63 C 116.71 37.59 117.58 36.53 118.47 35.51 C 118.39 36.08 118.23 37.24 118.15 37.81 C 120.50 37.25 122.69 38.27 124.87 38.97 C 124.59 40.13 124.31 41.29 124.03 42.46 C 127.51 41.71 131.05 41.37 134.60 41.48 C 135.01 42.95 135.38 44.44 135.71 45.93 C 135.04 46.32 133.70 47.10 133.04 47.49 C 130.13 44.94 126.37 44.01 122.63 43.54 C 122.72 42.47 122.80 41.40 122.88 40.33 C 121.04 38.28 118.35 38.41 115.84 38.63 Z" />
<path fill="#000000" opacity="1.00" d=" M 117.16 42.29 C 117.79 42.93 117.79 42.93 117.16 42.29 Z" />
<path fill="#000000" opacity="1.00" d=" M 144.57 47.92 C 145.13 46.86 145.04 44.57 146.82 45.15 C 146.96 45.72 147.24 46.86 147.38 47.43 C 149.31 49.79 151.20 52.17 152.97 54.65 C 152.29 55.36 151.59 56.05 150.89 56.74 C 149.17 53.60 145.12 51.47 144.57 47.92 Z" />
<path fill="#000000" opacity="1.00" d=" M 117.09 47.23 C 119.03 46.74 119.59 50.95 117.39 50.54 C 115.63 50.51 115.93 47.87 117.09 47.23 Z" />
<path fill="#000000" opacity="1.00" d=" M 100.32 52.09 C 101.36 50.74 103.28 52.73 102.45 53.92 C 101.36 55.14 99.31 53.36 100.32 52.09 Z" />
<path fill="#000000" opacity="1.00" d=" M 140.48 71.00 C 141.23 69.43 141.77 67.25 143.90 68.66 C 144.39 69.93 144.72 71.27 145.09 72.58 C 143.55 72.06 142.01 71.54 140.48 71.00 Z" />
<path fill="#000000" opacity="1.00" d=" M 101.69 78.37 C 105.27 81.23 109.71 82.26 113.56 84.62 C 116.31 84.33 119.06 84.13 121.82 84.07 C 125.26 82.74 128.22 79.96 132.09 80.07 C 131.28 82.73 129.18 85.16 129.69 88.09 C 129.85 89.41 128.40 90.20 127.83 91.24 C 128.20 92.11 128.57 92.98 128.95 93.85 C 128.38 94.85 127.82 95.86 127.28 96.88 C 129.51 103.44 121.87 107.41 121.35 113.50 C 118.03 125.49 116.10 137.80 113.45 149.94 C 113.73 154.58 112.70 159.45 115.74 163.43 C 112.85 164.50 111.49 161.59 110.31 159.54 C 109.89 156.38 109.36 153.24 108.90 150.09 C 112.55 138.35 113.34 125.94 117.22 114.27 C 115.61 114.69 113.99 115.10 112.37 115.48 C 112.44 113.84 112.56 112.21 112.70 110.58 C 110.90 110.48 109.10 110.34 107.30 110.21 C 107.29 110.82 107.27 112.03 107.26 112.64 C 108.96 113.01 110.67 113.33 112.38 113.64 C 110.46 116.48 105.72 119.58 102.90 116.14 C 102.90 116.75 102.90 117.98 102.91 118.59 C 101.24 118.01 99.56 117.45 97.88 116.91 C 98.48 116.49 99.67 115.64 100.26 115.22 C 99.02 113.94 98.03 112.46 97.11 110.95 C 96.85 111.11 96.33 111.44 96.07 111.61 C 98.35 114.59 94.42 116.48 93.33 118.81 C 93.55 125.55 95.48 132.26 94.26 139.01 C 94.34 144.72 94.48 150.49 95.63 156.10 C 96.27 159.26 96.07 162.67 97.88 165.47 C 100.88 162.34 101.43 157.85 101.39 153.70 C 102.04 153.61 103.36 153.44 104.01 153.35 C 103.37 153.37 102.09 153.40 101.45 153.41 C 103.63 141.87 101.26 129.95 103.41 118.38 C 104.82 118.22 106.23 118.04 107.64 117.85 C 106.88 132.87 106.58 147.99 103.66 162.80 C 104.67 162.76 106.69 162.69 107.70 162.65 C 108.00 166.04 103.88 165.67 101.70 166.90 C 104.64 167.13 107.44 166.40 110.17 165.40 C 109.24 167.66 107.78 170.75 104.88 170.61 C 102.85 171.02 100.94 170.12 99.07 169.47 C 98.48 170.18 97.88 170.89 97.27 171.60 C 93.81 169.27 89.69 171.40 85.99 170.04 C 83.05 167.51 84.39 163.31 84.58 160.00 C 85.25 159.50 86.57 158.50 87.24 158.00 C 87.42 160.82 87.49 163.66 87.95 166.45 C 89.97 166.55 91.99 166.67 94.01 166.78 C 93.24 165.97 92.47 165.17 91.70 164.36 C 94.94 160.45 92.42 155.43 92.03 151.03 C 90.44 145.74 92.61 140.17 90.72 134.94 C 90.35 129.13 88.64 123.26 89.58 117.47 C 91.92 114.14 90.64 109.53 93.54 106.54 C 95.13 104.74 95.94 101.84 98.76 101.74 C 97.74 105.16 95.09 107.73 93.88 111.07 C 95.39 109.57 96.73 107.91 98.14 106.31 C 98.32 107.68 98.50 109.05 98.68 110.43 C 101.52 109.99 103.72 111.64 105.77 113.39 C 105.77 103.68 94.25 99.80 92.33 90.84 C 91.19 88.37 88.50 87.01 87.17 84.60 C 92.13 86.33 94.60 91.46 97.87 95.19 C 100.79 98.13 104.29 100.41 107.69 102.76 C 110.04 100.65 112.40 98.51 114.92 96.59 C 116.40 96.39 117.89 96.55 119.37 96.65 C 116.94 99.62 111.72 100.23 110.94 104.34 C 115.18 102.62 117.99 98.70 121.95 96.48 C 123.58 95.85 123.47 93.99 123.98 92.60 C 122.44 93.27 120.80 93.62 119.13 93.74 C 119.28 91.23 120.78 89.21 122.01 87.13 C 120.74 87.21 119.47 87.28 118.20 87.33 C 118.48 88.30 118.76 89.28 119.04 90.25 C 118.35 90.53 116.96 91.09 116.26 91.37 C 117.06 91.47 118.65 91.69 119.44 91.79 C 118.22 95.54 113.74 94.46 111.03 93.09 C 111.55 91.55 111.96 89.98 112.31 88.40 C 112.91 88.29 114.12 88.07 114.72 87.96 C 114.74 88.83 114.76 90.58 114.78 91.45 C 115.99 89.82 116.75 87.94 117.27 85.99 C 116.69 86.50 115.54 87.52 114.96 88.03 C 113.82 87.54 112.68 87.06 111.57 86.52 C 111.55 88.11 111.49 89.71 111.38 91.30 C 109.17 89.74 107.69 87.48 106.49 85.11 C 107.89 85.53 109.27 85.97 110.65 86.44 C 108.61 84.65 106.02 84.01 103.40 83.62 C 102.62 81.94 102.06 80.18 101.69 78.37 M 120.25 109.23 C 120.81 109.83 120.81 109.83 120.25 109.23 Z" />
<path fill="#000000" opacity="1.00" d=" M 93.20 103.21 C 93.81 103.80 93.81 103.80 93.20 103.21 Z" />
<path fill="#000000" opacity="1.00" d=" M 66.41 146.16 C 69.70 147.34 73.38 147.83 76.19 150.07 C 73.44 153.08 69.63 151.31 66.49 150.13 C 66.47 149.14 66.43 147.15 66.41 146.16 Z" />
<path fill="#000000" opacity="1.00" d=" M 72.94 153.93 C 74.06 152.84 75.31 152.49 76.70 152.90 C 76.76 153.57 76.87 154.92 76.93 155.59 C 75.36 155.57 73.77 155.49 72.94 153.93 Z" />
<path fill="#000000" opacity="1.00" d=" M 113.63 163.85 C 114.60 163.77 116.54 163.60 117.50 163.51 C 117.36 166.52 115.39 170.42 111.97 170.35 C 110.07 170.66 109.11 169.85 109.07 167.90 C 110.57 167.16 112.20 166.72 113.81 166.29 C 113.77 165.68 113.67 164.46 113.63 163.85 Z" />
</g>
</svg>
