<?xml version="1.0" encoding="UTF-8" ?>
<!DOCTYPE svg PUBLIC "-//W3C//DTD SVG 1.1//EN" "http://www.w3.org/Graphics/SVG/1.1/DTD/svg11.dtd">
<svg width="128pt" height="64pt" viewBox="0 0 128 64" version="1.1" xmlns="http://www.w3.org/2000/svg">
<g id="#000000ff">
<path fill="#000000" opacity="1.00" d=" M 45.57 8.64 C 48.46 5.78 52.73 5.68 56.28 4.08 C 58.46 3.02 61.13 3.58 62.90 5.16 C 60.47 5.41 58.02 5.42 55.58 5.62 C 57.22 7.16 59.41 7.66 61.56 7.96 C 61.89 7.36 62.56 6.15 62.89 5.55 C 63.65 6.34 64.38 7.18 65.22 7.89 C 67.50 7.02 69.94 7.91 72.29 7.50 C 73.19 8.47 74.14 9.40 74.98 10.42 C 75.64 6.49 80.16 8.90 81.30 11.25 C 81.49 9.80 81.61 8.34 81.79 6.88 C 82.57 8.03 83.27 9.24 84.01 10.42 C 84.37 10.06 85.08 9.36 85.43 9.00 C 86.26 10.27 87.11 11.51 87.93 12.78 C 89.01 12.72 90.09 12.66 91.17 12.61 C 91.19 16.18 92.90 19.44 92.94 23.01 C 95.24 20.47 97.40 17.78 99.12 14.81 C 99.33 13.04 99.37 11.26 99.52 9.49 C 101.38 11.97 103.25 14.45 104.90 17.08 C 108.08 19.23 111.21 21.47 114.40 23.60 C 117.42 25.59 119.40 29.11 123.10 30.00 C 121.48 32.04 118.41 34.63 116.00 32.34 C 115.32 32.86 114.63 33.38 113.94 33.89 C 111.28 32.29 108.20 32.35 105.20 32.25 C 102.43 31.77 99.64 31.24 96.81 31.26 C 95.18 32.05 95.29 34.24 94.60 35.73 C 94.53 34.99 94.40 33.52 94.34 32.78 C 92.16 35.21 89.97 37.62 87.95 40.18 C 90.05 39.64 92.13 38.98 94.19 38.28 C 93.21 39.66 92.27 41.08 91.41 42.54 C 90.05 42.57 88.70 42.50 87.35 42.49 C 87.73 45.69 88.08 48.99 87.04 52.11 C 84.85 50.93 85.04 48.02 83.80 46.11 C 82.74 44.52 82.33 42.71 82.82 40.84 C 80.52 40.64 78.41 39.12 76.06 39.74 C 69.56 40.62 62.86 40.40 56.50 42.15 C 54.53 43.24 52.56 41.74 50.67 41.23 C 50.34 44.86 50.80 49.84 46.53 51.29 C 46.47 51.84 46.36 52.93 46.30 53.47 C 45.18 51.39 43.64 49.56 42.54 47.48 C 42.28 44.91 42.77 42.33 42.65 39.75 C 43.93 38.99 45.22 38.23 46.42 37.34 C 45.00 37.75 43.67 38.48 42.20 38.68 C 40.84 38.19 39.61 37.43 38.31 36.80 C 38.52 38.51 38.76 40.22 38.91 41.94 C 36.84 41.34 34.82 40.58 32.66 40.36 C 31.91 43.96 28.39 45.81 26.96 49.11 C 26.28 48.29 25.61 47.47 24.94 46.64 C 22.03 50.24 17.01 51.19 13.97 54.68 C 13.06 54.31 12.15 53.95 11.24 53.59 C 9.09 56.66 5.34 57.03 1.99 57.81 C 1.75 57.29 1.25 56.27 1.01 55.75 C 5.23 53.66 9.71 52.16 13.71 49.63 C 13.43 48.62 13.16 47.60 12.89 46.59 C 14.18 47.06 15.44 47.63 16.79 47.94 C 19.04 46.87 17.37 44.16 17.64 42.28 C 18.88 42.34 20.11 42.41 21.34 42.51 C 21.34 41.29 21.33 40.07 21.40 38.86 C 22.75 38.49 24.14 38.16 25.37 37.46 C 26.84 36.45 26.82 34.14 28.31 33.28 C 29.53 33.84 30.57 34.71 31.58 35.57 C 29.78 31.90 32.94 29.10 34.06 25.88 C 34.46 18.49 40.34 13.15 45.57 8.64 M 87.15 19.26 C 85.56 22.22 90.52 19.52 87.15 19.26 M 112.79 25.88 C 113.50 27.57 114.28 29.23 115.04 30.90 C 116.59 30.64 117.87 29.77 118.98 28.71 C 116.87 27.87 114.84 26.86 112.79 25.88 M 38.40 32.02 C 39.03 32.87 39.81 33.57 40.75 34.11 C 40.75 32.00 40.98 29.83 40.18 27.82 C 39.49 29.18 38.90 30.58 38.40 32.02 Z" />
</g>
</svg>
