<?xml version="1.0" encoding="UTF-8" ?>
<!DOCTYPE svg PUBLIC "-//W3C//DTD SVG 1.1//EN" "http://www.w3.org/Graphics/SVG/1.1/DTD/svg11.dtd">
<svg width="200pt" height="200pt" viewBox="0 0 200 200" version="1.1" xmlns="http://www.w3.org/2000/svg">
<g id="#000000ff">
<path fill="#000000" opacity="1.00" d=" M 156.79 66.25 C 159.99 63.21 158.13 56.91 163.16 55.43 C 163.61 58.06 163.81 60.74 164.74 63.27 C 166.03 60.69 166.94 57.35 170.35 57.10 C 170.63 62.99 171.14 68.89 170.47 74.78 C 163.32 73.43 156.26 75.73 149.10 75.78 C 145.92 76.64 143.66 73.97 141.77 71.87 C 141.47 66.58 141.74 61.25 143.82 56.31 C 146.30 58.11 147.88 60.73 149.22 63.42 C 149.85 61.60 150.45 59.77 151.08 57.94 C 152.18 57.61 153.27 57.25 154.36 56.87 C 156.21 59.66 156.81 62.95 156.79 66.25 M 151.24 70.04 C 147.49 69.76 147.02 65.36 144.66 63.15 C 144.64 66.67 144.80 70.19 144.53 73.71 C 150.57 71.99 156.96 72.57 163.02 70.98 C 164.65 70.51 166.34 70.47 168.02 70.46 C 167.76 68.51 167.57 66.54 167.30 64.59 C 166.44 65.69 165.62 66.82 164.80 67.95 C 164.12 67.68 162.76 67.15 162.09 66.88 C 162.73 66.43 164.02 65.54 164.67 65.09 C 163.39 64.49 162.15 63.81 160.93 63.11 C 160.70 66.12 158.32 68.12 156.69 70.44 C 156.00 70.15 155.32 69.87 154.64 69.59 C 154.19 67.32 153.65 65.08 153.09 62.84 C 152.29 65.19 151.68 67.60 151.24 70.04 Z" />
<path fill="#000000" opacity="1.00" d=" M 108.65 61.20 C 106.90 58.22 111.28 57.16 112.99 58.96 C 118.14 63.03 120.86 69.33 123.73 75.07 C 124.93 73.05 126.94 73.60 128.83 74.09 C 128.62 75.01 128.41 75.93 128.20 76.85 C 125.97 76.41 123.76 75.88 121.51 75.55 C 123.61 78.55 127.71 78.50 130.99 78.75 C 130.46 78.02 129.40 76.54 128.87 75.81 C 132.68 74.52 136.15 77.46 139.52 78.83 C 139.44 79.41 139.26 80.58 139.18 81.16 C 136.39 80.48 133.96 78.92 131.75 77.16 C 130.84 79.59 133.67 80.37 135.04 81.72 C 134.41 82.01 133.75 82.21 133.07 82.33 C 125.75 82.10 118.44 82.46 111.13 82.80 C 109.90 82.30 108.73 81.69 107.61 80.97 C 107.35 82.54 107.35 84.18 106.86 85.71 C 104.40 87.25 101.31 87.53 98.46 87.62 C 96.69 86.73 96.69 84.95 97.36 83.31 C 100.57 84.57 103.64 82.62 105.58 80.15 C 102.48 81.39 99.61 83.37 96.11 82.92 C 93.18 86.95 87.64 86.85 83.49 88.95 C 82.37 84.90 87.17 83.73 90.22 83.23 C 90.41 82.94 90.78 82.36 90.96 82.06 C 86.47 83.71 82.12 85.71 77.70 87.54 C 75.18 88.64 72.32 88.31 69.84 89.53 C 68.36 90.35 67.01 89.07 65.76 88.45 C 66.75 89.53 67.76 90.60 68.78 91.66 C 64.82 93.10 61.36 95.52 57.52 97.19 C 55.85 98.28 54.26 96.76 52.70 96.24 C 51.83 97.45 50.86 98.56 49.86 99.67 C 50.76 98.98 51.57 97.98 52.82 98.06 C 53.64 98.69 54.43 99.33 55.20 100.01 C 58.76 98.06 62.81 96.41 66.92 96.65 C 68.15 96.60 69.27 96.00 70.45 95.69 C 68.42 97.48 65.30 98.21 64.06 100.71 C 66.10 100.32 68.09 99.73 70.02 99.00 C 71.26 101.09 72.92 102.86 74.71 104.50 C 72.99 105.35 71.35 106.35 69.67 107.28 C 67.98 107.43 66.22 107.37 64.75 108.36 C 65.53 108.51 67.09 108.81 67.87 108.96 C 66.92 110.63 66.20 112.45 67.04 114.33 C 67.71 112.60 68.12 110.69 69.23 109.17 C 73.37 106.96 77.95 105.88 82.31 104.21 C 84.45 108.34 78.89 108.58 76.89 110.86 C 80.22 110.63 82.62 107.84 86.07 107.90 C 85.77 108.95 85.47 109.99 85.16 111.04 C 81.89 110.95 79.29 112.75 76.65 114.40 C 74.25 114.70 71.80 114.71 69.43 114.18 C 69.30 115.37 69.15 116.55 68.98 117.73 C 67.87 117.82 66.76 117.93 65.66 118.07 C 67.13 118.27 68.61 118.35 70.09 118.54 C 70.00 117.04 71.23 116.09 72.12 115.07 C 72.63 116.31 73.13 117.57 73.61 118.83 C 75.58 116.71 78.55 116.36 81.03 115.12 C 84.42 113.64 88.11 113.02 91.80 113.28 C 91.44 115.58 91.29 117.89 91.62 120.20 C 91.44 119.43 91.07 117.89 90.89 117.11 C 88.99 117.79 87.16 118.62 85.29 119.36 C 86.13 117.42 87.18 115.59 88.20 113.75 C 87.59 114.04 86.36 114.62 85.75 114.91 C 85.49 116.86 84.94 118.76 83.78 120.39 C 84.34 120.41 85.45 120.46 86.00 120.49 C 85.10 121.64 84.18 122.78 83.26 123.92 C 81.41 122.37 79.49 120.90 77.61 119.37 C 75.93 119.80 74.23 120.18 72.51 120.40 C 72.20 125.85 68.25 129.62 65.06 133.62 C 64.57 133.48 63.60 133.21 63.11 133.07 C 64.49 129.31 66.83 126.03 69.33 122.95 C 68.52 122.43 67.78 121.83 66.98 121.31 C 65.44 124.74 63.34 127.88 60.94 130.77 C 57.28 130.23 53.26 128.83 51.05 125.82 C 51.63 122.37 54.70 120.02 56.14 116.91 C 53.53 114.73 50.39 113.31 47.76 111.17 C 44.57 108.46 44.90 103.97 43.52 100.35 C 42.29 100.94 41.05 101.51 39.80 102.07 C 40.22 101.09 40.64 100.12 41.06 99.14 C 42.11 99.56 43.16 99.98 44.21 100.40 C 44.76 97.78 45.62 95.25 46.39 92.70 C 44.99 90.78 42.92 92.54 41.08 92.23 C 39.31 91.80 37.64 91.05 36.06 90.18 C 36.10 90.73 36.18 91.82 36.22 92.37 C 34.67 91.06 33.05 89.77 31.08 89.13 C 31.34 92.47 34.92 93.30 37.43 94.54 C 37.47 95.32 37.55 96.87 37.58 97.65 C 34.86 97.16 32.13 96.76 29.39 96.34 C 29.42 94.89 29.43 93.44 29.61 92.00 C 30.36 89.73 32.80 87.46 31.28 84.99 C 30.65 85.55 29.38 86.65 28.74 87.20 C 29.80 85.31 30.80 83.35 30.61 81.10 C 26.70 82.14 26.53 87.21 25.55 90.50 C 23.98 95.32 29.08 98.14 30.87 101.99 C 31.32 101.64 32.21 100.93 32.65 100.58 C 32.61 101.12 32.53 102.22 32.49 102.77 C 34.51 101.93 36.54 101.14 38.53 100.24 C 38.60 100.54 38.75 101.15 38.82 101.46 C 35.03 102.05 31.40 103.52 27.52 103.60 C 25.18 107.78 23.48 112.22 22.26 116.85 C 24.26 115.02 26.49 113.01 25.58 109.99 C 30.80 106.51 36.88 104.87 42.81 103.05 C 43.04 103.58 43.50 104.62 43.73 105.15 C 42.49 106.41 41.54 108.03 39.93 108.88 C 33.50 112.52 26.18 115.62 21.80 121.86 C 24.75 122.18 27.72 122.23 30.68 122.53 C 29.99 118.97 33.16 116.58 35.51 114.51 C 38.44 112.32 41.48 109.88 45.21 109.34 C 45.71 109.76 46.72 110.62 47.23 111.05 C 41.54 114.59 36.27 118.69 31.51 123.42 C 28.10 127.33 21.93 125.30 18.64 122.26 C 18.03 119.85 19.43 117.52 19.27 115.10 C 19.30 109.72 21.95 104.73 25.35 100.70 C 23.98 98.92 22.43 97.17 21.81 94.95 C 21.21 90.81 22.35 86.66 23.81 82.82 C 24.72 80.58 25.69 77.97 28.10 76.94 C 32.64 77.58 36.54 80.17 40.07 82.92 C 44.15 85.90 48.93 89.34 48.88 94.97 C 51.71 92.31 54.63 89.39 58.57 88.53 C 61.00 88.20 62.48 86.26 63.99 84.56 C 58.79 85.25 53.26 84.39 48.57 82.04 C 51.54 77.28 51.77 71.07 56.08 67.13 C 62.08 63.27 69.81 61.83 76.55 64.58 C 76.63 65.17 76.78 66.33 76.85 66.92 C 72.33 65.98 67.72 66.99 63.19 66.34 C 61.23 68.02 58.82 69.27 57.49 71.57 C 63.09 72.58 68.78 74.01 73.63 77.09 C 74.91 76.82 76.17 76.48 77.42 76.07 C 73.53 73.26 68.34 72.62 64.87 69.14 C 66.86 69.19 68.86 69.35 70.83 69.65 C 74.50 72.14 78.23 74.85 82.71 75.58 C 86.46 78.16 90.90 76.08 94.22 73.84 C 89.80 74.18 85.39 75.26 80.95 74.48 C 82.70 70.90 87.34 72.51 90.48 71.25 C 92.55 70.37 94.75 70.99 96.75 71.74 C 94.41 69.02 92.33 65.97 89.04 64.29 C 88.96 66.46 89.91 68.80 88.84 70.84 C 88.57 70.77 88.03 70.64 87.76 70.57 C 85.80 67.57 81.89 67.65 78.85 66.46 C 80.28 65.76 81.69 65.02 83.09 64.27 C 83.58 64.91 84.56 66.19 85.06 66.83 C 86.07 64.57 85.88 60.94 88.97 60.52 C 93.72 62.30 96.57 66.81 100.24 70.02 C 100.86 70.09 102.08 70.24 102.70 70.31 C 100.34 66.37 96.20 64.05 93.13 60.74 C 92.61 59.18 94.24 57.20 95.80 58.48 C 100.53 61.70 104.70 65.76 108.44 70.09 C 108.30 70.49 108.02 71.30 107.88 71.70 C 105.38 71.75 102.86 71.36 100.40 71.93 C 102.35 72.15 104.22 72.64 105.95 73.55 C 107.73 73.52 109.38 72.85 111.09 72.46 C 114.01 72.64 116.85 73.71 119.80 73.58 C 116.31 69.23 112.64 64.73 110.81 59.40 C 110.10 60.01 109.38 60.61 108.65 61.20 M 55.06 73.94 C 55.04 74.62 54.99 75.99 54.96 76.67 C 58.33 76.27 61.93 78.05 65.02 76.13 C 61.77 75.13 58.41 74.54 55.06 73.94 M 110.57 73.42 C 111.31 74.88 112.14 76.30 113.16 77.59 C 112.77 78.06 112.40 78.52 112.02 78.99 C 113.27 79.33 114.52 79.70 115.77 80.08 C 115.65 79.28 115.54 78.48 115.42 77.69 C 116.09 77.22 117.42 76.28 118.09 75.81 C 115.44 75.40 112.72 75.24 110.57 73.42 M 65.71 75.86 C 66.51 76.84 68.23 77.36 68.21 78.82 C 66.72 79.73 64.98 80.65 63.21 79.99 C 60.11 79.27 56.92 79.23 53.78 79.70 C 57.25 81.85 61.56 81.45 65.45 81.08 C 67.35 80.27 68.96 78.94 70.73 77.89 C 69.03 77.28 67.39 76.52 65.71 75.86 M 94.24 79.20 C 92.97 80.68 95.66 81.62 96.44 80.34 C 97.70 78.86 95.00 77.83 94.24 79.20 M 117.23 80.15 C 117.91 80.82 117.91 80.82 117.23 80.15 M 32.47 82.21 C 34.74 86.49 39.60 88.12 43.22 90.97 C 40.11 87.54 36.53 84.47 32.47 82.21 M 104.35 84.15 C 104.86 87.55 107.05 82.32 104.35 84.15 M 64.25 90.21 C 64.89 90.85 64.89 90.85 64.25 90.21 M 59.31 92.10 C 57.96 92.78 57.91 93.43 59.18 94.05 C 60.58 93.35 60.63 92.70 59.31 92.10 M 61.08 100.07 C 59.92 101.54 62.53 102.56 63.45 101.47 C 64.56 100.12 61.92 98.95 61.08 100.07 M 54.74 102.03 C 54.33 103.40 54.83 103.92 56.23 103.58 C 56.63 102.19 56.14 101.67 54.74 102.03 M 66.43 104.09 C 66.05 105.47 66.57 105.93 67.99 105.49 C 68.37 104.12 67.86 103.66 66.43 104.09 M 48.22 105.11 C 46.60 107.99 51.60 105.31 48.22 105.11 M 61.21 108.23 C 61.79 108.87 61.79 108.87 61.21 108.23 M 50.94 109.17 C 50.51 110.51 51.02 110.96 52.47 110.52 C 52.87 109.15 52.36 108.70 50.94 109.17 M 61.16 110.41 C 59.63 113.32 64.59 110.47 61.16 110.41 M 71.57 111.27 C 71.01 112.89 71.54 113.47 73.16 113.03 C 73.75 111.43 73.22 110.84 71.57 111.27 M 82.22 116.27 C 82.89 116.94 82.89 116.94 82.22 116.27 M 60.11 118.24 C 57.76 121.02 55.17 123.72 53.77 127.13 C 56.87 125.07 58.26 121.20 61.79 119.68 C 61.69 122.67 59.61 124.90 58.53 127.54 C 60.67 125.82 62.37 123.65 64.37 121.79 C 63.35 120.17 61.72 119.18 60.11 118.24 M 79.60 117.98 C 78.63 119.38 81.14 120.46 82.07 119.47 C 83.08 118.06 80.52 116.89 79.60 117.98 Z" />
<path fill="#000000" opacity="1.00" d=" M 100.87 59.19 C 105.63 58.26 108.71 62.52 111.03 65.96 C 111.76 66.91 111.55 68.17 111.65 69.29 C 111.03 69.43 109.80 69.71 109.18 69.85 C 107.89 65.16 103.19 63.10 100.87 59.19 Z" />
<path fill="#000000" opacity="1.00" d=" M 140.47 78.15 C 143.56 79.33 145.17 82.45 147.96 84.08 C 154.41 88.53 160.68 93.30 165.87 99.22 C 165.42 100.45 164.91 101.66 164.41 102.88 C 165.30 104.34 167.41 105.85 166.46 107.77 C 162.95 111.80 159.22 115.65 155.49 119.48 C 152.00 121.20 148.87 123.84 145.04 124.75 C 143.40 125.14 139.55 124.35 141.72 122.09 C 143.74 121.14 146.24 120.86 147.66 118.96 C 145.18 119.83 142.93 121.20 140.54 122.25 C 140.88 123.32 141.23 124.39 141.57 125.46 C 136.26 127.39 130.60 127.82 125.13 129.17 C 122.82 129.77 118.70 128.70 118.25 131.95 C 120.78 131.43 123.37 129.96 125.79 131.70 C 121.55 138.63 114.97 143.51 109.77 149.63 C 107.19 149.38 104.57 149.27 102.16 148.22 C 101.76 142.74 106.69 139.74 109.30 135.60 C 110.75 133.71 113.40 132.51 113.38 129.79 C 108.64 134.50 102.62 138.59 100.21 145.06 C 99.10 143.96 98.24 142.67 97.49 141.32 C 98.89 139.40 99.99 137.28 101.34 135.33 C 103.20 133.40 105.50 131.92 107.17 129.80 C 102.97 129.87 98.79 129.36 94.68 128.45 C 94.54 130.03 94.42 131.63 94.26 133.21 C 90.20 132.89 88.85 136.84 87.02 139.64 C 86.29 139.21 84.84 138.34 84.11 137.90 C 85.64 134.94 87.89 132.45 89.66 129.65 C 90.57 129.62 92.38 129.56 93.29 129.53 C 92.75 128.77 91.67 127.24 91.13 126.47 C 85.71 127.70 85.27 134.44 81.98 138.11 C 81.00 137.10 80.05 136.05 79.13 134.99 C 76.72 136.62 73.98 137.77 71.02 137.68 C 70.54 137.18 69.57 136.20 69.08 135.70 C 69.52 135.09 69.97 134.49 70.42 133.89 C 69.59 133.50 68.76 133.11 67.94 132.72 C 70.59 129.39 73.27 124.98 78.12 125.27 C 76.29 124.77 74.46 124.26 72.64 123.72 C 70.86 121.22 74.31 121.39 75.84 121.44 C 78.69 121.22 81.06 123.26 83.63 124.18 C 80.91 127.74 76.29 129.39 74.41 133.72 C 74.95 133.95 75.50 134.19 76.04 134.42 C 77.65 130.36 84.00 129.73 83.92 124.78 C 85.66 125.38 87.39 125.99 89.11 126.61 C 90.12 125.89 91.12 125.14 92.10 124.37 C 97.06 125.88 102.49 124.62 107.29 126.91 C 107.32 125.69 107.36 124.48 107.40 123.27 C 110.83 122.22 114.96 121.97 117.32 125.23 C 115.75 124.91 114.23 124.44 112.70 123.98 C 113.59 125.48 114.60 126.95 114.94 128.70 C 115.18 126.04 118.18 126.16 120.18 126.06 C 123.73 125.35 127.36 125.20 130.97 125.42 C 133.68 125.59 135.93 123.80 138.37 122.91 C 135.59 120.46 132.61 118.24 129.41 116.38 C 129.25 113.54 130.54 110.86 130.26 108.03 C 130.05 104.81 130.63 101.57 131.88 98.61 C 133.06 96.92 135.38 97.59 137.12 97.30 C 135.41 99.94 132.58 103.94 135.31 106.72 C 135.31 106.07 135.31 104.76 135.30 104.11 C 136.69 104.39 137.99 104.06 139.11 103.20 C 139.17 108.27 139.91 113.45 142.48 117.90 C 149.95 114.71 156.15 109.08 163.72 106.17 C 162.61 104.01 162.52 101.55 161.62 99.33 C 159.10 94.81 153.75 93.24 150.05 89.93 C 146.86 86.92 143.15 84.46 140.39 81.01 C 140.41 80.29 140.45 78.87 140.47 78.15 M 135.26 106.78 C 135.40 109.23 135.33 111.73 135.79 114.15 C 136.94 116.22 138.56 118.00 139.86 119.97 C 140.56 119.72 141.97 119.22 142.68 118.97 C 140.82 117.92 138.60 116.41 138.52 114.06 C 138.62 111.25 136.59 109.06 135.26 106.78 M 154.22 114.16 C 152.83 114.82 152.76 115.48 154.03 116.13 C 155.45 115.44 155.51 114.78 154.22 114.16 M 148.23 117.91 C 148.61 121.26 151.08 116.22 148.23 117.91 M 108.63 125.06 C 108.08 126.61 111.93 127.89 112.05 125.86 C 111.74 124.38 109.64 124.29 108.63 125.06 M 114.39 131.30 C 114.40 133.37 114.43 135.45 114.52 137.52 C 111.19 140.16 107.10 142.67 105.72 146.90 C 106.20 146.81 107.16 146.63 107.64 146.54 C 111.58 142.47 115.61 138.47 119.55 134.38 C 118.48 133.00 117.63 131.46 117.60 129.67 C 116.53 130.23 115.46 130.76 114.39 131.30 Z" />
<path fill="#000000" opacity="1.00" d=" M 135.20 91.06 C 136.29 89.86 138.19 91.80 137.42 93.02 C 136.34 94.22 134.46 92.26 135.20 91.06 Z" />
<path fill="#000000" opacity="1.00" d=" M 150.89 97.23 C 151.90 96.59 152.88 95.87 153.96 95.35 C 156.46 95.89 158.59 97.31 160.49 98.96 C 159.87 101.38 157.58 103.14 155.03 102.70 C 152.72 101.82 152.11 99.14 150.89 97.23 Z" />
<path fill="#000000" opacity="1.00" d=" M 40.97 96.46 C 42.43 96.11 42.96 96.60 42.56 97.95 C 41.14 98.28 40.61 97.79 40.97 96.46 Z" />
<path fill="#000000" opacity="1.00" d=" M 38.19 97.07 C 41.13 95.47 38.54 100.48 38.19 97.07 Z" />
<path fill="#000000" opacity="1.00" d=" M 97.39 105.28 C 96.63 101.45 100.07 96.97 104.07 97.48 C 108.16 97.08 111.81 99.13 115.46 100.65 C 117.51 101.37 118.77 103.20 119.96 104.91 C 113.45 103.10 107.25 100.25 100.56 99.07 C 100.87 100.30 101.18 101.54 101.49 102.78 C 100.84 103.79 100.22 104.83 99.62 105.87 C 99.07 105.72 97.95 105.43 97.39 105.28 Z" />
<path fill="#000000" opacity="1.00" d=" M 100.95 104.80 C 101.84 102.32 104.52 103.52 106.44 103.69 C 109.74 104.46 113.76 105.08 114.94 108.78 C 109.99 108.59 105.54 106.39 100.95 104.80 Z" />
<path fill="#000000" opacity="1.00" d=" M 100.07 107.39 C 103.20 109.62 107.10 110.67 110.93 110.48 C 109.50 111.37 108.08 112.26 106.70 113.21 C 110.31 113.28 113.85 112.04 117.48 112.67 C 116.12 114.00 114.63 115.17 113.07 116.23 C 113.89 116.32 115.54 116.49 116.37 116.58 C 115.86 119.04 112.82 118.47 110.99 118.65 C 107.44 118.46 103.75 118.15 100.58 116.44 C 99.36 114.54 98.50 112.42 98.08 110.20 C 98.76 109.28 99.43 108.35 100.07 107.39 Z" />
<path fill="#000000" opacity="1.00" d=" M 103.30 121.24 C 104.89 121.65 103.39 123.82 102.20 123.33 C 100.52 122.86 102.11 120.86 103.30 121.24 Z" />
<path fill="#000000" opacity="1.00" d=" M 131.28 121.18 C 132.79 120.24 133.55 122.77 131.91 123.05 C 130.31 123.90 129.65 121.58 131.28 121.18 Z" />
<path fill="#000000" opacity="1.00" d=" M 115.57 133.94 C 117.00 133.48 117.51 133.96 117.11 135.36 C 115.68 135.80 115.17 135.32 115.57 133.94 Z" />
</g>
</svg>
