<?xml version="1.0" encoding="UTF-8" ?>
<!DOCTYPE svg PUBLIC "-//W3C//DTD SVG 1.1//EN" "http://www.w3.org/Graphics/SVG/1.1/DTD/svg11.dtd">
<svg width="200pt" height="200pt" viewBox="0 0 200 200" version="1.1" xmlns="http://www.w3.org/2000/svg">
<g id="#000000ff">
<path fill="#000000" opacity="1.00" d=" M 131.55 28.01 C 131.43 26.31 133.33 25.95 134.58 26.33 C 137.38 29.31 139.30 32.98 141.98 36.05 C 143.44 37.85 145.72 39.16 146.03 41.65 C 137.75 46.11 131.15 53.06 123.07 57.77 C 121.35 56.51 118.97 56.12 117.74 54.27 C 115.29 50.91 112.82 47.56 110.41 44.17 C 110.97 43.43 111.53 42.68 112.07 41.93 C 115.08 42.89 118.08 43.90 121.07 44.93 C 120.15 41.54 118.63 38.30 118.26 34.78 C 119.35 34.58 120.45 34.40 121.55 34.23 C 123.28 36.69 125.49 38.72 127.51 40.92 C 126.84 37.28 124.87 33.92 125.25 30.12 C 125.94 29.93 127.31 29.54 127.99 29.34 C 129.47 31.05 130.88 32.83 132.56 34.34 C 132.23 32.23 131.72 30.15 131.55 28.01 M 136.72 35.98 C 136.66 37.76 136.69 39.54 136.77 41.32 C 136.08 41.53 134.69 41.94 134.00 42.14 C 132.71 40.75 131.46 39.33 130.15 37.97 C 130.44 40.31 132.51 43.52 129.71 45.12 C 127.80 46.70 126.15 43.69 124.63 42.86 C 124.64 44.92 125.95 47.12 125.00 49.08 C 122.14 50.46 119.35 47.93 116.69 47.11 C 118.40 49.68 120.16 52.23 122.07 54.66 C 127.45 48.99 134.42 45.25 140.21 40.10 C 139.20 38.59 138.17 37.08 136.72 35.98 Z" />
<path fill="#000000" opacity="1.00" d=" M 156.92 49.00 C 164.06 45.82 172.31 49.42 179.23 45.45 C 179.88 46.73 181.55 48.05 180.66 49.61 C 177.24 58.34 172.62 67.20 164.85 72.80 C 161.77 70.64 158.61 68.60 155.44 66.57 C 152.63 64.66 152.38 60.93 151.56 57.93 C 152.56 57.63 153.58 57.36 154.60 57.12 C 155.19 59.14 155.55 61.36 157.01 62.98 C 158.34 65.06 160.97 65.26 162.96 66.42 C 165.82 65.42 168.97 64.16 170.29 61.19 C 171.32 58.72 172.87 56.58 174.92 54.85 C 173.17 54.39 171.64 55.68 170.03 56.10 C 170.33 54.28 171.04 52.59 172.01 51.02 C 169.64 50.84 167.27 50.53 164.90 50.56 C 161.01 51.56 157.40 53.67 153.32 53.86 C 151.92 56.10 149.83 57.73 147.53 58.99 C 148.38 63.72 152.43 67.73 151.57 72.72 C 154.86 72.51 158.13 72.21 161.27 71.17 C 163.21 73.57 160.80 76.59 158.04 76.18 C 155.00 76.05 151.28 77.80 148.85 75.19 C 145.74 72.23 146.88 66.80 144.11 63.95 C 138.34 65.21 133.79 69.04 128.72 71.81 C 124.73 74.15 120.54 76.14 116.78 78.85 C 116.38 77.81 115.90 76.81 115.36 75.84 C 115.61 76.46 116.10 77.71 116.35 78.33 C 110.27 83.33 103.83 87.90 97.55 92.66 C 96.50 94.63 94.81 95.91 92.77 96.73 C 90.72 99.22 89.04 102.24 86.16 103.87 C 87.68 100.39 90.13 97.54 92.76 94.86 C 92.38 94.44 91.62 93.61 91.24 93.19 C 89.46 96.99 85.06 98.29 83.18 101.94 C 83.23 102.34 83.32 103.14 83.37 103.54 C 80.55 102.84 78.07 104.10 76.71 106.59 C 74.98 106.58 73.25 106.50 71.53 106.22 C 75.14 104.18 78.68 102.01 81.27 98.68 C 82.01 99.26 82.75 99.82 83.51 100.36 C 83.55 99.81 83.63 98.69 83.67 98.14 C 86.07 97.65 87.35 95.55 89.05 94.03 C 93.47 91.44 99.64 89.80 100.98 84.16 C 97.87 86.43 94.13 87.68 91.18 90.18 C 87.07 93.52 81.99 95.49 78.27 99.31 C 74.50 102.06 70.93 105.08 67.01 107.63 C 66.18 107.43 64.51 107.03 63.67 106.82 C 64.74 107.51 65.74 108.29 66.68 109.14 C 64.42 109.56 62.16 109.99 60.00 110.78 C 59.62 109.26 59.61 107.68 59.42 106.12 C 58.66 107.08 57.91 108.05 57.18 109.03 C 56.74 107.71 56.30 106.40 55.85 105.10 C 52.75 106.77 49.45 108.98 45.81 108.78 L 44.89 108.01 C 49.59 103.18 56.69 103.36 62.92 103.19 C 67.25 101.00 70.79 97.56 74.62 94.62 C 81.93 89.14 89.33 83.71 97.38 79.36 C 107.21 74.43 116.53 68.60 125.78 62.70 C 131.19 59.24 138.01 59.61 143.61 56.62 C 145.91 55.34 148.38 54.41 150.93 53.76 C 153.80 53.43 153.91 49.25 156.92 49.00 M 117.30 73.18 C 116.64 74.08 117.35 76.44 118.70 75.91 C 119.23 75.02 118.63 72.65 117.30 73.18 M 121.23 73.02 C 121.18 76.42 124.19 71.57 121.23 73.02 M 112.24 76.92 C 112.50 80.27 115.17 75.33 112.24 76.92 M 102.34 82.02 C 102.03 83.46 102.55 83.99 103.90 83.62 C 104.18 82.21 103.66 81.67 102.34 82.02 M 94.37 93.00 C 93.83 94.45 94.26 94.91 95.67 94.39 C 96.22 92.94 95.79 92.48 94.37 93.00 M 61.98 106.23 C 60.68 106.20 59.85 108.73 61.55 108.71 C 62.69 108.64 63.55 106.26 61.98 106.23 Z" />
<path fill="#000000" opacity="1.00" d=" M 159.48 54.90 C 160.36 54.05 161.29 52.79 162.63 53.61 C 164.50 53.93 163.78 56.13 163.49 57.36 C 162.56 57.35 161.63 57.33 160.70 57.31 C 160.40 56.71 159.79 55.50 159.48 54.90 Z" />
<path fill="#000000" opacity="1.00" d=" M 135.97 71.18 C 137.08 69.98 138.15 68.74 139.25 67.53 C 139.72 68.15 140.66 69.37 141.13 69.98 C 141.42 69.25 142.01 67.77 142.30 67.04 C 143.16 67.31 144.03 67.58 144.89 67.84 C 143.61 69.47 142.63 71.61 140.42 72.10 C 136.88 73.11 134.23 75.68 131.23 77.65 C 130.56 76.54 129.88 75.44 129.19 74.36 C 128.75 75.06 127.87 76.46 127.43 77.16 C 127.78 77.97 128.13 78.78 128.47 79.60 C 124.92 80.68 121.71 82.56 118.29 83.93 C 118.51 82.16 120.48 81.87 121.49 80.68 C 123.78 77.61 127.50 76.18 129.81 73.11 C 131.89 72.56 134.21 72.61 135.97 71.18 Z" />
<path fill="#000000" opacity="1.00" d=" M 162.34 88.87 C 157.71 86.66 154.97 79.51 159.99 76.21 C 163.32 79.24 163.69 84.80 162.34 88.87 Z" />
<path fill="#000000" opacity="1.00" d=" M 150.24 78.21 C 150.83 78.82 150.83 78.82 150.24 78.21 Z" />
<path fill="#000000" opacity="1.00" d=" M 153.08 78.03 C 153.68 78.20 154.89 78.53 155.49 78.69 C 156.38 81.69 154.84 84.72 155.35 87.77 C 155.39 90.49 155.75 94.15 159.07 94.72 C 159.74 93.33 160.38 91.93 161.02 90.53 C 163.61 91.28 162.37 93.78 161.62 95.52 C 159.94 97.63 156.80 98.42 154.23 98.03 C 150.97 97.26 151.83 93.29 151.24 90.80 C 150.46 90.18 149.68 89.56 148.92 88.92 C 138.60 96.06 128.54 103.59 117.73 110.00 C 117.62 114.72 116.74 119.33 116.09 123.98 C 115.64 131.18 105.17 135.23 100.49 129.21 C 102.24 125.68 103.75 122.00 106.16 118.86 C 106.43 117.44 106.61 116.01 106.82 114.59 C 101.56 118.36 96.89 122.95 91.37 126.38 C 87.52 128.80 84.03 131.74 80.20 134.19 C 79.38 134.83 78.28 134.67 77.32 134.83 C 76.62 135.90 75.87 136.94 75.10 137.96 C 76.46 139.67 77.95 141.62 77.53 143.95 C 75.63 149.33 70.23 152.60 64.93 153.90 C 63.12 154.35 61.32 155.50 59.42 154.78 C 58.54 149.73 60.74 144.90 61.60 140.01 C 61.11 139.61 60.11 138.80 59.62 138.40 C 56.66 139.53 53.55 140.27 50.68 141.60 C 48.74 143.49 46.88 145.48 44.97 147.42 C 43.80 147.04 42.61 146.72 41.41 146.44 C 42.49 147.59 43.93 148.24 45.29 148.99 C 42.88 155.86 36.49 160.15 30.27 163.28 C 28.50 163.95 26.55 163.41 24.71 163.39 C 23.45 161.41 23.73 159.15 24.20 156.97 C 24.94 155.07 22.63 153.38 23.65 151.57 C 25.45 148.02 27.44 144.55 28.54 140.68 C 26.98 142.73 25.30 144.69 23.57 146.61 C 19.82 147.38 16.54 145.47 13.24 144.04 C 9.90 142.15 6.75 139.95 4.63 136.67 C 4.96 135.96 5.28 135.25 5.59 134.53 C 12.73 134.60 20.17 133.90 26.58 130.54 C 30.06 128.95 33.97 128.90 37.70 128.46 C 39.91 130.62 39.38 127.27 39.18 125.90 C 37.78 125.58 36.06 125.63 35.16 124.28 C 35.92 123.38 36.68 122.49 37.47 121.61 C 36.48 121.16 35.54 120.64 34.64 120.04 C 39.59 118.51 44.30 116.36 48.91 114.00 C 43.23 115.16 38.07 117.90 32.62 119.78 C 31.16 120.48 29.55 120.45 28.04 119.93 C 28.60 116.58 30.93 113.32 34.18 112.13 C 34.65 113.07 35.12 114.01 35.60 114.95 C 35.48 113.65 35.40 112.35 35.35 111.05 C 36.64 110.70 37.92 110.34 39.21 109.97 C 41.07 112.36 38.35 113.62 36.66 114.86 C 42.34 112.96 47.84 110.12 53.83 109.39 C 53.72 110.93 54.27 112.35 55.12 113.60 C 56.23 113.52 57.33 113.47 58.43 113.44 C 57.80 115.36 55.95 115.95 54.12 115.60 C 52.57 118.13 50.87 120.68 48.32 122.30 C 45.82 124.17 42.37 124.66 40.62 127.47 C 42.22 127.12 43.80 126.72 45.39 126.38 C 45.36 127.07 45.31 128.45 45.28 129.14 C 38.81 130.44 32.90 133.69 26.19 133.87 C 26.30 134.27 26.54 135.08 26.65 135.48 C 29.09 135.10 31.51 134.66 33.93 134.25 C 33.36 135.83 32.73 137.40 32.20 139.00 C 31.54 138.94 30.22 138.82 29.56 138.76 C 30.92 139.19 32.35 139.37 33.76 139.58 C 33.44 142.47 30.59 143.94 29.20 146.26 C 31.89 144.57 34.38 142.11 34.79 138.81 C 36.11 139.55 37.45 140.26 38.82 140.93 C 37.24 145.61 32.23 147.69 28.53 150.46 C 28.04 152.90 27.48 155.33 27.23 157.81 C 27.98 157.51 28.73 157.21 29.47 156.91 C 29.41 155.50 29.12 154.04 29.54 152.65 C 31.42 151.17 33.17 149.54 34.82 147.81 C 36.91 145.34 40.37 145.30 43.17 144.13 C 45.75 141.69 47.76 138.32 51.33 137.19 C 55.64 135.35 61.39 134.09 65.03 137.94 C 65.92 137.80 67.71 137.53 68.61 137.40 C 69.07 142.76 63.79 145.91 63.15 150.86 C 67.73 148.99 68.13 143.09 70.23 139.18 C 74.27 134.45 79.61 131.19 84.53 127.50 C 90.76 121.62 97.82 116.52 105.50 112.69 C 109.78 111.50 113.63 109.22 117.10 106.47 C 117.46 106.70 118.16 107.16 118.52 107.39 C 118.49 106.84 118.44 105.74 118.41 105.19 C 122.37 102.60 126.45 100.17 130.05 97.10 C 134.24 94.30 138.78 91.98 142.58 88.63 C 145.19 86.80 147.96 85.16 150.86 83.83 C 151.53 81.87 152.26 79.93 153.08 78.03 M 110.10 113.20 C 108.85 113.95 108.82 114.70 110.03 115.45 C 111.24 114.67 111.27 113.92 110.10 113.20 M 109.57 116.57 C 107.83 120.71 106.53 125.04 104.24 128.93 C 105.18 128.38 106.50 128.11 106.87 126.94 C 108.69 123.42 109.88 119.63 111.00 115.85 C 110.64 116.03 109.93 116.39 109.57 116.57 M 73.26 143.33 C 72.03 143.98 70.86 145.73 71.35 147.13 C 72.87 147.62 74.70 144.08 73.26 143.33 M 35.19 150.22 C 35.82 150.86 35.82 150.86 35.19 150.22 M 28.09 159.10 C 26.76 159.80 26.73 160.48 28.00 161.12 C 29.35 160.38 29.38 159.70 28.09 159.10 Z" />
<path fill="#000000" opacity="1.00" d=" M 40.36 109.31 C 41.08 108.87 42.51 107.99 43.22 107.55 C 43.92 107.96 45.34 108.77 46.04 109.18 C 44.76 110.53 42.91 111.02 41.30 111.85 C 41.07 111.22 40.60 109.95 40.36 109.31 Z" />
<path fill="#000000" opacity="1.00" d=" M 58.84 116.53 C 59.46 117.13 60.11 117.71 60.78 118.27 C 61.93 117.63 63.09 117.01 64.28 116.46 C 61.28 118.92 56.56 119.63 55.48 123.86 C 55.05 123.70 54.19 123.36 53.76 123.20 C 55.64 121.12 57.16 118.77 58.84 116.53 Z" />
<path fill="#000000" opacity="1.00" d=" M 49.83 122.74 C 50.66 121.66 51.98 121.29 53.21 120.84 C 53.39 122.44 53.54 124.05 53.72 125.66 C 51.10 127.12 48.85 129.65 45.57 129.36 C 44.71 126.16 48.09 124.74 49.83 122.74 Z" />
</g>
</svg>
