<?xml version="1.0" encoding="UTF-8" ?>
<!DOCTYPE svg PUBLIC "-//W3C//DTD SVG 1.1//EN" "http://www.w3.org/Graphics/SVG/1.1/DTD/svg11.dtd">
<svg width="180pt" height="180pt" viewBox="0 0 180 180" version="1.1" xmlns="http://www.w3.org/2000/svg">
<g id="#000000ff">
<path fill="#000000" opacity="1.00" d=" M 68.92 42.30 C 69.58 41.95 70.24 41.60 70.90 41.25 C 72.87 45.38 74.08 49.77 74.93 54.27 C 77.07 51.78 77.77 48.51 78.79 45.48 C 80.05 45.43 81.32 45.40 82.58 45.31 C 83.68 50.52 84.94 55.70 85.68 60.98 C 85.82 62.81 85.11 64.56 84.34 66.18 C 81.50 61.87 82.04 56.59 81.11 51.75 C 77.61 52.97 78.49 58.22 74.95 59.73 C 72.20 55.97 72.33 51.16 71.14 46.84 C 68.78 50.37 67.14 54.30 66.09 58.40 C 64.62 58.51 63.16 58.61 61.70 58.73 C 62.19 54.08 58.00 50.47 58.02 45.79 C 57.47 46.11 56.38 46.77 55.84 47.09 C 54.27 51.43 52.34 55.62 50.64 59.90 C 49.60 59.79 48.55 59.69 47.51 59.57 C 46.24 58.09 44.92 56.63 43.47 55.31 C 44.53 60.05 44.68 65.03 46.59 69.54 C 57.28 67.31 68.22 66.31 79.05 64.81 C 81.10 64.97 83.46 65.70 84.47 67.67 C 81.33 67.46 78.17 67.31 75.04 67.78 C 69.38 69.06 63.54 69.19 57.84 70.24 C 54.39 70.40 50.91 70.92 47.47 70.29 C 47.38 71.03 47.20 72.52 47.11 73.27 C 42.26 73.70 41.27 68.32 39.61 64.91 C 40.61 62.91 42.41 64.32 43.92 64.75 C 41.91 59.62 39.96 54.37 39.04 48.93 C 40.33 49.10 41.44 49.77 42.15 50.88 C 44.30 53.58 46.75 56.02 49.33 58.30 C 51.38 52.86 53.22 47.31 56.50 42.45 C 56.81 42.44 57.41 42.42 57.71 42.41 C 60.01 47.43 62.42 52.47 63.95 57.79 C 64.85 56.45 65.76 55.10 66.73 53.80 C 65.81 52.86 64.90 51.91 64.02 50.94 C 65.87 48.16 68.95 45.94 68.92 42.30 Z" />
<path fill="#000000" opacity="1.00" d=" M 125.02 59.71 C 130.12 55.80 134.87 51.37 139.99 47.49 C 140.58 47.52 141.77 47.59 142.36 47.62 C 141.42 50.05 139.32 51.69 137.42 53.36 C 132.83 57.45 128.31 61.62 123.67 65.67 C 121.81 67.40 120.31 69.61 117.94 70.70 C 115.92 73.36 113.23 75.37 110.78 77.60 C 109.88 77.44 108.99 77.29 108.09 77.14 C 109.50 77.96 109.50 79.46 109.44 80.89 C 113.39 82.25 116.98 85.54 116.54 90.07 C 117.94 94.52 120.11 98.87 121.90 103.24 C 122.68 108.17 123.97 112.98 124.79 117.90 C 126.21 121.66 124.82 125.84 126.46 129.52 C 125.45 129.94 124.43 130.36 123.42 130.78 C 124.12 132.44 124.80 134.12 125.57 135.75 C 124.65 135.58 123.73 135.41 122.81 135.24 C 122.90 136.17 122.04 137.49 123.01 138.14 C 124.96 138.58 126.88 139.13 128.84 139.49 C 132.31 138.91 135.51 137.29 138.99 136.71 C 147.08 135.55 155.20 134.55 163.22 132.98 C 165.53 132.46 167.84 133.09 170.06 133.71 C 169.32 134.81 168.59 135.92 167.88 137.03 C 168.62 136.21 169.35 135.38 170.07 134.54 C 171.99 134.64 173.94 134.50 175.85 134.83 C 177.11 136.29 177.44 138.30 178.15 140.05 C 175.10 141.04 172.15 142.71 168.86 142.62 C 163.19 143.00 157.66 144.60 151.97 144.79 C 150.00 144.78 148.40 146.10 146.64 146.80 C 137.43 146.39 128.17 147.18 119.01 145.85 C 114.39 145.76 109.77 145.05 105.15 145.40 C 107.16 147.66 109.21 149.90 111.23 152.15 C 112.49 152.91 111.52 154.26 110.79 154.94 C 108.61 153.33 106.78 151.31 104.55 149.77 C 105.55 152.20 107.91 153.52 109.69 155.29 C 111.80 157.33 113.88 159.44 116.41 160.97 C 114.85 158.82 112.75 157.15 110.95 155.23 C 111.60 155.09 112.90 154.83 113.55 154.70 C 117.19 159.08 120.97 163.34 124.37 167.92 C 123.42 169.29 122.52 170.70 121.70 172.15 C 119.26 171.63 117.50 169.84 115.86 168.09 C 110.87 163.53 105.86 158.96 101.17 154.08 C 99.21 155.99 97.05 157.78 94.33 158.43 C 91.58 158.92 89.99 161.30 87.80 162.76 C 87.62 161.13 87.47 159.49 87.34 157.86 C 84.43 159.00 81.84 160.83 78.89 161.91 C 77.60 161.38 76.58 160.37 75.45 159.59 C 74.17 158.48 72.50 159.93 71.13 160.07 C 72.16 158.79 73.17 157.50 74.23 156.25 C 74.72 156.77 75.69 157.79 76.18 158.31 C 76.84 156.60 76.50 154.84 76.13 153.11 C 81.27 148.64 88.99 148.71 93.56 143.38 C 92.98 143.47 91.84 143.65 91.27 143.74 C 89.58 142.12 87.94 140.40 87.08 138.18 C 86.01 140.15 84.82 142.05 83.77 144.03 C 83.70 143.26 83.57 141.72 83.50 140.94 C 81.34 142.66 78.69 142.94 76.04 142.56 C 76.56 141.09 77.12 139.65 77.74 138.22 C 78.88 138.95 80.05 139.63 81.25 140.27 C 80.30 139.27 79.28 138.34 78.27 137.39 C 79.17 135.66 80.07 133.92 80.86 132.13 C 77.25 128.37 73.72 124.53 69.84 121.05 C 68.59 123.00 67.34 125.10 67.75 127.52 C 67.09 127.20 66.43 126.89 65.77 126.57 C 64.91 127.70 63.98 128.77 63.04 129.84 C 64.32 129.83 65.60 129.83 66.87 129.83 C 65.24 131.89 63.97 134.20 63.16 136.71 C 61.71 135.44 60.18 134.23 59.43 132.40 C 59.52 133.18 59.71 134.74 59.81 135.52 C 59.07 134.97 57.60 133.88 56.87 133.34 C 57.22 133.79 57.91 134.69 58.26 135.14 C 56.94 137.32 55.58 139.51 53.57 141.13 C 55.07 141.33 56.57 141.54 58.08 141.73 C 55.53 144.25 52.60 146.82 52.71 150.74 C 51.36 151.59 50.00 152.42 48.67 153.31 C 52.32 153.82 56.01 153.35 59.67 153.72 C 61.09 152.51 62.49 151.25 63.90 150.01 C 64.55 150.28 65.21 150.55 65.87 150.82 C 69.10 149.78 71.76 147.81 74.26 145.57 C 74.98 145.51 76.43 145.38 77.15 145.32 C 75.40 150.75 69.27 151.91 65.40 155.32 C 59.96 157.49 54.48 159.69 49.98 163.54 C 46.27 162.51 50.36 158.75 51.73 157.12 C 48.67 159.48 45.00 160.79 41.66 162.68 C 41.42 162.02 40.95 160.70 40.71 160.05 C 42.19 159.16 43.68 158.30 45.14 157.40 C 42.09 156.45 39.72 158.80 38.19 161.15 C 36.78 163.47 34.36 164.76 32.30 166.41 C 33.11 166.37 34.74 166.30 35.56 166.26 C 32.40 169.03 30.61 173.32 26.77 175.25 C 28.40 172.42 30.59 169.99 32.59 167.43 C 26.67 166.63 26.77 176.82 20.92 176.08 C 21.21 174.80 21.55 173.49 22.45 172.48 C 27.80 164.92 33.35 157.50 38.98 150.15 C 37.19 150.29 35.45 150.74 33.75 151.34 C 34.11 150.61 34.46 149.90 34.81 149.18 C 36.62 149.65 38.58 150.22 40.22 148.94 C 39.26 148.17 38.29 147.42 37.31 146.70 C 40.45 144.92 43.97 143.58 46.34 140.72 C 43.71 141.22 41.17 142.11 38.59 142.78 C 37.71 139.53 42.07 140.06 44.05 139.08 C 50.52 137.19 51.70 129.14 57.70 126.58 C 60.71 123.03 63.93 119.48 66.14 115.37 C 65.62 115.47 64.58 115.65 64.06 115.74 C 63.35 117.25 62.54 118.77 60.84 119.32 C 60.47 116.93 61.93 114.96 62.93 112.95 C 58.10 107.37 53.30 101.75 48.88 95.84 C 47.18 97.83 45.41 99.77 43.73 101.79 C 43.60 103.09 43.57 104.40 43.51 105.72 C 44.28 105.79 45.82 105.93 46.59 106.00 C 45.40 106.25 44.19 106.40 42.98 106.54 C 42.35 107.75 41.69 108.94 41.02 110.12 C 40.39 109.15 39.76 108.19 39.12 107.23 C 34.96 106.58 31.80 109.46 28.29 111.12 C 23.93 112.89 22.68 119.01 17.48 119.11 C 17.54 118.35 17.64 116.82 17.69 116.05 C 17.18 116.40 16.16 117.08 15.64 117.42 C 16.02 120.72 12.43 121.86 10.87 124.24 C 10.17 126.50 9.64 128.81 9.05 131.11 C 10.56 132.59 12.12 134.01 13.67 135.44 C 11.76 136.52 9.78 137.47 7.84 138.50 C 6.96 137.73 6.14 136.90 5.39 136.02 C 5.69 134.02 7.38 132.79 8.89 131.69 C 6.95 125.37 10.89 119.32 14.51 114.46 C 18.85 110.98 24.17 108.27 29.83 108.13 C 34.12 107.51 37.25 104.37 40.38 101.67 C 42.61 98.73 44.23 95.34 46.82 92.66 C 39.66 83.50 33.37 73.68 27.18 63.85 C 28.02 63.37 28.85 62.88 29.68 62.39 C 31.47 64.93 33.27 67.45 35.09 69.97 C 37.27 71.06 39.54 71.98 41.72 73.09 C 44.49 76.49 46.57 80.37 49.06 83.95 C 47.65 80.22 45.38 76.90 43.52 73.39 C 44.97 73.37 46.42 73.36 47.87 73.36 C 50.63 77.03 52.46 81.28 55.33 84.87 C 58.56 83.37 61.91 82.04 64.64 79.69 C 70.23 75.15 77.63 73.35 84.70 73.19 C 83.55 74.43 82.10 75.51 80.32 75.39 C 72.86 75.50 67.38 81.26 61.43 84.95 C 61.58 86.14 61.73 87.34 61.89 88.53 C 61.31 88.85 60.15 89.49 59.57 89.81 C 60.53 91.10 61.47 92.42 62.31 93.79 C 65.33 93.53 68.22 92.58 71.21 92.13 C 68.73 93.72 65.95 94.66 62.99 94.70 C 66.07 98.44 68.06 103.76 72.70 105.76 C 72.29 104.56 71.82 103.38 71.35 102.21 C 72.60 100.89 73.87 99.59 75.11 98.25 C 75.75 99.41 76.41 100.56 77.05 101.71 C 81.70 99.77 84.20 95.09 87.73 91.73 C 91.19 87.20 96.25 83.89 98.45 78.47 C 101.96 76.82 104.76 74.17 107.27 71.27 C 113.26 65.71 118.96 59.84 125.05 54.40 C 125.69 54.69 126.97 55.28 127.61 55.57 C 126.73 56.94 125.81 58.28 125.02 59.71 M 120.10 63.24 C 118.49 66.13 123.51 63.40 120.10 63.24 M 101.49 83.13 C 101.54 84.33 101.63 85.53 101.71 86.73 C 98.66 89.82 95.53 92.82 92.87 96.26 C 93.50 94.20 94.30 92.20 94.88 90.13 C 91.53 93.47 88.19 96.81 85.08 100.37 C 85.33 101.56 85.60 102.74 85.88 103.92 C 84.66 105.58 83.45 107.29 82.97 109.33 C 85.12 108.04 86.83 106.19 88.57 104.42 C 88.83 104.85 89.36 105.70 89.62 106.13 C 88.15 107.94 86.35 109.47 84.88 111.30 C 83.95 110.87 83.03 110.45 82.11 110.04 C 79.95 110.95 78.72 112.82 78.10 115.01 C 80.15 114.13 81.81 112.17 84.18 112.27 C 82.87 113.90 81.38 115.36 79.83 116.76 C 80.96 117.81 82.06 118.88 83.15 119.97 C 85.38 118.42 87.61 116.87 89.96 115.51 C 88.11 114.19 86.07 113.20 83.73 113.64 C 84.42 112.83 85.10 112.02 85.78 111.20 C 86.91 111.87 88.04 112.55 89.16 113.25 C 90.69 111.86 92.65 111.36 94.57 110.80 C 92.44 112.47 91.01 114.65 91.49 117.46 C 88.94 119.06 85.32 119.97 84.94 123.52 C 86.57 122.70 88.10 121.68 89.70 120.80 C 88.99 122.23 88.24 123.63 87.39 124.98 C 88.13 126.03 88.88 127.07 89.65 128.11 C 90.19 125.83 90.52 123.38 92.34 121.72 C 92.49 123.66 92.14 125.66 92.59 127.58 C 94.17 129.80 95.03 132.37 96.00 134.90 C 98.65 138.09 101.40 141.21 104.15 144.33 C 105.16 142.21 106.45 140.18 107.10 137.91 C 107.16 134.91 107.52 131.91 108.34 129.02 C 109.80 125.98 104.19 123.09 108.04 120.88 C 108.90 122.99 109.74 125.11 110.92 127.07 C 110.29 127.98 109.66 128.88 109.03 129.79 C 109.97 130.21 110.93 130.59 111.90 130.96 C 112.62 129.98 113.32 128.99 114.01 128.00 C 115.32 129.42 116.86 130.57 118.47 131.63 C 117.56 131.21 115.75 130.36 114.84 129.94 C 115.63 131.93 116.62 133.83 117.60 135.73 C 119.05 134.85 120.56 134.06 122.17 133.52 C 122.32 131.14 123.35 129.05 124.61 127.08 C 123.77 125.49 123.13 123.81 123.31 121.98 C 123.62 119.66 121.22 118.19 121.26 115.90 C 120.43 109.26 119.75 102.12 115.37 96.70 C 113.69 94.80 114.21 91.55 111.71 90.30 C 109.85 89.18 108.49 87.50 107.25 85.76 C 105.29 84.96 103.28 84.28 101.49 83.13 M 58.49 86.12 C 55.61 87.59 59.45 89.69 60.60 87.51 C 61.78 86.01 59.52 84.86 58.49 86.12 M 59.05 95.30 C 61.33 101.87 65.49 107.66 70.66 112.28 C 70.40 110.95 70.19 109.59 69.72 108.31 C 66.15 103.98 62.92 99.39 59.05 95.30 M 82.49 102.45 C 80.84 103.23 82.16 105.65 83.62 104.30 C 85.40 103.55 83.94 101.08 82.49 102.45 M 20.21 114.78 C 19.27 115.49 18.95 116.37 19.26 117.44 C 21.00 118.52 22.81 113.87 20.21 114.78 M 74.80 115.25 C 74.68 116.16 74.55 117.08 74.36 117.99 C 76.89 118.83 78.11 121.42 79.80 123.29 C 82.03 126.71 84.73 129.77 87.13 133.06 C 87.52 132.21 87.91 131.37 88.31 130.52 C 86.29 129.68 84.00 128.85 82.98 126.75 C 80.66 122.61 76.99 119.45 74.80 115.25 M 13.26 119.27 C 13.87 119.87 13.87 119.87 13.26 119.27 M 61.42 131.10 C 61.68 134.54 64.23 129.36 61.42 131.10 M 110.91 133.40 C 110.12 134.69 112.17 136.41 113.39 135.94 C 113.86 134.72 112.19 132.76 110.91 133.40 M 82.43 134.19 C 80.81 134.49 80.70 137.30 82.23 137.78 C 83.56 137.42 84.03 134.47 82.43 134.19 M 108.43 135.40 C 107.86 136.50 108.12 138.41 109.43 138.86 C 111.34 138.52 110.19 134.60 108.43 135.40 M 119.30 136.18 C 117.93 136.91 117.91 137.55 119.23 138.12 C 120.62 137.37 120.64 136.72 119.30 136.18 M 173.49 138.20 C 173.07 139.53 173.58 140.03 175.03 139.68 C 175.44 138.35 174.92 137.86 173.49 138.20 M 111.19 139.22 C 110.77 140.79 113.46 142.36 114.83 141.71 C 115.41 139.97 112.59 138.72 111.19 139.22 M 44.89 152.22 C 46.73 151.70 48.58 151.21 50.45 150.78 C 49.11 147.17 52.40 144.59 54.20 141.91 C 49.93 144.18 47.97 148.73 44.89 152.22 M 40.17 146.15 C 40.84 146.83 40.84 146.83 40.17 146.15 M 81.23 154.33 C 80.26 154.93 79.28 155.51 78.30 156.08 C 78.48 156.58 78.85 157.57 79.04 158.07 C 80.78 157.23 82.52 156.38 84.20 155.42 C 83.21 155.05 82.22 154.69 81.23 154.33 M 89.38 155.15 C 88.44 155.37 86.84 156.30 87.62 157.44 C 89.13 159.13 92.40 154.60 89.38 155.15 M 77.01 158.31 C 76.54 159.62 77.05 160.08 78.53 159.69 C 79.01 158.34 78.50 157.88 77.01 158.31 Z" />
<path fill="#000000" opacity="1.00" d=" M 85.62 74.29 C 89.82 73.80 93.49 76.27 97.43 77.29 C 97.34 77.70 97.17 78.52 97.08 78.93 C 96.78 79.19 96.19 79.72 95.89 79.98 C 92.14 79.02 87.93 77.59 85.62 74.29 Z" />
<path fill="#000000" opacity="1.00" d=" M 77.08 78.25 C 80.53 78.39 75.47 81.16 77.08 78.25 Z" />
<path fill="#000000" opacity="1.00" d=" M 68.23 87.22 C 70.60 86.33 69.44 90.04 67.76 89.86 C 66.32 89.60 67.32 87.55 68.23 87.22 Z" />
<path fill="#000000" opacity="1.00" d=" M 64.26 89.45 C 65.35 88.99 67.36 90.98 65.66 91.45 C 64.52 91.25 63.31 91.99 62.25 91.48 C 61.78 90.34 63.35 89.56 64.26 89.45 Z" />
<path fill="#000000" opacity="1.00" d=" M 85.93 102.48 C 87.30 99.69 89.26 97.09 92.05 95.59 C 91.35 98.77 88.46 100.76 85.93 102.48 Z" />
<path fill="#000000" opacity="1.00" d=" M 88.37 109.90 C 91.36 108.40 88.30 113.38 88.37 109.90 Z" />
<path fill="#000000" opacity="1.00" d=" M 27.14 117.57 C 28.36 115.51 30.22 113.98 31.96 112.39 C 35.96 113.13 36.65 117.30 37.47 120.63 C 36.53 119.55 35.67 118.42 34.84 117.26 C 32.27 117.30 29.70 117.38 27.14 117.57 Z" />
<path fill="#000000" opacity="1.00" d=" M 83.11 115.26 C 85.05 114.54 85.03 117.36 83.28 117.45 C 81.26 118.46 81.46 115.43 83.11 115.26 Z" />
<path fill="#000000" opacity="1.00" d=" M 15.47 129.57 C 14.22 126.14 18.55 122.46 21.75 124.16 C 22.67 128.20 18.37 128.92 15.47 129.57 Z" />
<path fill="#000000" opacity="1.00" d=" M 95.35 123.63 C 98.02 122.46 96.23 128.68 94.34 127.27 C 94.02 125.89 94.35 124.68 95.35 123.63 Z" />
<path fill="#000000" opacity="1.00" d=" M 18.17 139.84 C 21.04 139.52 23.82 138.58 26.63 137.91 C 26.60 138.44 26.53 139.51 26.49 140.05 C 30.41 140.84 34.41 140.81 38.39 140.66 C 37.56 142.04 36.61 143.33 35.59 144.58 C 32.14 144.69 28.73 144.01 25.49 142.85 C 25.71 143.66 26.15 145.26 26.37 146.07 C 24.18 144.36 21.60 145.34 19.13 145.54 C 15.36 143.88 9.74 142.92 9.43 137.80 C 12.72 136.60 15.38 138.48 18.17 139.84 Z" />
<path fill="#000000" opacity="1.00" d=" M 58.19 139.13 C 59.18 138.63 61.21 138.98 61.20 140.34 C 60.05 141.35 55.15 141.00 58.19 139.13 Z" />
<path fill="#000000" opacity="1.00" d=" M 65.59 158.42 C 67.08 158.68 68.23 157.99 69.11 156.82 C 69.63 157.90 70.13 158.99 70.60 160.09 C 66.36 160.63 62.14 161.35 57.88 161.68 C 60.00 159.77 62.60 158.04 65.59 158.42 Z" />
</g>
</svg>
