<?xml version="1.0" encoding="UTF-8" ?>
<!DOCTYPE svg PUBLIC "-//W3C//DTD SVG 1.1//EN" "http://www.w3.org/Graphics/SVG/1.1/DTD/svg11.dtd">
<svg width="128pt" height="64pt" viewBox="0 0 128 64" version="1.1" xmlns="http://www.w3.org/2000/svg">
<g id="#000000ff">
<path fill="#000000" opacity="1.00" d=" M 67.89 8.83 C 71.02 7.61 74.00 6.08 77.05 4.69 C 77.57 4.99 78.63 5.58 79.15 5.87 C 77.95 6.92 76.70 7.91 75.46 8.92 C 77.64 10.65 79.79 12.43 82.05 14.07 C 84.53 12.82 87.10 11.59 89.96 11.65 C 89.68 13.34 89.32 15.01 88.94 16.67 C 91.44 16.21 93.96 15.21 96.50 16.02 C 96.42 19.08 96.47 22.21 97.89 25.00 C 99.43 24.64 100.96 24.25 102.50 23.86 C 102.39 26.49 102.50 29.12 102.90 31.73 C 104.17 31.87 105.44 32.02 106.70 32.19 C 106.59 33.53 106.46 34.86 106.39 36.19 C 108.53 36.40 110.68 36.52 112.83 36.62 C 114.91 40.44 119.18 41.40 123.17 41.78 C 123.34 42.26 123.68 43.23 123.85 43.72 C 120.40 43.39 116.73 43.04 113.83 45.34 C 108.96 44.07 104.13 42.32 99.05 42.19 C 95.42 41.45 92.45 38.93 88.92 37.82 C 88.50 41.17 88.37 44.54 88.33 47.91 C 87.04 52.01 83.44 55.01 79.27 55.98 C 79.24 55.30 79.19 53.96 79.16 53.28 C 80.52 52.27 81.90 51.27 83.19 50.17 C 80.70 50.78 77.78 53.04 75.38 51.02 C 76.64 48.65 79.55 48.21 81.66 46.87 C 81.92 44.03 82.25 41.19 82.58 38.36 C 79.15 38.49 75.72 38.58 72.29 38.53 C 67.00 38.99 62.03 41.02 56.81 41.81 C 55.75 45.03 54.60 48.36 55.52 51.77 C 51.86 53.50 48.58 55.96 44.86 57.55 C 44.39 57.19 43.46 56.47 43.00 56.11 C 44.65 54.44 46.45 52.91 48.06 51.20 C 45.74 51.73 43.48 52.52 41.14 53.02 C 41.20 52.39 41.33 51.14 41.39 50.51 C 43.77 49.56 46.20 48.72 48.68 48.06 C 48.39 45.43 48.24 42.77 47.63 40.19 C 46.51 38.84 44.50 39.88 43.00 39.60 C 40.94 39.88 39.25 38.51 37.44 37.77 C 37.53 36.93 37.63 36.09 37.72 35.26 C 33.66 36.66 29.26 36.88 25.01 36.35 C 21.67 34.96 20.00 31.39 17.06 29.45 C 14.10 29.50 11.13 29.71 8.17 29.64 C 7.84 28.59 7.54 27.53 7.26 26.47 C 10.96 24.16 15.15 22.88 19.23 21.44 C 23.01 21.12 26.85 21.57 30.65 21.33 C 32.72 23.13 34.74 24.99 36.63 26.97 C 35.04 24.64 32.73 22.19 33.43 19.11 C 38.95 13.96 44.92 9.34 51.14 5.06 C 53.36 9.02 58.17 9.58 61.50 12.24 C 61.56 10.81 59.59 10.77 58.80 10.00 C 60.70 8.06 63.19 6.96 65.62 5.86 C 66.37 6.85 67.13 7.84 67.89 8.83 M 23.48 24.64 C 23.51 25.68 23.56 26.72 23.62 27.77 C 25.03 27.61 26.44 27.40 27.84 27.13 C 27.17 25.92 26.49 24.73 25.81 23.54 C 25.03 23.91 24.25 24.27 23.48 24.64 M 76.21 27.05 C 76.14 30.43 79.26 25.59 76.21 27.05 M 31.07 31.28 C 29.68 32.36 31.40 34.72 32.86 33.73 C 34.30 32.71 32.46 30.32 31.07 31.28 Z" />
</g>
</svg>
