<?xml version="1.0" encoding="UTF-8" ?>
<!DOCTYPE svg PUBLIC "-//W3C//DTD SVG 1.1//EN" "http://www.w3.org/Graphics/SVG/1.1/DTD/svg11.dtd">
<svg width="128pt" height="128pt" viewBox="0 0 128 128" version="1.1" xmlns="http://www.w3.org/2000/svg">
<g id="#000000ff">
<path fill="#000000" opacity="1.00" d=" M 3.75 7.73 C 6.14 9.16 7.32 11.75 9.16 13.73 C 12.01 13.97 11.41 10.51 11.80 8.66 C 12.33 8.45 13.39 8.02 13.93 7.81 C 13.73 12.52 12.03 17.64 14.84 21.92 C 16.71 28.74 23.63 31.75 29.04 35.32 C 28.55 31.50 27.18 27.86 26.68 24.04 C 27.22 24.10 28.31 24.21 28.86 24.27 C 30.57 28.46 31.73 33.03 31.63 37.59 C 38.36 40.05 45.34 37.75 52.10 36.90 C 51.89 37.53 51.47 38.78 51.26 39.41 C 48.63 40.43 45.94 41.30 43.44 42.61 C 42.50 48.07 45.55 53.02 49.97 55.95 C 54.24 54.80 58.68 54.53 63.01 53.68 C 66.08 52.96 68.96 54.60 70.93 56.85 C 72.70 56.75 74.42 56.36 76.09 55.76 C 84.06 55.73 92.03 55.73 100.00 55.57 C 102.45 56.31 104.99 56.36 107.51 56.55 C 110.51 59.26 114.46 60.30 118.02 62.04 C 119.61 64.41 121.21 66.76 123.28 68.76 C 124.49 69.76 124.29 71.41 124.24 72.80 C 120.87 77.55 118.90 83.08 116.01 88.10 C 114.50 95.65 118.79 102.66 119.82 109.98 C 120.98 113.48 119.02 116.92 119.44 120.48 C 118.93 120.55 117.90 120.68 117.39 120.74 C 117.48 116.67 117.38 112.60 117.34 108.53 C 116.79 109.00 116.24 109.47 115.70 109.94 C 116.96 112.93 116.27 116.70 113.60 118.68 C 113.00 120.86 112.71 123.10 112.26 125.31 C 111.73 125.44 110.67 125.71 110.14 125.84 C 109.48 120.77 111.52 116.00 112.28 111.17 C 108.99 108.45 106.70 104.88 104.96 101.02 C 101.89 96.98 100.15 92.18 98.12 87.58 C 90.55 91.63 81.27 96.15 72.79 92.12 C 71.43 91.41 69.88 91.52 68.40 91.40 C 67.13 94.38 66.34 97.60 64.27 100.17 C 63.51 106.64 63.82 113.33 61.45 119.52 C 61.02 119.49 60.16 119.44 59.73 119.42 C 59.87 108.52 61.72 97.34 58.56 86.72 C 61.27 85.10 64.15 83.81 66.85 82.18 C 63.66 83.43 60.68 85.13 57.58 86.59 C 58.57 88.96 58.66 91.51 57.85 93.96 C 57.47 102.19 56.83 110.40 56.44 118.62 C 56.38 120.65 52.81 119.71 53.44 117.79 C 53.59 109.24 53.56 100.68 52.79 92.15 C 50.02 90.08 47.41 87.79 44.68 85.66 C 45.47 84.49 46.31 83.36 47.12 82.21 C 46.59 82.67 45.53 83.59 45.00 84.06 C 43.11 82.26 41.30 80.10 38.66 79.44 C 36.99 78.79 35.01 78.74 33.55 77.66 C 29.51 70.32 26.14 61.50 28.95 53.15 C 29.77 53.86 30.60 54.59 31.41 55.31 C 29.55 51.42 29.97 46.95 29.49 42.77 C 26.06 42.33 23.60 39.64 21.66 37.01 C 22.36 35.99 23.06 34.97 23.78 33.96 C 21.04 33.37 18.24 30.29 15.47 32.28 C 13.44 33.40 11.23 34.13 8.98 34.66 C 9.09 31.05 13.09 30.80 15.63 29.46 C 15.70 29.03 15.83 28.18 15.90 27.75 C 14.34 27.56 12.20 27.47 11.50 25.80 C 11.71 23.18 11.81 20.21 9.75 18.22 C 7.55 14.86 2.98 12.27 3.75 7.73 M 13.52 24.27 C 13.11 25.62 13.63 26.11 15.09 25.74 C 15.48 24.38 14.96 23.89 13.52 24.27 M 38.03 46.17 C 40.23 47.49 42.43 44.11 40.81 42.44 C 38.69 42.17 38.76 44.83 38.03 46.17 M 32.23 43.21 C 30.53 43.59 31.22 46.51 32.94 45.98 C 34.65 45.60 33.97 42.64 32.23 43.21 M 30.24 57.23 C 30.81 57.81 30.81 57.81 30.24 57.23 M 66.21 57.20 C 65.73 58.71 66.34 59.19 68.05 58.67 C 68.53 57.11 67.92 56.62 66.21 57.20 M 95.24 83.50 C 93.61 85.11 96.74 86.26 97.55 84.70 C 98.90 83.08 96.07 81.95 95.24 83.50 M 50.05 84.32 C 48.66 85.36 50.50 87.76 51.87 86.79 C 53.12 85.68 51.54 83.20 50.05 84.32 M 74.24 88.23 C 74.81 88.81 74.81 88.81 74.24 88.23 Z" />
<path fill="#000000" opacity="1.00" d=" M 63.96 9.66 C 64.40 10.02 65.29 10.76 65.74 11.12 C 65.42 14.44 64.48 17.66 64.18 20.99 C 68.78 19.88 72.35 16.78 75.27 13.20 C 75.56 13.66 76.14 14.59 76.43 15.06 C 73.71 19.19 69.25 23.61 63.85 22.42 C 63.41 23.12 62.52 24.52 62.08 25.22 C 64.27 25.37 66.98 24.97 67.74 27.66 C 65.68 27.55 63.70 27.00 61.75 26.34 C 59.10 30.28 55.04 32.85 50.63 34.42 C 47.30 35.26 44.27 37.18 40.70 36.73 C 39.39 34.60 38.83 32.06 39.38 29.60 C 39.53 28.12 39.90 25.52 42.07 26.73 C 42.29 29.09 42.17 31.47 42.13 33.84 C 43.87 33.67 45.69 33.96 47.36 33.40 C 49.97 31.05 50.44 27.32 52.37 24.57 C 52.77 24.47 53.57 24.26 53.97 24.16 C 53.95 26.83 52.27 29.23 52.64 31.93 C 55.29 29.74 57.87 27.47 60.68 25.47 C 60.62 24.25 60.14 22.93 60.79 21.78 C 62.70 17.99 63.19 13.76 63.96 9.66 Z" />
<path fill="#000000" opacity="1.00" d=" M 67.80 25.96 C 69.45 25.49 70.04 26.05 69.58 27.66 C 67.93 28.13 67.34 27.56 67.80 25.96 Z" />
</g>
</svg>
