<?xml version="1.0" encoding="UTF-8" ?>
<!DOCTYPE svg PUBLIC "-//W3C//DTD SVG 1.1//EN" "http://www.w3.org/Graphics/SVG/1.1/DTD/svg11.dtd">
<svg width="180pt" height="180pt" viewBox="0 0 180 180" version="1.1" xmlns="http://www.w3.org/2000/svg">
<g id="#000000ff">
<path fill="#000000" opacity="1.00" d=" M 148.76 25.79 C 151.34 24.02 152.99 20.70 156.50 20.72 C 156.79 24.25 153.37 25.89 151.27 28.06 C 147.55 32.11 143.51 35.85 139.26 39.33 C 140.23 45.30 137.27 51.51 139.82 57.23 C 134.18 57.44 128.66 55.56 123.02 55.17 C 121.21 57.34 119.61 59.65 118.33 62.17 C 115.97 63.60 113.41 64.87 111.86 67.27 C 115.55 65.77 119.00 63.48 123.04 63.02 C 125.20 63.88 127.29 65.32 127.65 67.79 C 129.63 67.41 131.65 67.20 133.59 66.63 C 136.34 65.04 138.63 62.78 141.35 61.15 C 143.40 64.89 142.02 69.23 141.05 73.08 C 140.63 75.76 137.68 76.26 136.02 77.93 C 135.45 79.35 135.43 80.92 135.11 82.40 C 135.74 81.81 136.38 81.22 137.02 80.64 C 139.54 82.55 142.01 84.59 144.17 86.92 C 144.81 88.72 144.88 90.67 145.40 92.52 C 146.86 94.77 149.61 96.05 150.36 98.77 C 151.02 101.34 153.98 101.86 155.91 103.17 C 158.88 104.60 159.76 108.36 162.78 109.70 C 164.84 110.37 165.42 112.62 166.55 114.23 C 165.47 113.76 163.30 112.82 162.22 112.34 C 163.12 113.01 164.04 113.65 164.98 114.27 C 164.37 115.23 163.76 116.18 163.17 117.15 C 164.69 116.14 166.20 115.12 167.79 114.23 C 169.08 115.56 170.37 116.89 171.72 118.17 C 169.76 121.95 167.76 125.74 165.26 129.20 C 163.54 131.44 160.58 131.68 158.00 131.13 C 156.13 134.77 152.59 136.99 149.91 139.96 C 148.82 141.15 147.08 141.18 145.63 141.59 C 147.44 138.81 150.16 136.75 151.66 133.76 C 152.79 131.49 155.44 130.76 157.07 128.98 C 157.43 127.56 157.51 126.09 157.73 124.64 C 157.20 125.09 156.13 125.97 155.60 126.42 C 153.85 123.23 156.37 120.13 157.00 117.01 C 155.59 119.53 154.41 122.16 152.97 124.65 C 153.75 125.54 154.52 126.45 155.27 127.37 C 153.39 127.10 151.53 126.69 149.66 126.41 C 151.65 127.37 153.73 128.11 155.75 129.02 C 152.99 130.78 149.82 129.06 147.08 128.11 C 141.76 125.66 135.38 125.22 131.01 120.97 C 133.50 120.35 135.78 121.73 138.08 122.46 C 139.45 118.29 137.06 114.64 135.59 110.93 C 140.97 110.99 143.97 115.92 145.58 120.41 C 145.97 122.10 147.80 122.53 149.04 123.43 C 149.19 117.61 153.44 113.39 157.50 109.78 C 154.55 106.51 149.93 105.27 147.37 101.61 C 145.70 99.02 142.91 97.43 141.30 94.80 C 140.02 93.15 140.50 90.95 140.30 89.02 C 137.91 85.49 133.37 84.21 131.19 80.48 C 133.86 76.38 138.66 73.87 140.14 69.03 C 137.14 71.55 135.33 75.18 132.15 77.52 C 131.35 76.32 130.57 75.12 129.79 73.92 C 132.42 71.96 135.32 70.27 137.47 67.75 C 134.31 69.48 131.16 72.09 127.31 71.62 C 124.68 71.28 122.03 71.09 119.38 71.14 C 121.02 69.51 122.84 68.09 124.78 66.84 C 122.62 67.84 119.25 67.55 118.43 70.27 C 116.15 75.71 115.61 82.44 110.40 86.06 C 109.41 81.22 114.69 76.68 111.91 72.06 C 111.59 71.42 110.96 70.15 110.64 69.51 C 107.78 73.52 106.61 78.39 105.20 83.02 C 107.08 79.32 108.26 75.11 111.39 72.20 C 112.11 76.42 108.56 79.75 108.63 83.88 C 108.47 87.13 106.36 90.11 103.60 91.77 C 103.49 90.76 103.27 88.75 103.17 87.75 C 102.43 88.58 101.71 89.42 100.99 90.25 C 99.16 87.53 98.58 83.70 95.07 82.58 C 95.73 82.30 97.05 81.74 97.71 81.47 C 97.43 80.96 96.87 79.94 96.59 79.43 C 92.58 83.72 89.05 88.44 84.98 92.66 C 85.35 93.38 85.72 94.09 86.09 94.81 C 86.37 92.10 88.56 90.36 90.37 88.58 C 91.71 92.30 87.92 94.90 85.71 97.26 C 89.64 105.79 94.48 113.87 98.89 122.16 C 99.97 124.91 103.14 125.55 105.45 126.91 C 105.39 129.39 105.46 131.91 106.12 134.32 C 106.65 131.07 106.61 127.77 106.89 124.50 C 105.98 124.55 104.16 124.64 103.26 124.68 C 104.55 122.88 106.62 122.44 108.68 122.27 C 108.55 121.71 108.28 120.58 108.14 120.02 C 106.35 120.64 104.58 121.29 102.81 121.93 C 102.93 121.36 103.18 120.23 103.31 119.66 C 108.45 119.00 113.43 117.43 118.66 117.36 C 116.84 121.19 111.42 120.84 109.06 124.40 C 111.98 123.82 114.88 123.12 117.82 122.61 C 117.71 123.77 117.60 124.92 117.49 126.08 C 118.31 125.00 119.10 123.90 119.89 122.79 C 120.58 123.09 121.97 123.67 122.67 123.96 C 122.06 126.19 121.63 128.45 121.20 130.72 C 123.05 128.88 125.14 127.28 127.48 126.11 C 126.10 129.01 123.51 131.60 124.70 135.07 C 126.27 133.44 128.59 132.24 129.07 129.85 C 129.54 127.70 131.61 126.54 133.22 125.28 C 132.11 127.76 130.77 130.14 129.93 132.74 C 131.81 132.27 133.71 131.85 135.61 131.49 C 134.27 133.00 132.72 134.30 131.36 135.79 C 133.56 134.71 135.63 133.38 137.89 132.41 C 137.40 131.15 137.43 129.93 137.98 128.74 C 138.69 130.36 139.23 132.05 139.77 133.73 C 142.40 133.82 144.37 132.32 145.83 130.25 C 147.13 130.58 148.40 130.98 149.66 131.45 C 152.08 133.84 148.91 136.63 147.10 138.21 C 145.84 139.70 144.01 139.22 142.45 138.64 C 140.79 137.88 139.04 138.63 137.32 138.62 C 133.30 137.41 129.28 135.87 125.08 137.24 C 125.23 139.28 126.49 142.05 123.85 143.04 C 122.74 140.28 122.80 137.26 121.80 134.48 C 121.24 136.68 120.89 138.93 120.33 141.12 C 119.64 140.04 118.97 138.94 118.32 137.84 C 118.57 139.91 118.50 142.02 117.65 143.97 C 116.72 142.78 115.83 141.57 114.98 140.33 C 113.84 140.67 112.72 141.05 111.60 141.45 C 109.57 137.63 110.20 133.13 108.95 129.08 C 108.44 133.02 109.88 136.94 109.12 140.88 C 111.11 143.29 113.53 145.26 116.04 147.10 C 115.60 148.33 115.11 149.54 114.63 150.76 C 115.41 152.22 116.15 153.71 116.84 155.22 C 114.45 154.75 112.79 152.95 110.88 151.60 C 113.46 155.23 115.12 159.54 118.52 162.54 C 117.43 159.88 115.55 157.67 114.00 155.29 C 115.27 155.47 116.98 154.91 117.67 156.37 C 121.26 161.96 124.16 168.00 126.88 174.06 C 125.74 175.58 124.89 177.33 123.59 178.74 C 121.93 178.62 121.03 177.03 120.14 175.83 C 115.88 169.11 111.16 162.68 107.13 155.81 C 105.90 153.22 102.90 151.88 102.60 148.82 C 101.29 148.66 99.98 148.52 98.67 148.34 C 97.31 145.86 96.26 143.23 95.29 140.58 C 93.58 137.19 91.31 134.11 89.86 130.58 C 86.58 134.02 83.19 139.73 77.62 138.25 C 77.36 136.76 77.09 135.27 76.70 133.82 C 76.73 136.10 76.82 138.39 77.18 140.65 C 80.47 144.65 83.51 149.03 85.00 154.05 C 80.23 152.37 75.08 153.96 70.24 152.83 C 67.46 151.23 67.89 147.23 66.94 144.48 C 61.20 144.31 55.26 145.17 49.73 143.27 C 45.86 149.92 40.73 155.75 35.07 160.91 C 35.98 160.70 37.79 160.28 38.70 160.06 C 35.23 163.78 33.01 168.83 28.29 171.23 C 30.54 167.90 32.89 164.64 35.64 161.70 C 34.94 161.51 33.54 161.12 32.84 160.93 C 30.59 164.38 28.47 168.00 25.63 171.02 C 25.11 171.13 24.06 171.34 23.54 171.44 C 22.80 167.28 26.84 164.90 28.44 161.50 C 32.77 155.15 37.40 148.98 41.71 142.61 C 37.49 139.84 32.69 137.36 30.16 132.78 C 29.23 130.49 26.56 130.47 24.47 130.37 C 23.29 131.12 22.35 132.17 21.30 133.08 C 22.00 136.66 22.80 140.23 23.30 143.85 C 22.72 143.69 21.57 143.35 20.99 143.18 C 19.59 138.88 17.49 133.99 20.53 129.89 C 19.82 129.50 19.11 129.11 18.41 128.72 C 18.44 133.17 18.26 137.63 18.68 142.07 C 21.50 143.55 23.89 145.66 25.92 148.10 C 22.56 151.05 17.84 148.80 14.35 151.45 C 12.95 147.78 15.17 143.87 13.76 140.19 C 12.01 134.89 11.15 129.35 9.62 123.98 C 9.33 118.19 10.84 112.06 8.43 106.54 C 7.64 104.77 9.02 103.00 8.69 101.20 C 8.61 99.65 8.09 98.08 8.40 96.53 C 13.28 90.72 18.39 84.93 24.93 80.94 C 30.29 77.00 37.03 73.52 43.83 74.60 C 47.37 70.50 51.77 67.25 56.11 64.06 C 51.24 55.06 48.35 45.17 44.05 35.91 C 43.02 32.97 41.48 30.13 41.17 26.99 C 41.78 26.04 42.59 25.81 43.61 26.31 C 45.36 29.44 46.39 32.91 47.92 36.15 C 49.99 37.77 52.08 39.37 54.29 40.80 C 55.94 43.89 56.48 47.53 58.84 50.26 C 57.50 45.54 56.22 40.80 54.60 36.16 C 53.81 33.58 52.87 30.83 53.89 28.17 C 57.83 30.69 57.31 36.00 59.28 39.79 C 61.97 45.35 63.69 51.29 66.19 56.92 C 71.52 56.64 76.90 56.63 81.96 54.76 C 87.39 55.31 92.87 55.20 98.28 55.71 C 100.67 57.97 103.31 59.94 105.83 62.06 C 108.30 59.65 110.67 57.14 112.79 54.41 C 110.94 54.03 109.08 53.72 107.22 53.36 C 107.02 46.24 108.17 39.16 108.93 32.10 C 108.89 30.63 110.35 28.72 111.91 29.53 C 114.01 31.81 114.97 34.84 116.71 37.37 C 118.35 34.95 119.44 32.04 121.97 30.37 C 124.02 32.66 124.68 35.68 125.55 38.54 C 127.41 36.03 128.74 33.12 131.07 30.99 C 131.73 32.00 132.38 33.01 133.03 34.02 C 135.00 31.65 137.15 29.40 139.65 27.58 C 140.15 28.20 141.14 29.44 141.63 30.06 C 139.67 32.08 137.67 34.07 135.82 36.21 C 140.77 33.61 144.45 29.27 148.76 25.79 M 112.20 38.11 C 111.76 42.66 111.98 47.33 110.34 51.68 C 112.06 51.69 113.79 51.70 115.51 51.71 C 118.00 49.11 120.36 46.39 122.91 43.84 C 122.42 41.98 121.93 40.11 121.37 38.26 C 120.27 40.15 119.20 42.05 118.04 43.90 C 115.31 42.87 113.88 40.30 112.20 38.11 M 125.90 52.30 C 129.13 52.99 132.40 53.57 135.69 53.83 C 135.54 49.87 135.20 45.92 135.43 41.96 C 133.56 46.45 129.51 49.30 125.90 52.30 M 126.24 49.16 C 126.89 49.81 126.89 49.81 126.24 49.16 M 117.28 57.27 C 117.92 57.92 117.92 57.92 117.28 57.27 M 68.06 60.97 C 72.56 70.71 77.13 80.42 81.82 90.08 C 86.15 85.60 89.81 80.53 93.90 75.84 C 97.26 72.24 98.74 67.38 101.94 63.66 C 100.14 62.30 98.41 60.82 96.46 59.66 C 91.42 59.61 86.31 58.84 81.30 59.55 C 77.03 60.98 72.47 60.46 68.06 60.97 M 63.23 63.23 C 63.81 63.82 63.81 63.82 63.23 63.23 M 112.62 69.85 C 113.52 71.08 114.42 72.31 115.33 73.53 C 115.52 70.78 116.09 68.12 117.52 65.73 C 115.99 67.23 114.36 68.62 112.62 69.85 M 53.46 72.11 C 55.22 72.22 56.99 72.30 58.76 72.38 C 58.74 71.58 58.71 69.98 58.69 69.17 C 56.93 70.12 55.16 71.06 53.46 72.11 M 69.24 72.24 C 69.88 72.87 69.88 72.87 69.24 72.24 M 46.40 76.96 C 48.08 76.34 49.75 75.71 51.42 75.09 C 50.51 76.58 49.89 78.41 48.27 79.31 C 46.57 80.68 44.85 78.41 43.03 78.49 C 36.92 78.28 31.03 80.75 26.75 85.09 C 20.70 88.34 16.21 93.70 11.59 98.64 C 9.40 103.02 11.41 107.63 12.75 111.90 C 12.32 116.18 12.42 120.48 12.41 124.77 C 13.55 129.32 14.18 133.98 15.35 138.53 C 15.36 134.47 16.96 130.39 15.52 126.40 C 15.29 124.50 13.82 122.27 15.29 120.55 C 16.72 118.84 17.76 116.89 18.51 114.79 C 19.17 116.02 19.80 117.27 20.43 118.52 C 20.83 117.98 21.23 117.45 21.64 116.92 C 20.34 115.63 19.35 114.02 19.66 112.10 C 20.16 108.54 16.96 106.11 15.53 103.15 C 16.33 103.19 17.92 103.28 18.72 103.33 C 20.41 108.51 24.96 112.51 24.64 118.34 C 25.31 116.56 25.98 114.77 26.93 113.11 C 28.40 112.43 30.03 112.22 31.58 111.81 C 29.90 115.68 27.28 119.05 25.70 122.96 C 27.12 121.65 28.97 118.87 30.89 121.13 C 30.53 123.02 29.27 124.62 28.66 126.44 C 31.44 123.50 34.01 120.29 36.03 116.76 C 36.85 116.69 38.47 116.55 39.28 116.48 C 36.50 120.24 32.46 123.40 31.17 128.06 C 31.54 127.97 32.28 127.78 32.65 127.69 C 35.86 123.76 38.13 119.13 41.81 115.58 C 40.50 115.69 39.16 115.78 37.89 115.35 C 38.57 114.31 39.25 113.28 39.93 112.26 C 40.85 112.92 41.77 113.58 42.70 114.23 C 43.52 113.31 44.35 112.39 45.16 111.45 C 46.78 111.78 48.41 111.55 50.02 111.33 C 47.76 114.27 44.89 116.84 43.53 120.38 C 45.44 118.78 47.24 117.04 49.41 115.79 C 45.01 122.10 41.08 128.76 38.30 135.96 C 40.18 136.82 42.08 137.63 43.91 138.59 C 43.31 137.48 42.71 136.38 42.12 135.28 C 45.15 130.73 46.19 125.01 49.72 120.84 C 49.75 125.38 46.14 128.81 45.43 133.20 C 48.73 129.59 51.68 125.61 54.18 121.40 C 55.30 121.51 56.42 121.62 57.55 121.73 C 58.73 119.87 60.05 118.13 61.38 116.38 C 60.31 116.59 59.24 116.80 58.18 117.01 C 57.39 115.76 56.55 114.55 55.74 113.31 C 57.12 112.93 58.50 112.54 59.87 112.15 C 60.97 112.94 62.06 113.76 63.15 114.57 C 66.56 109.53 70.42 104.81 74.17 100.02 C 71.75 96.15 69.78 92.02 67.24 88.24 C 63.01 90.31 59.21 93.26 56.07 96.76 C 57.43 96.40 58.78 96.02 60.12 95.61 C 58.98 98.43 58.20 101.38 57.10 104.21 C 55.86 105.27 54.51 106.18 53.27 107.24 C 54.89 106.97 56.49 106.61 58.10 106.27 C 57.89 107.11 57.68 107.95 57.47 108.80 C 58.26 109.37 59.05 109.95 59.84 110.55 C 58.18 110.93 56.52 111.29 54.87 111.65 C 55.26 110.69 55.66 109.73 56.06 108.77 C 55.35 108.75 53.95 108.71 53.25 108.68 C 52.79 107.37 52.33 106.05 52.03 104.68 C 51.37 104.49 50.05 104.09 49.39 103.89 C 51.09 101.63 53.24 99.77 55.61 98.23 C 55.39 96.76 54.47 95.03 56.01 93.95 C 59.35 91.12 62.49 86.95 67.42 87.54 C 64.58 82.81 62.30 77.76 59.92 72.79 C 57.25 74.76 54.44 76.71 52.74 79.64 C 51.85 81.23 50.13 82.03 48.39 82.32 C 49.58 80.53 51.06 78.98 52.50 77.40 C 52.32 75.98 52.18 74.55 52.06 73.13 C 50.24 74.50 48.27 75.65 46.40 76.96 M 70.25 77.65 C 72.53 83.82 75.52 89.70 78.95 95.30 C 79.90 92.90 79.16 90.27 77.71 88.24 C 74.96 84.18 74.00 79.22 71.11 75.24 C 70.81 76.04 70.53 76.84 70.25 77.65 M 54.23 102.24 C 54.82 102.80 54.82 102.80 54.23 102.24 M 66.21 120.99 C 67.22 122.72 68.31 124.41 69.40 126.10 C 68.45 129.52 67.66 133.23 69.15 136.62 C 71.72 141.23 70.96 146.94 73.62 151.52 C 75.82 150.18 78.32 150.07 80.80 150.52 C 79.00 147.03 76.39 144.00 74.51 140.61 C 74.57 136.92 73.64 133.34 72.99 129.73 C 72.49 125.11 72.87 120.36 71.90 115.80 C 73.54 117.25 73.79 119.38 74.17 121.41 C 74.56 120.63 75.32 119.08 75.70 118.30 C 79.52 119.13 83.25 120.25 86.57 122.36 C 84.82 116.54 80.58 111.80 77.73 106.46 C 73.74 111.18 69.98 116.10 66.21 120.99 M 21.23 112.29 C 19.28 114.89 24.60 112.90 21.23 112.29 M 40.92 118.91 C 38.06 122.55 35.62 126.49 33.16 130.41 C 34.66 131.83 36.10 133.32 37.55 134.80 C 38.83 132.22 40.31 129.56 39.63 126.57 C 38.17 127.65 38.29 131.56 36.05 130.89 C 35.95 130.56 35.77 129.90 35.67 129.57 C 38.48 123.69 42.64 118.62 46.11 113.16 C 43.78 114.46 42.33 116.73 40.92 118.91 M 141.68 116.67 C 141.08 118.86 140.51 121.05 139.80 123.21 C 140.95 123.52 142.10 123.83 143.26 124.14 C 142.79 121.64 142.33 119.13 141.68 116.67 M 111.46 119.25 C 110.04 119.94 109.99 120.58 111.32 121.15 C 112.75 120.45 112.79 119.82 111.46 119.25 M 16.58 120.88 C 15.93 122.35 16.41 124.45 17.41 125.65 C 18.97 125.01 18.47 120.63 16.58 120.88 M 78.52 120.76 C 79.37 122.82 82.00 125.22 84.01 123.01 C 82.20 122.21 80.40 121.38 78.52 120.76 M 42.59 122.21 C 40.89 122.40 39.18 125.29 40.85 126.38 C 41.72 125.63 44.14 122.90 42.59 122.21 M 74.57 122.91 C 74.17 124.33 74.67 124.90 76.04 124.63 C 76.42 123.23 75.93 122.66 74.57 122.91 M 84.12 124.78 C 84.95 125.87 85.78 126.96 86.57 128.10 C 87.89 127.46 89.21 126.81 90.50 126.12 C 88.50 125.19 86.36 124.38 84.12 124.78 M 145.33 123.82 C 144.50 125.18 146.73 126.55 147.76 125.55 C 148.59 124.22 146.34 122.82 145.33 123.82 M 52.51 139.97 C 57.12 140.54 61.78 140.35 66.42 140.31 C 66.49 139.50 66.63 137.88 66.70 137.07 C 65.02 133.11 64.52 128.78 63.01 124.75 C 59.87 130.09 54.88 134.18 52.51 139.97 M 117.53 127.17 C 117.84 130.24 118.15 133.32 118.69 136.37 C 119.50 133.58 119.65 130.66 119.46 127.77 C 118.98 127.62 118.01 127.32 117.53 127.17 M 159.24 128.24 C 159.83 128.81 159.83 128.81 159.24 128.24 M 16.14 145.88 C 16.25 148.80 19.58 147.57 21.46 147.67 C 20.00 146.30 18.05 146.02 16.14 145.88 M 119.15 162.23 C 119.78 162.82 119.78 162.82 119.15 162.23 Z" />
<path fill="#000000" opacity="1.00" d=" M 90.28 87.95 C 91.70 86.63 93.08 85.26 94.50 83.94 C 95.25 86.48 93.48 88.31 92.10 90.18 C 91.64 89.63 90.74 88.51 90.28 87.95 Z" />
<path fill="#000000" opacity="1.00" d=" M 120.30 97.90 C 121.44 95.80 122.81 93.82 124.83 92.49 C 128.03 93.77 131.75 95.24 131.88 99.28 C 127.96 100.50 123.53 100.96 120.30 97.90 Z" />
<path fill="#000000" opacity="1.00" d=" M 115.93 98.76 C 116.39 99.79 116.83 100.82 117.25 101.87 C 117.93 101.38 118.61 100.88 119.28 100.38 C 119.21 102.81 120.93 105.42 123.51 105.55 C 126.19 106.07 128.73 104.45 131.43 104.71 C 129.47 106.35 127.26 107.66 125.36 109.38 C 126.15 109.73 127.73 110.44 128.51 110.79 C 126.43 112.54 124.45 114.42 122.35 116.15 C 121.55 115.12 120.74 114.12 119.91 113.13 C 121.94 111.04 123.85 108.85 125.91 106.79 C 123.28 106.74 120.65 106.71 118.02 106.82 C 116.90 104.26 116.17 101.55 115.93 98.76 M 123.24 112.35 C 123.84 112.92 123.84 112.92 123.24 112.35 Z" />
<path fill="#000000" opacity="1.00" d=" M 29.57 111.84 C 30.71 110.15 31.33 107.31 33.91 107.55 C 33.39 109.89 32.21 111.78 29.57 111.84 Z" />
<path fill="#000000" opacity="1.00" d=" M 121.47 116.86 C 124.35 116.64 126.15 114.08 128.55 112.76 C 126.79 116.77 125.78 121.24 122.86 124.63 C 122.80 121.97 122.19 119.40 121.47 116.86 Z" />
<path fill="#000000" opacity="1.00" d=" M 31.34 117.97 C 31.87 116.77 32.41 115.59 32.98 114.41 C 34.15 114.38 36.49 114.31 37.66 114.28 C 36.35 116.04 34.96 117.75 33.75 119.59 C 33.15 119.18 31.94 118.37 31.34 117.97 Z" />
<path fill="#000000" opacity="1.00" d=" M 129.17 123.33 C 130.72 123.83 129.07 125.85 127.95 125.46 C 126.36 124.88 127.97 122.91 129.17 123.33 Z" />
<path fill="#000000" opacity="1.00" d=" M 134.29 128.22 C 136.09 127.17 136.01 129.80 134.59 130.14 C 132.88 131.26 132.79 128.44 134.29 128.22 Z" />
</g>
</svg>
