<?xml version="1.0" encoding="UTF-8" ?>
<!DOCTYPE svg PUBLIC "-//W3C//DTD SVG 1.1//EN" "http://www.w3.org/Graphics/SVG/1.1/DTD/svg11.dtd">
<svg width="200pt" height="200pt" viewBox="0 0 200 200" version="1.1" xmlns="http://www.w3.org/2000/svg">
<g id="#000000ff">
<path fill="#000000" opacity="1.00" d=" M 131.19 22.84 C 131.93 22.51 133.39 21.85 134.12 21.52 C 136.92 23.48 139.59 25.63 141.58 28.44 C 144.68 32.53 149.55 35.48 151.07 40.58 C 149.46 40.51 147.86 40.38 146.26 40.20 C 140.59 45.66 133.71 49.65 127.99 55.05 C 126.18 57.05 123.64 57.88 121.16 58.69 C 117.22 51.93 110.47 47.59 105.92 41.35 C 111.20 40.24 115.62 43.76 120.26 45.63 C 118.82 41.59 116.34 38.02 115.26 33.85 C 116.53 33.23 117.93 31.53 119.43 32.66 C 122.38 34.54 125.07 36.82 128.14 38.51 C 126.40 34.78 123.89 31.12 124.30 26.81 C 124.98 26.65 126.34 26.33 127.03 26.17 C 129.48 28.50 131.84 30.99 134.74 32.77 C 133.77 29.39 132.46 26.12 131.19 22.84 M 137.52 30.17 C 138.22 32.83 138.61 35.55 138.66 38.31 C 134.38 39.65 132.15 35.22 129.13 33.16 C 129.76 34.97 130.47 36.75 131.22 38.52 C 130.23 40.09 129.55 41.82 128.83 43.53 C 126.18 41.88 123.68 40.00 121.02 38.37 C 122.69 41.92 124.91 45.85 123.09 49.82 C 120.49 48.70 117.90 47.57 115.43 46.20 C 117.80 48.84 119.94 51.66 122.29 54.32 C 129.21 48.18 137.65 43.77 143.82 36.84 C 142.61 33.98 139.75 32.20 137.52 30.17 Z" />
<path fill="#000000" opacity="1.00" d=" M 61.31 36.99 C 61.66 36.53 62.36 35.61 62.71 35.15 C 65.83 38.54 69.13 41.76 72.07 45.31 C 76.94 51.28 82.70 56.49 87.14 62.81 C 89.21 66.32 91.99 69.35 94.36 72.66 C 96.26 72.75 98.16 72.87 100.06 73.03 C 98.28 72.38 96.66 71.42 95.41 69.98 C 99.69 67.84 104.43 69.24 108.97 69.10 C 112.21 68.22 114.94 66.00 118.34 65.53 C 118.28 66.29 118.17 67.80 118.11 68.56 C 120.63 66.96 123.13 65.26 125.94 64.19 C 125.75 65.08 125.38 66.86 125.19 67.75 C 121.85 70.63 117.88 72.69 114.56 75.61 C 110.70 78.92 106.02 81.30 102.71 85.22 C 104.66 84.56 106.56 83.76 108.52 83.12 C 108.09 85.08 107.44 87.00 107.18 89.00 C 108.21 92.86 112.97 94.43 112.94 98.74 C 116.34 97.93 119.47 96.43 122.02 94.03 C 125.03 91.28 128.89 89.92 132.92 89.63 C 132.74 90.24 132.38 91.46 132.20 92.06 C 129.04 92.94 126.08 94.48 123.90 96.96 C 128.04 95.70 131.82 93.50 135.26 90.90 C 136.33 91.75 137.38 92.64 138.40 93.56 C 141.93 92.65 145.56 92.42 149.17 92.15 C 146.29 91.36 143.40 89.87 140.37 90.90 C 140.36 89.82 140.32 88.74 140.27 87.66 C 139.34 89.13 138.43 90.62 137.47 92.07 C 137.69 89.37 136.11 87.17 135.22 84.75 C 131.63 83.76 128.52 81.72 126.04 78.96 C 127.32 74.85 128.08 68.61 133.47 68.22 C 132.34 71.53 131.17 74.82 130.24 78.20 C 133.97 80.33 138.32 81.48 141.25 84.84 C 141.57 84.16 142.23 82.81 142.56 82.13 C 146.58 83.56 150.85 84.88 155.16 84.27 C 159.00 83.08 162.57 80.09 166.76 80.75 C 169.57 77.84 171.46 74.28 172.82 70.50 C 173.79 70.22 174.75 69.91 175.71 69.58 C 174.93 69.26 174.13 69.01 173.31 68.85 C 173.99 67.50 174.56 66.11 175.02 64.68 C 172.78 66.17 173.04 69.27 171.25 71.13 C 167.04 74.19 164.09 79.20 158.92 80.79 C 155.80 80.26 152.70 81.84 149.69 80.62 C 148.40 80.12 147.19 81.18 145.96 81.44 C 142.47 79.28 137.66 79.23 135.32 75.46 C 136.79 75.56 138.26 75.69 139.72 75.86 C 139.60 75.17 139.35 73.80 139.23 73.11 C 143.85 75.68 148.98 77.41 154.32 76.18 C 148.50 73.88 142.38 70.63 140.30 64.26 C 136.47 66.12 132.31 66.99 128.15 67.72 C 128.19 66.75 128.27 64.80 128.31 63.83 C 137.25 62.42 145.06 57.23 154.02 55.93 C 161.08 53.27 168.01 50.12 175.40 48.38 C 175.60 50.09 175.40 51.93 176.18 53.52 C 177.25 54.64 178.62 55.40 179.71 56.49 C 182.35 62.87 180.18 70.03 176.68 75.61 C 173.36 79.05 170.18 82.63 167.38 86.52 C 167.28 85.44 167.08 83.27 166.98 82.18 C 166.68 83.83 166.77 85.51 166.95 87.16 C 166.08 87.92 165.20 88.66 164.34 89.43 C 175.24 87.83 186.09 85.88 197.01 84.50 C 198.44 84.89 199.92 86.03 198.46 87.41 C 195.61 88.35 192.56 88.31 189.67 89.03 C 189.49 89.45 189.14 90.30 188.96 90.72 C 191.74 90.65 194.53 90.52 197.29 90.15 C 194.08 93.07 189.55 92.23 185.67 93.37 C 177.19 93.09 169.18 96.76 160.69 96.82 C 157.56 98.33 155.48 101.62 152.80 103.86 C 151.78 102.90 150.76 101.95 149.71 101.05 C 150.51 102.11 151.34 103.14 152.19 104.16 C 150.16 107.01 146.73 106.96 143.64 106.24 C 143.93 109.08 142.09 111.43 140.82 113.80 C 138.20 118.56 133.88 122.06 129.60 125.28 C 132.01 128.99 134.59 132.61 136.49 136.63 C 144.29 148.31 152.31 159.94 158.48 172.61 C 159.64 174.61 160.84 176.69 160.72 179.09 C 159.22 179.83 157.94 178.75 156.54 178.36 C 156.15 178.71 155.37 179.41 154.98 179.77 C 147.41 168.74 139.41 158.02 132.13 146.80 C 130.15 143.04 127.61 139.62 125.18 136.14 C 125.91 135.93 127.35 135.52 128.08 135.31 C 127.32 135.41 125.81 135.61 125.05 135.71 C 123.29 133.38 121.59 131.00 119.82 128.68 C 110.43 130.59 102.36 135.95 94.96 141.80 C 98.78 146.58 99.29 152.88 102.31 158.07 C 102.42 157.34 102.65 155.86 102.76 155.13 C 101.05 150.43 97.97 145.86 98.28 140.67 C 101.56 140.64 104.76 140.04 107.97 139.42 C 110.15 147.05 106.95 154.77 103.49 161.48 C 102.20 163.26 99.97 165.81 98.07 163.24 C 95.11 166.34 90.53 163.87 87.08 162.91 C 81.67 161.07 83.90 154.59 83.28 150.31 C 82.40 150.73 81.53 151.18 80.67 151.65 C 80.62 150.66 80.52 149.67 80.57 148.69 C 76.85 151.75 73.45 155.15 70.84 159.23 C 69.24 156.74 71.51 154.22 71.80 151.68 C 75.67 150.62 78.73 148.08 81.55 145.35 C 81.62 146.19 81.75 147.87 81.82 148.71 C 83.28 145.93 84.70 143.10 86.64 140.62 C 87.88 139.25 89.74 139.76 91.37 139.66 C 92.42 137.48 94.19 135.88 95.94 134.27 C 92.78 133.80 91.21 136.69 89.53 138.78 C 88.92 138.38 88.31 138.00 87.70 137.61 C 87.58 136.36 87.44 135.10 87.32 133.85 C 88.54 134.37 89.73 134.93 90.92 135.53 C 92.02 133.53 93.23 131.58 93.86 129.36 C 94.76 129.94 95.67 130.51 96.57 131.10 C 95.92 131.52 94.62 132.37 93.97 132.80 C 94.53 133.02 95.64 133.46 96.19 133.68 C 97.20 133.18 98.20 132.67 99.19 132.12 C 99.40 131.08 99.61 130.03 99.80 128.98 C 102.01 129.64 104.36 131.01 106.60 129.63 C 110.12 127.90 113.93 127.01 117.57 125.60 C 114.18 119.04 108.74 113.85 105.38 107.30 C 103.57 107.88 101.76 108.47 99.89 108.85 C 101.09 111.34 102.00 113.98 101.33 116.77 C 97.37 116.64 95.75 112.71 95.82 109.26 C 91.41 110.61 87.04 112.16 82.47 112.91 C 81.61 114.74 80.59 116.49 79.48 118.18 C 78.22 116.62 78.26 114.81 78.74 112.96 C 80.69 112.28 82.36 111.22 82.73 109.03 C 81.38 109.59 79.99 110.08 78.71 110.79 C 75.99 115.03 74.41 119.88 71.83 124.20 C 73.50 126.16 74.02 128.49 73.26 130.98 C 74.24 130.86 76.19 130.64 77.16 130.53 C 76.43 131.34 75.70 132.16 75.05 133.04 C 73.45 133.59 71.98 134.42 70.50 135.23 C 70.42 132.53 70.00 129.84 69.20 127.25 C 67.80 129.70 67.28 132.51 66.10 135.05 C 64.87 136.23 63.48 137.27 62.52 138.72 C 61.50 138.63 60.47 138.56 59.44 138.52 C 60.39 139.52 61.38 140.48 62.49 141.31 C 60.19 142.79 58.66 145.09 56.98 147.18 C 58.19 148.23 60.22 149.03 59.45 151.01 C 58.65 153.66 57.56 156.45 55.30 158.21 C 55.09 155.41 55.05 152.57 55.90 149.86 C 54.83 150.15 53.76 150.44 52.69 150.73 C 52.96 151.02 53.51 151.62 53.79 151.92 C 51.42 154.44 49.38 157.23 47.70 160.26 C 49.91 158.83 52.22 157.39 54.93 157.24 C 53.87 159.69 52.98 162.36 51.02 164.26 C 46.62 165.82 42.18 167.29 37.67 168.48 C 40.41 168.55 43.13 168.85 45.85 169.25 C 48.23 167.28 50.41 164.89 53.55 164.17 C 53.49 165.26 53.35 167.45 53.28 168.54 C 55.24 167.64 54.69 165.53 54.56 163.83 C 54.22 161.90 55.44 160.20 56.12 158.50 C 56.53 160.43 56.87 162.38 57.28 164.31 C 57.74 162.42 58.25 160.54 58.76 158.67 C 61.32 160.54 59.92 163.79 60.31 166.41 C 62.73 163.61 62.05 157.94 66.71 157.80 C 65.20 162.85 63.26 168.18 65.16 173.43 C 65.37 168.03 66.06 162.57 69.01 157.89 C 71.35 160.50 70.02 163.98 69.72 167.06 C 68.65 174.70 70.99 182.35 74.19 189.22 C 75.23 190.65 73.26 191.80 72.66 192.92 C 69.38 191.93 66.37 190.26 63.45 188.51 C 59.71 185.75 58.44 181.05 55.70 177.49 C 54.38 175.70 53.65 173.59 53.04 171.48 C 48.63 173.53 43.77 173.68 39.10 174.70 C 40.01 173.31 40.94 171.95 41.78 170.53 C 40.35 172.13 39.06 173.84 37.59 175.41 C 37.44 174.21 37.34 173.01 37.26 171.80 C 32.14 170.53 26.29 169.62 22.99 165.00 C 25.15 163.45 27.46 162.11 29.62 160.56 C 31.58 159.49 30.87 156.75 32.33 155.31 C 37.04 150.87 43.48 148.90 49.00 145.91 C 52.93 139.53 58.94 134.76 62.57 128.18 C 59.14 131.22 53.92 130.57 49.64 130.55 C 49.27 127.98 48.59 125.48 47.96 122.96 C 46.74 122.44 45.55 121.84 44.39 121.19 C 43.42 125.78 37.55 126.29 33.74 125.31 C 32.74 126.70 31.69 128.31 29.87 128.61 C 21.82 131.17 14.09 135.38 5.54 135.95 C 5.61 135.33 5.74 134.10 5.80 133.48 C 13.39 130.46 21.09 127.77 28.60 124.54 C 25.56 124.20 22.73 125.53 19.94 126.52 C 19.50 125.84 18.64 124.47 18.21 123.78 C 28.24 119.25 39.14 117.32 49.45 113.57 C 52.11 105.73 58.78 99.42 66.69 97.16 C 65.83 98.44 64.90 99.67 64.01 100.93 C 67.40 100.67 71.15 100.35 73.70 97.80 C 71.82 97.73 69.94 97.78 68.06 97.83 C 73.37 92.04 81.63 90.53 89.07 89.46 C 88.65 92.28 85.55 92.85 84.08 94.95 C 82.61 96.80 80.75 98.27 78.92 99.76 C 83.52 97.22 86.42 92.52 91.03 90.03 C 87.28 88.75 83.02 87.68 81.05 83.84 C 82.91 83.19 84.78 82.56 86.74 82.29 C 82.08 77.22 78.58 71.17 73.65 66.34 C 71.51 64.26 69.66 61.91 67.50 59.85 C 68.06 58.95 68.61 58.03 69.14 57.12 C 68.57 57.61 67.43 58.58 66.86 59.07 C 64.65 54.69 59.36 52.85 57.64 48.21 C 62.38 47.67 64.78 52.36 68.02 54.89 C 72.36 58.29 75.37 63.26 80.36 65.84 C 78.45 63.66 75.64 62.36 74.19 59.77 C 72.87 57.52 70.95 55.73 69.12 53.90 C 70.05 51.24 68.70 48.74 68.08 46.19 C 65.95 43.03 62.93 40.48 61.31 36.99 M 162.14 56.49 C 162.81 59.06 162.71 62.84 159.55 63.62 C 156.96 64.24 155.54 61.65 154.02 60.08 C 149.64 60.78 145.64 62.74 141.39 63.89 C 145.68 66.54 149.33 70.38 154.32 71.76 C 157.98 73.14 161.89 72.31 165.67 72.26 C 165.56 70.60 165.44 68.94 165.32 67.29 C 166.62 68.13 167.89 69.02 169.17 69.89 C 168.02 68.02 165.43 66.21 166.67 63.75 C 167.96 61.45 169.24 59.14 170.03 56.60 C 170.75 56.57 172.18 56.51 172.89 56.47 C 172.66 55.12 172.42 53.77 172.17 52.43 C 168.94 54.05 165.54 55.27 162.14 56.49 M 170.40 58.97 C 170.65 62.34 173.27 57.37 170.40 58.97 M 176.53 60.51 C 175.44 61.28 174.21 62.92 174.64 64.31 C 176.57 65.16 178.39 61.43 176.53 60.51 M 97.32 76.78 C 98.98 78.09 100.96 78.84 102.85 79.75 C 103.95 79.03 105.05 78.31 106.15 77.58 C 103.20 77.37 100.28 76.84 97.32 76.78 M 142.84 84.37 C 145.05 87.81 149.25 89.37 152.99 90.43 C 155.66 89.44 158.45 88.12 159.91 85.53 C 156.96 86.17 154.06 87.20 151.01 87.32 C 148.15 86.75 145.67 85.06 142.84 84.37 M 98.12 88.56 C 97.84 89.13 97.28 90.28 97.01 90.85 C 101.85 92.46 101.39 99.31 106.66 100.12 C 104.04 96.10 101.23 92.22 98.12 88.56 M 186.19 89.51 C 184.77 91.09 187.67 92.35 188.57 90.87 C 189.88 89.29 187.07 88.00 186.19 89.51 M 94.11 92.28 C 92.80 96.23 91.94 101.03 87.67 102.84 C 86.69 101.95 85.76 101.01 84.85 100.05 C 83.04 101.83 81.28 103.65 79.64 105.58 C 84.40 103.77 89.59 103.87 94.41 102.26 C 96.42 101.50 99.07 101.97 100.53 100.14 C 98.05 97.79 95.70 95.35 94.11 92.28 M 137.52 99.73 C 135.29 103.56 132.77 107.22 128.96 109.64 C 127.96 109.13 126.96 108.62 125.95 108.12 C 125.60 108.83 124.89 110.25 124.53 110.96 C 123.17 110.60 121.79 110.32 120.45 109.93 C 122.24 112.34 123.52 115.09 124.92 117.74 C 125.53 116.86 126.15 115.97 126.77 115.10 C 128.71 115.52 130.70 115.74 132.68 115.48 C 132.70 115.01 132.72 114.08 132.74 113.61 C 137.95 108.85 144.53 105.35 148.47 99.34 C 149.53 99.35 150.59 99.35 151.65 99.32 C 152.29 98.53 152.97 97.77 153.66 97.02 C 148.43 98.70 142.93 99.04 137.52 99.73 M 123.10 103.08 C 122.18 104.25 121.29 105.44 120.49 106.69 C 122.21 106.32 123.90 105.86 125.61 105.47 C 125.62 104.92 125.63 103.82 125.64 103.27 C 125.01 103.22 123.73 103.13 123.10 103.08 M 91.02 107.54 C 95.03 107.82 99.76 107.99 102.46 104.40 C 98.72 105.75 94.71 106.12 91.02 107.54 M 146.26 105.28 C 146.88 105.90 146.88 105.90 146.26 105.28 M 85.57 108.28 C 85.55 108.70 85.53 109.53 85.52 109.94 C 88.05 112.26 88.28 105.45 85.57 108.28 M 72.34 116.40 C 71.36 116.31 69.59 117.84 71.21 118.40 C 72.95 119.47 75.04 116.07 72.34 116.40 M 129.66 117.63 C 130.19 118.27 130.72 118.92 131.26 119.56 C 132.26 118.90 133.28 118.26 134.29 117.61 C 132.74 117.63 131.20 117.66 129.66 117.63 M 51.55 125.89 C 54.54 127.44 57.95 126.63 61.07 125.98 C 63.03 125.75 63.10 123.38 63.96 122.01 C 59.88 123.50 55.38 123.81 51.55 125.89 M 31.23 123.21 C 31.86 123.80 31.86 123.80 31.23 123.21 M 100.86 131.02 C 99.35 133.98 104.28 131.14 100.86 131.02 M 100.20 141.15 C 101.64 144.22 103.01 147.36 104.84 150.22 C 104.14 147.00 104.09 142.02 100.20 141.15 M 51.89 148.95 C 53.88 147.30 55.39 144.78 58.31 144.99 C 57.83 144.35 56.86 143.05 56.37 142.41 C 54.52 144.32 53.04 146.55 51.89 148.95 M 91.98 144.03 C 92.74 147.12 94.02 150.04 94.80 153.12 C 93.98 153.66 92.36 154.73 91.54 155.27 C 91.46 152.76 91.33 150.26 91.19 147.76 C 90.77 147.61 89.92 147.33 89.49 147.18 C 89.54 149.60 89.72 152.01 89.71 154.43 C 88.63 154.02 87.55 153.62 86.48 153.20 C 86.67 155.52 86.27 158.06 88.13 159.87 C 88.77 158.31 87.43 155.79 88.97 154.79 C 91.49 155.46 90.57 158.84 89.38 160.38 C 90.92 160.53 92.43 160.88 93.96 161.11 C 92.91 158.60 90.45 154.42 95.02 154.08 C 95.76 157.30 95.26 162.77 99.83 162.93 C 99.04 158.54 96.76 154.63 95.65 150.32 C 94.74 148.11 94.80 144.70 91.98 144.03 M 85.72 152.36 C 88.76 151.90 87.33 148.68 87.24 146.64 C 86.13 148.35 85.97 150.39 85.72 152.36 M 31.89 163.55 C 36.37 163.96 40.37 161.68 44.70 161.15 C 44.50 159.81 44.34 158.46 44.24 157.11 C 40.70 160.59 34.55 159.06 31.89 163.55 M 27.78 166.10 C 30.43 166.71 33.09 167.29 35.82 167.43 C 34.18 164.42 30.07 163.11 27.78 166.10 M 61.49 174.52 C 61.15 179.14 62.72 186.61 68.75 185.67 C 65.49 182.52 63.06 178.77 61.49 174.52 Z" />
<path fill="#000000" opacity="1.00" d=" M 117.89 73.78 C 119.32 74.53 120.73 75.30 122.12 76.11 C 121.40 77.57 120.39 78.85 119.12 79.87 C 118.26 78.94 117.44 77.97 116.68 76.96 C 117.02 75.88 117.43 74.82 117.89 73.78 Z" />
<path fill="#000000" opacity="1.00" d=" M 111.18 83.06 C 111.58 80.67 112.59 78.52 115.35 78.45 C 115.35 80.12 115.29 81.80 115.18 83.47 C 113.84 83.33 112.51 83.19 111.18 83.06 Z" />
<path fill="#000000" opacity="1.00" d=" M 114.52 86.08 C 114.96 84.00 117.89 80.39 119.72 83.21 C 119.47 85.08 118.68 86.81 118.02 88.56 C 116.28 88.42 114.19 88.45 114.52 86.08 Z" />
<path fill="#000000" opacity="1.00" d=" M 109.28 87.17 C 111.19 86.48 111.45 89.54 109.74 89.85 C 107.86 90.59 107.61 87.43 109.28 87.17 Z" />
<path fill="#000000" opacity="1.00" d=" M 103.48 110.22 C 104.03 110.35 105.13 110.63 105.68 110.76 C 105.67 112.10 105.64 113.44 105.63 114.78 C 104.98 114.43 104.34 114.09 103.69 113.75 C 103.66 112.57 103.59 111.39 103.48 110.22 Z" />
<path fill="#000000" opacity="1.00" d=" M 85.38 120.12 C 86.96 117.64 87.88 114.75 89.74 112.46 C 90.24 112.43 91.24 112.37 91.74 112.35 C 91.49 116.39 90.93 120.48 89.20 124.19 C 87.72 123.03 86.59 121.53 85.38 120.12 Z" />
<path fill="#000000" opacity="1.00" d=" M 103.19 125.37 C 105.93 124.57 103.36 128.47 102.32 128.96 C 100.31 128.49 101.84 125.75 103.19 125.37 Z" />
<path fill="#000000" opacity="1.00" d=" M 65.54 136.92 C 67.10 136.20 68.69 136.14 70.31 136.74 C 71.05 138.30 69.15 139.27 68.56 140.50 C 67.92 140.49 66.63 140.47 65.98 140.45 C 65.79 139.28 65.64 138.10 65.54 136.92 Z" />
<path fill="#000000" opacity="1.00" d=" M 81.55 140.22 C 82.93 139.07 84.36 138.01 85.78 136.92 C 85.64 138.13 85.49 139.35 85.34 140.57 C 84.08 140.47 82.81 140.36 81.55 140.22 Z" />
<path fill="#000000" opacity="1.00" d=" M 75.12 146.38 C 75.89 142.91 79.52 142.61 82.33 141.68 C 80.42 143.88 77.64 145.03 75.12 146.38 Z" />
<path fill="#000000" opacity="1.00" d=" M 61.97 143.23 C 62.61 144.64 62.46 146.18 62.39 147.68 C 61.08 147.70 59.77 147.73 58.47 147.72 C 60.10 146.57 61.63 145.33 61.97 143.23 Z" />
<path fill="#000000" opacity="1.00" d=" M 60.00 152.08 C 61.72 151.25 63.52 150.60 65.31 149.93 C 64.09 151.14 62.48 152.01 61.57 153.50 C 61.42 155.31 61.42 157.12 61.23 158.93 C 60.22 158.05 59.22 157.18 58.23 156.30 C 58.85 154.91 59.21 153.39 60.00 152.08 Z" />
</g>
</svg>
