<?xml version="1.0" encoding="UTF-8" ?>
<!DOCTYPE svg PUBLIC "-//W3C//DTD SVG 1.1//EN" "http://www.w3.org/Graphics/SVG/1.1/DTD/svg11.dtd">
<svg width="128pt" height="128pt" viewBox="0 0 128 128" version="1.1" xmlns="http://www.w3.org/2000/svg">
<g id="#000000ff">
<path fill="#000000" opacity="1.00" d=" M 31.93 44.28 C 33.34 38.96 36.12 33.88 40.24 30.16 C 42.38 30.51 44.70 31.03 45.94 33.00 C 46.11 32.44 46.46 31.31 46.63 30.75 C 48.51 32.12 51.11 32.45 52.48 34.47 C 54.60 37.34 56.19 40.63 57.24 44.03 C 58.14 48.44 57.48 52.99 56.29 57.27 C 58.89 57.81 61.26 59.38 63.97 59.30 C 67.80 58.20 71.90 58.60 75.42 56.42 C 75.65 57.23 76.11 58.87 76.35 59.68 C 74.47 59.72 72.72 60.34 71.06 61.16 C 72.90 61.36 74.88 61.42 75.15 63.71 C 75.85 62.78 77.05 62.08 77.28 60.90 C 76.92 59.84 76.54 58.80 76.15 57.76 C 80.39 55.99 84.84 54.55 89.48 54.51 C 92.61 54.17 95.53 55.66 98.64 55.62 C 98.69 56.46 98.78 58.16 98.82 59.01 C 99.07 58.06 99.30 57.11 99.52 56.15 C 101.92 56.19 103.96 57.28 105.22 59.35 C 103.17 59.64 100.61 59.14 99.91 61.67 C 101.82 61.62 103.74 61.52 105.65 61.46 C 105.57 60.08 105.41 58.71 105.25 57.34 C 108.29 57.49 111.19 58.51 114.21 58.84 C 114.42 59.25 114.85 60.06 115.07 60.47 C 108.42 59.83 103.28 65.14 99.70 70.07 C 99.41 71.58 99.58 73.28 98.48 74.50 C 95.58 78.51 92.94 82.97 88.50 85.49 C 83.34 88.49 78.47 92.02 72.89 94.24 C 72.45 93.40 72.00 92.56 71.55 91.73 C 71.67 92.52 71.92 94.12 72.04 94.92 C 71.12 94.52 70.23 94.05 69.37 93.51 C 69.41 94.02 69.48 95.03 69.51 95.54 C 68.18 94.66 66.87 93.75 65.52 92.90 C 65.90 93.95 66.29 94.99 66.71 96.02 C 65.43 96.16 64.15 96.31 62.88 96.45 C 63.29 95.50 65.20 94.62 64.08 93.57 C 58.02 93.68 51.75 94.01 45.90 92.10 C 41.73 90.63 38.63 86.99 37.47 82.78 C 36.71 79.02 37.22 75.12 38.23 71.46 C 39.25 67.16 39.32 62.69 40.56 58.44 C 41.46 56.28 43.38 54.80 44.86 53.05 C 43.60 52.57 42.33 52.15 41.03 51.79 C 33.58 53.47 25.78 53.23 18.39 55.31 C 17.06 55.76 15.64 55.43 14.27 55.45 C 17.09 54.35 19.10 52.06 21.19 49.97 C 24.94 48.50 28.91 47.04 31.93 44.28 M 41.22 41.93 C 40.86 44.33 44.09 45.07 45.72 43.85 C 47.60 43.43 47.32 41.37 47.68 39.93 C 47.00 39.46 45.62 38.52 44.94 38.05 C 43.01 38.38 40.62 39.56 41.22 41.93 M 37.15 46.41 C 35.95 47.14 37.06 49.58 38.28 48.35 C 39.27 47.52 38.48 45.22 37.15 46.41 M 24.20 51.52 C 23.70 53.16 24.26 53.68 25.87 53.07 C 26.37 51.44 25.81 50.92 24.20 51.52 M 84.56 82.09 C 83.67 83.38 85.72 85.31 86.98 84.40 C 88.08 83.06 85.84 81.10 84.56 82.09 Z" />
</g>
</svg>
