<?xml version="1.0" encoding="UTF-8" ?>
<!DOCTYPE svg PUBLIC "-//W3C//DTD SVG 1.1//EN" "http://www.w3.org/Graphics/SVG/1.1/DTD/svg11.dtd">
<svg width="128pt" height="128pt" viewBox="0 0 128 128" version="1.1" xmlns="http://www.w3.org/2000/svg">
<g id="#000000ff">
<path fill="#000000" opacity="1.00" d=" M 53.44 17.91 C 56.60 15.55 59.59 12.14 63.89 12.28 C 67.78 11.51 70.76 15.96 74.72 14.40 C 76.94 16.14 79.18 17.89 81.10 19.98 C 82.58 21.64 85.25 21.58 86.55 23.46 C 89.13 26.73 88.91 31.32 91.34 34.64 C 94.43 36.87 98.42 37.32 101.61 39.37 C 103.22 40.41 104.83 41.46 106.46 42.46 C 106.76 46.79 109.23 50.61 109.38 54.97 C 109.32 61.47 109.51 68.02 108.50 74.47 C 107.67 79.76 109.27 84.99 110.31 90.12 C 110.27 97.29 113.59 103.93 113.87 111.05 C 112.79 110.90 111.73 110.67 110.69 110.36 C 107.87 101.23 106.25 91.80 104.71 82.38 C 103.65 77.97 104.91 73.40 103.73 69.00 C 104.07 62.83 104.59 56.62 104.18 50.43 C 103.86 47.78 103.64 44.31 100.53 43.46 C 95.39 41.66 90.72 38.76 86.66 35.14 C 84.85 32.21 84.06 28.76 82.11 25.90 C 79.71 21.83 75.33 19.49 71.01 17.96 C 68.68 17.20 66.74 15.35 64.24 15.17 C 61.15 17.10 58.68 19.97 55.21 21.32 C 49.78 23.51 46.68 28.75 42.67 32.69 C 39.92 35.30 38.31 38.99 35.04 41.06 C 32.47 42.77 30.60 45.25 28.41 47.38 C 27.50 48.04 26.32 47.39 25.31 47.43 C 25.49 48.19 25.66 48.96 25.83 49.73 C 22.81 52.71 21.60 56.85 19.52 60.44 C 17.25 64.41 19.21 69.05 18.64 73.34 C 17.98 77.12 19.00 80.90 18.76 84.71 C 18.34 89.21 20.47 93.52 20.38 97.98 C 19.09 100.94 20.39 103.96 20.49 107.00 C 20.76 109.90 19.74 112.69 19.29 115.52 C 18.32 115.62 17.35 115.72 16.39 115.83 C 16.33 106.19 14.53 96.67 14.36 87.04 C 14.15 79.05 12.11 70.84 14.47 62.99 C 15.23 58.16 16.84 53.42 19.98 49.58 C 20.49 50.16 21.51 51.32 22.01 51.90 C 21.61 50.66 20.07 49.52 20.71 48.13 C 21.09 45.47 24.40 45.61 26.00 43.96 C 29.14 41.11 31.94 37.89 35.39 35.38 C 40.40 29.70 44.84 23.37 51.19 19.07 C 52.01 18.89 52.80 19.04 53.58 19.53 C 53.54 19.12 53.47 18.31 53.44 17.91 Z" />
<path fill="#000000" opacity="1.00" d=" M 67.50 58.43 C 69.30 56.07 70.06 53.05 71.95 50.77 C 73.16 51.39 74.15 52.33 75.20 53.17 C 72.89 59.70 67.50 64.49 62.56 69.11 C 65.44 69.61 67.20 72.00 68.79 74.20 C 73.59 76.50 77.54 80.06 81.76 83.22 C 83.03 84.82 84.36 86.38 86.04 87.57 C 86.66 89.53 87.66 91.51 89.33 92.77 C 88.86 92.89 88.39 93.02 87.92 93.15 C 86.44 91.30 83.39 92.05 82.19 89.83 C 80.94 87.73 79.42 85.94 76.74 86.21 C 74.58 82.59 70.17 81.40 67.79 77.97 C 64.87 76.76 61.90 73.10 58.62 74.44 C 56.27 78.65 53.61 82.72 49.94 85.91 C 48.05 88.35 46.86 93.28 42.81 92.22 C 44.47 88.31 46.80 84.79 49.45 81.50 C 51.52 77.50 54.32 73.97 56.80 70.23 C 55.68 69.76 54.57 69.27 53.46 68.79 C 52.77 64.69 49.13 62.06 46.11 59.62 C 46.76 57.94 47.37 56.25 48.08 54.59 C 50.09 56.75 51.62 59.29 53.48 61.56 C 55.24 63.59 57.58 64.96 59.51 66.82 C 61.55 63.51 64.07 60.37 67.50 58.43 Z" />
</g>
</svg>
