<?xml version="1.0" encoding="UTF-8" ?>
<!DOCTYPE svg PUBLIC "-//W3C//DTD SVG 1.1//EN" "http://www.w3.org/Graphics/SVG/1.1/DTD/svg11.dtd">
<svg width="128pt" height="128pt" viewBox="0 0 128 128" version="1.1" xmlns="http://www.w3.org/2000/svg">
<g id="#000000ff">
<path fill="#000000" opacity="1.00" d=" M 44.28 8.11 C 43.75 6.26 45.71 5.60 46.93 4.84 C 47.55 8.85 48.84 12.92 48.03 17.01 C 47.15 21.64 47.75 26.34 47.74 31.01 C 49.96 31.40 52.45 31.16 54.37 32.51 C 56.40 34.18 57.94 36.40 60.19 37.80 C 63.62 36.53 67.03 34.27 70.87 35.21 C 70.77 37.07 70.67 38.92 70.48 40.77 C 73.89 40.01 76.67 42.71 77.94 45.63 C 79.12 47.37 80.80 48.72 82.50 49.93 C 80.77 52.60 81.52 55.67 81.79 58.61 C 81.20 58.53 80.03 58.37 79.44 58.29 C 79.42 56.33 79.49 54.36 79.40 52.39 C 77.19 53.89 77.72 56.67 77.12 58.92 C 76.07 58.36 75.03 57.79 73.99 57.21 C 74.64 54.28 76.59 51.11 74.67 48.26 C 72.10 45.03 67.86 43.66 64.12 42.13 C 63.88 43.70 63.71 45.27 63.57 46.85 C 64.40 46.29 65.21 45.71 66.03 45.13 C 67.51 46.57 70.69 45.18 71.21 47.39 C 70.51 48.94 69.68 50.43 68.86 51.92 C 67.20 50.87 65.62 49.71 64.23 48.32 C 64.84 50.83 64.27 54.82 67.34 55.78 C 72.68 56.97 77.19 60.38 81.17 63.99 C 80.54 64.55 79.91 65.12 79.28 65.69 C 81.99 69.31 84.03 73.75 83.29 78.38 C 81.65 77.33 80.65 75.72 80.09 73.89 C 79.05 74.28 78.01 74.66 76.97 75.03 C 76.10 72.57 74.71 70.28 74.33 67.66 C 73.22 67.06 72.11 66.45 71.01 65.84 C 71.13 64.82 71.28 63.80 71.43 62.78 C 70.90 62.61 69.84 62.27 69.32 62.10 C 69.08 60.23 68.28 58.60 66.68 57.53 C 67.21 59.95 67.94 62.36 67.54 64.86 C 67.99 66.38 68.94 67.70 69.56 69.15 C 67.94 69.30 66.31 69.35 64.75 69.84 C 67.38 72.72 68.39 76.57 69.87 80.09 C 68.25 80.54 66.63 80.97 65.02 81.44 C 65.83 82.67 67.01 83.69 67.46 85.12 C 68.57 88.11 64.76 90.50 65.86 93.47 C 66.74 95.49 66.69 97.70 66.38 99.83 C 65.62 99.71 64.10 99.46 63.35 99.33 C 63.59 96.47 63.33 93.65 62.21 90.99 C 63.00 89.60 63.82 88.24 64.63 86.86 C 63.47 86.03 62.29 85.23 61.11 84.44 C 61.70 81.77 62.40 78.88 64.76 77.19 C 64.39 76.19 64.03 75.17 63.69 74.15 C 62.35 73.84 61.00 73.53 59.67 73.18 C 60.65 70.19 63.05 68.11 64.69 65.53 C 64.96 63.40 63.86 61.40 63.17 59.45 C 61.11 63.69 60.19 69.46 55.06 71.04 C 55.50 73.90 55.72 76.80 55.74 79.70 C 55.67 83.06 57.98 85.88 58.06 89.25 C 54.99 88.77 53.05 91.04 50.89 92.75 C 48.95 89.67 51.46 87.24 53.47 85.14 C 52.47 80.99 52.29 76.69 52.55 72.44 C 49.58 73.38 46.51 73.89 43.42 74.16 C 42.59 80.54 43.73 88.50 38.56 93.23 C 38.93 93.23 39.29 93.23 39.66 93.23 C 40.94 91.90 42.25 90.59 43.71 89.46 C 44.74 91.42 45.73 93.41 46.74 95.39 C 45.20 96.07 43.56 96.44 41.92 96.75 C 44.51 99.32 47.41 103.11 44.63 106.63 C 45.75 108.48 46.77 110.39 47.85 112.26 C 46.91 113.18 45.95 114.09 44.98 114.99 C 45.55 116.08 46.11 117.18 46.65 118.28 C 44.13 118.63 40.84 119.29 39.82 116.21 C 40.77 116.33 42.66 116.59 43.61 116.72 C 41.93 115.38 40.37 113.90 39.44 111.94 C 39.76 114.48 40.34 120.38 36.15 118.88 C 36.15 114.37 37.22 109.51 35.05 105.32 C 32.86 102.13 36.90 98.99 36.27 95.63 C 35.83 92.08 37.29 88.86 39.30 86.05 C 37.41 87.27 35.67 88.98 33.26 88.88 C 33.27 88.27 33.30 87.05 33.32 86.44 C 35.32 84.95 37.32 83.46 39.28 81.92 C 39.33 79.21 39.55 76.50 40.17 73.85 C 36.68 72.42 33.33 70.68 29.97 68.96 C 26.30 64.66 23.69 59.50 22.38 54.00 C 23.34 44.63 29.35 35.72 38.16 32.07 C 40.01 30.88 42.23 31.34 44.30 31.20 C 43.13 23.49 45.28 15.84 44.28 8.11 M 37.46 35.53 C 36.94 36.26 36.42 36.98 35.90 37.71 C 42.50 35.30 49.40 37.20 55.59 39.85 C 54.88 36.87 52.01 35.77 49.64 34.36 C 45.55 34.27 41.44 34.58 37.46 35.53 M 31.67 41.39 C 31.19 47.00 31.13 52.64 30.38 58.22 C 29.85 59.68 31.38 60.47 32.13 61.46 C 32.51 53.63 33.24 45.75 34.98 38.09 C 33.79 39.07 31.56 39.48 31.67 41.39 M 37.52 39.80 C 41.17 41.80 45.68 41.99 49.68 41.13 C 45.93 39.12 41.59 39.69 37.52 39.80 M 54.06 41.01 C 52.73 42.39 55.17 44.48 56.53 43.61 C 57.37 42.29 55.51 39.67 54.06 41.01 M 36.89 43.56 C 36.16 48.72 36.04 53.92 35.73 59.11 C 36.27 58.72 37.36 57.94 37.91 57.55 C 37.90 53.92 37.66 50.26 38.48 46.69 C 38.99 45.33 37.56 44.50 36.89 43.56 M 41.88 44.59 C 43.28 47.72 47.21 46.78 49.97 47.47 C 51.73 47.88 52.64 45.72 53.86 44.85 C 49.86 45.06 45.86 44.93 41.88 44.59 M 55.37 59.02 C 54.89 61.16 56.09 62.82 57.64 64.14 C 57.12 58.44 58.21 52.68 57.20 47.01 C 53.66 50.00 55.79 55.06 55.37 59.02 M 40.71 48.59 C 40.83 50.87 40.80 53.15 40.70 55.43 C 41.79 54.35 42.86 53.25 43.92 52.13 C 42.84 50.96 41.77 49.78 40.71 48.59 M 46.28 48.89 C 46.33 52.31 49.24 47.41 46.28 48.89 M 52.46 56.32 C 52.64 54.44 52.79 52.56 52.83 50.67 C 50.21 51.55 49.51 55.37 52.46 56.32 M 45.29 55.01 C 45.90 56.28 46.53 57.55 47.11 58.84 C 44.37 58.57 41.25 58.06 39.56 60.81 C 43.15 60.90 46.75 60.92 50.34 60.74 C 48.57 58.91 46.80 57.07 45.29 55.01 M 35.55 64.60 C 34.77 65.31 33.67 66.13 34.48 67.26 C 37.38 68.79 40.53 70.02 43.81 70.33 C 46.32 69.77 48.65 68.65 50.95 67.55 C 47.38 68.41 43.67 68.89 40.01 68.35 C 38.31 68.02 36.14 68.06 35.59 66.02 C 41.69 65.47 47.85 65.69 53.92 64.83 C 50.62 64.57 47.31 64.16 43.99 64.40 C 41.19 64.55 38.25 63.55 35.55 64.60 M 41.43 110.42 C 40.52 111.70 42.64 113.33 43.65 112.13 C 44.52 110.84 42.45 109.20 41.43 110.42 Z" />
<path fill="#000000" opacity="1.00" d=" M 72.07 55.66 C 68.15 54.51 70.83 47.04 74.76 48.55 C 73.97 50.95 73.55 53.55 72.07 55.66 Z" />
<path fill="#000000" opacity="1.00" d=" M 53.93 90.56 C 56.83 89.27 57.15 92.99 58.14 94.81 C 56.84 95.89 55.54 96.97 54.28 98.10 C 56.90 101.23 58.99 105.46 58.55 109.56 C 58.11 109.94 57.24 110.69 56.80 111.06 C 56.16 109.05 55.87 106.96 55.61 104.88 C 54.27 106.15 53.45 109.92 51.24 107.77 C 50.81 105.58 51.95 103.63 53.03 101.84 C 52.06 100.92 50.69 100.26 50.18 98.95 C 51.36 96.06 54.18 94.00 53.93 90.56 Z" />
<path fill="#000000" opacity="1.00" d=" M 66.40 90.73 C 68.91 90.87 70.93 92.44 71.00 95.06 C 69.52 94.80 68.05 94.49 66.66 93.92 C 66.60 93.12 66.47 91.53 66.40 90.73 Z" />
<path fill="#000000" opacity="1.00" d=" M 68.20 96.34 C 70.56 96.37 71.29 98.69 71.94 100.52 C 71.44 100.84 70.43 101.48 69.93 101.81 C 69.10 100.07 66.82 98.36 68.20 96.34 Z" />
<path fill="#000000" opacity="1.00" d=" M 66.87 106.16 C 66.03 104.40 66.30 101.49 68.95 102.09 C 68.80 103.69 68.41 105.33 66.87 106.16 Z" />
<path fill="#000000" opacity="1.00" d=" M 53.08 115.96 C 53.44 113.86 54.61 112.01 56.97 112.12 C 56.51 114.14 55.39 116.00 53.08 115.96 Z" />
</g>
</svg>
