<?xml version="1.0" encoding="UTF-8" ?>
<!DOCTYPE svg PUBLIC "-//W3C//DTD SVG 1.1//EN" "http://www.w3.org/Graphics/SVG/1.1/DTD/svg11.dtd">
<svg width="128pt" height="128pt" viewBox="0 0 128 128" version="1.1" xmlns="http://www.w3.org/2000/svg">
<g id="#000000ff">
<path fill="#000000" opacity="1.00" d=" M 46.94 34.74 C 53.17 34.95 59.37 34.01 65.60 34.45 C 74.15 35.14 82.87 33.22 91.25 35.64 C 94.27 42.14 95.12 49.33 95.62 56.40 C 96.33 62.20 96.93 68.11 95.80 73.90 C 95.03 82.11 94.95 90.37 94.59 98.60 C 75.28 99.28 55.91 98.15 36.62 98.79 C 35.67 83.88 35.57 68.93 35.97 54.00 C 36.76 47.89 37.18 41.17 41.12 36.15 C 42.85 35.16 44.98 34.99 46.94 34.74 M 56.66 42.37 C 57.06 43.85 57.51 45.33 57.81 46.85 C 56.12 44.81 54.95 42.06 51.87 42.05 C 51.04 46.39 50.54 50.80 50.70 55.22 C 55.33 55.80 59.97 55.50 64.58 54.88 C 64.47 51.07 64.83 47.24 64.30 43.44 C 63.24 44.63 62.22 45.85 61.17 47.05 C 61.28 45.34 61.40 43.63 61.48 41.92 C 60.84 42.37 59.55 43.29 58.90 43.75 C 58.34 43.40 57.22 42.71 56.66 42.37 M 69.78 42.58 C 69.77 43.00 69.77 43.42 69.76 43.84 C 70.30 44.26 71.39 45.10 71.93 45.51 C 71.09 45.83 69.43 46.45 68.59 46.76 C 68.77 48.84 68.81 50.93 68.77 53.02 C 72.52 55.40 76.81 55.88 81.16 55.83 C 81.57 51.42 81.23 47.00 80.38 42.66 C 79.38 42.48 78.39 42.28 77.40 42.07 C 78.56 43.67 79.24 45.54 79.90 47.38 C 77.94 47.51 76.05 46.90 74.13 46.60 C 74.24 45.88 74.44 44.44 74.54 43.72 C 72.90 43.69 70.97 44.02 69.78 42.58 M 42.51 44.44 C 41.31 48.14 41.96 52.18 40.46 55.82 C 42.24 55.26 44.03 54.70 45.88 54.44 C 45.92 50.90 45.88 47.32 45.32 43.82 C 44.49 42.53 42.98 43.26 42.51 44.44 M 84.57 43.77 C 86.25 47.53 84.95 51.62 84.92 55.56 C 87.21 55.45 89.51 55.38 91.80 55.38 C 91.44 52.25 91.12 49.09 90.06 46.10 C 88.92 44.29 86.37 44.45 84.57 43.77 M 40.94 62.17 C 40.01 67.66 41.30 73.03 41.79 78.45 C 47.97 78.22 54.13 78.73 60.30 78.91 C 60.25 75.32 61.70 72.00 63.27 68.84 C 62.23 68.08 61.18 67.32 60.14 66.57 C 59.62 63.63 61.61 61.50 63.28 59.36 C 58.22 59.26 53.15 59.37 48.09 59.34 C 45.62 59.85 42.74 60.24 40.94 62.17 M 66.18 59.38 C 68.26 60.39 70.58 61.69 71.31 64.04 C 71.97 66.43 69.13 67.83 69.02 70.04 C 69.73 73.01 71.54 75.90 70.39 79.03 C 74.36 78.52 78.40 78.42 82.34 79.16 C 85.50 79.80 88.57 78.53 91.67 78.10 C 90.96 72.65 91.72 67.18 91.45 61.72 C 88.16 61.91 85.37 59.74 82.11 59.82 C 76.80 59.60 71.46 60.08 66.18 59.38 M 40.21 83.23 C 40.37 86.19 40.58 89.15 40.82 92.11 C 44.18 92.49 47.58 92.48 50.95 92.14 C 57.83 91.32 64.76 91.70 71.67 91.41 C 72.37 92.10 73.08 92.79 73.78 93.49 C 76.27 91.57 79.57 93.07 82.39 92.25 C 85.29 91.24 88.34 90.90 91.39 90.81 C 91.43 88.33 91.46 85.84 91.54 83.36 C 89.95 83.72 88.45 84.64 86.79 84.62 C 71.31 83.24 55.73 83.84 40.21 83.23 Z" />
<path fill="#000000" opacity="1.00" d=" M 87.14 46.45 C 88.52 45.48 90.42 47.80 89.10 48.90 C 87.71 49.83 85.71 47.57 87.14 46.45 Z" />
</g>
</svg>
