<?xml version="1.0" encoding="UTF-8" ?>
<!DOCTYPE svg PUBLIC "-//W3C//DTD SVG 1.1//EN" "http://www.w3.org/Graphics/SVG/1.1/DTD/svg11.dtd">
<svg width="128pt" height="128pt" viewBox="0 0 128 128" version="1.1" xmlns="http://www.w3.org/2000/svg">
<g id="#000000ff">
<path fill="#000000" opacity="1.00" d=" M 98.90 55.82 C 100.56 52.07 104.54 50.29 108.10 48.82 C 111.52 48.77 114.82 51.73 115.62 54.96 C 115.13 57.24 113.98 59.34 112.82 61.35 C 115.49 61.99 117.90 63.35 120.15 64.88 C 121.15 65.88 121.87 67.36 120.77 68.60 C 118.73 71.56 116.81 75.46 112.88 76.10 C 110.87 76.56 109.00 75.20 107.19 74.49 C 107.20 75.11 107.20 76.34 107.20 76.95 C 102.82 76.13 99.61 73.01 96.01 70.80 C 88.66 72.48 81.32 74.21 73.94 75.65 C 68.04 76.02 62.11 76.29 56.29 77.41 C 52.72 78.00 48.92 76.54 45.55 78.30 C 41.80 79.22 36.69 77.47 33.98 80.99 C 32.38 83.27 29.64 84.24 27.13 85.17 C 24.44 84.84 22.38 83.13 20.35 81.49 C 20.15 79.53 20.00 77.54 19.42 75.65 C 17.95 74.22 16.57 72.71 15.14 71.25 C 18.48 69.10 20.69 64.70 25.02 64.49 C 28.55 63.95 31.82 66.23 33.19 69.40 C 37.30 68.66 41.38 67.74 45.54 67.25 C 59.20 63.64 73.63 64.27 87.17 60.12 C 87.64 60.77 88.58 62.08 89.05 62.74 C 89.12 61.65 89.15 60.55 89.20 59.46 C 91.37 59.17 92.45 60.87 92.87 62.74 C 95.77 61.35 97.58 58.65 98.90 55.82 M 98.75 64.21 C 92.08 65.37 85.30 65.98 78.71 67.52 C 69.07 68.32 59.36 68.54 49.88 70.78 C 43.04 71.85 36.00 73.97 29.10 72.14 C 27.90 71.26 27.78 69.65 27.23 68.38 C 24.25 68.63 21.94 70.41 20.79 73.14 C 22.89 73.02 24.99 72.78 27.09 72.66 C 27.41 73.64 27.61 74.63 27.71 75.64 C 26.45 77.02 24.23 77.87 24.31 80.07 C 25.54 81.07 27.07 80.89 28.53 80.88 C 29.23 79.41 29.96 77.96 30.68 76.51 C 35.39 76.51 40.08 75.94 44.62 74.72 C 52.62 74.08 60.55 72.88 68.58 72.36 C 77.83 70.75 87.12 69.07 96.08 66.21 C 98.12 67.71 100.46 69.00 101.49 71.46 C 102.36 73.51 104.53 72.83 106.22 72.56 C 108.11 72.16 109.96 73.61 111.82 73.01 C 113.76 71.70 115.13 69.74 116.56 67.93 C 112.74 67.51 109.31 65.64 105.57 64.84 C 107.60 61.73 106.94 57.65 109.82 55.01 C 109.37 54.80 108.45 54.36 108.00 54.14 C 103.54 56.12 102.52 61.40 98.75 64.21 Z" />
</g>
</svg>
