<?xml version="1.0" encoding="UTF-8" ?>
<!DOCTYPE svg PUBLIC "-//W3C//DTD SVG 1.1//EN" "http://www.w3.org/Graphics/SVG/1.1/DTD/svg11.dtd">
<svg width="256pt" height="256pt" viewBox="0 0 256 256" version="1.1" xmlns="http://www.w3.org/2000/svg">
<g id="#000000ff">
<path fill="#000000" opacity="1.00" d=" M 58.58 55.53 C 66.97 54.60 75.53 55.79 83.97 55.28 C 86.64 55.24 89.29 55.76 91.96 55.65 C 95.86 55.50 99.87 57.51 103.65 55.78 C 106.50 54.00 108.26 58.08 111.07 57.82 C 116.44 57.79 121.93 56.65 127.19 58.28 C 134.86 56.77 142.58 59.03 150.25 59.60 C 157.82 61.23 165.37 58.32 172.94 58.40 C 179.55 59.99 186.41 59.07 193.05 60.31 C 195.25 60.50 197.47 60.55 199.68 60.81 C 199.01 63.95 197.28 67.01 193.90 67.72 C 195.58 70.97 197.52 74.11 198.74 77.58 C 200.65 82.05 203.61 85.95 205.76 90.30 C 204.57 90.82 203.37 91.34 202.17 91.83 C 202.47 95.83 205.83 98.70 206.19 102.72 C 205.04 102.05 203.89 101.39 202.73 100.77 C 203.13 102.49 203.63 104.23 203.39 106.02 C 202.42 104.55 201.56 103.02 200.71 101.49 C 200.53 102.94 200.38 104.39 200.21 105.83 C 203.97 110.16 204.69 116.86 202.44 122.06 C 202.69 126.71 204.07 131.24 203.37 135.95 C 204.89 141.10 204.24 146.45 204.58 151.73 C 204.61 152.90 203.69 153.80 203.25 154.82 C 204.02 156.60 205.15 158.45 204.65 160.47 C 203.69 169.18 205.05 177.85 205.38 186.52 C 203.17 187.41 200.92 188.17 198.67 188.95 C 197.16 184.09 197.66 178.97 196.94 174.00 C 196.25 169.30 198.11 164.52 196.37 159.92 C 194.28 161.23 192.22 162.61 190.48 164.37 C 191.85 164.48 193.23 164.58 194.61 164.68 C 193.56 165.25 192.55 165.91 191.55 166.56 C 191.27 166.17 190.71 165.40 190.43 165.01 C 187.71 166.35 184.72 166.82 181.71 166.52 C 180.32 164.57 179.18 162.29 177.10 160.98 C 177.33 163.19 178.10 165.28 178.88 167.35 C 174.07 167.29 169.00 168.39 164.40 166.59 C 161.30 166.45 158.19 166.41 155.10 166.75 C 155.79 166.12 156.47 165.48 157.16 164.85 C 153.96 165.24 150.90 166.42 147.69 166.61 C 146.64 165.63 145.67 164.57 144.64 163.57 C 144.47 165.88 144.45 168.20 144.50 170.52 C 143.35 170.45 142.21 170.37 141.07 170.30 C 141.96 175.45 140.94 180.91 143.25 185.79 C 141.45 185.61 139.65 185.43 137.86 185.20 C 138.17 183.82 138.48 182.45 138.80 181.09 C 137.72 180.80 136.65 180.51 135.58 180.22 C 135.40 177.46 134.65 174.79 134.29 172.06 C 132.94 171.30 130.84 170.59 130.65 168.83 C 130.93 162.02 126.00 156.32 126.13 149.50 C 127.60 149.30 129.07 149.13 130.53 148.82 C 128.91 148.72 127.30 148.63 125.68 148.56 C 127.12 147.00 128.70 145.57 130.17 144.04 C 128.64 145.04 127.09 146.03 125.75 147.29 C 125.23 151.43 125.50 155.69 126.53 159.74 C 127.06 161.09 126.07 162.18 125.40 163.25 C 127.36 166.12 126.33 169.76 126.77 173.01 C 125.37 172.38 123.99 171.73 122.56 171.18 C 122.03 166.22 120.74 161.22 121.67 156.23 C 120.47 156.83 119.28 157.44 118.08 158.04 C 119.05 159.80 120.02 161.56 120.96 163.34 C 119.90 164.39 118.80 165.40 117.71 166.41 C 119.96 168.77 120.84 172.03 120.94 175.22 C 119.33 175.35 117.73 175.51 116.13 175.75 C 115.87 174.74 115.61 173.74 115.36 172.75 C 114.05 172.68 112.73 172.72 111.44 172.49 C 107.76 169.70 109.04 164.64 107.88 160.75 C 107.34 159.15 107.71 157.50 107.92 155.88 C 107.44 155.00 107.00 154.10 106.59 153.18 C 106.33 151.65 108.28 150.95 108.99 149.81 C 108.56 149.71 107.71 149.50 107.28 149.39 C 106.35 150.74 105.38 152.06 104.26 153.26 C 104.68 153.48 105.51 153.93 105.93 154.15 C 107.70 157.02 105.69 160.15 105.56 163.16 C 106.26 166.55 106.89 169.96 107.71 173.32 C 104.39 173.68 101.06 173.32 97.74 173.41 C 97.65 174.77 97.57 176.13 97.53 177.50 C 96.92 177.54 95.71 177.64 95.10 177.68 C 95.26 181.06 95.55 184.43 95.79 187.80 C 94.09 187.77 92.39 187.69 90.69 187.55 C 89.68 183.33 89.30 179.01 88.58 174.74 C 88.12 172.88 90.52 170.66 88.14 169.47 C 82.11 170.20 76.07 170.82 69.98 170.69 C 67.55 170.38 65.41 171.60 63.32 172.65 C 64.01 175.98 64.69 179.33 64.77 182.75 C 63.44 182.57 62.11 182.38 60.77 182.19 C 60.43 178.07 58.83 174.06 59.58 169.90 C 59.61 159.58 60.52 149.30 60.90 139.00 C 60.20 128.34 60.96 117.66 60.69 106.98 C 60.54 100.93 62.73 94.50 60.60 88.65 C 56.81 88.03 52.99 87.41 49.13 87.61 C 49.03 83.70 49.90 79.71 48.98 75.86 C 49.60 75.68 50.83 75.33 51.44 75.15 C 51.07 71.85 52.30 68.93 54.42 66.48 C 57.07 63.33 56.47 58.87 58.58 55.53 M 78.40 62.06 C 78.60 63.22 78.79 64.37 78.99 65.53 C 80.05 64.96 81.11 64.42 82.20 63.90 C 82.50 66.58 82.28 69.47 84.00 71.74 C 83.05 72.32 82.09 72.88 81.14 73.45 C 82.28 73.76 83.41 74.10 84.54 74.45 C 85.52 73.49 86.54 72.58 87.59 71.71 C 84.69 69.46 83.31 66.06 81.97 62.76 C 80.81 62.40 79.59 62.28 78.40 62.06 M 89.34 62.32 C 90.56 63.77 91.85 65.16 93.21 66.48 C 92.94 65.16 92.66 63.83 92.37 62.51 C 91.61 62.46 90.10 62.37 89.34 62.32 M 99.61 62.94 C 101.68 67.94 104.59 72.51 107.60 76.98 C 108.02 73.70 106.51 70.77 105.00 67.99 C 103.57 65.91 102.49 63.17 99.61 62.94 M 120.99 63.55 C 121.48 67.15 123.54 70.23 125.59 73.13 C 124.70 73.54 123.82 73.96 122.94 74.38 C 124.27 74.48 125.82 74.10 126.87 75.15 C 126.87 76.19 126.37 76.95 125.36 77.44 C 126.55 77.40 127.75 77.39 128.95 77.39 C 128.07 79.34 127.11 81.26 126.17 83.17 C 124.65 81.93 123.21 80.60 121.83 79.20 C 121.73 80.34 121.62 81.48 121.49 82.63 C 124.96 83.48 128.53 83.15 132.07 83.16 C 132.30 82.74 132.77 81.91 133.01 81.49 C 131.24 82.86 129.03 82.87 126.90 82.86 C 127.57 81.13 128.32 79.42 129.32 77.85 C 125.86 73.44 127.11 65.67 120.99 63.55 M 70.24 64.88 C 70.24 67.82 71.08 70.63 71.67 73.48 C 72.27 73.46 73.45 73.42 74.04 73.40 C 73.05 70.45 72.10 67.42 70.24 64.88 M 109.90 65.89 C 108.94 67.24 111.31 69.22 112.31 67.71 C 113.35 66.26 111.01 64.49 109.90 65.89 M 143.55 65.62 C 143.54 66.52 143.54 68.32 143.54 69.22 C 144.56 69.42 145.57 69.63 146.59 69.86 C 146.90 68.48 147.24 67.12 147.60 65.76 C 146.25 65.72 144.90 65.67 143.55 65.62 M 162.93 66.90 C 163.65 68.45 164.42 70.03 165.83 71.08 C 168.55 73.33 170.62 76.36 173.78 78.06 C 173.11 76.01 171.82 74.28 170.64 72.52 C 169.78 70.00 168.90 67.48 167.65 65.13 C 166.07 65.71 164.50 66.30 162.93 66.90 M 173.17 66.24 C 173.37 68.34 173.52 70.45 173.72 72.55 C 175.04 71.46 176.26 70.26 177.55 69.12 C 177.62 71.03 177.63 72.94 177.58 74.85 C 178.68 75.79 179.71 76.83 180.86 77.71 C 182.36 77.56 183.84 77.29 185.33 77.07 C 185.52 78.54 185.71 80.01 185.98 81.47 C 188.42 77.99 186.51 73.46 188.93 70.02 C 190.38 68.37 187.76 67.07 186.97 65.80 C 187.47 66.94 188.02 68.07 188.61 69.17 C 186.02 70.85 185.02 73.65 184.23 76.49 C 182.64 73.15 181.13 69.77 179.40 66.51 C 177.33 66.26 175.24 66.46 173.17 66.24 M 78.00 67.34 C 76.63 68.23 77.96 70.65 79.36 69.43 C 80.78 68.55 79.38 66.21 78.00 67.34 M 90.76 67.83 C 91.77 68.69 92.78 69.54 93.80 70.39 C 93.69 72.06 93.56 73.74 93.47 75.42 C 96.17 73.23 99.10 71.35 102.16 69.72 C 99.27 68.37 97.08 70.45 95.01 72.17 C 95.53 70.73 96.15 69.33 96.61 67.88 C 95.49 64.94 92.75 67.39 90.76 67.83 M 154.26 65.96 C 154.09 69.86 157.39 72.37 159.37 75.31 C 159.59 73.46 159.93 71.52 159.44 69.68 C 157.98 68.09 156.46 66.43 154.26 65.96 M 76.37 72.40 C 74.71 73.39 76.64 75.76 78.03 74.58 C 79.60 73.51 77.83 71.15 76.37 72.40 M 117.20 73.20 C 118.60 74.90 119.93 76.66 121.35 78.34 C 121.01 76.78 120.65 75.23 120.37 73.66 C 119.31 73.51 118.25 73.36 117.20 73.20 M 142.13 72.54 C 142.55 74.62 143.48 76.56 144.70 78.29 C 144.71 76.07 144.28 73.68 142.13 72.54 M 189.19 75.55 C 189.25 78.19 189.99 80.73 190.81 83.22 C 189.08 83.96 187.36 84.82 186.23 86.39 C 190.25 85.09 194.47 85.58 198.61 85.59 C 197.29 83.11 195.73 80.77 194.39 78.30 C 193.91 78.71 192.94 79.52 192.45 79.93 C 192.06 78.38 191.68 76.83 191.38 75.26 C 190.83 75.33 189.74 75.48 189.19 75.55 M 101.51 79.84 C 101.46 81.04 101.42 82.23 101.38 83.43 C 103.78 83.44 106.18 83.55 108.59 83.49 C 106.33 82.09 103.90 80.99 101.51 79.84 M 66.35 89.24 C 66.24 91.33 66.34 93.43 66.59 95.52 C 67.92 93.91 69.06 92.15 70.17 90.38 C 72.66 91.40 75.26 92.11 77.81 92.96 C 78.01 91.77 77.95 90.61 77.61 89.47 C 73.97 88.54 70.01 88.16 66.35 89.24 M 85.31 90.62 C 84.85 92.24 85.44 92.79 87.07 92.25 C 87.56 90.64 86.97 90.10 85.31 90.62 M 89.39 90.25 C 89.37 90.92 89.32 92.25 89.30 92.91 C 89.89 92.87 91.06 92.79 91.65 92.75 C 91.68 92.14 91.73 90.92 91.76 90.30 C 91.17 90.29 89.98 90.27 89.39 90.25 M 138.41 91.51 C 140.54 92.86 141.40 95.29 142.76 97.29 C 143.81 95.57 144.90 93.86 146.20 92.31 C 146.35 93.79 146.48 95.27 146.58 96.76 C 147.06 96.71 148.01 96.60 148.49 96.55 C 148.42 95.07 148.39 93.59 148.42 92.12 C 147.61 91.88 146.79 91.65 145.98 91.42 C 143.47 91.76 140.92 91.84 138.41 91.51 M 186.97 91.65 C 186.47 92.66 185.93 93.64 185.36 94.62 C 187.62 95.28 189.92 95.76 192.27 95.89 C 190.64 95.21 189.00 94.56 187.36 93.93 C 188.91 93.30 190.49 92.72 192.10 92.20 C 192.88 94.42 194.51 95.95 196.86 96.31 C 196.41 94.67 195.88 93.06 195.40 91.43 C 192.59 91.39 189.78 91.47 186.97 91.65 M 167.50 92.26 C 167.46 93.00 167.40 94.49 167.36 95.23 C 168.96 94.26 170.58 93.33 172.20 92.39 C 170.63 92.35 169.06 92.30 167.50 92.26 M 174.07 92.38 C 175.13 93.64 176.09 94.99 176.91 96.42 C 177.82 96.52 178.72 96.63 179.62 96.75 C 179.46 96.31 179.13 95.43 178.97 94.99 C 179.78 94.22 180.59 93.45 181.38 92.66 C 178.94 92.64 176.50 92.62 174.07 92.38 M 158.45 93.15 C 156.89 93.05 156.49 95.82 158.23 95.77 C 159.77 95.87 160.22 93.03 158.45 93.15 M 84.29 93.86 C 84.37 94.34 84.54 95.30 84.62 95.78 C 78.50 95.23 72.10 95.74 66.41 98.17 C 66.39 100.43 66.32 102.69 66.57 104.94 C 67.47 103.30 68.25 101.59 69.09 99.92 C 70.24 102.25 70.59 104.80 70.60 107.37 C 69.20 107.32 67.81 107.27 66.41 107.21 C 66.44 111.15 66.09 115.08 65.86 119.01 C 66.46 123.55 66.17 128.13 66.30 132.69 C 67.16 134.00 68.20 135.19 69.14 136.45 C 70.40 136.30 71.67 136.16 72.92 135.93 C 74.38 135.30 75.87 134.71 77.38 134.19 C 76.74 135.52 76.06 136.83 75.34 138.12 C 76.46 137.46 77.44 136.17 78.89 136.41 C 83.34 136.69 87.79 136.26 92.25 136.33 C 92.49 132.74 92.79 129.11 92.27 125.54 C 86.69 124.94 81.08 128.44 75.63 126.29 C 77.51 123.33 80.95 122.49 83.94 124.35 C 85.29 120.64 89.28 121.74 92.33 121.43 C 92.03 119.93 91.73 118.43 91.45 116.93 C 88.81 116.27 86.17 116.63 83.69 117.67 C 83.32 115.73 85.03 114.94 86.47 114.24 C 86.37 113.39 86.28 112.55 86.19 111.71 C 87.90 112.11 89.77 113.23 91.45 112.09 C 91.62 109.73 91.13 107.42 90.47 105.17 C 87.03 107.13 83.51 105.89 80.19 104.42 C 80.27 102.52 80.68 100.66 81.65 99.00 C 82.89 100.56 84.01 102.23 85.40 103.67 C 89.75 104.12 90.97 99.24 90.53 95.82 C 88.37 95.45 86.26 94.85 84.29 93.86 M 99.34 96.42 C 99.06 97.43 98.72 98.43 98.53 99.47 C 99.36 100.42 100.27 101.30 101.16 102.21 C 101.29 104.20 101.46 106.20 102.15 108.09 C 103.06 110.53 102.06 113.19 102.88 115.66 C 104.42 119.79 102.32 124.44 104.59 128.40 C 114.89 128.76 125.39 125.98 135.52 128.61 C 134.81 118.55 136.67 108.58 136.29 98.55 C 131.13 98.08 126.17 100.19 120.99 99.51 C 113.80 98.22 106.31 98.98 99.34 96.42 M 144.58 102.76 C 144.91 106.00 144.38 109.20 143.34 112.26 C 147.68 113.67 152.28 113.79 156.61 112.28 C 156.65 110.84 156.71 109.41 156.78 107.98 C 155.84 109.10 154.90 110.22 153.95 111.33 C 153.09 109.07 152.13 106.85 151.14 104.64 C 152.85 103.83 154.50 102.88 156.00 101.72 C 152.12 101.05 148.39 102.34 144.58 102.76 M 163.03 103.99 C 164.34 104.53 165.63 105.11 166.94 105.67 C 167.22 104.49 167.49 103.31 167.76 102.14 C 166.20 102.79 164.63 103.43 163.03 103.99 M 188.55 101.73 C 188.70 104.96 187.71 108.04 185.65 110.54 C 189.00 112.48 192.92 111.63 196.58 111.62 C 196.59 109.92 196.60 108.21 196.61 106.51 C 194.79 106.32 192.71 106.92 191.05 105.98 C 190.11 104.63 189.39 103.14 188.55 101.73 M 170.79 103.41 C 171.58 106.71 172.82 109.85 174.00 113.02 C 174.50 111.73 175.04 110.45 175.60 109.18 C 176.43 109.66 178.10 110.61 178.93 111.09 C 177.92 112.03 176.89 112.94 175.85 113.85 C 177.11 113.55 178.37 113.27 179.63 112.99 C 178.45 116.00 178.40 119.22 178.24 122.41 C 178.47 122.85 178.92 123.75 179.15 124.19 C 180.70 119.39 180.82 114.41 180.55 109.42 C 179.39 109.59 178.23 109.74 177.07 109.87 C 177.10 108.17 178.25 107.35 179.73 106.88 C 178.44 106.50 177.21 105.97 176.02 105.38 C 175.44 105.52 174.29 105.80 173.72 105.94 C 172.70 105.14 171.73 104.29 170.79 103.41 M 141.41 117.43 C 141.39 120.21 142.80 122.62 144.06 125.01 C 145.02 124.06 145.98 123.12 146.99 122.23 C 147.23 123.68 147.45 125.13 147.67 126.59 C 148.22 126.42 148.78 126.26 149.35 126.12 C 148.44 124.08 148.40 121.83 148.22 119.64 C 149.99 120.10 151.08 121.13 151.47 122.71 C 152.25 121.79 152.30 119.76 154.08 120.32 C 156.65 119.41 156.05 123.12 154.55 123.92 C 155.13 124.67 155.70 125.43 156.29 126.19 C 156.35 124.79 156.42 123.40 156.47 122.00 C 158.87 123.49 161.16 125.33 163.97 125.97 C 166.28 127.96 166.04 131.68 164.62 134.17 C 165.78 133.55 166.93 132.92 168.08 132.30 C 167.98 130.29 169.39 128.97 170.79 127.76 C 172.26 129.29 173.79 130.77 175.46 132.09 C 174.81 130.08 174.24 128.06 173.65 126.04 C 173.62 126.77 173.56 128.23 173.53 128.96 C 170.99 127.68 168.43 126.09 165.46 126.51 C 164.96 125.04 164.52 123.55 164.10 122.06 C 163.81 122.76 163.21 124.17 162.91 124.87 C 160.66 125.43 159.18 123.00 157.37 122.07 C 157.37 120.43 157.35 118.79 157.27 117.16 C 152.25 119.81 146.65 118.46 141.41 117.43 M 186.74 117.55 C 186.67 118.56 186.54 120.57 186.48 121.57 C 187.13 121.51 188.43 121.39 189.08 121.33 C 189.57 122.37 190.12 123.37 190.75 124.32 C 192.68 124.73 194.65 124.72 196.61 124.75 C 196.36 122.43 197.35 119.48 195.84 117.58 C 192.81 117.33 189.76 117.43 186.74 117.55 M 142.77 137.30 C 142.55 140.10 142.64 142.92 142.27 145.72 C 143.89 144.73 145.55 143.76 147.39 143.21 C 150.96 143.19 154.40 144.54 157.98 144.41 C 163.33 144.08 168.70 145.07 174.03 144.07 C 178.69 142.96 183.21 145.38 187.87 145.18 C 188.85 144.49 189.75 143.70 190.66 142.92 C 191.40 143.70 192.15 144.48 192.90 145.27 C 193.85 144.43 194.74 143.55 195.57 142.61 C 196.06 138.48 196.08 134.31 196.78 130.21 C 193.29 130.50 189.80 130.41 186.31 130.29 C 184.29 132.92 183.23 136.19 183.48 139.51 C 177.51 139.87 171.46 139.16 165.54 140.29 C 162.62 140.59 159.36 141.26 156.82 139.35 C 153.59 141.49 149.42 140.68 145.78 140.43 C 143.08 140.31 144.84 136.84 144.49 135.17 C 145.91 136.66 147.26 138.22 148.77 139.62 C 148.00 137.42 146.67 135.11 149.10 133.39 C 149.52 134.32 150.37 136.18 150.80 137.11 C 151.19 136.39 151.58 135.66 151.97 134.94 C 153.43 135.43 154.88 135.94 156.32 136.49 C 156.38 134.76 156.40 133.03 156.46 131.29 C 152.70 130.17 148.78 129.63 144.86 129.52 C 144.39 132.17 143.39 134.68 142.77 137.30 M 102.33 133.34 C 101.92 134.16 101.52 134.99 101.11 135.81 C 102.39 135.21 103.66 134.61 104.95 134.04 C 106.33 135.34 107.68 136.68 109.05 137.99 C 109.45 137.17 110.25 135.52 110.65 134.70 C 108.60 132.38 105.05 133.88 102.33 133.34 M 113.68 133.58 C 114.47 134.88 115.28 136.17 116.12 137.44 C 116.50 136.06 116.86 134.68 117.22 133.30 C 116.34 133.37 114.56 133.51 113.68 133.58 M 122.21 133.54 C 122.31 135.42 123.34 137.27 125.38 137.48 C 128.36 137.91 131.38 137.36 134.38 137.55 C 133.01 136.19 131.91 134.33 129.92 133.85 C 127.41 133.14 124.77 133.56 122.21 133.54 M 81.90 139.88 C 76.60 141.50 71.05 141.37 65.58 141.75 C 65.62 145.22 64.99 149.04 66.95 152.14 C 68.21 153.02 69.58 153.74 71.01 154.30 C 77.01 153.17 83.14 153.57 89.21 153.12 C 90.07 154.57 91.00 156.01 92.38 157.05 C 92.33 155.17 92.07 153.32 91.70 151.48 C 84.57 151.44 77.43 152.09 70.32 151.43 C 68.81 151.11 67.49 150.27 66.12 149.61 C 67.34 147.96 68.29 146.07 69.85 144.72 C 73.76 144.46 77.70 144.62 81.62 144.58 C 79.93 145.70 78.24 146.82 76.62 148.05 C 78.99 149.80 81.64 148.98 84.14 148.15 C 84.82 148.74 85.50 149.33 86.18 149.92 C 86.39 148.16 86.55 146.39 86.72 144.63 C 88.30 146.02 89.88 147.44 91.41 148.90 C 91.56 145.71 92.15 142.56 92.46 139.39 C 90.05 139.62 87.63 140.73 85.21 140.04 C 84.12 139.84 82.99 139.44 81.90 139.88 M 131.89 142.92 C 131.42 144.35 131.89 144.82 133.30 144.34 C 133.75 142.90 133.28 142.43 131.89 142.92 M 111.26 145.50 C 110.90 147.11 111.52 147.62 113.12 147.03 C 113.54 145.43 112.92 144.92 111.26 145.50 M 147.77 148.10 C 150.23 150.73 153.30 152.65 156.53 154.20 C 152.42 156.16 148.34 152.66 144.30 154.36 C 144.41 155.64 144.46 156.94 144.78 158.19 C 149.00 160.36 153.63 157.73 158.05 159.02 C 164.37 158.52 170.83 158.18 176.98 156.47 C 175.36 155.51 173.74 154.57 172.17 153.54 C 167.66 157.93 161.95 153.79 157.40 151.78 C 153.98 151.13 151.06 149.13 147.77 148.10 M 160.24 149.25 C 159.97 149.58 159.43 150.22 159.16 150.55 C 159.68 154.07 163.97 148.55 160.24 149.25 M 165.82 149.68 C 167.03 151.33 168.19 153.03 169.40 154.69 C 169.44 152.95 169.49 151.20 169.69 149.47 C 168.40 149.57 167.11 149.64 165.82 149.68 M 190.56 150.98 C 190.44 152.50 190.35 154.03 190.30 155.56 C 192.30 155.49 194.30 155.47 196.30 155.48 C 196.47 153.18 196.64 150.88 196.65 148.58 C 194.57 149.25 192.35 149.66 190.56 150.98 M 163.65 151.02 C 163.24 152.40 163.74 152.88 165.17 152.47 C 165.57 151.07 165.07 150.59 163.65 151.02 M 113.42 152.36 C 112.23 152.52 111.68 154.99 113.24 154.93 C 114.48 154.81 114.98 152.29 113.42 152.36 M 111.59 158.68 C 112.18 159.49 112.83 160.27 113.46 161.06 C 113.50 159.54 113.54 158.02 113.56 156.50 C 112.88 157.20 112.09 157.83 111.59 158.68 M 64.83 161.95 C 68.16 164.03 72.25 163.45 75.97 164.14 C 80.15 164.28 84.63 165.23 88.64 163.71 C 88.67 163.23 88.73 162.27 88.75 161.79 C 84.80 161.27 80.74 161.98 76.86 160.86 C 72.80 159.96 68.82 161.38 64.83 161.95 M 172.63 162.94 C 171.76 164.25 173.54 166.45 174.96 165.52 C 175.84 164.31 173.92 162.03 172.63 162.94 M 138.16 176.24 C 137.05 176.26 135.76 177.63 136.42 178.72 C 137.80 179.81 139.99 176.85 138.16 176.24 Z" />
<path fill="#000000" opacity="1.00" d=" M 77.77 98.19 C 80.03 99.99 79.51 102.97 79.84 105.52 C 78.90 105.54 77.01 105.57 76.07 105.59 C 76.81 103.16 77.43 100.70 77.77 98.19 Z" />
<path fill="#000000" opacity="1.00" d=" M 86.16 100.29 C 87.73 99.48 88.12 101.91 86.74 102.35 C 85.23 103.23 84.68 100.60 86.16 100.29 Z" />
<path fill="#000000" opacity="1.00" d=" M 70.67 105.22 C 71.05 103.71 71.32 102.16 71.85 100.68 C 73.56 100.54 75.27 100.41 76.99 100.30 C 76.50 102.19 75.95 104.05 75.44 105.93 C 73.85 105.70 72.26 105.46 70.67 105.22 Z" />
<path fill="#000000" opacity="1.00" d=" M 145.57 108.94 C 146.95 108.31 148.32 107.65 149.66 106.95 C 149.61 108.03 149.52 110.20 149.47 111.29 C 148.16 111.47 146.86 111.67 145.56 111.89 C 145.56 111.15 145.57 109.68 145.57 108.94 Z" />
<path fill="#000000" opacity="1.00" d=" M 68.96 113.31 C 72.54 115.39 78.69 117.39 81.33 113.05 C 82.15 114.45 84.62 115.87 82.74 117.46 C 78.73 117.58 74.70 117.44 70.69 117.77 C 71.96 119.64 74.02 119.82 76.06 119.86 C 76.69 120.60 77.33 121.32 77.98 122.05 C 76.54 123.31 75.20 124.75 75.42 126.82 C 72.91 126.72 70.39 126.63 67.88 126.45 C 69.12 124.04 70.73 121.85 72.43 119.74 C 71.08 118.89 69.71 118.07 68.31 117.30 C 68.54 115.97 68.75 114.64 68.96 113.31 M 72.27 120.59 C 71.26 122.73 75.10 123.69 75.77 121.68 C 75.72 120.15 73.31 120.09 72.27 120.59 Z" />
<path fill="#000000" opacity="1.00" d=" M 71.90 182.12 C 74.16 182.28 76.25 183.15 78.11 184.42 C 79.31 184.00 80.52 183.61 81.73 183.25 C 79.00 187.90 73.27 186.16 68.87 186.25 C 70.03 184.99 71.09 183.64 71.90 182.12 Z" />
</g>
</svg>
