<?xml version="1.0" encoding="UTF-8" ?>
<!DOCTYPE svg PUBLIC "-//W3C//DTD SVG 1.1//EN" "http://www.w3.org/Graphics/SVG/1.1/DTD/svg11.dtd">
<svg width="256pt" height="128pt" viewBox="0 0 256 128" version="1.1" xmlns="http://www.w3.org/2000/svg">
<g id="#000000ff">
<path fill="#000000" opacity="1.00" d=" M 69.84 16.87 C 74.72 10.48 83.51 9.40 91.00 9.58 C 99.34 10.01 107.67 11.23 115.73 13.44 C 118.70 14.28 121.80 14.65 124.88 14.44 C 125.90 13.29 126.90 12.14 127.89 10.96 C 127.82 12.32 127.72 13.68 127.61 15.04 C 133.96 16.94 140.49 15.85 146.97 16.06 C 147.15 16.72 147.53 18.05 147.71 18.72 C 140.55 20.27 133.28 18.63 126.14 17.86 C 124.88 18.72 124.10 20.04 123.42 21.36 C 121.10 25.86 118.43 30.17 115.98 34.60 C 118.54 34.68 121.11 34.80 123.68 34.64 C 125.40 32.61 125.87 29.73 127.91 27.90 C 128.36 29.05 129.32 30.31 128.66 31.59 C 126.92 37.16 122.81 41.63 121.24 47.27 C 120.38 49.01 117.80 52.16 116.43 49.18 C 118.09 45.23 120.37 41.59 122.29 37.76 C 119.11 38.62 114.05 36.63 112.74 40.69 C 108.93 49.24 104.66 57.57 101.06 66.21 C 97.10 62.41 93.55 58.08 88.78 55.23 C 86.84 53.60 83.93 52.68 82.99 50.17 C 83.28 49.87 83.86 49.26 84.16 48.95 C 89.87 52.92 95.69 56.93 100.31 62.20 C 103.54 54.16 108.22 46.80 111.36 38.72 C 108.47 38.97 105.24 38.67 102.97 40.83 C 101.91 39.59 99.74 38.22 101.35 36.49 C 105.24 35.94 109.65 36.79 113.20 35.08 C 117.08 29.56 119.89 23.32 123.58 17.65 C 111.70 15.75 100.05 12.00 87.94 11.94 C 82.06 12.11 75.14 13.41 71.65 18.66 C 69.56 21.23 72.38 24.13 74.61 25.39 C 81.74 29.23 89.93 31.87 98.10 30.68 C 99.84 30.75 103.52 29.89 102.70 32.81 C 92.75 34.79 82.28 32.15 73.36 27.64 C 69.50 25.95 66.69 20.40 69.84 16.87 Z" />
<path fill="#000000" opacity="1.00" d=" M 167.52 37.74 C 168.88 36.25 169.27 32.45 171.90 33.32 C 171.98 34.87 171.72 36.40 171.56 37.92 C 176.72 37.27 181.96 37.60 187.09 36.63 C 189.48 35.90 191.52 37.56 192.59 39.55 C 184.92 40.90 177.06 41.10 169.28 41.38 C 166.84 47.76 162.00 52.77 158.72 58.68 C 157.76 59.79 158.45 61.09 159.10 62.16 C 163.78 62.85 167.98 60.06 171.97 58.03 C 173.56 57.36 174.12 55.64 174.98 54.30 C 175.84 55.21 176.66 56.15 177.46 57.12 C 174.43 60.74 170.17 63.22 165.80 64.89 C 162.69 66.02 158.36 66.66 156.15 63.56 C 154.66 61.94 155.56 59.72 155.60 57.80 C 151.99 60.26 147.21 64.58 142.72 61.87 C 143.53 56.99 146.70 53.01 148.82 48.66 C 143.67 48.53 138.49 47.99 133.35 48.58 C 133.60 54.77 130.42 62.24 123.93 63.98 C 121.78 64.39 119.47 62.28 120.55 60.10 C 122.72 53.65 126.92 47.70 132.79 44.14 C 138.59 46.63 145.19 44.99 151.35 45.53 C 152.88 51.05 147.85 54.82 145.98 59.48 C 150.24 58.46 153.95 55.99 157.39 53.38 C 160.08 49.83 162.16 45.83 164.54 42.06 C 161.00 42.14 157.43 42.27 154.00 43.25 C 152.52 42.93 151.08 42.43 149.63 41.98 C 150.47 41.01 151.04 39.73 152.19 39.09 C 157.32 38.89 162.60 39.58 167.52 37.74 M 123.71 60.77 C 127.94 58.82 131.38 54.31 131.10 49.52 C 127.30 52.01 124.26 56.22 123.71 60.77 Z" />
<path fill="#000000" opacity="1.00" d=" M 227.65 52.63 C 230.39 46.44 238.67 42.33 244.81 46.21 C 250.85 50.33 254.82 57.60 254.67 64.96 C 255.00 72.51 253.21 80.39 248.27 86.28 C 245.34 89.64 242.51 93.52 238.16 95.11 C 235.14 96.27 232.39 98.60 229.03 98.56 C 226.85 98.64 225.80 96.40 224.46 95.08 C 222.59 95.89 220.62 96.55 218.54 96.35 C 219.22 92.13 220.92 88.15 221.44 83.89 C 217.90 84.80 214.27 85.98 211.61 88.62 C 209.07 90.72 208.13 94.05 205.90 96.40 C 205.37 96.33 204.30 96.19 203.77 96.12 C 204.54 91.88 207.32 88.34 208.32 84.15 C 203.19 88.46 199.02 94.87 192.08 96.30 C 191.22 92.86 192.30 89.46 192.83 86.08 C 187.59 90.02 184.16 97.84 176.70 97.61 C 177.14 91.41 181.52 86.71 185.38 82.27 C 180.09 84.15 174.84 86.78 171.19 91.17 C 169.08 93.48 167.28 96.75 163.75 96.86 C 163.45 92.04 165.50 87.53 166.16 82.82 C 162.98 84.24 160.15 86.31 157.39 88.39 C 155.08 90.08 155.51 93.74 152.88 95.16 C 152.09 95.21 150.50 95.29 149.70 95.33 C 150.59 92.20 151.96 89.24 153.09 86.20 C 149.12 89.22 145.28 92.62 140.59 94.48 C 138.85 95.27 136.03 94.35 136.51 92.03 C 137.11 88.88 138.43 85.93 139.20 82.82 C 135.57 84.89 131.49 86.45 128.62 89.62 C 126.22 92.08 123.93 95.44 120.08 95.35 C 120.92 92.08 122.62 89.14 123.89 86.03 C 117.90 89.33 113.24 95.94 106.00 96.32 C 102.45 96.69 102.15 92.73 102.07 90.17 C 98.07 92.00 94.22 94.22 90.01 95.54 C 87.72 95.84 85.70 93.31 87.03 91.24 C 88.25 86.46 93.25 84.19 94.84 79.66 C 89.44 82.65 84.76 87.46 78.34 88.18 C 77.08 95.17 68.98 99.38 62.49 96.49 C 64.00 90.39 70.30 88.27 75.34 85.90 C 75.27 83.68 74.80 81.30 73.36 79.55 C 70.07 77.02 66.30 80.70 64.03 83.05 C 63.12 84.98 61.54 83.85 60.20 83.12 C 62.61 79.29 66.69 76.86 68.84 72.84 C 70.81 69.74 72.87 66.23 71.64 62.41 C 64.18 69.13 58.66 77.57 52.19 85.17 C 49.49 88.54 47.44 92.43 44.30 95.42 C 43.44 96.45 41.86 95.88 41.12 95.00 C 41.52 92.16 42.72 89.51 43.97 86.95 C 49.77 76.30 58.41 66.87 61.34 54.86 C 57.20 58.94 53.74 63.65 50.36 68.36 C 46.55 73.59 44.48 80.10 39.41 84.38 C 33.26 90.27 26.05 96.64 17.01 96.55 C 11.36 96.61 4.74 94.27 2.43 88.69 C 0.58 85.68 1.45 81.91 1.88 78.63 C 4.59 70.70 9.86 63.41 17.24 59.24 C 20.36 57.34 23.93 54.66 27.78 56.05 C 30.78 57.20 33.82 58.57 36.29 60.66 C 39.79 64.89 37.76 70.52 36.05 75.04 C 34.50 78.13 32.53 81.90 28.70 82.32 C 31.19 77.86 35.19 74.12 35.89 68.80 C 37.89 61.45 28.01 55.27 21.92 58.95 C 13.47 62.89 7.04 70.65 4.70 79.67 C 3.56 84.39 5.38 89.86 9.55 92.52 C 13.81 95.15 19.23 94.74 23.69 92.82 C 32.03 89.08 39.30 82.89 43.99 75.00 C 49.43 66.12 54.47 56.54 63.01 50.19 C 65.49 51.68 64.93 54.93 64.11 57.22 C 60.79 66.66 54.74 74.78 49.71 83.33 C 57.60 75.96 62.48 65.64 71.40 59.32 C 73.76 58.00 75.33 61.02 75.38 63.01 C 75.95 67.75 73.43 71.98 70.81 75.68 C 76.26 76.03 79.07 81.36 79.41 86.26 C 85.33 84.35 91.07 81.06 94.70 75.90 C 96.26 76.97 97.83 78.04 99.38 79.14 C 96.13 83.37 92.10 87.06 89.72 91.92 C 94.92 90.57 100.21 88.81 104.56 85.59 C 106.80 82.80 108.87 79.82 111.77 77.66 C 113.66 75.63 116.80 78.60 115.99 80.86 C 114.86 84.86 110.36 86.11 107.32 88.31 C 105.34 89.19 105.79 91.75 105.20 93.48 C 108.51 93.49 111.42 91.75 114.25 90.24 C 120.19 86.28 124.99 80.86 129.17 75.13 C 129.71 75.63 130.78 76.65 131.32 77.16 C 130.74 80.54 128.28 83.20 127.23 86.44 C 131.57 84.35 135.29 80.99 140.05 79.76 C 141.24 79.95 142.99 80.59 142.64 82.14 C 142.27 85.63 140.01 88.55 139.31 91.97 C 147.10 88.86 152.99 82.49 158.31 76.22 C 159.56 76.16 160.22 76.76 160.31 78.03 C 160.00 80.46 158.46 82.47 157.58 84.70 C 161.66 82.61 165.39 78.99 170.32 79.47 C 171.06 83.58 168.48 87.06 167.19 90.74 C 174.47 85.26 181.94 79.40 190.99 77.25 C 193.26 77.32 195.22 79.04 197.61 79.00 C 196.82 83.46 195.33 87.78 194.65 92.26 C 200.41 88.37 205.12 83.07 211.07 79.43 C 213.22 80.91 211.64 83.31 211.37 85.31 C 215.67 83.37 220.12 79.63 225.10 81.34 C 224.81 85.26 223.19 88.88 222.05 92.60 C 227.52 91.78 228.95 85.87 233.13 83.15 C 235.78 81.33 238.78 79.80 242.02 79.40 C 244.31 79.13 245.30 81.59 246.64 82.97 C 250.97 75.60 252.27 66.74 250.38 58.42 C 249.07 54.06 246.15 49.75 241.59 48.40 C 238.29 47.15 234.65 48.94 232.66 51.63 C 230.31 54.83 229.06 58.87 229.37 62.85 C 229.47 66.13 231.09 69.08 231.66 72.27 C 229.93 71.88 227.43 71.89 226.83 69.82 C 225.51 64.18 224.73 57.93 227.65 52.63 M 107.70 85.43 C 110.34 84.29 112.93 82.57 113.74 79.62 C 110.68 80.15 109.10 82.99 107.70 85.43 M 181.06 93.29 C 185.52 89.55 189.69 85.31 193.10 80.59 C 187.98 83.51 183.39 87.78 181.06 93.29 M 233.11 88.18 C 236.78 87.08 240.85 86.14 243.55 83.21 C 239.52 83.09 235.41 84.77 233.11 88.18 M 231.62 91.70 C 229.96 92.26 229.18 93.94 228.25 95.28 C 233.81 94.45 238.90 91.43 242.64 87.29 C 238.85 88.44 235.30 90.24 231.62 91.70 Z" />
</g>
</svg>
