<?xml version="1.0" encoding="UTF-8" ?>
<!DOCTYPE svg PUBLIC "-//W3C//DTD SVG 1.1//EN" "http://www.w3.org/Graphics/SVG/1.1/DTD/svg11.dtd">
<svg width="256pt" height="256pt" viewBox="0 0 256 256" version="1.1" xmlns="http://www.w3.org/2000/svg">
<g id="#000000ff">
<path fill="#000000" opacity="1.00" d=" M 163.78 95.58 C 166.80 92.69 170.98 91.63 175.05 91.48 C 177.69 92.99 178.20 96.25 178.84 98.95 C 174.85 101.47 170.47 103.26 165.80 103.99 C 160.15 107.65 154.98 112.35 148.25 114.09 C 151.97 114.83 155.61 115.97 158.83 118.03 C 162.95 115.47 168.16 114.48 172.80 116.19 C 177.06 117.82 179.67 111.64 183.90 112.49 C 185.41 112.64 186.51 113.84 187.79 114.54 C 189.31 111.70 191.18 108.89 194.11 107.35 C 195.99 107.65 197.33 109.23 199.06 109.94 C 202.85 109.11 205.63 105.88 209.50 105.30 C 213.33 104.67 217.13 103.87 220.93 103.09 C 224.97 103.79 225.16 108.43 226.62 111.44 C 229.75 114.90 233.55 117.66 236.89 120.91 C 236.05 124.02 233.97 126.43 231.56 128.45 C 227.52 127.55 223.31 126.65 220.18 123.74 C 218.21 121.55 215.22 122.51 212.70 122.67 C 212.52 123.95 212.35 125.24 212.16 126.52 C 207.80 126.02 203.60 127.54 199.28 127.74 C 198.06 127.17 196.89 126.50 195.68 125.92 C 196.38 127.32 197.15 128.69 197.94 130.04 C 196.70 132.07 196.87 135.93 193.91 136.09 C 193.27 134.90 192.77 133.65 192.24 132.41 C 186.11 134.45 179.55 133.07 173.31 134.56 C 166.89 136.39 160.10 134.39 153.63 135.80 C 147.53 138.29 141.14 141.05 134.39 140.22 C 129.63 139.47 124.87 137.61 120.02 138.84 C 114.94 139.86 109.72 139.38 104.63 140.28 C 106.20 143.16 107.29 146.28 108.93 149.11 C 112.05 150.96 115.01 153.09 117.04 156.18 C 115.80 156.57 114.56 156.96 113.32 157.34 C 114.01 160.24 112.90 163.05 112.18 165.82 C 109.91 164.50 107.78 162.97 105.89 161.15 C 104.71 162.69 103.54 164.24 102.26 165.70 C 100.25 165.16 98.25 164.62 96.25 164.05 C 97.78 159.66 97.43 155.02 96.87 150.49 C 94.94 149.29 93.16 147.88 91.38 146.49 C 87.50 144.23 82.84 146.91 79.07 144.45 C 72.00 144.91 65.02 146.33 57.95 146.89 C 54.78 142.10 56.30 135.92 57.39 130.67 C 57.53 126.19 60.59 122.13 64.21 119.69 C 63.61 118.46 62.84 117.10 63.55 115.74 C 65.26 112.48 69.98 112.97 71.65 109.71 C 72.44 108.37 73.53 107.15 75.16 106.92 C 80.42 106.44 85.32 104.05 90.67 104.22 C 95.49 102.87 100.47 103.56 105.29 104.47 C 109.57 104.07 113.72 105.67 117.98 105.36 C 125.14 104.25 132.66 105.15 139.54 102.41 C 142.61 101.01 145.85 100.11 149.06 99.10 C 152.54 98.16 154.66 94.71 158.07 93.62 C 160.19 93.35 161.98 94.66 163.78 95.58 M 168.73 96.63 C 166.95 97.76 166.24 100.35 163.97 100.64 C 162.35 99.98 162.07 98.00 161.16 96.71 C 157.66 98.24 154.90 101.68 150.73 101.00 C 153.68 104.20 158.78 104.34 162.12 101.64 C 166.86 102.30 171.88 99.57 174.38 95.53 C 172.48 95.79 170.56 96.05 168.73 96.63 M 138.21 107.00 C 139.76 108.48 141.06 110.26 140.22 112.50 C 138.92 112.55 137.62 112.59 136.32 112.62 C 135.63 110.60 135.18 108.51 134.85 106.41 C 134.74 107.09 134.51 108.44 134.39 109.11 C 131.34 108.18 128.13 108.19 125.03 108.91 C 121.69 109.88 118.07 109.05 114.95 110.83 C 120.61 115.99 125.85 123.02 124.30 131.17 C 126.47 129.45 128.83 127.85 131.67 127.61 C 135.46 127.14 139.69 125.13 143.22 127.49 C 145.72 129.31 148.71 127.93 151.44 127.65 C 147.81 129.05 143.95 129.37 140.10 129.54 C 136.52 131.01 132.73 131.65 128.90 131.95 C 130.98 136.61 136.73 135.68 140.88 135.59 C 145.55 134.44 149.82 131.99 154.29 130.24 C 157.75 129.15 161.47 129.34 165.05 129.55 C 167.80 129.63 170.30 132.07 173.07 131.05 C 179.31 129.00 185.87 128.55 192.33 127.68 C 191.26 123.28 188.14 119.75 187.26 115.32 C 182.94 117.15 178.61 119.02 174.10 120.34 C 172.33 119.90 170.65 119.14 168.91 118.60 C 164.77 119.42 160.96 121.25 157.51 123.65 C 157.47 122.38 157.45 121.12 157.44 119.85 C 151.10 119.29 144.31 117.13 138.21 119.97 C 136.71 120.88 135.09 119.61 133.57 119.35 C 133.93 118.14 134.29 116.94 134.66 115.75 C 139.13 114.91 143.66 114.32 148.22 114.32 C 146.71 113.84 145.18 113.41 143.68 112.92 C 146.53 109.97 150.21 108.18 153.94 106.61 C 151.13 106.45 148.36 105.86 146.10 104.08 C 143.55 105.25 140.92 106.24 138.21 107.00 M 78.47 110.58 C 84.72 110.95 90.61 107.73 96.87 108.69 C 98.59 109.10 99.99 108.43 100.57 106.70 C 93.17 107.73 85.75 108.91 78.47 110.58 M 207.94 110.87 C 204.50 111.81 201.71 114.17 198.52 115.67 C 199.30 117.38 200.05 119.10 200.77 120.84 C 202.93 120.67 205.10 120.49 207.26 120.37 C 207.94 118.66 208.09 116.32 210.21 115.77 C 213.90 115.08 217.66 115.40 221.38 115.52 C 221.78 121.46 228.37 122.71 233.17 123.00 C 230.64 119.86 225.74 118.40 225.03 114.06 C 224.68 111.70 222.17 110.72 220.74 109.06 C 216.53 110.01 212.25 110.67 207.94 110.87 M 67.60 117.03 C 68.92 117.66 70.26 118.27 71.60 118.87 C 64.98 120.94 61.63 127.89 60.26 134.14 C 60.83 137.49 60.24 140.61 58.33 143.45 C 61.70 142.82 65.29 143.04 68.51 141.74 C 69.12 139.59 69.16 137.22 70.42 135.30 C 72.43 131.93 73.46 128.01 76.04 124.98 C 77.88 122.46 81.03 121.29 82.66 118.59 C 83.72 116.96 85.13 115.62 86.56 114.32 C 80.25 115.30 73.77 115.34 67.60 117.03 M 190.55 113.33 C 192.75 116.65 194.85 120.02 196.93 123.42 C 195.38 119.82 194.53 115.01 190.55 113.33 M 86.94 120.68 C 91.44 119.43 95.88 117.70 100.65 118.29 C 96.77 120.48 92.63 122.45 88.11 122.80 C 87.25 122.35 86.44 121.83 85.67 121.24 C 79.91 126.83 76.24 134.02 73.17 141.33 C 77.77 141.15 82.35 141.73 86.94 141.61 C 89.77 142.79 92.48 144.29 95.07 145.92 C 98.06 147.68 98.98 151.20 100.50 154.08 C 101.04 157.29 100.27 160.50 99.53 163.61 C 101.55 161.59 102.54 158.93 103.41 156.27 C 105.88 157.48 108.10 159.13 110.63 160.21 C 109.58 158.45 108.19 156.94 106.71 155.54 C 107.17 154.85 107.63 154.15 108.10 153.47 C 106.23 151.75 104.16 149.97 103.48 147.43 C 102.01 140.77 97.13 135.66 92.67 130.79 C 92.55 129.06 93.88 127.66 94.56 126.17 C 96.52 130.09 99.60 133.21 102.71 136.22 C 103.67 136.27 105.57 136.36 106.53 136.41 C 106.51 134.73 106.55 133.06 106.64 131.38 C 104.19 131.63 101.74 131.69 99.28 131.70 C 99.33 130.35 99.39 128.99 99.44 127.64 C 101.15 127.60 102.87 127.62 104.59 127.44 C 105.67 126.68 106.13 125.36 106.86 124.31 C 107.51 124.39 108.82 124.55 109.47 124.63 C 109.50 125.88 109.53 127.14 109.56 128.40 C 112.80 126.16 117.05 126.12 120.03 123.47 C 118.07 121.26 116.55 118.56 114.12 116.82 C 110.55 116.00 106.91 116.62 103.44 117.55 C 101.02 118.31 99.24 115.97 97.05 115.41 C 93.65 117.10 90.12 118.59 86.94 120.68 M 114.54 128.25 C 115.30 130.07 116.06 131.89 116.79 133.72 C 113.53 133.25 109.87 132.92 107.44 135.65 C 112.15 135.93 116.85 135.45 121.56 135.22 C 120.82 132.97 120.18 130.70 119.44 128.45 C 117.80 128.36 116.17 128.29 114.54 128.25 M 110.95 130.73 C 109.35 132.32 112.83 133.55 113.47 131.86 C 113.74 130.55 111.81 130.06 110.95 130.73 M 107.50 132.44 C 106.93 134.10 107.48 134.64 109.12 134.07 C 109.73 132.48 109.19 131.93 107.50 132.44 Z" />
<path fill="#000000" opacity="1.00" d=" M 39.29 116.27 C 44.12 115.90 48.82 117.40 53.47 118.47 C 55.11 119.45 56.49 120.78 58.00 121.93 C 59.57 120.38 60.92 118.00 63.48 118.34 C 61.23 120.54 58.36 121.94 56.03 124.02 C 53.90 127.15 54.87 131.13 54.27 134.66 C 52.57 132.91 51.71 130.63 51.15 128.30 C 47.46 126.64 43.98 129.29 40.64 130.61 C 38.36 132.01 35.64 131.68 33.11 131.38 C 33.27 132.61 33.42 133.84 33.57 135.07 C 31.27 134.62 29.00 134.05 26.75 133.36 C 26.95 137.68 27.46 141.99 27.58 146.32 C 24.23 144.18 21.90 140.32 23.18 136.29 C 23.47 132.87 25.53 130.17 27.35 127.43 C 27.92 124.91 27.86 121.88 30.33 120.35 C 33.13 118.65 35.91 116.52 39.29 116.27 Z" />
<path fill="#000000" opacity="1.00" d=" M 96.11 122.24 C 98.75 122.49 100.98 123.98 103.21 125.28 C 100.20 126.56 98.13 124.05 96.11 122.24 Z" />
<path fill="#000000" opacity="1.00" d=" M 36.17 144.90 C 38.10 140.42 40.27 134.75 45.96 134.37 C 44.60 138.72 42.20 142.64 40.01 146.60 C 41.56 147.68 43.11 148.83 44.06 150.51 C 40.88 150.35 38.14 148.56 35.06 147.95 C 32.16 147.45 29.75 145.69 27.54 143.87 C 30.48 143.38 33.34 144.21 36.17 144.90 Z" />
<path fill="#000000" opacity="1.00" d=" M 44.60 148.77 C 46.13 145.32 48.31 142.21 51.52 140.12 C 51.49 142.59 51.19 145.06 51.01 147.53 C 49.66 148.52 48.32 149.52 46.97 150.52 C 46.38 150.08 45.20 149.21 44.60 148.77 Z" />
</g>
</svg>
