<?xml version="1.0" encoding="UTF-8" ?>
<!DOCTYPE svg PUBLIC "-//W3C//DTD SVG 1.1//EN" "http://www.w3.org/Graphics/SVG/1.1/DTD/svg11.dtd">
<svg width="256pt" height="256pt" viewBox="0 0 256 256" version="1.1" xmlns="http://www.w3.org/2000/svg">
<g id="#000000ff">
<path fill="#000000" opacity="1.00" d=" M 122.91 86.89 C 127.47 82.81 128.78 75.85 134.12 72.64 C 136.58 71.49 135.60 74.87 135.48 76.18 C 141.84 79.30 147.80 83.36 154.67 85.35 C 159.82 87.14 165.16 88.45 170.07 90.87 C 174.18 92.73 178.35 94.52 182.72 95.68 C 182.92 96.43 183.32 97.93 183.52 98.68 C 179.26 98.81 174.95 97.94 171.30 95.67 C 166.62 92.38 160.53 92.37 155.66 89.46 C 153.38 88.18 150.71 87.88 148.38 86.72 C 143.34 83.93 137.64 82.40 132.99 78.90 C 129.72 83.29 127.25 88.42 122.80 91.80 C 119.93 93.92 117.41 96.44 115.30 99.31 C 111.09 103.85 107.26 108.78 104.24 114.19 C 102.60 118.55 100.29 122.62 98.97 127.10 C 97.21 132.93 93.56 138.20 93.36 144.45 C 92.68 144.65 91.33 145.05 90.65 145.25 C 90.99 143.28 91.37 141.32 91.68 139.35 C 90.57 139.98 89.31 140.45 88.45 141.45 C 85.10 145.02 81.54 148.38 78.13 151.89 C 84.27 155.24 90.74 158.53 97.89 158.75 C 106.80 161.83 117.28 161.80 124.13 169.19 C 123.59 169.52 122.52 170.17 121.99 170.50 C 118.49 168.85 115.07 167.00 111.47 165.57 C 109.76 165.34 108.01 165.78 106.31 165.46 C 103.37 164.15 100.47 162.29 97.11 162.47 C 88.34 163.43 80.26 158.51 73.45 153.53 C 73.40 153.00 73.31 151.93 73.26 151.39 C 78.07 147.50 82.13 142.76 87.06 139.02 C 88.31 137.97 89.48 136.83 90.54 135.59 C 95.47 124.52 100.36 113.32 107.38 103.39 C 112.25 97.61 117.18 91.84 122.91 86.89 Z" />
<path fill="#000000" opacity="1.00" d=" M 130.99 86.70 C 139.17 86.33 146.83 90.15 154.50 92.57 C 158.32 94.76 163.03 95.70 166.03 99.08 C 164.40 99.17 162.59 99.95 161.11 98.91 C 153.82 94.87 145.99 91.67 137.76 90.18 C 135.15 89.85 132.71 88.73 130.99 86.70 Z" />
<path fill="#000000" opacity="1.00" d=" M 128.29 92.37 C 131.73 93.11 134.88 94.73 137.90 96.50 C 134.47 97.94 129.86 95.58 128.29 92.37 Z" />
<path fill="#000000" opacity="1.00" d=" M 140.32 96.45 C 144.77 98.74 148.50 102.44 153.57 103.50 C 153.61 104.25 153.67 105.76 153.71 106.51 C 148.32 105.23 141.75 102.27 140.32 96.45 Z" />
<path fill="#000000" opacity="1.00" d=" M 125.46 100.01 C 129.23 101.53 132.17 104.47 135.83 106.22 C 139.29 108.59 144.02 108.67 146.94 111.89 C 142.43 112.66 138.65 110.34 135.25 107.77 C 131.56 106.73 128.39 104.70 125.40 102.36 C 125.42 101.77 125.45 100.60 125.46 100.01 Z" />
<path fill="#000000" opacity="1.00" d=" M 165.78 110.77 C 170.52 106.53 175.80 101.93 182.62 102.35 C 182.64 102.82 182.66 103.76 182.67 104.23 C 175.79 106.87 170.21 111.91 164.98 116.96 C 157.93 122.66 152.52 129.99 147.27 137.29 C 143.68 141.96 142.04 147.76 138.53 152.47 C 137.23 154.22 135.85 155.90 134.76 157.78 C 132.96 161.23 129.31 163.05 126.15 165.02 C 127.09 161.13 130.51 158.71 132.22 155.22 C 139.13 145.60 143.34 134.23 151.36 125.36 C 155.21 119.59 160.99 115.65 165.78 110.77 Z" />
<path fill="#000000" opacity="1.00" d=" M 116.69 103.17 C 120.33 104.14 123.97 105.17 127.50 106.47 C 128.83 107.83 129.83 109.47 131.17 110.81 C 136.05 112.99 141.12 114.79 146.47 115.35 C 144.22 118.59 139.85 117.05 136.82 115.98 C 133.75 114.15 130.13 113.05 127.74 110.25 C 124.91 106.41 118.24 108.28 116.69 103.17 Z" />
<path fill="#000000" opacity="1.00" d=" M 109.85 111.51 C 116.12 112.01 121.30 115.76 126.99 118.01 C 130.81 119.69 134.89 120.86 138.29 123.36 C 137.76 123.51 136.70 123.82 136.17 123.98 C 129.32 121.16 122.54 118.16 115.75 115.22 C 113.60 114.27 110.96 113.84 109.85 111.51 Z" />
<path fill="#000000" opacity="1.00" d=" M 104.83 115.03 C 109.53 114.18 114.37 116.03 117.77 119.30 C 125.04 123.41 134.45 122.55 141.16 128.05 C 137.73 129.74 134.67 126.89 131.31 126.56 C 128.04 125.63 124.14 126.03 121.55 123.46 C 118.24 120.79 114.43 118.22 110.05 117.99 C 108.21 117.59 104.86 117.57 104.83 115.03 Z" />
<path fill="#000000" opacity="1.00" d=" M 107.41 123.77 C 111.15 124.50 114.74 125.83 118.41 126.86 C 121.73 127.86 122.70 132.03 126.06 132.96 C 128.18 134.09 131.26 133.67 132.49 136.08 C 130.36 136.27 128.18 136.74 126.07 136.18 C 123.43 135.89 122.15 133.25 120.45 131.55 C 117.51 126.62 108.33 130.56 107.41 123.77 Z" />
<path fill="#000000" opacity="1.00" d=" M 101.62 135.76 C 104.26 135.72 106.94 136.36 108.40 138.76 C 105.96 138.22 103.28 137.85 101.62 135.76 Z" />
<path fill="#000000" opacity="1.00" d=" M 108.43 139.25 C 114.76 141.73 121.09 144.45 126.74 148.28 C 127.88 148.91 128.46 150.10 129.12 151.17 C 125.14 150.27 122.24 147.12 118.54 145.57 C 115.03 143.74 110.78 142.68 108.43 139.25 Z" />
<path fill="#000000" opacity="1.00" d=" M 97.52 143.57 C 105.60 145.88 113.15 150.03 120.00 154.82 C 115.82 154.58 112.36 152.24 108.99 150.01 C 105.32 147.54 99.99 147.66 97.52 143.57 Z" />
<path fill="#000000" opacity="1.00" d=" M 85.30 150.54 C 93.95 151.97 103.07 153.85 110.13 159.40 C 110.35 159.94 110.79 161.02 111.00 161.56 C 107.62 160.28 105.05 157.49 101.57 156.46 C 97.41 155.09 93.08 154.35 88.85 153.29 C 87.23 153.03 86.06 151.92 85.30 150.54 Z" />
</g>
</svg>
