<?xml version="1.0" encoding="UTF-8" ?>
<!DOCTYPE svg PUBLIC "-//W3C//DTD SVG 1.1//EN" "http://www.w3.org/Graphics/SVG/1.1/DTD/svg11.dtd">
<svg width="256pt" height="256pt" viewBox="0 0 256 256" version="1.1" xmlns="http://www.w3.org/2000/svg">
<g id="#000000ff">
<path fill="#000000" opacity="1.00" d=" M 9.91 58.14 C 11.59 56.52 13.34 54.99 15.11 53.48 C 17.01 54.20 20.08 53.90 20.65 56.38 C 20.89 57.80 21.00 59.24 21.16 60.68 C 22.67 61.54 24.19 62.41 25.70 63.28 C 25.90 65.11 26.63 66.97 26.27 68.82 C 24.83 70.96 23.11 72.88 21.45 74.83 C 23.17 76.00 24.95 77.11 26.58 78.41 C 26.75 79.92 26.23 81.40 26.08 82.90 C 23.18 81.55 20.76 79.42 18.05 77.76 C 17.98 75.28 18.25 72.81 19.86 70.81 C 22.07 67.98 19.56 64.48 20.64 61.33 C 19.03 60.00 17.54 58.53 16.07 57.04 C 15.49 59.19 14.77 61.30 13.64 63.22 C 12.62 66.38 13.05 70.26 10.48 72.72 C 9.36 74.48 6.19 73.34 7.51 71.10 C 8.18 67.81 10.36 65.18 12.76 62.95 C 11.80 61.35 10.85 59.75 9.91 58.14 Z" />
<path fill="#000000" opacity="1.00" d=" M 44.09 72.65 C 44.24 70.20 43.98 66.28 47.12 65.72 C 51.01 64.83 52.49 69.34 53.99 72.01 C 53.23 72.62 52.47 73.23 51.71 73.85 C 53.72 75.62 55.66 77.45 57.68 79.22 C 56.10 80.98 55.13 83.36 55.23 85.74 C 55.87 89.14 57.85 92.06 59.25 95.17 C 57.83 95.38 56.41 95.57 55.00 95.84 C 57.34 103.27 56.10 111.07 56.95 118.67 C 56.24 118.57 54.82 118.37 54.11 118.26 C 54.67 120.13 55.12 122.04 55.40 123.98 C 57.55 123.70 59.72 123.70 61.85 124.15 C 62.25 126.32 62.37 128.53 62.54 130.74 C 63.18 131.98 64.89 131.87 66.00 132.48 C 67.37 131.04 68.76 129.63 70.19 128.26 C 71.12 128.89 72.05 129.53 72.97 130.17 C 74.45 127.58 75.89 124.89 78.29 123.01 C 79.68 123.34 81.08 123.69 82.51 123.91 C 83.97 126.82 83.56 130.13 83.92 133.27 C 82.71 133.12 81.51 132.97 80.31 132.81 C 80.12 131.39 79.94 129.96 79.76 128.54 C 78.47 128.97 77.20 129.43 75.94 129.92 C 76.38 130.36 77.28 131.24 77.73 131.68 C 75.26 131.91 75.71 134.49 74.99 136.20 C 73.86 138.04 72.51 139.75 71.72 141.77 C 69.51 141.22 67.64 142.37 65.82 143.45 C 66.14 144.46 66.44 145.47 66.71 146.50 C 65.48 146.05 64.25 145.59 63.03 145.13 C 63.37 140.83 64.14 136.45 66.93 133.00 C 65.62 132.71 64.31 132.44 62.99 132.19 C 62.58 134.36 62.35 136.57 62.07 138.77 C 61.26 138.86 59.65 139.03 58.84 139.12 C 58.50 140.34 58.12 141.56 57.71 142.77 C 53.61 144.08 49.29 143.55 45.10 143.11 C 42.98 142.36 40.51 141.96 39.10 140.03 C 42.21 138.83 45.52 139.00 48.72 139.65 C 48.31 136.23 48.07 132.77 48.42 129.33 C 46.26 129.38 44.10 129.37 41.94 129.33 C 41.67 132.15 41.76 134.99 41.78 137.82 C 41.75 140.10 38.44 139.96 37.74 138.13 C 38.20 134.10 38.80 130.04 38.39 125.97 C 38.89 125.76 39.88 125.32 40.38 125.11 C 40.27 124.39 40.16 123.67 40.05 122.95 C 41.67 122.31 43.29 121.68 44.93 121.08 C 45.15 117.89 45.78 114.69 45.44 111.48 C 45.05 109.12 46.45 107.02 47.36 104.96 C 45.87 103.39 44.75 101.36 42.60 100.58 C 42.59 96.62 39.54 90.52 44.59 88.61 C 44.18 86.31 44.78 83.91 44.02 81.69 C 43.78 82.65 43.29 84.58 43.05 85.54 C 40.95 85.44 38.98 84.72 37.11 83.81 C 37.65 81.40 38.46 79.06 39.68 76.90 C 42.16 78.03 44.16 81.42 47.18 80.30 C 45.37 78.83 43.12 78.18 41.02 77.26 C 42.03 76.16 43.05 75.06 44.07 73.96 C 45.97 74.66 47.93 75.28 49.97 75.38 C 49.85 73.01 49.51 70.66 48.89 68.37 C 47.85 69.53 47.51 71.03 47.21 72.52 C 46.17 72.57 45.13 72.62 44.09 72.65 M 47.67 78.08 C 48.83 80.80 47.80 83.62 47.11 86.32 C 48.15 86.85 49.19 87.39 50.23 87.94 C 48.92 90.96 47.52 93.99 46.98 97.27 C 48.93 97.45 50.46 98.32 51.00 100.32 C 52.10 97.97 50.86 95.56 50.51 93.21 C 51.04 91.19 52.70 89.31 52.05 87.13 C 51.34 86.10 50.27 85.45 49.26 84.77 C 52.28 84.71 52.88 81.74 52.96 79.26 C 52.02 77.78 50.28 77.12 48.91 76.14 C 48.60 76.62 47.98 77.59 47.67 78.08 M 45.30 98.21 C 43.74 101.17 48.67 98.32 45.30 98.21 M 50.00 102.30 C 49.26 104.83 49.78 107.49 49.45 110.08 C 49.57 113.75 48.28 117.59 50.00 121.05 C 49.23 122.21 48.44 123.37 47.74 124.57 C 49.38 124.54 51.03 124.47 52.68 124.48 C 50.46 119.53 51.41 114.17 51.31 108.94 C 51.46 106.66 51.58 104.17 50.00 102.30 M 52.33 128.53 C 52.51 132.22 52.45 135.91 52.65 139.59 C 54.37 139.36 56.10 139.16 57.82 138.95 C 57.12 134.99 58.25 131.02 57.59 127.05 C 55.83 127.53 54.09 128.04 52.33 128.53 M 68.86 139.46 C 67.85 138.75 66.85 138.03 65.85 137.32 C 66.31 138.08 66.77 138.84 67.23 139.61 C 67.91 139.63 69.27 139.67 69.95 139.69 C 70.08 137.91 70.17 136.12 70.17 134.33 C 69.60 136.00 69.30 137.75 68.86 139.46 Z" />
<path fill="#000000" opacity="1.00" d=" M 119.18 65.77 C 121.13 65.50 122.88 66.76 124.59 67.51 C 128.93 69.41 127.39 75.18 130.51 78.24 C 129.24 79.99 127.99 81.74 126.72 83.49 C 124.48 83.42 122.31 83.94 120.14 84.41 C 120.76 87.95 121.03 91.54 121.46 95.12 C 124.42 92.89 123.55 88.81 124.86 85.73 C 126.27 85.22 127.72 84.82 129.17 84.45 C 128.69 86.71 127.25 88.79 127.61 91.17 C 128.07 93.86 124.84 95.20 124.76 97.74 C 124.23 100.29 125.69 102.67 125.49 105.22 C 125.30 108.80 125.19 112.39 125.11 115.98 C 124.03 116.37 122.94 116.76 121.86 117.14 C 120.40 112.84 121.84 108.23 121.38 103.79 C 117.82 107.66 121.33 113.99 117.95 118.08 C 117.52 117.98 116.67 117.79 116.24 117.70 C 114.71 111.14 117.19 104.46 116.36 97.85 C 116.68 93.69 117.01 89.54 117.34 85.39 C 118.53 80.76 124.68 81.50 126.23 77.29 C 125.71 77.04 124.65 76.53 124.13 76.28 C 122.68 77.60 120.95 78.57 118.92 78.26 C 118.65 79.81 118.41 81.37 118.28 82.94 C 117.60 83.47 116.25 84.54 115.57 85.07 C 114.70 81.36 113.75 77.23 116.30 73.95 C 117.52 74.41 118.72 74.93 119.92 75.46 C 121.25 74.50 122.58 73.53 123.96 72.65 C 123.39 71.28 122.83 69.91 122.20 68.57 C 121.77 70.13 121.46 71.73 121.13 73.32 C 119.65 72.64 116.97 72.17 117.33 69.99 C 117.18 68.35 118.24 67.00 119.18 65.77 M 120.30 102.50 C 120.59 102.54 121.16 102.61 121.45 102.64 C 121.51 100.24 122.25 97.59 120.63 95.51 C 120.01 97.79 120.40 100.17 120.30 102.50 Z" />
<path fill="#000000" opacity="1.00" d=" M 163.25 67.94 C 166.89 64.04 173.75 65.10 176.45 69.50 C 178.23 72.74 175.68 76.05 174.54 79.07 C 177.46 80.21 179.76 83.32 179.54 86.52 C 180.33 87.06 181.12 87.61 181.90 88.17 C 181.90 94.90 179.03 101.23 179.22 107.97 C 178.22 111.67 178.97 116.03 176.36 119.11 C 180.84 123.30 176.07 129.34 175.61 134.28 C 175.14 142.73 170.88 150.93 172.67 159.47 C 172.51 162.20 170.68 164.89 172.25 167.60 C 177.72 169.87 183.25 172.49 186.94 177.33 C 181.78 179.27 176.24 179.83 170.84 180.71 C 170.56 181.04 170.00 181.69 169.71 182.01 C 172.79 181.81 175.79 180.98 178.86 180.72 C 179.73 182.04 180.19 183.58 180.82 185.03 C 172.50 185.27 164.18 188.58 155.96 186.06 C 153.05 184.69 151.38 181.85 149.56 179.37 C 146.57 177.41 143.20 176.06 139.88 174.75 C 140.31 176.44 140.81 178.11 141.20 179.81 C 146.58 183.05 151.07 188.99 157.96 188.72 C 163.10 187.81 168.41 188.90 173.49 187.61 C 175.59 187.22 178.00 186.91 179.90 188.13 C 180.90 189.30 181.54 190.72 182.25 192.08 C 180.20 192.62 178.10 192.74 176.01 192.42 C 177.78 193.05 179.49 193.85 180.92 195.10 C 180.89 195.72 180.83 196.96 180.80 197.58 C 178.10 197.93 175.38 198.23 172.66 198.27 C 174.79 200.28 176.72 202.52 177.80 205.28 C 174.57 206.03 171.21 205.44 168.01 206.26 C 162.75 207.50 157.01 208.12 151.91 205.94 C 151.20 203.86 154.16 202.80 155.17 201.32 C 156.07 201.81 156.97 202.30 157.88 202.78 C 156.78 200.86 155.20 199.07 155.44 196.72 C 154.80 196.60 153.51 196.36 152.86 196.25 C 153.06 195.58 153.45 194.26 153.65 193.60 C 155.55 193.00 157.44 192.39 159.24 191.54 C 157.50 191.75 155.79 192.14 154.05 192.34 C 151.70 192.05 149.71 190.58 147.53 189.76 C 147.69 192.40 147.61 195.04 147.65 197.68 C 146.31 198.51 145.31 200.21 143.62 200.24 C 143.02 198.69 144.91 197.94 145.63 196.89 C 145.14 193.79 145.88 190.63 145.15 187.54 C 142.59 191.53 143.02 196.54 142.11 201.03 C 141.55 201.76 140.93 202.44 140.26 203.08 C 141.32 203.59 142.36 204.14 143.39 204.71 C 143.68 202.16 145.36 199.35 148.19 199.24 C 147.56 201.58 146.45 203.74 145.06 205.71 C 147.11 206.83 148.84 208.51 151.04 209.34 C 155.76 209.77 160.44 208.68 165.04 207.77 C 169.30 207.90 173.46 206.50 177.71 206.94 C 178.05 208.63 178.43 210.33 178.84 212.01 C 169.14 211.84 159.79 214.85 150.13 214.93 C 143.91 210.93 138.14 206.34 133.01 201.00 C 134.08 191.93 135.14 182.70 138.19 174.04 C 137.50 173.36 136.81 172.68 136.13 172.00 C 136.35 170.45 136.35 168.89 136.32 167.34 C 142.23 168.83 147.38 165.02 153.01 164.13 C 152.46 162.60 151.90 161.07 151.35 159.54 C 154.12 157.19 153.76 153.28 155.14 150.19 C 156.29 147.50 154.44 144.70 154.93 141.97 C 155.92 138.92 152.76 135.63 155.65 133.00 C 154.13 129.98 155.16 126.94 156.18 123.97 C 155.14 120.04 156.30 116.13 157.11 112.28 C 157.92 110.54 159.60 109.34 160.10 107.43 C 158.83 107.73 157.58 108.09 156.33 108.44 C 154.91 114.43 153.45 120.47 151.23 126.21 C 149.91 127.48 148.29 129.77 146.24 128.62 C 144.31 126.37 145.63 123.13 148.51 122.67 C 148.50 123.51 148.48 125.19 148.47 126.02 C 151.11 121.37 150.96 115.85 152.71 110.87 C 153.04 108.19 155.60 106.69 156.38 104.20 C 157.65 101.01 159.12 97.84 159.47 94.38 C 160.68 94.29 161.89 94.20 163.10 94.13 C 163.64 97.70 163.11 102.02 166.84 104.06 C 167.94 102.42 170.45 100.92 169.20 98.66 C 167.73 95.21 168.83 90.11 173.24 89.85 C 173.96 93.60 171.67 97.32 173.09 100.99 C 173.75 99.03 174.16 96.86 175.93 95.55 C 175.62 94.75 175.30 93.95 174.99 93.15 C 176.08 91.98 177.18 90.81 178.29 89.66 C 177.71 89.41 176.56 88.92 175.98 88.67 C 176.24 87.91 176.51 87.15 176.78 86.39 C 174.66 85.12 172.82 83.46 170.97 81.84 C 171.71 78.42 171.63 74.87 171.60 71.39 C 171.23 69.90 169.64 69.61 168.44 69.06 C 166.92 72.16 166.19 75.56 165.72 78.97 C 164.71 78.83 163.71 78.70 162.71 78.57 C 162.70 75.00 163.95 71.53 163.25 67.94 M 163.10 102.99 C 161.48 112.23 159.83 121.73 160.84 131.12 C 160.40 130.78 159.51 130.10 159.06 129.75 C 160.20 133.08 159.03 136.63 160.23 139.96 C 161.55 137.70 163.88 135.54 163.32 132.69 C 162.75 128.51 165.57 124.34 169.49 122.91 C 169.11 127.51 168.92 132.14 167.78 136.64 C 166.83 139.62 168.17 142.74 169.52 145.36 C 169.58 143.07 169.43 140.78 169.26 138.50 C 169.08 133.68 171.32 129.25 172.68 124.76 C 172.50 120.90 174.29 116.80 171.82 113.34 C 173.43 110.04 173.03 106.22 173.46 102.65 C 172.03 105.97 171.29 109.53 170.17 112.95 C 170.31 113.55 170.59 114.73 170.74 115.33 C 169.27 115.83 167.80 116.32 166.31 116.77 C 165.14 112.60 167.33 108.49 166.54 104.25 C 165.39 103.83 164.24 103.41 163.10 102.99 M 162.27 151.22 C 163.20 155.60 161.00 159.68 160.76 163.99 C 160.58 165.28 160.80 166.78 159.68 167.71 C 157.55 170.32 155.56 173.73 151.62 173.04 C 151.81 171.41 152.31 169.86 152.82 168.31 C 148.85 169.64 144.70 170.36 140.54 170.77 C 145.49 174.05 151.80 174.77 156.10 179.14 C 158.66 178.51 161.27 178.25 163.89 177.98 C 163.47 177.44 162.64 176.36 162.22 175.82 C 163.07 176.46 163.93 177.10 164.78 177.74 C 169.18 176.14 173.86 175.75 178.42 174.83 C 175.51 172.69 172.33 170.20 168.55 170.21 C 168.41 170.86 168.13 172.15 168.00 172.80 C 165.36 174.13 162.57 174.55 159.86 173.12 C 160.97 171.34 162.13 169.59 163.38 167.91 C 162.75 162.40 163.57 156.84 163.68 151.32 C 163.33 151.29 162.62 151.25 162.27 151.22 M 154.55 164.96 C 154.13 166.36 154.61 166.85 155.99 166.43 C 156.43 165.02 155.95 164.54 154.55 164.96 Z" />
<path fill="#000000" opacity="1.00" d=" M 227.58 69.58 C 230.36 67.78 234.35 66.37 237.26 68.67 C 239.70 69.99 239.28 73.08 239.43 75.41 C 236.60 75.01 234.00 73.97 232.25 71.63 C 231.26 72.87 230.20 74.06 229.29 75.37 C 228.64 78.30 230.86 80.78 232.58 82.90 C 232.23 84.52 231.89 86.14 231.59 87.78 C 233.00 89.14 235.40 90.46 234.87 92.80 C 234.15 96.05 234.93 100.42 231.28 102.05 C 230.52 99.08 229.60 96.15 229.15 93.11 C 227.33 96.43 227.26 100.14 226.97 103.82 C 225.59 103.84 224.28 103.25 222.95 103.00 C 223.73 95.27 226.15 87.90 227.92 80.38 C 227.40 80.87 226.36 81.86 225.84 82.35 C 225.06 80.20 224.25 78.06 223.31 75.98 C 224.87 73.94 226.11 71.68 227.58 69.58 Z" />
<path fill="#000000" opacity="1.00" d=" M 6.09 73.76 C 6.57 73.75 7.53 73.71 8.01 73.69 C 8.51 77.22 7.84 80.73 7.30 84.21 C 7.36 93.39 9.16 102.55 7.87 111.72 C 8.59 114.23 9.13 116.79 9.39 119.39 C 8.71 119.47 7.37 119.61 6.70 119.68 C 5.13 117.43 4.94 114.64 4.81 111.99 C 4.75 107.75 4.17 103.54 4.22 99.31 C 3.24 94.36 2.25 89.31 2.42 84.25 C 3.45 80.73 3.86 76.77 6.09 73.76 Z" />
<path fill="#000000" opacity="1.00" d=" M 234.53 77.36 C 236.07 76.63 237.74 76.23 239.36 75.69 C 238.74 81.53 243.76 86.15 242.67 91.96 C 240.51 96.46 239.50 101.37 237.84 106.05 C 238.35 110.31 239.06 115.07 236.21 118.71 C 236.45 119.44 236.71 120.17 236.97 120.90 C 235.15 122.94 233.32 124.96 231.53 127.01 C 232.53 128.10 233.87 129.35 233.17 130.98 C 231.76 136.10 232.95 141.39 232.45 146.59 C 233.21 145.97 233.97 145.38 234.75 144.79 C 237.34 147.26 239.45 150.16 241.70 152.94 C 239.94 156.13 239.24 159.82 239.65 163.44 C 240.03 166.76 238.36 169.87 238.26 173.17 C 240.77 170.30 240.29 165.67 244.04 163.71 C 245.59 165.25 247.09 166.86 248.26 168.72 C 249.71 167.27 251.07 165.74 252.36 164.14 C 253.36 164.53 254.36 164.94 255.36 165.36 C 255.52 164.70 255.84 163.38 256.00 162.72 L 256.00 166.51 C 255.03 165.92 254.05 165.36 253.04 164.83 C 251.01 167.98 250.27 171.65 249.06 175.12 C 247.34 176.33 245.29 175.74 243.43 175.33 C 242.90 176.90 242.61 178.92 240.77 179.50 C 239.43 179.55 238.09 179.40 236.76 179.34 C 235.68 181.37 234.35 183.27 232.58 184.76 C 231.49 183.28 230.39 181.81 229.16 180.45 C 228.31 182.70 227.81 185.07 227.63 187.47 C 226.13 188.26 224.69 189.14 223.26 190.03 C 224.04 186.58 225.49 183.37 227.58 180.52 C 223.26 179.72 218.90 179.20 214.58 178.41 C 215.33 180.12 216.16 181.79 216.93 183.50 C 215.37 182.82 213.87 182.02 212.43 181.13 C 212.18 182.28 211.72 183.32 211.04 184.26 C 209.51 184.19 208.06 183.79 206.69 183.08 C 208.83 181.29 211.29 179.96 213.79 178.74 C 210.82 177.84 207.76 177.37 204.73 176.77 C 206.31 175.29 208.05 173.99 209.80 172.72 C 208.23 172.26 206.67 171.78 205.11 171.27 C 209.11 166.37 207.66 159.72 207.39 153.94 C 208.33 153.02 209.28 152.10 210.22 151.18 C 209.03 149.71 207.84 148.23 206.65 146.76 C 211.28 144.16 216.62 143.23 221.71 141.88 C 222.03 134.62 219.26 125.89 224.73 119.94 C 222.51 116.67 223.51 112.73 223.69 109.07 C 223.76 107.14 224.84 104.81 226.99 104.60 C 227.98 106.40 226.87 108.79 226.96 110.81 C 228.77 110.50 230.59 110.24 232.43 110.15 C 232.86 106.51 234.83 103.34 235.91 99.89 C 237.03 96.89 237.06 93.64 237.47 90.49 C 238.02 86.89 234.60 84.40 232.88 81.63 C 233.39 80.19 233.83 78.72 234.53 77.36 M 226.37 112.22 C 226.37 113.52 226.40 114.81 226.47 116.11 C 227.43 115.30 228.19 114.29 228.87 113.23 C 228.03 112.89 227.20 112.55 226.37 112.22 M 231.18 119.66 C 229.87 120.10 228.57 120.56 227.28 121.04 C 227.73 124.71 226.50 128.32 226.97 131.98 C 227.42 135.15 226.91 138.31 226.39 141.44 C 228.91 137.81 227.95 132.70 230.15 128.78 C 229.15 123.50 233.34 119.11 232.72 113.92 C 231.99 115.77 231.48 117.69 231.18 119.66 M 212.79 146.16 C 215.17 149.72 218.27 153.04 222.80 153.46 C 223.62 157.13 221.62 160.88 222.94 164.53 C 223.52 162.10 223.67 159.62 223.79 157.14 C 224.69 155.76 225.89 154.61 226.95 153.36 C 227.50 153.82 228.61 154.75 229.16 155.21 C 228.90 157.11 228.71 159.03 228.65 160.96 C 231.51 158.66 229.42 154.15 232.08 151.67 C 236.25 152.36 233.72 158.13 236.77 160.32 C 237.46 159.19 238.15 158.07 238.85 156.95 C 237.02 154.20 234.69 151.88 232.28 149.65 C 231.92 150.41 231.19 151.94 230.83 152.71 C 227.48 150.21 223.35 152.37 219.56 151.88 C 221.65 148.79 225.52 148.91 228.68 147.75 C 229.18 145.99 226.99 145.87 225.97 145.09 C 223.75 147.93 220.56 149.82 216.83 149.19 C 218.43 147.37 220.24 145.74 222.12 144.20 C 219.05 145.06 215.93 145.69 212.79 146.16 M 217.62 153.93 C 216.65 154.76 217.36 157.55 218.85 156.43 C 219.90 155.61 219.09 152.60 217.62 153.93 M 222.56 166.32 C 222.51 168.55 222.29 170.77 222.00 172.98 C 222.45 172.95 223.35 172.89 223.79 172.86 C 223.67 170.70 223.58 168.53 223.48 166.36 C 223.25 166.35 222.79 166.33 222.56 166.32 Z" />
<path fill="#000000" opacity="1.00" d=" M 11.84 77.05 C 12.39 77.33 13.47 77.90 14.01 78.19 C 11.51 85.40 12.85 92.98 14.51 100.21 C 14.04 104.86 13.24 109.52 14.81 114.08 C 11.56 113.03 10.55 109.07 10.98 106.02 C 11.59 102.30 10.24 98.72 10.03 95.03 C 9.97 92.60 8.12 90.48 8.55 88.02 C 9.30 84.27 10.69 80.68 11.84 77.05 Z" />
<path fill="#000000" opacity="1.00" d=" M 183.81 83.24 C 187.63 80.37 191.63 76.69 196.81 77.75 C 199.32 80.88 197.05 84.63 198.34 88.11 C 195.93 90.82 192.47 92.01 188.91 91.07 C 187.14 97.65 187.34 104.48 187.78 111.22 C 188.85 110.74 189.90 110.22 190.93 109.67 C 192.06 105.86 191.60 101.83 191.92 97.92 C 193.15 97.59 194.38 97.27 195.61 96.96 C 195.71 101.66 195.58 106.35 194.83 111.00 C 194.11 115.04 195.72 119.57 193.24 123.19 C 192.00 125.15 192.93 127.49 192.70 129.64 C 189.66 128.95 186.93 130.91 184.03 130.20 C 184.26 127.57 185.33 125.19 186.92 123.10 C 185.52 124.11 184.14 126.39 182.29 124.79 C 181.21 122.51 182.22 119.77 182.52 117.36 C 180.69 116.62 181.77 114.61 181.92 113.20 C 182.65 110.51 182.50 107.68 182.32 104.93 C 182.98 104.56 183.64 104.19 184.31 103.83 C 183.44 102.88 182.61 101.89 181.87 100.84 C 182.16 97.64 182.54 94.43 182.45 91.20 C 183.46 90.41 185.52 90.38 185.80 88.94 C 185.20 87.02 184.43 85.16 183.81 83.24 M 188.71 83.06 C 189.12 84.72 189.62 86.37 190.17 87.99 C 191.58 87.78 192.99 87.54 194.41 87.31 C 194.29 85.55 194.09 83.80 193.73 82.08 C 192.04 82.33 190.37 82.69 188.71 83.06 Z" />
<path fill="#000000" opacity="1.00" d=" M 156.21 82.07 C 157.40 82.36 158.59 82.64 159.78 82.93 C 158.62 84.81 157.54 86.81 155.96 88.39 C 152.59 87.67 154.40 83.58 156.21 82.07 Z" />
<path fill="#000000" opacity="1.00" d=" M 24.82 92.10 C 22.37 89.39 21.16 84.91 23.99 82.01 C 26.77 84.47 26.98 88.34 26.43 91.75 C 28.49 95.35 28.68 99.48 27.65 103.46 C 27.09 104.87 28.27 106.02 28.78 107.24 C 26.48 110.89 28.88 114.93 28.94 118.82 C 27.77 119.52 26.56 120.15 25.30 120.67 C 24.01 118.20 24.37 115.52 25.27 112.99 C 22.47 106.47 22.68 98.80 24.82 92.10 Z" />
<path fill="#000000" opacity="1.00" d=" M 151.38 92.44 C 151.76 90.88 153.72 91.31 154.88 90.95 C 155.37 99.85 151.87 108.20 149.79 116.69 C 149.22 118.48 148.66 120.52 146.78 121.37 C 145.54 115.62 147.99 110.15 150.06 104.94 C 150.39 100.78 149.77 96.43 151.38 92.44 Z" />
<path fill="#000000" opacity="1.00" d=" M 82.33 107.93 C 86.18 106.86 82.08 112.52 81.22 109.26 C 81.50 108.93 82.05 108.26 82.33 107.93 Z" />
<path fill="#000000" opacity="1.00" d=" M 121.68 120.43 C 125.75 118.80 129.97 114.32 134.47 117.42 C 137.63 118.11 138.38 121.79 137.60 124.50 C 136.58 125.78 135.19 126.78 134.38 128.22 C 134.43 131.80 135.05 135.42 134.24 138.96 C 133.85 141.40 131.32 143.27 131.83 145.89 C 132.62 150.69 132.88 155.60 132.57 160.46 C 132.00 160.88 130.85 161.73 130.28 162.15 C 132.05 162.22 133.82 162.28 135.59 162.39 C 135.52 162.85 135.37 163.78 135.30 164.25 C 125.29 165.69 115.11 165.60 105.02 165.12 C 103.42 164.77 100.88 165.81 100.10 163.85 C 101.30 162.85 102.91 162.67 104.35 162.20 C 103.88 156.87 104.94 151.48 106.56 146.44 C 107.04 144.40 108.62 143.04 110.41 142.13 C 108.27 141.16 106.43 139.10 103.90 139.43 C 100.83 139.75 98.10 138.18 95.29 137.20 C 95.62 135.71 95.62 134.06 96.65 132.83 C 102.92 128.64 110.00 125.76 117.44 124.51 C 118.24 122.56 119.66 121.11 121.68 120.43 M 126.96 122.23 C 126.74 121.89 126.29 121.21 126.07 120.87 C 123.83 121.40 124.15 123.53 124.78 125.21 C 124.22 125.26 123.10 125.37 122.54 125.42 C 124.75 128.25 128.13 126.81 131.04 126.29 C 132.07 125.26 132.93 124.08 133.81 122.93 C 133.55 121.89 133.30 120.84 133.05 119.80 C 131.01 120.58 128.88 121.17 126.96 122.23 M 120.24 124.24 C 120.81 124.82 120.81 124.82 120.24 124.24 M 100.01 135.28 C 101.57 135.66 103.18 136.84 104.83 136.10 C 108.57 134.90 112.55 134.69 116.16 133.06 C 114.44 135.07 110.90 135.85 110.82 138.90 C 113.47 137.78 116.16 136.74 118.86 135.72 C 118.55 136.43 117.93 137.86 117.62 138.57 C 120.94 138.92 124.43 138.57 126.53 135.67 C 124.22 135.09 123.78 132.28 121.80 131.21 C 120.58 130.45 119.28 129.81 117.89 129.42 C 111.60 129.78 104.50 130.28 100.01 135.28 M 126.16 130.18 C 126.98 130.71 127.79 131.26 128.60 131.81 C 128.55 133.92 128.52 136.02 128.60 138.13 C 131.06 136.34 130.65 133.11 130.47 130.47 C 129.03 130.38 127.59 130.31 126.16 130.18 M 111.13 148.75 C 109.81 152.71 108.94 156.81 108.33 160.94 C 114.90 160.24 121.45 161.11 127.96 161.93 C 127.48 157.56 126.95 153.19 127.12 148.78 C 124.72 148.27 122.29 148.21 119.90 148.76 C 116.98 148.61 114.05 148.57 111.13 148.75 Z" />
<path fill="#000000" opacity="1.00" d=" M 18.08 122.36 C 18.71 120.50 20.01 119.05 21.66 118.02 C 22.25 118.60 23.45 119.75 24.05 120.33 C 22.07 121.05 20.09 121.76 18.08 122.36 Z" />
<path fill="#000000" opacity="1.00" d=" M 214.32 129.11 C 215.12 129.40 215.93 129.68 216.75 129.96 C 213.57 131.53 210.59 133.60 208.70 136.67 C 207.50 136.51 206.31 136.36 205.11 136.26 C 206.51 134.26 207.88 132.25 209.14 130.16 C 209.65 130.79 210.16 131.43 210.68 132.06 C 211.83 131.00 213.02 129.99 214.32 129.11 Z" />
<path fill="#000000" opacity="1.00" d=" M 176.58 131.63 C 179.78 129.87 181.62 133.81 183.99 135.28 C 188.17 133.11 193.04 133.89 197.52 132.84 C 197.67 134.75 196.17 135.92 195.19 137.34 C 194.00 141.28 195.08 145.54 193.54 149.42 C 192.88 149.46 191.56 149.53 190.91 149.57 C 190.52 150.72 190.10 151.86 189.64 152.98 C 187.55 152.40 185.75 151.18 183.79 150.30 C 180.80 150.26 177.17 152.90 174.83 149.86 C 173.72 146.86 175.53 144.03 175.40 141.03 C 175.63 139.20 174.96 136.79 177.08 135.87 C 178.68 136.18 179.83 137.50 181.30 138.15 C 180.06 135.80 176.08 134.41 176.58 131.63 Z" />
<path fill="#000000" opacity="1.00" d=" M 86.06 133.38 C 86.97 131.88 89.68 133.21 88.39 134.75 C 87.53 136.24 84.55 134.90 86.06 133.38 Z" />
<path fill="#000000" opacity="1.00" d=" M 201.75 173.51 C 202.48 173.52 203.95 173.53 204.68 173.53 C 202.87 177.45 201.72 181.63 202.59 185.96 C 201.59 186.82 200.59 187.68 199.62 188.57 C 200.34 188.26 201.77 187.63 202.49 187.31 C 202.38 188.30 202.17 190.28 202.07 191.27 C 200.34 192.65 199.21 190.67 198.74 189.27 C 197.91 187.10 197.59 184.78 197.30 182.49 C 198.21 182.52 200.03 182.59 200.94 182.63 C 200.41 181.91 199.87 181.20 199.33 180.49 C 199.47 178.54 199.45 176.57 199.53 174.62 C 200.63 175.09 201.72 175.57 202.82 176.06 C 202.55 175.42 202.02 174.15 201.75 173.51 Z" />
<path fill="#000000" opacity="1.00" d=" M 113.11 179.33 C 115.00 177.40 117.24 175.80 120.06 175.82 C 120.37 177.76 118.66 178.36 117.28 179.13 C 116.69 183.12 116.41 187.13 117.65 191.04 C 116.36 191.46 115.05 191.87 113.75 192.26 C 113.72 187.94 113.13 183.65 113.11 179.33 Z" />
<path fill="#000000" opacity="1.00" d=" M 106.67 182.95 C 106.44 181.57 106.66 178.84 108.69 179.49 C 111.23 185.65 113.39 191.93 114.97 198.41 C 116.20 199.64 117.19 201.06 118.04 202.58 C 115.75 201.27 113.56 199.82 111.53 198.13 C 111.99 197.60 112.91 196.54 113.37 196.01 C 107.84 194.26 107.41 187.79 106.67 182.95 Z" />
<path fill="#000000" opacity="1.00" d=" M 216.50 187.55 C 217.89 185.05 220.56 183.71 222.15 181.37 C 222.58 181.87 223.45 182.87 223.88 183.37 C 222.27 185.00 220.59 186.57 219.22 188.42 C 219.83 191.02 217.40 193.20 215.35 194.39 C 214.79 195.50 214.18 196.61 212.94 197.07 C 213.46 193.69 214.71 190.45 216.50 187.55 Z" />
<path fill="#000000" opacity="1.00" d=" M 206.40 184.03 C 208.29 184.36 210.20 184.62 212.08 185.04 C 211.72 186.23 210.03 186.51 209.13 187.28 C 209.64 188.23 210.79 189.11 210.36 190.33 C 208.31 191.85 206.14 193.47 203.50 193.70 C 203.45 194.14 203.34 195.03 203.29 195.47 C 201.78 195.28 200.34 195.61 199.04 196.35 C 198.65 194.77 197.21 192.95 198.96 191.69 C 200.28 191.97 201.57 192.38 202.86 192.77 C 203.83 189.78 204.51 186.61 206.40 184.03 Z" />
<path fill="#000000" opacity="1.00" d=" M 120.11 188.25 C 120.49 186.59 122.73 185.52 123.74 187.28 C 123.49 189.73 123.43 192.17 123.60 194.62 C 122.95 197.00 118.29 196.33 120.31 193.62 C 117.88 192.91 119.47 189.85 120.11 188.25 Z" />
<path fill="#000000" opacity="1.00" d=" M 103.99 187.91 C 104.39 188.19 105.20 188.76 105.61 189.04 C 104.59 190.93 104.09 193.01 104.43 195.16 C 103.63 194.78 102.84 194.40 102.04 194.02 C 102.88 192.05 103.51 190.00 103.99 187.91 Z" />
<path fill="#000000" opacity="1.00" d=" M 122.94 202.59 C 125.17 200.98 127.48 196.23 130.45 199.30 C 130.37 200.84 128.31 200.99 127.32 201.85 C 128.19 204.00 128.59 206.30 128.88 208.59 C 127.36 208.71 123.96 209.51 124.28 206.92 C 123.30 205.16 125.60 205.24 126.49 204.58 C 125.25 204.02 124.07 203.34 122.94 202.59 Z" />
<path fill="#000000" opacity="1.00" d=" M 131.01 205.29 C 132.30 204.98 133.68 202.97 134.97 204.20 C 136.78 204.74 135.38 207.68 133.86 207.76 C 132.20 208.39 131.74 206.25 131.01 205.29 Z" />
</g>
</svg>
