<?xml version="1.0" encoding="UTF-8" ?>
<!DOCTYPE svg PUBLIC "-//W3C//DTD SVG 1.1//EN" "http://www.w3.org/Graphics/SVG/1.1/DTD/svg11.dtd">
<svg width="256pt" height="256pt" viewBox="0 0 256 256" version="1.1" xmlns="http://www.w3.org/2000/svg">
<g id="#000000ff">
<path fill="#000000" opacity="1.00" d=" M 94.81 50.69 C 98.17 48.84 101.92 49.16 105.03 51.29 C 104.61 51.61 103.75 52.23 103.32 52.55 C 104.02 52.43 105.41 52.20 106.10 52.08 C 109.97 56.06 114.65 60.54 114.64 66.50 C 114.78 72.38 114.38 78.29 115.05 84.15 C 115.05 88.13 114.12 92.06 114.17 96.05 C 114.38 98.78 112.94 101.25 112.66 103.92 C 113.70 107.60 113.57 111.52 115.03 115.10 C 115.91 117.10 115.57 119.30 115.80 121.40 C 117.21 123.69 119.06 125.81 118.50 128.70 C 120.41 131.65 121.98 134.98 124.75 137.25 C 130.26 138.22 135.56 139.99 140.93 141.54 C 140.86 140.73 140.72 139.13 140.66 138.33 C 138.71 138.31 136.77 138.26 134.83 138.08 C 136.24 135.85 138.60 134.72 140.91 133.64 C 143.69 135.51 146.87 136.83 149.25 139.26 C 147.88 139.55 146.50 139.79 145.11 139.99 C 145.62 142.38 145.94 144.82 145.90 147.28 C 146.71 147.34 147.52 147.41 148.34 147.49 C 149.51 144.69 150.97 141.88 153.89 140.58 C 153.54 142.91 153.11 145.23 152.53 147.52 C 153.74 147.52 154.95 147.52 156.16 147.51 C 157.10 145.58 158.14 143.70 159.41 141.96 C 157.31 139.47 155.47 136.78 153.28 134.37 C 154.79 132.65 155.90 130.66 157.08 128.72 C 158.87 129.69 160.16 131.29 161.46 132.82 C 161.48 130.78 162.12 128.87 162.93 127.03 C 166.12 129.57 168.52 132.87 170.98 136.08 C 173.52 139.33 177.80 139.72 181.28 141.42 C 181.89 137.07 183.26 132.90 185.10 128.93 C 183.24 127.21 181.22 125.68 179.02 124.45 C 179.42 127.74 180.59 130.90 180.73 134.24 C 178.42 135.00 175.87 134.83 174.18 132.89 C 171.67 130.00 169.21 127.04 166.07 124.79 C 166.10 123.50 166.17 122.21 166.27 120.93 C 169.10 122.28 172.11 123.10 175.13 123.87 C 174.44 124.34 173.06 125.27 172.37 125.74 C 173.81 126.82 175.13 128.05 176.45 129.27 C 176.88 126.66 177.54 124.07 178.78 121.72 C 180.89 122.63 182.90 123.74 185.06 124.53 C 186.30 124.59 186.64 123.04 187.33 122.28 C 189.03 119.67 191.18 117.38 192.95 114.81 C 190.84 110.98 188.83 105.78 183.81 105.28 C 175.44 105.25 166.37 105.16 159.13 100.37 C 152.19 102.53 144.58 103.86 139.07 108.99 C 136.73 111.88 134.33 114.72 131.92 117.55 C 132.67 117.86 134.18 118.48 134.94 118.79 C 132.37 121.93 128.72 123.94 126.25 127.17 C 124.59 128.84 123.07 131.56 120.30 130.70 C 120.35 130.13 120.46 128.98 120.52 128.40 C 126.49 119.92 131.13 109.92 139.87 103.87 C 142.87 100.02 148.10 99.61 152.40 98.03 C 154.82 96.71 157.07 98.66 159.13 99.75 C 159.94 99.18 160.76 98.61 161.59 98.06 C 169.36 101.71 178.14 101.65 186.48 102.94 C 191.46 105.32 196.62 109.73 196.77 115.62 C 195.88 118.79 193.87 121.58 192.53 124.59 C 191.53 126.90 188.91 127.63 187.25 129.32 C 186.56 130.88 186.53 132.62 186.30 134.29 C 189.47 136.81 192.66 139.31 195.95 141.67 C 198.18 139.98 200.52 138.43 203.05 137.23 C 205.98 142.07 202.41 147.06 202.52 152.13 C 202.82 156.02 197.96 160.08 194.31 157.99 C 192.48 155.60 190.49 152.84 191.65 149.71 C 187.22 146.34 181.60 148.21 176.51 147.15 C 174.73 150.86 173.58 154.88 171.33 158.35 C 168.86 160.85 165.15 161.30 161.91 162.20 C 156.09 162.55 150.30 161.26 144.47 161.62 C 139.88 162.13 135.79 159.62 131.33 159.20 C 127.90 157.60 123.90 156.72 121.35 153.71 C 118.37 151.28 115.42 148.81 112.73 146.06 C 110.90 146.94 109.09 147.92 107.10 148.37 C 96.76 150.54 86.05 153.23 75.52 150.71 C 69.91 149.82 64.43 148.13 59.28 145.75 C 54.65 143.61 50.76 140.30 46.59 137.43 C 41.90 133.48 36.35 130.32 32.93 125.07 C 27.33 118.63 22.59 110.79 22.08 102.07 C 21.14 97.37 22.65 92.69 22.69 87.98 C 22.33 79.38 27.18 71.77 31.99 65.04 C 33.92 61.44 37.86 59.73 41.12 57.56 C 43.18 57.40 45.25 57.46 47.31 57.48 C 46.35 61.75 42.94 64.80 42.01 69.06 C 38.99 77.17 36.25 85.79 37.67 94.54 C 38.92 99.22 38.60 104.20 40.44 108.76 C 41.50 114.85 45.17 120.28 50.22 123.79 C 53.44 125.87 55.64 129.04 58.22 131.80 C 66.43 138.73 77.36 141.43 87.90 141.86 C 91.99 141.74 95.76 139.73 99.86 139.70 C 103.05 139.64 106.23 139.53 109.41 139.31 C 108.72 137.21 108.15 135.05 107.13 133.07 C 105.06 131.13 101.67 130.20 101.08 127.04 C 99.04 119.97 96.89 112.73 97.43 105.31 C 95.63 97.98 96.52 90.37 96.54 82.91 C 96.27 79.66 98.87 77.15 99.31 74.03 C 99.70 70.41 102.11 67.05 101.13 63.34 C 100.62 60.77 100.18 58.17 99.30 55.69 C 98.15 53.75 96.24 52.41 94.81 50.69 M 102.54 54.81 C 103.92 57.67 104.92 60.75 104.80 63.97 C 105.24 67.63 103.09 70.85 102.44 74.34 C 101.86 77.33 101.04 80.25 99.98 83.11 C 99.29 87.39 99.63 91.78 100.32 96.04 C 100.83 105.63 101.95 115.27 105.32 124.32 C 105.01 122.52 104.65 120.73 104.47 118.92 C 108.44 121.11 108.46 126.08 109.91 129.85 C 112.54 136.60 114.78 143.95 120.40 148.90 C 125.41 148.48 130.35 147.31 135.41 147.43 C 135.94 146.23 136.53 145.06 137.13 143.90 C 132.90 143.76 129.31 140.82 125.01 141.24 C 121.77 141.44 119.52 138.67 117.61 136.45 C 113.59 132.35 113.33 126.32 111.81 121.09 C 111.22 115.74 109.03 110.73 108.74 105.32 C 108.58 100.88 107.19 96.52 107.63 92.06 C 108.33 89.87 110.19 88.35 111.60 86.62 C 110.08 79.80 110.82 72.77 110.09 65.87 C 109.60 61.15 105.66 57.96 102.54 54.81 M 35.83 64.83 C 34.19 68.15 32.49 71.43 30.61 74.62 C 27.57 79.62 27.01 85.58 26.61 91.29 C 26.42 96.53 25.52 101.90 27.03 107.04 C 28.78 114.54 34.13 120.36 38.69 126.32 C 40.99 129.40 44.39 131.28 47.32 133.67 C 55.13 140.37 64.37 145.92 74.64 147.65 C 79.90 148.79 85.38 150.04 90.75 148.93 C 97.69 147.65 104.84 147.08 111.51 144.66 C 111.51 144.03 111.50 142.76 111.50 142.12 C 106.00 145.16 99.55 142.19 94.00 144.76 C 88.48 146.66 82.56 145.36 76.95 144.61 C 73.25 144.35 70.01 142.38 66.52 141.33 C 60.52 139.40 55.59 135.15 51.51 130.47 C 47.68 126.35 42.39 123.45 39.80 118.28 C 37.79 113.02 35.61 107.73 35.02 102.08 C 33.66 96.91 32.71 91.44 33.79 86.11 C 34.63 81.69 35.00 77.10 36.94 72.97 C 38.79 68.99 39.41 64.55 41.66 60.75 C 39.73 62.12 37.64 63.29 35.83 64.83 M 184.33 137.83 C 183.60 139.06 184.57 141.00 186.07 140.91 C 188.05 140.26 185.93 136.35 184.33 137.83 M 163.75 141.51 C 163.64 143.52 162.58 145.04 160.59 145.50 C 160.62 146.18 160.65 146.86 160.68 147.54 C 161.96 147.53 163.24 147.48 164.52 147.44 C 165.14 146.42 165.76 145.40 166.38 144.39 C 165.47 143.46 164.58 142.51 163.75 141.51 M 171.29 141.71 C 171.70 143.85 172.28 145.95 172.81 148.07 C 171.45 148.63 170.11 149.21 168.77 149.82 C 168.57 148.81 168.17 146.81 167.96 145.81 C 168.05 147.25 168.23 148.69 168.42 150.12 C 167.34 150.91 166.27 151.73 165.22 152.57 C 161.77 151.92 158.25 151.42 154.79 152.22 C 151.12 151.69 147.42 151.58 143.73 151.32 C 141.63 151.25 139.60 149.90 137.50 150.69 C 132.95 152.01 128.16 150.91 123.56 151.85 C 127.98 154.69 133.37 155.09 138.23 156.87 C 141.46 158.39 144.67 155.91 147.98 156.44 C 154.22 157.53 160.62 157.76 166.93 157.27 C 169.56 155.32 170.92 152.26 172.28 149.40 C 174.12 146.70 176.87 144.57 177.73 141.28 C 175.58 141.37 173.43 141.50 171.29 141.71 M 194.57 150.09 C 194.34 152.39 197.00 154.80 199.11 153.21 C 200.06 150.13 200.13 146.85 200.30 143.66 C 198.43 145.84 196.38 147.86 194.57 150.09 Z" />
<path fill="#000000" opacity="1.00" d=" M 151.37 105.08 C 153.93 104.67 156.44 103.98 159.00 103.55 C 161.86 103.83 163.06 106.72 163.84 109.10 C 161.25 110.33 158.58 111.41 156.04 112.76 C 153.57 111.22 151.08 109.66 149.09 107.51 C 150.99 103.36 153.30 109.40 155.64 109.81 C 154.10 108.35 152.51 106.90 151.37 105.08 Z" />
<path fill="#000000" opacity="1.00" d=" M 139.98 120.93 C 143.48 118.42 145.87 114.22 150.44 113.46 C 150.78 115.18 150.38 116.86 148.78 117.77 C 144.60 120.90 140.87 125.33 135.36 125.93 C 135.80 123.41 138.13 122.31 139.98 120.93 Z" />
<path fill="#000000" opacity="1.00" d=" M 215.25 147.00 C 216.62 144.14 216.90 140.24 220.01 138.64 C 221.90 138.79 222.27 141.41 223.27 142.75 C 225.45 145.78 223.56 149.66 225.15 152.88 C 226.15 155.15 225.85 157.69 224.20 159.58 C 221.46 159.31 218.49 159.88 215.92 158.69 C 213.87 157.89 214.81 155.38 214.54 153.70 C 210.90 153.60 206.38 154.97 203.63 151.85 C 202.13 148.04 207.26 148.38 209.27 149.98 C 207.37 148.81 205.42 147.66 204.04 145.86 C 203.87 144.37 204.34 142.78 205.88 142.20 C 208.94 143.92 211.67 146.34 215.25 147.00 M 219.06 144.66 C 219.36 147.81 220.15 150.99 219.23 154.13 C 219.73 154.01 220.74 153.77 221.24 153.65 C 220.11 150.72 221.19 147.21 219.06 144.66 Z" />
<path fill="#000000" opacity="1.00" d=" M 225.49 145.35 C 230.37 145.39 234.99 147.24 239.79 147.93 C 239.48 149.61 239.51 151.97 237.54 152.60 C 233.20 152.43 228.95 151.19 224.78 150.07 C 225.02 148.49 225.25 146.92 225.49 145.35 Z" />
</g>
</svg>
