<?xml version="1.0" encoding="UTF-8" ?>
<!DOCTYPE svg PUBLIC "-//W3C//DTD SVG 1.1//EN" "http://www.w3.org/Graphics/SVG/1.1/DTD/svg11.dtd">
<svg width="256pt" height="256pt" viewBox="0 0 256 256" version="1.1" xmlns="http://www.w3.org/2000/svg">
<g id="#000000ff">
<path fill="#000000" opacity="1.00" d=" M 61.74 90.74 C 64.70 89.14 67.25 91.86 69.50 93.46 C 74.95 97.77 81.13 101.43 88.16 102.28 C 87.54 103.52 86.43 103.94 84.83 103.57 C 86.80 106.05 89.56 107.71 91.88 109.83 C 87.08 107.11 82.58 103.89 77.69 101.31 C 72.25 97.98 66.32 95.30 61.74 90.74 Z" />
<path fill="#000000" opacity="1.00" d=" M 136.14 96.10 C 137.53 94.60 138.93 93.12 140.47 91.79 C 140.66 93.58 141.10 95.30 143.15 95.65 C 139.09 99.83 133.49 103.17 131.58 108.90 C 129.92 109.57 127.78 109.95 127.13 111.88 C 131.84 109.23 136.96 112.09 140.60 115.29 C 144.67 110.72 146.64 103.31 153.44 102.01 C 156.47 100.33 159.37 98.44 162.29 96.58 C 163.38 96.79 164.41 97.20 165.46 97.52 C 165.46 98.03 165.46 99.03 165.45 99.53 C 161.63 102.27 156.70 103.90 154.23 108.18 C 152.85 110.51 150.60 112.11 148.89 114.17 C 151.56 115.91 154.57 116.79 157.76 116.13 C 159.80 115.44 161.85 116.07 163.82 116.69 C 164.09 114.71 164.15 112.70 164.62 110.75 C 167.57 106.24 172.61 104.06 177.11 101.47 C 179.09 101.98 180.93 102.84 181.97 104.68 C 179.19 107.37 176.49 110.16 173.94 113.07 C 172.62 117.27 172.82 122.56 176.43 125.56 C 177.39 127.36 178.20 129.27 178.59 131.28 C 175.16 128.92 172.94 124.61 168.88 122.91 C 168.84 127.62 173.13 131.57 177.78 131.47 C 179.78 131.32 182.08 132.08 182.95 134.01 C 183.95 135.77 183.47 137.82 183.50 139.74 C 178.17 137.48 172.67 135.39 167.88 132.09 C 164.79 128.74 165.54 123.33 161.77 120.37 C 161.60 120.83 161.27 121.75 161.10 122.21 C 158.35 122.26 155.70 121.45 153.18 120.42 C 153.18 124.80 154.78 128.92 155.93 133.08 C 156.32 133.28 157.10 133.68 157.48 133.89 C 157.39 134.62 157.22 136.07 157.13 136.80 C 154.44 136.72 151.54 137.26 149.13 135.76 C 142.53 132.84 139.91 124.96 140.63 118.21 C 138.34 117.52 136.08 116.70 133.80 115.98 C 135.32 120.33 136.17 125.14 139.28 128.73 C 140.57 130.53 142.46 132.74 140.77 134.90 C 139.56 131.21 136.68 128.49 135.00 125.04 C 132.99 122.35 132.71 118.92 131.32 115.95 C 129.27 115.68 127.38 114.92 126.02 113.31 C 126.29 113.78 126.83 114.73 127.11 115.21 C 126.67 115.53 125.79 116.19 125.36 116.52 C 125.55 119.18 125.38 122.02 126.43 124.50 C 129.48 128.13 133.85 130.43 136.66 134.29 C 137.24 135.84 135.28 136.32 134.17 136.41 C 132.10 135.76 130.16 134.77 128.26 133.72 C 126.86 138.37 121.43 138.81 117.41 138.44 C 114.90 138.08 113.46 135.93 111.69 134.38 C 110.19 132.73 107.79 132.64 105.84 131.81 C 106.79 130.78 107.81 129.82 108.89 128.93 C 108.14 125.95 107.16 123.04 106.26 120.11 C 106.72 120.15 107.64 120.23 108.10 120.27 C 108.98 123.19 110.93 125.88 110.59 129.05 C 112.40 129.44 114.22 129.78 116.04 130.10 C 115.28 131.02 114.50 131.93 113.72 132.84 C 115.31 134.53 116.44 137.07 119.05 137.28 C 121.41 136.94 123.77 136.52 126.16 136.35 C 126.62 135.71 127.54 134.43 128.00 133.79 C 123.95 131.58 120.35 128.38 118.71 123.96 C 118.64 121.30 118.89 118.66 119.18 116.03 C 115.51 117.38 111.47 117.60 108.02 119.55 C 101.71 117.79 95.21 116.81 88.87 115.19 C 90.97 116.95 93.65 118.02 95.31 120.28 C 92.16 120.12 89.93 117.59 87.00 116.78 C 85.38 117.01 83.82 117.54 82.19 117.74 C 80.43 117.23 78.93 115.90 77.01 115.94 C 71.72 115.68 66.41 115.70 61.12 115.51 C 53.61 118.35 46.83 123.03 38.92 124.77 C 37.44 123.43 36.73 121.12 34.91 120.26 C 30.71 120.58 27.20 122.81 23.67 124.86 C 26.20 121.75 30.22 118.22 34.57 119.91 C 40.47 121.95 45.82 118.06 51.03 115.83 C 54.57 114.47 57.58 111.93 61.34 111.11 C 64.86 110.33 68.33 109.38 71.78 108.34 C 69.92 106.83 68.13 105.10 65.87 104.21 C 55.67 100.67 44.75 102.06 34.22 100.81 C 30.17 100.79 26.19 99.83 22.69 97.79 C 23.40 96.88 24.12 95.97 24.85 95.08 C 28.02 96.55 31.38 97.94 34.96 97.67 C 39.89 97.33 44.73 98.48 49.64 98.43 C 54.94 99.25 60.47 97.44 65.58 99.46 C 71.77 101.60 76.63 106.35 80.81 111.18 C 81.59 112.11 82.04 114.63 83.71 113.77 C 90.32 110.84 97.89 111.00 104.88 112.20 C 105.50 111.86 106.75 111.18 107.38 110.85 C 108.19 106.43 108.94 101.76 111.80 98.12 C 112.08 98.60 112.63 99.55 112.91 100.03 C 114.31 99.78 115.72 99.58 117.13 99.44 C 115.90 101.05 113.64 100.12 111.92 100.55 C 109.57 104.00 109.71 108.47 108.46 112.36 C 112.49 113.39 116.36 111.78 120.32 111.34 C 121.04 109.19 122.07 107.23 124.26 106.32 C 125.71 104.05 127.33 101.90 129.08 99.85 C 130.01 100.23 130.96 100.60 131.90 100.96 C 131.50 100.45 130.68 99.44 130.27 98.94 C 132.56 96.61 134.29 93.50 137.48 92.27 C 137.05 93.55 136.60 94.83 136.14 96.10 M 134.25 96.15 C 134.86 96.79 134.86 96.79 134.25 96.15 M 138.24 96.17 C 137.13 96.28 135.81 98.70 137.59 98.73 C 138.59 98.61 139.86 96.20 138.24 96.17 M 66.95 114.15 C 70.35 114.14 73.76 114.29 77.17 114.26 C 74.64 110.99 69.80 112.01 66.95 114.15 M 147.18 127.24 C 147.80 127.86 147.80 127.86 147.18 127.24 Z" />
<path fill="#000000" opacity="1.00" d=" M 14.48 98.33 C 16.37 98.16 18.15 99.59 16.85 101.51 C 16.18 101.55 14.86 101.62 14.19 101.66 C 14.29 100.55 14.39 99.44 14.48 98.33 Z" />
<path fill="#000000" opacity="1.00" d=" M 193.88 107.88 C 198.81 103.44 206.11 102.84 212.29 104.58 C 217.15 105.96 222.63 105.10 227.02 107.99 C 226.92 108.70 226.72 110.10 226.62 110.80 C 224.54 110.81 222.47 110.50 220.45 110.02 C 220.67 111.73 220.17 113.36 219.62 114.96 C 218.09 114.43 216.57 113.86 215.07 113.28 C 214.19 113.74 213.32 114.21 212.45 114.68 C 212.37 113.40 212.24 112.12 212.07 110.85 C 210.90 111.73 210.61 113.21 210.10 114.48 C 209.38 113.32 208.63 112.18 207.85 111.06 C 207.66 111.88 207.28 113.52 207.08 114.34 C 206.61 114.02 205.67 113.37 205.21 113.05 C 202.38 116.24 197.78 116.03 193.98 117.26 C 197.36 118.72 201.26 114.53 204.04 117.09 C 203.84 117.34 203.45 117.85 203.26 118.10 C 200.29 118.01 197.58 119.15 194.91 120.29 C 195.57 122.40 196.73 124.29 197.78 126.23 C 200.97 123.94 203.87 121.07 207.12 119.02 C 213.66 121.32 221.02 121.90 226.61 126.33 C 230.68 128.51 234.76 130.68 238.72 133.07 C 234.81 135.87 230.33 132.69 226.19 132.08 C 223.20 130.82 220.10 129.89 217.03 128.88 C 214.15 126.23 210.47 124.38 206.47 124.86 C 203.42 123.48 199.83 125.29 200.54 128.97 C 202.13 132.60 204.62 135.84 207.37 138.69 C 209.49 138.38 211.50 138.96 213.37 139.95 C 212.51 140.82 211.64 141.68 210.80 142.56 C 210.35 142.28 209.43 141.72 208.98 141.44 C 207.98 142.00 206.98 142.56 205.97 143.11 C 202.47 141.41 198.26 140.16 196.42 136.39 C 195.39 139.88 193.98 135.31 192.76 134.31 C 188.27 131.83 186.78 126.58 185.52 121.96 C 184.19 115.86 189.28 110.97 193.88 107.88 M 201.54 107.29 C 201.18 108.32 200.84 109.35 200.52 110.39 C 197.30 110.23 194.03 111.38 192.14 114.10 C 195.21 113.31 198.49 112.94 201.22 111.19 C 202.23 110.17 201.41 108.56 201.54 107.29 M 203.76 107.13 C 204.75 109.77 208.43 108.32 210.30 107.34 C 208.13 107.12 205.94 107.09 203.76 107.13 M 198.40 108.07 C 198.63 111.45 201.27 106.46 198.40 108.07 M 218.09 110.25 C 216.52 113.31 221.46 110.29 218.09 110.25 M 189.82 124.18 C 191.37 128.48 194.84 131.62 198.38 134.32 C 196.63 130.30 194.17 125.80 189.82 124.18 M 231.18 130.18 C 231.81 130.82 231.81 130.82 231.18 130.18 Z" />
<path fill="#000000" opacity="1.00" d=" M 37.83 115.88 C 43.20 112.84 49.53 112.26 55.58 111.88 C 53.68 113.55 51.05 113.28 48.71 113.59 C 44.96 113.67 41.47 115.18 37.83 115.88 Z" />
<path fill="#000000" opacity="1.00" d=" M 152.14 112.39 C 153.57 112.56 153.81 113.23 152.86 114.42 C 151.44 114.26 151.20 113.58 152.14 112.39 Z" />
<path fill="#000000" opacity="1.00" d=" M 221.61 115.40 C 219.91 114.01 221.54 112.13 222.70 111.09 C 224.02 112.35 225.42 113.57 226.27 115.22 C 224.72 115.39 223.17 115.45 221.61 115.40 Z" />
<path fill="#000000" opacity="1.00" d=" M 204.73 117.03 C 204.97 116.73 205.45 116.12 205.69 115.81 C 209.02 115.86 212.34 115.88 215.67 115.92 C 213.49 119.09 208.87 116.78 205.65 117.99 C 205.42 117.75 204.96 117.27 204.73 117.03 Z" />
<path fill="#000000" opacity="1.00" d=" M 14.65 127.87 C 17.55 127.03 20.18 125.55 22.37 123.48 C 22.47 124.03 22.66 125.13 22.76 125.68 C 19.71 126.98 16.91 128.81 13.80 129.99 C 14.01 129.46 14.44 128.40 14.65 127.87 Z" />
<path fill="#000000" opacity="1.00" d=" M 46.91 129.77 C 47.52 128.78 48.11 127.79 48.71 126.79 C 50.64 128.87 53.03 130.75 55.95 131.05 C 62.28 132.43 68.80 132.91 75.25 132.19 C 75.07 132.56 74.69 133.30 74.50 133.66 C 65.16 135.88 55.68 132.89 46.91 129.77 Z" />
<path fill="#000000" opacity="1.00" d=" M 157.72 134.83 C 160.77 136.14 164.07 138.56 167.44 136.65 C 165.60 138.66 162.83 138.31 160.37 138.54 C 159.38 137.38 158.36 136.23 157.72 134.83 Z" />
</g>
</svg>
