<?xml version="1.0" encoding="UTF-8" ?>
<!DOCTYPE svg PUBLIC "-//W3C//DTD SVG 1.1//EN" "http://www.w3.org/Graphics/SVG/1.1/DTD/svg11.dtd">
<svg width="256pt" height="256pt" viewBox="0 0 256 256" version="1.1" xmlns="http://www.w3.org/2000/svg">
<g id="#000000ff">
<path fill="#000000" opacity="1.00" d=" M 109.32 87.74 C 112.05 86.91 114.48 84.83 117.47 85.19 C 121.33 85.15 125.57 86.78 129.04 84.35 C 133.48 86.98 139.54 86.86 142.72 91.31 C 146.55 95.58 150.87 100.08 151.25 106.14 C 151.59 112.44 152.95 118.68 152.31 125.01 C 152.03 128.36 153.31 131.75 151.96 135.00 C 152.70 140.98 152.68 147.08 151.84 153.05 C 151.28 157.49 152.27 162.21 150.58 166.46 C 150.02 166.48 148.91 166.52 148.35 166.54 C 147.58 165.18 145.87 163.93 146.31 162.20 C 148.19 156.97 147.00 151.33 147.67 145.91 C 147.29 136.93 148.68 127.98 148.23 119.01 C 147.45 113.63 147.92 107.83 145.07 102.96 C 143.58 100.47 142.36 97.77 140.47 95.56 C 137.04 93.77 133.36 92.49 129.83 90.93 C 119.99 89.99 108.29 91.43 102.04 100.00 C 96.40 106.60 95.39 115.69 95.49 124.05 C 95.72 127.65 94.63 131.10 93.76 134.54 C 93.34 139.61 92.37 144.63 92.39 149.74 C 91.46 156.43 90.74 163.25 91.64 169.99 C 90.11 170.49 88.51 170.27 86.94 170.14 C 85.21 160.75 88.24 151.38 87.44 141.98 C 87.45 139.33 88.58 136.80 88.28 134.13 C 87.92 129.49 89.00 124.89 90.46 120.52 C 89.68 109.76 94.89 99.64 101.50 91.49 C 103.58 89.36 106.65 88.80 109.32 87.74 Z" />
<path fill="#000000" opacity="1.00" d=" M 106.74 100.90 C 108.61 100.24 110.48 98.93 112.56 99.41 C 114.46 101.24 115.21 103.90 116.57 106.11 C 117.81 105.73 119.06 105.39 120.32 105.12 C 119.56 106.69 118.16 107.76 117.00 109.02 C 119.46 111.84 120.98 115.27 122.86 118.45 C 126.39 112.46 131.37 107.54 136.95 103.46 C 138.10 108.01 139.55 112.43 140.45 117.06 C 139.86 114.84 138.78 112.84 137.37 111.05 C 135.16 113.05 134.16 115.98 132.17 118.18 C 130.79 120.33 128.75 122.19 128.04 124.68 C 130.44 130.05 135.75 133.41 138.17 138.75 C 138.61 141.56 138.66 144.64 137.19 147.19 C 135.81 148.38 134.04 147.05 132.99 146.06 C 129.25 141.52 125.58 136.92 121.93 132.31 C 119.53 135.11 117.38 138.22 114.14 140.13 C 109.72 144.64 106.82 150.57 101.58 154.33 C 100.69 153.17 98.74 152.23 99.36 150.50 C 100.12 147.54 100.53 144.23 102.82 141.98 C 108.45 137.52 111.50 130.71 116.93 126.02 C 113.14 120.26 107.80 115.69 103.96 109.98 C 104.52 107.94 106.31 106.68 107.96 105.56 C 107.60 104.00 107.19 102.44 106.74 100.90 Z" />
</g>
</svg>
