<?xml version="1.0" encoding="UTF-8" ?>
<!DOCTYPE svg PUBLIC "-//W3C//DTD SVG 1.1//EN" "http://www.w3.org/Graphics/SVG/1.1/DTD/svg11.dtd">
<svg width="256pt" height="256pt" viewBox="0 0 256 256" version="1.1" xmlns="http://www.w3.org/2000/svg">
<g id="#000000ff">
<path fill="#000000" opacity="1.00" d=" M 184.94 82.18 C 185.52 79.48 185.22 75.29 188.92 74.94 C 190.72 78.53 188.92 82.60 189.35 86.42 C 190.12 91.15 189.32 95.98 190.24 100.70 C 192.45 101.16 194.61 101.94 196.88 102.08 C 206.21 98.58 214.24 92.38 223.67 89.17 C 223.61 90.33 223.57 91.50 223.53 92.67 C 219.73 95.27 215.35 96.88 211.61 99.60 C 206.30 101.74 201.82 105.38 196.59 107.65 C 194.63 110.48 195.32 114.31 193.12 116.97 C 191.22 119.16 191.16 122.25 189.38 124.51 C 187.58 128.72 193.28 130.95 192.43 135.07 C 191.23 134.67 190.03 134.28 188.82 133.89 C 189.10 135.48 189.46 137.06 189.76 138.65 C 193.74 135.16 198.84 133.80 203.79 132.35 C 205.90 131.46 210.07 129.90 210.21 133.52 C 208.92 133.46 207.63 133.40 206.35 133.33 C 206.78 134.68 207.27 136.00 207.86 137.29 C 208.59 136.11 209.35 134.94 210.14 133.80 C 212.65 133.61 215.00 132.40 217.53 132.49 C 217.89 135.43 215.06 137.41 213.80 139.79 C 214.37 139.99 215.49 140.39 216.06 140.59 C 213.63 143.81 209.10 143.83 206.21 146.50 C 204.67 146.12 203.10 145.82 201.52 145.68 C 202.25 144.43 203.05 143.24 203.84 142.03 C 202.26 142.32 200.65 142.55 199.13 143.09 C 198.48 144.46 197.78 145.81 197.13 147.17 C 194.62 147.62 192.06 147.57 189.53 147.50 C 189.26 146.73 188.72 145.21 188.46 144.45 C 189.38 144.51 191.23 144.63 192.15 144.69 C 191.49 144.53 190.16 144.20 189.49 144.04 L 189.45 143.14 C 191.57 141.89 193.83 140.73 195.23 138.60 C 192.18 139.39 189.43 140.98 186.65 142.42 C 186.67 143.27 186.69 144.13 186.73 144.99 C 181.69 147.43 177.63 151.41 172.67 153.99 C 176.31 155.05 180.92 155.78 182.38 159.88 C 176.83 160.32 171.06 158.70 165.72 160.64 C 164.22 161.13 163.40 159.53 162.43 158.74 C 157.50 157.13 152.31 156.66 147.22 155.79 C 146.62 153.78 148.79 153.69 150.11 153.10 C 152.17 153.53 154.42 155.15 156.38 153.59 C 160.15 152.29 163.44 149.74 167.07 148.39 C 167.45 148.93 168.21 150.02 168.59 150.56 C 167.73 150.91 166.00 151.62 165.14 151.97 C 165.60 152.34 166.52 153.09 166.98 153.46 C 167.94 152.38 168.84 151.24 169.74 150.11 C 168.90 149.38 168.06 148.64 167.24 147.90 C 168.59 147.02 169.96 146.17 171.36 145.36 C 171.47 144.57 171.56 143.79 171.64 143.00 C 172.42 142.50 173.22 142.02 174.04 141.58 C 175.28 142.10 176.53 142.58 177.81 143.01 L 177.81 141.70 C 177.43 141.29 176.66 140.49 176.28 140.09 C 178.02 140.89 180.46 141.48 181.06 138.97 C 180.72 135.73 180.48 132.46 179.99 129.23 C 175.58 130.05 173.69 135.28 168.97 135.36 C 164.78 134.65 161.20 131.99 156.99 131.30 C 152.94 131.04 151.08 135.16 147.90 136.83 C 145.27 138.17 142.49 139.43 139.51 139.70 C 139.19 137.87 139.27 135.99 140.18 134.34 C 144.23 133.63 150.25 132.64 150.96 127.70 C 146.28 128.07 142.47 124.57 137.85 124.31 C 138.67 125.47 140.31 126.35 140.46 127.84 C 139.30 129.82 138.00 133.30 135.10 132.22 C 135.63 130.35 136.33 128.53 136.94 126.67 C 133.39 129.67 130.31 134.75 125.20 134.58 C 125.55 133.88 126.24 132.49 126.59 131.79 C 124.54 134.41 121.20 135.60 119.29 138.36 C 117.35 140.25 116.18 143.35 113.35 144.03 C 113.37 143.04 113.42 141.07 113.44 140.08 C 110.32 141.34 107.33 143.61 103.81 143.35 C 104.25 141.82 104.85 140.34 105.55 138.90 C 108.81 137.53 112.06 140.03 115.32 138.35 C 117.72 135.52 118.51 131.60 121.24 129.04 C 123.24 128.58 126.18 128.06 127.11 130.46 C 130.58 128.68 133.79 125.76 134.86 121.87 C 133.95 122.79 133.04 123.72 132.09 124.60 C 126.38 124.24 120.65 124.90 114.94 124.40 C 113.55 126.06 114.49 130.77 111.48 129.99 C 111.78 128.44 112.13 126.89 112.48 125.36 C 108.87 126.10 104.73 126.22 101.89 128.89 C 99.76 130.79 97.41 132.44 94.86 133.74 C 94.11 131.68 94.74 129.05 93.22 127.37 C 91.72 129.14 90.35 131.03 88.61 132.57 C 87.65 132.81 86.85 132.54 86.23 131.76 C 86.12 129.07 88.72 127.40 90.14 125.40 C 89.08 125.78 88.01 126.16 86.94 126.52 C 87.31 125.06 87.71 123.60 88.14 122.15 C 86.41 122.94 84.76 123.87 83.10 124.81 C 83.48 123.74 83.85 122.67 84.22 121.61 C 80.25 122.36 75.94 122.98 72.82 125.82 C 70.39 127.79 69.80 131.04 68.07 133.53 C 69.13 133.38 70.18 133.26 71.24 133.15 C 70.42 134.92 68.82 136.10 67.70 137.65 C 67.19 139.68 67.37 141.79 67.28 143.86 C 66.66 144.34 65.44 145.31 64.83 145.79 C 61.82 142.84 64.68 138.13 65.79 134.78 C 62.79 135.89 59.69 137.34 56.44 136.28 C 57.11 137.20 57.77 138.12 58.41 139.07 C 56.24 138.86 54.05 138.72 51.93 138.20 C 52.76 136.99 53.68 135.85 54.62 134.74 C 58.35 134.06 62.14 133.39 65.41 131.35 C 70.81 126.11 75.61 119.22 83.28 117.31 C 88.07 118.02 92.87 117.19 97.68 117.63 C 99.01 117.21 99.81 115.92 100.95 115.16 C 104.97 115.92 109.06 116.63 112.69 118.63 C 111.45 119.15 110.21 119.67 108.93 120.07 C 106.15 120.63 102.74 119.14 100.63 121.67 C 98.87 123.83 98.49 126.80 97.44 129.34 C 99.57 126.73 101.51 123.13 105.26 122.88 C 108.82 123.79 112.57 125.79 115.98 123.37 C 116.41 122.12 116.82 120.86 117.25 119.61 C 120.17 120.03 122.92 121.14 125.79 121.76 C 125.45 119.25 121.91 120.11 120.15 119.08 C 114.97 116.64 109.39 115.29 104.23 112.84 C 101.50 112.32 98.70 112.33 96.00 111.65 C 92.94 112.06 90.17 110.74 87.61 109.23 C 85.91 106.36 84.93 102.82 81.83 101.07 C 79.41 99.91 76.74 99.08 74.94 96.96 C 73.98 95.69 72.35 96.31 71.05 96.44 C 70.70 96.23 70.02 95.82 69.67 95.62 C 69.71 94.45 69.73 93.28 69.74 92.11 C 66.37 92.67 62.62 92.59 60.09 89.94 C 58.27 88.98 55.89 85.37 58.84 84.37 C 60.86 85.10 61.90 87.25 63.60 88.49 C 65.21 89.98 67.46 89.13 69.38 88.96 C 70.40 90.27 71.38 91.61 72.33 92.98 C 75.68 92.28 78.09 94.98 80.74 96.48 C 80.19 95.38 79.64 94.29 79.11 93.18 C 79.28 92.54 79.60 91.24 79.76 90.60 C 82.05 93.06 84.66 95.48 88.12 96.01 C 88.66 94.62 89.05 93.18 89.31 91.70 C 91.16 92.30 92.07 94.13 92.15 95.96 C 92.29 100.57 98.09 102.96 96.81 107.92 C 99.72 109.88 103.47 110.88 106.77 109.29 C 111.18 111.88 116.30 112.87 120.88 115.16 C 126.24 116.57 130.78 121.52 136.70 120.06 C 137.45 119.18 138.21 118.31 138.98 117.44 C 142.71 120.28 147.52 119.94 151.92 120.73 C 155.64 121.68 159.02 123.93 162.98 123.88 C 166.10 124.21 170.39 124.56 172.60 122.18 C 168.78 120.40 163.49 119.74 161.75 115.30 C 159.23 109.35 153.44 105.80 147.92 102.99 C 149.49 102.17 151.49 100.31 153.27 101.68 C 155.97 103.65 158.39 105.98 161.32 107.64 C 164.27 109.27 164.97 112.72 166.78 115.30 C 168.92 116.60 171.37 117.28 173.59 118.43 C 176.62 119.54 177.72 123.17 180.87 124.18 C 182.07 121.05 184.35 117.84 183.66 114.35 C 182.87 114.07 182.08 113.79 181.31 113.49 C 181.95 113.25 183.24 112.75 183.89 112.50 C 183.01 106.67 177.86 102.80 175.64 97.55 C 174.30 93.19 172.01 88.92 172.12 84.25 C 173.02 83.82 173.94 83.43 174.88 83.07 C 176.23 83.72 177.18 84.84 177.81 86.19 C 176.36 91.46 180.14 96.29 183.08 100.29 C 183.82 102.72 184.89 105.01 187.36 106.07 C 185.46 101.65 185.34 96.77 185.38 92.03 C 185.46 88.73 184.10 85.47 184.94 82.18 M 82.70 96.80 C 86.74 100.32 88.06 106.18 92.83 108.86 C 93.02 106.70 94.31 104.17 92.64 102.30 C 91.23 100.34 89.88 98.35 88.61 96.29 C 86.63 96.36 84.66 96.58 82.70 96.80 M 104.26 117.84 C 104.34 121.20 107.22 116.34 104.26 117.84 M 196.36 137.13 C 195.74 138.80 196.24 139.29 197.85 138.61 C 198.48 136.89 197.99 136.40 196.36 137.13 M 208.24 139.23 C 208.84 139.80 208.84 139.80 208.24 139.23 M 210.44 142.03 C 210.46 145.41 213.44 140.44 210.44 142.03 M 171.62 150.00 C 173.38 148.99 175.69 148.29 176.24 146.06 C 174.01 146.39 172.35 147.89 171.62 150.00 Z" />
<path fill="#000000" opacity="1.00" d=" M 63.21 82.22 C 65.47 82.59 67.80 82.61 69.98 83.40 C 70.09 83.82 70.33 84.65 70.45 85.06 C 71.62 85.40 72.79 85.73 73.97 86.06 C 70.22 85.98 66.46 85.78 62.73 85.36 C 62.88 84.31 63.05 83.26 63.21 82.22 Z" />
<path fill="#000000" opacity="1.00" d=" M 40.85 93.95 C 43.08 92.85 45.66 93.52 48.03 93.64 C 51.26 93.82 53.62 96.36 56.74 96.85 C 56.85 98.31 55.09 98.14 54.12 98.45 C 51.59 98.03 49.04 97.60 46.47 97.96 C 47.11 96.98 47.72 95.97 48.29 94.94 C 46.62 95.76 45.30 97.10 43.93 98.34 C 42.63 97.09 41.72 95.52 40.85 93.95 Z" />
<path fill="#000000" opacity="1.00" d=" M 61.48 103.54 C 61.06 99.68 66.06 98.20 69.20 98.84 C 71.02 99.34 74.03 99.02 74.73 101.07 C 73.98 102.37 72.67 102.95 71.21 102.61 C 67.92 102.12 64.69 102.94 61.48 103.54 Z" />
<path fill="#000000" opacity="1.00" d=" M 44.49 98.81 C 47.74 97.46 50.56 100.23 53.03 101.97 C 56.10 104.30 57.05 108.38 59.91 110.80 C 62.76 110.42 65.62 110.15 68.51 110.26 C 69.90 107.88 66.30 108.28 65.03 108.01 C 63.33 107.86 61.74 107.21 60.16 106.63 C 60.21 106.03 60.32 104.83 60.38 104.23 C 63.29 104.46 66.12 105.25 68.99 105.70 C 70.51 104.38 72.02 103.01 74.06 102.59 C 79.34 103.79 85.55 108.09 84.64 114.19 C 79.48 114.25 75.14 117.43 70.58 119.44 C 68.52 120.21 65.28 119.26 64.49 121.91 C 67.03 121.75 69.55 121.49 72.10 121.43 C 68.72 124.59 63.91 123.99 59.90 125.75 C 59.44 127.29 61.40 127.60 62.38 128.07 C 62.31 128.38 62.25 128.69 62.16 128.99 C 60.77 128.19 58.53 128.92 57.83 127.09 C 55.36 127.59 53.51 129.74 50.93 130.02 C 51.87 127.76 54.14 126.46 55.13 124.25 C 50.99 124.78 46.87 125.74 42.67 125.30 C 42.04 123.37 44.31 122.25 45.26 120.90 C 47.77 120.78 50.32 120.39 52.83 120.80 C 54.28 121.70 55.63 122.74 57.05 123.69 C 58.45 123.39 59.53 122.35 60.62 121.50 C 62.19 118.51 65.33 116.90 67.99 115.00 C 71.51 112.23 76.25 112.29 80.51 111.98 C 78.14 110.66 75.82 108.95 73.04 108.71 C 68.88 109.33 66.78 113.78 62.62 114.23 C 58.09 114.80 53.60 113.20 49.05 113.67 C 49.16 112.48 49.30 111.30 49.46 110.12 C 51.23 109.84 53.01 109.67 54.80 109.59 C 51.64 105.73 48.34 101.99 44.49 98.81 Z" />
<path fill="#000000" opacity="1.00" d=" M 35.93 104.11 C 40.50 102.79 45.23 104.29 48.39 107.77 C 44.79 107.60 41.16 108.15 37.61 107.44 C 37.01 106.35 36.43 105.25 35.93 104.11 Z" />
<path fill="#000000" opacity="1.00" d=" M 219.96 107.60 C 221.36 107.16 221.86 107.63 221.47 109.00 C 220.03 109.45 219.53 108.98 219.96 107.60 Z" />
<path fill="#000000" opacity="1.00" d=" M 35.21 107.97 C 36.27 110.75 36.91 113.97 39.35 115.94 C 41.13 116.88 43.38 115.74 45.08 117.01 C 43.95 118.72 41.76 120.87 39.59 119.54 C 35.16 117.62 35.16 112.09 35.21 107.97 Z" />
<path fill="#000000" opacity="1.00" d=" M 218.23 110.20 C 218.82 110.81 218.82 110.81 218.23 110.20 Z" />
<path fill="#000000" opacity="1.00" d=" M 72.26 127.42 C 74.40 125.38 77.49 124.95 80.23 125.90 C 78.89 127.02 77.48 128.03 76.07 129.05 C 76.90 129.83 77.73 130.61 78.54 131.42 C 78.12 135.75 78.99 139.94 80.61 143.94 C 79.83 145.16 78.53 145.74 77.10 145.69 C 75.00 142.40 73.46 137.53 77.22 134.75 C 75.67 132.99 73.43 132.12 71.53 130.83 C 71.65 129.67 71.90 128.53 72.26 127.42 Z" />
<path fill="#000000" opacity="1.00" d=" M 217.15 138.46 C 218.86 137.72 219.36 138.17 218.64 139.81 C 216.94 140.59 216.44 140.14 217.15 138.46 Z" />
<path fill="#000000" opacity="1.00" d=" M 223.60 139.78 C 224.69 140.72 225.70 141.79 226.95 142.53 C 231.03 142.63 235.37 143.30 239.14 141.34 C 236.21 143.86 232.34 143.15 228.86 144.09 C 227.35 144.59 225.93 143.83 224.55 143.32 C 224.34 142.11 223.99 140.94 223.60 139.78 Z" />
<path fill="#000000" opacity="1.00" d=" M 169.19 142.37 C 169.83 143.01 169.83 143.01 169.19 142.37 Z" />
<path fill="#000000" opacity="1.00" d=" M 163.43 144.47 C 164.63 144.26 165.63 143.52 166.70 143.00 C 166.72 143.89 166.73 144.79 166.74 145.68 C 165.32 146.33 163.92 147.03 162.46 147.61 C 162.09 147.29 161.35 146.66 160.98 146.34 C 160.14 148.95 157.73 150.45 155.26 151.30 C 154.82 151.12 153.94 150.77 153.50 150.60 C 153.47 151.09 153.43 152.08 153.41 152.58 C 152.40 152.56 150.37 152.53 149.36 152.51 C 149.70 151.83 150.37 150.48 150.71 149.81 C 150.41 148.90 150.12 148.00 149.83 147.10 C 154.63 149.34 158.85 145.26 163.43 144.47 Z" />
<path fill="#000000" opacity="1.00" d=" M 100.55 150.54 C 102.98 148.60 105.10 146.23 107.91 144.81 C 107.36 145.87 106.77 146.92 106.20 147.97 C 106.84 148.08 108.13 148.30 108.77 148.41 C 104.44 150.45 102.99 155.53 98.79 157.72 C 97.93 156.83 97.08 155.92 96.26 155.00 C 96.73 152.80 98.95 151.82 100.55 150.54 Z" />
<path fill="#000000" opacity="1.00" d=" M 203.14 147.07 C 203.83 147.75 203.83 147.75 203.14 147.07 Z" />
<path fill="#000000" opacity="1.00" d=" M 90.04 157.93 C 88.78 154.86 90.66 151.92 92.15 149.32 C 94.40 150.29 93.68 153.39 93.83 155.42 C 94.82 156.18 95.55 157.12 96.03 158.25 C 95.14 157.98 93.37 157.43 92.49 157.16 C 93.19 158.02 93.92 158.86 94.63 159.72 C 88.34 163.44 83.92 170.95 76.25 172.01 C 76.04 168.35 75.95 164.45 79.01 161.89 C 73.64 164.58 68.33 167.37 62.96 170.06 C 63.46 170.43 64.46 171.16 64.96 171.53 C 67.63 169.06 71.69 170.05 73.87 166.82 C 74.13 166.85 74.65 166.89 74.91 166.91 C 73.93 168.13 72.87 169.27 71.71 170.33 C 70.00 170.42 68.13 169.98 66.62 171.04 C 66.53 171.72 66.34 173.09 66.25 173.77 C 63.75 172.18 61.81 169.68 59.06 168.55 C 56.80 169.74 54.38 170.66 51.79 170.62 C 51.59 169.88 51.39 169.14 51.20 168.41 C 45.72 167.75 42.06 173.17 36.97 174.24 C 37.12 173.79 37.42 172.89 37.57 172.44 C 41.67 170.53 45.51 168.12 49.74 166.51 C 51.39 164.07 52.50 161.28 52.63 158.32 C 52.69 155.31 54.50 152.77 56.39 150.59 C 53.49 155.42 52.03 161.41 54.71 166.69 C 56.70 166.51 59.01 167.82 60.51 165.97 C 59.82 164.14 57.33 164.23 55.85 163.32 C 57.52 163.40 59.19 163.63 60.87 163.64 C 63.67 162.70 65.00 159.61 64.91 156.83 C 65.28 156.63 66.04 156.22 66.41 156.02 C 66.19 158.71 67.34 162.02 64.84 163.89 C 70.89 164.78 77.72 162.21 80.73 156.69 C 81.53 155.20 82.61 153.87 84.08 153.02 C 84.48 155.32 83.15 157.34 82.13 159.27 C 80.69 161.61 80.29 164.38 79.38 166.94 C 80.65 166.73 81.93 166.50 83.17 166.16 C 83.57 165.34 83.99 164.52 84.41 163.72 C 87.54 163.32 88.95 160.52 90.04 157.93 Z" />
<path fill="#000000" opacity="1.00" d=" M 113.50 155.38 C 114.81 156.02 114.78 156.70 113.42 157.40 C 112.11 156.75 112.14 156.07 113.50 155.38 Z" />
<path fill="#000000" opacity="1.00" d=" M 123.57 155.17 C 124.36 154.47 126.69 153.88 126.83 155.44 C 126.59 157.28 122.53 157.24 123.57 155.17 Z" />
<path fill="#000000" opacity="1.00" d=" M 111.29 158.54 C 112.50 157.70 114.43 159.64 113.17 160.72 C 111.86 161.69 110.25 159.67 111.29 158.54 Z" />
<path fill="#000000" opacity="1.00" d=" M 153.20 160.46 C 156.06 160.72 158.78 159.63 161.63 159.60 C 161.64 160.53 161.66 161.46 161.68 162.40 C 163.21 162.00 164.75 161.65 166.32 161.46 C 164.98 163.95 162.05 164.94 159.37 164.86 C 159.35 163.62 159.35 162.39 159.35 161.16 C 158.98 161.35 158.23 161.72 157.86 161.90 C 157.68 163.11 157.57 164.32 157.47 165.53 C 154.19 166.46 150.82 167.09 147.67 168.41 C 148.72 168.41 150.83 168.40 151.88 168.40 L 151.60 169.78 C 148.70 170.32 145.35 172.21 142.51 170.66 C 142.37 169.90 142.09 168.38 141.95 167.62 C 143.37 167.36 144.75 167.90 146.09 168.29 C 148.91 165.80 152.54 165.13 156.14 164.62 C 155.85 164.31 155.26 163.71 154.97 163.40 C 152.28 165.25 149.03 164.29 146.00 164.34 C 144.29 164.16 141.51 163.53 141.99 161.26 C 144.39 161.43 146.80 161.48 149.17 161.00 C 148.96 161.58 148.52 162.76 148.30 163.34 C 149.16 162.49 150.02 161.62 150.98 160.88 C 151.48 161.40 151.99 161.92 152.49 162.45 C 152.67 161.95 153.02 160.96 153.20 160.46 Z" />
</g>
</svg>
