<?xml version="1.0" encoding="UTF-8" ?>
<!DOCTYPE svg PUBLIC "-//W3C//DTD SVG 1.1//EN" "http://www.w3.org/Graphics/SVG/1.1/DTD/svg11.dtd">
<svg width="256pt" height="256pt" viewBox="0 0 256 256" version="1.1" xmlns="http://www.w3.org/2000/svg">
<g id="#000000ff">
<path fill="#000000" opacity="1.00" d=" M 99.67 36.55 C 101.72 42.44 100.10 48.93 101.16 55.01 C 101.80 58.77 101.17 62.62 101.89 66.37 C 102.71 62.99 102.05 59.51 102.18 56.09 C 102.40 49.56 102.53 43.04 102.97 36.52 C 104.91 37.01 104.94 39.05 105.59 40.59 C 107.39 44.48 106.91 48.90 106.77 53.06 C 108.72 53.26 110.69 53.32 112.62 53.62 C 114.63 54.97 116.16 56.89 117.82 58.62 C 118.97 57.42 120.02 56.10 121.42 55.17 C 122.99 54.60 124.16 55.85 125.22 56.80 C 126.06 55.93 126.91 55.08 127.79 54.24 C 129.99 55.77 132.02 57.55 133.77 59.59 C 135.95 57.55 138.27 55.64 140.92 54.25 C 144.91 57.18 149.43 60.64 149.82 66.01 C 149.29 69.66 147.80 73.35 145.05 75.92 C 144.10 74.78 141.83 73.84 142.57 72.01 C 143.14 69.32 144.43 66.79 144.62 64.02 C 142.57 61.42 139.23 60.62 136.56 62.80 C 136.69 64.48 136.80 66.17 136.91 67.86 C 134.60 66.09 132.91 63.65 133.51 60.63 C 130.10 58.56 126.18 58.64 122.34 58.34 C 119.01 62.85 118.16 68.77 115.70 73.81 C 114.59 75.47 115.34 77.39 115.88 79.11 C 117.54 83.31 116.72 87.95 117.99 92.25 C 116.92 85.77 116.98 79.14 118.51 72.73 C 120.35 72.93 122.72 71.36 124.00 73.24 C 124.14 75.99 121.55 75.79 119.69 75.07 C 119.52 78.54 119.40 82.01 119.49 85.48 C 120.71 84.55 121.79 83.41 123.13 82.64 C 125.59 82.44 128.07 82.65 130.53 82.50 C 127.76 81.42 128.87 78.26 128.80 75.97 C 128.94 72.44 130.35 69.18 132.51 66.42 C 132.45 67.82 132.32 69.22 132.15 70.62 C 133.50 71.21 134.73 72.03 135.56 73.26 C 135.70 71.99 135.91 70.73 136.14 69.48 C 137.21 69.38 138.29 69.29 139.37 69.19 C 139.67 72.75 140.80 76.31 140.02 79.89 C 139.75 82.42 138.69 84.97 139.31 87.51 C 140.13 87.91 140.97 88.26 141.83 88.57 C 140.36 88.28 139.05 88.64 137.90 89.66 C 139.73 90.69 141.60 92.23 143.85 91.86 C 144.83 89.34 144.77 86.50 146.08 84.08 C 148.60 78.84 149.51 73.02 151.47 67.57 C 152.26 60.55 152.42 53.37 154.45 46.54 C 155.52 43.44 154.67 39.14 157.93 37.23 C 157.83 46.62 153.67 55.58 154.60 65.02 C 154.08 66.11 153.52 67.19 152.90 68.23 C 154.05 67.69 155.21 67.14 156.36 66.60 C 154.71 74.15 151.83 81.37 149.75 88.81 C 148.91 93.15 148.46 97.61 146.95 101.80 C 148.60 104.11 150.10 106.53 151.51 108.99 C 151.51 107.75 151.51 106.50 151.52 105.26 C 152.59 104.77 153.66 104.29 154.73 103.82 C 156.36 106.01 157.98 108.21 159.68 110.35 C 158.82 111.27 157.99 112.23 157.06 113.09 C 156.13 112.39 155.26 111.60 154.37 110.84 C 154.70 113.82 153.10 116.09 150.94 117.92 C 151.66 118.89 152.37 119.87 153.08 120.86 C 152.01 121.99 150.95 123.13 149.89 124.27 C 148.31 122.23 146.91 120.07 145.72 117.79 C 144.89 118.40 144.05 119.02 143.22 119.63 C 141.48 116.49 140.15 113.16 138.69 109.88 C 136.86 111.94 139.00 114.18 139.28 116.42 C 137.88 116.57 136.48 116.71 135.08 116.83 C 133.32 113.12 131.31 109.55 129.22 106.02 C 129.33 104.13 131.41 103.74 132.71 102.86 C 132.06 101.32 130.89 99.88 131.06 98.13 C 132.21 97.05 133.59 96.28 134.86 95.37 C 132.96 96.23 130.94 97.02 129.40 98.46 C 128.32 101.39 127.65 104.45 126.57 107.38 C 124.58 112.57 120.88 116.89 118.99 122.14 C 122.73 117.69 124.73 112.10 128.32 107.56 C 130.63 110.81 132.28 114.45 133.89 118.08 C 135.11 119.25 137.25 119.28 137.91 121.05 C 139.29 124.24 139.99 127.70 141.14 130.98 C 140.23 131.43 139.32 131.89 138.41 132.35 C 138.55 134.58 138.23 136.88 138.94 139.04 C 139.89 140.76 141.93 142.01 141.82 144.18 C 141.92 149.48 140.99 154.74 141.37 160.04 C 140.13 163.83 137.76 167.26 137.39 171.37 C 135.97 170.28 134.48 169.03 134.55 167.06 C 134.89 164.13 137.05 161.72 137.34 158.77 C 137.58 156.00 137.80 153.21 137.63 150.43 C 135.66 148.45 133.17 147.09 131.10 145.21 C 130.39 147.38 129.19 149.60 129.96 151.94 C 130.86 156.32 129.94 160.90 131.38 165.18 C 130.73 165.60 129.43 166.45 128.78 166.87 C 127.23 162.98 127.14 158.75 126.36 154.68 C 125.85 152.41 126.54 150.17 126.91 147.95 C 126.67 143.76 123.19 140.92 121.01 137.65 C 119.60 136.33 121.39 134.88 121.97 133.68 C 126.36 135.20 126.81 140.19 129.45 143.43 C 129.58 141.64 129.80 139.86 129.87 138.06 C 128.16 135.08 126.00 132.36 124.24 129.39 C 124.90 128.29 125.57 127.20 126.25 126.11 C 129.75 129.64 132.33 133.94 134.81 138.21 C 134.18 139.13 133.54 140.06 132.91 140.98 C 134.03 142.57 135.16 144.17 136.47 145.64 C 136.45 141.73 136.45 137.34 133.82 134.18 C 130.51 130.33 127.97 125.91 125.92 121.29 C 124.11 125.99 122.81 131.36 118.50 134.49 C 116.38 135.78 117.11 138.58 117.29 140.62 C 117.42 142.80 119.70 143.53 120.99 144.93 C 120.36 147.22 118.01 149.83 120.54 151.78 C 117.54 156.64 116.66 162.43 117.29 168.05 C 117.62 170.51 116.74 172.89 116.24 175.27 C 115.45 174.89 113.89 174.13 113.11 173.75 C 113.87 172.10 114.70 170.50 115.60 168.94 C 114.87 168.05 114.15 167.17 113.42 166.30 C 114.27 164.87 115.09 163.42 115.89 161.96 C 115.41 161.07 114.93 160.18 114.47 159.28 C 115.41 156.54 117.59 153.82 116.49 150.81 C 116.02 149.02 117.41 147.50 118.01 145.92 C 114.55 145.23 111.10 144.50 107.60 144.10 C 108.20 149.39 108.77 154.67 108.78 160.00 C 109.03 162.14 111.13 166.95 107.12 166.26 C 104.47 163.12 104.94 158.77 104.70 154.95 C 104.74 150.52 104.06 145.97 104.97 141.62 C 108.12 136.51 110.79 131.11 114.13 126.11 C 116.94 120.04 119.60 113.85 123.24 108.21 C 124.67 105.82 125.49 103.13 126.24 100.46 C 121.75 104.99 118.69 110.72 116.58 116.69 C 116.04 118.29 115.13 119.73 113.97 120.95 C 111.29 123.94 110.11 127.85 108.31 131.36 C 107.02 131.87 105.61 131.88 104.27 132.12 C 106.88 126.10 110.04 120.34 112.94 114.45 C 109.74 114.65 106.55 114.49 103.36 114.25 C 101.57 117.71 99.94 121.26 97.76 124.50 C 96.03 122.00 98.15 119.32 98.74 116.82 C 96.75 119.30 96.41 123.66 92.89 124.40 C 95.40 119.43 96.69 112.65 102.45 110.41 C 104.70 109.49 107.23 109.86 109.60 109.52 C 107.25 106.78 106.57 103.02 103.71 100.66 C 102.65 102.60 101.09 104.26 98.81 104.66 C 99.49 102.39 100.35 100.16 100.82 97.83 C 96.73 99.97 96.84 105.17 95.20 108.94 C 94.70 108.92 93.70 108.88 93.19 108.85 C 93.43 103.97 95.84 99.61 97.73 95.22 C 94.26 98.92 92.29 103.77 90.44 108.43 C 89.58 108.62 87.87 108.98 87.02 109.16 C 88.19 104.01 91.35 99.73 94.09 95.35 C 90.70 98.44 89.77 103.41 86.50 106.65 C 82.56 107.71 79.83 103.58 76.82 101.78 C 78.51 101.01 80.27 100.42 82.05 99.89 C 82.80 95.48 87.02 91.66 85.18 87.03 C 83.71 85.50 81.66 84.42 79.49 84.74 C 80.68 85.84 81.93 86.87 83.18 87.91 C 80.23 91.68 74.72 93.65 70.11 92.32 C 69.35 93.61 68.58 94.88 67.78 96.14 C 67.10 95.19 66.43 94.23 65.79 93.25 C 64.07 94.26 62.24 95.07 60.36 95.73 C 60.29 93.57 61.51 91.80 62.59 90.05 C 60.96 90.11 59.33 90.13 57.70 90.12 C 58.33 88.73 58.23 86.56 60.07 86.17 C 64.98 84.56 70.06 83.42 74.83 81.37 C 74.15 75.90 73.84 70.39 72.93 64.96 C 72.27 58.28 70.62 51.69 70.87 44.94 C 70.86 43.62 71.41 42.39 72.25 41.40 C 72.92 46.14 73.24 50.92 73.53 55.70 C 74.05 62.08 75.41 68.35 76.38 74.67 C 77.72 77.03 79.05 79.40 80.39 81.76 C 82.59 82.71 84.84 82.55 86.95 81.50 C 89.99 81.91 92.73 83.49 95.76 83.91 C 98.12 80.69 95.36 77.28 94.74 74.00 C 93.87 69.69 92.26 65.44 92.65 60.97 C 92.44 53.78 91.79 46.56 92.70 39.38 C 93.98 41.72 93.48 44.45 93.84 46.99 C 94.73 54.14 95.07 61.36 96.54 68.43 C 97.29 72.59 98.43 76.74 98.28 81.01 C 98.32 83.04 97.79 85.40 99.62 86.86 C 101.25 81.53 98.66 76.23 99.91 70.90 C 99.34 60.96 98.70 50.98 98.76 41.00 C 98.92 39.49 99.23 38.01 99.67 36.55 M 106.27 67.47 C 108.33 68.18 110.19 69.27 111.52 71.04 C 110.11 72.49 108.45 73.68 106.35 73.70 C 106.98 78.36 107.38 83.07 107.19 87.78 C 109.63 88.02 112.00 88.65 114.26 89.59 C 113.87 84.65 112.85 79.81 111.57 75.04 C 112.39 72.74 114.01 70.72 114.13 68.18 C 112.63 64.79 111.33 60.97 107.83 59.12 C 106.78 61.78 106.20 64.60 106.27 67.47 M 121.31 85.51 C 121.30 89.42 119.43 93.26 121.07 97.08 C 120.92 92.57 123.73 86.54 129.09 87.69 C 128.91 87.05 128.56 85.79 128.38 85.16 C 126.02 85.21 123.67 85.47 121.31 85.51 M 92.07 89.38 C 91.68 90.78 92.17 91.33 93.55 91.01 C 93.94 89.60 93.45 89.06 92.07 89.38 M 97.99 89.65 C 97.64 92.52 100.80 93.40 102.57 94.97 C 102.59 93.70 102.61 92.43 102.63 91.16 C 101.10 90.62 99.55 90.10 97.99 89.65 M 107.32 89.72 C 107.52 93.61 107.39 97.50 107.18 101.38 C 110.82 99.40 114.37 97.13 118.32 95.82 C 117.17 94.99 116.04 94.15 114.93 93.28 C 113.97 94.80 113.00 96.31 112.00 97.80 C 111.54 97.06 110.64 95.57 110.19 94.82 C 111.16 94.17 112.10 93.46 113.00 92.71 C 112.77 90.01 109.19 90.69 107.32 89.72 M 125.65 90.15 C 125.17 91.52 125.65 92.01 127.07 91.59 C 127.53 90.21 127.06 89.72 125.65 90.15 M 125.30 97.72 C 128.47 98.24 129.58 95.37 130.59 92.96 C 128.99 94.24 127.30 95.42 125.26 95.87 C 124.99 94.70 124.45 92.36 124.18 91.19 C 123.86 93.43 124.68 95.60 125.30 97.72 M 88.37 93.14 C 87.55 94.72 86.74 96.31 85.96 97.91 C 87.74 96.64 89.47 95.30 91.14 93.90 C 90.45 93.71 89.07 93.33 88.37 93.14 M 134.84 93.85 C 136.43 95.17 138.40 96.22 139.31 98.18 C 140.73 100.01 137.65 100.63 136.62 101.42 C 137.40 103.05 138.12 104.71 138.77 106.40 C 140.04 105.63 141.33 104.90 142.65 104.22 C 142.02 106.26 140.52 108.62 142.16 110.59 C 143.13 110.47 144.08 110.32 145.04 110.12 C 146.43 111.69 147.70 113.36 148.95 115.05 C 146.46 110.18 146.64 104.06 143.20 99.77 C 143.46 97.55 144.69 95.07 143.88 92.95 C 140.88 92.32 137.91 94.04 134.84 93.85 M 114.26 104.15 C 116.67 103.08 116.91 100.05 118.02 97.93 C 115.98 99.44 113.92 101.35 114.26 104.15 M 82.76 105.51 C 85.56 105.15 86.13 102.02 87.15 99.88 C 85.11 101.25 83.93 103.43 82.76 105.51 M 109.39 106.34 C 109.87 107.54 110.33 108.74 110.81 109.94 C 111.94 108.86 113.04 107.77 114.12 106.65 C 112.54 106.57 110.96 106.47 109.39 106.34 M 125.31 117.15 C 127.88 117.19 129.36 119.32 131.06 120.92 C 129.73 118.51 128.46 116.08 127.08 113.71 C 126.50 114.86 125.93 116.01 125.31 117.15 M 108.58 141.25 C 110.31 141.56 112.05 141.78 113.80 141.95 C 114.23 139.95 114.57 137.93 114.83 135.89 C 112.81 137.75 110.71 139.52 108.58 141.25 Z" />
<path fill="#000000" opacity="1.00" d=" M 182.52 53.59 C 183.49 49.30 183.93 44.63 187.02 41.20 C 186.47 48.60 185.05 55.91 183.06 63.05 C 182.69 67.51 179.73 71.41 179.98 75.93 C 180.65 78.66 180.12 81.69 181.67 84.18 C 183.34 87.98 187.28 89.81 190.38 92.25 C 192.65 92.50 194.46 93.84 196.23 95.16 C 195.97 95.77 195.45 96.99 195.19 97.59 C 192.05 98.58 189.79 95.97 187.21 94.73 C 188.22 96.93 190.19 98.42 191.73 100.22 C 190.24 100.94 188.76 102.12 187.01 101.54 C 185.54 100.38 184.23 99.04 182.76 97.88 C 183.93 99.59 185.28 101.16 186.59 102.77 C 185.33 103.36 184.07 103.95 182.80 104.53 C 180.83 102.31 179.12 99.82 176.87 97.86 C 175.17 97.33 173.46 96.88 171.78 96.29 C 170.65 97.37 169.28 97.88 167.73 97.44 C 167.78 95.62 167.88 93.81 167.98 91.99 C 164.65 95.80 160.22 98.30 156.07 101.09 C 153.83 102.36 151.39 104.22 148.69 103.15 C 149.46 99.38 152.99 97.72 156.02 96.01 C 159.21 94.22 162.09 91.91 165.44 90.39 C 167.71 89.30 167.84 86.49 168.45 84.37 C 166.15 85.52 163.75 86.42 161.23 86.93 C 157.12 88.78 154.63 93.70 149.73 93.85 C 149.69 89.80 153.96 88.76 155.84 85.85 C 158.37 82.44 163.02 82.06 166.29 79.60 C 166.73 80.12 167.62 81.15 168.06 81.67 C 169.37 77.55 173.18 75.69 176.45 73.38 C 178.85 66.90 180.51 60.20 182.52 53.59 M 177.14 78.50 C 176.54 80.12 177.06 80.65 178.70 80.09 C 179.30 78.46 178.78 77.93 177.14 78.50 M 171.30 85.06 C 171.39 88.49 174.18 83.51 171.30 85.06 M 171.74 87.46 C 172.50 91.20 174.82 96.17 179.17 96.34 C 176.36 93.65 174.23 90.40 171.74 87.46 M 177.60 88.25 C 179.38 91.39 182.72 93.05 185.43 95.25 C 183.96 92.06 180.65 89.84 177.60 88.25 Z" />
<path fill="#000000" opacity="1.00" d=" M 141.15 84.35 C 144.58 84.50 139.56 87.26 141.15 84.35 Z" />
<path fill="#000000" opacity="1.00" d=" M 128.47 170.68 C 130.49 171.27 131.31 173.57 130.52 175.43 C 129.08 180.07 130.29 184.94 130.18 189.69 C 132.20 189.95 134.20 190.33 136.19 190.78 C 136.52 186.69 135.08 181.18 139.10 178.50 C 141.71 178.74 140.18 181.57 139.99 183.18 C 139.28 188.10 139.97 193.10 139.59 198.05 C 140.54 202.44 142.87 207.26 140.56 211.61 C 137.96 214.79 133.74 212.96 130.31 212.80 C 128.80 213.37 127.34 214.06 125.87 214.70 C 122.94 211.10 125.37 206.99 126.33 203.18 C 124.74 198.83 125.38 194.16 126.76 189.85 C 126.95 185.35 123.90 180.08 127.19 176.12 C 128.58 174.65 128.05 172.49 128.47 170.68 M 128.12 193.28 C 128.25 195.93 128.54 198.58 129.26 201.15 C 128.93 204.31 128.31 207.45 127.99 210.62 C 128.50 210.57 129.52 210.45 130.03 210.40 C 129.33 206.35 128.84 201.93 132.14 198.81 C 133.50 200.29 133.87 202.13 133.45 204.06 C 134.30 203.62 135.15 203.20 136.00 202.78 C 136.79 205.25 137.38 207.79 138.31 210.23 C 139.32 204.31 134.49 199.24 135.90 193.33 C 133.31 193.38 130.71 193.33 128.12 193.28 Z" />
<path fill="#000000" opacity="1.00" d=" M 107.50 178.77 C 106.66 175.89 108.23 173.39 110.06 171.31 C 110.30 173.21 110.48 175.12 110.70 177.02 C 109.90 177.46 108.30 178.33 107.50 178.77 Z" />
<path fill="#000000" opacity="1.00" d=" M 106.52 186.45 C 107.30 183.75 109.00 181.44 111.19 179.71 C 110.95 182.71 110.37 186.47 106.52 186.45 Z" />
<path fill="#000000" opacity="1.00" d=" M 114.39 187.03 C 113.70 183.73 115.32 180.75 118.46 179.52 C 118.01 182.38 118.00 186.40 114.39 187.03 Z" />
<path fill="#000000" opacity="1.00" d=" M 106.98 193.48 C 107.01 191.01 106.98 188.45 108.60 186.42 C 109.81 187.62 111.02 188.83 112.21 190.06 C 113.37 189.60 114.52 189.13 115.68 188.67 C 116.70 189.22 117.72 189.76 118.76 190.28 C 118.49 194.51 120.09 198.95 118.10 202.96 C 116.58 205.82 115.76 208.92 115.79 212.17 C 111.15 212.77 106.45 212.33 101.78 212.52 C 100.81 210.12 99.43 208.00 97.42 206.36 C 95.45 200.40 101.73 195.82 106.63 194.02 C 104.86 198.03 101.73 201.22 99.86 205.17 C 101.80 202.67 103.37 199.39 106.90 198.95 C 105.80 202.06 103.52 205.13 104.30 208.60 C 104.83 208.89 105.89 209.46 106.42 209.75 C 105.85 206.03 105.66 201.81 109.33 199.56 C 109.49 202.54 109.37 205.58 110.27 208.47 C 110.37 204.63 110.27 200.69 112.31 197.27 C 114.28 199.52 113.20 202.60 113.80 205.28 C 116.34 201.30 115.75 196.36 115.74 191.87 C 112.66 190.88 109.76 192.24 106.98 193.48 Z" />
</g>
</svg>
