<?xml version="1.0" encoding="UTF-8" ?>
<!DOCTYPE svg PUBLIC "-//W3C//DTD SVG 1.1//EN" "http://www.w3.org/Graphics/SVG/1.1/DTD/svg11.dtd">
<svg width="256pt" height="256pt" viewBox="0 0 256 256" version="1.1" xmlns="http://www.w3.org/2000/svg">
<g id="#000000ff">
<path fill="#000000" opacity="1.00" d=" M 135.12 28.34 C 138.77 22.96 136.13 15.44 140.68 10.39 C 141.34 10.82 142.68 11.69 143.35 12.12 C 143.96 16.82 143.97 21.59 144.93 26.24 C 146.15 33.19 144.82 40.29 145.89 47.26 C 146.04 48.75 146.46 50.23 146.32 51.73 C 145.42 53.52 143.16 54.80 143.60 57.04 C 144.23 63.22 142.95 69.46 144.17 75.58 C 142.46 77.96 142.54 81.67 145.78 82.63 C 144.58 90.69 146.83 98.67 146.32 106.73 C 145.76 107.15 144.63 107.98 144.07 108.40 C 143.29 112.47 144.67 116.50 144.53 120.58 C 144.43 123.72 144.54 126.87 144.37 130.02 C 144.40 131.89 142.98 133.60 143.52 135.49 C 144.20 138.98 145.58 142.39 145.40 146.01 C 145.05 151.15 145.72 156.29 145.42 161.43 C 146.40 160.84 147.38 160.25 148.35 159.66 C 149.22 161.73 150.49 163.71 150.92 165.92 C 149.90 169.05 147.50 171.50 144.54 172.88 C 145.69 179.22 145.16 185.63 145.39 192.03 C 145.36 193.42 144.76 194.71 144.42 196.03 C 146.17 196.57 147.86 197.57 149.73 197.56 C 151.56 196.18 152.72 194.11 154.29 192.46 C 158.55 194.44 162.67 191.79 166.28 189.68 C 166.64 191.02 166.97 192.38 167.27 193.74 C 162.34 194.73 155.96 194.78 153.97 200.48 C 157.66 201.14 161.16 199.86 164.70 199.43 C 169.81 202.40 174.48 206.13 178.64 210.37 C 178.39 211.73 178.53 212.98 179.05 214.11 C 179.61 214.28 180.73 214.62 181.29 214.79 C 181.29 215.01 181.30 215.43 181.31 215.64 C 180.62 215.46 179.93 215.27 179.23 215.13 C 177.64 216.88 175.74 218.13 173.24 217.88 C 173.86 216.25 174.95 214.95 176.48 214.11 C 174.44 208.99 169.04 207.02 163.89 207.06 C 162.65 208.27 161.36 209.43 160.08 210.60 C 162.33 210.90 164.58 211.16 166.84 211.31 C 167.39 212.33 167.90 213.37 168.42 214.41 C 170.34 214.77 172.26 215.17 174.17 215.62 C 172.60 217.59 170.41 217.44 168.54 216.02 C 170.11 218.24 171.13 220.92 169.79 223.53 C 167.29 224.53 164.70 225.27 162.10 225.93 C 162.53 227.14 162.96 228.36 163.38 229.59 C 161.74 229.68 160.11 229.58 158.49 229.43 C 158.82 228.75 159.49 227.39 159.82 226.71 C 157.45 228.88 155.02 231.07 151.91 232.11 C 152.60 232.81 153.28 233.51 153.97 234.21 C 153.30 235.13 152.65 236.05 152.02 236.99 C 151.23 236.78 150.44 236.57 149.65 236.36 C 148.75 237.87 147.76 239.33 146.78 240.79 C 143.77 241.63 140.49 240.91 137.69 242.48 C 133.51 242.22 129.41 243.05 125.29 243.59 C 125.30 242.67 125.33 240.84 125.35 239.93 C 127.74 240.52 130.24 240.74 132.57 239.75 C 129.71 238.68 125.52 239.74 124.02 236.45 C 122.80 237.25 121.64 238.54 120.07 238.52 C 115.04 238.17 109.99 238.22 104.95 238.26 C 101.87 237.12 98.69 238.30 95.60 238.72 C 95.47 237.25 95.32 235.78 95.19 234.32 C 93.86 234.08 92.54 233.82 91.22 233.54 C 91.44 231.71 91.79 229.84 91.06 228.08 C 90.12 225.61 90.71 222.96 91.16 220.45 C 91.30 221.54 91.60 223.72 91.75 224.80 C 94.46 223.03 93.82 219.70 93.17 217.04 C 94.03 216.36 94.90 215.70 95.78 215.06 C 94.52 213.24 94.13 211.07 93.68 208.96 C 92.93 209.29 91.43 209.93 90.68 210.25 C 90.44 208.28 91.51 206.89 93.37 206.33 C 92.99 203.92 93.78 201.65 94.76 199.49 C 91.00 196.97 86.18 199.70 82.40 196.91 C 82.39 196.33 82.36 195.17 82.35 194.59 C 81.99 194.98 81.27 195.77 80.91 196.16 C 80.62 195.58 80.04 194.42 79.75 193.85 C 83.70 191.90 88.21 192.50 92.47 192.21 C 92.58 193.49 92.68 194.77 92.77 196.05 C 95.89 197.58 99.56 198.39 101.53 201.53 C 102.84 201.43 104.15 201.31 105.46 201.28 C 105.47 201.13 105.49 200.85 105.50 200.70 C 104.00 200.17 102.52 199.62 101.04 199.07 C 102.39 197.74 103.85 196.52 105.24 195.22 C 108.54 186.97 107.97 177.92 107.40 169.24 C 106.19 168.46 105.01 167.65 103.84 166.82 C 104.80 166.74 106.73 166.58 107.69 166.50 C 107.48 165.59 107.28 164.68 107.10 163.77 C 109.77 162.29 112.66 161.83 115.44 163.36 C 115.32 160.82 115.18 158.21 116.33 155.86 C 116.75 151.23 116.03 146.47 117.49 141.96 C 116.70 140.73 115.87 139.53 115.06 138.32 C 115.38 137.76 116.02 136.64 116.35 136.09 C 118.23 136.30 120.12 136.52 122.01 136.78 C 121.43 135.33 120.84 133.88 120.24 132.43 C 121.36 131.02 122.44 129.58 123.56 128.17 C 123.06 127.03 122.57 125.89 122.09 124.75 C 123.00 124.05 123.91 123.35 124.82 122.65 C 124.99 119.36 124.42 116.14 123.64 112.96 C 122.95 110.61 125.90 109.54 126.40 107.54 C 126.74 101.24 128.75 95.19 128.38 88.83 C 129.92 88.64 131.48 88.51 133.04 88.44 C 133.92 93.43 132.61 98.19 130.92 102.84 C 133.05 101.94 135.22 101.18 137.48 100.67 C 138.06 95.02 137.33 89.26 138.68 83.68 C 139.39 83.47 140.80 83.06 141.51 82.86 C 141.30 84.63 141.02 86.40 140.94 88.18 C 141.57 86.31 142.10 84.41 142.68 82.52 C 139.13 82.29 135.55 81.81 132.05 82.70 C 132.68 84.41 133.35 86.10 133.95 87.82 C 132.99 87.72 131.09 87.51 130.14 87.40 C 128.46 85.69 129.75 82.96 129.51 80.81 C 132.21 79.36 135.30 79.18 138.26 78.69 C 137.19 70.88 140.95 63.18 139.12 55.43 C 135.46 55.64 132.21 54.34 129.08 52.61 C 132.85 51.72 136.50 50.58 140.42 51.40 C 139.12 50.21 135.95 50.32 136.14 48.15 C 137.97 47.20 139.85 48.53 141.66 48.91 C 139.10 40.55 142.19 31.71 139.68 23.35 C 139.41 32.34 136.75 40.96 134.88 49.68 C 134.04 49.81 132.36 50.07 131.51 50.19 C 132.28 42.84 133.75 35.58 135.12 28.34 M 140.99 103.34 C 139.55 106.36 144.38 103.43 140.99 103.34 M 130.38 104.96 C 133.69 106.03 136.99 107.09 140.19 108.47 C 138.15 105.05 134.20 103.01 130.38 104.96 M 129.05 109.38 C 128.62 110.74 128.23 112.11 127.75 113.45 C 129.41 113.22 131.04 112.80 132.64 112.29 C 132.03 113.14 131.43 113.99 130.84 114.86 C 132.20 117.15 132.75 119.72 132.52 122.38 C 131.28 121.63 130.03 120.89 128.77 120.18 C 129.85 121.22 130.99 122.19 132.13 123.16 C 131.49 124.08 130.84 124.98 130.19 125.89 C 131.52 128.64 132.13 131.65 131.15 134.64 C 134.40 134.75 137.65 134.59 140.90 134.62 C 140.00 132.88 138.33 131.12 138.99 129.01 C 140.50 122.55 139.36 115.93 139.18 109.39 C 135.87 110.68 132.38 110.31 129.05 109.38 M 125.44 140.52 C 125.44 141.12 125.43 142.30 125.43 142.90 C 128.56 142.52 131.70 142.12 134.85 142.50 C 134.70 143.20 134.55 143.92 134.40 144.63 C 131.36 143.84 128.79 146.12 126.05 147.01 C 125.52 149.87 125.64 152.79 125.26 155.67 C 130.17 157.00 135.26 157.39 140.32 157.60 C 138.66 153.89 138.21 149.86 138.46 145.83 C 137.36 145.30 136.27 144.76 135.18 144.21 C 135.89 143.81 137.29 143.01 138.00 142.62 C 138.29 141.10 137.63 139.61 137.47 138.12 C 133.32 138.18 129.40 139.44 125.44 140.52 M 122.45 162.32 C 125.31 164.08 128.82 163.44 132.01 163.58 C 134.77 163.20 137.35 165.51 140.05 164.18 C 139.44 163.09 138.82 162.01 138.18 160.94 C 133.40 163.85 127.67 161.50 122.45 162.32 M 129.32 172.28 C 128.74 175.35 128.72 178.47 128.80 181.58 C 132.65 182.12 136.51 182.38 140.31 181.38 C 140.30 178.41 140.37 175.44 140.61 172.47 C 136.85 172.24 133.09 172.16 129.32 172.28 M 128.77 186.07 C 128.89 189.71 128.80 193.36 128.37 196.98 C 132.39 195.61 136.64 195.27 140.86 195.45 C 140.67 192.81 140.44 190.17 140.56 187.53 C 136.64 186.94 132.73 186.36 128.77 186.07 M 112.47 188.00 C 111.51 189.24 113.61 190.39 114.46 189.33 C 115.35 188.13 113.28 186.84 112.47 188.00 M 112.46 191.85 C 116.74 193.59 121.32 193.37 125.82 193.74 C 125.86 193.10 125.94 191.82 125.97 191.18 C 121.47 191.61 116.89 190.64 112.46 191.85 M 154.23 194.21 C 152.88 194.28 152.71 196.76 154.18 196.74 C 155.54 196.65 155.71 194.20 154.23 194.21 M 109.33 197.30 C 113.81 198.79 118.30 200.26 122.66 202.10 C 124.43 203.54 125.67 205.76 127.98 206.52 C 132.99 206.75 137.95 205.76 142.94 205.41 C 144.34 204.31 143.54 202.20 143.88 200.65 C 140.24 200.83 136.57 200.06 132.97 200.80 C 130.54 201.26 128.08 201.56 125.61 201.62 C 125.25 200.52 124.89 199.42 124.53 198.32 C 121.82 198.39 119.07 198.65 116.38 198.20 C 114.15 197.24 111.72 197.17 109.33 197.30 M 149.07 199.43 C 149.48 201.63 149.58 204.09 151.50 205.60 C 151.62 203.12 151.59 200.64 151.64 198.16 C 150.78 198.58 149.92 199.01 149.07 199.43 M 95.03 205.80 C 96.71 205.05 98.32 204.19 99.94 203.32 C 98.79 202.15 97.65 200.98 96.51 199.80 C 95.90 201.77 95.39 203.76 95.03 205.80 M 153.45 201.98 C 152.83 203.73 153.30 204.29 154.86 203.66 C 155.48 201.89 155.01 201.33 153.45 201.98 M 155.36 204.86 C 155.71 205.52 156.41 206.84 156.76 207.50 C 157.84 207.60 158.93 207.72 160.01 207.86 C 161.73 205.29 164.75 204.79 167.56 204.18 C 164.25 200.74 158.04 200.58 155.36 204.86 M 96.01 207.86 C 96.15 209.36 96.31 210.87 96.47 212.37 C 97.90 212.88 99.34 213.40 100.77 213.96 C 99.88 213.09 99.00 212.21 98.14 211.33 C 99.22 209.31 100.27 207.27 101.06 205.12 C 99.23 205.76 97.60 206.79 96.01 207.86 M 123.23 212.38 C 125.18 214.29 126.12 216.85 127.61 219.08 C 125.24 220.38 123.48 222.61 120.99 223.67 C 116.76 224.17 112.56 223.34 108.46 222.35 C 108.39 222.61 108.24 223.12 108.17 223.38 C 111.93 222.93 115.51 224.81 119.27 224.21 C 120.99 223.98 122.38 225.25 123.88 225.88 C 123.82 224.71 123.76 223.54 123.70 222.38 C 125.66 221.49 127.48 220.33 129.46 219.50 C 133.65 218.24 138.12 219.09 142.35 218.12 C 145.15 217.47 148.04 217.72 150.89 217.68 C 150.47 215.16 149.92 212.66 149.40 210.16 C 140.65 210.60 131.78 210.07 123.23 212.38 M 154.30 210.25 C 153.51 211.48 153.55 213.60 154.61 214.66 C 155.84 214.04 156.11 210.05 154.30 210.25 M 159.95 214.32 C 159.12 216.07 162.83 218.28 163.66 216.45 C 163.04 215.24 161.35 213.84 159.95 214.32 M 156.34 222.53 C 157.02 225.14 160.17 225.11 162.33 225.39 C 159.49 223.91 158.29 221.03 157.95 218.00 C 157.00 219.33 155.29 220.73 156.34 222.53 M 127.74 223.90 C 127.81 225.95 127.95 227.99 128.14 230.03 C 132.00 228.83 135.86 227.16 140.00 227.41 C 143.88 227.61 147.76 227.41 151.65 227.36 C 151.50 225.61 151.33 223.87 151.10 222.13 C 145.49 222.39 139.89 223.18 134.27 222.65 C 132.00 222.30 129.88 223.35 127.74 223.90 M 93.98 230.06 C 98.18 231.51 102.54 232.54 106.97 232.91 C 106.85 232.48 106.61 231.60 106.49 231.17 C 102.43 230.25 98.13 230.62 94.23 228.98 C 93.92 227.25 93.53 225.54 93.05 223.86 C 90.45 225.41 91.24 229.31 93.98 230.06 M 103.33 226.97 C 103.42 230.38 106.24 225.44 103.33 226.97 M 118.35 233.23 C 116.75 236.17 121.70 233.47 118.35 233.23 Z" />
<path fill="#000000" opacity="1.00" d=" M 147.24 44.23 C 147.81 44.82 147.81 44.82 147.24 44.23 Z" />
<path fill="#000000" opacity="1.00" d=" M 130.53 60.32 C 131.14 58.17 133.02 56.81 134.46 55.23 C 135.32 59.79 133.89 64.48 135.33 68.98 C 134.91 71.63 134.35 74.26 134.10 76.94 C 132.84 77.53 131.57 78.10 130.31 78.68 C 131.53 72.63 130.33 66.42 130.53 60.32 Z" />
<path fill="#000000" opacity="1.00" d=" M 167.53 190.95 C 171.09 192.03 176.09 191.85 177.83 195.78 C 176.78 197.74 174.75 196.41 173.30 195.83 C 171.92 195.05 170.33 195.31 168.82 195.29 C 168.39 193.84 167.95 192.40 167.53 190.95 Z" />
<path fill="#000000" opacity="1.00" d=" M 178.25 198.22 C 180.45 196.93 183.37 199.57 183.84 201.85 C 181.77 201.67 177.96 200.84 178.25 198.22 Z" />
<path fill="#000000" opacity="1.00" d=" M 183.44 202.10 C 185.12 201.71 186.37 204.62 185.57 205.87 C 183.71 206.69 183.03 203.35 183.44 202.10 Z" />
<path fill="#000000" opacity="1.00" d=" M 186.11 207.08 C 186.48 206.93 187.22 206.61 187.60 206.45 C 189.04 209.58 188.18 213.03 187.72 216.27 C 188.07 213.03 186.60 210.12 186.11 207.08 Z" />
<path fill="#000000" opacity="1.00" d=" M 81.97 215.08 C 84.17 212.39 86.95 210.33 89.68 208.21 C 89.85 208.86 90.18 210.16 90.35 210.81 C 88.74 211.44 87.07 211.95 85.53 212.76 C 84.14 214.37 83.02 216.19 81.85 217.97 C 84.31 217.62 86.73 217.07 89.16 216.56 C 87.10 217.31 85.00 217.94 82.96 218.72 C 81.75 220.46 81.16 222.52 80.31 224.44 C 81.55 224.93 82.79 225.43 84.02 225.94 C 84.68 225.66 86.00 225.08 86.66 224.80 C 85.91 225.35 85.16 225.90 84.41 226.45 C 81.92 225.46 79.28 225.13 76.63 225.52 C 76.60 222.07 77.40 218.43 80.40 216.33 C 80.28 216.01 80.05 215.38 79.93 215.06 C 79.59 214.97 78.90 214.81 78.56 214.72 C 73.67 217.71 69.15 221.28 64.09 223.96 C 64.98 221.21 65.55 218.30 66.98 215.76 C 68.41 215.62 69.85 215.81 71.27 215.99 C 69.90 216.12 68.53 216.20 67.16 216.30 C 66.40 218.35 65.58 220.39 65.14 222.54 C 70.14 219.44 75.09 216.21 79.64 212.47 C 80.46 213.30 81.24 214.17 81.97 215.08 M 78.21 224.23 C 80.00 222.31 80.31 219.61 81.12 217.22 C 78.87 218.93 78.00 221.47 78.21 224.23 Z" />
<path fill="#000000" opacity="1.00" d=" M 163.88 225.98 C 166.03 226.76 168.22 227.43 170.37 228.23 C 168.10 228.51 165.81 228.65 163.53 228.82 C 163.62 228.11 163.79 226.69 163.88 225.98 Z" />
<path fill="#000000" opacity="1.00" d=" M 88.29 235.57 C 89.83 235.60 91.38 235.49 92.91 235.27 C 93.79 236.25 94.66 237.22 95.50 238.23 C 93.16 238.47 90.82 238.74 88.48 238.98 C 88.43 237.84 88.36 236.70 88.29 235.57 Z" />
<path fill="#000000" opacity="1.00" d=" M 119.15 242.46 C 120.89 241.28 122.67 240.13 124.82 239.93 C 124.74 240.98 124.56 243.08 124.47 244.13 C 122.67 243.69 120.67 243.65 119.15 242.46 Z" />
</g>
</svg>
