<?xml version="1.0" encoding="UTF-8" ?>
<!DOCTYPE svg PUBLIC "-//W3C//DTD SVG 1.1//EN" "http://www.w3.org/Graphics/SVG/1.1/DTD/svg11.dtd">
<svg width="128pt" height="128pt" viewBox="0 0 128 128" version="1.1" xmlns="http://www.w3.org/2000/svg">
<g id="#000000ff">
<path fill="#000000" opacity="1.00" d=" M 90.14 6.47 C 92.38 5.94 94.42 7.12 96.25 8.25 C 93.76 9.04 91.77 10.72 90.16 12.74 C 90.77 13.23 91.39 13.71 92.01 14.21 C 93.34 12.33 95.98 13.87 97.84 12.81 C 99.02 13.99 100.46 14.95 101.37 16.38 C 101.53 18.06 101.43 19.77 101.46 21.46 C 100.47 21.80 99.48 22.17 98.51 22.55 C 98.75 24.89 98.49 27.23 98.14 29.54 C 98.81 29.51 100.13 29.46 100.80 29.43 C 101.73 30.67 101.28 32.34 101.51 33.77 C 101.77 33.77 102.29 33.76 102.55 33.75 C 102.61 31.84 102.79 29.94 102.84 28.02 C 105.31 29.60 108.59 31.05 108.86 34.38 C 108.25 34.64 107.03 35.15 106.42 35.41 C 105.53 37.00 104.47 38.47 103.48 40.00 C 103.24 42.62 104.03 45.52 102.46 47.86 C 100.84 50.68 98.03 52.60 95.43 54.45 C 93.07 55.39 90.52 54.04 88.34 53.15 C 88.23 54.80 88.40 56.45 88.71 58.08 C 87.15 58.62 85.16 58.57 84.16 60.09 C 80.82 64.82 79.07 70.42 77.02 75.77 C 76.00 81.04 75.65 86.82 72.32 91.26 C 71.04 93.14 70.73 95.46 70.06 97.60 C 67.19 96.28 64.05 96.60 61.00 96.47 C 54.83 95.57 48.77 93.96 42.55 93.50 C 41.42 98.67 43.95 104.01 41.76 108.99 C 41.13 111.38 41.69 113.88 41.65 116.32 C 39.21 113.99 36.12 112.57 33.51 110.52 C 33.37 106.01 32.88 101.39 34.09 96.97 C 34.58 94.60 34.58 92.16 34.72 89.76 C 35.70 89.31 36.64 88.74 37.67 88.39 C 46.47 88.91 55.20 90.64 64.02 90.59 C 66.91 90.53 66.43 86.96 66.98 85.00 C 67.24 78.37 70.31 72.39 72.00 66.08 C 73.36 61.18 76.45 57.08 78.75 52.63 C 76.67 52.35 74.55 52.32 72.52 51.74 C 73.78 47.62 70.80 43.94 70.68 39.90 C 70.66 36.67 70.28 33.29 71.69 30.28 C 69.79 30.80 67.95 30.29 66.16 29.59 C 66.26 27.47 66.75 25.40 67.27 23.35 C 67.82 23.77 68.91 24.60 69.45 25.02 C 70.39 23.07 70.48 21.02 69.80 18.98 C 70.96 16.68 73.72 16.14 76.06 16.11 C 77.79 13.69 80.41 11.94 83.48 12.47 C 85.47 10.22 87.90 8.46 90.14 6.47 M 86.04 19.07 C 82.64 22.80 78.39 25.65 75.19 29.58 C 77.05 31.07 78.94 32.62 80.21 34.67 C 80.77 31.63 83.57 28.71 86.63 28.14 C 86.50 27.57 86.25 26.43 86.12 25.85 C 89.64 24.84 91.62 21.62 94.63 19.78 C 95.93 19.00 96.75 17.69 97.63 16.50 C 93.74 16.62 88.78 15.48 86.04 19.07 M 93.86 46.08 C 93.66 47.41 93.57 48.77 93.53 50.12 C 96.47 47.89 99.16 45.23 100.22 41.58 C 98.05 43.02 96.25 44.96 93.86 46.08 Z" />
</g>
</svg>
