<?xml version="1.0" encoding="UTF-8" ?>
<!DOCTYPE svg PUBLIC "-//W3C//DTD SVG 1.1//EN" "http://www.w3.org/Graphics/SVG/1.1/DTD/svg11.dtd">
<svg width="256pt" height="256pt" viewBox="0 0 256 256" version="1.1" xmlns="http://www.w3.org/2000/svg">
<g id="#000000ff">
<path fill="#000000" opacity="1.00" d=" M 79.56 42.16 C 79.37 39.37 77.96 36.58 78.96 33.80 C 80.87 37.21 82.31 41.70 86.63 42.63 C 86.02 43.64 85.42 44.65 84.84 45.68 C 86.63 47.09 88.55 48.36 90.76 49.03 C 89.99 49.97 89.20 50.90 88.42 51.83 C 89.73 53.19 91.03 54.54 92.37 55.87 C 95.63 53.33 93.92 48.91 95.13 45.61 C 95.55 45.39 96.38 44.95 96.80 44.73 C 97.41 48.86 97.15 54.02 101.38 56.38 C 100.99 54.67 101.45 53.31 102.76 52.31 C 102.66 55.17 102.67 58.22 100.15 60.10 C 101.69 61.25 103.44 62.02 105.25 62.62 C 104.57 63.75 103.86 64.86 103.14 65.97 C 101.95 64.95 100.76 63.92 99.63 62.84 C 101.13 66.12 101.61 70.20 105.18 72.02 C 105.30 73.62 105.53 75.21 105.80 76.79 C 105.14 76.93 103.84 77.20 103.18 77.34 C 103.42 78.87 103.60 80.42 103.73 81.97 C 103.06 81.60 101.73 80.86 101.07 80.49 C 101.81 81.57 102.52 82.67 103.20 83.80 C 102.50 84.10 101.11 84.71 100.41 85.01 C 98.37 81.76 99.59 78.06 100.00 74.57 C 98.25 74.43 96.53 74.12 94.98 73.27 C 96.16 76.33 97.76 79.49 97.13 82.87 C 94.96 80.54 94.48 77.24 93.42 74.34 C 92.84 74.38 91.68 74.44 91.11 74.48 C 91.79 77.89 92.90 81.23 92.96 84.74 C 91.15 83.40 90.51 80.71 88.01 80.35 C 88.25 82.02 88.57 83.68 88.93 85.33 C 87.32 86.00 85.74 87.58 83.90 86.84 C 83.89 85.37 85.50 85.04 86.44 84.29 C 86.36 82.86 86.29 81.43 86.19 80.00 C 84.92 81.57 84.69 85.47 82.16 84.81 C 82.15 82.57 83.99 80.59 83.45 78.29 C 82.81 74.57 83.55 70.80 83.51 67.06 C 82.44 67.77 81.65 69.56 80.15 68.85 C 80.14 65.81 81.04 62.84 81.73 59.90 C 79.54 57.87 78.66 54.68 80.76 52.23 C 82.69 57.18 87.63 61.14 86.64 66.89 C 87.93 68.08 89.21 69.29 90.56 70.42 C 87.50 62.20 85.11 53.72 81.06 45.93 C 80.25 44.80 79.55 43.59 79.56 42.16 M 92.18 58.19 C 91.45 58.01 90.00 57.64 89.28 57.45 C 91.39 59.97 93.69 62.33 96.29 64.35 C 96.07 61.41 95.72 58.47 95.17 55.58 C 94.15 56.42 93.15 57.30 92.18 58.19 M 95.00 67.31 C 95.85 68.70 96.70 70.08 97.64 71.42 C 97.68 70.09 97.70 68.75 97.71 67.41 C 97.03 67.39 95.68 67.33 95.00 67.31 M 85.74 72.28 C 86.71 74.29 87.88 76.21 89.51 77.77 C 89.21 76.04 88.83 74.33 88.47 72.62 C 87.79 72.53 86.42 72.36 85.74 72.28 Z" />
<path fill="#000000" opacity="1.00" d=" M 106.62 40.14 C 108.66 38.82 109.94 36.53 112.28 35.69 C 111.69 39.88 111.31 44.61 108.73 48.08 C 108.15 48.18 106.98 48.39 106.40 48.50 C 107.01 45.56 107.67 42.62 108.27 39.68 C 107.86 39.79 107.04 40.02 106.62 40.14 Z" />
<path fill="#000000" opacity="1.00" d=" M 167.25 37.42 C 168.17 34.62 170.63 37.55 171.86 38.54 C 170.18 43.69 170.13 49.15 171.02 54.45 C 169.94 55.19 167.98 55.38 168.23 57.11 C 168.39 58.24 169.34 59.01 169.95 59.90 C 169.57 60.89 169.19 61.89 168.82 62.88 C 168.00 63.04 166.35 63.34 165.52 63.50 C 166.53 65.70 167.92 67.78 168.22 70.24 C 167.26 70.30 165.35 70.41 164.40 70.47 C 164.57 71.48 164.93 73.51 165.10 74.52 C 166.97 73.91 168.81 73.23 170.62 72.47 C 170.76 70.77 169.94 68.71 171.38 67.38 C 173.57 64.89 174.40 61.64 175.62 58.63 C 177.36 58.03 179.10 57.43 180.85 56.86 C 179.82 58.49 178.59 59.98 177.52 61.59 C 176.81 63.99 177.48 66.44 178.02 68.79 C 179.14 68.58 180.27 68.37 181.40 68.18 C 180.49 69.91 179.40 71.54 178.10 73.01 C 177.01 71.29 175.97 69.54 174.84 67.85 C 174.97 71.75 175.78 75.63 175.30 79.54 C 174.16 78.63 173.06 77.67 171.95 76.72 C 171.63 78.76 171.56 80.81 172.05 82.83 C 173.42 82.66 174.78 82.43 176.14 82.23 C 175.14 83.63 174.13 85.03 173.06 86.38 C 172.26 85.45 171.49 84.51 170.73 83.57 C 168.34 86.68 165.30 89.19 162.84 92.23 C 163.42 93.20 164.02 94.16 164.62 95.11 C 163.48 94.84 162.34 94.55 161.21 94.29 C 159.74 97.51 158.09 100.64 156.50 103.80 C 158.31 103.26 160.09 102.59 161.89 102.02 C 161.74 101.78 161.45 101.28 161.30 101.04 C 162.72 100.54 164.15 100.04 165.58 99.54 C 166.28 99.96 166.98 100.38 167.68 100.81 C 165.87 101.77 164.52 103.16 163.62 105.01 C 167.09 104.23 169.93 102.05 173.03 100.46 C 171.96 102.22 170.69 103.84 169.53 105.53 C 173.31 104.40 176.66 102.04 180.65 101.57 C 178.29 103.10 175.64 104.08 173.17 105.41 C 174.57 105.46 177.35 105.57 178.74 105.63 C 175.27 108.06 170.34 108.26 167.76 111.81 C 172.19 110.85 176.20 108.44 180.74 107.94 C 177.54 110.31 174.03 112.06 170.14 112.97 C 170.32 113.64 170.67 114.96 170.84 115.62 C 172.45 114.82 174.06 114.01 175.78 113.45 C 174.32 115.61 171.85 116.60 169.73 117.94 C 169.15 117.64 168.00 117.04 167.43 116.74 C 167.59 117.64 167.61 118.61 168.09 119.43 C 175.58 118.99 183.06 117.07 189.34 112.83 C 193.93 113.26 197.35 109.94 201.36 108.29 C 200.29 109.71 199.18 111.09 198.09 112.49 C 200.32 112.36 202.54 112.62 204.77 112.74 C 210.33 108.87 216.08 105.17 222.14 102.08 C 220.75 105.75 216.89 107.06 213.72 108.74 C 210.09 110.65 208.08 114.41 204.95 116.93 C 202.00 119.61 197.83 120.24 194.75 122.72 C 192.90 123.75 191.50 126.08 189.15 125.74 C 187.91 123.44 190.67 121.57 192.02 119.99 C 195.32 116.40 200.98 117.01 204.16 113.28 C 200.93 113.70 197.56 114.08 194.61 115.52 C 191.79 117.34 189.60 119.98 186.72 121.71 C 186.47 121.55 185.96 121.23 185.71 121.07 C 186.16 117.91 190.08 116.88 191.85 114.45 C 186.56 115.29 181.99 118.49 176.99 120.33 C 179.57 120.73 182.21 120.75 184.77 121.33 C 180.59 122.06 176.29 121.51 172.07 121.75 C 170.86 123.05 169.81 124.95 167.88 125.17 C 166.34 124.97 164.85 124.51 163.37 124.09 C 164.42 121.32 167.90 123.66 169.31 121.40 C 166.98 121.25 164.65 121.37 162.33 121.56 C 163.49 120.24 164.71 118.97 165.92 117.69 C 163.90 118.71 161.63 119.61 160.43 121.66 C 159.17 123.50 159.58 125.80 159.32 127.89 C 162.89 127.25 166.40 128.49 169.98 128.27 C 176.15 128.76 182.06 126.30 188.21 126.42 C 183.89 128.04 179.27 128.67 174.98 130.35 C 177.14 131.12 179.42 132.00 181.65 130.97 C 181.72 131.30 181.86 131.95 181.93 132.27 C 179.38 132.45 176.83 132.59 174.28 132.71 C 173.32 134.61 172.32 136.50 171.44 138.44 C 173.11 138.70 174.79 138.86 176.47 139.05 C 174.68 139.33 172.89 139.55 171.10 139.76 C 169.56 143.55 167.60 147.24 167.12 151.36 C 165.76 153.14 164.01 154.66 161.75 155.12 C 163.42 150.10 167.07 146.00 167.94 140.66 C 166.90 139.79 165.91 138.87 164.98 137.91 C 166.41 138.18 167.84 138.50 169.26 138.85 C 170.24 136.66 171.32 134.53 172.36 132.38 C 165.89 132.48 159.42 132.17 153.01 131.26 C 152.53 129.99 152.00 128.74 151.49 127.48 C 153.84 127.68 156.20 127.72 158.56 127.70 C 157.77 124.81 159.05 122.20 160.83 120.01 C 160.45 118.70 160.19 117.37 160.07 116.01 C 159.54 116.91 159.00 117.79 158.45 118.67 C 157.58 118.27 155.86 117.49 155.00 117.10 C 158.17 115.66 159.80 112.56 161.64 109.80 C 158.34 110.76 156.17 113.60 153.20 115.17 C 149.08 117.78 145.95 122.72 140.60 122.67 C 142.03 119.47 144.86 116.45 148.54 116.17 C 149.43 112.32 153.05 110.33 155.49 107.56 C 148.79 109.50 145.82 116.65 139.92 119.85 C 139.65 119.46 139.10 118.68 138.83 118.29 C 140.65 115.12 143.60 112.87 146.15 110.32 C 142.94 112.19 139.79 114.30 138.01 117.68 C 136.53 116.59 135.03 115.54 133.65 114.33 C 132.80 114.70 131.94 115.05 131.07 115.40 C 131.17 112.28 131.00 109.15 131.33 106.05 C 132.61 104.37 133.83 102.65 134.84 100.79 C 135.38 101.85 135.95 102.91 136.52 103.96 C 138.71 101.94 141.16 100.18 142.94 97.77 C 138.44 98.40 133.86 99.21 129.34 98.20 C 129.03 99.86 128.72 101.52 128.39 103.18 C 129.15 104.05 129.94 104.89 130.76 105.72 C 130.47 108.43 130.56 111.16 130.44 113.89 C 129.76 115.68 127.99 116.80 126.88 118.32 C 125.94 117.24 125.02 116.14 124.14 115.01 C 124.92 116.66 125.67 118.38 125.11 120.24 C 122.65 117.95 119.52 116.72 116.74 114.90 C 116.19 116.68 115.66 118.47 115.14 120.26 C 113.15 119.91 111.21 120.34 109.75 121.78 C 109.15 123.21 108.79 124.73 108.33 126.21 C 106.48 127.09 104.65 128.02 102.87 129.02 C 106.28 131.46 109.48 134.42 111.30 138.26 C 109.33 137.99 107.49 137.26 105.79 136.26 C 105.01 137.82 104.19 139.35 103.21 140.79 C 105.01 140.82 106.81 140.91 108.61 141.11 C 108.64 141.89 108.70 143.44 108.73 144.22 C 103.76 143.98 99.58 146.87 94.77 147.42 C 95.46 146.49 96.16 145.57 96.88 144.67 C 94.18 144.70 91.33 143.37 88.83 144.95 C 85.74 146.55 81.63 147.68 78.77 144.98 C 81.83 144.43 85.33 144.69 87.92 142.70 C 89.62 141.20 91.97 141.15 94.06 140.59 C 91.04 140.57 88.02 140.58 85.00 140.38 L 85.55 138.83 C 88.72 137.83 92.14 138.98 95.42 138.55 C 94.09 136.58 91.50 136.87 89.48 136.23 C 85.16 134.63 80.66 136.27 76.28 136.62 C 79.19 137.40 82.30 137.29 85.10 138.49 C 78.67 140.16 72.51 137.24 67.89 132.94 C 71.29 132.51 74.54 133.74 77.80 134.48 C 78.47 132.68 79.09 130.87 79.79 129.09 C 76.73 127.20 72.41 129.47 69.97 126.60 C 73.16 126.22 76.39 126.30 79.54 126.87 C 81.10 125.54 82.76 124.33 84.40 123.10 C 78.86 121.45 73.01 122.14 67.36 121.28 C 71.06 119.95 75.09 120.38 78.91 120.80 C 78.65 120.04 78.14 118.53 77.88 117.77 C 79.75 116.96 81.80 117.50 83.75 117.58 C 81.73 116.80 79.79 115.84 78.07 114.53 C 76.99 115.09 75.92 115.65 74.84 116.21 C 74.08 115.49 73.33 114.76 72.57 114.04 C 69.03 117.54 64.29 120.88 59.03 120.34 C 54.05 120.17 47.88 121.94 44.32 117.32 C 43.47 117.88 42.61 118.43 41.75 118.98 C 43.60 123.10 46.87 127.54 51.95 127.14 C 55.86 128.07 59.51 126.74 62.90 124.90 C 64.06 125.48 65.13 126.23 66.36 126.65 C 68.08 126.73 70.14 126.31 71.05 128.20 C 66.58 128.29 62.01 128.19 57.73 129.69 C 55.62 130.61 53.95 128.28 51.86 128.46 C 50.06 128.48 47.87 127.97 47.11 130.12 C 50.18 132.21 52.25 135.93 56.24 136.38 C 56.28 137.50 56.32 138.61 56.35 139.73 C 59.34 141.38 62.91 142.66 63.68 146.42 C 69.46 147.16 75.28 147.14 81.08 147.68 C 83.39 147.53 85.60 146.70 87.92 146.63 C 90.34 146.41 90.55 149.24 91.53 150.82 C 93.52 151.13 95.48 151.65 97.20 152.74 C 98.89 150.17 100.59 147.41 103.23 145.70 C 106.26 145.18 109.38 145.94 112.42 145.26 C 112.91 146.91 114.45 148.60 113.31 150.31 C 111.51 154.03 109.78 158.12 106.48 160.76 C 107.06 158.01 106.29 155.09 107.87 152.58 C 106.46 153.52 105.12 154.56 103.65 155.42 C 102.14 155.64 100.34 154.93 99.07 156.04 C 93.73 160.72 89.17 167.25 81.70 168.55 C 80.03 169.31 78.65 168.28 77.97 166.75 C 80.28 165.78 82.78 165.24 84.98 164.00 C 89.03 159.55 94.31 156.47 99.64 153.81 C 91.78 152.68 84.04 154.72 76.27 155.69 C 75.76 155.25 74.74 154.37 74.22 153.94 C 77.77 151.95 82.37 153.08 85.54 150.44 C 81.90 149.70 78.20 149.52 74.50 149.34 C 74.65 150.54 74.80 151.74 74.94 152.94 C 73.06 153.00 70.92 152.26 69.27 153.49 C 69.92 153.85 71.20 154.56 71.84 154.92 C 70.85 155.22 68.86 155.82 67.86 156.12 C 70.35 156.62 72.87 156.98 75.39 157.33 C 75.00 159.50 72.72 159.12 71.07 159.40 C 73.01 161.71 74.79 164.14 76.55 166.58 C 77.48 169.05 78.33 173.65 81.94 172.62 C 85.48 173.04 87.05 169.62 89.19 167.53 C 88.61 170.98 85.91 174.00 82.30 174.22 C 77.24 174.46 71.95 174.93 67.10 173.18 C 65.08 175.12 62.59 176.05 59.79 175.27 C 63.32 172.46 67.62 170.87 71.16 168.07 C 69.56 167.02 68.09 165.80 66.91 164.29 C 65.99 164.49 65.07 164.67 64.14 164.85 C 63.33 161.43 62.89 157.93 61.88 154.57 C 61.59 156.54 61.39 158.53 61.07 160.50 C 57.88 158.81 59.58 152.41 54.99 152.67 C 48.78 153.66 42.48 153.35 36.21 153.30 C 36.25 153.04 36.33 152.51 36.38 152.25 C 42.96 152.50 49.85 153.40 56.21 151.24 C 53.45 147.79 48.73 148.95 44.90 148.37 C 39.20 147.41 33.45 146.84 27.77 145.74 C 36.72 144.40 45.38 147.99 54.33 147.70 C 54.03 146.89 53.42 145.28 53.11 144.47 C 52.02 143.99 50.90 143.58 49.84 143.05 C 46.63 136.35 45.77 127.69 38.98 123.41 C 40.15 123.61 41.32 123.81 42.50 123.99 C 41.82 121.84 40.81 119.82 39.67 117.88 C 37.59 118.28 35.70 120.46 33.52 119.50 C 32.88 119.13 31.62 118.40 30.98 118.04 C 33.48 116.89 36.35 116.35 38.25 114.20 C 39.21 115.09 40.18 115.98 41.15 116.87 C 43.22 116.58 45.36 116.42 47.08 115.08 C 47.13 115.82 47.23 117.31 47.27 118.05 C 49.35 117.96 54.39 120.07 53.28 116.30 C 51.64 114.46 49.87 112.74 48.20 110.92 C 47.55 111.40 46.24 112.37 45.58 112.85 C 44.43 109.64 44.69 105.93 42.79 103.03 C 43.08 105.55 44.40 108.30 42.23 110.37 C 41.58 108.29 41.16 106.15 40.82 104.00 C 39.88 104.35 38.94 104.70 38.01 105.06 C 37.34 103.37 36.63 101.69 35.97 99.99 C 35.72 101.45 35.42 102.91 35.07 104.35 C 33.61 102.26 32.79 99.81 31.26 97.77 C 29.65 95.96 30.63 93.04 28.55 91.48 C 24.71 88.00 22.74 83.24 20.96 78.50 C 25.67 82.54 29.61 87.89 35.91 89.55 C 36.43 92.85 32.59 91.68 30.65 91.50 C 34.01 93.82 38.12 95.45 42.19 94.07 C 41.35 95.51 40.47 96.92 39.57 98.32 C 41.81 99.23 44.10 99.17 46.31 98.21 C 45.94 99.61 45.56 101.00 45.23 102.41 C 48.50 99.65 52.98 99.82 56.65 97.84 C 54.38 98.25 52.14 98.80 49.87 99.23 C 50.24 98.22 50.62 97.21 50.99 96.20 C 50.22 95.17 49.47 94.13 48.73 93.08 C 47.77 93.67 46.80 94.26 45.83 94.84 C 45.35 91.82 45.16 88.75 44.43 85.78 C 44.14 88.64 45.85 92.25 43.21 94.38 C 41.70 90.88 41.46 87.10 40.95 83.38 C 40.81 85.52 40.98 87.68 40.55 89.80 C 37.69 84.52 32.55 80.23 32.26 73.86 C 31.06 73.51 29.56 73.40 29.25 71.92 C 27.98 68.96 26.73 65.90 26.63 62.64 C 31.26 64.09 35.27 67.06 40.12 68.05 C 39.05 68.89 37.91 69.64 36.64 70.15 C 39.22 72.28 41.43 74.82 44.07 76.88 C 42.85 77.18 41.62 77.46 40.39 77.72 C 44.26 79.99 48.00 82.60 51.01 85.96 C 52.16 87.36 53.86 88.10 55.42 88.97 C 54.47 86.86 53.35 84.83 52.15 82.84 C 51.48 83.22 50.13 83.97 49.45 84.35 C 49.62 81.65 49.26 78.97 48.32 76.44 C 47.33 77.47 46.38 78.52 45.36 79.51 C 45.48 77.95 45.75 76.39 45.81 74.82 C 46.14 70.83 42.57 68.12 40.93 64.84 C 40.46 61.98 39.94 59.12 39.88 56.21 C 40.88 57.54 41.70 58.99 42.67 60.33 C 44.40 62.28 47.09 62.82 49.28 64.05 C 47.67 64.60 45.98 64.73 44.30 64.85 C 46.30 66.51 48.60 67.72 50.99 68.71 C 49.96 69.43 48.92 70.15 47.88 70.87 C 50.24 72.50 52.63 75.49 55.78 73.87 C 55.27 69.39 51.23 66.45 49.59 62.41 C 49.00 60.45 48.75 58.41 48.40 56.40 C 51.15 58.64 52.60 61.90 54.23 64.95 C 56.42 67.89 58.36 71.13 61.51 73.16 C 61.47 74.23 61.42 75.30 61.37 76.37 C 61.95 76.40 63.12 76.48 63.70 76.52 C 61.29 69.51 53.12 65.37 53.60 57.23 C 57.32 59.71 58.85 64.16 61.25 67.74 C 64.64 72.08 65.63 78.12 70.56 81.20 C 69.19 81.84 67.81 82.47 66.44 83.12 C 68.31 83.27 70.17 83.41 72.03 83.67 C 72.30 87.26 68.22 86.08 65.96 86.36 C 66.73 86.97 67.51 87.57 68.29 88.19 C 70.23 87.60 72.56 87.60 74.04 86.03 C 74.57 84.92 74.60 83.67 74.85 82.49 C 73.80 82.15 72.75 81.82 71.70 81.49 C 73.74 78.60 72.97 74.46 69.52 73.16 C 70.21 70.76 70.47 68.26 70.39 65.77 C 69.37 67.39 67.48 68.75 67.50 70.82 C 67.42 72.96 70.25 74.63 69.45 76.78 C 67.44 76.22 66.47 73.92 65.87 72.09 C 63.73 64.94 57.01 60.50 54.35 53.65 C 53.89 49.60 51.71 45.87 51.86 41.76 C 55.37 44.27 56.61 48.62 58.93 52.07 C 62.28 56.70 64.08 62.21 67.06 67.05 C 67.54 65.11 67.92 63.15 68.32 61.20 C 67.01 60.88 65.70 60.57 64.38 60.28 C 66.22 56.93 65.08 53.16 65.10 49.57 C 67.76 50.67 68.87 53.37 70.58 55.46 C 71.60 56.69 73.40 56.34 74.80 56.60 C 74.91 57.34 75.14 58.82 75.25 59.56 C 73.54 59.16 71.85 58.73 70.15 58.27 C 72.36 60.54 74.30 63.57 77.92 63.11 C 77.84 63.84 77.69 65.31 77.61 66.04 C 76.08 65.39 74.57 64.68 73.05 64.01 C 73.58 65.51 74.10 67.01 74.61 68.53 C 76.42 68.80 78.45 68.67 79.90 69.99 C 79.22 72.94 75.82 71.52 73.81 71.08 C 75.06 72.89 76.25 74.74 77.41 76.61 C 78.60 76.85 79.79 77.09 80.98 77.33 C 80.93 78.01 80.83 79.36 80.78 80.04 C 79.37 79.83 77.97 79.58 76.57 79.33 C 77.26 80.95 77.79 82.64 78.62 84.21 C 79.70 85.55 81.91 85.36 82.89 86.76 C 79.07 88.34 74.96 89.14 70.93 90.06 C 71.54 91.94 71.78 93.88 71.03 95.77 C 69.83 94.64 68.78 93.38 67.76 92.09 C 64.48 93.75 61.07 95.21 57.99 97.26 C 60.34 97.37 62.69 97.53 65.05 97.61 C 63.50 99.04 61.88 100.38 60.27 101.75 C 62.17 102.75 64.03 103.82 65.89 104.90 C 69.47 102.55 72.40 99.41 75.62 96.62 C 77.86 94.50 81.05 94.25 83.88 93.43 C 85.07 95.03 86.27 96.62 87.50 98.19 C 85.64 98.76 83.75 99.24 81.89 99.83 C 82.89 100.52 83.90 101.17 84.95 101.79 C 86.55 100.58 88.03 99.20 89.72 98.09 C 90.80 99.21 91.82 100.40 92.85 101.58 C 94.54 100.76 96.27 99.99 97.95 99.14 C 96.68 97.89 95.34 96.69 94.00 95.51 C 92.26 96.27 90.58 97.20 88.79 97.86 C 87.51 97.88 86.91 96.42 86.07 95.67 C 86.83 95.46 88.36 95.03 89.12 94.82 C 87.72 94.88 85.94 95.19 85.28 93.56 C 86.31 91.29 88.94 91.64 90.97 91.23 C 90.60 89.73 90.29 88.21 90.13 86.67 C 93.45 87.90 94.19 92.48 97.75 93.43 C 100.44 94.15 103.19 93.35 105.86 92.97 C 105.81 91.06 105.68 89.16 105.59 87.25 C 104.86 87.21 103.41 87.14 102.68 87.10 C 105.18 84.32 105.57 80.64 105.62 77.06 C 106.56 78.85 107.21 80.76 107.85 82.67 C 109.91 84.13 109.98 80.43 110.10 79.40 C 111.78 82.38 110.67 86.42 113.23 89.06 C 113.86 85.64 112.74 81.94 114.32 78.73 C 114.47 74.92 114.83 71.11 116.33 67.56 C 116.88 67.95 117.99 68.74 118.54 69.13 C 119.13 66.37 119.36 63.56 119.87 60.79 C 122.50 65.49 120.79 70.94 121.64 76.02 C 122.13 78.26 120.64 80.17 119.72 82.07 C 118.08 79.97 118.23 77.31 118.08 74.81 C 117.69 80.27 116.27 85.87 117.80 91.28 C 122.67 91.90 128.29 88.73 132.55 91.94 C 127.43 93.05 122.11 94.15 116.92 92.78 C 110.89 93.36 105.09 95.23 99.14 96.31 C 99.40 97.49 99.66 98.68 99.90 99.86 C 104.22 98.45 108.77 98.01 113.25 97.36 C 112.98 100.38 113.76 103.31 114.78 106.12 C 114.66 102.79 113.92 99.54 113.58 96.25 L 114.86 96.78 C 116.13 100.22 116.34 103.97 117.61 107.43 C 117.58 104.15 117.16 100.89 116.98 97.63 C 118.62 99.24 120.76 100.41 121.71 102.61 C 122.89 101.73 124.08 100.85 125.27 99.98 C 125.65 101.68 126.00 103.40 126.39 105.10 C 126.50 103.24 126.67 101.37 126.93 99.52 C 125.51 99.11 124.09 98.66 122.69 98.17 C 127.09 96.16 131.78 93.88 136.75 94.54 C 142.11 93.08 147.17 90.51 152.10 87.93 C 149.68 91.42 145.68 92.99 142.08 94.93 C 141.58 97.68 145.43 96.68 147.08 97.52 C 150.04 95.63 152.84 93.48 155.15 90.80 C 155.82 93.43 153.33 95.11 151.92 96.95 C 153.17 97.26 154.42 97.56 155.67 97.88 C 155.65 98.62 155.61 100.10 155.59 100.84 C 156.34 100.19 157.09 99.54 157.85 98.89 C 157.44 98.09 157.01 97.30 156.58 96.51 C 157.73 95.87 158.88 95.24 160.04 94.62 C 158.49 93.74 157.09 92.65 155.98 91.25 C 157.58 91.74 159.10 92.54 160.77 92.81 C 163.66 89.65 166.44 86.20 168.24 82.29 C 167.03 82.74 165.81 83.18 164.60 83.62 C 164.24 80.63 167.33 79.26 168.69 77.02 C 166.54 77.18 164.40 77.49 162.24 77.47 C 161.47 79.33 160.63 81.16 159.86 83.02 C 161.38 83.45 162.90 83.89 164.34 84.55 C 162.76 84.50 161.19 84.31 159.64 84.06 C 159.16 84.83 158.68 85.60 158.21 86.38 C 157.33 85.48 156.45 84.60 155.54 83.74 C 157.99 81.84 158.89 78.85 160.12 76.14 C 159.01 76.40 157.90 76.65 156.80 76.90 C 156.83 75.09 156.84 73.28 156.81 71.47 C 156.21 71.48 155.00 71.50 154.40 71.51 C 155.14 73.43 155.89 75.36 156.67 77.27 C 155.44 77.63 154.20 77.97 152.95 78.29 C 154.27 80.86 154.95 83.68 155.93 86.38 C 151.99 84.76 148.36 81.49 143.83 82.69 C 142.76 84.58 141.64 86.46 140.13 88.04 C 143.06 87.63 145.98 87.10 148.93 86.85 C 143.39 91.06 135.62 90.53 129.28 88.51 C 129.50 87.12 129.72 85.73 129.93 84.34 C 129.12 84.37 127.51 84.43 126.71 84.46 C 126.65 83.23 126.58 82.01 126.52 80.78 C 125.36 81.20 124.20 81.58 123.02 81.93 C 122.51 79.39 121.87 76.83 121.85 74.23 C 123.47 71.46 126.20 69.59 128.31 67.22 C 129.89 61.72 128.98 55.65 131.67 50.45 C 131.97 54.81 130.92 59.16 131.57 63.52 C 132.74 60.35 133.04 56.95 133.79 53.67 C 134.62 53.14 135.46 52.62 136.29 52.08 C 134.41 57.94 134.78 64.10 134.67 70.17 C 135.59 70.88 136.50 71.59 137.37 72.36 C 138.44 71.97 139.52 71.60 140.62 71.26 C 140.22 74.58 139.46 77.84 139.23 81.18 C 143.33 81.44 147.38 80.14 151.45 81.33 C 150.26 80.39 149.02 79.52 147.76 78.69 C 148.86 77.74 149.95 76.78 151.05 75.84 C 149.82 75.71 148.59 75.56 147.36 75.39 C 148.66 74.07 150.02 72.82 151.38 71.56 C 150.51 70.96 149.65 70.36 148.79 69.77 C 150.22 67.90 151.60 65.99 152.98 64.08 C 152.41 63.53 151.85 62.98 151.28 62.43 C 152.35 61.06 153.24 59.58 154.01 58.03 C 154.93 58.54 155.84 59.06 156.76 59.59 C 153.01 63.85 156.03 69.95 159.95 72.94 C 160.57 71.39 160.76 69.75 160.63 68.09 C 161.59 65.34 163.17 62.81 164.35 60.13 C 163.13 60.29 160.69 60.62 159.47 60.79 C 161.67 58.40 163.87 56.00 165.99 53.53 C 164.94 53.53 162.85 53.54 161.81 53.55 C 164.13 50.82 166.36 47.95 167.55 44.52 C 168.89 42.19 165.62 39.73 167.25 37.42 M 129.68 74.09 C 129.52 77.23 127.61 80.46 128.94 83.54 C 132.38 81.66 131.89 76.87 129.68 74.09 M 53.09 77.46 C 53.84 78.93 54.67 80.38 55.14 81.97 C 56.11 85.83 58.85 88.87 60.22 92.57 C 61.46 91.90 62.69 91.23 63.90 90.52 C 61.89 87.96 61.54 84.58 59.52 82.02 C 58.65 82.37 57.77 82.72 56.90 83.08 C 57.13 81.61 57.40 80.15 57.65 78.68 C 56.82 77.69 56.06 76.65 55.33 75.59 C 54.77 76.06 53.65 76.99 53.09 77.46 M 130.51 88.70 C 131.79 87.66 133.01 86.55 134.21 85.42 C 136.82 85.58 139.52 85.89 141.99 84.80 C 141.69 84.40 141.10 83.60 140.81 83.19 C 139.81 83.73 138.80 84.26 137.81 84.80 C 136.29 84.13 134.73 83.57 133.15 83.06 C 135.04 81.67 136.26 79.68 137.41 77.68 C 136.77 77.98 135.50 78.56 134.86 78.85 C 134.40 78.07 133.48 76.50 133.02 75.71 C 131.77 79.95 131.46 84.39 130.51 88.70 M 64.06 78.73 C 62.95 80.02 65.34 81.35 66.38 80.51 C 67.26 79.21 65.14 77.62 64.06 78.73 M 108.22 84.00 C 108.00 86.66 108.50 89.29 109.10 91.87 C 109.81 91.83 111.23 91.75 111.94 91.71 C 111.50 89.18 110.88 86.69 110.43 84.17 C 109.88 84.12 108.77 84.04 108.22 84.00 M 48.89 89.62 C 50.77 91.70 52.53 93.87 54.43 95.94 C 55.97 95.62 57.50 95.27 59.03 94.90 C 57.00 91.02 52.21 91.72 48.89 89.62 M 109.59 98.59 C 110.50 101.46 111.75 104.21 112.90 106.99 C 112.01 104.15 112.46 100.30 109.59 98.59 M 69.15 106.20 C 70.44 106.83 71.75 107.43 73.07 108.02 C 75.67 105.87 78.78 104.51 81.87 103.22 C 80.96 102.12 80.05 101.03 79.14 99.94 C 75.63 101.80 71.10 102.28 69.15 106.20 M 102.98 100.94 C 104.26 102.73 105.93 104.05 108.23 103.82 C 109.75 106.71 111.16 109.68 112.99 112.39 C 111.29 107.93 109.67 103.36 107.07 99.32 C 105.70 99.85 104.34 100.39 102.98 100.94 M 145.61 103.86 C 146.99 103.82 148.38 103.78 149.77 103.75 C 150.73 102.34 151.66 100.91 152.43 99.39 C 149.96 100.56 147.87 102.36 145.61 103.86 M 94.99 102.03 C 94.44 103.57 95.03 104.07 96.76 103.55 C 97.30 101.98 96.71 101.47 94.99 102.03 M 47.13 104.02 C 48.40 104.73 49.69 105.41 51.00 106.05 C 50.28 106.93 49.56 107.80 48.84 108.68 C 50.86 110.19 52.69 111.93 54.50 113.69 C 56.34 114.52 58.39 114.79 60.30 115.46 C 60.60 114.38 60.91 113.30 61.23 112.22 C 59.18 111.37 56.78 110.64 55.80 108.43 C 57.73 108.21 59.66 108.27 61.57 108.60 C 62.67 107.70 63.79 106.84 64.91 105.97 C 62.87 104.97 60.88 103.87 58.98 102.64 C 55.18 104.16 51.11 103.72 47.13 104.02 M 88.22 103.32 C 86.46 103.71 87.34 106.57 88.94 106.30 C 90.51 105.81 89.95 102.88 88.22 103.32 M 82.24 104.30 C 81.18 105.47 80.12 106.64 79.10 107.86 C 81.52 108.65 83.95 108.44 86.14 107.13 C 84.81 106.23 83.51 105.29 82.24 104.30 M 138.17 104.31 C 136.54 107.17 141.58 104.55 138.17 104.31 M 96.50 104.90 C 98.18 106.67 100.35 107.82 102.42 109.06 C 101.06 106.89 99.44 104.51 96.50 104.90 M 135.56 112.19 C 136.48 110.54 139.00 107.43 136.80 106.14 C 135.04 107.67 135.54 110.13 135.56 112.19 M 140.57 106.74 C 139.49 107.49 139.06 108.46 139.28 109.66 C 141.13 110.79 143.47 105.49 140.57 106.74 M 67.01 111.33 C 69.53 111.89 72.07 112.60 74.67 112.56 C 76.09 111.96 77.15 110.80 78.26 109.78 C 75.01 109.22 71.75 108.60 68.68 107.36 C 68.14 108.69 67.58 110.01 67.01 111.33 M 85.58 110.36 C 88.86 114.36 93.48 116.95 98.01 119.31 C 95.19 115.91 91.71 113.12 89.05 109.57 C 88.18 109.77 86.45 110.16 85.58 110.36 M 82.52 111.76 C 82.52 112.34 82.51 113.50 82.51 114.08 C 86.02 115.96 89.48 118.00 93.30 119.18 C 89.92 116.41 85.96 114.46 82.52 111.76 M 61.79 115.61 C 65.16 116.18 69.13 116.83 71.77 114.07 C 68.29 113.47 64.47 112.64 61.79 115.61 M 99.95 117.70 C 99.75 118.20 99.35 119.22 99.15 119.72 C 100.89 120.78 102.65 121.88 104.67 122.29 C 103.87 120.69 102.92 119.18 102.01 117.65 C 101.32 117.66 100.64 117.68 99.95 117.70 M 84.67 127.78 C 86.83 128.47 89.04 128.99 91.21 129.65 C 91.53 128.54 91.84 127.44 92.15 126.34 C 89.87 127.70 87.21 127.55 84.67 127.78 M 80.81 132.75 C 83.04 133.93 85.54 134.01 87.80 132.83 C 87.83 132.20 87.91 130.94 87.94 130.32 C 85.69 131.48 83.25 132.12 80.81 132.75 M 168.47 129.98 C 168.56 131.37 169.22 131.61 170.46 130.70 C 170.37 129.31 169.71 129.07 168.47 129.98 M 172.20 129.93 C 172.22 133.32 175.23 128.53 172.20 129.93 M 100.11 135.97 C 101.52 135.85 102.94 135.72 104.35 135.58 C 103.61 134.66 102.85 133.77 102.09 132.89 C 101.43 133.91 100.77 134.94 100.11 135.97 M 103.63 151.31 C 102.50 152.11 100.19 152.68 100.28 154.34 C 101.63 155.03 102.88 153.44 103.90 152.77 C 104.92 152.44 105.01 150.53 103.63 151.31 M 67.55 172.20 C 70.52 173.31 73.66 173.29 76.78 173.30 C 75.43 171.57 74.10 169.84 72.82 168.07 C 71.14 169.53 69.33 170.85 67.55 172.20 Z" />
<path fill="#000000" opacity="1.00" d=" M 102.81 41.39 C 105.85 41.92 105.04 45.29 105.72 47.50 C 109.02 52.72 110.64 58.75 112.81 64.50 C 113.36 64.48 114.45 64.45 115.00 64.44 C 113.85 59.33 112.98 54.03 113.93 48.81 C 114.50 48.68 115.65 48.44 116.22 48.31 C 116.49 52.26 116.43 56.23 116.82 60.17 C 117.01 63.23 113.86 65.26 113.65 68.23 C 113.64 70.09 112.01 71.29 111.34 72.91 C 111.97 74.66 113.37 76.16 113.37 78.10 C 112.62 80.61 110.80 78.70 109.43 77.94 C 109.47 76.32 109.54 74.69 109.57 73.07 C 108.37 73.27 107.18 73.50 105.99 73.74 C 106.79 69.48 106.25 65.10 107.31 60.86 C 106.30 59.80 105.27 58.77 104.26 57.72 C 104.73 56.08 105.19 54.45 105.68 52.82 C 102.54 49.89 103.05 45.30 102.81 41.39 Z" />
<path fill="#000000" opacity="1.00" d=" M 129.04 43.75 C 129.71 43.56 131.06 43.18 131.73 42.99 C 131.54 45.17 131.53 47.36 131.24 49.53 C 129.75 47.92 128.65 46.02 129.04 43.75 Z" />
<path fill="#000000" opacity="1.00" d=" M 194.22 51.15 C 195.59 49.29 197.36 47.77 198.91 46.06 C 195.60 51.46 192.50 57.36 192.00 63.76 C 189.49 68.41 187.30 73.22 185.06 78.00 C 182.84 80.42 181.02 83.18 180.27 86.43 C 179.60 86.48 178.25 86.58 177.58 86.63 C 178.65 82.17 180.58 77.92 183.23 74.17 C 187.51 66.80 190.34 58.72 194.22 51.15 Z" />
<path fill="#000000" opacity="1.00" d=" M 206.21 60.01 C 207.62 58.08 209.48 56.54 211.72 55.66 C 210.80 58.28 209.56 60.78 208.12 63.15 C 207.47 62.11 206.83 61.06 206.21 60.01 Z" />
<path fill="#000000" opacity="1.00" d=" M 197.27 71.49 C 200.45 68.53 204.08 66.13 207.62 63.64 C 206.71 66.81 205.57 70.25 202.03 71.21 C 202.42 72.18 202.82 73.15 203.23 74.11 C 200.75 76.58 200.34 80.04 200.23 83.37 C 198.26 82.69 197.35 80.78 196.24 79.19 C 196.05 79.40 195.68 79.83 195.50 80.04 C 196.09 83.06 196.12 86.14 196.44 89.19 C 195.59 89.27 193.89 89.43 193.04 89.51 C 193.01 91.75 193.33 93.96 193.71 96.16 C 193.13 96.06 191.97 95.84 191.39 95.73 C 190.52 94.04 189.72 92.31 188.82 90.64 C 188.33 95.20 190.89 99.00 192.71 102.92 C 189.58 101.88 188.60 98.47 187.02 95.94 C 185.63 97.92 184.34 99.99 182.71 101.79 C 181.73 101.25 181.04 100.37 180.31 99.55 C 181.54 98.35 182.85 97.21 183.83 95.78 C 181.11 97.43 178.57 100.30 175.06 99.38 C 171.22 98.57 166.00 101.78 163.61 97.33 C 164.74 96.90 165.90 96.51 167.05 96.12 C 166.54 95.24 166.05 94.34 165.56 93.45 C 167.21 93.38 168.95 93.92 170.55 93.40 C 172.90 92.15 174.29 89.78 176.12 87.94 C 175.12 89.78 173.96 91.52 172.81 93.25 C 174.38 93.79 175.94 94.35 177.51 94.92 C 179.42 93.94 181.48 93.35 183.58 92.90 C 183.34 91.95 183.10 91.00 182.87 90.06 C 185.04 89.42 187.19 88.74 189.32 87.99 C 188.51 87.15 187.70 86.32 186.90 85.48 C 188.74 84.09 190.48 82.58 192.16 81.00 C 191.71 80.08 191.27 79.16 190.83 78.24 C 193.38 77.54 195.61 76.12 197.80 74.68 C 197.62 73.62 197.43 72.56 197.27 71.49 Z" />
<path fill="#000000" opacity="1.00" d=" M 69.02 77.27 L 69.73 77.28 C 69.76 77.64 69.82 78.36 69.85 78.72 L 68.92 78.72 L 68.46 77.88 L 69.02 77.27 Z" />
<path fill="#000000" opacity="1.00" d=" M 228.13 114.21 C 231.36 114.46 234.48 113.60 237.57 112.82 C 235.90 113.65 233.95 114.34 233.28 116.29 C 231.85 118.14 233.26 121.86 230.10 122.21 C 230.27 120.63 230.52 119.07 230.87 117.52 C 229.60 118.98 227.80 120.02 226.87 121.73 C 226.41 123.93 225.98 126.22 224.15 127.74 C 224.07 125.65 224.13 123.56 224.04 121.48 C 220.48 124.00 222.12 128.91 219.58 132.09 C 218.98 130.34 218.53 128.54 218.11 126.75 C 217.24 129.44 216.76 132.23 215.90 134.93 C 213.97 132.81 215.05 129.96 215.15 127.45 C 212.05 131.16 213.22 136.40 210.88 140.40 C 209.16 137.96 210.00 134.95 209.80 132.19 C 206.42 134.93 210.14 141.07 205.78 142.70 C 205.22 139.82 206.14 136.88 205.37 134.03 C 203.39 137.13 203.74 140.91 203.67 144.41 C 201.88 145.37 200.19 146.49 198.52 147.63 C 197.84 144.39 198.80 141.25 199.80 138.20 C 197.02 141.76 192.75 143.10 188.43 143.69 C 189.35 140.51 192.44 140.52 195.16 140.27 C 196.17 138.63 197.28 137.05 198.47 135.53 C 197.07 134.75 195.67 133.98 194.26 133.22 C 194.59 132.40 195.26 130.74 195.59 129.92 C 197.34 131.04 199.09 132.16 200.89 133.21 C 200.52 131.85 200.11 130.51 199.73 129.16 C 200.05 128.74 200.69 127.89 201.01 127.47 C 203.07 128.62 205.31 129.37 207.55 130.07 C 206.61 129.15 205.69 128.23 204.77 127.30 C 205.29 126.30 205.81 125.31 206.33 124.32 C 207.73 124.99 209.12 125.68 210.57 126.27 C 211.20 124.90 211.79 123.51 212.36 122.11 C 213.34 122.39 214.32 122.69 215.31 122.97 C 215.64 121.72 215.98 120.48 216.33 119.24 C 217.65 119.42 218.98 119.60 220.32 119.71 C 220.69 118.52 221.06 117.32 221.42 116.13 C 222.38 116.44 223.34 116.77 224.30 117.10 C 225.38 115.89 226.14 113.78 228.13 114.21 Z" />
<path fill="#000000" opacity="1.00" d=" M 203.95 119.88 C 207.77 119.03 211.32 117.30 215.13 116.43 C 211.97 121.33 205.84 122.09 200.55 122.79 C 201.55 121.69 202.31 120.11 203.95 119.88 Z" />
<path fill="#000000" opacity="1.00" d=" M 2.51 121.01 C 4.25 117.63 8.39 118.76 11.40 118.98 C 11.21 119.40 10.84 120.24 10.65 120.65 C 7.96 121.08 5.22 121.10 2.51 121.01 Z" />
<path fill="#000000" opacity="1.00" d=" M 141.94 124.17 C 145.87 122.15 149.53 119.64 153.42 117.55 C 152.24 120.69 149.47 122.73 147.06 124.89 C 148.88 124.54 150.70 124.21 152.54 124.02 C 150.75 127.25 146.93 127.84 143.58 128.00 C 143.04 126.72 142.48 125.44 141.94 124.17 Z" />
<path fill="#000000" opacity="1.00" d=" M 65.68 122.46 C 68.18 122.65 70.69 122.76 73.19 123.00 C 71.45 125.62 67.99 124.64 65.35 124.98 C 65.44 124.35 65.60 123.09 65.68 122.46 Z" />
<path fill="#000000" opacity="1.00" d=" M 122.19 133.50 C 122.63 129.14 127.55 127.48 130.71 125.22 C 130.27 125.61 129.38 126.38 128.93 126.76 C 131.27 129.49 132.00 133.01 131.86 136.52 C 129.86 137.21 127.82 137.78 125.71 138.05 C 125.11 136.10 123.72 134.74 122.19 133.50 M 127.28 128.85 C 125.54 129.28 126.65 131.82 128.18 131.17 C 129.86 130.68 128.85 128.11 127.28 128.85 Z" />
<path fill="#000000" opacity="1.00" d=" M 13.87 126.01 C 16.22 125.90 18.58 125.75 20.92 125.96 C 24.10 126.73 26.34 129.22 28.58 131.43 C 31.04 134.05 35.74 133.02 37.68 136.28 C 34.59 136.24 31.44 135.69 28.68 134.25 C 25.87 132.50 23.64 129.82 20.50 128.58 C 18.25 127.82 15.83 127.45 13.87 126.01 Z" />
<path fill="#000000" opacity="1.00" d=" M 143.81 129.56 C 145.80 129.46 147.80 129.40 149.80 129.59 C 148.52 131.19 146.77 132.03 144.77 132.27 C 147.27 133.23 149.90 133.63 152.54 134.00 C 151.88 136.31 149.38 135.69 147.55 136.00 C 150.65 138.45 154.53 139.89 157.04 143.07 C 152.22 142.41 148.58 138.76 143.92 137.51 C 143.47 134.87 143.18 132.20 143.81 129.56 Z" />
<path fill="#000000" opacity="1.00" d=" M 190.32 131.94 C 192.58 130.94 191.82 135.25 189.98 135.00 C 188.44 134.60 189.36 132.47 190.32 131.94 Z" />
<path fill="#000000" opacity="1.00" d=" M 158.44 133.94 C 159.43 132.80 162.33 133.96 161.08 135.52 C 160.08 136.70 157.26 135.49 158.44 133.94 Z" />
<path fill="#000000" opacity="1.00" d=" M 162.49 134.15 C 163.67 134.38 164.86 134.61 166.05 134.81 C 165.54 136.09 165.02 137.36 164.51 138.65 C 163.50 138.55 161.49 138.36 160.49 138.26 C 161.24 136.94 161.92 135.57 162.49 134.15 Z" />
<path fill="#000000" opacity="1.00" d=" M 234.27 135.15 C 237.11 136.29 240.18 138.47 243.34 137.26 C 246.34 135.75 249.75 133.62 253.13 135.33 C 250.44 137.24 248.50 140.38 245.17 141.24 C 241.84 142.16 239.51 144.86 237.12 147.17 C 235.36 149.03 232.68 149.42 230.45 150.49 C 229.31 153.37 228.16 156.28 228.21 159.44 C 227.55 159.58 226.22 159.86 225.55 160.00 C 225.86 157.15 226.44 154.33 226.81 151.49 C 223.59 153.61 220.96 156.95 220.80 160.94 C 221.01 162.75 219.32 163.52 218.03 164.30 C 218.06 162.14 218.26 159.99 218.38 157.84 C 216.91 160.79 215.77 163.91 215.40 167.20 C 215.37 168.99 213.86 170.10 212.82 171.36 C 211.57 167.70 213.17 164.04 213.84 160.45 C 208.20 163.66 203.99 168.65 199.00 172.68 C 197.49 172.12 195.98 171.58 194.48 171.02 C 196.19 169.46 198.26 168.55 200.60 168.67 C 202.99 165.30 206.26 162.77 209.50 160.28 C 206.15 161.42 203.13 163.22 200.43 165.51 C 202.30 162.08 204.50 158.72 206.96 155.73 C 209.44 156.56 211.86 157.71 214.42 156.31 C 213.30 155.71 212.19 155.11 211.07 154.52 C 211.51 152.00 211.24 149.22 212.98 147.13 C 214.02 148.02 215.04 148.94 216.06 149.87 C 218.12 148.86 220.31 149.30 222.37 150.01 C 220.05 148.63 217.40 148.41 214.77 148.21 C 215.21 146.36 215.50 144.47 215.82 142.60 C 217.73 144.18 219.67 145.77 222.10 146.51 C 223.44 144.86 224.92 143.34 226.45 141.86 C 228.35 143.47 230.63 144.42 233.11 144.61 C 231.49 143.42 229.83 142.28 228.20 141.11 C 230.55 139.38 233.86 138.49 234.27 135.15 Z" />
<path fill="#000000" opacity="1.00" d=" M 116.46 153.12 C 118.78 148.25 118.09 142.81 118.48 137.61 C 121.25 139.08 120.50 142.33 121.02 144.90 C 121.46 147.64 123.38 149.79 124.72 152.14 C 125.79 153.65 124.74 155.67 125.66 157.25 C 126.30 158.98 128.00 159.90 129.32 161.05 C 128.46 161.71 127.60 162.38 126.73 163.04 C 127.67 164.17 128.61 165.30 129.57 166.42 C 128.45 171.62 129.78 177.03 133.21 181.11 C 132.74 181.31 131.81 181.70 131.34 181.89 C 129.98 180.26 128.56 178.67 126.95 177.29 C 126.78 180.86 130.41 185.22 126.88 187.97 C 126.49 185.66 126.10 183.36 125.76 181.05 C 124.91 181.91 124.06 182.78 123.21 183.64 C 121.98 181.70 121.23 178.85 118.56 178.57 C 118.28 182.93 119.66 187.13 120.28 191.40 C 119.06 190.15 117.67 189.05 116.63 187.64 C 115.81 184.29 115.23 180.88 114.45 177.52 C 115.50 178.34 116.52 179.20 117.55 180.05 C 117.92 178.54 118.36 177.05 118.81 175.56 C 117.78 176.33 116.76 177.11 115.74 177.89 C 115.33 177.10 114.51 175.53 114.10 174.74 C 115.91 174.49 118.17 173.98 118.71 171.93 C 118.64 169.81 118.73 167.70 119.47 165.69 C 118.70 165.17 117.92 164.65 117.15 164.13 C 118.90 160.61 118.64 156.41 116.46 153.12 Z" />
<path fill="#000000" opacity="1.00" d=" M 137.76 142.92 C 139.11 141.43 140.76 140.21 142.89 140.72 C 146.62 141.90 150.76 142.99 153.23 146.28 C 151.26 147.15 149.42 149.03 147.10 148.41 C 143.68 147.19 140.66 145.07 137.76 142.92 Z" />
<path fill="#000000" opacity="1.00" d=" M 158.76 146.75 C 159.61 144.97 160.46 143.18 161.55 141.53 C 161.63 143.56 161.57 145.59 161.79 147.62 C 160.93 148.31 160.07 149.02 159.23 149.73 C 159.73 152.03 160.22 154.41 159.25 156.66 C 157.94 156.21 156.16 154.04 155.25 156.10 C 155.88 158.50 156.83 160.80 157.52 163.19 C 156.11 163.74 154.68 164.25 153.26 164.77 C 153.53 165.91 153.82 167.05 154.12 168.19 C 153.08 168.79 152.04 169.39 151.02 170.00 C 151.42 173.01 152.08 175.94 154.14 178.30 C 155.45 179.63 152.86 180.52 152.23 181.44 C 150.66 179.28 149.24 177.03 147.78 174.80 C 145.83 177.47 143.72 180.52 143.56 183.90 C 145.63 193.27 147.34 202.70 148.47 212.23 C 146.00 206.02 145.25 199.34 143.41 192.95 C 142.79 189.07 141.14 185.32 141.18 181.37 C 142.74 179.59 144.16 177.70 145.44 175.71 C 143.89 175.51 142.33 175.34 140.79 175.13 C 141.10 174.54 141.73 173.36 142.04 172.77 C 144.61 173.24 147.08 172.55 148.78 170.50 C 146.47 170.13 144.17 169.79 141.91 169.21 C 143.32 165.44 148.52 168.62 150.76 165.36 C 148.87 165.21 146.99 165.09 145.10 165.00 C 146.36 161.68 150.93 162.88 152.20 159.71 C 153.43 158.14 151.68 155.48 149.75 155.71 C 147.08 155.76 145.37 153.41 143.27 152.14 C 143.22 153.90 143.17 155.78 144.52 157.10 C 140.69 162.94 143.04 171.75 137.49 176.62 C 139.16 170.50 140.61 164.32 141.61 158.05 C 139.31 156.23 137.05 154.36 134.62 152.72 C 135.18 154.34 135.95 155.87 136.76 157.37 C 136.11 157.55 134.80 157.90 134.15 158.08 C 133.51 156.50 132.40 154.94 132.72 153.15 C 133.38 151.86 134.27 150.72 135.09 149.53 C 137.67 151.08 140.09 152.88 142.24 154.99 C 142.43 154.24 142.80 152.75 142.98 152.00 C 141.43 150.93 139.88 149.86 138.27 148.90 C 138.54 147.73 138.80 146.57 139.05 145.40 C 143.39 148.11 147.91 150.90 150.36 155.60 C 152.24 152.98 155.98 153.20 157.70 150.42 C 156.51 150.35 154.13 150.22 152.94 150.16 C 154.36 148.24 156.49 147.27 158.76 146.75 Z" />
<path fill="#000000" opacity="1.00" d=" M 20.42 144.84 C 20.77 143.73 21.51 143.25 22.64 143.38 C 25.66 145.94 26.13 150.50 29.67 152.55 C 29.56 153.76 28.79 155.24 29.87 156.24 C 32.00 157.24 34.35 157.71 36.35 159.00 C 36.98 158.28 37.62 157.58 38.26 156.88 C 38.92 158.54 39.47 160.24 39.97 161.96 C 41.98 162.66 44.83 162.64 45.00 165.39 C 42.91 165.53 40.82 165.58 38.73 165.63 C 42.26 166.74 45.95 167.15 49.56 166.11 C 49.49 169.01 47.35 170.24 44.93 171.18 C 48.81 169.41 52.93 168.32 57.11 167.52 C 59.15 167.00 60.84 168.60 62.56 169.40 C 60.36 169.52 58.15 169.52 55.95 169.55 C 54.56 171.53 53.59 173.92 51.32 175.07 C 53.50 174.80 55.69 174.60 57.85 174.22 C 57.84 174.97 57.83 176.48 57.82 177.23 C 55.35 177.40 52.88 177.38 50.42 177.63 C 53.64 178.96 57.21 180.06 60.33 177.86 C 60.23 178.60 60.01 180.10 59.90 180.85 C 58.41 181.57 56.89 182.24 55.44 183.05 C 57.82 183.16 60.08 182.44 62.14 181.30 C 61.85 182.48 61.55 183.65 61.26 184.84 C 65.88 184.90 68.52 180.98 72.15 178.89 C 69.31 183.74 65.42 187.92 61.50 191.92 C 63.13 193.78 64.73 195.68 66.41 197.51 C 69.21 192.20 73.48 187.95 76.93 183.11 C 76.72 186.39 74.44 188.81 73.04 191.62 C 74.81 190.29 76.38 188.73 78.20 187.48 C 74.32 194.09 70.42 200.69 66.73 207.41 C 66.80 201.12 71.80 196.69 73.85 191.10 C 68.94 195.86 66.01 202.29 61.10 207.08 C 58.81 209.11 57.60 212.23 54.83 213.70 C 55.10 210.34 57.78 208.17 59.84 205.81 C 61.91 203.77 63.38 201.26 65.10 198.95 C 62.54 196.84 59.80 194.93 57.54 192.49 C 57.59 194.43 57.57 196.38 57.48 198.33 C 55.03 196.20 51.08 194.98 51.08 191.15 C 50.35 191.16 48.88 191.18 48.14 191.18 C 47.37 188.69 46.48 186.14 43.98 184.91 C 42.63 180.44 39.34 177.04 35.79 174.13 C 34.22 171.58 34.06 168.43 32.79 165.72 C 32.41 167.96 34.12 171.41 30.92 172.01 C 29.60 167.53 28.55 162.97 27.44 158.44 C 26.82 155.55 24.36 153.68 22.41 151.68 C 22.77 150.87 23.13 150.05 23.49 149.24 C 22.45 147.78 21.35 146.36 20.42 144.84 M 57.50 187.39 C 58.55 188.38 59.65 189.31 60.75 190.23 C 61.62 189.29 62.50 188.35 63.37 187.41 C 61.41 187.39 59.46 187.36 57.50 187.39 Z" />
<path fill="#000000" opacity="1.00" d=" M 126.97 152.08 C 127.75 151.24 128.54 150.42 129.34 149.61 C 130.70 153.29 130.91 157.26 130.71 161.14 C 129.33 158.18 128.14 155.13 126.97 152.08 Z" />
<path fill="#000000" opacity="1.00" d=" M 160.68 161.86 C 162.77 157.84 165.33 153.36 170.04 152.08 C 168.27 155.23 163.97 157.17 164.42 161.27 C 163.17 161.48 161.93 161.68 160.68 161.86 Z" />
<path fill="#000000" opacity="1.00" d=" M 192.29 156.31 C 196.42 155.36 200.41 153.93 204.47 152.75 C 200.47 157.09 194.35 157.77 188.97 159.26 C 189.97 158.19 190.71 156.61 192.29 156.31 Z" />
<path fill="#000000" opacity="1.00" d=" M 173.12 154.40 C 174.94 155.79 177.01 156.69 179.34 156.63 C 178.28 158.08 177.36 159.62 176.29 161.07 C 172.45 162.29 169.51 165.44 165.40 165.99 C 166.38 161.07 172.44 160.86 175.14 157.15 C 174.47 156.23 173.79 155.31 173.12 154.40 Z" />
<path fill="#000000" opacity="1.00" d=" M 98.56 159.55 C 98.99 158.05 100.06 156.93 101.33 156.08 C 100.95 157.65 100.46 159.20 99.96 160.75 C 100.47 160.65 101.49 160.45 102.00 160.35 C 100.67 165.35 100.44 171.21 96.91 175.25 C 96.89 174.29 96.84 172.37 96.82 171.41 C 95.65 171.06 94.50 170.69 93.34 170.30 C 94.63 166.49 97.21 163.32 98.56 159.55 Z" />
<path fill="#000000" opacity="1.00" d=" M 166.85 157.50 C 168.00 158.20 167.84 158.85 166.37 159.46 C 165.16 158.75 165.32 158.10 166.85 157.50 Z" />
<path fill="#000000" opacity="1.00" d=" M 186.85 163.61 C 187.95 162.57 189.09 161.57 190.27 160.63 C 189.98 162.07 189.70 163.52 189.42 164.97 C 188.56 164.51 187.71 164.06 186.85 163.61 Z" />
<path fill="#000000" opacity="1.00" d=" M 187.57 170.32 C 189.99 168.36 192.09 165.85 195.06 164.73 C 194.65 166.54 193.48 167.95 191.87 168.83 C 188.86 170.56 186.83 173.48 183.95 175.37 C 185.26 173.75 186.74 172.28 188.12 170.72 C 182.94 169.19 177.91 171.72 172.85 172.47 C 168.57 172.69 164.65 174.66 160.40 175.10 C 160.10 175.82 159.49 177.25 159.19 177.96 C 157.38 177.37 155.59 176.74 153.83 176.04 C 157.09 170.84 163.82 171.97 168.79 169.73 C 172.03 168.03 175.75 169.42 179.07 168.11 C 181.09 167.42 183.23 167.26 185.34 167.03 C 186.07 168.13 186.82 169.22 187.57 170.32 Z" />
<path fill="#000000" opacity="1.00" d=" M 115.91 171.31 C 119.34 171.58 114.26 174.23 115.91 171.31 Z" />
<path fill="#000000" opacity="1.00" d=" M 96.32 186.73 C 96.58 183.16 96.09 179.56 96.70 176.02 C 100.70 178.60 102.08 183.73 106.37 186.11 C 104.71 185.99 103.05 185.87 101.40 185.74 C 102.98 187.27 104.74 188.60 106.37 190.08 C 105.44 190.73 104.50 191.38 103.56 192.02 C 104.80 193.04 106.07 194.03 107.33 195.04 C 106.73 195.41 105.53 196.14 104.93 196.51 C 106.42 198.77 108.06 200.92 109.65 203.11 C 107.99 202.87 106.34 202.57 104.69 202.28 C 105.85 204.74 106.95 207.23 107.79 209.83 C 104.94 209.41 104.33 206.47 103.11 204.36 C 102.91 205.25 102.52 207.03 102.32 207.92 C 101.84 207.79 100.89 207.52 100.42 207.39 C 99.75 205.42 99.17 203.38 99.91 201.34 C 99.23 201.12 97.87 200.68 97.19 200.46 C 97.73 198.27 98.24 196.08 98.84 193.91 C 96.37 192.32 96.81 189.24 96.32 186.73 Z" />
<path fill="#000000" opacity="1.00" d=" M 155.89 180.47 C 158.84 180.30 161.22 182.35 163.32 184.16 C 163.36 184.73 163.45 185.87 163.49 186.44 C 160.95 184.38 157.89 183.51 154.69 183.15 C 154.99 182.48 155.59 181.14 155.89 180.47 Z" />
<path fill="#000000" opacity="1.00" d=" M 78.03 204.07 C 81.98 196.47 82.80 187.13 89.07 180.87 C 88.59 182.66 87.93 184.39 87.14 186.07 C 89.36 188.67 87.24 191.81 86.71 194.62 C 85.52 205.11 81.28 215.34 74.60 223.55 C 73.23 220.39 76.29 218.04 77.47 215.40 C 79.44 211.23 81.18 206.94 82.97 202.69 C 81.52 203.76 79.91 204.87 78.03 204.07 Z" />
<path fill="#000000" opacity="1.00" d=" M 165.01 184.99 C 172.99 190.39 181.69 194.67 189.83 199.83 C 184.55 197.68 179.61 194.81 174.29 192.77 C 170.63 190.78 167.18 188.36 163.18 187.04 C 163.64 186.53 164.55 185.51 165.01 184.99 Z" />
<path fill="#000000" opacity="1.00" d=" M 126.01 198.01 C 125.67 194.24 124.48 190.11 126.30 186.57 C 126.52 187.68 126.95 189.89 127.17 191.00 C 128.09 190.79 129.00 190.58 129.92 190.38 C 129.88 197.57 130.69 204.76 130.48 211.97 C 130.23 216.03 130.90 220.21 129.68 224.16 C 126.80 215.70 128.60 206.51 126.01 198.01 Z" />
<path fill="#000000" opacity="1.00" d=" M 87.18 201.36 C 87.88 197.15 88.58 192.78 90.92 189.12 C 91.20 189.60 91.77 190.55 92.06 191.03 C 90.13 197.73 88.89 204.67 86.02 211.07 C 85.30 212.82 84.03 214.24 82.66 215.51 C 84.25 210.82 86.16 206.22 87.18 201.36 Z" />
<path fill="#000000" opacity="1.00" d=" M 123.85 220.34 C 125.89 221.49 125.61 224.06 126.15 226.04 C 123.15 225.92 124.09 222.35 123.85 220.34 Z" />
</g>
</svg>
