<?xml version="1.0" encoding="UTF-8" ?>
<!DOCTYPE svg PUBLIC "-//W3C//DTD SVG 1.1//EN" "http://www.w3.org/Graphics/SVG/1.1/DTD/svg11.dtd">
<svg width="256pt" height="256pt" viewBox="0 0 256 256" version="1.1" xmlns="http://www.w3.org/2000/svg">
<g id="#000000ff">
<path fill="#000000" opacity="1.00" d=" M 194.02 60.09 C 201.02 61.81 208.33 61.52 215.32 63.30 C 215.63 63.99 216.26 65.37 216.57 66.06 C 215.68 68.29 214.50 70.38 213.47 72.54 C 213.23 76.02 213.84 79.53 213.71 83.03 C 215.25 82.20 216.80 81.36 218.48 80.82 C 216.66 83.13 214.49 85.25 213.62 88.15 C 213.88 92.05 214.96 95.86 214.60 99.80 C 214.93 100.35 215.58 101.44 215.90 101.99 C 214.44 105.31 212.37 108.29 209.66 110.71 C 208.26 113.79 206.03 116.31 203.44 118.46 C 201.70 121.41 201.25 125.16 198.66 127.66 C 195.62 130.86 193.80 134.81 192.04 138.79 C 190.10 134.37 195.04 130.10 192.63 125.59 C 188.67 131.64 189.90 139.20 186.51 145.44 C 183.97 150.84 185.14 159.22 178.16 161.46 C 181.32 156.99 180.98 151.31 183.51 146.59 C 184.16 144.36 183.30 142.19 182.75 140.05 C 184.28 134.45 186.13 128.94 187.46 123.29 C 185.05 124.59 182.54 125.79 179.79 126.11 C 181.03 124.25 182.44 122.50 183.83 120.75 C 183.15 119.88 182.49 119.01 181.84 118.13 C 183.59 119.55 185.36 120.96 187.11 122.38 C 188.12 119.17 189.20 114.63 193.53 115.14 C 192.50 116.67 191.43 118.18 190.50 119.78 C 192.10 119.07 193.58 118.13 195.01 117.13 C 194.52 119.07 194.48 121.06 194.52 123.05 C 193.66 125.27 193.41 127.61 193.66 129.98 C 196.47 127.61 199.07 124.79 199.44 120.95 C 197.94 121.65 196.42 122.32 194.90 122.97 C 195.90 119.79 198.10 117.25 199.47 114.26 C 201.71 109.84 205.87 106.67 207.66 101.99 C 208.56 102.58 209.46 103.17 210.36 103.76 C 210.56 101.51 211.08 99.32 211.52 97.11 C 210.90 95.47 209.81 94.05 208.93 92.55 C 206.41 91.82 205.40 95.05 204.33 96.67 C 205.88 96.41 207.43 96.13 208.98 95.85 C 207.05 99.17 205.03 102.42 202.98 105.66 C 202.13 104.72 201.28 103.79 200.43 102.86 C 201.84 101.97 203.25 101.10 204.66 100.22 C 204.17 98.50 203.60 96.81 203.24 95.06 C 205.04 92.06 208.96 90.35 209.03 86.45 C 207.18 86.42 205.32 86.44 203.47 86.48 C 203.97 90.95 199.39 93.48 195.56 93.96 C 199.09 88.48 204.15 84.27 208.29 79.30 C 206.42 79.39 204.50 79.82 203.25 81.33 C 200.50 84.10 197.37 86.47 194.75 89.37 C 194.62 88.78 194.36 87.61 194.24 87.02 C 198.96 81.21 204.17 75.77 208.75 69.82 C 209.81 68.48 210.42 66.87 210.84 65.23 C 209.17 66.72 207.76 68.56 205.67 69.50 C 201.68 71.28 199.45 76.83 194.41 75.58 C 198.95 72.59 202.90 68.83 207.52 65.94 C 205.99 65.53 204.46 65.13 202.93 64.74 C 202.18 65.80 201.51 66.92 200.64 67.89 C 197.56 68.77 194.29 68.26 191.14 68.14 C 191.22 69.21 191.31 70.28 191.39 71.35 C 190.95 71.25 190.08 71.05 189.65 70.95 C 189.65 69.29 189.62 67.62 189.58 65.95 C 192.79 63.84 196.55 65.54 200.07 65.20 C 197.00 64.47 193.94 63.67 190.94 62.71 C 191.95 61.81 192.98 60.95 194.02 60.09 M 209.29 71.30 C 207.88 74.36 212.66 71.18 209.29 71.30 M 207.53 74.44 C 206.39 76.10 205.10 77.67 203.84 79.24 C 205.85 78.41 207.84 77.55 209.92 76.90 C 209.75 76.35 209.41 75.27 209.24 74.72 C 208.81 74.65 207.96 74.51 207.53 74.44 M 208.24 78.18 C 208.44 81.56 211.23 76.65 208.24 78.18 M 207.75 83.24 C 206.12 86.23 211.14 83.43 207.75 83.24 M 207.14 106.42 C 205.96 106.41 204.72 108.86 206.51 108.85 C 207.64 108.84 208.86 106.43 207.14 106.42 M 202.21 111.92 C 202.35 115.41 205.15 110.33 202.21 111.92 Z" />
<path fill="#000000" opacity="1.00" d=" M 171.28 64.44 C 177.65 63.48 184.08 60.33 190.56 62.48 C 185.39 65.38 179.22 65.28 173.62 66.85 C 167.44 68.68 160.99 69.14 154.75 70.69 C 151.64 71.63 148.42 70.97 145.30 70.46 C 148.16 67.24 152.72 69.75 156.27 68.11 C 161.01 65.90 166.32 65.89 171.28 64.44 Z" />
<path fill="#000000" opacity="1.00" d=" M 177.64 72.66 C 181.52 71.03 184.62 68.05 188.48 66.39 C 182.23 72.23 173.02 76.85 171.42 85.98 C 178.45 82.67 183.11 75.89 190.28 72.90 C 188.99 75.01 187.27 76.91 185.01 77.98 C 182.73 78.90 181.91 81.50 179.82 82.68 C 177.20 84.34 174.88 87.10 171.48 86.59 C 171.67 89.25 171.76 91.92 171.67 94.59 C 172.13 94.74 173.05 95.03 173.51 95.18 C 171.64 97.37 170.87 100.20 170.56 103.00 C 171.16 105.44 171.75 107.88 171.91 110.40 C 171.21 110.50 169.81 110.71 169.11 110.81 C 169.15 109.23 170.25 107.41 168.98 106.07 C 165.24 101.78 168.89 96.11 168.69 91.18 C 168.42 88.66 169.55 85.94 167.80 83.76 C 170.79 79.85 173.46 75.43 177.64 72.66 Z" />
<path fill="#000000" opacity="1.00" d=" M 120.36 69.11 C 127.21 67.65 134.06 70.34 140.91 70.86 C 140.98 71.65 141.10 73.24 141.16 74.03 C 139.53 73.24 137.92 72.14 136.01 72.36 C 131.61 72.63 127.32 71.54 122.95 71.27 C 119.15 71.04 115.87 73.48 112.10 73.50 C 109.10 73.39 106.83 75.73 103.97 76.15 C 94.43 76.04 85.47 80.17 76.91 83.94 C 74.42 85.89 71.10 84.79 68.45 86.41 C 65.28 88.10 61.81 88.89 58.22 88.83 C 56.81 90.82 55.87 93.08 55.28 95.45 C 50.97 98.90 47.63 103.60 45.83 108.82 C 44.70 113.43 43.76 118.11 43.06 122.81 C 44.83 125.88 44.26 129.36 44.27 132.74 C 45.88 139.70 43.64 146.84 44.82 153.83 C 48.20 151.58 51.39 148.35 55.75 148.41 C 56.16 149.36 56.58 150.31 57.01 151.26 C 54.25 149.23 51.09 150.73 49.06 153.03 C 44.95 157.58 40.82 162.37 38.68 168.21 C 40.91 168.68 43.38 168.47 45.15 170.14 C 42.14 170.91 39.01 170.44 35.98 170.09 C 36.50 164.23 41.27 160.31 43.30 155.10 C 42.09 156.37 40.89 157.65 39.63 158.88 C 37.17 152.23 37.61 145.05 37.17 138.10 C 37.33 134.00 37.31 129.77 38.86 125.90 C 41.42 119.30 41.44 111.96 44.49 105.51 C 46.51 101.41 49.56 97.94 52.41 94.41 C 54.66 91.66 55.95 88.21 58.58 85.76 C 64.76 84.11 70.46 80.99 76.79 79.84 C 83.52 76.91 90.33 73.97 97.52 72.32 C 105.06 70.63 113.21 72.56 120.36 69.11 M 41.28 153.35 C 41.41 150.15 41.73 146.90 41.13 143.73 C 39.21 146.68 40.63 150.22 41.28 153.35 Z" />
<path fill="#000000" opacity="1.00" d=" M 158.67 73.80 C 161.34 72.74 164.22 74.06 166.96 73.43 C 169.84 72.95 172.82 72.28 175.73 73.00 C 171.79 74.00 168.22 76.35 164.13 76.68 C 162.75 76.06 161.47 75.24 160.15 74.53 C 152.83 77.72 145.59 81.25 137.81 83.23 C 132.74 84.38 127.56 82.60 122.48 83.41 C 119.05 83.78 115.61 82.90 112.17 83.32 C 106.38 84.89 100.42 85.83 94.71 87.73 C 97.53 82.49 103.77 83.38 108.52 81.45 C 112.86 79.52 117.61 81.41 122.13 80.55 C 127.25 79.68 132.60 81.41 137.53 79.41 C 141.06 78.12 144.90 78.50 148.46 77.35 C 151.88 76.23 155.29 75.05 158.67 73.80 Z" />
<path fill="#000000" opacity="1.00" d=" M 87.55 86.47 C 89.74 85.47 92.22 85.44 94.58 85.68 C 91.83 87.98 87.87 88.01 84.85 89.95 C 80.51 91.50 76.57 94.60 71.92 94.93 C 71.88 94.47 71.81 93.56 71.78 93.11 C 76.44 89.66 82.34 88.79 87.55 86.47 Z" />
<path fill="#000000" opacity="1.00" d=" M 217.12 98.75 C 217.75 95.58 217.96 92.19 220.03 89.55 C 220.10 91.79 220.58 94.02 220.40 96.27 C 219.38 97.19 218.23 97.94 217.12 98.75 Z" />
<path fill="#000000" opacity="1.00" d=" M 136.37 96.49 C 141.56 97.48 146.10 94.23 150.93 93.04 C 147.46 97.41 141.62 100.63 136.00 98.91 C 130.30 97.32 124.72 100.09 119.08 100.56 C 117.12 100.64 115.77 98.50 113.81 98.78 C 107.42 99.95 101.19 102.19 95.56 105.45 C 93.89 106.06 92.12 104.87 90.40 105.29 C 87.38 105.87 84.33 106.33 81.27 106.66 C 76.48 107.65 72.12 110.45 67.15 110.59 C 66.70 109.94 65.80 108.64 65.35 107.99 C 69.31 107.50 73.11 106.29 76.83 104.90 C 80.80 103.28 85.22 104.21 89.27 102.93 C 91.00 102.37 92.82 102.67 94.59 102.63 C 100.68 99.49 107.22 97.05 114.06 96.28 C 116.35 96.10 118.30 98.17 120.59 97.46 C 125.80 96.60 131.09 95.60 136.37 96.49 Z" />
<path fill="#000000" opacity="1.00" d=" M 201.24 96.31 C 202.57 96.94 202.11 100.00 200.79 100.54 C 198.90 99.91 199.67 96.90 201.24 96.31 Z" />
<path fill="#000000" opacity="1.00" d=" M 190.46 100.38 C 192.11 100.29 191.42 102.80 190.18 102.86 C 188.58 102.98 189.28 100.45 190.46 100.38 Z" />
<path fill="#000000" opacity="1.00" d=" M 198.26 100.26 C 201.83 99.72 198.35 104.25 197.34 101.25 C 197.57 101.00 198.03 100.51 198.26 100.26 Z" />
<path fill="#000000" opacity="1.00" d=" M 61.72 106.76 C 62.28 104.75 64.82 105.21 66.39 104.83 C 65.37 106.39 64.12 107.79 62.99 109.27 C 64.56 110.78 66.42 111.94 68.17 113.22 C 64.53 114.29 60.06 110.54 61.72 106.76 Z" />
<path fill="#000000" opacity="1.00" d=" M 196.09 107.86 C 197.86 107.26 199.28 106.15 200.29 104.59 C 200.78 104.94 201.74 105.66 202.22 106.02 C 201.58 107.16 200.97 108.31 200.38 109.49 C 200.03 109.38 199.34 109.18 198.99 109.08 C 198.33 111.66 196.87 113.87 195.22 115.92 C 194.70 115.07 193.67 113.38 193.15 112.53 C 194.28 112.05 195.42 111.59 196.56 111.13 C 196.39 110.04 196.24 108.95 196.09 107.86 Z" />
<path fill="#000000" opacity="1.00" d=" M 90.52 121.51 C 94.83 118.12 99.90 115.88 104.86 113.65 C 108.82 116.15 113.80 118.46 118.49 116.60 C 120.10 115.95 121.81 116.01 123.47 116.42 C 127.33 117.37 131.09 115.33 134.95 115.67 C 138.97 116.06 143.00 116.46 147.04 116.67 C 149.96 116.51 152.54 114.82 155.44 114.51 C 153.22 116.36 150.83 118.43 147.80 118.63 C 143.18 118.92 138.55 118.72 133.95 118.73 C 128.35 120.30 122.59 118.99 116.92 119.80 C 112.36 120.52 108.32 118.09 104.10 116.89 C 98.49 117.87 94.76 123.26 89.02 123.65 C 87.59 122.35 86.20 121.00 84.83 119.64 C 81.95 119.72 78.74 119.42 76.38 121.41 C 74.35 123.10 72.28 124.80 69.69 125.55 C 73.15 119.31 80.92 116.36 87.80 116.85 C 89.79 117.53 89.77 119.88 90.52 121.51 Z" />
<path fill="#000000" opacity="1.00" d=" M 192.31 114.29 C 192.97 114.95 192.97 114.95 192.31 114.29 Z" />
<path fill="#000000" opacity="1.00" d=" M 173.84 119.50 C 174.38 122.40 174.62 125.35 174.36 128.29 C 174.18 130.12 175.44 131.77 175.22 133.59 C 174.04 137.16 169.71 139.05 169.92 143.15 C 169.31 142.59 168.71 142.02 168.12 141.45 C 170.10 139.42 172.00 137.30 173.61 134.97 C 171.73 129.97 171.97 124.47 173.84 119.50 Z" />
<path fill="#000000" opacity="1.00" d=" M 155.60 125.48 C 157.30 124.99 159.08 125.20 160.82 125.18 C 160.60 126.30 160.37 127.42 160.14 128.53 C 157.14 127.50 154.33 128.66 151.57 129.77 C 146.13 131.05 140.62 133.60 134.94 132.02 C 132.25 131.20 128.59 132.63 127.18 129.35 C 121.38 130.28 116.20 134.57 110.16 133.45 C 105.03 132.80 100.14 135.38 95.00 134.73 C 95.62 133.77 96.17 132.77 96.92 131.91 C 102.80 130.25 109.03 129.76 115.06 130.69 C 119.64 129.57 124.16 126.90 128.98 128.82 C 129.28 129.33 129.89 130.34 130.19 130.84 C 132.35 131.81 134.36 129.92 136.45 129.51 C 142.92 128.67 149.30 127.19 155.60 125.48 Z" />
<path fill="#000000" opacity="1.00" d=" M 219.40 135.54 C 221.24 135.77 223.07 136.21 224.38 137.63 C 222.37 137.65 219.39 138.55 219.40 135.54 Z" />
<path fill="#000000" opacity="1.00" d=" M 62.84 140.92 C 68.50 138.86 74.63 139.38 80.47 138.09 C 81.62 139.86 82.69 141.69 83.91 143.41 C 82.25 142.50 80.63 141.51 79.01 140.54 C 72.48 142.23 65.67 142.92 58.94 142.46 C 58.62 140.91 58.29 139.07 59.96 138.12 C 60.97 138.99 61.90 139.97 62.84 140.92 Z" />
<path fill="#000000" opacity="1.00" d=" M 123.21 147.53 C 123.56 144.83 124.14 142.14 125.32 139.66 C 125.92 142.34 126.34 145.07 126.80 147.78 C 125.60 147.69 124.41 147.61 123.21 147.53 Z" />
<path fill="#000000" opacity="1.00" d=" M 68.55 142.88 C 74.20 148.30 72.67 157.02 74.71 163.99 C 73.53 163.06 72.41 162.06 71.31 161.05 C 71.41 162.78 71.47 164.52 71.55 166.25 C 72.12 166.43 73.25 166.78 73.82 166.95 C 73.24 165.71 72.67 164.47 72.11 163.22 C 73.41 163.78 74.72 164.31 76.05 164.81 C 79.56 163.78 82.79 161.94 86.40 161.21 C 86.34 159.60 86.41 157.99 86.67 156.40 C 86.05 156.45 84.80 156.54 84.18 156.59 C 85.07 155.59 86.00 154.64 86.93 153.68 C 85.85 153.15 84.78 152.61 83.73 152.05 C 84.90 151.74 86.07 151.45 87.25 151.17 C 88.03 155.44 89.01 159.69 90.42 163.80 C 90.69 163.60 91.24 163.20 91.51 163.00 C 90.08 159.93 90.35 156.48 91.84 153.50 C 94.94 153.73 95.85 157.66 92.99 158.96 C 94.98 160.34 97.07 161.75 99.63 161.44 C 99.55 160.47 99.38 158.53 99.30 157.56 C 100.70 157.50 102.09 157.40 103.49 157.28 C 103.01 158.60 102.55 159.93 102.11 161.26 C 105.88 161.48 109.97 162.31 112.01 165.91 C 114.65 162.19 117.68 158.71 121.23 155.82 C 122.07 155.68 123.75 155.38 124.59 155.24 C 122.10 157.74 120.78 160.83 120.99 164.38 C 120.33 164.51 119.01 164.78 118.35 164.91 C 118.91 163.24 119.48 161.58 119.97 159.89 C 118.11 162.05 116.54 164.44 114.88 166.75 C 115.35 166.40 116.29 165.71 116.75 165.37 C 120.26 167.59 125.07 167.30 127.68 170.88 C 129.15 165.81 131.41 160.88 131.59 155.54 C 131.71 153.24 132.55 151.05 133.02 148.81 C 133.76 154.27 133.23 159.79 132.55 165.23 C 135.75 163.25 139.97 163.02 142.55 160.13 C 144.56 160.18 146.81 160.98 148.50 159.48 C 151.45 157.44 155.00 156.77 158.33 155.64 C 161.20 153.51 164.80 151.70 166.01 148.07 C 164.55 148.54 163.13 149.09 161.71 149.63 C 162.45 148.10 163.28 146.61 164.05 145.09 C 164.57 145.86 165.61 147.39 166.13 148.15 C 166.34 146.91 166.75 144.43 166.96 143.18 C 167.33 146.08 167.06 149.31 169.85 151.13 C 166.93 153.48 164.38 156.27 162.43 159.48 C 158.79 161.20 154.28 161.26 151.35 164.31 C 148.10 167.39 144.12 169.69 139.78 170.75 C 136.21 174.28 130.91 175.35 126.05 175.47 C 125.40 173.18 124.69 170.91 124.04 168.63 C 122.41 168.53 120.78 168.33 119.15 168.37 C 118.36 169.60 117.57 170.84 116.80 172.10 C 116.01 170.86 115.24 169.61 114.50 168.35 C 113.66 170.35 112.89 172.38 111.94 174.33 C 111.23 172.67 111.43 170.91 111.62 169.18 C 109.89 169.90 108.16 170.65 106.55 171.63 C 105.64 169.17 103.92 166.59 101.08 166.31 C 98.93 167.29 96.68 167.73 94.34 167.22 C 91.09 169.80 88.77 173.54 84.82 175.18 C 86.63 171.38 86.32 167.15 87.42 163.16 C 83.72 164.41 80.46 166.66 76.73 167.83 C 77.17 168.76 77.61 169.71 78.04 170.65 C 76.66 170.50 75.29 170.32 73.92 170.12 C 72.52 171.37 71.01 172.49 69.41 173.47 C 69.33 168.87 69.94 163.77 67.29 159.72 C 66.13 159.05 64.54 157.71 63.22 158.71 C 59.92 160.82 57.66 164.33 55.99 167.80 C 56.80 169.19 57.72 170.52 58.48 171.94 C 57.38 171.35 56.30 170.72 55.23 170.08 C 54.11 170.65 52.98 171.21 51.84 171.76 C 52.65 169.16 53.40 166.47 52.13 163.88 C 54.44 163.17 56.82 162.34 58.25 160.25 C 60.06 157.62 63.20 156.72 66.05 155.72 C 68.69 156.51 70.52 158.93 72.70 160.54 C 71.65 158.34 71.76 155.62 70.07 153.77 C 70.58 153.60 71.10 153.43 71.62 153.26 C 70.45 149.85 69.48 146.36 68.55 142.88 M 153.52 158.60 C 148.88 163.21 141.93 163.87 137.05 168.11 C 135.94 169.14 134.24 168.47 132.89 168.70 C 132.85 169.22 132.76 170.25 132.72 170.77 C 132.34 170.14 131.59 168.88 131.21 168.25 C 131.20 169.30 131.20 171.42 131.19 172.48 C 133.19 172.12 135.54 172.70 137.18 171.23 C 141.13 168.03 145.82 165.93 149.66 162.59 C 152.93 159.72 157.37 159.42 161.40 158.37 C 161.50 157.66 161.70 156.25 161.80 155.55 C 159.33 157.28 156.58 158.51 153.52 158.60 M 90.89 166.18 C 92.99 165.25 95.06 164.06 94.92 161.43 C 93.07 162.52 91.99 164.41 90.89 166.18 M 100.78 162.09 C 103.87 163.73 106.00 167.08 109.34 167.97 C 109.38 167.47 109.46 166.47 109.50 165.97 C 106.92 164.03 103.87 162.90 100.78 162.09 M 134.38 166.07 C 134.24 169.47 137.44 164.44 134.38 166.07 Z" />
<path fill="#000000" opacity="1.00" d=" M 172.54 160.80 C 173.21 156.27 173.23 151.45 175.49 147.34 C 175.56 151.13 175.34 154.93 174.65 158.66 C 175.85 158.21 177.06 157.77 178.27 157.35 C 176.44 158.64 174.53 159.78 172.54 160.80 Z" />
<path fill="#000000" opacity="1.00" d=" M 46.31 170.34 C 48.78 164.28 49.48 156.81 55.19 152.69 C 52.84 157.24 50.04 161.82 49.80 167.08 C 49.33 169.53 50.23 173.10 47.05 173.88 C 45.89 173.02 45.89 171.59 46.31 170.34 Z" />
<path fill="#000000" opacity="1.00" d=" M 206.39 158.38 C 209.23 157.38 212.07 156.29 215.07 155.88 C 210.49 158.28 206.53 161.69 201.85 163.91 C 201.52 160.99 204.15 159.46 206.39 158.38 Z" />
<path fill="#000000" opacity="1.00" d=" M 184.01 161.05 C 188.09 159.00 192.75 159.60 197.08 158.54 C 191.86 159.86 186.55 161.28 181.80 163.88 C 178.78 165.43 177.18 169.11 173.67 169.72 C 175.09 165.15 179.93 162.85 184.01 161.05 Z" />
</g>
</svg>
