<?xml version="1.0" encoding="UTF-8" ?>
<!DOCTYPE svg PUBLIC "-//W3C//DTD SVG 1.1//EN" "http://www.w3.org/Graphics/SVG/1.1/DTD/svg11.dtd">
<svg width="256pt" height="256pt" viewBox="0 0 256 256" version="1.1" xmlns="http://www.w3.org/2000/svg">
<g id="#000000ff">
<path fill="#000000" opacity="1.00" d=" M 88.60 56.54 C 89.23 56.46 90.49 56.30 91.11 56.22 C 92.22 66.76 89.76 77.26 89.64 87.81 C 90.44 86.32 91.29 84.87 92.18 83.44 C 92.69 84.59 93.18 85.76 93.65 86.93 C 95.57 83.25 96.96 78.97 100.53 76.52 C 103.33 74.70 104.54 71.08 107.80 69.95 C 108.38 75.80 103.36 79.90 99.53 83.49 C 97.18 87.30 93.62 91.16 94.16 95.94 C 94.33 103.13 92.31 110.31 93.53 117.49 C 94.34 121.46 93.06 125.51 93.70 129.49 C 94.25 132.16 95.25 134.71 96.01 137.33 C 97.90 135.10 99.97 133.04 102.15 131.11 C 103.65 127.96 103.77 124.00 106.41 121.44 C 109.71 118.37 112.01 114.31 115.94 111.92 C 115.15 114.39 114.33 116.85 113.22 119.20 C 111.84 121.10 109.90 122.46 108.09 123.89 C 110.53 123.35 113.24 123.85 115.45 122.44 C 117.84 120.87 119.96 118.93 122.22 117.19 C 122.66 117.69 123.54 118.69 123.98 119.19 C 122.85 121.50 121.52 123.85 119.24 125.20 C 115.39 126.00 111.55 126.96 107.67 127.65 C 107.19 128.81 107.12 130.23 106.17 131.14 C 101.80 135.66 97.45 140.39 94.93 146.24 C 93.93 145.12 93.56 143.12 92.01 142.69 C 90.50 143.22 89.40 144.44 88.14 145.36 C 89.35 147.19 90.51 149.07 91.87 150.80 C 91.64 148.95 91.25 147.13 90.86 145.31 C 91.38 145.23 92.42 145.05 92.94 144.96 C 92.79 145.75 92.49 147.32 92.35 148.11 C 96.35 147.58 96.58 151.77 97.21 154.63 C 100.16 164.17 97.64 174.21 97.78 183.97 C 98.14 187.89 96.70 191.63 96.42 195.51 C 95.11 195.66 93.80 195.83 92.49 195.98 C 90.31 190.60 91.08 184.52 90.20 178.83 C 89.65 175.66 93.05 172.37 90.67 169.49 C 87.32 168.30 84.39 166.29 81.20 164.75 C 82.17 163.56 83.10 162.32 84.24 161.28 C 87.94 161.85 90.39 165.12 93.79 166.44 C 93.04 162.85 91.83 159.32 89.79 156.25 C 87.13 152.63 87.26 147.39 83.57 144.43 C 80.07 141.95 76.81 139.16 73.77 136.13 C 72.08 134.03 72.09 131.03 70.25 128.98 C 71.92 127.95 73.57 126.91 75.26 125.92 C 76.74 128.21 77.00 131.16 78.56 133.32 C 82.56 135.85 86.13 138.95 89.44 142.33 C 89.82 142.30 90.58 142.24 90.97 142.21 C 90.07 138.99 87.31 136.45 86.38 133.17 C 86.50 128.14 88.03 123.16 87.46 118.13 C 86.87 116.17 86.45 114.18 86.66 112.12 C 82.32 110.92 77.97 109.82 73.52 109.17 C 73.13 108.86 72.36 108.23 71.97 107.92 C 76.86 106.26 81.95 107.92 86.79 108.91 C 86.47 104.39 86.68 99.86 86.55 95.34 C 81.47 94.49 76.70 92.05 71.45 92.40 C 71.45 91.74 71.43 90.42 71.43 89.76 C 76.53 89.37 81.44 91.04 86.44 91.73 C 86.49 85.52 86.28 79.27 87.45 73.14 C 88.55 67.67 88.42 62.09 88.60 56.54 Z" />
<path fill="#000000" opacity="1.00" d=" M 143.68 77.93 C 143.83 73.39 141.59 67.49 146.16 64.42 C 147.36 69.50 147.64 74.72 147.57 79.92 C 148.97 79.05 150.24 77.85 151.89 77.51 C 153.28 78.19 154.56 79.08 155.88 79.91 C 152.14 81.19 149.21 83.90 147.08 87.17 C 148.72 87.63 150.38 88.04 152.00 88.58 C 146.72 94.39 146.96 102.65 144.95 109.83 C 147.62 108.22 150.39 106.74 152.96 104.97 C 155.48 101.79 157.81 98.47 160.26 95.24 C 160.82 96.78 161.34 98.34 161.80 99.92 C 160.14 101.91 158.50 103.91 156.98 106.00 C 154.70 109.52 149.91 110.00 147.42 113.31 C 146.14 115.09 145.24 117.09 144.21 119.02 C 148.22 124.88 157.26 124.67 160.40 131.45 C 153.59 132.19 148.53 126.91 143.00 123.89 C 142.39 128.03 141.80 132.17 141.14 136.30 C 142.97 137.48 143.64 139.65 145.07 141.20 C 148.17 141.67 151.58 139.36 154.34 141.60 C 157.80 143.92 161.88 144.85 165.86 145.87 C 165.42 146.62 164.55 148.11 164.12 148.86 C 159.80 147.32 155.36 146.03 151.42 143.65 C 148.52 142.83 145.39 143.87 142.50 142.80 C 142.26 141.33 142.61 139.20 140.81 138.63 C 141.36 146.51 136.94 153.58 137.18 161.42 C 140.32 161.86 142.90 163.58 144.87 166.02 C 146.22 165.82 147.57 165.64 148.93 165.50 C 147.46 167.03 145.81 168.43 143.90 169.39 C 141.38 167.88 139.67 165.25 136.83 164.20 C 136.31 168.63 137.39 173.31 135.50 177.51 C 134.00 183.08 134.45 188.95 133.46 194.62 C 132.90 194.68 131.78 194.80 131.23 194.87 C 131.12 185.46 133.64 176.00 131.40 166.67 C 127.47 169.75 124.87 174.21 120.65 176.94 C 117.57 177.56 114.36 177.55 111.22 177.68 C 115.04 174.71 121.38 175.45 123.80 170.68 C 125.45 167.46 128.95 166.03 131.33 163.52 C 131.79 160.65 132.31 157.80 132.66 154.92 C 128.25 154.17 123.93 155.61 119.72 156.76 C 116.30 158.84 114.60 162.75 111.46 165.17 C 111.65 162.83 112.23 160.48 113.41 158.44 C 115.63 156.07 118.37 154.27 121.02 152.42 C 119.82 151.86 118.61 151.31 117.38 150.83 C 119.34 150.70 121.27 150.34 123.20 149.95 C 122.75 150.63 121.87 151.99 121.42 152.67 C 125.26 151.61 129.25 150.65 133.25 151.43 C 133.69 149.85 134.14 148.28 134.59 146.71 C 133.34 146.57 132.10 146.43 130.86 146.29 C 134.04 140.33 134.99 133.57 135.68 126.95 C 133.07 128.02 130.36 128.94 127.49 128.83 C 128.43 123.36 136.55 124.29 137.61 119.04 C 138.78 115.18 140.00 111.32 140.66 107.34 C 138.70 107.66 136.76 108.08 134.84 108.57 C 133.52 106.27 132.20 103.96 131.24 101.48 C 133.88 103.40 137.40 105.77 140.58 103.74 C 141.89 100.55 142.29 97.09 142.90 93.72 C 140.15 93.89 137.42 94.31 134.67 94.46 C 135.37 92.24 136.31 90.10 136.94 87.86 C 137.53 88.77 138.13 89.68 138.74 90.59 C 140.33 90.50 141.92 90.43 143.51 90.36 C 143.36 86.76 143.58 83.16 143.69 79.57 C 139.46 80.52 135.13 79.41 131.86 76.58 C 135.84 74.10 139.72 77.03 143.68 77.93 Z" />
<path fill="#000000" opacity="1.00" d=" M 174.88 95.89 C 174.46 94.02 178.15 93.72 178.58 95.21 C 179.99 98.78 179.12 102.69 178.40 106.31 C 180.91 107.15 183.42 107.99 185.90 108.91 C 185.03 109.92 184.17 110.92 183.30 111.92 C 181.75 110.84 180.16 109.84 178.64 108.74 C 178.27 110.85 177.73 112.94 177.43 115.07 C 180.71 118.64 184.30 121.96 187.57 125.57 C 187.75 126.83 187.50 128.10 187.38 129.36 C 184.04 126.27 181.12 122.75 177.45 120.02 C 177.85 130.56 177.44 141.39 180.68 151.55 C 181.51 153.94 181.20 156.49 181.32 158.97 C 184.84 160.35 188.65 161.07 191.89 163.09 C 194.77 164.81 197.23 167.12 199.97 169.04 C 199.05 170.00 198.12 170.95 197.18 171.89 C 193.05 167.75 188.13 164.41 182.45 162.81 C 182.56 171.58 183.99 180.24 183.54 189.03 C 183.00 192.67 184.82 197.33 180.93 199.62 C 180.28 197.83 179.41 195.97 180.05 194.04 C 180.99 190.01 179.88 185.97 179.67 181.94 C 179.89 176.56 177.16 171.18 179.68 166.00 C 177.53 160.16 177.52 153.85 175.17 148.04 C 173.69 148.36 172.21 148.67 170.73 148.96 C 171.73 147.20 172.90 145.53 173.64 143.64 C 173.83 139.61 173.74 135.52 173.07 131.53 C 171.73 133.70 171.29 136.60 168.96 138.01 C 168.75 137.58 168.34 136.71 168.13 136.28 C 169.47 132.99 171.13 129.83 172.41 126.52 C 173.00 123.42 172.69 120.24 172.79 117.11 C 171.33 116.01 169.90 114.87 168.52 113.69 C 170.12 113.08 171.73 112.50 173.37 111.97 C 174.11 106.63 174.63 101.28 174.88 95.89 Z" />
<path fill="#000000" opacity="1.00" d=" M 133.23 100.32 C 133.86 100.94 133.86 100.94 133.23 100.32 Z" />
<path fill="#000000" opacity="1.00" d=" M 121.00 103.17 C 122.40 102.67 122.85 103.13 122.36 104.54 C 120.94 105.02 120.49 104.57 121.00 103.17 Z" />
<path fill="#000000" opacity="1.00" d=" M 165.24 116.77 C 165.72 115.42 166.20 114.07 166.68 112.73 C 168.02 114.02 169.36 115.31 170.72 116.59 C 168.89 116.66 167.07 116.72 165.24 116.77 Z" />
<path fill="#000000" opacity="1.00" d=" M 129.12 147.04 C 132.01 145.43 129.46 150.42 129.12 147.04 Z" />
<path fill="#000000" opacity="1.00" d=" M 185.90 150.18 C 189.27 150.35 184.31 153.12 185.90 150.18 Z" />
<path fill="#000000" opacity="1.00" d=" M 82.24 151.23 C 82.83 151.84 82.83 151.84 82.24 151.23 Z" />
<path fill="#000000" opacity="1.00" d=" M 160.34 163.55 C 161.39 163.49 162.44 163.43 163.49 163.38 C 165.02 167.24 165.72 171.33 166.75 175.33 C 168.34 170.77 172.49 167.24 177.57 168.51 C 175.84 170.80 173.58 172.97 170.49 172.78 C 169.29 175.64 168.97 178.74 168.63 181.79 C 170.70 181.66 173.59 180.66 173.89 183.62 C 172.42 184.39 170.87 184.99 169.34 185.60 C 168.45 190.21 168.98 194.89 168.57 199.49 C 167.85 199.88 166.43 200.65 165.72 201.03 C 164.53 193.82 166.84 186.07 163.28 179.29 C 160.61 179.40 157.94 179.61 155.26 179.63 C 157.03 177.29 159.53 175.95 162.51 176.34 C 161.83 172.08 160.04 167.93 160.34 163.55 Z" />
</g>
</svg>
