<?xml version="1.0" encoding="UTF-8" ?>
<!DOCTYPE svg PUBLIC "-//W3C//DTD SVG 1.1//EN" "http://www.w3.org/Graphics/SVG/1.1/DTD/svg11.dtd">
<svg width="256pt" height="256pt" viewBox="0 0 256 256" version="1.1" xmlns="http://www.w3.org/2000/svg">
<g id="#000000ff">
<path fill="#000000" opacity="1.00" d=" M 107.33 72.20 C 108.62 72.61 109.94 73.17 110.45 74.54 C 112.43 78.29 115.03 81.62 117.82 84.79 C 119.76 82.40 121.95 80.22 124.35 78.30 C 126.77 76.47 128.40 73.77 131.05 72.25 C 133.74 76.41 134.09 81.48 134.77 86.25 C 135.23 90.54 136.30 94.73 136.97 98.99 C 141.52 97.92 146.32 97.53 150.57 95.45 C 151.38 96.50 152.18 97.55 153.00 98.60 C 154.78 98.23 156.54 97.81 158.34 97.53 C 159.01 96.66 159.35 95.33 160.58 95.09 C 160.08 96.03 159.58 96.97 159.07 97.90 C 160.35 98.56 161.68 99.17 163.07 99.61 C 163.63 98.48 164.22 97.37 164.82 96.27 C 165.69 97.41 166.56 98.56 167.42 99.71 C 168.35 98.72 169.00 97.53 169.58 96.30 C 170.22 96.17 171.52 95.89 172.17 95.76 C 172.08 95.25 171.92 94.23 171.83 93.72 C 172.43 94.94 173.03 96.15 173.69 97.34 C 174.37 96.73 175.03 96.11 175.68 95.47 C 175.62 96.10 175.49 97.36 175.43 97.99 C 177.54 98.49 179.71 98.52 181.87 98.68 C 183.69 99.84 185.39 101.18 187.13 102.47 C 187.66 101.26 188.20 100.06 188.75 98.87 C 192.12 100.32 193.64 104.03 196.99 105.51 C 197.66 105.04 198.33 104.58 199.01 104.12 C 201.78 105.70 204.66 107.08 207.59 108.34 C 210.13 110.21 212.66 112.09 215.40 113.68 C 215.35 116.74 216.27 119.70 216.36 122.75 C 216.63 125.62 215.34 128.33 215.14 131.18 C 213.25 132.60 211.44 134.13 209.47 135.44 C 204.57 138.24 198.27 137.52 193.86 141.29 C 189.97 142.23 185.94 142.85 182.89 145.69 C 185.72 145.64 188.89 145.12 190.96 147.54 C 187.48 148.30 183.98 148.97 180.48 149.63 C 180.82 148.26 181.15 146.88 181.47 145.51 C 180.89 146.89 180.51 148.35 179.77 149.66 C 177.96 151.33 175.22 150.12 173.23 151.35 C 170.06 153.18 166.45 153.77 162.99 154.80 C 161.88 155.88 161.69 157.57 160.99 158.91 C 159.53 158.56 158.21 157.88 156.97 157.06 C 155.81 157.56 154.66 157.17 153.63 156.59 C 153.47 157.66 153.29 158.73 153.11 159.80 C 151.33 159.65 149.55 159.50 147.77 159.41 C 147.04 157.98 146.21 156.61 145.32 155.29 C 138.47 157.36 131.59 159.36 124.72 161.34 C 118.86 161.60 112.91 162.04 107.44 164.30 C 101.07 166.81 94.09 164.76 87.62 166.77 C 75.61 168.10 63.36 166.99 51.61 164.15 C 47.79 163.06 45.15 159.78 41.49 158.35 C 36.62 156.39 31.71 153.73 26.33 154.70 C 25.11 149.78 29.17 146.05 33.23 144.20 C 35.83 143.38 35.79 140.41 36.43 138.22 C 36.56 135.70 39.47 135.28 41.15 134.05 C 42.16 134.37 43.17 134.69 44.18 135.02 C 45.03 132.46 46.06 129.91 47.70 127.74 C 51.32 126.45 54.44 124.18 57.86 122.50 C 58.17 121.31 58.47 120.13 58.79 118.95 C 62.93 117.98 66.56 115.62 69.73 112.86 C 70.26 113.04 71.32 113.39 71.84 113.56 C 71.85 112.96 71.85 111.74 71.85 111.13 C 74.86 110.33 77.91 109.70 80.90 108.86 C 82.21 110.18 82.94 111.85 83.14 113.69 C 87.44 115.81 90.79 120.04 95.88 120.28 C 101.64 121.75 107.34 123.54 113.18 124.72 C 118.52 124.55 123.59 126.26 128.78 127.22 C 131.03 127.69 132.77 129.70 135.18 129.53 C 136.89 129.49 138.46 130.17 140.04 130.73 C 137.08 129.47 134.95 127.10 132.68 124.95 C 125.91 122.86 118.50 122.41 112.39 118.57 C 108.02 116.23 103.33 114.57 99.04 112.08 C 95.92 110.12 92.08 111.60 88.84 110.04 C 87.34 111.05 86.19 113.32 84.12 112.71 C 82.13 108.05 87.95 105.88 90.21 102.76 C 91.51 103.55 92.58 104.63 93.39 105.92 C 97.64 104.70 102.10 104.28 106.23 102.65 C 109.07 101.71 111.34 104.05 113.75 105.12 C 119.73 107.95 125.88 110.48 131.48 114.05 C 131.02 111.34 131.35 108.61 131.75 105.92 C 129.94 106.18 128.42 107.15 126.96 108.18 C 125.85 107.04 124.84 105.81 123.91 104.54 C 120.39 104.39 116.67 105.59 113.47 103.63 C 105.55 101.44 99.30 95.61 91.40 93.37 C 90.80 91.18 91.28 88.95 91.84 86.82 C 95.11 86.07 98.22 84.86 101.24 83.43 C 104.32 83.04 107.43 83.40 110.50 82.95 C 107.87 79.96 107.08 76.08 107.33 72.20 M 120.62 87.10 C 123.46 91.34 126.49 95.56 127.94 100.53 C 128.81 100.45 130.56 100.30 131.44 100.23 C 130.37 93.25 131.27 86.13 129.84 79.18 C 126.33 81.29 123.71 84.47 120.62 87.10 M 106.86 86.83 C 104.67 87.82 101.07 87.20 99.96 89.60 C 104.91 90.55 109.03 93.53 113.59 95.46 C 116.56 96.79 119.24 98.61 122.03 100.25 C 120.54 93.95 114.07 90.90 111.65 85.07 C 110.14 82.32 108.82 87.10 106.86 86.83 M 137.89 103.82 C 136.45 108.29 138.82 112.52 141.30 116.09 C 142.98 113.05 143.95 109.68 145.30 106.49 C 145.43 105.29 146.32 103.70 145.29 102.70 C 142.77 101.93 140.30 103.24 137.89 103.82 M 151.33 102.26 C 149.19 105.72 148.46 109.74 147.44 113.61 C 146.57 116.74 143.54 119.64 145.01 123.06 C 146.02 121.71 146.96 120.33 147.93 118.96 C 150.51 114.92 155.21 112.89 157.90 108.93 C 159.17 107.08 160.75 105.46 161.92 103.55 C 158.44 102.76 154.92 102.14 151.33 102.26 M 165.88 103.61 C 164.05 106.78 162.27 110.04 159.64 112.64 C 157.32 115.33 153.98 117.01 152.10 120.09 C 150.82 122.18 149.57 124.30 148.60 126.56 C 148.43 127.91 147.97 129.96 149.89 130.15 C 152.20 127.96 153.02 124.65 155.44 122.56 C 158.13 120.21 160.38 117.28 163.75 115.83 C 168.93 113.50 172.94 108.45 173.01 102.64 C 170.68 103.25 168.30 103.71 165.88 103.61 M 175.44 102.49 C 177.71 108.14 175.42 115.09 169.98 117.97 C 162.43 121.53 157.00 128.27 152.67 135.18 C 156.45 132.51 158.98 128.45 162.91 125.96 C 166.89 122.60 171.69 120.56 176.25 118.15 C 181.30 115.69 184.27 109.93 183.70 104.39 C 180.96 103.69 178.19 103.12 175.44 102.49 M 99.62 108.95 C 104.02 110.92 108.00 113.70 112.51 115.43 C 119.03 119.41 126.85 119.82 134.06 121.83 C 129.97 117.45 125.23 113.71 119.67 111.39 C 115.91 110.03 112.78 107.35 108.96 106.18 C 105.77 106.80 102.68 107.88 99.62 108.95 M 187.44 106.26 C 187.52 109.51 188.20 113.22 185.84 115.89 C 184.02 119.31 180.61 121.22 178.01 123.94 C 181.28 122.85 184.54 121.46 187.07 119.05 C 189.87 115.71 191.62 111.67 193.73 107.90 C 192.12 105.98 189.70 106.20 187.44 106.26 M 197.38 110.15 C 195.51 115.34 192.51 120.02 189.47 124.58 C 186.32 125.51 182.97 128.20 179.68 126.63 C 179.19 127.48 178.69 128.32 178.17 129.15 C 175.68 129.79 173.15 130.47 170.95 131.85 C 175.66 130.65 179.94 128.08 184.83 127.53 C 192.92 125.42 201.83 122.01 205.52 113.81 C 204.12 110.70 200.41 110.20 197.38 110.15 M 70.55 118.33 C 75.13 125.51 83.91 128.06 91.99 128.38 C 94.44 128.57 97.29 128.09 99.13 130.09 C 101.98 128.94 105.25 130.18 108.00 128.85 C 109.45 131.23 112.61 130.72 115.00 130.84 C 122.15 129.98 128.83 133.15 135.50 135.15 C 138.50 135.43 141.27 136.59 144.06 137.65 C 139.86 135.77 136.26 132.68 131.70 131.66 C 126.27 129.25 120.45 128.06 114.56 127.56 C 109.64 125.24 103.97 126.01 98.99 123.94 C 96.78 123.02 94.41 122.63 92.07 122.19 C 86.91 120.25 82.66 116.41 77.88 113.82 C 75.26 115.05 71.83 115.35 70.55 118.33 M 204.77 120.78 C 201.84 125.11 196.67 126.92 192.09 128.95 C 184.57 131.14 177.03 133.47 170.02 137.01 C 166.09 140.09 161.84 142.70 157.42 145.01 C 157.75 145.96 158.08 146.91 158.40 147.87 C 161.51 147.65 164.22 146.09 166.97 144.78 C 165.15 144.52 163.41 143.98 161.81 143.08 C 165.49 140.26 170.54 142.42 174.64 140.72 C 179.58 138.60 184.42 135.76 189.94 135.55 C 195.43 134.71 201.35 135.60 206.31 132.61 C 206.10 131.44 205.52 130.26 205.81 129.05 C 207.14 124.40 207.52 119.55 208.87 114.91 C 207.58 116.92 206.27 118.92 204.77 120.78 M 69.24 122.92 C 69.43 124.69 72.48 125.09 73.93 125.59 C 73.79 123.88 70.91 121.94 69.24 122.92 M 63.43 124.87 C 60.98 127.43 57.59 128.74 54.98 131.12 C 58.00 133.51 61.42 135.66 65.26 136.35 C 75.58 136.84 85.65 141.93 96.06 138.99 C 105.21 136.74 114.87 135.35 124.17 137.58 C 130.52 138.01 136.12 140.97 141.58 143.95 C 136.89 137.97 128.47 137.50 121.76 135.07 C 110.55 133.21 99.02 135.76 87.85 133.39 C 79.03 133.01 71.28 128.38 63.43 124.87 M 175.29 123.98 C 173.87 124.28 174.16 126.87 175.74 126.01 C 177.18 125.70 176.90 123.10 175.29 123.98 M 51.00 138.07 C 49.81 140.12 47.11 141.08 47.01 143.72 C 53.31 145.69 59.97 145.93 66.32 147.70 C 69.59 148.41 72.99 147.89 76.26 148.61 C 82.06 150.00 88.05 148.92 93.93 149.46 C 99.98 145.06 107.73 145.05 114.82 143.88 C 120.08 142.46 125.55 142.80 130.92 142.23 C 124.10 140.86 117.04 139.30 109.99 139.52 C 101.93 140.58 94.08 142.90 85.93 143.20 C 78.86 142.50 72.08 140.08 64.99 139.62 C 61.19 139.63 58.30 136.79 54.91 135.51 C 53.08 135.32 51.83 136.63 51.00 138.07 M 40.16 139.19 C 38.84 139.66 38.76 141.75 40.11 142.24 C 42.42 143.47 42.38 138.06 40.16 139.19 M 144.04 147.58 C 141.87 147.10 139.71 146.39 137.47 146.51 C 129.64 146.72 121.79 146.13 113.99 146.92 C 107.66 148.07 101.27 148.99 95.17 151.11 C 86.44 154.94 76.99 150.85 67.93 151.49 C 66.38 151.20 65.26 152.24 64.14 153.12 C 64.62 152.58 65.58 151.51 66.06 150.97 C 61.27 149.30 56.17 148.86 51.30 147.47 C 47.54 146.23 43.41 146.92 39.99 144.69 C 40.89 145.89 41.92 146.98 42.96 148.07 C 41.85 149.95 40.39 151.57 38.87 153.12 C 39.50 153.75 40.13 154.38 40.76 155.01 C 41.96 153.55 43.21 152.09 44.81 151.05 C 45.67 153.05 46.18 155.17 46.63 157.30 C 47.94 158.11 49.27 158.88 50.64 159.60 C 50.98 160.74 51.34 161.88 51.70 163.02 C 51.57 162.16 51.33 160.45 51.21 159.59 C 57.40 161.06 63.79 160.14 70.04 161.07 C 72.18 161.46 74.33 161.03 76.48 161.04 C 76.40 161.55 76.25 162.56 76.17 163.07 C 73.60 164.38 70.52 163.58 67.86 164.76 C 71.80 165.19 75.62 163.96 79.51 163.65 C 79.11 163.51 78.31 163.24 77.91 163.10 C 76.55 159.56 81.69 162.15 83.54 161.22 C 88.74 159.13 94.38 159.58 99.84 159.08 C 102.63 157.48 105.73 155.91 109.05 156.51 C 111.31 157.10 113.05 155.23 115.00 154.46 C 117.29 154.70 120.12 154.76 121.26 157.17 C 119.89 157.58 118.53 157.98 117.16 158.37 C 118.68 158.64 120.19 158.98 121.70 159.33 C 124.29 157.47 127.10 155.88 130.16 154.95 C 135.43 153.62 139.94 150.49 144.97 148.54 C 147.54 149.60 150.33 149.72 153.07 149.81 C 151.36 147.45 149.27 145.41 147.21 143.36 C 146.17 144.77 145.09 146.17 144.04 147.58 M 35.18 151.05 C 34.94 151.34 34.45 151.90 34.21 152.18 C 35.06 155.15 38.62 150.26 35.18 151.05 M 43.29 154.26 C 41.45 154.79 42.30 157.69 44.15 157.13 C 46.27 156.77 45.16 153.58 43.29 154.26 M 65.21 163.00 C 65.43 166.38 68.09 161.43 65.21 163.00 Z" />
<path fill="#000000" opacity="1.00" d=" M 78.18 117.26 C 78.97 116.03 81.73 116.98 80.53 118.44 C 79.72 119.52 76.89 118.74 78.18 117.26 Z" />
<path fill="#000000" opacity="1.00" d=" M 160.23 160.52 C 161.92 157.44 165.56 157.42 168.60 157.19 C 167.19 160.48 163.38 160.97 160.23 160.52 Z" />
<path fill="#000000" opacity="1.00" d=" M 158.29 160.09 C 159.67 159.50 160.08 159.97 159.54 161.49 C 158.13 162.03 157.71 161.56 158.29 160.09 Z" />
<path fill="#000000" opacity="1.00" d=" M 148.95 161.67 C 151.33 161.82 153.48 160.75 155.74 160.19 C 155.86 161.90 155.23 164.11 153.08 163.77 C 148.50 163.90 144.20 165.81 139.96 167.42 C 138.11 168.00 134.54 166.17 134.09 168.75 C 136.64 168.75 139.33 167.87 141.76 168.98 C 142.29 168.44 142.81 167.91 143.34 167.37 C 144.56 167.48 145.79 167.61 147.01 167.82 C 146.85 168.45 146.54 169.69 146.38 170.32 C 139.59 170.44 131.66 174.17 125.97 168.72 C 129.34 167.36 133.06 167.17 135.85 164.54 C 140.60 166.09 144.28 161.54 148.95 161.67 Z" />
<path fill="#000000" opacity="1.00" d=" M 153.09 166.45 C 154.90 167.76 157.10 167.65 159.22 167.53 C 156.59 169.02 153.79 170.41 150.71 170.53 C 151.45 169.14 152.27 167.80 153.09 166.45 Z" />
<path fill="#000000" opacity="1.00" d=" M 147.94 167.25 C 149.33 166.11 150.51 168.56 149.34 169.47 C 147.93 170.60 146.62 168.15 147.94 167.25 Z" />
</g>
</svg>
