<?xml version="1.0" encoding="UTF-8" ?>
<!DOCTYPE svg PUBLIC "-//W3C//DTD SVG 1.1//EN" "http://www.w3.org/Graphics/SVG/1.1/DTD/svg11.dtd">
<svg width="256pt" height="128pt" viewBox="0 0 256 128" version="1.1" xmlns="http://www.w3.org/2000/svg">
<g id="#000000ff">
<path fill="#000000" opacity="1.00" d=" M 138.06 16.03 C 140.77 11.38 144.51 7.18 149.56 5.02 C 154.67 11.51 151.28 19.85 148.75 26.65 C 145.41 33.00 141.61 39.36 136.00 43.99 C 132.18 47.29 127.40 49.11 123.09 51.65 C 118.79 47.96 113.24 53.36 108.82 50.19 C 107.53 48.63 108.31 46.51 108.17 44.69 C 105.45 46.80 103.07 49.68 99.48 50.27 C 99.40 49.28 99.23 47.31 99.15 46.33 C 95.17 47.79 91.24 51.29 86.81 50.17 C 87.52 44.75 90.27 39.99 92.29 35.01 C 90.77 34.96 88.68 33.84 87.76 35.68 C 84.28 40.51 79.44 44.90 73.55 46.39 C 73.56 45.81 73.56 44.65 73.57 44.08 C 76.49 41.80 79.96 40.25 82.63 37.63 C 84.77 35.69 85.97 33.02 87.34 30.54 C 90.50 31.51 96.26 32.24 95.28 36.85 C 93.69 40.11 91.24 42.91 90.09 46.39 C 95.67 44.68 101.64 43.10 105.99 38.98 C 108.12 37.09 110.54 35.59 113.06 34.30 C 113.55 34.79 114.52 35.77 115.01 36.26 C 113.59 39.90 111.97 43.45 110.71 47.15 C 114.18 48.41 117.77 46.90 121.10 45.91 C 123.71 45.23 125.45 43.07 127.48 41.46 C 129.56 39.76 132.23 39.09 134.70 38.18 C 131.29 30.96 133.84 22.36 138.06 16.03 M 136.18 28.06 C 135.56 31.34 134.66 35.51 137.73 37.88 C 141.03 34.02 144.12 29.94 146.29 25.33 C 148.57 20.21 150.87 14.40 149.20 8.76 C 142.33 12.85 137.88 20.37 136.18 28.06 Z" />
<path fill="#000000" opacity="1.00" d=" M 34.46 9.97 C 34.32 8.32 35.32 6.19 37.23 6.30 C 54.42 5.92 71.60 8.56 88.78 7.65 C 90.46 8.15 92.11 8.87 93.91 8.74 C 101.56 8.74 109.19 9.46 116.84 9.39 C 118.50 9.05 118.68 11.07 119.30 12.08 C 113.98 13.44 108.46 12.21 103.05 12.40 C 98.65 12.55 94.33 11.66 89.97 11.38 C 88.68 12.01 88.38 13.58 87.65 14.69 C 81.90 26.27 74.01 36.59 68.15 48.09 C 67.05 50.19 65.95 52.34 64.09 53.88 C 61.55 51.37 59.89 48.08 57.03 45.88 C 55.46 45.02 55.38 43.24 55.71 41.67 C 59.10 43.41 61.23 46.69 63.98 49.20 C 69.58 37.75 77.22 27.49 83.41 16.37 C 84.35 14.86 84.90 13.15 85.04 11.38 C 68.90 10.88 52.79 8.95 36.64 8.94 C 37.49 13.15 42.44 14.13 46.05 14.68 C 51.69 15.92 57.31 14.19 62.96 14.08 C 62.93 14.54 62.88 15.46 62.85 15.92 C 56.31 18.21 49.07 17.96 42.40 16.37 C 39.00 15.55 35.53 13.50 34.46 9.97 Z" />
<path fill="#000000" opacity="1.00" d=" M 168.17 27.16 C 166.60 25.27 166.79 22.75 168.86 21.33 C 169.95 23.11 172.19 27.95 168.17 27.16 Z" />
<path fill="#000000" opacity="1.00" d=" M 181.05 43.04 C 184.60 37.34 190.38 32.89 197.04 31.61 C 200.31 38.30 194.03 44.14 192.18 50.23 C 188.86 53.38 187.08 57.68 184.25 61.22 C 180.01 66.47 176.21 72.03 171.91 77.23 C 171.07 76.28 169.46 75.53 169.74 74.01 C 169.65 63.34 176.70 53.58 186.30 49.29 C 188.85 48.43 190.63 46.33 191.25 43.73 C 188.05 44.86 185.42 47.31 182.00 47.88 C 179.16 48.37 176.43 49.90 173.51 49.61 C 170.92 48.52 172.56 45.17 172.25 43.10 C 168.57 44.11 165.98 46.90 163.20 49.31 C 162.55 50.07 160.82 49.64 160.52 48.72 C 160.47 47.26 160.83 45.82 160.98 44.38 C 156.94 46.51 152.92 48.68 148.80 50.66 C 148.02 49.62 146.68 48.61 147.43 47.17 C 148.82 43.30 150.39 39.06 153.74 36.47 C 153.94 37.37 154.35 39.16 154.56 40.06 C 153.37 41.73 152.11 43.36 151.23 45.21 C 156.02 43.27 160.54 40.73 165.01 38.14 C 166.43 38.23 166.43 40.38 167.28 41.28 C 169.80 40.22 172.13 38.38 175.01 38.51 C 175.35 41.03 175.42 43.57 175.24 46.10 C 177.29 45.35 179.95 45.26 181.05 43.04 M 185.70 42.23 C 189.12 40.71 193.60 39.58 195.42 36.07 C 191.64 37.04 187.95 38.93 185.70 42.23 M 173.61 69.53 C 178.08 64.87 181.83 59.51 185.30 54.07 C 179.07 56.77 174.53 62.82 173.61 69.53 Z" />
<path fill="#000000" opacity="1.00" d=" M 116.35 56.26 C 123.65 56.33 131.27 54.91 138.27 57.63 C 144.37 59.70 151.27 60.31 156.33 64.67 C 161.05 68.24 164.17 74.90 161.75 80.65 C 159.23 85.44 154.50 88.70 149.57 90.67 C 145.75 92.27 141.37 93.19 137.40 91.55 C 135.30 90.65 131.86 89.64 132.56 86.68 C 136.10 86.86 139.24 89.48 142.91 88.94 C 148.84 88.12 154.43 84.84 158.18 80.22 C 161.72 74.55 156.72 68.02 151.72 65.31 C 140.24 59.47 126.92 57.47 114.18 59.07 C 108.03 60.08 101.73 61.89 96.71 65.71 C 93.80 67.91 92.91 72.60 95.80 75.20 C 102.02 80.81 110.88 80.98 118.76 81.59 C 120.24 81.44 122.10 83.30 120.99 84.68 C 115.35 84.96 109.74 84.03 104.25 82.86 C 99.19 81.83 94.21 78.95 91.73 74.30 C 89.84 70.09 92.80 65.64 95.98 63.01 C 102.04 59.05 109.09 56.62 116.35 56.26 Z" />
<path fill="#000000" opacity="1.00" d=" M 132.69 75.69 C 133.69 73.28 134.54 70.78 135.98 68.59 C 136.35 69.87 137.01 71.21 136.46 72.55 C 133.78 81.94 127.77 89.77 123.20 98.26 C 121.31 101.74 120.43 105.92 117.33 108.61 C 115.12 105.13 111.08 102.24 110.88 97.88 L 111.86 97.56 C 114.03 99.18 115.48 101.55 117.30 103.52 C 119.42 99.85 121.29 96.04 123.30 92.31 C 126.36 86.73 130.29 81.61 132.69 75.69 Z" />
<path fill="#000000" opacity="1.00" d=" M 200.17 71.89 C 201.87 71.43 203.62 73.18 202.90 74.87 C 202.18 76.72 201.19 78.45 200.46 80.29 C 203.68 80.60 206.89 80.28 210.06 79.71 C 214.64 79.51 219.22 79.28 223.70 78.23 C 223.95 78.97 224.44 80.44 224.68 81.18 C 216.87 84.88 207.73 82.91 199.43 84.54 C 197.70 85.46 196.97 87.41 196.02 89.00 C 194.08 92.69 191.48 96.15 190.66 100.32 C 194.80 99.73 198.00 96.85 201.54 94.89 C 201.66 96.16 201.77 97.43 201.87 98.69 C 198.15 101.80 193.95 104.73 189.06 105.49 C 185.67 105.03 186.78 101.25 186.72 98.90 C 183.83 100.90 180.68 102.51 177.25 103.34 C 173.97 103.93 171.79 108.24 168.20 107.09 C 166.05 105.02 163.45 101.37 165.73 98.53 C 167.62 99.39 169.60 101.11 171.78 100.06 C 174.39 99.72 174.18 96.68 174.32 94.73 C 168.45 95.33 162.49 95.77 156.80 97.42 C 156.69 102.54 153.31 106.64 149.21 109.34 C 148.31 107.83 147.01 106.14 148.07 104.35 C 150.05 99.25 152.83 93.45 158.23 91.30 C 159.52 90.84 160.80 91.82 162.10 91.90 C 166.79 91.91 171.41 91.04 175.97 90.04 C 177.54 92.93 177.51 96.22 177.34 99.41 C 184.79 97.52 190.93 91.56 193.90 84.57 C 190.19 84.66 186.42 85.05 183.01 86.62 C 180.35 86.37 177.69 86.09 175.05 85.69 C 173.28 83.73 176.23 81.86 178.06 81.86 C 183.92 81.60 189.79 81.25 195.61 80.48 C 198.22 78.39 198.49 74.64 200.17 71.89 Z" />
</g>
</svg>
