<?xml version="1.0" encoding="UTF-8" ?>
<!DOCTYPE svg PUBLIC "-//W3C//DTD SVG 1.1//EN" "http://www.w3.org/Graphics/SVG/1.1/DTD/svg11.dtd">
<svg width="256pt" height="256pt" viewBox="0 0 256 256" version="1.1" xmlns="http://www.w3.org/2000/svg">
<g id="#000000ff">
<path fill="#000000" opacity="1.00" d=" M 114.27 29.31 C 114.59 27.57 116.21 26.41 117.14 24.97 C 118.84 26.92 118.87 29.59 119.10 32.03 C 119.44 41.37 120.17 50.70 120.70 60.04 C 120.79 61.77 120.62 64.44 118.15 63.35 C 116.21 61.43 116.18 58.58 115.85 56.06 C 115.82 47.12 114.01 38.27 114.27 29.31 Z" />
<path fill="#000000" opacity="1.00" d=" M 134.20 64.05 C 135.00 60.93 135.29 57.63 136.89 54.78 C 140.50 57.08 138.92 61.44 137.68 64.64 C 135.55 68.52 130.71 69.13 126.95 70.62 C 129.50 73.19 130.25 76.72 131.25 80.06 C 130.49 84.34 128.43 88.30 127.78 92.63 C 130.42 93.81 131.79 96.33 133.49 98.49 C 134.67 100.15 137.20 99.95 138.24 101.77 C 142.12 107.15 142.50 113.92 143.98 120.16 C 145.16 128.17 145.03 136.52 147.61 144.23 C 147.72 146.13 147.74 148.04 147.79 149.95 C 148.56 150.58 149.31 151.23 150.03 151.93 C 151.07 156.06 151.46 160.32 152.01 164.53 C 151.26 164.54 149.76 164.56 149.01 164.57 C 147.91 161.24 147.66 157.74 147.17 154.30 C 145.48 157.57 145.05 161.65 141.99 164.08 C 141.68 163.53 141.05 162.44 140.73 161.89 C 141.34 157.51 144.02 153.46 144.13 149.00 C 142.66 142.62 141.38 136.21 141.26 129.64 C 139.79 123.72 139.62 117.66 138.94 111.64 C 138.44 113.92 138.36 116.31 137.48 118.48 C 130.70 129.51 132.57 143.30 127.86 155.04 C 128.47 159.00 128.48 163.01 128.10 167.00 C 127.50 172.01 128.38 177.03 128.14 182.05 C 128.01 188.10 129.69 193.96 130.02 199.97 C 130.20 203.52 131.02 207.26 129.20 210.56 C 126.16 211.07 125.62 207.15 124.92 204.97 C 124.70 198.26 123.40 191.66 123.52 184.94 C 122.80 175.41 124.27 165.84 123.12 156.33 C 122.02 155.83 120.90 155.40 119.76 155.02 C 119.82 145.03 117.86 135.12 114.17 125.85 C 113.40 122.41 111.73 119.31 109.55 116.56 C 107.89 121.72 109.29 127.32 107.20 132.33 C 105.50 138.47 105.55 144.84 104.53 151.09 C 107.98 153.87 110.74 158.74 110.17 163.15 C 109.64 163.29 108.56 163.57 108.02 163.71 C 105.82 160.94 105.74 157.02 103.20 154.43 C 102.56 158.66 104.94 163.63 102.10 167.25 C 98.74 164.80 99.82 160.47 99.58 156.93 C 99.87 152.91 102.01 149.19 101.47 145.07 C 102.32 136.36 103.18 127.63 103.42 118.88 C 103.89 115.09 103.22 111.13 104.55 107.48 C 105.21 105.67 107.35 105.59 108.97 105.38 C 108.09 104.92 107.22 104.46 106.36 104.00 C 110.34 101.34 114.02 98.30 117.35 94.87 C 118.29 88.31 111.20 83.64 111.55 77.04 C 111.79 75.23 112.78 73.65 113.58 72.04 C 108.21 70.11 105.10 64.59 103.01 59.59 C 103.58 58.93 104.71 57.60 105.27 56.94 C 107.60 60.50 109.28 64.52 112.10 67.78 C 113.48 68.40 115.03 68.48 116.50 68.82 C 116.79 68.21 117.36 66.99 117.65 66.38 C 120.49 66.89 123.61 65.95 126.07 67.84 C 128.64 66.29 131.35 64.99 134.20 64.05 M 118.52 71.58 C 118.28 72.16 117.81 73.32 117.57 73.90 C 119.42 73.61 121.25 73.25 123.03 72.65 C 123.91 73.74 124.80 74.83 125.69 75.92 C 125.27 77.86 124.89 79.81 124.40 81.73 C 122.37 80.49 120.22 80.13 118.05 81.21 C 117.10 79.58 116.28 77.82 114.80 76.59 C 116.13 80.29 118.09 83.74 119.89 87.23 C 121.44 90.41 120.77 94.29 123.14 97.09 C 122.99 91.42 125.63 86.18 127.50 80.96 C 126.87 77.01 124.82 73.27 122.20 70.23 C 120.97 70.68 119.75 71.13 118.52 71.58 M 125.63 98.47 C 123.68 99.05 121.36 99.25 120.65 101.47 C 120.72 99.76 119.29 98.95 117.81 98.64 C 118.27 104.05 114.27 108.39 111.61 112.72 C 115.98 118.03 118.83 124.59 119.77 131.40 C 120.70 132.67 121.84 133.78 122.93 134.92 C 123.15 133.69 123.36 132.45 123.56 131.21 C 122.59 130.48 121.59 129.77 120.61 129.06 C 122.24 122.98 117.71 117.96 115.41 112.76 C 115.78 112.39 116.53 111.66 116.91 111.29 C 119.64 112.73 121.33 115.34 122.68 118.01 C 123.86 113.70 125.18 109.17 128.07 105.67 C 128.71 105.63 129.99 105.55 130.63 105.52 C 129.31 109.90 127.43 114.10 126.45 118.58 C 127.27 118.54 128.90 118.45 129.72 118.41 C 128.71 123.86 126.44 129.00 126.10 134.61 C 124.97 136.34 127.36 135.70 128.17 136.04 C 129.09 131.24 129.33 126.13 131.79 121.79 C 132.62 121.21 133.48 120.67 134.37 120.17 C 133.97 114.57 136.98 108.55 133.62 103.37 C 130.79 100.96 128.61 97.97 126.78 94.75 C 126.39 95.99 126.01 97.23 125.63 98.47 M 125.78 137.09 C 125.04 138.92 123.88 140.52 122.86 142.21 C 122.25 145.22 122.85 148.35 123.97 151.17 C 126.12 146.76 127.06 141.96 127.43 137.10 C 127.02 137.10 126.19 137.09 125.78 137.09 Z" />
<path fill="#000000" opacity="1.00" d=" M 93.36 192.42 C 98.08 186.92 106.11 186.25 112.76 187.90 C 116.58 189.49 119.33 192.99 119.55 197.19 C 118.16 196.81 117.10 196.03 116.37 194.84 C 113.53 190.39 107.12 189.12 102.50 191.33 C 100.05 191.87 97.28 192.89 96.35 195.46 C 95.94 197.39 95.26 199.39 95.54 201.38 C 98.38 203.48 102.09 203.57 105.27 204.91 C 101.84 208.34 96.24 205.62 93.41 202.60 C 92.71 201.25 90.53 199.19 92.60 198.11 C 92.50 196.18 91.80 193.97 93.36 192.42 Z" />
<path fill="#000000" opacity="1.00" d=" M 153.56 193.58 C 158.97 192.51 164.52 192.47 170.01 192.18 C 177.43 191.70 184.36 202.38 177.97 207.87 C 177.13 204.16 177.21 199.55 173.96 196.98 C 167.63 193.65 160.98 197.96 154.58 198.76 C 147.84 199.46 142.40 203.88 136.13 206.07 C 141.33 201.14 146.57 195.83 153.56 193.58 Z" />
<path fill="#000000" opacity="1.00" d=" M 102.24 197.68 C 102.89 197.61 104.18 197.47 104.83 197.40 C 105.61 198.66 107.06 199.84 106.46 201.48 C 103.82 202.40 103.32 199.34 102.24 197.68 Z" />
<path fill="#000000" opacity="1.00" d=" M 156.41 205.80 C 160.15 206.16 163.68 205.12 167.20 204.06 C 166.83 206.06 168.49 207.09 169.90 208.11 C 165.83 211.81 159.91 213.93 154.50 212.36 C 152.47 210.89 150.74 209.08 149.05 207.26 C 152.01 208.45 154.60 211.08 158.00 210.71 C 161.74 211.10 164.74 207.56 168.58 208.86 C 167.84 207.83 167.11 206.78 166.40 205.74 C 163.38 207.44 159.96 207.78 156.56 207.68 C 156.52 207.21 156.45 206.27 156.41 205.80 Z" />
<path fill="#000000" opacity="1.00" d=" M 94.16 214.15 C 96.72 212.16 99.95 211.24 102.53 209.25 C 102.46 210.10 102.40 210.95 102.34 211.81 C 97.20 213.38 93.05 218.88 94.67 224.33 C 96.76 227.16 100.80 227.25 104.03 227.49 C 107.79 225.60 110.70 222.41 114.34 220.31 C 117.83 218.41 120.78 215.05 125.03 215.03 C 124.76 218.46 121.31 220.00 119.06 222.08 C 115.83 225.00 112.01 227.09 108.39 229.46 C 105.92 231.16 102.83 230.68 100.02 230.64 C 95.73 230.24 90.92 226.86 91.27 222.11 C 91.55 219.30 92.73 216.57 94.16 214.15 Z" />
<path fill="#000000" opacity="1.00" d=" M 134.47 217.99 C 133.85 215.04 132.72 212.18 132.67 209.14 C 133.70 214.93 140.46 220.79 146.36 217.59 C 145.07 218.61 143.77 219.61 142.58 220.74 C 140.98 220.52 139.39 220.24 137.79 220.00 C 138.77 221.25 139.77 222.50 140.75 223.75 C 139.80 224.52 138.85 225.31 137.93 226.12 C 138.95 225.47 139.97 224.81 140.97 224.13 C 145.84 230.48 154.93 231.12 161.71 227.65 C 161.59 226.45 161.45 225.26 161.33 224.06 C 162.58 224.27 163.84 224.48 165.10 224.69 C 165.18 223.49 165.26 222.28 165.35 221.08 C 163.65 220.08 162.04 218.86 161.28 216.97 C 163.56 215.74 165.85 218.22 167.94 218.98 C 170.60 219.98 172.56 223.09 171.19 225.78 C 168.11 228.62 165.45 232.13 161.44 233.71 C 156.84 236.10 151.40 235.16 146.84 233.15 C 142.18 231.20 135.98 230.14 133.93 224.85 C 132.78 222.58 134.84 220.31 134.47 217.99 Z" />
</g>
</svg>
