<?xml version="1.0" encoding="UTF-8" ?>
<!DOCTYPE svg PUBLIC "-//W3C//DTD SVG 1.1//EN" "http://www.w3.org/Graphics/SVG/1.1/DTD/svg11.dtd">
<svg width="256pt" height="256pt" viewBox="0 0 256 256" version="1.1" xmlns="http://www.w3.org/2000/svg">
<g id="#000000ff">
<path fill="#000000" opacity="1.00" d=" M 108.05 47.14 C 112.48 43.89 117.01 39.27 122.92 39.74 C 126.87 41.95 131.04 44.35 133.47 48.33 C 136.58 48.30 140.30 49.72 140.63 53.26 C 140.83 57.89 139.35 62.42 138.33 66.89 C 139.79 71.83 139.65 77.00 140.37 82.06 C 140.32 85.41 141.39 88.91 140.03 92.13 C 138.65 90.60 136.61 89.26 136.58 86.97 C 136.01 82.60 136.42 78.18 136.11 73.80 C 133.72 78.16 132.91 83.15 130.77 87.62 C 129.72 89.12 130.88 90.75 131.28 92.25 C 131.58 89.32 131.80 86.37 132.68 83.54 C 134.90 85.58 135.40 88.66 136.72 91.25 C 138.37 95.25 140.84 98.88 142.00 103.08 C 145.03 114.01 149.67 124.38 153.47 135.04 C 151.66 136.22 149.87 137.44 148.04 138.61 C 144.47 130.43 142.03 121.84 139.97 113.18 C 138.28 109.43 137.50 105.44 136.30 101.55 C 136.33 108.76 137.73 115.90 138.23 123.09 C 139.29 128.98 139.62 135.14 142.22 140.63 C 143.93 148.95 142.44 157.70 145.02 165.89 C 145.96 169.68 146.16 173.60 146.44 177.49 C 142.81 178.50 139.63 175.72 136.05 175.84 C 132.85 175.93 129.67 175.67 126.49 175.54 C 126.48 181.60 127.46 187.62 127.22 193.68 C 128.84 195.95 131.83 196.97 133.87 198.92 C 133.45 199.64 132.61 201.10 132.19 201.82 C 129.11 200.65 126.19 199.13 123.16 197.86 C 121.82 197.40 120.84 196.36 120.31 195.08 C 121.04 194.05 121.98 193.22 123.13 192.60 C 122.59 186.64 122.28 180.66 121.56 174.72 C 118.87 174.21 116.13 174.24 113.41 174.44 C 114.33 180.14 114.39 185.92 115.12 191.64 C 116.48 191.97 117.83 192.31 119.18 192.67 C 118.42 194.00 117.79 195.59 116.28 196.25 C 113.19 197.82 110.25 199.71 107.08 201.10 C 105.99 200.50 104.63 199.76 105.27 198.30 C 106.71 196.22 108.81 194.72 110.79 193.20 C 108.93 187.52 108.77 181.52 108.19 175.63 C 106.39 175.44 104.47 175.36 103.12 173.98 C 100.45 171.67 96.56 172.37 93.58 170.90 C 93.88 163.22 95.70 155.70 96.17 148.03 C 96.28 145.13 95.77 142.03 97.27 139.38 C 100.05 133.25 99.45 126.34 101.05 119.91 C 102.00 116.64 101.74 113.21 101.26 109.89 C 101.79 107.74 102.71 105.72 103.36 103.61 C 99.80 110.28 95.60 116.64 92.90 123.75 C 90.93 129.52 89.66 135.51 87.64 141.27 C 86.46 140.72 84.03 140.93 84.23 139.05 C 84.53 136.45 84.74 133.83 85.14 131.25 C 88.14 122.64 92.03 114.37 96.39 106.39 C 99.25 102.44 100.99 97.84 103.74 93.83 C 105.35 91.45 107.00 88.92 107.43 86.03 C 106.85 84.40 105.88 82.95 104.78 81.64 C 104.29 85.75 104.45 89.95 103.40 93.99 C 102.66 93.68 101.16 93.06 100.42 92.75 C 99.04 85.43 99.11 77.92 99.42 70.51 C 99.25 67.47 101.56 65.15 101.98 62.23 C 103.22 57.02 103.23 50.52 108.05 47.14 M 121.35 42.68 C 121.77 43.24 122.61 44.37 123.03 44.93 C 121.85 49.10 117.43 50.20 114.00 51.90 C 113.89 48.58 117.28 47.38 119.22 45.30 C 115.46 47.77 110.91 49.48 108.02 52.99 C 106.02 58.71 108.84 64.74 108.95 70.58 C 108.09 70.63 106.36 70.74 105.49 70.79 C 106.24 71.05 107.75 71.57 108.50 71.82 C 108.44 74.72 108.60 77.61 108.64 80.51 C 109.28 81.08 109.92 81.65 110.56 82.22 C 109.23 78.92 108.77 75.37 108.79 71.82 C 110.94 73.27 111.86 75.65 112.75 77.97 C 113.30 77.86 114.41 77.63 114.96 77.51 C 115.29 79.84 115.48 82.61 118.58 82.22 C 117.39 79.14 115.89 76.09 117.12 72.75 C 118.88 72.95 120.61 73.36 122.30 73.90 C 121.39 78.03 118.80 82.96 121.32 86.87 C 121.45 82.72 124.42 79.25 123.86 75.01 C 123.17 72.67 125.74 72.18 127.22 71.17 C 127.33 74.28 127.60 77.40 127.29 80.51 C 126.12 84.10 123.94 88.31 119.52 87.97 C 119.16 86.35 118.77 84.74 118.42 83.12 C 117.90 83.11 116.87 83.09 116.36 83.07 C 116.30 87.81 116.61 92.54 116.30 97.27 C 120.16 97.85 124.03 98.48 127.94 98.59 C 127.65 93.58 126.31 88.29 128.18 83.43 C 131.58 77.60 131.06 70.28 134.48 64.47 C 137.21 61.38 136.84 57.07 137.71 53.30 C 137.04 52.55 136.37 51.81 135.70 51.07 C 134.24 51.39 132.79 51.73 131.34 52.04 C 128.60 48.35 125.24 45.13 121.35 42.68 M 111.46 86.08 C 110.41 90.85 110.69 95.81 109.45 100.55 C 106.35 105.34 108.61 111.30 106.75 116.50 C 104.68 122.28 104.84 128.51 103.53 134.46 C 101.13 145.60 102.96 157.55 98.04 168.13 C 104.71 169.85 111.44 172.50 118.43 170.74 C 118.81 166.77 119.26 162.81 119.75 158.85 C 124.18 161.62 122.10 167.38 122.09 171.71 C 124.47 171.86 126.85 172.15 129.24 172.33 C 128.49 165.30 127.26 158.32 126.53 151.29 C 124.68 143.31 125.72 135.05 124.75 126.98 C 124.59 122.42 124.07 117.83 124.63 113.29 C 125.85 114.13 127.54 114.80 127.59 116.53 C 129.09 123.94 127.98 131.61 129.13 139.08 C 129.81 147.22 130.51 155.38 131.75 163.47 C 132.73 166.28 132.82 169.24 132.70 172.19 C 135.95 171.74 139.12 172.51 142.20 173.46 C 140.91 167.70 140.56 161.80 139.73 155.97 C 139.57 147.12 136.96 138.62 135.76 129.90 C 134.25 120.36 132.55 110.82 132.11 101.14 C 131.42 106.00 126.34 107.68 122.50 109.48 C 119.52 110.76 116.82 108.18 114.43 106.76 C 115.36 110.79 115.56 114.93 114.84 119.01 C 114.27 128.36 114.44 137.78 112.83 147.04 C 111.42 153.47 110.47 159.99 109.15 166.44 C 108.21 166.41 107.28 166.39 106.34 166.38 C 105.90 161.35 107.44 156.48 108.30 151.58 C 111.23 136.17 110.81 120.40 112.03 104.84 C 110.07 98.67 114.63 91.99 111.46 86.08 M 114.61 100.74 C 115.59 102.98 117.63 104.39 119.36 106.00 C 119.43 104.81 119.49 103.62 119.55 102.43 C 117.91 101.84 116.28 101.24 114.61 100.74 Z" />
<path fill="#000000" opacity="1.00" d=" M 108.89 56.04 C 108.65 54.11 110.87 53.63 112.04 52.67 C 113.26 53.88 114.70 54.90 115.68 56.33 C 115.92 58.80 115.99 61.29 115.83 63.76 C 115.25 66.12 112.54 66.27 110.67 65.46 C 108.53 62.74 108.51 59.31 108.89 56.04 Z" />
<path fill="#000000" opacity="1.00" d=" M 133.29 52.60 L 134.04 51.76 C 136.05 53.31 135.39 55.86 135.42 58.03 C 135.42 60.19 135.02 62.69 133.02 63.93 C 130.24 63.81 130.68 60.96 130.69 58.97 C 130.60 56.55 132.01 54.51 133.29 52.60 Z" />
<path fill="#000000" opacity="1.00" d=" M 125.34 64.73 C 126.19 63.86 127.06 63.00 127.94 62.15 C 128.35 65.08 129.50 68.99 126.03 70.53 C 126.44 69.79 127.24 68.30 127.65 67.55 C 126.86 66.62 126.09 65.68 125.34 64.73 Z" />
<path fill="#000000" opacity="1.00" d=" M 117.35 70.37 C 117.56 67.66 116.86 64.22 119.50 62.48 C 119.50 65.27 119.32 68.07 119.41 70.87 C 118.90 70.75 117.86 70.49 117.35 70.37 Z" />
</g>
</svg>
