<?xml version="1.0" encoding="UTF-8" ?>
<!DOCTYPE svg PUBLIC "-//W3C//DTD SVG 1.1//EN" "http://www.w3.org/Graphics/SVG/1.1/DTD/svg11.dtd">
<svg width="128pt" height="128pt" viewBox="0 0 128 128" version="1.1" xmlns="http://www.w3.org/2000/svg">
<g id="#000000ff">
<path fill="#000000" opacity="1.00" d=" M 59.84 9.57 C 62.07 5.97 66.51 4.80 70.46 4.27 C 71.68 5.93 72.54 7.78 73.00 9.79 C 74.44 11.54 76.00 13.20 77.47 14.93 C 75.80 15.78 74.16 16.67 72.57 17.64 C 71.23 15.84 69.23 15.09 67.01 15.61 C 67.88 16.87 68.93 17.97 70.05 19.01 C 68.85 19.53 67.64 20.04 66.48 20.65 C 70.13 20.51 74.14 21.01 77.18 18.53 C 78.27 19.14 79.35 19.76 80.41 20.41 C 80.90 19.81 81.89 18.63 82.39 18.03 C 83.22 19.55 84.67 21.08 84.35 22.94 C 81.70 26.50 77.27 28.07 73.26 29.56 C 75.44 29.29 80.48 28.15 79.85 31.72 C 77.41 33.77 74.32 34.64 71.39 35.72 C 71.72 36.63 72.08 37.53 72.43 38.44 C 76.59 37.77 80.68 38.38 84.82 38.71 C 85.47 39.94 86.14 41.17 86.84 42.38 C 86.07 44.32 85.67 46.63 83.68 47.73 C 82.33 49.16 80.29 48.40 78.59 48.68 C 76.58 48.72 75.03 50.19 73.43 51.20 C 74.86 50.85 76.31 50.54 77.76 50.28 C 77.29 52.88 74.63 53.17 72.59 53.99 C 69.72 55.16 66.43 54.51 63.63 55.97 C 67.60 55.24 72.35 54.46 75.48 57.70 C 76.80 59.77 74.58 61.76 73.13 63.03 C 70.04 65.69 65.76 65.63 61.93 65.43 C 60.48 71.00 61.40 76.91 59.28 82.32 C 63.48 83.48 67.62 84.84 71.79 86.07 C 75.70 87.25 79.94 87.47 83.62 89.33 C 87.30 92.56 84.73 97.81 85.91 101.95 C 87.67 109.18 84.49 116.29 84.34 123.50 C 83.40 125.43 81.28 125.65 79.38 125.79 C 76.70 115.23 81.82 104.64 80.28 93.98 C 77.09 92.85 73.89 91.61 70.49 91.31 C 66.28 90.37 62.45 88.27 58.38 86.87 C 56.49 85.78 54.88 84.17 53.35 82.62 C 52.58 76.98 55.09 71.87 56.58 66.60 C 54.82 66.97 53.08 67.71 51.25 67.57 C 49.04 66.39 47.14 64.62 44.65 64.01 C 44.50 62.40 44.40 60.78 44.19 59.18 C 43.45 57.28 41.13 56.59 40.23 54.77 C 40.15 53.37 40.91 52.11 41.31 50.81 C 38.40 48.25 32.96 43.91 36.92 39.96 C 35.98 38.34 34.72 36.95 33.45 35.59 C 34.34 32.45 36.13 29.70 39.12 28.21 C 40.02 29.82 40.95 31.42 41.85 33.04 C 40.75 34.22 39.68 35.43 38.77 36.77 C 40.15 36.01 41.54 35.15 42.18 33.64 C 42.42 31.60 41.99 29.28 43.74 27.75 C 46.80 24.98 49.80 22.06 53.46 20.06 C 53.49 22.02 53.61 23.98 53.94 25.92 C 53.42 26.30 52.38 27.07 51.86 27.45 C 52.92 27.57 53.98 27.68 55.04 27.81 C 53.75 25.20 54.93 22.39 55.59 19.78 C 53.34 19.67 51.03 19.83 48.87 19.09 C 50.65 14.73 55.91 16.22 59.27 14.21 C 61.89 12.65 65.55 13.18 67.51 10.58 C 61.57 9.26 56.84 14.19 51.05 13.80 C 49.88 15.64 49.02 17.60 48.51 19.72 C 45.96 19.11 43.57 18.01 41.81 16.01 C 42.67 15.14 43.14 13.74 44.39 13.36 C 49.17 11.88 53.54 9.21 57.16 5.78 C 58.05 7.05 58.94 8.32 59.84 9.57 M 70.23 9.92 C 70.41 13.35 73.18 8.26 70.23 9.92 M 61.17 23.19 C 63.81 21.78 63.66 18.80 63.54 16.23 C 61.30 17.85 61.39 20.72 61.17 23.19 M 60.54 29.09 C 59.31 30.49 61.75 31.70 62.61 30.38 C 63.89 28.97 61.39 27.64 60.54 29.09 M 41.68 45.12 C 42.14 44.96 43.07 44.64 43.53 44.48 C 44.49 41.33 45.89 38.49 49.00 37.00 C 44.85 37.06 40.63 40.72 41.68 45.12 M 56.35 38.06 C 54.16 38.93 56.21 41.17 57.71 39.76 C 60.07 39.03 57.84 36.58 56.35 38.06 M 40.35 39.22 C 38.85 39.52 39.44 42.06 40.94 41.25 C 42.31 40.82 41.92 38.36 40.35 39.22 M 49.07 39.57 C 48.09 40.69 49.19 42.98 50.72 42.77 C 52.72 42.07 50.68 38.74 49.07 39.57 M 38.41 43.85 C 37.87 45.49 38.42 46.06 40.05 45.56 C 40.58 43.95 40.03 43.37 38.41 43.85 Z" />
</g>
</svg>
