<?xml version="1.0" encoding="UTF-8" ?>
<!DOCTYPE svg PUBLIC "-//W3C//DTD SVG 1.1//EN" "http://www.w3.org/Graphics/SVG/1.1/DTD/svg11.dtd">
<svg width="256pt" height="256pt" viewBox="0 0 256 256" version="1.1" xmlns="http://www.w3.org/2000/svg">
<g id="#000000ff">
<path fill="#000000" opacity="1.00" d=" M 111.12 54.65 C 114.88 53.67 118.20 51.47 122.00 50.65 C 128.93 49.10 135.40 54.10 142.35 52.40 C 147.62 52.54 151.61 56.50 154.45 60.60 C 157.24 64.98 153.01 70.20 155.46 74.57 C 156.73 78.29 157.79 82.18 157.52 86.15 C 157.25 88.99 158.89 91.80 157.89 94.57 C 156.91 97.14 158.78 100.14 156.78 102.42 C 158.30 105.05 159.22 108.36 162.20 109.74 C 168.07 112.60 173.69 116.03 178.55 120.43 C 178.73 122.09 178.35 123.92 179.52 125.30 C 181.17 127.82 181.18 130.93 181.91 133.76 C 183.53 137.97 181.64 142.65 183.29 146.92 C 183.64 149.95 186.10 151.94 187.48 154.47 C 188.44 158.23 189.58 161.95 190.48 165.73 C 191.10 167.73 189.40 169.30 188.70 171.02 C 188.32 176.59 189.04 182.15 189.06 187.70 C 187.93 192.04 190.00 197.25 186.60 200.81 C 185.32 201.24 184.03 201.62 182.72 201.94 C 180.94 198.22 181.81 193.93 181.35 189.95 C 182.04 183.90 180.78 177.63 182.86 171.77 C 184.16 167.06 182.59 162.27 181.26 157.76 C 178.53 154.29 177.20 150.07 175.62 146.01 C 175.44 140.53 177.13 135.07 175.39 129.64 C 171.87 125.56 168.85 120.66 163.73 118.39 C 161.57 117.51 159.83 115.95 158.09 114.44 C 157.71 114.70 156.94 115.23 156.56 115.49 C 156.57 116.60 156.65 117.72 156.58 118.83 C 154.31 122.74 151.25 126.38 150.57 131.00 C 149.71 134.57 153.71 137.34 152.64 141.03 C 152.89 144.28 150.79 146.71 148.59 148.80 C 150.29 151.14 150.95 153.85 150.94 156.71 C 149.59 158.11 147.87 158.81 145.96 159.05 C 147.31 159.21 148.68 159.30 150.04 159.39 C 153.18 162.95 154.23 167.61 155.65 172.00 C 155.80 175.25 155.72 178.51 155.59 181.76 C 154.46 184.64 152.27 187.08 151.72 190.23 C 150.61 190.45 149.49 190.66 148.37 190.86 C 146.41 189.67 144.41 188.53 142.48 187.30 C 142.54 185.13 142.39 182.98 142.18 180.83 C 139.10 182.75 141.20 186.99 139.62 189.82 C 136.86 189.68 135.87 186.83 134.40 184.95 C 135.63 180.47 134.97 175.74 136.31 171.29 C 137.22 167.90 137.03 163.96 139.01 161.00 C 141.47 159.41 143.18 157.13 143.93 154.29 C 142.39 154.36 140.86 154.48 139.32 154.55 C 138.93 152.06 139.67 149.59 139.76 147.11 C 142.33 145.16 144.41 142.68 146.08 139.93 C 144.46 139.44 142.86 138.91 141.28 138.32 C 141.34 135.04 140.91 131.42 143.83 129.16 C 142.02 127.32 139.59 125.78 138.88 123.14 C 137.79 120.10 138.76 116.89 138.74 113.77 C 136.86 115.01 135.50 116.83 133.84 118.33 C 131.41 118.76 128.89 118.31 126.42 118.48 C 125.98 116.50 126.90 114.78 127.90 113.16 C 124.87 112.08 122.22 110.27 119.41 108.75 C 116.97 108.29 114.46 108.46 111.98 108.47 C 112.83 110.20 113.68 111.93 114.42 113.70 C 116.11 113.39 117.94 112.04 119.56 113.28 C 121.21 114.30 122.53 115.76 123.99 117.03 C 122.30 119.85 118.96 119.91 116.09 120.51 C 114.95 119.18 113.84 117.82 112.68 116.51 C 111.13 116.48 109.58 116.50 108.03 116.41 C 105.81 114.57 105.41 111.61 105.45 108.90 C 104.32 109.35 103.18 109.80 102.06 110.27 C 102.28 111.57 102.54 112.86 102.85 114.15 C 101.64 115.26 99.99 116.22 99.93 118.06 C 99.39 121.15 97.88 124.18 98.42 127.38 C 98.79 129.91 98.76 132.48 98.77 135.03 C 98.58 138.13 101.45 140.61 100.82 143.76 C 100.08 146.89 96.33 148.64 96.65 152.14 C 95.39 157.77 100.84 161.93 100.53 167.45 C 100.52 171.60 100.73 175.77 100.16 179.90 C 99.37 182.48 96.27 183.83 93.71 183.64 C 93.20 180.36 94.37 175.64 90.60 174.02 C 90.57 176.32 90.85 178.63 90.58 180.93 C 88.63 183.57 88.15 187.48 84.91 188.95 C 83.20 188.76 81.69 187.84 80.11 187.24 C 82.09 184.02 84.52 181.05 85.02 177.16 C 83.55 177.44 82.09 177.74 80.62 177.99 C 80.33 174.09 80.05 169.78 82.29 166.37 C 83.49 163.83 84.45 161.17 85.87 158.74 C 87.00 157.02 89.18 157.55 90.92 157.35 C 90.01 154.88 88.80 152.52 88.07 150.00 C 88.24 148.04 88.50 146.08 88.83 144.14 C 90.22 142.26 92.43 140.63 92.51 138.09 C 92.41 133.95 93.22 129.66 91.55 125.71 C 91.64 123.42 92.40 121.22 92.71 118.96 C 89.04 119.65 86.66 122.69 84.04 125.06 C 80.28 128.68 78.89 133.85 76.19 138.18 C 74.31 141.56 73.95 145.49 73.19 149.22 C 70.85 156.36 66.08 162.49 64.07 169.75 C 62.90 169.54 61.73 169.42 60.55 169.41 C 58.49 171.62 61.83 173.72 63.90 173.66 C 62.85 176.89 63.44 180.89 60.57 183.26 C 59.50 179.91 59.15 176.43 59.40 172.94 C 59.04 172.44 58.30 171.44 57.94 170.95 C 62.43 169.27 62.98 164.09 66.53 161.35 C 67.98 158.01 68.56 154.37 70.14 151.08 C 69.18 149.38 68.18 147.71 67.20 146.03 C 68.42 143.78 71.02 141.95 70.87 139.18 C 70.38 138.28 69.62 137.59 68.96 136.83 C 71.79 133.32 74.22 129.51 77.02 125.98 C 78.02 124.83 77.32 123.11 78.06 121.86 C 82.54 117.44 88.39 114.94 93.93 112.17 C 93.30 110.22 92.13 108.53 91.27 106.68 C 91.17 104.32 91.41 101.95 91.49 99.59 C 89.99 98.66 87.70 98.00 87.61 95.88 C 88.33 90.94 89.28 85.62 92.75 81.79 C 95.07 79.45 94.44 75.87 94.86 72.88 C 92.71 73.88 90.80 75.27 89.02 76.83 C 88.49 76.30 87.41 75.26 86.88 74.73 C 88.19 72.67 89.49 70.58 90.26 68.25 C 91.55 67.96 92.85 67.67 94.15 67.42 C 94.25 66.97 94.45 66.07 94.55 65.62 C 97.11 65.48 99.68 65.58 102.24 65.74 C 103.61 62.02 105.29 58.42 106.63 54.69 C 107.73 52.87 109.96 53.05 111.12 54.65 M 114.40 59.52 C 111.33 59.62 110.31 62.58 109.09 64.87 C 108.10 64.55 107.10 64.24 106.11 63.93 C 103.64 68.08 105.19 72.99 103.57 77.36 C 102.12 81.56 103.23 86.21 101.13 90.20 C 102.05 92.84 103.98 95.41 103.30 98.34 C 102.67 101.64 104.64 104.50 106.44 107.05 C 109.06 105.98 110.64 103.48 112.89 101.87 C 114.99 99.72 118.28 100.80 120.94 100.77 C 124.71 103.29 128.18 106.19 131.59 109.18 C 131.87 110.77 130.13 111.77 129.41 113.00 C 131.78 112.47 134.22 112.24 136.56 111.55 C 139.47 109.86 141.88 106.94 145.58 107.46 C 147.21 104.80 148.77 101.90 151.72 100.50 C 151.74 98.31 152.10 96.15 152.48 94.00 C 151.54 96.66 148.88 98.34 146.10 97.28 C 143.70 95.34 143.05 92.16 141.17 89.82 C 137.54 85.27 136.17 79.49 133.53 74.40 C 131.63 70.81 131.37 66.68 131.80 62.71 C 132.27 60.83 130.48 59.62 129.62 58.19 C 124.72 60.04 119.50 59.39 114.40 59.52 M 137.27 63.44 C 140.36 69.93 141.90 77.10 145.96 83.12 C 147.72 85.76 147.79 89.55 150.63 91.36 C 150.17 85.83 148.77 80.36 146.94 75.14 C 145.70 70.95 142.58 67.68 141.22 63.55 C 140.23 63.52 138.25 63.46 137.27 63.44 M 91.57 159.95 C 90.88 161.03 90.89 163.17 92.22 163.76 C 94.13 163.40 93.68 158.89 91.57 159.95 Z" />
<path fill="#000000" opacity="1.00" d=" M 103.46 79.94 C 105.48 76.28 110.34 72.71 114.22 75.96 C 113.18 79.03 112.30 82.39 109.60 84.48 C 107.62 85.21 105.53 85.53 103.45 85.80 C 103.44 83.85 103.36 81.89 103.46 79.94 Z" />
<path fill="#000000" opacity="1.00" d=" M 120.48 79.95 C 122.34 78.04 124.56 76.55 126.96 75.40 C 128.01 76.32 129.08 77.23 130.17 78.13 C 129.61 81.88 127.83 85.91 123.69 86.74 L 123.06 85.97 C 122.00 84.05 121.17 82.02 120.48 79.95 Z" />
<path fill="#000000" opacity="1.00" d=" M 109.54 88.66 C 113.42 87.50 118.02 84.66 121.86 87.13 C 121.29 90.15 119.89 95.01 115.91 94.82 C 113.89 94.83 111.86 94.68 109.84 94.65 C 109.84 92.65 109.76 90.65 109.54 88.66 Z" />
<path fill="#000000" opacity="1.00" d=" M 108.57 119.45 C 109.12 119.38 110.21 119.24 110.76 119.17 C 113.24 122.48 115.78 125.79 117.54 129.55 C 117.99 130.66 118.87 131.50 119.77 132.25 C 123.20 127.99 126.97 121.44 133.34 122.49 C 133.55 124.08 135.17 126.09 133.66 127.47 C 129.28 131.61 125.78 136.69 120.78 140.16 C 117.71 141.78 115.53 138.62 113.51 136.80 C 111.02 133.13 109.00 129.18 106.62 125.44 C 105.71 123.12 107.26 121.21 108.57 119.45 Z" />
</g>
</svg>
