<?xml version="1.0" encoding="UTF-8" ?>
<!DOCTYPE svg PUBLIC "-//W3C//DTD SVG 1.1//EN" "http://www.w3.org/Graphics/SVG/1.1/DTD/svg11.dtd">
<svg width="256pt" height="256pt" viewBox="0 0 256 256" version="1.1" xmlns="http://www.w3.org/2000/svg">
<g id="#000000ff">
<path fill="#000000" opacity="1.00" d=" M 174.17 45.26 C 174.68 43.91 175.74 41.22 177.58 42.52 C 182.46 46.44 182.90 53.21 183.07 58.99 C 183.46 63.60 182.44 68.19 182.89 72.79 C 179.07 79.17 177.65 87.25 171.85 92.31 C 170.12 93.64 169.79 90.49 169.37 89.47 C 167.50 82.75 172.61 77.19 175.76 71.84 C 171.86 63.58 171.90 53.96 174.17 45.26 M 176.14 48.14 C 174.46 55.78 174.08 64.85 179.01 71.40 C 181.24 67.68 180.86 63.16 181.19 59.00 C 181.09 54.67 181.24 49.79 178.58 46.14 C 177.41 44.19 176.33 47.13 176.14 48.14 M 172.11 85.04 C 174.69 83.00 175.98 79.86 177.14 76.89 C 174.03 78.42 172.80 81.88 172.11 85.04 Z" />
<path fill="#000000" opacity="1.00" d=" M 206.18 54.38 C 208.70 55.48 210.24 58.18 209.77 60.92 C 209.39 68.14 203.58 73.12 198.79 77.82 C 196.67 79.82 193.55 82.09 190.57 80.47 C 188.85 78.50 187.64 76.11 185.58 74.43 C 185.45 73.89 185.18 72.82 185.04 72.28 C 185.72 72.18 187.07 71.99 187.74 71.89 C 187.97 68.76 189.02 65.79 190.45 63.02 C 193.52 62.63 196.05 65.98 195.08 68.86 C 194.55 72.03 190.56 73.61 191.07 77.05 C 194.71 76.29 197.43 73.52 199.85 70.90 C 202.30 67.99 204.86 65.04 206.34 61.49 C 207.36 59.21 206.36 56.73 206.18 54.38 Z" />
<path fill="#000000" opacity="1.00" d=" M 114.52 75.37 C 115.06 72.91 115.83 70.14 118.13 68.75 C 120.42 68.18 121.66 70.73 122.58 72.38 C 124.02 74.72 123.96 77.56 124.89 80.10 C 126.34 83.92 125.38 88.07 125.63 92.04 C 125.87 95.98 123.94 99.58 123.30 103.40 C 128.38 100.24 132.26 95.64 136.64 91.64 C 137.98 90.52 139.54 87.60 141.45 89.48 C 143.71 91.93 142.48 95.70 142.92 98.71 C 144.24 98.15 145.67 97.69 146.60 96.54 C 151.31 91.47 156.49 86.53 158.98 79.91 C 160.03 81.03 162.01 82.16 161.31 84.01 C 160.11 88.39 160.21 93.34 157.85 97.27 C 154.14 98.79 156.11 93.68 155.75 91.75 C 151.59 95.92 147.47 100.15 142.91 103.90 C 140.47 105.71 139.73 109.24 137.01 110.63 C 133.36 110.73 131.54 106.76 131.61 103.60 C 134.03 103.75 137.05 103.88 138.61 101.62 C 139.88 99.17 139.94 96.33 140.03 93.63 C 134.60 96.81 131.28 102.59 125.93 105.91 C 124.24 106.98 122.19 107.30 120.51 108.40 C 117.87 111.88 115.85 115.87 112.74 118.99 C 111.26 119.65 109.75 118.38 108.24 118.28 C 106.30 119.58 104.76 122.12 102.17 121.98 C 100.53 121.14 99.38 119.63 98.04 118.41 C 96.15 121.58 95.57 127.36 91.05 127.55 C 88.93 125.72 89.49 122.46 89.76 119.98 C 90.65 114.96 92.39 109.65 96.35 106.21 C 97.93 106.33 100.12 106.46 100.63 108.32 C 100.55 111.66 100.67 115.01 101.30 118.31 C 104.09 117.48 106.68 115.78 108.40 113.41 C 109.61 110.75 109.86 107.75 111.11 105.10 C 112.20 102.34 114.22 100.13 115.94 97.77 C 113.18 90.64 113.29 82.83 114.52 75.37 M 117.39 93.46 C 117.56 95.96 120.06 96.50 122.01 97.15 C 124.54 88.79 123.91 79.31 119.02 71.92 C 115.36 78.46 115.83 86.39 117.39 93.46 M 114.62 106.69 C 116.94 105.51 118.55 103.30 119.21 100.81 C 116.68 101.77 115.18 104.14 114.62 106.69 M 92.74 120.47 C 95.36 118.32 96.10 114.81 97.00 111.71 C 93.89 113.39 93.32 117.33 92.74 120.47 Z" />
<path fill="#000000" opacity="1.00" d=" M 156.66 75.02 C 157.31 73.77 157.77 71.00 159.81 71.98 C 161.73 72.73 161.09 75.08 161.26 76.65 C 159.73 76.09 158.19 75.55 156.66 75.02 Z" />
<path fill="#000000" opacity="1.00" d=" M 215.19 81.83 C 216.67 80.53 217.98 82.12 218.55 83.42 C 220.20 86.53 219.70 90.23 219.32 93.59 C 218.77 98.54 214.89 102.19 213.68 106.92 C 212.89 110.16 210.02 113.52 212.06 116.88 C 213.17 119.19 216.14 119.84 218.04 118.05 C 223.66 113.84 229.62 109.11 232.10 102.29 C 230.71 102.05 229.33 101.81 227.95 101.56 C 228.62 99.70 230.01 98.18 231.92 97.58 C 234.56 99.28 235.22 103.04 234.13 105.84 C 231.96 111.01 228.31 115.54 223.70 118.74 C 220.99 120.60 218.69 123.99 215.00 123.59 C 211.77 123.45 210.24 120.34 208.89 117.89 C 205.48 123.30 201.66 128.64 196.23 132.20 C 194.43 133.62 192.20 132.27 190.20 132.28 C 187.50 133.57 185.90 137.20 182.55 136.75 C 182.09 134.31 181.98 131.82 181.78 129.36 C 177.56 132.64 175.43 137.62 173.55 142.46 C 173.02 142.63 171.98 142.98 171.46 143.15 C 171.07 141.53 170.68 139.92 170.22 138.32 C 166.10 142.18 162.70 148.51 156.46 148.78 C 153.81 144.94 154.07 140.11 153.68 135.67 C 151.11 138.11 148.81 140.83 145.91 142.91 C 142.16 145.64 144.00 150.83 142.55 154.63 C 141.71 156.77 140.74 159.82 138.10 160.12 C 135.60 157.17 136.11 152.90 135.82 149.29 C 132.67 150.44 132.36 154.13 130.52 156.50 C 127.60 160.55 125.41 165.27 121.43 168.44 C 120.22 169.46 118.22 168.77 117.75 167.30 C 116.15 162.03 118.63 156.79 118.94 151.54 C 117.43 151.68 115.27 150.57 114.57 152.51 C 112.56 156.04 108.40 157.77 106.65 161.48 C 105.89 166.48 106.31 173.39 100.74 175.77 C 97.32 176.12 95.31 171.91 94.90 169.01 C 95.65 164.63 101.11 162.96 102.09 158.82 C 98.62 158.41 97.15 162.56 95.51 164.91 C 93.02 164.50 92.08 161.41 93.41 159.41 C 95.81 154.58 97.77 149.40 97.85 143.93 C 96.02 145.64 95.24 148.07 94.21 150.29 C 91.82 155.80 89.16 161.20 86.70 166.68 C 84.43 171.33 84.50 176.69 82.40 181.40 C 82.13 182.59 81.42 183.03 80.26 182.70 C 79.25 181.35 78.93 179.65 78.69 178.02 C 77.83 167.67 83.64 157.59 80.69 147.29 C 80.35 147.31 79.67 147.36 79.32 147.38 C 77.16 155.20 73.83 162.63 71.60 170.43 C 68.12 181.13 63.11 191.38 56.40 200.43 C 54.79 202.60 52.22 204.01 49.47 203.68 C 46.96 200.92 44.96 197.57 44.23 193.88 C 44.56 189.24 44.85 183.88 48.52 180.51 C 51.46 176.99 53.24 172.43 57.16 169.75 C 59.02 168.94 61.23 170.30 61.99 172.04 C 63.04 174.94 62.83 178.10 62.61 181.12 C 58.68 180.65 60.49 175.47 59.57 172.75 C 55.87 175.33 53.46 179.32 50.92 182.97 C 48.38 187.51 45.77 193.44 48.83 198.37 C 49.32 200.49 51.37 199.51 52.48 198.58 C 57.22 195.44 57.73 188.89 62.38 185.58 C 63.94 178.84 68.51 173.20 70.43 166.53 C 73.62 158.79 76.61 150.93 78.43 142.73 C 80.79 143.32 82.89 145.00 83.63 147.37 C 84.99 151.69 84.58 156.28 84.81 160.73 C 89.17 155.68 90.90 148.85 94.10 143.03 C 95.22 141.09 96.07 139.02 96.96 136.96 C 103.00 140.29 100.95 148.11 100.32 153.67 C 101.35 155.37 103.26 156.38 104.99 157.26 C 108.70 154.75 112.04 151.51 114.27 147.59 C 116.87 148.25 120.64 145.87 122.09 148.94 C 122.78 150.04 123.23 151.38 122.76 152.67 C 121.71 156.18 120.89 159.76 120.67 163.44 C 125.75 158.86 129.43 152.96 133.68 147.64 C 136.68 144.31 136.52 139.49 139.10 135.90 C 140.65 137.14 141.56 138.86 142.04 140.77 C 147.22 137.34 152.64 132.87 154.47 126.71 C 148.79 128.14 143.84 131.97 137.86 132.18 C 137.91 130.78 136.90 128.30 139.03 127.97 C 144.72 126.59 150.07 124.17 154.80 120.71 C 155.45 118.01 155.01 115.20 155.14 112.46 C 158.00 112.73 158.21 115.94 159.31 117.97 C 162.87 117.22 165.24 114.04 168.00 111.90 C 169.51 112.33 170.15 114.32 170.02 115.78 C 166.66 119.29 161.88 121.06 158.53 124.55 C 156.55 130.92 156.41 137.83 157.07 144.47 C 162.57 141.56 167.19 136.72 170.11 131.26 C 171.33 121.43 170.60 110.91 175.19 101.82 L 175.91 101.16 C 179.23 103.23 177.87 107.77 178.76 111.05 C 178.06 117.55 176.66 123.98 174.92 130.29 C 177.36 128.57 178.98 126.00 181.26 124.12 C 185.00 123.50 184.41 128.82 185.00 131.19 C 187.07 129.65 189.98 127.90 189.74 124.94 C 189.42 120.61 191.77 116.58 195.17 114.06 C 197.29 113.74 197.75 116.59 198.41 118.04 C 198.56 122.07 195.92 125.30 193.69 128.37 C 197.86 126.21 200.97 122.48 203.79 118.80 C 205.55 116.10 207.84 113.39 208.00 110.03 C 208.21 100.26 210.57 90.45 215.19 81.83 M 212.79 100.40 C 215.86 97.44 216.57 92.89 216.90 88.82 C 214.18 91.99 213.61 96.43 212.79 100.40 M 139.41 147.38 C 138.39 148.13 138.19 150.50 139.73 150.72 C 141.69 150.47 141.76 146.10 139.41 147.38 M 98.03 171.30 C 101.30 171.89 102.10 167.97 102.44 165.57 C 100.46 167.04 99.11 169.13 98.03 171.30 Z" />
<path fill="#000000" opacity="1.00" d=" M 45.46 101.58 C 46.48 99.33 46.15 96.29 47.97 94.55 C 49.70 95.63 51.28 97.23 51.42 99.38 C 53.27 107.58 49.44 115.44 48.82 123.52 C 54.55 117.52 56.43 108.75 62.81 103.21 C 65.58 105.27 67.13 108.52 66.59 111.98 C 66.22 119.62 61.81 126.35 56.81 131.85 C 54.73 133.77 58.62 136.91 60.68 135.74 C 65.13 133.92 69.19 130.95 72.23 127.20 C 73.12 126.03 74.44 125.37 75.72 124.73 C 76.46 120.29 78.41 116.15 78.87 111.64 C 79.27 109.60 81.40 110.80 81.90 112.05 C 85.75 118.25 83.93 126.32 80.00 132.03 C 79.38 133.38 77.47 134.10 76.73 132.41 C 76.29 130.56 76.21 128.65 75.97 126.76 C 71.62 131.56 67.29 137.08 60.94 139.31 C 56.85 140.29 54.38 135.82 52.71 132.84 C 51.22 130.24 54.63 128.69 55.97 126.96 C 60.55 121.85 64.11 114.95 63.63 107.94 C 61.50 107.98 60.50 110.02 59.48 111.56 C 54.00 122.22 46.98 132.62 45.49 144.79 C 45.57 146.17 44.74 147.93 43.05 147.36 C 41.75 145.70 42.18 143.51 42.33 141.59 C 43.37 132.65 45.18 123.82 46.73 114.96 C 48.05 110.31 49.55 105.57 48.88 100.65 C 44.54 108.54 42.87 117.63 40.20 126.17 C 38.28 131.38 37.31 136.91 35.00 141.98 C 32.37 148.86 28.12 154.93 23.87 160.88 C 21.80 163.48 18.12 166.55 14.77 164.21 C 10.53 160.50 8.58 154.49 8.56 148.98 C 10.51 140.28 15.39 132.25 21.99 126.26 C 24.47 126.44 26.58 128.58 27.00 130.99 C 27.72 134.06 28.44 137.20 28.25 140.37 L 27.10 140.70 C 23.50 138.23 27.01 131.70 23.27 129.38 C 17.95 134.44 13.37 140.75 11.71 148.01 C 10.95 152.80 11.66 158.50 15.21 162.05 C 18.19 162.44 20.48 159.42 22.49 157.54 C 30.69 147.04 35.67 134.48 39.73 121.91 C 41.69 115.14 42.85 108.15 45.46 101.58 Z" />
</g>
</svg>
