<?xml version="1.0" encoding="UTF-8" ?>
<!DOCTYPE svg PUBLIC "-//W3C//DTD SVG 1.1//EN" "http://www.w3.org/Graphics/SVG/1.1/DTD/svg11.dtd">
<svg width="256pt" height="256pt" viewBox="0 0 256 256" version="1.1" xmlns="http://www.w3.org/2000/svg">
<g id="#000000ff">
<path fill="#000000" opacity="1.00" d=" M 95.20 75.51 C 95.99 73.17 98.36 72.85 100.44 73.72 C 99.35 74.29 98.25 74.83 97.13 75.34 C 100.02 75.00 100.93 78.22 102.33 80.13 C 102.32 78.19 102.81 76.12 101.73 74.36 C 103.02 74.45 104.32 74.48 105.62 74.47 C 106.60 75.58 107.61 76.66 108.68 77.69 C 108.64 76.16 108.54 74.64 108.42 73.12 C 110.49 74.62 112.69 76.92 115.47 76.39 C 116.91 76.21 118.35 76.01 119.79 75.79 C 119.18 78.20 118.32 80.53 117.55 82.89 C 119.02 81.79 120.37 80.55 121.79 79.40 C 121.29 78.26 120.80 77.12 120.32 75.97 C 124.92 75.79 127.27 79.87 130.84 82.00 C 130.68 80.24 130.54 78.49 130.46 76.73 C 133.26 77.58 135.49 79.55 138.05 80.88 C 137.62 81.66 137.16 82.43 136.75 83.22 C 137.32 83.36 138.47 83.63 139.04 83.77 C 138.40 81.63 137.57 79.55 136.87 77.43 C 140.55 76.60 141.66 81.20 145.26 80.95 C 145.85 79.76 146.42 78.57 146.98 77.37 C 147.31 78.19 147.63 79.00 147.96 79.82 C 148.78 79.58 149.61 79.34 150.44 79.10 C 151.21 81.32 152.35 83.39 154.13 84.96 C 150.83 84.64 147.53 84.19 144.34 83.23 C 144.38 85.17 144.44 87.11 144.50 89.05 C 146.04 88.19 147.57 87.30 149.04 86.32 C 150.88 87.42 153.02 87.44 155.11 87.43 C 156.66 84.98 154.38 82.38 153.12 80.37 C 154.09 80.05 155.06 79.73 156.04 79.42 C 154.91 78.26 153.76 77.12 152.80 75.82 C 155.72 77.15 157.18 80.12 159.00 82.57 C 159.38 79.66 160.06 76.70 161.99 74.38 C 161.73 76.50 160.94 78.48 160.01 80.39 C 160.93 80.43 162.75 80.50 163.67 80.54 C 163.51 78.85 163.38 77.16 163.26 75.47 C 163.88 76.66 164.48 77.87 165.08 79.08 C 165.78 78.79 166.49 78.51 167.20 78.23 C 167.22 79.87 167.42 81.50 167.80 83.09 C 167.62 83.22 167.26 83.48 167.08 83.60 C 163.56 80.54 158.82 83.97 156.11 86.52 C 159.00 86.91 161.58 85.46 164.26 84.65 C 162.84 86.23 161.36 87.75 160.13 89.48 C 163.95 91.52 167.15 88.24 170.84 87.59 C 174.40 86.69 177.99 84.54 181.75 85.66 C 181.44 87.70 180.08 89.11 178.28 89.95 C 179.27 89.76 180.25 89.57 181.25 89.40 C 181.44 88.01 181.63 86.62 181.84 85.24 C 183.67 85.65 185.48 86.16 187.30 86.65 C 186.38 87.75 185.50 88.89 184.67 90.06 C 186.00 88.87 187.20 87.56 188.39 86.24 C 192.74 86.55 197.12 86.41 201.46 86.87 C 200.70 89.22 199.93 91.55 199.24 93.92 C 195.46 93.73 192.84 91.01 190.24 88.61 C 190.75 89.31 191.77 90.72 192.28 91.42 C 189.34 92.62 186.30 93.59 183.11 93.82 C 183.18 93.13 183.33 91.74 183.40 91.05 C 183.09 91.20 182.48 91.50 182.17 91.65 C 181.35 92.98 180.46 94.27 179.64 95.60 C 178.58 94.30 177.50 92.99 176.11 92.04 C 176.22 95.71 178.92 99.02 177.85 102.73 C 176.59 108.38 176.22 114.19 174.78 119.81 C 181.92 121.22 189.22 119.56 196.40 120.62 C 198.89 121.24 200.22 124.47 203.05 124.26 C 205.57 124.23 208.07 124.71 210.59 124.61 C 211.94 123.78 212.99 122.02 214.80 122.35 C 217.52 122.41 218.70 125.33 220.55 126.89 C 218.32 128.60 217.28 131.21 216.47 133.82 C 215.56 132.63 214.69 131.42 213.87 130.17 C 212.83 130.63 211.79 131.08 210.75 131.53 C 210.23 130.74 209.72 129.94 209.22 129.15 C 206.04 131.97 201.44 130.12 198.06 128.58 C 192.67 129.13 187.42 127.57 182.13 127.25 C 179.45 128.82 176.45 128.55 173.51 128.08 C 173.08 131.42 171.59 134.56 171.71 137.96 C 171.83 140.18 170.26 141.93 169.61 143.95 C 171.06 145.95 172.22 148.12 172.95 150.49 C 169.11 154.45 163.06 154.62 158.70 157.80 C 158.76 160.93 158.42 164.16 159.68 167.11 C 164.33 169.88 169.86 169.12 174.81 170.95 C 176.67 172.41 177.51 175.05 179.96 175.72 C 181.74 176.36 183.17 177.58 184.33 179.05 C 182.24 180.15 179.92 180.62 177.71 181.41 C 175.09 179.38 172.60 177.18 169.99 175.15 C 165.86 176.74 161.87 172.83 157.63 174.63 C 151.65 179.42 143.58 179.85 136.90 183.28 C 132.91 183.68 128.89 183.50 125.05 182.28 C 123.60 183.49 122.14 184.70 120.57 185.76 C 120.49 184.49 120.44 183.23 120.40 181.97 C 114.68 187.12 106.33 184.30 99.50 186.36 C 97.37 187.22 95.64 184.89 93.46 185.41 C 89.27 185.89 85.50 182.67 81.33 183.68 C 78.02 184.51 75.25 187.43 71.65 186.59 C 70.24 186.16 69.16 187.18 68.03 187.83 C 66.45 187.31 64.87 186.80 63.26 186.41 C 63.40 185.13 63.50 183.86 63.57 182.59 C 67.77 181.79 72.04 180.81 76.33 181.71 C 77.92 178.55 81.91 179.76 84.34 177.98 C 84.41 177.11 84.54 175.39 84.60 174.52 C 81.60 174.73 78.52 174.78 75.62 173.85 C 75.18 174.72 74.73 175.58 74.28 176.45 C 72.40 174.94 70.50 173.45 68.63 171.94 C 69.37 173.69 70.18 175.42 70.81 177.23 C 68.89 175.95 65.90 174.72 66.34 171.90 C 68.38 169.36 70.99 170.77 73.05 172.41 C 75.02 171.52 77.09 170.91 79.14 170.28 C 80.43 171.42 81.70 172.60 83.07 173.66 C 82.58 172.93 81.59 171.46 81.10 170.73 C 82.75 170.44 84.37 169.98 85.93 169.39 C 86.31 170.87 86.70 172.36 87.27 173.79 C 87.48 172.22 87.65 170.65 87.78 169.08 C 89.95 172.58 91.96 176.17 94.17 179.65 C 94.46 177.29 94.44 174.92 94.52 172.56 C 96.67 172.54 98.81 172.55 100.96 172.59 C 100.57 174.44 99.55 175.98 98.08 177.16 C 99.24 179.03 100.66 180.58 102.95 179.20 C 102.36 178.11 101.76 177.03 101.15 175.96 C 101.65 175.50 102.67 174.59 103.18 174.13 C 104.33 175.84 105.33 177.64 106.36 179.42 C 107.15 178.35 107.90 177.26 108.64 176.16 C 109.43 176.56 111.01 177.37 111.80 177.77 C 110.74 176.69 109.52 175.81 108.30 174.94 C 109.46 173.85 110.64 172.79 111.82 171.73 C 109.86 168.22 110.71 164.16 109.80 160.40 C 110.00 158.62 110.38 156.86 110.76 155.11 C 107.27 155.93 104.11 153.88 100.62 154.29 C 99.04 151.95 97.37 149.66 95.13 147.91 C 96.16 147.08 97.20 146.25 98.17 145.34 C 95.46 146.41 93.00 147.98 90.46 149.39 C 84.57 149.67 78.63 149.52 72.86 148.17 C 72.41 147.21 72.10 146.19 71.75 145.19 C 71.70 145.89 71.60 147.29 71.55 148.00 C 68.54 147.73 66.35 145.59 64.42 143.50 C 64.92 144.87 65.38 146.26 65.79 147.66 C 64.40 146.61 63.11 145.44 61.85 144.24 C 57.38 145.43 52.88 143.92 48.79 142.16 C 47.18 140.55 47.65 138.04 47.31 135.99 C 45.77 136.28 44.22 136.69 42.94 137.64 C 41.18 136.21 38.42 135.96 37.21 134.02 C 37.94 132.80 38.76 131.62 39.76 130.61 C 41.83 129.74 42.71 132.94 44.76 132.67 C 51.43 132.41 57.34 136.13 63.82 137.11 C 66.81 137.49 69.81 138.13 72.38 139.79 C 73.50 139.31 74.61 138.81 75.73 138.34 C 79.84 140.41 84.50 141.26 89.03 141.13 C 91.77 140.17 94.57 140.70 97.27 141.50 C 98.80 135.72 97.71 129.72 98.71 123.88 C 99.16 121.19 99.32 118.47 99.46 115.75 C 98.35 114.58 97.24 113.40 96.15 112.22 C 94.21 113.46 92.01 114.19 89.91 115.12 C 88.75 113.71 87.56 112.27 85.98 111.30 C 84.86 111.67 83.76 112.09 82.67 112.56 C 81.79 111.72 80.93 110.88 80.07 110.02 C 78.81 110.88 77.56 111.74 76.34 112.65 C 76.62 111.84 76.91 111.04 77.19 110.24 C 75.22 108.71 74.15 106.46 73.01 104.31 C 72.27 104.46 70.79 104.76 70.05 104.91 C 70.32 103.87 70.58 102.82 70.84 101.79 C 67.76 101.44 64.60 101.21 61.90 99.51 C 61.52 100.16 61.15 100.82 60.77 101.48 C 60.65 100.90 60.40 99.75 60.28 99.18 C 59.05 99.76 57.82 100.36 56.59 100.96 C 55.70 99.61 54.81 98.26 53.90 96.93 C 53.28 98.02 52.68 99.11 52.09 100.21 C 51.58 99.20 51.05 98.21 50.50 97.22 C 47.86 99.05 44.87 97.51 42.19 96.62 C 39.61 94.66 36.42 92.68 35.98 89.18 C 35.35 90.35 34.69 91.51 34.07 92.70 C 32.24 90.83 30.96 88.55 29.99 86.14 C 29.00 86.71 28.01 87.29 27.01 87.85 C 26.60 86.96 26.19 86.08 25.77 85.20 C 26.68 85.29 28.50 85.46 29.41 85.55 C 28.27 83.52 27.08 81.52 25.90 79.51 C 29.86 82.09 34.55 85.51 39.53 84.27 C 40.69 86.45 42.96 87.57 45.01 88.76 C 45.71 88.28 46.39 87.78 47.05 87.26 C 46.13 86.25 45.21 85.23 44.34 84.18 C 47.95 84.43 51.29 86.36 52.00 90.09 C 52.52 89.24 53.55 87.55 54.06 86.70 C 54.72 88.67 55.31 90.67 55.91 92.66 C 56.49 91.30 57.08 89.94 57.74 88.61 C 58.76 90.40 59.90 92.12 61.04 93.84 C 62.10 92.95 63.11 92.01 64.21 91.18 C 67.24 91.80 70.25 93.05 73.39 92.32 C 73.51 93.11 73.75 94.70 73.88 95.50 C 74.13 94.66 74.65 92.98 74.91 92.14 C 76.00 93.06 77.08 94.01 78.16 94.96 C 79.08 94.31 80.01 93.66 80.94 93.02 C 83.34 94.35 86.01 94.89 88.66 95.44 C 89.16 96.79 89.63 98.15 90.14 99.50 C 90.26 98.70 90.52 97.11 90.65 96.31 C 93.06 96.90 96.19 96.86 96.41 100.04 C 98.66 100.51 100.86 100.32 102.86 99.14 C 103.36 100.22 103.87 101.29 104.41 102.35 C 104.55 100.70 104.69 99.04 104.82 97.39 C 105.90 98.54 106.93 99.73 107.89 100.98 C 108.55 99.65 109.27 98.37 110.07 97.13 C 110.37 98.71 110.70 100.29 111.07 101.86 C 111.39 100.64 111.67 99.41 111.92 98.17 C 115.47 98.94 119.13 98.92 122.58 97.74 C 121.10 96.03 119.21 94.71 117.83 92.92 C 117.77 91.46 117.77 90.00 117.83 88.55 C 118.62 88.49 120.20 88.37 121.00 88.31 C 120.70 86.82 120.42 85.32 120.07 83.84 C 119.46 85.06 118.88 86.28 118.31 87.51 C 117.56 87.14 116.07 86.39 115.32 86.02 C 115.89 84.85 116.45 83.67 117.00 82.49 C 115.72 83.19 114.53 84.09 113.15 84.61 C 109.87 83.88 106.63 82.89 103.30 82.35 C 100.32 81.97 98.21 79.38 95.18 79.23 C 93.97 78.02 93.05 76.57 92.05 75.20 C 93.10 75.29 94.15 75.39 95.20 75.51 M 106.55 78.83 C 105.96 79.96 107.09 81.39 108.21 81.64 C 109.83 81.03 107.97 77.80 106.55 78.83 M 113.82 80.16 C 113.33 81.74 113.92 82.22 115.59 81.59 C 116.03 79.94 115.44 79.46 113.82 80.16 M 139.88 85.84 C 136.84 85.52 133.77 85.45 130.72 85.70 C 130.59 86.21 130.33 87.24 130.20 87.75 C 132.91 86.74 136.19 85.20 138.91 87.03 C 140.46 87.85 140.73 89.67 141.45 91.10 C 141.31 89.95 141.17 88.79 141.02 87.64 C 141.70 87.64 143.07 87.62 143.76 87.62 C 143.56 85.95 143.37 84.29 143.18 82.63 C 142.06 83.68 140.97 84.76 139.88 85.84 M 155.49 88.43 C 155.16 89.95 157.79 89.72 158.35 88.79 C 158.69 87.21 156.09 87.57 155.49 88.43 M 169.08 96.76 C 167.59 95.90 166.01 95.27 164.30 95.04 C 164.28 98.08 164.59 101.11 164.93 104.13 C 166.77 103.45 168.56 102.64 170.35 101.85 C 170.81 108.47 169.46 114.95 169.35 121.56 C 169.69 121.54 170.37 121.50 170.72 121.48 C 169.75 114.54 172.95 107.96 173.35 101.11 C 173.36 98.50 174.86 96.26 175.64 93.85 C 173.42 94.74 171.13 95.50 169.08 96.76 M 144.67 100.49 C 144.74 102.66 144.76 104.84 144.89 107.01 C 146.71 105.37 147.44 103.09 147.77 100.74 C 146.99 100.67 145.44 100.55 144.67 100.49 M 157.45 102.05 C 156.21 111.61 156.73 121.28 156.33 130.88 C 158.22 128.75 157.13 125.68 157.94 123.15 C 158.93 116.36 159.06 109.42 160.57 102.70 C 159.52 102.49 158.48 102.27 157.45 102.05 M 74.62 102.50 C 76.05 104.68 77.62 107.08 80.12 108.12 C 85.50 109.32 90.87 111.27 96.46 110.23 C 90.14 105.41 81.93 104.95 74.62 102.50 M 107.39 106.70 C 107.96 107.95 108.49 109.22 108.93 110.52 C 109.34 110.49 110.16 110.44 110.57 110.42 C 110.61 109.07 110.64 107.72 110.68 106.38 C 109.58 106.49 108.49 106.60 107.39 106.70 M 143.52 121.00 C 143.68 125.11 142.15 129.14 143.04 133.25 C 143.40 128.29 144.47 123.43 145.53 118.58 C 145.63 114.81 145.74 111.02 145.44 107.25 C 143.94 111.64 143.43 116.37 143.52 121.00 M 137.27 122.40 C 135.78 125.35 140.66 122.37 137.27 122.40 M 137.26 125.39 C 137.35 126.97 137.45 128.56 137.57 130.14 C 138.05 128.62 138.49 127.08 138.93 125.54 C 138.51 125.50 137.68 125.43 137.26 125.39 M 112.12 134.97 C 112.99 136.29 113.83 137.62 114.68 138.96 C 113.70 139.84 112.73 140.73 111.76 141.63 C 112.38 141.24 113.62 140.48 114.24 140.10 C 114.96 142.12 115.67 144.16 116.31 146.21 C 114.08 141.55 117.48 135.99 114.16 131.78 C 114.88 131.13 115.60 130.48 116.33 129.84 C 116.03 129.01 115.75 128.17 115.48 127.33 C 114.58 129.96 113.50 132.54 112.12 134.97 M 101.67 141.60 C 102.34 141.67 103.68 141.82 104.35 141.89 C 103.54 138.52 103.61 135.05 103.14 131.63 C 102.39 134.90 101.81 138.24 101.67 141.60 M 41.50 133.81 C 40.56 135.09 42.68 136.72 43.73 135.60 C 44.67 134.30 42.57 132.62 41.50 133.81 M 110.87 155.15 C 111.85 157.87 113.31 160.35 114.89 162.76 C 116.67 161.09 118.52 159.49 120.26 157.79 C 117.16 156.82 114.16 155.37 110.87 155.15 M 147.50 161.27 C 146.95 163.24 146.40 165.21 146.07 167.23 C 148.16 166.03 149.47 164.02 149.93 161.68 C 149.33 161.58 148.11 161.38 147.50 161.27 M 111.89 162.93 C 111.37 164.39 111.82 164.87 113.25 164.35 C 113.75 162.90 113.29 162.43 111.89 162.93 M 114.97 168.75 C 114.07 167.59 113.16 166.42 111.99 165.52 C 112.80 167.12 113.98 168.51 114.66 170.18 C 114.71 172.49 114.47 174.79 114.36 177.09 C 115.22 176.48 116.07 175.87 116.93 175.25 C 118.09 176.30 119.23 177.37 120.39 178.43 C 120.21 173.19 120.35 167.89 119.32 162.73 C 117.86 164.73 116.43 166.75 114.97 168.75 M 122.31 178.20 C 124.80 177.01 125.91 174.77 125.68 172.03 C 123.81 173.61 122.98 175.93 122.31 178.20 M 87.43 175.95 C 86.57 177.83 90.64 178.45 90.82 176.66 C 90.42 175.36 88.36 175.10 87.43 175.95 Z" />
<path fill="#000000" opacity="1.00" d=" M 143.23 78.19 C 146.05 76.56 143.42 81.64 143.23 78.19 Z" />
<path fill="#000000" opacity="1.00" d=" M 22.42 80.71 C 23.79 79.79 25.69 82.92 23.93 83.49 C 22.67 83.43 21.91 81.78 22.42 80.71 Z" />
<path fill="#000000" opacity="1.00" d=" M 207.45 115.13 C 208.55 114.21 209.23 114.45 209.49 115.85 C 208.38 116.77 207.70 116.53 207.45 115.13 Z" />
<path fill="#000000" opacity="1.00" d=" M 29.62 126.91 C 31.35 127.72 33.08 128.54 34.84 129.27 C 34.43 130.57 34.01 131.86 33.56 133.14 C 31.72 131.33 28.15 130.09 29.62 126.91 Z" />
<path fill="#000000" opacity="1.00" d=" M 36.13 131.16 C 36.81 131.83 36.81 131.83 36.13 131.16 Z" />
<path fill="#000000" opacity="1.00" d=" M 51.75 165.89 C 53.84 167.19 56.07 168.17 58.56 167.51 C 59.63 168.86 60.70 170.23 61.66 171.67 C 62.88 171.07 64.11 170.50 65.36 169.96 C 65.50 171.14 65.79 173.51 65.93 174.69 C 62.99 174.30 60.01 174.57 57.08 174.09 C 55.04 173.50 53.34 172.17 51.49 171.18 C 51.59 169.42 51.66 167.65 51.75 165.89 M 57.37 169.70 C 56.02 170.10 56.07 172.59 57.79 171.69 C 59.32 171.48 58.98 168.72 57.37 169.70 Z" />
<path fill="#000000" opacity="1.00" d=" M 91.73 167.94 C 92.55 169.68 93.34 171.43 94.04 173.21 C 93.38 173.34 92.06 173.59 91.39 173.72 C 91.52 171.79 91.62 169.87 91.73 167.94 Z" />
<path fill="#000000" opacity="1.00" d=" M 180.63 183.10 C 179.62 179.90 184.16 181.40 184.90 178.88 C 188.99 181.71 194.00 182.98 197.60 186.54 C 200.68 187.24 203.78 187.86 206.35 189.85 C 205.50 190.86 204.65 191.87 203.83 192.90 C 200.31 189.68 195.50 188.90 191.39 186.76 C 187.93 185.18 184.12 184.59 180.63 183.10 Z" />
<path fill="#000000" opacity="1.00" d=" M 45.53 185.21 C 46.91 184.66 48.24 184.01 49.45 183.15 C 51.06 184.66 53.25 184.89 55.37 184.79 C 54.88 184.03 53.89 182.53 53.40 181.78 C 56.52 184.59 60.77 185.72 64.06 188.39 C 60.72 188.69 57.52 187.47 54.19 187.53 C 52.86 187.55 51.82 186.55 50.64 186.09 C 50.44 186.50 50.05 187.32 49.85 187.72 C 48.46 186.80 47.01 185.98 45.53 185.21 Z" />
<path fill="#000000" opacity="1.00" d=" M 60.38 184.32 C 61.87 183.91 62.39 184.35 61.93 185.67 C 60.44 186.12 59.93 185.67 60.38 184.32 Z" />
<path fill="#000000" opacity="1.00" d=" M 207.44 190.49 C 209.07 190.02 209.66 190.58 209.20 192.18 C 207.55 192.65 206.97 192.09 207.44 190.49 Z" />
</g>
</svg>
