<?xml version="1.0" encoding="UTF-8" ?>
<!DOCTYPE svg PUBLIC "-//W3C//DTD SVG 1.1//EN" "http://www.w3.org/Graphics/SVG/1.1/DTD/svg11.dtd">
<svg width="256pt" height="256pt" viewBox="0 0 256 256" version="1.1" xmlns="http://www.w3.org/2000/svg">
<g id="#000000ff">
<path fill="#000000" opacity="1.00" d=" M 121.00 60.95 C 122.65 58.84 123.26 55.36 126.43 55.08 C 125.79 58.54 124.59 61.86 124.19 65.36 C 126.91 64.66 130.06 66.17 132.50 64.61 C 132.49 64.02 132.45 62.85 132.43 62.26 C 134.23 66.09 137.04 69.35 138.64 73.28 C 139.85 72.43 141.08 71.59 142.32 70.77 C 143.02 74.60 146.10 77.87 145.42 81.87 C 146.57 88.97 147.47 96.31 150.95 102.72 C 151.89 108.54 155.40 113.37 157.10 118.92 C 158.50 121.67 158.28 125.17 160.54 127.46 C 162.25 129.32 162.84 131.87 163.84 134.14 C 168.40 135.78 173.07 137.13 177.60 138.89 C 175.63 136.57 173.03 134.79 171.43 132.16 C 172.51 131.25 173.65 130.41 174.76 129.53 C 182.88 130.49 190.90 132.23 199.10 132.58 C 201.68 133.40 204.37 134.32 206.47 136.13 C 200.55 137.57 194.97 134.76 189.08 134.73 C 185.03 134.45 181.11 133.15 177.03 133.33 C 177.64 134.47 178.27 135.60 178.89 136.74 C 181.52 136.24 184.13 134.55 186.84 135.16 C 188.82 137.02 185.47 138.17 184.44 139.44 C 186.84 140.25 191.70 140.01 190.79 143.84 C 187.33 144.53 183.55 142.81 179.92 143.31 C 176.16 141.86 173.02 145.90 169.65 147.05 C 170.98 148.08 172.31 149.10 173.64 150.13 C 172.93 151.09 172.23 152.06 171.53 153.03 C 169.18 152.03 166.82 150.79 164.23 150.65 C 161.33 151.89 158.58 153.44 155.69 154.69 C 155.67 155.49 155.61 157.10 155.58 157.90 C 153.53 159.30 150.83 157.77 148.63 158.78 C 141.49 161.84 134.68 165.67 128.29 170.09 C 122.32 171.83 117.19 175.37 111.38 177.51 C 109.10 178.37 107.20 180.73 104.62 180.44 C 104.14 178.55 105.80 177.18 106.72 175.76 C 103.61 174.02 100.56 172.19 97.31 170.73 C 91.53 166.15 84.23 164.32 77.87 160.80 C 78.42 162.46 78.96 164.12 79.48 165.79 C 78.38 164.06 77.43 162.25 76.45 160.47 C 74.05 161.65 71.59 162.83 68.85 162.74 C 74.08 165.97 80.27 167.14 85.31 170.66 C 87.42 171.86 89.86 172.60 91.57 174.42 C 93.71 176.80 96.92 178.18 98.23 181.25 C 95.40 182.01 93.26 180.15 91.02 178.80 C 87.97 178.01 84.70 178.55 81.65 177.64 C 84.79 177.49 87.92 177.81 91.03 178.22 C 84.37 172.79 75.99 170.48 68.50 166.50 C 66.31 165.02 66.08 162.13 65.19 159.86 C 67.38 158.85 69.66 158.04 71.94 157.26 C 70.71 156.06 69.54 154.77 68.92 153.13 C 70.98 153.27 72.92 153.98 74.78 154.83 C 77.46 153.56 80.19 152.31 82.41 150.29 C 85.02 148.99 87.70 147.84 90.07 146.12 C 90.17 146.84 90.36 148.27 90.45 148.99 C 90.48 148.01 90.51 147.03 90.54 146.05 C 92.92 145.08 95.16 143.80 97.51 142.76 C 97.71 140.97 97.66 139.17 97.33 137.40 C 98.30 136.27 99.77 135.35 100.03 133.78 C 101.13 127.73 102.32 121.58 105.10 116.05 C 107.29 106.92 110.76 98.19 113.03 89.10 C 112.38 86.18 111.31 83.38 110.27 80.59 C 110.98 80.21 112.41 79.45 113.13 79.08 C 114.05 80.75 114.94 82.61 117.06 82.91 C 116.61 80.58 114.53 79.32 112.99 77.75 C 117.47 77.04 118.59 72.36 119.84 68.68 C 120.84 66.18 119.10 63.11 121.00 60.95 M 126.42 68.89 C 128.62 71.79 130.21 75.07 132.09 78.17 C 132.51 78.08 133.34 77.90 133.76 77.80 C 135.40 74.75 134.25 71.42 133.07 68.46 C 130.86 68.71 128.64 68.84 126.42 68.89 M 122.84 69.71 C 122.27 72.40 121.96 75.14 121.36 77.83 C 123.37 77.66 125.38 77.68 127.40 77.70 C 125.73 75.12 124.02 72.56 122.84 69.71 M 118.94 81.48 C 118.00 83.33 116.75 85.43 117.45 87.57 C 118.85 91.13 119.94 94.80 121.01 98.47 C 122.52 96.27 124.05 94.07 125.72 91.98 C 125.10 89.72 124.72 87.42 124.35 85.11 C 125.58 84.83 126.81 84.56 128.05 84.31 C 128.37 87.48 128.44 90.68 128.44 93.86 C 126.69 97.38 124.96 100.95 124.17 104.83 C 126.04 103.14 128.04 101.53 129.62 99.55 C 129.76 94.63 130.18 89.58 129.30 84.70 C 126.11 82.93 122.43 82.38 118.94 81.48 M 132.93 82.42 C 133.21 83.65 133.37 84.93 133.83 86.12 C 136.74 89.51 139.51 93.11 143.25 95.67 C 142.72 91.13 142.92 86.36 141.10 82.09 C 138.37 82.10 135.65 82.30 132.93 82.42 M 133.25 91.84 C 133.60 98.94 133.80 106.04 133.06 113.13 C 134.82 108.57 137.81 104.66 139.65 100.14 C 138.10 96.94 135.61 94.43 133.25 91.84 M 115.80 96.35 C 112.49 104.73 110.12 113.42 106.98 121.85 C 105.99 126.32 104.32 130.58 102.76 134.88 C 107.29 132.44 111.95 129.42 117.21 129.27 C 116.06 128.28 114.88 127.33 113.69 126.40 C 116.51 123.26 117.30 118.93 119.75 115.53 C 118.33 116.83 116.84 118.07 115.51 119.48 C 114.72 121.43 114.01 123.42 113.20 125.37 C 112.57 124.95 111.32 124.12 110.70 123.71 C 113.12 117.06 115.50 110.37 118.79 104.09 C 117.72 101.54 116.61 99.00 115.80 96.35 M 125.55 109.65 C 123.35 115.51 120.27 120.94 118.11 126.81 C 121.50 127.26 124.92 127.34 128.34 127.36 C 127.96 119.63 129.27 111.91 129.37 104.17 C 127.94 105.88 126.60 107.68 125.55 109.65 M 134.42 120.83 C 140.53 120.37 146.61 119.34 152.53 117.72 C 150.55 112.28 148.74 105.05 141.91 104.22 C 139.27 109.70 135.59 114.74 134.42 120.83 M 139.53 124.66 C 143.69 128.70 144.65 134.86 143.01 140.27 C 149.10 142.74 155.35 145.57 162.09 145.43 C 159.96 141.18 156.88 137.52 154.66 133.34 C 155.62 132.53 156.59 131.72 157.58 130.93 C 156.67 128.32 155.90 125.67 155.10 123.03 C 149.99 124.24 144.74 124.33 139.53 124.66 M 133.56 126.04 C 133.14 127.05 132.73 128.08 132.33 129.10 C 133.04 129.26 134.47 129.56 135.18 129.71 C 134.67 128.47 134.14 127.24 133.56 126.04 M 124.06 129.20 C 124.19 129.76 124.44 130.86 124.57 131.41 C 125.65 131.44 126.74 131.48 127.82 131.51 C 127.87 130.93 127.96 129.77 128.00 129.18 C 126.69 129.18 125.37 129.18 124.06 129.20 M 109.34 134.97 C 114.26 137.56 118.92 133.68 123.45 132.15 C 121.95 131.18 120.43 130.23 118.93 129.26 C 115.59 130.91 111.92 132.13 109.34 134.97 M 102.31 138.55 C 104.99 138.71 107.67 138.64 110.35 138.66 C 109.64 137.92 108.22 136.46 107.51 135.73 C 105.58 136.26 103.58 136.88 102.31 138.55 M 115.28 137.54 C 118.51 140.63 122.51 142.81 126.21 145.32 C 127.06 142.30 128.10 139.26 127.81 136.07 C 123.73 137.34 119.47 140.01 115.28 137.54 M 131.75 136.02 C 131.73 137.12 131.72 138.22 131.70 139.32 C 132.42 139.29 133.85 139.25 134.57 139.23 C 133.71 138.09 132.75 137.04 131.75 136.02 M 165.53 138.96 C 165.41 140.62 165.28 142.29 165.16 143.96 C 167.25 142.89 169.33 141.83 171.43 140.79 C 169.49 140.10 167.51 139.51 165.53 138.96 M 112.71 140.02 C 112.35 141.53 111.87 143.01 111.41 144.50 C 109.63 144.75 107.88 145.10 106.14 145.55 C 108.30 146.83 110.36 148.31 112.65 149.34 C 115.79 150.17 119.09 149.48 122.30 149.63 C 123.15 151.75 121.93 152.94 120.06 153.65 C 122.11 153.92 124.13 154.40 126.17 154.77 C 125.48 152.83 124.86 150.86 123.98 149.00 C 120.81 145.33 116.74 142.64 112.71 140.02 M 131.01 142.76 C 131.08 144.16 131.15 145.57 131.22 146.97 C 133.32 148.26 135.61 149.17 137.85 150.17 C 140.45 151.28 143.01 153.17 145.99 152.32 C 144.17 150.26 142.17 148.31 141.20 145.68 C 137.70 145.07 134.16 144.53 131.01 142.76 M 143.33 144.92 C 145.66 146.84 147.47 149.29 149.70 151.32 C 151.38 150.34 153.11 149.47 154.90 148.73 C 151.10 147.29 147.25 145.99 143.33 144.92 M 100.65 148.85 C 96.42 150.61 92.90 153.90 88.24 154.60 C 94.62 154.19 100.58 151.13 106.99 151.27 C 106.89 150.89 106.69 150.13 106.59 149.75 C 104.61 149.55 102.66 148.37 100.65 148.85 M 130.00 151.49 C 130.17 153.32 130.85 155.01 131.81 156.57 C 131.17 157.13 130.54 157.69 129.90 158.25 C 131.80 158.29 133.70 158.48 135.59 158.43 C 137.81 157.71 139.63 156.15 141.55 154.88 C 138.61 154.16 135.71 153.03 132.63 153.25 C 132.72 152.66 132.81 152.07 132.89 151.48 C 132.17 151.48 130.72 151.49 130.00 151.49 M 92.02 157.71 C 88.52 158.29 84.99 158.59 81.44 158.70 C 88.56 163.82 97.85 164.79 104.77 170.27 C 105.78 170.91 106.72 171.82 107.95 172.02 C 111.39 170.58 114.42 168.25 118.04 167.19 C 120.72 166.37 123.00 164.69 125.35 163.22 C 124.89 161.92 124.46 160.61 124.06 159.30 C 120.89 158.09 117.86 156.55 114.75 155.23 C 107.34 156.88 99.67 159.00 92.02 157.71 M 108.71 175.22 C 111.42 174.35 113.83 172.82 116.16 171.24 C 113.22 171.57 110.37 172.60 108.71 175.22 Z" />
<path fill="#000000" opacity="1.00" d=" M 201.41 127.14 C 205.19 127.57 209.03 127.20 212.79 127.82 C 214.56 128.79 216.07 130.17 217.61 131.46 C 212.22 130.42 206.25 127.94 201.07 131.13 C 201.19 129.80 201.30 128.47 201.41 127.14 Z" />
</g>
</svg>
