<?xml version="1.0" encoding="UTF-8" ?>
<!DOCTYPE svg PUBLIC "-//W3C//DTD SVG 1.1//EN" "http://www.w3.org/Graphics/SVG/1.1/DTD/svg11.dtd">
<svg width="256pt" height="256pt" viewBox="0 0 256 256" version="1.1" xmlns="http://www.w3.org/2000/svg">
<g id="#000000ff">
<path fill="#000000" opacity="1.00" d=" M 112.84 30.88 C 116.02 29.82 119.30 28.93 122.01 26.82 C 124.70 31.28 130.51 30.77 134.41 33.64 C 134.41 34.47 134.40 36.14 134.39 36.98 C 130.18 36.28 126.03 35.28 121.81 34.62 C 122.28 33.15 122.75 31.68 123.19 30.20 C 120.12 32.07 117.03 33.94 113.56 34.96 C 113.10 37.55 113.30 40.17 113.79 42.74 C 112.92 43.41 112.05 44.09 111.19 44.76 C 111.37 45.52 111.74 47.05 111.92 47.81 C 116.33 49.39 120.96 48.26 125.49 48.74 C 129.11 48.87 132.74 48.69 136.36 48.61 C 136.82 49.72 137.27 50.84 137.72 51.96 C 136.45 53.05 135.15 54.11 133.86 55.18 C 128.66 52.67 122.66 53.92 117.15 52.56 C 113.14 54.78 110.22 50.70 107.07 48.85 C 104.39 50.73 104.38 53.92 104.53 56.87 C 108.08 57.65 111.21 60.67 115.00 59.33 C 114.68 64.50 118.54 68.13 120.01 72.79 C 121.56 76.04 125.95 75.85 128.26 77.99 C 128.33 80.34 125.42 80.09 123.82 80.66 C 120.58 79.94 117.83 77.64 115.17 75.71 C 113.63 74.68 114.50 72.71 114.44 71.21 C 113.05 68.89 111.95 66.42 111.14 63.85 C 107.94 62.57 104.76 61.24 101.66 59.74 C 101.90 56.42 100.74 52.71 102.89 49.82 C 104.08 47.64 106.49 46.62 108.06 44.79 C 108.99 40.00 109.65 34.77 112.84 30.88 Z" />
<path fill="#000000" opacity="1.00" d=" M 137.08 35.18 C 143.08 36.71 140.76 44.11 144.14 47.82 C 146.21 52.62 143.55 57.52 142.17 62.12 C 140.94 65.27 140.92 68.70 140.22 71.98 C 139.78 71.66 138.89 71.03 138.44 70.71 C 138.75 62.81 138.39 54.87 139.13 46.98 C 138.39 44.21 136.88 41.74 135.53 39.25 C 136.05 37.89 136.57 36.53 137.08 35.18 Z" />
<path fill="#000000" opacity="1.00" d=" M 121.51 57.53 C 124.33 57.38 127.14 57.77 129.95 57.70 C 129.79 58.66 129.64 59.62 129.49 60.58 C 126.18 62.22 122.46 61.71 118.93 61.38 C 119.77 60.10 120.22 58.45 121.51 57.53 Z" />
<path fill="#000000" opacity="1.00" d=" M 112.05 71.18 C 114.24 73.07 112.88 75.42 111.95 77.61 C 112.75 77.54 114.33 77.39 115.13 77.32 C 117.92 81.19 120.08 85.43 121.87 89.84 C 122.47 91.84 124.75 92.18 126.31 93.18 C 127.32 89.93 128.41 86.70 129.36 83.43 C 130.02 81.23 129.17 78.59 130.49 76.64 C 133.66 74.82 137.03 73.33 140.56 72.37 C 139.52 74.58 138.28 76.81 136.16 78.15 C 133.49 79.80 132.98 83.09 131.97 85.81 C 130.66 89.97 128.77 93.93 127.51 98.11 C 128.83 99.30 130.28 100.34 131.63 101.50 C 128.98 101.16 126.37 100.51 123.72 100.21 C 123.02 98.31 122.34 96.40 121.62 94.51 C 121.64 95.96 121.67 97.40 121.71 98.85 C 119.29 97.45 116.78 96.17 114.60 94.40 C 110.65 90.91 108.33 86.04 104.64 82.31 C 100.06 85.21 94.25 84.73 89.83 88.06 C 90.52 89.34 91.23 90.62 91.92 91.91 C 89.09 93.31 86.13 94.59 83.76 96.74 C 79.31 100.45 76.95 105.93 74.86 111.19 C 75.85 111.82 76.85 112.45 77.85 113.07 C 76.57 114.45 75.12 115.68 74.00 117.20 C 72.73 120.81 72.14 124.69 70.05 127.96 C 69.12 129.96 67.38 131.73 67.44 134.06 C 67.14 141.04 68.86 147.97 71.68 154.31 C 75.46 154.75 79.32 155.44 82.71 157.26 C 85.65 159.23 88.55 161.29 91.71 162.90 C 92.10 159.92 89.75 158.14 87.92 156.21 C 89.36 156.31 90.91 156.14 92.20 156.92 C 97.22 159.58 102.50 161.71 107.65 164.08 C 107.53 165.14 107.41 166.20 107.29 167.26 C 109.26 167.26 111.23 167.30 113.20 167.30 C 111.20 162.65 105.99 161.49 102.33 158.57 C 98.59 157.29 94.47 156.42 91.58 153.50 C 88.43 150.31 85.40 146.99 82.61 143.49 C 80.67 140.28 78.41 136.74 79.55 132.85 C 80.16 132.49 81.39 131.77 82.01 131.42 C 83.14 132.33 84.28 133.23 85.43 134.12 C 85.57 138.81 88.96 142.68 92.32 145.63 C 94.22 145.72 96.30 144.62 98.01 145.92 C 101.18 147.23 102.86 150.45 105.63 152.32 C 108.70 154.44 111.51 156.91 114.19 159.50 C 114.24 158.62 114.32 156.85 114.36 155.97 C 110.88 153.37 107.33 150.78 103.38 148.93 C 101.55 148.20 100.37 146.55 99.13 145.11 C 100.77 144.17 102.44 143.28 104.09 142.37 C 108.29 145.27 112.44 148.28 117.06 150.50 C 122.01 148.18 126.88 145.52 132.19 144.12 C 132.39 144.88 132.80 146.42 133.01 147.19 C 128.62 147.98 124.97 150.83 120.62 151.76 C 119.62 155.68 117.08 158.75 114.69 161.89 C 116.59 161.80 118.38 161.16 120.14 160.46 C 123.71 163.55 128.47 163.35 132.83 164.20 C 128.83 163.07 126.13 159.67 122.38 158.07 C 123.96 153.94 127.95 151.62 131.33 149.10 C 135.26 148.04 139.29 147.24 143.09 145.65 C 146.56 144.20 148.82 148.13 151.84 148.87 C 153.84 146.98 150.25 146.11 149.10 145.10 C 150.40 138.89 151.35 132.60 153.20 126.53 C 153.83 122.30 153.90 117.79 155.90 113.93 C 159.55 109.90 156.13 104.51 155.19 100.06 C 155.31 101.76 155.86 103.37 156.41 104.97 C 155.29 106.61 155.10 109.25 152.98 109.93 C 152.26 109.10 151.57 108.25 150.91 107.37 C 150.52 111.97 148.21 116.02 146.85 120.35 C 145.69 122.83 147.49 125.29 147.89 127.74 C 146.89 126.85 145.93 125.92 144.97 125.00 C 144.60 125.64 143.84 126.93 143.47 127.57 C 143.87 128.69 144.28 129.81 144.67 130.94 C 141.65 132.70 139.28 135.29 136.44 137.28 C 136.40 133.55 138.76 130.48 140.67 127.48 C 139.93 126.85 139.19 126.21 138.46 125.57 C 140.58 124.37 143.08 123.22 143.69 120.61 C 145.48 114.64 147.49 108.68 147.86 102.40 C 148.44 102.38 149.60 102.32 150.19 102.30 C 149.88 102.05 149.28 101.56 148.97 101.31 C 151.67 97.99 152.94 93.90 154.95 90.19 C 152.07 88.23 149.03 86.53 146.05 84.75 C 145.50 85.54 144.93 86.31 144.37 87.09 C 145.86 87.55 147.36 88.02 148.85 88.49 C 148.26 90.02 147.65 91.55 147.08 93.10 C 148.78 93.60 150.48 94.12 152.18 94.67 C 151.61 95.31 150.48 96.59 149.92 97.23 C 148.25 96.57 146.57 95.93 144.91 95.24 C 143.30 98.08 141.98 101.08 141.63 104.36 C 140.57 104.87 139.50 105.38 138.43 105.87 C 138.95 100.23 141.92 95.38 144.32 90.41 C 139.94 92.88 138.21 97.73 135.76 101.80 C 133.15 105.76 132.37 110.60 129.55 114.44 C 126.86 120.24 124.48 126.19 122.12 132.14 C 123.39 134.15 124.74 136.10 126.09 138.05 C 125.09 139.13 124.11 140.22 123.13 141.32 C 120.42 138.53 117.78 135.66 115.01 132.93 C 115.63 131.86 116.26 130.81 116.87 129.74 C 115.96 130.12 115.05 130.51 114.14 130.89 C 112.08 127.26 110.43 123.38 107.94 120.01 C 103.30 114.68 102.35 107.20 97.23 102.19 C 98.51 99.83 98.94 97.22 98.51 94.58 C 100.63 93.44 103.00 93.18 105.37 93.21 C 104.46 94.39 103.47 95.51 102.55 96.69 C 101.92 98.51 103.26 100.27 104.27 101.68 C 107.81 106.14 109.30 111.80 112.51 116.47 C 115.39 121.16 118.96 125.59 120.42 130.99 C 120.88 123.52 125.19 117.01 128.12 110.28 C 129.91 106.08 132.97 102.39 133.78 97.81 C 135.03 92.29 140.30 88.66 141.29 83.02 C 141.36 81.34 141.32 79.66 141.37 77.98 C 145.39 80.14 150.39 79.09 154.16 81.92 C 157.16 84.20 159.98 86.87 161.89 90.15 C 163.31 92.59 166.33 92.92 168.71 93.93 C 168.31 94.42 167.52 95.41 167.12 95.91 C 168.06 97.31 169.07 98.68 169.86 100.18 C 169.39 101.83 168.53 103.33 167.90 104.92 C 166.43 104.27 164.94 103.64 163.46 103.03 C 162.66 105.39 162.16 107.87 161.08 110.14 C 158.68 115.33 158.18 121.11 156.78 126.59 C 155.17 130.95 155.64 135.88 152.90 139.84 C 158.03 135.23 164.93 132.52 171.85 132.77 C 173.91 133.29 175.79 134.35 177.73 135.21 C 174.76 137.26 171.03 135.46 167.98 137.13 C 163.96 139.26 159.20 139.63 155.66 142.70 C 154.71 142.53 153.78 142.35 152.84 142.15 C 152.37 143.53 151.84 144.89 151.34 146.26 C 153.18 145.34 154.78 143.66 156.96 143.66 C 161.17 143.23 164.76 140.67 168.88 139.81 C 172.59 139.08 175.91 137.17 179.02 135.09 C 179.99 135.75 180.96 136.41 181.93 137.08 C 179.65 139.54 177.43 142.30 174.05 143.25 C 166.55 145.50 159.55 150.97 151.33 149.46 C 151.51 152.98 152.53 156.37 153.49 159.75 C 155.37 159.38 157.25 159.02 159.13 158.66 C 158.11 160.48 156.94 162.20 155.80 163.95 C 157.32 165.13 158.82 166.33 160.32 167.55 C 167.04 159.67 178.15 160.11 186.78 155.79 C 189.51 153.72 186.93 149.99 187.68 147.17 C 188.96 147.95 190.30 148.66 191.51 149.57 C 192.05 151.77 190.61 154.31 192.39 156.16 C 190.91 157.93 190.50 160.21 190.14 162.42 C 193.97 162.23 197.83 162.42 201.44 163.80 C 204.57 164.41 205.40 167.93 206.87 170.32 C 207.59 172.52 209.75 173.55 211.50 174.83 C 212.28 178.42 211.11 181.83 209.02 184.75 C 206.39 179.70 203.14 174.92 199.12 170.88 C 196.08 167.70 191.41 168.21 187.42 168.31 C 185.61 169.31 184.16 170.84 182.54 172.10 C 182.53 171.12 182.50 169.17 182.49 168.19 C 175.30 171.86 169.40 177.99 161.29 179.79 C 158.34 180.26 156.34 182.60 153.92 184.10 C 151.52 185.66 148.77 186.52 146.16 187.66 C 146.25 186.96 146.42 185.55 146.50 184.85 C 144.56 187.38 141.94 189.15 138.65 188.59 C 131.02 193.40 121.92 195.87 112.89 195.61 C 110.32 195.29 108.26 197.30 105.78 197.51 C 102.85 197.80 99.91 197.76 96.99 197.48 C 91.17 197.03 85.34 197.72 79.52 197.45 C 79.40 195.48 79.26 193.51 78.97 191.56 C 78.63 193.59 78.36 195.64 77.98 197.66 C 76.85 195.60 75.82 193.50 74.86 191.36 C 75.18 193.08 75.46 194.81 75.68 196.56 C 72.77 195.02 69.88 193.46 66.96 191.97 C 65.52 190.14 65.18 187.81 65.32 185.54 C 67.14 185.39 68.96 185.31 70.79 185.26 C 71.35 186.72 71.92 188.18 72.53 189.63 C 76.57 187.81 80.61 189.89 84.52 191.02 C 84.54 190.43 84.57 189.25 84.59 188.66 C 82.89 188.34 81.19 188.00 79.56 187.42 C 77.98 186.27 76.91 184.49 75.07 183.70 C 71.59 181.97 68.85 179.17 65.71 176.96 C 65.54 176.14 65.20 174.50 65.03 173.68 C 67.20 173.52 69.63 172.86 71.59 174.17 C 79.15 178.71 86.46 183.70 94.52 187.32 C 96.12 188.22 96.63 190.27 98.18 191.24 C 100.08 191.47 102.01 191.37 103.92 191.30 C 102.62 188.78 100.10 187.54 97.84 186.07 C 95.91 184.93 95.76 182.32 94.06 180.93 C 91.33 178.47 87.02 177.26 86.12 173.22 C 86.64 172.49 87.20 171.78 87.79 171.09 C 85.40 169.39 86.53 166.69 87.01 164.34 C 85.00 166.77 85.41 169.98 85.49 172.91 C 84.13 172.23 82.77 171.57 81.40 170.92 C 81.53 169.46 81.66 168.01 81.80 166.56 C 80.65 165.87 79.51 165.16 78.40 164.41 C 78.44 163.19 78.48 161.98 78.52 160.76 C 74.10 160.49 69.68 160.31 65.26 159.92 C 62.09 161.18 59.15 162.95 55.89 164.00 C 55.48 169.08 53.02 173.78 53.24 178.93 C 53.22 183.58 51.49 188.66 53.93 192.99 C 54.49 194.20 54.97 195.46 55.46 196.71 C 52.04 196.07 49.13 194.26 46.38 192.23 C 47.24 187.26 47.86 182.25 47.46 177.20 C 48.59 172.05 51.52 167.35 51.59 161.92 C 56.21 159.27 60.34 154.83 66.10 155.19 C 64.94 151.68 63.62 148.18 63.43 144.45 C 62.77 139.56 61.41 134.31 63.63 129.60 C 64.39 126.83 66.92 125.15 68.19 122.69 C 69.55 116.90 71.56 111.28 73.30 105.60 C 74.83 99.27 79.84 94.47 85.01 90.88 C 85.95 88.82 86.32 86.51 87.50 84.55 C 90.07 82.58 93.06 81.21 96.05 80.01 C 99.54 78.67 103.32 79.61 106.94 79.35 C 108.77 76.72 109.66 73.48 112.05 71.18 M 110.83 80.73 C 111.59 86.62 115.94 91.20 120.13 95.05 C 118.04 90.56 115.58 86.26 113.04 82.03 C 112.49 81.70 111.38 81.06 110.83 80.73 M 141.71 150.48 C 141.99 152.23 141.34 153.81 140.25 155.16 C 142.47 155.25 144.68 155.40 146.89 155.64 C 146.37 153.40 145.84 151.17 145.34 148.94 C 144.13 149.45 142.92 149.97 141.71 150.48 M 130.62 156.65 C 133.56 158.74 136.33 161.08 139.48 162.85 C 139.93 160.27 138.11 158.33 136.80 156.34 C 134.74 156.51 132.68 156.59 130.62 156.65 M 140.66 165.59 C 143.46 164.51 146.40 164.13 149.39 164.40 C 148.72 162.81 148.04 161.23 147.37 159.64 C 145.32 161.84 143.02 163.76 140.66 165.59 M 93.58 162.05 C 92.54 163.27 94.60 165.18 95.55 163.68 C 96.61 162.42 94.58 160.63 93.58 162.05 M 117.58 164.59 C 116.63 165.63 115.66 166.66 114.68 167.67 C 116.60 167.65 118.51 167.64 120.43 167.60 C 119.48 166.59 118.53 165.59 117.58 164.59 M 166.22 168.43 C 163.21 170.69 159.34 168.90 156.02 170.31 C 153.11 168.94 150.19 167.26 146.96 168.95 C 147.81 169.73 148.68 170.50 149.55 171.27 C 149.15 173.40 149.65 175.52 150.20 177.58 C 148.31 177.32 146.41 177.15 144.51 177.16 C 144.64 175.87 144.77 174.59 144.90 173.31 C 142.31 174.74 139.42 176.40 136.44 175.06 C 131.38 178.68 125.21 174.22 119.57 175.33 C 119.03 174.12 118.52 172.90 118.02 171.68 C 117.64 172.17 116.89 173.15 116.51 173.64 C 113.47 171.42 109.94 171.31 106.34 171.44 C 100.73 169.31 94.65 168.88 88.73 168.21 C 92.12 171.53 97.47 174.46 97.42 179.79 C 97.91 179.08 98.39 178.36 98.85 177.63 C 104.16 183.16 110.77 189.30 119.04 188.48 C 123.54 188.89 127.42 186.12 131.84 185.74 C 137.96 183.43 144.24 181.59 150.45 179.51 C 159.29 174.47 170.15 172.56 176.87 164.30 C 173.10 165.00 169.53 166.53 166.22 168.43 M 128.53 169.75 C 128.46 170.25 128.32 171.26 128.25 171.76 C 131.00 171.75 133.77 171.70 136.51 171.39 C 136.61 171.00 136.81 170.23 136.90 169.84 C 134.71 166.98 131.25 169.21 128.53 169.75 M 141.35 169.30 C 140.20 169.12 138.44 170.93 140.19 171.51 C 142.13 172.72 144.25 169.01 141.35 169.30 Z" />
<path fill="#000000" opacity="1.00" d=" M 94.14 100.61 C 98.24 105.36 95.56 111.68 95.36 117.17 C 94.31 123.60 94.69 130.15 93.39 136.53 C 92.40 136.65 91.40 136.77 90.41 136.89 C 90.36 133.49 90.45 130.04 89.13 126.83 C 90.31 126.26 92.27 125.79 91.79 124.01 C 91.65 119.49 91.58 114.94 92.37 110.47 C 93.03 107.14 91.77 103.47 94.14 100.61 Z" />
<path fill="#000000" opacity="1.00" d=" M 171.85 102.18 C 173.40 102.35 175.60 101.72 176.48 103.46 C 178.37 107.34 179.91 111.43 181.25 115.54 C 181.84 119.51 181.71 123.55 181.23 127.52 C 183.39 128.25 186.47 128.27 186.89 131.11 C 183.51 130.97 180.26 130.04 177.18 128.72 C 178.01 127.94 178.84 127.16 179.68 126.38 C 178.58 122.51 177.80 118.51 176.17 114.81 C 174.41 111.52 172.41 108.36 170.61 105.09 C 170.92 104.36 171.54 102.91 171.85 102.18 Z" />
<path fill="#000000" opacity="1.00" d=" M 82.12 109.21 C 82.79 109.26 84.13 109.34 84.80 109.39 C 87.58 113.67 88.50 118.76 90.14 123.52 C 90.07 123.82 89.95 124.42 89.89 124.73 C 89.55 124.78 88.88 124.89 88.54 124.95 C 88.64 127.77 88.46 130.59 88.27 133.41 C 87.40 133.45 85.67 133.55 84.80 133.60 C 84.53 130.74 84.51 127.86 84.17 125.00 C 83.15 119.81 80.28 114.55 82.12 109.21 Z" />
<path fill="#000000" opacity="1.00" d=" M 135.21 115.33 C 138.61 115.39 133.68 118.39 135.21 115.33 Z" />
<path fill="#000000" opacity="1.00" d=" M 147.36 131.21 C 148.99 131.84 147.00 135.77 145.38 134.79 C 144.47 133.36 145.99 131.61 147.36 131.21 Z" />
<path fill="#000000" opacity="1.00" d=" M 146.08 139.43 C 147.35 140.11 147.45 143.17 145.84 143.59 C 143.93 143.11 144.66 140.08 146.08 139.43 Z" />
<path fill="#000000" opacity="1.00" d=" M 216.44 175.28 C 217.00 175.01 217.56 174.75 218.12 174.48 C 219.22 176.13 220.51 177.68 221.35 179.49 C 222.04 182.93 219.35 185.69 218.56 188.84 C 217.56 193.32 215.00 197.34 211.71 200.49 C 210.20 203.03 208.29 205.31 205.90 207.06 C 204.54 207.87 202.96 209.21 201.46 207.90 C 201.40 206.56 201.47 205.21 201.50 203.87 C 203.43 202.74 205.49 201.70 206.99 200.00 C 208.23 198.64 207.50 196.69 207.55 195.06 C 212.35 194.21 214.02 189.30 215.39 185.27 C 216.60 182.08 216.21 178.62 216.44 175.28 Z" />
<path fill="#000000" opacity="1.00" d=" M 179.92 189.86 C 183.55 188.43 184.65 184.20 187.99 182.33 C 186.74 185.35 185.39 188.34 184.07 191.34 C 180.30 193.77 176.10 195.55 172.30 197.99 C 167.60 199.60 162.85 201.21 158.43 203.52 C 155.85 204.93 152.80 204.41 149.99 204.75 C 150.96 202.28 152.10 199.88 153.06 197.41 C 156.96 200.46 161.92 197.56 165.82 195.92 C 170.39 193.60 175.35 192.17 179.92 189.86 Z" />
<path fill="#000000" opacity="1.00" d=" M 190.76 188.74 C 192.20 186.75 194.28 185.45 196.37 184.23 C 196.90 185.20 197.44 186.18 197.98 187.17 C 196.02 190.16 193.64 192.81 190.46 194.53 C 188.36 198.73 184.37 201.02 180.48 203.30 C 179.26 203.63 178.00 203.46 176.76 203.46 C 175.89 205.20 174.91 206.88 173.99 208.60 C 176.16 208.47 178.33 208.34 180.49 208.01 C 178.95 209.00 177.36 209.93 175.94 211.09 C 173.19 213.44 169.51 214.09 166.13 215.03 C 165.07 214.08 164.01 213.13 162.91 212.23 C 163.43 213.24 164.45 215.27 164.96 216.28 C 162.25 216.63 159.47 216.68 156.93 215.50 C 157.08 216.03 157.39 217.10 157.55 217.63 C 163.53 217.27 169.51 217.98 175.48 217.30 C 174.91 218.49 174.33 219.67 173.75 220.85 C 175.35 219.66 177.10 218.69 179.06 218.24 C 179.07 222.08 175.05 222.48 172.09 222.47 C 165.71 224.53 158.85 222.87 152.27 223.95 C 152.32 222.86 152.36 221.77 152.40 220.69 C 151.34 221.72 150.31 222.77 149.27 223.81 C 146.29 223.42 143.38 222.22 140.33 222.48 C 136.38 222.81 132.57 221.49 128.77 220.62 C 125.99 220.20 123.19 220.77 120.40 220.70 C 117.39 219.19 114.61 216.16 110.91 216.95 C 112.80 217.55 114.68 218.15 116.54 218.84 C 115.93 221.27 113.32 220.48 111.46 220.82 C 110.05 220.82 109.16 222.09 108.09 222.82 C 106.28 222.00 104.46 221.20 102.66 220.39 C 104.08 219.92 105.52 219.49 106.97 219.09 C 105.37 218.30 103.85 217.37 102.25 216.59 C 98.67 216.31 95.08 216.34 91.50 216.35 C 92.02 214.71 92.56 213.07 92.92 211.39 C 92.06 212.81 91.38 214.33 90.70 215.85 C 86.34 214.75 81.68 215.25 77.46 213.58 C 75.23 212.89 73.28 211.56 71.12 210.70 C 67.42 210.60 63.76 210.17 60.11 209.50 C 64.71 211.81 69.31 214.31 74.37 215.39 C 79.22 217.05 83.90 219.28 88.98 220.22 C 93.15 220.41 97.38 220.50 101.43 219.33 C 101.41 221.21 101.40 223.10 101.41 224.99 C 94.57 221.73 86.73 225.00 79.60 222.87 C 79.38 221.48 79.14 220.09 78.82 218.72 C 78.30 220.06 77.81 221.41 77.33 222.76 C 72.25 221.51 67.04 220.77 62.11 218.95 C 57.21 217.28 51.76 216.04 48.12 212.07 C 50.50 209.43 52.74 205.55 56.70 205.45 C 59.51 205.12 62.20 204.23 64.97 203.68 C 71.05 204.67 76.80 207.39 83.00 207.71 C 84.46 209.32 85.93 210.93 87.47 212.47 C 87.41 211.08 87.35 209.69 87.27 208.31 C 89.28 208.45 91.31 208.58 93.32 208.76 C 95.71 205.99 99.02 203.71 102.78 203.76 C 105.94 204.35 109.06 205.24 112.28 205.52 C 116.49 205.72 120.69 205.10 124.91 205.32 C 128.56 205.26 132.77 202.69 136.01 205.42 C 137.35 204.15 138.88 203.11 140.68 202.61 C 139.99 204.65 139.12 206.62 138.22 208.58 C 139.34 207.62 140.47 206.65 141.63 205.73 C 141.45 204.71 141.27 203.70 141.10 202.68 C 144.35 202.10 147.60 201.34 150.92 201.31 C 149.93 202.91 149.60 205.44 147.41 205.83 C 143.08 206.98 139.45 210.35 134.67 209.44 C 135.14 211.10 135.81 212.69 136.80 214.12 C 141.01 211.37 146.20 211.63 151.01 211.42 C 156.52 210.52 162.15 210.57 167.65 209.49 C 167.51 207.16 167.37 204.82 167.53 202.49 C 169.36 202.27 171.30 202.61 173.06 201.94 C 179.72 198.72 186.07 194.55 190.76 188.74 M 169.79 207.39 C 168.20 209.08 172.35 210.94 172.87 208.83 C 173.10 207.22 170.89 206.70 169.79 207.39 Z" />
<path fill="#000000" opacity="1.00" d=" M 150.31 189.60 C 151.25 188.27 154.06 189.60 152.76 191.11 C 151.78 192.50 149.08 191.15 150.31 189.60 Z" />
<path fill="#000000" opacity="1.00" d=" M 150.49 193.19 C 151.95 193.13 153.41 193.10 154.87 193.12 C 154.71 194.26 154.38 195.35 153.89 196.37 C 152.64 196.49 151.38 196.57 150.13 196.62 C 150.22 195.76 150.40 194.05 150.49 193.19 Z" />
<path fill="#000000" opacity="1.00" d=" M 180.31 216.29 C 183.33 214.78 180.32 219.74 180.31 216.29 Z" />
</g>
</svg>
