<?xml version="1.0" encoding="UTF-8" ?>
<!DOCTYPE svg PUBLIC "-//W3C//DTD SVG 1.1//EN" "http://www.w3.org/Graphics/SVG/1.1/DTD/svg11.dtd">
<svg width="256pt" height="128pt" viewBox="0 0 256 128" version="1.1" xmlns="http://www.w3.org/2000/svg">
<g id="#000000ff">
<path fill="#000000" opacity="1.00" d=" M 107.02 6.00 C 109.53 4.48 113.11 3.24 115.68 5.33 C 121.22 10.07 124.48 17.59 123.57 24.89 C 122.90 30.09 121.73 35.38 118.84 39.83 C 116.91 42.92 114.05 45.23 111.78 48.03 C 116.76 47.76 120.87 44.76 125.13 42.53 C 125.94 47.05 121.72 50.15 120.83 54.34 C 125.00 54.33 128.76 52.33 132.24 50.25 C 135.44 48.28 135.81 44.22 137.11 41.03 C 139.34 35.16 143.47 30.24 147.87 25.85 C 149.28 24.36 152.51 22.79 153.67 25.37 C 154.43 31.35 151.41 37.19 147.47 41.50 C 144.38 44.62 141.26 47.74 137.77 50.42 C 138.60 52.18 140.22 53.54 142.22 53.67 C 148.72 54.13 155.30 50.91 159.23 45.77 C 160.06 46.99 161.65 48.71 160.06 50.06 C 155.13 54.33 148.87 58.64 141.99 57.41 C 138.65 57.29 136.39 54.66 134.22 52.47 C 130.90 54.59 127.38 56.41 123.66 57.71 C 122.09 58.28 120.14 58.09 118.98 56.78 C 118.41 53.36 120.13 50.17 121.30 47.07 C 116.61 48.97 112.07 51.37 107.06 52.34 C 101.69 53.17 97.50 57.38 92.02 57.92 C 87.99 59.04 83.45 56.20 83.00 51.99 C 82.64 40.81 88.03 30.37 94.84 21.84 C 97.98 15.90 101.77 10.27 107.02 6.00 M 103.42 13.10 C 105.19 12.21 106.90 11.06 108.95 10.94 C 108.74 12.77 108.10 14.54 106.19 15.12 C 100.96 19.05 95.09 23.96 94.80 31.05 C 94.21 30.31 93.62 29.57 93.03 28.83 C 88.68 34.69 85.84 41.69 85.15 48.96 C 84.82 51.54 86.40 54.57 89.25 54.69 C 93.20 54.86 96.77 52.72 100.32 51.28 C 105.55 47.97 111.27 45.14 115.23 40.21 C 120.55 33.54 123.60 24.05 120.22 15.83 C 118.69 12.50 116.73 8.65 112.96 7.51 C 108.97 6.99 105.42 9.90 103.42 13.10 M 146.99 30.97 C 142.96 35.36 139.45 40.46 138.06 46.33 C 141.06 44.30 143.53 41.60 146.23 39.22 C 149.59 36.19 151.24 31.80 152.12 27.47 C 149.82 27.56 148.46 29.49 146.99 30.97 Z" />
<path fill="#000000" opacity="1.00" d=" M 129.41 28.91 C 130.61 29.21 131.81 29.52 132.87 30.18 C 133.18 32.15 131.04 32.30 129.74 32.98 C 129.57 31.63 129.46 30.27 129.41 28.91 Z" />
<path fill="#000000" opacity="1.00" d=" M 86.06 72.83 C 88.55 70.00 91.00 66.76 94.80 65.70 C 95.55 67.81 96.15 70.00 96.07 72.27 C 95.24 71.12 94.45 69.94 93.64 68.78 C 91.35 70.35 88.86 72.18 87.85 74.86 C 91.98 82.66 93.67 92.18 90.80 100.68 C 89.12 104.39 86.88 108.55 82.68 109.78 C 78.21 111.32 73.48 110.36 68.98 109.54 C 65.72 110.98 63.42 114.36 59.66 114.76 C 55.08 116.03 50.08 111.78 50.87 107.03 C 51.02 105.60 51.37 103.33 53.21 103.28 C 57.88 103.14 62.53 104.03 66.98 105.41 C 67.32 105.18 68.01 104.72 68.36 104.49 C 74.49 95.19 79.20 85.06 83.92 74.99 C 80.05 71.59 75.02 69.82 69.92 69.48 C 58.62 68.87 46.38 69.09 36.65 75.67 C 27.93 80.87 26.86 94.24 33.41 101.57 C 36.43 105.28 40.61 107.70 44.36 110.55 C 44.55 110.93 44.94 111.68 45.13 112.05 C 38.45 109.32 31.46 105.52 28.45 98.56 C 24.93 91.81 26.50 83.58 30.38 77.38 C 33.64 74.62 37.10 71.90 40.98 70.04 C 46.57 68.54 52.15 66.65 58.01 66.54 C 64.55 66.53 71.19 65.99 77.61 67.60 C 80.90 68.43 83.46 70.79 86.06 72.83 M 82.38 83.35 C 79.29 90.93 75.32 98.11 71.37 105.27 C 75.18 107.45 80.32 107.74 83.86 104.89 C 87.38 101.97 89.90 97.67 90.21 93.06 C 90.46 87.45 88.97 81.81 85.90 77.10 C 84.45 79.01 83.28 81.12 82.38 83.35 M 52.65 106.70 C 52.86 108.12 52.78 110.05 54.46 110.62 C 57.64 112.39 61.44 110.96 64.10 108.88 C 60.74 106.68 56.55 106.30 52.65 106.70 Z" />
<path fill="#000000" opacity="1.00" d=" M 195.26 75.27 C 197.47 72.85 200.09 70.22 203.60 70.16 C 204.11 71.69 204.91 73.24 204.61 74.89 C 203.91 79.76 202.86 84.81 199.79 88.80 C 196.47 92.91 191.64 95.58 188.56 99.91 C 191.72 99.58 194.86 99.04 198.05 99.05 C 198.68 101.59 198.90 104.84 196.42 106.51 C 193.95 108.22 191.07 106.84 188.47 106.33 C 189.44 108.88 192.57 109.26 194.95 109.18 C 199.79 109.25 204.27 107.30 208.81 105.93 C 214.11 103.77 219.60 100.39 221.24 94.55 C 221.60 94.38 222.31 94.05 222.67 93.88 C 222.96 96.65 223.17 99.86 220.92 101.93 C 215.44 107.82 207.69 111.19 199.99 113.09 C 196.48 113.41 192.69 113.88 189.30 112.88 C 186.32 111.65 185.39 108.34 183.91 105.78 C 180.09 106.33 178.91 110.21 176.07 112.10 C 174.55 111.12 175.42 108.98 175.10 107.51 C 171.62 109.04 168.03 111.06 164.09 110.45 C 162.51 109.60 161.60 107.81 162.10 106.05 C 162.60 100.91 166.68 96.40 171.88 95.79 C 171.97 96.59 172.17 98.19 172.26 98.99 C 168.72 100.34 164.58 101.99 163.86 106.23 C 169.62 106.76 175.06 103.78 179.80 100.82 C 186.07 93.05 188.68 82.87 195.26 75.27 M 196.10 79.04 C 192.24 84.42 188.99 90.28 186.61 96.46 C 190.11 94.46 193.10 91.71 196.36 89.34 C 201.05 85.73 202.25 79.38 202.32 73.80 C 199.83 74.96 197.67 76.77 196.10 79.04 Z" />
<path fill="#000000" opacity="1.00" d=" M 155.76 86.88 C 157.01 85.23 158.37 83.65 160.02 82.38 C 161.20 85.15 160.61 88.12 160.30 90.99 C 158.92 89.48 157.39 88.11 155.76 86.88 Z" />
<path fill="#000000" opacity="1.00" d=" M 98.46 94.54 C 99.59 93.21 100.75 90.89 102.87 91.78 C 104.79 93.48 105.25 96.53 103.59 98.57 C 102.12 101.79 98.24 103.16 97.28 106.64 C 100.94 106.21 103.41 103.30 106.18 101.20 C 109.26 98.82 112.03 96.07 115.17 93.76 C 116.84 93.64 118.37 94.57 119.95 95.00 C 120.12 95.76 120.46 97.30 120.63 98.06 C 118.75 100.85 116.74 103.75 116.52 107.23 C 124.67 104.66 129.93 97.34 136.31 92.10 C 138.88 91.22 140.86 94.55 139.91 96.80 C 138.63 100.00 136.64 102.92 136.01 106.36 C 140.80 105.28 144.83 102.37 149.19 100.31 C 152.12 99.35 153.28 96.07 155.97 94.73 C 156.10 96.35 156.59 98.10 155.62 99.57 C 153.72 103.09 152.32 106.84 150.65 110.46 C 150.24 110.62 149.40 110.94 148.98 111.10 C 149.13 108.18 150.46 105.57 151.26 102.81 C 146.11 104.34 142.16 108.17 137.26 110.19 C 135.68 110.84 133.34 111.38 132.27 109.62 C 132.53 104.67 136.00 100.70 137.13 95.97 C 132.85 97.90 130.57 102.19 127.29 105.30 C 123.84 107.94 120.10 110.33 115.96 111.72 C 114.02 111.95 113.09 109.64 113.27 108.04 C 113.55 104.31 115.50 100.99 116.51 97.44 C 115.05 97.85 113.61 98.46 112.61 99.64 C 108.54 103.91 104.39 108.43 98.82 110.73 C 97.39 111.20 95.68 110.12 95.36 108.68 C 94.49 103.82 95.32 98.48 98.46 94.54 Z" />
</g>
</svg>
