<?xml version="1.0" encoding="UTF-8" ?>
<!DOCTYPE svg PUBLIC "-//W3C//DTD SVG 1.1//EN" "http://www.w3.org/Graphics/SVG/1.1/DTD/svg11.dtd">
<svg width="256pt" height="256pt" viewBox="0 0 256 256" version="1.1" xmlns="http://www.w3.org/2000/svg">
<g id="#000000ff">
<path fill="#000000" opacity="1.00" d=" M 200.70 64.70 C 201.65 62.32 204.50 64.37 206.08 64.94 C 207.72 67.09 209.02 69.47 210.50 71.73 C 210.10 70.51 209.74 69.27 209.43 68.03 C 210.18 67.05 211.01 66.14 211.90 65.28 C 217.60 69.50 217.81 77.02 221.01 82.81 C 223.97 89.69 222.42 97.13 221.30 104.21 C 223.95 98.86 224.84 92.87 225.43 87.00 C 225.28 83.73 224.55 80.51 224.63 77.23 C 225.15 77.47 226.18 77.96 226.70 78.20 C 230.97 85.97 227.65 94.86 225.73 102.80 C 224.03 106.05 222.10 109.21 221.11 112.77 C 218.28 118.10 215.35 123.68 210.43 127.40 C 205.51 130.14 203.16 135.53 199.55 139.61 C 195.08 142.61 189.56 143.84 184.22 143.75 C 184.19 144.55 184.14 146.15 184.11 146.95 C 181.91 148.09 179.92 149.56 178.53 151.64 C 175.15 151.77 171.34 151.86 168.63 149.50 C 167.48 148.42 165.91 148.14 164.48 147.67 C 164.33 148.13 164.05 149.05 163.91 149.52 C 164.66 149.61 166.16 149.79 166.91 149.89 C 169.03 150.82 168.92 152.95 168.52 154.88 C 170.35 154.66 172.17 154.18 174.02 154.27 C 179.04 154.82 184.06 153.82 189.06 154.59 C 194.53 153.92 200.01 154.67 205.48 154.45 C 209.92 154.65 214.30 153.83 218.73 153.69 C 220.36 153.72 221.29 151.87 222.91 151.81 C 226.22 151.33 229.60 150.75 232.93 151.47 C 236.90 151.32 241.01 152.19 244.22 154.64 C 237.82 152.27 231.08 154.16 224.73 155.70 C 224.05 156.34 223.39 157.00 222.75 157.68 C 218.81 157.72 214.86 157.74 210.97 158.36 C 202.33 158.91 193.66 158.29 185.03 158.99 C 186.47 159.40 187.98 159.71 189.21 160.62 C 191.68 162.48 194.87 162.53 197.74 163.32 C 198.14 161.99 198.53 160.65 198.94 159.33 C 204.89 161.55 211.32 161.39 217.56 161.63 C 219.25 162.25 220.84 163.12 222.42 163.99 C 221.80 164.32 220.55 164.97 219.92 165.29 C 215.61 164.50 211.23 164.63 206.87 164.71 C 206.78 163.87 206.64 163.05 206.46 162.23 C 206.40 162.84 206.28 164.07 206.22 164.68 C 204.93 164.69 203.62 164.55 202.34 164.72 C 195.63 167.85 188.07 166.25 180.96 166.88 C 177.60 167.27 174.46 165.82 171.22 165.29 C 170.02 165.87 170.32 167.40 170.05 168.47 C 175.40 170.61 180.94 172.90 186.84 172.27 C 186.81 173.61 186.79 174.96 186.77 176.30 C 178.78 176.98 171.34 173.38 163.97 170.86 C 162.98 171.82 161.99 172.78 160.99 173.73 C 159.05 172.57 157.53 170.92 156.24 169.10 C 156.42 170.08 156.79 172.02 156.97 173.00 C 153.19 171.12 149.05 170.53 144.89 170.34 C 141.24 168.85 137.29 170.06 133.48 169.76 C 133.59 170.76 133.72 171.76 133.86 172.76 C 134.48 172.22 135.11 171.67 135.74 171.13 C 138.29 172.72 141.11 173.93 144.18 173.42 C 148.14 174.07 152.21 174.64 155.99 176.05 C 157.50 178.71 153.97 181.49 153.38 184.20 C 152.88 183.11 152.38 182.02 151.87 180.94 C 152.54 180.30 153.21 179.67 153.89 179.03 C 153.15 178.24 152.43 177.44 151.74 176.61 C 148.75 178.86 144.97 177.04 141.60 177.59 C 140.30 177.48 138.55 178.08 137.61 176.90 C 137.63 176.21 137.65 174.82 137.66 174.13 C 136.88 175.02 136.09 175.92 135.30 176.80 C 132.48 176.51 129.63 175.93 127.58 173.80 C 128.65 173.82 129.73 173.85 130.80 173.90 C 130.01 171.97 129.30 170.02 128.65 168.04 C 126.18 171.85 122.22 174.72 117.72 175.52 C 113.62 176.48 110.18 178.95 107.10 181.73 C 107.13 181.10 107.19 179.83 107.21 179.20 C 106.94 179.28 106.39 179.44 106.11 179.52 C 106.03 182.66 102.87 184.08 100.09 183.35 C 99.44 184.17 98.76 184.99 98.09 185.81 C 97.12 184.88 96.15 183.96 95.18 183.04 C 95.47 182.38 96.05 181.08 96.35 180.43 C 98.52 179.80 100.73 179.03 103.03 179.26 C 100.26 177.65 97.77 175.24 97.25 171.95 C 100.61 169.19 104.32 166.92 108.36 165.31 C 110.89 163.43 113.70 162.04 116.58 160.77 C 121.39 154.92 128.54 151.75 134.60 147.41 C 134.89 146.93 135.46 145.95 135.74 145.47 C 135.11 145.53 133.85 145.64 133.22 145.70 C 129.46 148.47 125.87 151.47 122.04 154.15 C 120.68 155.46 118.86 154.49 117.29 154.24 C 115.49 155.82 113.29 156.92 111.58 158.62 C 110.63 160.14 110.16 161.90 109.52 163.57 C 105.06 164.95 101.11 167.52 97.79 170.77 C 93.96 172.74 90.07 174.78 86.04 176.26 C 78.98 176.75 73.15 181.53 66.33 182.64 C 66.42 179.43 68.64 176.09 71.94 175.49 C 77.03 174.01 82.04 172.25 87.19 170.98 C 90.58 170.26 93.26 167.95 96.35 166.55 C 95.99 167.74 95.63 168.93 95.27 170.12 C 97.03 165.50 101.76 162.52 106.61 162.45 C 106.80 161.79 107.19 160.48 107.38 159.82 C 106.03 160.49 104.69 161.20 103.30 161.81 C 103.07 161.42 102.60 160.64 102.37 160.24 C 102.40 160.88 102.44 162.17 102.47 162.81 C 96.26 165.39 89.85 167.43 83.36 169.15 C 80.04 170.31 77.05 172.43 73.47 172.79 C 73.02 171.88 72.59 170.98 72.16 170.07 C 64.07 171.02 56.12 173.20 47.94 173.22 C 43.58 172.55 39.28 171.11 35.78 168.35 C 37.88 169.03 39.92 169.96 42.10 170.38 C 46.41 171.27 50.78 170.07 55.13 170.42 C 60.43 170.14 65.27 167.66 70.27 166.11 C 74.91 163.69 80.84 165.49 85.04 162.01 C 88.30 159.38 92.22 157.83 95.97 156.06 C 91.09 157.39 85.60 158.57 80.71 156.87 C 85.51 155.94 90.19 154.28 95.09 154.03 C 91.74 153.39 88.37 154.37 85.01 153.97 C 77.69 152.73 70.27 154.14 63.02 155.20 C 59.78 155.59 56.48 154.74 53.27 155.37 C 51.49 155.91 49.78 156.65 48.00 157.16 C 47.38 155.16 47.35 152.40 49.88 151.85 C 54.13 149.19 59.25 150.59 63.95 150.27 C 66.83 149.64 69.82 149.34 72.55 148.18 C 68.05 147.44 63.60 146.25 59.01 146.35 C 52.51 145.32 46.17 143.45 40.11 140.85 C 34.67 138.52 28.25 138.36 23.55 134.49 C 18.89 130.44 17.12 123.59 18.88 117.72 C 17.20 117.66 15.51 117.63 13.84 117.48 C 13.34 115.95 12.84 114.42 12.30 112.91 C 13.60 111.59 14.93 110.30 16.25 109.00 C 14.73 102.85 15.19 96.09 18.64 90.64 C 17.82 90.28 17.01 89.92 16.20 89.55 C 18.91 89.05 20.99 90.35 22.53 92.48 C 22.39 90.24 22.08 87.94 22.71 85.74 C 23.74 83.93 25.44 82.65 27.04 81.38 C 29.52 83.44 31.39 86.12 33.77 88.25 C 40.00 90.58 46.75 92.21 51.77 96.88 C 51.98 96.43 52.39 95.53 52.60 95.08 C 52.45 95.65 52.16 96.79 52.01 97.36 C 55.97 97.78 59.59 102.15 63.54 99.69 C 65.36 98.82 66.75 97.31 68.29 96.04 C 69.72 98.75 69.93 101.91 71.45 104.58 C 74.31 110.41 75.86 117.65 81.99 121.06 C 90.11 125.11 97.65 130.16 105.74 134.26 C 102.24 129.15 97.06 125.58 92.60 121.39 C 90.74 119.72 88.40 118.30 88.01 115.61 C 89.31 115.34 90.61 115.06 91.90 114.78 C 97.59 118.27 101.67 123.81 107.45 127.17 C 106.01 124.22 103.74 121.79 102.01 119.01 C 98.77 113.98 93.78 110.48 90.28 105.67 C 87.29 101.39 82.17 98.98 79.86 94.17 C 79.60 94.40 79.09 94.86 78.84 95.09 C 78.74 92.13 76.89 89.71 75.97 86.99 C 80.75 87.28 82.12 92.90 85.62 95.36 C 92.41 100.12 97.29 106.91 103.28 112.53 C 104.21 111.69 105.16 110.86 106.16 110.09 C 105.50 111.13 104.78 112.14 104.06 113.14 C 107.03 115.77 108.64 119.50 111.45 122.25 C 111.16 118.78 110.55 115.34 110.13 111.87 C 112.33 110.52 113.72 108.23 115.91 106.88 C 117.30 106.19 117.72 104.67 118.33 103.38 C 119.36 103.75 120.39 104.11 121.43 104.46 C 120.73 102.69 119.93 100.98 119.17 99.24 C 121.56 96.80 123.84 94.23 126.64 92.23 C 128.92 92.73 131.26 92.55 133.33 91.46 C 136.05 90.06 139.22 90.82 141.66 92.41 C 141.97 92.02 142.61 91.23 142.92 90.83 C 144.77 94.03 145.99 97.94 149.93 99.03 C 151.67 103.20 152.67 107.70 154.87 111.71 C 155.12 111.76 155.63 111.85 155.88 111.89 C 156.25 109.87 153.90 108.14 154.84 106.18 C 156.54 102.63 156.84 97.87 160.60 95.74 C 160.39 102.93 155.36 109.63 156.88 116.90 C 156.24 117.53 155.60 118.17 154.96 118.81 C 155.53 120.02 156.10 121.24 156.61 122.48 C 158.93 119.56 158.50 115.78 159.36 112.35 C 160.41 109.69 162.41 107.56 164.14 105.33 C 165.40 111.24 163.11 116.79 161.30 122.27 C 162.91 120.53 164.40 118.66 165.63 116.64 C 167.02 113.43 167.29 108.70 171.39 107.73 C 171.28 109.88 170.38 111.83 169.57 113.78 C 168.04 117.27 167.35 121.04 166.31 124.69 C 167.69 125.76 169.02 126.91 170.23 128.19 C 168.99 128.60 168.00 127.81 167.05 127.16 C 165.63 127.53 164.01 127.88 163.90 129.66 C 165.83 130.18 167.79 130.62 169.60 131.49 C 170.55 126.87 173.16 122.68 177.07 120.02 C 176.05 124.62 173.72 128.78 172.21 133.22 C 172.04 135.12 172.62 136.99 172.54 138.90 C 174.70 139.73 176.74 140.82 178.79 141.89 C 182.00 137.42 178.95 132.49 177.86 127.88 C 177.63 124.64 177.28 121.35 177.71 118.11 C 179.16 115.57 181.75 113.84 183.36 111.37 C 187.03 107.08 190.65 101.81 196.42 100.35 C 198.90 99.58 200.63 101.73 202.15 103.30 C 199.66 104.06 196.77 103.91 194.69 105.68 C 189.54 110.14 186.53 116.54 181.48 121.08 C 182.36 124.94 182.43 128.93 183.47 132.76 C 185.12 132.68 186.77 132.59 188.42 132.46 C 188.87 133.06 189.75 134.27 190.19 134.88 C 193.04 131.77 195.71 128.48 197.87 124.84 C 201.41 120.06 206.24 115.46 206.46 109.11 C 206.47 105.16 209.52 101.98 209.42 98.02 C 209.80 94.47 208.36 91.09 207.20 87.82 C 205.64 84.44 205.25 80.34 202.21 77.84 C 200.44 76.02 197.35 75.15 197.14 72.25 C 200.03 70.25 202.36 73.03 204.64 74.48 C 203.24 71.36 199.33 68.48 200.70 64.70 M 210.69 71.43 C 211.51 73.92 213.43 76.27 212.20 78.98 C 210.98 78.50 209.78 78.01 208.58 77.52 C 209.34 78.34 210.13 79.14 210.92 79.95 C 209.05 83.40 212.25 87.01 211.26 90.66 C 211.52 90.89 212.03 91.33 212.28 91.55 C 212.37 95.05 213.73 98.84 211.99 102.13 C 210.78 105.07 209.05 108.08 209.67 111.37 C 210.01 113.99 208.88 116.48 207.64 118.72 C 202.96 125.33 198.07 131.80 193.31 138.34 C 198.99 134.02 203.00 128.02 207.91 122.92 C 211.02 120.23 212.81 116.41 215.01 113.01 C 217.22 105.92 219.23 98.54 218.69 91.02 C 218.53 87.07 216.45 83.60 215.18 79.95 C 213.90 77.03 213.24 73.59 210.69 71.43 M 25.22 92.28 C 24.37 93.73 22.95 94.74 22.06 96.16 C 21.97 98.67 22.16 101.19 22.24 103.71 C 21.18 102.95 20.13 102.16 19.10 101.36 C 19.84 105.05 19.82 109.00 21.74 112.36 C 25.47 108.09 29.23 103.03 35.32 102.39 C 36.69 99.74 37.81 96.91 40.75 95.60 C 36.70 94.09 32.11 93.37 28.97 90.16 C 28.14 88.81 27.46 87.37 26.66 86.01 C 25.04 87.78 25.77 90.16 25.22 92.28 M 137.39 94.13 C 132.48 96.15 127.23 96.95 122.19 98.58 C 124.97 104.49 127.42 110.59 129.47 116.79 C 130.93 113.43 133.02 110.41 134.66 107.15 C 134.31 106.55 133.61 105.34 133.26 104.73 C 134.17 105.57 135.04 106.44 135.92 107.30 C 137.16 103.41 139.69 98.36 144.36 98.32 C 143.15 95.70 140.55 92.77 137.39 94.13 M 42.60 96.17 C 41.65 98.40 40.38 100.51 40.13 102.97 C 38.38 108.62 42.60 113.63 46.02 117.63 C 47.63 120.96 51.46 121.71 54.33 123.59 C 59.91 127.08 66.41 128.69 71.95 132.19 C 73.91 132.75 75.96 132.80 77.95 133.22 C 78.59 134.73 78.12 135.58 76.52 135.76 C 77.02 136.12 77.54 136.45 78.05 136.81 C 80.04 135.16 82.18 137.21 84.09 137.92 C 89.03 139.83 94.02 141.97 98.01 145.56 C 98.33 144.61 98.63 143.65 98.93 142.69 C 101.88 144.03 104.53 146.08 107.78 146.65 C 107.51 146.14 106.96 145.12 106.69 144.61 C 100.94 140.62 94.24 138.39 88.29 134.75 C 85.31 133.21 81.92 132.66 78.97 131.05 C 74.17 128.55 69.72 125.45 64.90 122.99 C 61.09 120.62 58.18 117.06 55.51 113.52 C 55.25 109.99 54.58 106.42 55.19 102.89 C 51.38 101.74 47.06 100.77 45.35 96.68 C 44.43 96.52 43.52 96.35 42.60 96.17 M 140.73 102.09 C 142.13 103.68 143.94 104.12 145.90 103.28 C 145.86 104.99 145.84 106.69 145.85 108.39 C 148.59 107.70 147.73 104.61 147.86 102.51 C 145.60 101.34 143.10 101.10 140.73 102.09 M 57.05 103.26 C 57.30 105.78 57.48 108.31 57.89 110.81 C 59.76 115.49 64.70 117.53 68.19 120.76 C 68.52 120.43 69.18 119.75 69.51 119.41 C 69.46 120.03 69.36 121.28 69.31 121.90 C 74.74 124.37 79.56 128.29 85.51 129.47 C 91.44 132.26 97.28 135.32 103.46 137.54 C 98.39 134.55 92.83 132.44 88.03 128.97 C 83.81 125.64 77.68 125.19 74.61 120.36 C 70.85 115.06 68.70 108.69 67.36 102.35 C 64.13 104.14 60.45 105.43 57.05 103.26 M 23.66 117.05 C 25.01 118.48 26.18 120.09 27.64 121.41 C 33.56 125.62 41.20 126.07 47.39 129.63 C 50.36 132.62 54.07 134.63 58.13 135.70 C 60.99 136.31 63.39 138.39 66.35 138.56 C 71.27 138.38 75.43 141.40 79.86 143.08 C 84.27 144.72 88.93 145.57 93.49 146.70 C 90.06 144.31 86.02 142.90 82.48 140.65 C 75.19 138.87 69.15 134.09 62.07 131.86 C 56.12 128.82 50.13 125.76 44.16 122.84 C 39.32 117.81 35.63 111.41 35.24 104.31 C 29.59 106.64 26.90 112.29 23.66 117.05 M 118.88 116.01 C 121.80 115.66 121.42 112.04 122.03 109.89 C 120.88 111.87 119.77 113.89 118.88 116.01 M 136.91 109.64 C 135.02 113.04 135.74 117.04 135.44 120.76 C 136.83 120.73 138.22 120.69 139.61 120.66 C 141.21 118.25 142.24 115.58 142.52 112.69 C 140.24 112.56 138.64 110.90 136.91 109.64 M 15.94 111.19 C 15.21 112.40 16.50 114.93 18.01 114.58 C 18.79 113.37 17.47 110.76 15.94 111.19 M 145.26 111.09 C 144.90 114.94 146.97 118.43 146.46 122.27 C 148.62 120.90 150.20 118.34 149.46 115.73 C 149.26 113.41 146.81 112.44 145.26 111.09 M 125.20 115.49 C 125.74 120.49 124.34 125.24 123.53 130.10 C 124.59 133.50 127.17 136.07 128.99 139.06 C 129.45 135.06 124.79 131.88 127.04 128.01 C 127.74 126.57 127.80 124.99 127.23 123.50 C 126.31 120.88 126.69 117.92 125.20 115.49 M 21.59 121.73 C 22.61 126.55 25.29 131.78 30.12 133.53 C 35.93 133.53 40.68 137.34 46.17 138.69 C 51.13 139.98 56.06 141.53 61.12 142.37 C 64.61 142.17 67.97 142.89 71.33 143.73 C 70.29 143.03 69.21 142.37 67.97 142.13 C 60.26 140.13 52.72 137.28 45.96 133.03 C 42.40 130.44 37.77 130.76 33.85 129.01 C 33.57 129.33 33.29 129.65 33.01 129.98 C 29.60 126.73 25.07 124.94 21.59 121.73 M 139.04 127.77 C 140.63 130.22 141.87 132.96 142.27 135.86 C 141.56 136.93 140.80 137.96 139.99 138.96 C 136.20 135.98 136.62 130.36 132.79 127.59 C 133.69 132.63 135.30 137.51 136.79 142.41 C 137.95 141.44 139.09 140.47 140.33 139.61 C 140.01 140.77 139.66 141.91 139.29 143.05 C 141.45 141.47 143.89 140.27 146.55 139.85 C 145.95 135.53 144.69 130.90 146.00 126.65 C 146.43 126.72 147.29 126.87 147.72 126.94 C 149.21 131.84 148.50 137.28 151.41 141.72 C 152.50 139.63 153.77 137.63 154.91 135.56 C 155.66 139.73 157.46 143.50 159.70 147.06 C 159.28 144.62 159.13 142.14 159.02 139.67 C 159.23 139.52 159.66 139.20 159.87 139.04 C 161.84 141.25 161.41 144.55 162.31 147.24 C 164.65 144.46 164.82 140.57 164.39 137.12 C 164.11 135.12 165.97 133.80 166.92 132.26 C 165.17 131.93 163.43 131.54 161.69 131.20 C 161.88 134.34 163.65 137.21 163.34 140.40 C 162.14 139.55 161.50 137.63 159.92 137.49 C 156.84 137.71 155.13 134.36 152.09 134.16 C 150.13 131.40 149.42 127.90 147.75 124.94 C 144.83 125.83 141.97 126.91 139.04 127.77 M 160.17 125.47 C 159.32 126.43 159.57 128.60 161.01 128.85 C 163.24 128.62 162.24 124.47 160.17 125.47 M 116.70 130.20 C 116.06 131.20 116.07 133.01 116.84 133.93 C 119.28 134.32 119.01 129.59 116.70 130.20 M 116.70 139.10 C 118.28 138.40 119.68 137.39 121.08 136.38 C 121.63 137.36 122.23 138.32 122.85 139.27 C 122.30 137.55 121.62 135.87 121.08 134.15 C 119.54 135.73 117.54 136.98 116.70 139.10 M 187.56 136.50 C 186.48 136.84 185.15 139.11 186.97 139.39 C 189.26 140.03 190.30 135.58 187.56 136.50 M 133.22 140.18 C 133.83 140.80 133.83 140.80 133.22 140.18 M 89.27 142.22 C 89.90 142.86 89.90 142.86 89.27 142.22 M 119.05 149.11 C 121.31 147.25 122.24 144.39 123.68 141.94 C 120.07 142.37 119.41 146.13 119.05 149.11 M 165.41 142.89 C 169.26 145.03 172.35 148.61 177.14 148.39 C 176.23 145.31 173.25 143.86 170.67 142.43 C 168.91 142.22 167.15 142.74 165.41 142.89 M 137.31 146.84 C 138.75 147.83 140.22 148.80 141.63 149.84 C 142.10 148.62 142.57 147.40 143.08 146.20 C 143.66 146.14 144.80 146.02 145.38 145.95 C 145.85 147.23 146.35 148.50 146.87 149.77 C 148.78 148.16 151.21 144.74 153.91 147.07 C 154.03 147.85 154.28 149.41 154.41 150.19 C 155.92 149.82 157.53 149.38 158.07 147.74 C 155.56 146.00 152.84 145.03 149.78 145.86 C 149.07 145.09 148.33 144.35 147.58 143.63 C 143.89 143.86 141.04 146.73 137.31 146.84 M 100.20 145.25 C 100.81 145.86 100.81 145.86 100.20 145.25 M 94.17 146.05 C 93.61 147.52 94.21 148.07 95.96 147.68 C 96.50 146.18 95.90 145.64 94.17 146.05 M 136.15 151.58 C 135.73 153.20 135.36 154.84 135.05 156.49 C 136.15 156.89 137.25 157.28 138.35 157.68 C 138.63 155.45 138.28 152.81 136.15 151.58 M 156.04 156.33 C 158.94 157.58 160.86 154.06 163.14 152.82 C 160.37 153.01 158.16 154.70 156.04 156.33 M 147.32 154.43 C 147.45 154.91 147.71 155.87 147.84 156.35 C 148.74 156.51 149.65 156.66 150.56 156.82 C 150.65 156.17 150.82 154.87 150.91 154.22 C 149.71 154.29 148.51 154.36 147.32 154.43 M 94.54 161.08 C 99.56 159.42 104.40 157.16 109.22 154.99 C 108.68 154.94 107.60 154.83 107.06 154.78 C 102.83 156.73 97.99 157.77 94.54 161.08 M 128.42 161.53 C 124.77 162.19 122.55 166.10 118.68 165.95 C 118.63 167.30 118.57 168.65 118.51 170.01 C 123.62 164.99 131.07 163.61 137.10 159.98 C 134.05 158.75 131.31 160.85 128.42 161.53 M 137.55 162.58 C 137.10 163.70 136.64 164.82 136.17 165.93 C 138.53 164.57 141.19 164.06 143.90 164.25 C 142.85 163.21 141.83 162.14 140.83 161.04 C 139.74 161.56 138.65 162.08 137.55 162.58 M 147.03 164.37 C 148.45 164.29 149.87 164.26 151.30 164.26 C 151.38 163.66 151.53 162.46 151.61 161.86 C 149.63 161.54 148.47 163.37 147.03 164.37 M 131.14 169.39 C 129.58 172.34 134.58 169.39 131.14 169.39 M 87.27 173.32 C 87.85 173.96 87.85 173.96 87.27 173.32 Z" />
<path fill="#000000" opacity="1.00" d=" M 235.63 86.55 C 236.00 86.98 236.75 87.85 237.13 88.28 C 238.05 93.13 239.00 98.07 238.20 103.02 C 235.91 111.38 235.37 120.64 229.92 127.78 C 231.38 128.82 232.93 129.99 233.05 131.95 C 231.14 131.74 229.34 131.06 228.74 129.07 C 221.99 135.14 213.44 139.78 209.17 148.15 C 200.29 150.18 191.20 151.70 182.13 152.75 C 181.91 152.04 181.47 150.61 181.25 149.90 C 181.90 148.13 184.35 148.43 185.86 147.84 C 192.64 146.92 199.36 145.60 206.08 144.23 C 206.98 141.61 209.06 139.82 211.17 138.16 C 213.51 135.68 216.03 133.40 218.92 131.57 C 219.51 132.38 220.10 133.19 220.70 133.99 C 220.21 133.10 219.71 132.21 219.21 131.33 C 223.25 128.64 226.18 124.69 228.60 120.55 C 230.22 117.28 231.05 113.69 232.56 110.37 C 235.74 102.84 234.91 94.50 235.63 86.55 Z" />
<path fill="#000000" opacity="1.00" d=" M 153.03 93.75 C 154.31 93.71 155.59 93.66 156.87 93.60 C 156.56 97.38 155.51 101.04 154.47 104.67 C 154.04 104.73 153.20 104.84 152.78 104.90 C 151.09 101.08 154.84 97.87 156.13 94.55 C 155.09 94.28 154.06 94.02 153.03 93.75 Z" />
<path fill="#000000" opacity="1.00" d=" M 128.30 104.92 C 129.10 103.77 129.87 102.60 130.70 101.48 C 129.58 104.59 130.64 107.60 131.69 110.55 C 129.23 109.69 128.94 107.07 128.30 104.92 Z" />
<path fill="#000000" opacity="1.00" d=" M 139.78 189.51 C 142.46 185.34 148.08 185.33 151.28 181.74 C 152.87 183.77 150.64 185.89 148.86 186.72 C 146.85 187.98 144.57 188.61 142.23 188.89 C 142.63 189.86 143.03 190.84 143.42 191.82 C 145.77 191.15 148.19 190.79 150.60 190.40 C 149.28 191.20 148.26 192.31 147.64 193.73 C 147.44 193.31 147.05 192.49 146.86 192.08 C 144.53 192.89 142.10 193.30 139.74 194.00 C 139.75 192.50 139.65 191.00 139.78 189.51 Z" />
</g>
</svg>
