<?xml version="1.0" encoding="UTF-8" ?>
<!DOCTYPE svg PUBLIC "-//W3C//DTD SVG 1.1//EN" "http://www.w3.org/Graphics/SVG/1.1/DTD/svg11.dtd">
<svg width="256pt" height="256pt" viewBox="0 0 256 256" version="1.1" xmlns="http://www.w3.org/2000/svg">
<g id="#000000ff">
<path fill="#000000" opacity="1.00" d=" M 129.82 51.78 C 132.83 50.71 136.05 51.80 139.15 51.54 C 142.85 51.97 146.29 53.66 149.98 54.20 C 155.18 55.18 160.78 53.91 165.66 56.36 C 178.45 61.95 191.96 65.64 204.71 71.31 C 209.30 73.27 212.69 77.60 217.75 78.47 C 221.96 79.49 226.16 80.75 230.03 82.73 C 227.23 88.18 227.23 94.51 227.79 100.46 C 231.19 101.89 229.21 105.87 228.48 108.46 C 225.65 111.94 226.54 116.65 224.60 120.50 C 223.42 124.62 221.92 128.71 221.53 133.00 C 219.69 133.40 217.83 133.70 215.96 133.86 C 215.35 138.09 213.01 141.65 211.25 145.45 C 214.14 146.68 217.44 146.39 219.94 148.56 C 217.33 148.25 214.75 147.76 212.14 147.47 C 209.03 148.21 208.93 152.25 208.07 154.78 C 210.81 156.59 213.64 158.35 216.88 159.12 C 220.89 160.08 223.67 163.76 227.85 164.21 C 229.30 164.51 230.60 165.28 231.96 165.86 C 231.59 166.87 231.23 167.90 230.89 168.93 C 225.58 167.94 219.33 169.66 214.67 166.47 C 209.03 169.26 203.19 166.26 197.63 165.01 C 198.34 163.99 199.08 162.98 199.80 161.98 C 198.16 160.30 196.63 158.49 194.71 157.13 C 195.54 159.21 199.37 160.45 197.36 162.92 C 196.16 161.97 194.97 161.00 193.69 160.15 C 194.81 161.65 196.18 162.92 197.41 164.32 C 196.81 164.41 195.59 164.59 194.99 164.68 C 192.98 162.92 190.73 161.54 188.45 160.17 C 188.79 163.08 188.72 166.02 188.62 168.95 C 183.14 180.19 168.01 182.53 157.51 177.49 C 155.24 175.92 153.71 173.54 151.98 171.44 C 149.95 171.66 147.90 171.71 145.87 171.39 C 145.61 171.76 145.08 172.51 144.82 172.88 C 144.81 172.46 144.78 171.60 144.77 171.18 C 143.44 171.11 142.12 171.24 140.80 171.25 C 144.20 170.12 147.73 170.78 151.22 170.77 C 149.77 168.27 148.49 165.54 146.32 163.57 C 144.60 161.82 142.03 161.63 139.77 161.12 C 139.58 160.64 139.21 159.68 139.02 159.20 C 141.56 160.71 144.46 161.36 147.30 162.05 C 146.26 159.10 144.81 156.17 145.51 152.95 C 140.20 152.10 134.78 151.73 129.54 153.28 C 129.92 152.10 130.63 151.16 131.67 150.49 C 131.72 149.35 131.78 148.21 131.87 147.08 C 131.53 147.56 130.86 148.52 130.53 149.00 C 129.71 148.40 128.90 147.78 128.09 147.17 C 128.87 149.06 129.63 151.01 129.44 153.11 C 127.03 152.70 124.66 152.07 122.23 151.76 C 121.23 152.62 118.60 152.84 119.41 154.63 C 120.79 156.38 122.98 156.48 125.03 156.51 C 124.63 157.31 124.24 158.10 123.84 158.90 C 119.12 157.62 113.78 157.65 110.06 153.98 C 111.60 152.30 113.34 150.74 115.37 149.69 C 119.49 149.26 123.58 149.82 127.67 150.23 C 126.45 147.43 122.48 148.58 120.03 147.76 C 115.99 148.21 112.24 146.66 108.93 144.48 C 104.73 145.95 100.45 147.44 95.97 147.63 C 91.71 146.81 87.74 144.87 83.73 143.28 C 80.46 141.90 77.41 138.29 78.55 134.64 C 81.37 131.59 79.60 127.13 81.69 123.73 C 82.84 122.25 84.26 121.00 85.43 119.53 C 86.07 116.42 87.17 113.45 88.46 110.56 C 89.91 107.51 90.38 104.11 91.89 101.08 C 89.14 98.67 87.74 95.29 86.56 91.91 C 86.61 89.53 88.08 87.44 88.44 85.11 C 88.02 83.36 86.56 81.51 87.70 79.74 C 88.74 77.88 89.37 74.88 91.97 74.77 C 95.60 75.44 98.98 77.48 102.78 76.78 C 103.92 74.52 104.68 72.10 105.86 69.87 C 107.58 68.45 109.32 67.05 110.40 65.03 C 113.83 65.86 117.17 67.02 120.59 67.91 C 120.64 68.67 120.76 70.18 120.82 70.94 C 124.15 64.70 126.30 57.91 129.82 51.78 M 129.13 62.50 C 130.37 62.71 132.67 64.37 133.14 62.24 C 134.13 60.06 134.85 57.73 134.73 55.31 C 133.98 54.99 132.47 54.35 131.72 54.03 C 130.60 56.77 129.81 59.63 129.13 62.50 M 140.35 63.50 C 148.30 66.36 156.82 67.37 165.24 67.44 C 173.58 71.00 182.19 73.88 190.51 77.47 C 200.18 84.03 212.46 83.72 222.96 88.11 C 222.37 88.53 221.17 89.37 220.57 89.79 C 221.52 91.04 221.11 93.51 222.85 93.92 C 224.91 91.54 224.60 88.10 225.39 85.20 C 221.34 83.15 216.91 82.01 212.44 81.32 C 210.47 81.07 209.00 79.64 207.43 78.59 C 199.92 72.84 190.40 71.10 182.01 67.13 C 180.29 66.10 178.40 66.44 176.75 67.42 C 174.35 65.16 171.43 63.60 168.23 62.83 C 164.04 61.81 160.58 58.31 156.05 58.79 C 151.68 58.91 147.26 58.50 143.07 57.18 C 142.09 59.13 138.37 61.32 140.35 63.50 M 123.15 74.60 C 124.93 75.07 126.72 75.52 128.55 75.80 C 129.69 72.86 130.76 69.89 132.03 67.01 C 130.85 65.86 129.73 64.64 128.65 63.40 C 125.79 66.55 124.39 70.61 123.15 74.60 M 138.96 65.25 C 138.73 65.68 138.27 66.55 138.04 66.99 C 143.10 69.28 148.45 70.96 153.96 71.74 C 153.12 69.97 151.48 68.86 149.60 68.45 C 145.98 67.64 142.48 66.39 138.96 65.25 M 111.81 68.28 C 111.14 69.73 111.28 71.27 111.95 72.69 C 112.50 72.68 113.59 72.67 114.13 72.67 C 113.24 73.95 112.32 75.21 111.44 76.50 C 113.28 76.35 115.39 76.93 117.06 76.04 C 117.64 74.04 117.78 71.95 118.08 69.91 C 115.97 69.44 113.87 68.92 111.81 68.28 M 153.57 69.04 C 153.65 69.55 153.82 70.56 153.90 71.07 C 158.78 71.17 163.45 74.70 168.30 72.26 C 163.35 71.38 158.38 70.58 153.57 69.04 M 105.92 77.24 C 107.77 75.03 109.04 72.40 109.66 69.60 C 107.59 71.65 106.59 74.47 105.92 77.24 M 134.10 77.94 C 135.49 78.08 136.93 78.61 138.31 78.14 C 142.37 77.00 146.44 75.94 150.48 74.72 C 146.59 72.14 141.81 71.39 137.66 69.30 C 136.50 72.19 135.40 75.11 134.10 77.94 M 157.07 72.33 C 155.40 75.26 160.52 72.59 157.07 72.33 M 168.31 75.82 C 167.72 75.44 166.54 74.69 165.95 74.32 C 166.09 74.87 166.37 75.98 166.51 76.53 C 171.83 79.61 178.43 78.98 183.43 82.62 C 188.38 83.52 193.27 84.85 197.93 86.78 C 197.78 87.39 197.48 88.60 197.33 89.21 C 195.36 90.33 194.00 87.71 192.56 86.75 C 189.26 86.85 186.19 85.36 182.90 85.17 C 180.42 83.85 178.06 82.18 175.16 81.85 C 167.68 80.31 160.59 77.35 153.21 75.55 C 149.06 77.13 144.53 77.27 140.39 78.87 C 140.11 81.34 143.52 80.35 144.99 80.70 C 148.80 81.42 152.59 82.31 156.51 81.73 C 156.48 82.73 156.41 84.72 156.38 85.71 C 150.16 84.13 143.79 83.48 137.48 82.50 C 136.76 85.65 140.68 86.45 142.52 88.14 C 142.45 89.56 142.50 91.04 143.89 91.85 C 144.49 90.78 145.09 89.73 145.70 88.67 C 145.65 89.58 145.55 91.38 145.50 92.29 C 146.23 92.33 147.70 92.41 148.43 92.45 C 148.33 91.77 148.13 90.42 148.02 89.75 C 149.15 91.91 151.53 93.52 151.96 95.96 C 149.23 97.23 146.53 94.88 143.84 94.38 C 146.34 96.43 149.89 96.53 152.75 98.01 C 152.71 97.27 152.65 95.78 152.61 95.04 C 153.81 94.54 155.00 94.00 156.17 93.43 C 157.88 93.92 159.59 94.71 161.41 94.43 C 164.92 93.84 167.75 97.25 171.26 96.40 C 173.16 96.13 174.93 97.10 176.74 97.51 C 176.36 98.31 175.60 99.89 175.22 100.69 C 173.63 100.72 172.41 99.90 171.40 98.77 C 170.22 99.45 168.99 100.04 167.78 100.64 C 168.76 101.56 169.71 102.51 170.62 103.50 C 168.31 103.94 167.27 101.98 166.06 100.46 C 165.61 101.16 164.73 102.58 164.28 103.29 C 166.25 104.20 168.23 105.09 170.26 105.84 C 170.86 104.68 171.46 103.53 172.06 102.37 C 173.50 102.43 174.95 102.49 176.41 102.56 C 176.16 101.05 176.25 99.53 176.99 98.16 C 179.21 98.58 181.53 98.82 183.65 97.84 C 185.94 99.82 189.07 99.19 191.78 100.02 C 193.20 100.82 194.14 102.23 195.38 103.27 C 195.37 103.93 195.36 105.23 195.35 105.89 C 196.39 104.23 197.38 102.35 199.70 102.69 C 199.48 104.24 198.83 105.66 198.14 107.04 C 199.19 105.70 200.14 104.19 201.74 103.45 C 201.74 105.06 201.64 106.68 201.39 108.28 C 206.39 109.44 208.94 114.15 211.80 117.92 C 213.02 115.45 213.96 112.82 213.95 110.04 C 214.12 104.56 216.16 99.40 217.34 94.10 C 215.50 92.69 212.96 92.79 210.78 92.19 C 206.61 91.74 202.67 89.93 198.41 90.32 C 198.47 89.55 198.58 88.02 198.63 87.25 C 201.04 87.57 203.41 88.17 205.80 88.65 C 204.57 87.51 202.87 87.37 201.38 86.78 C 193.91 84.08 187.05 80.02 179.60 77.24 C 176.70 75.36 173.40 74.62 170.01 75.48 C 170.15 74.78 170.43 73.39 170.57 72.70 C 169.81 73.73 169.07 74.78 168.31 75.82 M 121.23 78.24 C 122.11 80.28 124.59 80.92 126.18 82.29 C 126.48 81.69 127.07 80.49 127.36 79.89 C 125.61 78.99 122.92 76.06 121.23 78.24 M 92.25 77.95 C 91.51 79.29 90.79 80.64 90.12 82.02 C 91.88 81.05 93.55 79.94 95.21 78.82 C 94.23 78.52 93.24 78.23 92.25 77.95 M 110.78 79.30 C 115.09 84.26 120.77 87.72 125.64 92.02 C 125.89 94.42 125.65 96.83 125.54 99.22 C 126.99 98.35 126.67 96.49 126.99 95.06 C 127.99 89.74 124.50 84.45 119.92 82.00 C 118.58 82.21 117.33 82.77 116.04 83.16 C 115.65 81.84 115.30 80.50 114.92 79.18 C 113.54 79.21 112.16 79.25 110.78 79.30 M 91.48 94.62 C 94.09 99.66 98.01 104.88 103.92 106.01 C 106.82 106.57 109.42 108.33 112.44 108.21 C 108.92 105.12 103.66 105.09 100.13 101.90 C 94.94 98.61 92.74 91.98 93.67 86.08 C 94.59 82.76 98.38 82.32 100.37 79.94 C 93.26 79.67 87.94 88.46 91.48 94.62 M 132.82 81.79 C 132.54 83.26 132.38 84.75 132.25 86.25 C 131.45 86.63 130.66 87.01 129.87 87.40 C 130.36 87.33 131.34 87.20 131.83 87.13 C 132.01 87.56 132.38 88.41 132.56 88.84 C 132.58 88.23 132.63 87.00 132.66 86.39 C 135.93 85.52 135.50 89.47 134.30 91.27 C 135.24 90.23 136.11 89.12 137.03 88.05 C 137.42 89.27 137.82 90.48 138.21 91.70 C 139.06 90.44 139.96 89.21 140.89 88.01 C 137.77 86.53 135.30 84.11 132.82 81.79 M 136.15 82.24 C 136.83 82.92 136.83 82.92 136.15 82.24 M 98.50 85.11 C 100.99 86.34 103.65 87.13 106.28 87.97 C 106.11 86.39 105.92 84.82 105.71 83.25 C 103.18 83.24 100.68 83.79 98.50 85.11 M 108.25 83.09 C 108.49 84.40 108.73 85.70 108.99 87.00 C 110.25 85.99 111.49 84.95 112.69 83.87 C 111.35 83.01 109.80 82.54 108.25 83.09 M 114.31 86.30 C 113.16 86.36 111.76 88.64 113.59 88.80 C 115.59 89.33 117.05 85.55 114.31 86.30 M 206.20 88.07 C 206.11 88.50 205.93 89.36 205.84 89.79 C 207.74 89.99 209.92 89.22 211.62 90.29 C 213.49 91.85 216.02 91.29 218.26 91.53 C 218.10 91.21 217.77 90.56 217.60 90.23 C 214.03 88.63 209.92 89.23 206.20 88.07 M 96.76 89.08 C 96.86 89.78 97.05 91.18 97.15 91.88 C 98.79 91.68 100.43 91.44 102.07 91.17 C 100.83 89.50 98.57 89.61 96.76 89.08 M 112.61 92.75 C 115.44 92.31 118.24 91.76 121.04 91.19 C 118.58 88.33 115.04 91.27 112.61 92.75 M 98.92 95.10 C 98.87 95.61 98.76 96.64 98.70 97.16 C 101.55 96.04 105.66 96.39 107.20 93.26 C 104.40 93.62 101.59 94.14 98.92 95.10 M 117.72 94.24 C 119.29 95.29 120.94 96.19 122.62 97.05 C 122.66 96.33 122.72 94.90 122.76 94.18 C 121.07 94.18 119.39 94.19 117.72 94.24 M 130.64 94.23 C 129.88 97.49 132.50 99.28 134.79 100.89 C 136.20 99.67 137.84 98.89 139.74 99.05 C 139.97 100.60 140.16 102.15 140.35 103.70 C 141.75 104.11 143.16 104.49 144.58 104.86 C 145.34 103.33 146.20 101.84 147.32 100.54 C 142.04 97.80 136.45 95.54 130.64 94.23 M 219.28 103.96 C 218.11 108.28 216.52 112.48 215.74 116.90 C 215.47 118.94 214.17 120.58 213.19 122.32 C 214.14 122.36 216.03 122.45 216.98 122.50 C 218.46 120.31 218.54 117.25 219.50 114.73 C 220.23 108.08 223.22 101.94 223.52 95.22 L 222.91 94.79 C 219.01 95.86 219.38 100.75 219.28 103.96 M 113.80 95.88 C 114.48 98.10 115.61 100.15 116.86 102.09 C 118.22 101.40 119.58 100.71 120.93 100.01 C 118.70 98.40 116.42 96.80 113.80 95.88 M 156.06 96.63 C 155.73 98.02 156.27 98.50 157.68 98.07 C 157.99 96.69 157.45 96.21 156.06 96.63 M 108.75 96.70 C 110.02 99.17 111.42 101.70 113.68 103.41 C 112.54 100.96 112.01 96.95 108.75 96.70 M 105.40 98.30 C 104.18 98.08 102.21 99.37 103.42 100.66 C 104.87 102.50 107.91 98.86 105.40 98.30 M 158.00 99.32 C 158.71 100.14 159.43 100.96 160.15 101.78 C 161.11 100.80 162.06 99.81 163.00 98.81 C 161.31 97.84 159.63 98.80 158.00 99.32 M 129.06 99.95 C 128.48 103.39 127.29 106.62 124.68 109.05 C 126.83 110.03 129.08 110.79 131.46 110.92 C 132.48 108.51 133.59 106.14 134.82 103.83 C 132.92 102.51 131.03 101.18 129.06 99.95 M 163.52 100.28 C 162.44 100.35 161.33 102.73 162.94 102.77 C 164.18 102.78 165.28 100.30 163.52 100.28 M 148.71 100.95 C 149.54 102.33 150.49 103.63 151.46 104.92 C 148.11 108.13 148.86 113.16 147.62 117.30 C 148.08 117.11 149.00 116.74 149.45 116.55 C 151.21 112.99 152.07 108.85 155.09 106.05 C 155.77 107.37 156.87 108.55 157.08 110.07 C 156.62 113.59 154.55 116.66 153.95 120.16 C 157.46 116.33 157.18 110.55 160.55 106.57 C 161.54 107.39 162.54 108.20 163.56 108.99 C 162.10 112.70 160.27 116.27 159.07 120.07 C 159.33 121.48 159.86 122.81 160.27 124.17 C 159.16 124.52 158.05 124.88 156.95 125.27 C 156.88 126.59 157.51 127.27 158.84 127.29 C 159.75 126.30 160.56 125.23 161.41 124.19 C 162.63 124.33 163.84 124.49 165.05 124.65 C 163.78 119.08 163.59 113.13 166.09 107.85 C 159.87 106.70 154.63 102.99 148.71 100.95 M 188.00 102.00 C 188.76 104.49 192.09 103.83 194.10 104.71 C 192.22 103.45 190.36 102.04 188.00 102.00 M 120.46 104.17 C 119.45 104.42 117.42 105.24 118.20 106.61 C 119.85 108.08 123.85 103.61 120.46 104.17 M 90.33 116.70 C 92.72 115.72 95.20 115.07 97.77 114.82 C 98.50 112.43 99.21 110.02 100.40 107.81 C 98.85 106.94 97.30 106.06 95.77 105.16 C 93.04 108.52 91.35 112.51 90.33 116.70 M 139.06 105.65 C 138.38 107.93 137.69 110.22 137.04 112.52 C 138.64 112.96 140.23 113.49 141.81 114.01 C 142.60 111.37 145.33 108.39 143.00 105.82 C 142.08 107.02 141.22 108.25 140.25 109.41 C 140.61 108.69 141.33 107.25 141.69 106.53 C 141.03 106.31 139.72 105.87 139.06 105.65 M 180.84 106.66 C 187.17 109.76 195.18 108.29 200.54 113.43 C 204.48 115.47 206.13 119.93 209.75 122.31 C 207.59 118.07 204.70 113.87 200.31 111.70 C 194.33 108.35 187.50 107.58 180.84 106.66 M 113.51 107.09 C 113.74 108.43 114.45 108.68 115.66 107.85 C 115.44 106.48 114.72 106.23 113.51 107.09 M 106.00 109.61 C 105.15 111.86 104.58 114.21 104.11 116.56 C 106.16 117.46 108.17 118.45 110.05 119.68 C 111.47 116.98 113.09 114.36 114.20 111.51 C 111.27 111.83 108.60 110.84 106.00 109.61 M 119.19 110.13 C 118.32 111.08 117.45 112.03 116.59 112.99 C 117.49 113.74 118.39 114.50 119.29 115.26 C 118.22 115.44 117.14 115.62 116.07 115.78 C 115.05 117.83 114.03 119.88 112.93 121.89 C 113.98 123.17 114.59 125.00 116.27 125.60 C 120.32 127.59 124.11 130.08 128.24 131.91 C 133.24 133.33 138.35 134.31 143.36 135.68 C 141.71 133.94 140.47 131.53 137.94 130.96 C 131.35 128.66 124.51 127.10 117.68 125.72 C 116.02 125.19 113.37 124.03 114.88 121.91 C 119.00 121.19 122.95 124.26 127.22 123.82 C 127.82 121.13 129.14 118.70 130.27 116.20 C 128.38 115.36 126.61 114.29 125.24 112.73 C 123.77 110.85 121.30 110.74 119.19 110.13 M 172.70 110.88 C 173.20 112.93 174.28 114.75 175.22 116.61 C 175.89 116.68 177.24 116.80 177.91 116.87 C 176.38 114.71 174.91 112.42 172.70 110.88 M 185.15 112.20 C 185.66 113.10 186.05 114.05 186.32 115.05 C 185.75 116.30 184.72 116.83 183.26 116.65 C 184.08 117.35 184.87 118.08 185.66 118.82 C 186.30 116.77 187.01 114.74 187.85 112.77 C 187.17 112.63 185.82 112.35 185.15 112.20 M 172.28 114.10 C 172.96 114.78 172.96 114.78 172.28 114.10 M 189.49 115.25 C 189.31 116.44 189.15 117.64 188.99 118.84 C 189.52 118.63 190.58 118.23 191.11 118.02 C 191.28 117.57 191.62 116.65 191.79 116.19 C 191.02 115.87 190.26 115.56 189.49 115.25 M 130.88 124.64 C 133.17 125.13 135.43 125.75 137.73 126.21 C 138.59 123.55 139.69 120.96 140.14 118.19 C 138.51 117.67 136.88 117.11 135.18 116.86 C 133.35 119.12 132.66 122.24 130.88 124.64 M 167.27 116.88 C 168.11 120.74 169.07 124.59 169.77 128.49 C 170.26 131.57 173.50 132.80 175.90 134.14 C 179.09 135.79 181.68 138.32 184.76 140.13 C 188.70 141.44 192.94 141.10 197.02 141.48 C 201.38 139.93 206.95 138.61 208.53 133.60 C 209.37 131.14 211.68 127.98 210.09 125.57 C 207.80 127.81 209.10 132.22 206.42 134.45 C 203.95 137.24 199.97 137.44 196.75 138.92 C 193.95 140.32 190.96 138.55 188.18 137.93 C 183.66 137.20 180.41 133.74 176.82 131.22 C 174.50 129.64 173.73 126.05 170.63 125.80 C 170.81 122.45 169.07 119.55 167.27 116.88 M 171.90 119.06 C 172.45 123.20 177.84 121.77 180.37 120.35 C 177.57 119.78 174.74 119.38 171.90 119.06 M 192.62 121.26 C 197.58 121.17 202.00 123.30 206.63 124.68 C 206.00 122.37 204.31 120.68 202.69 119.03 C 199.27 119.36 195.76 119.77 192.62 121.26 M 145.21 120.24 C 143.58 122.65 143.07 125.58 142.05 128.26 C 144.82 130.48 145.50 126.32 146.47 124.47 C 147.22 122.97 148.01 119.55 145.21 120.24 M 87.29 124.00 C 89.40 125.48 91.88 126.19 94.38 126.65 C 93.48 124.86 93.47 121.78 90.93 121.57 C 89.16 121.10 88.20 122.86 87.29 124.00 M 101.17 122.96 C 100.87 123.84 100.57 124.72 100.28 125.61 C 102.15 125.67 104.07 125.84 105.85 125.13 C 104.36 124.27 102.77 123.58 101.17 122.96 M 148.25 132.56 C 148.77 132.60 149.81 132.67 150.32 132.70 C 149.63 129.31 151.83 126.51 152.91 123.48 C 150.30 125.76 149.33 129.37 148.25 132.56 M 174.77 124.58 C 175.44 125.54 176.17 126.46 176.92 127.37 C 178.31 126.52 179.68 125.63 180.98 124.64 C 178.91 124.45 176.84 124.54 174.77 124.58 M 192.45 123.89 C 195.49 127.87 200.63 129.47 204.75 132.12 C 205.16 130.81 205.58 129.50 205.99 128.19 C 201.52 126.64 197.03 125.11 192.45 123.89 M 187.35 124.77 C 187.64 128.32 187.99 131.88 188.54 135.40 C 190.12 135.70 191.69 136.01 193.27 136.30 C 190.92 132.65 189.52 128.51 187.35 124.77 M 162.53 126.26 C 162.54 127.70 164.19 130.00 165.79 129.63 C 166.41 127.94 164.20 125.82 162.53 126.26 M 179.56 129.65 C 181.40 130.93 183.14 132.34 184.95 133.67 C 184.73 131.06 184.48 128.46 184.26 125.86 C 182.64 127.06 181.05 128.29 179.56 129.65 M 87.27 127.76 C 87.29 128.30 87.32 129.39 87.33 129.93 C 88.53 129.82 89.72 129.70 90.92 129.56 C 90.37 128.03 88.55 128.20 87.27 127.76 M 101.72 128.57 C 103.46 130.76 105.83 132.34 108.27 133.66 C 108.20 131.87 107.91 130.10 107.50 128.37 C 105.57 128.36 103.64 128.46 101.72 128.57 M 115.82 127.96 C 116.46 131.80 121.29 130.87 124.14 131.85 C 121.64 130.04 118.82 128.70 115.82 127.96 M 153.49 129.28 C 154.23 130.68 155.16 132.68 157.00 132.69 C 158.19 132.18 159.30 131.49 160.43 130.86 C 158.24 129.87 155.85 129.55 153.49 129.28 M 192.87 128.48 C 193.49 131.43 195.07 133.97 197.18 136.09 C 198.43 135.30 201.14 135.45 200.77 133.40 C 198.19 131.67 195.58 129.98 192.87 128.48 M 89.30 132.31 C 87.83 132.46 87.01 134.89 88.82 135.23 C 90.79 135.65 91.96 131.23 89.30 132.31 M 98.29 131.84 C 98.68 134.01 99.21 136.16 99.89 138.26 C 101.13 139.48 102.75 140.24 104.16 141.24 C 104.73 139.94 106.88 138.72 106.09 137.23 C 103.47 135.45 101.21 133.11 98.29 131.84 M 93.31 134.50 C 91.76 135.58 93.47 138.24 95.08 137.60 C 96.12 136.52 94.99 133.54 93.31 134.50 M 127.78 135.29 C 128.09 135.75 128.71 136.67 129.02 137.13 C 131.57 137.42 134.13 137.67 136.53 138.69 C 136.43 138.17 136.22 137.13 136.12 136.62 C 133.28 136.56 130.54 135.89 127.78 135.29 M 119.24 136.37 C 116.81 137.50 120.55 139.51 121.67 138.10 C 122.37 136.72 120.29 135.81 119.24 136.37 M 124.52 138.15 C 123.46 139.68 126.11 140.95 127.12 139.73 C 128.35 138.22 125.47 136.86 124.52 138.15 M 149.38 139.15 C 147.80 142.13 145.89 144.91 144.16 147.81 C 146.16 146.96 148.06 145.85 150.10 145.08 C 152.02 145.08 153.77 146.17 155.68 146.17 C 157.85 145.88 160.01 145.53 162.18 145.32 C 158.42 142.74 153.52 144.38 149.87 141.89 C 150.57 141.24 151.28 140.59 151.99 139.94 C 151.12 139.67 150.25 139.40 149.38 139.15 M 111.00 141.39 C 111.60 143.58 114.34 143.59 116.11 144.33 C 120.06 144.03 123.73 145.80 127.66 145.53 C 130.91 145.52 133.92 146.78 136.95 147.77 C 138.09 146.47 139.07 145.06 139.98 143.59 C 137.98 143.13 135.96 142.80 133.91 142.78 C 134.18 141.82 134.44 140.85 134.69 139.88 C 134.20 140.70 133.72 141.53 133.27 142.38 C 125.81 142.65 118.34 139.13 111.00 141.39 M 159.65 139.60 C 160.05 140.13 160.85 141.19 161.26 141.72 C 164.53 143.10 167.71 144.73 171.10 145.85 C 170.96 145.31 170.68 144.25 170.54 143.72 C 167.00 142.11 163.34 140.81 159.65 139.60 M 197.80 145.02 C 196.08 145.02 194.39 144.68 192.69 144.53 C 194.52 146.95 198.27 144.95 200.91 145.47 C 203.15 146.07 204.15 143.97 204.98 142.33 C 202.47 142.89 200.16 144.04 197.80 145.02 M 179.67 143.90 C 180.56 144.83 181.42 145.85 182.64 146.35 C 188.60 149.05 194.62 152.01 201.22 152.68 C 198.02 149.58 193.29 149.33 189.23 148.10 C 186.88 145.24 183.11 144.57 179.67 143.90 M 163.95 150.01 C 164.97 151.05 165.96 152.11 166.97 153.16 C 167.37 151.81 167.72 150.43 168.14 149.08 C 167.94 148.58 167.73 148.09 167.54 147.60 C 166.50 148.62 165.25 149.37 163.95 150.01 M 199.31 147.52 C 198.18 149.08 201.89 150.93 202.38 149.00 C 202.29 147.62 200.42 146.94 199.31 147.52 M 153.24 152.73 C 156.76 153.82 160.30 154.82 163.83 155.85 C 161.50 153.86 159.90 151.13 157.69 149.12 C 155.05 148.37 153.86 150.60 153.24 152.73 M 175.42 152.16 C 175.05 153.52 175.58 154.03 177.01 153.70 C 177.37 152.33 176.84 151.82 175.42 152.16 M 168.38 159.48 C 170.97 159.11 173.58 158.83 176.17 158.45 C 173.64 158.16 170.39 157.61 168.38 159.48 M 208.16 157.51 C 207.43 158.81 206.69 160.10 205.95 161.38 C 207.58 161.76 209.18 162.32 210.62 163.20 C 210.90 162.87 211.45 162.20 211.72 161.86 C 211.94 162.28 212.37 163.11 212.59 163.53 C 214.53 163.08 216.48 163.19 218.38 163.81 C 218.11 163.31 217.56 162.29 217.28 161.79 C 213.95 161.04 210.79 159.71 208.16 157.51 M 155.82 161.36 C 156.51 162.56 157.24 163.75 157.96 164.95 C 160.16 162.84 162.60 161.02 164.95 159.10 C 161.90 159.83 158.86 160.60 155.82 161.36 M 172.51 161.69 C 173.70 164.53 176.49 165.98 178.98 167.49 C 179.84 166.12 180.66 164.73 181.34 163.27 C 178.46 162.47 175.52 161.73 172.51 161.69 M 159.69 167.01 C 160.54 167.96 161.40 168.89 162.29 169.82 C 162.56 167.87 162.79 165.91 163.01 163.96 C 161.89 164.96 160.78 165.98 159.69 167.01 M 169.92 165.01 C 170.79 167.34 171.93 169.55 172.97 171.81 C 173.85 171.19 174.74 170.57 175.62 169.95 C 173.62 168.42 171.72 166.77 169.92 165.01 M 180.67 172.15 C 177.54 172.13 175.40 174.65 172.66 175.74 C 169.53 176.15 166.43 175.25 163.43 174.45 C 160.25 173.68 158.10 171.05 155.34 169.49 C 156.78 172.88 159.61 176.17 163.51 176.48 C 169.43 177.93 175.77 177.10 181.06 174.08 C 183.72 172.41 184.90 169.16 185.04 166.14 C 183.43 168.03 181.69 169.85 180.67 172.15 Z" />
<path fill="#000000" opacity="1.00" d=" M 156.61 83.39 C 164.00 83.33 171.01 85.75 178.19 87.07 C 183.17 86.57 188.57 88.38 192.46 91.56 C 195.56 89.21 198.77 92.20 201.54 93.65 C 204.24 94.08 206.94 94.62 209.40 95.89 C 206.17 97.61 202.71 95.89 199.46 95.23 C 196.17 94.04 191.86 95.06 189.64 91.73 C 185.75 94.22 182.17 90.28 178.20 90.44 C 171.23 88.93 164.37 86.56 157.18 86.31 C 157.04 85.58 156.75 84.12 156.61 83.39 Z" />
<path fill="#000000" opacity="1.00" d=" M 30.47 84.67 C 34.86 83.96 38.58 86.66 42.75 87.36 C 53.90 92.59 66.65 91.81 78.25 95.55 C 81.29 96.00 84.42 97.54 87.46 96.27 C 89.12 98.97 88.96 101.98 88.42 104.99 C 82.85 104.94 82.98 111.24 80.80 114.83 C 80.32 114.96 79.36 115.23 78.88 115.37 C 79.83 111.59 81.28 107.95 82.05 104.11 C 69.19 100.11 56.25 96.26 43.01 93.77 C 39.22 93.06 35.13 93.17 31.66 91.30 C 29.95 89.59 30.81 86.84 30.47 84.67 Z" />
<path fill="#000000" opacity="1.00" d=" M 152.46 92.27 C 153.22 91.11 155.47 92.24 154.49 93.49 C 153.71 94.59 151.48 93.54 152.46 92.27 Z" />
<path fill="#000000" opacity="1.00" d=" M 209.02 96.75 C 210.25 95.89 212.66 98.00 210.62 98.72 C 209.07 100.08 206.96 97.82 209.02 96.75 Z" />
<path fill="#000000" opacity="1.00" d=" M 36.72 108.53 C 41.28 107.84 45.70 106.53 50.11 105.21 C 50.57 105.94 51.49 107.40 51.95 108.13 C 49.85 109.28 47.75 110.43 45.75 111.76 C 45.28 111.40 44.35 110.69 43.88 110.33 C 45.41 112.13 46.79 114.06 48.07 116.04 C 48.98 115.21 49.89 114.37 50.81 113.56 C 53.66 114.83 56.91 114.08 59.78 115.27 C 63.99 116.64 68.12 118.26 72.38 119.51 C 75.24 120.25 73.24 123.08 72.59 124.77 C 68.18 133.03 64.87 141.84 60.21 149.98 C 61.50 150.97 62.80 151.96 64.06 152.99 C 61.44 155.45 57.57 155.14 54.30 156.12 C 54.23 155.35 54.07 153.83 53.99 153.06 C 47.83 151.65 42.52 147.96 36.32 146.67 C 36.52 142.25 37.60 137.94 37.82 133.52 C 34.16 135.06 30.10 134.95 26.40 136.34 C 23.87 137.37 21.25 136.05 18.76 135.53 C 15.15 134.28 11.44 133.35 7.83 132.08 C 8.51 128.64 9.04 125.09 11.17 122.19 C 13.24 119.57 12.39 116.02 14.02 113.24 C 16.91 114.20 19.71 112.80 22.54 112.28 C 27.32 111.23 31.83 109.13 36.72 108.53 M 19.47 116.97 C 21.74 119.24 24.85 120.28 27.97 120.63 C 33.65 120.79 39.67 119.89 44.04 115.98 C 43.47 115.83 42.34 115.52 41.77 115.37 C 41.74 114.50 41.68 112.75 41.64 111.88 C 34.23 113.39 26.56 114.25 19.47 116.97 M 51.92 117.19 C 50.43 122.23 47.13 126.41 45.07 131.21 C 50.02 135.03 56.73 135.62 61.49 139.73 C 63.95 133.72 67.36 128.17 69.67 122.11 C 63.79 120.34 57.87 118.70 51.92 117.19 M 16.30 119.72 C 14.70 122.82 13.29 126.00 11.74 129.12 C 15.19 130.13 18.65 131.11 22.08 132.19 C 23.05 129.92 23.90 127.59 24.91 125.33 C 22.01 123.51 19.42 121.20 16.30 119.72 M 35.40 126.33 C 35.77 125.58 36.51 124.08 36.88 123.33 C 34.13 124.30 31.27 124.83 28.41 125.31 C 27.64 127.79 26.81 130.25 26.10 132.75 C 30.78 131.28 35.55 130.23 40.36 129.29 C 44.36 128.68 44.79 124.04 46.10 120.99 C 42.17 121.97 37.74 122.60 35.40 126.33 M 43.50 134.72 C 42.11 137.90 41.21 141.27 39.95 144.51 C 45.35 146.01 50.39 148.53 55.74 150.16 C 57.30 147.13 58.98 144.17 60.61 141.17 C 56.74 140.54 53.12 139.00 49.56 137.43 C 47.96 136.40 46.55 137.88 45.19 138.60 C 44.71 137.28 44.17 135.97 43.50 134.72 Z" />
<path fill="#000000" opacity="1.00" d=" M 191.14 162.13 C 194.67 163.01 189.23 166.59 189.72 163.00 C 190.08 162.79 190.79 162.35 191.14 162.13 Z" />
<path fill="#000000" opacity="1.00" d=" M 79.24 202.23 C 79.81 202.81 79.81 202.81 79.24 202.23 Z" />
</g>
</svg>
