<?xml version="1.0" encoding="UTF-8" ?>
<!DOCTYPE svg PUBLIC "-//W3C//DTD SVG 1.1//EN" "http://www.w3.org/Graphics/SVG/1.1/DTD/svg11.dtd">
<svg width="256pt" height="256pt" viewBox="0 0 256 256" version="1.1" xmlns="http://www.w3.org/2000/svg">
<g id="#000000ff">
<path fill="#000000" opacity="1.00" d=" M 112.99 104.95 C 118.09 103.20 123.19 98.83 128.82 100.74 C 130.51 101.32 132.25 100.81 133.96 100.58 C 138.79 103.36 140.86 108.66 144.12 112.89 C 145.69 114.92 145.27 117.68 145.66 120.09 C 146.56 120.20 147.46 120.33 148.36 120.46 C 148.47 122.71 148.48 124.97 148.38 127.23 C 149.53 127.74 150.68 128.27 151.82 128.82 C 151.11 129.87 150.40 130.92 149.73 132.00 C 152.02 136.12 155.88 139.40 156.69 144.25 C 161.14 147.47 164.85 151.56 169.15 154.96 C 168.70 155.44 167.79 156.40 167.33 156.89 C 168.38 157.13 169.43 157.39 170.48 157.67 C 170.45 157.01 170.38 155.67 170.35 155.01 C 172.22 154.04 174.01 152.91 175.93 152.04 C 176.82 154.70 177.61 157.40 179.23 159.72 C 179.12 159.19 178.89 158.12 178.78 157.59 C 181.38 156.84 183.05 154.72 184.83 152.83 C 185.92 153.91 187.01 154.98 188.13 156.03 C 189.25 154.87 190.31 153.62 191.62 152.66 C 193.17 152.32 194.77 152.33 196.34 152.07 C 200.25 149.62 203.96 146.83 207.20 143.52 C 207.87 144.31 208.55 145.09 209.22 145.88 C 211.16 144.06 212.58 141.81 213.39 139.28 C 214.62 139.41 215.85 139.54 217.09 139.65 C 218.15 135.73 217.44 131.69 217.40 127.70 C 216.73 127.62 215.39 127.45 214.72 127.37 C 215.02 125.49 215.37 123.62 215.70 121.75 C 211.98 118.99 207.64 116.81 202.89 117.07 C 203.05 117.39 203.38 118.04 203.55 118.37 C 207.62 119.99 211.73 123.49 211.56 128.28 C 212.30 133.47 208.15 137.54 204.24 140.21 C 200.97 142.06 197.15 144.80 193.29 143.03 C 189.90 140.24 186.24 135.27 188.84 130.85 C 190.81 127.62 193.05 124.45 195.93 121.96 C 197.49 120.50 199.80 119.80 200.63 117.67 C 197.48 118.00 194.33 118.80 191.75 120.72 C 186.84 123.12 186.36 130.31 180.78 131.80 C 178.39 132.71 176.78 130.06 175.57 128.43 C 174.67 123.17 176.73 117.93 179.27 113.42 C 183.73 108.70 190.23 107.07 196.12 104.92 C 200.27 105.43 204.34 102.41 208.32 104.55 C 210.56 105.61 212.99 106.09 215.39 106.61 C 218.49 107.40 220.54 110.04 222.17 112.61 C 222.30 111.98 222.54 110.73 222.66 110.10 C 225.72 112.64 228.12 115.88 230.18 119.27 C 230.21 122.12 230.12 125.02 231.32 127.70 C 231.94 127.44 233.17 126.92 233.79 126.67 C 233.39 125.30 232.97 123.93 232.53 122.58 C 233.74 123.77 235.01 124.90 236.14 126.16 C 237.51 129.74 235.45 133.90 237.53 137.32 C 237.09 139.94 234.33 140.89 232.96 142.90 C 230.57 146.31 226.82 148.45 224.53 151.95 C 223.48 152.59 224.10 154.44 225.36 153.94 C 231.53 151.55 234.52 145.39 238.56 140.63 C 235.32 145.20 232.61 150.56 227.46 153.27 C 222.73 156.72 216.97 158.15 211.89 160.93 C 208.85 162.61 205.32 162.95 201.96 163.62 C 195.22 162.20 188.38 165.66 183.09 169.55 C 182.40 168.58 181.71 167.62 181.03 166.66 C 178.24 166.47 175.45 166.16 172.66 166.04 C 172.91 166.75 173.41 168.17 173.65 168.88 C 172.51 166.61 171.07 164.43 171.03 161.80 C 168.50 160.79 165.95 159.83 163.40 158.90 C 164.02 162.85 168.55 162.51 171.31 164.06 C 168.25 166.39 164.56 164.97 161.08 165.37 C 160.22 163.56 159.11 161.90 157.88 160.34 C 153.84 161.93 150.59 158.56 148.06 155.88 C 144.73 150.45 142.73 144.20 138.80 139.13 C 138.66 140.14 138.39 142.15 138.26 143.16 C 138.02 139.28 136.09 135.72 136.26 131.82 C 135.47 125.15 133.09 118.81 132.05 112.18 C 131.05 113.08 130.05 113.98 129.05 114.87 C 127.78 112.84 127.05 109.84 124.13 109.93 C 124.65 111.00 125.23 112.04 125.83 113.07 C 125.17 113.91 124.53 114.75 123.89 115.60 C 122.85 114.78 121.84 113.94 120.83 113.09 C 119.75 113.86 118.64 114.59 117.52 115.31 C 117.54 116.73 117.52 118.16 117.41 119.59 C 115.79 119.19 114.22 118.66 112.63 118.18 C 113.26 119.81 114.03 121.38 114.80 122.95 C 113.94 124.09 113.01 125.18 112.28 126.41 C 112.05 129.04 112.68 131.66 112.59 134.29 C 112.14 139.86 107.76 143.64 103.51 146.68 C 99.88 146.82 95.75 146.66 92.87 144.15 C 87.57 136.98 93.50 127.24 88.58 120.00 C 84.33 119.79 81.76 123.95 80.66 127.55 C 79.46 131.32 81.78 134.97 81.51 138.77 C 81.81 142.23 80.33 145.51 80.53 148.99 C 76.81 150.05 74.05 152.95 70.72 154.75 C 67.40 154.81 63.91 153.78 61.68 151.21 C 60.91 149.99 59.51 150.17 58.28 150.19 C 57.39 148.02 57.33 145.62 56.53 143.45 C 54.10 141.49 51.07 141.13 48.06 141.29 C 43.06 140.50 37.60 141.49 32.98 139.05 C 30.32 134.66 27.50 130.02 26.29 125.01 C 27.81 120.76 26.93 115.72 30.01 112.06 C 34.42 108.08 39.81 105.50 45.14 102.99 C 47.93 104.24 50.96 105.16 53.24 107.31 C 51.80 107.89 50.84 108.91 50.35 110.35 C 51.16 109.80 52.78 108.69 53.59 108.14 C 54.94 112.17 54.67 117.34 51.18 120.17 C 47.66 121.72 44.03 123.96 40.04 123.44 C 39.22 122.45 38.60 121.34 38.17 120.11 C 37.37 120.74 36.58 121.37 35.79 122.01 C 36.14 123.40 36.49 124.79 36.81 126.20 C 37.85 126.79 38.89 127.36 39.93 127.93 C 39.34 128.57 38.74 129.21 38.14 129.86 C 38.89 130.73 39.56 131.69 40.44 132.44 C 45.72 132.65 51.13 132.23 56.26 133.76 C 59.98 135.75 63.70 138.56 65.13 142.69 C 65.93 144.14 66.22 146.50 68.27 146.61 C 69.76 146.78 71.17 146.15 72.60 145.82 C 73.02 141.60 72.68 137.38 72.69 133.15 C 72.81 131.22 71.20 129.26 72.37 127.42 C 73.82 124.58 75.90 122.10 77.22 119.18 C 79.37 114.42 85.00 112.61 89.84 112.25 C 93.70 112.89 96.43 116.43 98.06 119.73 C 100.65 124.85 98.18 130.44 98.68 135.83 C 98.23 137.68 99.93 138.73 101.04 139.87 C 101.85 137.60 102.68 135.33 103.23 132.98 C 103.26 130.64 102.72 128.34 102.66 126.00 C 103.12 122.24 105.70 118.52 104.32 114.68 C 109.18 113.64 110.31 108.36 112.99 104.95 M 44.53 110.23 C 43.18 111.51 45.12 114.04 46.54 112.52 C 47.89 111.32 45.85 108.65 44.53 110.23 M 216.02 114.87 C 217.68 116.08 219.41 117.23 221.25 118.16 C 220.45 115.95 218.13 115.18 216.02 114.87 M 146.29 123.41 C 145.42 124.64 145.68 125.39 147.04 125.66 C 147.87 124.42 147.62 123.67 146.29 123.41 M 196.84 125.33 C 198.84 125.40 200.86 125.30 202.86 125.54 C 206.62 127.59 205.19 133.93 201.58 135.56 C 199.24 136.92 195.74 139.01 193.46 136.41 C 191.25 134.37 193.05 131.19 193.81 128.87 C 192.71 130.63 191.48 132.32 190.22 133.97 C 191.54 136.12 192.46 139.19 195.22 139.85 C 198.94 140.53 201.48 137.10 204.31 135.31 C 207.33 133.32 209.09 127.76 205.66 125.37 C 203.24 122.91 199.72 124.98 196.84 125.33 M 194.74 133.86 C 198.06 134.18 201.09 132.95 202.83 130.00 C 202.11 129.63 200.67 128.90 199.95 128.53 C 197.99 130.07 196.21 131.84 194.74 133.86 M 229.26 129.27 C 227.68 132.27 232.66 129.51 229.26 129.27 M 231.79 129.40 C 231.58 133.28 230.82 137.18 229.13 140.70 C 228.36 140.60 226.84 140.40 226.08 140.30 C 226.59 140.52 227.61 140.97 228.12 141.20 C 226.52 144.01 224.11 146.44 224.10 149.90 C 230.43 145.63 235.04 137.91 234.43 130.14 C 234.84 128.59 232.40 128.29 231.79 129.40 M 209.47 152.52 C 210.36 152.05 212.13 151.09 213.02 150.62 C 212.60 152.96 211.96 155.25 211.39 157.55 C 208.16 155.32 205.14 157.65 202.11 158.95 C 204.78 158.17 207.44 157.31 210.24 157.21 C 209.35 159.21 207.05 159.87 205.63 161.41 C 210.65 160.54 213.40 156.06 217.52 153.62 C 217.54 153.05 217.58 151.93 217.60 151.37 C 216.08 151.70 214.64 152.30 213.19 152.85 C 213.27 151.15 213.34 149.45 213.40 147.75 C 212.06 149.32 210.82 150.96 209.47 152.52 M 217.83 156.56 C 219.77 156.41 221.67 156.04 223.53 155.46 C 222.85 154.45 221.98 153.59 221.14 152.72 C 219.99 153.96 218.84 155.20 217.83 156.56 M 174.88 162.43 C 176.76 163.40 178.72 164.21 180.76 164.76 C 180.70 164.18 180.57 163.01 180.50 162.42 C 178.63 162.34 176.75 162.38 174.88 162.43 M 183.72 162.97 C 185.73 163.57 189.20 164.64 190.19 162.17 C 188.02 162.37 185.86 162.61 183.72 162.97 Z" />
<path fill="#000000" opacity="1.00" d=" M 48.51 103.98 C 47.35 101.78 50.36 102.15 51.53 102.56 C 52.74 102.89 53.89 103.37 54.98 104.01 C 53.08 105.72 50.51 105.11 48.51 103.98 Z" />
<path fill="#000000" opacity="1.00" d=" M 98.82 116.47 C 102.19 116.56 97.24 119.47 98.82 116.47 Z" />
</g>
</svg>
