<?xml version="1.0" encoding="UTF-8" ?>
<!DOCTYPE svg PUBLIC "-//W3C//DTD SVG 1.1//EN" "http://www.w3.org/Graphics/SVG/1.1/DTD/svg11.dtd">
<svg width="256pt" height="256pt" viewBox="0 0 256 256" version="1.1" xmlns="http://www.w3.org/2000/svg">
<g id="#000000ff">
<path fill="#000000" opacity="1.00" d=" M 16.04 79.95 C 20.51 74.34 28.24 74.02 34.78 74.95 C 37.10 75.41 37.32 78.09 38.48 79.74 C 40.46 82.77 42.65 85.69 44.24 88.96 C 43.94 93.25 43.74 97.53 43.77 101.83 C 42.92 101.73 41.21 101.53 40.36 101.43 C 39.19 102.74 37.98 104.02 36.73 105.26 C 36.58 104.54 36.28 103.10 36.13 102.39 C 37.76 100.84 39.49 99.38 40.94 97.65 C 41.63 94.38 42.31 90.61 40.37 87.61 C 38.43 84.23 35.62 81.28 34.78 77.34 C 31.26 77.38 27.73 77.20 24.22 77.45 C 21.45 78.15 18.89 79.51 16.04 79.95 Z" />
<path fill="#000000" opacity="1.00" d=" M 161.03 83.61 C 165.55 77.70 173.69 77.39 180.38 78.69 C 182.41 79.34 182.45 81.99 183.63 83.50 C 185.67 86.35 187.25 89.54 189.62 92.14 C 188.59 96.46 188.84 100.91 188.71 105.31 C 187.69 105.05 186.67 104.80 185.65 104.55 C 184.35 106.18 182.86 107.67 180.87 108.40 C 180.95 104.88 184.45 103.41 186.08 100.76 C 186.45 97.94 187.26 94.84 185.89 92.15 C 184.06 88.23 180.64 85.16 179.69 80.80 C 175.39 81.08 170.87 80.01 166.78 81.71 C 164.89 82.43 162.99 83.12 161.03 83.61 Z" />
<path fill="#000000" opacity="1.00" d=" M 11.34 95.98 C 11.96 91.75 13.44 87.69 14.97 83.71 C 16.92 88.18 13.66 92.48 13.60 96.99 C 14.51 99.68 15.96 102.14 18.43 103.64 C 19.73 104.28 19.43 105.79 19.60 106.98 C 17.41 106.23 15.29 105.28 13.24 104.22 C 13.65 108.50 13.16 112.83 13.94 117.08 C 18.13 112.98 21.27 107.93 23.67 102.61 C 24.68 99.51 24.08 96.16 24.23 92.95 C 22.26 94.29 20.23 95.88 17.66 95.26 C 19.46 93.26 22.04 92.34 24.16 90.76 C 23.91 89.47 23.60 88.19 23.24 86.92 C 20.08 89.17 18.70 93.91 14.32 94.04 C 16.15 91.20 17.55 87.38 21.09 86.30 C 22.36 85.76 23.67 85.28 24.98 84.83 C 27.22 91.31 26.07 98.17 26.12 104.86 C 27.13 104.52 28.13 104.18 29.14 103.84 C 29.65 97.70 29.20 91.50 30.47 85.43 C 34.20 84.47 38.86 87.55 38.66 91.49 C 36.35 90.22 34.31 88.48 31.91 87.38 C 31.62 89.12 31.46 90.88 31.24 92.63 C 33.51 92.06 35.83 91.72 38.15 91.43 C 38.48 92.17 39.13 93.65 39.46 94.40 C 36.92 94.35 34.38 94.33 31.83 94.33 C 30.84 100.24 31.71 106.08 32.54 111.93 C 33.28 112.25 34.76 112.89 35.50 113.21 C 35.51 110.52 34.65 107.42 36.65 105.19 C 37.04 108.35 36.76 111.54 36.60 114.71 C 37.32 114.71 38.75 114.71 39.47 114.71 C 39.36 116.83 39.31 118.95 39.23 121.08 C 38.89 119.06 38.64 117.03 38.41 115.01 C 36.41 115.45 34.37 115.80 32.42 116.48 C 30.43 117.90 28.59 119.74 26.10 120.25 C 24.49 120.00 23.09 119.17 22.12 117.87 C 24.64 117.48 27.24 117.56 29.70 116.79 C 26.83 116.38 23.92 116.42 21.04 116.13 C 22.18 113.73 24.86 113.55 27.12 112.99 C 25.24 111.07 24.43 108.59 24.42 105.95 C 22.66 109.51 20.42 112.79 18.08 116.00 C 16.75 117.68 17.25 119.94 17.11 121.92 C 17.18 127.56 16.26 133.19 16.70 138.83 C 16.83 140.44 16.61 142.01 16.03 143.54 C 15.67 142.97 14.95 141.82 14.59 141.24 C 14.30 136.58 14.30 131.90 14.69 127.25 C 14.08 123.81 11.97 120.67 12.39 117.07 C 12.93 112.12 11.83 107.18 12.69 102.26 C 13.27 99.96 10.61 98.29 11.34 95.98 M 26.22 106.84 C 26.72 108.82 27.20 110.81 27.53 112.82 C 28.61 112.65 30.75 112.31 31.83 112.14 C 31.21 110.25 30.60 108.36 30.08 106.45 C 28.79 106.57 27.51 106.70 26.22 106.84 Z" />
<path fill="#000000" opacity="1.00" d=" M 160.02 86.79 C 161.74 91.25 159.01 95.54 158.67 99.97 C 159.18 104.29 162.95 106.54 165.47 109.61 C 162.92 109.98 160.56 109.10 158.34 107.95 C 158.59 112.18 158.09 116.47 158.95 120.65 C 163.31 116.14 166.81 110.78 169.11 104.95 C 169.32 102.17 169.18 99.37 169.28 96.59 C 167.21 97.68 165.04 99.62 162.59 98.32 C 164.68 96.91 166.91 95.74 169.12 94.55 C 168.85 93.20 168.57 91.85 168.28 90.51 C 165.12 92.81 163.56 97.29 159.27 97.73 C 160.59 95.34 161.88 92.85 163.86 90.94 C 165.72 89.69 167.96 89.15 170.05 88.37 C 172.07 94.80 171.15 101.55 171.12 108.16 C 171.88 108.00 173.39 107.67 174.14 107.50 C 174.61 101.29 174.22 95.01 175.44 88.86 C 178.77 88.03 181.22 90.34 183.53 92.36 C 183.54 94.20 183.70 96.03 183.98 97.84 C 181.59 97.74 179.21 97.74 176.83 97.77 C 176.71 99.83 176.52 101.88 176.36 103.94 C 176.01 107.76 177.61 111.45 177.35 115.28 C 176.14 113.74 175.49 111.92 175.01 110.05 C 173.75 110.18 172.48 110.32 171.22 110.46 C 171.71 112.39 172.19 114.31 172.55 116.27 C 175.17 115.75 177.83 115.39 180.47 115.96 C 180.35 113.44 179.95 110.66 181.69 108.56 C 182.01 111.85 181.77 115.15 181.61 118.43 C 182.34 118.44 183.80 118.45 184.53 118.46 C 184.39 120.34 184.33 122.23 184.23 124.12 C 183.87 122.27 183.61 120.40 183.36 118.54 C 181.34 119.08 179.23 119.34 177.28 120.13 C 175.23 121.78 173.06 123.34 170.43 123.93 C 170.63 131.63 171.01 139.46 169.67 147.09 C 167.85 144.74 168.53 141.74 168.60 139.00 C 168.98 133.94 168.30 128.79 169.77 123.85 C 168.88 122.89 168.02 121.90 167.20 120.89 C 169.65 120.73 172.11 120.69 174.55 120.36 C 171.83 119.64 169.00 119.78 166.21 119.71 C 166.98 116.97 169.99 117.14 172.24 116.45 C 170.25 114.70 169.50 112.28 169.30 109.72 C 167.44 113.17 165.37 116.51 162.88 119.53 C 163.53 119.77 164.85 120.25 165.51 120.49 C 165.25 126.66 165.21 132.84 164.92 139.01 C 165.23 142.25 165.56 145.50 165.08 148.75 C 164.37 147.85 163.41 147.00 163.49 145.74 C 162.87 137.31 163.56 128.87 163.31 120.43 L 162.12 120.43 C 162.54 127.94 161.21 135.43 161.74 142.93 C 162.15 144.57 161.21 145.96 159.95 146.91 C 159.19 141.68 159.31 136.35 159.67 131.08 C 159.56 129.06 158.58 127.22 158.00 125.31 C 156.66 121.65 157.93 117.76 157.47 113.99 C 156.93 110.92 157.70 107.86 157.75 104.78 C 157.73 103.10 156.00 101.86 156.23 100.15 C 156.78 95.53 158.54 91.17 160.02 86.79 M 176.97 90.59 C 176.70 92.36 176.49 94.14 176.27 95.91 C 178.50 95.50 180.76 95.24 183.02 95.01 C 181.05 93.46 179.05 91.97 176.97 90.59 Z" />
<path fill="#000000" opacity="1.00" d=" M 71.88 98.77 C 75.40 96.04 78.99 93.02 83.38 91.84 C 83.52 92.31 83.79 93.24 83.93 93.71 C 82.84 94.11 81.74 94.50 80.65 94.89 C 81.71 94.79 83.83 94.58 84.89 94.48 C 82.70 100.19 77.45 103.64 72.78 107.15 C 79.06 108.00 86.28 105.53 91.88 109.18 C 91.73 109.76 91.45 110.91 91.31 111.49 C 86.27 109.95 81.05 109.67 75.81 109.61 C 73.81 112.81 70.44 114.54 67.76 117.00 C 67.85 119.82 68.03 122.67 68.58 125.44 C 69.72 126.70 71.10 127.73 72.42 128.79 C 75.40 125.57 79.03 122.80 80.06 118.30 C 80.63 121.74 81.01 125.21 81.12 128.70 C 81.86 128.64 83.33 128.53 84.07 128.47 C 84.70 123.75 84.76 118.77 87.14 114.51 C 89.75 115.90 91.79 118.02 93.89 120.01 C 94.92 118.20 93.65 116.10 93.42 114.22 C 92.49 111.72 92.77 109.06 92.77 106.46 C 88.83 104.11 84.74 100.94 84.11 96.05 C 88.64 98.05 90.77 103.29 95.86 104.46 C 95.46 104.67 94.68 105.08 94.28 105.28 C 94.99 105.40 96.42 105.64 97.13 105.77 C 97.21 110.83 97.76 115.90 97.54 120.96 C 96.82 128.08 98.28 135.38 96.27 142.35 C 95.76 141.99 94.75 141.28 94.24 140.92 C 93.51 142.22 92.76 143.51 91.95 144.77 C 91.81 139.94 91.85 135.09 91.68 130.26 C 90.59 128.28 88.26 127.42 86.55 126.04 C 86.37 127.32 86.18 128.59 86.00 129.87 C 87.83 131.64 89.60 133.57 90.45 136.03 C 90.12 138.43 90.37 141.45 87.96 142.86 C 87.79 141.28 87.64 139.69 87.49 138.11 C 86.98 138.08 85.97 138.03 85.46 138.00 C 85.82 139.03 86.18 140.07 86.52 141.11 C 83.28 141.19 80.03 141.27 76.79 141.09 C 78.37 139.12 80.91 138.74 83.16 137.98 C 81.61 138.02 80.06 138.09 78.51 138.16 C 76.93 139.75 75.40 141.41 73.65 142.82 C 74.46 139.66 76.78 136.44 80.02 135.55 C 82.80 135.63 85.54 136.12 88.31 136.32 C 86.36 133.62 83.87 130.93 80.17 131.70 C 77.90 133.93 76.52 137.07 73.51 138.51 C 74.67 135.21 77.54 132.90 78.77 129.65 C 78.95 128.15 78.96 126.64 79.05 125.15 C 77.04 127.09 74.65 128.70 73.01 130.99 C 71.84 136.36 72.44 141.93 72.19 147.39 C 74.71 147.35 77.20 147.84 79.54 148.78 C 79.96 146.72 80.87 144.83 82.55 143.51 C 82.94 145.90 82.62 148.30 82.23 150.67 C 78.35 150.64 73.98 149.66 70.78 152.41 C 68.88 145.36 70.70 138.15 70.24 131.01 C 69.47 129.70 67.79 129.65 66.53 129.12 C 66.19 124.61 65.02 119.91 66.62 115.51 C 68.35 113.52 70.74 112.23 72.60 110.38 C 71.33 110.73 70.06 111.09 68.80 111.46 C 69.51 107.16 70.35 102.86 71.88 98.77 M 74.20 100.09 C 74.35 101.15 74.51 102.22 74.66 103.28 C 76.98 101.26 79.18 99.09 81.23 96.79 C 78.96 98.07 76.84 99.69 74.20 100.09 M 87.01 123.37 C 89.61 124.55 92.45 125.38 94.63 127.32 C 94.45 125.26 94.68 123.20 94.72 121.14 C 93.53 121.22 92.90 122.38 92.03 123.03 C 90.54 121.41 89.01 119.82 87.47 118.25 C 87.30 119.95 87.15 121.66 87.01 123.37 Z" />
<path fill="#000000" opacity="1.00" d=" M 84.86 94.03 C 84.98 93.65 85.23 92.89 85.35 92.51 C 89.39 93.94 91.69 97.98 94.32 101.13 C 94.19 101.59 93.93 102.52 93.80 102.98 C 90.91 99.92 87.49 97.24 84.86 94.03 Z" />
<path fill="#000000" opacity="1.00" d=" M 230.09 97.86 C 231.15 96.83 232.16 95.75 233.16 94.66 C 234.80 96.17 236.15 97.95 237.16 99.94 C 238.67 102.94 241.01 105.42 242.54 108.40 C 244.51 113.30 242.68 118.70 244.03 123.72 C 245.30 128.74 242.89 133.65 242.64 138.65 C 241.92 145.65 238.61 152.08 238.43 159.15 C 238.23 162.71 236.32 165.83 235.24 169.14 C 234.19 167.96 233.16 166.77 232.15 165.57 C 230.62 166.86 229.10 168.17 227.51 169.39 C 223.21 165.18 224.82 158.87 224.04 153.50 C 223.14 154.16 222.24 154.84 221.37 155.54 C 221.61 160.26 221.60 165.00 221.94 169.72 C 221.43 169.36 220.41 168.63 219.90 168.27 C 219.23 164.54 218.99 160.74 218.66 156.97 C 217.74 156.77 216.82 156.58 215.91 156.38 C 215.68 155.80 215.21 154.66 214.97 154.09 C 216.68 154.25 218.40 154.35 220.12 154.43 C 219.39 152.16 218.74 149.86 218.25 147.53 C 217.29 147.68 216.33 147.82 215.37 147.98 C 215.98 144.74 217.06 141.44 216.41 138.13 C 214.64 131.80 217.11 124.91 214.31 118.78 C 212.80 115.28 215.48 111.87 216.70 108.68 C 218.73 105.69 218.24 101.59 220.83 98.93 C 222.36 97.49 223.63 95.00 226.08 95.38 C 227.52 96.02 228.80 96.95 230.09 97.86 M 224.88 98.77 C 221.59 102.89 219.43 107.89 217.60 112.81 C 222.66 111.54 227.92 111.60 233.04 110.62 C 236.02 109.89 238.64 111.63 241.13 112.98 C 240.75 108.81 238.02 105.55 235.70 102.28 C 234.19 100.04 231.31 98.00 228.62 99.45 C 227.43 98.73 225.94 96.87 224.88 98.77 M 228.69 113.56 C 229.07 118.24 228.58 122.91 228.05 127.55 C 228.53 127.60 229.51 127.70 229.99 127.75 C 229.92 123.36 229.25 118.98 229.68 114.59 C 230.26 114.55 231.41 114.47 231.99 114.42 C 232.71 117.00 232.61 119.69 232.51 122.33 C 233.58 122.70 234.63 123.11 235.68 123.55 C 237.73 127.13 239.03 131.06 240.39 134.94 C 241.49 130.23 242.53 125.00 240.46 120.41 C 239.34 118.25 240.57 115.84 240.63 113.58 C 238.79 114.73 236.99 116.01 234.89 116.65 C 233.84 115.61 232.99 114.40 232.11 113.24 C 230.97 113.35 229.83 113.46 228.69 113.56 M 217.23 113.49 C 216.67 115.85 216.09 118.32 217.24 120.60 C 218.95 125.26 218.61 130.16 218.69 135.00 C 219.89 132.77 220.81 130.36 222.41 128.36 C 222.11 126.42 221.90 124.47 221.80 122.51 C 223.34 123.83 224.70 125.34 226.12 126.80 C 226.49 123.61 226.65 120.40 226.89 117.20 C 225.69 117.34 224.50 117.48 223.30 117.61 C 221.58 115.81 219.55 114.39 217.23 113.49 M 225.65 128.42 C 219.97 135.06 221.26 144.21 221.42 152.26 C 221.93 149.21 221.13 145.77 223.06 143.10 C 223.93 141.45 225.80 140.83 227.28 139.88 C 227.14 136.06 227.85 131.77 225.65 128.42 M 231.76 129.00 C 233.63 131.74 235.69 134.62 235.84 138.07 C 235.97 141.26 237.09 144.28 238.16 147.26 C 238.71 141.02 237.73 134.69 235.98 128.70 C 234.57 128.79 233.16 128.89 231.76 129.00 M 230.46 130.25 C 230.38 133.90 230.09 139.05 234.85 139.77 C 234.13 136.31 232.71 132.99 230.46 130.25 M 231.11 140.61 C 228.87 142.41 225.88 143.48 224.39 146.05 C 225.86 150.98 232.15 149.71 234.79 146.60 C 234.90 143.95 233.08 142.07 231.11 140.61 M 224.17 150.46 C 222.63 153.39 227.57 150.60 224.17 150.46 M 226.09 152.67 C 226.58 157.60 227.15 162.51 227.61 167.44 C 231.91 163.48 229.50 157.34 230.48 152.29 C 233.00 153.85 232.51 156.84 232.67 159.39 C 233.91 158.21 235.15 157.03 236.44 155.90 C 235.96 154.28 235.59 152.64 235.31 150.98 C 232.30 151.85 229.22 152.49 226.09 152.67 Z" />
<path fill="#000000" opacity="1.00" d=" M 40.81 102.35 C 41.63 102.31 42.44 102.27 43.25 102.23 C 43.58 105.92 42.99 109.60 40.98 112.75 C 39.89 109.34 40.13 105.80 40.81 102.35 Z" />
<path fill="#000000" opacity="1.00" d=" M 185.97 105.41 C 186.50 105.44 187.55 105.52 188.08 105.55 C 188.68 109.29 188.01 113.03 185.94 116.22 C 184.91 112.68 185.14 108.96 185.97 105.41 Z" />
<path fill="#000000" opacity="1.00" d=" M 42.97 113.89 C 43.51 118.56 43.91 123.31 43.25 127.99 C 43.04 129.63 41.81 130.83 40.80 132.05 C 40.71 135.12 40.49 138.23 41.10 141.28 C 41.69 144.95 40.80 148.61 40.18 152.21 C 37.43 153.72 35.11 156.41 31.77 156.50 C 26.48 156.70 20.93 154.07 15.90 156.73 C 14.38 152.45 13.12 148.00 13.34 143.42 C 16.77 145.31 15.76 149.75 17.22 152.84 C 21.82 153.37 26.46 153.59 31.08 153.66 C 33.68 153.62 37.15 153.20 38.33 150.51 C 38.86 147.05 38.69 143.51 38.96 140.03 C 38.07 140.33 37.17 140.64 36.27 140.95 C 37.85 134.41 37.53 127.22 41.25 121.39 C 42.42 119.06 42.51 116.41 42.97 113.89 M 41.24 127.22 C 41.83 127.81 41.83 127.81 41.24 127.22 Z" />
<path fill="#000000" opacity="1.00" d=" M 70.67 122.39 C 72.48 118.62 75.20 115.10 78.93 113.08 C 79.50 113.90 80.63 115.55 81.20 116.38 C 77.70 118.45 74.70 121.34 70.67 122.39 Z" />
<path fill="#000000" opacity="1.00" d=" M 116.07 116.30 C 119.85 116.20 123.86 117.17 127.08 114.57 C 132.75 114.53 138.44 114.87 144.09 114.23 C 146.61 114.01 148.09 116.73 148.33 118.93 C 147.56 126.60 146.55 134.24 146.21 141.93 C 145.97 143.65 145.03 145.12 143.89 146.38 C 143.50 144.68 143.18 142.97 142.84 141.27 C 134.37 141.61 125.82 140.58 117.40 141.67 C 123.73 145.73 131.63 141.97 138.56 143.46 C 140.38 143.41 140.93 145.26 141.81 146.48 C 138.36 146.15 134.94 145.56 131.47 145.43 C 131.43 145.63 131.34 146.02 131.30 146.21 C 135.19 146.32 138.90 147.61 142.73 148.18 C 143.78 147.60 144.77 146.93 145.79 146.29 C 145.79 147.69 145.82 149.09 145.83 150.50 C 140.36 151.17 135.15 148.81 129.72 148.64 C 124.87 148.55 120.00 148.07 115.42 146.36 C 116.05 139.18 114.72 131.95 115.65 124.79 C 115.84 121.95 116.66 119.14 116.07 116.30 M 127.30 117.61 C 124.66 117.96 122.00 118.19 119.35 118.48 C 118.16 125.11 118.97 131.86 118.16 138.52 C 126.58 138.37 135.06 138.14 143.45 138.97 C 144.25 131.48 144.50 123.95 145.34 116.46 C 139.43 117.90 133.29 116.84 127.30 117.61 Z" />
<path fill="#000000" opacity="1.00" d=" M 18.20 116.48 C 18.73 116.49 19.78 116.52 20.30 116.53 C 20.80 124.42 19.37 132.33 20.28 140.19 C 20.36 141.97 20.21 143.75 20.07 145.53 C 17.62 142.96 18.52 139.22 18.32 136.02 C 17.96 129.50 18.75 122.99 18.20 116.48 Z" />
<path fill="#000000" opacity="1.00" d=" M 187.92 117.11 C 188.26 122.30 189.32 127.80 187.65 132.82 C 184.87 136.29 185.44 140.91 186.08 145.01 C 186.67 148.62 185.75 152.22 185.19 155.77 C 182.59 157.01 180.57 159.64 177.52 159.71 C 173.07 160.19 168.64 158.82 164.20 159.30 C 163.00 159.31 161.72 160.09 160.57 159.53 C 159.26 155.35 157.72 150.86 158.82 146.46 C 161.14 149.27 161.32 152.97 161.86 156.41 C 168.64 156.11 176.25 159.18 182.42 155.39 C 184.73 151.83 183.24 147.04 183.98 143.00 C 183.32 143.37 182.00 144.13 181.34 144.50 C 182.34 139.19 182.82 133.72 184.39 128.55 C 186.58 125.10 187.76 121.19 187.92 117.11 M 186.04 130.30 C 184.71 133.33 189.43 130.12 186.04 130.30 Z" />
<path fill="#000000" opacity="1.00" d=" M 134.96 117.96 C 138.30 117.98 142.46 116.49 144.28 120.30 C 141.40 120.53 138.51 120.51 135.62 120.48 C 135.45 119.85 135.12 118.59 134.96 117.96 Z" />
<path fill="#000000" opacity="1.00" d=" M 235.50 117.66 C 239.54 118.67 241.32 123.34 241.21 127.12 C 238.49 124.54 236.80 121.11 235.50 117.66 Z" />
<path fill="#000000" opacity="1.00" d=" M 27.67 124.94 C 27.67 122.09 30.33 120.72 32.10 118.95 C 33.06 126.51 33.17 134.09 33.76 141.67 C 33.19 141.56 32.06 141.33 31.50 141.22 C 31.59 140.10 31.68 138.99 31.79 137.87 C 30.46 137.30 29.05 136.85 27.92 135.92 C 27.30 132.30 27.66 128.59 27.67 124.94 M 29.98 122.83 C 29.84 127.57 28.50 132.93 31.06 137.24 C 31.65 132.46 31.78 127.38 29.98 122.83 Z" />
<path fill="#000000" opacity="1.00" d=" M 120.83 118.90 C 124.62 117.87 128.42 118.96 132.19 119.51 C 132.20 120.05 132.23 121.11 132.25 121.64 C 128.71 121.72 125.18 121.46 121.66 121.30 C 121.45 120.70 121.03 119.50 120.83 118.90 Z" />
<path fill="#000000" opacity="1.00" d=" M 23.76 129.50 C 23.66 126.35 23.67 123.07 25.17 120.20 C 25.96 126.78 25.65 133.48 25.23 140.09 C 25.31 141.44 24.45 142.51 23.82 143.60 C 22.95 138.93 23.93 134.20 23.76 129.50 Z" />
<path fill="#000000" opacity="1.00" d=" M 134.01 120.44 C 134.53 120.89 135.58 121.79 136.10 122.23 C 136.31 126.74 134.29 131.88 138.15 135.39 C 135.45 134.81 132.78 134.01 130.04 133.62 C 126.52 133.63 123.06 134.58 119.52 134.39 C 119.48 133.79 119.40 132.60 119.36 132.01 C 122.53 131.73 126.23 132.28 128.00 129.01 C 129.49 129.64 130.98 130.26 132.48 130.87 C 133.03 127.40 133.46 123.91 134.01 120.44 Z" />
<path fill="#000000" opacity="1.00" d=" M 175.36 125.98 C 175.87 124.75 176.41 123.52 176.96 122.31 C 178.02 130.05 178.45 137.86 178.52 145.66 C 176.43 144.96 176.41 143.05 176.70 141.20 C 175.00 140.83 173.08 140.42 172.73 138.42 C 172.39 133.87 172.63 129.28 173.43 124.79 C 174.07 125.18 174.72 125.58 175.36 125.98 M 174.99 125.92 C 174.49 130.80 174.19 135.86 175.35 140.68 C 177.40 136.02 176.40 130.61 174.99 125.92 Z" />
<path fill="#000000" opacity="1.00" d=" M 87.38 145.98 C 89.70 146.57 91.97 146.18 94.13 145.23 C 93.21 146.16 92.28 147.07 91.34 147.98 C 91.94 149.15 92.50 150.33 93.04 151.53 C 89.80 151.43 86.55 151.50 83.31 151.59 C 83.51 148.62 86.29 148.25 88.71 148.15 C 88.26 147.43 87.82 146.71 87.38 145.98 Z" />
<path fill="#000000" opacity="1.00" d=" M 216.31 149.06 C 218.00 149.40 217.62 152.59 216.10 152.97 C 214.37 152.59 214.74 149.46 216.31 149.06 Z" />
</g>
</svg>
