<?xml version="1.0" encoding="UTF-8" ?>
<!DOCTYPE svg PUBLIC "-//W3C//DTD SVG 1.1//EN" "http://www.w3.org/Graphics/SVG/1.1/DTD/svg11.dtd">
<svg width="128pt" height="128pt" viewBox="0 0 128 128" version="1.1" xmlns="http://www.w3.org/2000/svg">
<g id="#000000ff">
<path fill="#000000" opacity="1.00" d=" M 59.70 20.67 C 61.34 21.38 63.32 22.29 63.34 24.38 C 64.03 29.93 65.42 35.49 64.37 41.09 C 66.59 42.55 68.83 44.00 70.90 45.68 C 72.14 44.97 73.29 43.32 74.91 43.83 C 80.90 45.03 86.90 46.17 93.03 45.79 C 95.43 45.41 95.88 48.18 96.19 49.90 C 88.20 52.00 79.75 50.99 71.56 51.35 C 75.88 56.16 80.25 60.95 84.03 66.23 C 84.57 65.94 85.64 65.37 86.17 65.08 C 90.17 69.46 92.58 75.10 97.35 78.80 C 99.10 79.66 98.28 81.43 98.02 82.90 C 94.37 83.47 92.36 80.08 89.69 78.32 C 85.00 75.43 81.05 71.55 76.39 68.62 C 71.56 65.64 67.26 61.70 61.94 59.59 C 60.88 66.24 60.28 72.95 59.54 79.65 C 59.12 81.06 58.01 82.16 56.92 83.10 C 54.66 83.54 54.23 80.61 54.07 78.99 C 53.97 76.63 52.40 74.42 53.13 72.03 C 54.15 67.09 54.57 62.06 54.88 57.04 C 53.60 59.53 50.78 61.39 51.12 64.47 C 50.62 64.55 49.64 64.70 49.15 64.77 C 49.36 60.68 51.95 57.37 54.69 54.56 C 54.73 54.21 54.80 53.51 54.84 53.15 C 46.78 50.54 38.15 49.93 30.21 46.96 C 28.10 44.74 25.38 43.36 22.80 41.80 C 23.19 40.59 23.59 39.39 24.01 38.20 C 29.07 40.54 34.38 42.24 39.98 42.55 C 44.90 43.18 49.51 45.19 54.37 46.11 C 54.49 42.97 54.01 39.46 56.08 36.81 C 56.30 38.75 56.21 40.71 56.20 42.67 C 56.58 42.66 57.34 42.64 57.71 42.64 C 57.81 37.73 56.77 32.55 58.94 27.92 C 60.18 25.70 59.52 23.08 59.70 20.67 Z" />
<path fill="#000000" opacity="1.00" d=" M 45.31 57.92 C 46.67 56.79 48.97 59.15 48.00 60.53 C 46.58 61.44 44.46 59.38 45.31 57.92 Z" />
</g>
</svg>
