<?xml version="1.0" encoding="UTF-8" ?>
<!DOCTYPE svg PUBLIC "-//W3C//DTD SVG 1.1//EN" "http://www.w3.org/Graphics/SVG/1.1/DTD/svg11.dtd">
<svg width="256pt" height="256pt" viewBox="0 0 256 256" version="1.1" xmlns="http://www.w3.org/2000/svg">
<g id="#000000ff">
<path fill="#000000" opacity="1.00" d=" M 111.41 49.90 C 111.51 46.53 111.60 42.60 115.27 41.13 C 115.73 43.61 115.75 46.14 115.77 48.65 C 117.04 49.29 119.08 49.33 119.36 51.09 C 118.77 53.30 115.95 53.40 114.87 55.18 C 114.76 55.90 114.54 57.34 114.42 58.06 C 118.67 59.73 123.81 59.66 127.41 62.62 C 129.80 64.86 130.01 68.42 132.10 70.89 C 134.20 73.64 134.07 77.20 133.63 80.45 C 131.01 78.55 130.77 74.84 128.23 72.79 C 125.31 70.81 126.07 65.73 122.19 64.93 C 118.22 64.00 114.33 62.27 110.18 62.90 C 108.42 65.72 105.73 67.69 103.46 70.06 C 107.74 67.99 112.63 65.43 117.43 67.51 C 118.82 68.87 120.60 69.86 121.79 71.40 C 123.65 78.09 122.02 85.10 123.23 91.88 C 122.58 93.17 121.85 94.41 121.06 95.62 C 117.27 91.12 111.27 94.54 106.49 92.58 C 104.80 92.04 103.07 91.64 101.32 91.37 C 100.51 87.55 100.25 83.59 101.26 79.78 C 101.07 76.63 101.95 73.63 102.93 70.67 C 97.73 75.23 93.27 81.08 92.32 88.10 C 91.95 93.41 89.80 98.31 89.16 103.59 C 88.68 103.35 87.74 102.86 87.26 102.61 C 86.85 99.22 86.99 95.66 88.26 92.44 C 88.86 89.78 88.76 87.00 89.55 84.37 C 90.54 79.76 94.24 76.54 96.79 72.78 C 100.49 67.05 107.03 63.99 110.43 58.01 C 110.47 57.49 110.56 56.46 110.60 55.94 C 108.33 55.92 106.06 55.86 103.80 55.64 C 103.17 51.26 108.26 50.59 111.41 49.90 M 106.54 72.66 C 104.06 77.64 104.46 83.41 104.65 88.80 C 106.13 87.99 106.76 86.56 107.06 84.98 C 107.55 82.18 109.87 80.32 111.18 77.93 C 111.19 75.45 110.95 72.94 111.90 70.58 C 110.07 70.94 107.50 70.65 106.54 72.66 M 114.61 70.76 C 115.97 73.07 115.52 75.75 115.71 78.29 C 117.77 81.38 118.94 85.00 118.50 88.74 C 120.11 83.07 118.58 77.38 117.21 71.85 C 116.34 71.49 115.47 71.13 114.61 70.76 Z" />
<path fill="#000000" opacity="1.00" d=" M 140.51 79.04 C 138.93 75.64 142.28 73.71 145.01 72.70 C 147.86 79.25 146.15 86.43 146.55 93.32 C 150.12 94.02 154.09 92.52 157.29 94.70 C 158.99 95.82 161.06 94.70 162.93 94.87 C 170.35 96.08 177.71 93.34 185.18 94.20 C 185.27 95.49 186.54 97.24 185.31 98.27 C 181.58 100.03 177.32 98.49 173.40 99.37 C 170.09 100.23 166.68 100.45 163.28 100.70 C 155.39 100.88 146.87 100.87 140.16 96.07 C 141.24 90.66 141.02 85.08 141.17 79.58 C 141.74 79.34 142.89 78.84 143.46 78.59 C 142.72 78.70 141.25 78.93 140.51 79.04 Z" />
<path fill="#000000" opacity="1.00" d=" M 133.09 97.87 C 131.76 93.23 130.80 85.90 136.73 84.16 C 136.67 87.97 134.98 91.88 136.28 95.62 C 136.85 97.16 136.47 98.80 136.46 100.39 C 142.38 100.62 147.66 103.35 152.06 107.17 C 147.49 106.35 143.17 104.59 138.70 103.41 C 137.23 102.82 135.01 103.90 135.38 105.66 C 135.52 110.41 135.35 115.15 134.77 119.88 C 135.74 119.66 136.71 119.44 137.69 119.23 C 138.39 120.16 139.09 121.08 139.81 122.01 C 139.02 122.54 137.46 123.59 136.68 124.12 C 136.96 122.56 136.43 121.48 135.11 120.89 C 135.42 122.89 135.74 124.90 135.92 126.93 C 139.68 126.19 143.37 127.73 147.15 127.31 C 147.53 123.21 148.11 119.14 148.76 115.08 C 150.54 109.11 156.49 104.46 162.91 105.76 C 165.97 109.42 166.68 114.36 166.49 118.99 C 166.31 122.66 166.78 126.34 166.25 129.99 C 165.97 132.15 166.73 134.58 165.38 136.49 C 163.26 136.85 161.14 136.20 159.04 136.00 C 157.91 140.68 153.59 143.15 150.17 146.04 C 147.25 147.25 143.96 147.37 140.84 147.75 C 150.19 149.50 159.79 148.76 169.16 147.58 C 168.70 149.04 168.25 150.51 167.81 151.98 C 164.09 152.88 160.19 152.03 156.54 153.27 C 153.41 153.68 150.19 153.31 147.11 154.22 C 143.31 153.76 139.42 153.22 135.69 154.47 C 137.62 156.92 140.79 156.34 143.43 157.28 C 145.74 157.97 148.07 156.67 150.37 156.41 C 150.44 156.94 150.58 157.99 150.65 158.51 C 152.78 156.03 156.70 156.81 159.58 155.70 C 158.27 158.25 156.26 160.27 153.88 161.83 C 159.16 161.41 164.46 161.66 169.76 161.51 C 169.76 143.28 171.59 124.94 168.96 106.79 C 168.66 105.13 168.71 103.44 168.75 101.76 C 172.50 101.86 173.84 105.73 176.44 107.75 C 173.34 108.86 175.00 112.27 174.66 114.75 C 174.11 117.91 175.93 120.84 175.75 124.00 C 175.87 135.47 175.73 146.94 175.69 158.40 C 176.01 158.63 176.66 159.10 176.98 159.33 C 178.32 159.02 179.37 158.09 180.57 157.48 C 182.03 157.30 183.49 157.73 184.95 157.79 C 183.07 156.89 180.38 156.50 180.09 153.99 C 180.48 151.78 180.61 149.55 180.48 147.32 C 178.99 139.66 180.23 131.84 180.18 124.11 C 180.78 121.02 185.85 122.86 185.52 125.62 C 185.64 132.48 185.97 139.58 184.14 146.24 C 184.32 148.46 184.61 150.67 184.90 152.88 C 187.45 155.85 191.18 157.23 194.62 158.88 C 194.17 146.33 195.98 133.86 195.80 121.32 L 195.30 120.75 C 190.89 119.90 186.35 119.01 181.86 119.69 C 181.80 113.64 182.69 107.63 182.17 101.58 C 183.95 100.82 185.70 99.98 187.45 99.12 C 188.53 102.68 188.73 106.38 187.83 109.99 C 187.69 111.80 186.64 115.26 189.41 115.42 C 193.39 116.01 197.53 116.09 201.29 117.70 C 201.61 118.58 201.69 119.49 201.53 120.42 C 200.68 126.63 201.84 132.91 200.70 139.11 C 202.25 139.51 203.80 139.91 205.36 140.30 C 205.39 138.82 205.42 137.35 205.44 135.88 C 206.87 135.72 208.31 135.75 209.74 135.88 C 209.77 138.28 209.68 140.68 209.69 143.08 C 208.34 143.61 206.97 144.12 205.60 144.57 C 205.00 149.13 205.42 153.71 205.04 158.28 C 206.90 158.19 208.76 158.09 210.63 158.09 C 210.29 160.61 208.33 162.08 206.23 163.16 C 206.61 165.88 206.42 168.66 204.01 170.40 C 203.57 169.26 203.14 168.11 202.71 166.97 C 201.99 167.32 201.28 167.67 200.56 168.01 C 203.22 170.31 202.71 173.72 201.22 176.54 C 203.82 178.63 202.61 182.19 202.76 185.06 C 202.84 188.14 201.22 191.07 201.83 194.15 C 201.95 196.63 203.11 199.24 201.98 201.64 C 200.17 205.80 200.74 210.34 200.78 214.74 C 198.96 216.09 197.10 217.40 195.12 218.51 C 194.37 215.63 193.88 212.70 193.47 209.76 C 193.31 210.99 193.17 212.22 193.05 213.46 C 190.39 211.93 190.90 208.54 190.43 205.96 C 190.24 199.86 189.45 193.81 189.09 187.73 C 189.90 188.25 191.51 189.29 192.32 189.82 C 189.14 188.01 188.24 184.33 187.90 180.96 C 186.64 186.06 188.97 192.02 185.49 196.42 C 185.16 202.45 186.13 208.53 184.38 214.43 C 182.10 215.68 179.61 215.77 177.11 215.24 C 174.86 213.40 174.79 210.32 174.03 207.74 C 173.18 201.06 171.30 194.46 170.30 187.88 C 171.22 185.08 170.33 182.44 168.89 180.02 C 170.51 180.73 172.12 181.44 173.78 182.05 C 173.86 178.76 173.48 175.50 173.32 172.23 C 173.30 169.10 170.35 167.18 169.71 164.21 C 162.66 168.12 154.24 165.48 146.74 167.81 C 140.36 167.51 133.59 166.80 128.13 163.17 C 129.42 162.39 130.50 161.08 132.05 160.84 C 135.47 161.44 138.77 162.65 142.26 162.86 C 140.14 161.58 137.88 160.57 135.88 159.11 C 135.72 159.26 135.41 159.55 135.25 159.70 C 133.45 158.12 131.62 156.57 129.73 155.11 C 131.20 151.67 134.82 152.38 137.85 152.19 C 134.80 150.57 130.03 149.49 130.32 145.13 C 116.38 144.15 102.23 146.83 88.24 144.90 C 87.14 144.07 86.31 142.96 85.38 141.97 C 91.63 139.05 98.89 139.69 105.64 139.58 C 104.86 140.48 104.10 141.40 103.35 142.33 C 105.10 140.56 106.99 138.30 109.74 139.89 C 109.17 140.80 108.59 141.70 108.01 142.60 C 108.48 142.26 109.42 141.58 109.89 141.24 C 116.51 142.44 123.29 140.56 129.85 142.36 C 133.46 141.81 128.78 138.52 127.00 138.82 C 121.69 140.65 116.07 140.24 110.57 140.88 C 110.49 140.35 110.33 139.28 110.24 138.75 C 117.57 138.78 125.56 138.51 131.79 134.21 C 116.65 132.70 101.53 138.60 86.41 135.27 C 86.49 136.66 86.54 138.05 86.54 139.45 C 85.46 139.35 84.38 139.25 83.30 139.14 C 83.52 137.42 84.84 136.25 85.89 134.98 C 82.71 134.38 80.17 136.25 78.02 138.33 C 77.19 139.99 78.08 141.91 77.50 143.62 C 76.92 145.29 76.54 147.02 76.46 148.80 C 74.98 148.99 73.49 149.20 72.02 149.46 C 72.03 151.96 73.34 154.09 74.57 156.17 C 75.52 156.06 76.47 155.95 77.43 155.86 C 77.52 154.35 77.65 152.84 77.83 151.34 C 80.48 152.13 82.12 154.26 83.61 156.43 C 85.36 157.46 87.26 158.19 89.06 159.11 C 90.32 158.34 91.50 157.19 93.11 157.42 C 95.79 157.45 98.45 156.47 101.12 157.01 C 102.90 159.99 98.35 161.20 96.12 161.37 C 92.03 162.41 88.12 160.21 84.05 160.30 C 75.03 160.37 66.45 163.66 57.49 164.29 C 56.69 170.04 56.24 175.83 55.46 181.58 C 53.25 188.87 52.52 196.71 54.51 204.15 C 53.57 204.22 51.69 204.36 50.75 204.43 C 48.45 199.27 48.75 193.49 48.97 188.00 C 51.79 177.35 50.99 166.02 53.95 155.44 C 56.81 154.77 57.35 159.14 60.09 158.75 C 63.54 158.63 66.97 157.75 69.97 156.01 C 69.07 153.84 67.06 151.59 68.23 149.15 C 68.52 146.54 70.51 144.86 72.46 143.38 C 74.58 141.64 74.39 138.70 74.95 136.28 C 76.83 134.01 79.64 132.78 81.63 130.62 C 82.71 128.40 83.04 125.90 83.93 123.61 C 83.10 123.46 81.45 123.17 80.62 123.03 C 82.04 121.88 83.55 120.86 85.08 119.87 C 85.29 117.70 85.40 115.46 86.36 113.46 C 87.85 110.72 87.14 107.57 87.27 104.60 C 90.84 104.22 94.41 103.47 98.01 103.70 C 101.96 104.92 106.14 104.56 110.16 105.46 C 116.74 105.73 123.36 106.61 129.95 106.14 C 131.42 106.19 131.68 104.34 132.51 103.47 C 127.43 103.36 122.41 105.21 117.35 104.03 C 112.22 103.01 106.72 103.91 101.96 101.46 C 103.79 99.63 106.13 97.97 108.87 98.72 C 116.27 101.16 124.52 102.50 132.03 99.83 C 132.30 99.34 132.82 98.36 133.09 97.87 M 89.62 106.19 C 89.70 108.37 89.97 110.55 90.49 112.68 C 91.70 112.07 92.94 111.51 94.20 111.02 C 98.42 111.47 102.63 112.22 106.89 111.86 C 105.97 110.88 105.02 109.94 104.05 109.01 C 106.11 110.84 109.96 109.15 110.87 112.04 C 117.81 111.48 124.80 111.40 131.65 110.08 C 131.46 109.50 131.07 108.34 130.87 107.76 L 129.98 107.37 C 122.17 107.79 114.34 107.38 106.53 107.10 C 100.90 106.68 95.29 105.71 89.62 106.19 M 172.24 106.22 C 172.82 106.82 172.82 106.82 172.24 106.22 M 153.04 126.59 C 155.87 126.16 158.64 125.41 161.45 124.89 C 160.89 119.67 162.30 113.41 158.23 109.29 C 153.72 113.90 153.64 120.59 153.04 126.59 M 108.81 114.64 C 102.73 114.69 96.70 113.56 90.61 113.61 C 90.04 116.21 89.34 118.78 88.76 121.39 C 98.80 121.87 108.84 121.18 118.86 120.64 C 122.84 119.49 127.13 119.93 131.06 118.78 C 131.46 116.49 131.30 114.16 131.15 111.86 C 123.79 113.52 116.18 113.16 108.81 114.64 M 88.33 124.35 C 86.36 126.25 85.67 129.21 84.17 131.50 C 87.67 130.72 91.74 129.35 94.51 132.53 C 107.00 133.91 119.33 130.23 131.82 130.93 C 132.10 127.65 131.54 124.43 130.43 121.36 C 116.46 123.22 102.41 124.29 88.33 124.35 M 154.42 132.02 C 154.30 131.29 154.06 129.83 153.95 129.10 C 153.79 130.53 153.67 131.98 153.42 133.41 C 155.61 132.22 158.12 132.11 160.55 131.87 C 160.88 130.41 161.27 128.97 161.64 127.52 C 159.61 129.56 157.27 131.35 154.42 132.02 M 136.80 130.72 C 136.85 132.35 136.74 133.97 136.47 135.57 C 140.43 135.68 146.49 135.61 146.99 130.48 C 143.59 130.53 140.20 130.57 136.80 130.72 M 144.01 136.09 C 142.61 138.40 148.65 138.34 147.65 136.07 C 146.44 135.37 145.22 135.38 144.01 136.09 M 134.69 141.29 C 135.29 143.26 137.47 143.39 139.09 144.08 C 144.08 146.23 149.44 143.19 153.35 140.17 C 147.14 140.85 140.94 141.35 134.69 141.29 M 199.72 143.40 C 200.03 146.95 200.28 150.51 200.27 154.07 C 200.33 156.66 197.37 157.44 195.97 159.18 C 198.14 157.97 200.53 156.82 202.13 154.89 C 202.19 151.03 201.92 147.13 202.68 143.31 C 201.94 143.34 200.46 143.38 199.72 143.40 M 134.59 145.11 C 133.29 146.78 136.34 147.49 137.25 146.39 C 138.68 144.77 135.45 143.87 134.59 145.11 M 186.92 159.41 C 186.76 163.08 185.75 167.38 188.22 170.52 C 189.58 170.94 190.96 171.30 192.33 171.69 C 192.80 175.11 192.23 178.78 193.72 181.98 C 195.46 185.72 194.22 189.90 194.74 193.85 C 195.49 193.91 196.97 194.03 197.71 194.09 C 198.14 183.71 198.82 173.29 197.74 162.92 C 193.76 163.21 190.37 161.01 186.92 159.41 M 177.13 160.87 C 175.99 162.08 177.13 164.11 177.47 165.53 C 179.25 169.05 178.01 173.12 178.83 176.85 C 180.46 174.67 180.06 171.85 180.46 169.31 C 180.96 169.36 181.97 169.45 182.47 169.49 C 181.48 168.60 179.81 167.86 180.43 166.24 C 180.96 164.06 180.07 160.15 177.13 160.87 Z" />
<path fill="#000000" opacity="1.00" d=" M 211.36 173.33 C 211.92 164.95 211.92 156.43 214.60 148.38 C 215.71 153.15 217.27 158.27 215.26 163.02 C 216.48 167.56 217.05 173.34 212.30 176.11 C 212.70 179.84 212.86 183.65 212.06 187.35 C 210.85 191.45 213.98 195.91 211.88 199.83 C 210.66 200.78 209.19 203.16 207.57 201.61 C 207.47 197.29 207.02 192.87 208.46 188.71 C 208.90 183.63 209.82 178.51 209.14 173.40 C 209.69 173.38 210.80 173.35 211.36 173.33 Z" />
<path fill="#000000" opacity="1.00" d=" M 123.65 156.81 C 125.70 160.37 123.30 164.21 123.70 167.95 C 124.05 172.31 122.83 176.60 123.16 180.95 C 123.45 185.10 122.65 189.20 122.52 193.34 C 123.55 193.40 125.60 193.52 126.63 193.58 C 125.53 194.82 123.86 195.04 122.34 195.41 C 121.33 198.41 120.24 201.41 120.06 204.61 C 118.98 205.34 117.90 206.07 116.82 206.81 C 115.07 204.73 114.46 201.87 115.11 199.24 C 115.92 196.26 115.34 193.14 116.10 190.16 C 117.33 184.35 117.56 178.29 119.82 172.74 C 120.40 170.21 120.19 167.57 120.48 164.99 C 121.83 162.38 122.73 159.59 123.65 156.81 Z" />
<path fill="#000000" opacity="1.00" d=" M 91.65 170.59 C 94.10 167.95 96.89 165.37 100.03 163.57 C 102.18 163.96 104.62 164.38 106.16 166.09 C 106.39 168.42 106.66 170.75 106.66 173.10 C 107.57 173.70 108.49 174.30 109.41 174.89 C 108.82 183.57 110.55 192.81 106.80 200.98 C 101.27 198.97 95.39 199.76 89.66 199.29 C 88.26 197.97 89.91 196.39 90.17 194.94 C 90.40 192.54 90.38 190.13 90.43 187.72 C 87.42 187.35 81.77 187.68 82.53 191.99 C 82.85 196.55 81.85 201.02 81.70 205.56 C 84.69 205.59 87.89 205.00 90.69 206.30 C 91.63 207.49 91.44 209.64 89.82 210.09 C 85.86 210.54 81.75 210.26 77.99 211.82 C 77.47 210.90 76.99 209.96 76.55 209.00 C 76.78 203.04 76.89 197.07 77.10 191.11 C 76.21 189.21 74.49 187.84 73.36 186.09 C 73.52 186.77 73.84 188.14 74.00 188.83 C 68.83 188.36 61.21 186.58 61.31 180.03 C 63.02 177.58 65.48 175.78 68.59 175.75 C 67.85 178.24 65.09 178.75 63.20 180.09 C 65.29 181.14 67.28 182.36 69.30 183.52 C 71.84 184.88 74.77 184.21 77.51 184.56 C 78.00 180.06 77.38 175.29 79.17 171.03 C 79.68 169.20 82.09 169.94 83.46 169.55 C 83.75 174.70 82.66 179.81 82.85 184.96 C 85.20 184.70 87.53 184.40 89.87 184.09 C 90.70 179.62 90.33 174.94 91.65 170.59 M 98.29 168.91 C 93.74 172.72 95.94 179.28 95.21 184.42 C 98.34 184.51 101.47 184.33 104.61 184.24 C 105.71 178.78 103.24 173.79 101.87 168.64 C 100.67 168.63 99.47 168.72 98.29 168.91 M 94.42 187.37 C 94.34 189.86 94.34 192.35 94.19 194.84 C 97.55 194.79 100.88 195.24 104.23 195.43 C 104.39 191.96 104.60 188.48 104.48 185.00 C 101.25 186.30 97.76 186.50 94.42 187.37 Z" />
<path fill="#000000" opacity="1.00" d=" M 132.23 172.84 C 133.82 171.33 135.57 169.30 138.02 169.77 C 143.02 170.17 148.17 171.48 153.10 169.83 C 157.01 169.73 160.97 168.97 164.83 169.93 C 166.58 170.57 168.28 171.38 170.14 171.67 C 170.74 174.78 172.03 177.69 172.84 180.74 C 171.59 179.78 170.42 178.74 169.25 177.72 C 169.40 176.35 169.55 174.97 169.67 173.60 C 165.51 176.49 160.96 172.76 156.54 174.30 C 150.43 175.18 144.22 174.70 138.07 174.62 C 135.97 174.69 134.09 173.68 132.23 172.84 Z" />
<path fill="#000000" opacity="1.00" d=" M 130.81 177.73 C 132.18 179.92 132.39 182.43 132.19 184.95 C 132.92 187.28 133.89 189.54 134.65 191.87 C 136.78 187.31 139.06 181.90 144.21 180.10 C 150.67 178.45 157.24 181.22 162.95 184.07 C 164.73 186.55 166.72 188.92 168.28 191.56 C 169.07 195.67 168.90 199.91 169.18 204.08 C 169.47 206.40 168.49 208.55 167.32 210.47 C 167.16 212.19 167.25 213.91 167.14 215.64 C 166.44 215.70 165.04 215.82 164.34 215.88 C 163.73 212.90 163.19 209.91 162.22 207.03 C 162.98 202.75 163.07 198.16 160.70 194.32 C 159.26 190.88 154.74 191.97 152.42 189.64 C 149.98 186.88 145.72 188.41 143.30 190.40 C 140.30 195.05 141.90 201.28 138.60 205.79 C 136.63 207.37 133.99 206.08 132.53 204.45 C 130.57 203.20 130.65 200.63 129.76 198.69 C 129.04 204.33 128.29 212.01 121.72 213.72 C 117.98 213.77 114.63 211.73 111.04 210.95 C 107.40 214.65 101.53 214.51 96.84 213.25 C 99.31 211.13 102.03 209.30 105.45 209.67 C 105.28 208.51 105.14 207.35 105.02 206.19 C 111.27 205.79 117.26 208.02 122.91 210.42 C 126.61 206.44 125.16 199.55 130.35 196.83 C 129.27 190.47 131.05 184.11 130.81 177.73 M 143.18 184.14 C 142.24 185.53 141.31 186.93 140.55 188.43 C 143.16 187.34 145.48 185.67 147.71 183.95 C 146.20 183.98 144.69 184.04 143.18 184.14 M 152.65 184.96 C 153.65 188.08 156.60 187.91 159.35 187.74 C 157.31 186.39 154.99 185.57 152.65 184.96 M 133.12 196.07 C 132.60 197.55 133.03 198.01 134.41 197.46 C 134.91 195.97 134.48 195.50 133.12 196.07 Z" />
<path fill="#000000" opacity="1.00" d=" M 135.33 216.92 C 134.49 214.15 136.04 211.50 138.21 209.87 C 138.41 212.53 138.77 216.28 135.33 216.92 Z" />
</g>
</svg>
