<?xml version="1.0" encoding="UTF-8" ?>
<!DOCTYPE svg PUBLIC "-//W3C//DTD SVG 1.1//EN" "http://www.w3.org/Graphics/SVG/1.1/DTD/svg11.dtd">
<svg width="256pt" height="256pt" viewBox="0 0 256 256" version="1.1" xmlns="http://www.w3.org/2000/svg">
<g id="#000000ff">
<path fill="#000000" opacity="1.00" d=" M 120.61 28.38 C 120.88 23.23 121.82 18.15 122.02 12.99 C 123.30 17.80 122.48 22.75 122.91 27.64 C 122.20 28.01 121.43 28.26 120.61 28.38 Z" />
<path fill="#000000" opacity="1.00" d=" M 138.53 43.50 C 141.15 35.31 143.38 26.84 148.21 19.61 C 147.19 27.34 144.89 34.83 142.11 42.11 C 140.52 45.89 140.64 50.13 138.85 53.84 C 136.72 58.72 136.57 64.14 134.61 69.07 C 135.28 71.34 138.76 70.33 140.66 70.90 C 142.78 68.24 145.28 65.72 146.32 62.40 C 146.92 60.43 147.74 58.53 148.94 56.85 C 149.81 57.82 150.68 58.79 151.54 59.77 C 150.05 62.12 150.10 65.16 148.28 67.32 C 146.54 69.71 143.85 71.33 142.63 74.11 C 149.71 69.31 155.51 62.67 163.05 58.51 C 165.09 58.51 167.02 59.27 169.01 59.62 C 165.36 62.17 161.04 63.65 157.76 66.76 C 152.52 70.47 148.38 75.57 142.78 78.78 C 147.17 78.75 151.57 77.79 155.95 78.50 C 162.88 79.45 169.85 80.22 176.85 80.47 C 180.59 79.88 184.24 81.05 187.95 81.36 C 189.68 80.71 190.91 79.21 192.42 78.20 C 192.68 78.64 193.18 79.52 193.43 79.96 C 190.82 83.12 188.00 86.83 183.80 87.77 C 175.10 85.52 166.01 85.87 157.29 87.81 C 157.72 89.14 158.17 90.46 158.61 91.79 C 158.19 91.65 157.34 91.37 156.92 91.23 C 156.53 90.18 156.12 89.15 155.72 88.11 C 150.66 88.10 145.75 89.99 140.67 89.07 C 141.59 87.62 141.86 85.11 143.97 85.01 C 147.51 84.35 151.12 84.39 154.69 84.09 C 154.33 81.36 150.86 82.64 149.03 82.54 C 144.98 83.38 140.47 81.82 136.81 84.21 C 137.54 85.52 138.31 86.81 139.04 88.12 C 135.76 88.59 135.56 92.20 133.95 94.43 C 132.29 92.74 131.59 90.38 131.53 88.07 C 132.03 84.93 136.33 83.56 135.86 80.12 C 136.07 78.70 134.87 77.75 134.13 76.74 C 134.59 75.28 135.24 73.86 135.29 72.31 C 134.20 73.37 133.70 74.80 133.19 76.20 C 132.15 75.55 131.10 74.91 130.06 74.27 C 127.16 75.54 124.02 75.94 120.88 75.78 C 120.14 73.62 121.20 71.82 122.34 70.05 C 122.61 61.81 122.15 53.47 122.52 45.30 C 120.24 40.16 122.23 34.39 120.32 29.14 C 121.37 29.14 122.41 29.15 123.46 29.17 C 122.99 33.82 123.45 38.43 124.23 43.02 C 123.87 46.21 124.65 49.23 125.73 52.20 C 125.88 58.33 126.52 64.46 125.94 70.59 C 126.46 70.45 127.49 70.15 128.01 70.00 C 128.20 66.08 127.78 62.07 128.95 58.26 C 129.54 58.43 130.71 58.79 131.30 58.97 C 132.04 61.63 131.28 64.47 131.50 67.21 C 133.38 63.66 132.93 59.38 134.99 55.91 C 137.26 52.15 137.50 47.67 138.53 43.50 M 140.13 75.51 C 138.61 76.27 139.87 78.93 141.31 77.59 C 142.58 76.75 141.62 74.24 140.13 75.51 Z" />
<path fill="#000000" opacity="1.00" d=" M 94.42 36.38 C 98.56 38.64 98.22 44.35 101.93 47.05 C 106.98 51.20 109.67 57.32 113.41 62.54 C 119.13 66.38 121.74 75.69 117.07 81.26 C 116.44 84.90 116.64 88.57 116.87 92.23 C 115.37 90.89 114.51 89.08 113.68 87.28 C 110.15 87.63 106.63 87.21 103.14 86.67 C 103.39 87.43 103.88 88.95 104.12 89.71 C 100.71 89.39 97.49 87.21 94.02 88.11 C 88.90 89.12 83.71 87.68 78.57 88.52 C 73.96 88.58 68.11 89.47 64.99 85.22 C 61.03 86.36 56.99 87.75 52.81 87.18 C 53.99 85.20 55.71 83.35 58.18 83.24 C 63.62 82.64 68.54 80.18 73.18 77.43 C 82.96 77.60 92.63 80.66 102.42 78.90 C 99.35 76.16 96.47 73.23 93.52 70.36 C 90.42 67.75 85.70 68.86 82.86 65.94 C 86.79 63.71 90.92 65.69 94.53 67.49 C 98.54 70.38 101.12 75.25 106.01 76.86 C 109.12 78.26 112.58 77.10 115.84 77.84 C 112.13 72.14 104.77 69.31 102.95 62.31 C 103.46 61.80 104.49 60.79 105.01 60.29 C 108.70 63.83 112.00 67.80 115.87 71.13 C 114.18 65.66 108.70 62.75 106.31 57.70 C 104.34 53.49 100.54 50.46 98.75 46.16 C 97.41 42.84 94.86 40.05 94.42 36.38 M 72.44 81.37 C 70.70 82.21 69.26 83.54 67.82 84.80 C 72.24 84.95 76.68 84.92 81.08 84.40 C 78.35 83.00 75.67 80.98 72.44 81.37 M 96.84 82.45 C 97.30 83.12 97.76 83.79 98.21 84.48 C 103.43 82.67 108.68 85.04 113.98 84.38 C 112.70 82.79 111.42 80.18 108.97 80.75 C 104.88 81.18 101.03 82.95 96.84 82.45 M 83.73 82.19 C 86.14 84.81 89.57 85.21 92.94 84.88 C 92.90 84.31 92.81 83.17 92.77 82.60 C 89.75 82.61 86.74 82.36 83.73 82.19 Z" />
<path fill="#000000" opacity="1.00" d=" M 122.86 94.89 C 119.26 94.18 117.69 87.77 120.73 85.32 C 121.43 85.79 122.81 86.71 123.50 87.18 C 123.09 89.71 124.43 92.66 122.86 94.89 Z" />
<path fill="#000000" opacity="1.00" d=" M 132.63 111.69 C 135.57 104.28 134.99 95.92 138.40 88.75 C 138.89 89.62 139.86 91.37 140.35 92.24 C 137.62 97.17 138.65 103.06 136.22 108.09 C 139.04 109.72 139.74 113.13 141.09 115.85 C 143.60 120.51 145.30 125.53 147.81 130.19 C 149.14 132.28 149.05 134.83 149.98 137.06 C 151.42 139.82 154.25 141.57 155.65 144.36 C 157.24 147.58 157.46 151.38 159.65 154.31 C 161.85 157.32 163.45 160.72 164.62 164.25 C 165.95 168.35 169.06 171.57 170.28 175.71 C 171.70 179.16 174.15 182.07 175.51 185.55 C 177.71 190.14 179.02 195.10 181.35 199.63 C 182.58 201.28 181.39 204.07 179.22 203.79 C 177.92 198.33 174.58 193.75 172.23 188.73 C 166.94 177.70 161.71 166.64 156.41 155.62 C 154.84 151.46 150.38 149.37 148.91 145.14 C 147.05 140.15 144.77 135.35 142.33 130.63 C 140.04 124.23 136.31 118.42 134.40 111.88 C 133.17 113.24 131.90 114.56 130.86 116.07 C 130.66 119.34 130.67 122.63 130.41 125.90 C 131.71 125.62 133.02 125.37 134.33 125.13 C 132.86 128.35 129.77 131.14 130.28 134.97 C 130.73 140.57 129.55 146.45 131.73 151.79 C 129.72 153.63 130.52 156.43 130.48 158.83 C 130.62 161.18 130.67 163.55 130.73 165.91 C 132.66 172.39 132.67 179.44 131.38 186.05 C 132.01 186.80 132.97 187.53 132.57 188.66 C 131.80 193.47 132.94 198.39 132.02 203.18 L 130.91 204.17 C 130.05 201.70 129.01 199.31 127.89 196.95 C 128.65 191.05 127.42 185.19 127.51 179.29 C 127.44 174.26 124.94 168.89 127.78 164.18 C 126.67 165.03 125.50 165.82 124.15 166.23 C 124.17 160.60 126.24 155.26 126.77 149.70 C 125.98 146.59 124.14 143.86 123.08 140.85 C 123.44 137.69 126.16 135.23 126.20 132.00 C 126.16 130.41 126.49 128.77 126.04 127.23 C 123.55 124.67 120.97 122.21 118.53 119.61 C 117.05 124.56 114.52 129.13 113.17 134.13 C 112.46 136.83 110.93 139.20 109.75 141.71 C 106.68 148.73 104.62 156.19 100.87 162.89 C 99.34 166.93 96.67 170.39 95.18 174.44 C 93.54 174.97 91.90 175.51 90.22 175.89 C 92.00 173.11 93.97 170.47 95.61 167.61 C 98.31 163.61 97.71 158.36 100.36 154.32 C 103.61 148.91 105.40 142.82 107.98 137.09 C 110.39 132.06 111.19 126.48 113.54 121.42 C 115.88 116.02 116.02 108.97 121.10 105.26 C 119.46 101.52 117.87 97.74 116.59 93.86 C 118.01 94.04 119.34 94.68 119.88 96.10 C 121.71 99.44 123.02 103.04 124.53 106.54 C 125.31 108.58 126.68 110.88 125.08 112.93 C 124.13 111.93 123.21 110.90 122.28 109.89 C 121.87 111.89 121.11 113.79 120.47 115.72 C 121.84 118.08 123.64 120.23 125.90 121.78 C 126.12 118.81 124.76 115.31 126.55 112.67 C 128.57 112.30 130.61 112.03 132.63 111.69 Z" />
<path fill="#000000" opacity="1.00" d=" M 125.03 100.74 C 127.11 100.60 129.20 100.48 131.27 100.14 C 131.72 103.37 130.67 106.63 128.91 109.32 C 125.48 108.23 126.21 103.53 125.03 100.74 Z" />
<path fill="#000000" opacity="1.00" d=" M 90.46 176.29 C 91.87 175.92 93.28 175.60 94.70 175.30 C 93.09 177.81 91.08 180.03 89.42 182.50 C 89.20 181.72 88.96 180.95 88.71 180.18 C 89.52 178.99 90.04 177.65 90.46 176.29 Z" />
</g>
</svg>
