<?xml version="1.0" encoding="UTF-8" ?>
<!DOCTYPE svg PUBLIC "-//W3C//DTD SVG 1.1//EN" "http://www.w3.org/Graphics/SVG/1.1/DTD/svg11.dtd">
<svg width="256pt" height="128pt" viewBox="0 0 256 128" version="1.1" xmlns="http://www.w3.org/2000/svg">
<g id="#000000ff">
<path fill="#000000" opacity="1.00" d=" M 131.74 6.65 C 133.61 6.25 134.12 4.16 135.11 2.80 C 135.53 3.37 136.38 4.50 136.80 5.06 C 133.70 10.69 126.69 11.24 120.99 10.92 C 103.05 9.81 85.06 8.50 67.09 9.79 C 60.30 10.39 53.42 10.95 46.88 12.95 C 43.98 14.81 44.65 19.86 47.74 21.28 C 55.67 25.89 65.82 29.79 74.66 25.39 C 73.71 29.22 69.26 29.57 66.03 30.05 C 58.29 30.43 50.62 27.18 44.80 22.20 C 40.90 19.17 41.61 12.20 46.27 10.32 C 51.32 8.48 56.79 8.39 62.08 7.79 C 77.69 6.86 93.36 6.81 108.97 7.89 C 116.56 8.47 124.33 8.59 131.74 6.65 Z" />
<path fill="#000000" opacity="1.00" d=" M 82.69 33.59 C 86.04 26.97 89.05 20.14 93.16 13.94 C 94.25 15.26 94.37 16.90 93.17 18.17 C 90.13 23.20 87.94 28.68 84.91 33.71 C 89.40 32.98 93.96 32.52 98.32 31.18 C 101.24 30.32 104.02 28.87 107.10 28.71 C 106.11 32.70 103.40 35.90 101.44 39.43 C 100.26 41.31 98.09 44.19 95.63 42.46 C 93.83 40.75 92.85 38.37 92.74 35.90 C 89.62 36.43 86.46 36.67 83.35 37.20 C 78.62 44.32 75.25 52.54 68.89 58.43 C 62.26 55.02 57.02 49.27 49.78 46.89 C 50.34 45.82 50.63 44.37 52.01 44.09 C 58.12 46.55 63.00 51.00 68.17 54.90 C 70.20 54.80 71.12 52.64 72.23 51.25 C 74.94 46.61 78.02 42.19 80.80 37.59 C 75.78 37.07 70.65 37.23 65.75 38.52 C 65.24 39.94 64.67 41.37 62.86 41.13 C 63.19 37.86 65.86 35.23 69.13 34.96 C 73.65 34.51 78.21 34.42 82.69 33.59 M 95.54 35.29 C 96.45 36.54 97.37 37.80 98.27 39.06 C 99.95 37.27 101.51 35.30 102.41 32.99 C 100.09 33.66 97.83 34.54 95.54 35.29 Z" />
<path fill="#000000" opacity="1.00" d=" M 164.10 29.56 C 166.70 31.64 164.72 34.53 164.48 37.16 C 168.32 37.11 172.08 36.34 175.66 34.97 C 174.83 37.56 173.06 40.15 170.02 40.06 C 166.93 41.11 162.23 38.84 160.60 42.62 C 158.19 47.14 154.52 51.43 154.17 56.72 C 154.40 57.05 154.87 57.71 155.10 58.04 C 159.04 57.88 162.79 56.30 166.04 54.13 C 168.77 52.80 168.20 49.28 169.92 47.14 C 170.81 48.91 172.73 51.21 171.25 53.19 C 167.24 58.00 160.95 60.08 155.05 61.42 C 151.92 62.23 149.88 58.72 150.67 56.00 C 151.74 52.18 154.15 48.91 155.41 45.15 C 148.07 49.93 141.12 55.35 133.37 59.49 C 132.00 60.26 130.41 60.44 128.88 60.61 C 126.76 54.17 132.00 48.43 134.63 42.97 C 128.98 44.34 123.15 43.64 117.41 44.06 C 116.45 50.46 111.94 56.04 106.23 58.89 C 105.33 58.22 105.07 57.37 105.45 56.33 C 106.71 52.02 108.82 48.01 111.25 44.25 C 112.23 42.90 111.63 40.95 112.72 39.69 C 114.76 38.68 116.77 37.61 118.72 36.43 C 118.47 37.85 118.19 39.27 117.96 40.69 C 121.65 40.59 125.34 40.34 129.02 40.77 C 132.66 41.34 135.79 38.98 139.27 38.45 C 137.74 45.12 131.64 49.98 130.93 56.90 C 132.52 56.70 134.18 56.55 135.59 55.69 C 142.99 51.59 150.39 47.13 156.11 40.79 C 153.32 40.69 150.47 41.05 147.76 40.21 C 148.36 39.29 148.96 38.39 149.58 37.49 C 153.13 37.20 157.12 38.24 160.33 36.33 C 161.72 34.16 162.68 31.73 164.10 29.56 M 107.95 54.57 C 111.80 52.50 116.31 48.68 115.03 43.78 C 111.21 46.17 109.50 50.55 107.95 54.57 Z" />
<path fill="#000000" opacity="1.00" d=" M 89.22 62.30 C 91.16 61.56 91.10 63.77 91.49 65.04 C 90.91 69.80 87.22 73.19 85.68 77.55 C 89.12 75.84 91.70 72.76 95.33 71.39 C 98.92 70.02 103.00 68.76 106.77 70.19 C 109.23 71.10 111.34 73.86 110.44 76.56 C 109.43 79.79 107.01 82.33 104.55 84.54 C 100.95 87.86 95.85 88.46 91.85 91.12 C 92.02 93.40 91.38 96.22 93.32 97.93 C 95.89 98.19 98.12 96.51 100.18 95.20 C 105.29 91.32 110.73 87.91 116.03 84.31 C 116.75 84.68 118.18 85.43 118.90 85.81 C 116.70 89.54 113.39 92.54 111.59 96.52 C 113.22 96.38 114.89 96.15 116.35 95.35 C 122.30 92.40 127.93 88.79 134.00 86.07 C 137.43 84.46 141.30 85.20 144.93 84.58 C 146.01 87.00 146.13 89.79 145.18 92.27 C 144.02 94.29 142.52 96.12 141.67 98.32 C 144.40 97.53 147.05 96.42 149.90 96.09 C 154.57 95.64 157.50 91.54 161.37 89.40 C 164.95 87.51 168.47 84.74 172.75 85.05 C 173.14 86.47 174.47 88.01 173.49 89.49 C 171.71 92.88 169.70 96.14 168.09 99.62 C 171.58 98.02 174.83 95.94 178.34 94.38 C 185.56 91.03 193.64 90.27 200.93 87.13 C 201.18 87.36 201.67 87.84 201.92 88.08 C 200.56 91.54 198.60 94.73 196.46 97.75 C 200.96 96.57 205.98 95.81 209.52 92.54 C 211.28 90.73 210.53 86.34 213.98 86.77 C 213.65 88.73 213.35 90.71 212.72 92.61 C 209.71 95.96 205.58 98.23 201.24 99.36 C 197.98 100.30 194.48 100.69 191.61 102.64 C 190.46 103.49 189.03 103.55 187.67 103.69 C 186.98 100.86 186.24 97.88 187.35 95.04 C 189.38 95.31 190.92 97.23 192.91 97.21 C 194.84 95.27 196.54 93.06 197.52 90.48 C 187.47 92.66 177.74 96.55 169.01 102.00 C 163.16 105.49 160.98 112.28 157.89 117.95 C 156.13 121.07 154.98 124.94 151.74 126.90 C 148.77 127.28 146.67 124.36 145.84 121.87 C 145.26 118.86 147.94 116.72 149.79 114.79 C 153.89 110.52 159.24 107.63 162.99 103.00 C 165.16 99.52 167.21 95.95 169.04 92.28 C 164.75 94.54 160.60 97.07 156.32 99.33 C 153.74 100.87 150.90 99.06 148.38 98.30 C 144.85 102.27 138.58 102.05 135.37 106.40 C 131.01 112.05 127.07 118.02 122.78 123.73 C 121.43 125.55 118.62 127.52 116.52 125.65 C 113.57 122.61 114.28 117.50 116.09 114.02 C 119.98 107.34 127.70 104.77 134.04 101.08 C 137.01 99.60 138.53 96.48 139.55 93.49 C 134.06 95.26 130.22 101.30 124.09 100.90 C 123.47 97.60 126.01 95.14 127.33 92.41 C 120.13 93.87 114.78 101.84 107.01 100.31 C 108.03 97.90 109.24 95.57 109.98 93.05 C 105.16 94.27 102.10 98.65 97.57 100.50 C 95.45 101.45 92.58 102.25 90.60 100.56 C 88.22 97.93 88.57 94.14 88.14 90.86 C 86.66 89.85 85.18 88.85 83.70 87.85 C 84.57 86.60 85.56 85.44 86.74 84.47 C 88.56 85.54 90.33 87.61 92.69 86.88 C 98.09 85.19 102.96 81.81 106.48 77.39 C 108.20 75.59 107.76 71.95 104.92 71.68 C 98.16 71.96 92.55 76.37 87.80 80.78 C 80.56 86.28 74.82 93.59 70.68 101.64 C 69.77 103.65 67.46 102.85 65.89 102.27 C 68.01 97.48 70.53 92.86 73.49 88.54 C 75.58 85.35 78.08 82.33 79.27 78.65 C 70.61 84.16 62.60 90.78 53.37 95.41 C 49.33 97.40 44.89 100.48 40.20 98.81 C 36.42 97.82 33.69 94.58 32.54 90.96 C 31.76 87.03 33.83 83.20 36.24 80.26 C 40.68 75.74 46.18 72.21 52.28 70.41 C 55.15 69.45 58.78 70.99 59.55 74.04 C 60.00 75.88 58.80 77.48 57.92 78.97 C 55.37 82.91 52.08 86.45 48.20 89.12 C 47.23 89.91 46.23 89.89 45.20 89.04 C 45.29 87.12 47.25 86.45 48.56 85.49 C 52.21 83.21 55.63 80.03 56.99 75.85 C 57.63 73.66 55.43 71.39 53.25 72.40 C 48.83 74.29 44.88 77.17 40.98 79.94 C 37.67 82.48 34.41 86.30 35.20 90.78 C 36.13 95.05 41.08 96.93 45.03 96.14 C 53.03 94.72 60.11 90.29 66.55 85.53 C 72.61 80.99 78.90 76.64 84.08 71.07 C 86.48 68.59 87.41 65.16 89.22 62.30 M 133.13 91.25 C 132.55 92.67 132.99 93.08 134.45 92.48 C 135.02 91.06 134.58 90.65 133.13 91.25 M 118.52 118.44 C 118.53 120.07 117.31 123.15 119.85 123.20 C 122.78 119.92 124.77 115.94 127.55 112.55 C 128.73 111.12 129.73 109.55 130.47 107.85 C 125.42 109.71 120.18 113.03 118.52 118.44 M 148.18 119.43 C 146.05 121.75 149.50 123.76 151.04 125.18 C 154.13 120.97 156.52 116.24 158.39 111.36 C 154.46 113.27 151.18 116.32 148.18 119.43 Z" />
<path fill="#000000" opacity="1.00" d=" M 125.37 71.51 C 127.10 71.85 126.84 74.99 125.19 75.30 C 123.41 74.97 123.85 71.91 125.37 71.51 Z" />
</g>
</svg>
