<?xml version="1.0" encoding="UTF-8" ?>
<!DOCTYPE svg PUBLIC "-//W3C//DTD SVG 1.1//EN" "http://www.w3.org/Graphics/SVG/1.1/DTD/svg11.dtd">
<svg width="256pt" height="128pt" viewBox="0 0 256 128" version="1.1" xmlns="http://www.w3.org/2000/svg">
<g id="#000000ff">
<path fill="#000000" opacity="1.00" d=" M 61.29 21.26 C 64.54 16.53 69.07 12.68 71.18 7.21 C 71.92 8.14 72.59 9.12 73.19 10.15 C 72.88 20.11 67.00 28.54 62.89 37.26 C 66.32 37.91 70.35 38.75 73.33 36.36 C 78.34 32.66 77.58 24.77 83.04 21.64 C 83.31 23.15 84.05 24.77 83.31 26.27 C 81.34 30.95 78.68 35.31 76.36 39.82 C 78.12 39.79 80.42 38.42 81.76 40.16 C 84.26 42.49 83.34 46.07 83.01 49.03 C 89.49 46.64 96.12 44.01 101.28 39.28 C 104.80 35.90 105.07 30.79 106.29 26.35 C 106.15 24.93 109.45 23.70 108.81 25.95 C 109.43 32.57 106.45 38.63 103.46 44.31 C 104.96 44.22 106.46 44.15 107.96 44.08 C 108.39 46.03 108.76 47.98 109.15 49.94 C 112.48 48.72 116.28 48.32 119.15 46.11 C 121.43 42.49 121.67 37.84 124.45 34.44 C 127.38 30.60 129.61 25.54 134.33 23.63 C 136.23 30.31 132.40 36.42 128.67 41.60 C 126.19 45.41 120.58 47.08 121.00 52.43 C 124.95 52.60 128.51 50.57 132.02 49.03 C 134.67 45.71 136.25 40.72 140.95 39.75 C 141.59 39.92 142.87 40.25 143.51 40.42 C 143.61 42.04 144.17 43.80 143.36 45.33 C 141.72 49.55 134.56 48.21 134.56 53.50 C 138.50 53.22 141.90 51.08 145.29 49.26 C 149.87 46.66 154.48 44.11 159.15 41.65 C 160.04 44.70 159.36 47.81 158.82 50.85 C 161.30 50.50 164.07 50.74 166.27 49.37 C 168.29 46.61 170.40 43.49 173.96 42.66 C 175.93 42.82 177.78 44.84 177.06 46.84 C 175.72 51.53 168.07 49.52 167.66 54.80 C 171.58 54.21 175.86 53.60 179.09 51.17 C 181.38 47.15 183.97 42.29 188.92 41.26 C 191.94 40.90 192.96 45.27 191.31 47.28 C 189.31 51.39 182.20 49.72 181.77 54.88 C 185.49 55.23 189.02 53.81 192.43 52.53 C 196.45 51.18 198.56 47.13 202.14 45.09 C 204.18 43.75 206.62 43.34 208.96 42.85 C 207.21 34.37 211.06 25.89 216.69 19.72 C 218.05 18.48 219.89 17.71 221.75 17.86 C 225.27 20.42 224.55 25.26 224.21 29.02 C 223.64 36.23 219.53 42.56 214.85 47.81 C 209.84 50.90 205.23 54.67 199.91 57.22 C 197.57 58.35 195.36 57.02 193.64 55.48 C 189.84 56.57 186.19 58.50 182.21 58.75 C 179.97 58.77 179.20 56.53 178.25 54.94 C 175.11 56.61 171.72 58.43 168.06 58.29 C 165.64 57.97 165.17 55.12 164.15 53.36 C 161.66 53.83 159.08 53.92 156.64 54.64 C 154.50 55.57 152.73 58.66 150.16 57.25 C 149.07 56.35 148.37 55.10 147.55 53.97 C 149.62 52.82 151.88 52.08 154.01 51.06 C 155.45 49.95 155.70 48.00 156.29 46.40 C 148.78 48.12 144.02 55.11 136.45 56.63 C 133.64 57.77 132.34 54.17 131.19 52.32 C 128.04 53.98 124.72 55.80 121.04 55.58 C 118.64 54.87 118.98 51.73 118.45 49.78 C 114.45 51.03 110.61 52.78 106.49 53.60 C 103.67 55.49 100.38 56.19 97.02 55.68 C 94.53 59.51 93.17 64.19 89.98 67.46 C 86.44 66.92 88.60 62.63 89.58 60.61 C 93.08 55.28 96.65 49.94 99.18 44.05 C 90.58 49.79 79.79 55.21 69.26 52.01 C 66.85 55.93 65.02 60.17 62.75 64.17 C 61.76 63.78 60.78 63.39 59.80 63.00 C 62.34 54.83 68.23 48.38 71.82 40.72 C 68.58 40.49 65.32 40.32 62.08 40.65 C 59.90 43.29 59.72 47.09 58.24 50.17 C 57.64 49.82 56.45 49.14 55.85 48.80 C 56.69 46.13 57.47 43.44 58.10 40.72 C 54.58 40.80 50.77 40.11 47.45 41.36 C 43.02 45.45 37.86 48.62 32.68 51.66 C 29.26 53.56 25.21 55.35 21.27 53.98 C 17.04 52.81 13.91 48.40 14.38 44.00 C 14.58 40.00 17.21 36.67 19.89 33.91 C 23.25 30.43 27.03 26.72 32.00 25.88 C 37.16 26.72 39.60 33.19 37.37 37.65 C 40.76 37.65 44.22 38.33 47.55 37.53 C 53.12 33.06 57.15 27.02 61.29 21.26 M 59.91 25.95 C 57.47 29.98 54.51 33.64 51.74 37.44 C 54.23 37.56 56.82 38.01 59.26 37.26 C 62.88 29.79 66.91 22.42 69.32 14.45 C 65.28 17.44 62.74 21.90 59.91 25.95 M 219.43 21.56 C 216.09 24.43 214.17 28.63 212.70 32.70 C 211.81 35.82 210.64 39.22 211.68 42.45 C 212.52 43.92 214.44 43.84 215.44 42.59 C 220.37 37.18 222.75 29.56 221.63 22.30 C 221.17 21.15 220.44 20.90 219.43 21.56 M 30.10 29.08 C 24.29 32.61 18.59 37.97 17.69 45.04 C 17.21 47.76 19.31 50.57 22.06 50.83 C 26.94 51.55 31.36 48.87 35.29 46.35 C 33.63 45.02 31.89 43.29 29.70 44.69 C 30.30 42.31 29.44 40.21 27.96 38.36 C 29.98 37.58 32.16 37.58 34.27 37.22 C 38.36 34.98 34.66 25.91 30.10 29.08 M 124.03 42.72 C 128.21 39.77 131.64 34.68 131.51 29.43 C 128.58 33.57 125.18 37.65 124.03 42.72 M 32.68 42.02 C 33.78 43.41 35.06 45.43 36.99 45.43 C 39.39 44.20 41.68 42.72 43.55 40.77 C 39.96 40.69 35.90 40.03 32.68 42.02 M 71.10 48.36 C 75.36 51.06 81.86 47.18 80.20 42.04 C 76.49 42.99 73.48 45.45 71.10 48.36 M 136.41 47.21 C 138.70 46.13 141.80 45.13 141.92 42.11 C 139.38 42.89 137.27 44.63 136.41 47.21 M 184.29 49.14 C 187.14 48.68 189.16 46.62 189.50 43.74 C 187.26 44.96 185.20 46.67 184.29 49.14 M 169.80 49.24 C 172.39 48.90 174.50 47.30 175.29 44.77 C 172.69 45.11 170.83 46.94 169.80 49.24 M 99.59 53.17 C 102.90 52.87 105.37 50.49 106.33 47.39 C 103.15 47.65 100.61 50.28 99.59 53.17 M 198.59 53.59 C 201.70 52.69 204.65 51.19 207.08 49.03 C 203.88 49.67 200.73 51.06 198.59 53.59 Z" />
<path fill="#000000" opacity="1.00" d=" M 128.69 76.65 C 129.16 75.29 130.34 74.46 131.51 73.74 C 133.31 82.88 127.89 91.18 121.79 97.37 C 122.90 97.23 125.13 96.94 126.24 96.79 C 129.70 102.07 122.66 111.19 117.10 106.80 C 116.39 105.28 116.01 103.64 115.53 102.04 C 111.02 105.56 105.95 110.16 99.82 109.28 C 99.95 106.35 100.85 103.55 101.33 100.67 C 97.20 100.60 94.77 104.62 92.10 107.20 C 91.35 108.31 89.64 108.01 89.24 106.74 C 89.72 104.20 91.04 101.91 91.79 99.46 C 87.26 100.35 84.99 104.47 81.83 107.33 C 81.25 107.33 80.09 107.34 79.52 107.35 C 80.13 105.09 81.18 103.00 82.08 100.85 C 77.25 103.96 73.13 109.74 66.61 108.41 C 66.52 103.16 70.38 99.03 72.56 94.52 C 72.90 92.68 75.16 93.37 75.11 95.01 C 74.04 98.57 71.60 101.49 70.25 104.93 C 76.27 101.86 82.21 98.04 86.40 92.61 C 86.86 94.49 87.07 96.41 87.27 98.33 C 89.33 97.34 91.35 96.29 93.39 95.27 C 94.07 96.73 94.70 98.21 95.31 99.70 C 97.92 98.32 100.69 97.26 103.49 96.32 C 104.27 99.52 103.57 102.78 103.29 105.99 C 107.58 104.29 111.51 101.83 115.40 99.37 C 117.32 98.27 118.54 96.39 119.51 94.47 C 122.58 88.53 125.99 82.77 128.69 76.65 M 122.43 101.44 C 121.28 101.66 120.51 102.32 120.11 103.41 C 120.59 105.56 124.70 102.04 122.43 101.44 Z" />
<path fill="#000000" opacity="1.00" d=" M 197.70 82.72 C 203.48 78.59 209.56 73.60 217.03 73.55 C 220.13 73.36 223.12 75.99 223.47 79.01 C 223.29 85.06 218.91 89.87 214.62 93.65 C 210.91 96.63 206.98 100.03 202.06 100.56 C 199.81 99.29 200.70 96.38 200.27 94.29 C 195.22 98.44 190.93 103.44 185.70 107.39 C 187.02 109.62 188.79 112.05 191.62 112.30 C 197.98 113.20 204.38 111.41 210.36 109.35 C 215.12 107.85 216.66 101.69 221.85 100.97 C 224.86 102.79 225.52 107.53 223.29 110.24 C 220.79 113.52 216.52 116.12 212.29 114.99 C 211.99 113.57 211.72 112.15 211.47 110.73 C 204.56 113.15 197.09 116.24 189.69 114.41 C 186.93 113.95 185.34 111.49 183.70 109.50 C 179.63 112.61 176.14 116.49 171.63 119.01 C 173.79 113.48 181.15 111.96 183.38 106.60 C 183.02 96.56 190.33 88.55 197.70 82.72 M 199.48 83.50 C 192.78 88.74 185.97 95.82 185.83 104.87 C 191.30 101.48 195.40 96.41 200.21 92.21 C 202.94 89.95 204.69 86.76 207.48 84.59 C 206.62 89.47 201.34 92.93 202.66 98.33 C 206.48 98.13 209.50 95.63 212.45 93.47 C 216.09 90.70 219.40 87.19 220.93 82.79 C 222.03 79.58 219.57 75.44 216.01 75.57 C 209.68 75.91 204.48 80.03 199.48 83.50 M 214.09 112.79 C 216.16 112.79 218.57 112.83 219.98 111.00 C 221.98 109.14 221.44 106.29 221.14 103.89 C 218.72 106.75 214.10 108.59 214.09 112.79 Z" />
<path fill="#000000" opacity="1.00" d=" M 35.95 83.10 C 34.02 80.36 36.47 76.74 39.04 75.53 C 51.28 74.65 62.77 80.14 74.90 80.59 C 81.68 81.29 89.01 81.14 94.79 77.04 C 95.43 78.78 95.78 80.89 93.66 81.73 C 86.87 85.60 78.60 83.86 71.19 83.36 C 69.43 83.08 69.12 85.29 68.46 86.42 C 66.37 91.68 63.23 96.41 59.95 101.00 C 57.96 103.73 56.72 107.10 53.99 109.22 C 50.60 107.16 48.21 103.85 45.60 100.94 C 49.22 100.20 51.13 103.61 53.47 105.66 C 58.93 98.62 64.04 91.12 67.18 82.72 C 59.75 81.39 52.48 79.19 44.99 78.21 C 42.48 77.96 39.06 77.54 37.58 80.13 C 37.03 82.12 38.70 83.82 40.12 84.94 C 44.18 87.95 49.34 88.53 54.24 88.66 C 54.39 89.31 54.69 90.62 54.85 91.28 C 47.93 91.48 39.50 89.76 35.95 83.10 Z" />
<path fill="#000000" opacity="1.00" d=" M 77.52 86.40 C 80.14 83.37 81.49 89.32 78.76 90.25 C 76.39 91.81 75.09 87.41 77.52 86.40 Z" />
<path fill="#000000" opacity="1.00" d=" M 136.31 101.36 C 138.16 98.40 140.40 95.69 143.32 93.75 C 144.69 96.22 145.53 99.93 142.94 101.93 C 141.30 103.35 137.61 103.08 138.00 105.95 C 146.13 104.58 150.91 95.89 158.87 94.60 C 162.35 98.32 158.45 102.79 156.79 106.33 C 161.74 105.97 165.94 103.29 169.39 99.89 C 171.15 103.90 167.00 106.42 164.10 108.11 C 160.88 109.81 156.91 111.61 153.36 109.83 C 152.65 105.31 156.23 102.03 157.75 98.14 C 150.35 100.35 145.47 107.32 138.00 109.38 C 135.95 110.19 135.07 107.77 133.89 106.65 C 132.11 107.01 130.34 107.37 128.54 107.55 C 128.66 102.89 134.48 104.60 136.31 101.36 M 142.30 97.36 C 141.08 97.89 139.53 99.44 139.93 100.85 C 141.38 101.34 143.89 98.22 142.30 97.36 Z" />
<path fill="#000000" opacity="1.00" d=" M 231.71 114.40 C 233.18 111.96 235.23 109.33 238.40 109.44 C 237.41 112.25 235.02 115.05 231.71 114.40 Z" />
</g>
</svg>
