<?xml version="1.0" encoding="UTF-8" ?>
<!DOCTYPE svg PUBLIC "-//W3C//DTD SVG 1.1//EN" "http://www.w3.org/Graphics/SVG/1.1/DTD/svg11.dtd">
<svg width="128pt" height="128pt" viewBox="0 0 128 128" version="1.1" xmlns="http://www.w3.org/2000/svg">
<g id="#000000ff">
<path fill="#000000" opacity="1.00" d=" M 49.31 11.84 C 52.19 9.93 55.46 10.57 58.48 11.66 C 59.01 12.75 59.53 13.85 60.08 14.94 C 61.33 14.67 62.59 14.39 63.84 14.14 C 67.19 18.23 65.38 24.07 63.36 28.38 C 61.43 33.38 56.98 36.62 53.38 40.35 C 49.56 45.44 46.44 51.53 46.84 58.05 C 48.40 65.33 46.58 72.81 48.42 80.05 C 48.11 80.58 47.48 81.65 47.17 82.18 C 41.79 77.38 45.99 69.59 43.00 63.87 C 40.83 67.12 39.37 70.76 38.32 74.50 L 37.17 74.98 C 36.62 73.32 35.60 71.74 35.55 69.96 C 36.82 66.62 38.77 63.61 40.38 60.44 C 41.67 58.67 39.29 56.89 39.97 55.07 C 40.35 52.96 41.97 51.12 41.59 48.91 C 40.41 38.36 44.80 27.68 51.95 20.05 C 51.18 17.28 50.56 14.44 49.31 11.84 M 59.16 28.14 C 62.49 25.59 61.26 21.24 61.03 17.67 C 58.66 20.54 60.09 24.72 59.16 28.14 M 48.71 31.81 C 46.60 36.22 45.71 41.10 45.31 45.94 C 48.41 42.14 50.07 37.08 54.34 34.33 C 56.42 32.82 58.10 30.86 59.85 28.99 C 57.80 29.87 55.75 30.76 53.68 31.60 C 53.48 29.56 53.25 27.54 52.82 25.54 C 50.58 26.92 49.83 29.59 48.71 31.81 Z" />
<path fill="#000000" opacity="1.00" d=" M 55.44 43.64 C 56.40 40.90 58.03 38.37 59.74 36.02 C 60.34 36.43 61.53 37.25 62.13 37.65 C 62.89 44.32 63.27 51.00 64.75 57.55 C 67.21 66.32 67.94 75.47 70.73 84.18 C 73.35 80.94 77.55 79.85 80.96 77.64 C 80.46 78.98 77.39 80.36 79.24 81.69 C 81.12 81.83 82.95 80.98 84.78 80.60 C 85.29 79.50 85.79 78.40 86.31 77.31 C 86.26 78.98 86.22 80.67 86.18 82.35 C 83.06 83.33 79.70 83.09 76.67 84.35 C 77.16 83.72 78.18 83.12 77.78 82.18 C 76.50 80.37 74.82 82.57 73.41 83.01 C 75.24 84.72 77.91 85.89 78.87 88.31 C 79.68 93.69 83.47 97.99 86.86 102.04 C 87.90 101.04 88.94 100.05 89.99 99.06 C 89.32 98.40 88.64 97.74 87.97 97.08 C 86.80 97.33 85.62 97.58 84.44 97.81 C 84.37 96.58 84.47 95.38 84.73 94.20 C 86.22 93.18 88.06 93.12 89.77 92.79 C 90.09 91.96 90.40 91.13 90.72 90.30 C 87.66 90.69 84.72 91.61 81.84 92.64 C 81.38 92.24 80.46 91.45 80.00 91.05 C 80.22 90.50 80.66 89.41 80.88 88.86 C 84.72 87.70 88.66 86.87 92.69 87.16 C 95.03 88.91 94.82 91.66 93.14 93.77 C 96.29 92.01 99.64 93.30 102.82 94.22 C 103.28 95.41 103.72 96.61 104.15 97.82 C 105.12 97.50 106.09 97.17 107.06 96.83 C 106.54 97.30 106.02 97.77 105.50 98.25 C 104.67 98.00 103.84 97.76 103.01 97.52 C 101.39 100.08 99.27 102.24 97.29 104.52 C 95.07 104.88 92.86 104.52 90.97 103.26 C 89.69 104.24 88.33 105.12 86.88 105.82 C 87.10 106.86 87.33 107.89 87.57 108.92 C 87.16 109.54 86.35 110.77 85.94 111.38 C 82.15 111.62 78.27 111.23 74.57 112.27 C 71.09 112.76 67.66 114.10 64.10 113.45 C 65.08 111.56 66.19 109.74 67.17 107.85 C 66.00 108.81 64.88 109.83 63.72 110.82 C 62.77 109.82 61.89 108.75 61.15 107.59 C 60.71 108.23 59.84 109.52 59.41 110.16 C 59.31 109.09 59.13 106.94 59.04 105.86 C 58.88 107.33 58.78 108.80 58.65 110.27 C 60.00 110.32 61.57 110.00 62.61 111.11 C 57.10 112.03 51.63 110.78 46.20 110.01 C 43.97 109.40 42.59 106.70 40.04 107.28 C 35.76 107.44 30.56 105.65 28.77 101.44 C 27.21 102.67 25.44 105.60 23.26 103.85 C 23.31 102.84 23.41 101.82 23.55 100.82 C 25.15 100.70 26.76 100.63 28.36 100.60 C 28.41 99.29 28.50 97.98 28.64 96.68 C 31.72 95.69 35.02 96.27 38.18 96.54 C 36.75 98.77 33.76 99.58 33.07 102.30 C 34.63 102.84 36.16 103.92 37.88 103.71 C 41.08 102.01 44.57 100.93 47.61 98.94 C 47.69 98.05 47.77 97.17 47.85 96.29 C 44.50 95.59 41.42 96.70 39.07 99.11 C 39.44 97.54 38.69 95.34 40.43 94.43 C 41.55 93.56 42.82 92.91 44.03 92.19 C 43.27 91.50 42.51 90.80 41.76 90.11 C 39.90 91.09 38.74 92.89 37.14 94.20 C 36.69 93.66 35.78 92.56 35.32 92.01 C 36.77 89.95 38.00 86.70 41.03 86.86 C 44.82 87.18 48.38 85.57 52.14 85.64 C 54.50 85.68 56.67 84.66 58.92 84.11 C 57.87 85.18 55.62 85.75 56.30 87.66 C 59.19 89.50 62.62 89.43 65.91 89.53 C 67.72 90.35 68.53 92.27 69.53 93.86 C 71.59 92.91 73.71 92.09 75.88 91.40 C 75.72 90.45 75.56 89.49 75.40 88.54 C 72.68 87.74 70.15 88.78 67.77 90.03 C 67.58 88.35 67.53 86.66 67.54 84.98 C 66.95 87.30 65.69 89.70 62.86 88.31 C 62.28 83.75 62.84 78.50 59.14 75.05 C 56.34 76.76 58.46 79.84 58.57 82.33 C 57.44 81.44 56.34 80.53 55.22 79.62 C 55.64 78.22 56.08 76.82 56.52 75.42 C 57.83 75.10 59.15 74.80 60.48 74.54 C 58.31 68.85 58.64 62.72 56.96 56.93 C 55.69 52.59 56.97 47.95 55.44 43.64 M 46.89 91.89 C 47.72 93.15 48.52 94.43 49.46 95.61 C 52.25 95.75 53.47 92.17 55.44 90.63 C 52.53 90.45 49.44 90.16 46.89 91.89 M 61.13 92.69 C 61.30 93.80 61.47 94.91 61.63 96.03 C 60.76 95.06 59.90 94.09 59.02 93.13 C 58.04 94.57 57.08 96.04 56.13 97.52 C 59.88 98.53 65.15 97.30 65.86 92.91 C 64.28 92.75 62.70 92.70 61.13 92.69 M 70.79 97.49 C 67.63 96.93 65.91 99.93 63.54 101.39 C 62.07 102.20 59.74 102.31 59.37 104.32 C 61.23 104.42 63.11 104.60 64.97 104.40 C 67.46 103.69 68.74 101.28 70.17 99.35 C 71.43 100.16 72.65 101.02 73.89 101.86 C 75.85 101.00 77.82 100.16 79.71 99.16 C 79.39 97.65 78.53 96.41 77.57 95.24 C 75.01 94.94 72.86 96.17 70.79 97.49 M 93.17 96.19 C 93.12 97.66 93.16 99.15 93.40 100.61 C 94.88 99.89 96.43 99.35 97.97 98.78 C 98.39 96.18 94.81 96.84 93.17 96.19 M 50.36 98.00 C 51.12 100.81 49.15 102.78 47.85 105.00 C 50.49 105.59 53.15 106.09 55.83 106.44 C 55.89 102.94 54.88 99.83 52.67 97.11 C 51.90 97.41 51.13 97.70 50.36 98.00 M 80.07 102.50 C 79.43 104.14 79.95 104.63 81.61 103.97 C 82.25 102.34 81.74 101.85 80.07 102.50 M 69.72 106.28 C 70.10 107.13 70.49 107.99 70.88 108.84 C 70.17 109.86 69.49 110.91 68.88 111.99 C 70.68 110.76 72.33 109.32 74.14 108.09 C 72.62 107.61 71.15 106.97 69.72 106.28 M 75.33 107.46 C 74.89 109.10 75.48 109.64 77.07 109.07 C 77.55 107.47 76.96 106.93 75.33 107.46 Z" />
<path fill="#000000" opacity="1.00" d=" M 51.40 78.05 C 54.32 76.34 51.54 81.49 51.40 78.05 Z" />
<path fill="#000000" opacity="1.00" d=" M 87.77 110.58 C 88.99 110.05 90.97 110.06 91.80 111.25 C 91.47 112.93 87.20 112.26 87.77 110.58 Z" />
</g>
</svg>
