<?xml version="1.0" encoding="UTF-8" ?>
<!DOCTYPE svg PUBLIC "-//W3C//DTD SVG 1.1//EN" "http://www.w3.org/Graphics/SVG/1.1/DTD/svg11.dtd">
<svg width="128pt" height="128pt" viewBox="0 0 128 128" version="1.1" xmlns="http://www.w3.org/2000/svg">
<g id="#000000ff">
<path fill="#000000" opacity="1.00" d=" M 58.40 12.53 C 61.22 12.15 63.95 13.38 66.49 14.44 C 67.88 16.78 67.17 19.55 67.83 22.05 C 71.96 24.21 76.43 25.90 79.92 29.10 C 84.94 34.17 87.09 41.08 90.17 47.31 C 90.46 46.53 91.05 44.97 91.34 44.19 C 92.68 44.30 94.01 44.44 95.33 44.62 C 94.45 45.60 93.54 46.56 92.67 47.55 C 93.40 47.50 94.13 47.44 94.87 47.38 C 98.43 47.16 102.03 47.37 105.57 47.87 C 104.53 50.17 102.81 51.81 100.20 51.85 C 99.10 53.16 98.83 55.89 96.66 55.71 C 93.91 55.53 91.14 55.31 88.51 56.30 C 88.45 58.45 88.43 60.61 88.07 62.73 C 87.35 62.50 86.62 62.26 85.90 62.03 C 84.06 66.79 79.70 69.88 75.57 72.55 C 72.42 74.34 69.28 76.25 65.79 77.32 C 65.09 83.23 65.76 89.21 64.80 95.09 C 64.54 100.11 64.29 105.14 64.55 110.16 C 62.82 112.10 61.12 114.05 59.31 115.91 C 58.00 114.59 56.54 113.43 54.67 113.06 C 52.65 106.52 54.62 99.80 54.59 93.18 C 55.12 93.34 56.18 93.65 56.71 93.81 C 55.86 93.42 55.03 93.01 54.20 92.60 C 54.66 88.13 54.43 83.64 54.58 79.16 C 50.19 79.09 45.91 78.01 42.16 75.68 C 37.71 74.45 35.68 70.04 32.89 66.79 C 32.35 63.40 31.23 60.16 30.37 56.85 C 28.16 56.54 25.92 56.73 23.71 56.45 C 22.07 54.95 20.21 53.74 18.19 52.82 C 20.57 51.01 23.00 49.24 25.54 47.65 C 27.46 47.19 29.39 46.78 31.31 46.34 C 31.71 44.13 32.05 41.89 32.80 39.77 C 36.95 32.89 44.16 28.81 50.97 25.02 C 54.03 24.04 57.18 23.30 59.96 21.60 C 58.91 20.67 57.85 19.76 56.80 18.83 C 57.41 18.40 58.63 17.54 59.24 17.11 C 58.82 15.61 58.44 14.09 58.40 12.53 M 45.75 37.75 C 43.32 40.18 41.19 43.03 40.16 46.35 C 41.15 49.07 44.67 46.68 46.70 46.46 C 49.01 46.97 51.14 48.04 53.28 49.00 C 53.45 45.77 54.33 42.64 55.54 39.66 C 55.18 38.90 54.47 37.37 54.11 36.61 C 54.90 36.97 56.49 37.68 57.29 38.04 C 56.39 37.36 55.51 36.66 54.64 35.96 C 55.10 34.62 55.62 33.31 56.31 32.07 C 52.69 33.76 48.55 34.71 45.75 37.75 M 68.44 39.38 C 67.71 39.58 66.98 39.78 66.26 39.98 C 68.30 41.30 67.50 43.69 67.66 45.69 C 68.98 46.79 70.20 48.00 71.43 49.19 C 72.00 47.90 72.33 46.50 73.04 45.27 C 74.35 45.67 75.60 46.22 76.86 46.74 C 78.24 47.07 79.60 47.45 80.97 47.84 C 81.37 44.45 79.82 41.69 77.97 39.02 C 76.41 34.92 72.03 33.39 68.54 31.37 C 67.34 33.96 67.22 36.77 68.44 39.38 M 57.20 34.16 C 57.67 37.57 59.88 32.28 57.20 34.16 M 67.79 56.74 C 67.36 60.23 67.06 63.77 67.56 67.27 C 72.61 64.37 77.67 60.99 80.16 55.50 C 76.11 56.79 71.91 56.12 67.79 56.74 M 39.20 58.59 C 40.73 61.67 41.99 65.04 44.60 67.42 C 47.05 70.08 50.71 70.93 54.05 71.93 C 54.54 70.52 55.07 69.13 55.64 67.77 C 54.75 66.87 53.88 65.94 53.04 64.99 C 53.61 64.10 54.18 63.21 54.75 62.32 C 53.54 60.62 53.14 58.65 53.47 56.58 C 48.65 56.99 43.45 55.67 39.20 58.59 M 63.44 64.71 C 63.89 66.15 64.33 67.58 64.73 69.04 C 65.21 67.49 65.69 65.93 66.19 64.39 C 65.50 64.47 64.13 64.63 63.44 64.71 Z" />
</g>
</svg>
