<?xml version="1.0" encoding="UTF-8" ?>
<!DOCTYPE svg PUBLIC "-//W3C//DTD SVG 1.1//EN" "http://www.w3.org/Graphics/SVG/1.1/DTD/svg11.dtd">
<svg width="128pt" height="128pt" viewBox="0 0 128 128" version="1.1" xmlns="http://www.w3.org/2000/svg">
<g id="#000000ff">
<path fill="#000000" opacity="1.00" d=" M 62.92 16.76 C 64.42 17.51 65.93 18.23 67.45 18.92 C 68.09 27.66 67.18 36.43 67.53 45.18 C 68.68 45.23 69.82 45.29 70.96 45.46 C 73.23 44.57 75.67 44.35 78.09 44.34 C 87.77 44.12 97.59 42.30 107.21 43.99 C 106.00 45.81 103.56 45.73 101.87 46.88 C 99.82 48.35 97.38 49.05 95.05 49.94 C 96.38 50.97 97.76 51.94 99.12 52.93 C 98.63 53.21 97.66 53.77 97.18 54.05 C 87.78 56.21 77.87 55.95 68.36 57.56 C 68.64 61.37 68.71 65.19 69.00 69.00 C 67.74 70.10 66.11 71.19 66.46 73.10 C 66.31 84.79 65.10 96.48 65.70 108.17 C 63.41 109.97 62.20 107.59 62.56 105.51 C 62.09 106.58 61.64 107.65 61.23 108.75 C 59.34 108.59 57.45 108.63 55.56 108.76 C 55.49 108.00 55.35 106.48 55.28 105.72 C 54.52 105.66 52.99 105.53 52.23 105.47 C 54.05 94.73 52.77 83.82 53.28 72.99 C 53.67 68.06 52.47 63.20 52.88 58.27 C 48.78 58.32 44.62 58.24 40.62 59.29 C 38.05 59.98 35.48 59.17 32.93 58.82 C 30.62 58.94 28.30 59.44 26.01 58.83 C 26.13 56.10 28.95 55.63 30.93 54.61 C 27.89 54.42 24.83 54.38 21.79 54.19 C 23.76 51.69 27.36 51.47 30.27 50.80 C 38.05 49.96 45.60 47.30 53.47 47.41 C 54.99 40.61 52.94 33.83 53.70 27.00 C 54.21 24.14 54.56 21.26 54.83 18.37 C 55.61 19.83 56.83 20.97 58.16 21.93 C 58.20 20.93 58.28 18.93 58.32 17.94 C 60.00 17.96 62.74 19.45 62.92 16.76 Z" />
</g>
</svg>
