<?xml version="1.0" encoding="UTF-8" ?>
<!DOCTYPE svg PUBLIC "-//W3C//DTD SVG 1.1//EN" "http://www.w3.org/Graphics/SVG/1.1/DTD/svg11.dtd">
<svg width="128pt" height="128pt" viewBox="0 0 128 128" version="1.1" xmlns="http://www.w3.org/2000/svg">
<g id="#000000ff">
<path fill="#000000" opacity="1.00" d=" M 55.86 21.41 C 57.90 21.68 59.99 21.47 61.18 19.57 C 63.49 20.51 65.85 21.33 68.26 21.99 C 67.89 30.17 67.57 38.38 66.66 46.53 C 74.78 46.54 82.89 46.07 91.00 46.27 C 96.90 46.35 102.82 45.22 108.67 46.38 C 108.61 47.33 108.57 48.28 108.56 49.23 C 105.37 49.56 102.37 50.89 99.13 50.81 C 97.85 52.24 96.75 54.33 94.59 54.45 C 85.19 54.93 75.73 54.02 66.35 55.14 C 66.13 62.76 66.24 70.39 65.82 78.01 C 66.46 85.57 66.49 93.18 66.24 100.77 C 72.40 100.25 78.99 99.53 84.67 102.54 C 81.69 102.84 78.66 102.39 75.70 102.91 C 79.31 103.87 83.05 103.16 86.70 103.43 C 91.67 104.86 97.79 105.25 101.01 109.84 C 101.87 112.65 102.86 115.46 105.12 117.48 C 103.27 116.00 100.72 115.46 99.47 113.31 C 96.93 113.91 94.05 113.14 93.58 110.21 C 95.04 111.04 96.55 111.78 98.01 112.62 C 98.24 112.09 98.70 111.03 98.92 110.50 C 93.67 108.14 88.02 105.94 82.14 106.73 C 80.43 107.36 78.97 108.48 77.52 109.56 C 77.01 108.40 76.26 107.37 75.80 106.19 C 75.71 107.00 75.55 108.63 75.46 109.44 C 73.39 108.41 71.43 107.17 69.35 106.16 C 70.57 107.55 72.30 108.31 73.76 109.41 C 71.34 109.54 68.18 109.48 67.96 112.66 C 72.62 111.73 78.69 112.86 81.67 108.33 C 85.65 108.39 89.32 109.96 93.08 111.02 C 90.00 112.35 86.99 110.29 83.85 110.59 C 83.21 115.92 76.63 116.08 72.52 116.88 C 72.40 117.56 72.16 118.94 72.04 119.63 C 76.86 117.75 82.14 119.47 86.88 117.33 C 84.38 118.59 81.66 119.31 78.91 119.81 C 74.96 120.78 71.05 122.03 67.00 122.52 C 65.61 121.93 64.45 120.92 63.23 120.05 C 65.56 118.62 68.13 117.48 70.04 115.47 C 62.19 116.27 54.61 119.11 46.67 119.42 C 47.12 117.58 48.30 116.13 49.79 115.02 C 49.18 114.91 48.57 114.80 47.96 114.68 C 46.78 115.90 45.19 116.56 43.63 117.14 C 43.38 115.38 43.74 113.72 44.93 112.38 C 47.12 112.74 48.47 112.00 48.97 110.15 C 45.96 110.51 43.50 112.37 41.18 114.18 C 38.45 116.38 34.94 117.23 31.57 117.90 C 33.24 114.36 36.97 112.89 40.12 110.97 C 46.05 107.15 52.78 105.03 59.09 101.96 C 56.95 95.81 58.13 89.25 57.06 82.93 C 56.07 75.95 57.22 68.80 55.71 61.90 C 55.60 59.97 55.54 58.03 55.58 56.10 C 48.03 56.42 40.53 57.46 32.99 57.82 C 28.89 58.12 26.22 54.23 22.15 54.22 C 23.96 52.53 25.06 49.57 28.00 49.82 C 36.89 49.33 45.66 47.42 54.58 47.49 C 56.27 38.88 54.87 30.05 55.86 21.41 M 63.47 106.25 C 62.39 106.19 60.58 107.11 61.16 108.41 C 62.26 109.25 65.63 106.88 63.47 106.25 M 51.21 108.09 C 50.62 109.50 51.05 109.95 52.49 109.44 C 53.08 108.02 52.65 107.57 51.21 108.09 M 70.29 115.14 C 70.53 118.66 73.18 113.51 70.29 115.14 Z" />
<path fill="#000000" opacity="1.00" d=" M 29.30 120.52 C 30.37 119.64 31.51 118.87 32.74 118.23 C 32.66 120.04 31.50 121.41 30.60 122.87 C 30.15 122.10 29.71 121.32 29.30 120.52 Z" />
</g>
</svg>
