<?xml version="1.0" encoding="UTF-8" ?>
<!DOCTYPE svg PUBLIC "-//W3C//DTD SVG 1.1//EN" "http://www.w3.org/Graphics/SVG/1.1/DTD/svg11.dtd">
<svg width="128pt" height="128pt" viewBox="0 0 128 128" version="1.1" xmlns="http://www.w3.org/2000/svg">
<g id="#000000ff">
<path fill="#000000" opacity="1.00" d=" M 63.57 13.41 C 64.09 11.77 65.84 11.04 67.09 10.03 C 67.53 11.10 68.31 12.04 68.47 13.21 C 68.89 22.56 69.22 32.02 67.13 41.22 C 72.09 41.27 77.04 40.50 81.99 41.05 C 86.45 41.44 91.06 40.54 95.42 41.67 C 97.18 42.72 96.35 44.72 96.27 46.35 C 89.14 47.08 81.74 45.30 74.85 47.54 C 72.06 47.71 69.26 47.63 66.47 47.62 C 66.63 50.20 66.77 52.78 67.01 55.35 C 65.76 55.82 64.20 56.57 64.07 54.56 C 64.40 55.69 64.68 56.84 64.86 58.00 C 65.72 57.35 66.59 56.73 67.50 56.14 C 68.92 60.68 67.91 65.39 67.79 70.02 C 68.37 77.58 68.47 85.17 69.34 92.71 C 70.11 93.72 71.07 94.57 71.95 95.49 C 73.05 94.13 73.92 92.50 75.38 91.48 C 76.98 90.92 78.68 91.68 80.28 91.88 C 80.29 93.36 80.46 94.89 81.61 95.96 C 81.28 96.10 80.63 96.38 80.30 96.52 C 81.85 96.43 83.41 96.36 84.96 96.32 C 83.73 95.91 82.50 95.50 81.26 95.10 C 85.27 91.06 93.78 94.29 93.62 100.26 C 96.54 100.30 99.76 101.06 101.41 103.70 C 102.42 106.30 100.94 109.32 98.05 109.68 C 97.35 108.34 96.68 106.99 96.00 105.65 C 94.37 105.15 92.74 104.64 91.11 104.16 C 89.79 105.32 88.40 106.39 86.95 107.37 C 89.28 109.30 92.87 110.88 91.64 114.52 C 89.70 114.40 87.69 114.70 85.80 114.17 C 84.57 113.31 83.78 112.01 82.84 110.89 C 81.59 112.60 80.64 114.59 79.00 115.98 C 76.27 117.35 72.84 116.87 70.54 119.11 C 69.15 120.58 67.40 119.34 66.21 118.33 C 67.66 117.05 69.00 115.63 70.56 114.48 C 73.31 113.83 76.12 113.39 78.67 112.10 C 77.61 110.57 76.84 108.79 75.47 107.50 C 72.16 107.04 68.95 108.04 65.74 108.64 C 65.15 109.56 64.54 110.48 63.94 111.40 C 66.20 111.89 68.88 111.98 70.15 114.27 C 68.42 114.67 66.62 115.06 64.92 114.34 C 63.35 115.62 61.77 116.99 59.71 117.39 C 59.66 115.95 59.65 114.51 59.66 113.07 C 57.97 112.82 56.28 112.55 54.61 112.18 C 55.28 113.72 56.21 115.54 54.02 116.31 C 51.96 115.61 50.68 113.71 49.12 112.30 C 48.01 113.18 47.00 114.15 46.10 115.23 C 47.08 115.34 49.04 115.57 50.03 115.68 C 48.55 118.76 44.65 118.85 42.04 117.20 C 40.95 117.72 39.84 118.23 38.73 118.71 C 38.07 116.92 38.93 115.26 39.63 113.66 C 39.59 111.60 39.62 109.53 40.84 107.76 C 39.89 106.24 39.04 104.67 38.28 103.05 C 36.96 103.33 35.63 103.59 34.30 103.79 C 34.54 102.65 33.93 100.78 35.42 100.32 C 38.35 99.34 41.64 100.07 44.56 98.87 C 47.36 98.32 49.84 96.17 52.81 96.84 C 54.67 94.05 58.14 92.56 61.03 94.92 C 60.00 96.14 58.86 97.30 57.32 97.86 C 57.78 100.55 57.15 103.89 53.64 103.49 C 53.59 102.58 53.51 100.75 53.47 99.83 C 52.20 101.29 48.98 102.14 49.50 104.44 C 51.84 105.24 54.34 105.57 56.57 106.71 C 56.01 103.91 57.33 101.15 60.46 101.23 C 61.87 104.93 66.44 103.48 69.46 103.17 C 69.32 101.86 69.18 100.56 69.09 99.26 C 70.18 98.67 71.28 98.08 72.36 97.46 C 71.23 97.96 70.10 98.47 68.98 98.99 C 68.06 98.59 67.14 98.18 66.22 97.76 C 64.64 98.85 62.74 98.67 60.97 98.23 C 62.37 96.17 63.76 94.10 65.56 92.37 C 64.81 88.93 66.17 84.97 64.50 81.83 C 64.27 85.63 65.47 89.97 62.82 93.17 C 60.34 90.02 61.97 85.67 62.26 82.06 C 62.80 74.00 60.65 66.03 61.22 57.96 C 60.99 54.53 62.18 51.07 61.18 47.70 C 52.19 49.23 42.79 47.45 34.04 50.24 C 33.14 48.48 32.19 46.70 30.19 46.01 C 31.16 45.49 31.99 44.62 33.12 44.47 C 42.30 42.80 51.62 42.57 60.83 41.15 C 61.00 40.93 61.36 40.50 61.54 40.29 C 61.45 34.18 61.25 28.07 61.60 21.96 C 61.22 18.95 62.76 16.22 63.57 13.41 M 73.96 97.53 C 75.08 100.40 77.86 102.05 80.43 103.48 C 83.02 103.85 85.27 102.21 87.65 101.49 C 87.68 100.85 87.75 99.58 87.78 98.94 C 83.12 98.62 78.70 96.42 73.96 97.53 M 41.96 106.82 C 42.51 108.08 43.04 109.35 43.54 110.64 C 47.61 112.34 51.24 109.87 55.07 108.75 C 53.12 108.50 51.15 108.46 49.20 108.18 C 46.80 107.49 44.54 105.59 41.96 106.82 Z" />
<path fill="#000000" opacity="1.00" d=" M 31.37 108.49 C 32.75 108.36 34.12 108.23 35.50 108.09 C 34.51 110.06 33.85 112.73 31.20 112.86 C 31.23 111.40 31.30 109.94 31.37 108.49 Z" />
<path fill="#000000" opacity="1.00" d=" M 95.99 110.35 C 97.29 110.78 98.58 111.20 99.89 111.59 C 99.11 112.94 98.37 114.31 97.65 115.70 C 96.63 115.54 95.60 115.39 94.57 115.25 C 94.18 113.42 94.91 111.78 95.99 110.35 Z" />
<path fill="#000000" opacity="1.00" d=" M 50.08 119.35 C 54.78 119.40 59.62 118.63 64.21 119.80 C 61.20 123.50 56.10 122.73 51.90 122.27 C 50.20 122.25 48.90 120.92 50.08 119.35 Z" />
</g>
</svg>
