<?xml version="1.0" encoding="UTF-8" ?>
<!DOCTYPE svg PUBLIC "-//W3C//DTD SVG 1.1//EN" "http://www.w3.org/Graphics/SVG/1.1/DTD/svg11.dtd">
<svg width="512pt" height="256pt" viewBox="0 0 512 256" version="1.1" xmlns="http://www.w3.org/2000/svg">
<g id="#000000ff">
<path fill="#000000" opacity="1.00" d=" M 150.32 82.32 C 152.58 80.83 153.89 78.44 155.15 76.14 C 156.20 76.95 157.62 77.64 157.74 79.14 C 156.78 82.73 155.07 86.07 153.33 89.34 C 149.45 96.33 145.69 103.44 140.85 109.84 C 139.66 111.51 138.14 113.05 137.76 115.15 C 144.95 112.18 152.51 109.38 158.29 103.99 C 160.48 102.13 161.99 105.42 162.55 107.10 C 166.83 106.54 170.55 104.21 174.39 102.40 C 177.76 100.65 181.74 99.19 183.59 95.60 C 186.31 90.41 189.31 85.29 193.28 80.95 C 195.38 79.21 197.27 82.13 197.34 84.06 C 198.29 88.53 195.02 92.19 192.30 95.28 C 189.70 98.36 185.78 100.23 183.96 103.97 C 181.41 108.76 178.87 113.85 178.73 119.39 C 183.50 119.93 186.53 115.48 189.86 112.84 C 195.76 107.78 202.90 104.54 209.30 100.20 C 211.34 100.14 213.38 101.19 215.40 100.49 C 221.52 98.75 227.60 96.80 233.90 95.82 C 234.58 95.95 235.95 96.20 236.64 96.32 C 237.44 99.83 236.55 103.32 235.81 106.74 C 240.31 105.11 243.02 100.23 247.94 99.31 C 251.93 100.23 249.26 105.13 249.53 107.84 C 254.18 106.73 257.15 102.01 262.00 101.44 C 263.68 101.11 264.79 102.76 264.62 104.28 C 264.77 107.91 263.04 111.26 262.43 114.77 C 266.02 114.17 268.13 110.82 271.33 109.35 C 277.53 106.14 283.60 102.54 290.22 100.26 C 295.36 97.01 301.30 95.31 307.19 94.01 C 309.43 93.37 312.49 94.66 312.98 97.08 C 312.56 100.88 310.96 104.43 309.89 108.08 C 315.70 104.53 321.71 101.26 328.01 98.66 C 329.47 98.92 331.35 100.14 330.68 101.86 C 329.20 105.95 326.96 109.77 326.04 114.07 C 325.58 115.36 325.96 116.33 327.18 117.00 C 329.31 116.69 331.15 115.48 333.13 114.73 C 332.10 117.57 329.86 120.19 326.87 120.99 C 325.01 121.49 323.31 119.97 322.67 118.35 C 321.54 113.55 323.25 108.73 325.24 104.40 C 317.21 106.84 310.73 112.76 305.06 118.75 C 303.20 118.09 302.32 115.79 302.92 113.97 C 304.19 108.41 307.34 103.52 308.91 98.05 C 303.84 96.98 299.13 100.06 294.58 101.88 C 296.70 109.28 291.96 116.99 285.47 120.38 C 283.91 121.20 281.81 120.32 281.36 118.60 C 280.43 114.85 282.94 111.46 283.31 107.81 C 276.96 110.17 271.70 114.68 265.64 117.66 C 263.04 119.13 260.18 124.18 257.07 120.75 C 256.91 115.81 259.72 111.34 260.22 106.46 C 256.80 107.57 254.11 110.12 251.37 112.35 C 248.51 114.66 247.26 118.26 244.77 120.88 C 242.60 121.76 241.21 118.91 242.02 117.15 C 243.42 113.39 244.69 109.58 245.48 105.65 C 237.83 108.64 232.98 115.83 228.08 122.04 C 226.49 124.07 223.94 120.87 224.74 119.07 C 227.05 112.37 231.89 106.70 233.24 99.64 C 227.36 100.35 221.94 103.03 216.12 104.05 C 211.67 104.35 214.86 109.31 214.19 112.06 C 213.15 116.90 209.72 121.72 205.01 123.52 C 202.81 123.21 202.09 120.85 201.84 118.98 C 201.50 115.41 202.98 112.02 203.59 108.56 C 200.25 110.90 196.82 113.13 193.56 115.57 C 190.45 118.62 187.34 122.04 182.93 123.12 C 179.77 124.30 176.10 122.01 175.39 118.80 C 174.48 114.76 176.08 110.78 177.35 107.01 C 176.16 105.34 174.16 107.28 172.81 107.76 C 169.76 109.72 166.14 110.52 163.04 112.28 C 162.24 118.22 158.99 123.65 154.20 127.23 C 152.52 128.50 149.96 127.65 149.31 125.66 C 147.72 121.33 150.75 117.16 151.13 112.88 C 147.55 113.64 144.48 115.74 141.12 117.08 C 137.56 118.73 133.37 119.58 130.79 122.80 C 128.36 125.76 124.93 128.23 121.00 128.47 C 113.79 127.67 107.23 123.86 102.43 118.51 C 101.16 116.66 99.50 118.46 98.17 119.20 C 91.19 123.91 84.36 128.89 76.98 132.96 C 73.74 134.77 69.46 136.46 66.18 133.78 C 58.54 127.89 58.82 115.88 65.10 109.09 C 69.45 103.02 75.69 98.53 82.43 95.47 C 87.85 93.25 92.95 99.91 91.02 104.93 C 88.99 110.27 87.40 116.33 82.75 120.07 C 81.67 121.53 78.48 120.07 79.62 118.19 C 84.77 113.24 88.65 106.44 88.71 99.16 C 87.23 98.69 85.66 98.12 84.17 98.90 C 78.54 100.73 73.90 104.68 69.85 108.89 C 66.06 112.91 62.76 118.12 63.38 123.89 C 63.65 127.30 64.95 131.97 69.02 132.34 C 73.98 131.76 78.55 129.39 82.56 126.52 C 88.08 122.88 93.68 119.34 99.30 115.89 C 99.56 113.25 97.28 111.05 96.30 108.69 C 92.95 103.14 91.50 95.67 94.83 89.79 C 97.61 85.40 102.12 82.23 106.98 80.55 C 110.83 79.89 114.40 82.45 116.34 85.60 C 119.48 89.97 120.63 95.35 121.02 100.63 C 124.24 99.79 126.89 97.52 130.18 96.89 C 127.48 99.67 123.36 100.99 121.16 104.19 C 121.13 107.77 121.55 111.35 122.06 114.89 C 122.21 117.25 124.78 118.63 126.93 118.06 C 129.27 117.77 130.68 115.74 132.08 114.08 C 139.22 105.22 146.02 95.73 150.02 85.02 C 148.56 85.58 147.15 86.25 145.79 87.04 C 145.84 84.44 148.74 83.86 150.32 82.32 M 106.44 84.57 C 99.21 86.93 93.75 95.11 96.27 102.69 C 97.66 106.40 98.87 110.75 102.12 113.25 C 108.20 112.11 112.28 106.53 117.52 103.52 C 118.11 97.43 116.64 91.03 112.88 86.14 C 111.46 84.09 108.64 83.67 106.44 84.57 M 285.96 114.22 C 289.43 112.09 291.49 108.00 291.83 104.00 C 288.15 105.76 287.44 110.73 285.96 114.22 M 103.73 115.34 C 107.10 120.90 113.54 124.41 120.02 124.51 C 122.09 124.51 123.75 123.12 125.42 122.10 C 118.54 120.10 118.45 111.89 117.84 106.05 C 112.62 108.36 108.93 112.99 103.73 115.34 M 205.78 117.32 C 208.41 116.60 209.68 113.93 210.51 111.57 C 210.71 110.52 211.69 108.17 209.99 108.01 C 207.53 110.44 206.54 114.03 205.78 117.32 M 153.57 121.35 C 156.48 118.91 159.09 115.64 159.22 111.67 C 155.17 112.78 154.26 117.79 153.57 121.35 Z" />
<path fill="#000000" opacity="1.00" d=" M 351.12 86.15 C 352.53 83.29 353.68 80.08 356.07 77.87 C 358.54 77.65 359.43 81.04 357.68 82.51 C 354.33 86.82 352.25 92.72 346.99 95.10 C 347.93 91.93 349.88 89.20 351.12 86.15 Z" />
<path fill="#000000" opacity="1.00" d=" M 390.77 91.71 C 391.90 91.27 393.14 91.60 394.32 91.59 C 394.73 93.61 394.94 95.85 393.52 97.55 C 389.96 102.62 387.06 108.10 383.73 113.32 C 392.36 113.11 401.26 109.78 407.08 103.23 C 408.39 104.25 410.70 105.52 409.49 107.52 C 407.24 111.11 402.92 112.48 399.30 114.27 C 391.59 117.80 383.07 118.56 374.97 120.67 C 370.53 119.69 368.90 113.91 368.78 109.88 C 371.44 110.21 373.36 112.11 375.53 113.47 C 377.24 114.42 378.39 112.42 379.24 111.26 C 382.10 106.91 385.54 102.81 387.23 97.81 C 382.49 98.79 378.13 100.96 373.59 102.52 C 368.20 104.65 362.53 105.86 356.93 107.24 C 355.14 108.00 351.93 106.26 353.17 104.15 C 365.88 100.59 378.35 96.21 390.77 91.71 Z" />
<path fill="#000000" opacity="1.00" d=" M 325.92 140.91 C 327.63 138.79 329.49 136.64 331.98 135.40 C 333.45 135.68 334.11 136.54 333.96 137.99 C 331.29 148.11 324.11 155.97 318.48 164.50 C 315.80 167.75 312.75 171.58 313.99 176.11 C 317.99 175.45 321.19 172.74 324.21 170.24 C 328.86 166.20 333.99 162.50 337.33 157.20 C 338.00 157.23 339.35 157.28 340.02 157.31 C 340.17 157.97 340.46 159.30 340.60 159.97 C 337.69 164.63 333.75 169.23 334.00 175.10 C 337.60 173.50 339.79 170.12 342.23 167.21 C 345.39 163.19 349.06 159.47 351.16 154.74 C 352.48 155.18 354.08 155.48 354.53 157.03 C 351.22 165.92 346.81 174.39 343.73 183.36 C 346.88 182.23 348.83 179.36 351.38 177.36 C 355.54 173.92 359.80 170.60 363.90 167.08 C 364.51 167.65 365.73 168.79 366.34 169.36 C 364.89 171.57 362.67 173.06 360.58 174.60 C 354.84 178.76 349.58 183.56 344.60 188.59 C 337.70 194.71 335.12 203.98 332.50 212.46 C 330.97 213.56 328.72 212.46 328.64 210.59 C 328.00 206.93 327.52 202.84 329.43 199.46 C 331.55 195.36 335.92 192.86 337.49 188.41 C 339.37 183.19 341.60 178.08 343.11 172.73 C 339.04 174.82 335.91 180.72 330.62 178.45 C 330.02 175.48 330.49 172.49 330.92 169.54 C 325.34 172.96 320.98 179.02 313.99 179.69 C 311.27 179.81 310.21 176.81 309.14 174.85 C 305.09 178.38 300.71 182.42 295.06 182.71 C 292.20 182.78 290.41 179.60 290.84 177.02 C 291.19 173.84 291.99 170.72 292.26 167.53 C 287.52 169.56 282.69 171.69 277.42 171.70 C 276.34 175.50 277.45 179.78 275.35 183.30 C 274.15 185.36 271.61 187.38 269.13 186.33 C 267.34 184.54 268.06 181.73 268.42 179.52 C 270.50 172.34 273.68 165.39 279.00 160.02 C 279.97 158.81 281.58 159.22 282.92 159.15 C 282.96 160.45 283.71 162.29 282.05 162.92 C 279.75 164.18 277.97 166.11 276.70 168.39 C 283.21 168.79 289.56 165.42 294.61 161.58 C 299.37 154.54 302.07 146.18 307.64 139.65 C 309.40 137.67 311.95 135.44 314.67 137.16 C 315.01 142.69 311.91 147.65 309.26 152.26 C 305.69 158.24 298.45 161.34 296.12 168.12 C 294.88 171.45 294.78 175.04 294.95 178.55 C 297.83 178.90 300.18 176.96 302.47 175.54 C 306.88 172.66 310.71 168.72 312.80 163.84 C 316.20 155.69 320.56 147.93 325.92 140.91 M 304.60 152.30 C 307.14 150.57 308.56 147.66 309.23 144.74 C 306.92 146.68 305.33 149.39 304.60 152.30 Z" />
<path fill="#000000" opacity="1.00" d=" M 244.03 140.86 C 256.08 140.54 267.98 138.47 279.97 137.38 C 281.50 137.12 284.91 137.34 283.64 139.69 C 280.60 140.77 277.29 140.65 274.13 141.16 C 266.53 141.85 258.98 143.21 251.34 143.46 C 253.10 150.58 246.89 156.81 247.05 163.90 C 251.89 163.41 256.28 161.21 260.89 159.86 C 261.49 160.14 262.70 160.68 263.31 160.95 C 261.57 165.61 259.78 170.26 257.85 174.85 C 257.42 176.15 256.29 177.00 255.02 177.40 C 252.44 176.70 252.39 173.70 252.30 171.54 C 256.13 171.17 257.25 167.60 258.19 164.45 C 254.08 165.36 249.91 166.30 246.07 168.07 C 243.84 170.04 243.16 173.17 241.81 175.74 C 239.15 181.24 237.81 187.34 234.61 192.58 C 233.84 194.17 231.87 194.41 230.49 193.47 C 224.62 190.10 219.05 186.20 213.22 182.76 C 211.72 182.16 211.15 180.60 212.21 179.30 C 213.73 179.06 214.97 180.03 216.22 180.74 C 221.62 183.92 226.61 187.76 232.15 190.72 C 234.67 186.40 235.99 181.56 238.08 177.05 C 239.13 174.74 240.25 172.41 240.61 169.87 C 235.72 170.45 230.97 172.09 226.04 172.27 C 224.13 172.36 223.79 170.67 223.71 169.15 C 229.78 168.77 235.83 167.68 241.58 165.67 C 243.70 164.58 243.80 161.80 244.67 159.82 C 246.15 154.48 248.51 149.37 249.34 143.86 C 242.56 143.76 235.83 144.91 229.06 144.86 C 217.77 145.27 206.47 144.90 195.20 145.53 C 193.11 145.77 189.80 146.24 189.89 149.01 C 190.79 152.89 194.11 155.81 197.74 157.16 C 205.55 160.24 214.24 159.86 222.32 158.20 C 225.79 157.52 228.77 155.43 232.21 154.66 C 232.22 156.24 231.41 157.46 230.02 158.14 C 225.22 161.01 219.48 161.65 214.02 162.16 C 206.57 162.52 198.40 162.33 192.03 157.95 C 188.76 155.55 185.43 151.48 186.98 147.18 C 188.21 143.47 192.37 142.11 195.92 142.04 C 211.95 141.29 228.03 142.33 244.03 140.86 Z" />
</g>
</svg>
