<?xml version="1.0" encoding="UTF-8" ?>
<!DOCTYPE svg PUBLIC "-//W3C//DTD SVG 1.1//EN" "http://www.w3.org/Graphics/SVG/1.1/DTD/svg11.dtd">
<svg width="256pt" height="128pt" viewBox="0 0 256 128" version="1.1" xmlns="http://www.w3.org/2000/svg">
<g id="#000000ff">
<path fill="#000000" opacity="1.00" d=" M 211.78 4.94 C 211.99 4.20 212.40 2.70 212.60 1.96 C 214.45 3.47 217.07 4.71 217.41 7.37 C 218.41 12.45 219.17 17.78 218.05 22.91 C 216.64 28.45 212.35 32.55 208.40 36.42 C 205.91 38.64 201.64 40.56 198.66 38.40 C 195.31 33.40 196.96 27.01 196.81 21.38 C 195.70 21.83 194.69 22.41 193.77 23.12 C 193.59 26.57 193.82 30.14 192.45 33.40 C 189.48 40.69 186.47 48.21 181.18 54.17 C 179.53 56.03 177.58 57.90 175.04 58.38 C 173.02 57.84 172.13 55.73 170.78 54.33 C 167.54 57.88 165.10 63.28 159.91 64.16 C 154.99 64.26 152.40 59.69 149.41 56.59 C 147.49 64.60 142.04 70.88 137.35 77.39 C 135.52 79.89 132.31 81.54 129.19 81.08 C 125.76 80.06 124.86 76.20 123.41 73.39 C 120.82 75.60 117.73 77.28 114.21 76.55 C 112.87 82.97 112.69 90.14 108.66 95.60 C 107.06 98.52 102.57 97.16 101.75 94.32 C 99.92 89.36 101.78 84.07 101.39 78.95 C 101.09 74.32 102.96 69.83 105.82 66.26 C 107.75 67.24 109.82 68.02 111.58 69.30 C 112.61 70.84 113.10 72.66 114.05 74.25 C 119.33 73.59 123.91 68.48 123.42 63.04 C 123.20 53.18 123.67 43.28 125.38 33.55 C 125.74 31.59 126.16 29.59 127.17 27.85 C 131.21 27.35 134.14 31.06 135.42 34.45 C 136.88 39.20 135.69 44.18 135.08 48.97 C 134.21 55.45 131.40 61.45 127.98 66.96 C 126.58 68.93 127.17 71.37 127.57 73.55 C 127.94 75.15 128.03 77.16 129.92 77.68 C 133.81 75.78 135.86 71.80 138.84 68.86 C 143.02 64.70 145.46 59.27 148.09 54.08 C 150.08 50.20 148.86 45.69 148.68 41.56 C 146.75 42.80 145.12 44.52 142.99 45.43 C 141.67 45.11 140.75 44.11 140.17 42.94 C 141.23 40.05 143.81 38.09 146.02 36.08 C 147.33 34.77 149.56 33.90 149.61 31.78 C 149.89 26.37 149.16 20.95 149.68 15.55 C 150.85 15.84 152.03 16.10 153.23 16.32 C 154.06 20.52 154.58 24.77 154.89 29.04 C 160.88 25.08 166.89 21.08 172.19 16.21 C 174.15 14.03 177.53 14.40 178.98 16.94 C 177.39 19.64 174.90 21.68 172.25 23.28 C 166.75 26.68 161.93 31.02 156.62 34.67 C 154.79 35.85 153.21 37.79 153.48 40.09 C 153.79 44.84 152.61 49.65 153.71 54.34 C 154.43 56.64 155.49 58.81 156.55 60.97 C 162.47 60.16 166.06 54.45 169.17 49.92 C 169.16 45.35 168.27 40.57 170.09 36.19 C 171.12 33.44 173.61 30.58 176.81 30.95 C 178.88 31.75 179.86 34.00 179.82 36.10 C 180.35 40.42 176.51 43.34 174.98 47.03 C 173.09 49.03 172.91 51.74 174.65 53.93 C 182.08 48.12 187.30 39.84 189.93 30.83 C 191.12 26.96 188.33 22.48 191.03 18.99 C 192.98 17.99 195.12 17.42 197.13 16.58 C 198.98 17.96 201.53 19.34 201.49 21.99 C 201.30 25.95 199.01 29.79 199.97 33.79 C 200.94 34.92 202.25 36.15 203.63 34.82 C 212.21 30.15 216.88 19.58 215.03 10.07 C 214.77 7.93 212.93 6.60 211.78 4.94 M 128.52 37.21 C 128.05 44.68 126.37 52.13 127.32 59.65 C 130.83 55.17 131.23 49.14 132.58 43.78 C 133.94 39.43 132.68 34.90 130.86 30.89 C 129.37 32.68 128.65 34.91 128.52 37.21 M 172.68 42.80 C 174.68 40.95 175.59 38.35 176.22 35.78 C 173.47 37.01 172.82 40.08 172.68 42.80 M 108.00 70.53 C 105.69 75.31 105.63 80.74 104.92 85.90 C 104.55 87.93 104.91 89.96 105.28 91.95 C 108.63 87.38 109.84 81.56 109.61 75.97 C 109.52 74.07 109.63 71.85 108.00 70.53 Z" />
<path fill="#000000" opacity="1.00" d=" M 71.38 41.30 C 75.98 37.33 84.15 38.38 87.24 43.74 C 88.92 46.82 90.51 50.00 91.45 53.40 C 93.07 60.09 91.11 66.91 89.36 73.36 C 87.87 79.73 83.97 85.10 80.59 90.57 C 78.56 92.91 76.15 95.52 72.93 95.99 C 69.67 95.94 68.45 92.45 66.72 90.30 C 64.47 97.15 62.51 104.12 60.56 111.06 C 64.86 113.58 70.25 113.05 74.34 110.36 C 79.49 107.64 82.25 102.22 86.82 98.80 C 88.68 96.30 90.69 93.75 93.74 92.64 C 90.82 97.06 88.60 102.01 84.75 105.74 C 81.19 109.68 77.49 114.27 71.85 114.98 C 67.76 116.23 63.61 113.82 59.61 114.46 C 57.54 118.67 56.53 123.69 52.98 126.98 C 51.40 125.87 50.88 123.93 52.22 122.42 C 53.87 119.41 55.11 116.19 56.26 112.97 C 56.17 111.62 54.92 110.79 54.20 109.75 C 48.72 103.42 45.61 94.57 47.04 86.22 C 48.10 81.13 48.69 75.75 51.16 71.12 C 53.70 67.98 54.16 63.79 56.50 60.53 C 60.86 53.72 65.09 46.55 71.38 41.30 M 73.31 44.29 C 67.39 49.59 63.17 56.45 59.21 63.26 C 54.22 71.94 50.72 81.82 51.17 91.94 C 51.91 97.79 53.24 103.96 57.42 108.38 C 59.27 104.58 60.86 100.62 61.60 96.44 C 62.69 90.44 65.20 84.77 65.69 78.66 C 66.84 78.65 67.99 78.66 69.14 78.67 C 68.75 83.85 69.75 89.05 72.38 93.56 C 74.27 92.46 75.97 91.05 77.31 89.30 C 84.78 79.67 90.34 67.43 88.14 54.99 C 87.22 50.39 85.99 44.83 81.39 42.54 C 78.67 41.01 75.42 42.33 73.31 44.29 Z" />
</g>
</svg>
