<?xml version="1.0" encoding="UTF-8" ?>
<!DOCTYPE svg PUBLIC "-//W3C//DTD SVG 1.1//EN" "http://www.w3.org/Graphics/SVG/1.1/DTD/svg11.dtd">
<svg width="512pt" height="128pt" viewBox="0 0 512 128" version="1.1" xmlns="http://www.w3.org/2000/svg">
<g id="#000000ff">
<path fill="#000000" opacity="1.00" d=" M 90.55 13.36 C 105.32 11.90 120.31 11.76 135.05 13.61 C 139.57 13.41 144.14 13.85 148.36 15.57 C 155.92 17.27 163.00 21.02 168.59 26.40 C 174.19 31.60 174.36 40.98 170.05 47.03 C 165.57 53.60 158.64 57.81 152.17 62.16 C 144.38 68.35 134.34 70.38 125.02 73.04 C 123.05 75.10 122.81 78.17 121.77 80.73 C 118.21 90.47 116.43 100.82 111.63 110.10 C 108.63 109.18 108.24 105.66 106.55 103.44 C 103.45 98.30 97.71 95.58 94.37 90.67 C 93.77 89.25 94.22 88.73 95.75 89.13 C 100.80 93.95 106.70 98.14 110.22 104.33 C 114.19 96.92 115.46 88.42 118.69 80.70 C 119.36 78.29 120.71 75.71 120.07 73.21 C 116.92 71.67 113.14 71.03 110.76 68.22 C 109.03 66.56 109.49 63.97 109.21 61.82 C 102.80 61.44 96.37 62.33 89.97 61.60 C 77.54 60.34 65.26 55.51 56.05 46.94 C 53.00 43.79 49.60 39.74 50.59 35.02 C 51.72 31.17 54.47 28.03 57.60 25.62 C 67.05 18.35 78.77 14.56 90.55 13.36 M 98.99 16.03 C 89.66 16.33 80.39 18.33 71.73 21.80 C 66.03 24.76 59.44 27.11 55.75 32.73 C 54.30 35.00 52.37 38.01 54.32 40.59 C 59.96 49.12 69.62 54.07 79.25 56.71 C 92.21 60.42 105.77 58.31 119.00 58.19 C 121.26 58.11 123.62 58.79 125.81 58.08 C 128.45 53.51 129.79 48.34 131.98 43.56 C 132.97 44.77 134.95 45.92 133.80 47.69 C 130.92 54.70 127.41 61.55 125.96 69.06 C 135.11 68.42 143.27 63.57 150.98 58.98 C 158.41 54.32 165.74 48.62 169.47 40.44 C 171.23 36.79 169.28 32.79 167.39 29.63 C 164.10 24.19 157.88 21.62 152.02 19.99 C 140.68 16.47 128.72 16.09 116.96 15.31 C 110.95 14.82 104.99 15.89 98.99 16.03 M 113.30 63.44 C 111.45 65.02 113.45 67.19 115.01 67.98 C 117.12 68.95 119.57 69.53 121.89 69.18 C 123.88 67.10 124.03 63.81 124.26 61.06 C 120.32 59.55 116.73 61.73 113.30 63.44 Z" />
<path fill="#000000" opacity="1.00" d=" M 318.46 57.51 C 322.27 49.50 325.89 41.38 330.09 33.57 L 331.07 33.26 L 331.95 33.91 C 331.98 34.42 332.05 35.43 332.08 35.94 C 330.20 42.78 325.75 48.57 323.76 55.36 C 328.60 53.57 331.51 48.07 336.96 47.66 C 340.72 48.18 341.00 52.79 340.53 55.75 C 338.89 62.25 334.71 67.67 331.06 73.16 C 331.15 75.22 334.03 77.12 335.96 77.17 C 342.93 74.31 349.66 70.61 357.09 69.02 C 360.63 68.36 362.67 72.93 361.91 75.83 C 360.38 80.62 358.21 85.18 356.95 90.06 C 358.49 88.92 359.87 87.57 361.20 86.18 C 367.65 79.51 374.97 73.66 382.95 68.92 C 384.65 67.86 386.60 67.34 388.59 67.14 C 392.22 71.97 388.33 77.81 387.61 82.96 C 394.74 80.80 399.71 74.96 405.19 70.27 C 406.30 71.32 407.68 72.88 406.47 74.42 C 403.12 79.32 399.46 84.31 398.50 90.33 C 405.39 86.52 410.88 80.74 417.01 75.91 C 417.89 74.89 419.15 75.31 420.29 75.49 C 420.53 77.65 420.66 79.82 420.87 81.98 C 424.98 79.68 428.86 75.64 433.89 76.12 C 435.57 80.81 434.06 85.88 435.49 90.61 C 441.28 91.73 447.03 87.76 450.11 83.10 C 452.81 79.30 449.78 75.02 450.02 70.93 C 453.49 71.82 455.34 75.67 455.48 78.99 C 454.23 84.82 450.29 90.26 444.62 92.53 C 441.42 94.00 437.19 96.79 433.93 94.02 C 430.14 90.75 431.77 85.20 430.63 80.88 C 427.74 82.07 425.03 83.69 422.54 85.57 C 419.45 87.87 418.35 92.76 413.91 92.99 C 412.81 88.76 416.58 85.15 416.24 80.89 C 411.03 85.47 405.97 90.28 400.25 94.24 C 398.93 95.04 396.79 96.05 395.64 94.44 C 393.65 90.13 396.87 85.82 397.73 81.63 C 393.25 84.34 388.71 86.95 383.82 88.86 C 380.21 91.54 378.24 96.31 373.68 97.80 C 371.38 99.07 368.39 97.80 367.71 95.29 C 366.45 90.97 368.71 86.74 370.95 83.19 C 374.18 84.57 378.36 87.16 381.67 84.64 C 384.42 81.40 385.82 77.17 386.65 73.05 C 386.88 70.31 383.86 71.65 382.66 72.58 C 376.83 76.70 370.95 80.84 365.96 85.97 C 361.74 90.19 358.11 95.27 353.04 98.48 C 352.46 98.44 351.30 98.37 350.72 98.33 C 351.49 92.57 354.61 87.53 356.09 81.97 C 351.47 86.07 348.10 91.38 343.56 95.55 C 342.26 96.76 340.69 97.58 338.96 97.95 C 337.88 89.44 344.85 82.87 347.70 75.41 C 344.34 76.62 341.08 78.15 338.06 80.05 C 336.23 81.01 336.14 83.21 335.76 84.99 C 334.71 91.51 331.05 97.93 324.96 100.93 C 323.62 101.86 321.02 102.84 320.33 100.62 C 319.04 96.65 321.45 92.71 323.37 89.37 C 325.41 85.64 329.00 83.22 331.73 80.05 C 331.41 78.04 328.93 76.74 327.17 77.82 C 324.04 80.01 321.65 83.49 317.72 84.32 C 317.00 81.61 318.40 79.04 320.01 76.96 C 322.13 74.13 326.25 74.21 328.50 71.53 C 332.55 66.98 335.81 61.63 337.48 55.75 C 337.72 54.23 338.25 52.10 336.76 51.05 C 334.86 50.55 333.51 52.21 332.11 53.17 C 323.99 59.75 316.43 67.53 312.20 77.24 C 309.29 82.87 306.78 88.68 304.49 94.58 C 304.15 96.23 301.86 98.23 300.98 95.81 C 302.83 87.50 307.42 80.12 310.61 72.30 C 307.27 73.89 304.94 76.88 302.07 79.11 C 294.59 85.38 286.85 92.37 276.94 94.24 C 274.21 94.96 270.75 94.14 269.68 91.24 C 267.06 85.76 269.26 79.74 271.53 74.57 C 275.74 64.01 283.83 55.53 292.88 48.90 C 295.00 47.24 298.38 46.32 300.51 48.48 C 303.19 51.52 301.56 55.82 300.09 59.04 C 296.30 66.92 292.42 74.94 286.89 81.76 C 284.29 81.11 286.79 78.63 287.51 77.43 C 292.32 71.23 295.53 64.03 298.93 57.01 C 299.66 55.10 301.04 52.36 299.31 50.64 C 297.39 48.59 294.84 51.02 293.01 51.98 C 281.70 58.69 274.19 70.45 270.90 82.99 C 270.30 85.59 270.46 88.69 272.26 90.80 C 273.84 92.36 276.23 91.49 278.12 91.17 C 286.75 88.88 293.50 82.73 300.46 77.48 C 307.65 72.07 314.44 65.69 318.46 57.51 M 351.50 76.46 C 348.71 80.23 345.95 84.18 344.43 88.65 C 347.76 86.66 349.75 83.17 352.43 80.47 C 354.39 77.99 357.23 76.04 358.22 72.93 C 355.69 73.40 353.07 74.28 351.50 76.46 M 323.42 98.07 C 328.48 95.44 332.19 90.37 332.22 84.54 C 327.81 87.56 323.08 92.35 323.42 98.07 M 372.07 88.09 C 369.64 89.55 370.51 93.04 371.79 95.04 C 374.10 93.69 376.38 92.17 377.88 89.90 C 375.96 89.22 374.06 88.50 372.07 88.09 Z" />
<path fill="#000000" opacity="1.00" d=" M 412.25 41.87 C 413.39 41.64 414.51 41.71 415.62 42.09 C 415.62 43.38 415.61 44.67 415.58 45.95 C 414.53 45.98 413.48 45.97 412.43 45.92 C 412.34 44.57 412.28 43.22 412.25 41.87 Z" />
<path fill="#000000" opacity="1.00" d=" M 196.13 45.07 C 199.42 42.60 203.01 46.81 202.69 50.10 C 202.82 53.72 199.79 56.15 197.50 58.51 C 192.44 63.82 186.42 68.48 183.22 75.26 C 181.28 79.51 177.89 83.36 177.81 88.22 C 180.03 87.53 181.43 85.60 183.18 84.21 C 187.92 80.26 193.64 76.80 199.99 76.75 C 202.80 76.73 205.44 80.07 203.68 82.64 C 201.49 87.43 195.74 88.31 191.19 89.44 C 187.43 90.16 191.54 95.48 193.90 94.93 C 198.47 92.82 202.42 89.50 206.12 86.11 C 209.30 81.63 212.16 76.89 215.63 72.61 C 216.56 71.51 218.13 71.10 219.51 71.45 C 222.46 74.47 221.99 79.58 219.99 83.00 C 217.28 87.00 212.94 89.38 209.02 91.99 C 207.07 93.35 206.66 95.87 206.78 98.08 C 211.17 96.88 214.81 94.08 218.45 91.48 C 225.94 86.27 233.08 80.19 241.98 77.51 C 244.00 77.66 244.97 79.97 244.57 81.76 C 243.74 85.61 242.20 89.51 239.18 92.18 C 237.81 93.34 235.66 95.78 238.17 96.99 C 244.44 96.81 250.50 94.77 256.77 94.52 C 255.95 97.78 252.45 98.79 249.59 99.48 C 242.39 100.94 234.92 101.84 227.65 100.29 C 226.11 100.05 226.07 98.36 225.63 97.21 C 232.40 94.83 239.39 89.45 240.06 81.92 L 239.06 81.75 C 233.58 84.38 228.17 87.49 223.98 91.97 C 221.49 94.61 217.94 95.84 215.27 98.27 C 212.82 100.19 210.20 102.44 207.07 102.94 C 203.19 102.28 202.38 97.91 202.07 94.65 C 199.27 96.14 197.12 98.82 194.00 99.68 C 188.56 98.57 186.79 92.09 182.13 89.86 C 178.16 92.60 176.09 97.04 173.79 101.11 C 172.26 100.56 170.01 100.18 170.35 98.01 C 171.26 92.41 174.35 87.46 175.33 81.88 C 169.40 85.57 165.15 91.36 159.42 95.36 C 156.23 97.79 153.00 100.53 148.94 101.31 C 146.28 101.91 143.32 99.68 143.32 96.92 C 143.14 93.42 144.80 90.22 145.93 87.01 C 147.79 82.26 149.46 77.21 153.03 73.42 C 154.67 73.56 155.55 75.29 154.67 76.67 C 150.97 83.15 146.98 89.98 146.53 97.58 C 150.26 96.82 153.55 94.82 156.60 92.62 C 165.67 86.18 173.51 78.18 180.85 69.87 C 186.74 62.13 188.02 51.19 196.13 45.07 M 194.75 51.76 C 192.86 54.85 190.54 57.81 189.74 61.42 C 194.07 58.57 198.09 54.18 199.12 48.98 C 197.26 49.10 195.70 50.20 194.75 51.76 M 216.85 74.57 C 218.40 78.93 215.27 82.19 212.85 85.33 C 215.41 84.74 217.28 82.65 218.75 80.60 C 220.00 78.57 220.36 74.00 216.85 74.57 M 187.30 85.98 C 190.59 86.01 194.05 85.77 196.96 84.06 C 197.99 83.31 200.68 82.42 199.31 80.73 C 194.85 80.24 190.15 82.60 187.30 85.98 Z" />
<path fill="#000000" opacity="1.00" d=" M 161.50 63.91 C 161.36 62.18 162.13 61.52 163.81 61.93 C 165.61 63.05 165.97 65.14 166.10 67.08 C 163.98 67.17 162.68 65.39 161.50 63.91 Z" />
</g>
</svg>
