<?xml version="1.0" encoding="UTF-8" ?>
<!DOCTYPE svg PUBLIC "-//W3C//DTD SVG 1.1//EN" "http://www.w3.org/Graphics/SVG/1.1/DTD/svg11.dtd">
<svg width="256pt" height="128pt" viewBox="0 0 256 128" version="1.1" xmlns="http://www.w3.org/2000/svg">
<g id="#000000ff">
<path fill="#000000" opacity="1.00" d=" M 175.43 3.39 C 177.61 1.79 180.62 0.68 183.28 1.62 C 185.48 3.17 184.73 6.31 184.45 8.58 C 182.44 17.08 179.70 25.57 174.99 32.99 C 174.04 34.46 173.45 36.10 173.04 37.79 C 176.46 38.55 179.97 38.02 183.41 37.74 C 183.83 42.88 177.85 44.94 175.95 49.21 C 182.47 48.06 187.46 43.41 192.83 39.92 C 194.05 44.69 190.07 48.22 187.90 51.97 C 188.38 53.51 189.71 55.07 188.96 56.75 C 186.90 59.53 183.49 60.80 180.99 63.03 C 178.21 67.82 174.48 71.96 171.77 76.80 C 169.85 80.03 167.77 83.36 164.65 85.58 C 162.70 86.15 161.43 83.63 162.01 82.01 C 163.31 76.87 164.49 71.27 168.44 67.42 C 171.86 63.70 177.06 62.21 180.22 58.21 C 182.46 55.34 184.10 52.03 185.60 48.73 C 181.42 50.27 177.89 53.93 173.20 53.83 C 171.15 53.31 171.49 50.83 172.18 49.35 C 174.05 45.82 177.03 43.08 179.44 39.94 C 175.77 40.75 171.07 39.13 168.29 42.25 C 164.01 46.48 159.02 50.03 153.66 52.74 C 149.87 53.60 145.93 53.86 142.07 54.25 C 138.16 53.14 138.30 48.42 137.22 45.27 C 133.63 47.65 130.13 50.17 126.71 52.79 C 125.49 52.34 124.28 51.87 123.07 51.41 C 119.78 52.89 116.52 54.50 113.04 55.47 C 111.23 55.35 109.92 53.68 109.78 51.96 C 109.35 48.32 110.55 44.80 111.36 41.30 C 105.13 42.94 99.86 46.96 95.06 51.11 C 93.98 52.21 92.52 52.63 91.04 52.15 C 91.80 49.53 92.86 47.01 93.75 44.43 C 89.54 45.31 85.43 46.60 81.21 47.42 C 76.76 47.73 74.86 52.60 70.78 53.81 C 66.98 55.54 63.29 52.75 60.18 50.83 C 57.21 49.02 56.51 45.49 55.40 42.47 C 46.89 46.85 38.25 51.06 29.22 54.31 C 26.48 55.13 23.21 56.41 20.62 54.46 C 19.43 53.31 18.46 51.70 18.54 49.98 C 19.54 43.20 23.91 37.30 29.62 33.65 C 33.96 30.90 38.57 28.27 43.62 27.13 C 46.58 31.44 43.47 37.16 39.51 39.54 C 40.33 36.20 43.66 33.70 43.14 30.04 C 37.06 30.86 31.88 34.48 27.18 38.18 C 23.41 41.29 20.39 46.36 21.57 51.37 C 24.76 53.71 28.94 51.43 32.28 50.42 C 40.68 46.64 49.78 43.94 57.07 38.12 C 59.48 37.15 62.11 36.70 64.32 35.26 C 70.83 31.03 77.78 27.51 84.31 23.31 C 90.69 19.06 97.59 15.22 102.29 8.97 C 102.62 9.46 103.29 10.44 103.62 10.93 C 100.23 17.01 96.58 22.96 92.82 28.81 C 89.55 33.99 84.91 38.28 82.53 44.01 C 86.71 43.35 91.11 42.96 94.85 40.81 C 97.91 39.11 98.93 35.49 100.69 32.68 C 105.39 24.53 109.92 16.08 116.45 9.22 C 117.80 7.31 120.49 8.98 120.26 11.03 C 120.35 17.75 117.02 23.82 113.05 29.02 C 109.95 33.88 105.32 37.43 100.63 40.66 C 98.92 41.68 97.97 43.47 97.09 45.18 C 103.09 42.55 108.46 38.39 114.92 36.86 C 115.29 41.88 112.10 46.37 112.68 51.47 C 116.76 51.75 120.49 49.74 124.07 48.07 C 127.06 46.81 128.23 43.55 130.23 41.24 C 133.38 37.42 137.18 33.72 142.10 32.41 C 143.78 36.22 141.32 40.11 141.22 44.01 C 140.78 46.21 140.91 49.02 143.08 50.29 C 145.81 50.56 148.83 49.89 150.43 47.47 C 153.74 43.22 157.97 39.81 162.54 37.00 C 160.36 32.68 159.40 27.64 161.12 22.99 C 163.55 15.10 168.87 8.32 175.43 3.39 M 179.27 4.32 C 175.72 5.80 172.86 8.53 170.42 11.44 C 166.44 16.44 163.24 22.49 163.47 29.05 C 163.33 32.56 165.96 35.55 169.00 36.94 C 172.42 34.01 174.46 29.60 176.67 25.69 C 178.93 19.58 181.97 13.61 182.44 7.00 C 182.60 5.28 181.04 3.52 179.27 4.32 M 112.83 17.80 C 109.11 24.13 105.04 30.28 101.88 36.91 C 104.89 35.41 107.58 33.29 109.75 30.72 C 114.12 25.64 118.25 19.55 117.98 12.55 C 115.42 13.24 114.13 15.72 112.83 17.80 M 70.44 33.45 C 66.76 35.95 62.34 37.52 59.32 40.88 C 62.89 46.37 70.19 46.06 75.84 44.85 C 79.55 43.94 81.35 40.24 83.45 37.41 C 87.78 30.98 93.06 25.03 96.30 17.94 C 87.56 22.91 79.27 28.63 70.44 33.45 M 132.65 43.18 C 135.91 41.90 139.02 39.71 140.39 36.36 C 137.17 37.67 134.15 39.97 132.65 43.18 M 156.47 45.64 C 159.08 44.66 161.48 43.04 163.18 40.80 C 160.47 41.55 157.73 42.98 156.47 45.64 M 64.35 49.03 C 66.60 51.07 70.57 51.50 72.51 48.79 C 69.79 48.76 67.06 48.84 64.35 49.03 M 165.25 80.33 C 169.39 76.87 171.50 71.54 174.27 67.00 C 168.63 68.98 165.84 74.73 165.25 80.33 Z" />
<path fill="#000000" opacity="1.00" d=" M 110.94 86.99 C 114.70 81.42 120.11 77.31 124.11 71.93 C 127.02 74.41 124.47 77.83 123.52 80.59 C 120.62 88.12 115.03 94.16 111.67 101.44 C 119.23 97.24 125.14 90.51 132.96 86.73 C 134.58 86.90 135.26 89.28 134.50 90.59 C 131.96 96.02 128.21 100.81 124.06 105.09 C 124.93 106.96 125.78 108.83 126.75 110.65 C 129.99 109.74 133.53 109.42 136.32 107.38 C 138.96 105.61 139.82 102.22 142.33 100.33 C 143.77 99.19 145.69 99.45 147.41 99.41 C 148.43 101.89 149.25 105.01 147.37 107.33 C 145.49 109.96 142.03 110.23 139.19 111.14 C 139.20 112.41 139.23 113.67 139.28 114.94 C 144.05 115.80 148.19 112.37 152.09 110.13 C 157.58 107.04 159.61 100.77 162.62 95.64 C 166.34 89.22 171.35 83.15 178.02 79.69 C 178.58 79.67 179.69 79.62 180.24 79.59 C 181.36 84.19 178.63 88.46 176.04 92.01 C 172.08 96.39 168.30 100.96 163.82 104.82 C 161.32 106.76 160.57 110.12 160.80 113.13 C 164.30 113.65 167.67 112.37 170.69 110.71 C 173.61 109.05 177.07 107.90 179.05 105.03 C 183.69 97.73 187.37 89.70 193.28 83.29 C 195.28 81.33 197.33 79.08 200.25 78.64 C 201.06 81.96 199.86 85.25 198.02 87.98 C 194.61 93.18 191.78 98.89 187.11 103.12 C 184.45 105.85 180.72 108.19 180.22 112.30 C 179.71 113.99 181.03 116.09 182.92 115.80 C 187.21 115.35 191.60 114.41 195.46 112.44 C 197.21 109.81 198.19 106.70 200.31 104.31 C 202.70 101.57 206.22 99.66 209.89 99.62 C 213.26 100.62 213.22 105.78 210.64 107.65 C 207.30 110.27 203.55 112.29 199.79 114.22 C 200.02 116.77 202.67 117.82 204.94 117.31 C 214.61 114.94 223.67 108.97 228.35 100.00 C 230.29 101.38 229.31 103.75 228.58 105.53 C 222.81 113.96 213.73 119.75 203.99 122.48 C 199.67 123.43 197.46 119.40 194.73 117.17 C 189.91 118.02 185.25 120.74 180.21 119.89 C 176.70 119.10 176.57 114.95 175.33 112.25 C 170.15 115.12 164.40 118.68 158.22 117.05 C 156.44 115.83 156.75 113.54 156.48 111.69 C 151.21 115.15 145.82 119.60 139.22 119.72 C 135.36 119.46 134.38 115.32 134.62 112.14 C 131.98 112.83 129.00 112.98 126.76 114.67 C 125.28 117.42 123.89 120.74 120.58 121.69 C 118.30 122.55 116.43 120.65 115.11 119.06 C 116.48 115.31 120.24 113.66 122.96 111.10 C 121.87 110.21 120.90 107.70 119.14 108.72 C 117.05 109.49 114.95 110.35 112.67 110.28 C 112.65 107.68 114.41 105.51 116.83 104.72 C 122.34 102.79 126.88 98.37 129.22 93.05 C 121.40 97.22 114.87 103.41 108.38 109.38 C 105.23 112.33 103.35 116.35 100.30 119.39 C 99.41 120.45 97.70 119.98 97.17 118.79 C 97.78 115.11 99.67 111.80 101.80 108.80 C 107.70 100.65 113.50 92.36 118.20 83.45 C 115.85 84.14 114.52 86.28 113.06 88.06 C 109.15 93.11 104.66 97.65 100.15 102.15 C 92.57 110.13 82.96 116.24 72.48 119.62 C 68.76 120.95 63.44 119.15 62.61 114.95 C 63.05 107.22 66.46 99.52 72.58 94.61 C 77.19 89.88 82.85 86.18 89.23 84.32 C 94.38 83.18 97.18 90.70 94.27 94.27 C 92.26 96.61 90.40 100.12 86.86 100.04 C 87.94 96.85 91.14 95.02 92.29 91.86 C 93.42 89.85 91.20 87.04 88.98 87.63 C 83.19 89.22 78.64 93.42 74.11 97.14 C 70.19 100.26 68.30 105.12 66.80 109.75 C 66.39 111.60 65.75 114.14 67.60 115.45 C 70.03 116.20 72.63 115.61 74.99 114.88 C 89.40 109.29 100.90 98.42 110.94 86.99 M 164.85 99.30 C 169.79 95.69 174.16 90.93 176.55 85.24 C 171.01 88.06 166.61 93.32 164.85 99.30 M 187.93 97.04 C 191.33 94.27 193.97 90.54 195.63 86.49 C 191.86 88.90 189.69 93.08 187.93 97.04 M 143.46 103.93 C 142.53 104.48 140.87 105.50 141.43 106.79 C 143.22 108.16 146.66 103.42 143.46 103.93 M 200.91 109.06 C 204.39 108.93 207.85 106.94 209.34 103.73 C 205.66 103.10 202.33 105.84 200.91 109.06 Z" />
</g>
</svg>
