<?xml version="1.0" encoding="UTF-8" ?>
<!DOCTYPE svg PUBLIC "-//W3C//DTD SVG 1.1//EN" "http://www.w3.org/Graphics/SVG/1.1/DTD/svg11.dtd">
<svg width="512pt" height="128pt" viewBox="0 0 512 128" version="1.1" xmlns="http://www.w3.org/2000/svg">
<g id="#000000ff">
<path fill="#000000" opacity="1.00" d=" M 138.24 7.18 C 151.52 1.04 167.44 -2.29 181.43 3.55 C 185.30 4.70 187.04 8.86 187.67 12.51 C 188.83 19.91 185.11 27.03 180.73 32.70 C 175.91 37.55 171.87 43.37 165.81 46.81 C 162.91 48.45 159.72 50.48 156.24 49.87 C 153.20 48.98 152.08 45.67 150.90 43.08 C 143.61 52.13 137.07 61.77 129.81 70.84 C 128.93 72.58 126.79 71.56 126.36 70.02 C 126.87 69.03 127.52 68.14 128.30 67.33 C 134.28 61.46 138.91 54.36 143.28 47.24 C 146.55 43.16 149.86 39.07 152.68 34.65 C 154.43 31.77 155.75 28.61 157.83 25.93 C 158.82 24.87 160.61 25.16 160.36 26.89 C 158.44 33.28 154.65 39.42 155.78 46.36 C 160.63 47.31 164.82 44.29 168.15 41.17 C 174.09 36.45 179.43 30.92 183.47 24.47 C 185.34 19.58 186.87 13.78 184.20 8.88 C 183.35 6.71 181.01 5.64 178.88 5.17 C 173.31 4.01 167.69 2.41 161.95 2.96 C 149.73 4.40 138.75 10.35 128.22 16.33 C 119.56 22.41 112.12 30.84 109.07 41.13 C 107.73 47.77 107.84 54.64 108.76 61.33 C 109.71 65.44 111.93 69.18 114.39 72.56 C 118.36 78.34 126.29 79.44 132.77 78.61 C 141.17 76.96 150.26 75.87 157.07 70.16 C 158.59 62.55 163.69 56.41 168.85 50.88 C 172.05 47.50 175.65 44.27 180.10 42.68 C 182.18 41.84 183.89 43.63 184.84 45.27 C 184.39 46.62 183.52 47.75 182.74 48.92 C 185.21 54.66 180.48 59.78 180.57 65.46 C 182.04 65.12 183.46 64.52 184.55 63.44 C 189.82 58.68 194.48 53.26 198.28 47.25 C 199.93 44.56 203.49 46.18 206.04 45.83 C 208.52 45.80 212.65 45.69 212.85 49.07 C 211.18 54.54 206.44 58.91 206.73 64.97 C 213.04 63.35 217.92 58.75 223.23 55.24 C 227.37 52.53 230.53 48.46 235.10 46.42 C 236.63 49.49 235.00 52.44 234.12 55.40 C 237.36 55.33 239.70 52.81 242.42 51.40 C 245.10 49.68 248.20 48.88 251.35 48.62 C 251.55 53.03 249.50 57.13 249.48 61.53 C 257.53 58.29 263.77 51.68 271.98 48.70 C 273.12 48.90 274.22 49.24 275.28 49.73 C 274.74 54.82 271.88 59.25 271.18 64.30 C 277.92 62.37 283.56 57.94 289.71 54.71 C 292.60 53.42 294.39 50.79 296.54 48.62 C 299.09 47.51 301.92 48.40 304.56 48.67 C 309.32 49.68 314.23 49.61 319.04 49.01 C 320.73 48.70 322.93 48.96 323.79 47.09 C 321.17 44.08 317.79 41.65 316.01 37.98 C 312.56 31.14 313.55 22.97 316.11 16.01 C 318.83 8.83 325.04 2.31 332.98 1.49 C 337.37 1.23 342.57 1.74 345.53 5.42 C 349.95 10.90 353.03 17.86 352.51 25.02 C 352.23 32.19 347.76 38.14 345.91 44.89 C 343.79 48.91 340.54 52.21 337.95 55.92 C 335.09 60.03 331.47 63.66 327.01 66.02 C 323.87 67.52 321.58 70.68 317.98 71.19 C 315.53 71.61 313.30 69.43 313.45 66.98 C 313.66 61.89 318.23 58.60 319.55 53.90 C 315.84 52.38 311.80 53.28 307.92 53.10 C 305.62 53.28 302.55 52.81 301.10 55.06 C 299.73 58.41 301.20 62.66 298.42 65.48 C 295.71 68.14 293.07 72.23 288.74 71.64 C 287.71 67.15 290.56 63.15 290.91 58.78 C 284.62 58.76 280.11 64.14 274.71 66.74 C 271.93 67.97 268.45 72.22 265.65 68.98 C 266.48 63.67 269.17 58.90 270.39 53.69 C 268.91 53.22 267.10 52.51 265.81 53.80 C 260.43 58.08 253.82 60.97 249.74 66.71 C 248.40 68.17 246.30 70.92 244.33 68.83 C 244.49 63.61 246.06 58.52 245.80 53.27 C 244.14 54.03 242.86 55.35 241.45 56.47 C 238.65 58.79 235.04 59.89 232.29 62.28 C 230.33 64.03 229.03 66.36 227.13 68.16 C 226.32 69.26 224.76 68.75 224.02 67.86 C 224.98 63.48 227.93 59.84 228.97 55.46 C 220.60 58.05 215.36 66.11 207.29 69.34 C 205.76 70.14 203.50 70.08 202.57 68.41 C 201.24 66.62 202.12 64.35 202.50 62.40 C 203.50 58.21 206.09 54.68 207.51 50.65 C 203.93 48.88 199.50 49.91 197.46 53.42 C 192.28 61.18 185.65 68.03 177.63 72.85 C 176.11 73.84 174.28 72.98 173.41 71.57 C 173.29 68.61 174.71 65.85 175.23 62.98 C 172.18 64.96 170.30 68.22 167.32 70.29 C 164.56 72.29 161.53 73.88 158.59 75.57 C 157.78 74.74 156.99 73.88 156.21 73.01 C 154.56 74.18 152.89 75.40 150.94 76.04 C 144.67 77.85 138.73 81.15 132.04 81.17 C 127.58 81.09 122.48 82.31 118.63 79.40 C 114.79 75.87 110.28 72.55 108.41 67.47 C 105.40 59.97 103.33 51.56 105.34 43.54 C 106.76 36.64 109.43 29.59 114.95 24.92 C 121.36 17.45 129.68 11.89 138.24 7.18 M 333.48 4.60 C 329.64 5.42 326.53 8.15 324.19 11.18 C 319.72 17.11 318.38 24.77 318.05 32.01 C 318.76 36.36 321.75 40.11 325.01 42.95 C 329.18 46.38 334.90 45.78 339.88 45.09 C 342.55 44.60 343.93 42.07 344.76 39.74 C 346.44 35.15 349.34 30.89 349.66 25.89 C 350.24 19.96 348.05 14.09 344.70 9.29 C 342.31 5.71 337.72 3.67 333.48 4.60 M 177.23 49.32 C 170.43 54.75 163.71 60.99 160.97 69.53 C 165.06 68.19 167.71 64.57 170.88 61.87 C 175.45 57.91 178.33 52.54 181.97 47.82 C 180.34 48.12 178.56 48.19 177.23 49.32 M 328.43 53.42 C 323.42 56.18 318.38 60.46 317.63 66.49 C 321.33 66.62 323.91 63.65 326.75 61.74 C 331.16 58.13 335.77 54.28 338.26 49.03 C 334.99 50.51 331.85 52.26 328.43 53.42 M 291.63 68.13 C 295.97 65.36 296.35 59.74 296.88 55.12 C 294.39 59.09 292.74 63.59 291.63 68.13 Z" />
<path fill="#000000" opacity="1.00" d=" M 355.35 47.24 C 355.97 44.52 359.04 42.45 361.78 43.20 C 361.89 43.61 362.11 44.43 362.22 44.84 C 360.38 48.37 357.14 51.25 356.63 55.37 C 363.86 52.33 369.86 47.06 376.07 42.39 C 378.06 42.68 378.55 45.03 377.50 46.52 C 373.80 52.27 369.83 57.87 365.44 63.12 C 365.80 63.44 366.54 64.09 366.90 64.41 C 374.91 61.46 382.59 57.68 390.52 54.52 C 394.66 52.87 394.66 47.63 398.02 45.24 C 399.32 45.76 399.95 46.71 399.90 48.09 C 399.73 51.76 397.40 55.55 393.75 56.64 C 385.50 59.32 377.80 63.37 369.79 66.63 C 364.40 68.78 359.93 73.00 357.11 78.02 C 356.06 82.91 353.87 87.40 351.87 91.95 C 350.25 95.37 343.99 96.13 343.22 91.66 C 342.34 82.92 349.87 76.83 356.06 72.05 C 359.66 67.34 361.96 61.73 365.48 56.92 C 365.14 56.56 364.46 55.83 364.12 55.47 C 360.09 57.67 356.02 60.92 351.25 60.84 C 350.87 60.60 350.10 60.13 349.72 59.89 C 350.58 55.27 354.01 51.70 355.35 47.24 Z" />
<path fill="#000000" opacity="1.00" d=" M 162.59 84.59 C 167.32 78.65 174.87 75.99 182.14 74.84 C 185.46 74.84 188.67 76.03 191.68 77.34 C 196.61 79.52 200.00 83.86 204.10 87.18 C 208.25 83.51 208.95 76.99 213.95 74.32 C 213.83 79.76 210.45 84.23 208.65 89.16 C 207.76 91.48 209.31 93.63 210.68 95.36 C 213.95 99.30 215.14 104.40 216.84 109.11 C 217.81 112.25 218.96 116.56 215.81 118.89 C 209.44 123.48 201.26 121.09 194.01 121.79 C 190.38 122.07 188.59 125.68 186.31 128.00 L 185.82 128.00 C 181.34 124.61 175.20 121.78 174.44 115.51 C 178.82 115.50 183.12 117.17 187.51 116.64 C 189.89 116.28 190.19 113.60 190.93 111.78 C 187.08 112.24 183.19 113.56 179.30 112.60 C 172.56 111.19 165.55 108.36 161.47 102.53 C 158.25 97.10 158.34 89.48 162.59 84.59 M 180.30 79.28 C 174.41 80.30 169.00 83.64 165.21 88.24 C 162.16 91.87 162.06 97.48 164.57 101.42 C 167.04 104.70 170.50 107.51 174.65 108.19 C 179.98 109.12 185.37 110.16 190.81 109.75 C 193.58 109.08 194.37 105.85 195.73 103.71 C 197.84 99.34 201.41 95.24 201.64 90.26 C 197.90 82.56 188.83 77.67 180.30 79.28 M 205.31 95.81 C 203.40 97.89 202.35 100.57 200.93 102.97 C 198.63 107.52 195.77 111.91 194.63 116.94 C 198.99 119.15 204.27 118.01 208.98 117.76 C 211.95 117.86 215.36 115.30 214.43 112.06 C 212.97 105.94 210.78 99.47 205.97 95.15 L 205.31 95.81 Z" />
<path fill="#000000" opacity="1.00" d=" M 279.43 77.41 C 282.21 76.32 284.03 79.78 284.43 82.03 C 284.33 84.69 282.63 87.00 280.96 88.96 C 276.77 93.44 273.60 98.94 268.41 102.41 C 265.04 104.47 264.72 108.75 264.52 112.29 C 268.74 113.94 271.89 110.10 275.45 108.55 C 278.00 107.14 281.42 106.76 282.99 104.01 C 285.61 99.56 286.77 94.26 290.47 90.46 C 293.92 86.90 297.10 82.84 301.40 80.28 C 306.10 77.34 311.67 85.04 307.83 88.85 C 302.84 94.23 296.96 98.72 291.15 103.17 C 288.13 105.47 286.64 109.32 286.43 113.02 C 286.23 114.78 287.78 116.29 289.47 116.44 C 294.31 117.25 298.92 115.03 303.27 113.22 C 307.52 111.47 310.98 108.39 314.51 105.53 C 315.05 106.15 316.14 107.39 316.68 108.01 C 314.92 112.02 311.04 114.22 307.61 116.61 C 303.93 118.91 300.15 121.60 295.66 121.75 C 291.96 121.89 288.00 121.25 284.99 118.98 C 282.33 116.98 282.32 113.37 281.33 110.49 C 275.77 113.46 270.49 117.80 264.03 118.34 C 260.12 117.43 260.43 112.61 258.99 109.68 C 251.73 112.83 245.44 117.83 238.28 121.19 C 236.01 121.97 232.36 122.63 231.24 119.81 C 230.02 117.06 228.02 114.83 225.84 112.80 C 227.40 111.11 229.95 110.03 230.48 107.60 C 231.78 102.49 232.96 96.58 237.31 93.15 C 242.91 93.05 248.06 100.67 244.72 105.82 C 242.31 110.13 236.46 110.22 233.62 114.08 C 233.64 114.80 233.68 116.24 233.70 116.95 C 237.92 116.48 241.64 114.30 245.41 112.51 C 253.38 108.32 262.49 103.78 265.63 94.66 C 268.27 87.69 272.85 81.13 279.43 77.41 M 269.01 96.47 C 273.33 93.82 277.00 90.07 279.05 85.38 C 274.49 87.68 271.88 92.45 269.01 96.47 M 299.39 87.49 C 296.95 90.28 294.53 93.16 292.88 96.51 C 297.38 94.41 302.68 91.06 303.30 85.68 C 301.93 86.14 300.30 86.22 299.39 87.49 M 239.29 98.29 C 236.73 99.86 235.20 102.83 234.91 105.76 C 237.02 107.72 239.80 104.87 241.52 103.50 C 244.11 101.93 242.12 97.66 239.29 98.29 Z" />
</g>
</svg>
