<?xml version="1.0" encoding="UTF-8" ?>
<!DOCTYPE svg PUBLIC "-//W3C//DTD SVG 1.1//EN" "http://www.w3.org/Graphics/SVG/1.1/DTD/svg11.dtd">
<svg width="256pt" height="256pt" viewBox="0 0 256 256" version="1.1" xmlns="http://www.w3.org/2000/svg">
<g id="#000000ff">
<path fill="#000000" opacity="1.00" d=" M 42.06 34.19 C 44.90 33.23 47.23 31.16 50.03 30.21 C 55.40 31.18 59.31 35.64 61.90 40.17 C 64.05 43.57 64.23 48.01 62.65 51.68 C 61.59 54.39 59.39 56.38 57.66 58.65 C 53.13 64.39 48.51 70.31 42.19 74.19 C 39.99 75.56 37.44 77.47 34.71 76.46 C 31.79 73.54 30.66 69.41 30.13 65.43 C 25.50 67.85 21.55 71.33 17.14 74.10 C 14.72 75.57 12.69 77.59 11.27 80.04 C 17.15 85.27 25.65 83.14 32.50 81.40 C 38.75 80.18 44.38 76.99 50.59 75.70 C 49.95 76.79 49.28 77.85 48.57 78.89 C 46.25 79.75 42.10 79.56 42.20 82.89 C 35.95 83.94 30.42 87.80 23.97 87.89 C 20.36 88.13 17.08 86.46 13.69 85.51 C 11.35 85.02 9.95 82.89 8.17 81.48 C 6.70 82.68 5.26 83.92 3.85 85.19 C 2.73 83.92 1.64 82.62 0.60 81.28 C 3.20 79.02 6.44 77.05 7.59 73.62 C 9.47 68.44 11.30 63.15 14.76 58.77 C 20.44 51.26 26.16 42.80 35.34 39.32 C 38.13 38.32 39.19 35.03 42.06 34.19 M 45.31 37.27 C 39.60 41.15 33.57 44.73 28.79 49.79 C 25.96 52.98 22.15 55.27 20.08 59.10 C 17.91 62.91 14.91 66.25 13.36 70.38 C 17.39 69.15 20.61 66.38 24.09 64.14 C 28.21 62.20 30.00 57.30 34.67 56.21 C 35.96 57.44 38.53 58.77 37.22 60.87 C 35.63 64.44 34.17 68.19 34.42 72.18 C 39.51 71.71 42.93 67.60 46.94 64.92 C 51.32 60.57 54.72 55.34 58.60 50.54 C 63.69 45.64 59.77 35.83 52.91 35.03 C 50.16 34.34 47.53 35.83 45.31 37.27 Z" />
<path fill="#000000" opacity="1.00" d=" M 145.57 53.57 C 148.08 49.85 150.68 46.17 153.64 42.78 C 154.70 44.06 155.79 45.33 156.98 46.50 C 156.67 49.17 156.85 51.88 156.50 54.55 C 155.44 56.72 153.86 58.59 152.76 60.74 C 149.93 66.19 143.51 68.25 140.17 73.27 C 137.79 74.43 135.73 76.06 135.57 78.93 C 142.81 78.53 148.47 73.52 154.97 71.01 C 155.51 72.70 156.00 74.41 156.52 76.11 C 152.76 79.20 149.47 82.90 148.66 87.88 C 155.82 86.15 162.26 82.18 168.68 78.68 C 171.51 77.30 174.05 74.36 177.46 75.68 C 179.47 73.34 181.59 71.07 183.87 68.98 C 184.80 70.75 187.37 72.55 186.10 74.73 C 184.63 77.21 182.81 79.57 182.56 82.56 C 186.98 82.35 191.38 81.28 195.37 79.36 C 196.77 78.78 197.37 77.31 198.07 76.08 C 201.90 68.31 206.79 61.07 210.01 52.99 C 211.04 50.20 212.85 47.79 215.06 45.83 C 219.07 48.88 220.05 55.09 217.55 59.36 C 216.90 61.69 216.56 64.13 215.49 66.34 C 213.61 67.32 210.82 67.92 210.52 70.43 C 210.30 72.48 210.05 74.52 209.14 76.39 C 212.29 75.82 216.49 74.22 218.84 77.35 C 219.34 81.52 215.04 85.27 216.50 89.48 C 218.31 90.45 220.35 89.71 222.19 89.26 C 227.64 87.56 232.83 84.90 237.28 81.30 C 238.59 80.20 240.10 78.95 240.22 77.11 C 238.33 73.37 234.48 71.45 231.47 68.79 C 235.89 68.00 241.15 70.05 243.36 74.09 C 243.71 76.69 243.41 79.33 243.17 81.93 C 238.78 85.41 234.07 88.44 229.36 91.41 C 227.45 92.19 225.36 92.18 223.35 92.34 C 223.27 93.08 223.11 94.56 223.03 95.30 C 219.52 95.58 215.45 94.69 213.67 91.32 C 211.49 87.60 213.99 83.49 214.76 79.74 C 209.38 81.08 204.28 83.43 199.98 86.96 C 197.52 89.13 194.49 87.22 191.96 86.27 C 190.60 87.02 189.23 87.74 187.86 88.46 C 186.90 87.61 185.97 86.74 185.04 85.87 C 182.33 86.64 179.55 87.14 176.82 87.81 C 175.31 88.98 173.92 90.30 172.36 91.41 C 170.27 88.91 169.30 85.80 168.33 82.75 C 166.75 84.10 165.41 85.89 163.30 86.42 C 159.07 87.54 156.17 91.36 151.82 92.14 C 149.00 92.67 145.72 92.04 143.67 89.92 C 143.60 87.14 144.86 84.57 145.55 81.93 C 141.38 82.99 137.12 83.73 133.02 85.06 C 128.14 90.19 127.18 97.67 123.61 103.63 C 120.47 108.68 119.28 115.12 114.06 118.63 C 112.77 117.34 109.87 116.49 110.85 114.19 C 114.47 106.30 118.46 98.51 123.33 91.31 C 125.00 88.75 125.56 85.68 125.76 82.69 C 124.58 82.33 123.38 82.09 122.17 81.95 C 119.28 84.08 116.85 87.53 112.93 87.67 C 107.66 87.79 102.47 90.66 97.22 88.82 C 93.40 87.89 93.17 83.37 91.90 80.37 C 88.59 80.17 87.46 83.89 84.43 84.45 C 80.76 85.51 77.84 87.95 74.84 90.17 C 72.51 89.92 70.33 88.32 69.76 85.99 C 69.61 83.90 69.84 81.82 69.82 79.73 C 65.46 79.48 64.17 84.35 60.54 85.70 C 58.09 87.50 55.73 84.07 55.31 81.89 C 55.68 78.79 59.78 76.78 57.99 73.40 C 63.47 71.62 67.40 67.02 72.57 64.60 C 74.61 63.69 76.57 65.29 78.42 65.97 C 77.81 69.68 76.51 73.22 75.79 76.91 C 75.39 79.80 73.23 82.16 73.44 85.17 C 78.52 83.48 83.64 81.33 87.58 77.58 C 90.33 74.91 94.13 73.59 96.68 70.68 C 98.88 68.21 101.30 65.87 102.83 62.90 C 98.75 61.47 94.43 62.06 90.22 61.76 C 88.25 61.65 87.70 59.42 87.08 57.94 C 93.04 57.47 98.98 58.59 104.92 58.96 C 108.12 58.82 109.89 54.14 113.38 55.41 C 115.65 60.28 121.45 60.58 125.98 62.05 C 124.29 64.58 121.40 62.88 119.01 62.85 C 116.14 62.89 113.29 63.24 110.43 63.47 C 106.55 67.55 101.89 71.17 99.64 76.52 C 98.85 78.67 97.81 80.73 97.12 82.92 C 98.08 85.58 101.63 85.69 104.00 85.33 C 109.98 84.15 116.12 82.73 121.20 79.18 C 124.38 76.89 128.53 76.85 131.83 74.82 C 135.03 72.83 135.88 68.90 138.18 66.14 C 141.26 62.33 142.86 57.62 145.57 53.57 M 146.91 62.97 C 148.08 62.49 149.39 62.20 150.35 61.33 C 151.39 58.45 152.81 55.71 153.68 52.77 C 150.97 55.78 147.14 58.57 146.91 62.97 M 172.93 81.13 C 174.15 81.45 175.39 81.68 176.65 81.79 C 177.29 80.52 177.62 79.12 178.00 77.76 C 175.94 78.28 174.19 79.41 172.93 81.13 Z" />
<path fill="#000000" opacity="1.00" d=" M 171.04 60.32 C 168.34 58.43 166.54 54.49 169.94 52.25 C 170.98 52.93 171.97 53.66 172.93 54.45 C 173.22 56.56 172.61 58.83 171.04 60.32 Z" />
<path fill="#000000" opacity="1.00" d=" M 125.45 116.41 C 126.83 113.46 128.16 110.09 130.99 108.24 C 133.08 108.46 133.71 110.84 134.32 112.50 C 135.65 116.72 133.21 120.73 131.29 124.31 C 129.80 127.39 127.14 129.72 125.75 132.86 C 124.33 136.94 119.82 138.97 118.91 143.39 C 124.09 141.68 129.01 138.50 134.69 139.03 C 134.80 140.56 135.68 142.23 134.91 143.70 C 132.87 146.53 129.22 147.08 126.25 148.46 C 124.63 150.65 128.37 152.68 130.10 151.06 C 141.28 144.66 150.80 135.79 160.74 127.72 C 161.62 128.78 163.22 129.50 163.29 131.02 C 163.20 135.73 161.94 140.33 159.71 144.47 C 160.90 144.51 162.22 145.01 163.31 144.27 C 168.77 141.35 174.46 138.34 178.33 133.34 C 180.82 131.15 182.51 127.49 186.06 126.94 C 189.40 126.33 192.73 125.39 195.67 123.63 C 198.46 122.12 201.76 122.38 204.79 122.83 C 205.25 125.74 204.87 128.65 203.83 131.40 C 208.42 129.12 212.81 126.38 217.78 124.99 C 218.57 126.76 220.16 128.59 219.44 130.65 C 218.56 133.22 218.07 135.90 218.37 138.62 C 224.08 136.85 227.70 131.80 232.02 128.01 C 235.48 124.45 239.56 121.57 243.23 118.24 C 245.15 116.51 245.25 113.29 247.87 112.25 C 248.73 112.98 249.56 113.74 250.35 114.54 C 248.40 117.57 246.10 120.50 245.15 124.04 C 244.14 128.60 240.45 131.90 239.28 136.41 C 242.54 137.48 245.66 135.65 248.80 134.99 C 249.08 132.68 248.31 128.60 251.59 128.28 C 253.16 130.48 256.62 134.33 253.67 136.66 C 247.27 140.02 240.38 142.34 233.96 145.66 C 230.25 144.92 228.29 141.42 226.58 138.41 C 223.16 139.25 220.44 143.74 216.76 142.35 C 213.98 138.70 216.11 133.98 215.93 129.86 C 213.29 129.29 210.68 129.79 209.00 132.02 C 205.08 134.64 202.50 138.64 199.01 141.69 C 197.36 141.46 196.66 139.96 197.32 138.49 C 198.50 134.15 200.10 129.91 200.84 125.46 C 195.93 125.70 190.76 128.56 188.58 133.05 C 188.79 135.95 189.26 138.97 187.74 141.65 C 185.40 143.50 182.75 144.94 180.67 147.12 C 179.25 146.83 177.94 146.22 176.62 145.68 C 176.50 143.69 176.39 141.69 176.22 139.70 C 171.16 143.01 166.10 146.63 160.21 148.27 C 156.98 150.43 153.15 151.48 149.31 151.89 C 146.46 150.10 146.33 146.69 146.38 143.68 C 145.30 144.11 143.72 143.81 143.07 144.96 C 140.30 149.40 134.95 150.92 131.17 154.25 C 129.64 155.68 127.27 155.67 125.42 154.92 C 123.74 152.68 122.38 150.21 120.62 148.02 C 117.97 150.24 115.45 152.67 113.70 155.68 C 112.84 157.17 110.70 156.71 109.29 157.22 C 109.90 154.12 111.48 151.36 112.38 148.36 C 107.39 149.98 104.36 155.46 98.96 156.38 C 96.95 156.51 94.16 157.25 92.95 155.08 C 91.04 152.31 92.87 148.90 93.14 145.93 C 88.25 149.11 86.12 155.38 80.32 157.37 C 76.61 159.37 74.05 155.01 72.92 152.14 C 69.46 155.24 67.75 159.76 64.20 162.76 C 63.21 161.88 62.29 160.93 61.45 159.92 C 61.28 156.81 62.47 153.86 62.89 150.82 C 59.88 151.63 57.24 153.24 54.75 155.06 C 51.87 155.52 49.36 157.27 47.59 159.54 C 45.95 162.44 45.51 165.84 43.85 168.74 C 40.28 175.15 38.00 182.12 34.91 188.75 C 33.52 191.72 34.32 198.45 29.46 197.60 C 25.55 194.69 24.93 189.51 24.55 185.01 C 24.49 180.05 24.65 174.71 27.40 170.41 C 29.17 166.97 32.38 164.70 35.13 162.11 C 37.89 159.59 42.06 159.44 44.69 156.75 C 46.67 152.66 48.26 148.37 50.16 144.24 C 52.12 138.65 55.43 133.59 56.91 127.82 C 57.53 125.30 58.52 122.89 59.25 120.41 C 53.92 123.92 47.90 126.12 41.92 128.25 C 33.18 129.21 24.56 126.59 15.97 125.36 C 11.72 125.68 8.85 129.26 6.48 132.42 C 4.88 134.42 4.53 137.18 5.28 139.60 C 7.83 143.62 12.09 146.79 16.98 147.02 C 22.36 147.26 27.63 145.85 32.92 145.11 C 36.42 144.77 38.66 141.76 41.79 140.55 C 42.64 144.22 38.76 146.01 35.89 146.88 C 27.77 148.73 18.84 150.97 10.92 147.16 C 6.96 145.25 1.70 142.18 2.49 137.01 C 3.85 129.48 10.67 121.78 18.94 123.23 C 24.54 124.53 30.24 125.41 35.96 125.89 C 46.49 125.15 57.00 120.39 63.88 112.28 C 64.35 113.98 65.40 115.76 64.66 117.54 C 61.86 125.06 59.09 132.60 55.93 139.97 C 53.63 144.12 51.93 148.57 50.72 153.15 C 54.57 153.98 57.11 150.48 60.55 149.51 C 66.85 147.27 67.99 139.54 73.51 136.23 C 75.82 134.08 78.67 136.54 80.91 137.53 C 79.89 140.18 78.22 142.55 77.22 145.20 C 77.00 148.41 76.89 151.84 78.54 154.73 C 85.73 150.72 90.00 143.26 96.84 138.81 C 99.70 136.91 102.91 133.97 106.50 136.01 C 104.74 139.36 101.46 141.36 98.89 143.97 C 97.55 146.76 96.13 149.69 96.44 152.88 C 102.10 150.92 106.72 146.98 111.44 143.42 C 115.24 140.65 118.01 136.57 119.30 132.06 C 120.74 126.62 123.60 121.71 125.45 116.41 M 235.12 127.00 C 234.34 129.52 233.18 131.91 230.88 133.38 C 232.02 134.55 232.73 136.45 234.50 136.77 C 235.77 134.88 236.88 132.85 237.63 130.68 C 238.49 128.85 236.10 128.10 235.12 127.00 M 179.94 140.28 C 180.45 143.03 183.36 140.60 184.35 139.44 C 186.75 137.45 186.01 134.17 185.50 131.53 C 182.44 133.59 181.76 137.31 179.94 140.28 M 148.56 141.43 C 151.22 141.68 153.52 142.95 155.57 144.60 C 157.99 141.40 159.06 137.49 159.23 133.53 C 154.69 134.55 151.38 137.97 148.56 141.43 M 70.61 147.09 C 69.31 147.66 67.60 149.16 68.07 150.73 C 69.36 150.99 72.18 147.76 70.61 147.09 M 28.74 173.66 C 27.59 178.30 28.16 183.15 28.44 187.87 C 28.39 189.45 29.27 190.79 29.96 192.14 C 31.84 187.84 33.56 183.47 35.11 179.05 C 37.67 173.62 40.05 168.12 42.18 162.51 C 36.45 164.30 31.94 168.73 28.74 173.66 Z" />
</g>
</svg>
