<?xml version="1.0" encoding="UTF-8" ?>
<!DOCTYPE svg PUBLIC "-//W3C//DTD SVG 1.1//EN" "http://www.w3.org/Graphics/SVG/1.1/DTD/svg11.dtd">
<svg width="256pt" height="128pt" viewBox="0 0 256 128" version="1.1" xmlns="http://www.w3.org/2000/svg">
<g id="#000000ff">
<path fill="#000000" opacity="1.00" d=" M 81.82 9.85 C 83.81 7.70 86.09 4.42 89.49 5.55 C 92.74 6.80 94.42 10.27 95.93 13.18 C 97.08 19.25 95.31 25.68 91.62 30.58 C 88.45 34.74 84.84 38.99 79.69 40.65 C 79.81 37.20 83.59 36.63 85.55 34.54 C 90.19 29.87 94.42 23.85 94.21 16.98 C 93.89 13.69 92.88 9.74 89.67 8.13 C 87.05 6.97 84.95 9.67 83.46 11.45 C 78.76 18.36 75.09 25.90 71.22 33.28 C 65.63 44.02 58.84 54.06 51.68 63.79 C 55.68 65.10 59.86 65.54 64.02 66.05 C 68.94 66.60 73.87 68.01 78.84 67.07 C 82.81 61.56 85.79 55.33 90.04 50.00 C 92.96 47.08 96.18 44.23 99.98 42.53 C 104.15 43.23 104.62 48.38 102.15 51.11 C 99.64 53.93 98.93 57.70 98.62 61.34 C 103.96 57.62 106.98 51.62 111.09 46.74 C 113.00 46.59 114.92 46.78 116.83 46.93 C 117.73 47.90 118.46 49.01 119.24 50.07 C 117.70 53.45 116.11 56.84 115.32 60.50 C 122.73 56.49 129.29 50.97 135.22 45.05 C 137.33 47.95 136.02 51.06 134.71 53.95 C 138.27 52.18 141.26 48.73 145.60 49.20 C 148.11 52.87 146.38 57.27 145.87 61.24 C 148.39 59.62 150.98 58.10 153.41 56.34 C 155.96 51.58 157.93 44.93 164.02 43.76 C 166.65 42.80 168.42 46.36 167.43 48.50 C 166.16 53.12 161.97 55.83 158.50 58.70 C 163.71 58.12 168.07 54.85 173.25 54.09 C 176.27 51.64 179.00 48.56 183.02 47.69 C 182.70 40.47 184.70 32.95 189.40 27.37 C 191.21 25.47 194.35 22.78 196.90 25.01 C 199.63 28.61 197.68 33.43 196.17 37.15 C 192.01 46.42 188.06 56.37 180.20 63.20 C 178.07 65.19 174.07 66.56 172.08 63.67 C 170.66 61.82 173.21 57.29 169.97 57.34 C 165.48 59.67 161.38 63.44 156.07 63.64 C 154.49 62.64 153.78 60.80 152.76 59.32 C 150.37 63.48 146.12 65.68 141.79 67.30 C 140.99 62.16 144.85 57.83 144.69 52.72 C 143.08 52.82 141.35 52.96 140.11 54.13 C 137.03 56.66 134.23 59.56 131.76 62.70 C 130.97 64.24 129.23 64.41 127.70 64.50 C 128.14 60.99 129.56 57.75 130.58 54.40 C 125.55 57.66 121.01 61.67 116.01 65.01 C 114.80 65.78 113.31 65.66 111.94 65.83 C 110.82 60.28 114.62 55.42 115.45 50.10 C 114.67 50.16 113.11 50.27 112.33 50.32 C 107.73 55.78 104.92 63.29 97.98 66.33 C 94.91 65.08 96.40 60.79 95.71 58.19 C 90.87 62.98 85.24 66.80 79.71 70.70 C 74.06 71.41 68.41 70.23 62.84 69.38 C 58.19 68.54 53.42 68.08 49.01 66.26 C 47.31 67.37 45.65 68.53 43.98 69.67 C 40.23 68.72 35.91 67.91 34.03 64.06 C 34.54 62.82 35.15 61.60 36.06 60.59 C 39.86 60.34 43.23 62.64 46.99 62.65 C 50.39 59.83 52.87 56.07 55.67 52.68 C 66.02 39.42 70.96 22.76 81.82 9.85 M 185.97 48.44 C 189.44 46.53 190.55 42.59 192.27 39.31 C 194.07 35.64 195.72 31.63 195.14 27.46 C 188.60 31.93 185.22 40.64 185.97 48.44 M 86.63 60.76 C 90.24 58.80 93.18 55.88 95.95 52.90 C 96.94 51.72 98.76 51.83 99.78 50.68 C 101.20 49.34 101.58 47.36 102.11 45.56 C 94.81 47.56 89.51 54.03 86.63 60.76 M 156.69 55.94 C 160.46 53.79 164.17 50.80 165.78 46.66 C 161.55 48.21 158.72 52.09 156.69 55.94 M 174.23 60.70 C 177.85 58.80 181.63 56.48 183.45 52.64 C 179.14 53.40 175.35 56.35 174.23 60.70 M 36.57 65.03 C 38.63 66.28 41.00 66.71 43.38 66.50 C 41.93 64.45 38.75 63.78 36.57 65.03 Z" />
<path fill="#000000" opacity="1.00" d=" M 218.26 67.82 C 219.40 69.34 220.59 70.82 221.57 72.46 C 221.82 75.27 221.73 78.22 220.73 80.90 C 218.35 87.54 216.31 94.44 212.43 100.40 C 209.41 104.06 207.03 108.30 203.20 111.21 C 199.87 113.74 196.83 116.77 193.01 118.57 C 190.44 118.86 189.42 116.09 189.55 113.98 C 189.48 109.60 193.45 106.83 195.73 103.55 C 191.32 102.59 186.61 102.03 182.17 102.75 C 180.64 105.08 179.85 107.84 178.06 110.01 C 175.65 113.02 172.65 115.47 169.74 117.95 C 167.78 116.22 166.93 113.59 167.87 111.09 C 170.62 104.16 175.79 98.37 182.03 94.35 C 182.68 95.97 183.27 97.62 183.79 99.29 C 187.83 100.30 191.94 101.07 196.07 101.61 C 198.88 101.51 201.37 99.93 204.02 99.13 C 205.43 99.85 206.76 100.72 208.28 101.23 C 207.82 99.04 206.76 97.05 206.17 94.91 C 205.82 90.63 206.70 86.31 208.32 82.37 C 210.51 76.80 215.42 73.00 218.26 67.82 M 209.50 97.42 C 211.82 95.65 213.51 93.21 214.40 90.43 C 216.36 84.60 218.46 78.67 218.82 72.47 C 212.98 79.17 207.83 88.24 209.50 97.42 M 171.02 113.11 C 176.02 111.20 177.57 105.34 179.29 100.81 C 175.61 104.03 170.82 107.68 171.02 113.11 M 192.97 114.48 C 197.98 112.47 202.33 108.46 204.94 103.80 C 199.97 105.63 193.73 108.58 192.97 114.48 Z" />
<path fill="#000000" opacity="1.00" d=" M 167.55 79.53 C 169.76 76.93 171.47 73.97 173.26 71.08 C 176.62 73.34 174.00 77.02 172.69 79.68 C 169.62 85.23 168.25 91.54 164.95 96.98 C 162.50 101.09 160.85 105.65 158.01 109.53 C 160.11 109.62 162.23 109.70 164.33 109.89 C 163.69 113.00 160.40 114.34 157.54 113.60 C 153.75 112.57 149.98 114.88 146.22 113.68 C 142.99 113.14 140.46 110.98 138.02 108.96 C 131.13 112.93 124.50 117.80 116.55 119.39 C 112.64 120.35 108.36 119.29 105.27 116.76 C 102.06 114.08 101.93 109.39 102.73 105.61 C 106.33 94.90 115.13 85.97 126.07 82.84 C 130.02 82.00 135.01 84.03 136.34 88.06 C 137.29 92.49 134.03 96.19 131.37 99.30 C 130.43 100.67 128.99 101.39 127.34 101.49 C 128.70 97.17 133.28 94.59 133.86 89.92 C 134.59 86.73 131.04 84.11 128.09 84.98 C 117.20 87.68 108.82 96.93 105.54 107.44 C 105.05 109.81 104.89 112.57 106.39 114.62 C 108.46 116.89 111.92 117.04 114.75 116.48 C 122.08 114.71 128.80 111.12 135.20 107.25 C 137.91 105.68 136.53 101.69 139.03 100.01 C 140.58 98.09 142.56 100.57 144.07 101.31 C 153.18 95.60 160.60 87.64 167.55 79.53 M 157.23 94.22 C 153.68 97.99 148.87 100.29 145.67 104.41 C 147.83 106.20 150.05 107.95 152.54 109.28 C 156.47 105.40 159.22 100.59 161.52 95.61 C 162.96 92.29 165.37 89.19 165.39 85.44 C 162.63 88.35 160.78 92.10 157.23 94.22 M 141.43 108.63 C 143.41 110.27 146.00 110.60 148.48 110.46 C 146.92 108.81 145.30 107.20 143.79 105.51 C 142.71 106.40 139.84 106.84 141.43 108.63 Z" />
</g>
</svg>
