<?xml version="1.0" encoding="UTF-8" ?>
<!DOCTYPE svg PUBLIC "-//W3C//DTD SVG 1.1//EN" "http://www.w3.org/Graphics/SVG/1.1/DTD/svg11.dtd">
<svg width="256pt" height="256pt" viewBox="0 0 256 256" version="1.1" xmlns="http://www.w3.org/2000/svg">
<g id="#000000ff">
<path fill="#000000" opacity="1.00" d=" M 187.43 54.42 C 191.46 50.35 196.93 46.81 202.88 47.31 C 207.42 47.59 211.31 51.54 211.71 56.03 C 212.17 61.74 211.25 67.44 210.56 73.10 C 209.70 82.03 206.25 90.46 202.51 98.51 C 197.24 105.13 192.56 112.66 185.01 116.97 C 183.97 117.76 182.64 117.57 181.43 117.67 C 181.21 115.44 181.64 113.24 181.98 111.04 C 174.97 114.15 169.32 119.80 161.94 122.17 C 159.81 122.95 157.45 121.19 157.57 118.93 C 157.43 113.90 160.16 109.48 161.72 104.87 C 155.84 109.28 151.91 116.14 145.02 119.30 C 143.15 119.44 142.25 117.27 140.98 116.25 C 139.14 118.56 137.28 120.89 134.92 122.70 C 130.98 121.27 133.06 116.93 132.91 113.82 C 127.00 118.38 122.32 124.91 114.95 127.30 C 112.97 127.62 111.35 126.01 110.60 124.34 C 109.12 121.42 109.21 118.07 108.99 114.88 C 104.24 119.04 99.87 124.03 93.94 126.50 C 88.88 127.27 88.62 120.86 88.52 117.38 C 83.82 122.04 79.29 127.06 73.47 130.34 C 70.72 132.01 69.48 128.20 69.68 126.05 C 69.90 119.22 71.63 112.50 73.90 106.08 C 75.66 106.39 76.38 107.36 76.05 109.00 C 74.76 114.84 72.16 120.52 72.82 126.64 C 79.20 122.99 84.21 117.49 88.89 111.93 C 89.83 110.79 90.63 109.54 91.13 108.15 C 94.26 99.33 96.58 89.87 102.40 82.35 C 103.55 80.47 106.25 81.52 106.93 83.25 C 108.09 85.81 107.06 88.70 106.19 91.20 C 103.10 98.37 97.69 104.19 94.08 111.07 C 92.14 114.71 91.52 119.11 92.69 123.10 C 99.79 119.85 104.96 113.73 110.21 108.17 C 113.49 97.81 118.65 87.96 125.94 79.84 C 129.98 81.07 129.22 85.84 127.78 88.82 C 126.04 91.71 124.13 94.50 122.43 97.41 C 119.42 102.41 114.60 106.39 112.99 112.16 C 112.32 115.99 112.21 120.14 113.91 123.74 C 117.15 122.18 120.26 120.32 122.94 117.92 C 129.48 112.11 135.90 106.19 142.47 100.42 C 145.05 98.12 148.42 96.87 151.78 96.26 C 152.70 97.01 153.47 97.90 154.10 98.93 C 151.81 100.64 148.94 101.94 147.65 104.66 C 146.43 107.54 146.05 110.70 145.62 113.78 C 153.18 108.87 158.30 100.96 166.11 96.33 C 167.22 97.61 169.47 98.86 168.04 100.77 C 165.38 106.14 161.98 111.29 161.09 117.35 C 164.66 117.67 167.51 114.92 170.63 113.59 C 178.32 108.85 187.20 105.25 192.28 97.35 C 187.53 95.24 182.91 92.04 180.99 87.00 C 176.68 76.09 179.84 63.11 187.43 54.42 M 187.05 60.04 C 182.46 67.83 180.79 77.92 184.66 86.35 C 186.07 89.60 188.88 91.94 192.00 93.48 C 193.44 92.73 194.85 91.91 196.24 91.06 C 197.17 92.44 197.78 94.75 199.92 94.29 C 207.36 83.72 208.89 70.51 209.47 57.95 C 209.26 54.14 205.96 50.50 201.98 50.69 C 195.86 51.17 190.64 55.30 187.05 60.04 M 98.08 98.43 C 101.48 95.46 103.15 90.99 104.20 86.72 C 101.01 89.87 99.27 94.18 98.08 98.43 M 187.46 109.74 C 189.72 108.77 191.24 106.81 192.13 104.57 C 189.93 105.59 188.21 107.42 187.46 109.74 M 136.94 113.76 C 139.73 112.16 141.47 109.25 142.41 106.24 C 139.72 107.99 138.11 110.86 136.94 113.76 Z" />
<path fill="#000000" opacity="1.00" d=" M 222.11 67.74 C 225.48 68.34 224.06 72.22 223.58 74.47 C 221.46 80.26 218.60 85.99 214.26 90.44 C 216.59 82.79 220.52 75.66 222.11 67.74 Z" />
<path fill="#000000" opacity="1.00" d=" M 15.94 79.92 C 20.22 75.57 26.22 73.25 32.16 72.39 C 37.07 71.77 41.41 75.78 42.35 80.40 C 45.43 92.20 38.30 103.21 36.12 114.51 C 41.17 107.65 45.51 100.25 50.41 93.27 C 52.26 92.43 53.54 94.65 53.92 96.16 C 55.33 104.14 53.30 112.30 53.88 120.24 C 55.35 117.74 56.14 114.93 57.24 112.26 C 61.51 101.21 67.49 90.90 74.12 81.11 C 75.16 81.99 77.08 83.19 76.16 84.83 C 66.23 96.26 61.07 110.86 55.93 124.89 C 54.85 127.57 54.35 131.09 51.24 132.19 C 48.79 126.03 51.03 119.36 51.09 112.99 C 51.11 107.54 52.13 102.04 51.26 96.63 C 44.52 107.37 35.89 117.73 33.88 130.63 C 33.41 131.10 32.46 132.06 31.99 132.53 C 31.21 130.81 30.50 128.97 30.80 127.04 C 31.60 117.58 35.10 108.66 37.88 99.66 C 40.11 92.74 42.46 84.93 39.05 77.97 C 37.69 74.19 33.00 73.84 29.65 74.66 C 20.63 76.57 14.18 83.83 8.82 90.83 C 6.48 94.17 3.77 99.31 7.21 102.85 C 13.96 108.03 25.94 106.96 30.02 98.86 C 30.61 99.20 31.78 99.90 32.37 100.24 C 30.16 103.28 27.63 106.64 23.80 107.61 C 18.65 108.73 12.75 109.09 8.31 105.74 C 4.55 103.62 2.04 98.96 3.83 94.74 C 6.47 88.85 11.28 84.26 15.94 79.92 Z" />
<path fill="#000000" opacity="1.00" d=" M 79.84 87.81 C 81.79 88.45 83.67 89.26 85.47 90.23 C 83.66 91.37 81.82 92.46 79.94 93.48 C 79.54 91.61 79.44 89.69 79.84 87.81 Z" />
<path fill="#000000" opacity="1.00" d=" M 229.23 98.23 C 233.47 96.22 237.24 90.62 242.44 92.85 C 239.83 98.16 236.85 103.28 234.34 108.64 C 240.83 108.82 247.28 105.09 253.68 106.96 C 246.31 111.18 237.67 112.31 229.61 114.65 C 226.27 116.13 222.86 112.53 224.07 109.21 C 225.56 109.35 227.06 109.55 228.56 109.71 C 230.74 106.75 233.00 103.68 233.79 100.00 C 224.71 104.64 216.00 109.99 207.37 115.41 C 206.14 116.48 204.77 115.47 203.51 115.07 C 205.03 112.75 207.18 110.89 209.68 109.68 C 216.54 106.45 222.40 101.53 229.23 98.23 Z" />
<path fill="#000000" opacity="1.00" d=" M 178.18 136.46 C 179.10 137.03 179.99 137.66 180.83 138.35 C 180.88 140.39 180.15 142.34 179.80 144.33 C 184.23 144.12 188.11 141.91 192.11 140.28 C 193.18 141.25 195.21 143.10 193.54 144.45 C 188.60 148.03 182.23 148.53 176.64 150.66 C 174.55 151.54 173.76 153.85 172.75 155.70 C 169.50 162.44 165.92 169.43 165.75 177.07 C 170.35 174.97 173.07 170.71 174.89 166.19 C 177.98 167.91 177.62 172.18 175.52 174.56 C 173.19 177.21 170.71 179.89 167.58 181.59 C 165.29 182.67 163.12 180.52 162.51 178.45 C 161.10 175.28 162.25 171.84 162.47 168.57 C 158.47 171.87 155.18 176.02 150.70 178.72 C 145.36 182.15 138.94 183.38 133.75 187.09 C 127.41 190.03 121.91 178.85 127.88 175.39 C 130.54 176.85 132.92 178.90 135.96 179.55 C 137.98 175.46 138.94 170.82 138.15 166.28 C 133.25 168.33 129.26 171.98 124.88 174.90 C 117.39 180.09 111.30 187.40 102.89 191.18 C 99.78 192.66 98.23 189.03 96.73 187.06 C 92.96 189.25 89.63 193.14 84.98 193.09 C 79.97 192.48 77.73 187.50 74.97 183.98 C 73.27 181.70 69.57 183.34 67.97 180.99 C 67.03 179.44 66.76 177.20 68.18 175.83 C 70.94 174.33 73.65 178.39 76.32 176.34 C 82.55 171.50 89.39 165.25 89.55 156.76 C 87.28 157.22 84.97 157.73 82.95 158.93 C 74.78 163.78 67.56 170.57 63.15 179.08 C 60.78 183.61 59.42 188.58 57.13 193.14 C 56.51 192.92 55.26 192.46 54.63 192.24 C 54.30 189.83 54.04 187.29 55.07 185.01 C 57.73 178.71 61.74 173.08 64.29 166.72 C 61.10 168.99 58.40 171.86 55.47 174.44 C 48.25 180.71 40.56 186.46 32.34 191.36 C 28.71 193.40 24.45 195.69 20.22 193.97 C 15.19 192.07 14.05 185.74 15.22 181.06 C 16.98 173.61 20.44 166.38 25.90 160.93 C 28.94 157.70 32.27 153.96 36.98 153.52 C 40.54 153.31 42.72 156.93 42.74 160.11 C 43.29 167.51 37.85 173.39 33.74 178.92 C 32.66 177.64 31.79 175.82 33.14 174.38 C 36.59 169.19 41.09 163.47 39.82 156.83 C 34.57 156.48 30.47 160.64 27.36 164.36 C 22.02 170.73 17.57 178.47 17.57 187.00 C 17.35 189.50 19.44 191.86 22.02 191.54 C 28.59 190.99 33.79 186.50 39.17 183.16 C 48.21 177.47 56.36 170.46 63.92 162.95 C 70.37 156.40 73.17 147.51 77.06 139.42 C 78.70 140.18 80.76 141.57 79.82 143.68 C 78.11 150.04 73.72 155.28 71.86 161.61 C 76.85 158.80 81.24 154.63 87.02 153.47 C 91.03 152.88 93.85 157.27 92.81 160.88 C 91.35 169.79 83.59 175.27 77.40 180.97 C 79.02 183.54 80.29 186.46 82.59 188.50 C 84.44 190.01 86.73 188.30 88.52 187.52 C 91.50 185.55 94.92 183.77 96.89 180.70 C 97.90 174.18 99.64 167.27 105.09 162.97 C 107.77 164.11 110.52 166.60 109.90 169.82 C 108.29 174.96 104.75 179.24 100.95 182.96 C 99.63 184.13 100.61 185.92 100.89 187.32 C 114.68 180.20 124.75 167.45 139.04 161.17 C 143.80 165.54 141.28 172.59 141.60 178.23 C 145.70 176.83 149.59 174.72 152.84 171.83 C 159.27 166.31 165.67 160.24 169.05 152.30 C 164.69 151.94 160.33 152.56 155.96 152.50 C 151.84 152.67 147.57 152.17 143.63 153.69 C 141.50 154.78 140.27 152.15 139.02 150.93 C 144.75 146.55 152.35 149.18 158.94 148.54 C 163.09 147.89 167.41 147.82 171.41 146.51 C 174.51 143.85 175.77 139.69 178.18 136.46 M 129.04 180.69 C 128.10 182.04 130.35 183.96 131.62 183.04 C 132.48 181.70 130.28 179.85 129.04 180.69 Z" />
</g>
</svg>
