<?xml version="1.0" encoding="UTF-8" ?>
<!DOCTYPE svg PUBLIC "-//W3C//DTD SVG 1.1//EN" "http://www.w3.org/Graphics/SVG/1.1/DTD/svg11.dtd">
<svg width="512pt" height="256pt" viewBox="0 0 512 256" version="1.1" xmlns="http://www.w3.org/2000/svg">
<g id="#000000ff">
<path fill="#000000" opacity="1.00" d=" M 367.72 77.90 C 369.54 70.68 373.28 64.13 375.82 57.16 C 376.59 57.40 378.15 57.89 378.93 58.13 C 379.08 63.14 376.08 67.41 373.51 71.46 C 371.87 73.83 370.33 76.45 367.72 77.90 Z" />
<path fill="#000000" opacity="1.00" d=" M 138.05 67.03 C 141.26 66.36 142.99 63.45 144.74 60.98 C 145.38 61.31 146.66 61.96 147.30 62.29 C 146.23 66.39 144.43 70.26 143.23 74.33 C 141.30 80.77 139.99 87.40 137.68 93.73 C 136.02 98.27 134.77 102.94 133.59 107.62 C 137.57 105.40 140.22 101.56 143.70 98.71 C 147.84 95.31 151.31 91.23 155.04 87.43 C 155.98 88.27 157.60 88.78 157.67 90.26 C 158.27 97.41 154.82 104.15 155.24 111.29 C 155.74 110.99 156.73 110.38 157.22 110.08 C 167.33 95.16 178.27 80.82 189.06 66.40 C 189.97 67.23 190.85 68.09 191.71 68.98 C 185.39 74.81 181.39 82.54 176.43 89.45 C 173.41 92.88 170.04 96.11 168.22 100.39 C 163.08 106.91 159.85 114.73 154.86 121.37 C 153.09 120.89 150.81 120.16 150.70 117.96 C 150.01 110.46 153.22 103.25 152.76 95.78 C 149.72 96.78 147.77 99.42 145.59 101.58 C 142.33 105.00 138.95 108.30 135.75 111.77 C 132.70 114.95 132.12 119.67 129.07 122.84 C 125.72 122.51 127.07 118.71 127.39 116.51 C 131.02 100.32 138.20 85.12 141.18 68.76 C 138.41 69.20 135.66 69.78 132.88 70.11 C 133.09 67.46 136.23 67.95 138.05 67.03 Z" />
<path fill="#000000" opacity="1.00" d=" M 113.73 70.44 C 119.11 69.49 124.61 70.05 129.98 69.01 C 130.53 69.25 131.63 69.75 132.18 69.99 C 125.99 72.03 119.36 71.14 113.01 72.19 C 109.75 72.67 106.51 73.44 103.20 73.21 C 105.73 69.98 110.18 70.98 113.73 70.44 Z" />
<path fill="#000000" opacity="1.00" d=" M 223.29 81.26 C 227.24 78.24 227.23 72.41 230.86 69.02 C 232.00 69.92 233.87 70.46 233.94 72.20 C 233.32 74.94 232.09 77.50 231.62 80.28 C 237.31 80.85 242.73 78.81 248.00 76.99 C 249.64 77.36 252.78 77.41 252.15 79.85 C 244.96 82.14 237.72 85.13 230.05 84.97 C 226.25 84.91 225.43 89.13 223.65 91.61 C 220.88 95.44 219.11 99.82 217.10 104.06 C 216.02 106.45 215.08 109.01 215.24 111.68 C 216.42 113.74 218.73 111.91 220.25 111.27 C 233.87 103.72 246.55 94.51 260.58 87.69 C 262.73 86.24 264.80 88.61 265.75 90.35 C 265.78 93.46 263.90 96.15 263.29 99.12 C 263.68 99.45 264.47 100.10 264.86 100.42 C 268.06 99.77 271.28 99.16 274.43 98.32 C 280.70 94.33 287.67 91.33 292.93 85.91 C 298.26 83.15 304.72 84.45 310.31 82.47 C 312.94 81.68 315.69 83.93 316.68 86.23 C 316.92 90.12 313.55 93.09 313.23 96.92 C 312.66 98.59 315.14 98.80 316.07 99.56 C 319.21 96.60 322.87 94.36 326.94 92.91 C 329.84 90.91 332.40 88.23 336.02 87.46 C 336.59 89.10 338.03 90.92 336.78 92.62 C 334.63 96.69 332.27 100.69 330.85 105.09 C 330.61 107.54 332.82 111.71 335.73 109.86 C 339.63 108.00 343.88 106.06 346.28 102.27 C 347.99 99.66 347.41 96.38 347.78 93.44 C 351.81 93.71 354.88 100.56 350.34 102.35 C 347.38 103.32 348.06 107.18 345.61 108.59 C 342.78 110.41 339.96 112.26 337.10 114.03 C 333.72 116.07 328.60 113.92 327.93 109.96 C 327.20 105.19 329.21 100.61 330.70 96.21 C 330.53 95.86 330.19 95.15 330.02 94.80 C 325.87 97.88 321.72 101.06 316.91 103.05 C 313.99 103.97 312.36 107.38 309.13 107.49 C 306.27 106.36 306.92 102.97 307.77 100.71 C 309.47 96.33 310.90 91.85 312.13 87.31 C 306.88 86.48 300.88 85.91 296.54 89.62 C 296.16 93.14 297.70 96.86 296.29 100.35 C 295.05 105.86 289.96 110.36 284.20 110.19 C 279.08 107.35 283.26 101.21 284.00 97.04 C 280.87 95.75 278.77 99.29 275.94 100.01 C 270.68 101.75 265.61 104.06 260.22 105.38 C 256.69 106.15 255.11 110.02 251.89 111.39 C 249.13 111.85 246.20 110.22 244.82 107.85 C 244.15 104.91 245.27 101.79 244.02 98.95 C 243.03 100.61 242.08 102.40 240.24 103.25 C 232.65 107.62 225.77 113.23 217.74 116.81 C 215.11 118.03 211.43 116.96 210.84 113.86 C 210.63 110.63 211.94 107.53 212.27 104.34 C 206.26 108.36 201.47 114.69 194.02 116.13 C 191.82 115.56 190.37 113.67 188.72 112.26 C 185.81 114.11 183.63 117.41 180.11 118.06 C 176.59 116.74 174.10 111.88 176.26 108.45 C 178.86 102.80 181.11 96.13 187.07 93.15 C 189.40 91.06 191.28 88.30 194.25 86.98 C 196.82 86.01 199.29 87.78 201.52 88.85 C 201.42 89.70 201.23 91.40 201.14 92.26 C 199.80 91.42 198.73 89.56 196.97 89.78 C 194.47 90.84 192.40 92.66 190.17 94.17 C 185.23 97.53 183.07 103.35 180.49 108.47 C 179.51 109.80 179.64 112.54 181.88 111.97 C 184.47 109.88 186.78 107.44 188.85 104.83 C 191.16 101.99 192.23 98.31 194.88 95.72 C 195.88 96.36 196.72 97.14 197.42 98.07 C 196.39 102.82 192.90 107.16 193.77 112.23 C 200.73 109.58 206.05 103.95 212.14 100.05 C 214.76 95.16 219.58 91.53 221.03 86.01 C 217.18 84.98 213.11 85.16 209.88 87.69 C 209.34 86.10 207.63 84.15 209.36 82.70 C 213.83 80.65 218.78 82.63 223.29 81.26 M 247.10 98.98 C 249.88 100.03 252.73 102.20 255.84 101.30 C 258.81 99.23 259.92 95.52 260.15 92.06 C 255.23 93.09 251.04 96.01 247.10 98.98 M 287.07 102.21 C 288.01 102.44 289.39 103.44 290.08 102.19 C 292.68 99.64 293.69 95.94 293.21 92.38 C 291.17 95.66 289.41 99.11 287.07 102.21 Z" />
<path fill="#000000" opacity="1.00" d=" M 85.28 78.36 C 90.44 74.61 96.99 74.11 102.92 72.28 C 102.53 74.53 99.84 74.53 98.15 75.20 C 90.87 76.95 84.11 80.61 78.40 85.41 C 76.66 86.84 75.60 89.31 76.55 91.50 C 78.08 95.19 81.80 97.24 85.35 98.59 C 91.42 101.05 98.69 101.95 104.62 98.63 C 109.29 96.29 111.88 91.59 115.08 87.73 C 115.60 87.75 116.66 87.78 117.18 87.80 C 115.94 93.43 111.40 97.73 106.73 100.76 C 100.20 104.88 92.02 103.36 85.19 100.88 C 80.69 99.04 75.73 96.62 73.76 91.85 C 72.68 88.83 74.61 85.75 76.56 83.56 C 78.85 80.91 82.28 79.92 85.28 78.36 Z" />
<path fill="#000000" opacity="1.00" d=" M 404.70 86.72 C 408.71 84.12 413.15 82.21 416.88 79.18 C 418.14 80.40 419.41 81.62 420.63 82.90 C 417.20 87.99 414.57 93.57 412.33 99.27 C 416.23 99.10 420.62 100.48 424.06 98.06 C 426.84 96.41 430.05 95.57 432.69 93.69 C 434.38 91.71 435.28 89.20 436.59 86.96 C 438.16 88.06 440.25 89.47 439.67 91.72 C 438.28 95.02 435.99 98.30 432.49 99.57 C 429.44 100.79 426.56 102.53 423.31 103.19 C 419.25 104.05 415.07 103.58 410.96 103.77 C 408.14 103.59 406.34 106.17 403.84 106.99 C 400.16 107.24 396.64 102.75 398.23 99.32 C 401.00 97.59 404.86 101.19 407.17 98.20 C 409.31 95.47 410.64 92.20 412.00 89.04 C 407.74 89.36 403.94 91.41 400.14 93.16 C 390.80 97.69 380.92 101.15 371.88 106.26 C 371.13 104.65 371.45 102.96 373.17 102.22 C 376.06 99.83 379.89 99.16 382.83 96.83 C 387.64 94.66 392.85 93.20 397.32 90.33 C 399.45 88.49 402.37 88.21 404.70 86.72 Z" />
<path fill="#000000" opacity="1.00" d=" M 202.36 125.41 C 207.47 122.89 213.25 121.47 218.95 121.88 C 227.46 122.85 233.34 130.65 235.54 138.38 C 237.16 147.32 231.06 155.19 225.10 161.11 C 220.33 165.40 215.44 170.42 208.91 171.70 C 206.40 172.43 204.22 170.29 203.83 167.94 C 203.02 163.30 204.39 158.68 205.00 154.10 C 201.80 155.78 199.91 158.95 197.49 161.50 C 191.91 167.58 185.91 173.27 180.28 179.32 C 179.35 180.52 177.73 181.88 178.45 183.58 C 180.56 189.31 187.52 191.15 193.02 190.20 C 205.78 188.05 217.14 181.44 228.39 175.41 C 231.94 173.51 235.82 172.30 239.34 170.33 C 243.46 168.16 246.97 165.05 251.06 162.84 C 251.72 163.74 253.48 164.47 252.89 165.84 C 251.79 170.33 250.40 174.74 248.95 179.14 C 248.14 181.45 249.52 184.78 252.24 184.87 C 256.41 184.93 259.76 182.07 263.33 180.33 C 266.96 178.14 271.52 176.51 273.32 172.33 C 279.50 158.63 289.53 147.05 300.11 136.55 C 302.79 136.75 302.19 140.13 302.39 142.04 C 301.20 149.05 296.47 154.74 292.10 160.09 C 289.96 162.62 288.46 165.74 285.71 167.68 C 282.01 170.29 278.64 173.34 275.68 176.75 C 273.98 178.63 274.21 181.30 274.43 183.64 C 276.26 183.89 278.21 183.91 279.77 182.75 C 284.05 180.03 289.09 177.52 291.53 172.89 C 290.50 169.47 291.70 165.98 294.96 164.28 C 296.84 165.06 298.56 167.15 300.77 166.51 C 304.97 165.34 309.15 164.03 313.17 162.32 C 313.88 163.14 314.57 163.98 315.25 164.83 C 312.29 167.82 310.42 171.62 308.07 175.07 C 306.67 177.06 306.33 179.51 306.06 181.86 C 307.91 181.85 309.89 181.74 311.39 180.51 C 316.72 176.43 322.95 173.53 327.64 168.64 C 328.93 167.37 330.41 166.28 332.04 165.48 C 333.88 165.28 335.25 167.27 334.10 168.84 C 333.08 172.24 330.44 174.76 328.93 177.91 C 337.65 175.65 343.20 167.11 352.14 165.10 C 354.70 169.96 350.67 175.26 351.85 180.44 C 357.82 180.42 362.80 176.38 367.31 172.89 C 366.78 171.20 366.14 169.55 365.55 167.88 C 366.67 167.31 367.78 166.68 368.99 166.28 C 371.95 167.66 373.49 172.37 370.58 174.64 C 365.35 179.10 359.61 183.35 352.93 185.31 C 350.89 185.63 348.18 185.76 346.91 183.79 C 346.56 179.03 349.12 174.61 349.23 169.89 C 346.18 169.85 344.55 172.76 342.23 174.25 C 337.35 177.72 332.56 181.33 327.50 184.54 C 326.02 185.69 323.84 183.87 324.48 182.20 C 325.04 180.04 325.75 177.91 326.02 175.69 C 324.06 175.69 322.28 176.54 320.86 177.85 C 316.84 181.33 312.31 184.19 307.55 186.54 C 305.67 187.46 302.78 186.90 302.41 184.53 C 301.58 178.20 306.18 173.15 308.64 167.77 C 303.44 169.39 297.75 170.78 293.85 174.84 C 291.67 177.02 290.67 180.26 287.96 181.93 C 283.62 184.53 279.53 188.55 274.07 188.13 C 270.88 187.83 270.38 184.21 269.77 181.74 C 262.74 182.77 257.75 190.53 250.20 188.66 C 246.91 188.24 245.33 185.10 243.93 182.50 C 240.82 185.06 238.35 188.42 234.89 190.51 C 233.45 191.52 231.80 189.45 232.39 188.02 C 232.67 183.65 235.11 179.90 236.77 175.98 C 236.51 175.76 235.98 175.33 235.72 175.12 C 230.73 176.57 226.72 180.09 221.85 181.83 C 212.95 187.33 203.31 191.93 193.04 194.16 C 188.07 195.27 182.13 194.41 178.87 190.12 C 177.14 187.71 175.30 185.34 173.80 182.79 C 171.68 171.14 174.51 159.14 179.53 148.60 C 185.40 139.45 192.64 130.62 202.36 125.41 M 196.30 133.27 C 190.66 138.04 185.51 143.58 182.26 150.28 C 177.83 158.28 174.65 167.65 176.19 176.85 C 176.60 176.88 177.43 176.93 177.84 176.96 C 188.64 166.31 199.86 155.84 208.41 143.22 C 210.18 142.61 210.64 144.42 210.05 145.74 C 207.60 152.61 205.91 159.96 206.82 167.28 C 209.21 167.38 211.67 167.00 213.76 165.76 C 221.64 160.84 228.92 154.30 232.65 145.62 C 234.05 142.33 233.42 138.48 231.37 135.61 C 227.99 130.77 222.97 126.66 217.03 125.65 C 209.45 125.25 202.01 128.41 196.30 133.27 M 293.70 147.72 C 287.69 154.51 281.90 161.66 277.83 169.80 C 280.71 168.11 282.80 165.45 285.24 163.23 C 290.62 157.79 296.90 152.14 298.51 144.33 C 296.59 144.96 294.97 146.18 293.70 147.72 M 238.68 181.41 C 242.24 178.89 244.81 175.23 246.56 171.29 C 242.63 173.31 239.06 176.77 238.68 181.41 Z" />
<path fill="#000000" opacity="1.00" d=" M 322.17 151.24 C 323.80 147.91 325.21 143.79 329.02 142.39 C 331.52 145.53 328.70 149.11 326.14 151.09 C 325.03 152.29 323.48 151.53 322.17 151.24 Z" />
</g>
</svg>
