<?xml version="1.0" encoding="UTF-8" ?>
<!DOCTYPE svg PUBLIC "-//W3C//DTD SVG 1.1//EN" "http://www.w3.org/Graphics/SVG/1.1/DTD/svg11.dtd">
<svg width="512pt" height="256pt" viewBox="0 0 512 256" version="1.1" xmlns="http://www.w3.org/2000/svg">
<g id="#000000ff">
<path fill="#000000" opacity="1.00" d=" M 352.45 9.34 C 354.94 8.63 357.31 10.36 359.04 11.97 C 361.53 14.50 364.05 17.01 366.31 19.74 C 371.46 29.20 372.36 40.34 370.98 50.84 C 369.57 54.62 367.10 57.91 365.82 61.75 C 364.49 65.39 361.83 70.03 357.23 68.87 C 355.54 65.10 355.24 60.77 356.90 56.93 C 358.54 52.81 361.68 47.88 366.78 48.50 C 368.61 38.98 368.57 27.90 361.82 20.21 C 359.48 17.86 357.38 14.34 353.70 14.27 C 353.33 18.86 352.09 23.36 352.24 27.98 C 352.12 33.23 353.28 38.37 354.47 43.45 C 355.91 44.25 357.35 45.05 358.77 45.91 C 357.63 47.24 356.15 49.15 354.15 48.18 C 351.53 46.87 350.52 43.84 349.92 41.16 C 348.01 32.67 347.76 23.78 349.35 15.21 C 349.89 13.09 350.29 10.46 352.45 9.34 M 362.29 54.33 C 360.45 57.78 357.27 62.09 359.88 65.96 C 360.69 64.05 361.25 62.03 362.15 60.16 C 363.51 57.43 365.98 55.18 366.17 51.97 C 364.57 52.19 362.95 52.70 362.29 54.33 Z" />
<path fill="#000000" opacity="1.00" d=" M 332.08 61.04 C 335.58 58.80 334.69 53.36 338.79 51.76 C 342.86 55.20 343.79 60.66 343.79 65.69 C 342.62 69.73 341.23 73.71 339.63 77.60 C 339.14 79.15 337.25 79.09 336.01 79.58 C 333.66 74.31 333.88 68.50 333.75 62.87 C 331.43 63.67 330.11 65.80 328.19 67.15 C 325.01 68.93 322.05 71.05 318.89 72.86 C 317.06 73.90 317.12 76.19 316.93 78.01 C 316.71 81.97 314.87 85.59 314.25 89.49 C 312.84 89.91 311.40 90.27 309.95 90.53 C 307.09 82.65 308.10 73.45 311.82 66.03 C 313.88 67.32 316.00 70.77 318.71 68.87 C 323.20 66.34 327.91 64.09 332.08 61.04 M 337.34 59.19 C 337.98 62.73 337.63 66.32 337.86 69.89 C 340.99 67.27 340.89 62.68 340.09 59.04 C 339.68 56.66 337.91 57.43 337.34 59.19 M 312.92 72.66 C 311.80 77.23 309.59 81.93 311.11 86.69 C 312.90 81.92 315.12 76.87 313.99 71.64 C 313.72 71.90 313.19 72.41 312.92 72.66 Z" />
<path fill="#000000" opacity="1.00" d=" M 291.24 74.72 C 291.21 72.99 292.04 71.43 292.79 69.92 C 296.47 72.28 296.42 76.73 297.43 80.50 C 298.22 83.50 296.54 86.39 296.19 89.34 C 295.70 92.81 294.03 96.41 290.82 98.14 C 287.33 98.79 285.33 95.09 283.05 93.14 C 281.52 96.82 280.47 100.83 277.99 104.02 C 277.14 105.21 275.63 104.89 274.38 104.96 C 273.32 101.61 272.56 98.17 271.58 94.79 C 265.30 100.62 263.45 110.10 256.00 114.76 C 254.43 113.69 253.12 112.33 251.98 110.84 C 248.18 113.56 243.84 116.50 242.09 120.99 C 241.08 128.11 240.23 135.33 238.18 142.25 C 236.25 146.56 231.29 150.21 226.44 148.61 C 221.89 145.78 218.84 139.05 222.18 134.20 C 226.83 128.89 231.61 123.65 236.69 118.73 C 239.15 115.21 237.97 110.71 237.01 106.89 C 233.08 111.36 230.75 117.30 225.63 120.74 C 223.30 121.83 221.24 119.15 221.88 116.96 C 222.72 110.52 224.74 103.60 229.85 99.24 C 231.24 100.14 232.62 101.08 233.99 102.03 C 235.32 101.68 237.11 100.25 238.33 101.57 C 241.82 104.55 241.46 109.51 242.87 113.51 C 246.30 111.03 250.06 108.16 251.26 103.91 C 251.76 98.80 250.60 93.34 253.27 88.64 C 256.99 90.11 260.00 93.91 259.99 97.99 C 259.75 101.77 254.19 103.40 255.70 107.45 C 263.79 101.61 266.16 90.80 273.75 84.55 C 276.25 87.68 275.82 91.71 276.07 95.45 C 280.63 92.65 280.48 86.43 282.77 82.05 C 286.61 84.89 285.30 90.12 288.28 93.46 C 291.99 90.59 293.25 85.47 293.53 81.00 C 293.93 78.58 292.13 76.76 291.24 74.72 M 254.77 92.73 C 254.47 96.00 254.40 99.29 254.25 102.57 C 256.73 99.84 257.74 95.52 254.77 92.73 M 229.19 103.74 C 227.33 108.06 225.23 112.39 224.65 117.11 C 228.11 113.81 230.51 109.58 233.40 105.80 C 232.02 105.07 230.62 104.38 229.19 103.74 M 227.44 134.43 C 225.00 136.22 223.20 139.55 224.38 142.52 C 225.94 145.69 230.59 144.73 232.32 142.25 C 235.81 137.18 237.34 130.82 236.88 124.71 C 233.13 127.33 230.97 131.56 227.44 134.43 Z" />
<path fill="#000000" opacity="1.00" d=" M 202.38 74.43 C 203.33 72.23 206.39 70.20 208.36 72.49 C 215.57 79.57 217.56 90.90 214.66 100.39 C 213.41 104.53 213.78 108.95 212.45 113.08 C 214.09 112.55 215.72 111.97 217.38 111.47 C 216.94 112.63 216.29 113.64 215.42 114.50 C 211.76 117.85 209.03 122.28 207.94 127.13 C 206.67 130.30 204.77 133.24 202.64 135.89 C 200.02 137.68 198.57 133.97 198.15 131.95 C 197.40 125.62 199.86 119.54 202.46 113.91 C 200.49 106.10 198.27 98.13 199.00 89.96 C 199.45 84.69 200.06 79.25 202.38 74.43 M 207.07 76.59 C 202.71 82.13 203.47 89.43 203.00 96.02 C 202.73 100.10 203.82 104.11 205.07 107.96 C 205.41 109.53 206.95 110.19 208.12 111.06 C 210.46 103.92 211.84 96.45 212.23 88.95 C 212.50 84.29 210.48 79.73 207.07 76.59 M 203.08 125.22 C 205.04 123.09 206.15 120.32 206.42 117.45 C 204.03 119.32 203.38 122.37 203.08 125.22 Z" />
<path fill="#000000" opacity="1.00" d=" M 147.26 97.64 C 149.07 98.27 151.18 99.19 151.38 101.38 C 152.37 107.97 152.08 114.67 152.68 121.29 C 155.53 118.60 157.33 114.83 160.73 112.74 C 164.60 110.58 169.92 113.60 170.04 118.05 C 171.30 123.91 166.48 128.15 163.60 132.58 C 161.16 136.17 157.56 138.71 154.80 142.00 C 156.24 144.31 158.78 145.58 160.99 147.04 C 162.79 148.04 165.09 149.79 167.03 148.04 C 173.98 142.59 176.98 133.96 182.01 126.98 C 183.49 124.77 184.18 122.19 185.04 119.71 C 187.01 120.31 189.57 121.52 189.15 124.01 C 188.48 127.40 188.38 130.85 188.54 134.29 C 190.17 133.75 191.79 133.16 193.44 132.66 C 191.75 136.19 191.42 141.94 186.32 141.96 C 184.57 138.84 184.37 135.25 183.88 131.79 C 182.55 132.02 181.60 132.90 181.25 134.19 C 179.38 139.03 176.15 143.13 173.59 147.60 C 172.28 149.93 170.14 151.73 167.75 152.88 C 160.93 153.30 156.51 147.31 150.65 144.98 C 149.25 149.41 148.16 153.96 148.03 158.63 C 147.21 158.78 145.58 159.07 144.76 159.22 C 142.64 153.40 143.91 147.19 145.25 141.36 C 147.56 131.14 148.18 120.61 147.89 110.17 C 145.92 112.35 145.97 115.49 144.94 118.12 C 140.42 131.42 138.09 145.45 132.34 158.33 C 129.96 163.69 125.93 168.09 123.28 173.30 C 119.77 179.89 114.37 186.09 106.91 188.10 C 103.39 189.15 99.64 187.22 97.78 184.21 C 93.98 178.68 93.82 171.81 92.60 165.45 C 91.35 158.35 93.80 151.22 96.86 144.91 C 99.74 138.90 106.81 135.26 113.35 136.65 C 116.14 137.92 116.49 141.34 117.04 143.99 C 118.04 149.12 116.26 154.16 115.14 159.11 C 114.52 161.10 114.32 163.87 111.77 164.28 C 111.31 158.14 113.97 152.15 113.32 145.94 C 113.03 143.64 112.89 140.01 109.97 139.59 C 104.85 140.49 101.31 144.95 99.58 149.58 C 95.85 157.59 97.09 166.71 98.69 175.08 C 99.56 178.38 100.86 182.38 104.37 183.70 C 107.81 184.11 111.28 182.07 113.37 179.42 C 116.90 174.90 121.11 170.87 123.78 165.73 C 125.90 161.34 129.81 157.97 130.94 153.09 C 136.93 138.58 140.16 123.16 145.17 108.31 C 146.44 104.89 146.74 101.23 147.26 97.64 M 150.89 139.15 C 156.20 136.08 159.46 130.74 163.00 125.94 C 164.80 122.64 167.32 117.89 164.08 114.67 C 156.44 120.51 152.34 129.87 150.89 139.15 Z" />
<path fill="#000000" opacity="1.00" d=" M 177.76 98.88 C 180.14 99.89 182.40 101.18 184.25 103.02 C 183.01 104.18 181.79 105.54 180.05 105.89 C 177.62 104.52 176.36 101.44 177.76 98.88 Z" />
<path fill="#000000" opacity="1.00" d=" M 325.53 135.73 C 328.44 136.87 329.74 140.00 329.45 142.98 C 329.66 149.81 325.02 155.19 321.66 160.67 C 319.15 165.92 314.44 169.53 311.06 174.17 C 310.26 175.73 307.80 175.69 306.86 174.34 C 305.80 169.87 306.12 165.20 305.07 160.73 C 299.84 161.55 295.78 165.73 293.04 170.00 C 291.16 172.68 292.28 176.31 290.79 178.99 C 290.09 179.08 288.69 179.25 288.00 179.33 C 287.16 174.76 288.37 169.75 286.04 165.54 C 282.68 167.77 280.87 171.49 278.78 174.79 C 276.52 178.37 276.04 182.63 275.34 186.71 C 274.41 187.86 273.50 187.87 272.61 186.73 C 272.00 182.97 272.52 179.15 272.32 175.37 C 269.76 175.85 269.73 178.69 268.52 180.49 C 263.89 187.07 258.78 193.37 252.74 198.71 C 251.43 199.87 249.65 200.13 248.00 200.45 C 245.27 195.65 247.11 190.03 245.72 184.93 C 242.58 185.36 239.47 187.02 237.86 189.83 C 235.12 194.77 231.81 199.42 229.80 204.74 C 228.60 207.06 227.24 210.88 224.05 210.45 C 222.54 208.60 222.11 206.15 221.03 204.06 C 218.92 207.26 218.49 212.36 214.17 213.43 C 213.37 210.68 212.53 207.85 212.81 204.95 C 214.34 197.98 216.74 190.63 222.87 186.33 C 225.85 187.87 228.92 190.37 229.27 193.93 C 227.86 197.84 224.13 200.96 224.80 205.54 C 229.13 200.77 230.87 194.35 233.75 188.71 C 236.36 183.71 242.03 180.13 247.77 181.07 C 252.40 183.47 250.02 189.36 250.67 193.45 C 258.18 187.74 264.59 180.63 269.76 172.75 C 272.74 169.89 271.05 165.50 271.94 161.89 C 274.54 163.31 275.77 166.00 276.80 168.63 C 279.59 165.60 282.47 162.66 285.40 159.76 C 287.43 161.01 288.86 162.93 290.16 164.89 C 293.90 161.28 297.17 155.59 302.96 155.55 C 308.03 156.43 309.69 161.76 309.75 166.24 C 315.74 160.23 320.89 153.25 324.32 145.46 C 325.90 142.44 325.14 138.97 325.53 135.73 M 222.23 190.73 C 219.55 195.52 217.15 200.66 216.26 206.12 C 218.28 204.33 218.75 201.48 220.44 199.43 C 222.10 197.98 224.41 197.43 225.91 195.76 C 225.92 193.42 224.23 191.67 222.23 190.73 Z" />
<path fill="#000000" opacity="1.00" d=" M 214.86 167.75 C 219.92 165.17 225.48 163.46 229.90 159.76 C 231.13 161.44 233.28 164.09 230.81 165.77 C 219.47 171.99 206.53 174.42 194.85 179.76 C 193.11 186.74 193.97 194.11 192.92 201.21 C 196.74 199.41 201.05 196.81 201.51 192.16 C 202.43 189.29 204.63 192.74 205.20 194.13 C 205.88 200.28 205.24 206.68 202.73 212.38 C 199.57 209.75 201.94 204.79 201.04 201.22 C 198.46 202.84 195.66 204.37 193.79 206.84 C 189.77 212.40 193.54 220.67 188.68 225.72 C 182.57 225.84 177.84 221.63 172.38 219.65 C 172.22 219.23 171.90 218.37 171.74 217.94 C 176.92 216.83 181.08 221.01 186.23 220.75 C 187.24 217.43 187.68 213.98 187.93 210.55 C 183.03 211.72 178.22 214.57 173.00 213.28 C 170.90 212.74 170.68 209.37 173.13 209.41 C 178.54 209.29 183.42 206.68 187.95 203.95 C 189.63 196.61 189.43 188.86 190.16 181.35 C 182.67 183.07 175.47 185.87 168.17 188.26 C 159.21 191.62 149.39 194.74 142.82 202.08 C 145.44 204.76 149.45 205.01 152.96 205.46 C 162.54 205.55 171.68 201.94 180.19 197.85 C 182.16 196.78 183.81 198.54 184.92 199.97 C 174.24 207.08 160.96 210.89 148.16 208.97 C 143.72 207.88 137.73 204.72 139.00 199.22 C 141.04 195.45 145.28 193.68 149.02 192.03 C 153.70 190.05 157.56 186.24 162.74 185.52 C 168.71 183.80 174.69 181.88 180.24 179.08 C 184.15 177.82 188.52 176.77 191.35 173.56 C 193.09 173.97 194.93 174.56 196.65 173.71 C 202.85 172.07 208.58 169.07 214.86 167.75 Z" />
</g>
</svg>
