<?xml version="1.0" encoding="UTF-8" ?>
<!DOCTYPE svg PUBLIC "-//W3C//DTD SVG 1.1//EN" "http://www.w3.org/Graphics/SVG/1.1/DTD/svg11.dtd">
<svg width="256pt" height="256pt" viewBox="0 0 256 256" version="1.1" xmlns="http://www.w3.org/2000/svg">
<g id="#000000ff">
<path fill="#000000" opacity="1.00" d=" M 4.13 55.05 C 7.69 51.72 12.72 51.99 17.12 50.71 C 19.90 49.91 22.61 51.42 25.34 51.75 C 31.52 53.17 37.96 50.63 44.04 52.80 C 52.94 54.73 60.81 60.00 69.95 60.98 C 76.22 61.66 82.87 62.15 88.80 59.58 C 91.08 59.10 92.72 57.45 94.11 55.69 C 95.85 57.11 96.79 60.26 94.16 61.31 C 84.59 65.50 73.52 66.48 63.48 63.41 C 61.32 62.97 59.32 61.46 57.09 61.69 C 53.97 65.22 52.28 69.77 49.70 73.70 C 45.84 79.41 43.35 85.88 39.82 91.80 C 37.63 95.46 36.64 99.74 34.29 103.30 C 31.55 105.92 28.48 102.37 26.28 100.73 C 22.30 96.70 16.69 95.06 12.46 91.39 C 10.47 90.46 12.83 86.85 14.16 88.86 C 17.04 91.80 20.89 93.42 24.24 95.73 C 26.71 97.34 28.93 99.43 31.81 100.32 C 34.75 94.69 36.64 88.51 40.25 83.22 C 42.33 80.17 43.24 76.47 45.53 73.55 C 48.42 69.70 50.52 65.33 52.48 60.95 C 53.53 59.11 50.91 58.60 49.76 58.09 C 37.88 54.35 25.17 53.70 12.82 54.81 C 11.43 55.05 8.97 55.25 9.20 57.23 C 10.00 60.58 10.30 64.57 13.37 66.70 C 16.40 69.97 20.48 72.21 25.00 72.41 C 29.42 73.11 33.58 70.15 37.94 70.95 C 37.97 71.41 38.05 72.32 38.08 72.78 C 32.94 75.41 26.76 75.71 21.17 74.55 C 15.37 73.42 11.29 68.68 7.83 64.24 C 7.05 60.99 6.80 57.47 4.13 55.05 Z" />
<path fill="#000000" opacity="1.00" d=" M 68.42 89.41 C 72.11 86.47 75.66 83.00 80.12 81.29 C 83.99 81.26 83.60 86.29 83.21 88.96 C 81.86 94.35 79.51 99.61 79.75 105.28 C 84.86 104.31 88.75 100.62 93.16 98.14 C 97.94 95.49 101.88 91.53 106.87 89.25 C 109.61 91.70 106.81 95.15 106.91 98.12 C 109.82 97.93 111.54 95.20 114.21 94.37 C 116.63 93.58 120.44 91.95 121.41 95.47 C 122.62 100.73 119.87 105.99 120.11 111.32 C 122.72 110.99 124.85 109.35 126.96 107.93 C 132.46 103.97 138.47 100.62 144.95 98.60 C 149.10 99.42 146.51 104.35 146.12 107.06 C 150.44 104.30 155.52 101.26 160.78 101.96 C 165.90 106.02 160.98 112.36 161.76 117.53 C 166.01 117.09 170.35 116.08 174.18 114.15 C 177.57 111.49 180.31 107.94 184.32 106.09 C 185.97 104.77 188.61 106.78 187.75 108.70 C 184.55 112.03 180.01 113.56 176.54 116.55 C 175.14 117.96 174.39 120.49 176.14 121.97 C 186.58 120.22 197.30 114.75 202.10 104.84 C 204.37 106.53 207.15 106.75 209.88 106.88 C 211.35 107.12 213.62 108.91 212.45 110.53 C 210.43 113.18 207.47 115.07 205.96 118.11 C 205.10 120.08 204.60 122.19 204.02 124.26 C 210.09 125.89 214.91 121.29 219.07 117.67 C 220.90 117.90 219.59 120.29 219.25 121.32 C 217.01 125.12 213.10 127.97 208.87 129.16 C 205.65 130.00 200.92 128.93 200.58 124.98 C 201.03 119.88 203.66 115.39 206.30 111.13 C 204.94 110.83 203.61 110.40 202.22 110.26 C 198.52 112.50 196.95 117.18 192.84 118.82 C 187.22 121.57 181.80 126.46 175.19 125.80 C 171.83 125.23 172.14 121.39 172.25 118.82 C 168.59 119.48 164.95 121.49 161.22 121.05 C 156.70 116.79 161.99 110.23 160.10 105.09 C 153.35 104.84 147.54 109.55 143.64 114.64 C 142.80 116.12 141.24 116.58 139.62 116.37 C 139.95 111.41 143.06 107.22 143.55 102.31 C 135.63 104.48 129.38 110.25 122.50 114.46 C 121.16 115.39 119.52 115.02 118.01 114.95 C 116.55 108.89 119.44 102.94 119.16 96.84 C 112.67 97.52 106.73 101.90 103.46 107.47 C 102.75 108.70 101.47 110.38 99.92 109.09 C 99.71 104.09 104.85 100.05 104.07 95.10 C 103.63 95.15 102.76 95.26 102.33 95.31 C 94.27 100.18 87.35 107.25 78.14 109.97 C 74.97 105.80 78.23 100.63 77.88 95.95 C 71.28 98.46 67.02 105.38 59.98 106.97 C 57.82 99.77 63.83 94.02 68.42 89.41 M 65.75 95.75 C 64.17 97.58 62.01 99.52 62.66 102.22 C 69.98 98.38 77.45 93.39 81.33 85.90 C 81.03 85.51 80.41 84.73 80.11 84.34 C 74.38 86.71 69.90 91.27 65.75 95.75 Z" />
<path fill="#000000" opacity="1.00" d=" M 238.48 107.53 C 240.15 105.20 240.77 101.55 244.07 101.03 C 244.70 104.53 242.71 107.91 240.17 110.17 C 236.52 113.57 233.81 118.29 229.00 120.21 C 231.51 115.53 235.92 112.21 238.48 107.53 Z" />
<path fill="#000000" opacity="1.00" d=" M 79.26 117.84 C 81.95 119.54 82.31 122.79 82.63 125.67 C 87.28 124.38 92.19 124.42 96.96 124.86 C 99.54 125.37 102.23 128.19 101.47 130.95 C 99.10 135.55 95.09 138.92 91.84 142.86 C 87.40 146.43 81.24 145.89 75.95 147.20 C 76.43 151.07 77.52 154.83 78.46 158.60 C 78.85 160.20 80.10 162.07 81.99 161.77 C 85.60 161.10 88.94 159.11 91.49 156.49 C 94.66 153.40 94.94 148.29 98.66 145.66 C 100.68 144.26 103.07 142.57 105.67 143.12 C 107.56 144.25 107.39 146.85 106.94 148.71 C 106.48 151.38 103.52 152.12 101.93 153.95 C 99.51 157.08 94.61 159.32 95.97 164.07 C 102.44 164.21 107.85 159.98 114.07 159.00 C 113.59 161.59 110.38 161.24 108.66 162.67 C 105.15 165.26 101.20 167.18 97.04 168.46 C 93.93 168.20 92.90 164.68 90.91 162.79 C 87.84 162.60 85.59 167.17 82.40 165.62 C 80.10 164.85 77.89 163.52 76.68 161.36 C 73.92 157.11 74.25 151.69 71.64 147.38 C 70.74 145.76 69.42 144.18 69.79 142.19 C 78.10 143.57 87.36 141.65 93.02 135.03 C 94.29 133.27 96.68 131.43 96.24 129.10 C 93.50 127.21 90.17 129.03 87.24 129.44 C 83.82 130.47 79.72 130.35 77.08 133.10 C 68.14 141.92 60.88 152.21 52.65 161.64 C 51.13 162.67 50.11 160.04 49.67 158.94 C 48.43 155.73 52.22 154.00 53.77 151.76 C 58.01 146.25 63.13 141.29 66.35 135.07 C 64.61 136.14 62.96 137.41 60.94 137.92 C 61.13 134.44 64.79 132.97 67.84 133.24 C 73.75 129.85 74.67 122.46 79.26 117.84 Z" />
<path fill="#000000" opacity="1.00" d=" M 234.75 125.45 C 238.97 124.55 242.62 122.14 246.32 120.04 C 247.08 121.49 248.43 123.22 247.03 124.77 C 245.19 127.68 244.02 131.07 241.47 133.49 C 239.85 135.26 237.79 136.83 237.22 139.29 C 240.53 139.35 244.10 139.50 247.15 138.06 C 249.31 136.75 250.82 132.35 253.80 134.33 C 255.61 135.48 253.25 137.40 252.45 138.47 C 247.49 144.31 238.57 145.03 231.87 142.09 C 229.63 141.71 226.24 143.78 225.00 141.03 C 224.03 138.42 224.33 135.58 224.19 132.85 C 219.03 133.32 213.95 135.96 208.80 135.20 C 208.75 134.68 208.65 133.63 208.61 133.11 C 214.01 130.21 220.49 130.67 226.02 128.09 C 228.82 126.87 231.78 126.12 234.75 125.45 M 227.13 131.78 C 228.53 133.91 230.69 136.58 233.59 135.53 C 237.15 134.07 239.64 130.79 241.24 127.40 C 236.54 128.87 231.60 129.67 227.13 131.78 Z" />
<path fill="#000000" opacity="1.00" d=" M 14.79 141.79 C 20.90 134.07 29.03 127.89 38.25 124.38 C 44.44 122.06 49.59 131.79 45.27 136.24 C 41.69 140.31 37.24 143.84 32.04 145.54 C 30.82 144.88 29.78 143.99 28.90 142.89 C 33.07 140.53 37.92 138.88 40.87 134.87 C 42.37 132.62 44.53 129.85 43.07 127.07 C 32.98 129.41 24.36 136.09 18.44 144.45 C 16.82 147.72 14.64 152.93 18.64 155.38 C 23.43 156.81 28.15 153.95 32.66 152.63 C 38.37 149.80 44.49 147.57 49.41 143.39 C 52.81 141.32 56.06 138.61 60.08 137.90 C 60.57 140.89 57.45 141.29 55.56 142.57 C 51.92 144.80 49.85 148.95 45.91 150.78 C 41.66 152.53 37.70 154.88 33.31 156.32 C 29.27 158.69 24.45 160.89 19.72 159.18 C 14.30 155.66 10.54 147.62 14.79 141.79 Z" />
<path fill="#000000" opacity="1.00" d=" M 205.61 147.54 C 206.91 146.40 208.99 146.42 210.15 147.77 C 211.61 151.42 210.38 155.89 207.17 158.20 C 203.62 160.68 199.83 162.81 196.19 165.18 C 193.19 167.14 188.92 168.18 187.82 172.06 C 191.90 171.15 195.83 169.60 199.98 168.97 C 201.22 168.83 202.96 169.62 202.60 171.14 C 202.26 174.23 200.93 177.11 200.44 180.17 C 199.87 182.26 202.11 184.04 204.08 183.75 C 211.31 183.72 218.48 181.41 224.65 177.72 C 227.94 175.57 227.62 171.32 228.09 167.91 C 228.83 167.90 230.29 167.89 231.02 167.88 C 232.46 173.45 230.92 181.22 224.54 182.70 C 221.16 184.09 217.79 185.73 214.05 185.74 C 209.18 185.74 204.09 189.80 199.50 186.50 C 195.30 183.44 196.85 177.74 197.37 173.40 C 193.76 173.27 190.93 175.99 187.45 176.57 C 184.20 177.08 181.86 179.49 179.74 181.80 C 178.46 180.38 176.94 178.96 176.59 177.00 C 177.28 175.13 178.30 173.41 179.08 171.58 C 175.26 172.33 172.37 177.35 168.20 175.15 C 167.86 175.63 167.18 176.59 166.84 177.06 C 164.77 176.46 162.78 177.22 160.88 177.97 C 158.64 175.98 156.38 173.78 155.96 170.64 C 150.79 171.38 145.51 171.40 140.38 172.51 C 138.69 172.90 136.60 173.21 135.32 171.72 C 133.11 169.75 133.89 166.54 133.94 163.94 C 130.08 165.09 127.69 168.44 124.39 170.47 C 122.62 171.73 120.77 170.37 119.20 169.50 C 119.10 164.95 122.94 161.76 126.20 159.20 C 130.12 156.30 133.68 152.10 138.91 151.87 C 140.99 152.28 142.54 154.19 143.29 156.08 C 143.04 159.85 139.22 161.87 137.77 165.04 C 137.85 166.62 138.03 168.19 138.19 169.77 C 145.69 169.62 152.67 166.71 159.75 164.62 C 162.19 163.88 164.30 162.38 166.71 161.58 C 169.58 160.72 172.61 160.89 175.57 160.90 C 175.45 162.17 175.30 163.43 175.10 164.69 C 169.45 163.76 164.88 167.61 161.01 171.13 C 161.04 171.58 161.12 172.48 161.15 172.93 C 164.48 173.97 167.76 171.97 170.95 171.18 C 176.20 169.05 181.97 167.91 186.72 164.72 C 193.34 159.36 198.98 152.89 205.61 147.54 Z" />
</g>
</svg>
