<?xml version="1.0" encoding="UTF-8" ?>
<!DOCTYPE svg PUBLIC "-//W3C//DTD SVG 1.1//EN" "http://www.w3.org/Graphics/SVG/1.1/DTD/svg11.dtd">
<svg width="512pt" height="128pt" viewBox="0 0 512 128" version="1.1" xmlns="http://www.w3.org/2000/svg">
<g id="#000000ff">
<path fill="#000000" opacity="1.00" d=" M 112.88 2.83 C 115.42 0.51 118.84 4.19 118.24 6.91 C 116.20 18.78 106.79 27.21 101.56 37.62 C 108.92 31.70 114.05 23.03 122.69 18.63 C 126.20 15.25 131.82 20.73 129.68 24.60 C 126.83 32.24 119.42 36.52 113.78 41.91 C 116.95 42.32 120.01 43.41 122.06 45.97 C 123.23 47.71 125.31 47.29 127.07 47.07 C 123.45 49.19 124.31 53.88 121.83 56.83 C 118.41 61.39 112.67 63.73 107.13 64.28 C 104.32 63.10 105.17 59.27 106.08 57.04 C 108.59 51.34 115.23 50.16 120.45 48.15 C 118.22 45.21 114.28 45.27 110.96 44.85 C 108.19 45.17 105.61 46.36 102.86 46.85 C 102.89 46.22 102.94 44.94 102.97 44.31 C 110.30 41.05 116.89 36.18 122.17 30.13 C 124.64 27.49 128.18 24.07 126.21 20.13 C 121.58 21.23 118.10 24.61 114.66 27.66 C 111.40 31.08 107.98 34.37 105.22 38.22 C 100.27 44.26 94.67 49.82 90.47 56.45 C 89.06 58.60 88.02 61.61 85.06 61.87 C 84.91 58.11 87.15 54.94 88.77 51.74 C 94.62 41.21 102.14 31.74 108.49 21.53 C 111.95 16.25 116.08 10.41 115.14 3.76 C 109.09 6.52 105.64 12.59 101.23 17.27 C 94.99 24.30 90.59 32.64 85.35 40.37 C 79.33 46.98 73.42 53.94 65.81 58.80 C 59.81 62.99 53.03 67.83 45.30 66.72 C 40.94 65.23 40.59 59.58 42.02 55.87 C 46.49 44.20 57.19 36.11 68.52 31.66 C 70.36 30.86 72.68 31.52 73.48 33.46 C 73.87 37.48 71.16 40.87 68.80 43.81 C 66.81 46.08 65.09 48.85 62.14 49.96 C 63.99 43.87 71.72 40.69 71.42 33.59 C 66.51 33.88 62.13 36.45 58.20 39.22 C 52.45 43.42 47.25 48.76 44.48 55.41 C 43.50 58.12 42.97 61.79 45.24 64.02 C 50.47 65.47 55.52 62.47 59.85 59.90 C 67.87 54.44 75.78 48.54 81.91 40.94 C 87.69 34.20 91.71 26.19 97.60 19.54 C 102.55 13.86 106.98 7.61 112.88 2.83 M 108.07 61.02 C 114.05 61.16 119.96 56.24 121.31 50.45 C 115.44 51.06 109.29 54.96 108.07 61.02 Z" />
<path fill="#000000" opacity="1.00" d=" M 334.91 13.95 C 336.97 11.06 339.33 8.40 342.03 6.09 C 345.01 9.48 344.36 14.27 343.17 18.25 C 341.76 22.48 338.47 25.64 336.13 29.34 C 340.91 25.76 345.40 21.79 350.20 18.23 C 352.19 17.04 354.45 15.65 356.85 15.90 C 359.12 16.93 360.10 19.66 360.37 21.98 C 359.51 30.02 352.95 35.85 346.81 40.34 C 351.39 41.47 354.76 46.22 353.33 50.94 C 350.93 57.53 342.96 61.26 336.26 59.86 C 331.06 56.41 334.82 46.01 341.35 47.59 C 339.07 50.12 336.59 52.77 336.58 56.42 C 341.81 56.93 347.43 54.39 350.12 49.80 C 350.82 47.94 350.43 44.89 347.94 44.76 C 343.85 44.26 339.78 45.45 336.08 47.10 C 335.62 46.54 334.72 45.42 334.27 44.85 C 335.42 43.11 337.12 41.90 338.95 40.94 C 345.43 37.39 351.31 32.57 355.63 26.53 C 357.17 24.36 357.23 21.56 356.83 19.03 C 349.81 21.98 343.66 26.92 338.59 32.58 C 333.94 37.59 328.59 42.05 324.89 47.87 C 322.68 50.99 321.06 54.65 317.94 57.03 C 316.75 55.68 316.47 53.98 317.44 52.43 C 321.17 44.26 325.54 36.27 331.41 29.43 C 336.31 23.98 341.29 17.73 341.44 10.03 C 336.52 13.24 333.89 18.77 330.18 23.17 C 324.75 29.73 319.96 36.87 313.73 42.74 C 308.58 47.26 304.22 52.65 298.59 56.64 C 294.24 59.72 289.72 63.81 284.01 63.41 C 279.62 63.15 276.54 58.94 276.44 54.75 C 275.52 40.80 285.95 27.92 299.08 24.15 C 302.89 25.00 307.92 28.30 306.18 32.84 C 303.82 37.17 301.18 42.03 296.72 44.45 C 296.88 38.79 304.03 35.74 304.44 30.04 C 303.67 27.10 300.07 26.86 297.66 27.65 C 286.43 31.44 277.59 42.93 278.65 55.03 C 278.74 57.52 280.33 60.14 283.07 60.22 C 288.60 60.08 293.43 56.94 297.44 53.39 C 302.16 50.24 306.45 46.48 310.16 42.18 C 319.75 34.02 326.50 23.22 334.91 13.95 Z" />
<path fill="#000000" opacity="1.00" d=" M 228.78 26.74 C 231.25 20.60 234.43 14.44 240.07 10.63 C 241.62 11.68 243.60 12.83 243.65 14.96 C 243.35 20.16 240.91 24.79 238.10 29.04 C 234.98 36.74 228.76 42.37 223.22 48.31 C 227.53 47.08 231.88 44.60 236.49 45.57 C 238.27 45.80 238.76 47.68 239.59 48.98 C 236.79 52.39 232.39 52.37 228.38 52.64 C 227.68 55.32 228.87 58.99 232.06 59.17 C 237.92 59.23 243.41 56.40 248.01 52.97 C 253.19 48.81 255.18 42.06 255.52 35.65 C 258.42 37.07 257.89 40.95 257.46 43.59 C 254.60 55.20 242.60 64.52 230.45 62.42 C 226.15 61.13 224.88 56.38 223.79 52.58 C 220.81 54.74 218.31 57.45 215.83 60.14 C 211.90 60.85 213.68 55.81 213.83 53.61 C 209.04 56.46 204.04 59.01 198.79 60.91 C 195.88 61.93 192.15 60.14 191.63 56.98 C 191.76 48.82 195.29 39.59 203.37 36.33 C 205.58 35.09 208.27 37.72 207.77 40.01 C 207.45 42.50 205.49 44.26 203.91 46.03 C 201.38 44.09 204.06 41.67 204.69 39.47 C 200.69 40.20 198.92 44.04 197.28 47.28 C 195.65 50.43 194.83 53.93 194.63 57.46 C 200.26 57.60 205.01 54.28 209.81 51.84 C 213.32 49.84 217.65 48.45 219.59 44.60 C 222.83 38.74 226.02 32.84 228.78 26.74 M 233.37 25.36 C 231.18 29.50 229.05 33.72 227.93 38.29 C 231.13 35.28 233.46 31.50 235.77 27.79 C 238.03 24.06 240.52 20.10 240.23 15.55 C 236.88 17.94 235.22 21.83 233.37 25.36 Z" />
<path fill="#000000" opacity="1.00" d=" M 147.20 23.19 C 149.42 19.35 152.05 14.94 156.84 14.16 C 159.25 14.55 161.45 17.43 160.12 19.77 C 157.76 23.74 154.07 26.68 151.41 30.43 C 148.67 34.29 145.76 38.05 142.35 41.34 C 141.61 42.24 140.45 42.99 140.35 44.24 C 139.64 48.50 137.85 52.60 138.16 56.99 C 147.25 56.42 154.89 50.75 162.74 46.70 C 166.26 41.99 169.20 36.47 174.44 33.40 C 178.07 32.31 182.65 37.23 179.75 40.54 C 177.17 43.78 178.10 48.10 176.80 51.80 C 175.91 54.28 175.28 56.87 175.42 59.54 C 181.07 56.98 185.27 52.24 190.25 48.70 C 190.86 51.03 190.06 53.64 187.96 54.93 C 184.02 57.80 180.73 61.89 175.87 63.23 C 174.32 63.22 172.43 62.50 172.13 60.78 C 171.73 56.49 173.42 52.42 174.01 48.24 C 169.36 51.84 166.22 57.00 161.74 60.78 C 160.80 61.63 159.49 61.59 158.32 61.79 C 156.83 58.73 158.47 55.57 159.09 52.52 C 152.80 55.25 146.99 59.52 140.02 60.34 C 136.65 60.70 133.98 57.23 134.65 54.03 C 136.05 42.85 141.10 32.52 147.20 23.19 M 149.25 26.28 C 147.25 30.55 143.72 34.06 142.61 38.74 C 145.15 36.45 146.62 33.31 148.62 30.59 C 151.01 26.99 153.99 23.83 156.63 20.41 C 157.50 19.40 157.65 18.25 157.07 16.97 C 152.99 18.47 151.02 22.63 149.25 26.28 M 163.42 53.39 C 168.60 49.91 171.38 43.86 176.80 40.73 C 178.55 39.71 177.93 37.39 177.11 35.97 C 170.25 39.54 166.62 46.71 163.42 53.39 Z" />
<path fill="#000000" opacity="1.00" d=" M 446.45 32.40 C 447.08 30.54 447.67 28.64 448.79 27.00 C 449.53 28.05 450.19 29.14 450.76 30.29 C 448.48 39.70 443.46 48.75 435.57 54.59 C 430.07 58.82 423.34 62.30 416.21 61.69 C 412.73 61.40 410.53 58.49 408.82 55.77 C 404.88 57.22 401.26 59.79 397.00 60.18 C 394.91 60.11 391.75 58.66 392.72 56.07 C 394.48 51.55 398.55 48.24 399.53 43.34 C 392.58 46.76 387.35 52.84 383.01 59.11 C 382.40 58.81 381.19 58.20 380.58 57.90 C 381.90 51.90 386.25 47.39 389.50 42.42 C 390.60 41.04 390.14 39.24 390.18 37.63 C 385.48 39.26 380.73 40.76 375.93 42.00 C 373.36 48.64 369.74 55.96 362.57 58.51 C 360.59 59.60 358.11 57.98 358.38 55.72 C 358.29 48.84 363.94 43.89 368.66 39.67 C 371.13 37.78 371.54 34.54 372.96 31.96 C 375.19 32.97 378.31 31.09 379.85 33.25 C 379.68 34.89 379.03 36.43 378.61 38.01 C 382.43 36.54 386.47 35.55 390.01 33.43 C 392.54 35.94 393.72 39.33 393.78 42.86 C 396.00 41.57 397.99 39.95 400.03 38.40 C 403.55 40.11 403.58 44.78 401.83 47.78 C 399.81 50.42 397.69 53.06 396.49 56.21 C 400.87 55.67 405.16 54.18 408.92 51.89 C 411.28 48.58 412.33 44.27 415.69 41.69 C 417.37 40.49 419.59 39.10 421.70 40.10 C 423.40 40.85 424.09 42.95 423.93 44.69 C 421.33 47.55 418.41 50.15 415.09 52.13 C 413.57 52.89 413.18 54.65 412.44 56.03 C 418.52 59.94 425.44 56.10 430.82 52.85 C 438.52 48.42 443.56 40.61 446.45 32.40 M 362.44 53.69 C 367.48 51.62 370.76 46.83 372.19 41.72 C 367.68 44.38 363.92 48.61 362.44 53.69 Z" />
<path fill="#000000" opacity="1.00" d=" M 221.02 81.26 C 223.56 81.42 225.04 79.07 226.86 77.72 C 227.97 79.22 229.26 81.81 226.97 82.96 C 222.68 85.13 217.65 84.46 213.00 85.00 C 208.69 85.48 204.24 84.94 200.01 86.01 C 197.21 91.81 195.51 98.09 192.99 104.01 C 194.84 104.30 196.69 104.74 198.57 104.67 C 200.86 102.56 201.77 99.32 204.07 97.16 C 206.56 99.95 204.22 103.48 203.69 106.56 C 201.67 107.63 199.75 108.88 198.42 110.78 C 197.97 106.84 193.95 107.81 191.11 107.92 C 187.22 114.22 184.65 121.36 180.05 127.18 C 178.32 125.84 176.79 124.28 175.32 122.66 C 172.49 119.57 168.53 117.97 165.01 115.83 C 166.10 114.48 167.40 114.09 168.92 114.67 C 173.26 116.10 176.04 119.92 179.72 122.39 C 182.22 117.59 185.14 112.94 186.76 107.75 C 182.36 107.58 177.95 107.81 173.55 107.48 C 173.38 106.84 173.04 105.58 172.87 104.95 C 177.99 102.77 183.56 105.36 188.82 104.10 C 189.08 103.78 189.60 103.13 189.86 102.81 C 192.22 97.27 194.76 91.77 196.49 85.99 C 190.06 84.71 183.51 86.02 177.04 85.35 C 172.91 85.23 168.56 83.93 164.56 85.53 C 162.92 86.04 161.77 88.18 163.25 89.52 C 165.90 91.77 169.09 93.43 172.42 94.41 C 175.15 95.20 179.21 94.53 180.16 98.00 C 173.18 99.76 166.59 95.78 161.14 91.89 C 157.94 88.87 160.18 83.08 164.17 82.02 C 170.07 80.92 176.02 82.78 181.96 82.24 C 187.63 81.64 193.34 82.97 198.98 81.87 C 206.33 82.39 213.68 81.54 221.02 81.26 Z" />
<path fill="#000000" opacity="1.00" d=" M 305.32 84.33 C 305.66 82.87 307.37 83.60 308.38 83.54 C 309.01 86.45 308.05 89.30 307.49 92.13 C 315.89 91.46 324.21 89.92 332.61 89.32 C 334.11 89.80 333.68 91.53 333.86 92.72 C 324.88 94.35 315.74 94.87 306.69 95.90 C 304.56 96.16 304.17 98.66 303.26 100.21 C 301.20 105.19 298.46 110.21 298.36 115.71 C 298.76 115.92 299.57 116.33 299.97 116.54 C 306.22 113.64 312.11 109.87 317.05 105.04 C 317.74 106.26 319.66 107.81 318.19 109.21 C 314.17 112.96 309.51 116.05 304.72 118.75 C 302.15 120.01 298.89 121.58 296.15 119.90 C 293.99 117.74 294.85 114.45 294.55 111.72 C 289.83 117.24 283.02 120.50 276.04 122.11 C 273.46 121.99 271.76 119.56 270.26 117.73 C 265.82 120.27 261.20 122.98 256.03 123.55 C 253.47 123.19 252.21 120.60 250.71 118.80 C 247.36 119.61 244.73 122.65 241.07 122.19 C 239.31 122.35 237.73 120.73 238.20 118.97 C 238.94 114.96 241.69 111.73 242.96 107.91 C 243.41 105.84 241.00 104.98 239.90 103.67 C 238.31 104.86 236.87 106.51 234.81 106.85 C 231.15 107.26 227.66 105.87 224.26 104.76 C 225.06 111.85 220.40 117.97 215.40 122.44 C 213.64 123.53 210.39 125.15 209.07 122.71 C 208.08 120.84 209.10 118.63 209.65 116.76 C 212.21 110.82 216.51 105.78 218.84 99.73 C 219.67 97.41 222.11 96.05 224.37 95.45 C 224.44 97.33 224.30 99.20 224.09 101.06 C 227.16 102.35 230.38 103.57 233.76 103.61 C 235.73 103.62 237.14 101.79 237.28 99.94 C 237.77 95.73 240.13 91.93 243.26 89.13 C 244.79 88.54 245.44 90.06 245.95 91.21 C 246.55 95.10 244.20 98.49 242.47 101.75 C 244.06 103.48 246.77 105.23 246.34 107.90 C 244.58 111.28 242.74 114.65 241.68 118.34 C 245.24 117.39 249.15 116.49 251.94 113.94 C 254.77 108.96 256.63 103.02 261.60 99.64 C 262.63 98.71 263.98 99.39 264.58 100.45 C 265.84 102.91 265.83 106.01 264.33 108.37 C 262.14 111.86 258.12 113.51 255.52 116.62 C 254.20 117.59 255.30 120.36 256.94 119.67 C 264.05 117.54 270.39 113.53 276.69 109.69 C 280.54 107.40 283.84 104.34 287.19 101.39 C 287.85 102.27 288.45 103.19 289.00 104.15 C 288.09 107.53 286.48 110.71 285.81 114.19 C 293.15 111.55 296.76 103.77 299.50 97.03 C 293.40 96.95 287.32 97.67 281.22 97.74 C 280.07 97.06 280.44 95.68 280.40 94.60 C 287.37 93.22 294.69 94.31 301.59 92.60 C 303.84 90.47 303.92 86.99 305.32 84.33 M 260.72 105.19 C 259.92 105.63 258.35 107.73 259.96 108.09 C 261.81 108.27 263.51 103.95 260.72 105.19 M 212.93 118.96 C 217.86 116.42 220.99 111.09 221.00 105.56 C 216.83 108.81 214.94 114.21 212.93 118.96 M 276.15 114.15 C 275.01 114.72 274.30 115.77 274.03 117.00 C 275.46 117.06 277.39 118.16 278.50 116.76 C 280.48 114.64 282.27 112.28 283.43 109.60 C 280.68 110.55 278.54 112.58 276.15 114.15 Z" />
</g>
</svg>
