<?xml version="1.0" encoding="UTF-8" ?>
<!DOCTYPE svg PUBLIC "-//W3C//DTD SVG 1.1//EN" "http://www.w3.org/Graphics/SVG/1.1/DTD/svg11.dtd">
<svg width="512pt" height="128pt" viewBox="0 0 512 128" version="1.1" xmlns="http://www.w3.org/2000/svg">
<g id="#000000ff">
<path fill="#000000" opacity="1.00" d=" M 132.47 22.84 C 135.35 26.70 133.84 31.52 132.75 35.74 C 129.22 46.62 122.08 55.70 116.28 65.39 C 123.48 58.57 129.52 50.41 137.76 44.77 C 140.98 43.08 142.78 47.62 143.31 50.06 C 144.98 58.25 138.80 65.06 132.68 69.49 C 134.94 71.72 136.77 74.32 138.10 77.21 C 143.09 74.53 148.15 71.94 152.94 68.91 C 156.40 66.66 155.55 61.79 158.03 58.84 C 159.67 58.97 160.90 60.49 161.04 62.06 C 160.50 64.60 159.31 66.95 158.36 69.36 C 161.19 69.41 165.08 69.27 165.44 72.99 C 162.57 78.86 158.00 83.75 155.31 89.72 C 162.90 88.66 169.98 85.30 176.59 81.55 C 183.11 77.80 187.05 71.20 192.05 65.84 C 194.35 66.89 193.68 69.57 193.92 71.59 C 200.92 72.45 207.89 70.66 214.55 68.67 C 220.32 57.66 225.18 45.45 234.97 37.32 C 237.66 37.85 238.02 41.70 238.03 44.01 C 236.84 51.40 234.55 59.56 227.97 63.97 C 223.98 67.12 218.29 68.64 216.63 74.00 C 220.68 73.57 224.77 72.13 228.85 72.80 C 231.59 73.34 232.59 76.83 229.83 78.17 C 226.41 78.82 222.88 78.64 219.41 78.78 C 219.55 80.89 219.44 83.71 222.10 84.23 C 229.18 84.20 235.96 81.76 242.68 79.84 C 247.06 74.52 249.41 67.32 255.60 63.52 C 256.97 61.75 258.81 63.68 259.42 65.11 C 260.05 67.76 258.68 70.33 257.63 72.69 C 255.70 78.07 248.20 78.04 246.55 83.69 C 257.00 80.47 265.67 73.47 273.97 66.61 C 277.37 69.13 274.21 72.80 273.56 75.88 C 276.71 74.55 279.73 72.79 283.10 72.07 C 284.34 71.75 285.99 72.65 286.12 74.02 C 286.97 77.58 286.67 81.28 286.89 84.91 C 293.03 82.82 298.03 77.52 299.37 71.13 C 300.13 68.27 299.75 65.31 299.84 62.40 C 302.99 63.04 302.58 66.56 302.56 69.00 C 302.47 75.34 298.62 80.95 294.09 85.09 C 291.34 87.63 287.54 88.68 283.85 88.28 C 282.24 84.28 283.06 80.04 283.29 75.90 C 276.83 77.71 271.31 82.08 267.21 87.30 C 265.80 88.98 264.10 86.84 262.86 86.09 C 264.56 82.58 266.62 79.27 268.29 75.76 C 260.74 80.25 253.59 85.86 245.04 88.36 C 242.26 88.22 242.68 84.74 240.84 83.78 C 234.40 85.38 228.00 88.88 221.20 87.69 C 217.00 87.01 216.51 82.34 215.45 79.05 C 212.88 82.03 211.16 85.57 209.25 88.98 C 208.03 88.53 206.51 88.34 206.08 86.90 C 207.81 81.31 210.99 76.31 213.36 70.99 C 206.60 73.08 199.61 74.03 192.57 74.61 C 191.23 77.05 192.62 80.39 190.72 82.66 C 188.73 85.01 186.59 87.23 184.47 89.47 C 182.99 90.98 179.86 92.20 178.48 89.96 C 178.11 84.41 183.26 81.01 185.49 76.49 C 183.07 78.01 181.15 80.15 178.93 81.91 C 172.25 87.37 164.18 90.91 155.85 92.92 C 153.13 93.74 150.48 90.77 151.98 88.21 C 154.51 82.88 158.19 78.18 161.30 73.17 C 158.41 73.39 155.45 73.66 152.77 72.33 C 148.30 75.94 142.42 77.38 138.28 81.49 C 137.14 83.59 137.59 86.23 136.36 88.34 C 134.70 91.39 132.08 94.83 128.24 94.77 C 124.70 93.91 124.18 89.44 125.73 86.66 C 127.75 83.00 131.79 81.34 134.83 78.71 C 134.80 76.90 133.85 75.26 132.76 73.88 C 130.48 72.55 128.70 75.22 126.71 75.96 C 125.32 77.15 122.87 74.74 124.45 73.55 C 128.99 69.39 133.25 64.93 137.47 60.46 C 140.62 56.95 140.88 51.82 139.78 47.44 C 137.52 48.01 135.53 49.24 133.85 50.83 C 124.66 59.05 116.08 68.19 109.89 78.92 C 107.81 82.28 106.42 86.00 104.30 89.33 C 103.16 89.53 102.01 89.62 100.84 89.60 C 107.00 72.44 117.90 57.63 126.90 41.94 C 128.97 38.42 129.84 34.35 130.34 30.34 C 128.13 32.89 126.57 35.90 124.59 38.61 C 111.93 56.62 96.46 72.48 80.00 87.03 C 77.02 89.85 72.74 91.76 68.64 90.38 C 66.12 89.23 65.62 86.17 64.80 83.82 C 63.51 79.83 65.67 76.00 67.77 72.75 C 70.83 67.77 76.19 65.04 81.04 62.14 C 82.81 61.33 84.82 60.06 86.81 60.78 C 88.99 62.76 88.71 66.08 87.61 68.54 C 86.38 71.26 86.20 74.70 83.64 76.60 C 84.01 71.80 87.01 67.46 86.24 62.54 C 80.68 63.47 75.82 67.03 71.87 70.89 C 67.95 75.01 65.55 81.52 68.17 86.92 C 69.43 89.26 72.71 89.05 74.60 87.66 C 86.88 79.52 96.89 68.54 106.30 57.32 C 111.39 51.10 117.55 45.79 122.09 39.11 C 125.72 33.80 129.43 28.52 132.47 22.84 M 220.85 65.52 C 222.03 65.20 223.16 64.78 224.25 64.24 C 230.79 59.47 234.31 51.44 234.59 43.48 C 228.56 49.79 224.88 57.88 220.85 65.52 M 250.29 75.96 C 253.06 74.77 254.72 72.16 255.24 69.26 C 252.74 70.70 250.89 73.12 250.29 75.96 M 184.74 84.23 C 187.83 82.91 189.39 79.85 189.79 76.66 C 187.86 79.00 186.10 81.51 184.74 84.23 M 128.66 87.60 C 128.19 88.65 126.85 91.53 128.91 91.54 C 132.52 90.23 133.57 85.94 134.21 82.55 C 132.18 84.00 130.05 85.48 128.66 87.60 Z" />
<path fill="#000000" opacity="1.00" d=" M 389.76 30.60 C 392.52 30.12 393.90 27.59 395.30 25.47 C 397.35 27.86 397.26 31.87 393.92 33.04 C 384.73 36.35 374.82 36.65 365.25 38.15 L 364.67 38.68 C 359.97 50.03 355.54 61.50 350.85 72.86 C 349.55 75.98 348.46 79.19 347.74 82.50 C 347.29 84.45 347.31 86.64 345.86 88.19 C 343.97 87.97 343.26 86.06 342.31 84.70 C 340.16 81.03 337.63 77.40 333.98 75.09 C 332.55 74.29 330.70 74.28 329.51 73.10 C 330.64 72.13 331.80 71.18 333.07 70.38 C 338.57 72.49 341.30 78.29 344.85 82.62 C 348.12 67.14 355.51 53.04 361.15 38.36 C 351.42 38.20 341.68 38.80 331.96 38.01 C 324.81 37.38 317.60 37.06 310.45 37.68 C 308.70 37.73 307.32 38.87 306.18 40.07 C 308.81 43.05 312.96 44.01 316.61 45.19 C 324.56 46.60 332.79 48.66 340.82 46.58 C 341.12 47.29 341.74 48.71 342.04 49.42 C 337.16 51.36 331.73 50.70 326.62 50.34 C 319.40 49.22 311.83 48.38 305.43 44.60 C 303.34 43.45 302.52 40.82 303.67 38.71 C 304.64 35.12 308.54 33.69 311.92 33.83 C 328.58 34.15 345.27 35.18 361.93 34.25 C 362.88 33.05 363.84 31.87 364.83 30.70 C 365.49 31.67 366.15 32.65 366.83 33.62 C 374.52 33.20 382.25 32.38 389.76 30.60 Z" />
<path fill="#000000" opacity="1.00" d=" M 369.88 61.88 C 372.94 56.88 377.22 52.79 380.24 47.78 C 381.03 48.67 381.87 49.52 382.57 50.50 C 382.97 53.80 381.27 56.87 380.61 60.03 C 380.92 62.61 384.69 63.97 383.72 66.89 C 382.51 72.91 377.30 77.44 377.32 83.83 C 382.57 83.65 387.90 85.06 392.90 82.79 C 393.82 78.51 395.23 74.28 397.57 70.54 C 399.29 67.90 402.60 65.84 405.81 66.76 C 408.68 68.13 407.68 71.62 406.90 73.98 C 405.37 78.98 401.52 82.74 397.23 85.51 C 401.53 87.42 406.20 85.63 410.43 84.41 C 412.81 83.40 415.88 82.49 416.71 79.74 C 418.74 74.35 421.47 68.72 426.56 65.62 C 430.12 63.75 434.85 67.89 432.84 71.65 C 430.11 77.60 424.24 81.09 419.33 85.03 C 428.98 88.07 438.53 82.60 446.21 77.22 C 449.47 75.20 451.61 71.97 452.96 68.44 C 453.98 69.61 455.06 70.76 455.92 72.06 C 453.44 76.74 448.87 79.73 444.60 82.60 C 437.64 87.16 429.45 90.63 420.99 90.17 C 418.33 90.02 416.66 87.85 415.14 85.95 C 410.42 89.52 404.28 91.21 398.41 90.49 C 395.88 90.05 394.19 88.04 392.89 85.99 C 387.96 86.96 382.94 87.33 377.94 87.52 C 376.17 87.56 373.37 87.22 373.21 84.98 C 373.33 77.98 377.80 72.33 380.29 66.09 C 379.12 65.00 377.88 63.99 376.84 62.78 C 376.09 61.27 376.71 59.51 376.58 57.91 C 374.06 61.95 370.80 65.53 368.84 69.92 C 366.89 74.35 364.58 78.64 363.08 83.26 C 362.40 84.89 361.19 87.05 359.10 86.68 C 358.44 85.54 358.36 84.37 358.86 83.15 C 360.87 75.32 365.71 68.68 369.88 61.88 M 420.55 80.17 C 424.58 77.46 428.32 74.17 430.51 69.76 C 424.73 68.91 421.90 75.60 420.55 80.17 M 397.55 82.26 C 401.28 79.80 404.42 76.20 404.94 71.60 C 400.35 73.07 398.08 77.78 397.55 82.26 Z" />
</g>
</svg>
