<?xml version="1.0" encoding="UTF-8" ?>
<!DOCTYPE svg PUBLIC "-//W3C//DTD SVG 1.1//EN" "http://www.w3.org/Graphics/SVG/1.1/DTD/svg11.dtd">
<svg width="256pt" height="256pt" viewBox="0 0 256 256" version="1.1" xmlns="http://www.w3.org/2000/svg">
<g id="#000000ff">
<path fill="#000000" opacity="1.00" d=" M 227.29 41.32 C 234.01 42.64 240.03 46.40 245.08 50.93 C 251.45 56.73 252.45 66.19 251.12 74.26 C 249.02 85.27 247.41 96.79 241.51 106.56 C 240.14 108.92 238.13 111.53 235.11 111.46 C 233.28 110.65 231.75 109.02 231.53 106.98 C 231.13 103.16 232.63 99.49 233.25 95.77 C 230.27 95.20 227.85 97.11 225.32 98.31 C 222.13 99.93 218.64 100.80 215.25 101.88 C 218.80 107.99 216.17 115.34 212.44 120.69 C 210.87 122.52 207.48 121.48 206.77 119.28 C 204.74 113.15 206.96 106.83 207.33 100.65 C 203.81 101.10 201.11 103.63 197.75 104.56 C 193.82 105.39 191.31 108.73 188.23 111.01 C 189.39 115.23 193.14 118.45 193.28 122.98 C 193.37 127.33 190.25 130.68 188.21 134.23 C 187.02 136.36 182.65 136.92 181.98 134.04 C 179.24 127.12 182.01 119.69 182.78 112.64 C 177.24 115.52 172.14 119.15 166.61 122.03 C 167.98 127.44 171.04 134.01 166.88 138.94 C 166.12 140.78 163.90 140.19 162.49 139.57 C 159.36 137.38 157.86 133.73 156.02 130.53 C 154.02 136.19 152.04 141.90 149.13 147.17 C 147.97 148.33 146.21 148.84 144.62 148.45 C 141.99 144.72 142.30 139.88 141.29 135.60 C 139.27 139.32 137.50 143.36 133.88 145.85 C 131.83 148.17 127.96 150.57 125.36 147.62 C 122.98 143.70 124.04 138.75 123.54 134.38 C 123.25 132.55 120.86 132.81 119.77 133.70 C 117.76 134.64 117.89 137.18 117.03 138.93 C 114.97 143.54 112.90 148.14 110.65 152.66 C 109.07 155.92 108.80 159.74 106.79 162.79 C 105.40 164.60 102.49 164.71 101.54 162.42 C 98.96 156.79 99.79 150.37 98.43 144.45 C 93.55 152.34 91.40 162.08 84.49 168.67 C 83.22 170.10 81.33 169.26 79.74 169.11 C 87.93 159.76 93.21 148.27 97.87 136.85 C 98.84 136.03 100.25 136.51 101.41 136.33 C 103.60 143.45 102.00 151.02 103.89 158.19 C 106.43 155.64 107.10 152.00 109.10 149.11 C 111.35 146.44 111.10 142.72 112.65 139.69 C 114.94 134.60 114.51 128.98 115.26 123.58 C 118.29 124.24 119.00 127.41 120.00 129.89 C 121.89 128.84 123.64 127.40 125.81 126.99 C 127.96 128.21 127.05 130.93 127.18 132.95 C 127.24 136.86 126.35 140.88 127.33 144.72 C 127.70 144.93 128.45 145.36 128.82 145.58 C 130.61 144.08 132.35 142.54 134.20 141.11 C 137.22 134.38 140.92 127.94 143.15 120.86 C 144.48 121.48 145.79 122.15 147.08 122.83 C 145.30 127.36 146.01 132.25 145.40 136.98 C 145.33 138.47 145.28 142.03 147.66 140.66 C 150.06 138.06 149.98 134.22 151.13 131.03 C 152.27 127.91 153.50 124.81 154.62 121.68 C 155.71 122.12 157.45 121.70 158.00 122.98 C 159.79 126.80 160.03 131.42 163.38 134.40 C 166.20 129.83 161.92 125.01 162.12 120.30 C 165.58 117.38 170.15 116.30 173.99 114.00 C 177.76 111.50 181.00 107.97 185.48 106.70 C 189.74 105.58 193.41 103.04 197.58 101.65 C 202.65 98.41 207.84 95.37 213.34 92.90 C 213.91 94.75 214.31 96.65 214.74 98.54 C 220.11 97.38 224.80 94.32 230.11 92.96 C 233.89 92.13 236.25 88.16 239.99 87.55 C 240.37 88.17 241.13 89.42 241.51 90.04 C 240.24 94.29 235.70 96.66 234.71 101.03 C 234.06 103.58 237.59 106.03 239.36 103.53 C 244.30 96.67 245.14 87.87 246.49 79.76 C 247.90 70.48 248.40 59.67 241.89 52.09 C 238.60 48.60 234.13 45.37 229.21 45.21 C 224.60 46.97 221.71 51.65 220.39 56.23 C 218.68 61.59 219.23 67.33 220.26 72.76 C 220.97 76.69 223.81 79.79 226.46 82.58 C 231.39 84.61 236.71 82.43 241.69 81.70 C 240.60 85.22 236.80 86.04 233.68 86.87 C 228.33 87.69 222.14 85.46 219.74 80.32 C 214.25 72.11 214.56 61.48 217.44 52.39 C 218.97 47.47 223.29 44.21 227.29 41.32 M 211.36 104.56 C 210.78 107.01 210.32 109.49 209.73 111.94 C 210.29 112.19 211.43 112.68 211.99 112.93 C 213.04 110.14 213.05 107.10 211.36 104.56 M 184.88 119.21 C 184.69 123.30 184.56 127.42 184.86 131.51 C 189.48 127.85 189.83 121.25 186.84 116.45 C 186.15 117.35 185.50 118.27 184.88 119.21 Z" />
<path fill="#000000" opacity="1.00" d=" M 86.82 113.86 C 89.49 112.35 89.51 109.12 89.82 106.46 C 90.67 106.57 92.36 106.79 93.21 106.90 C 93.28 108.79 94.09 110.94 92.91 112.66 C 89.50 117.37 83.89 119.60 78.73 121.79 C 73.41 124.11 67.73 125.41 62.37 127.61 C 62.23 135.15 61.53 142.81 63.69 150.16 C 70.22 146.80 75.74 141.91 82.04 138.21 C 86.15 142.04 84.48 148.21 85.88 153.13 C 86.93 156.06 85.85 159.00 84.81 161.75 C 82.58 162.35 80.34 163.09 78.02 163.25 C 73.11 163.23 68.76 160.67 64.33 158.91 C 64.28 167.04 66.62 174.96 67.03 183.06 C 67.03 186.38 68.30 189.45 69.21 192.58 C 63.87 193.79 58.34 192.61 52.92 193.26 C 43.84 193.15 34.70 197.36 25.77 194.22 C 23.35 192.41 23.15 188.71 25.84 187.03 C 26.97 188.83 27.34 191.58 29.64 192.32 C 34.47 193.25 39.46 192.63 44.21 191.54 C 50.74 190.15 57.45 190.63 64.03 189.77 C 63.43 178.87 61.35 168.13 60.32 157.29 C 60.00 157.13 59.38 156.81 59.07 156.65 C 55.99 158.80 51.13 159.19 50.11 163.35 C 48.02 162.76 45.88 162.21 44.01 161.07 C 46.37 158.30 50.51 158.56 53.36 156.43 C 55.49 154.82 58.24 153.83 59.87 151.67 C 60.47 146.74 58.49 141.88 58.15 136.97 C 58.16 134.24 58.41 131.50 58.13 128.77 C 51.39 129.90 45.15 132.94 38.48 134.41 C 29.59 137.28 20.47 139.75 12.18 144.20 C 9.81 145.61 7.43 147.38 6.39 150.04 C 6.47 155.41 9.34 161.23 14.58 163.27 C 18.91 164.92 23.57 163.40 27.54 161.49 C 29.83 159.87 31.36 157.02 34.37 156.62 C 32.54 162.35 26.04 164.33 20.86 165.90 C 12.34 167.27 4.04 159.61 4.24 151.06 C 4.11 149.23 5.05 147.54 6.34 146.33 C 11.20 141.62 17.70 139.30 23.83 136.79 C 34.97 131.79 47.00 129.27 58.46 125.13 C 58.19 122.89 57.85 120.65 57.71 118.39 C 61.01 118.67 61.49 122.10 62.79 124.48 C 71.18 121.87 79.28 118.35 86.82 113.86 M 64.72 153.73 C 64.42 154.31 63.81 155.48 63.50 156.06 C 68.19 156.51 72.77 157.54 77.21 159.09 C 79.17 160.02 82.02 159.40 82.37 156.94 C 83.13 152.18 81.44 147.49 80.49 142.89 C 75.42 146.77 69.83 149.91 64.72 153.73 Z" />
<path fill="#000000" opacity="1.00" d=" M 97.47 117.16 C 99.42 117.18 101.35 117.39 103.26 117.79 C 102.43 119.98 101.58 122.28 99.78 123.88 C 96.14 124.46 96.08 119.43 97.47 117.16 Z" />
<path fill="#000000" opacity="1.00" d=" M 211.51 140.89 C 215.22 139.02 219.08 141.82 221.43 144.57 C 223.37 148.70 221.62 153.28 221.29 157.58 C 220.52 164.08 215.42 168.77 210.67 172.72 C 205.91 176.19 199.39 175.57 194.89 171.97 C 190.29 177.24 184.49 182.28 177.22 182.86 C 174.99 184.38 173.08 187.03 170.09 186.83 C 166.80 186.83 165.13 183.61 163.18 181.50 C 162.54 181.81 161.27 182.41 160.64 182.72 C 160.40 184.49 160.22 186.43 158.53 187.46 C 155.24 189.80 155.18 195.07 150.93 196.30 C 149.46 197.15 148.20 195.59 147.36 194.61 C 145.07 191.64 144.66 187.79 143.55 184.32 C 137.96 189.37 136.70 197.33 132.13 203.08 C 131.22 204.11 130.19 205.07 128.98 205.75 C 123.87 204.73 121.11 199.72 116.95 197.06 C 114.66 195.88 112.23 194.95 110.15 193.40 C 109.91 198.90 108.87 204.42 109.87 209.91 C 110.44 211.65 109.01 212.82 108.05 214.04 C 107.03 212.71 105.66 211.49 105.41 209.75 C 103.78 202.70 105.80 195.53 105.80 188.42 C 104.07 190.55 102.49 192.82 101.37 195.34 C 98.10 202.92 94.59 210.41 90.74 217.71 C 88.15 222.59 83.60 226.73 77.96 227.43 C 73.81 227.59 69.44 224.63 68.71 220.40 C 67.40 214.90 69.45 209.41 71.33 204.32 C 72.86 200.75 74.60 196.74 78.22 194.85 C 80.88 193.61 83.50 196.10 84.81 198.22 C 87.57 203.45 86.35 209.69 85.25 215.21 C 84.20 213.98 81.42 213.19 82.33 211.15 C 83.87 207.39 84.79 203.03 82.79 199.24 C 82.43 197.95 80.33 196.30 79.30 197.78 C 75.13 202.48 71.99 208.20 70.49 214.32 C 69.66 218.13 72.42 221.54 75.00 224.01 C 77.08 226.14 80.56 225.39 82.48 223.43 C 88.80 217.61 92.15 209.49 95.98 201.98 C 99.08 195.47 102.50 189.10 105.34 182.47 C 107.01 178.87 106.16 174.92 105.81 171.16 C 107.14 171.45 108.47 171.76 109.79 172.10 C 110.28 174.34 110.68 176.60 111.30 178.81 C 114.76 173.71 119.12 169.20 124.14 165.65 C 129.50 164.62 136.23 168.96 135.43 174.98 C 133.78 183.67 126.30 189.53 119.30 194.10 C 121.86 196.73 124.63 199.14 127.34 201.62 C 131.86 196.78 134.44 190.58 138.14 185.16 C 140.32 182.08 141.81 178.61 143.64 175.34 C 144.39 173.91 146.60 174.05 147.19 175.58 C 148.24 177.90 147.42 180.49 147.73 182.93 C 148.15 185.77 148.74 188.59 149.12 191.44 C 152.81 188.55 154.91 184.33 157.48 180.54 C 162.97 174.26 167.13 167.03 172.55 160.67 C 175.06 162.04 177.60 164.05 177.92 167.11 C 178.20 170.85 178.31 174.59 178.52 178.34 C 184.34 176.87 189.05 172.86 191.94 167.68 C 192.04 165.04 190.27 162.66 190.38 159.99 C 190.41 156.68 191.94 152.99 195.06 151.50 C 199.10 150.60 203.14 154.95 201.90 158.89 C 200.79 162.53 198.59 165.70 197.32 169.28 C 200.12 171.08 203.90 171.65 206.78 169.69 C 212.31 166.05 216.37 160.21 218.07 153.83 C 218.62 150.89 219.09 147.38 217.27 144.79 C 215.28 143.56 212.89 142.95 211.51 140.89 M 194.27 159.28 C 194.43 160.50 194.71 161.70 195.11 162.88 C 197.06 161.11 197.82 158.36 197.26 155.80 C 196.21 156.92 195.11 158.00 194.27 159.28 M 166.04 176.04 C 168.39 176.55 170.76 177.03 173.14 177.41 C 174.16 174.17 173.84 170.77 173.10 167.51 C 170.58 170.20 168.15 173.00 166.04 176.04 M 111.07 190.26 C 112.75 190.62 114.59 192.43 116.26 191.21 C 122.44 187.15 129.38 182.59 131.21 174.90 C 132.35 172.14 128.99 168.42 126.18 169.79 C 118.14 173.59 112.76 181.66 111.07 190.26 Z" />
<path fill="#000000" opacity="1.00" d=" M 145.78 153.91 C 147.28 154.17 148.77 154.42 150.27 154.67 C 149.88 157.52 149.34 161.33 145.88 161.93 C 143.26 162.27 142.10 159.89 141.57 157.75 C 142.85 157.64 144.13 157.54 145.41 157.46 C 145.53 156.28 145.66 155.09 145.78 153.91 Z" />
</g>
</svg>
