<?xml version="1.0" encoding="UTF-8" ?>
<!DOCTYPE svg PUBLIC "-//W3C//DTD SVG 1.1//EN" "http://www.w3.org/Graphics/SVG/1.1/DTD/svg11.dtd">
<svg width="512pt" height="128pt" viewBox="0 0 512 128" version="1.1" xmlns="http://www.w3.org/2000/svg">
<g id="#000000ff">
<path fill="#000000" opacity="1.00" d=" M 160.84 24.93 C 161.34 24.74 162.35 24.35 162.85 24.16 C 162.23 28.49 159.64 32.13 158.13 36.15 C 158.96 40.10 161.22 43.79 161.11 47.97 C 161.15 58.15 157.00 67.96 151.23 76.19 C 147.62 81.35 141.11 83.57 135.01 83.48 C 131.63 83.71 128.40 82.54 125.07 82.18 C 120.37 83.89 115.31 86.62 110.21 84.79 C 105.54 83.21 104.95 77.45 105.20 73.24 C 105.33 70.95 108.15 70.28 110.01 70.72 C 115.17 71.68 119.61 74.62 124.40 76.60 C 126.42 77.62 128.08 75.62 129.45 74.43 C 138.67 65.29 145.38 54.06 152.01 43.01 C 152.92 41.20 154.82 38.89 153.00 37.02 C 149.89 33.42 145.00 32.10 140.48 31.38 C 129.21 29.81 118.11 34.04 108.42 39.42 C 99.98 45.54 91.64 52.79 87.67 62.69 C 84.19 70.91 83.95 80.73 88.29 88.68 C 91.61 95.95 99.79 99.29 107.22 100.44 C 118.81 102.02 129.66 96.76 140.79 94.65 C 140.43 95.05 139.72 95.86 139.36 96.26 C 130.93 99.94 122.10 102.86 113.01 104.33 C 105.07 104.64 96.91 102.31 90.60 97.40 C 85.46 92.76 83.43 85.66 82.48 79.02 C 82.06 66.57 87.20 53.89 96.45 45.45 C 107.10 34.07 122.25 26.45 138.00 26.47 C 144.90 26.38 151.11 29.98 156.12 34.44 C 158.13 31.50 159.06 28.00 160.84 24.93 M 149.50 51.55 C 146.14 57.09 142.75 62.64 138.78 67.77 C 135.96 71.50 132.43 74.64 129.72 78.46 C 136.57 80.28 144.54 78.80 149.53 73.56 C 153.58 67.81 156.88 61.35 158.22 54.39 C 159.02 49.87 158.76 44.75 155.96 40.93 C 153.20 44.07 151.68 48.02 149.50 51.55 M 107.17 75.28 C 106.98 77.80 108.14 80.34 110.46 81.49 C 113.68 82.81 117.47 82.13 120.26 80.14 C 116.26 77.77 111.95 75.29 107.17 75.28 Z" />
<path fill="#000000" opacity="1.00" d=" M 285.47 43.46 C 286.71 42.37 288.05 41.08 289.83 41.08 C 292.66 42.78 291.52 47.01 290.80 49.66 C 288.04 55.26 284.01 60.23 279.61 64.63 C 275.84 68.54 269.81 70.66 268.42 76.46 C 273.85 74.20 278.30 69.90 284.07 68.40 L 284.99 68.95 C 286.42 72.73 282.42 76.03 281.69 79.67 C 284.49 79.36 286.26 76.95 288.48 75.49 C 292.03 72.98 295.50 70.32 299.17 68.00 C 299.64 67.95 300.58 67.85 301.05 67.80 C 300.69 72.45 297.05 76.16 297.16 80.98 C 301.45 81.18 305.03 78.52 308.70 76.72 C 312.19 74.72 316.29 73.02 318.19 69.21 C 320.16 65.16 321.27 60.67 324.02 57.01 C 327.63 52.02 330.86 46.49 336.07 42.97 C 339.13 45.01 338.12 48.93 337.65 51.96 C 336.41 58.81 330.74 63.45 326.09 68.12 C 323.88 70.25 321.20 72.27 320.66 75.51 C 328.56 74.61 335.21 69.76 341.94 65.90 C 344.11 64.52 346.89 63.54 347.89 60.93 C 351.40 53.30 356.77 46.44 363.64 41.57 C 365.23 40.43 368.00 39.58 369.26 41.64 C 370.64 44.26 369.82 47.72 367.94 49.92 C 363.10 55.82 356.83 60.32 350.56 64.57 C 347.49 69.11 345.84 75.02 346.60 80.50 C 347.29 83.46 350.74 82.40 352.75 81.64 C 359.70 79.43 365.55 74.43 368.88 67.94 C 367.64 66.40 366.29 64.96 364.96 63.50 C 367.13 62.02 370.25 62.04 371.66 64.53 C 373.71 66.67 371.40 69.35 370.49 71.44 C 366.26 79.74 357.92 85.37 348.98 87.41 C 346.33 88.00 344.42 85.57 343.50 83.42 C 341.46 78.95 343.43 74.10 343.91 69.52 C 335.75 73.39 328.35 79.66 319.05 80.53 C 317.42 79.79 316.89 77.92 315.94 76.56 C 311.02 80.00 305.65 82.75 300.12 85.05 C 298.31 85.60 295.64 86.43 294.41 84.47 C 293.60 81.31 294.72 78.10 295.30 74.99 C 288.97 77.62 284.88 83.41 278.92 86.65 C 278.40 86.55 277.37 86.34 276.86 86.24 C 276.76 81.84 279.45 78.08 280.33 73.88 C 275.71 75.10 272.02 78.42 268.47 81.45 C 266.37 83.04 264.81 86.62 261.69 85.31 C 262.22 82.43 263.12 79.64 263.76 76.80 C 257.18 80.02 251.26 84.44 244.68 87.69 C 241.81 89.01 238.97 91.23 235.63 90.58 C 233.21 82.58 239.74 76.05 242.21 69.01 C 240.63 68.60 238.55 67.60 237.39 69.38 C 231.82 75.47 226.91 82.46 219.75 86.84 C 217.90 88.09 214.56 88.68 213.81 85.87 C 212.84 81.08 214.99 76.32 216.49 71.85 C 213.90 71.54 211.68 69.99 209.25 69.41 C 206.04 73.49 203.93 78.51 199.66 81.68 C 196.79 83.83 194.32 86.79 190.79 87.84 C 189.42 88.40 187.82 87.41 187.77 85.93 C 186.57 76.78 191.68 68.66 194.05 60.19 C 190.28 59.14 186.59 60.76 183.08 61.94 C 179.98 62.93 178.48 66.11 178.12 69.12 C 177.34 75.35 173.20 80.65 168.16 84.16 C 166.87 85.03 164.86 86.01 163.51 84.71 C 161.03 82.65 161.30 78.91 162.00 76.08 C 164.56 66.88 170.79 58.93 178.54 53.48 C 181.29 51.82 184.47 49.95 187.79 50.91 C 187.87 51.71 188.03 53.31 188.11 54.12 C 185.67 54.38 183.10 54.54 180.99 55.95 C 173.73 60.64 167.63 67.48 164.77 75.71 C 164.33 77.36 163.53 80.12 165.92 80.55 C 170.69 77.92 174.57 73.31 175.78 67.96 C 176.40 65.54 175.19 62.18 177.68 60.59 C 182.37 57.92 187.71 56.45 193.02 55.59 C 195.13 54.89 197.84 56.69 197.25 59.05 C 195.63 67.25 189.70 74.30 190.17 83.01 C 193.86 82.47 196.80 79.88 199.47 77.46 C 203.85 72.99 207.19 67.62 210.35 62.25 C 212.77 62.24 212.86 65.57 214.07 67.12 C 216.13 66.91 218.27 66.91 220.23 66.15 C 223.10 64.78 225.18 62.13 228.18 61.00 C 230.20 60.13 233.00 61.62 233.05 63.91 C 230.81 68.06 225.55 67.71 222.03 70.02 C 218.10 73.09 216.79 78.38 216.69 83.14 C 223.88 80.00 229.20 73.98 234.17 68.12 C 235.63 66.51 236.95 64.56 239.07 63.77 C 242.07 63.86 245.23 64.19 247.82 65.88 C 245.33 72.64 239.56 78.05 238.70 85.39 C 247.30 82.51 254.75 77.06 262.59 72.61 C 265.20 70.95 268.35 69.56 269.47 66.42 C 273.38 57.90 278.63 49.92 285.47 43.46 M 352.88 58.47 C 357.47 56.10 361.47 52.63 364.75 48.65 C 365.68 47.65 365.84 46.26 366.05 44.97 C 360.05 47.36 355.63 52.79 352.88 58.47 M 274.88 63.35 C 280.60 59.68 285.87 54.27 287.49 47.48 C 281.56 50.94 277.06 56.87 274.88 63.35 M 323.89 65.19 C 328.88 61.40 334.65 56.54 334.32 49.63 C 329.25 53.47 325.92 59.25 323.89 65.19 Z" />
<path fill="#000000" opacity="1.00" d=" M 311.03 48.95 C 311.09 47.10 311.34 44.00 313.92 44.30 C 315.48 46.34 313.56 49.38 311.03 48.95 Z" />
</g>
</svg>
