<?xml version="1.0" encoding="UTF-8" ?>
<!DOCTYPE svg PUBLIC "-//W3C//DTD SVG 1.1//EN" "http://www.w3.org/Graphics/SVG/1.1/DTD/svg11.dtd">
<svg width="256pt" height="128pt" viewBox="0 0 256 128" version="1.1" xmlns="http://www.w3.org/2000/svg">
<g id="#000000ff">
<path fill="#000000" opacity="1.00" d=" M 120.75 27.96 C 122.55 16.74 129.83 5.72 141.15 2.32 C 143.97 2.59 146.05 5.48 146.55 8.15 C 147.72 14.43 145.39 20.78 142.11 26.06 C 139.33 30.52 134.15 33.45 132.88 38.81 C 133.65 40.33 134.99 41.46 135.99 42.84 C 133.63 42.43 131.41 41.50 129.06 41.11 C 127.36 41.48 126.26 42.95 125.05 44.06 C 120.68 48.45 115.49 52.78 109.06 53.31 C 108.11 52.20 107.16 51.08 106.20 49.97 C 103.07 51.41 99.76 54.01 96.16 53.19 C 92.89 52.21 93.89 48.25 93.49 45.69 C 88.17 47.36 85.11 53.46 79.29 53.80 C 77.18 49.73 80.67 46.12 82.38 42.69 C 76.89 43.96 73.05 48.48 68.40 51.37 C 64.94 53.65 60.85 57.69 56.42 55.58 C 51.86 51.73 53.53 44.92 51.22 39.89 C 48.58 39.65 46.30 38.39 44.56 36.41 C 40.86 41.98 37.46 47.74 33.87 53.39 C 32.94 52.62 32.02 51.83 31.11 51.04 C 33.98 42.51 40.93 36.13 44.18 27.86 C 36.37 33.77 30.14 41.97 21.07 46.14 C 17.00 48.10 12.76 50.78 8.04 50.17 C 3.87 49.41 1.97 44.87 1.98 41.04 C 2.01 32.75 6.84 25.24 13.06 20.08 C 17.27 16.66 22.42 13.51 28.07 14.07 C 30.67 14.10 33.56 16.14 33.22 18.99 C 32.91 23.63 29.75 27.44 26.54 30.53 C 23.48 33.36 20.58 36.47 16.89 38.48 C 16.73 37.44 15.43 35.70 17.02 35.13 C 22.19 32.50 26.18 28.10 29.60 23.52 C 30.86 21.52 32.09 17.49 28.94 16.62 C 23.99 16.14 19.25 18.45 15.53 21.55 C 10.64 25.77 5.91 30.77 4.21 37.18 C 3.57 39.87 3.19 42.94 4.55 45.48 C 6.38 48.46 10.43 48.29 13.34 47.25 C 17.66 45.57 21.47 42.84 25.43 40.46 C 36.44 32.66 46.98 23.67 54.14 12.08 C 55.98 9.29 56.97 6.02 59.03 3.37 C 61.34 3.00 61.86 5.18 61.18 6.96 C 59.15 12.42 55.04 16.79 52.57 22.02 C 52.61 22.64 52.69 23.87 52.72 24.48 C 58.30 22.79 62.89 18.34 68.97 17.97 C 72.98 16.94 76.63 21.12 76.01 24.95 C 75.52 29.25 72.13 32.46 68.68 34.69 C 64.26 37.22 59.14 38.04 54.32 39.47 C 55.13 44.06 56.07 48.63 57.23 53.15 C 62.42 52.14 66.27 48.24 70.83 45.85 C 74.56 43.97 77.56 40.84 81.57 39.49 C 86.59 37.57 90.52 33.18 96.00 32.40 C 99.06 32.48 102.12 34.45 102.94 37.49 C 98.70 39.65 95.78 44.61 96.62 49.39 C 100.96 49.98 104.74 47.37 108.36 45.38 C 113.43 42.54 117.19 37.99 121.98 34.76 C 121.62 32.48 121.04 30.25 120.75 27.96 M 128.53 17.59 C 126.51 21.57 124.33 25.57 123.40 29.97 C 124.18 32.92 127.17 34.37 129.15 36.44 C 133.34 33.14 135.99 28.39 139.26 24.25 C 141.73 20.28 145.34 16.18 144.75 11.18 C 144.61 8.92 142.53 6.41 140.07 7.19 C 134.66 8.28 131.05 13.02 128.53 17.59 M 64.02 22.08 C 58.51 24.69 53.02 27.66 48.80 32.16 C 50.23 33.42 51.23 35.61 53.19 35.98 C 59.72 35.19 66.13 32.48 71.02 28.05 C 73.07 26.24 73.69 23.42 73.23 20.81 C 70.12 20.60 66.90 20.78 64.02 22.08 M 84.67 47.41 C 88.06 45.19 90.98 42.22 93.17 38.81 C 89.20 40.15 85.63 43.19 84.67 47.41 M 117.57 43.57 C 116.26 45.01 114.39 45.93 113.52 47.74 C 117.29 46.84 122.50 44.62 121.85 39.90 C 119.97 40.51 118.93 42.27 117.57 43.57 Z" />
<path fill="#000000" opacity="1.00" d=" M 174.59 11.54 C 177.08 9.89 180.47 12.07 179.95 15.03 C 179.54 21.12 174.44 25.43 170.09 29.09 C 166.24 32.44 161.48 34.46 157.37 37.39 C 155.45 41.05 152.40 45.34 154.40 49.58 C 155.35 51.54 157.69 50.66 159.31 50.30 C 164.17 48.85 169.55 46.79 172.11 42.07 C 174.15 38.29 176.91 34.45 181.15 33.00 C 183.51 31.99 186.86 34.86 185.24 37.28 C 183.47 42.22 177.91 43.21 174.26 46.20 C 172.65 47.40 172.83 49.51 172.74 51.28 C 175.45 51.59 178.09 50.74 180.42 49.41 C 185.00 46.81 190.01 44.61 193.50 40.52 C 194.87 38.86 196.49 37.25 198.77 37.08 C 199.01 37.80 199.49 39.23 199.73 39.95 C 197.27 42.78 194.20 44.94 191.39 47.38 C 191.31 48.00 191.15 49.25 191.07 49.87 C 192.49 49.84 193.99 49.94 195.29 49.22 C 201.36 46.38 206.86 42.35 211.48 37.49 C 212.66 36.14 214.18 35.20 215.91 34.72 C 216.51 36.22 217.46 37.94 216.57 39.55 C 212.61 46.44 207.30 52.43 202.92 59.04 C 206.08 58.65 207.75 55.75 209.92 53.80 C 211.88 57.62 208.28 60.55 205.41 62.42 C 203.54 63.78 201.16 63.50 198.99 63.67 C 194.65 68.78 193.38 76.55 187.02 79.76 C 184.34 76.50 182.48 71.70 184.82 67.75 C 187.41 63.59 192.79 63.16 196.64 60.67 C 198.91 59.54 199.75 57.03 200.85 54.93 C 202.17 52.13 204.35 49.84 205.75 47.08 C 204.94 45.50 203.52 46.83 202.52 47.46 C 198.36 50.52 194.07 53.90 188.92 55.01 C 186.87 55.29 185.90 53.23 184.75 51.97 C 181.07 53.53 177.04 54.44 173.05 54.52 C 170.96 53.50 170.60 51.05 169.77 49.14 C 165.19 52.06 160.05 55.62 154.31 53.70 C 150.31 51.56 150.59 46.25 150.85 42.38 C 147.74 42.96 144.87 44.31 141.94 45.45 C 139.15 46.33 137.37 43.36 135.41 41.95 C 137.28 40.24 136.83 36.01 139.87 36.03 C 139.44 38.27 138.36 40.47 138.91 42.79 C 143.30 42.10 147.39 40.28 151.28 38.22 C 155.33 36.35 157.06 31.97 159.55 28.58 C 163.91 22.41 168.00 15.57 174.59 11.54 M 173.99 15.94 C 168.56 20.12 164.12 25.55 160.85 31.56 C 164.65 30.16 167.62 27.28 170.63 24.66 C 173.48 21.90 176.81 19.19 177.89 15.19 C 176.53 15.00 175.01 14.77 173.99 15.94 M 175.44 42.74 C 178.52 41.10 182.93 38.89 182.90 34.88 C 179.72 36.72 177.35 39.66 175.44 42.74 M 187.03 74.03 C 189.09 72.38 190.60 70.16 191.38 67.63 C 188.10 68.11 186.30 70.82 187.03 74.03 Z" />
<path fill="#000000" opacity="1.00" d=" M 229.26 26.19 C 231.67 25.33 232.19 28.90 231.59 30.55 C 229.74 34.33 225.48 36.02 221.63 36.99 C 222.01 34.59 224.43 33.56 225.80 31.80 C 227.08 30.01 227.73 27.81 229.26 26.19 Z" />
<path fill="#000000" opacity="1.00" d=" M 241.78 47.82 C 243.18 46.23 244.56 44.50 246.75 44.03 C 247.28 45.53 248.25 47.10 247.68 48.75 C 246.40 53.25 242.05 55.96 240.39 60.21 C 244.59 60.74 248.33 58.85 251.95 57.05 C 253.24 57.97 253.28 60.06 251.64 60.61 C 248.02 63.80 242.95 64.24 238.37 63.50 C 234.67 62.44 231.57 60.04 228.23 58.26 C 225.48 58.58 222.80 59.44 220.02 59.52 C 219.68 58.90 219.02 57.65 218.68 57.02 C 223.45 55.51 228.17 53.84 232.67 51.64 C 235.61 50.12 239.44 50.44 241.78 47.82 M 233.00 56.05 C 235.53 58.99 239.37 55.29 240.76 52.82 C 237.97 53.35 235.39 54.55 233.00 56.05 Z" />
<path fill="#000000" opacity="1.00" d=" M 76.00 65.58 C 84.69 65.77 94.35 66.71 102.05 61.84 C 102.38 62.39 103.04 63.51 103.37 64.06 C 99.19 73.07 94.31 81.78 90.62 91.00 C 91.85 93.63 95.27 92.43 97.53 92.32 C 102.75 91.30 108.79 90.82 112.58 86.62 C 117.52 80.77 118.86 72.72 124.13 67.06 C 127.81 71.23 123.52 76.45 122.69 80.93 C 122.44 85.49 117.19 86.64 115.45 90.40 C 111.72 97.40 107.88 104.36 104.50 111.55 C 102.72 115.20 101.60 119.25 98.84 122.34 C 98.20 120.75 97.42 119.01 98.23 117.32 C 100.48 110.93 103.59 104.85 107.11 99.06 C 108.24 97.14 108.99 95.03 109.67 92.91 C 104.63 94.07 99.56 95.12 94.41 95.65 C 91.74 96.09 88.24 96.10 86.93 98.96 C 83.80 104.79 80.63 110.60 77.29 116.31 C 75.23 120.11 74.06 124.34 71.73 128.00 L 69.41 128.00 C 69.11 125.23 69.61 122.45 70.99 120.01 C 75.15 112.06 79.98 104.47 84.20 96.56 C 77.97 96.52 71.69 98.72 65.51 97.19 C 65.75 96.69 66.22 95.69 66.46 95.19 C 72.22 93.45 78.71 95.39 84.51 93.36 C 87.34 91.88 88.51 88.64 90.01 86.01 C 93.03 79.79 96.79 73.80 98.36 66.99 C 86.44 69.72 74.14 67.27 62.14 68.92 C 62.96 70.65 63.65 72.65 65.41 73.67 C 71.07 77.33 78.24 75.69 84.28 78.17 C 81.24 79.34 77.97 78.74 74.84 78.44 C 71.37 77.95 67.70 77.37 64.81 75.24 C 62.17 73.18 59.26 70.21 60.40 66.56 C 65.56 65.83 70.79 65.75 76.00 65.58 Z" />
<path fill="#000000" opacity="1.00" d=" M 186.33 98.31 C 189.36 96.05 191.84 93.11 195.13 91.19 C 195.82 92.37 196.73 93.51 196.88 94.93 C 194.79 100.35 189.41 103.77 187.41 109.22 C 190.65 109.50 194.27 109.68 197.21 108.09 C 199.21 105.38 199.70 101.66 202.47 99.49 C 204.53 97.91 207.23 96.05 209.92 96.86 C 211.85 97.11 211.67 99.53 211.04 100.83 C 208.86 105.25 204.52 107.94 201.01 111.20 C 200.80 114.35 204.84 115.71 207.35 116.52 C 215.96 117.91 225.18 115.32 232.13 110.12 C 234.53 108.67 234.57 105.77 235.33 103.37 C 237.09 101.94 238.46 104.36 238.12 105.98 C 237.65 109.00 235.10 111.07 232.77 112.75 C 226.34 117.01 218.83 120.43 210.93 119.84 C 205.44 119.68 200.17 116.94 197.06 112.39 C 193.66 112.53 190.25 113.05 186.88 112.44 C 183.97 111.92 181.58 114.10 179.06 115.15 C 177.84 113.48 176.76 111.71 175.70 109.94 C 171.02 111.72 166.81 114.52 162.18 116.42 C 160.49 117.29 157.74 116.74 157.47 114.56 C 157.21 111.91 157.85 109.28 157.95 106.64 C 152.86 108.57 149.59 113.24 144.86 115.72 C 142.36 116.42 140.79 113.08 141.81 111.10 C 143.47 106.64 145.61 102.37 147.16 97.87 C 141.42 97.64 135.72 99.19 130.11 100.13 C 127.24 104.64 126.64 110.30 123.91 114.91 C 123.05 116.06 121.99 117.61 120.34 116.89 C 118.29 114.96 118.13 111.79 119.44 109.41 C 122.41 102.95 126.62 96.94 132.22 92.48 C 132.86 93.52 133.48 94.57 134.08 95.63 C 139.62 95.65 144.92 93.99 150.36 93.28 C 151.13 94.56 151.91 95.83 152.71 97.09 C 151.00 101.16 147.35 104.51 147.00 109.04 C 149.80 108.09 151.72 105.72 154.21 104.24 C 156.95 102.56 159.70 100.91 162.27 98.99 C 163.68 97.52 165.12 99.40 166.31 100.11 C 164.77 104.81 159.22 108.05 159.75 113.25 C 161.84 114.02 163.89 112.53 165.75 111.74 C 172.87 107.69 179.83 103.31 186.33 98.31 M 201.83 106.19 C 204.40 104.94 207.30 103.53 208.40 100.68 C 205.73 101.58 202.34 103.08 201.83 106.19 M 182.07 106.76 C 185.04 108.15 186.53 104.97 187.53 102.77 C 185.54 103.28 180.17 103.70 182.07 106.76 Z" />
</g>
</svg>
