<?xml version="1.0" encoding="UTF-8" ?>
<!DOCTYPE svg PUBLIC "-//W3C//DTD SVG 1.1//EN" "http://www.w3.org/Graphics/SVG/1.1/DTD/svg11.dtd">
<svg width="512pt" height="128pt" viewBox="0 0 512 128" version="1.1" xmlns="http://www.w3.org/2000/svg">
<g id="#000000ff">
<path fill="#000000" opacity="1.00" d=" M 380.50 16.45 C 384.21 10.47 388.84 4.63 395.20 1.33 C 397.51 0.56 398.61 3.32 399.10 5.07 C 400.19 10.59 398.91 16.24 397.39 21.55 C 394.15 32.47 386.17 42.17 375.44 46.35 C 373.29 47.29 370.92 46.03 368.75 46.68 C 365.63 51.02 362.74 55.59 360.45 60.43 C 364.17 61.67 368.12 61.52 371.98 61.45 C 374.56 61.34 377.24 58.40 379.45 61.04 C 378.82 62.66 378.33 64.78 376.45 65.37 C 370.54 68.00 363.99 66.41 357.92 65.35 C 353.76 64.59 348.46 65.18 345.62 61.39 C 344.42 59.96 345.97 58.42 347.09 57.55 C 349.89 57.15 353.08 59.92 355.49 57.64 C 358.31 54.93 360.05 51.35 362.08 48.06 C 368.08 37.45 374.15 26.87 380.50 16.45 M 385.39 17.40 C 380.06 25.55 376.13 34.53 370.67 42.60 C 374.09 43.84 376.89 41.26 379.67 39.68 C 386.83 35.09 391.75 27.71 394.73 19.86 C 396.20 15.65 397.58 10.88 395.42 6.64 C 390.99 9.02 388.40 13.55 385.39 17.40 Z" />
<path fill="#000000" opacity="1.00" d=" M 261.78 10.80 C 264.34 7.41 267.14 4.21 270.12 1.18 C 272.32 4.54 274.40 8.25 274.13 12.42 C 272.87 10.98 271.83 9.38 270.82 7.76 C 265.93 12.41 262.99 18.58 258.91 23.87 C 257.96 25.16 256.97 26.48 256.51 28.04 C 256.66 30.57 257.98 32.84 258.60 35.26 C 260.04 40.02 259.37 45.02 259.50 49.90 C 259.54 51.48 259.68 53.26 261.02 54.33 C 264.97 53.42 269.02 52.54 272.67 50.69 C 275.76 49.33 275.14 45.37 277.01 43.04 C 278.88 40.63 281.27 37.51 284.74 38.11 C 287.78 39.15 287.86 43.21 286.85 45.75 C 285.86 48.93 282.62 50.29 280.36 52.38 C 278.92 53.81 279.07 55.97 278.89 57.83 C 285.01 57.13 289.81 53.02 294.88 49.93 C 297.63 48.55 297.10 45.15 297.90 42.65 C 299.78 35.50 304.61 29.68 308.51 23.56 C 311.75 19.06 314.50 14.17 318.23 10.07 C 320.24 8.88 320.78 11.74 321.19 13.10 C 322.80 22.60 318.36 32.15 312.14 39.12 C 308.42 42.59 304.68 46.08 301.71 50.23 C 301.02 52.10 301.91 55.46 304.30 55.55 C 311.77 56.56 319.11 52.82 324.60 48.01 C 325.04 49.41 326.85 51.01 325.30 52.33 C 321.14 57.06 315.08 59.92 308.95 61.07 C 303.58 61.80 298.74 58.36 296.14 53.90 C 290.59 57.80 285.02 62.61 278.01 63.33 C 274.37 62.48 274.07 58.43 273.52 55.43 C 268.26 57.26 263.02 59.30 257.36 59.24 C 253.60 61.66 249.57 64.15 244.99 64.46 C 240.42 64.73 236.60 61.68 232.22 61.02 C 229.95 62.35 228.03 65.16 225.07 64.51 C 219.95 62.60 217.02 56.06 218.98 50.95 C 222.77 51.33 226.20 53.17 229.92 53.84 C 231.93 53.61 233.05 51.66 234.29 50.29 C 239.71 43.31 245.07 36.24 249.86 28.81 C 246.38 27.63 242.69 25.78 238.96 26.88 C 235.08 27.71 230.97 27.61 227.32 29.35 C 221.22 31.96 217.37 37.70 214.29 43.30 C 209.98 51.39 206.36 60.49 207.30 69.82 C 208.28 75.94 214.38 78.82 219.41 81.15 C 213.71 83.37 207.94 79.73 205.13 74.85 C 200.37 66.57 202.60 56.36 206.08 48.04 C 209.87 39.79 214.06 30.99 221.82 25.75 C 231.17 20.33 243.09 19.08 252.94 23.95 C 256.59 20.09 258.64 15.05 261.78 10.80 M 303.34 42.50 C 309.99 36.87 315.98 29.42 316.65 20.40 C 311.70 27.41 305.90 34.15 303.34 42.50 M 236.13 56.53 C 238.98 58.45 242.41 60.15 245.91 58.92 C 250.93 57.88 257.45 54.07 256.27 48.07 C 254.94 42.97 256.54 37.08 253.15 32.61 C 248.00 40.95 241.57 48.39 236.13 56.53 M 279.57 48.34 C 281.90 46.94 286.05 43.82 283.06 41.06 C 281.54 43.29 280.47 45.80 279.57 48.34 Z" />
<path fill="#000000" opacity="1.00" d=" M 122.35 10.31 C 123.54 8.19 124.60 5.99 126.06 4.04 C 127.47 5.28 129.50 6.60 128.77 8.80 C 127.09 14.36 122.92 18.83 121.24 24.43 C 125.25 21.91 129.06 18.89 133.58 17.33 C 136.81 16.30 138.76 19.88 139.44 22.46 C 141.07 28.71 136.90 34.51 132.59 38.56 C 127.91 43.15 121.62 45.43 115.44 47.20 C 116.91 53.53 123.49 57.81 129.87 56.62 C 138.91 54.84 146.95 49.76 153.93 43.90 C 157.19 41.32 158.77 37.36 161.02 33.97 C 162.53 35.15 164.24 36.86 163.36 38.95 C 160.89 44.36 157.29 49.20 155.14 54.77 C 159.24 53.26 162.71 50.50 166.80 48.94 C 170.33 47.55 173.20 44.98 176.42 43.02 C 176.15 42.06 175.60 40.15 175.33 39.19 C 180.71 39.43 185.89 44.12 184.84 49.79 C 183.22 55.46 179.46 60.94 173.93 63.38 C 172.00 64.17 170.21 62.76 169.90 60.84 C 169.56 57.63 170.59 54.51 170.97 51.36 C 164.74 54.46 158.89 58.28 153.14 62.18 C 151.22 63.76 148.14 62.26 147.65 59.97 C 148.09 56.94 149.46 54.16 150.24 51.22 C 142.09 55.64 134.08 63.15 124.05 61.16 C 116.51 59.83 113.62 52.05 109.15 46.87 C 106.40 50.80 104.37 55.16 102.75 59.66 C 102.21 61.30 100.42 61.94 98.96 60.99 C 98.26 59.14 98.80 57.20 99.45 55.43 C 104.28 42.67 112.08 31.35 118.38 19.34 C 115.56 20.27 113.76 22.73 111.71 24.71 C 96.93 39.61 80.37 52.98 61.61 62.55 C 56.52 64.75 51.14 68.16 45.38 66.50 C 41.28 65.16 39.69 60.71 38.68 56.93 C 37.45 51.85 39.70 46.96 41.40 42.29 C 47.62 32.53 57.48 25.56 67.99 21.02 C 69.79 20.36 71.78 18.61 73.65 20.06 C 77.88 22.03 78.11 27.54 77.41 31.53 C 76.10 36.23 74.31 40.80 72.47 45.31 C 71.89 45.59 70.73 46.15 70.16 46.42 C 69.41 38.70 75.94 32.28 74.42 24.52 C 70.45 23.06 66.65 25.39 63.31 27.29 C 56.58 31.24 49.61 35.68 45.77 42.72 C 43.00 47.79 41.00 54.07 43.25 59.71 C 44.74 62.84 48.97 62.71 51.74 61.59 C 70.62 54.51 87.04 42.30 102.01 29.03 C 108.85 22.86 116.43 17.44 122.35 10.31 M 112.36 42.28 C 117.97 42.68 123.24 39.81 127.72 36.72 C 132.38 33.57 136.14 28.25 135.33 22.37 C 125.07 25.07 118.15 33.99 112.36 42.28 M 175.74 54.75 C 178.39 52.94 180.37 50.18 180.53 46.88 C 177.96 48.79 176.51 51.72 175.74 54.75 Z" />
<path fill="#000000" opacity="1.00" d=" M 430.28 25.24 C 434.99 18.51 438.46 10.66 445.12 5.52 C 447.53 5.48 447.56 8.28 447.10 10.01 C 446.12 14.83 445.47 19.81 443.34 24.30 C 439.80 31.49 437.36 39.66 431.01 45.00 C 427.32 48.93 421.58 50.44 418.60 55.05 C 421.34 54.44 423.93 52.90 426.81 53.00 C 430.89 55.31 432.66 61.17 430.27 65.31 C 428.49 68.69 424.33 69.46 420.92 70.14 C 417.26 70.56 412.35 69.75 410.91 65.81 C 409.64 61.77 412.41 57.99 413.64 54.31 C 410.61 55.56 407.42 56.34 404.32 57.35 C 400.29 58.75 399.19 63.53 395.58 65.54 C 393.76 66.73 390.92 69.65 389.08 66.98 C 386.78 64.58 388.54 61.18 389.67 58.66 C 392.67 53.22 396.40 47.76 401.91 44.62 C 405.18 46.13 403.58 49.78 402.26 52.08 C 407.23 52.80 412.84 52.15 416.77 48.82 C 421.67 41.21 425.22 32.78 430.28 25.24 M 429.46 36.44 C 428.16 39.07 425.17 41.20 425.69 44.41 C 431.51 42.23 434.48 36.27 437.03 31.02 C 438.65 26.98 441.11 23.09 441.24 18.63 C 436.44 23.95 432.98 30.25 429.46 36.44 M 392.12 62.76 C 395.65 60.52 397.35 56.47 398.15 52.52 C 394.67 54.83 392.83 58.76 392.12 62.76 M 415.38 65.14 C 418.95 65.58 423.10 65.43 425.90 62.88 C 427.69 61.16 426.81 58.53 424.92 57.31 C 421.54 59.62 417.89 61.82 415.38 65.14 Z" />
<path fill="#000000" opacity="1.00" d=" M 158.92 14.07 C 162.64 13.58 165.67 16.72 166.95 19.91 C 164.67 22.49 161.85 19.25 159.54 18.30 C 157.74 17.58 158.90 15.43 158.92 14.07 Z" />
<path fill="#000000" opacity="1.00" d=" M 447.71 49.12 C 452.13 47.41 455.36 52.24 455.64 56.10 C 455.92 58.15 454.54 59.84 453.53 61.46 C 450.93 65.31 447.48 68.95 442.96 70.41 C 440.88 70.91 437.26 69.68 438.16 67.01 C 439.23 61.45 443.44 57.16 446.75 52.78 C 447.10 51.57 447.42 50.35 447.71 49.12 M 445.29 63.56 C 448.02 62.21 450.08 59.74 450.26 56.60 C 447.53 57.98 445.85 60.60 445.29 63.56 Z" />
<path fill="#000000" opacity="1.00" d=" M 158.99 66.39 C 162.95 66.40 166.74 65.07 170.66 64.69 C 170.41 75.97 163.47 85.37 159.60 95.57 C 165.80 95.75 172.04 94.95 177.95 93.05 C 180.35 92.36 182.10 90.47 183.39 88.42 C 186.78 83.00 189.62 77.27 192.66 71.66 C 193.31 70.36 194.38 69.36 195.44 68.40 C 196.96 71.98 195.62 75.74 193.88 78.95 C 187.41 91.82 178.37 103.18 171.86 116.02 C 171.39 118.19 168.86 117.50 168.12 115.91 C 169.98 109.97 172.95 104.39 176.55 99.32 C 171.23 99.01 166.21 101.08 160.94 101.17 C 158.90 101.24 156.51 101.35 155.23 103.20 C 151.62 108.38 149.03 114.20 145.31 119.31 C 143.71 121.45 142.73 123.94 141.51 126.29 C 140.64 125.79 139.78 125.26 138.95 124.71 C 140.39 116.34 146.69 110.04 150.72 102.85 C 148.96 100.86 146.27 101.85 144.01 101.91 C 139.95 102.32 135.73 101.94 131.85 103.39 C 131.54 104.57 131.40 105.79 131.12 106.99 C 129.17 105.50 127.35 103.82 125.88 101.84 C 126.49 98.10 130.98 98.32 133.83 97.63 C 140.36 96.01 147.17 97.48 153.71 96.05 C 154.98 94.73 155.68 93.00 156.55 91.40 C 159.99 84.57 163.91 77.80 165.54 70.24 C 158.69 70.29 151.85 70.22 145.01 69.90 C 140.26 70.38 135.22 69.76 130.80 71.85 C 133.84 76.56 139.28 78.13 144.27 79.83 C 143.68 80.91 143.08 81.99 142.48 83.06 C 137.86 82.29 133.44 80.18 129.92 77.11 C 126.64 74.10 127.98 67.47 132.65 66.78 C 141.40 66.06 150.21 66.47 158.99 66.39 Z" />
<path fill="#000000" opacity="1.00" d=" M 204.23 96.55 C 211.07 95.01 218.16 95.17 224.95 93.47 C 227.11 94.45 226.46 97.13 226.73 99.04 C 227.08 104.24 222.61 107.91 221.17 112.61 C 227.32 108.61 232.01 102.69 238.45 99.06 C 239.02 100.57 240.10 102.22 239.08 103.82 C 237.10 107.55 235.26 111.35 233.97 115.39 C 240.21 113.51 246.09 110.68 252.05 108.10 C 259.66 104.78 266.19 99.19 274.26 96.92 C 275.62 103.40 270.17 108.43 268.68 114.39 C 272.73 114.70 276.80 114.33 280.85 114.03 C 283.25 113.65 284.08 111.06 285.36 109.34 C 288.93 103.45 295.33 99.48 302.24 99.13 C 304.97 103.97 300.96 108.50 298.15 112.17 C 294.23 114.19 290.16 115.94 286.28 118.05 C 287.75 120.07 290.38 119.82 292.53 119.40 C 300.31 117.93 307.76 115.09 315.07 112.11 C 318.69 110.77 321.29 107.86 324.05 105.30 C 324.33 107.54 325.35 110.46 323.17 112.11 C 319.14 115.24 315.17 118.74 310.17 120.21 C 302.68 122.52 295.25 126.35 287.21 125.69 C 283.59 125.51 282.67 121.52 280.57 119.31 C 276.34 119.11 272.17 120.78 267.94 119.89 C 263.58 118.61 260.43 123.38 256.12 122.83 C 253.16 122.49 250.35 120.07 249.74 117.15 C 250.54 115.49 251.65 114.01 252.58 112.42 C 249.69 113.36 246.98 114.73 244.53 116.52 C 241.30 118.89 237.18 119.18 233.64 120.86 C 231.86 121.99 229.37 121.18 228.07 119.70 C 228.06 116.56 229.73 113.77 230.57 110.81 C 228.55 111.55 226.70 112.68 225.51 114.51 C 223.11 118.03 218.94 120.13 214.76 120.50 C 215.46 112.75 221.15 106.77 223.24 99.41 C 217.69 97.72 212.12 100.09 206.58 100.59 C 205.39 105.10 205.37 110.37 201.93 113.91 C 199.54 116.05 196.53 117.34 193.74 118.85 C 191.97 119.83 189.32 118.09 189.77 116.03 C 191.98 110.29 195.98 105.53 199.77 100.78 C 201.13 99.29 201.90 96.70 204.23 96.55 M 195.46 113.59 C 199.62 113.15 202.40 108.28 202.35 104.34 C 199.20 106.52 195.81 109.55 195.46 113.59 M 260.94 108.85 C 258.53 109.72 255.99 110.11 253.57 110.94 C 255.24 114.35 259.35 113.50 262.48 113.87 C 264.54 111.02 266.48 108.03 267.66 104.69 C 265.04 105.44 263.15 107.41 260.94 108.85 M 290.27 110.77 C 293.31 109.67 296.47 108.35 298.33 105.55 C 294.82 105.55 291.74 107.61 290.27 110.77 Z" />
</g>
</svg>
