<?xml version="1.0" encoding="UTF-8" ?>
<!DOCTYPE svg PUBLIC "-//W3C//DTD SVG 1.1//EN" "http://www.w3.org/Graphics/SVG/1.1/DTD/svg11.dtd">
<svg width="256pt" height="128pt" viewBox="0 0 256 128" version="1.1" xmlns="http://www.w3.org/2000/svg">
<g id="#000000ff">
<path fill="#000000" opacity="1.00" d=" M 184.89 6.74 C 189.89 8.27 190.52 13.82 192.41 17.91 C 194.91 15.45 196.74 12.45 198.58 9.49 C 199.43 10.27 200.30 11.06 201.04 11.96 C 198.76 16.27 194.67 19.22 191.98 23.22 C 191.26 28.54 190.64 34.51 193.46 39.36 C 198.20 38.28 200.77 33.38 202.40 29.21 C 203.61 26.66 202.46 23.99 201.83 21.47 C 204.82 21.99 207.20 24.82 206.39 27.92 C 204.84 33.13 202.37 39.14 196.90 41.25 C 194.39 42.47 192.12 40.60 190.06 39.39 C 188.36 43.52 186.37 48.82 181.35 49.61 C 180.48 52.06 179.30 54.39 177.70 56.44 C 173.97 54.92 173.64 50.45 173.37 46.98 C 173.55 43.56 174.32 39.83 176.86 37.35 C 177.60 37.77 179.06 38.59 179.79 39.01 C 176.34 41.87 175.53 46.89 177.21 50.93 C 179.52 48.21 178.20 44.72 178.06 41.56 C 181.20 41.38 181.32 44.49 182.73 46.47 C 185.71 42.23 189.51 37.00 187.65 31.55 C 187.27 30.05 186.77 28.58 186.26 27.11 C 184.00 29.03 182.16 31.38 179.88 33.26 C 178.60 33.11 177.86 32.41 177.66 31.14 C 180.17 28.37 183.17 26.10 185.92 23.56 C 186.03 17.91 183.47 12.36 184.89 6.74 M 187.61 12.37 C 188.13 15.11 187.88 18.31 189.78 20.55 C 189.79 17.69 189.34 14.74 187.61 12.37 Z" />
<path fill="#000000" opacity="1.00" d=" M 148.96 45.24 C 151.00 45.40 152.95 46.30 153.63 48.38 C 155.63 52.54 155.60 57.24 155.59 61.75 C 157.36 62.08 159.11 62.45 160.87 62.84 C 160.57 57.53 160.60 51.75 164.26 47.48 C 170.83 51.67 171.80 61.57 167.06 67.49 C 165.81 67.42 164.55 67.34 163.30 67.24 C 162.63 70.74 161.08 74.07 158.66 76.70 C 157.23 78.82 154.76 76.51 152.99 76.07 C 151.02 80.15 148.91 84.44 145.24 87.27 C 142.66 88.94 139.73 87.25 137.22 86.33 C 135.55 87.62 133.53 88.51 132.12 90.11 C 130.91 92.81 130.09 96.20 126.93 97.27 C 124.30 97.47 123.30 94.61 121.98 92.91 C 120.27 96.73 118.18 100.39 115.74 103.79 C 114.72 105.06 112.40 106.77 111.12 104.91 C 109.30 102.80 109.32 99.77 108.00 97.38 C 105.82 100.57 104.88 104.58 101.91 107.21 C 100.52 107.18 99.77 106.49 99.65 105.12 C 98.49 100.33 99.14 95.38 99.17 90.51 C 96.52 91.47 94.02 92.78 91.65 94.29 C 93.45 98.46 95.21 103.43 92.64 107.70 C 92.01 109.64 88.78 110.42 88.13 108.05 C 86.20 102.45 87.81 96.28 90.21 91.08 C 93.55 90.61 96.48 88.86 99.71 88.04 C 101.19 88.74 102.35 90.31 102.06 92.01 C 101.70 95.46 101.17 98.95 101.85 102.41 C 104.96 97.82 107.33 92.83 109.45 87.73 C 110.26 88.20 111.06 88.71 111.84 89.26 C 111.61 93.88 110.78 98.71 112.65 103.14 C 116.22 99.28 118.17 94.34 120.93 89.94 C 123.36 86.09 124.67 81.68 127.04 77.81 C 130.25 79.91 131.24 83.65 132.38 87.08 C 132.77 86.77 133.54 86.16 133.92 85.85 C 138.89 82.98 136.18 75.57 140.97 72.45 C 142.44 72.74 143.45 73.87 143.98 75.22 C 144.73 79.28 138.91 82.12 141.67 86.05 C 146.89 83.12 149.61 77.41 151.21 71.89 C 151.73 70.36 151.00 68.80 150.76 67.30 C 149.12 60.09 148.39 52.62 148.96 45.24 M 164.15 53.24 C 163.19 57.13 163.38 61.36 164.90 65.08 C 166.54 62.39 167.55 59.26 167.17 56.09 C 166.92 54.49 166.25 51.76 164.15 53.24 M 156.15 63.61 C 155.23 67.18 154.10 71.04 156.08 74.49 C 158.44 72.14 160.31 68.99 159.74 65.52 C 158.65 64.70 157.38 64.17 156.15 63.61 M 127.27 82.64 C 125.79 85.10 124.58 87.72 123.68 90.45 C 125.42 89.75 128.04 89.67 128.83 87.66 C 128.85 85.91 128.87 83.76 127.27 82.64 M 125.35 92.29 C 123.68 93.56 126.08 95.98 127.27 94.18 C 128.92 92.71 126.75 90.53 125.35 92.29 M 90.38 100.39 C 89.61 101.54 89.64 103.32 90.34 104.51 C 91.76 104.30 91.95 100.51 90.38 100.39 Z" />
<path fill="#000000" opacity="1.00" d=" M 78.41 73.53 C 82.60 74.23 81.78 78.86 82.22 82.01 C 83.48 91.69 80.50 101.42 81.90 111.09 C 81.14 111.00 79.61 110.81 78.85 110.72 C 77.93 105.55 79.36 100.36 78.89 95.17 C 75.21 97.08 71.36 98.72 67.81 100.84 C 66.69 106.07 67.30 111.57 65.92 116.79 C 64.69 115.87 63.91 114.51 64.22 112.95 C 64.40 109.19 64.94 105.46 64.93 101.70 C 57.01 104.42 48.80 107.83 43.70 114.84 C 45.40 115.23 47.14 115.53 48.66 116.43 C 46.33 116.35 40.98 118.01 41.03 114.25 C 46.51 105.90 56.39 102.87 65.03 99.03 C 66.05 93.76 65.46 88.33 65.45 83.00 C 57.31 89.74 45.48 88.89 37.64 96.08 C 38.06 97.25 38.47 98.41 38.87 99.59 C 37.47 98.51 36.14 97.37 34.83 96.20 C 42.72 87.29 56.19 88.63 64.87 80.94 C 65.88 79.36 66.11 77.42 66.80 75.69 C 67.96 76.95 68.45 78.41 68.28 80.06 C 67.89 85.98 67.64 91.92 68.19 97.84 C 71.97 96.29 75.87 94.54 78.73 91.53 C 79.86 90.31 79.62 88.59 79.57 87.07 C 79.36 82.54 78.63 78.06 78.41 73.53 Z" />
</g>
</svg>
