<?xml version="1.0" encoding="UTF-8" ?>
<!DOCTYPE svg PUBLIC "-//W3C//DTD SVG 1.1//EN" "http://www.w3.org/Graphics/SVG/1.1/DTD/svg11.dtd">
<svg width="256pt" height="256pt" viewBox="0 0 256 256" version="1.1" xmlns="http://www.w3.org/2000/svg">
<g id="#000000ff">
<path fill="#000000" opacity="1.00" d=" M 156.28 71.96 C 156.19 70.26 157.77 69.20 158.71 68.00 C 159.93 69.32 161.36 70.52 162.17 72.17 C 162.58 74.03 161.30 75.70 160.69 77.37 C 158.72 76.18 156.20 74.55 156.28 71.96 Z" />
<path fill="#000000" opacity="1.00" d=" M 182.36 72.07 C 182.75 71.59 183.52 70.63 183.91 70.15 C 187.18 72.92 190.03 76.61 190.61 80.96 C 189.11 85.30 187.14 89.67 184.16 93.19 C 181.02 96.14 177.19 93.09 174.98 90.59 C 172.58 94.23 171.73 99.77 166.92 100.95 C 165.79 99.36 164.72 97.73 163.60 96.13 C 160.91 99.36 160.03 103.56 158.36 107.30 C 157.19 108.40 156.18 110.62 154.25 109.85 C 150.19 105.92 151.41 99.87 151.08 94.81 C 149.26 96.15 147.40 97.47 145.88 99.15 C 145.36 103.61 145.91 108.24 145.50 112.75 C 144.54 115.97 142.75 119.16 139.90 121.05 C 134.88 120.00 134.41 113.82 132.97 109.84 C 130.68 114.29 128.49 119.02 128.27 124.11 C 127.64 124.55 126.39 125.42 125.76 125.85 C 123.86 122.45 123.56 118.52 122.92 114.76 C 121.94 116.35 120.48 117.87 120.69 119.88 C 120.72 122.27 119.29 124.29 118.60 126.49 C 117.66 129.07 117.47 131.86 116.43 134.39 C 115.10 137.03 112.57 138.76 110.15 140.30 C 108.88 139.14 107.66 137.93 106.41 136.75 C 105.18 140.98 103.73 145.57 100.50 148.65 C 97.34 150.65 94.82 147.37 92.45 145.74 C 90.90 149.61 90.59 154.35 86.97 157.03 C 85.04 155.27 84.10 152.81 82.83 150.59 C 81.13 159.28 76.42 167.14 75.48 175.99 C 75.62 181.87 77.33 187.73 76.72 193.64 C 75.87 196.94 71.76 196.70 69.20 195.83 C 65.86 195.35 64.25 191.41 65.58 188.49 C 67.64 183.04 69.44 177.49 71.47 172.03 C 70.70 167.55 70.64 163.01 70.04 158.52 C 67.32 160.16 66.22 163.25 64.86 165.94 C 60.00 175.33 55.50 185.28 47.51 192.50 C 42.15 198.08 35.21 203.62 26.96 202.62 C 21.40 203.31 17.18 199.04 13.57 195.46 C 8.62 190.43 6.38 183.60 3.88 177.17 C 2.36 173.46 3.07 169.38 2.53 165.51 C 1.82 161.58 3.89 157.90 4.04 154.02 C 3.97 150.60 5.85 147.64 6.33 144.32 C 10.65 138.98 12.67 132.20 16.60 126.59 C 20.17 122.40 21.81 116.71 26.30 113.29 C 29.42 110.76 32.05 107.59 35.51 105.50 C 38.52 104.48 41.58 103.07 44.82 103.14 C 51.39 104.59 58.05 107.49 62.14 113.07 C 63.48 118.09 65.22 123.31 64.34 128.56 C 62.47 136.88 60.55 145.45 55.60 152.58 C 52.08 157.88 49.87 165.57 43.04 167.40 C 38.09 166.06 36.63 160.35 33.89 156.61 C 31.05 170.80 29.15 185.17 25.49 199.19 C 31.04 200.73 36.33 197.79 40.74 194.72 C 47.37 189.91 51.58 182.71 56.08 176.04 C 59.39 171.18 62.01 165.90 64.63 160.65 C 67.87 154.67 70.63 147.79 68.62 140.94 C 69.45 140.93 71.10 140.93 71.92 140.92 C 75.17 148.19 72.41 156.48 74.67 163.95 C 78.18 156.54 80.12 148.59 82.43 140.77 C 82.63 139.08 83.81 137.87 85.09 136.87 C 87.61 140.57 85.49 145.16 86.75 149.24 C 89.55 145.36 89.46 140.24 90.35 135.70 C 95.16 137.21 94.31 143.19 98.13 145.76 C 104.77 137.84 104.37 126.46 102.20 116.92 C 98.73 118.75 95.50 121.07 91.81 122.45 C 91.42 122.12 90.64 121.46 90.26 121.13 C 93.60 116.77 99.98 115.63 102.91 110.83 C 103.30 108.40 103.24 105.92 103.46 103.47 C 106.27 104.58 108.26 106.97 110.92 108.37 C 109.83 109.77 108.29 111.09 108.37 113.04 C 107.97 120.17 106.56 127.66 109.35 134.50 C 110.00 134.55 111.30 134.64 111.95 134.69 C 116.64 123.92 120.23 112.58 121.54 100.86 C 122.00 97.35 121.32 93.85 120.95 90.37 C 123.88 90.69 124.80 93.87 125.81 96.16 C 126.17 101.85 125.14 107.64 126.51 113.27 C 129.54 111.10 130.47 107.25 132.96 104.59 C 135.19 106.47 136.77 109.02 137.07 111.96 C 137.09 113.84 138.53 115.05 139.80 116.21 C 142.89 111.29 144.76 104.07 140.72 99.21 C 144.73 95.98 148.43 92.46 152.10 88.87 C 153.26 90.48 154.37 92.13 155.49 93.77 C 154.76 97.16 154.21 100.60 154.08 104.07 C 155.86 103.57 156.64 101.85 157.38 100.33 C 159.47 95.80 161.53 91.24 163.08 86.49 C 166.13 88.53 167.29 91.98 167.41 95.51 C 169.65 93.59 170.98 90.90 172.26 88.29 C 174.74 83.60 172.12 78.17 173.52 73.23 C 175.04 71.12 177.30 73.34 178.05 74.99 C 179.66 77.68 178.75 80.90 177.36 83.46 C 175.89 85.96 177.58 90.24 180.86 89.95 C 184.52 87.67 187.05 83.41 186.90 79.06 C 186.48 76.14 183.84 74.41 182.36 72.07 M 30.32 113.30 C 20.63 123.03 14.58 135.63 9.15 148.07 C 4.87 159.38 4.30 172.44 9.47 183.57 C 12.28 189.52 16.28 195.74 22.76 198.07 C 24.78 190.42 26.96 182.79 28.16 174.96 C 28.38 170.51 30.12 166.32 30.51 161.89 C 30.99 156.28 33.17 150.84 32.53 145.15 C 32.05 141.98 32.44 138.80 32.48 135.61 C 33.15 135.55 34.49 135.43 35.16 135.37 C 35.61 144.65 33.95 155.67 40.99 163.02 C 43.36 165.10 45.82 161.98 47.35 160.34 C 51.40 154.28 55.52 148.15 58.13 141.29 C 58.95 138.95 58.94 136.35 60.18 134.15 C 61.03 132.57 61.77 130.88 61.63 129.04 C 61.59 124.18 62.56 118.72 59.44 114.54 C 56.63 110.79 52.17 108.67 47.91 107.03 C 41.36 104.93 34.80 108.75 30.32 113.30 M 68.95 191.87 C 69.19 194.11 71.70 193.91 73.27 193.32 C 73.19 189.85 72.78 186.39 72.10 182.98 C 70.74 185.77 68.84 188.66 68.95 191.87 Z" />
<path fill="#000000" opacity="1.00" d=" M 245.35 73.08 C 247.91 72.81 250.63 73.85 251.57 76.43 C 252.59 79.02 255.90 81.64 253.78 84.54 C 251.57 87.68 252.96 92.25 249.81 94.82 C 247.62 96.85 245.53 99.06 242.97 100.62 C 240.00 100.52 238.33 97.72 236.57 95.74 C 233.34 97.68 233.29 101.62 231.69 104.65 C 230.82 106.11 231.29 107.83 231.24 109.43 C 226.59 110.02 226.43 104.14 224.57 101.27 C 221.23 104.86 221.08 109.98 219.57 114.40 C 219.42 116.17 219.40 117.96 219.01 119.70 C 218.34 119.71 217.00 119.72 216.34 119.72 C 214.85 116.04 214.71 111.80 212.46 108.47 C 209.98 114.03 208.94 120.08 206.84 125.78 C 205.98 128.12 203.67 129.42 201.92 131.03 C 197.96 126.08 197.24 119.50 195.74 113.53 C 192.68 115.18 190.31 117.75 187.76 120.06 C 188.66 125.83 190.79 131.86 188.70 137.63 C 187.74 139.93 186.91 142.41 185.30 144.35 C 181.92 145.76 180.86 141.40 179.54 139.31 C 176.52 143.52 176.66 149.33 173.71 153.63 C 173.34 153.68 172.61 153.77 172.24 153.82 C 169.31 150.07 168.57 145.26 168.29 140.64 C 167.05 135.76 168.29 130.66 170.12 126.11 C 173.02 123.71 177.53 125.73 179.81 128.21 C 182.54 130.81 181.22 134.96 182.95 138.05 C 186.83 135.30 186.38 130.14 186.55 125.94 C 186.89 122.91 184.92 120.44 183.66 117.89 C 187.65 114.83 191.64 111.81 195.05 108.08 C 200.14 109.64 199.29 115.76 199.69 119.92 C 200.32 121.47 200.73 123.95 202.80 124.04 C 205.49 120.56 205.59 116.01 207.16 112.05 C 209.01 107.74 209.45 102.98 211.48 98.73 C 215.67 100.05 215.73 104.94 216.77 108.45 C 217.48 103.66 220.90 100.07 222.11 95.45 C 223.55 95.67 225.06 95.75 226.40 96.41 C 227.31 97.73 228.04 99.15 228.90 100.51 C 230.71 96.29 232.37 91.98 234.99 88.16 C 238.10 89.75 239.22 93.11 241.00 95.87 C 246.84 93.82 248.64 87.40 249.84 81.99 C 250.11 78.63 246.76 77.44 244.37 76.11 C 244.62 75.35 245.10 73.84 245.35 73.08 M 172.30 130.36 C 170.92 134.82 170.51 139.77 172.04 144.24 C 172.42 144.09 173.19 143.78 173.58 143.63 C 175.27 138.87 175.62 133.75 176.29 128.78 C 174.88 128.65 172.65 128.49 172.30 130.36 Z" />
<path fill="#000000" opacity="1.00" d=" M 156.29 123.29 C 159.16 121.96 161.58 119.87 164.32 118.33 C 165.90 117.35 167.07 119.22 168.26 119.95 C 165.46 123.89 160.70 125.41 156.60 127.54 C 151.02 130.40 145.05 132.62 139.88 136.22 C 139.85 140.74 140.98 145.40 141.62 149.94 C 145.80 146.24 149.53 142.13 153.07 137.82 C 154.38 138.42 156.09 138.60 156.90 139.94 C 158.57 144.46 158.45 149.54 156.01 153.77 C 152.94 153.14 149.44 152.95 147.58 150.03 C 145.52 151.73 143.04 153.32 142.22 156.01 C 142.50 161.95 143.54 167.84 144.06 173.77 C 138.66 173.81 133.27 174.42 127.99 175.56 C 125.59 176.07 124.27 173.86 123.84 171.86 C 129.50 172.28 134.91 170.27 140.55 170.32 C 140.14 166.38 139.73 162.42 139.08 158.51 C 136.52 159.87 134.39 161.87 131.92 163.38 C 131.22 162.03 130.04 160.00 131.83 158.90 C 134.85 156.98 138.36 154.74 138.60 150.75 C 138.53 146.44 137.77 142.16 136.74 137.99 C 125.69 144.04 116.06 152.31 106.19 160.05 C 108.22 163.22 112.33 162.87 115.57 162.48 C 121.75 161.26 127.46 156.95 129.33 150.78 C 130.28 151.18 131.24 151.58 132.19 151.99 C 130.48 155.47 128.48 158.99 125.23 161.26 C 120.94 164.64 115.38 165.82 110.05 166.16 C 105.93 165.47 101.77 161.15 103.77 156.79 C 108.33 153.38 113.52 150.68 117.48 146.49 C 122.74 143.17 127.42 139.05 132.60 135.62 C 134.99 133.03 138.23 131.76 141.39 130.45 C 145.88 127.11 151.48 126.02 156.29 123.29 M 149.89 147.82 C 150.91 148.41 151.98 148.94 153.09 149.38 C 153.54 147.58 153.80 145.75 153.87 143.90 C 152.18 144.70 149.81 145.55 149.89 147.82 Z" />
</g>
</svg>
