<?xml version="1.0" encoding="UTF-8" ?>
<!DOCTYPE svg PUBLIC "-//W3C//DTD SVG 1.1//EN" "http://www.w3.org/Graphics/SVG/1.1/DTD/svg11.dtd">
<svg width="256pt" height="256pt" viewBox="0 0 256 256" version="1.1" xmlns="http://www.w3.org/2000/svg">
<g id="#000000ff">
<path fill="#000000" opacity="1.00" d=" M 107.79 68.80 C 110.49 66.71 111.94 63.52 114.05 60.91 C 116.47 63.17 115.68 66.49 113.82 68.80 C 107.15 78.33 99.79 87.36 91.84 95.86 C 90.70 96.94 90.04 98.37 89.50 99.82 C 93.70 99.56 98.03 99.40 101.99 97.83 C 104.50 96.87 106.53 95.04 108.96 93.94 C 109.88 94.52 110.69 95.21 111.39 96.03 C 110.19 101.08 103.86 103.91 103.77 109.22 C 109.18 109.16 113.87 105.79 118.72 103.71 C 123.70 101.70 127.27 97.48 130.05 93.02 C 134.44 85.96 140.14 79.85 146.12 74.12 C 148.29 72.19 150.62 70.33 153.33 69.23 C 155.56 68.17 157.85 70.95 157.90 73.06 C 157.56 77.85 155.40 82.58 151.69 85.70 C 145.23 92.09 136.76 95.93 130.30 102.32 C 128.15 104.31 127.94 107.38 127.83 110.12 C 132.30 111.14 136.71 109.46 140.93 108.13 C 145.19 106.66 149.82 105.43 153.04 102.05 C 156.96 97.98 161.71 94.62 166.97 92.53 C 168.95 92.68 169.89 94.56 170.99 95.93 C 166.00 102.67 156.28 103.89 151.75 110.98 C 161.96 109.80 171.79 105.51 180.05 99.44 C 181.58 99.29 182.38 100.89 182.92 102.04 C 182.09 104.06 180.32 105.49 179.17 107.30 C 182.87 106.56 186.28 104.79 189.98 104.06 C 191.44 104.24 192.21 105.63 192.45 106.95 C 191.45 109.29 190.00 111.40 188.96 113.72 C 191.44 113.16 193.87 112.33 196.06 111.03 C 203.76 106.54 211.31 101.69 218.00 95.78 C 215.05 93.97 211.51 95.06 208.29 94.38 C 206.55 93.23 207.58 90.73 209.13 89.96 C 213.28 89.14 217.54 90.55 221.69 89.73 C 225.96 86.69 228.05 81.43 232.05 78.05 C 234.61 77.98 234.75 81.05 234.43 82.91 C 233.57 85.39 232.25 87.69 231.40 90.17 C 236.41 91.74 241.74 91.34 246.89 90.83 C 248.13 91.63 248.95 92.90 249.91 93.99 C 248.94 94.80 247.92 95.54 246.85 96.21 C 240.89 96.59 234.94 95.93 229.02 95.36 C 224.84 95.04 221.55 98.28 219.64 101.64 C 217.17 105.90 214.59 110.69 215.50 115.79 C 221.17 115.99 227.30 113.94 230.37 108.87 C 231.25 110.34 233.23 111.85 231.92 113.67 C 228.11 118.25 221.99 120.66 216.10 120.64 C 213.13 120.60 211.13 117.66 210.74 114.98 C 210.52 111.79 211.68 108.73 212.23 105.63 C 203.93 110.32 196.31 116.57 186.98 119.27 C 182.38 118.15 185.31 112.87 185.99 109.89 C 180.68 112.11 175.13 114.11 170.51 117.62 C 169.12 119.01 166.75 117.90 166.43 116.10 C 166.94 114.40 167.72 112.80 168.37 111.16 C 162.49 112.52 157.12 115.76 151.01 116.17 C 148.02 116.45 147.16 113.10 145.67 111.21 C 139.47 112.86 133.17 116.08 126.61 114.36 C 123.62 113.28 123.65 109.58 122.67 107.06 C 116.69 110.24 110.55 113.41 103.86 114.79 C 101.57 115.29 98.78 114.17 98.26 111.69 C 97.44 107.49 100.64 104.12 102.37 100.63 C 95.89 101.53 89.21 102.30 83.27 105.19 C 77.77 109.06 72.50 115.34 65.04 114.26 C 58.96 113.14 56.72 106.73 54.56 101.76 C 49.93 102.64 45.97 105.39 41.44 106.62 C 32.89 109.21 24.24 112.87 15.12 111.92 C 10.77 111.53 7.12 107.41 7.47 103.01 C 7.93 95.47 13.50 89.56 19.29 85.30 C 25.88 80.62 33.14 76.60 41.08 74.79 C 45.16 73.90 50.92 75.56 51.67 80.26 C 52.17 85.36 49.58 90.50 45.64 93.67 C 42.06 96.49 38.97 100.36 34.30 101.39 C 36.36 95.95 42.02 93.00 45.33 88.35 C 46.87 86.12 49.35 83.19 47.93 80.39 C 44.92 77.63 40.34 78.30 36.90 79.83 C 28.66 82.30 21.59 87.55 15.53 93.52 C 12.98 96.05 11.28 99.45 10.90 103.03 C 10.66 105.84 13.25 108.01 15.92 108.02 C 21.54 108.29 27.16 107.38 32.50 105.64 C 39.44 103.48 46.55 101.49 52.95 97.98 C 54.81 96.98 53.94 94.69 53.95 93.03 C 53.11 85.74 54.00 78.09 57.52 71.57 C 58.90 68.93 60.98 66.26 64.06 65.63 C 66.92 65.73 69.85 67.15 71.27 69.72 C 74.19 75.60 73.53 82.32 72.67 88.58 C 77.08 87.55 80.70 84.69 84.70 82.72 C 92.79 78.76 100.53 74.15 107.79 68.80 M 58.43 76.40 C 56.42 82.85 55.93 89.90 57.94 96.41 C 61.36 94.76 65.02 93.40 68.03 91.03 C 69.06 87.13 69.14 82.99 69.42 78.97 C 68.83 75.59 69.22 70.54 65.01 69.51 C 61.87 70.54 59.46 73.31 58.43 76.40 M 137.34 90.97 C 142.94 88.40 147.57 84.15 151.63 79.59 C 152.93 78.32 153.13 76.51 153.33 74.80 C 146.49 78.35 141.30 84.49 137.34 90.97 M 93.36 80.39 C 86.94 84.31 80.09 87.53 73.96 91.92 C 71.79 93.13 72.15 96.04 73.08 97.94 C 74.82 101.14 79.61 101.64 82.19 99.21 C 87.13 94.79 91.29 89.58 95.50 84.48 C 97.90 81.50 101.09 79.11 102.72 75.57 C 99.29 76.51 96.43 78.68 93.36 80.39 M 58.18 100.83 C 59.62 104.22 61.42 107.99 65.06 109.44 C 69.07 110.24 72.54 107.36 75.62 105.21 C 73.92 104.01 71.81 103.26 70.53 101.56 C 69.49 99.58 68.99 97.38 68.16 95.32 C 64.77 97.02 61.22 98.50 58.18 100.83 Z" />
<path fill="#000000" opacity="1.00" d=" M 118.96 81.78 C 118.06 79.84 119.40 77.85 119.91 76.00 C 122.90 76.63 123.09 80.36 121.54 82.45 C 120.35 83.49 119.49 83.27 118.96 81.78 Z" />
<path fill="#000000" opacity="1.00" d=" M 234.49 142.58 C 238.10 141.25 242.58 139.45 246.10 141.93 C 248.46 143.86 248.80 147.17 249.21 149.98 C 248.80 160.71 240.44 168.48 234.13 176.29 C 233.69 177.85 233.67 179.53 233.06 181.04 C 231.92 182.44 230.03 182.71 228.47 183.41 C 223.59 185.12 220.61 189.66 216.31 192.29 C 212.14 194.84 207.51 196.53 202.98 198.32 C 200.84 199.09 197.62 197.50 198.03 194.98 C 198.46 192.11 200.18 189.68 201.27 187.05 C 195.30 188.14 189.94 191.06 184.44 193.46 C 182.09 194.56 179.49 194.95 176.91 194.79 C 175.88 191.03 177.99 187.55 178.68 183.95 C 172.77 187.34 167.49 192.94 160.42 193.59 C 155.82 191.15 161.51 186.32 162.49 183.16 C 155.34 185.81 148.83 190.87 141.02 191.43 C 137.09 191.14 136.03 187.00 135.17 183.87 C 131.06 184.50 127.03 185.50 122.96 186.32 C 120.70 186.91 118.24 184.44 119.40 182.23 C 121.71 174.90 126.99 169.05 130.38 162.25 C 125.22 164.00 121.62 168.34 116.98 170.99 C 113.12 173.33 108.81 174.75 104.85 176.87 C 100.16 179.42 96.92 184.16 91.78 185.94 C 85.97 187.92 79.74 185.39 75.04 181.94 C 72.57 179.96 71.13 175.37 67.23 176.30 C 58.09 179.13 49.35 183.47 39.82 184.99 C 35.31 185.80 30.19 184.39 27.26 180.73 C 24.45 176.84 25.75 171.63 27.72 167.68 C 31.62 160.66 39.57 157.45 46.69 154.72 C 51.68 152.68 57.16 152.24 62.10 150.13 C 65.84 148.66 66.84 144.01 70.60 142.58 C 73.85 140.82 78.24 141.48 80.55 144.45 C 85.24 150.09 85.04 157.81 86.94 164.53 C 94.15 163.07 100.31 158.83 106.96 155.92 C 112.97 152.77 119.27 149.95 124.25 145.21 C 124.91 146.87 125.46 148.74 124.41 150.38 C 121.61 155.40 118.60 160.42 114.46 164.45 C 112.77 166.09 111.40 168.02 110.32 170.10 C 115.63 167.24 121.43 165.08 125.96 160.95 C 127.07 159.59 127.03 157.49 128.43 156.36 C 130.62 155.97 133.09 156.33 134.98 154.92 C 138.20 152.45 140.16 148.77 143.05 145.97 C 143.72 147.00 144.31 148.07 144.82 149.18 C 144.15 152.30 141.69 154.58 140.17 157.29 C 149.75 158.52 159.45 158.44 169.07 159.28 C 172.52 159.50 177.21 159.23 178.88 163.00 C 178.61 163.46 178.05 164.38 177.78 164.84 C 172.48 164.77 167.23 163.81 161.93 163.65 C 154.26 163.14 146.52 163.79 138.91 162.53 C 135.97 161.82 134.31 164.86 132.83 166.83 C 129.85 171.55 126.64 176.20 124.31 181.29 C 129.31 180.57 134.49 179.49 138.90 176.93 C 143.59 172.63 147.37 166.72 154.05 165.32 C 155.57 167.24 157.05 169.97 155.30 172.27 C 151.91 176.85 145.92 178.17 141.54 181.52 C 139.97 182.52 140.19 184.51 140.03 186.11 C 143.84 187.11 147.52 185.33 150.98 183.96 C 156.17 181.85 160.81 178.47 166.31 177.14 C 172.22 175.65 177.79 172.52 183.99 172.47 C 185.80 172.15 186.78 173.76 187.84 174.89 C 186.11 179.93 182.75 184.28 181.51 189.50 C 188.99 187.31 196.13 183.98 203.86 182.67 C 208.32 181.89 212.78 180.81 216.85 178.76 C 215.08 174.79 213.78 170.44 214.69 166.06 C 217.52 155.91 224.91 147.01 234.49 142.58 M 66.84 149.66 C 69.24 151.20 72.09 152.93 72.46 156.06 C 73.04 159.91 69.71 162.68 68.49 166.05 C 68.71 167.88 69.85 169.59 71.33 170.67 C 75.31 169.84 79.79 168.64 82.69 165.71 C 81.85 158.94 81.45 151.46 77.04 145.91 C 73.25 143.61 69.03 146.53 66.84 149.66 M 239.33 145.10 C 230.79 147.13 224.63 154.35 220.90 161.94 C 218.98 165.89 217.39 170.88 220.01 174.91 C 221.18 176.67 223.34 179.18 225.68 177.96 C 231.92 173.48 236.45 167.16 241.28 161.29 C 243.59 158.60 245.00 155.25 245.57 151.78 C 245.96 149.47 246.64 146.70 244.76 144.81 C 242.99 144.13 241.09 144.71 239.33 145.10 M 98.24 162.19 C 94.31 164.01 90.32 165.75 86.69 168.13 C 87.47 170.18 88.23 172.62 90.44 173.56 C 95.88 175.75 102.25 173.16 105.69 168.67 C 109.97 163.47 115.16 158.84 118.18 152.74 C 111.36 155.47 104.65 158.58 98.24 162.19 M 40.18 161.16 C 34.94 163.57 28.96 167.60 28.76 173.98 C 28.57 179.18 34.29 182.18 38.88 181.11 C 48.91 179.39 58.67 176.29 67.97 172.17 C 67.27 171.02 66.56 169.88 65.84 168.75 C 63.86 170.22 61.97 171.87 59.56 172.61 C 59.08 169.18 62.22 167.23 64.18 164.99 C 63.32 161.55 62.72 158.06 61.99 154.60 C 54.51 155.90 47.09 157.98 40.18 161.16 M 65.82 154.43 C 64.92 157.07 65.85 159.69 66.95 162.11 C 68.34 160.92 70.06 159.48 69.66 157.42 C 69.23 155.61 67.23 155.20 65.82 154.43 M 73.30 173.99 C 76.51 178.89 82.07 182.25 88.00 182.27 C 90.79 182.29 93.04 180.48 95.13 178.87 C 92.33 178.18 89.16 178.06 86.85 176.13 C 84.87 174.50 84.08 171.98 82.95 169.78 C 79.66 170.99 76.43 172.39 73.30 173.99 M 204.60 191.82 C 209.26 190.65 213.63 188.27 216.99 184.80 C 212.23 185.52 207.26 187.60 204.60 191.82 Z" />
</g>
</svg>
