<?xml version="1.0" encoding="UTF-8" ?>
<!DOCTYPE svg PUBLIC "-//W3C//DTD SVG 1.1//EN" "http://www.w3.org/Graphics/SVG/1.1/DTD/svg11.dtd">
<svg width="256pt" height="256pt" viewBox="0 0 256 256" version="1.1" xmlns="http://www.w3.org/2000/svg">
<g id="#000000ff">
<path fill="#000000" opacity="1.00" d=" M 40.53 55.51 C 44.59 50.15 46.13 43.40 49.99 37.90 C 56.46 43.24 59.11 52.65 56.46 60.61 C 53.81 68.10 48.22 74.22 42.10 79.11 C 38.44 83.32 31.62 83.97 29.52 89.59 C 25.57 98.21 20.92 106.47 16.50 114.85 C 19.41 116.33 22.24 117.97 25.10 119.57 C 27.44 117.46 29.80 114.69 33.33 115.48 C 32.03 118.47 30.06 121.07 27.94 123.52 C 24.27 122.25 21.39 119.42 17.66 118.29 C 14.47 116.91 11.91 120.49 8.65 119.66 C 8.71 118.68 8.78 117.70 8.86 116.72 C 6.25 116.65 0.41 115.95 2.12 112.25 C 5.39 112.34 8.43 113.94 11.72 113.89 C 14.02 112.37 14.61 109.30 16.06 107.06 C 19.76 100.78 22.96 94.23 26.04 87.63 C 21.21 86.90 16.15 83.78 14.70 78.92 C 17.64 81.54 20.66 84.80 25.00 84.50 C 27.84 85.17 29.06 82.07 30.06 80.04 C 33.72 71.93 35.80 63.12 40.53 55.51 M 50.32 45.30 C 44.10 57.15 37.17 68.85 33.73 81.90 C 41.26 78.61 46.68 71.90 51.38 65.36 C 55.99 58.74 56.80 49.83 52.69 42.76 C 51.73 43.44 50.83 44.22 50.32 45.30 Z" />
<path fill="#000000" opacity="1.00" d=" M 130.54 57.52 C 134.00 55.93 138.01 54.73 141.74 56.10 C 145.24 58.05 146.08 62.46 146.55 66.11 C 146.96 79.66 140.78 92.05 136.25 104.47 C 138.92 102.39 140.60 99.36 142.98 96.99 C 146.51 92.86 150.74 89.43 154.63 85.65 C 155.79 84.69 157.06 83.08 158.68 84.22 C 159.96 87.27 160.05 90.72 159.69 93.97 C 159.23 98.12 156.66 101.62 155.76 105.65 C 159.62 102.18 162.18 97.49 165.69 93.66 C 169.38 89.65 172.04 84.35 177.08 81.83 C 179.18 81.95 179.77 84.34 180.05 86.05 C 179.99 90.43 178.62 94.68 176.66 98.57 C 174.35 102.96 173.07 107.79 171.93 112.59 C 177.86 108.94 182.22 103.20 186.22 97.61 C 190.72 101.96 184.69 108.01 184.71 113.10 C 189.21 110.57 191.81 105.63 195.94 102.50 C 196.18 103.14 196.66 104.41 196.90 105.05 C 195.18 109.21 192.34 113.53 192.94 118.15 L 193.87 118.73 C 197.91 117.12 200.90 113.86 204.33 111.30 C 207.02 109.26 207.57 105.75 208.63 102.76 C 211.74 94.17 215.99 85.32 224.12 80.43 C 225.59 81.77 225.96 83.65 225.36 85.52 C 223.24 93.08 218.82 99.79 213.59 105.57 C 211.05 108.50 207.61 111.79 208.79 116.10 C 213.34 115.17 217.73 113.25 221.37 110.37 C 223.68 106.84 225.53 102.34 229.97 101.02 C 232.10 101.67 231.94 104.38 231.03 105.97 C 229.40 109.43 224.44 110.07 223.67 114.08 C 223.43 116.05 224.32 118.29 226.20 119.16 C 233.72 118.39 239.95 113.22 244.28 107.30 C 246.94 103.47 249.64 99.42 250.25 94.68 C 249.33 94.69 247.48 94.71 246.55 94.72 C 247.56 92.59 248.91 90.59 250.97 89.35 C 254.21 94.61 251.45 100.78 248.48 105.45 C 244.25 112.03 239.08 118.95 231.29 121.39 C 229.34 122.00 227.21 122.93 225.18 122.13 C 222.53 120.61 221.15 117.66 220.65 114.75 C 216.38 116.10 212.78 119.69 208.08 119.44 C 206.37 118.49 205.75 116.47 204.69 114.94 C 201.08 117.97 197.42 120.95 192.99 122.73 C 189.52 120.33 190.13 116.13 190.31 112.49 C 187.08 114.91 184.69 118.19 181.91 121.06 C 180.56 121.02 179.80 120.32 179.62 118.97 C 180.25 114.33 182.44 110.13 183.63 105.64 C 178.34 110.08 174.19 115.71 169.11 120.35 C 167.83 118.18 167.75 115.59 168.37 113.20 C 170.30 105.68 173.97 98.77 176.53 91.46 C 177.37 89.21 177.57 86.79 177.46 84.41 C 173.97 85.76 172.29 89.28 170.06 92.02 C 163.90 99.95 157.15 107.65 152.99 116.88 C 152.69 118.76 150.03 119.05 149.65 117.03 C 148.94 106.32 159.12 97.77 157.15 86.94 C 150.40 91.47 145.20 97.91 140.33 104.33 C 137.38 108.04 135.09 112.24 133.60 116.73 C 133.29 118.31 132.34 118.81 130.75 118.23 C 129.62 114.27 131.73 110.37 132.90 106.67 C 136.22 96.26 140.96 86.31 143.39 75.62 C 144.51 70.39 144.78 64.63 142.37 59.71 C 140.54 56.55 136.16 57.32 133.22 58.15 C 123.10 61.90 113.53 68.77 108.91 78.79 C 107.18 82.15 107.92 86.70 110.73 89.25 C 115.84 93.41 123.20 90.62 127.70 86.83 C 127.65 87.50 127.55 88.85 127.50 89.52 C 123.40 92.76 117.87 94.78 112.69 93.13 C 109.24 92.38 106.87 89.21 106.38 85.83 C 105.11 81.45 107.35 77.20 109.53 73.55 C 111.41 70.17 114.82 68.15 117.43 65.42 C 121.03 61.67 125.93 59.70 130.54 57.52 M 211.94 103.12 C 216.94 98.70 220.51 92.63 222.28 86.22 C 216.84 90.31 214.31 96.98 211.94 103.12 Z" />
<path fill="#000000" opacity="1.00" d=" M 51.16 91.08 C 52.41 91.88 53.65 92.70 54.92 93.47 C 58.11 92.21 61.37 90.35 64.90 90.62 C 67.49 91.84 68.88 95.15 68.22 97.89 C 67.88 100.21 66.50 102.58 67.63 104.88 C 70.41 101.63 73.66 98.86 77.06 96.28 C 82.66 99.92 80.32 107.10 79.63 112.48 C 82.96 111.16 86.30 109.36 88.66 106.62 C 90.80 102.47 92.86 97.99 96.95 95.36 C 98.08 96.83 100.08 98.65 98.68 100.62 C 96.97 105.45 91.44 107.91 90.47 113.01 C 90.02 116.22 93.85 117.41 96.28 116.31 C 102.77 113.72 109.01 108.97 111.01 101.98 C 113.42 105.35 110.96 109.17 109.09 112.13 C 105.62 116.45 100.77 120.29 95.07 120.77 C 90.99 120.83 88.67 116.98 87.93 113.44 C 84.10 113.61 81.97 117.69 78.21 117.90 C 76.70 117.14 76.15 115.48 76.25 113.89 C 76.41 109.19 78.32 104.70 78.14 99.96 C 74.41 100.37 72.84 104.08 70.40 106.40 C 67.57 110.01 65.17 114.04 63.73 118.42 C 60.45 117.62 61.40 113.64 61.40 111.12 C 61.58 105.07 65.73 99.88 65.42 93.81 C 60.89 94.63 56.15 95.89 52.74 99.16 C 51.91 102.25 54.86 105.43 53.66 108.60 C 52.45 111.53 51.50 114.86 48.95 116.93 C 47.63 117.88 45.85 119.40 44.41 117.76 C 42.72 115.50 43.05 112.47 43.94 109.96 C 46.10 103.57 48.96 97.45 51.16 91.08 M 47.61 111.59 C 50.38 109.84 51.92 106.55 51.49 103.29 C 49.05 105.36 48.48 108.68 47.61 111.59 Z" />
<path fill="#000000" opacity="1.00" d=" M 215.80 146.77 C 218.91 144.62 222.30 142.71 226.01 141.82 C 228.44 141.21 230.98 142.66 232.07 144.84 C 234.03 148.60 233.23 152.96 232.87 156.99 C 231.24 168.20 225.11 178.31 217.55 186.55 C 213.60 190.96 208.59 194.47 202.98 196.39 C 199.72 196.02 200.47 192.52 200.82 190.26 C 195.53 191.05 192.40 197.48 186.68 196.52 C 185.29 191.17 186.93 185.80 188.10 180.59 C 182.67 185.79 181.17 194.31 173.94 197.71 C 171.79 195.18 173.06 191.98 174.29 189.35 C 175.73 186.36 177.80 183.74 179.38 180.83 C 174.92 182.06 171.27 185.01 167.31 187.28 C 162.99 189.77 159.17 193.47 154.07 194.27 C 153.27 192.46 152.59 190.59 151.96 188.72 C 148.89 189.62 145.49 192.47 142.32 190.61 C 140.55 188.56 141.73 185.66 142.44 183.42 C 145.09 177.13 148.61 171.20 150.70 164.68 C 147.07 166.96 144.71 170.65 141.33 173.22 C 143.75 167.39 149.15 163.71 152.65 158.61 C 154.50 156.29 154.95 153.18 156.96 150.97 C 159.80 153.88 158.34 157.67 157.15 160.93 C 165.38 160.86 173.59 159.09 181.81 160.11 C 183.04 160.91 182.70 162.44 182.79 163.67 C 174.40 163.58 166.03 164.09 157.69 164.89 C 155.98 165.01 154.36 166.04 153.75 167.68 C 152.24 171.16 150.85 174.69 149.09 178.05 C 147.72 181.32 145.29 184.42 145.46 188.11 C 148.69 187.09 151.93 185.77 154.46 183.45 C 156.64 180.46 157.73 176.46 161.03 174.42 C 163.29 174.08 165.06 176.76 163.83 178.69 C 162.48 183.03 156.40 184.27 156.60 189.32 C 158.23 188.83 159.84 188.22 161.26 187.26 C 169.18 181.87 178.06 178.03 187.10 174.95 C 188.38 174.28 190.59 174.39 190.90 176.13 C 191.81 181.60 189.28 186.86 188.82 192.25 C 197.63 189.92 204.87 184.14 212.68 179.73 C 214.73 178.24 217.10 179.19 219.15 180.11 C 226.87 170.55 232.67 158.15 230.35 145.61 C 224.48 144.12 218.50 147.38 215.14 152.11 C 211.11 157.33 207.68 164.60 211.01 171.03 C 212.17 173.84 215.52 173.84 218.03 174.36 C 217.49 177.77 212.44 177.57 210.56 175.41 C 208.12 172.17 206.06 168.16 206.55 163.99 C 207.21 157.29 211.22 151.46 215.80 146.77 M 204.85 191.48 C 209.02 189.83 213.11 187.30 215.57 183.45 C 211.05 184.42 206.72 187.09 204.85 191.48 Z" />
<path fill="#000000" opacity="1.00" d=" M 119.44 173.01 C 129.79 165.47 138.96 156.51 147.96 147.47 C 148.97 149.23 149.19 151.28 148.06 153.04 C 144.17 160.65 140.28 168.28 137.40 176.33 C 133.65 181.26 131.35 187.49 126.20 191.20 C 122.27 194.05 117.07 192.82 112.96 191.06 C 109.70 189.88 107.07 187.49 103.87 186.20 C 97.24 188.88 91.08 192.95 83.98 194.39 C 80.92 194.92 76.92 194.76 75.20 191.72 C 72.89 187.56 73.78 182.46 75.34 178.20 C 78.69 170.04 86.57 165.07 93.98 160.99 C 98.60 158.23 104.22 157.73 108.64 154.59 C 110.30 153.39 112.95 152.64 114.48 154.49 C 118.38 159.79 119.68 166.54 119.44 173.01 M 106.95 158.23 C 107.45 160.91 108.50 163.76 107.44 166.44 C 105.61 170.54 102.17 173.56 99.39 177.00 C 100.81 178.78 102.30 180.56 104.19 181.87 C 108.15 180.38 112.55 178.65 115.32 175.34 C 117.09 168.74 116.02 160.85 112.01 155.22 C 110.26 156.10 108.58 157.13 106.95 158.23 M 119.47 175.50 C 118.15 176.62 117.54 179.31 118.99 180.49 C 122.12 180.78 125.14 179.66 128.23 179.38 C 126.46 182.67 122.41 183.61 119.00 184.05 C 116.37 184.44 115.74 181.36 114.82 179.59 C 112.13 180.76 109.61 182.28 107.32 184.12 C 111.51 187.16 116.63 189.46 121.89 189.18 C 126.17 187.38 129.12 183.21 131.11 179.16 C 135.70 171.88 138.93 163.85 142.21 155.93 C 134.49 162.29 127.47 169.48 119.47 175.50 M 98.15 173.13 C 102.00 170.44 107.90 165.86 104.96 160.59 C 100.15 162.60 97.31 168.03 98.15 173.13 M 79.78 175.82 C 77.31 178.94 75.97 183.00 76.50 186.99 C 76.69 188.93 77.66 191.52 80.02 191.43 C 87.88 191.80 94.64 187.11 101.50 183.97 C 99.89 181.78 98.16 179.66 96.09 177.89 C 95.35 177.09 93.83 176.34 94.38 175.02 C 95.46 170.82 96.43 166.57 98.07 162.55 C 91.12 165.56 84.46 169.75 79.78 175.82 Z" />
</g>
</svg>
