<?xml version="1.0" encoding="UTF-8" ?>
<!DOCTYPE svg PUBLIC "-//W3C//DTD SVG 1.1//EN" "http://www.w3.org/Graphics/SVG/1.1/DTD/svg11.dtd">
<svg width="256pt" height="128pt" viewBox="0 0 256 128" version="1.1" xmlns="http://www.w3.org/2000/svg">
<g id="#000000ff">
<path fill="#000000" opacity="1.00" d=" M 186.83 30.61 C 188.60 22.46 191.56 14.61 193.84 6.61 C 194.76 7.70 195.76 8.76 196.44 10.03 C 195.34 16.08 192.97 21.81 190.47 27.39 C 189.88 29.06 188.33 29.91 186.83 30.61 Z" />
<path fill="#000000" opacity="1.00" d=" M 52.24 29.25 C 56.18 24.44 59.62 19.08 61.14 12.99 C 62.33 13.68 63.79 14.52 63.80 16.11 C 63.75 20.68 62.20 25.06 61.57 29.56 C 65.91 26.25 69.81 21.84 75.26 20.38 C 81.48 18.68 87.24 26.60 84.01 32.03 C 80.50 39.50 73.48 44.64 65.70 46.97 C 67.25 50.75 67.46 54.97 69.32 58.62 C 69.83 59.79 71.35 59.94 72.32 59.27 C 75.64 57.87 78.48 55.55 80.99 52.99 C 85.06 48.75 89.63 44.80 92.29 39.44 C 93.37 40.19 94.36 41.06 95.31 41.97 C 93.01 46.87 91.33 52.07 91.07 57.52 C 96.62 54.95 101.13 50.67 105.47 46.47 C 108.22 43.54 111.44 40.82 112.97 37.00 C 116.08 29.87 119.87 22.97 125.04 17.10 C 127.64 17.64 129.49 20.09 128.66 22.75 C 125.72 31.45 116.44 36.41 114.34 45.52 C 113.21 49.03 113.09 52.76 113.06 56.42 C 116.64 56.65 119.23 53.82 121.84 51.82 C 124.93 48.98 128.93 46.85 130.81 42.91 C 132.80 38.67 135.04 34.16 138.99 31.42 C 141.28 31.30 143.14 33.78 142.43 35.95 C 140.83 42.52 132.02 45.47 132.40 52.74 C 137.52 50.49 141.03 45.82 145.06 42.10 C 148.04 39.51 150.47 36.40 153.07 33.45 C 155.17 35.04 155.44 37.88 154.08 40.05 C 152.60 43.12 151.12 46.23 150.41 49.59 C 153.07 48.79 154.79 46.52 156.63 44.59 C 160.96 39.64 165.75 35.13 170.20 30.29 C 170.95 31.17 171.62 32.11 172.20 33.10 C 172.50 37.52 170.79 41.72 169.96 45.99 C 170.19 48.03 172.21 49.28 173.26 50.93 C 170.71 54.78 166.55 57.36 164.60 61.63 C 161.05 68.91 160.23 77.25 155.51 83.98 C 150.44 82.03 149.02 75.62 151.01 70.96 C 153.17 64.36 159.95 60.84 162.42 54.41 C 164.31 49.35 166.35 44.28 167.53 39.00 C 164.42 40.98 162.19 44.02 159.44 46.44 C 155.87 49.56 153.84 54.26 149.66 56.67 C 147.68 57.64 146.39 55.44 145.93 53.85 C 146.00 51.26 146.70 48.73 147.01 46.17 C 142.14 48.89 139.49 54.22 134.79 57.16 C 131.44 58.93 129.60 54.97 128.33 52.60 C 124.20 55.68 120.34 60.01 115.09 60.94 C 109.23 60.42 109.06 53.16 109.04 48.70 C 103.63 53.88 97.98 59.10 90.95 61.99 C 89.51 62.23 87.94 61.36 87.60 59.89 C 87.09 57.10 87.60 54.26 87.68 51.45 C 82.83 55.84 78.75 61.98 71.99 63.48 C 67.52 64.06 65.13 59.45 64.39 55.75 C 63.54 51.48 61.43 47.65 60.06 43.55 C 68.09 44.29 75.36 39.03 79.68 32.67 C 81.12 30.31 82.77 26.79 80.52 24.40 C 78.32 22.42 75.28 24.12 73.05 25.14 C 66.61 29.15 61.26 34.86 57.31 41.31 C 53.64 48.23 50.88 55.59 47.85 62.80 C 47.30 64.51 44.74 64.19 44.17 62.66 C 43.91 61.31 44.34 59.99 44.81 58.74 C 48.09 50.50 51.73 42.42 55.25 34.28 C 56.61 31.12 58.14 27.97 58.70 24.53 C 57.73 25.26 56.81 26.07 56.05 27.03 C 49.69 36.16 42.26 44.53 34.53 52.53 C 28.74 57.76 23.55 63.99 16.40 67.43 C 12.61 69.44 7.32 68.94 4.56 65.45 C 2.52 62.79 2.33 59.26 2.35 56.03 C 2.33 51.82 5.04 48.36 6.73 44.69 C 10.64 38.49 14.70 32.12 20.41 27.40 C 22.63 25.97 25.71 23.31 28.13 25.85 C 31.33 29.08 31.74 34.56 30.57 38.78 C 28.01 45.47 25.71 52.58 20.80 57.98 C 19.78 56.67 19.01 54.87 20.39 53.50 C 23.72 49.41 25.73 44.53 27.66 39.67 C 29.06 36.04 30.00 31.40 27.65 27.98 C 24.88 26.78 22.38 29.76 20.30 31.27 C 13.65 37.91 7.53 45.78 5.27 55.07 C 4.58 59.01 5.38 65.29 10.33 65.81 C 17.41 65.52 22.43 59.76 27.52 55.55 C 36.84 47.89 45.27 39.11 52.24 29.25 M 153.60 75.64 C 156.54 74.78 156.49 71.10 157.26 68.69 C 154.85 70.19 153.89 72.95 153.60 75.64 Z" />
<path fill="#000000" opacity="1.00" d=" M 102.99 17.82 C 104.42 17.42 106.24 17.31 106.97 18.91 C 108.25 21.43 109.02 24.56 108.08 27.31 C 105.70 24.57 104.11 21.25 102.99 17.82 Z" />
<path fill="#000000" opacity="1.00" d=" M 188.97 43.00 C 198.76 36.37 209.91 32.11 220.08 26.10 C 220.84 27.38 223.02 28.26 222.58 29.97 C 219.74 35.92 217.05 42.04 215.40 48.42 C 221.55 48.95 227.34 45.68 232.23 42.27 C 234.93 40.60 235.93 37.50 237.07 34.73 C 240.86 36.94 238.89 41.95 236.40 44.39 C 230.61 50.34 222.40 54.01 214.08 54.19 C 212.52 54.21 210.88 55.35 209.38 54.68 C 207.13 52.59 206.07 49.36 206.21 46.34 C 207.42 44.70 209.50 45.92 211.10 46.07 C 212.69 42.21 214.37 38.36 215.24 34.26 C 212.22 34.86 209.30 35.95 206.77 37.74 C 201.96 41.15 196.27 42.98 191.43 46.35 C 189.34 48.01 186.11 44.42 188.97 43.00 Z" />
<path fill="#000000" opacity="1.00" d=" M 77.92 73.88 C 84.13 67.82 91.29 62.64 99.25 59.14 C 102.98 57.29 106.46 60.64 108.85 63.15 C 114.31 69.16 113.57 78.09 111.11 85.25 C 108.51 93.09 102.52 99.30 95.73 103.76 C 92.75 105.50 88.56 106.64 85.52 104.48 C 82.16 101.11 83.04 95.91 82.81 91.60 C 77.02 95.89 72.08 101.23 67.05 106.36 C 67.67 110.43 69.10 116.03 73.99 116.55 C 85.58 115.23 94.76 107.33 104.14 101.11 C 108.17 98.01 113.42 96.74 116.91 92.92 C 120.56 89.00 122.57 83.94 125.61 79.59 C 127.77 76.53 127.98 72.37 130.93 69.84 C 133.95 72.75 133.34 77.19 133.22 80.98 C 132.72 85.49 128.45 87.71 125.39 90.39 C 122.95 92.57 120.99 95.32 120.05 98.48 C 123.95 96.69 126.91 93.21 131.10 91.97 C 133.68 91.52 135.30 94.55 134.65 96.77 C 133.70 100.82 131.83 104.63 131.42 108.81 C 132.81 108.07 134.15 107.25 135.39 106.28 C 142.49 100.64 149.97 95.41 158.02 91.22 C 159.28 92.40 160.77 93.46 161.50 95.08 C 161.22 97.78 159.92 100.31 160.08 103.09 C 161.15 102.54 162.24 101.98 163.07 101.09 C 167.58 96.57 171.93 91.87 176.66 87.57 C 179.26 84.94 184.26 87.14 183.72 90.88 C 182.78 94.76 179.99 97.93 179.06 101.83 C 179.28 102.13 179.73 102.74 179.95 103.05 C 187.57 100.21 193.22 94.08 200.28 90.25 C 204.30 87.96 208.25 85.50 212.58 83.83 C 213.42 85.14 214.24 86.46 215.08 87.78 C 216.57 86.34 218.16 85.00 220.01 84.02 C 220.71 85.32 221.67 86.53 222.00 87.99 C 221.56 90.02 220.70 91.97 220.76 94.09 C 223.91 93.73 226.87 92.28 229.43 90.46 C 230.81 88.89 231.83 87.05 233.10 85.40 C 234.97 86.70 236.59 88.52 236.91 90.86 C 236.35 92.49 234.51 93.20 233.42 94.45 C 231.54 95.89 231.89 98.45 231.77 100.53 C 234.96 100.99 237.39 98.48 239.90 96.93 C 245.87 92.82 250.20 86.78 252.90 80.11 C 253.73 81.19 255.45 82.28 254.91 83.88 C 252.09 91.34 246.94 97.78 240.78 102.78 C 238.07 104.75 234.31 106.94 231.02 104.98 C 228.30 103.10 228.37 99.50 227.98 96.58 C 224.78 97.48 221.60 98.84 219.15 101.15 C 216.53 103.68 216.22 107.50 214.75 110.66 C 212.99 114.45 210.83 118.05 208.50 121.52 C 206.65 124.02 204.36 126.76 201.08 127.21 C 197.13 126.74 196.05 122.27 195.58 119.01 C 194.96 114.64 197.90 111.02 200.52 107.92 C 199.34 107.21 198.17 106.49 197.04 105.72 C 197.50 102.11 198.98 98.80 200.49 95.53 C 193.26 99.37 187.28 105.45 179.56 108.44 C 177.19 109.34 174.19 107.37 174.37 104.78 C 174.37 100.47 176.77 96.72 177.94 92.69 C 170.91 98.00 166.19 106.31 158.10 110.20 C 156.96 108.95 155.84 107.69 154.72 106.43 C 152.86 108.67 151.63 111.53 149.23 113.27 C 147.79 114.46 145.07 113.97 144.87 111.86 C 144.62 108.83 146.56 106.18 147.21 103.30 C 140.93 105.81 136.74 111.54 130.82 114.68 C 128.46 114.92 126.97 112.23 127.40 110.13 C 127.93 105.45 129.42 100.94 130.38 96.34 C 122.58 100.09 117.07 107.13 112.84 114.47 C 111.75 113.97 109.42 113.76 109.88 112.01 C 110.58 107.32 112.88 103.08 114.15 98.54 C 104.61 103.06 97.03 110.73 87.85 115.87 C 83.15 118.66 77.37 121.03 71.92 119.08 C 67.68 117.58 65.88 113.22 63.22 109.99 C 61.21 111.67 59.24 113.43 56.94 114.72 C 55.47 114.46 54.79 113.59 54.92 112.12 C 57.25 108.69 62.97 107.75 63.13 102.98 C 63.78 91.77 69.48 81.18 77.92 73.88 M 100.52 62.32 C 84.52 69.20 70.12 82.98 66.79 100.56 C 71.60 97.99 75.04 93.66 79.07 90.10 C 81.93 87.56 84.55 84.77 86.96 81.80 C 87.93 82.52 88.89 83.26 89.85 84.00 C 86.82 89.60 84.81 96.35 86.89 102.62 C 88.47 102.50 90.16 102.55 91.56 101.68 C 99.67 97.31 106.79 90.29 109.35 81.24 C 110.57 76.62 112.10 71.17 109.14 66.88 C 107.60 63.81 104.16 60.70 100.52 62.32 M 206.70 102.78 C 210.43 100.24 216.53 98.50 216.14 92.95 C 211.61 94.57 209.41 99.16 206.70 102.78 M 199.31 115.46 C 197.58 117.91 198.70 121.15 200.93 122.85 C 206.10 117.83 210.03 111.37 212.42 104.59 C 207.12 106.82 202.68 110.86 199.31 115.46 Z" />
</g>
</svg>
