<?xml version="1.0" encoding="UTF-8" ?>
<!DOCTYPE svg PUBLIC "-//W3C//DTD SVG 1.1//EN" "http://www.w3.org/Graphics/SVG/1.1/DTD/svg11.dtd">
<svg width="512pt" height="128pt" viewBox="0 0 512 128" version="1.1" xmlns="http://www.w3.org/2000/svg">
<g id="#000000ff">
<path fill="#000000" opacity="1.00" d=" M 414.71 30.69 C 413.57 20.30 417.55 8.91 426.16 2.61 C 427.58 1.94 428.68 3.57 429.53 4.45 C 432.15 8.60 432.35 13.95 430.36 18.40 C 428.07 23.28 426.96 28.65 423.89 33.12 C 424.17 36.93 419.97 37.59 417.81 39.79 C 413.89 43.02 411.41 48.57 406.02 49.55 C 404.14 49.05 405.43 46.67 405.50 45.38 C 406.98 39.66 410.48 34.72 414.71 30.69 M 425.53 7.41 C 423.48 9.72 421.16 11.89 419.67 14.61 C 418.53 19.64 417.09 24.75 417.41 29.97 C 417.50 31.11 418.09 34.64 419.84 33.12 C 424.82 26.80 428.80 19.17 429.07 11.00 C 429.17 9.07 427.94 4.83 425.53 7.41 M 408.71 43.46 C 411.76 42.14 415.24 39.32 415.97 35.96 C 412.38 37.00 410.23 40.27 408.71 43.46 Z" />
<path fill="#000000" opacity="1.00" d=" M 429.60 30.58 C 434.00 27.80 438.83 25.56 443.87 24.25 C 445.71 24.12 445.67 26.66 445.71 27.94 C 446.15 33.04 444.67 38.56 440.79 42.02 C 437.31 42.73 435.04 38.38 436.90 35.55 C 438.21 36.09 439.54 36.59 440.88 37.09 C 442.42 34.40 443.19 31.23 442.24 28.19 C 437.31 29.85 433.08 33.15 428.13 34.67 C 426.37 33.19 428.37 31.52 429.60 30.58 Z" />
<path fill="#000000" opacity="1.00" d=" M 333.76 51.69 C 335.20 43.71 336.99 35.18 342.05 28.67 C 344.57 28.96 344.72 31.98 344.78 33.95 C 345.54 42.47 339.64 49.38 335.91 56.46 C 338.95 56.27 340.70 52.77 343.76 52.97 C 345.75 54.81 345.50 57.80 346.09 60.25 C 351.48 59.01 355.09 54.13 357.92 49.71 C 358.70 50.08 359.49 50.44 360.29 50.80 C 361.19 47.04 363.74 44.01 366.05 41.02 C 367.24 39.37 369.03 38.37 370.90 37.65 C 372.32 39.27 372.19 41.13 371.22 42.92 C 373.15 46.00 371.68 49.38 371.36 52.64 C 371.91 54.27 373.74 53.71 374.44 52.52 C 378.97 47.98 381.49 41.41 387.35 38.28 C 388.73 37.22 390.46 37.38 392.03 37.84 C 392.94 41.09 392.38 44.41 391.61 47.61 C 396.43 45.80 400.56 42.61 405.23 40.52 C 404.31 42.40 402.98 44.07 401.20 45.19 C 397.98 47.22 395.72 50.77 391.88 51.77 C 390.59 52.17 388.64 51.55 388.56 50.00 C 388.64 46.90 389.74 43.94 390.07 40.87 C 387.27 41.13 384.46 42.53 383.30 45.23 C 382.29 47.75 380.08 49.44 378.71 51.73 C 377.21 54.51 374.29 56.09 372.65 58.78 C 372.05 58.77 370.84 58.76 370.23 58.76 C 369.66 56.77 369.23 54.74 368.80 52.72 C 365.05 54.31 363.43 59.74 358.94 59.42 C 358.70 57.96 358.43 56.51 358.13 55.07 C 355.00 58.26 352.22 62.31 347.80 63.76 C 343.82 64.58 343.07 59.86 342.02 57.18 C 338.82 59.33 336.67 62.55 334.64 65.74 C 333.95 65.84 332.57 66.05 331.88 66.16 C 331.78 64.24 331.89 62.33 331.97 60.42 C 326.41 63.04 322.40 68.83 315.97 69.43 C 313.03 69.67 311.99 66.35 311.78 64.02 C 311.89 58.57 314.46 52.63 319.90 50.63 C 322.61 52.90 320.97 57.74 317.33 57.38 C 315.46 59.85 313.58 62.78 315.13 65.94 C 319.56 65.15 322.96 62.00 326.53 59.50 C 329.26 57.28 332.45 55.10 333.76 51.69 M 341.23 35.87 C 340.00 38.97 339.28 42.26 338.10 45.38 C 341.20 43.26 342.12 38.81 342.35 35.25 L 341.23 35.87 M 362.88 52.17 C 366.01 50.46 368.52 47.22 369.20 43.70 C 366.02 45.38 363.39 48.53 362.88 52.17 Z" />
<path fill="#000000" opacity="1.00" d=" M 265.54 33.48 C 268.33 31.81 272.01 29.68 275.12 31.87 C 280.95 35.21 282.11 42.81 282.67 48.92 C 283.71 62.09 275.51 73.74 266.00 81.96 C 275.28 78.36 281.28 69.90 288.37 63.36 C 288.85 63.19 289.80 62.87 290.27 62.71 C 289.67 64.99 288.08 66.78 286.60 68.54 C 283.15 72.43 280.26 76.92 275.85 79.83 C 272.09 83.28 267.27 86.05 261.98 85.37 C 254.60 84.97 248.75 78.15 248.43 70.96 C 247.54 56.61 254.65 42.56 265.54 33.48 M 270.01 33.98 C 264.60 37.09 260.70 42.22 257.44 47.42 C 252.91 54.87 249.72 63.82 251.59 72.61 C 252.61 76.43 254.30 81.33 258.99 81.62 C 258.54 79.98 258.05 78.36 257.80 76.68 C 259.73 77.34 260.56 80.43 262.86 79.74 C 267.59 77.96 271.09 74.00 273.96 69.99 C 281.22 60.24 283.45 45.94 276.61 35.39 C 275.25 33.16 272.17 32.68 270.01 33.98 Z" />
<path fill="#000000" opacity="1.00" d=" M 290.80 60.85 C 290.87 56.91 297.21 56.65 298.28 60.07 C 298.51 62.76 297.96 65.46 298.14 68.17 C 301.39 67.16 303.23 63.99 306.30 62.64 C 305.52 66.68 302.96 70.36 299.40 72.44 C 298.30 73.13 296.39 74.15 295.68 72.38 C 295.04 68.51 295.65 64.53 295.30 60.62 C 293.79 60.69 292.30 60.77 290.80 60.85 Z" />
<path fill="#000000" opacity="1.00" d=" M 126.14 66.00 C 127.72 65.10 129.61 67.30 129.04 68.85 C 128.14 73.23 126.52 77.51 126.57 82.04 C 126.90 86.11 123.80 90.20 126.53 93.92 C 124.33 96.88 122.29 100.15 122.27 103.97 C 121.64 108.20 121.94 114.15 117.25 116.12 C 117.24 110.26 119.08 104.60 119.41 98.76 C 113.26 99.78 107.54 102.39 101.42 103.53 C 99.41 104.04 97.22 104.24 95.47 105.46 C 94.44 108.72 94.34 112.20 93.53 115.53 C 92.50 119.67 92.96 124.23 90.68 128.00 L 89.62 128.00 C 89.03 120.70 91.17 113.60 91.57 106.37 C 84.76 107.55 78.33 110.22 71.61 111.80 C 65.92 113.46 59.07 114.07 55.25 119.19 C 53.44 121.18 54.20 124.02 53.96 126.45 C 52.66 125.02 51.54 123.24 52.26 121.24 C 53.07 115.78 58.40 112.89 63.17 111.37 C 71.65 108.82 80.24 106.59 88.67 103.84 C 91.65 103.46 93.17 100.78 93.35 98.00 C 94.48 91.16 96.05 84.40 97.05 77.53 C 88.31 79.10 79.73 81.55 70.88 82.63 C 67.83 83.47 63.12 83.33 62.12 87.08 C 62.53 89.48 65.14 90.82 67.22 91.64 C 72.96 93.58 78.59 90.53 84.02 89.00 C 83.91 89.67 83.70 91.00 83.60 91.66 C 79.60 94.24 74.59 94.54 69.97 94.35 C 66.22 94.27 62.82 92.21 60.37 89.49 C 58.87 87.91 59.24 85.23 60.84 83.86 C 63.23 81.52 66.75 81.23 69.85 80.58 C 77.84 79.26 85.75 77.56 93.62 75.70 C 96.56 75.09 98.65 72.05 101.87 72.86 C 99.53 82.31 97.81 91.92 95.73 101.44 C 100.72 101.55 105.32 99.31 110.09 98.15 C 113.52 96.96 117.43 96.64 120.38 94.38 C 123.32 85.16 123.23 75.24 126.14 66.00 Z" />
<path fill="#000000" opacity="1.00" d=" M 223.14 68.00 C 223.74 67.02 224.35 66.06 224.97 65.09 C 227.94 68.18 230.51 72.46 228.92 76.87 C 227.73 83.44 222.02 87.54 216.92 91.10 C 215.64 91.58 213.73 92.71 212.58 91.51 C 211.40 88.49 211.95 85.15 211.60 81.98 C 208.60 83.83 207.08 87.18 204.46 89.45 C 202.48 91.17 200.58 92.99 199.35 95.34 C 198.81 95.52 197.72 95.88 197.17 96.07 C 196.80 93.23 197.27 90.42 197.67 87.62 C 193.72 91.34 189.97 95.42 185.56 98.58 C 181.27 100.06 179.48 95.09 178.50 91.94 C 180.31 85.84 182.02 78.31 188.37 75.38 C 191.09 73.82 195.48 76.66 194.01 79.85 C 192.12 84.71 187.08 87.16 183.48 90.59 C 181.42 91.39 182.69 93.68 183.01 95.19 C 190.03 91.82 195.70 85.70 199.36 78.91 C 203.69 79.90 200.96 84.49 200.75 87.35 C 204.40 84.22 207.48 80.25 212.01 78.28 C 216.03 79.54 214.19 84.32 214.70 87.37 L 215.86 87.66 C 219.48 85.53 222.79 82.73 225.26 79.32 C 227.63 75.59 225.75 71.03 223.14 68.00 M 186.11 81.83 C 188.80 85.04 190.77 79.71 191.99 77.75 C 189.56 77.69 186.70 79.52 186.11 81.83 Z" />
<path fill="#000000" opacity="1.00" d=" M 163.31 83.30 C 164.61 82.04 166.25 81.15 167.99 80.68 C 170.36 81.52 171.80 83.83 173.65 85.42 C 174.11 89.75 171.35 93.63 172.04 97.99 C 171.23 103.58 169.20 108.95 168.31 114.54 C 167.09 117.20 166.82 120.53 164.59 122.59 C 160.22 123.73 155.62 120.14 154.48 115.99 C 154.60 109.19 160.91 105.43 165.52 101.51 C 168.35 99.42 169.54 95.92 169.48 92.50 C 163.15 97.02 157.33 102.43 149.96 105.26 C 145.84 106.01 144.01 101.78 142.86 98.67 C 138.63 101.93 137.37 110.25 130.90 109.35 C 130.10 100.37 133.58 91.02 140.15 84.81 C 141.81 83.53 143.68 85.17 144.72 86.44 C 146.74 88.43 142.60 91.04 145.46 92.70 C 145.65 95.89 145.09 99.96 148.24 101.94 C 150.88 102.01 153.94 100.71 155.41 98.54 C 156.44 92.79 159.38 87.56 163.31 83.30 M 164.27 87.29 C 162.37 90.10 159.54 92.59 158.90 96.02 C 162.56 93.34 165.75 90.04 168.83 86.73 C 169.65 82.78 165.38 85.75 164.27 87.29 M 134.61 102.53 C 137.29 100.50 138.75 97.35 140.62 94.64 C 141.90 92.88 142.16 90.70 142.09 88.59 C 137.59 91.69 135.87 97.47 134.61 102.53 M 166.70 102.10 C 163.34 105.91 158.96 109.18 157.33 114.23 C 156.71 117.50 160.24 119.38 162.86 120.16 C 165.42 115.40 166.28 109.99 167.51 104.80 C 167.88 103.78 167.14 102.93 166.70 102.10 Z" />
</g>
</svg>
