<?xml version="1.0" encoding="UTF-8" ?>
<!DOCTYPE svg PUBLIC "-//W3C//DTD SVG 1.1//EN" "http://www.w3.org/Graphics/SVG/1.1/DTD/svg11.dtd">
<svg width="512pt" height="128pt" viewBox="0 0 512 128" version="1.1" xmlns="http://www.w3.org/2000/svg">
<g id="#000000ff">
<path fill="#000000" opacity="1.00" d=" M 375.07 0.65 C 378.46 1.38 377.67 5.11 377.43 7.65 C 381.54 7.05 385.51 5.77 389.17 3.83 C 390.60 3.01 392.20 4.01 393.67 4.22 C 393.66 5.44 394.52 7.46 392.70 7.80 C 387.90 9.81 382.63 10.19 377.70 11.77 C 375.48 12.61 374.88 15.17 374.36 17.22 C 373.50 21.17 372.46 25.16 372.66 29.22 C 376.05 28.58 378.72 26.35 381.00 23.88 C 381.41 25.32 383.28 27.19 381.72 28.53 C 378.87 30.81 375.64 32.90 372.11 33.91 C 368.98 33.54 369.56 29.58 368.98 27.36 C 364.68 30.79 360.00 33.65 355.05 36.01 C 353.28 38.13 352.29 41.69 348.99 41.79 C 345.19 42.27 343.25 37.78 344.51 34.67 C 346.67 34.10 348.96 33.89 351.02 32.96 C 353.01 31.76 352.44 29.07 352.66 27.12 C 349.25 28.25 346.66 30.90 343.49 32.52 C 337.81 36.63 333.50 42.34 328.06 46.73 C 323.62 44.96 326.33 38.93 326.13 35.31 C 321.11 38.39 317.53 43.34 313.50 47.57 C 312.58 48.94 310.63 48.00 310.47 46.61 C 309.88 42.84 310.69 39.02 311.10 35.27 C 305.73 36.41 302.90 41.59 299.05 45.00 C 296.75 46.84 295.66 51.83 292.14 50.82 C 290.66 46.54 293.39 41.84 293.34 37.35 C 289.39 37.19 287.74 41.01 285.59 43.57 C 283.05 46.69 282.28 50.71 280.99 54.41 C 279.89 54.01 278.89 53.46 277.97 52.78 C 278.10 49.19 279.27 45.73 279.41 42.13 C 276.15 43.81 273.97 46.88 271.32 49.31 C 268.29 52.17 265.85 56.46 261.34 56.99 C 259.49 53.66 259.04 49.74 259.81 46.04 C 259.80 44.64 261.17 41.98 258.98 41.60 C 254.46 43.21 251.81 47.57 249.55 51.53 C 246.09 55.96 242.71 60.74 237.85 63.73 C 234.36 63.92 233.67 59.15 230.62 58.01 C 232.05 56.96 233.57 55.73 233.75 53.82 C 234.80 49.45 235.56 43.84 240.07 41.66 C 243.52 40.53 245.08 45.34 244.41 47.96 C 243.01 52.06 239.43 54.84 236.79 58.12 C 236.74 58.64 236.64 59.68 236.59 60.21 C 245.13 54.18 249.19 43.70 258.05 38.07 C 259.88 38.73 261.72 39.52 263.25 40.75 C 264.62 44.45 261.97 48.31 262.95 52.12 C 269.85 47.28 275.72 41.09 281.06 34.61 C 284.42 34.29 283.09 38.44 283.23 40.41 C 286.47 38.11 288.99 34.62 292.97 33.49 C 297.21 34.34 296.29 39.24 296.13 42.39 C 302.21 38.62 306.62 31.66 313.91 30.12 C 315.45 33.78 313.94 37.75 313.96 41.54 C 318.94 38.08 322.50 32.99 327.43 29.48 C 328.02 29.33 329.20 29.03 329.78 28.88 C 330.01 32.39 329.60 35.90 329.76 39.42 C 331.33 38.51 332.81 37.42 334.12 36.15 C 339.29 31.17 345.40 27.30 351.57 23.69 C 353.10 22.58 355.97 22.80 356.20 25.08 C 356.18 27.23 355.63 29.35 355.61 31.51 C 363.99 29.43 368.36 20.88 371.31 13.50 C 367.40 13.79 363.82 15.56 360.01 16.32 C 358.18 16.44 357.93 13.11 359.75 12.83 C 363.80 10.81 368.46 10.40 372.56 8.54 C 374.03 6.20 374.11 3.23 375.07 0.65 M 237.41 51.68 C 239.87 50.52 241.00 47.88 241.20 45.31 C 238.77 46.52 237.99 49.25 237.41 51.68 Z" />
<path fill="#000000" opacity="1.00" d=" M 324.33 14.01 C 325.44 14.43 327.40 14.38 327.42 16.02 C 327.49 18.10 326.14 19.99 324.95 21.60 C 322.28 19.88 323.92 16.44 324.33 14.01 Z" />
<path fill="#000000" opacity="1.00" d=" M 220.31 19.35 C 221.08 17.95 223.30 16.80 224.34 18.61 C 226.92 22.18 226.96 26.85 227.46 31.06 C 228.39 37.95 224.69 44.17 223.83 50.85 C 225.06 51.51 226.28 52.20 227.26 53.22 C 225.89 53.29 224.52 53.29 223.15 53.22 C 221.87 56.40 219.59 59.01 218.06 62.06 C 216.27 65.25 213.64 68.38 210.03 69.48 C 207.65 69.21 207.24 65.94 207.58 64.00 C 209.38 57.87 213.05 51.62 219.15 48.98 C 217.59 45.52 216.60 41.79 216.61 37.98 C 216.45 31.63 216.84 24.87 220.31 19.35 M 219.88 30.95 C 219.65 35.98 219.32 41.10 220.40 46.07 C 222.81 44.97 222.85 41.93 223.68 39.75 C 224.97 34.28 225.80 27.84 223.01 22.75 C 221.21 25.11 220.02 27.96 219.88 30.95 M 210.82 64.30 C 214.61 61.71 216.97 57.25 218.29 52.94 C 214.44 55.47 212.21 60.02 210.82 64.30 Z" />
<path fill="#000000" opacity="1.00" d=" M 131.55 41.38 C 141.38 39.23 151.53 38.10 160.89 34.24 C 163.44 34.52 162.91 37.36 160.75 37.84 C 151.36 40.72 141.55 42.03 131.94 43.96 C 130.26 44.25 127.95 44.99 128.47 47.17 C 128.43 61.08 126.39 75.18 121.83 88.24 C 121.38 88.24 120.50 88.23 120.05 88.23 C 116.38 86.38 112.39 84.71 109.52 81.67 C 113.02 81.77 115.94 83.78 118.98 85.25 L 119.67 84.83 C 124.39 72.36 125.70 58.91 125.89 45.66 C 120.04 45.30 114.35 47.03 108.61 47.87 C 99.55 49.78 89.89 51.01 82.16 56.55 C 82.86 60.12 86.95 61.21 89.94 62.20 C 95.29 63.31 100.95 64.50 106.37 63.16 C 107.59 63.13 110.35 61.56 110.32 63.85 C 104.45 67.07 97.49 65.85 91.23 64.59 C 87.01 63.46 82.28 62.12 79.62 58.38 C 77.99 56.25 80.74 54.34 82.36 53.34 C 91.73 47.80 102.84 47.04 113.20 44.47 C 117.10 43.45 121.35 43.88 125.01 42.01 C 127.02 40.81 129.41 42.18 131.55 41.38 Z" />
<path fill="#000000" opacity="1.00" d=" M 193.71 35.70 C 196.47 36.22 198.43 38.27 200.07 40.38 C 198.82 41.06 197.64 41.85 196.54 42.75 C 195.42 40.48 194.22 38.21 193.71 35.70 Z" />
<path fill="#000000" opacity="1.00" d=" M 159.95 53.83 C 159.66 51.37 162.40 52.87 162.88 54.13 C 165.19 56.80 165.43 60.98 168.11 63.22 C 171.15 62.44 174.16 61.40 176.96 59.98 C 179.83 58.48 180.84 54.78 184.06 53.81 C 183.98 55.77 184.10 58.07 182.44 59.46 C 178.81 62.86 173.85 64.23 169.35 66.07 C 170.17 68.14 170.80 70.77 172.97 71.85 C 175.45 70.22 177.09 67.41 180.03 66.49 C 178.64 69.73 177.81 74.35 173.95 75.47 C 169.89 75.03 168.10 70.59 165.80 67.76 C 161.55 69.32 157.76 71.86 153.68 73.76 C 150.39 75.30 146.05 73.83 144.29 70.67 C 143.44 69.79 143.10 67.33 141.49 68.51 C 140.11 71.84 139.37 76.12 135.84 77.90 C 133.46 78.82 131.19 76.34 131.86 74.01 C 133.30 68.07 134.62 61.56 139.01 57.00 C 141.64 54.64 145.28 52.49 148.88 53.89 C 149.03 55.39 149.13 56.90 149.18 58.41 C 148.15 57.43 146.65 55.70 145.13 56.94 C 145.68 60.27 145.76 63.63 145.95 66.99 C 145.99 69.15 147.45 71.75 149.94 71.45 C 155.09 70.09 159.79 67.45 164.45 64.93 C 163.25 61.11 161.27 57.60 159.95 53.83 M 138.93 62.01 C 137.04 65.52 135.52 69.28 134.88 73.23 C 137.98 71.96 137.70 68.05 139.99 65.99 C 141.89 64.36 142.46 61.94 142.32 59.51 C 140.91 59.89 139.54 60.60 138.93 62.01 Z" />
<path fill="#000000" opacity="1.00" d=" M 195.57 53.05 C 196.55 53.15 197.53 53.25 198.52 53.37 C 199.24 59.08 197.67 64.79 195.90 70.17 C 194.71 69.71 192.96 69.48 193.26 67.75 C 193.67 62.80 195.55 58.06 195.57 53.05 Z" />
<path fill="#000000" opacity="1.00" d=" M 217.86 74.92 C 218.90 75.64 219.96 76.33 220.90 77.19 C 221.55 88.55 218.91 99.67 217.04 110.79 C 216.86 112.91 214.45 112.79 212.91 113.15 C 213.34 110.09 214.17 107.09 214.31 104.00 C 209.45 105.26 204.65 106.90 200.15 109.10 C 197.53 114.22 197.99 120.41 195.80 125.76 C 195.12 125.77 193.75 125.80 193.07 125.81 C 192.45 120.74 194.71 115.97 195.11 110.97 C 188.02 112.19 181.45 115.27 174.41 116.67 C 174.52 117.37 174.75 118.76 174.86 119.45 C 172.83 117.97 170.93 116.26 169.66 114.05 C 178.52 110.80 187.98 109.46 196.68 105.68 C 197.98 98.99 200.11 92.43 200.43 85.58 C 194.70 86.66 188.95 87.59 183.16 88.28 C 184.24 91.65 191.56 89.87 192.04 94.27 C 189.76 94.76 187.69 93.19 185.55 92.63 C 182.31 91.28 177.90 90.23 176.94 86.33 C 185.32 84.42 194.36 84.97 202.15 80.92 C 203.44 80.07 205.68 81.43 205.34 83.03 C 203.91 89.98 202.96 97.04 201.07 103.90 C 205.87 102.57 210.66 100.98 215.34 99.46 C 216.86 91.36 217.27 83.12 217.86 74.92 Z" />
<path fill="#000000" opacity="1.00" d=" M 302.53 80.61 C 304.10 79.90 306.74 80.10 307.13 82.16 C 307.81 84.93 306.63 87.80 305.01 90.02 C 303.36 92.20 300.63 93.00 298.51 94.58 C 296.87 97.76 300.27 102.11 303.79 100.75 C 312.38 97.74 320.55 91.86 324.44 83.43 C 326.05 82.77 327.00 84.55 326.54 85.95 C 326.13 92.14 320.23 95.40 316.08 99.09 C 311.77 102.23 306.68 105.59 301.12 105.05 C 297.00 104.24 296.23 99.83 294.92 96.56 C 291.72 97.31 288.76 99.08 285.44 99.56 C 282.00 99.99 281.24 104.54 277.87 104.94 C 274.57 105.59 271.25 102.68 271.32 99.36 C 273.53 96.77 278.00 98.73 280.42 96.41 C 281.90 93.73 281.51 90.47 281.42 87.52 C 279.48 88.42 277.63 89.56 276.21 91.18 C 271.75 96.14 267.00 100.89 263.32 106.49 C 262.54 108.17 260.67 107.20 259.37 106.99 C 259.45 102.43 259.79 97.88 259.98 93.32 C 257.89 94.05 257.01 96.17 255.76 97.79 C 253.24 101.24 251.26 105.04 249.57 108.95 C 248.49 108.75 246.46 109.33 246.32 107.69 C 245.64 102.82 246.89 97.86 246.31 92.96 C 242.52 93.80 238.50 94.10 235.06 96.03 C 236.53 99.93 237.19 104.22 236.29 108.33 C 235.43 110.30 233.78 111.83 232.07 113.07 C 230.78 114.04 228.45 114.00 227.77 112.31 C 225.43 105.44 228.33 97.97 232.66 92.58 C 235.93 91.17 239.63 91.23 242.98 90.00 C 244.82 89.66 246.76 88.30 248.61 89.24 C 250.89 91.79 249.96 95.35 249.78 98.40 C 253.25 94.86 256.22 90.80 260.15 87.72 C 261.58 87.02 263.34 88.59 263.25 90.03 C 263.51 93.07 263.80 96.13 263.57 99.18 C 270.13 93.70 274.93 85.75 282.98 82.30 C 283.30 82.62 283.94 83.27 284.26 83.59 C 285.25 87.60 284.09 91.80 284.20 95.89 C 288.85 95.33 295.62 94.29 296.65 88.78 C 297.48 85.47 299.14 81.93 302.53 80.61 M 298.82 91.64 C 301.45 89.54 303.97 86.41 304.23 82.95 C 301.00 84.67 299.80 88.37 298.82 91.64 M 229.82 109.35 C 232.79 107.21 234.99 102.19 232.89 99.10 C 230.45 101.71 230.12 105.88 229.82 109.35 Z" />
</g>
</svg>
