<?xml version="1.0" encoding="UTF-8" ?>
<!DOCTYPE svg PUBLIC "-//W3C//DTD SVG 1.1//EN" "http://www.w3.org/Graphics/SVG/1.1/DTD/svg11.dtd">
<svg width="512pt" height="128pt" viewBox="0 0 512 128" version="1.1" xmlns="http://www.w3.org/2000/svg">
<g id="#000000ff">
<path fill="#000000" opacity="1.00" d=" M 127.91 20.04 C 129.69 20.21 131.89 20.85 131.90 23.06 C 130.90 30.37 126.87 36.77 124.31 43.58 C 129.62 40.84 133.93 35.98 140.10 35.15 C 144.24 33.79 147.79 38.18 147.90 41.99 C 148.08 51.27 142.75 59.99 135.67 65.67 C 131.60 69.05 126.44 70.45 121.68 72.52 C 123.31 76.06 126.90 78.98 130.98 78.49 C 134.91 77.89 138.65 76.39 142.48 75.34 C 145.38 74.40 146.09 71.07 146.59 68.44 C 147.72 62.35 151.53 57.00 156.51 53.42 C 158.67 51.95 162.10 52.14 163.35 54.71 C 164.95 58.72 163.23 63.41 160.48 66.50 C 157.14 69.51 153.88 72.62 150.25 75.29 L 150.56 76.46 C 160.39 74.75 168.67 68.89 177.33 64.32 C 183.16 61.15 189.35 57.51 192.37 51.31 C 194.86 46.82 195.48 41.52 198.23 37.17 C 201.14 37.66 202.28 41.32 201.78 43.90 C 199.48 51.76 194.88 58.64 191.20 65.87 C 195.71 66.37 200.35 68.85 201.61 73.50 C 204.26 81.21 197.36 89.12 189.98 90.45 C 186.44 91.08 182.84 88.31 183.23 84.57 C 188.65 86.34 195.59 83.71 197.02 77.84 C 197.37 75.36 196.10 71.50 193.06 71.64 C 189.81 73.34 187.57 76.44 185.01 78.99 C 180.24 83.89 178.89 90.81 175.50 96.54 C 172.49 101.80 170.17 107.41 168.35 113.18 C 167.68 114.88 166.33 117.56 164.14 116.26 C 162.63 113.88 162.41 110.84 163.40 108.23 C 166.33 100.18 169.34 92.09 173.66 84.67 C 177.66 78.30 181.97 72.02 184.81 65.03 C 182.16 66.26 179.63 67.71 177.07 69.10 C 172.55 71.40 169.29 75.52 164.68 77.69 C 159.97 79.98 155.47 83.51 150.01 83.54 C 147.75 83.00 147.06 80.15 145.63 78.54 C 140.71 79.57 136.97 83.53 131.94 84.17 C 128.91 84.63 125.49 84.01 123.26 81.78 C 118.96 77.41 114.56 73.08 111.22 67.89 C 107.98 72.60 105.75 77.91 102.80 82.79 C 101.99 84.41 100.23 85.09 98.81 86.04 C 97.68 83.09 97.46 79.82 99.11 77.02 C 104.39 67.04 111.78 58.13 115.40 47.31 C 109.42 51.99 104.79 58.16 98.69 62.71 C 95.29 65.26 92.68 68.68 89.36 71.33 C 80.26 78.83 69.84 84.78 58.71 88.71 C 55.10 89.80 51.29 91.10 47.48 90.43 C 43.59 89.30 42.34 84.94 41.30 81.49 C 38.81 74.18 42.10 66.66 45.11 60.06 C 47.53 54.81 53.10 52.39 57.98 49.98 C 62.45 47.77 67.48 45.57 72.56 46.46 C 76.05 48.09 78.18 52.18 78.26 55.93 C 77.61 59.32 75.81 62.37 74.71 65.63 C 73.92 67.12 73.38 69.71 71.14 69.05 C 66.98 63.02 76.92 57.58 73.40 51.33 C 66.46 51.71 59.65 54.12 53.72 57.71 C 46.92 61.90 43.89 70.31 44.42 78.01 C 44.66 80.20 44.13 83.33 46.58 84.44 C 50.44 85.85 54.68 84.75 58.42 83.46 C 64.55 81.12 71.00 79.28 76.45 75.49 C 90.90 65.52 104.89 54.73 117.15 42.12 C 122.94 36.09 125.84 27.99 127.91 20.04 M 138.49 40.64 C 131.18 44.17 124.93 49.60 120.22 56.21 C 118.30 59.30 113.83 61.14 114.19 65.26 C 117.68 66.26 121.46 66.10 124.87 64.87 C 131.34 62.31 137.66 58.19 140.79 51.75 C 142.52 48.06 144.51 43.89 143.21 39.75 C 141.63 40.00 139.99 40.03 138.49 40.64 M 152.31 67.35 C 155.54 65.68 158.55 63.17 159.48 59.49 C 156.10 60.97 153.36 63.77 152.31 67.35 Z" />
<path fill="#000000" opacity="1.00" d=" M 301.59 43.60 C 305.90 38.25 308.96 31.82 314.00 27.07 C 315.28 27.70 316.46 28.69 316.89 30.11 C 318.29 34.33 317.61 38.87 316.80 43.13 C 321.18 42.45 325.62 42.24 330.05 41.97 C 333.08 41.43 335.38 44.78 334.71 47.55 C 332.93 48.35 330.98 48.72 329.03 48.70 C 324.07 48.68 319.11 49.30 314.23 50.10 C 311.80 51.22 310.37 53.68 308.60 55.57 C 304.35 60.96 299.11 65.49 295.08 71.04 C 293.31 73.52 293.74 76.65 293.88 79.49 C 298.37 79.58 302.06 76.54 306.15 75.12 C 311.41 73.25 315.84 68.06 321.88 69.91 C 326.60 65.80 330.47 60.00 337.03 58.64 C 340.61 57.08 345.65 61.67 343.20 65.17 C 340.39 69.93 339.22 75.58 339.44 81.07 C 348.85 77.13 356.52 70.13 364.06 63.43 C 366.48 63.62 367.04 67.07 368.27 68.87 C 371.46 67.69 374.38 65.94 377.44 64.48 C 379.54 63.43 383.05 63.51 383.67 66.29 C 384.86 71.34 380.77 75.63 380.31 80.53 C 383.31 79.79 386.30 78.93 389.39 78.63 C 387.63 82.84 383.58 85.41 380.22 88.26 C 378.40 90.05 375.00 88.25 375.17 85.81 C 374.87 80.54 377.46 75.71 378.19 70.58 C 374.48 71.70 370.71 73.15 367.81 75.80 C 364.79 78.47 362.39 81.77 359.35 84.41 C 358.20 85.77 356.36 85.09 354.86 85.11 C 355.14 82.55 355.93 80.09 356.54 77.60 C 352.71 80.45 348.67 82.99 344.82 85.81 C 342.93 87.21 340.61 88.27 338.21 87.96 C 334.54 86.53 334.54 82.13 333.56 78.95 C 329.93 81.16 326.56 83.73 323.00 86.03 C 320.92 87.54 317.29 87.26 316.40 84.52 C 315.88 81.86 317.03 79.22 317.33 76.59 C 310.47 79.53 304.69 85.34 297.01 86.30 C 291.96 86.35 289.11 81.66 286.90 77.81 C 282.75 81.46 278.26 84.75 273.44 87.44 C 270.95 88.43 268.06 90.61 265.47 88.68 C 261.00 86.23 261.62 80.54 261.04 76.26 C 256.10 77.78 252.89 81.94 249.16 85.21 C 247.54 86.84 244.80 84.88 245.05 82.87 C 245.22 79.49 248.46 77.12 248.36 73.67 C 245.15 74.68 243.24 77.72 240.59 79.62 C 235.35 83.70 229.72 88.02 223.09 89.31 C 220.02 87.91 219.11 84.25 216.90 81.93 C 213.37 82.90 209.76 83.83 206.06 83.39 C 204.66 82.61 204.22 81.03 203.63 79.66 C 208.74 79.46 214.59 79.20 218.51 75.52 C 220.63 69.01 224.05 62.76 229.35 58.32 C 233.32 57.84 235.24 62.69 234.36 66.03 C 233.65 72.40 227.80 75.85 223.80 80.10 C 223.77 80.87 223.71 82.41 223.69 83.18 C 225.52 82.59 227.48 82.19 229.13 81.13 C 235.57 76.60 241.87 71.88 248.23 67.26 C 250.06 66.04 251.15 62.05 253.80 63.71 C 256.46 65.65 254.54 69.60 255.41 72.39 C 257.77 71.49 259.83 70.03 262.06 68.88 C 263.42 69.44 264.47 70.52 265.62 71.41 C 265.47 75.38 265.45 79.37 266.20 83.29 C 272.66 82.70 277.66 78.21 283.05 75.07 C 286.56 73.14 288.63 69.53 289.86 65.84 C 291.45 61.16 294.01 56.92 296.23 52.53 C 287.15 52.49 278.35 55.61 269.22 54.82 C 266.06 53.90 266.93 48.41 270.21 48.51 C 277.52 47.80 284.90 47.51 292.11 46.02 C 295.23 45.15 299.23 46.35 301.59 43.60 M 300.74 58.05 C 303.35 56.32 305.36 53.79 306.38 50.80 C 303.41 52.18 301.63 55.01 300.74 58.05 M 222.19 76.38 C 226.74 73.41 229.70 68.31 231.28 63.22 C 225.96 65.38 225.00 71.94 222.19 76.38 M 323.89 77.20 C 329.36 74.56 334.24 70.32 336.92 64.80 C 331.23 67.19 326.76 71.81 323.89 77.20 Z" />
<path fill="#000000" opacity="1.00" d=" M 472.61 59.94 C 472.17 57.78 474.47 56.85 475.80 55.69 C 476.75 58.28 478.31 61.14 476.95 63.89 C 475.01 69.53 471.93 75.73 465.97 77.93 C 462.04 79.65 458.44 82.28 454.09 82.86 C 447.98 85.24 441.56 86.94 435.05 87.74 C 431.39 88.07 429.81 83.97 426.87 82.92 C 420.67 83.54 414.87 86.06 408.88 87.60 C 405.98 88.28 402.33 87.65 400.80 84.82 C 399.65 82.22 401.11 79.50 401.91 77.03 C 404.14 70.69 408.94 65.09 415.40 62.88 C 416.48 65.15 418.62 68.06 416.60 70.45 C 415.14 72.84 412.32 71.45 410.11 71.71 C 407.12 74.03 405.72 77.77 404.98 81.36 C 410.61 81.56 415.78 78.94 421.25 78.04 C 423.54 77.36 426.79 77.42 427.78 74.77 C 430.40 68.42 435.79 63.39 442.03 60.67 C 446.72 59.69 447.23 65.67 446.03 68.83 C 445.16 74.21 440.66 77.53 436.36 80.23 C 441.27 81.38 445.63 78.53 450.17 77.22 C 457.13 75.05 464.37 72.79 470.14 68.15 C 472.70 66.20 472.96 62.90 472.61 59.94 M 435.53 73.40 C 438.88 73.20 441.46 70.72 442.20 67.51 C 439.29 68.45 436.84 70.65 435.53 73.40 Z" />
</g>
</svg>
