<?xml version="1.0" encoding="UTF-8" ?>
<!DOCTYPE svg PUBLIC "-//W3C//DTD SVG 1.1//EN" "http://www.w3.org/Graphics/SVG/1.1/DTD/svg11.dtd">
<svg width="256pt" height="256pt" viewBox="0 0 256 256" version="1.1" xmlns="http://www.w3.org/2000/svg">
<g id="#000000ff">
<path fill="#000000" opacity="1.00" d=" M 173.64 4.08 C 174.00 3.41 174.73 2.06 175.10 1.38 C 181.42 3.67 184.39 10.17 187.06 15.84 C 188.99 20.14 187.47 25.18 184.29 28.44 C 180.65 29.28 177.93 25.91 174.83 24.64 C 174.67 27.76 174.99 30.88 175.27 33.98 C 175.32 37.35 177.86 39.92 178.45 43.15 C 175.48 45.12 173.75 41.42 171.55 40.04 C 172.52 46.12 174.63 52.58 172.77 58.65 C 171.32 62.22 167.34 59.69 165.30 58.20 C 164.66 60.53 163.90 62.87 162.22 64.68 C 161.52 64.25 160.10 63.40 159.40 62.97 C 162.10 60.15 163.33 55.37 161.08 51.93 C 159.57 49.48 158.02 46.94 157.83 43.99 C 160.01 44.06 162.58 44.05 164.04 45.98 C 166.01 48.08 165.48 51.17 166.07 53.76 C 166.61 55.24 168.25 55.61 169.50 56.27 C 170.91 47.70 168.41 39.06 164.66 31.42 C 163.80 29.48 160.71 26.80 163.87 25.43 C 167.41 27.48 168.75 31.67 171.74 34.31 C 171.79 29.61 171.40 24.86 172.41 20.23 C 176.50 19.10 178.99 23.40 182.26 25.02 C 183.48 22.87 184.38 20.51 184.39 18.01 C 183.10 11.97 178.79 7.22 173.64 4.08 Z" />
<path fill="#000000" opacity="1.00" d=" M 150.96 57.79 C 152.42 56.73 153.62 58.59 154.68 59.33 C 158.40 62.73 159.52 67.94 161.52 72.40 C 162.87 75.02 162.65 78.02 162.54 80.87 C 158.73 82.75 155.66 78.88 152.56 77.29 C 152.92 82.55 156.51 88.13 153.84 93.25 C 150.00 94.32 147.76 89.48 144.38 88.34 C 146.19 94.12 148.61 99.84 148.83 105.98 C 146.12 106.11 144.80 103.48 143.32 101.69 C 140.06 97.04 137.07 91.82 136.66 86.04 C 136.55 83.82 138.76 82.60 140.04 81.13 C 143.90 83.66 146.92 87.40 151.31 89.13 C 151.20 81.95 148.91 74.84 145.34 68.63 C 145.99 68.43 147.29 68.03 147.94 67.82 C 151.64 70.77 153.73 76.09 158.86 76.97 C 158.16 71.87 156.10 67.05 153.23 62.80 C 152.31 61.22 150.94 59.73 150.96 57.79 M 140.74 90.16 C 140.28 91.72 141.25 94.76 143.05 94.89 C 143.32 93.35 142.44 90.40 140.74 90.16 Z" />
<path fill="#000000" opacity="1.00" d=" M 109.57 77.60 C 114.11 78.27 115.19 83.13 118.15 85.84 C 122.11 89.91 125.50 94.54 130.00 98.07 C 132.78 100.11 133.47 103.76 135.76 106.22 C 140.14 110.64 143.75 115.92 149.12 119.26 C 148.42 119.81 147.71 120.35 147.01 120.89 C 140.53 117.38 136.09 111.42 131.16 106.15 C 129.96 112.97 127.53 119.45 125.28 125.97 C 131.97 135.18 138.26 144.71 145.56 153.47 C 146.96 155.35 149.37 156.50 150.08 158.83 C 149.19 160.39 147.40 159.73 146.41 158.68 C 137.92 149.87 131.69 139.24 124.00 129.77 C 122.41 133.01 120.78 136.25 119.74 139.72 C 120.39 140.15 121.69 141.01 122.35 141.44 C 120.85 142.12 119.33 142.74 117.81 143.35 C 116.94 142.19 115.69 140.94 116.22 139.34 C 117.16 134.76 119.50 130.58 120.49 126.01 C 119.87 123.75 117.80 122.36 116.25 120.75 C 112.49 117.43 109.18 113.57 105.10 110.61 C 103.72 113.82 102.63 117.14 101.57 120.47 C 103.38 120.21 105.18 119.91 107.01 119.80 C 105.95 123.66 101.56 124.95 98.89 127.55 C 96.10 128.06 96.43 125.03 97.25 123.34 C 99.39 117.73 102.19 112.29 102.87 106.24 C 104.89 106.46 106.78 107.31 108.25 108.72 C 112.95 113.04 117.29 117.74 122.02 122.03 C 124.82 115.72 126.62 108.86 127.93 102.14 C 123.70 95.82 117.64 91.00 113.10 84.94 C 111.66 82.64 109.47 80.50 109.57 77.60 Z" />
<path fill="#000000" opacity="1.00" d=" M 174.91 86.62 C 180.65 87.42 185.58 91.54 188.45 96.41 C 189.69 100.74 192.85 104.08 193.92 108.47 C 194.77 107.44 195.18 105.91 196.45 105.28 C 199.56 105.19 201.93 107.49 204.41 109.01 C 205.90 104.36 206.00 99.38 205.31 94.59 C 205.09 91.87 202.79 90.06 201.52 87.82 C 204.86 85.01 208.65 89.13 209.25 92.44 C 210.12 97.61 210.29 102.97 209.38 108.14 C 209.05 110.09 207.93 112.41 205.75 112.68 C 203.16 112.77 201.00 111.07 198.68 110.19 C 196.94 114.21 200.42 117.51 201.51 121.13 C 200.02 121.42 198.51 121.60 196.99 121.69 C 196.62 127.24 197.96 133.50 194.30 138.28 C 192.89 140.25 189.92 140.36 188.12 138.89 C 183.30 135.27 179.81 129.45 180.21 123.29 C 180.58 121.29 183.27 120.80 184.72 121.91 C 188.10 124.05 188.34 128.55 189.61 131.99 C 188.08 131.32 186.60 130.57 185.08 129.90 C 186.32 132.16 187.76 134.30 189.31 136.36 C 192.05 134.53 191.91 130.89 192.40 128.00 C 192.56 122.52 193.40 116.09 189.23 111.78 C 182.99 104.50 175.52 96.69 174.91 86.62 M 180.15 91.66 C 181.15 95.94 183.46 100.05 187.16 102.55 C 185.98 98.35 184.23 93.83 180.15 91.66 Z" />
<path fill="#000000" opacity="1.00" d=" M 84.67 142.45 C 88.20 142.73 90.87 145.39 93.22 147.78 C 97.34 152.15 98.80 158.12 101.66 163.26 C 102.80 165.71 103.06 168.93 105.82 170.23 C 107.59 171.69 110.37 171.62 111.65 169.55 C 112.87 166.06 112.82 162.04 111.48 158.59 C 110.38 155.61 107.91 153.48 106.34 150.79 C 111.01 151.34 113.98 155.85 115.11 160.05 C 116.44 164.46 117.17 170.06 113.66 173.68 C 111.59 175.81 108.46 174.48 105.90 174.58 C 106.17 180.24 108.29 186.03 106.75 191.64 C 104.99 195.91 99.83 193.28 97.11 191.52 C 98.31 196.63 98.94 201.85 99.53 207.06 C 99.73 209.23 99.46 213.36 96.27 212.54 C 93.11 210.98 90.76 208.17 88.14 205.85 C 85.73 203.25 82.60 201.03 81.42 197.55 C 87.11 200.50 90.77 206.28 96.22 209.68 C 96.77 200.50 96.01 190.39 90.20 182.81 C 85.05 176.14 79.25 169.76 75.88 161.92 C 77.00 161.83 78.22 161.13 79.31 161.67 C 86.69 165.66 91.86 172.97 93.95 181.01 C 94.83 185.44 98.39 188.61 102.01 190.95 C 103.72 190.03 104.49 187.92 104.24 186.05 C 103.90 181.91 103.22 177.81 102.43 173.73 C 102.07 170.90 99.39 169.31 97.79 167.19 C 91.83 159.98 86.42 151.78 84.67 142.45 M 89.65 147.96 C 91.76 153.13 94.12 158.48 98.22 162.40 C 96.84 156.95 94.20 151.46 89.65 147.96 M 81.68 165.87 C 84.17 170.46 87.11 174.90 90.71 178.70 C 89.43 173.52 86.57 168.39 81.68 165.87 Z" />
<path fill="#000000" opacity="1.00" d=" M 172.43 143.57 C 176.91 142.18 180.19 145.99 183.80 147.87 C 184.49 145.71 185.04 143.49 186.21 141.53 C 186.53 145.22 189.81 149.84 186.24 152.82 C 182.95 151.08 179.83 148.98 176.33 147.65 C 176.83 153.82 180.02 159.10 182.26 164.70 C 181.66 165.05 180.47 165.76 179.87 166.11 C 178.38 164.76 176.91 163.38 175.37 162.09 C 174.97 166.83 177.13 171.33 177.57 176.01 C 178.05 177.60 176.40 178.99 174.99 179.24 C 172.59 178.66 170.47 177.33 168.20 176.42 C 169.75 181.99 171.93 187.53 171.76 193.41 C 170.38 193.76 169.00 194.07 167.63 194.40 C 167.76 199.64 166.72 205.10 163.15 209.12 C 158.75 211.97 153.57 213.35 148.57 214.77 C 151.01 219.01 153.34 223.31 156.17 227.32 C 155.46 227.91 154.73 228.49 153.98 229.04 C 151.12 227.52 149.81 224.37 148.25 221.71 C 145.46 216.25 142.08 210.96 137.63 206.70 C 141.69 217.44 146.51 228.30 146.54 240.01 C 146.47 244.12 146.91 249.60 142.64 251.86 C 140.04 253.57 137.08 251.59 134.94 250.07 C 128.56 245.70 126.93 237.30 127.17 230.06 C 126.87 227.95 129.11 226.68 130.96 227.22 C 135.49 227.85 137.84 232.39 139.40 236.20 C 135.29 235.67 134.69 230.37 130.95 229.37 C 129.69 232.08 130.46 235.29 130.96 238.13 C 132.27 242.72 134.51 247.77 139.16 249.79 C 142.28 250.33 142.68 246.20 143.13 244.02 C 142.59 235.02 142.11 225.79 138.73 217.30 C 136.47 211.95 135.18 206.10 131.67 201.37 C 130.29 199.39 128.26 197.78 127.75 195.31 C 134.26 195.17 137.57 201.95 142.25 205.40 C 140.81 199.83 140.45 194.05 142.36 188.53 C 145.23 187.47 148.66 187.78 150.54 190.46 C 154.97 196.05 151.97 203.46 152.05 209.88 C 157.54 209.57 162.65 205.60 164.20 200.30 C 165.45 197.25 167.22 193.14 164.63 190.30 C 160.19 184.62 156.66 177.54 157.25 170.15 C 159.98 169.74 162.86 169.88 165.54 170.54 C 168.05 172.13 170.48 173.90 173.33 174.88 C 173.05 167.21 170.04 160.05 168.46 152.62 C 170.12 152.68 171.79 152.78 173.46 152.93 C 172.83 149.85 172.14 146.73 172.43 143.57 M 161.20 173.55 C 161.86 177.95 163.06 182.66 166.17 185.99 C 165.69 181.59 164.95 176.43 161.20 173.55 M 145.03 190.39 C 142.71 197.07 144.27 204.49 147.03 210.80 C 149.05 207.20 148.87 202.91 149.27 198.93 C 149.07 195.73 148.80 191.32 145.03 190.39 Z" />
<path fill="#000000" opacity="1.00" d=" M 74.05 189.33 C 71.94 187.56 73.34 185.34 74.99 183.91 C 75.62 184.42 76.87 185.44 77.49 185.95 C 76.70 187.37 75.90 189.15 74.05 189.33 Z" />
<path fill="#000000" opacity="1.00" d=" M 58.87 189.89 C 60.33 189.71 61.93 189.78 62.93 191.02 C 67.35 194.92 72.55 198.30 75.14 203.82 C 79.35 212.26 85.72 219.29 90.71 227.24 C 93.56 231.71 97.34 235.56 99.77 240.29 C 93.99 237.55 90.99 231.63 87.18 226.85 C 83.18 221.77 79.74 216.21 75.25 211.55 C 72.55 216.87 71.44 222.81 68.91 228.21 C 68.04 229.56 69.52 230.79 70.17 231.85 C 74.00 236.70 76.87 242.29 81.34 246.63 C 82.97 248.61 85.74 250.30 85.15 253.27 C 81.90 252.37 80.17 249.30 78.05 246.95 C 74.28 242.57 71.17 237.67 67.37 233.32 C 64.27 239.11 61.83 245.46 61.65 252.10 C 62.88 252.96 64.13 253.80 65.34 254.70 C 61.86 256.17 58.70 252.41 59.13 249.09 C 59.85 242.50 62.63 236.36 64.43 230.03 C 64.12 228.43 62.86 227.27 61.87 226.07 C 57.85 221.69 53.78 217.31 49.16 213.55 C 47.42 222.28 43.67 230.44 38.92 237.94 C 37.50 240.53 35.24 242.82 34.99 245.90 C 41.82 246.19 44.89 238.89 49.31 234.98 C 49.58 235.45 50.10 236.39 50.37 236.86 C 47.94 240.76 45.11 244.57 41.41 247.36 C 38.76 249.33 33.83 249.50 32.47 245.94 C 32.19 243.39 33.91 241.18 35.01 239.01 C 39.58 232.17 43.92 224.92 45.69 216.79 C 46.39 213.79 46.24 210.68 46.76 207.66 C 54.35 212.44 59.54 220.13 66.00 226.26 C 68.71 221.35 70.12 215.90 71.93 210.63 C 72.31 209.26 73.06 207.62 72.00 206.33 C 68.24 200.38 61.94 196.28 58.87 189.89 Z" />
</g>
</svg>
