<?xml version="1.0" encoding="UTF-8" ?>
<!DOCTYPE svg PUBLIC "-//W3C//DTD SVG 1.1//EN" "http://www.w3.org/Graphics/SVG/1.1/DTD/svg11.dtd">
<svg width="512pt" height="128pt" viewBox="0 0 512 128" version="1.1" xmlns="http://www.w3.org/2000/svg">
<g id="#000000ff">
<path fill="#000000" opacity="1.00" d=" M 104.46 19.65 C 107.92 18.41 111.48 17.41 115.08 16.68 C 117.90 18.22 122.25 18.33 123.03 22.07 C 122.46 23.45 121.53 24.63 120.73 25.88 C 120.11 25.92 118.87 26.01 118.25 26.06 C 119.00 24.19 121.07 21.83 118.74 20.24 C 114.72 18.38 110.18 19.85 106.32 21.44 C 99.19 23.69 96.06 31.14 90.72 35.73 C 89.38 37.00 89.54 39.04 88.83 40.63 C 85.38 45.67 84.72 51.91 82.72 57.57 C 87.24 56.26 90.45 52.67 94.36 50.28 C 96.99 48.46 99.25 46.16 101.93 44.40 C 101.91 45.23 101.88 46.90 101.87 47.73 C 95.99 52.64 88.84 55.93 83.55 61.52 C 81.24 65.42 81.93 70.32 80.26 74.50 C 89.85 67.11 99.63 59.00 104.90 47.85 C 106.04 45.91 107.68 44.34 108.84 42.42 C 107.14 43.38 105.71 44.72 104.15 45.87 C 103.63 45.46 102.58 44.65 102.06 44.25 C 103.87 42.95 105.75 41.78 107.57 40.51 C 109.29 38.22 110.69 35.66 113.13 34.03 C 114.67 31.00 117.21 28.71 119.69 26.46 C 120.68 29.22 118.71 30.88 116.67 32.32 C 117.91 33.93 119.95 35.53 119.58 37.80 C 118.14 42.46 116.54 47.41 112.67 50.66 C 109.57 54.56 104.52 56.67 102.35 61.32 C 101.39 63.54 99.74 65.29 98.16 67.08 C 104.02 66.97 107.47 62.03 112.05 59.23 C 113.28 60.82 114.52 62.41 115.60 64.12 C 114.87 64.48 113.39 65.20 112.65 65.56 C 113.11 66.14 113.56 66.73 114.02 67.31 C 111.70 68.34 111.11 70.72 110.75 73.00 C 118.44 69.98 124.29 63.68 130.31 58.22 C 130.17 59.71 129.97 61.20 129.72 62.68 C 128.21 63.13 126.91 63.90 126.14 65.32 C 121.88 71.09 114.83 73.67 110.04 78.85 C 108.97 78.59 107.89 78.32 106.82 78.05 C 106.94 73.67 108.98 69.66 109.34 65.32 C 107.01 65.38 106.99 67.08 107.28 68.91 C 105.60 69.33 103.91 69.71 102.28 70.30 C 99.36 72.89 97.27 76.23 95.42 79.63 C 93.31 80.51 90.68 80.04 89.56 77.88 C 89.49 74.15 91.61 70.93 92.92 67.57 C 88.77 69.31 86.32 73.29 82.73 75.81 C 81.72 75.83 80.71 75.76 79.70 75.63 C 79.74 79.51 79.06 83.35 78.05 87.08 C 75.75 89.04 72.88 90.46 69.87 90.85 C 66.13 90.14 62.24 89.79 58.70 88.30 C 53.00 85.22 47.56 81.56 43.24 76.68 C 39.53 75.05 35.02 75.63 31.40 73.56 C 26.72 70.85 21.61 67.39 20.35 61.75 C 18.52 57.20 20.84 52.34 23.87 48.93 C 28.51 41.98 35.94 36.97 43.99 34.87 C 47.87 33.58 51.84 35.25 55.59 36.15 C 57.96 38.13 60.95 39.68 62.45 42.47 C 63.13 44.94 63.84 47.41 64.39 49.92 C 63.66 50.83 62.86 51.68 61.98 52.45 C 62.51 46.35 59.38 39.75 53.43 37.54 C 47.67 34.74 41.00 36.68 35.85 39.89 C 30.87 43.11 26.63 47.62 23.94 52.93 C 21.88 56.81 22.79 61.53 24.80 65.23 C 26.11 66.91 27.94 68.10 29.49 69.56 C 32.87 72.73 37.78 72.98 42.12 73.60 C 42.11 71.81 42.22 70.00 41.81 68.25 C 40.42 66.85 38.61 65.98 37.12 64.70 C 38.91 64.40 40.75 64.65 42.53 64.29 C 45.03 62.97 47.01 60.84 49.49 59.49 C 52.66 58.43 56.23 58.20 58.97 56.12 C 60.09 54.98 60.94 53.62 61.96 52.41 C 62.03 53.71 62.09 55.02 62.14 56.33 C 64.46 57.18 66.89 57.78 69.13 58.86 C 70.98 60.20 72.02 63.54 74.79 62.82 C 76.72 62.40 78.38 61.16 79.92 59.99 C 81.75 51.74 83.54 43.30 87.90 35.94 C 89.06 32.38 92.46 30.50 94.77 27.78 C 97.72 24.80 100.33 21.08 104.46 19.65 M 110.73 47.40 C 114.72 45.68 115.80 40.69 117.19 36.96 C 114.26 39.83 110.99 43.04 110.73 47.40 M 51.00 65.27 C 48.43 65.52 46.07 66.58 43.83 67.78 C 44.50 69.49 44.99 71.31 46.00 72.86 C 49.48 72.58 52.92 71.92 56.34 71.24 C 61.25 70.22 65.56 67.50 70.31 65.99 C 69.11 64.46 68.43 62.08 66.26 61.69 C 64.22 61.15 62.13 60.67 60.00 60.60 C 56.31 60.62 54.53 64.86 51.00 65.27 M 75.20 65.42 C 75.76 66.58 76.49 67.70 76.68 69.00 C 77.24 71.01 74.77 71.48 73.57 72.45 C 73.03 70.83 72.54 69.20 72.03 67.58 C 70.06 68.37 68.32 69.56 66.49 70.60 C 59.98 72.83 53.65 75.65 46.74 76.44 C 50.24 79.54 53.38 83.30 57.78 85.15 C 61.42 87.45 65.82 87.67 69.99 88.08 C 72.92 88.38 75.65 86.20 76.17 83.33 C 77.57 76.78 78.11 70.08 79.39 63.51 C 78.02 64.21 76.63 64.86 75.20 65.42 Z" />
<path fill="#000000" opacity="1.00" d=" M 404.81 26.72 C 406.29 24.40 408.43 22.55 409.73 20.08 C 411.02 20.63 412.30 21.19 413.58 21.77 C 412.32 24.34 409.84 25.84 407.94 27.86 C 406.75 32.29 403.96 36.01 401.95 40.10 C 400.30 41.95 400.40 44.48 400.60 46.80 C 401.37 45.06 401.86 43.22 402.57 41.46 C 403.37 42.26 404.13 43.11 404.84 44.00 C 403.45 46.94 399.70 48.50 399.52 51.99 C 398.80 54.30 397.62 56.45 396.80 58.73 C 400.33 59.17 403.85 58.32 407.39 58.66 C 406.61 59.75 405.85 60.85 405.09 61.95 C 407.36 65.12 405.17 68.99 406.72 72.34 C 407.64 74.51 408.82 77.15 411.45 77.53 C 416.01 78.19 419.73 74.62 422.25 71.26 C 424.90 68.25 426.71 64.68 428.53 61.15 C 428.91 62.66 429.24 64.18 429.51 65.71 C 433.42 63.56 436.16 60.02 439.18 56.84 C 439.84 57.54 440.50 58.23 441.16 58.93 C 438.32 64.27 435.64 69.67 433.61 75.39 C 437.40 72.53 442.84 71.68 445.23 67.21 C 446.43 65.21 448.24 63.71 450.01 62.23 C 452.62 64.41 455.79 63.45 458.82 63.11 C 461.16 60.73 463.61 58.45 466.24 56.38 C 467.11 57.20 467.97 58.02 468.83 58.86 C 466.09 61.09 463.22 63.22 461.00 65.99 C 459.30 68.31 459.62 71.38 459.50 74.09 C 464.49 73.32 469.13 70.85 474.23 70.78 C 474.44 66.99 477.36 64.35 479.85 61.83 C 482.00 59.74 484.63 57.65 487.80 57.82 C 492.20 60.71 488.79 65.65 486.92 68.97 C 483.54 70.38 481.13 73.15 478.09 75.13 C 481.42 78.28 486.94 77.00 489.67 73.69 C 492.43 70.38 494.05 66.32 496.15 62.59 C 497.18 62.96 498.21 63.34 499.25 63.72 C 496.30 67.48 494.42 71.89 491.84 75.88 C 490.20 78.73 486.68 79.27 483.78 80.00 C 480.46 80.77 477.76 78.33 475.39 76.43 C 472.72 75.68 470.20 77.35 467.58 77.52 C 469.48 75.77 471.74 74.48 473.75 72.86 C 467.92 75.51 461.34 75.91 455.72 79.03 C 453.52 80.19 450.83 79.24 449.20 77.56 C 448.55 75.68 449.82 73.93 450.47 72.25 C 452.54 73.03 454.83 76.19 456.91 73.80 C 457.14 70.57 457.56 67.35 457.84 64.13 C 448.36 67.40 443.07 77.29 434.06 81.50 C 432.16 80.39 430.75 78.67 429.24 77.11 C 430.60 74.46 431.24 71.55 431.61 68.61 C 429.72 69.75 427.75 70.74 425.93 71.97 C 423.98 73.76 422.83 76.24 420.88 78.01 C 416.87 80.31 411.54 80.99 407.51 78.44 C 403.37 74.89 404.21 68.84 403.08 64.02 C 399.72 64.18 396.42 65.04 393.04 64.70 C 392.33 66.97 391.90 69.43 390.23 71.24 C 387.21 74.56 387.77 79.40 386.08 83.34 C 384.25 82.79 382.12 82.50 380.87 80.89 C 384.93 68.96 391.57 58.11 395.31 46.05 C 392.23 49.11 390.28 53.05 387.72 56.51 C 386.07 56.11 384.42 55.73 382.78 55.30 C 387.99 53.45 389.57 47.84 393.42 44.40 C 395.25 42.72 395.68 40.11 397.25 38.27 C 401.09 35.50 403.11 31.00 404.81 26.72 M 476.59 71.80 C 481.73 70.22 486.78 66.88 487.71 61.16 C 482.73 62.99 478.96 67.14 476.59 71.80 Z" />
<path fill="#000000" opacity="1.00" d=" M 373.76 24.92 C 377.44 23.15 381.63 23.93 385.48 24.63 C 387.67 26.39 389.81 28.65 389.08 31.71 C 387.89 30.24 387.03 28.55 385.95 27.01 C 382.14 24.32 376.97 24.96 372.94 26.83 C 370.24 28.13 367.48 29.49 364.41 29.48 C 362.81 33.40 358.38 34.72 355.59 37.62 C 348.68 44.18 342.21 52.27 341.16 62.07 C 341.00 67.91 343.73 74.02 348.53 77.47 C 351.89 79.82 356.28 78.43 359.62 76.75 C 364.74 74.44 368.79 70.47 373.48 67.48 C 376.19 63.61 378.69 59.24 383.07 57.00 C 384.27 57.19 385.46 57.46 386.63 57.82 C 385.08 60.28 382.25 61.26 380.27 63.25 C 374.58 70.31 367.56 76.65 359.08 80.11 C 353.97 82.27 347.78 80.89 343.62 77.39 C 339.31 71.78 337.89 64.28 339.48 57.41 C 341.68 50.11 347.09 44.53 351.63 38.63 C 356.36 35.06 360.86 31.15 365.91 28.03 C 368.54 27.02 371.20 26.12 373.76 24.92 Z" />
<path fill="#000000" opacity="1.00" d=" M 421.82 26.06 C 425.11 26.59 428.60 28.41 428.88 32.13 C 430.58 36.33 427.34 39.84 425.15 43.04 C 421.42 49.87 414.41 53.89 407.92 57.70 C 407.01 56.83 406.10 55.98 405.18 55.14 C 408.67 54.19 411.58 52.07 414.04 49.48 C 415.29 49.70 416.55 49.92 417.82 50.14 C 417.19 49.21 416.57 48.29 415.95 47.36 C 420.19 44.14 423.88 40.10 426.74 35.63 C 428.12 33.28 426.04 31.30 424.93 29.38 C 424.18 29.48 422.67 29.68 421.91 29.78 C 421.86 28.54 421.83 27.30 421.82 26.06 Z" />
<path fill="#000000" opacity="1.00" d=" M 417.85 27.95 C 418.51 27.74 419.82 27.33 420.48 27.13 C 418.39 32.71 411.60 34.75 409.06 40.12 C 408.71 42.39 406.02 41.86 405.18 40.23 C 408.60 35.34 413.84 32.20 417.85 27.95 Z" />
<path fill="#000000" opacity="1.00" d=" M 387.24 32.62 C 388.79 31.42 390.04 34.22 388.74 35.18 C 387.20 36.39 385.95 33.56 387.24 32.62 Z" />
<path fill="#000000" opacity="1.00" d=" M 189.10 41.10 C 191.24 38.37 191.94 34.47 195.05 32.57 C 197.21 33.06 198.97 34.81 199.15 37.07 C 197.97 45.09 192.47 51.50 186.13 56.16 C 182.10 58.89 181.24 64.14 177.43 67.11 C 183.34 67.02 186.93 62.17 191.50 59.24 C 192.72 60.82 193.94 62.41 195.06 64.07 C 194.29 64.43 192.74 65.16 191.97 65.53 C 192.44 66.07 192.91 66.62 193.39 67.17 C 191.22 68.48 190.46 70.65 190.46 73.09 C 195.08 71.17 198.85 67.77 202.79 64.78 C 205.43 62.83 207.26 59.87 210.25 58.40 C 209.85 59.87 209.37 61.32 208.88 62.76 C 204.63 65.29 202.13 70.19 197.54 72.46 C 193.86 74.39 191.20 78.96 186.70 78.62 C 185.75 74.37 188.40 70.58 188.74 66.47 C 188.27 66.14 187.33 65.48 186.86 65.15 C 186.84 66.07 186.82 67.92 186.80 68.85 C 185.01 69.33 183.21 69.79 181.48 70.45 C 179.35 72.73 177.27 75.13 175.92 77.98 C 174.96 81.07 170.01 80.57 169.09 77.67 C 169.01 73.99 171.21 70.86 172.46 67.54 C 168.30 69.46 165.58 73.29 162.00 76.00 C 160.73 75.71 159.45 75.46 158.18 75.23 C 159.74 78.03 163.47 76.38 166.05 76.96 C 164.18 80.19 160.18 79.94 156.97 80.51 C 156.16 80.19 154.54 79.54 153.73 79.22 C 157.06 74.70 161.11 70.64 163.60 65.55 C 164.41 62.10 163.10 58.62 161.68 55.52 C 156.39 57.69 156.76 64.15 154.66 68.62 C 153.84 73.71 151.76 78.44 150.40 83.40 C 149.50 86.95 148.29 90.43 146.73 93.75 C 144.98 97.01 144.73 100.77 143.63 104.25 C 142.70 103.72 141.78 103.19 140.85 102.65 C 141.17 96.49 143.98 90.96 146.40 85.43 C 148.76 78.44 150.93 71.37 152.95 64.27 C 149.37 68.21 148.05 73.65 144.44 77.55 C 142.26 79.09 139.49 79.67 136.90 80.10 C 133.88 80.40 131.64 78.05 129.39 76.44 C 126.71 75.72 124.17 77.34 121.52 77.48 C 123.39 75.56 125.79 74.33 128.00 72.86 C 127.84 66.79 132.65 62.46 137.15 59.18 C 138.84 58.13 141.64 56.82 143.06 58.95 C 145.65 62.29 142.37 65.92 140.90 68.96 C 137.71 70.60 135.07 73.03 132.15 75.09 C 134.90 77.80 139.24 77.26 142.16 75.16 C 145.98 71.81 147.73 66.90 150.14 62.57 C 151.20 63.00 152.26 63.44 153.32 63.89 C 154.26 59.81 155.64 55.85 156.37 51.73 C 152.98 52.76 149.67 54.40 146.02 54.04 C 149.38 51.57 153.47 50.48 157.22 48.76 C 159.59 48.95 158.26 52.25 158.19 53.81 C 161.66 53.81 164.49 55.85 166.23 58.76 C 166.77 60.68 166.64 62.71 166.70 64.68 C 165.29 67.13 163.76 69.52 162.60 72.10 C 170.92 66.08 178.39 58.58 183.65 49.74 C 184.64 46.40 187.33 44.02 189.10 41.10 M 190.01 46.64 C 190.62 46.63 191.85 46.62 192.46 46.61 C 193.84 43.37 196.11 40.43 196.50 36.84 C 194.00 39.85 191.11 42.77 190.01 46.64 M 130.63 71.75 C 135.79 70.28 140.86 66.83 141.64 61.09 C 136.80 63.12 132.88 67.02 130.63 71.75 Z" />
<path fill="#000000" opacity="1.00" d=" M 250.56 36.45 C 255.45 33.79 261.49 31.91 266.95 33.98 C 269.70 35.08 272.36 36.46 274.79 38.14 C 279.32 44.33 277.34 52.70 274.07 59.01 C 272.36 64.98 269.05 70.37 264.95 74.99 C 262.43 77.25 258.76 79.31 255.35 77.83 C 253.48 77.07 252.39 75.29 251.18 73.79 C 246.98 75.73 242.85 77.90 238.50 79.50 C 236.86 80.18 234.58 79.64 234.24 77.66 C 233.02 73.37 236.95 70.25 239.10 67.09 C 240.28 65.99 240.55 62.96 238.19 63.84 C 233.34 69.49 227.72 74.46 221.61 78.69 C 218.39 79.94 214.36 81.06 211.35 78.70 C 209.90 77.91 208.89 76.06 207.05 76.24 C 204.81 76.26 202.74 77.35 200.50 77.47 C 202.37 74.92 206.94 74.53 207.27 70.99 C 207.49 66.13 211.67 62.95 214.98 59.97 C 216.84 58.50 220.15 56.68 222.06 58.95 C 224.62 62.29 221.33 65.92 219.92 68.99 C 216.67 70.56 214.10 73.11 211.11 75.10 C 213.88 77.75 218.24 77.33 221.16 75.15 C 225.00 71.85 226.71 66.90 229.12 62.58 C 230.17 62.96 231.22 63.34 232.28 63.74 C 230.43 66.30 228.52 68.85 227.24 71.76 C 230.47 69.17 234.11 66.85 236.15 63.15 C 239.04 61.26 238.06 57.28 240.61 55.09 C 239.21 52.01 238.06 48.28 240.15 45.22 C 241.91 40.58 247.14 39.46 250.56 36.45 M 259.33 35.19 C 253.22 36.55 247.92 40.14 243.32 44.26 C 241.14 46.68 241.64 50.22 241.37 53.22 C 242.13 53.30 243.67 53.47 244.44 53.55 C 245.23 56.33 242.04 58.21 240.97 60.55 C 242.42 61.51 243.90 62.44 245.37 63.39 C 242.85 68.46 236.88 71.45 236.05 77.35 C 241.18 76.26 246.32 74.45 250.76 71.61 C 251.85 69.27 252.41 66.73 253.34 64.33 C 256.33 60.77 260.43 58.49 264.31 56.06 C 266.81 54.69 269.22 57.10 271.51 57.88 C 273.00 54.02 273.72 49.94 274.70 45.94 C 273.75 42.96 273.46 39.24 270.64 37.35 C 267.42 35.00 263.19 34.12 259.33 35.19 M 265.03 58.00 C 260.28 60.76 255.78 64.43 253.59 69.62 C 255.08 69.19 256.58 68.78 258.09 68.40 C 256.84 70.19 255.30 71.74 253.70 73.23 C 254.47 74.24 255.18 75.31 256.09 76.21 C 261.13 75.05 263.56 69.88 267.51 66.98 C 267.05 66.50 266.13 65.55 265.67 65.07 C 267.57 63.07 268.48 60.48 268.94 57.80 C 267.63 57.62 266.20 57.11 265.03 58.00 M 209.63 71.73 C 214.80 70.27 219.75 66.85 220.70 61.17 C 215.77 63.01 211.91 67.06 209.63 71.73 Z" />
<path fill="#000000" opacity="1.00" d=" M 386.26 37.03 C 387.89 36.51 388.44 37.04 387.90 38.64 C 386.24 39.17 385.69 38.63 386.26 37.03 Z" />
<path fill="#000000" opacity="1.00" d=" M 444.67 45.34 C 446.20 45.34 447.59 46.07 448.99 46.61 C 446.78 48.58 444.45 50.47 441.71 51.64 C 442.00 49.26 443.41 47.29 444.67 45.34 Z" />
<path fill="#000000" opacity="1.00" d=" M 380.89 46.49 C 382.52 45.98 383.08 46.52 382.57 48.13 C 380.94 48.63 380.38 48.08 380.89 46.49 Z" />
<path fill="#000000" opacity="1.00" d=" M 376.80 52.09 C 378.45 51.50 379.02 52.01 378.53 53.61 C 376.86 54.19 376.28 53.68 376.80 52.09 Z" />
<path fill="#000000" opacity="1.00" d=" M 283.83 63.87 C 285.95 60.93 288.95 58.77 291.71 56.46 C 292.38 57.03 293.73 58.18 294.40 58.76 C 291.64 61.21 288.40 63.22 286.28 66.31 C 284.87 68.60 285.15 71.41 285.07 73.98 C 289.46 73.48 293.49 71.49 297.81 70.76 C 298.53 71.05 299.97 71.62 300.68 71.91 C 296.40 74.66 291.35 75.52 286.50 76.73 C 283.16 77.55 279.90 80.96 276.38 78.80 C 273.34 77.75 274.60 74.33 275.99 72.42 C 278.02 73.35 279.90 74.71 282.22 74.80 C 282.76 71.16 282.40 67.35 283.83 63.87 Z" />
<path fill="#000000" opacity="1.00" d=" M 371.31 59.36 C 374.64 59.50 369.71 62.30 371.31 59.36 Z" />
<path fill="#000000" opacity="1.00" d=" M 368.00 61.45 C 368.85 60.82 371.40 61.36 370.24 62.74 C 369.09 64.55 365.26 62.78 368.00 61.45 Z" />
<path fill="#000000" opacity="1.00" d=" M 270.45 70.39 C 274.44 67.20 278.76 64.10 283.57 62.32 C 282.12 64.96 279.09 65.85 276.94 67.75 C 275.14 69.36 272.87 70.31 270.45 70.39 Z" />
</g>
</svg>
