<?xml version="1.0" encoding="UTF-8" ?>
<!DOCTYPE svg PUBLIC "-//W3C//DTD SVG 1.1//EN" "http://www.w3.org/Graphics/SVG/1.1/DTD/svg11.dtd">
<svg width="256pt" height="128pt" viewBox="0 0 256 128" version="1.1" xmlns="http://www.w3.org/2000/svg">
<g id="#000000ff">
<path fill="#000000" opacity="1.00" d=" M 49.91 1.87 C 50.37 0.19 53.08 1.43 52.57 3.02 C 50.68 8.82 46.51 13.53 43.98 19.04 C 47.18 18.22 49.41 15.50 52.55 14.50 C 57.58 12.78 62.63 10.51 68.03 10.48 C 71.88 10.22 74.88 14.31 74.05 17.93 C 73.27 22.39 70.00 25.92 66.59 28.65 C 60.20 33.62 52.04 35.08 44.38 37.02 C 45.94 40.98 47.53 45.31 50.86 48.12 C 53.39 49.95 56.20 47.66 58.45 46.48 C 62.63 44.44 65.96 41.01 70.32 39.31 C 75.30 37.17 79.73 33.94 84.73 31.85 C 86.45 31.30 88.62 30.49 90.21 31.78 C 91.67 33.59 89.04 34.89 88.30 36.33 C 87.39 41.35 83.75 45.74 85.04 51.08 C 91.58 49.85 96.27 44.74 102.08 41.94 C 105.65 40.55 109.20 39.05 112.50 37.07 C 106.29 25.00 112.96 9.55 124.38 3.32 C 128.13 1.63 134.42 1.22 135.96 5.98 C 138.49 10.77 136.00 16.05 134.82 20.84 C 131.94 28.60 127.14 35.49 121.55 41.54 C 116.80 45.82 112.72 51.04 106.82 53.84 C 105.31 54.17 102.93 53.79 102.76 51.87 C 102.80 49.23 104.22 46.87 105.02 44.41 C 101.42 46.28 97.46 47.64 94.44 50.45 C 91.55 52.76 87.78 54.42 84.10 54.51 C 80.65 52.63 82.04 47.78 81.69 44.54 C 78.92 46.56 76.92 49.54 73.77 51.14 C 72.45 52.34 69.74 50.78 70.24 49.03 C 71.15 46.12 73.01 43.63 74.16 40.81 C 66.51 42.71 61.57 50.16 53.94 52.26 C 50.42 52.87 46.99 50.53 45.65 47.33 C 42.26 42.30 40.07 36.28 35.14 32.45 C 32.08 38.45 29.32 44.58 26.80 50.82 C 26.18 50.83 24.94 50.83 24.33 50.83 C 24.03 43.18 27.08 35.75 31.77 29.82 C 34.11 26.71 37.37 24.30 39.01 20.69 C 35.82 22.09 33.85 25.10 31.50 27.51 C 25.66 33.66 20.03 40.11 13.22 45.22 C 10.81 46.75 8.12 48.75 5.11 48.22 C 1.69 47.16 1.25 43.13 1.07 40.10 C 0.79 32.52 2.73 24.89 6.24 18.20 C 9.07 14.47 11.43 9.82 16.00 7.98 C 18.89 6.53 22.71 5.26 25.58 7.48 C 28.97 9.81 28.26 14.69 26.97 18.02 C 24.48 22.69 22.22 27.64 18.63 31.59 C 18.20 31.69 17.33 31.90 16.90 32.00 C 20.37 25.86 25.74 20.31 26.55 13.01 C 27.07 8.19 20.57 7.63 17.38 9.37 C 10.53 12.88 6.37 20.20 4.43 27.42 C 3.30 32.78 1.68 38.39 3.22 43.85 C 4.64 44.00 6.16 44.47 7.50 43.71 C 19.45 38.31 27.42 27.51 36.87 18.87 C 42.21 14.05 46.79 8.38 49.91 1.87 M 127.34 5.14 C 123.88 6.01 121.41 8.59 119.28 11.28 C 116.38 13.91 115.74 17.93 114.28 21.39 C 113.15 25.68 112.02 31.10 115.29 34.74 C 118.22 35.92 122.70 37.05 124.69 33.75 C 126.61 30.64 129.39 28.00 130.51 24.45 C 132.05 19.71 134.96 15.22 134.82 10.09 C 134.39 6.85 130.64 3.51 127.34 5.14 M 54.04 17.04 C 47.97 20.09 42.14 23.86 37.52 28.88 C 39.23 30.33 40.55 32.72 43.01 32.92 C 48.38 33.62 53.62 31.69 58.51 29.69 C 63.48 27.67 68.28 24.51 70.99 19.76 C 72.15 17.80 71.01 14.77 68.83 14.12 C 63.75 13.71 58.57 14.70 54.04 17.04 M 107.69 48.30 C 110.14 47.97 112.00 46.36 113.58 44.60 C 114.23 43.62 116.32 42.46 115.06 41.16 C 111.43 41.50 108.47 44.86 107.69 48.30 Z" />
<path fill="#000000" opacity="1.00" d=" M 161.03 11.01 C 162.01 10.07 163.38 10.12 164.65 10.02 C 166.08 12.96 166.70 16.34 165.59 19.49 C 163.46 26.27 158.79 31.92 153.56 36.59 C 150.46 39.21 148.67 42.98 145.53 45.55 C 144.05 46.49 144.39 48.36 144.17 49.84 C 147.46 50.29 150.32 48.34 153.29 47.26 C 156.73 45.64 160.70 44.31 162.85 40.93 C 165.28 37.19 168.64 33.81 172.95 32.36 C 175.29 33.12 176.33 36.62 174.47 38.37 C 170.82 41.55 166.16 43.35 162.61 46.65 C 161.78 47.93 162.08 49.49 162.06 50.91 C 166.92 50.50 170.75 47.17 174.82 44.83 C 179.54 42.01 183.22 37.54 188.35 35.45 C 190.10 40.36 184.92 42.97 183.93 47.11 C 187.30 47.57 190.12 45.38 192.98 43.98 C 197.24 41.75 200.70 38.36 204.33 35.28 C 206.73 33.81 208.40 37.98 206.54 39.48 C 202.31 43.71 198.46 48.30 194.76 53.00 C 195.82 54.02 196.89 55.04 197.92 56.10 C 196.77 57.65 195.23 58.79 193.46 59.53 C 188.65 61.62 186.97 67.02 183.87 70.85 C 181.00 74.42 178.71 78.65 174.96 81.40 C 172.60 74.04 178.43 67.93 182.76 62.77 C 184.41 60.34 187.82 59.80 189.02 57.00 C 191.06 53.14 193.41 49.43 195.12 45.40 C 190.58 47.17 187.42 51.24 182.86 53.00 C 181.56 53.92 179.79 52.37 180.13 50.95 C 180.39 48.82 181.18 46.79 181.59 44.69 C 178.48 46.62 175.25 48.29 172.06 50.05 C 169.30 51.72 166.70 55.30 163.09 54.12 C 160.32 53.61 158.71 51.22 157.57 48.87 C 153.60 49.23 150.54 51.92 146.94 53.20 C 143.70 54.06 141.69 51.10 140.86 48.43 C 136.97 50.21 133.36 53.05 129.01 53.52 C 124.55 53.08 122.56 46.82 125.86 43.80 C 126.61 45.90 126.39 48.56 128.20 50.14 C 130.44 51.10 132.49 49.33 134.50 48.57 C 137.85 46.80 142.16 45.09 143.16 41.01 C 146.97 29.97 151.80 18.64 161.03 11.01 M 160.45 16.49 C 154.55 22.52 149.58 29.91 147.81 38.25 C 153.18 35.32 156.86 30.22 160.46 25.43 C 162.48 22.20 165.25 18.66 164.32 14.61 C 162.69 13.72 161.43 15.48 160.45 16.49 Z" />
<path fill="#000000" opacity="1.00" d=" M 213.91 27.91 C 215.06 24.75 216.59 21.64 218.95 19.18 C 219.57 20.31 221.22 21.35 220.56 22.83 C 219.62 25.85 217.54 28.32 216.01 31.05 C 215.23 30.05 214.53 29.01 213.91 27.91 Z" />
<path fill="#000000" opacity="1.00" d=" M 213.04 29.50 C 213.65 29.88 214.88 30.65 215.49 31.04 C 214.16 32.67 213.51 36.98 210.85 36.09 C 210.19 33.83 212.54 31.73 213.04 29.50 Z" />
<path fill="#000000" opacity="1.00" d=" M 236.35 42.19 C 239.54 40.97 242.61 39.33 246.02 38.77 C 244.83 45.02 238.58 48.65 236.95 54.74 C 242.44 54.63 248.09 52.91 252.08 49.00 C 251.91 47.20 251.75 45.40 251.68 43.60 C 256.48 42.99 256.05 49.24 253.45 51.49 C 250.19 54.36 246.50 57.52 241.93 57.68 C 237.73 57.93 233.43 56.92 229.30 58.11 C 228.03 58.36 226.74 58.87 225.43 58.63 C 223.06 57.14 222.67 53.44 224.46 51.35 C 227.04 48.79 229.93 53.82 232.69 51.84 C 235.37 50.07 237.47 47.37 238.58 44.34 C 229.95 46.71 222.22 52.14 213.12 52.88 C 211.84 53.14 209.76 51.54 211.59 50.56 C 219.94 48.13 228.22 45.36 236.35 42.19 Z" />
<path fill="#000000" opacity="1.00" d=" M 27.33 67.26 C 42.34 66.06 57.69 66.21 72.46 69.41 C 79.70 71.74 88.12 73.66 92.59 80.43 C 94.65 83.39 96.53 87.80 93.89 91.00 C 87.92 98.36 78.32 102.25 68.95 102.20 C 64.82 102.37 61.11 100.16 57.93 97.77 C 58.19 97.43 58.73 96.76 59.00 96.42 C 64.62 99.03 71.08 99.56 77.11 98.22 C 83.02 96.34 89.62 93.11 91.65 86.77 C 92.60 83.62 89.72 81.21 87.54 79.46 C 82.10 75.61 75.53 73.78 69.18 71.99 C 50.69 69.88 31.83 69.38 13.42 72.61 C 10.64 73.35 7.79 74.83 6.32 77.40 C 5.21 79.41 7.21 81.24 8.59 82.44 C 11.05 84.74 14.53 84.78 17.62 85.47 C 25.71 88.56 34.67 86.96 42.99 87.94 C 44.68 90.32 41.80 90.95 39.99 91.34 C 31.36 89.25 22.25 90.36 13.77 87.46 C 9.35 86.09 4.11 83.84 2.95 78.85 C 1.94 75.00 5.35 71.64 8.80 70.66 C 14.81 68.80 21.08 67.91 27.33 67.26 Z" />
<path fill="#000000" opacity="1.00" d=" M 59.88 80.71 C 60.78 78.16 63.06 76.50 64.97 74.73 C 65.56 76.27 66.56 77.95 65.60 79.56 C 59.94 93.43 50.90 105.52 42.60 117.86 C 40.04 118.54 38.91 115.13 37.18 113.82 C 34.73 110.53 28.97 109.56 28.95 104.81 C 33.98 105.68 37.06 110.33 41.02 113.14 C 43.97 111.76 44.91 108.20 46.66 105.67 C 51.29 97.50 58.62 90.38 59.88 80.71 Z" />
<path fill="#000000" opacity="1.00" d=" M 162.81 90.79 C 166.02 88.38 166.83 83.59 170.71 81.98 C 171.25 83.51 172.52 85.10 171.97 86.79 C 170.64 89.17 168.87 91.29 167.77 93.81 C 173.89 94.96 180.09 93.73 185.96 91.94 C 186.78 93.59 187.79 95.26 187.59 97.19 C 185.57 97.55 183.55 97.93 181.55 98.40 C 180.93 104.50 174.93 107.91 172.51 113.23 C 172.67 115.86 175.08 113.92 175.94 112.91 C 178.87 110.07 182.50 108.16 185.85 105.88 C 187.95 104.50 189.60 102.44 192.01 101.55 C 191.78 103.36 192.69 105.72 191.06 107.09 C 189.28 108.82 187.33 110.67 187.36 113.37 C 192.73 110.96 197.56 106.39 198.97 100.51 C 203.89 101.26 208.85 100.62 213.80 100.73 C 213.83 102.76 214.27 104.79 214.03 106.82 C 212.07 109.56 208.19 110.61 207.09 113.99 C 207.33 115.35 208.71 115.80 209.94 115.61 C 213.54 115.03 217.08 114.03 220.37 112.45 C 221.41 107.54 223.56 102.49 228.41 100.29 C 230.70 98.45 235.03 99.72 234.98 102.93 C 233.90 106.18 231.30 108.54 229.03 110.97 C 227.41 112.34 224.47 113.28 224.82 115.91 C 226.53 119.64 231.17 121.10 235.01 120.45 C 240.36 119.73 246.18 118.07 249.65 113.63 C 250.28 112.60 251.48 111.48 251.03 110.16 C 250.16 108.75 248.87 107.67 247.85 106.38 C 249.68 106.58 252.69 105.22 253.37 107.71 C 254.67 111.14 252.54 114.78 249.83 116.84 C 245.15 120.34 239.83 123.21 234.04 124.29 C 229.52 124.79 224.84 122.50 222.29 118.75 C 221.40 117.79 220.56 116.08 218.96 116.50 C 214.68 117.79 210.42 119.25 206.02 120.14 C 204.36 120.13 202.83 118.70 203.03 116.98 C 203.69 112.16 208.16 109.13 209.57 104.61 C 205.82 104.60 200.59 103.49 198.27 107.31 C 195.30 111.03 192.41 115.31 187.85 117.19 C 186.31 117.98 184.70 117.14 183.20 116.71 C 183.55 114.31 184.30 112.01 184.89 109.66 C 179.83 112.01 176.30 116.83 171.05 118.83 C 169.13 118.81 168.10 116.72 168.51 115.02 C 169.08 111.88 171.16 109.32 172.28 106.38 C 168.47 108.66 164.95 111.80 162.66 115.64 C 159.29 115.46 155.24 119.76 152.54 116.44 C 151.28 112.14 155.24 108.39 155.76 104.21 C 153.27 105.02 151.64 107.11 149.84 108.86 C 145.51 113.28 139.83 116.44 133.73 117.57 C 130.72 118.19 127.90 116.75 125.38 115.28 C 124.07 116.72 122.35 118.35 120.21 117.74 C 116.96 116.83 116.21 113.21 114.96 110.55 C 109.35 111.75 104.94 115.71 99.65 117.70 C 97.97 118.43 95.84 117.39 95.44 115.59 C 94.64 112.69 95.69 109.73 95.98 106.84 C 91.65 110.68 87.98 115.35 82.98 118.38 C 81.69 118.33 80.41 118.17 79.15 117.90 C 78.88 112.88 81.81 108.51 84.52 104.56 C 88.36 99.41 92.68 93.68 99.41 92.43 C 102.25 91.40 104.88 94.40 104.84 97.09 C 104.85 99.66 103.05 101.70 101.85 103.82 C 99.89 106.80 98.96 110.29 98.35 113.77 C 100.58 113.61 102.52 112.50 104.41 111.40 C 113.82 106.31 123.44 101.63 133.08 96.99 C 133.91 98.30 135.06 99.50 135.37 101.06 C 134.62 105.68 131.52 109.53 127.81 112.21 C 132.37 114.26 137.27 112.50 141.54 110.58 C 146.65 108.16 149.94 103.39 153.95 99.61 C 148.72 98.44 143.37 98.15 138.04 97.95 C 136.17 98.04 133.44 95.82 134.83 93.90 C 138.14 93.02 141.59 93.57 144.95 93.81 C 149.28 94.45 153.70 93.28 157.95 94.61 C 159.44 93.17 161.11 91.97 162.81 90.79 M 97.49 96.44 C 91.82 99.69 87.83 105.02 84.76 110.66 C 85.26 110.51 86.27 110.21 86.77 110.05 C 91.79 105.60 96.57 100.89 101.70 96.56 C 100.36 96.06 98.74 95.29 97.49 96.44 M 162.94 99.93 C 160.24 103.72 158.44 108.13 156.70 112.43 C 160.15 112.87 162.47 109.82 164.76 107.76 C 167.44 104.74 170.69 102.29 173.41 99.30 C 169.95 99.23 166.20 98.56 162.94 99.93 M 121.62 107.72 C 123.00 108.56 124.38 109.40 125.78 110.22 C 127.43 107.73 129.44 105.38 130.34 102.47 C 127.10 103.41 123.41 104.63 121.62 107.72 M 225.71 109.32 C 228.20 108.28 230.47 106.41 231.23 103.71 C 228.79 104.74 226.18 106.53 225.71 109.32 Z" />
</g>
</svg>
