<?xml version="1.0" encoding="UTF-8" ?>
<!DOCTYPE svg PUBLIC "-//W3C//DTD SVG 1.1//EN" "http://www.w3.org/Graphics/SVG/1.1/DTD/svg11.dtd">
<svg width="128pt" height="128pt" viewBox="0 0 128 128" version="1.1" xmlns="http://www.w3.org/2000/svg">
<g id="#000000ff">
<path fill="#000000" opacity="1.00" d=" M 17.96 13.90 C 21.99 11.48 26.44 9.99 30.94 8.67 C 35.57 10.30 40.73 9.46 45.22 11.58 C 49.63 13.47 54.34 15.88 56.55 20.38 C 58.15 23.59 60.05 27.18 58.97 30.87 C 57.58 37.31 51.82 41.44 46.35 44.36 C 41.55 46.65 36.48 48.85 31.09 49.01 C 28.69 49.03 28.68 52.10 27.73 53.70 C 25.14 59.37 23.44 65.42 21.00 71.11 C 17.70 68.78 14.43 66.31 11.69 63.31 C 10.53 62.48 11.07 59.48 12.74 61.13 C 15.10 62.94 17.16 65.14 19.72 66.69 C 21.65 60.99 24.56 55.67 26.55 50.00 C 25.30 48.96 23.93 48.06 22.64 47.06 C 24.21 46.81 25.82 46.77 27.35 46.34 C 28.89 45.47 29.46 43.64 30.19 42.15 C 32.74 35.99 36.28 30.31 39.44 24.47 C 39.78 24.43 40.47 24.35 40.81 24.32 C 42.17 26.63 40.92 29.21 40.51 31.60 C 39.94 31.63 38.81 31.68 38.24 31.70 C 35.72 36.43 32.83 41.02 31.17 46.14 C 38.44 45.84 45.35 42.50 50.84 37.85 C 53.90 34.89 57.22 30.71 55.79 26.17 C 53.79 19.37 47.46 14.58 40.68 13.18 C 36.65 12.45 32.39 11.19 28.37 12.54 C 21.47 14.62 14.65 17.47 8.91 21.91 C 6.52 24.08 3.79 26.59 3.48 30.00 C 3.95 34.46 7.73 37.89 11.74 39.41 C 14.49 40.58 17.59 40.00 20.37 41.01 C 21.22 43.96 17.95 43.83 15.99 43.52 C 9.54 43.18 3.35 38.79 1.20 32.68 C -0.32 28.97 2.35 25.36 4.66 22.68 C 8.58 19.08 12.91 15.76 17.96 13.90 Z" />
<path fill="#000000" opacity="1.00" d=" M 79.10 31.87 C 78.63 30.24 80.32 27.82 81.35 30.35 C 82.01 32.22 81.96 34.23 81.88 36.19 C 80.58 35.03 79.50 33.60 79.10 31.87 Z" />
<path fill="#000000" opacity="1.00" d=" M 112.65 45.66 C 115.54 44.21 118.36 42.16 121.72 42.14 C 125.01 46.96 120.10 52.17 117.29 55.94 C 118.23 56.80 119.19 57.63 120.19 58.43 C 123.20 56.97 125.21 54.15 128.00 52.35 L 128.00 56.40 C 125.57 58.92 120.84 59.81 120.67 63.89 C 119.44 70.45 116.49 76.92 111.42 81.41 C 108.57 83.94 105.15 86.88 101.07 86.42 C 95.51 84.79 95.17 77.13 98.07 73.04 C 102.68 66.76 110.71 64.75 116.63 60.05 C 114.15 58.37 111.07 58.45 108.24 58.01 C 108.40 57.30 108.73 55.88 108.90 55.17 C 113.48 52.86 118.70 50.40 120.35 45.05 C 114.92 45.61 110.38 48.98 106.17 52.18 C 102.78 54.79 101.05 59.52 96.58 60.56 C 96.83 57.19 97.51 53.87 97.99 50.52 C 92.42 52.01 89.09 56.89 84.90 60.40 C 81.52 59.73 83.90 55.50 83.80 53.22 C 80.08 55.63 76.48 58.22 72.94 60.87 C 71.48 62.05 69.52 62.00 67.78 62.34 C 67.71 59.70 68.14 57.09 68.59 54.49 C 62.70 58.64 56.59 64.12 48.89 63.63 C 46.15 56.64 55.71 53.44 55.00 46.80 C 46.93 49.11 42.85 57.44 35.74 61.25 C 34.82 58.55 37.37 56.71 39.06 55.06 C 43.70 51.37 47.48 46.58 52.72 43.65 C 55.33 41.94 58.09 44.88 58.99 47.18 C 58.90 52.61 53.58 55.59 51.72 60.28 C 57.63 59.33 62.37 55.41 67.15 52.11 C 69.90 50.32 71.91 47.68 74.15 45.33 C 74.55 45.79 75.36 46.73 75.77 47.20 C 74.90 50.25 73.45 53.11 72.79 56.22 C 78.33 53.63 82.96 49.59 87.85 46.01 C 88.96 47.56 89.37 49.45 89.86 51.26 C 93.13 49.38 96.41 47.50 99.85 45.97 C 101.57 48.03 101.09 50.86 101.43 53.33 C 105.12 50.71 108.56 47.68 112.65 45.66 M 115.40 64.21 C 110.49 66.88 105.38 69.41 101.46 73.50 C 98.78 75.39 98.27 79.94 101.07 81.97 C 102.65 83.41 105.01 82.75 106.45 81.45 C 111.45 77.35 115.91 72.08 117.52 65.67 C 118.21 63.94 116.79 62.72 115.40 64.21 Z" />
<path fill="#000000" opacity="1.00" d=" M 85.68 63.76 C 87.75 62.79 90.29 60.29 92.47 62.44 C 96.52 69.16 94.63 77.70 91.80 84.54 C 90.32 91.52 83.81 96.01 77.82 99.03 C 74.62 100.75 72.90 97.12 72.02 94.70 C 69.50 96.99 66.38 99.26 65.76 102.85 C 71.84 105.18 77.40 100.71 83.01 99.08 C 86.45 98.26 89.83 96.82 92.42 94.36 C 93.84 92.37 93.76 88.26 96.76 88.13 C 99.54 91.88 99.29 97.08 97.25 101.10 C 95.84 103.69 94.23 107.28 90.62 106.48 C 90.34 104.20 90.48 101.91 90.65 99.64 C 84.03 102.05 77.67 105.24 70.99 107.39 C 67.65 108.46 65.26 105.80 62.95 103.92 C 59.77 106.38 57.34 109.60 54.91 112.76 C 53.19 112.06 53.66 109.64 54.32 108.34 C 56.37 105.07 59.91 103.08 62.10 99.93 C 61.07 92.97 61.97 85.60 65.38 79.39 C 67.17 76.88 69.11 74.44 71.22 72.18 C 75.77 68.94 80.67 66.21 85.68 63.76 M 72.81 75.78 C 66.86 81.12 63.24 89.20 64.40 97.26 C 68.07 94.77 70.70 91.13 73.60 87.85 C 74.68 90.23 74.73 92.86 74.95 95.42 C 82.11 94.65 87.92 88.87 90.32 82.32 C 92.31 76.88 94.20 70.71 91.74 65.10 C 84.89 67.52 78.25 70.91 72.81 75.78 M 92.92 102.19 C 95.12 100.28 96.12 97.49 96.85 94.77 C 93.78 95.70 93.10 99.41 92.92 102.19 Z" />
<path fill="#000000" opacity="1.00" d=" M 24.72 86.70 C 26.25 85.89 27.80 84.27 29.60 84.46 C 33.57 87.47 30.55 94.75 25.83 95.07 C 23.32 95.19 21.60 96.74 21.75 99.38 C 26.35 99.06 31.17 96.77 32.43 91.97 C 37.71 91.66 43.02 91.31 48.31 91.61 C 48.68 93.29 47.68 94.94 45.86 94.97 C 41.89 95.64 37.78 95.05 33.85 95.87 C 32.03 99.90 27.72 101.48 23.93 103.10 C 22.17 103.75 19.64 102.61 19.52 100.58 C 19.31 98.83 19.30 97.07 19.16 95.33 C 15.70 95.39 12.02 95.30 8.88 96.99 C 7.00 99.29 10.70 102.22 8.91 104.80 C 7.02 104.99 6.95 102.97 6.50 101.66 C 5.96 99.47 5.06 96.72 6.94 94.90 C 10.16 91.17 15.49 92.00 19.87 91.86 C 22.03 90.82 22.59 87.91 24.72 86.70 M 27.43 88.16 C 26.31 88.83 25.14 89.85 24.90 91.21 C 25.92 93.45 30.26 87.84 27.43 88.16 Z" />
<path fill="#000000" opacity="1.00" d=" M 109.85 107.19 C 105.88 107.09 107.96 102.38 110.02 100.98 C 110.90 103.02 111.46 105.33 109.85 107.19 Z" />
</g>
</svg>
