<?xml version="1.0" encoding="UTF-8" ?>
<!DOCTYPE svg PUBLIC "-//W3C//DTD SVG 1.1//EN" "http://www.w3.org/Graphics/SVG/1.1/DTD/svg11.dtd">
<svg width="512pt" height="256pt" viewBox="0 0 512 256" version="1.1" xmlns="http://www.w3.org/2000/svg">
<g id="#000000ff">
<path fill="#000000" opacity="1.00" d=" M 138.13 68.10 C 142.37 64.93 147.14 62.51 152.08 60.62 C 155.65 59.98 158.17 63.34 160.52 65.48 C 163.86 68.42 162.98 73.31 162.07 77.13 C 158.27 91.29 148.96 102.98 142.96 116.16 C 147.03 112.81 150.02 108.40 153.62 104.59 C 160.36 97.45 167.82 90.49 177.10 86.91 C 179.06 86.24 181.57 86.35 182.31 88.66 C 184.38 94.20 181.41 99.90 179.67 105.11 C 181.20 104.23 182.62 103.16 183.81 101.85 C 188.00 97.33 192.75 93.40 197.53 89.54 C 199.08 88.26 201.50 86.78 203.10 88.85 C 205.46 92.30 204.39 96.96 203.71 100.80 C 202.38 107.92 195.34 112.63 194.96 120.01 C 197.65 119.34 199.46 117.17 201.59 115.58 C 207.24 111.65 212.81 107.55 217.86 102.87 C 219.03 101.55 221.63 101.20 222.51 103.00 C 221.40 108.65 215.78 112.14 215.08 117.98 C 219.49 117.45 223.30 114.70 227.74 114.45 C 229.60 109.01 233.24 104.30 237.40 100.40 C 239.23 98.50 242.38 97.64 244.64 99.32 C 246.17 102.19 244.33 105.47 241.99 107.27 C 240.62 106.56 239.27 105.81 237.91 105.08 C 235.30 109.35 230.89 113.06 231.40 118.55 C 238.13 115.62 243.33 110.21 249.78 106.76 C 255.01 104.02 260.29 100.28 266.49 100.64 C 266.87 104.98 262.41 108.41 263.99 112.84 C 264.04 115.31 266.78 116.16 268.67 114.99 C 276.32 111.57 284.56 107.31 288.16 99.25 C 291.09 92.26 294.57 85.36 299.64 79.67 C 301.34 78.23 303.31 75.74 305.80 76.97 C 307.92 77.34 309.57 79.49 308.62 81.60 C 306.88 85.28 303.96 88.26 301.64 91.57 C 296.77 96.72 290.89 101.64 288.68 108.61 C 293.25 107.67 297.22 104.59 301.99 104.29 C 304.52 105.36 303.85 108.43 303.28 110.52 C 302.29 113.62 301.98 116.88 302.13 120.12 C 307.84 118.24 312.83 114.68 317.55 111.05 C 317.39 110.08 317.06 108.15 316.89 107.19 C 318.78 107.80 320.81 108.53 322.01 110.22 C 322.58 112.97 319.09 113.87 317.50 115.48 C 313.49 117.76 311.18 122.75 306.23 123.26 C 303.40 124.49 299.29 124.19 298.41 120.66 C 297.95 116.78 298.87 112.89 298.90 108.99 C 295.05 110.03 291.14 111.40 288.14 114.13 C 286.09 115.88 284.96 118.44 282.91 120.18 C 278.64 119.46 280.97 114.60 281.35 111.85 C 276.83 114.11 272.85 117.60 267.93 118.96 C 263.09 119.78 261.02 114.51 260.04 110.77 C 257.68 113.83 255.89 117.46 252.57 119.65 C 251.44 120.74 249.75 119.81 249.02 118.73 C 249.04 115.67 250.41 112.82 251.18 109.90 C 246.96 111.83 243.30 114.75 239.92 117.89 C 237.47 120.13 234.53 122.32 231.06 122.30 C 228.58 121.94 227.96 119.33 227.34 117.33 C 223.52 119.58 219.22 120.89 214.89 121.68 C 213.31 122.04 211.68 121.25 211.04 119.76 C 210.36 117.36 211.82 115.10 212.35 112.83 C 212.03 112.69 211.40 112.41 211.08 112.27 C 205.01 115.17 201.12 121.09 195.34 124.39 C 193.46 125.85 189.88 124.42 190.12 121.89 C 190.87 113.64 196.92 107.40 199.97 100.01 C 201.14 97.37 200.94 94.39 200.15 91.68 C 196.29 94.98 191.91 97.68 188.45 101.45 C 181.81 108.23 173.77 114.30 170.27 123.44 C 169.73 125.53 167.34 124.06 166.62 122.96 C 166.42 121.12 167.06 119.34 167.68 117.65 C 170.61 110.23 175.75 103.93 178.61 96.48 C 179.50 94.28 179.25 91.88 179.05 89.57 C 173.34 90.21 169.35 94.76 164.82 97.80 C 153.81 106.87 145.53 118.64 136.65 129.68 C 135.77 131.25 133.97 130.20 132.61 130.15 C 132.99 124.75 136.35 120.35 138.77 115.72 C 145.02 104.29 152.29 93.38 157.50 81.41 C 159.03 77.04 161.79 71.66 158.50 67.43 C 156.77 65.49 154.65 63.22 152.04 62.79 C 147.39 64.68 142.52 66.34 138.63 69.65 C 135.97 72.06 132.47 73.35 130.07 76.06 C 125.32 81.06 119.36 85.89 118.15 93.08 C 117.29 99.61 124.17 104.38 130.03 104.74 C 135.58 105.20 139.20 100.11 144.23 98.74 C 144.14 101.37 141.46 102.33 139.63 103.63 C 137.20 105.03 134.80 106.78 131.94 107.12 C 126.99 106.94 122.15 104.81 118.54 101.46 C 114.81 97.28 115.24 90.78 118.33 86.36 C 123.31 78.77 130.83 73.30 138.13 68.10 M 297.35 91.66 C 299.79 89.95 301.39 87.34 302.52 84.64 C 299.98 86.22 298.00 88.71 297.35 91.66 Z" />
<path fill="#000000" opacity="1.00" d=" M 346.15 71.96 C 347.69 70.22 349.77 73.40 349.65 75.02 C 349.35 79.62 346.87 83.72 344.67 87.65 C 343.19 89.81 341.87 92.66 338.94 92.98 C 339.74 89.15 341.87 85.76 342.94 82.01 C 344.14 78.70 344.62 75.13 346.15 71.96 Z" />
<path fill="#000000" opacity="1.00" d=" M 225.15 88.76 C 224.36 85.53 226.11 82.54 229.00 81.12 C 229.92 83.07 231.54 85.26 230.43 87.49 C 229.81 89.58 226.53 90.90 225.15 88.76 Z" />
<path fill="#000000" opacity="1.00" d=" M 373.89 95.91 C 374.82 95.34 375.81 94.91 376.86 94.60 C 377.65 96.09 378.84 97.91 377.61 99.55 C 374.55 103.96 371.01 108.21 369.34 113.41 C 375.31 113.15 381.39 112.13 386.97 109.94 C 389.82 108.73 389.99 105.42 390.34 102.79 C 391.69 103.06 393.00 103.47 394.27 103.99 C 393.50 107.69 392.18 111.82 388.37 113.41 C 383.71 114.86 379.01 116.62 374.06 116.74 C 370.67 116.83 367.35 117.48 364.00 117.91 C 358.86 118.04 354.92 114.17 351.85 110.52 C 347.74 112.33 343.98 114.79 340.45 117.55 C 338.89 119.01 337.23 117.28 335.93 116.40 C 339.46 113.28 343.46 110.80 347.66 108.70 C 349.44 107.97 349.16 105.75 349.77 104.24 C 351.96 104.81 354.27 105.79 356.42 104.50 C 362.30 101.77 368.79 100.05 373.89 95.91 M 357.48 107.52 C 355.33 110.18 360.23 113.82 362.82 113.15 C 365.77 110.94 367.42 107.22 368.12 103.66 C 364.57 104.93 361.03 106.27 357.48 107.52 Z" />
<path fill="#000000" opacity="1.00" d=" M 215.69 160.70 C 219.13 151.84 222.54 142.81 227.94 134.92 C 231.77 136.95 236.39 139.37 237.28 144.05 C 237.83 147.18 235.38 149.60 234.26 152.29 C 232.01 157.74 228.68 162.78 227.61 168.66 C 224.08 169.55 220.44 169.94 216.96 171.00 C 215.73 171.32 214.89 172.32 214.42 173.45 C 211.49 179.71 209.01 186.17 206.04 192.41 C 204.95 191.73 202.55 191.76 202.75 189.99 C 204.87 183.69 208.02 177.78 210.16 171.48 C 201.90 172.33 193.59 172.87 185.40 174.32 C 183.19 179.85 181.51 185.60 178.96 190.99 C 178.42 192.79 174.89 191.97 175.63 189.99 C 176.61 184.67 179.53 179.96 180.51 174.65 C 166.80 175.93 153.02 176.63 139.27 177.56 C 131.55 178.27 123.67 179.85 117.01 184.01 C 114.02 185.80 110.26 187.89 110.12 191.84 C 111.09 193.98 112.35 195.98 113.16 198.19 C 106.49 197.37 105.03 186.79 110.99 183.98 C 116.13 181.30 120.97 177.53 126.92 176.93 C 137.79 173.86 149.18 174.27 160.33 173.14 C 166.63 172.39 173.02 172.50 179.27 171.42 C 183.65 170.26 184.21 165.23 185.71 161.68 C 187.60 156.01 190.85 150.86 192.36 145.07 C 185.98 144.15 179.75 146.26 173.57 147.47 C 163.81 149.88 154.32 153.39 145.10 157.34 C 146.58 161.59 151.66 165.43 156.22 163.37 C 159.57 161.80 162.89 160.09 166.00 158.06 C 167.82 156.98 169.20 154.04 171.69 155.26 C 171.78 155.66 171.95 156.47 172.04 156.88 C 167.48 160.28 162.41 163.02 157.25 165.41 C 151.59 168.41 145.52 163.60 142.74 158.85 C 141.31 156.05 145.07 154.73 147.07 153.99 C 161.69 149.41 176.09 143.02 191.59 142.35 C 194.17 142.28 195.39 139.75 196.82 138.01 C 197.41 138.32 198.60 138.95 199.20 139.26 C 198.17 142.93 195.99 146.11 194.59 149.63 C 191.50 156.51 188.67 163.51 186.09 170.60 C 194.59 170.57 203.05 169.53 211.46 168.40 C 213.04 165.93 214.57 163.42 215.69 160.70 M 230.23 139.72 C 224.62 148.24 221.67 158.13 217.27 167.27 C 220.13 167.96 224.18 167.15 225.11 163.97 C 227.61 158.02 231.22 152.59 233.66 146.62 C 234.68 143.78 232.87 140.83 230.23 139.72 Z" />
<path fill="#000000" opacity="1.00" d=" M 259.63 142.65 C 260.64 140.76 262.64 138.96 264.94 139.58 C 267.24 140.30 268.15 142.79 269.27 144.70 C 272.16 150.20 273.77 157.05 270.93 162.90 C 268.59 167.76 267.05 173.21 263.01 177.01 C 259.12 182.14 254.16 186.25 249.48 190.60 C 247.61 192.37 243.93 191.75 243.46 188.98 C 243.46 184.99 245.69 181.53 246.49 177.72 C 240.86 181.15 236.88 186.64 231.75 190.70 C 229.99 192.02 227.57 192.39 225.52 191.57 C 222.60 189.64 224.66 186.00 225.41 183.45 C 227.48 176.54 232.07 170.88 236.24 165.14 C 237.62 164.94 238.35 165.54 238.40 166.96 C 235.24 173.70 230.24 179.59 228.35 186.93 C 234.82 183.92 239.13 177.88 245.14 174.15 C 248.44 171.02 252.91 170.02 257.14 168.80 C 255.15 167.09 252.55 165.09 253.13 162.10 C 254.23 155.34 256.17 148.59 259.63 142.65 M 264.16 143.80 C 260.65 147.57 259.66 152.72 258.45 157.53 C 257.98 159.71 256.56 162.01 257.71 164.21 C 258.44 165.36 259.90 165.56 261.03 166.13 C 260.78 167.16 260.53 168.19 260.30 169.22 C 264.85 169.74 266.49 165.16 267.66 161.66 C 269.61 155.90 268.70 149.43 265.66 144.23 C 265.28 144.12 264.53 143.90 264.16 143.80 M 248.24 184.91 C 253.02 182.68 257.03 178.71 259.52 174.07 C 254.36 175.74 249.98 179.72 248.24 184.91 Z" />
<path fill="#000000" opacity="1.00" d=" M 372.26 146.14 C 373.79 145.94 374.78 147.26 375.64 148.32 C 375.48 150.41 374.41 152.28 373.81 154.26 C 380.39 154.41 386.97 153.30 393.24 151.31 C 395.37 150.14 396.56 152.79 397.87 153.99 C 394.33 156.76 389.67 156.64 385.49 157.63 C 381.16 158.71 376.48 157.54 372.30 159.26 C 368.09 163.60 365.08 169.05 363.91 174.99 C 363.49 176.44 364.27 178.44 366.09 177.77 C 371.85 176.48 378.49 174.18 380.95 168.28 C 382.03 169.03 382.92 169.96 383.61 171.05 C 382.70 175.91 377.31 177.36 373.67 179.73 C 370.50 182.04 366.34 182.18 362.64 181.33 C 360.30 180.07 360.53 176.92 359.72 174.72 C 354.09 177.63 349.96 182.99 343.84 185.01 C 341.47 185.74 337.98 185.51 337.00 182.79 C 336.28 180.26 336.62 177.60 336.51 175.01 C 331.60 177.23 327.67 181.18 323.87 184.90 C 322.91 184.03 320.68 183.54 321.16 181.85 C 321.78 175.75 326.26 170.95 327.21 164.92 C 322.82 163.94 318.33 165.40 314.55 167.61 C 313.74 170.68 315.25 173.88 314.34 176.96 C 313.69 179.99 311.11 181.97 308.99 183.99 C 307.65 185.67 304.12 185.20 303.86 182.85 C 303.61 178.55 306.32 174.85 307.25 170.77 C 298.74 174.66 291.56 180.92 283.61 185.78 C 282.32 186.92 280.68 186.40 279.20 186.10 C 278.85 183.56 278.83 180.99 278.82 178.43 C 276.40 179.25 274.35 180.80 272.00 181.76 C 270.17 181.70 270.40 179.67 269.99 178.39 C 274.10 177.11 277.75 174.74 281.00 171.96 C 283.28 168.29 285.33 164.45 288.04 161.04 C 290.68 161.88 292.26 164.81 290.13 167.06 C 286.49 171.29 282.43 175.70 282.27 181.67 C 286.66 180.38 289.93 176.95 294.08 175.15 C 299.76 171.91 306.21 169.57 310.73 164.68 C 314.91 162.81 319.39 161.22 324.00 160.94 C 326.31 160.96 329.67 161.27 330.21 164.08 C 330.80 168.51 328.40 172.62 327.32 176.80 C 332.20 173.99 336.50 170.26 340.29 166.11 C 341.93 165.39 343.63 167.29 342.88 168.88 C 341.62 173.01 339.97 177.07 339.86 181.46 C 347.25 181.06 352.51 175.21 357.96 170.92 C 361.66 168.20 363.53 163.84 364.33 159.45 C 359.50 159.82 354.70 160.57 349.97 161.66 C 347.90 162.66 346.52 159.64 348.21 158.38 C 353.62 154.85 360.63 156.83 366.44 154.54 C 368.38 151.75 369.43 148.25 372.26 146.14 Z" />
<path fill="#000000" opacity="1.00" d=" M 240.93 157.36 C 241.06 155.53 241.31 153.72 241.74 151.94 C 243.75 152.47 245.15 153.72 245.30 155.87 C 243.92 156.60 242.49 157.22 240.93 157.36 Z" />
</g>
</svg>
