<?xml version="1.0" encoding="UTF-8" ?>
<!DOCTYPE svg PUBLIC "-//W3C//DTD SVG 1.1//EN" "http://www.w3.org/Graphics/SVG/1.1/DTD/svg11.dtd">
<svg width="256pt" height="256pt" viewBox="0 0 256 256" version="1.1" xmlns="http://www.w3.org/2000/svg">
<g id="#000000ff">
<path fill="#000000" opacity="1.00" d=" M 242.57 44.61 C 244.89 43.37 248.01 44.47 249.24 46.75 C 251.56 50.83 253.43 55.27 254.06 59.95 C 255.49 72.40 254.04 85.12 250.08 97.00 C 247.77 103.79 245.89 110.83 242.10 117.00 C 241.17 118.24 239.84 119.83 238.09 119.48 C 236.47 118.72 235.87 116.83 234.73 115.56 C 232.08 119.04 229.84 122.80 227.38 126.40 C 226.69 127.31 225.55 128.84 224.25 128.01 C 222.57 127.16 221.88 125.22 220.69 123.87 C 219.17 128.46 218.09 133.28 215.22 137.27 C 214.11 136.58 212.73 136.08 212.25 134.76 C 210.10 130.17 211.55 124.97 211.64 120.14 C 205.74 124.79 202.97 131.95 199.16 138.18 C 197.46 140.86 195.98 144.02 193.01 145.51 C 190.37 144.64 189.41 141.82 187.81 139.83 C 185.55 142.37 184.30 145.60 182.40 148.39 C 177.12 145.76 179.06 138.72 178.04 133.99 C 175.72 137.74 174.50 142.17 171.40 145.43 C 170.01 147.15 167.92 148.64 167.80 151.05 C 167.35 154.21 167.50 158.73 163.89 160.06 C 161.46 159.51 158.71 157.66 158.43 155.03 C 159.40 151.59 163.17 150.09 164.57 146.98 C 164.42 144.21 163.52 141.54 162.67 138.92 C 161.26 139.38 160.65 140.76 159.97 141.94 C 155.93 149.50 151.40 156.79 147.40 164.38 C 146.09 166.76 144.28 169.79 141.21 169.83 C 139.37 168.77 138.22 166.89 136.89 165.30 C 135.15 167.90 133.85 171.02 130.99 172.63 C 126.32 170.12 128.03 163.70 125.15 159.86 C 120.55 166.42 117.14 173.93 116.02 181.91 C 115.92 183.94 112.86 182.89 112.80 181.27 C 111.88 176.31 111.80 171.25 111.03 166.27 C 105.60 172.94 102.54 181.62 102.03 190.21 C 100.86 189.62 99.19 189.34 99.08 187.74 C 97.85 182.69 96.90 177.56 96.29 172.40 C 96.06 170.56 95.61 168.74 94.68 167.12 C 91.41 167.56 88.99 170.59 87.09 173.09 C 85.52 175.05 87.05 177.30 87.69 179.29 C 90.15 185.40 89.77 192.47 86.96 198.39 C 83.39 197.94 82.59 193.99 82.12 191.04 C 81.37 184.96 81.70 178.72 82.99 172.73 C 83.74 169.19 87.59 168.13 90.07 166.08 C 91.86 164.83 94.22 162.56 96.32 164.62 C 99.95 168.67 98.77 174.66 100.20 179.58 C 102.41 178.33 102.41 175.47 103.52 173.42 C 105.44 169.44 107.63 165.52 110.35 162.04 C 111.38 160.68 113.60 161.70 113.60 163.34 C 114.44 166.44 114.22 169.70 114.80 172.85 C 118.21 166.58 120.66 159.40 126.08 154.52 C 126.44 154.73 127.17 155.13 127.53 155.34 C 129.33 159.40 128.84 164.17 131.03 168.15 C 134.57 163.81 137.65 158.77 138.24 153.08 C 138.70 149.74 140.70 145.13 144.78 145.73 C 145.83 153.17 136.99 159.03 140.94 166.53 C 144.15 164.42 145.81 160.88 147.70 157.68 C 152.51 148.84 158.41 140.56 162.33 131.27 C 166.42 125.97 172.91 123.19 177.48 118.42 C 178.58 114.50 176.65 110.48 176.61 106.50 C 177.39 106.49 178.94 106.48 179.71 106.47 C 180.57 109.55 181.25 112.70 182.32 115.72 C 189.28 111.65 196.05 107.25 203.09 103.33 C 206.13 102.92 205.25 106.53 203.38 107.45 C 196.25 112.06 188.53 115.84 181.87 121.14 C 181.30 127.80 181.17 134.61 182.35 141.22 C 185.11 138.12 187.83 134.36 187.41 129.98 C 187.34 125.87 187.64 120.82 191.49 118.37 C 193.25 116.52 195.91 119.19 195.69 121.21 C 195.61 125.94 192.44 129.83 190.83 134.11 C 189.95 136.68 191.43 139.20 192.28 141.56 C 199.83 133.80 203.21 122.72 211.65 115.67 C 214.49 113.44 216.95 110.63 220.17 108.93 C 221.43 108.08 223.56 109.51 223.45 111.01 C 223.55 114.90 222.29 119.10 224.43 122.68 C 224.73 122.64 225.32 122.58 225.62 122.55 C 230.55 116.07 235.77 109.69 239.32 102.30 C 240.88 98.66 245.26 98.09 247.56 95.15 C 244.34 94.11 240.61 93.48 238.56 90.47 C 231.84 81.53 231.89 69.64 233.31 59.04 C 233.92 53.12 237.41 47.60 242.57 44.61 M 243.45 48.30 C 240.39 50.26 237.64 53.17 236.90 56.84 C 235.31 64.76 235.18 73.04 237.12 80.91 C 238.07 84.45 239.88 87.97 242.86 90.20 C 245.02 91.73 247.92 90.00 248.71 87.74 C 251.96 79.65 252.69 70.70 251.56 62.09 C 250.94 57.54 250.28 52.49 246.86 49.10 C 245.97 48.46 244.47 47.39 243.45 48.30 M 238.85 113.37 C 241.41 111.62 242.53 108.63 243.34 105.77 C 240.75 107.51 239.47 110.42 238.85 113.37 M 214.98 129.64 C 217.56 125.15 218.18 119.90 219.05 114.89 C 214.93 118.46 213.52 124.47 214.98 129.64 M 165.30 134.29 C 165.10 137.30 166.02 140.36 166.85 143.24 C 167.15 143.44 167.74 143.83 168.04 144.03 C 173.53 139.06 175.32 131.35 177.15 124.45 C 172.57 126.80 168.42 130.19 165.30 134.29 M 85.00 181.43 C 84.39 184.68 84.86 187.99 85.85 191.11 C 86.45 188.00 87.42 183.88 85.00 181.43 Z" />
<path fill="#000000" opacity="1.00" d=" M 185.11 59.04 C 185.60 59.06 186.59 59.11 187.08 59.13 C 187.82 65.64 184.79 71.60 183.53 77.82 C 183.16 77.76 182.44 77.63 182.08 77.57 C 183.12 71.40 184.93 65.34 185.11 59.04 Z" />
<path fill="#000000" opacity="1.00" d=" M 209.36 69.36 C 212.14 66.83 214.48 63.62 217.94 61.99 C 221.52 68.83 223.31 77.51 220.73 84.98 C 218.14 85.07 215.53 84.22 214.30 81.76 C 215.91 81.71 217.51 81.69 219.13 81.70 C 219.53 76.55 219.25 71.15 216.94 66.44 L 216.03 66.25 C 209.85 72.44 202.67 78.13 198.72 86.10 C 197.92 85.50 197.25 84.80 196.70 83.98 C 199.84 78.28 204.96 74.05 209.36 69.36 Z" />
<path fill="#000000" opacity="1.00" d=" M 167.34 85.10 C 168.78 83.79 171.17 84.47 171.75 86.31 C 173.27 90.04 173.70 94.10 175.10 97.88 C 177.97 95.91 179.40 92.61 180.41 89.41 C 181.02 87.70 180.86 85.57 182.50 84.41 C 183.86 88.96 181.85 93.63 179.40 97.41 C 178.20 98.94 176.73 101.24 174.45 100.62 C 170.75 97.64 170.88 92.38 169.59 88.19 C 169.20 87.96 168.41 87.52 168.02 87.30 C 161.77 92.71 159.32 100.93 155.70 108.08 C 155.27 108.17 154.40 108.35 153.97 108.44 C 152.59 105.36 152.81 101.92 152.03 98.70 C 150.47 98.65 150.23 100.60 149.50 101.60 C 147.19 106.16 145.20 111.09 141.62 114.82 C 141.22 114.98 140.42 115.30 140.02 115.46 C 138.17 113.40 137.40 110.70 136.16 108.28 C 133.98 112.46 133.52 117.64 130.11 121.10 C 129.10 122.30 127.23 121.77 126.77 120.34 C 125.65 116.48 126.64 112.45 127.03 108.56 C 121.04 115.12 118.18 124.48 110.32 129.36 C 108.21 130.79 105.70 128.92 105.42 126.66 C 104.52 121.62 106.08 116.56 105.70 111.50 C 104.73 112.38 103.91 113.44 103.60 114.74 C 101.89 120.17 100.78 125.87 97.86 130.83 C 96.19 133.60 94.81 136.79 91.95 138.55 C 90.74 138.19 89.55 137.79 88.37 137.35 C 86.75 139.48 84.12 142.17 81.48 139.73 C 76.50 134.85 79.07 127.17 78.10 121.03 C 74.10 130.17 73.03 140.70 66.81 148.81 C 65.72 150.21 63.45 151.76 61.88 150.13 C 58.60 146.24 58.84 140.86 57.94 136.13 C 55.92 135.16 53.12 135.35 52.11 132.96 C 54.15 133.03 56.19 133.17 58.22 133.30 C 59.34 129.63 59.93 125.52 62.72 122.67 C 63.92 121.29 66.51 121.33 67.36 123.07 C 67.40 126.76 65.26 130.15 62.63 132.60 C 61.13 133.94 60.12 135.88 60.41 137.93 C 60.70 141.36 61.16 145.00 63.20 147.89 C 64.90 148.35 65.69 146.67 66.54 145.56 C 69.66 140.80 71.14 135.23 72.97 129.90 C 74.32 125.50 76.03 121.20 76.91 116.67 C 72.76 117.89 68.57 119.55 64.15 118.70 C 64.11 118.16 64.02 117.08 63.98 116.54 C 67.99 116.10 71.97 115.19 75.72 113.69 C 79.01 112.74 77.69 108.41 80.08 106.46 C 80.73 108.22 81.18 110.05 81.79 111.83 C 90.06 109.03 97.83 104.49 106.53 103.16 C 104.77 105.51 101.73 106.09 99.22 107.34 C 93.73 109.84 88.06 111.94 82.64 114.58 C 80.56 115.53 81.26 118.13 81.00 119.94 C 80.97 126.10 79.46 133.00 83.29 138.41 C 86.10 137.13 88.64 134.39 88.14 131.09 C 87.42 125.85 88.10 119.69 92.34 116.05 C 93.74 114.51 95.09 116.02 96.05 117.17 C 96.66 123.73 91.14 128.86 91.17 135.22 C 93.64 134.00 94.95 131.49 96.20 129.17 C 98.97 123.82 100.49 117.96 102.31 112.25 C 103.10 109.66 105.89 108.64 108.33 108.31 C 109.23 114.70 106.60 121.17 108.42 127.47 C 112.86 125.47 115.94 121.45 118.50 117.46 C 123.10 110.23 127.93 103.06 134.13 97.10 C 135.12 95.83 136.65 95.44 138.20 95.61 C 136.05 98.98 132.78 101.56 131.10 105.25 C 129.19 109.15 128.81 113.60 128.95 117.89 C 131.75 115.53 132.15 111.69 133.48 108.49 C 134.76 105.43 135.39 102.11 136.96 99.19 C 137.32 99.45 138.03 99.98 138.39 100.24 C 138.78 103.79 138.63 107.52 140.25 110.81 C 141.97 111.41 142.62 109.53 143.48 108.45 C 147.01 102.80 149.14 95.97 154.33 91.54 C 155.05 94.73 154.90 98.04 155.68 101.22 C 159.38 95.75 161.80 89.06 167.34 85.10 M 90.40 127.66 C 92.68 125.22 93.57 121.85 93.76 118.59 C 90.23 119.97 90.42 124.53 90.40 127.66 M 60.82 131.54 C 63.38 129.64 65.44 126.88 65.41 123.56 C 62.20 124.87 61.49 128.53 60.82 131.54 Z" />
<path fill="#000000" opacity="1.00" d=" M 15.70 125.68 C 18.69 118.02 27.18 115.32 34.16 112.53 C 35.46 114.93 36.02 117.63 36.80 120.22 C 38.35 125.94 40.78 131.40 41.87 137.25 C 42.83 141.38 43.04 145.75 44.88 149.64 C 46.21 137.74 47.28 125.49 52.48 114.50 C 53.11 113.58 53.92 112.82 54.91 112.24 C 52.49 119.19 49.85 126.11 48.66 133.41 C 47.08 141.03 47.50 148.90 46.04 156.52 C 44.87 156.17 44.12 155.41 43.79 154.27 C 41.31 148.08 41.04 141.33 39.21 134.97 C 37.36 128.33 35.42 121.70 32.98 115.26 C 26.48 117.44 18.74 120.36 16.61 127.65 C 16.05 130.72 14.50 134.11 15.79 137.15 C 19.41 139.07 22.86 136.54 25.71 134.50 C 25.13 139.79 17.00 142.07 14.03 137.76 C 13.16 133.74 14.58 129.54 15.70 125.68 Z" />
<path fill="#000000" opacity="1.00" d=" M 64.16 160.05 C 64.02 158.61 64.66 157.67 66.05 157.20 C 69.10 159.91 69.77 164.15 70.31 167.97 C 71.13 173.85 68.56 179.43 68.27 185.23 C 67.91 191.46 68.48 197.70 68.67 203.93 C 68.64 206.87 70.04 210.18 68.08 212.79 C 65.61 212.55 65.72 209.84 65.58 207.98 C 65.32 200.93 65.03 193.88 64.48 186.85 C 60.56 188.42 56.73 190.21 52.87 191.91 C 50.30 193.08 47.38 193.56 45.10 195.31 C 44.18 202.22 47.23 208.95 46.74 215.89 C 45.62 215.20 43.96 214.84 43.87 213.25 C 42.85 207.75 42.60 202.12 41.33 196.66 C 35.18 198.44 29.28 200.95 23.37 203.38 C 15.11 207.19 6.27 210.58 0.00 217.47 L 0.00 213.36 C 8.28 206.04 18.84 202.17 28.92 198.03 C 32.95 196.24 37.46 195.45 41.12 192.91 C 40.76 185.05 39.45 177.24 38.25 169.46 C 31.46 172.29 24.78 175.37 17.93 178.06 C 12.04 180.16 6.46 184.04 4.13 190.08 C 6.35 192.17 10.41 195.04 13.12 192.30 C 15.33 190.20 17.06 187.65 19.32 185.60 C 18.43 190.42 14.63 197.56 8.69 195.20 C 6.07 194.00 0.75 193.09 2.00 189.20 C 3.47 183.29 8.85 179.44 14.12 177.07 C 20.90 174.25 27.67 171.40 34.33 168.30 C 36.80 167.21 38.31 164.88 40.19 163.06 C 41.30 164.06 41.71 165.50 41.66 166.96 C 41.92 175.22 43.47 183.36 44.48 191.55 C 50.23 190.09 55.77 187.80 60.95 184.91 C 63.13 183.73 65.08 181.59 64.97 178.95 C 64.86 172.65 64.09 166.36 64.16 160.05 Z" />
<path fill="#000000" opacity="1.00" d=" M 0.00 230.12 C 2.29 228.33 2.56 233.14 0.00 232.14 L 0.00 230.12 Z" />
</g>
</svg>
