<?xml version="1.0" encoding="UTF-8" ?>
<!DOCTYPE svg PUBLIC "-//W3C//DTD SVG 1.1//EN" "http://www.w3.org/Graphics/SVG/1.1/DTD/svg11.dtd">
<svg width="512pt" height="256pt" viewBox="0 0 512 256" version="1.1" xmlns="http://www.w3.org/2000/svg">
<g id="#000000ff">
<path fill="#000000" opacity="1.00" d=" M 141.61 60.61 C 144.57 57.89 146.06 54.03 148.75 51.08 C 150.05 52.63 152.53 54.20 151.53 56.56 C 148.04 65.64 144.11 74.62 138.82 82.81 C 134.35 89.73 130.03 96.74 125.46 103.59 C 132.77 101.49 140.09 99.42 147.51 97.76 C 149.47 94.45 151.29 90.35 155.18 88.98 C 158.10 88.17 159.81 91.08 160.70 93.37 C 158.43 94.48 155.60 94.81 153.94 96.90 C 152.35 98.84 151.40 101.19 150.33 103.43 C 157.58 101.34 163.32 96.28 170.03 93.06 C 175.21 90.51 180.63 88.46 185.68 85.66 C 187.70 84.63 188.68 82.49 189.96 80.74 C 192.09 82.25 194.22 84.22 194.38 87.02 C 194.63 93.70 189.16 98.76 188.78 105.32 C 194.84 105.50 200.91 104.67 206.90 103.79 C 210.59 103.34 211.94 99.45 213.82 96.80 C 216.45 92.05 220.70 87.97 226.02 86.51 C 228.53 86.57 230.22 89.00 231.18 91.06 C 229.67 96.40 230.38 102.01 230.35 107.50 C 233.74 106.46 236.74 104.52 239.81 102.80 C 244.16 100.23 248.84 98.07 252.44 94.44 C 255.33 91.62 259.31 89.95 261.51 86.45 C 262.18 85.32 263.23 84.02 262.32 82.71 C 257.68 82.46 253.00 82.39 248.44 81.39 C 245.28 80.30 244.71 76.22 245.82 73.46 C 249.07 74.66 252.39 76.19 255.93 75.29 C 259.92 74.50 265.04 76.73 268.00 72.97 C 271.93 67.62 273.82 60.34 280.07 57.00 C 281.18 58.63 282.45 60.26 282.81 62.26 C 283.88 66.11 281.77 69.82 280.85 73.47 C 284.31 74.47 287.99 74.26 291.43 73.28 C 295.59 72.08 299.81 73.76 304.00 73.91 C 304.36 74.96 304.71 76.00 305.06 77.05 C 303.43 77.82 301.79 78.69 299.96 78.85 C 291.78 79.81 283.56 80.37 275.39 81.41 C 272.76 82.49 271.24 85.29 268.99 86.99 C 264.01 90.63 262.85 97.24 261.55 102.89 C 268.86 102.48 275.39 98.00 282.89 98.64 C 282.57 99.34 281.95 100.74 281.63 101.44 C 275.65 105.24 269.54 110.17 262.06 109.99 C 260.11 110.14 258.06 108.94 257.84 106.88 C 257.32 103.57 257.70 100.19 257.54 96.86 C 250.07 101.95 243.06 107.79 235.03 112.01 C 233.26 112.93 231.25 113.78 229.23 113.15 C 226.68 110.58 227.03 106.64 226.13 103.38 C 221.03 107.26 217.20 114.16 210.09 114.29 C 209.11 111.83 209.10 109.13 208.60 106.56 C 202.54 108.46 196.45 110.63 190.08 111.13 C 185.42 110.71 184.52 104.95 185.26 101.25 C 186.04 96.41 189.99 92.51 189.57 87.47 C 182.44 91.36 174.87 94.52 168.22 99.24 C 162.23 103.27 156.70 108.19 149.92 110.86 C 146.39 108.34 146.25 103.49 146.80 99.58 C 138.89 103.03 130.53 105.28 122.54 108.51 C 118.36 110.89 116.36 116.64 111.06 117.22 C 108.27 116.74 106.42 114.22 104.93 112.01 C 102.46 107.54 101.20 102.54 99.47 97.77 C 83.66 105.75 68.15 114.72 51.10 119.86 C 47.42 120.87 43.31 121.72 39.64 120.26 C 35.49 118.24 34.31 113.21 34.43 108.98 C 34.57 102.58 38.18 96.93 42.23 92.22 C 45.08 89.09 47.20 85.20 50.86 82.89 C 56.14 79.38 62.45 76.81 68.89 77.25 C 73.04 77.48 76.79 80.87 77.18 85.03 C 76.61 90.12 73.27 94.38 69.39 97.50 C 68.55 96.36 67.72 95.20 66.91 94.04 C 69.77 91.07 72.15 87.68 73.78 83.88 C 70.96 80.68 66.59 82.12 63.04 82.95 C 50.41 86.47 41.27 98.30 39.11 110.95 C 38.68 113.67 41.54 115.48 43.98 115.23 C 51.36 114.65 58.07 111.33 65.00 109.05 C 71.88 106.71 77.91 102.49 84.58 99.67 C 89.33 98.22 94.00 96.13 97.80 92.87 C 97.40 90.93 96.65 89.09 96.31 87.14 C 98.31 87.91 100.10 89.12 102.10 89.90 C 105.76 88.68 108.52 85.77 111.72 83.71 C 121.80 76.17 132.51 69.37 141.61 60.61 M 129.30 75.32 C 121.48 82.18 112.93 88.16 104.59 94.35 C 106.94 97.94 109.51 101.52 112.79 104.33 C 114.77 106.23 117.51 104.75 118.91 102.91 C 122.93 98.11 126.14 92.72 129.49 87.46 C 134.72 80.50 139.08 72.78 141.97 64.56 C 137.61 68.00 132.94 71.07 129.30 75.32 M 273.55 75.14 C 276.32 73.13 278.72 70.23 278.53 66.59 C 276.23 69.01 274.73 72.05 273.55 75.14 M 218.23 100.64 C 222.61 100.62 225.62 97.01 227.08 93.25 C 223.08 94.02 219.80 96.93 218.23 100.64 M 105.08 101.82 C 105.98 105.45 107.26 109.06 109.73 111.93 C 110.94 111.08 112.13 110.21 113.32 109.32 C 110.82 106.56 108.23 103.84 105.08 101.82 Z" />
<path fill="#000000" opacity="1.00" d=" M 323.99 83.02 C 326.98 76.16 330.78 69.56 336.12 64.25 C 340.71 67.22 340.34 73.71 338.02 78.00 C 335.85 81.72 334.27 86.06 330.61 88.64 C 326.80 91.41 323.44 94.94 321.56 99.32 C 325.24 98.45 328.70 96.92 332.10 95.29 C 334.73 98.22 335.36 102.01 334.57 105.79 C 343.03 102.30 351.18 98.12 359.50 94.31 C 360.82 93.55 362.35 93.58 363.83 93.53 C 364.43 95.88 365.72 98.73 363.91 100.89 C 361.71 103.87 360.40 107.37 359.68 110.99 C 365.36 109.67 370.65 106.90 374.90 102.88 C 378.54 99.34 383.41 97.14 386.19 92.73 C 388.54 94.70 389.50 97.57 390.39 100.39 C 395.94 99.08 401.28 96.92 406.94 96.06 C 408.82 95.55 409.37 97.72 410.07 98.96 C 411.39 101.44 410.18 104.27 410.63 106.90 C 412.53 108.68 415.36 108.63 417.66 109.63 C 415.45 111.69 412.74 113.18 409.83 113.99 C 408.55 114.49 406.96 113.80 406.45 112.53 C 405.13 109.20 405.95 105.54 405.74 102.07 C 398.65 104.31 391.50 106.99 385.58 111.61 C 384.16 112.67 382.60 113.50 381.03 114.31 C 378.82 111.83 379.47 108.63 379.76 105.64 C 372.71 109.32 366.54 115.93 358.15 116.29 C 355.29 112.61 354.96 107.47 356.14 103.08 C 352.55 104.40 348.78 105.40 345.55 107.52 C 341.70 110.08 337.58 112.43 333.05 113.49 C 328.08 113.06 330.04 106.84 329.50 103.51 C 323.70 105.13 319.66 110.30 313.67 111.42 C 312.65 108.22 313.44 104.91 313.66 101.66 C 306.77 106.11 299.98 111.19 291.88 113.20 C 289.17 113.96 286.18 112.35 285.55 109.56 C 282.61 101.21 288.97 92.06 297.01 89.70 C 299.49 89.98 300.77 92.37 301.63 94.44 C 302.83 96.29 300.71 97.83 299.96 99.39 C 299.01 98.36 298.08 97.32 297.13 96.30 C 293.45 98.21 288.60 101.33 288.81 105.92 C 294.24 105.09 299.14 102.40 304.01 99.99 C 311.60 95.67 320.11 91.34 323.99 83.02 Z" />
<path fill="#000000" opacity="1.00" d=" M 378.03 65.36 C 379.18 66.05 380.74 66.51 380.92 68.07 C 382.06 71.79 382.62 75.66 383.20 79.50 C 377.39 77.87 376.69 70.38 378.03 65.36 Z" />
<path fill="#000000" opacity="1.00" d=" M 425.78 97.81 C 430.89 92.42 436.99 86.62 444.75 86.17 C 448.20 88.82 450.01 93.40 450.60 97.58 C 447.97 101.69 445.46 105.89 443.39 110.32 C 442.53 113.39 443.15 117.17 440.55 119.51 C 437.64 122.34 435.03 125.48 433.12 129.07 C 429.07 136.55 424.67 143.83 419.83 150.82 C 417.50 154.06 415.50 157.75 411.92 159.79 C 408.94 157.10 406.96 153.10 407.71 149.01 C 407.92 142.54 411.27 136.86 414.51 131.47 C 418.03 125.96 423.72 122.40 429.31 119.28 C 433.47 116.93 437.29 113.05 437.63 108.03 C 433.30 110.42 429.26 113.84 424.01 113.72 C 422.58 111.74 421.13 109.75 419.36 108.06 C 421.98 104.94 422.92 100.76 425.78 97.81 M 426.69 105.25 C 428.15 104.96 429.75 104.89 430.97 103.90 C 434.88 101.20 438.91 98.63 442.64 95.67 C 444.01 94.81 444.21 93.15 444.70 91.75 C 436.89 92.96 430.96 99.02 426.69 105.25 M 413.79 143.65 C 412.64 145.37 412.44 147.43 412.57 149.44 C 417.81 143.63 422.33 137.04 425.19 129.72 C 419.06 132.02 416.80 138.44 413.79 143.65 Z" />
<path fill="#000000" opacity="1.00" d=" M 207.46 130.66 C 214.32 130.45 221.17 129.03 228.02 130.14 C 231.91 130.94 235.87 129.33 239.71 130.44 C 243.77 131.79 248.23 130.97 252.14 132.88 C 260.26 135.50 268.54 139.23 273.63 146.41 C 276.60 150.40 278.50 155.75 276.76 160.65 C 273.26 171.26 263.82 178.74 253.77 182.82 C 248.48 184.71 242.41 186.46 237.03 183.89 C 235.61 182.50 234.97 180.54 233.93 178.89 C 230.80 187.47 227.92 196.15 224.80 204.74 C 224.36 206.14 223.04 206.94 222.04 207.91 C 219.58 205.41 217.96 201.95 214.69 200.35 C 211.82 198.91 208.92 197.43 206.44 195.36 C 206.19 193.58 205.92 191.05 208.00 190.27 C 213.50 192.62 218.35 196.46 222.41 200.83 C 228.04 185.45 233.52 170.00 238.46 154.38 C 239.99 150.52 240.96 146.17 244.01 143.16 C 245.57 146.15 244.90 149.46 243.19 152.21 C 239.64 158.84 237.90 166.19 235.27 173.19 C 234.43 175.08 236.88 176.01 237.99 177.02 C 242.27 180.12 247.75 178.43 252.41 177.33 C 259.87 175.65 265.71 170.19 270.46 164.47 C 273.61 160.34 272.03 154.66 269.11 150.87 C 267.03 147.21 262.99 145.64 259.81 143.17 C 254.89 139.51 248.72 138.42 242.87 137.13 C 232.17 134.84 221.07 134.85 210.25 136.16 C 201.32 137.40 192.36 140.51 185.49 146.50 C 181.94 149.91 178.97 154.87 179.61 159.92 C 182.32 165.59 187.94 169.53 193.97 171.01 C 201.50 172.82 209.34 173.32 217.06 172.68 C 219.00 172.56 220.98 172.29 222.88 172.81 C 223.44 174.01 223.76 175.30 224.11 176.57 C 215.47 180.36 205.65 180.42 196.60 178.11 C 187.73 177.09 178.28 172.07 175.79 162.91 C 174.24 154.08 179.53 145.51 185.77 139.69 C 192.44 135.55 199.99 132.96 207.46 130.66 Z" />
<path fill="#000000" opacity="1.00" d=" M 339.22 160.23 C 340.36 159.87 341.14 160.26 341.57 161.41 C 343.23 163.30 341.32 165.61 341.12 167.68 C 352.47 168.14 363.82 166.27 374.97 164.44 C 378.17 164.89 378.12 169.29 375.51 170.50 C 369.44 172.84 362.88 173.27 356.45 173.55 C 350.41 175.20 344.07 173.82 337.99 175.00 C 335.79 177.75 334.97 181.28 333.39 184.37 C 331.17 189.38 327.90 194.07 327.17 199.62 C 330.43 198.69 332.30 194.88 335.95 195.25 C 336.82 199.37 334.37 203.92 330.37 205.37 C 327.52 206.61 323.21 209.47 320.96 205.81 C 320.48 201.62 321.84 197.29 323.53 193.46 C 326.95 187.79 329.64 181.73 332.31 175.68 C 326.14 175.34 319.83 174.84 313.75 176.19 C 314.58 178.60 315.86 180.85 316.61 183.29 C 317.46 187.59 315.09 191.58 313.28 195.30 C 309.99 201.80 305.15 208.15 297.77 210.09 C 296.11 206.99 293.98 203.25 295.58 199.69 C 296.60 199.28 297.65 198.93 298.71 198.65 C 299.42 200.06 300.08 201.50 300.75 202.94 C 306.94 199.24 310.37 192.32 311.59 185.41 C 306.18 185.71 300.67 185.77 295.48 187.54 C 290.46 189.22 285.16 189.30 279.98 189.97 C 278.06 192.33 277.53 195.44 276.10 198.08 C 274.06 202.90 269.95 206.89 265.03 208.65 C 261.96 208.30 261.20 204.64 261.99 202.13 C 263.82 195.73 267.10 189.59 272.12 185.12 C 275.15 182.10 277.86 177.34 282.78 177.71 C 285.80 178.75 285.34 182.15 284.70 184.60 C 292.49 183.87 300.01 181.62 307.72 180.43 C 309.26 180.29 310.46 179.26 311.62 178.33 C 309.56 177.11 307.37 176.15 305.23 175.10 C 305.42 172.91 305.87 170.02 308.38 169.36 C 317.19 167.63 326.23 168.67 335.15 168.30 C 336.52 165.62 337.19 162.53 339.22 160.23 M 266.71 200.35 C 270.78 197.51 274.14 193.37 275.39 188.51 C 270.49 190.28 268.71 195.99 266.71 200.35 Z" />
</g>
</svg>
