<?xml version="1.0" encoding="UTF-8" ?>
<!DOCTYPE svg PUBLIC "-//W3C//DTD SVG 1.1//EN" "http://www.w3.org/Graphics/SVG/1.1/DTD/svg11.dtd">
<svg width="256pt" height="128pt" viewBox="0 0 256 128" version="1.1" xmlns="http://www.w3.org/2000/svg">
<g id="#000000ff">
<path fill="#000000" opacity="1.00" d=" M 169.94 12.83 C 171.66 11.39 173.97 12.24 174.85 14.16 C 178.35 20.38 177.40 28.13 174.72 34.49 C 173.09 40.20 169.76 45.22 165.97 49.72 C 164.15 49.65 163.68 48.03 164.76 46.73 C 168.60 41.58 171.68 35.81 173.46 29.62 C 174.72 24.96 175.25 19.72 172.92 15.30 C 167.99 19.06 165.10 24.77 162.12 30.07 C 155.52 42.35 152.02 55.87 147.06 68.82 C 152.68 69.74 158.39 69.09 164.05 69.34 C 167.75 69.86 169.97 66.47 172.03 64.02 C 175.25 60.11 179.96 56.73 180.38 51.28 C 182.58 50.43 183.30 53.32 184.29 54.69 C 186.72 58.28 185.79 62.74 184.86 66.65 C 183.00 70.04 179.77 72.44 177.28 75.35 C 174.66 77.91 172.25 74.50 170.01 73.26 C 162.42 75.31 154.68 73.53 147.02 73.14 C 144.36 72.64 142.68 75.77 140.01 75.36 C 137.42 75.18 134.84 74.58 132.41 73.65 C 130.06 72.33 130.12 69.35 129.73 67.03 C 133.66 64.41 138.28 68.17 142.28 67.23 C 146.11 61.46 147.40 54.51 150.23 48.27 C 155.14 35.71 159.62 22.12 169.94 12.83 M 176.08 69.04 C 179.66 67.33 182.60 64.02 182.28 59.82 C 179.60 62.40 176.69 65.18 176.08 69.04 Z" />
<path fill="#000000" opacity="1.00" d=" M 72.72 27.72 C 75.93 22.68 79.04 17.50 82.90 12.92 C 85.15 15.39 88.08 18.22 87.39 21.91 C 86.85 24.60 87.72 27.73 86.14 30.10 C 82.60 31.91 78.39 31.39 74.78 32.84 C 70.76 41.38 67.72 50.43 65.02 59.49 C 68.67 58.47 71.34 55.48 74.96 54.44 C 78.81 56.63 78.92 61.81 78.09 65.66 C 78.90 65.69 80.52 65.75 81.33 65.78 C 80.38 69.13 77.78 71.66 75.99 74.57 C 74.58 74.63 73.65 74.00 73.20 72.70 C 72.99 68.18 75.45 64.04 75.25 59.52 C 69.59 62.42 63.58 66.26 61.39 72.58 C 60.83 74.41 58.42 72.95 58.02 71.77 C 57.21 69.79 58.36 67.78 58.86 65.88 C 62.32 55.74 64.92 45.25 69.67 35.61 C 70.13 34.43 70.44 33.20 70.61 31.94 C 65.76 32.07 60.92 31.54 56.09 31.79 C 53.00 32.33 53.96 36.46 52.55 38.60 C 48.84 45.58 46.39 53.12 43.36 60.40 C 41.16 65.70 40.54 71.49 38.67 76.88 C 38.25 77.06 37.42 77.40 37.00 77.57 C 32.18 73.51 28.93 67.95 24.41 63.57 C 22.88 62.47 23.39 60.56 23.83 59.04 C 28.45 63.15 31.82 68.44 36.13 72.86 C 38.61 63.84 41.46 54.91 45.49 46.45 C 47.73 41.72 49.84 36.91 51.25 31.86 C 45.90 30.93 40.43 31.79 35.04 31.28 C 25.08 30.46 15.04 31.09 5.17 32.49 C 5.10 32.86 4.98 33.60 4.92 33.97 C 12.21 40.71 22.62 41.30 32.03 41.44 C 34.69 40.99 37.30 40.28 39.99 40.00 C 40.07 40.79 40.22 42.38 40.30 43.17 C 28.28 46.05 14.83 44.65 4.58 37.40 C 2.18 35.86 -0.39 31.75 2.53 29.52 C 8.53 27.76 14.82 27.97 20.99 27.45 C 30.64 26.60 40.32 28.05 49.97 27.23 C 53.13 27.14 52.78 23.14 53.46 20.95 C 56.30 21.63 55.35 25.35 56.01 27.51 C 61.57 27.81 67.15 27.67 72.72 27.72 M 78.39 27.44 C 79.84 27.34 81.23 27.01 82.57 26.47 C 83.71 24.36 83.91 21.91 84.20 19.56 C 81.52 21.48 79.20 24.19 78.39 27.44 Z" />
<path fill="#000000" opacity="1.00" d=" M 203.70 56.69 C 210.85 43.44 216.69 29.56 223.02 15.93 C 224.42 17.45 226.17 19.64 225.06 21.80 C 219.86 33.27 214.31 44.58 209.17 56.06 C 205.81 61.13 203.97 66.94 201.69 72.53 C 204.39 71.97 207.13 71.61 209.79 70.91 C 211.06 68.78 212.56 66.93 214.78 65.70 C 216.27 60.93 219.42 56.49 219.20 51.35 C 224.62 47.98 226.88 41.66 230.15 36.49 C 233.59 38.40 233.35 42.50 232.32 45.75 C 239.67 46.66 247.00 43.83 254.25 45.63 C 254.53 46.75 254.81 47.87 255.10 48.98 C 253.78 49.39 252.46 49.98 251.05 49.92 C 244.79 49.88 238.54 50.52 232.33 51.23 C 227.26 52.07 227.63 59.22 222.46 59.85 C 222.68 60.85 222.91 61.86 223.13 62.88 C 220.31 65.63 217.02 69.26 218.52 73.53 C 224.96 73.45 230.75 68.78 233.21 62.99 C 235.59 64.36 236.28 67.33 234.89 69.69 C 231.96 73.73 227.57 76.61 222.95 78.38 C 218.84 79.56 215.44 76.10 213.96 72.63 C 209.39 75.99 203.89 77.52 198.76 79.73 C 196.03 83.08 194.95 87.68 195.41 91.99 C 196.00 98.49 194.96 105.51 190.69 110.68 C 187.87 114.06 186.31 118.25 183.72 121.77 C 181.02 123.07 180.02 119.02 180.70 117.09 C 183.60 106.18 187.25 95.46 191.35 84.94 C 191.01 81.89 189.10 79.29 187.50 76.76 C 189.99 74.35 194.65 76.70 196.21 73.19 C 199.11 67.88 200.86 62.03 203.70 56.69 M 188.41 104.45 C 191.09 102.42 191.87 98.96 192.04 95.77 C 189.68 98.05 188.99 101.35 188.41 104.45 Z" />
<path fill="#000000" opacity="1.00" d=" M 89.38 59.39 C 91.15 55.91 93.59 52.59 97.01 50.60 C 101.47 50.14 102.18 55.73 101.21 58.95 C 100.74 63.41 95.59 64.30 92.10 65.40 C 92.03 66.60 91.99 67.81 91.97 69.02 C 96.56 70.07 100.93 67.77 105.08 66.14 C 110.76 63.14 118.02 59.28 117.54 51.74 C 119.49 52.44 120.37 54.89 119.76 56.78 C 118.82 59.58 118.41 63.00 115.58 64.59 C 110.58 67.67 105.90 71.61 100.01 72.85 C 97.31 73.38 94.28 75.18 91.73 73.26 C 89.35 72.04 88.69 69.29 87.90 66.97 C 86.40 66.79 84.90 66.61 83.41 66.41 C 83.25 65.36 83.12 64.31 83.03 63.26 C 85.19 62.12 88.19 61.81 89.38 59.39 M 94.10 59.76 C 96.26 59.57 97.75 58.29 97.82 56.04 C 96.25 56.92 95.01 58.22 94.10 59.76 Z" />
</g>
</svg>
