<?xml version="1.0" encoding="UTF-8" ?>
<!DOCTYPE svg PUBLIC "-//W3C//DTD SVG 1.1//EN" "http://www.w3.org/Graphics/SVG/1.1/DTD/svg11.dtd">
<svg width="256pt" height="256pt" viewBox="0 0 256 256" version="1.1" xmlns="http://www.w3.org/2000/svg">
<g id="#000000ff">
<path fill="#000000" opacity="1.00" d=" M 40.43 17.43 C 42.71 10.36 51.20 7.81 57.90 8.34 C 63.86 9.92 70.43 9.71 75.74 13.24 C 79.91 15.69 84.84 19.53 83.95 24.99 C 83.19 27.75 84.58 30.26 85.03 32.91 C 83.17 38.15 77.44 41.95 77.75 47.95 C 79.33 51.66 83.34 53.99 87.00 55.37 C 92.53 55.14 98.11 54.43 103.56 53.35 C 108.29 51.93 113.27 52.43 118.13 52.63 C 117.44 53.98 116.52 55.46 114.83 55.58 C 107.03 56.50 99.09 56.39 91.39 58.11 C 94.33 61.41 98.28 63.93 102.72 64.56 C 105.11 65.29 108.46 64.95 109.39 67.85 C 104.81 70.47 98.74 69.60 94.90 73.76 C 100.45 77.53 107.03 81.13 113.96 80.20 C 122.82 79.53 131.73 79.24 140.61 79.57 C 142.70 79.45 143.25 82.53 141.52 83.45 C 138.99 84.66 136.45 85.86 133.90 87.02 C 130.91 87.07 127.92 86.80 124.94 86.88 C 119.75 87.34 115.22 83.52 109.99 84.56 C 107.25 84.50 104.78 85.78 103.19 88.00 C 108.45 94.86 117.27 98.13 125.62 99.12 C 125.93 97.67 126.28 96.23 126.70 94.80 C 128.29 96.10 129.74 97.57 131.36 98.84 C 133.96 99.53 136.72 99.13 139.37 99.50 C 139.59 100.14 140.04 101.43 140.26 102.07 C 138.84 102.64 137.40 103.17 135.98 103.71 C 138.02 106.01 141.36 107.85 141.44 111.28 C 137.31 110.37 134.82 106.74 131.87 104.06 C 128.99 104.24 126.09 104.12 123.21 104.42 C 121.58 104.58 119.32 105.82 120.08 107.77 C 122.12 110.70 125.66 111.97 128.79 113.41 C 133.95 115.73 139.61 116.51 144.94 118.31 C 144.73 119.38 144.50 120.45 144.23 121.51 C 141.48 120.96 138.66 120.58 135.91 121.34 C 137.79 125.48 143.31 124.46 146.91 125.95 C 148.85 126.21 148.82 129.66 146.85 129.85 C 143.98 130.84 140.35 130.95 138.62 133.83 C 142.54 136.10 147.20 135.87 151.28 134.19 C 153.61 132.77 154.88 135.60 155.93 137.18 C 159.38 142.96 164.90 146.98 170.28 150.81 C 172.83 152.70 170.39 156.43 167.76 156.59 C 164.79 157.29 159.91 156.75 159.73 161.00 C 159.89 161.38 160.21 162.14 160.37 162.52 C 165.96 166.08 172.29 168.65 178.92 169.41 C 183.04 169.94 187.26 171.55 191.39 170.20 C 186.94 161.61 179.36 155.25 172.26 148.92 C 172.02 145.84 175.48 146.71 177.04 147.97 C 179.75 150.24 182.28 152.72 184.86 155.14 C 189.64 159.51 192.51 165.44 196.71 170.29 C 198.70 171.89 201.48 171.66 203.77 172.62 C 203.02 174.11 202.25 175.59 201.48 177.07 C 202.06 178.42 202.64 179.77 203.19 181.14 C 198.98 183.60 197.39 176.04 193.05 176.97 C 187.79 177.62 181.43 175.77 177.26 179.99 C 181.15 181.70 186.00 179.48 189.42 182.65 C 191.54 184.47 188.73 186.94 188.02 188.83 C 191.34 190.89 195.17 192.23 198.09 194.88 C 200.02 196.62 198.21 199.86 195.93 200.08 C 193.15 200.12 190.10 199.06 187.71 201.04 C 190.60 206.60 196.55 210.38 202.87 210.17 C 204.76 209.66 205.59 207.62 206.99 206.41 C 207.90 208.36 208.10 211.72 205.33 212.18 C 201.25 212.47 196.56 213.72 193.04 210.98 C 189.92 208.80 185.94 206.82 184.78 202.92 C 183.93 198.99 188.10 197.17 190.57 195.12 C 187.16 191.80 182.22 190.49 179.40 186.55 C 177.24 183.65 173.96 181.97 171.48 179.43 C 170.20 178.42 171.52 176.99 172.44 176.34 C 175.00 174.33 179.05 175.79 181.15 173.01 C 179.21 172.07 177.16 171.45 175.00 171.57 C 170.42 171.61 166.36 169.23 162.14 167.78 C 160.09 166.99 157.49 166.24 156.80 163.85 C 155.95 161.12 157.57 158.52 158.27 155.95 C 154.29 154.09 149.79 152.82 146.44 149.96 C 149.12 144.88 155.84 147.54 160.36 147.85 C 158.98 143.42 154.90 140.62 152.06 137.14 C 146.99 138.50 139.79 140.99 135.89 136.12 C 133.24 133.26 137.61 130.53 138.66 127.94 C 135.13 126.48 130.52 126.22 128.29 122.69 C 128.06 119.84 132.06 119.79 133.33 117.69 C 127.09 116.46 119.75 114.54 116.77 108.26 C 115.50 106.22 116.78 103.99 117.67 102.10 C 111.74 97.55 102.63 95.86 100.03 88.01 C 100.75 85.88 102.20 84.12 103.27 82.17 C 99.35 80.04 94.77 78.40 91.96 74.78 C 90.48 70.75 95.85 69.38 98.42 67.78 C 95.27 64.80 92.47 60.79 87.92 59.95 C 82.96 58.38 77.98 61.07 72.98 60.37 C 69.93 59.92 67.18 57.69 66.52 54.62 C 65.49 49.58 65.79 44.38 66.86 39.38 C 59.68 36.50 52.96 32.65 46.32 28.73 C 42.82 26.21 39.15 22.08 40.43 17.43 M 43.45 15.46 C 41.26 17.51 42.55 20.95 43.86 23.12 C 48.54 28.41 55.07 31.43 61.08 34.91 C 63.16 35.85 65.33 37.31 67.71 36.88 C 69.40 35.36 69.80 33.00 70.55 30.96 C 67.21 29.64 63.68 28.90 60.30 27.71 C 60.21 27.24 60.03 26.30 59.94 25.82 C 64.10 26.19 67.90 28.12 71.99 28.72 C 75.18 28.05 78.38 27.32 81.54 26.53 C 83.21 23.32 80.49 19.89 78.19 17.79 C 70.90 11.98 61.06 10.19 51.94 10.87 C 48.56 10.95 45.49 12.84 43.45 15.46 M 74.35 31.33 C 70.70 33.29 70.61 37.83 69.26 41.26 C 67.07 45.86 68.25 51.29 70.23 55.74 C 73.05 58.70 77.66 57.78 81.12 56.65 C 79.71 53.88 76.61 52.51 75.14 49.83 C 74.59 47.25 74.91 44.58 74.78 41.97 C 78.88 39.51 81.14 35.02 82.34 30.55 C 79.66 30.52 76.96 30.70 74.35 31.33 Z" />
<path fill="#000000" opacity="1.00" d=" M 112.34 64.08 C 114.35 61.26 118.06 59.33 121.45 60.91 C 120.07 64.05 115.55 62.93 113.75 65.94 C 113.40 65.47 112.69 64.55 112.34 64.08 Z" />
<path fill="#000000" opacity="1.00" d=" M 43.06 81.88 C 49.52 79.33 56.57 81.69 62.63 84.26 C 65.29 85.59 68.06 86.98 70.01 89.28 C 71.48 94.00 66.36 98.18 61.99 98.36 C 58.82 98.03 55.62 97.45 52.69 96.15 C 53.03 95.44 53.71 94.04 54.05 93.34 C 58.16 94.01 62.88 96.67 66.64 93.60 C 68.06 92.97 68.34 90.92 67.03 90.02 C 62.08 85.65 55.31 84.30 48.94 83.62 C 46.20 83.89 42.71 84.62 41.31 87.27 C 41.21 90.23 44.21 92.05 46.19 93.80 C 52.12 98.05 58.14 102.38 64.79 105.41 C 67.31 101.09 69.41 95.30 74.45 93.54 C 74.50 98.65 69.28 101.91 68.64 106.90 C 69.85 109.19 72.88 109.73 74.99 111.02 C 80.58 113.37 85.82 116.99 91.94 117.76 C 95.00 119.21 98.26 120.03 101.59 120.56 C 103.38 120.57 102.81 122.60 102.91 123.73 C 95.63 125.97 88.11 122.98 80.74 124.29 C 82.46 126.94 85.82 127.51 88.33 129.14 C 87.78 129.30 86.67 129.62 86.12 129.78 C 79.41 127.64 73.22 123.93 66.22 122.63 C 63.79 122.41 61.94 120.35 61.68 117.97 C 60.91 114.57 62.36 111.31 63.24 108.10 C 55.92 102.55 46.62 99.62 40.64 92.37 C 37.91 89.16 39.10 83.50 43.06 81.88 M 67.09 110.04 C 66.47 114.32 69.42 118.36 73.12 120.19 C 77.78 120.90 82.56 120.32 87.24 119.93 C 86.10 117.72 83.43 117.50 81.41 116.54 C 76.48 114.72 71.95 112.00 67.09 110.04 Z" />
<path fill="#000000" opacity="1.00" d=" M 89.10 129.22 C 92.05 129.99 94.63 128.56 96.95 126.91 C 98.95 128.63 100.74 130.84 103.35 131.63 C 106.65 132.08 110.00 130.96 113.30 131.66 C 114.29 135.55 109.01 135.28 106.57 136.13 C 112.69 144.17 119.58 151.60 126.38 159.07 C 125.65 159.84 124.85 160.51 123.96 161.07 C 122.09 160.48 120.75 158.94 119.37 157.63 C 113.42 151.55 107.86 145.09 102.45 138.52 C 100.95 136.56 98.56 135.38 96.07 135.72 C 91.92 136.12 86.97 134.51 83.68 137.84 C 88.60 140.06 94.01 140.90 98.93 143.12 C 102.55 145.36 105.00 149.14 106.64 153.00 C 103.64 156.44 98.56 154.47 95.01 156.84 C 96.54 158.09 98.20 159.18 99.99 160.02 C 106.72 163.23 112.96 167.45 120.00 170.04 C 121.63 170.86 124.25 171.54 124.01 173.84 C 120.69 177.38 113.52 174.60 111.81 179.81 C 117.88 182.54 124.49 183.51 130.95 184.83 C 132.54 185.20 135.01 185.68 134.32 187.89 C 132.97 189.52 130.72 189.93 128.99 191.04 C 132.90 194.28 138.00 195.61 141.85 198.94 C 139.77 203.93 133.73 203.89 129.53 206.07 C 131.84 208.29 134.42 210.27 137.40 211.51 C 142.04 213.59 145.95 217.11 150.88 218.56 C 152.14 216.04 153.37 213.17 156.09 211.92 C 162.30 209.03 169.99 209.61 175.80 213.19 C 179.78 215.67 179.24 221.14 177.99 224.99 C 174.89 230.03 168.00 230.33 162.73 229.55 C 152.72 228.01 141.43 227.45 133.56 220.31 C 130.98 217.57 136.25 216.26 137.86 214.90 C 133.82 213.17 129.83 211.25 126.17 208.83 C 124.28 207.95 124.52 205.18 126.26 204.28 C 129.28 202.41 132.85 201.73 136.18 200.60 C 135.87 199.43 135.72 198.03 134.36 197.64 C 129.62 195.30 124.35 194.01 119.05 194.13 C 117.27 194.47 117.23 192.17 116.69 191.08 C 119.15 189.78 121.84 188.91 124.11 187.27 C 118.28 185.29 111.87 184.49 106.77 180.79 C 105.25 178.55 108.38 176.44 109.38 174.60 C 106.56 172.79 102.21 174.21 100.01 171.80 C 100.05 167.64 105.95 169.14 108.47 167.25 C 106.28 165.83 104.04 164.43 101.53 163.68 C 97.02 162.40 92.96 160.00 88.99 157.58 C 89.95 151.70 97.17 153.02 101.46 151.80 C 100.06 149.50 98.42 147.35 96.63 145.35 C 90.92 143.17 84.77 142.32 79.09 140.04 C 77.06 139.46 76.57 136.47 78.34 135.33 C 81.39 133.36 85.05 132.73 88.59 132.22 C 88.76 131.21 88.93 130.22 89.10 129.22 M 159.36 214.58 C 157.56 215.00 154.67 215.64 155.01 218.08 C 155.43 220.42 155.35 223.21 156.90 225.11 C 160.30 226.74 164.27 226.70 167.98 226.77 C 171.38 226.82 175.43 225.54 176.54 221.95 C 176.97 219.36 174.70 217.41 172.67 216.30 C 168.69 213.93 163.81 213.68 159.36 214.58 M 141.50 220.06 C 140.59 221.45 143.04 222.57 144.01 221.64 C 144.94 220.27 142.46 219.01 141.50 220.06 Z" />
</g>
</svg>
