<?xml version="1.0" encoding="UTF-8" ?>
<!DOCTYPE svg PUBLIC "-//W3C//DTD SVG 1.1//EN" "http://www.w3.org/Graphics/SVG/1.1/DTD/svg11.dtd">
<svg width="256pt" height="256pt" viewBox="0 0 256 256" version="1.1" xmlns="http://www.w3.org/2000/svg">
<g id="#000000ff">
<path fill="#000000" opacity="1.00" d=" M 190.38 54.20 C 190.58 51.92 192.04 50.08 193.25 48.25 C 196.73 51.79 199.87 56.05 200.67 61.06 C 201.67 67.86 199.69 74.59 198.02 81.11 C 200.86 78.96 203.35 76.10 207.04 75.46 C 207.36 77.39 208.69 79.54 207.44 81.39 C 205.76 84.08 202.60 85.21 200.15 87.03 C 202.36 88.69 205.20 89.49 207.65 87.78 C 214.87 83.22 218.49 74.41 218.70 66.11 C 218.74 63.34 216.31 61.58 214.71 59.65 C 215.58 59.29 217.31 58.58 218.18 58.23 C 219.37 59.86 221.04 61.33 221.60 63.32 C 222.34 71.79 218.76 80.04 213.51 86.51 C 211.13 89.41 207.90 92.12 203.99 92.30 C 200.92 92.13 198.62 89.76 196.04 88.36 C 195.01 90.99 194.40 93.73 193.85 96.49 C 190.25 96.77 188.15 99.54 186.01 102.07 C 184.20 104.41 181.09 103.34 178.65 102.98 C 176.85 105.99 174.52 109.68 170.41 108.47 C 168.42 111.10 166.53 113.84 164.13 116.11 C 162.21 117.67 159.59 117.18 157.31 117.20 C 154.94 120.18 151.85 125.25 147.46 123.74 C 145.09 119.53 147.27 114.46 145.75 110.02 C 143.62 108.24 142.58 111.17 141.47 112.56 C 139.75 115.43 137.17 117.64 135.34 120.41 C 134.72 123.48 134.99 126.76 133.58 129.64 C 131.80 133.35 129.36 136.83 126.04 139.32 C 124.87 138.14 123.74 136.93 122.60 135.72 C 120.62 139.52 118.37 143.29 115.17 146.19 C 113.63 146.71 111.98 146.82 110.43 147.30 C 108.31 149.29 107.17 153.68 103.44 152.57 C 100.27 150.85 99.88 146.63 98.06 143.78 C 95.13 147.68 93.68 152.34 92.02 156.86 C 91.77 158.35 90.29 158.76 89.13 159.36 C 88.15 155.13 88.49 150.70 87.24 146.52 C 84.57 152.99 82.06 159.55 78.73 165.72 C 77.94 167.01 76.44 167.56 75.25 168.37 C 74.10 166.61 73.07 164.78 72.06 162.94 C 70.69 166.49 69.47 170.18 67.24 173.30 C 65.68 174.15 63.48 173.78 62.45 175.47 C 58.91 179.63 54.87 183.62 49.74 185.74 C 45.15 187.57 40.17 186.47 35.39 186.66 C 36.35 190.58 34.04 194.43 30.86 196.59 C 31.52 192.70 33.13 189.08 34.25 185.32 C 26.85 180.19 23.81 170.63 24.66 161.95 C 25.64 152.59 28.10 143.41 31.64 134.70 C 35.85 124.19 42.38 113.53 53.08 108.69 C 60.30 107.90 67.93 113.82 68.43 121.24 C 69.43 132.84 66.29 144.57 60.64 154.66 C 59.35 156.79 57.68 159.16 55.04 159.60 C 51.68 158.02 51.35 153.79 49.94 150.77 C 49.16 152.45 48.43 154.16 47.80 155.91 C 44.67 165.24 40.09 174.00 37.04 183.36 C 46.85 187.31 56.27 180.01 61.96 172.61 C 62.96 165.95 64.17 159.17 67.11 153.04 C 68.11 150.95 70.15 149.72 72.06 148.56 C 75.87 153.31 72.79 159.90 76.10 164.89 C 80.69 158.25 82.14 150.03 86.35 143.21 C 88.11 141.79 88.95 144.19 89.68 145.44 C 90.50 147.60 90.47 149.95 90.93 152.19 C 93.51 147.55 95.22 142.29 99.04 138.46 C 101.30 142.17 101.57 146.72 104.13 150.30 C 106.00 148.97 107.92 147.37 108.39 144.99 C 108.26 142.03 107.14 139.04 108.10 136.09 C 108.96 133.04 109.93 129.37 113.07 127.92 C 115.28 127.77 116.52 130.07 116.21 132.03 C 115.77 136.42 113.25 140.23 112.38 144.51 C 116.67 141.96 118.55 137.04 120.99 132.93 C 122.09 131.36 121.46 129.43 121.31 127.70 C 119.88 118.12 122.65 108.61 122.58 99.02 C 122.50 95.69 123.53 92.49 125.01 89.54 C 129.03 92.29 131.32 97.12 131.02 101.97 C 130.42 110.87 129.04 119.80 125.86 128.17 C 124.65 130.34 126.23 132.52 126.98 134.54 C 130.10 131.66 132.09 127.87 133.19 123.81 C 132.17 122.87 131.16 121.94 130.15 121.00 C 134.60 117.87 138.81 114.27 141.54 109.49 C 142.15 107.02 140.72 104.59 140.19 102.22 C 140.70 101.74 141.72 100.77 142.24 100.29 C 144.38 103.04 146.00 106.12 148.62 108.48 C 150.10 112.46 148.60 116.89 149.69 120.99 C 152.88 119.22 156.52 116.20 155.48 112.07 C 154.48 106.64 155.91 101.02 159.10 96.55 C 160.83 98.18 162.24 100.37 161.85 102.87 C 161.01 106.44 159.77 109.90 159.16 113.53 C 160.65 113.56 162.41 113.87 163.47 112.53 C 165.98 110.07 168.67 107.62 170.38 104.52 C 171.16 97.93 173.06 90.80 178.46 86.47 C 179.11 87.54 179.75 88.63 180.36 89.73 C 176.13 90.96 174.73 95.44 174.06 99.32 C 175.07 98.97 176.08 98.61 177.10 98.25 C 177.62 95.83 178.57 93.54 180.09 91.57 C 182.65 94.47 179.45 98.85 182.91 101.22 C 185.92 98.41 188.50 95.05 190.23 91.31 C 191.04 87.95 190.20 84.45 190.61 81.04 C 191.90 72.11 189.61 63.14 190.38 54.20 M 193.87 53.46 C 193.22 57.99 194.42 62.48 194.34 67.02 C 194.54 71.95 194.12 76.90 194.73 81.80 C 196.79 77.33 197.96 72.47 198.77 67.63 C 199.62 62.43 197.70 57.05 193.87 53.46 M 126.31 95.09 C 125.80 98.37 126.00 101.70 125.71 105.00 C 124.91 111.55 123.50 118.19 124.49 124.78 C 126.97 119.49 127.71 113.59 128.60 107.87 C 128.70 103.59 129.80 98.39 126.31 95.09 M 157.87 107.52 C 160.01 106.03 160.40 103.55 159.96 101.13 C 158.51 102.96 158.05 105.24 157.87 107.52 M 52.00 111.99 C 43.17 116.37 37.93 125.34 34.06 134.02 C 30.64 142.98 27.39 152.26 27.17 161.96 C 26.66 169.48 28.72 177.66 35.07 182.32 C 39.38 171.84 44.00 161.46 47.75 150.75 C 48.95 147.67 49.16 144.23 51.03 141.41 C 52.41 146.75 51.67 152.89 55.49 157.38 C 57.05 155.93 58.49 154.33 59.48 152.44 C 64.45 143.24 67.08 132.70 66.51 122.23 C 66.26 115.39 58.65 109.20 52.00 111.99 M 110.84 140.92 C 112.60 137.86 113.66 134.43 113.77 130.89 C 110.50 133.01 110.28 137.44 110.84 140.92 M 65.49 168.02 C 67.67 166.00 69.39 163.47 69.90 160.49 C 67.70 162.47 65.92 165.04 65.49 168.02 Z" />
<path fill="#000000" opacity="1.00" d=" M 213.37 103.94 C 213.84 103.20 214.79 101.72 215.26 100.98 C 219.06 104.64 218.56 110.22 218.61 115.02 C 218.84 123.74 213.52 132.25 205.76 136.12 C 203.12 137.46 200.12 135.20 199.44 132.62 C 198.38 128.08 199.72 123.44 199.33 118.86 C 197.16 120.12 194.82 121.23 192.99 122.97 C 191.97 127.34 190.20 132.15 185.48 133.63 C 187.74 138.28 185.50 142.93 183.00 146.89 C 182.21 146.88 180.62 146.87 179.83 146.86 C 178.62 144.00 178.24 140.91 177.63 137.89 C 175.01 142.67 173.05 148.29 168.56 151.66 C 164.27 152.10 163.61 146.33 162.06 143.45 C 158.18 148.00 156.43 153.83 155.46 159.61 C 155.45 161.33 153.85 162.11 152.75 163.12 C 152.03 160.71 151.69 158.22 151.17 155.78 C 149.14 160.22 147.94 165.14 145.10 169.16 C 143.16 171.30 140.89 168.47 139.12 167.52 C 137.84 171.65 137.15 176.52 132.90 178.74 C 129.04 176.01 129.89 170.88 131.00 166.95 C 132.22 162.90 133.56 158.37 137.08 155.70 C 142.10 156.85 140.17 163.51 143.19 166.66 C 147.39 159.89 148.57 151.78 152.03 144.67 C 155.12 144.06 154.29 148.15 154.94 150.01 C 157.36 146.39 159.26 142.40 162.25 139.19 C 165.22 141.47 165.52 145.45 167.12 148.60 C 169.60 147.36 171.47 145.23 172.81 142.84 C 176.02 137.06 179.02 131.15 181.04 124.84 C 182.21 126.53 183.30 128.29 184.47 129.99 C 186.02 129.02 187.87 128.25 188.80 126.58 C 189.61 124.73 189.25 122.33 190.87 120.89 C 193.90 117.97 197.53 115.74 201.18 113.67 C 205.43 119.35 200.11 126.85 203.76 132.72 C 210.04 129.83 214.83 123.70 215.49 116.75 C 215.78 112.41 215.76 107.75 213.37 103.94 M 133.49 172.82 C 136.03 168.96 136.70 164.23 137.49 159.77 C 134.36 163.28 132.84 168.15 133.49 172.82 Z" />
<path fill="#000000" opacity="1.00" d=" M 117.47 149.16 C 119.59 148.24 120.82 150.84 121.44 152.45 C 124.02 161.87 120.72 171.68 122.91 181.18 C 124.26 180.93 125.63 180.71 126.99 180.50 C 125.60 182.16 123.98 184.89 121.40 183.79 C 120.03 182.56 119.77 180.65 119.47 178.94 C 118.37 171.60 119.67 164.18 119.04 156.82 C 117.23 160.61 116.65 164.82 115.70 168.88 C 114.52 175.30 112.58 181.55 111.17 187.92 C 110.75 189.64 110.20 192.01 107.91 191.62 C 103.70 183.86 104.71 174.59 102.68 166.21 C 100.64 171.53 101.03 177.37 100.36 182.95 C 99.68 192.69 97.04 202.23 93.20 211.18 C 91.24 215.79 87.07 219.85 82.02 220.61 C 77.73 218.79 75.05 214.42 73.80 210.10 C 72.29 203.45 72.77 196.37 75.01 189.95 C 75.93 187.06 78.22 184.65 81.15 183.80 C 83.75 183.61 86.37 185.21 87.53 187.54 C 89.03 190.42 89.09 193.77 89.23 196.94 C 89.64 198.52 88.55 199.67 87.52 200.70 C 86.75 195.63 87.77 188.68 82.01 186.17 C 79.95 187.41 77.87 188.98 77.36 191.48 C 75.50 198.43 74.48 206.35 78.10 212.92 C 79.30 214.84 80.62 217.20 83.02 217.72 C 86.51 216.69 88.64 213.34 90.44 210.40 C 94.91 201.88 97.47 192.41 98.46 182.86 C 99.10 174.80 99.30 166.34 102.66 158.87 C 104.03 160.30 105.84 161.60 106.19 163.69 C 107.47 170.30 106.76 177.25 108.99 183.68 C 112.19 172.28 114.95 160.73 117.47 149.16 Z" />
</g>
</svg>
