<?xml version="1.0" encoding="UTF-8" ?>
<!DOCTYPE svg PUBLIC "-//W3C//DTD SVG 1.1//EN" "http://www.w3.org/Graphics/SVG/1.1/DTD/svg11.dtd">
<svg width="512pt" height="128pt" viewBox="0 0 512 128" version="1.1" xmlns="http://www.w3.org/2000/svg">
<g id="#000000ff">
<path fill="#000000" opacity="1.00" d=" M 87.85 33.81 C 96.72 26.99 106.75 20.83 118.01 19.17 C 123.65 18.03 128.08 22.83 130.97 27.01 C 134.63 34.95 130.16 43.84 124.84 49.85 C 119.41 53.68 114.03 58.61 107.08 59.12 C 103.46 59.19 103.25 54.79 101.93 52.37 C 99.13 54.06 97.94 57.38 95.74 59.71 C 91.06 65.03 86.52 70.48 81.48 75.47 C 80.78 76.32 79.31 77.41 80.28 78.63 C 82.87 81.67 87.12 82.88 91.00 82.42 C 98.91 81.55 106.16 78.06 113.46 75.15 C 112.91 76.30 112.43 77.59 111.23 78.22 C 104.94 82.36 97.81 86.25 90.03 85.74 C 85.37 85.63 81.20 83.20 77.78 80.21 C 73.85 84.19 70.53 88.71 66.74 92.81 C 65.96 93.96 64.54 93.50 63.39 93.52 C 63.50 92.37 63.10 90.98 64.01 90.05 C 67.58 85.46 71.93 81.54 75.46 76.93 C 69.45 62.05 74.78 43.24 87.85 33.81 M 102.42 28.43 C 97.14 31.69 91.43 34.54 87.23 39.24 C 83.71 43.27 79.84 47.40 78.57 52.76 C 76.72 59.60 74.89 67.07 77.64 73.93 C 82.92 69.45 87.33 64.09 91.82 58.85 C 96.64 53.49 100.99 47.74 105.01 41.77 C 105.89 42.58 107.01 43.21 107.60 44.29 C 107.42 48.21 104.74 51.87 105.94 55.83 C 107.40 55.78 108.96 56.00 110.30 55.25 C 119.05 51.03 127.72 44.14 129.42 33.99 C 130.63 28.66 126.40 23.21 121.04 22.68 C 114.32 22.16 108.33 25.78 102.42 28.43 Z" />
<path fill="#000000" opacity="1.00" d=" M 285.99 33.94 C 290.97 31.09 296.04 27.83 301.92 27.34 C 305.15 27.46 306.18 31.07 307.70 33.32 C 310.72 38.26 309.02 44.26 307.63 49.44 C 305.45 57.24 298.43 62.93 290.84 65.06 C 287.80 66.03 284.78 64.84 282.75 62.51 C 278.11 65.94 273.83 69.82 269.66 73.79 C 266.91 75.61 270.29 78.04 272.01 79.02 C 281.15 81.81 290.19 77.10 298.31 73.36 C 305.38 69.96 314.02 67.22 317.59 59.58 C 321.05 53.51 325.07 47.78 328.96 41.98 C 330.38 39.95 331.74 37.72 334.02 36.54 C 339.10 41.83 334.60 49.27 330.99 53.99 C 325.15 59.28 317.68 64.05 315.66 72.19 C 319.71 69.54 324.11 67.28 328.85 66.22 C 331.09 66.44 331.99 69.06 331.53 70.99 C 330.89 74.91 329.53 78.75 329.71 82.77 C 331.61 82.53 333.50 82.27 335.41 82.11 C 334.80 84.38 332.63 85.62 330.72 86.67 C 328.72 87.17 326.91 85.43 326.16 83.74 C 326.09 79.19 327.48 74.79 328.11 70.32 C 324.67 71.01 322.05 73.43 319.08 75.09 C 315.46 77.00 313.24 80.67 309.76 82.78 C 308.61 82.90 306.95 82.50 307.06 81.02 C 308.10 77.32 310.19 74.01 311.29 70.32 C 300.43 75.86 289.80 84.07 276.98 83.53 C 272.34 83.67 268.77 80.49 265.86 77.28 C 257.82 83.79 249.67 90.18 241.47 96.49 C 239.08 98.63 235.62 100.38 235.55 104.02 C 233.54 104.23 228.61 106.05 229.98 102.26 C 240.81 92.62 253.14 84.67 263.59 74.57 C 263.62 71.69 262.51 68.90 262.70 66.00 C 262.84 58.04 267.25 51.03 271.89 44.88 C 275.53 40.02 281.00 37.18 285.99 33.94 M 300.32 31.14 C 294.08 32.38 288.71 35.96 283.57 39.51 C 276.34 44.70 269.96 51.73 267.48 60.44 C 266.70 64.08 265.51 68.10 266.97 71.71 C 272.25 68.21 276.58 63.48 281.13 59.11 C 282.80 57.61 283.78 55.57 285.00 53.74 C 286.64 53.99 287.63 56.22 286.90 57.71 C 286.82 59.01 285.58 61.02 287.23 61.81 C 294.08 61.97 300.12 57.05 303.46 51.40 C 306.02 46.57 308.24 40.56 305.83 35.24 C 304.78 33.18 303.09 30.22 300.32 31.14 M 325.71 54.74 C 329.97 52.38 333.05 47.93 333.53 43.05 C 329.83 46.01 327.42 50.38 325.71 54.74 Z" />
<path fill="#000000" opacity="1.00" d=" M 183.51 47.47 C 186.66 43.33 189.38 38.55 194.01 35.87 C 195.48 38.46 196.96 41.67 195.59 44.61 C 194.94 46.22 194.56 47.91 194.75 49.65 C 198.99 50.51 205.03 47.31 207.67 51.99 L 207.57 52.96 C 204.11 55.08 199.71 53.83 195.87 54.74 C 190.89 54.78 189.00 59.96 185.86 62.88 C 182.62 65.69 178.67 67.60 175.58 70.59 C 172.56 73.98 172.58 78.91 172.72 83.18 C 178.00 83.13 182.47 80.15 187.15 78.13 C 195.21 74.56 202.96 70.34 210.64 66.05 C 211.75 68.11 212.98 70.45 211.76 72.77 C 209.95 77.28 208.22 82.56 203.86 85.20 C 201.27 85.29 198.99 83.41 197.14 81.76 C 196.97 78.18 200.95 79.12 203.00 80.21 C 204.79 78.02 206.36 75.61 207.19 72.88 C 197.80 77.72 188.43 82.62 178.72 86.78 C 176.01 87.97 172.45 88.08 170.36 85.63 C 167.43 82.25 168.56 77.41 169.32 73.44 C 163.87 73.95 158.83 76.68 153.27 76.44 C 150.85 79.29 148.61 82.30 146.00 84.98 C 143.96 87.01 139.51 86.27 139.66 82.93 C 139.29 77.03 144.18 72.95 146.38 67.94 C 141.48 68.78 136.52 69.00 131.56 69.00 C 131.34 72.82 130.70 76.98 127.59 79.59 C 125.05 81.79 122.39 86.10 118.48 84.58 C 114.52 82.90 116.78 78.02 114.97 74.95 C 115.62 74.88 116.93 74.73 117.58 74.66 C 120.03 70.85 123.32 67.70 126.40 64.42 C 127.62 63.07 129.19 62.06 130.95 61.58 C 132.91 62.05 133.11 64.91 135.06 65.34 C 140.15 65.39 145.17 64.47 150.09 63.20 C 151.86 62.53 153.61 63.62 154.61 65.05 C 154.18 67.17 150.92 68.84 152.80 71.09 C 154.68 73.47 158.01 72.03 160.48 71.69 C 164.09 70.79 167.95 70.16 171.14 68.19 C 173.69 64.48 175.60 60.35 177.44 56.25 C 164.98 56.72 152.44 54.92 140.05 56.32 C 138.87 55.61 137.81 54.71 136.73 53.86 C 137.84 52.55 138.97 50.67 141.00 51.10 C 146.68 51.57 152.37 50.94 158.04 51.20 C 164.66 51.86 171.31 51.63 177.94 51.62 C 180.65 51.92 182.11 49.31 183.51 47.47 M 187.27 50.33 C 188.39 50.46 189.52 50.58 190.65 50.68 C 191.72 48.75 192.34 46.63 192.56 44.43 C 190.29 45.90 188.77 48.15 187.27 50.33 M 182.66 56.57 C 180.83 58.87 179.53 61.56 178.56 64.32 C 182.35 62.27 185.77 59.34 187.87 55.53 C 186.18 55.76 183.83 54.88 182.66 56.57 M 124.39 72.39 C 122.52 74.80 119.70 76.90 119.83 80.28 C 124.07 77.81 127.85 73.80 128.40 68.72 C 126.71 69.52 125.52 70.96 124.39 72.39 M 143.92 80.24 C 146.53 78.89 148.73 76.52 149.26 73.56 C 146.27 74.37 144.87 77.56 143.92 80.24 Z" />
<path fill="#000000" opacity="1.00" d=" M 445.65 37.59 C 447.11 36.12 449.15 36.30 450.27 38.09 C 450.80 40.35 449.34 42.42 448.52 44.43 C 443.56 55.17 434.84 63.41 426.61 71.66 C 423.77 74.23 426.28 79.42 430.03 79.11 C 437.14 79.15 443.08 74.49 448.06 69.90 C 448.36 71.15 450.37 72.56 449.16 73.79 C 444.09 79.13 436.89 83.20 429.33 82.77 C 425.43 82.44 423.07 79.03 421.41 75.88 C 416.51 77.82 412.13 81.07 406.92 82.21 C 404.30 82.95 402.22 80.77 399.84 80.13 C 396.78 80.20 393.91 82.14 390.81 81.27 C 390.86 80.76 390.97 79.74 391.02 79.23 C 393.92 78.55 397.12 78.50 399.67 76.77 C 402.20 71.97 404.67 66.29 410.13 64.24 C 413.51 64.29 413.93 69.09 412.31 71.30 C 409.80 74.14 406.60 76.25 403.54 78.45 C 404.83 78.77 406.18 79.27 407.48 78.64 C 412.19 76.92 417.04 75.12 421.08 72.08 C 423.19 69.51 423.42 65.91 425.09 63.05 C 430.18 53.30 437.78 45.14 445.65 37.59 M 434.46 54.46 C 431.67 58.28 428.73 62.18 427.34 66.77 C 435.48 59.87 443.37 51.70 446.98 41.45 C 441.93 44.83 438.26 49.82 434.46 54.46 M 407.99 68.96 C 406.17 70.35 404.91 72.30 403.93 74.33 C 406.88 73.44 409.04 71.14 410.92 68.81 C 410.32 67.09 408.89 68.21 407.99 68.96 Z" />
<path fill="#000000" opacity="1.00" d=" M 388.76 48.77 C 390.39 46.51 391.88 44.09 394.01 42.24 C 395.69 44.04 395.81 46.61 394.96 48.82 C 393.80 52.03 393.51 55.63 391.42 58.44 C 388.67 62.63 385.96 66.86 382.91 70.84 C 390.64 72.76 386.21 85.98 379.08 84.38 C 376.81 84.18 376.03 81.81 374.93 80.21 C 369.25 86.31 364.03 92.97 360.61 100.62 C 359.95 102.69 357.65 102.09 356.07 101.84 C 357.15 95.13 362.07 89.76 364.46 83.47 C 360.94 83.66 357.50 84.64 353.97 84.52 C 351.39 84.39 349.93 82.08 348.57 80.21 C 345.11 82.09 341.06 85.47 337.17 82.59 C 338.37 75.13 343.43 68.80 349.28 64.28 C 352.07 62.44 355.27 59.98 358.82 60.91 C 361.51 62.10 363.58 66.12 361.03 68.46 C 359.61 67.33 358.87 65.14 357.00 64.74 C 351.43 67.45 345.64 71.11 343.44 77.23 C 347.16 76.07 349.44 72.41 352.80 70.94 C 355.37 73.78 353.18 77.16 352.56 80.29 C 360.21 80.78 369.42 78.59 373.51 71.45 C 378.33 63.72 383.54 56.24 388.76 48.77 M 383.82 64.19 C 386.38 62.40 388.22 59.72 389.21 56.78 C 386.73 58.66 384.95 61.32 383.82 64.19 M 377.63 80.00 C 380.47 80.51 382.66 78.78 383.19 76.02 C 381.11 76.94 378.28 77.46 377.63 80.00 Z" />
</g>
</svg>
