<?xml version="1.0" encoding="UTF-8" ?>
<!DOCTYPE svg PUBLIC "-//W3C//DTD SVG 1.1//EN" "http://www.w3.org/Graphics/SVG/1.1/DTD/svg11.dtd">
<svg width="256pt" height="128pt" viewBox="0 0 256 128" version="1.1" xmlns="http://www.w3.org/2000/svg">
<g id="#000000ff">
<path fill="#000000" opacity="1.00" d=" M 107.91 6.89 C 110.79 3.87 114.27 0.23 118.84 0.73 C 122.39 2.76 125.65 8.74 121.86 11.89 C 121.33 9.16 122.42 5.62 119.93 3.60 C 118.46 2.88 116.90 3.95 115.65 4.66 C 108.94 9.78 104.39 17.03 99.98 24.08 C 101.33 28.28 102.75 32.54 102.59 37.02 C 102.74 42.89 97.86 48.44 91.94 48.80 C 89.07 49.28 86.58 47.55 84.02 46.61 C 79.60 49.55 74.06 47.79 70.05 44.95 C 68.70 44.08 68.29 42.43 67.63 41.07 C 72.44 37.06 77.78 42.36 82.79 42.04 C 88.56 36.93 91.18 29.48 95.81 23.52 C 93.02 19.36 88.04 16.91 83.04 17.19 C 73.92 17.09 63.38 18.79 57.51 26.53 C 54.16 32.16 52.01 39.58 55.29 45.72 C 56.40 48.33 59.25 49.57 60.40 52.13 C 53.54 49.20 49.37 41.34 50.67 34.01 C 51.54 29.76 52.50 24.94 56.18 22.18 C 60.70 18.45 66.03 14.92 72.08 14.75 C 77.12 14.40 82.35 12.54 87.21 14.82 C 91.18 15.47 93.93 18.49 97.02 20.76 C 101.12 16.52 103.48 10.87 107.91 6.89 M 86.05 44.23 C 89.56 47.28 94.34 44.89 97.41 42.44 C 101.15 38.30 100.00 31.79 98.17 27.04 C 93.27 32.15 91.45 39.48 86.05 44.23 M 71.29 42.55 C 72.72 45.22 75.78 45.46 78.42 44.81 C 76.55 42.91 73.84 42.50 71.29 42.55 Z" />
<path fill="#000000" opacity="1.00" d=" M 152.33 15.19 C 152.99 15.21 154.31 15.24 154.97 15.26 C 156.36 19.68 153.12 23.58 151.40 27.38 C 147.82 31.80 144.78 36.68 140.56 40.55 C 138.73 42.67 135.68 44.56 136.11 47.76 C 137.19 49.32 139.35 48.51 140.92 48.54 C 143.69 48.08 146.93 48.07 149.17 46.21 C 150.93 41.97 153.61 38.07 157.31 35.28 C 158.80 34.25 160.87 33.43 162.60 34.39 C 164.42 35.77 164.55 38.22 165.23 40.22 C 168.09 36.06 170.46 31.58 173.53 27.56 C 176.18 24.16 178.13 19.91 182.08 17.79 C 184.42 17.78 185.52 20.67 184.37 22.55 C 182.17 27.57 178.34 31.68 175.06 36.02 C 172.23 39.79 167.50 42.33 166.24 47.12 C 165.74 48.41 166.79 49.92 168.22 49.67 C 172.20 49.54 175.77 47.23 179.74 47.07 C 182.08 47.71 180.96 50.73 179.00 50.97 C 175.18 52.14 171.15 53.90 167.09 53.09 C 164.26 52.51 163.90 49.33 162.75 47.20 C 159.79 48.55 157.06 50.41 153.97 51.49 C 151.88 52.32 150.42 50.30 148.88 49.31 C 145.61 51.12 141.91 52.18 138.15 51.81 C 135.83 51.29 134.55 49.04 132.94 47.49 C 130.50 48.87 128.22 50.58 125.56 51.53 C 123.77 52.25 121.86 50.82 121.72 48.97 C 122.35 45.60 123.56 42.32 125.36 39.39 C 126.20 37.82 127.66 36.34 127.27 34.42 C 124.22 34.29 119.41 33.33 118.55 37.42 C 117.42 42.93 114.20 48.06 109.01 50.54 C 105.69 50.73 104.98 46.53 106.22 44.18 C 108.95 37.30 114.38 31.35 121.12 28.23 C 122.04 29.69 122.82 31.94 124.98 31.66 C 129.03 32.43 133.34 30.51 137.14 32.59 C 142.00 26.62 147.84 21.48 152.33 15.19 M 144.31 29.36 C 142.93 31.07 140.75 32.64 141.12 35.12 C 145.20 32.38 148.25 28.02 150.33 23.63 C 147.77 24.88 146.24 27.38 144.31 29.36 M 108.77 46.63 C 113.25 44.99 116.02 40.02 116.38 35.44 C 112.76 38.13 109.50 42.00 108.77 46.63 M 125.10 47.87 C 127.58 46.93 130.09 45.86 132.08 44.07 C 134.54 42.01 134.58 38.54 135.33 35.67 C 129.29 36.07 126.64 42.86 125.10 47.87 M 152.58 47.63 C 155.04 47.04 157.33 45.93 159.56 44.77 C 159.28 41.96 161.02 39.72 162.20 37.35 C 157.11 38.16 153.85 42.99 152.58 47.63 Z" />
<path fill="#000000" opacity="1.00" d=" M 200.33 15.46 C 200.69 15.30 201.43 14.97 201.79 14.81 C 202.06 16.92 202.34 19.21 201.03 21.06 C 198.64 24.95 196.85 29.28 193.67 32.62 C 191.40 33.81 191.43 30.77 192.57 29.63 C 195.61 25.16 197.83 20.23 200.33 15.46 Z" />
<path fill="#000000" opacity="1.00" d=" M 207.79 40.81 C 212.43 39.35 216.38 36.38 220.91 34.73 C 222.00 35.38 223.01 36.55 222.99 37.88 C 221.26 41.36 218.59 44.24 216.78 47.66 C 218.53 47.38 220.29 47.08 222.08 47.06 C 221.34 48.83 220.28 51.14 218.01 51.12 C 214.78 51.09 211.41 51.73 208.26 50.79 C 205.91 50.04 205.07 47.54 203.88 45.65 C 199.58 47.57 195.34 49.64 190.95 51.35 C 189.00 52.59 186.06 48.56 189.12 48.11 C 195.38 45.76 201.38 42.74 207.79 40.81 M 207.24 44.34 C 207.24 44.97 207.23 46.23 207.23 46.86 C 211.22 48.10 214.67 44.01 216.33 40.83 C 213.23 41.82 210.24 43.11 207.24 44.34 Z" />
<path fill="#000000" opacity="1.00" d=" M 171.37 75.36 C 174.99 68.80 177.97 61.69 183.14 56.16 C 183.50 56.59 184.23 57.45 184.60 57.89 C 182.85 64.00 178.66 69.15 175.88 74.85 C 172.36 82.28 167.57 89.13 164.77 96.90 C 167.53 102.39 166.45 108.66 164.25 114.16 C 162.21 119.04 160.19 124.13 156.44 128.00 L 152.91 128.00 C 150.59 125.63 149.97 122.14 150.90 119.01 C 153.44 109.36 158.46 100.62 162.35 91.50 C 158.17 93.47 154.83 97.60 150.05 97.99 C 146.49 98.11 144.94 94.58 144.86 91.55 C 142.55 92.84 140.44 94.47 138.01 95.50 C 134.91 95.47 134.81 91.74 134.00 89.55 C 129.97 92.93 126.18 98.54 120.23 97.77 C 115.31 96.36 117.60 90.08 117.47 86.40 C 114.61 87.77 111.52 88.95 109.22 91.22 C 107.09 94.39 106.43 98.93 102.53 100.60 C 99.65 102.36 95.86 98.58 97.69 95.68 C 99.47 92.99 102.47 91.44 104.59 89.05 C 101.01 86.91 97.14 88.46 93.42 89.15 C 95.12 85.99 98.62 84.56 100.91 81.92 C 104.01 78.36 106.92 74.47 108.46 69.95 C 101.64 71.16 96.88 76.59 92.46 81.47 C 87.28 87.31 84.32 94.61 80.67 101.41 C 79.52 100.66 78.18 100.10 77.34 98.98 C 80.21 91.67 84.90 85.12 86.98 77.48 C 84.71 79.47 83.24 82.13 81.60 84.61 C 75.87 93.75 67.36 101.26 57.31 105.30 C 51.86 107.59 45.37 110.35 39.64 107.36 C 35.37 105.32 34.76 99.90 35.87 95.80 C 36.69 90.32 41.16 86.55 44.61 82.59 C 47.26 79.31 51.61 78.01 55.69 78.09 C 57.87 78.56 60.89 80.29 60.23 82.92 C 58.98 87.48 55.73 92.23 50.85 93.24 C 52.26 88.51 58.77 85.44 56.24 79.80 C 52.63 80.95 48.94 82.45 46.42 85.41 C 43.46 88.93 39.94 92.42 38.97 97.08 C 38.22 100.70 40.98 105.15 45.00 104.75 C 51.84 104.56 58.39 101.82 64.06 98.11 C 76.10 89.94 83.72 77.13 90.85 64.79 C 91.76 63.54 92.78 61.25 94.67 62.32 C 97.40 67.38 93.01 72.42 92.05 77.35 C 95.72 75.34 97.65 71.38 101.08 69.07 C 104.46 66.75 108.36 63.79 112.68 65.40 C 113.87 73.07 107.12 78.32 103.29 84.00 C 104.25 85.76 106.56 88.48 108.77 87.08 C 112.26 85.20 115.83 83.36 119.05 81.04 C 121.76 74.47 123.34 66.76 128.85 61.86 C 131.38 59.35 135.75 61.56 135.56 65.02 C 135.28 73.34 127.28 77.72 122.74 83.67 C 121.38 86.95 121.87 90.75 121.64 94.25 C 128.44 89.88 134.14 84.06 140.13 78.70 C 143.49 79.09 142.37 83.11 141.04 85.01 C 139.95 86.66 138.21 91.01 141.86 90.31 C 145.50 87.70 147.50 83.55 150.19 80.09 C 150.78 81.09 151.31 82.13 151.80 83.19 C 151.12 86.83 148.75 90.25 149.84 94.07 C 151.89 93.59 153.94 92.94 155.72 91.78 C 162.19 87.73 167.68 82.06 171.37 75.36 M 130.63 63.05 C 127.86 68.34 124.86 73.58 122.84 79.21 C 126.98 75.45 129.77 70.42 132.55 65.64 C 133.45 64.07 131.65 63.68 130.63 63.05 M 161.50 103.58 C 158.58 109.59 155.58 115.74 154.69 122.44 C 158.09 121.92 158.99 118.07 160.62 115.57 C 162.68 110.88 164.96 105.68 163.89 100.47 C 162.86 101.31 162.03 102.35 161.50 103.58 Z" />
<path fill="#000000" opacity="1.00" d=" M 194.32 58.16 C 196.58 56.85 197.04 59.98 196.32 61.49 C 192.51 72.85 186.29 83.23 181.93 94.36 C 183.86 95.52 186.38 96.61 186.78 99.12 C 187.52 105.34 184.86 111.43 181.66 116.61 C 179.88 118.87 177.60 121.83 174.41 121.62 C 170.73 120.28 169.02 115.62 170.13 112.01 C 171.59 106.24 175.35 101.27 176.22 95.30 C 177.46 94.15 178.86 93.05 179.50 91.42 C 182.42 85.00 185.30 78.57 188.17 72.14 C 190.13 67.43 193.26 63.23 194.32 58.16 M 180.50 97.07 C 178.28 102.42 175.68 107.63 174.02 113.19 C 173.32 114.73 173.54 116.40 173.81 118.02 C 180.10 114.81 183.57 107.76 184.46 100.99 C 184.65 98.69 182.35 97.60 180.50 97.07 Z" />
</g>
</svg>
