<?xml version="1.0" encoding="UTF-8" ?>
<!DOCTYPE svg PUBLIC "-//W3C//DTD SVG 1.1//EN" "http://www.w3.org/Graphics/SVG/1.1/DTD/svg11.dtd">
<svg width="256pt" height="256pt" viewBox="0 0 256 256" version="1.1" xmlns="http://www.w3.org/2000/svg">
<g id="#000000ff">
<path fill="#000000" opacity="1.00" d=" M 221.40 44.27 C 223.56 43.09 224.76 46.15 225.31 47.77 C 227.25 54.64 228.31 62.20 226.15 69.13 C 224.24 74.63 215.96 71.23 214.88 66.76 C 217.36 67.36 219.69 68.43 222.10 69.26 C 225.08 62.70 224.83 55.00 222.82 48.19 C 219.88 52.21 217.45 56.58 214.86 60.84 C 210.12 68.86 207.39 78.10 201.31 85.30 C 199.63 87.47 196.36 86.75 194.24 85.73 C 190.01 82.21 191.00 76.25 191.23 71.41 C 190.04 72.27 188.95 73.34 188.63 74.82 C 186.60 81.22 184.24 87.75 180.09 93.10 C 177.85 95.75 174.36 94.72 171.71 93.45 C 170.29 96.59 169.01 100.28 165.36 101.41 C 161.79 103.87 158.46 99.69 157.23 96.66 C 153.96 90.47 156.73 82.85 153.29 76.80 C 148.61 80.23 143.97 83.74 139.50 87.44 C 138.30 88.25 138.35 89.79 137.93 91.01 C 135.80 91.25 133.65 91.39 131.51 91.18 C 133.00 86.53 138.25 85.54 141.29 82.27 C 145.25 78.42 150.50 76.07 154.12 71.87 C 154.60 68.44 154.02 64.92 152.83 61.69 C 153.87 61.41 154.92 61.14 155.97 60.87 C 157.79 63.31 157.84 66.37 157.91 69.28 C 166.78 63.44 176.66 59.33 185.19 52.95 C 187.17 51.90 187.67 54.59 188.48 55.76 C 182.92 59.21 177.02 62.07 171.45 65.50 C 167.12 68.14 162.24 70.04 158.53 73.58 C 157.79 76.01 158.31 78.59 158.36 81.08 C 158.92 87.31 159.25 93.84 162.42 99.41 C 165.41 97.22 166.64 93.53 168.48 90.46 C 171.53 85.20 168.94 78.54 172.34 73.42 C 174.18 70.73 178.90 71.77 179.28 75.07 C 179.69 79.78 177.01 83.87 174.27 87.42 C 172.93 89.07 175.21 90.63 175.94 91.97 C 183.07 86.33 183.55 76.41 186.52 68.45 C 189.05 67.09 192.60 67.66 195.15 68.92 C 196.78 69.52 195.94 71.51 195.89 72.75 C 195.45 75.86 194.83 79.16 195.88 82.21 C 197.37 84.02 199.51 81.83 200.59 80.60 C 206.31 72.65 210.09 63.54 215.10 55.16 C 217.31 51.59 219.18 47.83 221.40 44.27 M 174.18 74.88 C 172.62 77.77 172.66 81.18 172.36 84.38 C 174.98 82.59 177.11 79.46 176.73 76.21 C 176.45 74.74 175.60 74.29 174.18 74.88 Z" />
<path fill="#000000" opacity="1.00" d=" M 82.10 99.10 C 84.75 99.88 86.05 102.81 86.90 105.21 C 88.09 114.18 89.42 123.33 87.36 132.30 C 85.97 136.61 90.26 139.55 93.06 141.98 C 96.02 138.10 98.19 133.71 100.36 129.36 C 101.88 126.54 101.04 123.25 101.44 120.20 C 101.69 115.70 104.22 111.22 108.32 109.19 C 110.24 108.35 111.92 109.80 113.25 111.00 C 110.91 112.51 108.27 113.60 106.39 115.74 C 106.86 116.33 107.79 117.52 108.26 118.11 C 104.31 122.66 104.00 129.28 106.05 134.74 C 109.06 133.35 109.33 129.82 109.71 126.95 C 110.12 124.02 109.76 121.05 110.10 118.13 C 110.61 116.23 112.80 116.10 114.39 116.43 C 114.96 120.41 113.84 125.06 116.17 128.53 C 119.86 129.40 120.62 125.13 121.59 122.61 C 124.46 115.90 124.75 108.50 126.79 101.57 C 130.64 101.94 130.51 105.66 130.99 108.59 C 133.62 105.74 133.90 100.84 138.02 99.46 C 141.50 101.22 141.18 106.87 145.05 108.51 C 148.03 108.83 148.81 105.22 150.90 103.79 C 151.69 107.28 149.19 112.19 145.24 111.83 C 141.96 110.35 140.34 106.81 137.93 104.31 C 133.92 108.06 132.72 113.59 132.08 118.82 C 132.03 120.49 130.30 120.84 129.10 121.42 C 128.33 120.00 127.60 118.56 126.85 117.14 C 124.04 121.39 123.33 127.03 119.37 130.46 C 117.30 132.48 114.79 130.60 112.85 129.44 C 111.72 133.33 110.27 137.65 105.89 138.85 C 104.25 137.08 103.07 134.97 101.83 132.92 C 99.80 136.43 98.93 141.05 95.35 143.38 C 91.45 145.24 88.07 141.79 85.68 139.15 C 82.59 145.54 79.16 152.22 73.45 156.65 C 71.05 159.01 66.79 156.91 66.74 153.67 C 68.55 154.17 70.29 154.87 72.02 155.57 C 78.08 150.66 81.36 143.38 83.89 136.20 C 80.18 129.06 79.35 120.93 78.32 113.08 C 77.94 108.30 77.89 102.30 82.10 99.10 M 82.81 104.93 C 82.81 110.62 82.31 116.34 83.16 122.00 C 83.54 124.55 83.68 127.33 85.48 129.36 C 87.39 120.52 86.69 111.25 84.03 102.65 C 83.73 103.22 83.12 104.36 82.81 104.93 Z" />
<path fill="#000000" opacity="1.00" d=" M 226.79 105.83 C 227.50 105.93 228.93 106.14 229.64 106.24 C 229.88 113.26 229.66 120.70 225.90 126.88 C 224.25 129.33 221.98 131.74 218.97 132.33 C 217.59 132.68 216.23 131.51 215.86 130.24 C 214.40 126.13 214.75 121.43 212.29 117.68 C 210.38 119.28 208.35 120.96 207.55 123.43 C 206.00 127.84 204.23 132.23 203.52 136.88 C 203.39 138.26 202.74 139.48 202.13 140.70 C 200.78 139.59 198.43 138.89 198.39 136.81 C 197.75 132.07 198.77 126.19 194.80 122.66 C 193.33 129.31 192.39 136.10 192.47 142.92 C 192.61 145.99 191.02 148.71 189.00 150.88 C 187.81 149.84 186.68 148.76 185.54 147.68 C 185.01 150.90 185.07 156.06 180.86 156.63 C 176.92 157.14 176.03 152.19 174.61 149.55 C 171.96 153.85 170.42 158.68 169.58 163.64 C 168.15 163.49 166.20 164.24 165.34 162.66 C 163.67 159.96 163.26 156.70 161.89 153.85 C 158.55 158.18 160.69 164.77 156.90 168.94 C 154.98 171.05 151.82 169.07 151.53 166.64 C 149.74 158.73 149.67 149.94 153.68 142.67 C 155.05 139.94 158.49 137.68 161.43 139.55 C 163.25 141.70 161.11 144.87 163.10 146.89 C 165.77 150.29 164.07 155.81 167.76 158.56 C 169.86 151.17 171.85 143.65 172.00 135.92 C 173.28 136.23 175.06 135.97 175.51 137.58 C 177.06 141.97 176.32 147.02 179.06 151.05 C 184.08 146.20 179.95 138.46 181.81 132.48 C 183.51 133.11 186.25 133.60 185.84 136.06 C 185.58 139.55 186.33 143.05 188.10 146.08 C 190.10 138.65 188.51 130.57 191.40 123.33 C 192.24 121.30 194.33 118.61 196.81 119.71 C 199.00 121.43 200.15 124.04 201.68 126.30 C 204.08 122.82 205.05 118.17 208.83 115.81 C 210.39 114.72 212.79 113.97 214.23 115.68 C 217.56 118.64 217.39 123.43 218.04 127.48 C 220.97 126.67 221.75 123.41 223.15 121.09 C 225.83 116.44 226.26 111.04 226.79 105.83 M 155.37 146.18 C 153.61 151.66 152.76 157.58 154.09 163.25 C 156.96 162.46 156.82 158.96 157.40 156.61 C 158.23 152.71 157.55 148.01 160.59 144.98 C 160.33 144.22 159.81 142.71 159.55 141.96 C 157.38 142.37 156.01 144.18 155.37 146.18 Z" />
<path fill="#000000" opacity="1.00" d=" M 24.68 118.68 C 30.68 112.90 38.71 109.38 46.97 108.61 C 51.63 108.68 56.72 107.63 60.96 110.11 C 64.47 111.94 67.83 114.84 68.36 118.99 C 69.54 127.92 65.51 136.99 59.13 143.13 C 55.99 146.31 52.01 148.41 48.35 150.92 C 49.72 157.93 53.12 164.30 55.04 171.14 C 52.99 172.20 50.76 172.82 48.60 173.59 C 46.71 174.82 44.88 176.13 42.86 177.13 C 42.03 175.79 41.23 174.43 40.54 173.02 C 44.37 172.47 47.74 170.58 51.07 168.72 C 48.12 157.45 43.96 146.56 40.63 135.42 C 39.78 132.49 37.00 130.02 37.82 126.77 C 39.88 128.21 41.54 130.23 42.17 132.70 C 43.47 137.40 45.23 141.96 47.11 146.46 C 56.48 144.43 63.46 135.89 65.46 126.76 C 66.67 121.69 64.63 115.64 59.70 113.35 C 56.10 111.77 52.06 111.23 48.15 111.37 C 40.99 112.99 33.63 115.01 27.98 119.96 C 22.15 123.64 18.49 129.69 15.67 135.81 C 14.32 139.47 12.19 144.28 15.54 147.52 C 19.67 151.28 25.84 149.65 30.41 147.62 C 31.99 146.74 32.81 148.68 33.43 149.75 C 28.81 151.16 24.00 153.40 19.07 152.23 C 15.20 151.31 11.31 148.15 11.34 143.87 C 10.94 133.72 17.64 125.23 24.68 118.68 Z" />
<path fill="#000000" opacity="1.00" d=" M 119.46 159.22 C 123.21 152.69 120.96 144.37 124.91 138.01 C 129.60 139.30 132.74 143.61 133.85 148.17 C 134.86 151.43 133.88 154.79 133.54 158.07 C 139.48 157.87 146.04 161.69 146.62 168.04 C 146.76 172.06 147.95 177.38 144.20 180.18 C 140.29 183.35 134.02 179.77 134.10 174.95 C 134.09 170.47 136.87 166.40 140.15 163.56 C 140.92 166.63 137.60 168.40 137.04 171.23 C 135.73 173.85 136.23 178.61 139.98 178.46 C 143.27 177.11 143.44 173.00 143.52 169.96 C 143.88 165.80 140.40 161.26 136.06 161.47 C 131.95 163.14 131.22 168.18 129.17 171.64 C 128.28 171.48 126.49 171.16 125.60 170.99 C 125.50 165.79 128.80 161.30 129.19 156.14 C 129.61 151.67 131.37 145.77 127.25 142.50 C 120.06 158.14 122.38 175.69 119.72 192.24 C 118.57 191.89 116.59 192.19 116.41 190.56 C 115.42 187.22 115.00 183.71 115.20 180.23 C 115.72 171.19 115.87 162.08 114.88 153.07 C 114.72 150.79 113.54 148.72 111.47 147.69 C 110.66 165.57 110.12 183.61 106.18 201.15 C 104.96 205.67 102.72 209.83 101.20 214.26 C 100.47 216.66 98.54 218.68 95.91 218.72 C 90.04 220.04 84.80 215.74 81.87 211.07 C 76.37 203.31 75.80 193.37 76.39 184.21 C 77.30 180.72 78.47 177.27 79.88 173.96 C 80.79 171.51 83.99 170.48 86.22 171.79 C 90.82 174.14 92.30 179.96 92.14 184.74 C 91.68 184.69 90.77 184.59 90.32 184.55 C 87.95 180.71 89.39 174.21 84.14 172.59 C 79.17 179.54 78.47 188.55 79.41 196.79 C 80.45 203.89 83.16 211.45 89.39 215.60 C 91.23 216.96 94.12 217.84 95.91 215.91 C 98.50 213.09 99.87 209.39 100.84 205.74 C 105.10 188.79 109.01 171.55 109.19 153.99 C 109.29 150.50 108.81 146.92 109.94 143.55 C 111.50 144.00 113.41 144.18 114.33 145.73 C 117.26 149.67 118.01 154.65 119.46 159.22 Z" />
</g>
</svg>
