<?xml version="1.0" encoding="UTF-8" ?>
<!DOCTYPE svg PUBLIC "-//W3C//DTD SVG 1.1//EN" "http://www.w3.org/Graphics/SVG/1.1/DTD/svg11.dtd">
<svg width="512pt" height="128pt" viewBox="0 0 512 128" version="1.1" xmlns="http://www.w3.org/2000/svg">
<g id="#000000ff">
<path fill="#000000" opacity="1.00" d=" M 177.00 23.91 C 183.88 16.86 191.79 10.66 197.06 2.22 C 198.55 3.71 200.09 5.71 199.23 7.94 C 195.76 22.49 190.34 36.99 180.55 48.54 C 177.77 51.13 173.98 53.62 170.02 52.25 C 163.58 51.31 159.09 46.28 154.10 42.81 C 149.95 45.00 146.15 47.80 142.02 50.03 C 133.01 54.97 124.71 61.22 115.19 65.19 C 112.60 66.38 109.34 66.90 106.98 64.92 C 102.72 61.55 102.42 55.10 104.56 50.44 C 106.99 44.41 111.38 39.40 116.69 35.72 C 121.69 31.38 127.69 28.43 134.00 26.55 C 138.19 27.11 141.51 31.59 139.88 35.73 C 139.06 37.58 138.83 40.92 136.15 40.75 C 136.61 37.76 138.49 35.09 138.47 32.03 C 138.51 29.53 135.37 28.92 133.50 29.63 C 124.93 32.78 116.89 37.97 111.19 45.17 C 108.13 49.73 104.95 55.10 106.31 60.82 C 106.43 62.62 108.32 63.75 110.00 63.18 C 118.00 61.46 124.34 55.93 131.68 52.68 C 135.10 51.25 137.94 48.81 141.31 47.31 C 145.28 45.63 148.21 42.19 152.41 40.94 C 152.37 38.58 152.09 36.22 152.09 33.85 C 154.45 34.22 156.44 35.58 158.22 37.10 C 161.68 34.95 164.63 32.05 168.30 30.25 C 171.74 28.92 173.72 25.55 177.00 23.91 M 187.27 16.28 C 181.49 22.91 174.39 28.15 167.58 33.64 C 164.33 36.29 160.56 38.15 156.93 40.21 C 157.36 41.58 157.77 43.08 159.01 43.96 C 162.90 47.05 167.78 49.61 172.90 48.95 C 178.02 47.07 181.11 42.20 183.68 37.67 C 188.86 28.96 193.29 19.61 195.09 9.57 C 191.80 10.87 189.66 13.83 187.27 16.28 Z" />
<path fill="#000000" opacity="1.00" d=" M 293.26 8.19 C 295.22 7.12 295.93 9.62 296.41 11.04 C 297.01 14.89 294.91 18.38 293.94 21.98 C 292.14 28.51 287.64 33.79 285.00 39.96 C 287.30 39.74 289.54 39.04 291.86 39.02 C 294.95 39.85 297.18 43.46 295.68 46.51 C 294.50 50.91 290.04 53.23 285.86 53.97 C 282.57 55.05 279.59 52.33 277.77 49.90 C 277.76 47.73 278.54 45.65 278.91 43.53 C 271.76 46.50 264.87 53.96 256.51 50.64 C 254.84 49.72 253.34 51.14 251.93 51.87 C 248.07 54.27 243.65 56.33 239.04 56.25 C 236.31 56.07 235.34 53.28 234.69 51.08 C 231.85 53.25 228.53 54.80 225.02 55.52 C 222.54 54.29 222.42 51.17 221.67 48.85 C 218.13 50.80 215.69 54.38 211.86 55.87 C 207.58 55.68 209.10 50.07 209.12 47.29 C 205.26 50.82 201.36 54.67 196.17 56.09 C 192.79 52.64 194.29 47.28 196.70 43.71 C 200.73 38.43 205.63 33.29 212.16 31.30 C 215.62 31.32 216.42 35.27 215.71 38.00 C 216.61 42.71 212.43 46.25 212.29 50.81 C 218.57 47.52 223.27 41.97 227.37 36.32 C 229.40 35.38 229.72 38.35 229.71 39.74 C 228.08 43.51 225.42 46.91 224.91 51.11 C 228.63 51.29 231.45 48.30 234.17 46.18 C 237.26 43.71 238.73 39.98 239.35 36.17 C 241.17 34.79 241.88 37.87 242.45 39.04 C 242.23 43.81 238.26 47.56 238.48 52.33 C 243.87 52.09 249.32 49.99 253.05 46.02 C 255.99 41.91 256.19 36.54 255.29 31.72 C 257.70 32.27 257.68 35.01 258.11 36.94 C 259.05 40.73 257.40 44.42 256.70 48.10 C 260.59 49.46 264.67 47.77 268.22 46.20 C 273.90 42.41 279.92 38.65 284.09 33.12 C 288.51 25.38 290.80 16.69 293.26 8.19 M 196.91 51.35 C 201.68 49.54 206.24 46.10 208.44 41.39 C 209.61 39.24 211.15 37.29 212.04 35.00 C 205.22 38.28 199.50 44.17 196.91 51.35 M 283.18 45.87 C 284.45 46.42 285.74 46.95 287.03 47.47 C 285.58 48.29 284.01 49.02 283.02 50.42 C 288.45 51.38 292.91 46.88 292.98 41.63 C 289.44 42.19 285.69 43.12 283.18 45.87 Z" />
<path fill="#000000" opacity="1.00" d=" M 312.63 34.48 C 316.54 35.02 320.25 33.18 324.15 33.30 C 326.16 33.29 328.97 32.62 329.76 35.12 C 331.47 37.20 331.13 39.76 330.64 42.21 C 333.37 40.33 336.18 38.57 339.13 37.04 C 342.76 41.69 336.35 45.81 337.18 50.82 C 341.38 51.89 345.02 48.72 349.05 48.05 C 350.31 43.08 352.13 37.20 357.68 35.64 C 361.50 33.68 363.91 39.40 362.29 42.29 C 360.41 45.52 356.51 46.59 353.93 49.07 C 353.68 51.67 357.14 51.43 358.86 50.96 C 364.94 49.23 371.59 46.81 375.17 41.25 C 376.01 40.05 376.78 38.49 378.48 38.40 C 377.53 41.78 376.23 45.16 373.76 47.74 C 371.63 50.60 368.05 51.49 364.99 52.94 C 362.13 54.09 359.20 55.31 356.11 55.58 C 353.47 55.38 351.90 52.89 350.05 51.32 C 345.96 52.31 342.19 54.48 337.99 55.00 C 336.13 55.22 335.38 53.31 334.87 51.90 C 333.62 48.71 335.33 45.52 336.10 42.46 C 330.51 44.45 328.79 51.53 323.13 53.27 C 322.85 52.66 322.29 51.44 322.00 50.83 C 323.32 45.75 327.26 41.66 328.01 36.38 C 323.34 35.88 318.74 36.90 314.16 37.56 C 314.10 40.28 314.23 43.05 313.67 45.73 C 312.13 49.19 309.79 52.49 306.56 54.55 C 304.99 55.68 303.03 53.56 303.26 51.95 C 303.47 48.23 305.21 44.84 306.49 41.40 C 307.44 38.25 310.74 36.95 312.63 34.48 M 353.78 44.45 C 356.48 43.78 359.34 42.16 359.95 39.21 C 357.03 39.64 354.55 41.54 353.78 44.45 M 307.37 48.62 C 310.04 47.40 311.05 44.50 311.90 41.92 C 309.32 43.17 308.32 46.13 307.37 48.62 Z" />
<path fill="#000000" opacity="1.00" d=" M 208.20 64.24 C 212.39 61.75 216.64 58.04 221.88 58.94 C 224.54 60.11 226.96 61.98 228.70 64.32 C 231.27 67.98 230.41 72.69 229.98 76.84 C 229.09 84.51 224.33 90.88 219.95 96.93 C 214.31 101.58 209.38 108.00 202.01 109.85 C 197.39 109.68 197.04 103.87 196.27 100.42 C 193.56 103.75 190.22 106.51 187.77 110.05 C 189.64 113.30 193.08 115.84 197.00 115.23 C 204.55 113.91 211.20 109.68 217.42 105.41 C 219.81 103.56 222.83 102.02 223.95 99.02 C 226.73 91.74 229.64 84.42 233.76 77.77 C 237.01 73.90 240.77 70.38 244.90 67.47 C 245.61 68.68 246.49 69.82 246.94 71.17 C 246.62 75.29 244.63 79.01 242.38 82.39 C 238.61 89.02 234.58 95.75 228.59 100.64 C 225.65 102.74 225.87 106.67 226.05 109.87 C 231.84 112.45 237.43 108.66 242.67 106.56 C 243.35 103.68 243.91 100.75 245.02 97.99 C 246.45 94.09 249.97 91.14 253.89 89.95 C 255.66 91.34 258.41 93.33 257.33 95.89 C 255.65 101.57 248.92 103.22 246.64 108.49 C 252.23 106.83 256.56 102.52 260.10 98.06 C 263.25 94.16 267.38 90.92 272.14 89.26 C 274.67 88.71 275.96 91.46 277.14 93.15 C 275.47 95.18 273.14 94.61 270.96 93.94 C 271.34 95.60 272.07 97.22 272.08 98.95 C 271.26 101.74 270.13 104.45 269.69 107.35 C 276.32 104.10 281.22 98.44 286.20 93.17 C 289.39 89.69 294.68 95.16 292.94 98.78 C 291.87 101.32 290.43 103.70 289.52 106.31 C 298.21 103.05 305.12 96.37 311.25 89.59 C 311.91 90.90 313.09 92.18 312.80 93.77 C 311.74 97.09 309.60 99.96 308.63 103.31 C 315.24 99.79 320.80 94.51 326.02 89.20 C 326.97 90.04 327.92 90.89 328.87 91.73 C 330.36 91.43 332.19 90.04 333.57 91.33 C 335.00 94.57 333.14 98.01 332.73 101.28 C 336.27 100.63 339.99 99.15 341.70 95.74 C 344.81 90.00 350.03 84.66 356.83 84.00 C 358.63 84.79 360.70 87.25 359.29 89.24 C 357.82 92.29 356.75 95.51 355.56 98.68 C 357.63 99.82 359.63 101.29 359.72 103.88 C 356.10 105.68 351.69 106.98 350.19 111.18 C 346.03 116.45 343.47 122.73 339.31 128.00 L 338.03 128.00 C 336.07 125.93 334.92 123.14 335.44 120.27 C 335.98 113.07 342.33 108.39 347.91 104.80 C 351.06 103.32 351.48 99.55 352.43 96.60 C 348.60 98.21 346.33 101.73 343.35 104.40 C 341.63 105.94 339.64 103.84 338.02 103.18 C 336.00 104.04 333.18 105.82 331.38 103.63 C 329.91 101.47 330.25 98.64 329.76 96.19 C 326.22 99.04 325.21 104.07 321.14 106.35 C 319.66 104.02 320.30 101.40 320.92 98.93 C 317.03 102.63 312.83 106.10 307.95 108.40 C 304.62 107.99 305.27 103.75 304.76 101.36 C 300.34 104.43 296.17 107.92 291.27 110.23 C 289.02 111.61 286.30 109.03 286.35 106.72 C 286.20 102.73 288.98 99.46 289.94 95.72 C 286.14 97.87 283.71 101.65 280.31 104.29 C 276.88 107.00 274.24 110.91 269.99 112.42 C 266.69 112.03 266.62 108.12 265.77 105.67 C 263.78 107.10 261.97 108.80 259.80 109.97 C 258.11 110.59 256.50 109.38 254.92 108.97 C 252.74 110.34 250.61 111.92 248.08 112.56 C 246.20 111.91 244.66 110.58 243.01 109.52 C 239.08 111.98 234.70 113.93 230.04 114.30 C 225.87 113.78 223.89 109.59 222.01 106.36 C 215.30 111.80 207.73 116.96 199.00 118.22 C 193.53 119.12 189.36 114.92 185.86 111.40 C 181.64 117.04 175.66 120.80 170.39 125.31 C 168.81 126.51 166.85 128.42 165.15 126.25 C 172.20 121.18 179.43 115.82 184.66 108.88 C 180.86 97.76 185.92 85.67 193.08 77.05 C 197.79 72.42 202.43 67.56 208.20 64.24 M 196.05 79.06 C 193.77 81.54 192.27 84.60 190.46 87.42 C 186.88 92.88 186.32 99.63 186.23 105.98 C 187.52 106.05 188.74 105.59 189.56 104.56 C 193.40 100.61 197.11 96.36 199.42 91.32 C 200.81 90.40 201.43 92.24 201.97 93.15 C 201.32 97.79 198.88 102.34 200.14 107.11 C 203.19 106.75 205.87 105.14 208.21 103.24 C 212.04 100.09 215.77 96.78 219.13 93.10 C 225.21 86.29 229.07 77.21 228.41 67.98 C 227.97 63.22 222.46 60.31 218.20 62.34 C 209.86 66.49 202.73 72.64 196.05 79.06 M 235.54 82.58 C 233.49 85.90 231.41 89.35 230.75 93.27 C 234.45 90.38 237.08 86.42 239.49 82.46 C 240.84 80.22 242.56 78.00 242.64 75.26 C 239.49 76.80 237.44 79.76 235.54 82.58 M 352.46 88.99 C 351.60 89.53 350.06 90.47 350.48 91.68 C 352.16 92.65 355.69 88.28 352.46 88.99 M 247.95 101.80 C 250.54 99.88 253.45 97.82 254.35 94.53 C 250.77 95.19 248.63 98.46 247.95 101.80 M 261.47 103.24 C 264.49 101.81 266.88 99.30 268.41 96.35 C 265.08 97.22 262.95 100.35 261.47 103.24 M 338.77 122.32 C 342.02 119.09 344.39 114.98 346.14 110.76 C 341.87 112.67 338.13 117.40 338.77 122.32 Z" />
<path fill="#000000" opacity="1.00" d=" M 311.91 77.90 C 313.61 76.43 314.71 78.83 315.20 80.11 C 315.52 81.93 313.57 82.63 312.18 82.93 C 311.70 81.29 311.03 79.54 311.91 77.90 Z" />
</g>
</svg>
