<?xml version="1.0" encoding="UTF-8" ?>
<!DOCTYPE svg PUBLIC "-//W3C//DTD SVG 1.1//EN" "http://www.w3.org/Graphics/SVG/1.1/DTD/svg11.dtd">
<svg width="256pt" height="128pt" viewBox="0 0 256 128" version="1.1" xmlns="http://www.w3.org/2000/svg">
<g id="#000000ff">
<path fill="#000000" opacity="1.00" d=" M 164.61 12.60 C 165.87 9.34 168.92 7.42 171.97 6.09 C 174.18 7.82 177.29 9.12 178.02 12.11 C 178.89 16.06 177.49 20.14 175.54 23.56 C 171.81 31.08 167.32 38.37 161.06 44.06 C 158.02 46.91 154.86 51.39 150.10 50.42 C 149.03 49.77 148.13 48.91 147.18 48.12 C 144.56 49.74 142.00 51.63 139.01 52.50 C 136.60 52.90 135.13 50.55 133.55 49.18 C 131.08 49.95 128.82 51.17 126.83 52.82 C 124.37 54.72 121.24 53.18 119.02 51.67 C 115.05 52.94 111.36 55.29 107.20 55.82 C 102.43 54.41 98.98 50.54 95.82 46.91 C 99.33 44.69 103.44 43.39 106.47 40.44 C 110.62 36.42 115.04 31.68 115.18 25.55 C 112.39 25.57 110.36 27.69 108.44 29.45 C 102.97 34.77 98.61 41.09 94.31 47.36 C 91.91 50.76 90.61 54.83 87.93 58.05 C 86.92 57.49 85.99 56.82 85.14 56.03 C 87.86 50.59 91.87 45.88 94.27 40.27 C 96.19 35.66 98.58 31.21 99.74 26.33 C 90.79 35.61 84.40 47.11 75.21 56.21 C 67.97 63.46 59.26 70.14 48.99 72.07 C 41.29 70.99 36.51 61.89 38.94 54.75 C 42.90 46.01 50.37 38.91 59.28 35.36 C 63.46 33.81 67.99 37.65 67.60 41.99 C 67.45 45.47 66.46 50.19 62.63 51.30 C 62.91 46.78 66.55 42.68 64.72 38.05 C 62.40 37.28 59.84 37.39 57.78 38.80 C 51.65 42.76 45.71 47.74 42.66 54.54 C 40.69 58.95 40.76 64.90 44.82 68.13 C 47.80 70.43 51.48 68.50 54.59 67.57 C 65.07 62.45 74.76 55.06 81.16 45.18 C 84.32 40.44 88.17 36.22 91.99 32.00 C 95.89 27.80 99.05 22.96 103.11 18.90 C 103.67 20.09 105.11 21.21 104.48 22.67 C 103.60 25.77 102.44 28.80 101.67 31.93 C 105.57 29.06 108.73 25.08 113.22 23.10 C 116.82 21.62 119.03 26.84 117.91 29.68 C 115.04 37.93 108.43 45.01 100.15 47.98 C 102.25 50.59 105.38 52.90 108.93 52.11 C 113.76 51.14 119.03 48.21 120.22 43.05 C 121.06 39.82 123.06 36.71 126.15 35.27 C 128.73 35.18 131.22 38.20 129.99 40.72 C 129.39 44.02 126.01 45.06 123.43 46.42 C 121.86 47.13 121.59 50.87 123.94 50.47 C 126.89 49.49 129.43 47.64 132.11 46.12 C 134.56 45.05 134.72 42.07 136.03 40.04 C 137.55 37.64 139.36 35.09 142.07 33.96 C 144.98 33.54 146.49 37.55 144.91 39.63 C 142.97 42.77 139.93 44.88 137.18 47.21 L 137.68 48.29 C 142.59 47.71 147.68 44.76 150.61 40.59 C 152.53 38.02 155.54 36.76 158.24 35.23 C 160.25 34.32 159.54 31.76 159.86 30.02 C 160.04 23.91 162.33 18.17 164.61 12.60 M 167.93 15.05 C 165.57 21.45 163.22 28.13 163.75 35.07 C 167.61 31.94 169.60 27.21 172.00 22.98 C 174.15 18.90 176.31 13.41 173.10 9.29 C 170.50 10.29 168.83 12.50 167.93 15.05 M 137.50 43.75 C 139.94 41.83 143.16 39.98 143.40 36.52 C 140.27 37.63 138.78 40.94 137.50 43.75 M 125.30 38.11 C 124.19 40.23 123.11 42.37 122.29 44.62 C 124.65 43.02 127.07 41.18 127.96 38.34 C 127.30 38.28 125.97 38.17 125.30 38.11 M 151.25 46.45 C 154.80 45.09 157.93 42.64 159.98 39.42 C 155.42 38.83 152.51 42.58 151.25 46.45 Z" />
<path fill="#000000" opacity="1.00" d=" M 74.85 74.87 C 79.11 69.10 85.15 64.61 92.10 62.69 C 95.54 62.61 98.25 65.18 100.60 67.39 C 103.61 70.38 105.55 75.30 103.19 79.24 C 100.48 83.43 98.19 88.06 94.19 91.23 C 91.78 93.19 88.86 96.44 85.46 94.55 C 82.05 92.90 82.46 88.67 82.02 85.53 C 77.65 88.96 73.74 92.91 69.54 96.54 C 66.74 98.34 68.35 102.81 70.97 103.99 C 74.53 106.30 78.77 105.07 82.61 104.38 C 86.43 103.76 89.88 101.91 93.51 100.65 C 96.50 99.48 99.82 98.52 102.02 96.02 C 103.54 94.30 103.77 91.76 105.41 90.16 C 106.48 88.83 108.73 89.45 108.90 91.15 C 109.36 94.63 110.95 98.55 108.77 101.77 C 107.18 104.88 103.92 106.52 101.80 109.20 C 100.62 108.41 98.94 108.00 98.38 106.56 C 98.12 104.62 98.81 102.71 98.98 100.79 C 92.67 104.78 85.43 107.42 78.01 108.31 C 72.30 109.04 67.58 105.02 64.74 100.49 C 62.76 101.47 60.11 104.70 58.12 102.06 C 60.01 99.31 64.95 98.89 64.95 94.89 C 65.49 87.21 70.37 80.80 74.85 74.87 M 75.62 79.61 C 72.71 83.66 68.94 87.81 68.87 93.08 C 74.60 88.43 79.81 83.19 84.96 77.91 C 85.46 78.27 86.47 78.97 86.97 79.32 C 85.28 83.31 84.40 87.72 85.27 92.02 C 88.43 92.18 90.68 89.73 92.93 87.89 C 96.74 84.46 100.47 80.22 101.25 74.98 C 102.00 69.70 96.53 64.15 91.21 66.13 C 84.68 68.75 80.07 74.40 75.62 79.61 M 102.18 103.64 C 104.77 102.23 106.10 99.50 106.89 96.78 C 103.90 97.73 103.07 101.02 102.18 103.64 Z" />
<path fill="#000000" opacity="1.00" d=" M 128.16 70.74 C 129.82 70.07 130.82 71.42 131.11 72.91 C 130.17 76.76 127.94 80.09 126.60 83.79 C 130.04 83.21 133.53 82.77 136.90 81.82 C 139.58 79.94 140.23 76.36 142.22 73.87 C 143.67 72.92 144.65 75.12 145.70 75.76 C 144.89 77.38 144.07 78.98 143.29 80.61 C 148.04 80.48 152.64 79.38 157.26 78.44 C 156.64 79.69 156.84 81.64 155.50 82.40 C 150.47 83.38 145.43 84.33 140.40 85.30 C 137.70 89.44 134.46 95.09 136.91 100.04 C 140.80 98.95 144.55 97.24 147.69 94.68 C 150.59 92.43 151.07 88.28 154.12 86.14 C 156.85 84.06 159.51 81.50 162.98 80.77 C 166.37 81.25 167.28 85.85 165.17 88.19 C 163.04 91.06 161.09 94.42 161.92 98.15 C 164.53 97.48 168.02 96.97 168.93 93.97 C 171.49 87.75 176.19 82.47 182.05 79.18 C 183.89 81.14 186.98 82.27 187.78 85.00 C 186.47 88.31 184.53 91.33 183.34 94.69 C 186.72 93.95 190.89 93.91 193.54 91.53 C 195.02 87.39 197.66 83.28 202.08 81.92 C 204.68 81.88 206.73 84.40 205.73 86.92 C 205.56 91.63 200.19 92.33 197.49 95.18 C 197.61 97.53 200.58 96.16 201.91 95.89 C 206.29 94.38 210.81 93.10 214.89 90.90 C 218.82 88.45 218.79 83.46 218.58 79.39 C 221.04 79.34 222.49 81.84 222.29 84.07 C 221.80 88.57 219.95 93.61 215.39 95.40 C 210.04 97.41 204.92 100.55 199.10 100.88 C 196.01 101.06 194.84 97.68 193.17 95.72 C 187.91 98.17 180.05 98.72 178.48 105.43 C 175.84 110.39 174.34 116.21 169.74 119.82 C 166.44 118.98 164.39 114.76 165.51 111.44 C 167.20 103.88 175.94 101.40 179.14 94.87 C 174.65 97.52 170.02 100.04 164.98 101.46 C 161.02 102.43 158.91 98.24 157.89 95.17 C 155.64 96.99 153.78 99.38 151.07 100.54 C 150.06 100.01 149.07 99.47 148.09 98.91 C 144.96 100.67 141.98 103.79 138.06 102.97 C 133.92 103.03 132.98 98.25 131.83 95.21 C 127.13 97.87 123.95 102.76 118.95 105.13 C 116.69 105.46 115.65 102.81 115.42 100.99 C 115.31 96.22 118.10 92.14 119.61 87.79 C 116.40 87.24 113.16 87.51 109.99 88.11 C 109.18 86.84 108.44 85.51 108.38 83.97 C 112.78 84.05 117.44 85.28 121.70 84.01 C 124.43 79.88 126.24 75.27 128.16 70.74 M 173.73 93.41 C 177.93 91.56 182.92 89.02 183.29 83.80 C 179.15 85.84 175.09 88.76 173.73 93.41 M 159.06 86.07 C 156.25 88.88 153.46 91.92 151.89 95.62 C 156.04 93.78 158.98 89.93 161.83 86.50 C 162.70 84.21 159.92 84.94 159.06 86.07 M 196.88 92.24 C 198.40 91.38 199.92 90.50 201.27 89.38 C 202.06 87.74 202.62 85.99 203.19 84.26 C 199.68 85.48 198.39 89.21 196.88 92.24 M 124.56 87.60 C 121.12 90.80 120.26 95.76 118.67 100.00 C 124.38 96.38 129.92 92.17 133.73 86.49 C 130.67 86.77 127.57 86.94 124.56 87.60 M 167.98 115.56 C 171.49 113.63 172.75 109.30 174.22 105.82 C 170.79 107.93 168.86 111.74 167.98 115.56 Z" />
</g>
</svg>
