<?xml version="1.0" encoding="UTF-8" ?>
<!DOCTYPE svg PUBLIC "-//W3C//DTD SVG 1.1//EN" "http://www.w3.org/Graphics/SVG/1.1/DTD/svg11.dtd">
<svg width="512pt" height="128pt" viewBox="0 0 512 128" version="1.1" xmlns="http://www.w3.org/2000/svg">
<g id="#000000ff">
<path fill="#000000" opacity="1.00" d=" M 77.42 34.70 C 82.34 33.46 87.44 35.66 91.15 38.81 C 95.69 42.80 95.92 49.43 95.29 55.00 C 94.00 62.47 90.72 69.86 84.99 74.99 C 78.37 81.14 70.69 86.46 61.92 89.01 C 58.05 89.80 53.03 90.24 50.44 86.56 C 48.59 83.74 46.28 79.83 48.53 76.62 C 50.61 72.73 49.05 68.15 49.62 63.98 C 51.86 53.05 57.97 42.25 68.35 37.27 C 71.27 36.09 74.38 35.48 77.42 34.70 M 60.91 45.92 C 54.77 52.63 50.89 61.90 51.69 71.05 C 53.25 70.37 54.79 69.64 56.40 69.06 C 55.18 71.00 53.27 72.34 51.86 74.13 C 52.00 76.42 53.03 78.54 53.56 80.75 C 52.34 79.69 51.19 78.55 49.98 77.48 C 49.52 80.34 49.44 84.08 52.55 85.49 C 55.77 87.90 59.63 85.90 63.08 85.30 C 68.90 84.38 73.43 80.29 78.27 77.28 C 80.57 75.96 81.91 73.57 84.00 72.01 C 87.04 69.92 88.59 66.48 90.48 63.45 C 93.69 58.33 94.41 51.90 92.98 46.08 C 91.90 41.36 87.31 38.35 82.84 37.32 C 74.68 36.01 66.15 39.65 60.91 45.92 Z" />
<path fill="#000000" opacity="1.00" d=" M 145.08 53.04 C 148.73 48.39 152.52 43.49 157.83 40.65 C 160.57 44.27 159.70 49.03 158.99 53.18 C 157.18 60.68 154.08 68.08 148.81 73.82 C 144.08 80.18 137.91 85.51 130.93 89.24 C 127.74 89.82 127.54 85.48 128.37 83.37 C 130.38 78.26 134.93 74.61 139.67 72.12 C 138.25 65.31 141.36 58.57 145.08 53.04 M 149.74 51.74 C 145.11 56.25 142.33 62.57 141.66 68.95 C 141.34 71.10 143.48 72.09 144.92 73.14 C 151.67 65.66 157.43 56.21 156.70 45.75 C 153.53 46.60 151.95 49.61 149.74 51.74 M 132.79 83.27 C 135.93 82.20 138.44 79.88 140.41 77.27 C 137.41 78.55 134.54 80.44 132.79 83.27 Z" />
<path fill="#000000" opacity="1.00" d=" M 106.47 65.42 C 111.06 57.66 115.78 49.81 122.09 43.29 C 125.54 45.89 125.09 50.65 124.32 54.40 C 123.11 57.73 121.70 61.01 120.14 64.19 C 116.35 69.61 111.89 74.58 106.58 78.56 C 103.53 80.28 104.23 84.90 107.16 86.30 C 111.07 86.81 115.06 86.56 118.88 85.59 C 119.57 85.96 120.93 86.71 121.61 87.09 C 117.39 89.02 112.70 90.30 108.04 90.24 C 104.03 89.66 102.89 85.36 101.71 82.14 C 98.61 82.84 95.39 83.87 92.21 83.10 C 90.03 82.53 89.44 80.23 89.11 78.31 C 91.99 79.42 95.18 81.07 98.16 79.23 C 103.87 76.96 103.57 69.95 106.47 65.42 M 117.49 54.46 C 113.13 60.41 108.75 66.63 106.71 73.81 C 113.30 69.38 118.46 62.78 121.45 55.43 C 122.69 53.40 122.73 50.99 122.76 48.70 C 120.47 50.06 119.11 52.43 117.49 54.46 Z" />
<path fill="#000000" opacity="1.00" d=" M 232.63 49.10 C 233.27 48.59 234.56 47.58 235.20 47.07 C 236.26 49.39 238.01 52.02 236.71 54.61 C 235.89 57.00 233.06 57.25 230.93 57.46 C 222.76 57.89 214.59 57.11 206.42 57.33 C 204.31 61.62 203.18 66.41 200.27 70.27 C 195.04 77.31 192.18 85.91 185.87 92.17 C 182.51 90.26 181.74 86.24 179.61 83.30 C 178.43 82.03 178.62 80.31 178.86 78.75 C 182.06 80.67 183.48 84.23 185.35 87.27 C 189.83 82.85 192.13 76.79 195.63 71.63 C 198.64 67.05 201.88 62.50 203.20 57.08 C 195.49 56.22 187.71 56.05 179.96 56.05 C 175.61 56.30 170.10 56.34 167.62 60.62 C 172.52 67.20 181.53 67.37 188.98 67.30 L 189.62 68.08 C 189.52 68.58 189.30 69.58 189.20 70.08 C 181.10 71.33 171.28 69.87 165.87 63.13 C 164.30 60.95 165.43 57.89 167.40 56.37 C 171.42 52.98 177.01 52.73 182.02 52.77 C 187.85 53.62 193.75 53.01 199.60 53.55 C 201.73 53.88 203.85 53.47 205.95 53.16 C 213.89 54.42 221.99 54.23 230.02 54.39 C 231.59 54.47 232.93 53.44 234.36 52.95 C 233.79 51.66 233.14 50.41 232.63 49.10 Z" />
<path fill="#000000" opacity="1.00" d=" M 373.77 57.77 C 376.94 54.61 379.43 50.76 382.97 47.96 C 385.00 48.64 385.03 51.12 384.99 52.90 C 383.65 60.55 378.54 66.71 375.25 73.53 C 378.38 72.03 380.06 68.78 382.86 66.83 C 386.32 64.33 388.95 60.88 392.58 58.61 C 395.11 56.95 397.58 54.12 400.88 54.58 C 404.48 57.63 403.00 62.77 401.59 66.54 C 399.25 70.11 396.11 73.15 392.72 75.72 C 388.70 78.78 383.59 79.67 379.16 81.94 C 382.80 86.81 389.24 83.68 393.59 81.55 C 399.61 79.08 403.05 73.11 408.46 69.84 C 410.01 75.41 404.85 79.48 403.45 84.48 C 412.98 80.40 421.78 74.81 430.13 68.69 C 432.14 73.20 429.15 77.78 428.36 82.25 C 430.06 82.33 431.95 82.71 433.38 81.50 C 435.40 79.05 436.04 75.66 438.46 73.49 C 440.15 71.78 442.54 71.19 444.80 70.61 C 445.35 72.57 447.30 74.64 445.96 76.67 C 444.05 80.07 440.18 81.63 437.56 84.40 C 440.31 85.92 443.30 84.53 446.11 83.92 C 449.99 82.74 454.21 82.05 457.47 79.44 C 459.78 77.66 461.44 75.24 463.08 72.86 C 462.03 72.23 460.98 71.60 459.94 70.97 C 461.55 69.68 463.28 68.55 465.16 67.69 C 466.15 71.74 464.97 76.04 461.78 78.78 C 458.33 83.05 453.54 86.49 447.99 87.22 C 444.61 87.62 441.49 89.53 438.05 89.29 C 435.68 89.16 434.40 86.98 432.98 85.41 C 428.59 85.67 423.91 86.16 420.76 89.60 C 417.51 88.10 415.28 85.12 415.61 81.42 C 410.44 84.32 405.98 88.97 399.91 89.92 C 398.74 86.29 401.22 83.01 402.20 79.66 C 397.48 81.64 394.21 86.24 389.06 87.24 C 386.48 87.84 383.67 89.69 381.09 88.11 C 377.62 86.50 375.69 83.03 374.39 79.61 C 370.66 82.59 368.83 87.18 365.47 90.49 C 364.65 91.91 362.39 90.31 362.93 89.06 C 365.88 80.89 371.60 74.16 375.49 66.45 C 377.68 61.90 380.91 57.72 381.76 52.64 C 378.30 54.42 376.31 57.88 373.59 60.50 C 372.45 61.42 371.89 63.42 370.15 63.14 C 370.11 60.83 372.45 59.41 373.77 57.77 M 382.33 71.33 C 380.66 73.34 377.94 74.68 377.50 77.46 C 383.72 76.30 389.69 73.64 394.42 69.39 C 397.99 66.62 401.12 62.49 400.25 57.70 C 393.26 60.66 387.96 66.40 382.33 71.33 M 417.49 80.87 C 419.70 81.40 422.38 83.41 424.50 81.66 C 426.01 79.72 426.74 77.32 427.31 74.95 C 423.63 76.18 420.58 78.63 417.49 80.87 M 437.87 80.09 C 439.87 79.10 441.66 77.69 442.86 75.78 C 440.18 75.68 438.00 77.34 437.87 80.09 Z" />
<path fill="#000000" opacity="1.00" d=" M 269.64 78.69 C 273.73 67.28 280.62 56.57 290.18 49.02 C 292.27 53.76 290.02 58.74 288.35 63.22 C 286.04 69.71 280.47 74.05 275.79 78.77 C 274.35 80.42 270.77 81.12 271.65 83.89 C 272.50 86.49 275.35 88.01 278.00 87.50 C 282.83 86.47 287.42 84.52 291.73 82.12 C 291.57 81.17 291.43 80.23 291.30 79.28 C 292.59 78.77 293.89 78.25 295.19 77.75 C 297.32 81.32 293.70 85.04 290.59 86.51 C 285.20 88.97 279.40 93.18 273.23 90.81 C 270.37 90.10 269.15 87.28 268.13 84.83 C 263.71 87.85 259.00 91.59 253.40 91.60 C 249.69 90.44 252.52 85.80 252.58 83.19 C 248.69 85.87 244.89 88.71 240.72 90.94 C 240.03 88.82 240.47 86.61 240.57 84.45 C 236.05 86.33 232.84 91.00 227.93 91.65 C 227.88 90.05 227.83 88.45 227.79 86.85 C 222.53 88.52 217.85 93.23 212.04 92.12 C 211.44 86.79 215.34 82.73 217.20 78.11 C 215.10 77.69 212.80 76.69 210.73 77.74 C 205.23 81.33 200.34 85.83 194.76 89.29 C 193.87 85.67 197.90 84.12 199.96 81.96 C 203.97 79.37 207.50 76.17 211.19 73.19 C 214.23 73.56 217.45 74.08 220.28 75.16 C 222.15 79.80 217.41 83.49 216.03 87.58 C 220.69 87.29 224.96 85.20 229.52 84.39 C 232.21 82.15 234.19 79.13 237.06 77.09 C 239.32 75.81 241.70 74.75 244.09 73.73 C 245.40 73.85 246.02 74.55 245.95 75.86 C 245.51 78.73 244.80 81.55 244.12 84.37 C 248.52 82.34 253.09 80.28 256.69 76.99 C 257.30 80.80 254.77 84.00 254.29 87.65 C 258.82 87.25 262.75 84.83 266.55 82.53 C 267.99 81.65 269.00 80.23 269.64 78.69 M 279.44 65.42 C 277.41 69.07 274.46 72.34 273.79 76.59 C 275.16 76.11 276.21 75.14 277.11 74.03 C 279.84 70.80 283.72 68.52 285.50 64.54 C 286.89 61.39 288.70 58.14 288.38 54.59 C 285.03 57.87 281.80 61.34 279.44 65.42 Z" />
<path fill="#000000" opacity="1.00" d=" M 411.39 59.32 C 411.74 57.59 413.16 56.98 414.78 56.88 C 415.36 58.87 415.10 60.81 414.00 62.57 C 412.88 61.84 410.30 61.15 411.39 59.32 Z" />
<path fill="#000000" opacity="1.00" d=" M 257.20 68.03 C 255.44 65.80 252.15 62.25 255.18 59.75 C 256.50 62.25 257.95 65.12 257.20 68.03 Z" />
<path fill="#000000" opacity="1.00" d=" M 368.63 64.04 C 368.94 64.07 369.55 64.13 369.86 64.16 C 369.08 67.81 365.49 70.36 363.45 73.47 C 358.39 80.92 350.50 85.75 342.53 89.59 C 338.05 91.07 333.82 93.70 328.96 93.62 C 325.05 94.03 321.67 90.54 321.16 86.85 C 320.51 83.01 321.87 79.17 323.90 75.95 C 325.77 72.00 330.31 70.75 333.98 69.06 C 337.52 67.97 342.47 66.38 345.21 69.85 C 347.39 72.06 346.18 75.22 345.61 77.82 C 345.19 80.36 343.38 82.74 340.81 83.33 C 341.19 79.57 345.06 76.98 344.54 73.10 C 344.12 70.53 340.94 70.68 338.97 70.79 C 335.14 71.43 331.48 73.11 328.30 75.31 C 325.75 77.87 323.82 81.37 323.54 85.02 C 323.65 88.49 327.64 90.33 330.71 89.47 C 342.09 87.04 353.38 82.03 361.18 73.15 C 363.54 70.01 366.00 66.95 368.63 64.04 Z" />
</g>
</svg>
