<?xml version="1.0" encoding="UTF-8" ?>
<!DOCTYPE svg PUBLIC "-//W3C//DTD SVG 1.1//EN" "http://www.w3.org/Graphics/SVG/1.1/DTD/svg11.dtd">
<svg width="512pt" height="256pt" viewBox="0 0 512 256" version="1.1" xmlns="http://www.w3.org/2000/svg">
<g id="#000000ff">
<path fill="#000000" opacity="1.00" d=" M 97.62 46.53 C 99.47 43.38 103.79 43.49 107.00 43.50 C 112.36 43.88 117.82 43.23 123.08 44.57 C 129.77 44.96 136.32 46.70 143.06 46.40 C 157.73 46.35 172.46 48.66 187.08 46.44 C 189.21 45.57 192.31 48.35 190.21 50.17 C 186.24 52.41 181.56 50.99 177.26 51.56 C 172.51 52.15 167.73 51.85 162.98 51.58 C 161.02 51.34 160.63 53.70 159.96 55.01 C 157.85 60.96 153.88 66.01 151.86 72.00 C 155.87 74.20 160.75 72.96 164.94 71.91 C 167.39 69.50 167.78 65.39 171.09 63.79 C 174.14 64.51 175.28 69.78 172.68 71.66 C 168.96 75.97 165.64 80.71 161.83 84.96 C 157.77 85.17 160.12 79.85 160.92 77.67 C 156.83 78.81 152.50 77.44 148.47 78.52 C 145.78 81.00 144.21 84.43 142.50 87.61 C 140.33 92.22 137.06 96.19 134.66 100.68 C 133.85 102.31 132.57 103.62 131.11 104.69 C 126.07 102.04 121.69 98.33 117.34 94.70 C 115.02 92.58 111.41 89.54 113.86 86.15 C 118.96 90.89 124.37 95.28 130.24 99.03 C 133.22 95.60 135.29 91.50 137.74 87.70 C 139.49 84.64 141.75 81.69 142.16 78.09 C 138.88 77.69 135.37 79.62 132.34 77.71 C 130.92 76.84 128.52 76.30 128.93 74.16 C 131.67 71.42 135.82 72.99 139.02 73.90 C 141.61 73.57 144.22 73.36 146.84 73.37 C 149.17 66.04 153.87 59.83 157.30 53.04 C 157.16 52.69 156.88 51.99 156.74 51.64 C 148.19 50.24 139.26 51.84 130.96 49.15 C 126.74 48.54 122.44 49.19 118.23 48.42 C 113.36 47.48 108.35 46.95 103.40 47.49 C 101.18 47.62 101.54 50.34 101.95 51.83 C 103.96 58.25 110.90 60.81 116.52 63.24 C 121.45 63.91 126.32 64.97 131.20 65.96 C 132.33 66.42 134.81 66.14 134.54 67.99 C 132.75 71.10 128.93 69.08 126.20 68.89 C 117.46 67.68 108.67 65.00 101.88 59.14 C 98.25 56.18 96.57 51.06 97.62 46.53 Z" />
<path fill="#000000" opacity="1.00" d=" M 339.25 66.25 C 342.33 63.39 345.04 59.80 348.98 58.11 C 351.12 58.60 351.85 61.14 352.18 63.02 C 351.16 70.18 348.43 77.22 343.87 82.88 C 340.43 87.10 337.53 91.79 333.54 95.54 C 328.84 99.56 324.17 103.63 319.71 107.91 C 321.31 108.80 323.03 109.71 324.93 109.38 C 329.69 108.92 334.45 108.27 339.11 107.17 C 339.25 100.64 344.20 95.70 349.39 92.44 C 351.98 91.14 355.01 90.56 357.90 90.96 C 361.86 91.98 364.00 96.99 361.52 100.41 C 358.93 106.63 351.68 107.91 346.05 110.04 C 347.39 112.00 350.01 111.46 352.03 111.45 C 356.27 110.94 360.47 109.94 364.52 108.58 C 369.21 105.38 373.92 101.90 377.32 97.27 C 378.66 95.93 378.17 93.99 378.36 92.30 C 379.01 90.92 380.78 90.87 382.02 90.31 C 382.96 93.17 384.08 96.55 382.30 99.32 C 378.51 104.84 372.94 108.75 367.57 112.59 C 361.37 116.87 353.40 118.22 346.05 116.88 C 343.46 116.48 341.79 114.32 339.80 112.87 C 335.40 112.61 331.46 115.35 327.07 115.11 C 324.52 114.96 321.87 115.34 319.40 114.65 C 317.70 113.21 316.42 111.37 314.96 109.72 C 309.86 112.43 304.54 114.84 298.93 116.22 C 295.29 116.21 293.39 112.77 292.19 109.84 C 288.86 111.78 285.87 114.58 282.01 115.43 C 279.16 115.08 276.17 112.23 277.06 109.17 C 279.08 102.58 284.30 97.71 289.56 93.58 C 294.03 89.27 299.33 85.94 305.02 83.47 C 306.13 84.94 307.68 86.68 306.82 88.67 C 305.36 90.88 303.39 92.75 301.21 94.24 C 298.68 95.83 295.10 94.60 293.06 97.08 C 289.23 100.88 284.00 103.92 282.38 109.38 C 289.49 106.50 295.05 101.04 299.85 95.21 C 300.77 96.34 302.59 97.27 302.26 99.01 C 301.79 102.92 297.13 105.65 298.98 109.87 C 304.56 109.01 310.06 106.97 314.68 103.70 C 316.78 102.41 317.02 99.82 317.77 97.71 C 322.82 85.96 330.15 75.24 339.25 66.25 M 324.31 96.63 C 326.25 95.55 328.24 94.42 329.73 92.74 C 333.93 87.90 338.30 83.20 341.81 77.82 C 343.94 75.21 344.89 71.92 345.34 68.64 C 336.52 76.38 329.16 85.92 324.31 96.63 M 346.04 104.30 C 350.33 103.14 355.87 101.90 356.59 96.60 C 351.61 96.26 347.52 99.75 346.04 104.30 Z" />
<path fill="#000000" opacity="1.00" d=" M 218.16 62.06 C 220.25 60.00 223.41 61.02 224.82 63.32 C 225.52 65.00 223.81 66.39 223.17 67.79 C 221.28 67.25 219.36 66.83 217.43 66.47 C 217.02 64.95 216.40 63.00 218.16 62.06 Z" />
<path fill="#000000" opacity="1.00" d=" M 166.93 92.98 C 173.47 85.26 181.46 78.87 190.12 73.69 C 191.94 76.08 193.10 79.61 191.22 82.31 C 187.93 87.53 186.13 93.54 184.78 99.51 C 186.05 99.36 187.25 98.99 188.38 98.40 C 194.75 94.98 201.02 91.27 206.55 86.58 C 209.07 84.58 211.23 81.96 214.38 80.93 C 214.99 82.01 215.61 83.08 216.25 84.14 C 214.52 88.25 212.43 92.22 209.88 95.87 C 208.77 97.12 208.64 98.82 208.37 100.39 C 210.93 99.97 213.54 99.33 215.62 97.67 C 221.66 93.11 227.64 88.12 231.47 81.48 C 233.81 76.98 239.54 78.86 243.47 79.52 C 246.59 81.59 243.99 85.21 242.54 87.47 C 239.86 92.34 234.94 95.67 233.00 100.96 C 240.32 99.49 246.23 94.50 251.58 89.59 C 254.17 87.47 254.48 83.16 257.96 82.09 C 260.35 82.63 260.22 85.89 259.89 87.80 C 258.35 92.42 255.22 96.37 254.00 101.11 C 258.46 100.46 262.42 98.18 266.56 96.54 C 270.83 94.42 275.85 92.78 278.56 88.58 C 280.26 86.09 279.34 82.96 279.90 80.18 C 280.93 79.36 282.25 78.47 283.41 79.65 C 284.72 82.72 284.89 86.23 284.42 89.50 C 281.36 94.86 275.74 98.04 270.22 100.36 C 262.94 103.31 255.82 106.83 248.03 108.27 C 246.40 105.54 246.97 102.43 247.47 99.48 C 242.25 100.76 239.06 105.71 233.77 106.81 C 230.82 108.32 227.93 106.19 226.04 104.05 C 228.09 96.53 234.40 91.50 238.26 85.01 C 236.74 84.53 234.70 83.87 233.74 85.67 C 230.81 89.68 228.30 94.23 223.91 96.88 C 219.74 99.24 216.84 103.49 212.11 104.89 C 209.42 105.73 205.55 107.30 203.61 104.31 C 202.31 100.89 204.08 97.25 204.88 93.90 C 197.86 97.79 191.42 102.86 183.81 105.60 C 181.63 106.60 179.34 104.22 179.56 102.08 C 179.67 99.74 180.23 97.46 180.47 95.14 C 175.22 98.82 169.80 102.31 163.90 104.88 C 163.10 103.62 161.90 102.50 161.72 100.95 C 162.70 97.87 164.91 95.42 166.93 92.98 M 180.13 86.16 C 177.33 88.89 174.04 91.17 171.75 94.37 C 175.01 93.51 177.43 91.00 180.15 89.15 C 183.15 86.69 186.96 84.54 188.03 80.52 C 184.84 81.49 182.69 84.19 180.13 86.16 Z" />
<path fill="#000000" opacity="1.00" d=" M 225.19 134.18 C 227.01 132.35 229.11 130.73 231.66 130.09 C 234.20 133.11 233.60 137.26 230.96 140.00 C 222.91 150.89 215.21 162.06 206.24 172.23 C 203.97 174.55 202.63 178.71 198.92 178.90 C 193.26 178.18 188.20 174.40 185.70 169.29 C 185.04 167.46 183.04 168.24 181.74 168.76 C 172.46 172.63 163.28 176.98 153.41 179.16 C 149.42 180.01 144.79 180.29 141.37 177.67 C 138.92 175.97 137.69 172.94 137.71 170.01 C 137.69 161.74 143.47 153.94 151.21 151.19 C 153.95 150.75 156.77 150.38 159.55 150.44 C 161.79 151.57 163.47 153.53 165.42 155.07 C 164.79 157.68 164.09 160.40 162.31 162.50 C 161.51 164.07 159.99 162.56 159.03 162.10 C 159.75 160.28 161.47 158.44 160.80 156.37 C 158.27 153.47 153.20 153.98 150.69 156.70 C 147.29 160.29 143.93 164.75 144.04 169.94 C 143.96 172.96 146.83 175.73 149.90 175.04 C 160.12 173.72 170.07 170.18 178.84 164.78 C 179.68 164.15 181.13 163.43 180.74 162.14 C 178.82 155.18 173.78 149.36 172.92 142.04 C 174.79 141.14 176.72 140.35 178.72 139.78 C 181.59 146.46 186.69 151.70 191.18 157.28 C 193.18 157.76 195.27 156.90 197.12 156.17 C 203.15 153.13 208.16 148.55 213.37 144.34 C 217.32 140.97 221.49 137.85 225.19 134.18 M 204.93 155.00 C 202.41 155.92 200.61 157.99 198.40 159.42 C 195.58 161.51 191.97 162.15 189.22 164.35 C 188.92 165.38 189.18 166.26 190.00 167.00 C 192.02 169.58 194.85 171.50 198.00 172.44 C 199.49 172.68 200.21 170.95 201.16 170.11 C 205.86 163.88 210.40 157.49 215.99 152.00 C 218.04 150.04 219.97 147.77 220.31 144.84 C 214.18 146.56 210.82 152.84 204.93 155.00 M 183.60 154.81 C 183.55 157.04 184.36 159.45 186.40 160.59 C 187.93 160.77 189.11 159.61 190.38 158.98 C 188.86 156.60 186.22 155.51 183.60 154.81 Z" />
<path fill="#000000" opacity="1.00" d=" M 256.65 135.68 C 257.92 134.11 259.14 131.13 261.66 132.18 C 264.04 134.65 265.37 138.50 264.05 141.82 C 262.33 147.57 257.25 151.20 252.98 155.02 C 249.10 157.38 245.19 160.16 243.53 164.60 C 247.10 164.48 250.31 162.12 253.93 162.56 C 256.07 162.87 256.59 165.21 256.50 167.03 C 256.79 170.54 252.76 172.79 253.57 176.36 C 259.08 174.75 263.40 170.46 269.32 169.99 C 270.30 173.92 265.73 174.36 263.82 176.78 C 262.05 178.99 258.87 178.91 257.02 181.02 C 254.64 183.66 249.88 182.60 248.69 179.29 C 247.24 175.77 250.10 172.48 250.26 168.99 C 242.81 168.62 239.67 177.13 233.00 178.68 C 232.41 177.16 231.40 175.69 231.47 174.00 C 232.24 170.55 234.54 167.73 235.86 164.50 C 229.66 166.14 224.15 169.66 218.05 171.57 C 214.80 170.90 213.73 166.80 215.08 164.06 C 217.08 164.14 218.97 165.01 220.96 165.03 C 226.01 163.32 230.61 160.53 235.53 158.50 C 239.29 156.91 243.27 155.15 245.72 151.72 C 249.36 146.37 253.21 141.16 256.65 135.68 Z" />
<path fill="#000000" opacity="1.00" d=" M 361.13 131.88 C 363.70 131.37 363.51 134.26 363.50 136.00 C 363.30 138.57 362.01 140.86 361.19 143.26 C 367.30 145.53 374.05 143.71 380.35 144.66 C 382.59 145.49 383.07 148.03 383.51 150.09 C 377.56 151.95 371.18 150.73 365.07 150.58 C 362.71 150.68 358.89 148.92 357.94 152.09 C 355.71 158.02 352.20 163.33 348.25 168.24 C 346.71 170.04 345.65 172.19 345.37 174.57 C 349.97 173.63 354.07 171.22 358.29 169.27 C 361.45 167.94 363.68 165.28 366.11 162.98 C 367.39 164.28 367.66 166.08 368.01 167.80 C 366.52 169.24 364.96 170.87 365.59 173.14 C 371.16 171.28 376.30 168.32 381.38 165.41 C 384.52 163.95 385.46 159.28 389.44 159.54 C 389.43 162.57 389.43 165.66 388.73 168.62 C 386.88 170.85 384.83 172.96 383.71 175.69 C 382.38 178.81 379.60 181.12 378.68 184.43 C 381.16 183.98 382.85 181.94 385.21 181.20 C 387.93 180.28 390.44 178.88 393.05 177.68 C 394.43 177.83 395.32 179.12 394.22 180.25 C 393.09 182.32 391.75 184.48 389.50 185.47 C 383.82 188.03 378.13 190.61 372.71 193.71 C 371.23 194.53 370.29 195.99 369.69 197.52 C 368.07 201.94 364.52 205.22 362.29 209.31 C 360.01 213.55 357.74 217.93 354.27 221.32 C 352.72 222.49 351.13 220.82 350.09 219.76 C 349.99 216.43 351.48 213.27 351.59 209.93 C 352.31 205.27 351.53 199.75 355.07 196.06 C 357.72 193.53 361.21 192.14 364.37 190.39 C 366.87 188.94 370.05 188.28 371.72 185.74 C 374.40 181.87 376.95 177.87 378.96 173.60 C 373.43 175.67 368.47 179.08 362.85 180.94 C 359.69 181.75 358.35 178.47 357.26 176.21 C 352.80 179.67 347.00 178.89 342.11 181.17 C 340.72 180.28 339.56 178.91 337.92 178.52 C 333.48 178.62 330.13 183.42 325.60 182.49 C 322.09 179.44 325.10 174.57 325.17 170.75 C 322.43 170.75 319.58 170.92 317.10 172.16 C 313.47 175.05 311.01 180.25 305.95 180.72 C 305.41 178.96 305.02 177.17 304.75 175.36 C 301.28 175.74 298.25 177.42 295.55 179.53 C 292.60 180.91 289.45 181.88 286.89 183.99 C 284.94 182.06 284.12 179.44 283.70 176.79 C 280.15 179.61 275.93 181.46 271.40 181.85 C 270.28 180.29 269.20 178.69 268.20 177.05 C 270.04 174.01 271.64 170.75 274.23 168.26 C 278.63 163.99 282.55 159.02 288.02 156.05 C 290.04 154.94 292.43 155.43 294.63 155.35 C 295.31 156.86 296.56 158.24 296.56 159.97 C 295.78 162.66 293.89 165.08 294.18 168.02 C 294.44 170.67 292.37 172.66 291.69 175.09 C 297.80 173.50 302.72 169.35 307.72 165.70 C 309.99 164.05 311.50 161.58 313.82 159.98 C 315.88 162.13 315.80 165.09 315.07 167.78 C 319.44 166.09 323.95 162.89 328.82 164.19 C 330.67 164.48 330.61 166.52 330.13 167.88 C 329.48 170.46 329.17 173.12 329.34 175.79 C 334.78 175.61 340.21 172.63 342.78 167.74 C 346.00 161.72 350.44 156.50 354.07 150.75 C 350.92 149.78 347.60 150.20 344.38 150.43 C 336.91 151.07 329.37 150.11 321.95 151.32 C 318.91 151.78 314.31 150.85 314.08 147.09 C 313.67 145.19 315.80 145.19 317.07 145.31 C 328.42 145.88 339.68 143.61 351.04 143.93 C 352.83 143.86 354.78 144.28 356.46 143.43 C 358.63 139.85 358.81 135.40 361.13 131.88 M 284.69 165.67 C 282.24 168.73 278.10 170.33 276.74 174.21 C 282.63 171.76 290.04 169.02 291.16 161.79 C 288.63 162.37 286.31 163.62 284.69 165.67 M 356.96 201.06 C 355.73 204.39 355.53 208.03 355.80 211.55 C 358.80 207.22 361.22 202.48 363.53 197.75 C 361.11 198.11 358.04 198.47 356.96 201.06 Z" />
</g>
</svg>
