<?xml version="1.0" encoding="UTF-8" ?>
<!DOCTYPE svg PUBLIC "-//W3C//DTD SVG 1.1//EN" "http://www.w3.org/Graphics/SVG/1.1/DTD/svg11.dtd">
<svg width="256pt" height="128pt" viewBox="0 0 256 128" version="1.1" xmlns="http://www.w3.org/2000/svg">
<g id="#000000ff">
<path fill="#000000" opacity="1.00" d=" M 94.64 29.28 C 100.86 22.15 105.26 11.98 115.01 9.11 C 119.80 8.61 120.72 15.49 118.06 18.37 C 117.80 16.04 117.76 13.70 117.47 11.37 C 113.83 10.08 110.69 12.90 108.53 15.50 C 104.42 20.52 100.69 25.84 96.99 31.17 C 98.93 34.74 102.77 36.96 104.05 40.94 C 105.88 45.66 104.42 50.75 102.03 54.96 C 103.81 55.74 106.20 56.43 107.60 54.59 C 109.81 50.39 110.96 44.95 115.54 42.60 C 118.20 41.75 123.12 42.06 122.58 45.97 C 121.07 51.72 114.68 53.57 111.59 58.16 C 114.08 59.46 116.81 58.37 119.19 57.36 C 122.43 55.74 126.33 54.39 127.83 50.75 C 130.06 46.42 133.60 41.42 139.00 41.47 C 141.46 41.16 143.71 44.05 142.26 46.24 C 139.97 50.44 135.16 51.91 131.38 54.35 C 130.09 55.01 129.25 57.54 131.06 57.99 C 135.72 56.01 140.54 53.84 144.01 50.01 C 146.21 47.86 147.98 45.25 150.50 43.43 C 153.08 42.94 155.65 43.77 157.96 44.89 C 155.66 48.93 153.15 52.88 151.34 57.18 C 158.95 56.11 166.86 52.78 171.06 46.03 C 173.88 42.01 175.30 37.25 175.86 32.42 C 177.37 32.55 179.60 32.11 179.97 34.15 C 180.11 39.48 176.28 43.52 173.91 47.93 C 169.79 55.48 161.14 59.17 153.00 60.32 C 150.60 60.61 147.19 59.77 146.69 57.01 C 147.42 54.48 148.83 52.22 149.67 49.73 C 144.45 54.92 138.53 60.09 130.92 61.11 C 128.43 61.64 126.72 59.46 125.05 58.02 C 120.92 59.58 116.79 61.97 112.24 61.66 C 110.11 61.62 109.00 59.71 107.88 58.20 C 105.22 58.70 102.60 58.18 100.69 56.17 C 96.08 60.50 89.50 62.10 83.36 60.72 C 80.27 60.62 76.50 58.23 74.01 61.02 C 71.35 63.25 68.80 66.49 65.01 66.48 C 62.89 66.41 60.50 66.21 58.80 64.82 C 57.70 61.96 59.21 58.10 62.39 57.48 C 66.00 56.16 69.90 57.54 73.54 56.43 C 76.64 54.19 78.36 50.65 80.81 47.81 C 84.25 43.82 86.87 39.22 90.17 35.13 C 91.12 34.01 91.70 32.66 92.24 31.31 C 86.49 27.29 79.86 24.55 72.94 23.36 C 66.02 21.78 58.22 24.11 53.50 29.47 C 47.72 35.92 42.59 43.38 40.87 52.01 C 39.85 57.17 41.42 63.00 45.49 66.48 C 50.02 70.24 55.86 72.41 61.78 72.12 C 58.87 75.40 54.41 72.97 50.97 72.10 C 43.58 69.85 35.80 63.47 36.62 54.99 C 38.02 43.66 44.32 33.28 52.66 25.64 C 55.99 22.33 60.73 21.12 65.23 20.38 C 70.92 19.46 76.37 21.79 81.72 23.35 C 86.30 24.74 90.07 27.88 94.64 29.28 M 84.10 49.12 C 82.11 51.92 79.62 54.35 77.79 57.27 C 82.88 58.47 88.54 59.71 93.53 57.48 C 97.39 55.50 100.41 51.76 101.53 47.57 C 102.76 41.99 99.33 36.68 95.11 33.36 C 91.20 38.45 87.98 44.02 84.10 49.12 M 131.76 51.34 C 135.01 49.56 138.05 46.89 139.48 43.40 C 135.45 44.10 133.55 48.13 131.76 51.34 M 114.15 51.04 C 116.35 49.58 118.31 47.60 118.95 44.96 C 116.20 45.72 114.83 48.49 114.15 51.04 M 61.82 64.00 C 65.65 64.67 68.48 61.88 71.10 59.58 C 67.50 58.76 60.85 58.43 61.82 64.00 Z" />
<path fill="#000000" opacity="1.00" d=" M 77.75 70.88 C 81.36 69.24 85.69 67.04 89.47 69.52 C 94.41 71.27 97.98 76.57 96.96 81.81 C 93.86 89.44 88.21 96.17 80.91 100.08 C 79.63 100.66 77.89 101.63 76.71 100.31 C 74.79 97.76 76.07 94.35 75.95 91.44 C 72.25 93.84 69.49 97.34 66.44 100.46 C 63.58 103.62 59.87 106.13 58.15 110.18 C 63.60 113.93 70.57 112.53 76.29 110.24 C 85.77 106.00 95.21 100.50 101.09 91.66 C 102.16 92.78 103.09 94.03 103.91 95.35 C 108.31 92.18 113.83 89.98 116.90 85.36 C 113.39 86.42 109.79 86.49 106.37 85.06 C 106.59 84.63 107.04 83.77 107.26 83.34 C 110.86 82.33 114.74 82.53 118.26 81.28 C 120.28 79.23 121.39 76.49 123.19 74.25 C 125.51 75.54 125.73 78.09 125.69 80.47 C 128.35 80.25 131.04 80.16 133.62 79.46 C 136.80 78.92 137.52 75.20 140.01 73.60 C 142.22 73.57 141.84 75.97 142.30 77.48 C 145.11 76.93 148.30 76.45 150.25 79.11 C 146.60 81.73 140.55 79.68 138.34 84.34 C 135.90 88.61 132.89 93.23 133.67 98.38 C 138.11 98.21 144.20 97.91 146.16 93.11 C 147.90 88.79 151.90 86.21 155.24 83.22 C 157.03 81.64 159.47 81.32 161.76 81.24 C 164.24 86.44 158.19 91.40 160.14 96.88 C 162.72 97.54 166.15 97.11 167.28 94.32 C 170.09 87.90 175.22 82.58 181.48 79.47 C 186.51 77.46 187.64 85.04 188.29 88.47 C 190.15 87.28 192.35 86.54 193.96 84.99 C 195.13 82.85 195.55 80.11 197.73 78.68 C 201.08 76.28 205.73 78.00 208.18 80.91 C 206.27 85.02 201.45 85.22 197.86 87.02 C 196.40 89.05 198.24 91.52 198.89 93.52 C 205.72 90.46 213.00 86.56 216.05 79.28 C 217.11 79.84 218.16 80.41 219.20 81.01 C 216.22 88.80 208.42 93.64 200.93 96.40 C 196.51 97.93 194.07 93.24 192.90 89.83 C 190.43 91.28 187.91 92.87 186.24 95.27 C 184.09 97.72 184.46 101.23 183.02 104.02 C 180.47 109.29 177.91 114.66 174.21 119.23 C 172.90 120.34 171.42 122.26 169.49 121.48 C 167.40 120.53 165.31 118.48 165.78 115.98 C 166.05 110.48 169.79 106.18 173.50 102.50 C 176.47 98.62 181.27 96.22 183.00 91.44 C 178.71 93.82 175.30 97.68 170.73 99.52 C 167.80 99.68 164.93 100.25 162.04 100.63 C 159.08 100.77 157.48 97.81 155.91 95.79 C 153.31 98.27 150.79 101.54 146.99 102.05 C 145.16 102.50 143.99 100.91 142.80 99.86 C 139.65 100.88 136.36 101.85 133.02 101.49 C 130.82 100.78 130.19 98.38 129.19 96.58 C 125.85 100.41 122.31 104.22 118.07 107.06 C 115.90 108.62 112.07 108.69 111.00 105.79 C 109.75 101.04 112.34 96.52 113.87 92.17 C 110.50 94.03 107.59 96.60 104.16 98.38 C 103.95 103.76 101.10 109.44 96.03 111.74 C 94.92 110.84 93.43 110.22 92.85 108.82 C 92.99 106.71 93.72 104.70 94.14 102.63 C 88.58 106.80 82.45 110.11 76.34 113.38 C 70.70 115.23 64.11 116.47 58.63 113.44 C 52.47 110.69 50.00 102.97 51.63 96.74 C 53.61 90.19 57.91 84.40 63.55 80.52 C 68.29 77.32 72.31 72.95 77.75 70.88 M 74.67 75.67 C 67.87 80.31 61.05 85.52 56.73 92.67 C 54.00 97.08 53.90 102.60 55.81 107.35 C 63.57 99.93 70.73 91.89 78.80 84.81 C 79.82 83.86 81.50 84.34 81.38 85.90 C 79.68 89.84 78.28 93.94 78.21 98.27 C 82.29 96.29 85.97 93.39 88.92 89.95 C 91.38 86.73 94.47 83.37 94.29 79.03 C 94.01 74.76 90.07 71.37 85.96 70.89 C 81.69 70.78 78.13 73.53 74.67 75.67 M 197.72 84.43 C 200.13 83.26 202.60 81.97 204.23 79.77 C 201.16 79.66 199.01 81.89 197.72 84.43 M 121.51 85.53 C 116.86 90.69 114.77 97.70 113.87 104.47 C 114.38 104.39 115.39 104.24 115.90 104.17 C 120.63 101.30 124.03 96.78 128.00 93.01 C 130.86 90.36 132.68 86.87 134.19 83.34 C 130.00 83.80 125.16 83.07 121.51 85.53 M 172.81 93.05 C 177.38 91.37 181.36 87.83 183.41 83.39 C 178.39 84.11 174.47 88.44 172.81 93.05 M 156.79 85.77 C 153.84 88.44 148.91 91.52 150.73 96.17 C 153.47 93.05 156.23 89.92 158.85 86.69 C 160.47 85.09 157.54 84.49 156.79 85.77 M 96.61 106.74 C 99.71 105.34 100.86 101.89 100.84 98.73 C 98.14 100.49 97.13 103.73 96.61 106.74 M 169.61 117.46 C 172.81 117.08 173.92 113.74 175.30 111.33 C 176.89 107.73 179.02 104.37 180.31 100.64 C 175.21 104.87 169.37 110.25 169.61 117.46 Z" />
</g>
</svg>
