<?xml version="1.0" encoding="UTF-8" ?>
<!DOCTYPE svg PUBLIC "-//W3C//DTD SVG 1.1//EN" "http://www.w3.org/Graphics/SVG/1.1/DTD/svg11.dtd">
<svg width="256pt" height="256pt" viewBox="0 0 256 256" version="1.1" xmlns="http://www.w3.org/2000/svg">
<g id="#000000ff">
<path fill="#000000" opacity="1.00" d=" M 29.05 27.34 C 34.27 26.13 39.66 26.45 44.97 26.14 C 50.58 25.99 56.55 25.70 61.71 28.32 C 66.44 30.70 70.33 35.50 70.27 40.98 C 69.90 46.70 65.24 51.00 60.33 53.29 C 55.18 55.55 49.67 57.57 43.96 57.37 C 40.31 57.03 36.29 55.82 34.15 52.62 C 32.99 49.86 35.45 47.53 36.72 45.34 C 27.23 47.62 17.60 49.52 8.47 53.02 C 9.73 55.00 11.74 56.24 13.79 57.27 C 25.97 62.91 39.60 64.19 52.87 63.91 C 54.83 62.88 57.31 61.73 58.16 64.66 C 55.44 66.97 52.31 68.75 49.67 71.17 C 52.56 72.68 55.87 72.08 58.99 72.09 C 62.44 71.90 65.94 71.88 69.34 71.20 C 71.73 70.86 72.66 68.36 74.07 66.74 C 76.40 70.44 80.02 72.73 84.27 73.60 C 84.43 74.18 84.76 75.33 84.92 75.91 C 80.28 79.12 74.79 81.24 70.79 85.28 C 69.61 86.42 71.43 88.05 72.64 88.14 C 78.34 89.83 84.32 89.11 90.13 90.02 C 95.86 90.25 101.20 86.87 106.97 87.56 C 108.66 87.83 109.22 89.81 110.27 90.94 C 107.40 95.26 103.62 98.82 100.67 103.09 C 107.93 103.81 115.11 102.09 122.25 100.98 C 123.48 100.86 125.71 100.01 126.01 101.92 C 126.87 103.49 124.38 104.39 123.78 105.64 C 128.36 105.68 132.92 106.14 137.48 106.57 C 139.43 111.52 133.67 114.17 132.62 118.50 C 139.12 118.74 145.89 119.55 152.13 117.24 C 156.17 115.92 160.55 114.85 164.79 115.79 C 166.37 116.62 167.45 118.23 167.50 120.03 C 166.88 123.71 163.36 125.58 161.21 128.27 C 166.87 128.95 170.31 122.71 175.90 123.53 C 179.32 123.97 180.69 128.88 177.68 130.81 C 174.93 131.54 172.05 130.97 169.26 131.25 C 167.92 132.03 167.56 133.67 166.85 134.93 C 177.79 139.68 188.18 130.58 198.94 129.54 C 201.26 130.52 203.21 132.35 205.82 132.58 C 207.62 132.67 207.86 135.47 206.52 136.34 C 202.56 138.61 198.67 141.06 195.21 144.05 C 198.98 147.05 204.22 146.22 208.63 145.46 C 212.81 144.85 215.77 141.56 219.60 140.14 C 218.69 144.40 214.37 146.21 210.92 148.05 C 206.64 150.36 201.69 149.40 197.06 149.64 C 194.97 149.73 193.05 148.62 191.42 147.41 C 189.60 145.64 190.61 142.75 192.19 141.19 C 194.83 138.63 198.07 136.84 201.16 134.89 C 198.99 133.90 196.69 132.44 194.21 133.07 C 188.36 134.48 183.18 137.98 177.17 138.85 C 172.65 139.47 167.49 141.11 163.44 138.16 C 163.51 135.88 163.62 133.60 163.50 131.33 C 159.38 131.30 154.94 131.84 151.83 134.80 C 146.77 139.39 140.17 141.60 134.85 145.83 C 132.51 148.20 128.01 146.88 127.24 143.67 C 126.54 140.37 127.06 136.14 130.14 134.16 C 136.95 129.33 145.65 129.79 153.52 128.38 C 156.40 127.36 158.64 125.17 160.95 123.26 C 159.39 123.26 157.84 123.22 156.29 123.27 C 151.38 126.23 145.28 127.17 139.68 126.16 C 140.18 124.55 140.74 122.97 141.28 121.38 C 137.61 121.47 133.92 122.19 130.26 121.71 C 128.10 121.47 128.36 118.70 129.05 117.28 C 130.39 114.58 132.70 112.53 134.24 109.96 C 128.83 107.57 122.87 109.65 117.76 111.81 C 115.79 112.79 113.61 112.59 111.53 112.19 C 112.81 108.92 116.33 107.51 118.48 104.91 C 112.06 105.59 105.63 107.02 99.15 105.89 C 97.49 105.98 96.56 104.49 96.44 103.00 C 97.10 101.22 98.21 99.65 99.08 97.97 C 94.72 98.26 90.56 100.05 86.16 99.88 C 84.45 100.07 83.76 98.39 83.03 97.19 C 84.56 95.65 86.15 94.15 87.45 92.40 C 81.65 91.27 75.68 92.08 69.89 91.03 C 67.65 90.77 65.98 88.36 66.92 86.20 C 68.72 80.80 74.47 78.81 78.54 75.53 C 76.57 74.67 74.74 72.38 72.42 73.20 C 63.45 75.35 54.15 74.66 45.03 74.66 C 39.61 77.26 35.14 82.01 29.08 83.31 C 27.08 79.88 29.84 76.47 31.64 73.65 C 33.46 70.89 36.83 69.81 39.99 70.64 C 44.33 71.80 47.55 68.11 50.70 65.82 C 46.51 65.33 42.30 65.85 38.10 65.66 C 29.51 65.35 20.99 63.28 13.14 59.79 C 9.15 58.21 6.49 54.09 1.87 54.04 C 3.33 52.69 5.20 51.27 4.78 49.00 C 4.45 45.16 6.31 41.63 8.83 38.87 C 14.07 32.95 21.35 28.96 29.05 27.34 M 18.81 33.81 C 12.53 36.96 7.74 43.19 7.46 50.36 C 9.53 50.24 11.61 50.03 13.58 49.35 C 24.04 45.91 35.30 45.14 45.33 40.38 C 44.33 45.76 36.02 46.63 36.67 52.82 C 46.57 57.28 58.70 53.62 66.21 46.23 C 68.48 43.72 68.58 39.87 66.87 37.03 C 64.94 32.63 60.59 29.57 55.83 29.11 C 43.44 27.38 30.08 27.91 18.81 33.81 M 33.04 77.63 C 35.41 76.81 38.18 75.92 39.14 73.33 C 36.22 73.05 33.97 74.96 33.04 77.63 M 89.52 95.92 C 94.05 95.29 98.75 94.86 102.95 92.91 C 98.32 92.08 92.86 92.05 89.52 95.92 M 130.91 137.93 C 129.01 139.28 128.45 143.08 131.14 143.81 C 135.27 142.46 138.71 139.66 142.30 137.31 C 144.45 135.77 147.00 134.64 148.57 132.41 C 142.51 132.93 135.52 133.54 130.91 137.93 Z" />
<path fill="#000000" opacity="1.00" d=" M 38.70 92.75 C 43.14 94.42 48.05 94.55 52.30 96.74 C 60.75 100.89 69.39 104.71 78.29 107.78 C 81.42 109.34 83.70 106.04 86.05 104.56 C 86.68 105.70 87.30 106.84 87.91 107.99 C 81.50 113.15 75.36 119.01 72.22 126.81 C 75.20 128.54 78.20 130.32 81.43 131.54 C 83.14 132.30 84.72 131.03 85.85 129.89 C 89.35 126.36 92.50 122.47 96.17 119.12 C 97.45 117.82 100.38 117.58 100.45 119.99 C 99.77 121.93 97.96 123.15 96.66 124.66 C 93.61 127.67 91.31 131.31 88.56 134.57 C 85.56 137.57 81.61 139.55 79.07 143.05 C 77.20 145.10 76.39 148.14 73.89 149.56 C 72.06 149.75 71.26 148.95 71.49 147.15 C 73.76 142.85 77.02 139.17 79.96 135.32 C 76.50 133.60 72.67 130.28 68.66 131.52 C 64.47 136.09 61.29 141.51 56.92 145.94 C 55.86 144.47 53.92 142.54 55.82 140.87 C 59.34 137.03 62.62 132.95 65.07 128.33 C 62.78 126.78 60.56 125.09 58.02 124.00 C 49.12 120.21 39.68 117.51 30.00 116.86 C 25.44 116.71 21.04 118.20 16.75 119.59 C 13.94 120.57 10.93 121.56 8.89 123.87 C 7.22 125.70 6.86 128.27 5.98 130.51 C 2.82 126.43 7.05 121.68 10.66 119.71 C 17.47 116.07 25.34 113.16 33.16 114.53 C 43.42 115.75 53.24 119.21 62.67 123.33 C 64.70 123.95 67.58 125.46 69.20 123.33 C 72.52 119.53 75.21 115.21 78.70 111.54 C 76.68 109.49 73.75 109.04 71.21 107.91 C 62.48 104.26 54.04 99.77 44.90 97.16 C 43.21 96.62 41.43 96.60 39.67 96.64 C 38.98 103.53 45.65 107.87 51.29 109.95 C 54.26 111.20 58.73 110.79 59.93 114.45 C 52.99 114.46 46.66 110.85 41.46 106.55 C 37.54 103.17 36.95 97.40 38.70 92.75 Z" />
<path fill="#000000" opacity="1.00" d=" M 226.76 138.86 C 228.04 135.19 230.98 132.30 234.68 131.03 C 235.03 132.71 235.72 134.77 234.09 136.04 C 230.98 138.96 228.90 142.95 225.13 145.13 C 222.82 146.65 220.80 148.78 217.93 149.20 C 220.07 145.15 223.07 141.57 226.76 138.86 Z" />
<path fill="#000000" opacity="1.00" d=" M 92.53 154.04 C 94.34 148.21 97.58 142.39 102.99 139.22 C 110.97 143.09 118.82 148.19 127.94 148.61 C 133.21 149.17 139.25 148.83 143.14 153.08 C 143.25 156.72 140.84 159.51 139.22 162.54 C 141.82 162.75 144.44 162.83 147.04 162.52 C 151.59 161.89 156.19 163.65 160.70 162.49 C 163.11 161.82 165.52 161.13 168.01 160.86 C 167.84 162.56 167.55 164.24 167.14 165.89 C 168.57 166.38 169.95 167.00 171.27 167.75 C 170.39 170.32 169.63 172.93 168.87 175.53 C 172.39 176.21 176.00 176.32 179.54 176.88 C 181.52 174.39 184.36 172.01 187.74 172.25 C 190.57 172.43 191.61 176.67 189.07 178.03 C 186.04 179.52 182.50 180.40 180.36 183.25 C 185.38 184.04 190.36 182.32 194.36 179.35 C 199.60 176.26 203.31 171.31 208.16 167.73 C 212.17 167.18 216.36 168.18 219.96 169.98 C 221.45 170.60 221.86 172.49 221.39 173.91 C 219.83 179.11 212.32 179.82 211.56 185.31 C 218.82 185.64 225.08 180.81 232.11 179.54 C 232.31 181.11 232.49 182.68 232.65 184.25 C 229.79 187.14 226.49 189.55 223.67 192.49 C 231.34 191.43 238.05 187.28 245.44 185.30 C 247.26 184.54 248.81 183.24 250.76 182.77 C 252.19 191.14 242.53 194.08 239.18 200.30 C 242.85 199.74 246.24 198.14 249.28 196.07 C 249.68 198.03 251.27 200.55 249.34 202.17 C 240.36 205.40 230.28 205.65 222.24 211.23 C 217.38 215.01 213.48 219.85 208.88 223.93 C 204.93 221.67 206.93 216.73 208.72 213.68 C 212.32 208.44 218.89 206.68 224.50 204.43 C 228.79 201.49 232.79 198.12 236.91 194.93 C 238.66 193.45 240.78 192.20 241.64 189.97 C 233.94 191.60 227.85 197.48 219.91 198.41 C 217.22 194.64 220.19 190.62 222.55 187.62 C 216.30 188.98 209.89 191.63 203.43 190.48 C 203.22 188.50 203.04 186.18 204.68 184.71 C 208.49 181.06 212.31 177.42 216.13 173.78 C 212.70 171.84 207.63 169.98 204.59 173.58 C 199.95 178.98 194.81 184.63 187.72 186.65 C 184.62 187.41 181.44 189.19 178.19 188.34 C 175.30 186.58 176.94 182.43 176.22 179.63 C 172.30 179.45 168.29 179.50 164.49 180.56 C 159.03 184.73 154.50 190.70 147.72 192.79 C 146.19 193.52 144.60 192.03 144.22 190.64 C 144.01 187.64 144.95 184.33 147.51 182.52 C 151.51 179.84 156.03 178.05 160.56 176.49 C 162.98 175.70 164.04 173.14 165.51 171.28 C 163.14 171.97 160.66 172.31 158.32 173.09 C 155.20 174.75 152.22 176.65 149.15 178.40 C 148.53 177.09 147.19 175.75 148.08 174.22 C 149.51 171.19 152.59 169.41 154.35 166.58 C 147.71 166.18 141.03 166.52 134.46 167.58 C 126.11 171.08 121.92 180.82 113.03 183.37 C 112.10 181.79 110.96 180.00 111.76 178.10 C 113.23 173.93 116.25 170.29 120.00 167.96 C 123.92 166.03 128.24 165.04 132.24 163.29 C 133.79 162.27 134.67 160.55 135.39 158.90 C 129.74 160.97 124.90 164.96 118.92 166.23 C 117.42 166.96 114.64 166.42 115.31 164.27 C 116.47 161.91 118.21 159.88 120.04 158.02 C 122.68 155.20 127.30 155.39 129.46 151.98 C 121.26 151.39 113.18 149.24 105.82 145.55 C 106.54 152.50 100.70 158.39 94.09 159.32 C 92.90 157.81 91.83 156.02 92.53 154.04 M 97.22 152.64 C 100.23 151.47 102.90 149.09 102.86 145.62 C 100.08 147.06 98.80 150.11 97.22 152.64 M 120.45 163.21 C 124.17 161.54 127.51 158.93 130.37 156.05 C 126.18 156.84 122.68 159.65 120.45 163.21 M 151.92 173.40 C 155.05 171.91 158.06 170.18 161.14 168.58 C 161.26 168.04 161.51 166.96 161.64 166.41 C 157.90 167.89 154.28 170.08 151.92 173.40 M 113.94 179.69 C 117.90 177.04 120.99 173.27 124.67 170.23 C 119.73 171.29 115.89 175.15 113.94 179.69 M 148.88 188.12 C 151.85 186.74 154.51 184.60 156.23 181.78 C 153.43 183.18 149.04 184.40 148.88 188.12 Z" />
<path fill="#000000" opacity="1.00" d=" M 232.00 149.32 C 235.64 148.71 238.63 146.29 242.21 145.47 C 242.22 146.31 242.23 148.01 242.23 148.85 C 238.63 153.43 233.84 156.86 229.86 161.06 C 233.40 162.47 237.14 161.78 240.62 160.60 C 241.52 157.97 243.06 155.16 246.34 155.58 C 247.05 158.70 245.02 161.08 243.57 163.59 C 238.05 164.33 232.14 166.96 226.80 164.25 C 224.79 163.40 222.56 163.32 220.53 162.57 C 218.26 160.48 219.57 157.23 220.10 154.70 C 216.78 155.86 213.24 155.96 209.79 155.38 C 211.32 152.47 214.85 152.48 217.67 151.84 C 222.47 151.12 227.21 150.07 232.00 149.32 M 222.87 154.75 C 223.91 155.90 224.97 157.03 226.06 158.15 C 228.53 156.81 230.99 155.31 232.63 152.96 C 229.24 152.25 225.80 152.93 222.87 154.75 Z" />
</g>
</svg>
