<?xml version="1.0" encoding="UTF-8" ?>
<!DOCTYPE svg PUBLIC "-//W3C//DTD SVG 1.1//EN" "http://www.w3.org/Graphics/SVG/1.1/DTD/svg11.dtd">
<svg width="256pt" height="256pt" viewBox="0 0 256 256" version="1.1" xmlns="http://www.w3.org/2000/svg">
<g id="#000000ff">
<path fill="#000000" opacity="1.00" d=" M 158.16 12.91 C 158.27 12.37 158.48 11.30 158.58 10.76 C 163.60 15.70 167.99 21.28 171.89 27.13 C 172.52 28.49 174.34 30.27 172.86 31.69 C 170.69 32.22 168.59 31.37 166.86 30.11 C 167.81 29.25 168.75 28.38 169.68 27.51 C 167.25 24.15 164.79 20.75 161.55 18.10 C 161.65 24.45 163.20 30.69 163.87 37.00 C 165.98 49.16 166.62 61.56 169.63 73.56 C 170.40 76.89 172.52 79.66 173.59 82.87 C 171.00 82.04 169.67 79.56 168.83 77.17 C 166.92 71.93 165.69 66.45 164.91 60.93 C 162.77 44.91 160.36 28.92 158.16 12.91 Z" />
<path fill="#000000" opacity="1.00" d=" M 125.77 25.87 C 129.74 24.44 132.01 28.39 133.92 31.11 C 136.43 35.19 138.14 39.78 139.09 44.47 C 138.65 44.31 137.76 43.97 137.31 43.81 C 134.89 40.71 133.63 36.89 131.31 33.72 C 129.59 30.99 126.66 29.09 125.77 25.87 Z" />
<path fill="#000000" opacity="1.00" d=" M 146.42 55.12 C 149.97 52.03 155.99 55.81 156.79 60.10 C 158.37 65.06 159.40 70.56 157.78 75.64 C 156.74 78.57 153.11 78.30 150.66 79.09 C 151.10 82.56 152.07 86.03 151.68 89.55 C 150.38 90.92 147.58 90.98 147.31 93.13 C 147.75 96.04 149.07 98.86 148.67 101.86 C 148.55 103.62 148.04 106.03 145.92 106.30 C 141.75 106.24 138.38 103.51 135.35 100.97 C 134.54 106.54 137.60 111.64 138.53 117.01 C 138.82 118.26 137.32 119.58 136.16 118.97 C 133.36 117.95 131.75 115.23 129.51 113.45 C 130.84 120.32 134.19 126.84 134.11 133.97 C 133.98 135.50 133.45 137.48 131.78 137.95 C 128.90 139.03 126.21 136.98 123.67 135.92 C 125.34 142.03 127.13 148.45 125.81 154.81 C 125.40 157.27 122.84 158.96 120.42 158.55 C 117.15 157.70 115.01 154.89 112.46 152.90 C 112.86 159.21 114.98 165.22 116.75 171.24 C 117.33 172.78 116.94 174.40 116.77 175.98 C 115.06 176.26 113.33 176.32 111.61 176.36 C 112.47 179.38 114.82 182.51 113.60 185.72 C 112.20 187.37 110.15 186.29 108.68 185.37 C 105.18 182.80 102.61 179.18 100.72 175.31 C 98.88 171.57 96.27 167.94 96.18 163.62 C 98.71 163.07 101.94 161.63 104.02 163.99 C 106.82 167.01 109.13 170.61 112.87 172.63 C 111.53 163.99 108.40 155.63 108.53 146.78 C 110.05 146.53 111.97 145.18 113.07 146.92 C 115.60 149.95 117.80 153.34 121.20 155.51 C 122.96 151.61 123.32 147.19 122.66 142.99 C 122.12 139.07 122.39 134.64 119.47 131.56 C 115.96 127.78 113.10 123.48 109.79 119.55 C 107.20 125.89 106.79 132.90 104.29 139.28 C 103.72 141.37 101.59 140.15 100.24 139.87 C 99.75 134.83 102.12 130.19 103.20 125.38 C 104.06 121.66 105.46 118.04 105.84 114.22 C 104.38 110.56 101.82 107.43 100.32 103.76 C 103.20 102.05 105.63 104.21 107.76 105.98 C 109.10 103.25 111.75 101.75 114.47 100.65 C 114.34 104.58 111.62 108.07 112.25 112.05 C 112.68 113.92 111.85 116.21 113.31 117.73 C 118.38 123.82 122.35 131.08 129.26 135.38 C 130.74 131.12 129.46 126.66 128.41 122.48 C 127.25 117.98 126.33 113.44 125.15 108.95 C 124.44 106.03 122.22 103.88 120.49 101.53 C 116.68 96.62 113.44 91.30 109.67 86.37 C 108.38 84.77 107.45 82.90 107.36 80.82 C 109.06 80.92 111.07 80.22 112.53 81.44 C 115.66 84.06 117.45 87.84 120.03 90.94 C 121.57 92.79 123.36 94.58 123.93 97.01 C 125.48 102.10 128.79 106.39 132.42 110.19 C 132.09 106.81 131.29 103.43 131.63 100.01 C 131.63 97.85 134.51 96.38 136.23 97.73 C 138.99 99.69 141.47 102.18 144.81 103.16 C 145.82 99.51 145.41 95.71 145.83 91.99 C 146.35 88.75 144.01 86.12 142.37 83.61 C 139.37 79.15 136.27 73.93 137.41 68.33 C 138.76 68.20 140.29 67.46 141.54 68.37 C 144.73 70.47 147.61 73.03 150.78 75.16 C 151.96 76.31 153.82 75.33 154.16 73.87 C 155.09 69.08 154.18 64.08 152.43 59.58 C 151.62 56.86 148.42 56.60 146.42 55.12 M 141.33 70.98 C 141.78 76.23 143.18 82.41 148.14 85.22 C 147.95 81.55 146.15 78.28 145.12 74.82 C 144.62 72.92 142.86 71.95 141.33 70.98 M 100.59 166.46 C 102.24 171.10 104.82 175.51 108.04 179.24 C 106.66 174.52 104.52 169.60 100.59 166.46 Z" />
<path fill="#000000" opacity="1.00" d=" M 196.99 74.28 C 194.71 72.70 197.34 68.98 199.64 70.25 C 203.50 71.78 205.23 75.88 206.09 79.66 C 207.62 85.15 208.36 90.94 207.58 96.61 C 207.18 98.61 204.72 98.65 203.25 97.94 C 200.38 96.52 198.26 93.98 195.36 92.60 C 194.54 99.13 198.51 104.48 201.03 110.09 C 196.77 111.45 195.14 105.78 191.87 104.16 C 193.47 110.96 195.23 117.93 195.01 124.93 C 193.35 128.54 189.29 125.11 186.83 124.29 C 187.64 128.80 189.28 133.24 189.18 137.88 C 188.25 142.19 183.53 138.83 180.93 138.20 C 181.84 141.87 183.41 145.34 184.27 149.03 C 184.27 151.42 181.30 151.47 180.26 149.73 C 174.53 143.50 169.96 135.16 170.50 126.47 C 171.08 126.39 172.26 126.22 172.85 126.14 C 177.20 129.37 179.89 134.78 185.30 136.54 C 186.40 128.86 182.05 121.80 180.60 114.62 C 185.41 114.17 186.19 121.99 190.92 122.46 L 191.58 121.83 C 191.83 116.07 190.64 110.35 188.93 104.88 C 188.05 101.80 186.26 99.05 185.66 95.88 C 188.99 95.72 190.72 98.90 193.18 100.55 C 192.78 96.41 191.49 92.26 192.26 88.08 C 192.68 87.95 193.53 87.68 193.96 87.55 C 197.64 89.53 200.33 93.25 204.51 94.28 C 205.00 87.49 203.95 80.49 200.71 74.44 C 199.47 74.40 198.23 74.35 196.99 74.28 M 174.19 132.86 C 174.81 136.31 176.29 139.54 178.39 142.34 C 178.10 138.82 176.61 135.44 174.19 132.86 Z" />
<path fill="#000000" opacity="1.00" d=" M 166.75 108.77 C 169.37 108.46 170.97 110.55 170.96 112.98 C 168.69 113.28 165.92 111.19 166.75 108.77 Z" />
<path fill="#000000" opacity="1.00" d=" M 160.31 147.53 C 164.37 146.62 166.93 150.06 170.01 151.93 C 174.29 154.79 177.04 159.35 179.05 163.98 C 180.02 166.23 180.14 169.32 178.01 170.96 C 175.15 173.46 171.39 171.09 168.19 170.78 C 168.97 174.88 172.16 178.42 171.72 182.73 C 171.33 182.87 170.54 183.16 170.15 183.30 C 166.31 180.63 163.59 176.75 160.22 173.58 C 160.12 175.59 160.17 177.60 159.96 179.60 C 158.75 176.96 158.52 174.03 157.61 171.30 C 156.70 168.34 154.21 166.11 153.76 162.97 C 159.51 164.00 160.78 171.21 165.38 174.14 C 164.73 170.87 163.28 167.85 162.62 164.59 C 167.16 165.17 171.01 169.37 175.77 167.94 C 176.40 161.66 171.91 156.26 166.95 153.04 C 164.63 151.33 161.03 150.77 160.31 147.53 Z" />
<path fill="#000000" opacity="1.00" d=" M 71.55 161.92 C 73.13 161.38 75.05 159.65 76.46 161.45 C 79.94 164.68 82.80 168.51 86.04 171.97 C 94.86 181.54 102.17 192.73 112.95 200.29 C 109.29 201.48 106.00 198.84 103.27 196.76 C 97.45 191.56 92.63 185.37 87.49 179.52 C 84.13 175.73 81.39 171.23 77.15 168.34 C 78.35 172.87 81.23 176.69 82.81 181.07 C 86.08 189.69 90.04 198.01 93.67 206.47 C 95.00 209.72 97.32 212.41 99.57 215.05 C 98.53 215.74 97.59 217.24 96.15 216.58 C 93.09 215.71 90.29 214.11 87.70 212.30 C 79.36 206.05 71.89 198.67 63.47 192.56 C 64.70 197.41 68.71 200.73 70.99 205.03 C 75.82 213.48 80.58 222.09 83.45 231.44 C 84.26 234.31 85.29 237.72 83.53 240.46 C 81.39 243.33 77.35 242.85 74.23 242.52 C 65.67 240.96 59.35 233.79 56.00 226.13 C 55.06 223.54 52.54 221.07 53.71 218.16 C 55.82 215.84 59.53 215.78 62.29 216.82 C 66.59 218.64 68.99 222.92 71.81 226.38 C 70.55 226.84 69.28 227.29 68.01 227.73 C 64.95 224.34 62.95 219.26 58.20 217.94 C 57.94 222.99 61.01 227.33 63.67 231.34 C 67.34 236.40 73.18 241.48 79.89 240.13 C 81.29 232.95 78.15 225.95 75.54 219.43 C 72.29 212.82 69.63 205.83 65.08 199.95 C 63.00 197.24 61.79 193.99 59.76 191.25 C 59.17 190.25 58.05 189.42 58.09 188.17 C 58.74 186.81 60.43 186.24 61.76 186.99 C 67.86 189.51 72.02 194.87 77.03 198.94 C 81.48 202.52 85.59 206.61 90.57 209.48 C 88.32 203.18 85.32 197.18 83.00 190.91 C 78.97 181.34 74.20 172.00 71.55 161.92 Z" />
<path fill="#000000" opacity="1.00" d=" M 135.68 172.45 C 138.62 172.44 140.06 175.27 141.84 177.14 C 146.90 183.37 152.89 188.79 157.92 195.05 C 161.51 199.39 163.12 205.62 160.88 210.95 C 156.79 217.62 150.02 222.60 142.42 224.49 C 141.60 232.51 142.07 240.58 141.37 248.59 C 140.76 248.60 139.53 248.63 138.92 248.64 C 138.05 240.92 139.96 233.15 139.00 225.42 C 133.44 224.91 127.25 225.96 122.33 222.73 C 119.44 220.29 116.83 216.97 116.75 213.02 C 116.06 210.28 119.53 208.81 121.74 209.42 C 126.73 210.99 131.92 211.72 137.04 212.69 C 138.19 212.88 140.29 212.66 139.89 210.96 C 140.40 204.28 139.62 197.63 139.49 190.95 C 139.48 184.58 138.29 178.27 135.68 172.45 M 141.80 181.75 C 141.89 185.05 141.86 188.38 142.27 191.67 C 143.21 198.73 142.26 205.86 142.76 212.94 C 145.29 212.76 148.05 212.83 150.23 211.30 C 153.07 209.39 154.74 206.22 156.08 203.17 C 156.89 201.23 157.62 198.75 156.03 196.99 C 151.94 191.34 146.77 186.60 141.80 181.75 M 154.80 212.24 C 157.28 209.88 159.97 206.10 158.11 202.62 C 156.82 205.76 155.71 208.97 154.80 212.24 M 119.72 213.08 C 118.42 217.63 122.77 221.64 127.07 222.00 C 131.16 222.42 136.08 223.21 139.55 220.49 C 139.72 219.22 139.69 217.93 139.66 216.66 C 133.03 215.40 126.39 214.09 119.72 213.08 M 146.99 216.27 C 145.56 216.63 143.78 216.05 142.60 217.12 C 142.64 217.98 142.71 219.71 142.75 220.57 C 147.17 219.10 151.69 216.88 154.29 212.84 C 151.86 213.96 149.75 216.02 146.99 216.27 Z" />
</g>
</svg>
