<?xml version="1.0" encoding="UTF-8" ?>
<!DOCTYPE svg PUBLIC "-//W3C//DTD SVG 1.1//EN" "http://www.w3.org/Graphics/SVG/1.1/DTD/svg11.dtd">
<svg width="256pt" height="128pt" viewBox="0 0 256 128" version="1.1" xmlns="http://www.w3.org/2000/svg">
<g id="#000000ff">
<path fill="#000000" opacity="1.00" d=" M 70.16 27.19 C 74.72 18.94 78.52 10.04 85.06 3.09 C 85.99 3.90 86.92 4.71 87.84 5.53 C 87.45 10.26 86.13 14.83 84.28 19.18 C 81.66 28.71 77.08 37.57 74.66 47.17 C 75.84 46.16 77.04 45.12 77.82 43.75 C 86.39 30.04 97.70 18.40 108.16 6.17 C 110.97 7.68 112.36 10.86 110.93 13.86 C 106.43 27.79 96.94 39.63 93.46 53.98 C 94.43 53.92 96.36 53.78 97.33 53.71 C 95.95 55.91 94.60 58.47 92.04 59.48 C 90.85 58.89 89.67 58.12 89.02 56.92 C 89.41 51.03 92.04 45.64 94.23 40.26 C 97.86 31.37 103.06 23.20 106.43 14.20 C 103.74 16.57 101.19 19.12 98.75 21.76 C 89.17 33.79 80.41 46.46 70.92 58.55 C 69.69 58.31 67.14 57.65 67.68 55.96 C 70.08 44.57 75.53 34.14 79.10 23.10 C 80.40 18.92 83.28 15.05 82.66 10.45 C 78.19 15.94 75.08 22.37 71.49 28.45 C 67.13 35.78 63.71 43.69 58.43 50.44 C 54.68 57.70 48.27 62.99 41.91 67.88 C 37.43 70.06 32.23 72.20 27.21 70.68 C 22.80 69.62 19.37 65.43 19.36 60.87 C 19.12 52.11 22.59 43.59 27.45 36.44 C 30.72 31.57 35.14 26.94 41.08 25.62 C 46.33 26.37 51.68 30.60 51.85 36.23 C 52.19 40.32 49.78 43.93 48.78 47.78 C 48.61 49.45 47.07 50.09 45.60 50.30 C 46.12 45.09 49.97 40.46 48.96 35.10 C 48.55 31.51 45.68 28.17 42.03 27.68 C 37.60 29.10 34.09 32.65 31.30 36.26 C 26.29 43.90 21.78 52.61 22.51 62.04 C 22.60 65.47 25.61 68.38 28.99 68.56 C 33.74 68.96 37.89 66.13 41.73 63.72 C 54.82 54.88 62.71 40.69 70.16 27.19 Z" />
<path fill="#000000" opacity="1.00" d=" M 186.17 16.14 C 188.45 12.97 189.36 8.97 192.04 6.08 C 195.78 9.09 191.10 13.31 190.11 16.66 C 196.81 16.16 203.74 16.44 210.10 14.02 C 212.12 14.17 214.62 14.53 215.07 16.90 C 213.24 18.77 210.48 18.81 208.06 19.13 C 201.86 19.67 195.62 19.78 189.45 20.65 C 186.37 21.95 185.91 25.76 184.42 28.39 C 181.87 34.61 176.36 39.89 176.55 47.01 C 176.90 47.38 177.60 48.13 177.95 48.50 C 181.91 46.95 185.42 44.38 188.63 41.64 C 191.03 39.65 191.95 35.91 195.25 35.10 C 199.59 33.81 203.80 37.74 204.28 41.93 C 203.31 44.30 202.29 46.71 200.84 48.83 C 198.62 50.63 195.56 53.37 192.63 51.46 C 190.45 50.40 190.24 47.64 189.35 45.65 C 185.77 48.66 181.65 51.27 177.05 52.31 C 173.29 51.76 172.88 47.31 173.44 44.31 C 174.98 35.72 180.63 28.70 183.54 20.59 C 177.98 20.29 172.36 21.09 166.85 20.07 C 165.47 19.85 164.57 18.65 163.51 17.86 C 167.75 15.09 172.43 18.42 176.96 17.42 C 179.99 16.70 183.18 16.92 186.17 16.14 M 193.66 48.82 C 196.88 47.26 199.69 44.53 200.75 41.06 C 200.73 39.43 199.06 38.96 197.88 38.32 C 195.99 41.55 193.59 44.93 193.66 48.82 Z" />
<path fill="#000000" opacity="1.00" d=" M 166.07 21.59 C 168.63 22.01 169.96 24.14 171.03 26.26 C 168.54 26.32 166.61 27.85 164.63 29.17 C 165.00 26.62 165.47 24.09 166.07 21.59 Z" />
<path fill="#000000" opacity="1.00" d=" M 110.41 37.43 C 112.45 35.00 114.92 32.64 118.05 31.77 C 121.00 31.48 124.98 34.62 122.96 37.68 C 121.13 41.20 120.78 45.20 120.42 49.08 C 122.39 48.23 124.47 47.48 126.10 46.04 C 130.36 42.21 134.64 38.37 138.10 33.78 C 139.39 35.38 139.86 37.29 139.79 39.31 C 142.33 37.24 144.83 34.82 148.11 34.01 C 150.48 33.59 152.15 35.94 152.18 38.09 C 153.02 41.08 150.83 43.61 150.12 46.37 C 155.60 43.26 160.44 39.16 165.78 35.83 C 167.03 34.66 168.56 35.87 169.36 36.96 C 167.63 41.43 166.55 46.13 164.71 50.56 C 163.72 50.08 162.78 49.53 161.88 48.90 C 162.04 47.06 162.42 45.24 162.72 43.42 C 161.62 43.41 160.51 43.41 159.41 43.41 C 157.33 46.37 154.14 48.18 151.70 50.80 C 150.23 52.59 146.66 52.15 145.99 49.83 C 146.32 45.78 148.13 42.03 148.65 38.00 C 143.02 40.31 139.31 45.62 136.40 50.76 C 135.65 52.29 133.63 50.96 132.35 51.11 C 132.53 48.64 133.11 46.23 133.40 43.77 C 130.51 47.32 127.01 50.42 122.92 52.49 C 118.50 53.19 116.50 48.92 116.38 45.22 C 113.14 47.71 111.01 51.48 107.40 53.49 C 105.47 54.73 101.95 53.74 102.31 51.00 C 103.04 45.55 107.23 41.60 110.41 37.43 M 108.61 46.78 C 112.02 44.16 114.90 40.86 117.19 37.24 C 112.99 38.91 110.50 42.90 108.61 46.78 Z" />
<path fill="#000000" opacity="1.00" d=" M 207.24 58.21 C 208.36 56.57 210.34 54.10 212.55 55.34 C 214.64 56.81 215.09 59.56 215.28 61.93 C 215.71 69.47 212.39 76.48 208.94 82.97 C 205.36 90.24 200.45 97.27 192.93 100.85 C 190.83 102.50 187.85 100.90 185.90 102.76 C 183.56 104.57 180.39 105.07 177.54 104.44 C 175.28 103.26 174.43 100.71 173.31 98.60 C 170.64 100.70 168.16 103.16 165.03 104.56 C 163.35 104.57 162.23 103.03 160.87 102.28 C 156.45 103.00 152.18 106.30 147.63 104.35 C 144.27 103.68 142.82 100.14 142.89 97.03 C 142.75 93.98 144.93 91.56 145.80 88.78 C 147.81 82.62 150.57 76.65 154.59 71.54 C 156.38 69.37 158.47 67.18 161.27 66.42 C 164.49 65.63 168.10 68.60 167.57 71.97 C 167.54 76.06 164.63 79.24 162.51 82.47 C 158.99 87.61 153.96 91.38 148.85 94.81 C 146.51 96.28 146.42 99.19 146.63 101.64 C 151.07 101.37 155.39 100.14 159.51 98.50 C 161.70 97.71 162.20 95.13 163.41 93.38 C 166.17 88.93 170.21 84.74 175.47 83.51 C 177.88 82.87 181.44 84.03 181.33 86.98 C 179.82 91.40 177.03 95.43 176.77 100.24 C 180.61 100.44 186.02 99.52 187.05 95.11 C 188.85 89.14 193.64 84.86 198.72 81.62 C 199.69 73.27 203.04 65.41 207.24 58.21 M 202.87 83.54 C 205.42 81.44 207.75 78.79 208.57 75.51 C 210.12 70.93 212.74 66.35 211.61 61.33 C 206.56 67.57 204.12 75.71 202.87 83.54 M 155.46 78.42 C 153.63 81.58 151.45 84.69 150.95 88.40 C 155.74 86.24 158.10 81.21 161.80 77.75 C 164.11 75.65 165.07 72.55 164.49 69.48 C 160.42 71.15 157.64 74.75 155.46 78.42 M 191.19 96.81 C 195.11 94.35 199.31 91.14 200.62 86.50 C 195.48 87.15 192.25 92.13 191.19 96.81 M 166.67 98.53 C 171.49 98.11 174.83 93.42 174.51 88.75 C 170.63 90.68 167.32 94.10 166.67 98.53 Z" />
<path fill="#000000" opacity="1.00" d=" M 97.57 76.54 C 104.51 68.38 113.26 60.98 123.98 58.65 C 128.76 58.76 133.88 60.11 137.25 63.74 C 140.49 66.91 141.81 71.99 140.16 76.26 C 138.85 79.37 137.15 82.31 135.32 85.14 C 136.32 86.08 137.31 87.03 138.30 87.98 C 137.37 90.79 136.18 93.51 134.85 96.15 C 137.18 96.08 139.53 95.95 141.82 96.53 C 140.08 98.35 137.60 99.12 135.65 100.66 C 133.15 102.54 131.48 105.27 130.11 108.03 C 127.28 113.76 124.81 119.65 121.95 125.35 C 119.81 123.15 117.80 120.41 118.25 117.14 C 119.88 109.34 127.31 104.69 130.02 97.40 C 124.50 99.87 119.96 104.11 114.26 106.25 C 110.34 107.77 106.22 109.00 101.98 109.11 C 95.41 108.74 89.36 102.77 89.58 96.05 C 89.34 88.75 92.70 81.81 97.57 76.54 M 113.56 67.57 C 108.19 72.18 102.19 76.20 97.78 81.82 C 93.99 86.51 92.49 92.85 93.36 98.78 C 93.85 101.89 95.95 105.05 99.27 105.53 C 105.26 106.49 111.09 103.97 116.27 101.24 C 120.33 99.15 123.80 95.86 128.30 94.70 C 128.86 91.88 131.56 90.32 132.82 87.86 C 129.30 89.90 126.04 92.67 121.96 93.52 C 119.48 93.67 117.05 92.02 116.14 89.73 C 115.86 87.39 116.21 85.03 116.31 82.69 C 109.60 86.90 105.46 94.03 98.84 98.33 C 97.99 98.33 96.30 98.32 95.45 98.31 C 103.29 89.41 112.58 81.91 120.46 73.04 C 121.27 71.30 124.53 73.36 123.21 74.69 C 120.83 79.05 119.22 83.92 118.84 88.88 C 119.39 89.33 120.50 90.24 121.05 90.70 C 125.59 89.21 129.01 85.60 132.35 82.34 C 136.08 78.72 138.46 73.37 137.21 68.14 C 135.84 63.52 130.65 61.13 126.11 61.78 C 121.55 62.69 117.06 64.44 113.56 67.57 Z" />
<path fill="#000000" opacity="1.00" d=" M 210.98 92.15 C 214.11 87.73 217.06 82.62 222.19 80.28 C 227.03 80.12 229.44 87.22 226.72 90.75 C 223.08 92.99 218.97 94.37 215.16 96.32 C 217.01 96.92 218.95 97.88 220.94 97.29 C 229.41 94.42 236.63 88.40 241.17 80.71 C 244.94 83.55 240.59 88.12 239.07 91.11 C 234.42 96.34 228.01 100.48 220.95 101.31 C 214.77 101.69 210.81 96.22 206.52 92.68 C 208.00 92.50 209.49 92.32 210.98 92.15 M 218.34 90.47 C 220.97 89.71 223.25 87.94 223.69 85.08 C 221.49 86.41 219.64 88.25 218.34 90.47 Z" />
</g>
</svg>
