<?xml version="1.0" encoding="UTF-8" ?>
<!DOCTYPE svg PUBLIC "-//W3C//DTD SVG 1.1//EN" "http://www.w3.org/Graphics/SVG/1.1/DTD/svg11.dtd">
<svg width="512pt" height="128pt" viewBox="0 0 512 128" version="1.1" xmlns="http://www.w3.org/2000/svg">
<g id="#000000ff">
<path fill="#000000" opacity="1.00" d=" M 143.41 38.36 C 145.33 37.20 145.42 39.93 145.91 41.14 C 146.76 46.99 143.30 52.13 141.81 57.57 C 146.41 54.97 150.34 50.42 156.00 50.33 C 159.52 53.00 159.39 59.23 156.44 62.45 C 150.73 68.32 142.95 71.47 135.37 74.16 C 136.80 78.11 139.96 83.07 144.77 82.58 C 150.88 81.48 155.55 77.00 159.93 72.93 C 162.70 70.53 163.89 66.78 166.90 64.62 C 167.59 66.87 168.26 69.14 169.15 71.33 C 175.49 70.52 181.15 66.98 185.99 62.98 C 190.30 56.92 191.84 49.43 194.67 42.65 C 195.02 41.20 196.55 41.23 197.73 40.94 C 198.83 46.13 198.06 51.88 195.46 56.50 C 191.24 60.55 188.79 65.90 186.39 71.14 C 188.97 70.62 191.73 68.07 194.35 69.54 C 196.51 71.82 197.51 75.69 195.34 78.31 C 192.36 81.70 186.88 83.05 182.97 80.46 C 181.93 82.44 178.84 84.05 178.18 80.91 C 179.62 76.67 181.91 72.76 183.28 68.48 C 178.89 70.91 174.39 73.12 169.55 74.48 C 168.20 78.12 165.99 81.61 162.55 83.59 C 160.92 84.32 159.08 83.10 158.48 81.57 C 158.30 79.87 158.45 78.17 158.40 76.47 C 154.73 80.47 150.52 84.42 144.99 85.48 C 140.19 85.67 136.25 81.89 134.14 77.90 C 133.34 76.86 132.98 74.97 131.32 75.22 C 129.73 77.59 128.61 80.23 127.64 82.90 C 126.96 82.89 125.60 82.85 124.92 82.84 C 126.77 73.97 133.87 67.52 137.49 59.41 C 139.81 54.45 141.73 49.26 142.91 43.90 C 139.03 45.96 137.29 50.31 134.47 53.47 C 128.21 60.71 124.34 69.74 117.41 76.43 C 112.79 81.77 106.69 85.50 100.50 88.73 C 98.18 89.92 94.85 90.16 93.15 87.83 C 88.63 82.70 89.97 74.27 94.92 69.89 C 98.46 66.82 102.54 64.21 106.99 62.69 C 109.53 62.98 110.12 65.94 110.49 68.00 C 110.99 71.25 109.90 76.11 105.85 76.15 C 107.14 72.55 110.01 68.91 107.76 65.00 C 103.75 66.09 100.31 68.56 97.10 71.11 C 93.32 74.56 91.31 80.55 93.65 85.35 C 94.55 87.63 97.40 86.93 99.17 86.27 C 109.73 81.59 118.68 73.61 125.04 64.01 C 130.82 55.21 137.69 47.20 143.41 38.36 M 134.33 71.58 C 140.63 69.82 146.64 66.87 151.75 62.78 C 154.42 60.37 157.25 56.79 155.83 52.99 C 145.89 54.64 138.56 62.87 134.33 71.58 M 161.48 80.50 C 164.32 78.52 168.24 75.04 165.95 71.27 C 163.24 73.56 162.14 77.13 161.48 80.50 M 185.06 79.13 C 189.29 80.21 194.71 76.91 193.70 72.09 C 189.70 72.03 184.59 74.44 185.06 79.13 Z" />
<path fill="#000000" opacity="1.00" d=" M 262.22 43.48 C 266.30 45.90 266.43 51.21 266.74 55.42 C 266.43 67.45 259.39 79.13 248.77 84.84 C 247.27 85.74 245.50 85.88 243.82 86.09 C 243.47 79.83 248.42 74.79 252.55 70.65 C 251.84 60.76 256.49 51.25 262.22 43.48 M 255.09 68.40 C 255.77 68.54 257.14 68.81 257.82 68.95 C 258.42 69.96 259.04 70.96 259.68 71.95 C 264.18 64.44 266.55 55.05 263.01 46.66 C 257.78 52.57 256.00 60.76 255.09 68.40 M 246.57 82.95 C 250.16 80.85 253.99 78.63 256.27 75.04 C 255.55 74.29 254.81 73.58 254.05 72.88 C 250.58 75.37 247.70 78.76 246.57 82.95 Z" />
<path fill="#000000" opacity="1.00" d=" M 288.95 50.06 C 303.15 48.80 318.03 53.47 331.76 48.20 C 332.36 49.02 332.88 49.90 333.33 50.82 C 328.60 53.01 323.35 53.29 318.24 53.72 C 316.84 53.53 316.45 54.92 315.98 55.91 C 314.29 59.79 312.57 63.66 311.00 67.59 C 313.90 67.54 316.84 67.49 319.68 66.79 C 321.44 65.38 321.43 62.29 323.95 61.74 C 324.37 64.27 325.55 68.11 322.57 69.53 C 320.44 70.74 319.10 72.82 317.76 74.79 C 317.39 74.61 316.65 74.26 316.28 74.09 C 316.60 72.92 316.91 71.75 317.22 70.58 C 314.57 70.68 311.86 70.48 309.29 71.18 C 306.02 75.23 305.34 81.41 300.93 84.45 C 295.58 83.76 290.66 80.31 287.85 75.73 C 290.24 75.22 291.88 77.15 293.65 78.37 C 295.61 79.85 297.90 80.76 300.13 81.74 C 302.59 78.49 304.58 74.85 305.75 70.94 C 301.88 70.76 298.01 70.84 294.15 70.75 C 294.14 70.13 294.13 68.90 294.12 68.28 C 298.60 68.21 303.07 67.72 307.55 67.61 C 309.92 63.12 311.76 58.37 313.89 53.76 C 305.59 53.54 297.29 51.96 288.99 52.79 C 287.16 52.89 283.81 54.23 285.41 56.53 C 288.78 59.28 293.19 60.18 297.40 60.74 C 297.54 61.30 297.80 62.42 297.94 62.98 C 292.20 63.09 285.56 61.80 282.20 56.71 C 281.74 52.85 285.38 50.11 288.95 50.06 Z" />
<path fill="#000000" opacity="1.00" d=" M 327.05 74.02 C 330.13 69.94 334.14 65.03 339.76 65.20 C 341.98 69.92 337.82 74.11 336.76 78.51 C 342.09 76.28 344.87 70.26 350.03 67.53 C 352.12 67.00 353.65 69.37 353.68 71.21 C 353.55 75.01 351.46 78.37 350.83 82.07 C 355.38 81.21 359.57 78.98 363.33 76.33 C 366.36 74.19 368.07 70.85 370.18 67.92 C 373.63 68.09 372.19 72.56 371.90 74.78 C 374.83 73.09 377.74 71.24 380.97 70.15 C 384.52 70.20 383.27 74.43 382.75 76.59 C 386.46 73.67 390.54 71.10 395.13 69.80 C 397.17 69.10 399.24 71.09 399.46 73.05 C 399.68 75.83 398.46 78.42 397.90 81.09 C 403.51 78.95 409.41 75.73 412.20 70.15 C 412.61 68.90 413.88 68.52 414.93 67.98 C 415.18 69.53 416.11 71.28 415.17 72.79 C 410.56 78.69 404.06 82.90 396.97 85.22 C 395.39 85.65 393.61 84.62 393.40 82.95 C 394.39 79.81 395.72 76.75 396.22 73.47 C 389.38 73.57 384.78 79.03 380.33 83.46 C 379.40 84.79 377.83 83.32 376.73 83.09 C 377.79 80.15 378.98 77.24 379.68 74.18 C 373.68 75.55 370.08 81.04 365.84 84.93 C 362.11 85.46 363.79 81.55 364.56 79.59 C 360.11 81.63 355.99 84.64 351.02 85.31 C 349.46 85.78 347.74 85.28 346.94 83.79 C 347.06 79.23 349.98 75.31 350.26 70.76 C 344.11 74.30 341.16 83.32 333.33 83.80 C 332.99 82.44 332.69 81.08 332.42 79.71 C 329.14 81.32 326.95 85.29 322.90 84.89 C 321.64 80.75 325.06 77.30 327.05 74.02 M 328.56 77.78 C 332.32 75.46 335.22 71.98 338.10 68.68 C 333.72 69.90 330.35 73.73 328.56 77.78 Z" />
<path fill="#000000" opacity="1.00" d=" M 204.44 68.45 C 206.45 66.53 209.07 65.29 211.90 65.42 C 212.63 67.28 213.50 69.09 214.17 70.98 C 213.52 74.03 212.89 77.11 213.11 80.25 C 218.48 75.77 222.88 69.48 230.06 67.73 C 232.60 66.91 234.36 69.84 234.44 72.02 C 234.50 75.51 230.91 77.44 230.26 80.72 C 233.28 80.52 235.83 78.85 238.46 77.53 C 240.40 76.06 241.88 80.12 239.77 80.72 C 236.33 82.45 232.38 85.28 228.41 83.59 C 226.88 83.24 226.03 81.60 226.18 80.13 C 227.32 76.76 230.61 74.50 231.13 70.86 C 224.93 71.47 220.90 76.71 216.96 80.93 C 215.52 82.79 213.46 86.64 210.72 84.31 C 208.79 81.85 210.23 78.34 209.90 75.46 C 207.05 78.45 204.62 81.97 201.12 84.24 C 199.46 85.37 196.41 85.25 196.23 82.75 C 196.12 76.86 200.37 72.18 204.44 68.45 M 199.56 81.28 C 204.30 78.60 207.65 74.17 210.97 69.97 C 210.35 69.29 209.74 68.61 209.12 67.93 C 204.72 71.20 200.08 75.49 199.56 81.28 Z" />
</g>
</svg>
