<?xml version="1.0" encoding="UTF-8" ?>
<!DOCTYPE svg PUBLIC "-//W3C//DTD SVG 1.1//EN" "http://www.w3.org/Graphics/SVG/1.1/DTD/svg11.dtd">
<svg width="512pt" height="128pt" viewBox="0 0 512 128" version="1.1" xmlns="http://www.w3.org/2000/svg">
<g id="#000000ff">
<path fill="#000000" opacity="1.00" d=" M 330.23 18.23 C 331.48 17.01 332.77 15.36 334.67 15.33 C 336.77 16.86 338.60 19.25 338.51 21.97 C 339.17 36.23 334.05 50.34 325.84 61.85 C 322.30 66.02 317.85 69.36 313.27 72.30 C 311.86 73.47 309.76 72.79 309.35 71.00 C 315.65 66.98 322.53 62.96 325.98 55.98 C 331.32 47.87 334.82 38.61 336.28 29.02 C 336.61 25.70 336.40 22.33 335.74 19.06 C 335.14 19.12 333.94 19.24 333.34 19.30 C 329.04 23.18 326.07 28.24 323.17 33.19 C 313.85 47.35 307.42 63.50 295.62 75.96 C 302.22 78.22 309.13 79.58 316.02 80.62 C 319.52 81.55 321.46 77.18 324.91 77.66 C 323.79 80.41 322.43 83.90 319.00 84.23 C 310.12 84.17 301.74 80.52 293.03 79.44 C 289.94 80.66 286.13 83.22 282.96 81.00 C 281.04 77.82 282.75 73.81 283.96 70.62 C 286.33 71.83 288.31 73.90 290.95 74.51 C 292.94 73.85 294.30 72.14 295.56 70.56 C 303.14 60.59 309.66 49.87 316.20 39.20 C 320.56 32.00 324.82 24.70 330.23 18.23 M 285.14 76.35 C 284.66 77.96 285.26 78.52 286.91 78.03 C 287.39 76.44 286.80 75.88 285.14 76.35 Z" />
<path fill="#000000" opacity="1.00" d=" M 129.51 27.57 C 135.76 25.16 142.49 22.00 149.31 23.82 C 152.96 25.73 156.21 29.06 157.47 33.02 C 157.58 37.42 157.42 42.14 155.07 46.03 C 150.41 56.24 141.05 63.33 131.18 68.11 C 129.22 69.08 127.07 69.51 124.89 69.53 C 122.90 65.63 125.23 61.62 125.85 57.71 C 122.60 58.85 120.37 61.60 117.89 63.83 C 114.65 66.97 111.01 69.67 107.81 72.85 C 106.83 73.61 106.37 75.54 107.56 76.31 C 112.18 80.44 119.13 80.33 124.75 78.62 C 131.45 76.45 137.85 73.40 144.03 70.04 C 149.75 67.00 153.43 61.11 159.51 58.64 C 161.82 57.48 165.07 58.08 166.32 60.49 C 166.69 62.26 166.80 64.07 167.09 65.85 C 164.13 69.15 161.19 72.93 160.71 77.49 C 168.20 74.43 175.23 70.22 182.18 66.07 C 183.68 65.75 184.41 66.35 184.38 67.87 C 182.08 71.14 180.30 74.72 178.85 78.44 C 186.14 76.91 190.56 70.49 195.43 65.46 C 197.35 62.09 201.99 65.44 202.81 67.95 C 200.70 71.94 197.53 75.33 195.74 79.52 C 205.17 78.55 214.75 74.17 220.04 66.00 C 223.03 67.80 221.21 70.46 219.85 72.64 C 222.92 71.26 225.70 69.21 228.97 68.31 C 230.66 68.40 232.07 70.30 231.27 71.92 C 230.39 74.69 229.10 77.35 228.80 80.27 C 233.45 79.60 237.27 76.73 240.50 73.49 C 245.45 69.71 248.59 62.89 246.18 56.82 C 250.33 56.80 250.24 61.71 249.65 64.66 C 247.92 72.42 241.17 77.74 234.68 81.62 C 232.29 82.58 228.80 85.06 226.71 82.37 C 225.49 78.80 227.58 75.35 228.12 71.87 C 222.25 73.82 218.88 79.50 213.95 82.85 C 211.39 83.25 212.15 79.43 212.24 77.83 C 207.37 79.99 202.38 82.06 197.08 82.84 C 194.05 83.21 192.09 79.13 193.65 76.70 C 195.25 73.95 197.49 71.55 198.42 68.44 C 195.90 68.21 194.89 70.91 193.24 72.26 C 188.88 76.12 184.80 80.80 178.94 82.31 C 176.89 83.31 175.47 80.68 175.38 78.99 C 176.03 76.79 177.06 74.72 177.80 72.54 C 171.42 74.09 166.75 79.82 160.24 80.83 C 156.61 79.90 158.41 75.37 158.80 72.81 C 154.88 75.53 150.86 78.35 146.06 79.22 C 145.13 77.54 144.63 75.69 144.37 73.80 C 138.23 75.80 132.98 79.91 126.74 81.73 C 121.19 83.71 114.94 83.75 109.49 81.45 C 107.07 80.32 105.52 77.90 103.08 76.84 C 98.35 79.71 94.84 84.22 89.96 86.93 C 85.67 89.16 82.92 93.94 78.00 94.90 C 77.95 92.19 81.09 91.37 82.71 89.71 C 88.30 84.84 95.01 81.48 100.64 76.67 C 103.37 74.51 100.98 70.86 101.26 68.01 C 101.37 61.10 102.89 53.81 107.28 48.29 C 109.38 45.40 110.70 41.87 113.55 39.59 C 118.69 35.35 123.79 31.01 129.51 27.57 M 135.33 28.17 C 123.40 33.25 112.99 42.41 107.11 54.04 C 104.73 59.81 102.76 66.46 105.08 72.57 C 113.57 66.08 122.24 59.35 128.36 50.46 C 129.17 49.50 130.22 48.88 131.49 48.60 C 131.05 54.59 125.73 59.49 126.34 65.77 C 128.11 67.55 130.31 65.75 132.18 65.13 C 142.66 60.30 151.59 51.27 155.00 40.11 C 156.54 35.69 155.36 30.35 151.38 27.64 C 146.55 24.33 140.37 26.51 135.33 28.17 M 159.40 62.27 C 154.08 64.82 149.66 69.59 147.75 75.19 C 154.31 72.42 161.41 68.54 164.29 61.63 C 162.63 61.47 160.88 61.36 159.40 62.27 Z" />
<path fill="#000000" opacity="1.00" d=" M 366.48 44.45 C 367.94 42.06 370.57 39.76 373.58 40.41 C 375.42 41.61 375.68 43.98 376.04 45.96 C 375.77 57.48 372.29 69.62 363.89 77.89 C 359.78 81.22 355.59 85.25 350.18 86.15 C 347.85 84.65 349.09 81.74 349.69 79.64 C 350.75 76.36 353.78 74.43 356.10 72.09 C 357.92 70.23 360.57 69.72 362.87 68.68 C 361.04 60.52 361.94 51.60 366.48 44.45 M 368.07 47.05 C 364.85 53.06 362.60 60.00 364.09 66.86 C 364.05 68.40 365.82 68.74 366.84 69.41 C 371.30 62.50 373.69 54.28 373.74 46.06 C 373.67 44.89 373.51 43.28 372.01 43.25 C 370.36 44.11 368.91 45.37 368.07 47.05 M 352.69 81.16 C 357.07 79.01 361.35 76.20 364.39 72.33 C 359.54 73.50 354.85 76.61 352.69 81.16 Z" />
<path fill="#000000" opacity="1.00" d=" M 189.89 56.79 C 186.94 54.50 189.09 50.25 192.06 49.29 C 194.49 51.83 191.23 54.65 189.89 56.79 Z" />
<path fill="#000000" opacity="1.00" d=" M 370.90 79.19 C 373.83 72.24 380.11 67.00 387.02 64.27 C 389.24 65.37 390.87 67.81 391.63 70.15 C 390.97 74.37 388.11 77.88 386.57 81.81 C 389.52 80.91 392.45 79.75 395.08 78.12 C 397.15 74.85 398.22 70.62 401.42 68.24 C 402.87 66.91 404.65 68.17 405.44 69.59 C 406.67 71.50 406.19 73.87 406.20 76.01 C 403.52 77.11 400.70 78.07 398.48 79.99 C 398.73 82.98 402.40 83.99 404.94 83.70 C 411.13 82.99 417.37 81.12 422.44 77.40 C 426.00 74.85 427.57 70.60 429.90 67.05 C 430.29 67.78 431.07 69.23 431.46 69.95 C 428.13 76.10 423.65 82.52 416.55 84.48 C 410.96 86.29 404.69 88.68 398.96 86.01 C 396.96 85.28 396.03 83.28 394.98 81.61 C 392.13 83.36 388.99 84.53 385.97 85.95 C 381.50 88.18 379.86 93.23 377.09 97.03 C 374.04 101.04 372.34 106.16 367.99 109.06 C 364.55 105.18 364.27 99.49 365.86 94.77 C 368.23 89.40 374.33 87.75 379.11 85.23 C 383.36 83.57 384.49 78.66 386.28 74.93 C 381.00 77.41 377.25 82.96 371.26 83.81 C 370.78 82.32 370.13 80.71 370.90 79.19 M 375.45 78.43 C 378.59 76.65 381.21 74.10 384.31 72.24 C 385.68 71.51 386.57 70.25 387.23 68.87 C 382.58 70.78 377.50 73.63 375.45 78.43 M 369.76 93.80 C 366.85 96.61 366.16 101.11 368.03 104.69 C 372.24 100.09 375.34 94.54 378.41 89.13 C 375.27 90.16 371.73 90.88 369.76 93.80 Z" />
<path fill="#000000" opacity="1.00" d=" M 341.35 65.95 C 342.87 66.74 345.23 66.99 345.80 68.87 C 342.24 72.98 341.73 78.93 337.67 82.69 C 336.06 84.05 334.43 85.78 332.21 85.92 C 330.45 85.05 330.30 82.81 330.89 81.16 C 333.13 75.31 337.98 71.09 341.35 65.95 M 337.44 75.99 C 336.19 76.53 334.86 78.13 335.26 79.54 C 336.64 79.89 339.27 76.65 337.44 75.99 Z" />
</g>
</svg>
