<?xml version="1.0" encoding="UTF-8" ?>
<!DOCTYPE svg PUBLIC "-//W3C//DTD SVG 1.1//EN" "http://www.w3.org/Graphics/SVG/1.1/DTD/svg11.dtd">
<svg width="256pt" height="128pt" viewBox="0 0 256 128" version="1.1" xmlns="http://www.w3.org/2000/svg">
<g id="#000000ff">
<path fill="#000000" opacity="1.00" d=" M 88.47 5.54 C 92.93 4.46 97.16 7.76 99.16 11.50 C 95.74 9.85 92.42 5.75 88.24 8.13 C 81.16 12.11 74.21 17.19 69.86 24.18 C 69.59 28.61 72.63 32.56 72.65 37.02 C 73.26 46.63 66.62 54.79 59.82 60.76 C 56.59 63.86 52.56 60.98 48.99 60.45 C 43.14 61.61 37.76 65.85 31.55 64.60 C 29.01 64.09 25.58 62.38 26.25 59.25 C 27.48 56.23 30.94 54.94 33.97 54.72 C 38.44 54.30 42.60 56.33 46.95 56.86 C 50.73 56.88 52.50 52.94 54.27 50.23 C 58.53 42.33 62.53 34.28 66.17 26.08 C 59.19 17.40 46.30 15.32 36.20 19.17 C 28.02 21.84 22.02 28.38 16.95 35.03 C 11.43 45.12 9.23 59.01 17.27 68.44 C 10.70 65.09 8.32 56.79 9.54 49.89 C 9.48 43.29 12.52 37.31 15.70 31.73 C 19.80 24.79 26.84 20.26 33.93 16.82 C 38.61 14.46 43.95 14.81 49.02 14.80 C 55.80 15.52 61.80 19.33 66.98 23.54 C 69.60 19.41 72.74 15.56 76.78 12.75 C 80.56 10.18 84.14 7.13 88.47 5.54 M 62.53 40.61 C 59.20 46.68 57.11 53.68 51.81 58.44 C 53.60 59.22 55.84 60.20 57.61 58.79 C 61.67 55.81 65.25 52.02 67.71 47.61 C 70.59 42.08 71.33 34.89 68.09 29.37 C 66.31 33.15 64.55 36.95 62.53 40.61 M 31.67 57.74 C 30.10 58.12 29.07 59.46 28.75 60.99 C 33.56 62.79 38.92 61.77 43.11 58.95 C 39.65 56.97 35.47 56.92 31.67 57.74 Z" />
<path fill="#000000" opacity="1.00" d=" M 167.93 30.12 C 163.83 31.51 164.72 25.25 166.79 23.46 C 168.25 25.41 168.57 27.80 167.93 30.12 Z" />
<path fill="#000000" opacity="1.00" d=" M 91.69 42.06 C 93.91 39.28 95.11 35.60 98.03 33.46 C 99.46 33.80 100.49 35.22 99.60 36.62 C 98.28 38.94 99.07 41.67 98.03 44.08 C 99.39 44.84 102.55 45.48 101.43 47.62 C 99.82 51.22 97.46 54.51 96.71 58.46 C 100.42 58.80 103.32 56.18 105.78 53.79 C 109.51 50.37 111.30 45.42 114.92 41.90 C 115.88 40.57 117.94 41.14 118.87 42.20 C 118.90 44.61 116.94 46.51 116.22 48.74 C 120.25 46.94 123.81 43.87 128.36 43.42 C 128.44 46.25 127.80 49.01 127.17 51.75 C 131.26 49.30 134.83 45.97 139.41 44.39 C 140.90 43.38 143.57 43.86 143.62 46.02 C 143.31 49.99 141.84 53.73 140.39 57.39 C 146.82 55.50 151.23 50.33 155.91 45.89 C 157.40 44.09 159.67 44.76 161.32 45.90 C 159.85 49.05 157.53 51.79 156.62 55.19 C 161.73 53.13 165.61 49.06 170.31 46.32 C 170.92 46.24 172.15 46.06 172.77 45.97 C 172.93 47.52 173.06 49.08 173.18 50.63 C 176.55 49.45 179.36 46.80 183.02 46.49 C 183.17 50.65 182.46 54.74 182.12 58.85 C 192.18 57.65 200.93 48.28 200.07 37.91 C 198.27 37.62 196.46 37.41 194.66 37.14 C 195.67 35.38 197.35 33.25 199.67 34.15 C 203.22 37.52 203.18 43.12 201.39 47.37 C 198.81 54.49 192.22 59.75 184.81 61.07 C 182.44 61.71 178.47 62.23 177.98 58.90 C 178.81 56.20 179.94 53.57 180.05 50.70 C 173.44 50.70 170.35 57.36 166.01 61.18 C 165.59 60.65 164.75 59.59 164.33 59.06 C 165.41 57.03 166.52 54.99 167.28 52.81 C 160.89 53.80 157.96 62.18 151.28 61.83 C 151.23 59.39 151.75 57.01 152.11 54.62 C 146.41 55.50 142.82 62.05 137.11 62.18 C 135.03 57.41 139.41 52.88 139.82 48.13 C 136.08 48.63 133.46 51.47 130.49 53.50 C 127.20 55.73 125.22 59.35 122.02 61.68 C 120.22 61.75 119.48 60.89 119.80 59.09 C 121.07 55.51 122.83 52.09 123.71 48.37 C 118.46 50.95 113.66 54.71 110.50 59.70 C 109.11 61.74 106.83 59.63 106.11 58.11 C 103.76 60.06 100.87 61.22 97.94 62.02 C 95.97 62.67 93.20 61.29 93.41 58.97 C 93.51 54.91 95.73 51.33 97.77 47.97 C 95.42 46.58 93.10 44.04 90.10 44.77 C 87.68 45.25 85.25 45.63 82.79 45.77 C 82.93 49.71 83.58 54.43 80.54 57.53 C 78.15 60.10 75.99 63.63 72.17 64.03 C 70.87 63.53 69.60 62.43 69.50 60.95 C 68.70 56.18 71.85 52.12 74.35 48.40 C 77.32 44.97 80.46 41.15 84.98 39.80 C 87.17 40.60 89.18 43.74 91.69 42.06 M 77.21 50.22 C 75.18 53.41 72.44 56.54 72.39 60.53 C 77.25 58.18 79.90 52.97 81.07 47.92 C 79.40 47.86 78.02 48.80 77.21 50.22 Z" />
<path fill="#000000" opacity="1.00" d=" M 87.68 72.66 C 91.03 70.55 95.36 68.59 99.18 70.79 C 104.31 73.76 108.13 79.90 106.72 85.96 C 105.47 92.22 101.98 98.01 97.17 102.20 C 93.36 105.59 88.43 107.26 83.65 108.73 C 80.26 109.98 75.71 107.81 75.33 104.02 C 75.24 101.90 75.63 99.80 75.75 97.69 C 72.39 99.56 69.92 102.60 66.79 104.78 C 65.17 106.12 62.89 107.20 62.71 109.57 C 62.17 112.93 60.68 116.98 63.09 119.95 C 65.25 122.25 68.77 121.63 71.59 121.40 C 83.22 118.89 93.35 111.65 101.34 103.06 C 104.21 101.77 109.91 102.17 110.54 106.02 C 109.07 111.13 103.69 114.01 102.39 119.20 C 105.69 118.52 108.97 117.56 111.97 115.99 C 115.70 114.01 116.59 109.37 119.83 106.82 C 121.93 104.92 125.03 101.75 127.95 104.04 C 131.03 105.65 129.22 109.54 127.43 111.43 C 124.23 115.76 116.31 114.82 115.62 121.18 C 123.33 119.01 130.14 114.66 137.40 111.41 C 140.63 110.08 143.06 107.46 146.16 105.91 C 147.78 104.89 150.44 105.92 150.20 108.06 C 149.59 111.19 147.70 113.86 146.92 116.93 C 152.04 115.87 156.26 112.43 160.30 109.30 C 162.98 105.82 165.80 102.38 167.86 98.48 C 162.24 98.53 156.61 98.75 151.01 99.16 C 148.83 99.26 146.36 100.19 144.48 98.60 C 143.53 97.01 145.53 95.68 146.98 95.80 C 153.98 95.71 160.99 95.38 167.97 94.85 C 172.12 94.77 173.11 89.90 175.57 87.39 C 176.54 85.67 178.19 87.62 179.30 88.07 C 178.38 90.09 177.20 91.98 176.41 94.06 C 182.64 94.68 188.85 93.80 195.05 93.27 C 196.66 93.34 197.34 94.19 197.08 95.82 C 194.69 97.81 191.47 97.22 188.61 97.57 C 184.19 98.07 179.66 97.16 175.30 98.28 C 172.35 99.16 170.95 102.13 169.58 104.62 C 167.39 108.92 164.68 113.14 164.06 118.03 C 169.08 118.04 173.92 114.60 176.42 110.33 C 178.24 109.68 179.22 112.25 178.87 113.68 C 175.20 117.94 169.98 120.13 165.02 122.47 C 163.39 121.34 161.22 120.63 160.24 118.82 C 160.34 116.75 160.79 114.72 161.03 112.67 C 158.14 114.16 155.47 116.02 152.71 117.72 C 148.48 120.31 143.42 120.80 139.04 123.04 C 136.39 121.86 134.36 119.60 132.85 117.18 C 126.93 120.06 120.95 122.80 115.08 125.73 C 114.19 124.96 113.30 124.19 112.40 123.44 C 112.28 122.19 112.16 120.94 112.04 119.69 C 108.76 120.92 105.52 122.34 102.06 122.97 C 100.19 123.22 98.27 121.78 98.03 119.91 C 99.08 114.31 104.12 110.79 106.34 105.84 C 104.65 105.79 102.86 105.20 101.21 105.78 C 97.41 111.79 91.42 115.90 85.33 119.34 C 81.19 121.93 76.49 123.48 71.74 124.51 C 67.57 125.43 63.31 123.56 60.21 120.84 C 57.47 118.24 58.91 114.20 58.76 110.90 C 56.55 111.91 54.47 114.24 51.85 113.21 C 53.37 109.61 57.63 108.83 59.93 105.97 C 61.23 103.25 60.88 100.00 62.32 97.30 C 64.94 92.71 67.26 87.82 71.09 84.07 C 75.56 78.88 82.01 76.23 87.68 72.66 M 82.45 79.48 C 78.19 82.46 73.59 85.23 70.53 89.55 C 67.76 93.52 65.01 97.78 64.46 102.71 C 68.25 101.50 70.50 97.92 73.62 95.65 C 76.56 93.51 78.85 90.71 81.12 87.90 C 83.05 87.76 83.98 90.11 82.48 91.34 C 79.09 95.51 76.63 101.33 78.51 106.65 C 87.01 106.67 94.56 101.16 99.92 94.95 C 104.88 89.45 105.89 80.08 100.55 74.49 C 99.02 72.58 96.33 71.95 94.08 72.84 C 89.86 74.38 86.13 76.96 82.45 79.48 M 117.57 114.13 C 120.22 113.11 122.57 111.48 124.77 109.74 C 126.27 108.93 126.72 107.41 126.18 105.83 C 122.72 107.89 120.04 111.00 117.57 114.13 M 136.30 115.16 C 137.21 116.68 138.57 118.58 140.62 117.65 C 142.68 115.75 144.04 113.20 145.14 110.64 C 142.13 112.02 139.38 113.90 136.30 115.16 Z" />
</g>
</svg>
