<?xml version="1.0" encoding="UTF-8" ?>
<!DOCTYPE svg PUBLIC "-//W3C//DTD SVG 1.1//EN" "http://www.w3.org/Graphics/SVG/1.1/DTD/svg11.dtd">
<svg width="512pt" height="128pt" viewBox="0 0 512 128" version="1.1" xmlns="http://www.w3.org/2000/svg">
<g id="#000000ff">
<path fill="#000000" opacity="1.00" d=" M 120.87 38.98 C 123.84 38.01 126.82 36.91 129.93 36.52 C 132.35 37.82 136.77 38.25 136.43 41.89 C 135.51 43.28 134.31 44.46 133.10 45.59 C 133.24 43.74 133.55 41.92 133.77 40.08 C 129.19 37.66 124.09 39.66 119.77 41.66 C 115.26 44.45 112.60 49.22 108.86 52.85 C 107.29 54.25 107.48 56.57 106.37 58.24 C 103.75 62.43 103.15 67.46 101.72 72.11 C 108.69 68.67 114.36 63.17 120.76 58.83 C 126.27 55.40 128.34 48.07 134.36 45.37 C 133.85 48.12 131.45 49.79 129.93 51.97 C 127.18 55.19 124.84 58.91 121.08 61.08 C 117.73 62.93 115.27 65.97 112.10 68.08 C 108.42 70.62 103.96 72.62 101.68 76.67 C 99.99 83.53 99.11 90.58 97.56 97.47 C 93.29 102.17 86.54 100.69 81.32 98.74 C 76.08 96.24 71.32 92.78 67.37 88.53 C 64.33 87.27 60.82 87.56 57.79 86.20 C 55.26 84.84 52.86 83.19 50.79 81.20 C 46.50 77.11 45.92 69.51 50.13 65.16 C 54.69 58.42 61.89 53.15 70.05 51.91 C 75.49 51.71 81.07 54.21 84.04 58.85 C 84.74 61.74 87.06 65.40 83.88 67.63 C 83.85 62.42 81.61 56.60 76.34 54.70 C 71.49 52.34 65.84 53.81 61.42 56.44 C 56.94 59.21 53.22 63.21 50.79 67.88 C 48.36 72.50 50.16 78.68 54.49 81.50 C 57.52 84.84 62.18 85.23 66.35 85.91 C 66.35 84.36 66.49 82.78 66.16 81.26 C 64.90 80.06 63.42 79.13 62.12 77.98 C 64.94 78.15 67.74 77.94 69.79 75.78 C 72.41 73.02 76.36 73.05 79.64 71.60 C 81.52 70.89 82.25 68.82 83.52 67.43 C 83.62 68.60 83.71 69.77 83.77 70.94 C 87.68 71.81 91.21 73.54 93.50 76.93 C 95.54 76.29 97.43 75.30 99.30 74.27 C 101.24 64.39 103.60 53.42 111.61 46.59 C 114.46 43.82 116.91 40.23 120.87 38.98 M 73.86 78.72 C 71.79 79.14 69.79 79.84 67.88 80.72 C 68.48 82.29 69.10 83.86 69.78 85.41 C 74.57 84.47 79.56 84.13 84.06 82.08 C 86.31 81.06 88.58 80.10 90.87 79.19 C 89.32 75.17 84.82 74.67 81.08 74.63 C 78.37 75.46 76.75 78.34 73.86 78.72 M 95.22 78.80 C 95.72 80.20 96.17 81.61 96.58 83.04 C 95.87 83.51 94.43 84.44 93.72 84.91 C 93.21 83.50 92.71 82.07 92.22 80.65 C 85.57 84.50 78.14 87.23 70.49 88.12 C 74.94 93.31 80.93 97.74 87.99 98.14 C 90.90 98.86 94.94 98.25 95.77 94.85 C 97.26 88.99 97.58 82.90 98.81 76.98 C 97.91 77.43 96.12 78.35 95.22 78.80 Z" />
<path fill="#000000" opacity="1.00" d=" M 351.57 40.83 C 362.73 38.57 374.67 37.34 385.56 41.40 C 390.00 43.32 393.55 47.10 395.59 51.44 C 396.98 56.19 394.12 60.76 391.69 64.63 C 388.53 66.80 385.93 69.89 382.24 71.19 C 376.64 74.61 369.76 74.44 363.44 74.55 C 361.38 74.97 360.80 77.37 360.47 79.15 C 357.56 84.97 353.03 89.87 347.87 93.83 C 342.80 99.13 334.98 98.52 328.34 97.69 C 326.73 97.10 325.47 95.89 324.10 94.92 C 326.13 90.68 331.16 90.90 334.99 89.52 C 335.69 90.32 336.38 91.13 337.07 91.94 C 333.94 92.48 330.54 92.57 328.04 94.83 C 330.03 95.41 332.06 95.83 334.09 96.23 C 334.70 95.31 335.31 94.39 335.93 93.48 C 338.75 95.52 342.73 96.06 345.16 93.10 C 350.01 90.00 354.20 85.75 356.39 80.34 C 357.64 76.67 360.08 73.62 361.73 70.14 C 362.86 70.83 364.00 71.49 365.17 72.13 C 364.61 70.91 364.03 69.72 363.44 68.53 C 364.87 66.89 366.69 65.26 366.53 62.87 C 366.27 60.04 368.79 58.44 370.70 56.86 C 370.27 56.20 369.86 55.53 369.49 54.85 C 370.43 50.26 372.18 45.92 373.81 41.55 C 370.37 41.57 366.90 41.03 363.47 41.65 C 360.04 42.38 356.43 41.79 353.11 43.06 C 350.61 44.11 347.79 42.96 345.36 44.16 C 342.27 45.62 338.84 45.90 335.58 46.68 C 331.70 48.37 327.62 49.46 323.59 50.67 C 319.39 52.99 314.59 55.44 312.61 60.09 C 312.00 65.79 316.32 71.25 322.03 71.92 C 326.68 72.26 331.36 72.27 336.03 72.36 C 339.29 70.56 342.65 68.89 346.43 68.52 C 349.25 68.55 351.18 66.25 353.84 65.68 C 351.86 69.26 347.86 70.06 344.27 71.03 C 337.12 75.14 328.44 74.43 320.59 73.33 C 315.44 72.61 309.70 69.19 309.60 63.41 C 308.36 59.38 311.49 55.72 314.54 53.51 C 322.69 47.25 333.13 45.68 342.66 42.61 C 345.47 41.34 348.60 41.42 351.57 40.83 M 372.61 50.06 C 372.82 52.84 373.35 55.74 372.44 58.46 C 371.12 59.48 369.57 60.12 368.11 60.88 C 369.40 64.81 367.82 68.86 366.91 72.70 C 370.20 72.24 373.50 71.82 376.76 71.18 C 381.61 67.94 387.26 65.69 391.05 61.03 C 393.47 58.18 394.97 53.70 392.70 50.34 C 389.42 45.56 383.78 42.65 378.11 42.00 C 373.97 42.32 374.31 47.30 372.61 50.06 Z" />
<path fill="#000000" opacity="1.00" d=" M 174.53 51.46 C 179.92 49.46 185.59 51.87 189.99 55.02 C 193.33 58.73 192.65 64.04 191.52 68.51 C 188.90 75.41 186.42 82.74 180.81 87.86 C 178.95 89.30 176.56 90.20 174.19 89.97 C 171.88 89.40 170.66 87.21 169.39 85.41 C 167.18 88.66 163.15 90.54 159.26 90.08 C 156.93 88.04 156.96 84.71 156.54 81.89 C 153.95 85.51 151.52 90.11 146.93 91.38 C 143.94 92.31 141.22 88.91 142.14 86.11 C 143.33 77.90 150.43 72.61 156.31 67.58 C 157.45 67.77 158.59 67.97 159.73 68.18 C 158.35 64.25 160.06 59.78 163.43 57.47 C 167.10 55.40 170.28 52.36 174.53 51.46 M 162.73 60.74 C 160.75 63.88 160.86 68.23 162.96 71.28 C 162.72 76.93 158.69 82.23 159.89 88.15 C 164.68 87.23 167.35 82.77 170.39 79.41 C 173.01 75.61 176.96 73.15 180.84 70.83 C 183.03 69.34 185.35 71.55 187.50 72.09 C 188.62 67.50 191.11 62.56 188.93 57.90 C 187.94 54.07 183.58 52.46 180.02 52.22 C 173.38 52.52 167.51 56.41 162.73 60.74 M 145.44 89.65 C 148.75 86.80 151.25 83.24 153.63 79.61 C 156.06 76.47 160.17 73.14 158.35 68.69 C 151.65 73.42 143.89 80.62 145.44 89.65 M 175.27 77.28 C 171.94 80.00 171.14 85.07 173.83 88.52 C 177.83 87.02 180.18 83.32 183.35 80.69 C 182.65 77.64 184.58 74.99 185.01 72.07 C 180.98 71.50 178.09 74.95 175.27 77.28 Z" />
<path fill="#000000" opacity="1.00" d=" M 211.57 54.58 C 213.01 51.89 218.51 50.25 219.42 53.94 C 217.58 58.92 214.50 63.19 211.42 67.46 C 210.17 68.92 208.39 69.73 206.92 70.93 C 203.20 75.92 196.63 77.91 193.28 83.28 C 192.15 85.53 192.18 88.12 191.88 90.56 C 193.28 90.19 194.79 89.91 195.85 88.82 C 198.96 86.11 202.22 83.56 205.50 81.05 C 205.44 79.63 205.37 78.22 205.31 76.80 C 209.10 76.10 212.91 75.54 216.76 75.40 C 215.84 76.71 214.89 78.00 213.94 79.29 C 211.96 79.30 210.05 79.76 208.14 80.20 C 206.59 82.82 205.29 85.88 202.52 87.45 C 200.47 88.79 197.86 89.92 197.48 92.64 C 195.45 92.60 192.98 93.47 191.45 91.64 C 189.31 90.11 189.99 87.36 190.07 85.14 C 188.52 86.00 186.92 86.78 185.23 87.33 C 185.25 83.23 189.71 81.71 191.62 78.58 C 194.50 73.96 196.94 68.79 201.47 65.52 C 204.44 61.52 207.09 57.07 211.57 54.58 M 201.20 70.23 C 201.79 70.99 202.39 71.76 202.98 72.52 C 204.23 70.45 205.66 68.50 207.31 66.72 C 208.45 66.70 209.59 66.69 210.73 66.68 C 210.08 66.13 209.44 65.58 208.80 65.04 C 212.45 62.12 215.09 58.33 217.01 54.09 C 211.05 58.74 206.25 64.64 201.20 70.23 Z" />
<path fill="#000000" opacity="1.00" d=" M 456.25 60.20 C 457.08 58.52 458.66 57.97 460.39 58.68 C 458.87 62.77 456.92 66.65 454.94 70.51 C 459.45 71.10 464.16 68.97 468.49 71.06 C 463.77 72.43 458.52 71.72 454.05 73.97 C 452.66 76.70 450.72 79.71 451.70 82.88 C 450.21 84.46 448.77 86.14 448.14 88.27 C 452.99 85.71 455.93 80.91 459.25 76.74 C 460.07 76.84 461.72 77.05 462.54 77.16 C 460.63 79.12 458.82 81.15 457.50 83.55 C 454.98 86.54 452.05 89.19 448.99 91.60 C 446.18 91.67 447.24 88.56 446.86 86.76 C 444.43 90.11 440.49 91.62 436.69 92.82 C 437.57 86.72 441.01 81.05 440.54 74.76 C 436.14 78.79 433.76 84.42 429.88 88.86 C 427.29 90.51 425.16 93.53 421.85 93.49 C 423.72 86.89 428.32 81.46 430.26 74.86 C 428.59 74.83 426.93 74.76 425.27 74.64 C 426.61 72.74 428.83 71.97 430.86 71.06 C 431.45 71.56 432.63 72.57 433.22 73.07 C 432.46 77.68 429.45 81.38 428.01 85.73 C 431.02 83.03 432.55 79.18 435.16 76.15 C 437.81 72.56 442.07 70.85 445.50 68.16 C 446.62 71.46 444.23 74.33 443.55 77.43 C 442.72 80.93 442.24 84.49 441.49 88.00 C 443.73 86.44 446.04 84.86 447.76 82.71 C 449.09 80.16 449.98 77.41 450.99 74.73 C 449.78 74.09 448.59 73.44 447.41 72.78 C 449.08 71.97 450.94 71.51 452.47 70.44 C 453.64 68.24 454.53 65.91 455.47 63.61 C 453.58 65.04 452.01 66.96 449.72 67.76 C 450.09 63.93 454.61 63.28 456.25 60.20 Z" />
<path fill="#000000" opacity="1.00" d=" M 418.57 66.87 C 418.71 64.76 419.97 63.01 420.88 61.16 C 421.83 61.47 423.72 62.08 424.67 62.39 C 422.87 64.19 420.78 65.65 418.57 66.87 Z" />
<path fill="#000000" opacity="1.00" d=" M 213.14 86.11 C 214.48 77.80 221.62 72.15 227.90 67.33 C 230.03 68.16 232.12 69.07 234.13 70.15 C 234.06 76.30 229.72 81.82 230.88 88.15 C 237.20 87.17 238.71 79.43 244.52 77.49 C 246.07 76.87 247.76 76.74 249.37 76.34 C 251.38 74.67 253.20 72.79 255.17 71.08 C 255.85 71.55 257.21 72.48 257.89 72.95 C 255.56 74.92 253.06 76.72 251.13 79.10 C 249.45 81.10 249.87 83.90 249.65 86.31 C 253.62 85.53 257.46 84.24 261.36 83.15 C 261.86 84.50 262.34 85.85 262.86 87.19 C 263.52 86.96 264.83 86.51 265.49 86.28 C 265.46 83.07 265.83 79.88 266.67 76.78 C 262.84 78.87 259.78 82.50 255.32 83.27 C 258.62 80.06 262.65 76.83 267.39 76.34 C 269.38 74.67 271.21 72.81 273.16 71.07 C 273.83 71.54 275.18 72.48 275.86 72.95 C 273.58 74.95 271.06 76.73 269.14 79.10 C 267.47 81.10 267.84 83.89 267.60 86.30 C 271.48 85.69 275.12 84.00 279.01 83.47 C 279.51 83.75 280.51 84.30 281.01 84.58 C 276.18 87.65 270.22 87.55 265.22 90.19 C 263.44 91.34 261.38 90.84 259.46 90.43 C 259.11 89.18 258.77 87.92 258.47 86.66 C 254.42 87.78 250.25 88.55 246.48 90.50 C 244.30 91.79 242.08 90.32 240.29 89.09 C 240.74 87.61 241.27 86.17 241.90 84.76 C 243.59 85.75 245.27 86.97 247.33 86.80 C 247.51 83.36 247.77 79.92 248.69 76.58 C 244.29 78.65 242.83 83.37 239.45 86.49 C 237.47 88.98 234.20 90.12 231.11 90.19 C 227.71 89.28 228.10 84.72 227.53 81.92 C 224.91 85.52 222.53 90.12 217.93 91.38 C 214.93 92.39 212.25 88.88 213.14 86.11 M 216.43 89.69 C 219.76 86.84 222.23 83.25 224.62 79.61 C 227.06 76.48 231.20 73.14 229.33 68.69 C 222.61 73.43 214.90 80.65 216.43 89.69 Z" />
<path fill="#000000" opacity="1.00" d=" M 122.34 69.23 C 123.10 69.19 124.63 69.09 125.40 69.05 C 123.70 74.49 120.04 79.13 118.78 84.73 C 123.64 81.65 125.91 76.05 129.70 71.91 C 130.34 72.23 131.62 72.87 132.26 73.19 C 130.52 77.70 128.28 82.16 128.42 87.14 C 132.81 83.65 135.51 78.63 138.26 73.86 C 137.95 72.37 137.71 70.86 137.53 69.35 C 139.25 70.22 140.67 71.53 142.20 72.69 C 143.78 73.55 145.65 73.86 146.98 75.18 C 144.43 75.76 141.94 74.91 139.50 74.29 C 136.96 79.95 133.52 85.11 130.14 90.30 C 129.04 91.12 127.70 91.60 126.33 91.72 C 123.66 89.23 126.36 85.42 125.27 82.33 C 123.09 85.45 119.97 87.75 118.06 91.07 C 117.28 92.65 115.41 91.52 114.16 91.43 C 115.50 85.19 118.00 79.37 120.61 73.61 C 116.89 76.13 113.67 79.32 110.65 82.63 C 109.73 83.99 108.13 84.37 106.60 84.56 C 110.56 78.32 116.51 73.64 122.34 69.23 Z" />
<path fill="#000000" opacity="1.00" d=" M 379.83 87.22 C 382.58 80.82 387.52 75.63 392.93 71.37 C 397.48 71.04 401.95 72.40 406.56 71.91 C 406.22 75.54 402.18 75.33 399.57 76.32 C 399.03 80.74 395.60 83.74 392.90 86.94 C 390.25 90.00 386.26 91.79 382.25 92.01 C 380.25 91.53 378.65 89.16 379.83 87.22 M 395.54 72.85 C 394.90 74.24 395.30 74.72 396.75 74.30 C 397.39 72.94 396.99 72.45 395.54 72.85 M 391.11 74.85 C 387.81 78.02 385.04 81.68 382.41 85.40 C 381.44 86.73 381.10 88.34 381.03 89.95 C 383.45 89.95 385.85 89.30 387.84 87.88 C 391.70 85.22 395.67 82.21 397.60 77.77 C 395.48 76.70 393.28 75.79 391.11 74.85 Z" />
<path fill="#000000" opacity="1.00" d=" M 411.87 75.97 C 413.29 74.41 414.76 72.88 416.20 71.34 C 416.63 71.79 417.48 72.69 417.90 73.13 C 415.42 77.75 413.12 82.43 411.35 87.37 C 414.68 85.05 419.22 84.14 421.38 80.40 C 422.51 78.56 424.11 77.10 425.81 75.82 C 426.43 76.25 427.66 77.13 428.28 77.57 C 423.80 83.64 418.26 88.78 411.92 92.88 C 410.41 91.69 408.98 90.42 407.58 89.11 C 408.63 86.70 409.26 84.14 409.71 81.56 C 408.17 82.45 406.69 83.43 405.05 84.11 C 404.05 83.37 403.88 82.50 404.56 81.51 C 406.31 78.88 409.82 78.30 411.87 75.97 Z" />
</g>
</svg>
