<?xml version="1.0" encoding="UTF-8" ?>
<!DOCTYPE svg PUBLIC "-//W3C//DTD SVG 1.1//EN" "http://www.w3.org/Graphics/SVG/1.1/DTD/svg11.dtd">
<svg width="256pt" height="256pt" viewBox="0 0 256 256" version="1.1" xmlns="http://www.w3.org/2000/svg">
<g id="#000000ff">
<path fill="#000000" opacity="1.00" d=" M 33.26 53.21 C 37.91 50.43 43.12 47.03 48.80 48.42 C 54.88 49.34 58.54 56.01 57.78 61.78 C 56.74 67.24 53.84 72.11 50.50 76.48 C 47.96 80.30 43.76 82.42 40.44 85.45 C 38.40 87.06 34.92 88.35 32.77 86.30 C 31.04 83.68 32.48 80.49 32.96 77.72 C 27.34 83.54 20.79 88.44 15.56 94.64 C 21.12 100.09 29.24 97.83 35.83 95.99 C 37.75 95.67 38.28 93.61 39.19 92.18 C 41.04 88.24 44.59 85.56 47.86 82.86 C 50.21 80.71 54.77 82.51 54.13 85.93 C 52.47 92.83 42.82 93.33 40.62 99.72 C 45.93 101.19 50.77 97.73 54.93 94.90 C 58.00 93.00 59.07 89.06 62.35 87.48 C 62.79 89.06 63.19 90.64 63.54 92.25 C 66.02 90.97 69.04 89.65 71.35 92.07 C 71.40 94.49 71.12 96.91 71.10 99.34 C 75.23 98.81 77.77 95.27 80.43 92.47 C 82.36 88.45 84.46 84.50 86.44 80.50 C 81.01 80.12 75.54 80.62 70.15 79.70 C 70.14 79.04 70.13 77.72 70.12 77.06 C 76.51 77.42 83.10 78.00 89.34 76.20 C 92.72 74.29 94.84 70.83 97.16 67.83 C 97.87 68.13 99.29 68.72 100.01 69.02 C 98.65 72.00 96.94 74.84 94.60 77.15 C 98.06 77.37 101.52 77.11 104.99 77.25 C 109.71 77.31 114.63 75.68 119.18 77.58 C 118.42 78.32 118.16 79.93 116.87 79.86 C 108.31 80.73 99.69 80.42 91.11 80.09 C 87.97 86.26 84.00 92.52 83.54 99.56 C 86.80 98.79 90.03 97.67 92.88 95.90 C 96.21 92.90 99.22 89.35 103.27 87.26 C 105.55 87.20 108.09 88.61 108.59 90.98 C 107.24 94.18 105.27 97.09 104.18 100.41 C 106.13 100.63 108.16 100.86 110.00 100.03 C 114.06 98.47 118.67 97.01 121.16 93.18 C 122.90 90.21 125.95 88.46 128.88 86.87 C 131.47 85.05 134.70 88.31 134.51 90.98 C 134.24 93.45 131.89 94.70 130.33 96.32 C 128.37 97.67 129.29 100.34 129.12 102.33 C 133.95 100.81 138.68 98.77 142.84 95.85 C 145.23 94.24 144.79 90.98 145.56 88.53 C 147.73 80.85 152.41 73.52 159.51 69.54 C 162.22 67.91 165.73 69.53 167.07 72.18 C 168.25 75.84 167.45 80.02 164.91 82.94 C 160.53 87.99 154.67 91.43 149.61 95.69 C 147.70 96.94 148.84 99.79 151.01 99.55 C 156.29 99.35 162.95 97.76 164.95 92.20 C 168.08 91.88 168.98 97.04 166.42 98.43 C 162.30 101.40 157.21 103.62 152.03 103.17 C 149.09 102.93 147.65 99.84 145.07 98.84 C 140.53 102.34 135.30 104.52 129.96 106.46 C 126.57 106.01 126.28 102.02 125.27 99.49 C 123.52 100.80 121.93 102.35 120.02 103.45 C 119.01 102.53 118.07 101.54 117.08 100.60 C 113.11 102.39 109.09 105.32 104.51 104.54 C 102.72 103.23 101.28 101.31 101.03 99.07 C 102.46 96.31 104.11 93.59 104.38 90.40 C 98.25 94.14 94.40 101.62 86.73 102.64 C 83.44 103.54 81.26 100.67 79.08 98.78 C 77.17 100.72 74.94 102.54 72.12 102.76 C 70.68 102.44 69.42 101.62 68.10 100.99 C 68.09 98.65 68.18 96.30 68.16 93.96 C 64.75 96.06 61.55 98.49 58.67 101.29 C 55.90 102.33 56.47 99.48 56.31 97.69 C 53.16 101.12 48.58 103.12 43.99 103.63 C 40.64 104.10 39.68 99.68 36.91 98.97 C 33.06 100.50 29.05 101.34 24.89 100.75 C 20.52 101.21 16.93 98.45 14.05 95.53 C 10.48 98.17 7.09 101.55 2.59 102.42 C 5.19 98.35 9.94 96.29 13.40 92.99 C 11.14 87.01 12.81 80.53 14.65 74.70 C 19.04 66.23 25.51 58.80 33.26 53.21 M 38.54 53.48 C 33.18 56.23 29.30 60.95 24.87 64.90 C 18.95 72.16 13.86 81.16 14.75 90.87 C 23.36 84.23 31.06 76.43 38.12 68.17 C 40.70 74.03 33.29 78.64 34.76 84.70 C 40.26 83.26 44.01 78.74 48.10 75.10 C 51.25 71.24 54.07 66.87 55.30 61.99 C 56.41 57.93 54.33 53.21 50.41 51.54 C 46.50 49.35 41.98 51.31 38.54 53.48 M 156.20 77.18 C 152.17 80.96 148.83 85.91 148.68 91.61 C 154.33 87.34 161.84 84.73 165.06 77.92 C 165.10 76.02 165.31 73.78 164.04 72.21 C 160.90 72.88 158.45 75.04 156.20 77.18 M 43.59 91.88 C 47.04 90.50 50.77 88.42 51.69 84.49 C 48.72 86.61 45.88 89.01 43.59 91.88 M 128.23 90.17 C 125.25 92.31 122.05 94.81 121.18 98.57 C 124.95 97.04 128.08 94.41 131.34 92.03 C 130.63 91.11 129.65 89.18 128.23 90.17 Z" />
<path fill="#000000" opacity="1.00" d=" M 48.67 113.69 C 52.24 112.38 56.13 112.33 59.87 112.75 C 61.45 114.01 61.26 116.06 60.65 117.76 C 58.63 124.75 54.58 130.89 51.40 137.38 C 49.73 140.88 47.13 144.16 47.02 148.20 C 48.54 148.26 50.19 148.66 51.52 147.65 C 58.23 143.98 64.06 138.80 68.84 132.86 C 72.20 128.77 73.68 123.51 77.09 119.46 C 79.16 118.82 79.67 121.41 78.88 122.76 C 75.03 130.75 68.84 138.02 67.58 146.99 C 72.80 146.19 77.29 143.19 81.97 140.93 C 85.47 139.66 84.73 133.97 88.90 133.84 C 88.98 136.21 88.41 138.51 87.90 140.81 C 91.20 138.31 94.89 136.22 98.97 135.33 C 101.45 139.28 98.25 143.56 97.97 147.67 C 104.13 143.56 109.70 138.21 116.88 135.88 C 117.50 136.10 118.75 136.55 119.37 136.78 C 118.27 140.43 116.03 143.70 115.69 147.58 C 119.78 145.52 123.19 142.29 127.44 140.55 C 129.32 139.83 131.09 138.88 132.90 138.01 C 134.38 142.62 128.76 145.64 130.22 150.26 C 134.74 151.00 137.09 145.77 137.29 142.03 C 137.64 139.48 134.85 138.72 133.26 137.49 C 138.41 133.98 144.73 133.20 150.78 132.67 C 152.28 137.72 148.16 141.71 146.66 146.18 C 151.17 143.15 155.19 138.32 161.14 138.61 C 161.19 142.54 160.24 146.52 161.42 150.37 C 167.23 149.01 171.15 144.13 173.53 138.94 C 172.46 137.41 171.34 135.92 170.28 134.40 C 171.57 134.24 173.51 132.91 174.35 134.59 C 177.61 139.60 174.39 145.89 170.53 149.53 C 167.59 152.29 162.68 155.52 159.10 151.90 C 157.11 148.56 158.73 144.48 158.24 140.83 C 153.24 144.38 149.24 149.84 142.80 150.87 C 143.24 145.37 147.06 141.20 149.43 136.47 C 145.44 136.40 141.50 137.07 137.55 137.52 C 141.28 143.06 137.63 150.86 131.98 153.37 C 129.04 153.14 126.38 150.20 127.09 147.19 C 127.81 145.18 129.37 143.62 130.39 141.78 C 123.28 143.30 120.03 151.36 112.71 152.35 C 111.37 148.00 113.96 143.96 114.23 139.67 C 107.94 142.02 103.89 147.85 98.65 151.75 C 97.43 152.68 95.85 151.88 95.09 150.77 C 95.16 146.92 96.06 143.17 96.82 139.42 C 92.90 141.41 88.88 143.70 86.51 147.55 C 85.22 149.09 84.44 151.53 82.21 151.88 C 79.79 148.76 83.14 144.90 83.77 141.61 C 79.98 143.32 76.70 145.88 73.43 148.40 C 71.56 149.64 68.69 151.28 66.74 149.32 C 64.41 146.96 65.47 143.45 65.70 140.55 C 60.85 144.83 55.80 149.36 49.55 151.41 C 45.93 152.83 43.75 147.98 44.94 145.10 C 48.18 134.68 56.06 126.35 58.92 115.78 C 54.03 114.93 48.94 115.63 44.53 117.93 C 45.43 120.07 46.68 122.03 47.68 124.12 C 44.89 123.21 42.26 120.33 43.35 117.24 C 43.95 114.81 46.59 114.23 48.67 113.69 Z" />
<path fill="#000000" opacity="1.00" d=" M 120.38 123.13 C 121.51 121.93 122.85 120.98 124.09 119.85 C 126.46 119.92 126.37 122.47 126.55 124.19 C 124.49 123.86 122.42 123.54 120.38 123.13 Z" />
<path fill="#000000" opacity="1.00" d=" M 250.42 157.20 C 253.10 155.41 255.17 158.85 256.00 161.01 L 256.00 161.77 C 254.53 166.40 251.71 170.41 249.85 174.87 C 247.70 180.30 242.74 183.74 239.15 188.13 C 235.75 192.50 231.14 195.84 226.15 198.17 C 223.54 199.50 220.59 197.97 217.90 198.92 C 215.83 199.47 213.71 199.81 211.58 200.02 C 210.86 198.18 210.21 196.31 209.58 194.43 C 206.65 196.15 203.87 198.15 200.77 199.56 C 198.93 196.15 199.72 192.06 202.09 189.12 C 205.58 184.81 210.42 181.35 215.85 180.05 C 219.42 180.01 218.77 185.12 217.09 187.05 C 214.71 189.62 212.91 192.71 212.60 196.26 C 214.20 195.92 215.81 195.63 217.38 195.16 C 221.05 194.35 221.08 189.78 223.57 187.58 C 226.34 184.10 230.74 182.75 234.08 180.02 C 235.84 176.93 236.44 173.31 238.15 170.18 C 241.11 164.96 244.63 159.55 250.42 157.20 M 245.96 164.95 C 241.15 170.63 236.24 177.47 237.54 185.37 C 240.21 182.42 243.06 179.63 245.62 176.57 C 248.27 172.97 250.16 168.86 251.92 164.76 C 252.40 163.17 253.45 161.19 252.02 159.79 C 249.74 161.17 247.77 163.01 245.96 164.95 M 206.45 189.50 C 204.93 190.67 201.67 193.06 203.97 194.93 C 209.72 193.14 213.18 188.09 216.51 183.45 C 212.58 184.16 209.78 187.48 206.45 189.50 M 231.52 185.62 C 229.55 186.45 227.64 187.56 226.14 189.12 C 224.94 190.70 223.24 193.35 225.84 194.54 C 229.47 192.72 234.16 190.71 234.86 186.18 C 234.20 184.66 232.73 185.09 231.52 185.62 Z" />
<path fill="#000000" opacity="1.00" d=" M 164.45 163.40 C 165.29 162.35 166.14 160.87 167.73 161.18 C 171.22 164.79 169.08 170.22 167.04 174.01 C 164.47 178.04 161.94 182.18 158.73 185.73 C 156.32 187.97 151.91 190.35 153.72 194.31 C 156.81 195.56 160.23 193.46 162.88 191.90 C 167.80 187.39 172.03 182.12 175.40 176.37 C 175.99 176.16 177.16 175.74 177.74 175.53 C 177.60 176.96 177.41 178.40 177.19 179.83 C 178.99 179.13 180.86 178.53 182.83 178.80 C 183.43 182.74 180.15 185.28 177.85 187.90 C 175.89 189.93 175.21 192.75 174.18 195.29 C 178.83 194.06 183.41 192.18 187.29 189.31 C 190.27 186.36 192.83 183.01 195.35 179.67 C 197.56 181.40 199.71 183.90 199.11 186.93 C 198.14 192.21 193.92 196.63 189.00 198.55 C 185.63 198.88 186.01 194.84 186.20 192.62 C 181.74 194.67 176.89 199.22 171.76 197.22 C 169.84 191.85 175.32 188.14 176.75 183.47 C 172.48 183.88 170.34 187.85 167.49 190.47 C 164.22 193.56 160.56 196.80 155.98 197.58 C 153.30 198.04 151.46 196.02 150.24 193.94 C 146.24 196.73 141.76 198.97 137.02 200.15 C 134.79 200.43 134.50 197.57 133.46 196.21 C 130.81 197.19 127.65 200.42 124.85 198.18 C 124.02 196.85 123.62 195.33 123.04 193.89 C 120.36 195.89 117.70 197.91 115.12 200.04 C 113.57 199.26 112.16 197.50 110.25 198.15 C 107.64 198.58 104.93 199.71 102.30 198.74 C 98.52 197.64 94.96 194.60 94.96 190.39 C 97.77 189.04 101.09 188.69 103.48 186.54 C 107.70 183.05 111.73 178.84 113.26 173.44 C 109.31 174.71 105.73 176.93 102.61 179.63 C 99.41 182.44 95.68 184.63 92.74 187.74 C 89.00 191.47 86.92 196.46 83.69 200.58 C 82.34 200.98 81.62 200.45 81.53 198.97 C 83.25 190.99 87.69 184.02 91.22 176.79 C 87.28 181.32 83.09 185.61 78.77 189.79 C 74.42 194.91 68.79 198.71 63.09 202.18 C 59.96 203.58 56.87 205.83 53.31 205.67 C 48.49 203.98 46.25 198.17 47.61 193.45 C 49.66 185.92 55.04 178.49 63.07 176.83 C 65.61 175.50 67.33 178.80 67.01 180.96 C 66.37 185.11 64.59 189.58 60.70 191.68 C 61.18 186.91 66.71 183.85 65.35 178.61 C 60.20 179.82 54.99 182.65 52.54 187.55 C 50.36 191.07 48.42 195.30 49.57 199.52 C 50.23 202.19 53.26 204.08 55.92 203.22 C 60.79 201.98 64.45 198.24 68.58 195.60 C 74.90 191.36 79.96 185.65 85.24 180.24 C 90.20 175.07 93.88 168.85 98.42 163.35 C 98.86 163.13 99.72 162.68 100.15 162.45 C 99.98 164.06 100.00 165.75 99.19 167.21 C 95.66 174.63 90.70 181.35 88.00 189.17 C 91.75 184.87 95.34 180.36 100.13 177.14 C 104.29 174.27 108.37 169.55 113.79 169.89 C 115.51 172.31 114.94 175.63 114.18 178.31 C 110.79 184.91 104.73 190.87 96.96 191.37 C 98.48 193.34 99.91 195.72 102.50 196.37 C 106.58 197.44 111.94 195.83 113.49 191.57 C 115.51 186.26 119.95 180.99 126.01 180.68 C 127.71 180.49 128.92 181.92 130.23 182.76 C 126.47 186.40 126.48 192.13 125.74 196.96 C 131.30 195.03 135.09 190.27 140.08 187.52 C 139.77 191.08 137.79 194.09 136.33 197.24 C 140.22 196.91 143.42 194.56 146.70 192.70 C 148.52 191.52 150.79 190.35 151.32 188.05 C 153.86 179.01 158.73 170.79 164.45 163.40 M 161.70 172.68 C 159.66 176.52 157.03 180.26 156.38 184.65 C 162.15 179.33 167.02 172.33 167.99 164.34 C 164.64 165.98 163.58 169.75 161.70 172.68 M 114.58 195.97 C 120.52 193.91 124.49 188.75 127.46 183.46 C 121.33 184.71 115.53 189.56 114.58 195.97 M 188.23 194.36 C 192.06 192.81 195.47 190.08 196.86 186.07 C 196.61 185.83 196.11 185.37 195.86 185.13 C 192.65 187.53 190.26 190.96 188.23 194.36 Z" />
</g>
</svg>
