<?xml version="1.0" encoding="UTF-8" ?>
<!DOCTYPE svg PUBLIC "-//W3C//DTD SVG 1.1//EN" "http://www.w3.org/Graphics/SVG/1.1/DTD/svg11.dtd">
<svg width="512pt" height="128pt" viewBox="0 0 512 128" version="1.1" xmlns="http://www.w3.org/2000/svg">
<g id="#000000ff">
<path fill="#000000" opacity="1.00" d=" M 168.55 27.54 C 169.73 26.32 171.00 24.92 172.83 24.87 C 174.55 27.80 174.54 31.44 173.50 34.60 C 170.55 43.03 165.12 50.23 160.63 57.85 C 162.74 57.63 164.95 57.71 166.96 56.91 C 168.45 55.94 169.54 54.48 171.00 53.46 C 172.29 55.24 171.67 57.36 171.23 59.29 C 172.41 60.13 173.82 60.75 174.70 61.97 C 173.46 67.25 167.81 70.75 168.31 76.61 C 172.48 77.22 176.43 75.50 180.25 74.12 C 186.92 72.15 190.01 65.08 195.90 61.87 C 198.34 60.58 200.95 59.23 203.78 59.26 C 205.18 59.56 205.93 60.99 206.97 61.88 C 205.29 64.57 203.40 67.26 203.20 70.54 C 205.79 69.27 207.76 67.13 210.04 65.43 C 212.11 69.62 207.69 73.11 207.04 77.13 C 208.44 77.75 209.77 76.55 211.07 76.16 C 214.55 74.43 218.30 72.72 220.92 69.77 C 221.54 65.69 221.65 61.38 223.73 57.69 C 227.16 51.63 232.25 46.06 238.96 43.70 C 239.38 44.10 240.21 44.90 240.62 45.29 C 240.28 48.18 238.89 50.84 237.10 53.09 C 233.59 58.50 230.07 63.97 225.66 68.69 C 223.17 70.69 224.84 74.66 227.18 75.96 C 233.16 76.56 238.86 73.70 243.31 69.93 C 243.36 68.49 243.42 67.06 243.51 65.62 C 244.55 66.72 246.88 67.78 245.77 69.62 C 244.24 73.99 239.61 75.91 235.73 77.69 C 232.76 78.73 229.38 80.31 226.30 78.81 C 223.77 77.77 222.87 74.98 221.19 73.05 C 216.47 76.43 211.54 79.57 205.91 81.19 C 202.67 78.35 205.27 74.55 206.28 71.33 C 203.47 72.66 200.82 74.66 199.62 77.62 C 196.47 85.03 191.56 91.49 186.93 98.01 C 185.77 99.74 183.02 102.06 181.20 99.84 C 179.68 96.79 179.13 93.34 178.96 89.97 C 178.83 87.36 179.31 84.23 181.71 82.71 C 186.54 79.75 191.89 77.75 196.70 74.74 C 199.22 73.25 199.98 70.20 200.72 67.59 C 195.59 70.68 190.84 74.38 185.96 77.83 C 184.12 77.24 184.41 75.32 184.22 73.80 C 180.45 76.54 176.05 78.39 171.62 79.77 C 169.03 80.77 165.75 78.84 165.89 75.92 C 165.84 71.07 169.14 67.21 171.16 63.07 C 168.84 58.66 163.63 60.17 159.69 60.87 C 158.22 61.15 157.41 62.50 156.65 63.64 C 153.13 69.20 150.51 75.29 148.39 81.50 C 148.00 81.79 147.23 82.36 146.84 82.64 C 146.47 80.83 146.30 78.93 147.09 77.20 C 149.16 71.60 151.74 66.19 154.76 61.03 C 151.33 60.78 147.84 59.87 144.42 60.31 C 142.24 62.18 140.64 64.61 138.77 66.77 C 131.20 75.92 122.21 84.29 111.30 89.23 C 107.73 90.98 102.44 89.28 102.03 84.94 C 101.53 76.60 106.61 68.89 113.25 64.25 C 115.80 62.38 119.05 60.00 122.31 61.72 C 127.03 63.75 127.03 70.79 123.45 73.91 C 123.71 71.07 124.82 68.17 123.79 65.35 C 121.99 62.57 118.34 63.58 116.02 65.04 C 110.25 68.68 106.10 74.70 104.27 81.23 C 103.87 83.05 103.53 85.72 105.43 86.81 C 107.50 88.35 110.02 86.83 112.09 86.08 C 124.29 80.12 134.38 70.56 142.50 59.80 C 134.17 58.18 126.33 54.11 117.79 53.86 C 117.79 55.44 117.77 57.02 117.73 58.60 C 115.86 56.79 114.62 54.30 115.36 51.67 C 120.09 49.97 124.73 52.43 129.25 53.62 C 134.27 54.86 139.34 57.31 144.59 56.76 C 152.59 47.05 160.42 37.16 168.55 27.54 M 167.40 30.46 C 161.63 37.96 155.62 45.27 149.66 52.62 C 148.61 54.17 146.72 55.52 147.02 57.59 C 150.28 58.07 153.59 58.00 156.88 57.91 C 161.51 50.19 167.24 43.01 170.50 34.55 C 171.11 32.27 172.29 29.58 171.14 27.33 C 169.68 28.09 168.37 29.13 167.40 30.46 M 226.94 58.00 C 225.09 60.24 225.31 63.32 224.86 66.02 C 227.86 63.91 229.72 60.72 231.85 57.83 C 233.94 54.80 236.21 51.82 237.41 48.29 C 232.95 50.31 229.99 54.36 226.94 58.00 M 191.06 70.25 C 194.12 68.58 197.11 66.60 199.29 63.83 C 195.88 64.91 192.82 67.10 191.06 70.25 M 181.91 85.83 C 179.98 89.46 181.54 93.99 183.06 97.54 C 184.78 96.81 185.68 95.12 186.69 93.67 C 190.19 88.28 193.66 82.86 196.79 77.25 C 191.48 79.35 186.17 81.97 181.91 85.83 Z" />
<path fill="#000000" opacity="1.00" d=" M 296.09 62.07 C 302.43 54.57 308.24 46.65 314.22 38.87 C 316.82 46.72 313.12 54.52 309.89 61.54 C 315.69 57.65 321.48 53.44 328.12 51.08 C 330.52 49.62 333.55 52.38 332.53 54.94 C 331.17 59.01 328.43 62.43 325.55 65.53 C 321.04 70.25 315.98 74.96 309.41 76.44 C 310.57 78.05 311.82 80.08 314.07 80.09 C 318.40 80.09 322.53 78.40 326.27 76.35 C 329.66 73.47 332.30 69.87 335.06 66.42 C 335.61 67.75 337.10 69.20 335.93 70.66 C 334.27 73.62 332.18 76.36 330.96 79.56 C 334.32 78.31 336.73 75.55 339.81 73.82 C 346.20 70.01 352.50 66.04 359.06 62.56 C 361.51 66.52 358.03 70.56 357.24 74.48 C 359.54 75.56 363.28 76.69 364.78 73.82 C 366.60 70.77 368.39 67.10 372.18 66.17 C 375.58 64.86 377.92 70.31 375.69 72.48 C 373.77 75.84 369.78 76.54 366.58 78.14 C 366.03 82.58 370.71 86.12 374.88 84.84 C 384.35 82.83 391.50 75.71 397.09 68.23 C 398.53 66.75 397.42 64.66 397.54 62.89 C 400.86 63.19 401.55 67.23 399.53 69.37 C 394.35 76.13 388.64 83.05 380.73 86.69 C 377.03 88.14 372.51 89.56 368.89 87.14 C 365.44 85.52 363.94 81.82 363.51 78.24 C 361.02 78.20 358.55 77.87 356.07 77.77 C 353.80 79.24 353.08 82.12 351.00 83.79 C 347.56 82.12 346.42 77.38 348.06 74.08 C 349.53 72.04 352.25 74.13 354.26 73.33 C 355.37 71.55 355.84 69.48 356.31 67.46 C 349.11 69.77 343.05 74.58 337.06 79.05 C 333.90 81.24 331.06 84.89 326.82 84.44 C 327.08 82.10 327.61 79.82 328.15 77.54 C 323.41 80.40 318.12 83.82 312.31 82.72 C 308.00 80.80 306.53 75.56 305.68 71.31 C 307.74 71.58 309.79 73.26 311.86 72.13 C 316.68 70.29 320.62 66.80 324.10 63.08 C 326.65 60.27 329.83 57.61 330.41 53.62 C 327.28 52.61 324.42 54.52 321.72 55.83 C 312.57 60.66 305.64 68.89 300.87 77.93 C 299.47 79.83 298.92 83.79 295.82 82.97 C 294.87 80.61 296.41 78.32 297.24 76.17 C 302.57 65.84 311.38 56.58 312.28 44.50 C 308.97 47.57 306.92 51.65 304.16 55.16 C 297.08 64.59 289.93 74.37 280.05 81.08 C 275.74 83.83 271.00 86.20 265.91 87.02 C 260.94 87.86 256.46 82.85 257.71 77.99 C 258.88 67.91 267.84 61.18 276.67 57.76 C 279.28 56.82 283.21 56.24 284.40 59.52 C 285.74 65.14 281.79 70.48 277.39 73.54 C 277.34 69.31 281.99 67.13 282.53 63.05 C 282.47 62.14 282.36 60.32 282.30 59.41 C 274.29 60.11 266.89 64.79 262.28 71.31 C 260.47 74.38 260.10 78.09 260.35 81.58 C 260.63 83.63 263.08 84.55 264.91 84.16 C 270.08 83.34 274.78 80.80 279.43 78.51 C 286.57 74.88 291.01 67.98 296.09 62.07 M 368.32 74.76 C 370.77 74.02 373.43 72.71 373.91 69.91 C 370.94 68.85 369.44 72.69 368.32 74.76 Z" />
<path fill="#000000" opacity="1.00" d=" M 211.80 56.18 C 212.30 54.05 212.16 50.60 215.19 50.64 C 215.02 52.90 214.63 55.89 211.80 56.18 Z" />
<path fill="#000000" opacity="1.00" d=" M 346.76 57.36 C 346.29 54.37 348.42 52.19 351.23 51.71 C 351.18 54.45 349.88 57.32 346.76 57.36 Z" />
</g>
</svg>
