<?xml version="1.0" encoding="UTF-8" ?>
<!DOCTYPE svg PUBLIC "-//W3C//DTD SVG 1.1//EN" "http://www.w3.org/Graphics/SVG/1.1/DTD/svg11.dtd">
<svg width="512pt" height="128pt" viewBox="0 0 512 128" version="1.1" xmlns="http://www.w3.org/2000/svg">
<g id="#000000ff">
<path fill="#000000" opacity="1.00" d=" M 107.54 7.51 C 111.28 4.09 115.99 1.82 121.00 1.04 C 124.93 0.75 128.23 3.91 129.71 7.30 C 133.05 14.14 131.99 22.64 127.96 28.95 C 124.23 32.79 119.24 35.54 113.97 36.54 C 112.05 36.92 111.06 34.82 109.79 33.81 C 102.08 40.89 94.56 48.16 87.01 55.40 C 90.08 56.66 93.44 56.01 96.58 55.38 C 103.26 53.83 109.74 51.56 116.15 49.13 C 119.36 47.94 121.97 45.68 124.43 43.36 C 126.62 42.12 127.02 45.46 125.98 46.75 C 124.57 49.35 123.88 52.22 123.66 55.16 C 129.13 51.90 132.28 46.17 136.06 41.27 C 137.55 42.19 137.87 43.37 137.02 44.81 C 134.56 50.08 130.32 54.23 126.15 58.16 C 124.61 59.38 122.33 61.12 120.42 59.63 C 118.45 56.60 120.48 53.17 121.00 50.03 C 111.04 54.26 100.93 58.80 90.01 59.79 C 87.65 60.13 85.49 58.73 83.18 58.82 C 76.87 63.02 71.91 69.43 64.36 71.56 C 65.26 68.29 68.66 67.04 70.99 64.99 C 73.92 62.50 77.36 60.61 80.04 57.85 C 78.90 54.61 75.15 52.64 74.95 48.88 C 73.06 37.63 84.34 28.23 94.87 28.01 C 96.69 28.23 96.36 25.99 96.60 24.88 C 96.98 17.63 101.82 11.55 107.54 7.51 M 114.29 6.25 C 107.72 10.26 100.53 15.72 99.91 24.05 C 98.86 28.71 102.53 32.13 105.34 35.23 C 107.44 33.37 109.50 31.43 111.18 29.18 C 112.30 27.76 113.17 25.91 115.17 25.61 C 114.79 28.40 113.70 31.08 113.79 33.93 C 118.40 32.84 123.41 31.32 126.49 27.50 C 130.64 20.86 130.55 11.00 124.60 5.44 C 121.61 2.59 117.30 4.46 114.29 6.25 M 90.44 31.59 C 82.62 33.01 75.75 41.35 78.68 49.39 C 79.63 51.90 82.55 56.26 85.47 53.64 C 91.36 48.83 96.85 43.48 102.17 38.04 C 100.27 35.87 98.49 33.54 96.32 31.65 C 94.42 31.01 92.37 31.26 90.44 31.59 Z" />
<path fill="#000000" opacity="1.00" d=" M 318.89 14.87 C 320.91 12.00 321.71 8.49 323.75 5.64 C 326.54 9.36 325.03 14.03 324.15 18.13 C 322.24 24.83 318.70 30.94 316.78 37.64 C 323.36 31.61 328.88 24.48 335.03 18.01 C 338.69 14.27 341.72 9.91 345.85 6.65 C 348.12 11.06 346.52 15.96 345.15 20.37 C 342.17 29.21 335.24 36.09 332.49 45.04 C 338.01 42.59 343.20 39.53 347.87 35.73 C 350.64 38.02 347.67 41.12 346.52 43.45 C 344.91 45.27 345.54 47.69 345.31 49.89 C 344.44 51.19 342.89 51.53 341.51 52.00 C 340.86 49.08 341.49 46.16 342.04 43.29 C 337.42 45.03 333.77 49.89 328.56 49.42 C 328.33 43.24 331.99 37.96 334.71 32.71 C 337.90 26.64 342.64 21.02 343.15 13.90 C 340.47 15.96 338.47 18.72 336.16 21.16 C 327.38 30.77 318.67 40.48 310.78 50.83 C 308.26 51.66 308.70 48.52 309.04 47.00 C 309.90 40.49 314.18 35.26 316.34 29.20 C 318.14 24.35 320.49 19.70 321.84 14.70 C 316.37 20.15 313.41 27.57 308.45 33.47 C 300.72 43.29 290.15 50.32 279.43 56.48 C 276.95 57.75 273.99 59.64 271.20 58.15 C 268.77 56.73 268.60 53.47 268.89 50.98 C 269.64 45.18 271.18 38.85 275.87 34.93 C 277.33 33.80 278.91 32.21 280.93 32.48 C 283.43 35.42 284.02 39.63 283.95 43.37 C 281.82 41.60 282.37 36.62 279.09 36.89 C 272.86 39.99 270.69 47.63 271.20 54.11 C 275.39 55.19 278.92 52.23 282.45 50.50 C 289.14 47.15 295.03 42.47 300.89 37.87 C 304.65 34.91 307.10 30.75 310.19 27.18 C 313.47 23.35 316.01 18.98 318.89 14.87 Z" />
<path fill="#000000" opacity="1.00" d=" M 380.31 9.31 C 382.99 8.47 383.07 12.24 383.13 13.97 C 383.47 20.69 378.95 26.06 374.39 30.40 C 370.36 34.12 366.58 39.06 366.80 44.82 C 372.00 44.32 376.59 41.59 380.92 38.88 C 383.68 37.09 386.68 35.31 388.33 32.34 C 390.87 27.79 392.26 22.63 395.44 18.42 C 397.54 15.69 398.96 12.17 402.17 10.51 C 403.51 18.28 401.24 26.88 395.30 32.29 C 391.74 35.88 386.58 40.22 388.25 45.89 C 392.71 45.19 396.49 42.56 400.37 40.44 C 402.98 39.11 404.92 36.85 406.22 34.26 C 407.80 31.00 411.08 28.69 414.70 28.34 C 417.73 29.86 416.73 33.94 415.38 36.29 C 412.32 38.89 405.46 38.70 406.52 44.30 C 413.52 42.75 418.48 37.18 423.42 32.41 C 424.82 30.74 428.35 30.81 428.79 33.29 C 430.03 37.65 427.03 41.63 425.67 45.57 C 432.43 44.57 439.27 40.63 442.01 34.12 C 442.96 32.05 443.70 29.90 444.60 27.80 C 446.61 30.91 445.44 34.81 444.06 37.93 C 440.66 44.94 433.39 49.30 425.96 50.87 C 423.63 51.50 421.72 49.11 421.73 46.97 C 421.53 43.24 423.78 40.09 425.10 36.77 C 419.30 41.67 413.68 47.60 406.02 49.38 C 403.27 48.86 403.23 45.58 402.27 43.52 C 398.45 45.67 394.76 48.20 390.57 49.59 C 388.89 50.10 386.56 50.08 385.52 48.43 C 384.44 46.18 384.64 43.60 384.27 41.19 C 379.34 44.24 374.46 47.51 368.93 49.39 C 366.92 50.09 364.55 48.90 364.02 46.81 C 363.66 44.82 363.86 42.78 363.85 40.77 C 360.06 42.87 356.52 45.86 352.24 46.82 C 350.24 45.16 349.79 42.10 351.04 39.86 C 352.48 39.86 353.19 41.11 353.99 42.09 C 360.62 38.40 368.01 33.84 370.24 26.09 C 371.73 22.13 374.19 18.64 375.83 14.75 C 376.77 12.57 378.10 10.40 380.31 9.31 M 375.82 24.05 C 378.67 21.85 380.54 18.57 380.92 14.97 C 378.09 17.20 376.76 20.69 375.82 24.05 M 394.00 28.46 C 397.03 27.13 398.18 23.78 399.07 20.85 C 396.75 22.90 395.04 25.56 394.00 28.46 M 407.71 37.03 C 410.10 35.73 414.99 35.38 414.32 31.66 C 411.06 31.64 409.14 34.52 407.71 37.03 Z" />
<path fill="#000000" opacity="1.00" d=" M 174.70 18.71 C 176.09 16.59 177.72 14.16 180.47 13.86 C 182.76 17.59 183.48 22.17 182.09 26.36 C 179.92 34.63 173.63 40.86 167.42 46.33 C 165.98 47.69 163.87 49.12 164.57 51.43 C 172.26 49.97 177.55 43.57 184.07 39.76 C 185.46 39.41 186.37 41.65 185.62 42.68 C 184.18 45.58 181.65 48.03 181.45 51.44 C 186.81 48.90 190.97 44.48 195.58 40.85 C 198.60 42.39 197.56 45.53 196.71 48.10 C 201.21 45.51 205.35 42.35 209.79 39.65 C 211.06 41.44 211.86 43.47 211.97 45.69 C 215.94 44.17 221.01 40.52 224.93 44.09 C 227.18 47.11 225.74 50.92 225.67 54.32 C 230.01 52.15 235.72 50.89 238.09 46.23 C 239.00 43.92 238.05 38.42 241.86 39.26 C 242.98 43.80 242.72 49.57 238.47 52.45 C 234.28 55.34 229.31 57.69 224.22 58.04 C 219.99 56.17 223.45 50.87 222.54 47.48 C 222.28 45.36 219.83 46.34 218.50 46.59 C 213.55 48.54 209.81 52.56 206.62 56.69 C 205.93 56.75 204.56 56.86 203.87 56.92 C 203.17 53.02 206.33 49.98 207.10 46.33 C 203.07 47.99 199.69 50.78 196.04 53.10 C 192.59 55.30 190.03 58.63 188.31 62.31 C 184.99 69.33 180.76 75.91 176.09 82.10 C 174.94 83.82 172.81 82.07 172.55 80.61 C 171.03 75.52 172.72 70.04 175.91 65.97 C 179.72 61.09 184.69 57.31 189.36 53.30 C 190.34 52.42 190.50 51.03 190.99 49.88 C 186.83 51.20 184.43 55.58 180.00 56.33 C 176.23 55.72 177.70 51.36 177.64 48.78 C 173.18 51.75 168.64 55.13 163.09 55.54 C 161.79 54.73 160.86 53.49 159.81 52.41 C 155.39 54.55 151.24 58.11 146.09 58.04 C 143.78 57.95 142.97 55.34 141.86 53.73 C 140.34 53.66 138.82 53.60 137.30 53.49 C 137.08 52.08 136.90 50.67 136.77 49.25 C 138.74 49.55 141.58 51.40 142.81 48.87 C 144.33 45.38 146.33 41.75 150.00 40.14 C 152.05 40.68 153.49 42.72 152.91 44.86 C 152.00 48.39 148.19 49.75 145.81 52.11 C 144.82 54.87 148.05 54.59 149.68 53.77 C 153.23 52.18 156.49 49.99 159.63 47.70 C 162.24 45.91 162.85 42.63 164.04 39.91 C 166.76 32.46 170.57 25.47 174.70 18.71 M 173.81 26.81 C 171.25 31.53 168.67 36.35 167.45 41.62 C 171.35 39.21 174.30 35.54 176.74 31.72 C 179.11 27.75 181.61 23.14 179.89 18.41 C 177.14 20.61 175.59 23.85 173.81 26.81 M 145.54 49.26 C 148.04 47.80 150.26 45.49 150.47 42.45 C 148.14 44.13 146.65 46.67 145.54 49.26 M 175.70 75.31 C 179.28 72.38 181.25 68.03 183.11 63.90 C 179.12 66.40 176.47 70.70 175.70 75.31 Z" />
<path fill="#000000" opacity="1.00" d=" M 357.01 17.18 C 357.63 17.18 358.86 17.19 359.48 17.19 C 360.00 19.73 360.70 22.26 360.78 24.86 C 357.19 25.67 357.18 19.74 357.01 17.18 Z" />
<path fill="#000000" opacity="1.00" d=" M 228.25 71.24 C 235.22 64.79 244.20 61.14 253.08 58.13 C 256.40 57.20 260.88 56.64 263.07 60.00 C 268.94 67.58 266.25 78.53 260.10 85.08 C 255.02 90.40 248.60 95.37 241.08 96.15 C 237.28 96.34 237.48 92.52 237.65 89.80 C 232.77 93.66 227.93 97.62 223.43 101.91 C 229.10 106.05 236.72 106.13 243.24 104.27 C 246.20 103.60 247.97 101.00 249.96 98.95 C 253.30 95.43 257.54 92.67 262.19 91.24 C 265.24 90.30 266.96 94.41 265.87 96.79 C 265.25 100.31 261.23 100.85 258.93 102.88 C 257.88 103.67 257.91 104.50 259.01 105.36 C 265.96 103.03 271.95 98.34 277.00 93.11 C 277.99 94.09 278.84 95.21 279.71 96.30 C 281.47 95.23 283.32 94.30 285.34 93.83 C 285.88 95.39 286.39 96.98 287.03 98.52 C 290.37 97.51 293.05 94.16 296.79 95.05 C 298.32 98.89 295.55 102.47 295.43 106.30 C 303.78 103.20 311.04 97.28 315.64 89.63 C 319.74 82.53 323.17 75.06 327.12 67.87 C 329.43 68.05 329.12 70.85 328.63 72.47 C 327.44 76.08 325.38 79.31 323.70 82.70 C 320.70 88.19 318.22 93.96 314.81 99.21 C 317.55 98.14 320.01 96.33 322.94 95.76 C 325.76 95.49 326.52 98.83 326.47 101.01 C 326.82 108.44 316.46 115.53 310.77 109.00 C 305.92 113.54 303.96 120.03 300.60 125.57 C 299.99 126.99 298.43 126.76 297.17 126.88 C 296.64 125.65 296.63 124.43 297.13 123.22 C 299.49 116.61 304.13 111.11 306.63 104.58 C 303.16 106.58 300.07 109.59 295.92 110.12 C 293.60 110.65 291.65 108.18 291.96 106.01 C 292.09 104.14 292.38 102.27 292.52 100.40 C 288.59 101.91 285.58 104.84 282.65 107.73 C 281.94 107.79 280.52 107.89 279.81 107.95 C 280.39 104.92 281.80 102.14 282.45 99.13 C 277.70 101.41 275.16 106.40 271.02 109.49 C 268.23 109.52 269.54 106.54 269.32 104.79 C 265.28 106.94 261.07 110.83 256.16 109.21 C 255.20 108.25 254.69 106.95 253.99 105.81 C 252.02 107.09 250.15 108.58 247.97 109.49 C 245.44 109.49 243.09 107.67 240.51 108.64 C 233.63 110.39 226.16 108.47 220.81 103.86 C 214.65 108.24 208.45 112.74 203.12 118.13 C 204.39 117.90 207.10 118.88 205.11 120.02 C 201.95 121.42 199.00 123.30 195.71 124.39 C 195.74 123.57 195.81 121.93 195.85 121.11 C 202.33 113.38 211.07 108.06 218.66 101.53 C 218.11 98.01 216.53 94.62 217.12 90.97 C 217.94 83.23 222.78 76.51 228.25 71.24 M 224.84 79.84 C 220.93 85.32 219.34 92.68 221.88 99.07 C 230.24 92.77 238.45 86.05 245.31 78.10 C 246.63 78.00 247.44 78.63 247.74 79.98 C 244.52 83.71 241.44 87.94 241.12 93.04 C 244.51 92.85 247.37 90.86 250.21 89.22 C 255.70 85.89 260.94 81.31 263.01 75.04 C 264.29 70.96 264.45 65.98 261.48 62.58 C 259.08 60.01 255.26 60.32 252.21 61.34 C 241.63 64.74 231.31 70.54 224.84 79.84 M 250.59 103.46 C 253.60 101.74 256.57 99.94 259.92 98.95 C 261.63 98.60 261.88 96.73 262.30 95.35 C 257.75 96.64 252.75 99.00 250.59 103.46 M 314.01 105.18 C 313.38 107.52 316.33 107.42 317.80 106.92 C 320.71 106.03 322.04 103.06 322.66 100.33 C 319.46 101.29 316.51 102.99 314.01 105.18 Z" />
</g>
</svg>
