<?xml version="1.0" encoding="UTF-8" ?>
<!DOCTYPE svg PUBLIC "-//W3C//DTD SVG 1.1//EN" "http://www.w3.org/Graphics/SVG/1.1/DTD/svg11.dtd">
<svg width="64pt" height="64pt" viewBox="0 0 64 64" version="1.1" xmlns="http://www.w3.org/2000/svg">
<g id="#000000ff">
<path fill="#000000" opacity="1.00" d=" M 28.50 14.51 C 29.21 13.00 30.78 12.43 32.25 11.94 C 34.13 15.62 32.35 19.52 32.55 23.37 C 35.50 21.98 37.60 18.99 41.03 18.63 C 42.59 19.29 43.10 20.40 42.56 21.97 C 40.77 25.19 36.88 25.91 33.69 27.04 C 36.97 27.32 40.01 28.48 42.67 30.43 C 41.48 31.32 40.31 32.26 38.95 32.89 C 35.91 32.44 34.21 29.89 32.69 27.51 C 31.93 30.13 31.07 32.72 30.11 35.28 C 29.11 35.27 27.10 35.26 26.10 35.25 C 26.66 31.51 28.86 28.40 30.30 24.98 C 28.63 26.05 27.08 27.28 25.42 28.35 C 23.86 26.15 20.99 23.41 23.00 20.58 C 25.47 21.52 27.65 23.14 30.29 23.66 C 29.58 20.65 27.77 17.69 28.50 14.51 Z" />
<path fill="#000000" opacity="1.00" d=" M 16.21 17.06 C 17.48 17.42 18.57 18.22 19.73 18.85 C 18.62 20.98 17.05 22.79 15.35 24.47 C 15.46 25.64 15.80 26.78 16.04 27.93 C 18.98 27.85 21.92 27.75 24.87 27.83 C 24.54 29.20 23.91 30.39 22.97 31.40 C 20.40 31.19 17.92 30.47 15.39 30.04 C 17.66 32.57 18.83 35.70 18.92 39.09 C 17.95 39.55 16.98 39.97 15.98 40.36 C 14.59 37.87 14.10 35.02 13.45 32.27 C 10.06 35.05 5.68 38.88 1.06 36.54 C 2.29 34.94 3.37 33.15 5.01 31.93 C 7.05 31.05 9.28 30.83 11.47 30.58 C 11.46 29.49 11.46 28.39 11.47 27.30 C 8.50 27.71 4.27 28.86 2.61 25.50 C 2.39 23.87 2.78 22.23 2.90 20.60 C 6.44 21.44 9.90 22.85 12.46 25.52 C 13.24 23.60 13.24 21.56 13.42 19.54 C 14.29 18.64 15.21 17.80 16.21 17.06 Z" />
<path fill="#000000" opacity="1.00" d=" M 48.09 27.18 C 49.40 27.27 50.71 27.38 52.02 27.51 C 51.58 31.93 50.88 36.37 49.27 40.54 C 53.94 41.15 58.08 36.84 62.66 39.35 C 62.68 41.00 62.66 42.65 62.63 44.31 C 58.86 44.95 55.31 43.58 51.80 42.42 C 50.36 45.00 52.86 46.94 54.01 49.03 C 55.15 50.64 55.25 52.68 55.49 54.57 C 54.16 54.65 52.83 54.72 51.50 54.78 C 50.32 51.82 49.55 48.75 49.67 45.55 C 49.26 45.61 48.44 45.75 48.03 45.81 C 47.35 50.61 42.26 52.23 38.03 51.46 C 40.16 48.76 43.04 46.84 45.61 44.61 C 46.31 42.91 44.21 42.65 43.15 42.03 C 40.52 41.07 38.29 39.35 36.23 37.50 C 38.40 37.24 40.57 36.76 42.76 36.84 C 44.70 37.50 45.15 39.66 46.20 41.19 C 47.18 36.53 45.81 31.59 48.09 27.18 Z" />
<path fill="#000000" opacity="1.00" d=" M 20.45 32.63 C 21.84 33.47 23.78 33.82 24.48 35.45 C 24.81 37.20 24.31 38.98 24.25 40.74 C 27.61 39.14 30.53 35.90 34.57 36.50 C 34.49 38.38 35.33 41.08 33.18 42.11 C 31.12 43.95 28.23 43.09 25.76 43.54 C 27.62 45.15 30.08 45.73 32.10 47.10 C 32.76 48.38 33.29 49.72 33.71 51.09 C 32.80 52.56 31.35 53.57 30.09 54.72 C 27.91 52.27 26.38 49.37 26.02 46.09 C 24.63 48.66 23.66 51.50 21.79 53.78 C 20.81 55.13 19.06 54.28 17.71 54.32 C 18.82 50.43 20.93 46.94 22.36 43.18 C 19.46 44.97 13.99 49.01 11.81 44.31 C 14.49 41.12 18.57 41.59 22.28 41.39 C 21.29 40.30 20.28 39.22 19.28 38.13 C 19.63 36.29 20.01 34.45 20.45 32.63 M 31.12 38.28 C 30.85 38.60 30.31 39.23 30.04 39.55 C 30.79 42.94 34.90 37.57 31.12 38.28 Z" />
</g>
</svg>
