<?xml version="1.0" encoding="UTF-8" ?>
<!DOCTYPE svg PUBLIC "-//W3C//DTD SVG 1.1//EN" "http://www.w3.org/Graphics/SVG/1.1/DTD/svg11.dtd">
<svg width="64pt" height="64pt" viewBox="0 0 64 64" version="1.1" xmlns="http://www.w3.org/2000/svg">
<g id="#000000ff">
<path fill="#000000" opacity="1.00" d=" M 28.93 7.95 C 29.44 7.56 30.46 6.79 30.97 6.40 C 33.05 13.13 31.78 20.41 33.70 27.20 C 36.20 21.69 36.12 15.45 38.05 9.79 C 38.61 9.73 39.72 9.63 40.27 9.57 C 40.25 16.78 37.30 23.62 37.55 30.87 C 34.71 29.99 31.80 28.23 28.83 29.78 C 26.21 24.44 25.08 18.54 23.39 12.86 C 24.21 12.22 25.04 11.60 25.89 11.00 C 26.97 13.33 27.95 15.71 29.24 17.93 C 29.54 14.59 29.13 11.27 28.93 7.95 Z" />
<path fill="#000000" opacity="1.00" d=" M 45.44 15.28 C 46.02 13.85 48.04 12.19 49.08 14.18 C 47.17 19.08 44.71 23.82 41.90 28.27 C 41.38 28.28 40.34 28.31 39.82 28.32 C 40.47 23.51 43.33 19.52 45.44 15.28 Z" />
<path fill="#000000" opacity="1.00" d=" M 15.78 15.02 C 16.36 14.55 17.51 13.62 18.09 13.15 C 22.23 18.45 26.54 24.44 26.65 31.44 C 28.35 32.14 30.10 32.70 31.86 33.22 C 32.75 36.28 33.49 39.41 35.00 42.24 C 35.96 39.47 34.12 34.54 38.15 34.07 C 38.77 37.85 38.38 41.67 38.45 45.47 C 41.20 42.93 42.51 38.38 46.52 37.55 C 46.16 42.41 42.37 46.33 37.81 47.67 C 36.90 45.95 35.63 44.30 33.43 44.66 C 33.58 46.80 34.83 48.53 36.12 50.14 C 35.05 50.39 33.99 50.64 32.92 50.89 C 32.00 49.18 31.81 46.91 30.06 45.79 C 26.67 43.44 25.23 39.38 23.44 35.85 C 23.86 35.38 24.70 34.45 25.12 33.98 C 26.92 36.95 28.45 40.13 30.92 42.63 C 30.58 39.44 29.75 36.34 28.71 33.32 C 25.58 32.20 21.52 32.63 19.47 29.54 C 17.09 26.42 15.14 22.99 12.60 19.99 C 13.21 19.55 14.44 18.68 15.06 18.25 C 17.91 22.00 20.29 26.11 23.54 29.55 C 21.45 24.47 19.14 19.40 15.78 15.02 Z" />
<path fill="#000000" opacity="1.00" d=" M 48.64 24.63 C 50.65 22.76 52.97 18.98 56.11 20.79 C 51.77 24.60 48.18 29.38 42.87 31.95 C 42.90 28.38 46.74 27.12 48.64 24.63 Z" />
<path fill="#000000" opacity="1.00" d=" M 8.87 24.71 C 13.93 25.98 17.78 30.32 20.50 34.60 C 15.57 34.81 10.59 35.32 5.72 34.29 C 6.08 33.68 6.79 32.48 7.15 31.88 C 9.49 31.92 11.83 31.95 14.16 31.91 C 12.26 29.65 8.82 28.04 8.87 24.71 Z" />
<path fill="#000000" opacity="1.00" d=" M 45.03 32.50 C 47.00 29.13 50.95 30.47 54.09 30.65 C 56.14 30.88 58.90 30.65 59.48 33.23 C 57.64 33.40 55.80 33.50 53.96 33.61 C 55.77 34.33 57.59 35.04 59.16 36.22 C 54.19 36.75 49.18 35.20 45.03 32.50 Z" />
<path fill="#000000" opacity="1.00" d=" M 19.74 36.71 C 23.95 38.84 25.74 43.70 27.99 47.56 C 25.19 47.22 23.74 44.70 22.18 42.68 C 20.88 40.93 19.56 39.01 19.74 36.71 Z" />
<path fill="#000000" opacity="1.00" d=" M 16.76 38.53 C 20.40 40.59 22.62 44.27 24.75 47.72 C 21.20 46.79 18.60 43.83 16.52 40.98 C 16.58 40.37 16.70 39.14 16.76 38.53 Z" />
<path fill="#000000" opacity="1.00" d=" M 28.22 53.89 C 28.10 52.07 28.34 48.72 31.00 49.91 C 31.79 52.76 31.63 55.76 31.42 58.68 C 28.58 58.98 28.38 55.98 28.22 53.89 Z" />
</g>
</svg>
