<?xml version="1.0" encoding="UTF-8" ?>
<!DOCTYPE svg PUBLIC "-//W3C//DTD SVG 1.1//EN" "http://www.w3.org/Graphics/SVG/1.1/DTD/svg11.dtd">
<svg width="64pt" height="64pt" viewBox="0 0 64 64" version="1.1" xmlns="http://www.w3.org/2000/svg">
<g id="#000000ff">
<path fill="#000000" opacity="1.00" d=" M 26.71 12.87 C 22.79 11.01 24.03 3.75 27.97 2.89 C 28.46 5.17 28.92 7.46 29.48 9.72 C 28.56 10.77 27.63 11.82 26.71 12.87 Z" />
<path fill="#000000" opacity="1.00" d=" M 31.05 9.06 C 35.40 6.73 36.89 12.24 38.72 14.99 C 37.01 15.76 35.36 16.65 33.86 17.77 C 31.82 15.32 31.02 12.20 31.05 9.06 Z" />
<path fill="#000000" opacity="1.00" d=" M 13.92 20.41 C 15.58 17.71 16.60 12.76 20.78 13.71 C 23.36 15.88 25.95 18.30 26.14 21.91 C 24.11 22.79 21.77 24.69 20.06 22.32 C 18.01 21.68 16.00 20.93 13.92 20.41 Z" />
<path fill="#000000" opacity="1.00" d=" M 46.34 18.09 C 48.10 18.54 49.80 19.15 51.51 19.74 C 50.94 24.19 49.60 28.98 45.89 31.82 C 42.12 29.54 42.90 24.79 42.16 21.06 C 43.29 20.96 44.43 20.87 45.57 20.80 C 45.76 20.12 46.15 18.77 46.34 18.09 Z" />
<path fill="#000000" opacity="1.00" d=" M 28.15 24.46 C 30.82 23.33 33.42 22.06 35.94 20.62 C 37.74 22.90 39.21 25.41 40.65 27.92 C 38.82 29.07 36.85 30.31 34.63 29.50 C 33.81 30.34 32.97 31.15 32.09 31.93 C 30.24 29.75 28.03 27.55 28.15 24.46 Z" />
<path fill="#000000" opacity="1.00" d=" M 5.68 27.96 C 5.07 24.49 11.09 22.93 13.09 25.79 C 10.90 27.13 8.01 31.30 5.68 27.96 Z" />
<path fill="#000000" opacity="1.00" d=" M 9.94 36.32 C 10.82 32.80 12.81 29.84 15.10 27.09 C 19.92 28.93 24.14 33.31 24.93 38.49 C 19.92 38.35 14.08 39.98 9.94 36.32 Z" />
<path fill="#000000" opacity="1.00" d=" M 30.03 37.77 C 33.52 37.85 36.71 36.84 39.89 35.65 C 43.44 38.33 47.92 39.64 50.96 42.98 C 49.60 44.51 47.80 44.35 46.01 43.86 C 46.34 45.25 46.65 46.64 46.91 48.05 C 44.34 47.41 41.87 46.46 39.27 45.97 C 39.43 48.06 39.82 50.19 39.19 52.25 C 37.39 50.33 36.62 47.79 35.36 45.54 C 35.36 47.66 35.60 49.78 35.87 51.88 C 35.30 51.71 34.16 51.37 33.59 51.21 C 33.34 46.46 30.55 42.45 30.03 37.77 Z" />
<path fill="#000000" opacity="1.00" d=" M 4.67 48.16 C 7.09 46.41 9.31 44.22 12.19 43.24 C 15.84 42.89 19.68 43.89 22.04 46.84 C 23.88 49.98 25.41 53.32 26.22 56.88 C 24.80 55.97 23.42 55.00 22.05 54.03 C 21.04 55.31 20.02 58.57 17.91 56.98 C 17.30 55.39 17.17 53.68 16.88 52.02 C 17.42 54.80 15.69 56.44 12.93 55.88 C 12.83 55.24 12.65 53.96 12.56 53.33 C 11.56 54.47 10.40 55.45 9.14 56.30 C 8.51 54.40 7.67 52.59 6.64 50.86 C 8.46 48.78 11.67 47.81 12.85 45.36 C 10.53 47.11 8.25 48.89 6.16 50.91 C 5.79 50.22 5.04 48.84 4.67 48.16 Z" />
</g>
</svg>
