<?xml version="1.0" encoding="UTF-8" ?>
<!DOCTYPE svg PUBLIC "-//W3C//DTD SVG 1.1//EN" "http://www.w3.org/Graphics/SVG/1.1/DTD/svg11.dtd">
<svg width="64pt" height="64pt" viewBox="0 0 64 64" version="1.1" xmlns="http://www.w3.org/2000/svg">
<g id="#000000ff">
<path fill="#000000" opacity="1.00" d=" M 34.27 6.32 C 35.57 5.37 37.03 4.68 38.44 3.92 C 38.61 7.82 37.37 11.62 37.45 15.49 C 39.71 18.91 43.04 21.43 45.65 24.55 C 45.72 26.09 44.95 27.49 44.47 28.90 C 42.58 27.33 40.68 25.74 38.47 24.63 C 39.91 28.47 40.65 32.89 37.88 36.38 C 37.58 34.66 37.30 32.95 37.02 31.24 C 36.30 32.87 35.73 34.56 35.13 36.24 C 34.58 36.38 33.48 36.67 32.93 36.82 C 33.06 35.36 33.19 33.91 33.31 32.46 C 34.46 31.58 35.60 30.68 36.71 29.75 C 35.37 29.67 34.03 29.60 32.69 29.56 C 32.62 27.77 32.59 25.97 32.49 24.18 C 29.68 26.58 28.58 30.15 26.93 33.31 C 24.53 31.78 22.49 29.79 21.61 27.01 C 22.65 27.27 23.69 27.53 24.73 27.81 C 25.60 26.28 26.51 24.78 27.38 23.25 C 24.32 24.08 21.46 25.57 19.75 28.35 C 19.00 26.92 18.14 25.55 17.19 24.25 C 19.50 22.18 22.26 20.75 24.84 19.07 C 23.70 18.23 22.57 17.38 21.44 16.52 C 22.57 15.73 23.71 14.95 24.84 14.17 C 27.23 15.23 29.68 16.18 32.21 16.88 C 33.06 13.40 32.96 9.68 34.27 6.32 Z" />
<path fill="#000000" opacity="1.00" d=" M 15.11 28.41 C 16.60 27.14 18.31 29.61 16.63 30.57 C 15.19 31.88 13.43 29.31 15.11 28.41 Z" />
<path fill="#000000" opacity="1.00" d=" M 17.40 32.39 C 17.73 30.10 20.34 29.68 22.14 29.06 C 21.12 31.72 20.02 34.36 18.94 37.01 C 17.87 35.70 16.69 34.18 17.40 32.39 Z" />
<path fill="#000000" opacity="1.00" d=" M 29.86 29.78 C 30.56 29.55 31.95 29.10 32.65 28.88 C 32.52 31.17 32.21 33.46 31.44 35.63 C 30.64 35.27 29.05 34.55 28.25 34.19 C 28.78 32.72 29.32 31.25 29.86 29.78 Z" />
<path fill="#000000" opacity="1.00" d=" M 11.61 31.29 C 13.19 31.83 14.75 32.44 16.35 32.91 C 16.13 34.22 15.89 35.53 15.64 36.84 C 14.25 35.02 12.84 33.22 11.61 31.29 Z" />
<path fill="#000000" opacity="1.00" d=" M 22.27 32.41 C 23.75 33.09 25.14 33.93 26.46 34.86 C 25.41 36.79 23.87 38.29 21.65 38.74 C 21.55 39.96 21.45 41.18 21.33 42.40 C 18.98 42.51 16.42 42.89 14.41 41.35 C 14.08 41.85 13.40 42.86 13.07 43.36 C 12.91 41.82 12.77 40.27 12.64 38.73 C 15.64 38.74 18.64 38.65 21.57 37.95 C 21.70 36.09 21.94 34.24 22.27 32.41 Z" />
<path fill="#000000" opacity="1.00" d=" M 38.34 38.98 C 38.95 37.38 39.74 35.85 40.76 34.47 C 41.75 36.94 42.45 39.51 43.14 42.07 C 41.57 41.00 39.96 39.99 38.34 38.98 Z" />
<path fill="#000000" opacity="1.00" d=" M 27.26 35.89 C 28.66 36.40 30.05 36.92 31.43 37.44 C 30.49 38.89 29.49 40.31 28.49 41.71 C 27.88 41.27 26.68 40.38 26.08 39.93 C 26.48 38.59 26.87 37.24 27.26 35.89 Z" />
<path fill="#000000" opacity="1.00" d=" M 29.04 42.76 C 31.65 41.50 34.23 40.23 35.41 37.38 C 36.06 37.34 37.35 37.25 37.99 37.21 C 37.56 38.80 37.07 40.38 36.51 41.93 C 35.46 41.78 34.41 41.62 33.36 41.45 C 32.93 41.99 32.09 43.06 31.67 43.59 C 33.03 45.19 34.31 46.92 34.41 49.11 C 32.00 47.57 30.96 44.78 29.04 42.76 Z" />
<path fill="#000000" opacity="1.00" d=" M 24.20 40.69 C 26.80 40.98 27.48 43.25 27.15 45.55 C 25.09 44.69 24.39 42.76 24.20 40.69 Z" />
<path fill="#000000" opacity="1.00" d=" M 34.62 45.40 C 36.16 43.77 37.70 42.14 39.25 40.51 C 39.73 41.62 40.21 42.73 40.70 43.84 C 39.80 44.76 38.90 45.68 38.00 46.59 C 36.87 46.19 35.74 45.80 34.62 45.40 Z" />
<path fill="#000000" opacity="1.00" d=" M 17.53 44.66 C 19.78 43.62 22.17 43.67 24.40 44.71 C 23.29 45.69 22.17 46.67 21.06 47.66 C 19.86 46.68 18.69 45.68 17.53 44.66 Z" />
<path fill="#000000" opacity="1.00" d=" M 13.76 46.20 C 14.80 45.66 15.85 45.11 16.90 44.56 C 17.61 45.75 18.32 46.95 19.02 48.15 C 17.61 48.31 16.20 48.48 14.80 48.67 C 14.45 47.85 14.11 47.02 13.76 46.20 Z" />
<path fill="#000000" opacity="1.00" d=" M 42.12 45.25 C 42.79 45.91 42.79 45.91 42.12 45.25 Z" />
<path fill="#000000" opacity="1.00" d=" M 24.38 46.56 C 25.02 46.33 26.29 45.87 26.92 45.64 C 26.40 47.38 26.20 49.45 24.51 50.52 C 24.43 49.20 24.39 47.88 24.38 46.56 Z" />
<path fill="#000000" opacity="1.00" d=" M 27.65 47.09 C 28.99 47.33 30.34 47.58 31.68 47.84 C 31.57 48.86 31.35 50.90 31.25 51.92 C 29.89 51.75 28.64 51.32 27.52 50.62 C 27.42 49.44 27.55 48.26 27.65 47.09 Z" />
<path fill="#000000" opacity="1.00" d=" M 35.58 49.84 C 37.23 48.66 38.93 47.57 40.62 46.44 C 40.56 47.93 40.55 49.43 40.76 50.91 C 39.57 51.65 38.37 52.37 37.14 53.04 C 37.91 52.01 39.44 49.94 40.21 48.91 C 39.05 49.14 36.73 49.61 35.58 49.84 Z" />
<path fill="#000000" opacity="1.00" d=" M 18.43 49.24 C 19.59 48.85 20.76 48.48 21.93 48.13 C 22.49 49.71 23.82 51.45 22.17 52.87 C 20.79 51.80 19.57 50.56 18.43 49.24 Z" />
<path fill="#000000" opacity="1.00" d=" M 29.11 55.10 C 30.47 52.14 33.27 50.74 36.44 50.77 C 34.51 52.91 32.03 54.69 29.11 55.10 Z" />
<path fill="#000000" opacity="1.00" d=" M 17.10 51.70 C 20.01 52.69 22.35 54.81 25.27 55.82 C 24.03 56.15 22.79 56.46 21.54 56.78 C 19.89 55.24 18.06 53.80 17.10 51.70 Z" />
<path fill="#000000" opacity="1.00" d=" M 24.52 51.99 C 25.82 51.18 28.35 53.05 27.57 54.55 C 26.20 55.54 23.87 53.48 24.52 51.99 Z" />
<path fill="#000000" opacity="1.00" d=" M 34.39 54.32 C 37.06 53.26 35.09 57.06 33.47 56.86 C 31.77 56.64 33.62 54.62 34.39 54.32 Z" />
<path fill="#000000" opacity="1.00" d=" M 28.49 56.29 C 29.32 54.77 31.81 56.00 30.42 57.46 C 29.64 59.07 27.12 57.70 28.49 56.29 Z" />
</g>
</svg>
