<?xml version="1.0" encoding="UTF-8" ?>
<!DOCTYPE svg PUBLIC "-//W3C//DTD SVG 1.1//EN" "http://www.w3.org/Graphics/SVG/1.1/DTD/svg11.dtd">
<svg width="128pt" height="128pt" viewBox="0 0 128 128" version="1.1" xmlns="http://www.w3.org/2000/svg">
<g id="#000000ff">
<path fill="#000000" opacity="1.00" d=" M 58.81 15.64 C 61.07 14.82 63.13 16.24 65.08 17.16 C 65.09 17.89 65.11 19.34 65.12 20.07 C 63.95 19.08 62.79 18.08 61.65 17.06 C 60.18 17.69 58.78 18.80 57.13 18.85 C 55.80 17.35 57.72 16.42 58.81 15.64 Z" />
<path fill="#000000" opacity="1.00" d=" M 50.41 18.67 C 52.94 18.15 55.74 18.15 57.04 20.81 C 57.91 20.52 58.78 20.24 59.66 19.97 C 58.09 22.33 58.28 26.00 61.04 27.40 C 60.74 25.62 60.32 23.86 60.00 22.08 C 61.93 22.95 62.90 24.79 62.89 26.85 C 65.28 27.72 67.62 28.73 69.90 29.89 C 71.32 28.11 72.48 26.15 73.57 24.16 C 72.54 22.44 71.44 20.74 70.92 18.78 C 73.32 19.71 76.10 22.74 74.53 25.36 C 73.47 27.35 72.64 29.63 70.78 31.04 C 68.99 31.70 67.31 30.69 65.70 30.06 C 63.57 33.30 60.93 36.51 60.46 40.49 C 60.02 43.33 60.34 46.21 60.22 49.06 C 61.55 48.16 62.89 47.25 64.33 46.52 C 65.09 49.42 62.35 50.49 60.24 51.42 C 60.03 54.34 59.99 57.26 60.00 60.19 C 61.92 60.83 63.73 60.90 64.58 58.70 C 63.71 58.80 61.96 58.99 61.09 59.09 C 62.76 56.47 64.61 53.98 66.28 51.36 C 67.76 51.35 69.23 51.22 70.71 51.11 C 69.11 53.21 67.11 55.00 65.68 57.23 C 65.30 58.75 65.03 60.30 64.66 61.82 C 63.10 61.86 61.54 61.87 59.98 61.94 C 60.24 66.63 60.53 71.31 60.63 76.01 C 62.18 69.95 65.80 64.79 67.94 58.97 C 69.32 55.29 73.57 52.19 71.85 47.88 C 72.73 48.10 73.61 48.32 74.49 48.54 C 74.40 47.41 74.23 46.28 74.20 45.14 C 75.79 44.62 76.33 46.59 77.34 47.39 C 80.95 45.96 79.67 41.84 80.31 38.81 C 78.14 37.42 76.32 35.53 75.49 33.03 C 80.33 29.94 87.10 30.28 91.70 33.67 C 92.60 37.14 95.39 40.51 94.13 44.21 C 91.90 47.80 87.41 45.76 84.18 45.53 C 80.92 47.53 76.41 47.70 74.09 50.97 C 76.61 49.98 79.18 49.14 81.90 48.96 C 81.51 50.08 81.13 51.20 80.74 52.33 C 82.94 51.98 85.13 51.60 87.35 51.39 C 85.40 54.67 79.87 54.66 78.39 51.04 C 76.78 51.61 75.13 52.08 73.46 52.45 C 71.32 55.87 69.39 59.43 68.19 63.30 C 70.65 60.81 73.33 58.36 76.89 57.66 C 76.68 58.33 76.26 59.65 76.05 60.32 C 77.35 59.34 78.63 58.33 80.02 57.47 C 79.55 58.59 79.05 59.70 78.51 60.80 C 80.07 62.56 81.68 64.27 83.39 65.89 C 82.03 66.14 80.66 66.38 79.30 66.64 C 79.14 66.01 78.82 64.75 78.66 64.12 C 76.16 64.70 72.97 66.31 71.38 63.29 C 73.56 62.98 75.75 62.77 77.93 62.54 C 77.59 62.21 76.91 61.53 76.57 61.20 C 71.10 62.20 65.86 65.61 64.21 71.16 C 61.35 77.13 61.82 83.86 60.16 90.13 C 59.83 93.58 60.06 97.05 60.18 100.51 C 68.52 95.93 73.61 86.98 74.60 77.67 C 75.48 75.85 73.95 74.50 72.88 73.25 C 75.32 73.24 77.72 72.83 80.15 72.60 C 80.98 75.19 81.29 77.87 78.52 79.40 C 78.47 77.63 78.49 75.87 78.41 74.10 C 76.05 76.52 76.23 80.10 75.38 83.15 C 74.88 85.76 73.43 88.03 72.43 90.46 C 73.81 89.30 75.13 88.05 76.57 86.97 C 76.45 91.29 71.30 91.33 69.77 94.69 C 67.66 98.66 64.09 101.43 61.18 104.76 C 61.80 104.71 63.02 104.61 63.63 104.56 C 63.42 106.43 63.38 108.31 63.19 110.18 C 62.18 108.67 61.27 107.10 60.36 105.52 C 59.45 107.95 58.70 110.49 57.08 112.57 C 57.56 109.66 58.27 106.79 58.58 103.85 C 55.96 102.56 53.52 100.96 50.89 99.70 C 47.55 99.86 43.60 101.89 40.68 99.38 C 38.99 98.18 39.28 96.12 39.45 94.33 C 40.61 95.87 41.12 98.23 43.21 98.82 C 45.27 99.22 47.36 98.74 49.42 98.54 C 45.64 95.24 41.35 92.60 37.63 89.25 C 38.48 89.02 40.17 88.58 41.02 88.36 C 40.60 87.62 40.18 86.89 39.75 86.16 C 39.52 86.57 39.06 87.39 38.83 87.81 C 36.75 88.00 37.42 84.48 36.47 83.19 C 37.63 83.59 38.80 84.01 39.95 84.44 C 40.60 83.90 41.25 83.37 41.91 82.85 C 41.60 86.54 42.42 90.23 44.86 93.10 C 49.97 95.00 53.28 99.94 58.35 102.12 C 58.13 98.14 57.24 94.15 57.99 90.18 C 59.01 83.39 59.14 76.53 58.98 69.67 C 58.05 70.68 57.16 71.71 56.26 72.75 C 54.54 71.60 52.62 70.86 50.64 70.31 C 50.95 69.72 51.55 68.53 51.85 67.94 C 50.98 68.23 50.11 68.52 49.24 68.81 C 48.31 67.80 47.37 66.79 46.46 65.76 C 48.71 66.39 51.06 66.97 53.20 65.65 C 53.59 67.20 53.97 68.75 54.42 70.29 C 54.33 68.92 54.24 67.55 54.16 66.19 C 55.78 66.49 56.96 67.62 57.86 68.95 C 58.21 68.30 58.57 67.64 58.94 66.99 C 58.20 65.71 57.48 64.43 56.77 63.14 C 55.32 63.30 53.86 63.42 52.41 63.52 C 52.16 62.64 51.91 61.77 51.66 60.89 C 51.22 62.71 50.43 64.38 49.11 65.72 C 48.45 63.42 47.49 61.23 46.57 59.03 C 49.22 59.14 51.75 59.84 54.23 60.75 C 52.76 58.71 51.13 56.81 49.51 54.90 C 48.66 55.69 47.80 56.48 46.94 57.26 C 45.79 56.78 44.63 56.29 43.47 55.82 C 43.49 55.34 43.52 54.37 43.54 53.88 C 42.80 54.46 42.06 55.04 41.32 55.62 C 40.75 55.43 39.60 55.05 39.03 54.86 C 39.18 54.23 39.49 52.99 39.64 52.37 C 42.49 52.10 45.37 52.14 48.14 52.96 C 45.99 50.89 43.92 48.72 41.84 46.58 C 40.43 47.69 39.06 48.85 37.67 49.99 C 37.13 48.83 36.61 47.68 36.07 46.52 C 38.23 45.86 40.26 44.89 42.20 43.73 C 46.77 50.24 53.05 55.34 58.00 61.56 C 57.97 58.76 58.08 55.96 57.92 53.17 C 55.08 50.17 53.04 46.50 53.17 42.26 C 51.83 42.52 50.49 42.76 49.14 42.99 C 50.18 42.07 51.11 39.84 52.84 40.85 C 55.36 42.74 56.69 45.76 58.51 48.27 C 58.47 44.22 59.24 39.72 56.87 36.14 C 54.95 33.07 53.42 29.78 51.93 26.50 C 56.21 28.11 56.46 33.33 59.04 36.55 C 58.98 33.38 58.30 30.27 57.94 27.14 C 57.31 27.40 56.04 27.92 55.41 28.19 C 55.86 26.80 56.97 25.57 56.91 24.06 C 56.32 22.21 54.96 20.77 53.78 19.28 C 51.11 19.67 49.34 21.51 47.65 23.43 C 47.73 24.53 47.79 25.63 47.82 26.73 C 46.73 25.65 45.75 24.47 44.81 23.26 C 46.64 21.68 48.44 20.06 50.41 18.67 M 60.06 28.34 C 60.12 30.64 60.25 32.93 60.45 35.21 C 61.60 33.30 62.63 31.32 63.65 29.33 C 62.45 29.00 61.26 28.67 60.06 28.34 M 77.97 33.20 C 78.04 33.81 78.18 35.05 78.24 35.67 C 79.72 35.76 81.20 35.82 82.68 35.89 C 83.38 38.67 84.55 41.41 86.20 43.75 C 87.99 45.91 90.93 44.76 93.00 43.74 C 92.40 41.47 91.80 39.18 90.97 36.98 C 90.01 37.25 89.06 37.54 88.11 37.82 C 88.47 36.56 88.82 35.30 89.15 34.04 C 85.47 33.20 81.68 33.74 77.97 33.20 M 82.26 44.26 C 82.86 44.79 82.86 44.79 82.26 44.26 M 57.16 49.20 C 57.77 49.82 57.77 49.82 57.16 49.20 Z" />
<path fill="#000000" opacity="1.00" d=" M 67.28 17.97 C 68.42 17.30 70.65 18.45 69.84 19.87 C 68.55 21.38 64.77 19.39 67.28 17.97 Z" />
<path fill="#000000" opacity="1.00" d=" M 61.33 19.26 C 61.95 19.88 61.95 19.88 61.33 19.26 Z" />
<path fill="#000000" opacity="1.00" d=" M 65.43 21.00 C 67.07 20.43 67.62 20.95 67.06 22.58 C 65.42 23.16 64.87 22.63 65.43 21.00 Z" />
<path fill="#000000" opacity="1.00" d=" M 69.24 23.29 C 69.85 23.91 69.85 23.91 69.24 23.29 Z" />
<path fill="#000000" opacity="1.00" d=" M 51.21 23.85 C 52.92 22.75 53.04 25.52 51.53 25.76 C 49.73 26.92 49.83 24.23 51.21 23.85 Z" />
<path fill="#000000" opacity="1.00" d=" M 64.89 24.14 C 66.36 23.22 68.43 25.45 67.47 26.86 C 66.07 27.84 63.89 25.49 64.89 24.14 Z" />
<path fill="#000000" opacity="1.00" d=" M 71.20 24.12 C 71.84 24.76 71.84 24.76 71.20 24.12 Z" />
<path fill="#000000" opacity="1.00" d=" M 47.27 27.15 C 48.31 26.43 50.55 26.35 50.94 27.84 C 50.66 29.90 46.34 29.16 47.27 27.15 Z" />
<path fill="#000000" opacity="1.00" d=" M 40.11 32.58 C 41.87 32.52 43.68 32.25 45.42 32.65 C 46.82 33.74 45.54 35.70 45.43 37.09 C 44.69 36.06 43.96 35.02 43.26 33.96 C 39.38 34.15 35.57 36.31 33.80 39.83 C 33.09 41.35 31.83 42.07 30.03 41.98 C 31.41 37.23 35.95 34.58 40.11 32.58 Z" />
<path fill="#000000" opacity="1.00" d=" M 51.12 39.34 C 52.23 37.60 53.19 35.61 55.18 34.72 C 54.61 36.27 53.92 37.76 53.21 39.24 C 54.20 38.69 55.20 38.15 56.19 37.60 C 56.11 38.48 55.97 40.23 55.90 41.11 C 54.30 40.52 52.71 39.93 51.12 39.34 Z" />
<path fill="#000000" opacity="1.00" d=" M 40.22 36.03 C 41.51 36.68 41.51 37.37 40.22 38.11 C 38.93 37.47 38.93 36.78 40.22 36.03 Z" />
<path fill="#000000" opacity="1.00" d=" M 31.39 42.05 C 37.71 44.13 42.90 38.71 48.31 36.35 C 47.01 40.68 42.19 41.38 39.08 43.97 C 36.61 45.04 31.39 46.03 31.39 42.05 Z" />
<path fill="#000000" opacity="1.00" d=" M 36.33 38.00 C 37.62 38.58 37.59 39.27 36.26 40.06 C 34.98 39.50 35.01 38.82 36.33 38.00 Z" />
<path fill="#000000" opacity="1.00" d=" M 69.80 38.70 C 72.35 39.15 74.11 41.21 76.05 42.74 C 75.20 43.43 74.34 44.09 73.46 44.73 C 73.41 44.11 73.30 42.85 73.25 42.23 C 71.69 41.49 70.39 40.38 69.80 38.70 Z" />
<path fill="#000000" opacity="1.00" d=" M 89.09 40.40 C 92.43 40.53 87.55 43.36 89.09 40.40 Z" />
<path fill="#000000" opacity="1.00" d=" M 70.40 43.09 C 72.10 42.54 74.01 45.83 72.05 46.60 C 70.89 46.09 70.08 44.30 70.40 43.09 Z" />
<path fill="#000000" opacity="1.00" d=" M 67.29 49.20 C 67.93 49.83 67.93 49.83 67.29 49.20 Z" />
<path fill="#000000" opacity="1.00" d=" M 82.87 49.29 C 84.29 48.75 84.78 49.18 84.32 50.59 C 82.88 51.15 82.40 50.71 82.87 49.29 Z" />
<path fill="#000000" opacity="1.00" d=" M 88.26 52.20 C 88.90 52.83 88.90 52.83 88.26 52.20 Z" />
<path fill="#000000" opacity="1.00" d=" M 43.78 58.99 C 45.72 60.02 46.43 62.12 47.39 63.94 C 45.77 65.12 44.47 66.83 42.55 67.53 C 40.26 67.96 37.91 67.73 35.59 67.84 C 37.06 65.99 38.57 64.16 40.17 62.43 C 41.25 63.73 42.24 65.11 43.30 66.43 C 42.79 64.74 42.15 63.10 41.67 61.41 C 42.95 62.43 44.11 63.57 45.31 64.68 C 44.81 62.78 44.22 60.90 43.78 58.99 Z" />
<path fill="#000000" opacity="1.00" d=" M 80.44 60.12 C 81.77 59.65 83.59 61.49 82.96 62.82 C 81.64 63.39 80.13 61.31 80.44 60.12 Z" />
<path fill="#000000" opacity="1.00" d=" M 70.38 64.80 C 73.43 64.38 69.57 67.65 68.52 68.06 C 66.93 67.32 69.39 65.15 70.38 64.80 Z" />
<path fill="#000000" opacity="1.00" d=" M 46.14 73.89 C 47.52 73.46 48.92 73.11 50.30 72.66 C 49.19 74.26 48.08 75.87 46.92 77.44 C 48.24 77.14 49.58 76.90 50.93 76.71 C 49.44 78.14 47.71 79.26 46.05 80.49 C 47.61 80.25 49.17 80.05 50.73 79.88 C 49.32 81.34 46.63 81.90 46.35 84.19 C 45.84 87.44 46.94 90.64 47.34 93.84 C 42.90 90.58 45.76 84.39 43.41 80.11 C 44.45 78.09 44.78 75.72 46.14 73.89 Z" />
<path fill="#000000" opacity="1.00" d=" M 83.13 74.07 C 84.85 73.78 86.54 73.31 88.22 72.83 C 87.34 75.09 86.53 77.37 85.70 79.65 C 84.94 77.74 84.16 75.85 83.13 74.07 Z" />
<path fill="#000000" opacity="1.00" d=" M 70.34 84.06 C 70.36 80.91 71.01 77.42 73.23 75.04 C 72.93 78.08 73.03 82.11 70.34 84.06 Z" />
<path fill="#000000" opacity="1.00" d=" M 75.27 86.97 C 76.67 83.92 77.58 79.87 80.99 78.45 C 80.78 82.14 77.92 84.75 75.27 86.97 Z" />
<path fill="#000000" opacity="1.00" d=" M 47.15 82.96 C 47.94 82.84 49.52 82.62 50.31 82.50 C 49.66 84.92 49.28 87.61 47.09 89.19 C 47.05 87.11 47.11 85.04 47.15 82.96 Z" />
<path fill="#000000" opacity="1.00" d=" M 66.93 89.95 C 67.86 87.89 68.66 85.66 70.83 84.58 C 70.76 86.86 69.97 88.98 68.95 91.00 C 68.45 90.73 67.43 90.21 66.93 89.95 Z" />
<path fill="#000000" opacity="1.00" d=" M 62.72 96.19 C 61.54 93.31 60.22 89.54 63.51 87.51 C 63.63 90.42 63.91 93.44 62.72 96.19 Z" />
<path fill="#000000" opacity="1.00" d=" M 48.20 89.19 C 49.67 88.58 50.09 89.00 49.44 90.43 C 48.00 91.08 47.59 90.66 48.20 89.19 Z" />
</g>
</svg>
