<?xml version="1.0" encoding="UTF-8" ?>
<!DOCTYPE svg PUBLIC "-//W3C//DTD SVG 1.1//EN" "http://www.w3.org/Graphics/SVG/1.1/DTD/svg11.dtd">
<svg width="64pt" height="64pt" viewBox="0 0 64 64" version="1.1" xmlns="http://www.w3.org/2000/svg">
<g id="#000000ff">
<path fill="#000000" opacity="1.00" d=" M 27.44 0.73 C 30.78 4.62 31.58 10.00 31.44 14.97 C 32.99 12.07 35.50 9.17 39.18 10.29 C 37.81 12.49 36.33 14.65 34.41 16.41 C 32.32 18.44 29.49 19.58 27.72 21.97 C 26.97 21.83 25.46 21.57 24.71 21.44 C 25.48 14.52 25.16 7.40 27.44 0.73 Z" />
<path fill="#000000" opacity="1.00" d=" M 12.66 12.68 C 14.85 11.66 17.48 12.07 19.26 13.72 C 21.48 16.56 23.83 19.96 22.60 23.74 C 24.55 26.29 26.57 28.78 28.69 31.20 C 28.60 30.29 28.43 28.47 28.34 27.56 C 29.01 27.34 30.35 26.91 31.02 26.69 C 33.37 26.38 33.72 29.18 34.31 30.80 C 36.03 30.99 37.49 31.81 38.69 33.03 C 37.44 34.01 36.22 35.01 34.99 36.02 C 34.47 34.81 33.96 33.59 33.47 32.37 C 32.06 32.59 30.64 32.71 29.21 32.69 C 28.17 33.95 27.08 35.17 25.96 36.37 C 23.88 32.51 20.58 29.60 18.15 25.99 C 19.20 24.85 20.26 23.73 21.34 22.62 C 17.01 23.15 14.57 19.14 11.35 17.04 C 11.67 15.56 11.73 13.95 12.66 12.68 Z" />
<path fill="#000000" opacity="1.00" d=" M 31.75 19.76 C 33.23 19.78 34.70 19.81 36.18 19.85 C 36.26 21.56 36.31 23.28 36.32 24.99 C 35.14 25.36 33.97 25.73 32.80 26.12 C 31.29 24.26 30.93 22.01 31.75 19.76 Z" />
<path fill="#000000" opacity="1.00" d=" M 36.97 25.08 C 38.05 24.49 39.12 23.90 40.19 23.30 C 41.00 24.19 42.47 24.70 42.71 25.99 C 42.31 26.93 41.86 27.84 41.36 28.73 C 40.47 28.65 38.69 28.47 37.81 28.38 C 37.52 27.28 37.24 26.18 36.97 25.08 Z" />
<path fill="#000000" opacity="1.00" d=" M 13.35 25.35 C 15.09 23.83 16.51 25.90 17.80 26.91 C 16.62 28.15 15.40 29.36 14.11 30.49 C 13.53 28.82 11.86 27.02 13.35 25.35 Z" />
<path fill="#000000" opacity="1.00" d=" M 38.48 29.84 C 39.35 29.73 41.10 29.53 41.97 29.43 C 44.11 31.39 47.62 32.69 47.62 36.06 C 46.77 37.71 44.84 37.54 43.29 37.92 C 41.39 35.40 38.54 33.29 38.48 29.84 Z" />
<path fill="#000000" opacity="1.00" d=" M 12.79 35.72 C 15.77 35.12 18.35 33.81 20.24 31.37 C 22.00 32.55 23.15 34.31 23.89 36.26 C 22.40 37.22 20.69 37.77 18.95 37.17 C 17.90 38.23 16.86 39.30 15.82 40.37 C 14.63 39.55 13.45 38.72 12.27 37.89 C 12.40 37.35 12.66 36.26 12.79 35.72 Z" />
<path fill="#000000" opacity="1.00" d=" M 27.25 35.31 C 28.81 35.67 30.37 36.05 31.92 36.44 C 31.82 37.73 31.71 39.02 31.59 40.30 C 30.90 40.66 29.50 41.38 28.80 41.74 C 27.80 39.73 27.50 37.51 27.25 35.31 Z" />
<path fill="#000000" opacity="1.00" d=" M 31.26 42.18 C 33.32 40.57 35.30 38.86 37.14 36.99 C 38.85 37.90 40.45 39.05 41.53 40.69 C 39.02 42.43 36.68 44.50 33.95 45.88 C 32.36 45.29 31.97 43.52 31.26 42.18 Z" />
<path fill="#000000" opacity="1.00" d=" M 18.56 40.57 C 19.83 40.50 21.14 40.15 22.40 40.49 C 23.38 41.56 24.12 42.81 24.92 44.01 C 24.01 45.07 23.08 46.11 22.15 47.14 C 23.28 49.11 23.82 51.28 23.33 53.54 C 21.40 53.28 18.54 52.51 19.61 49.95 C 20.72 46.59 17.41 43.94 18.56 40.57 Z" />
<path fill="#000000" opacity="1.00" d=" M 41.90 43.05 C 42.90 42.15 43.92 41.27 44.95 40.40 C 45.96 40.97 46.97 41.54 47.98 42.11 C 47.03 43.44 46.65 46.92 44.36 45.23 C 43.74 44.69 42.51 43.59 41.90 43.05 Z" />
<path fill="#000000" opacity="1.00" d=" M 27.40 45.57 C 29.19 44.82 31.05 44.89 32.87 45.44 C 32.87 48.81 31.37 51.91 30.21 55.01 C 31.08 56.32 31.92 57.65 32.71 59.02 C 31.78 59.13 29.92 59.34 28.98 59.45 C 28.09 56.72 26.59 54.29 24.90 51.99 C 26.11 51.33 27.34 50.69 28.58 50.07 C 28.18 48.57 27.78 47.07 27.40 45.57 Z" />
<path fill="#000000" opacity="1.00" d=" M 33.97 49.85 C 34.79 48.48 35.01 46.12 37.03 46.11 C 38.09 46.33 39.14 46.61 40.17 46.94 C 39.74 48.28 39.31 49.62 38.84 50.95 C 37.20 50.67 35.57 50.31 33.97 49.85 Z" />
<path fill="#000000" opacity="1.00" d=" M 40.41 50.00 C 41.22 48.64 42.04 47.29 42.88 45.94 C 44.36 47.09 45.70 48.40 46.89 49.86 C 45.94 50.83 44.98 51.80 44.01 52.76 C 42.79 51.87 41.59 50.95 40.41 50.00 Z" />
<path fill="#000000" opacity="1.00" d=" M 35.40 57.12 C 35.46 53.31 40.48 52.80 42.85 55.09 C 41.92 56.71 41.05 58.36 40.27 60.06 C 38.63 59.12 36.70 58.54 35.40 57.12 Z" />
</g>
</svg>
