<?xml version="1.0" encoding="UTF-8" ?>
<!DOCTYPE svg PUBLIC "-//W3C//DTD SVG 1.1//EN" "http://www.w3.org/Graphics/SVG/1.1/DTD/svg11.dtd">
<svg width="64pt" height="64pt" viewBox="0 0 64 64" version="1.1" xmlns="http://www.w3.org/2000/svg">
<g id="#000000ff">
<path fill="#000000" opacity="1.00" d=" M 35.55 8.61 C 36.69 5.29 41.37 3.47 44.22 5.78 C 47.99 7.86 48.26 12.69 49.99 16.24 C 47.38 16.06 45.44 18.11 42.98 18.38 C 37.85 19.65 32.96 13.19 35.55 8.61 Z" />
<path fill="#000000" opacity="1.00" d=" M 13.66 17.11 C 15.05 13.86 15.79 9.68 19.23 7.91 C 22.24 6.81 25.92 7.48 27.75 10.27 C 29.91 13.65 31.41 18.38 28.93 21.99 C 27.82 24.00 25.91 25.33 24.06 26.61 C 22.39 25.90 20.73 25.17 19.10 24.37 C 17.87 25.18 16.59 25.91 15.25 26.53 C 15.46 25.25 15.70 23.98 15.98 22.72 C 14.76 21.09 12.85 19.36 13.66 17.11 M 17.19 11.32 C 19.56 10.92 21.93 10.57 24.32 10.35 C 22.43 8.11 18.87 9.41 17.19 11.32 M 17.39 14.16 C 16.02 14.28 15.42 16.98 17.09 17.06 C 18.42 16.90 19.14 14.18 17.39 14.16 Z" />
<path fill="#000000" opacity="1.00" d=" M 35.27 21.94 C 39.98 20.63 44.17 24.78 45.10 29.10 C 45.95 31.73 43.90 33.99 42.69 36.12 C 43.83 36.88 44.97 37.63 46.11 38.40 C 45.75 39.27 45.40 40.14 45.04 41.01 C 43.75 40.46 42.47 39.87 41.20 39.29 C 39.74 40.67 38.13 42.11 35.95 41.67 C 32.72 42.40 30.48 39.74 28.69 37.51 C 28.59 34.38 27.63 30.69 29.80 28.04 C 31.28 25.73 32.94 23.45 35.27 21.94 Z" />
<path fill="#000000" opacity="1.00" d=" M 12.60 31.52 C 15.96 29.56 20.59 31.28 22.16 34.76 C 23.76 37.54 24.01 40.86 23.46 43.96 C 22.20 46.41 20.20 48.32 17.96 49.87 C 16.26 49.26 14.57 48.60 12.90 47.90 C 11.59 48.56 10.24 49.18 8.85 49.67 C 9.14 48.44 9.47 47.22 9.82 46.01 C 7.89 44.48 6.53 42.05 7.60 39.59 C 8.88 36.73 9.60 33.13 12.60 31.52 M 10.62 34.67 C 13.34 34.32 16.03 33.79 18.70 33.17 C 15.90 31.99 12.77 32.45 10.62 34.67 M 11.03 37.36 C 9.93 37.77 9.14 39.47 10.07 40.41 C 11.62 41.16 12.67 37.52 11.03 37.36 Z" />
<path fill="#000000" opacity="1.00" d=" M 22.65 52.63 C 24.87 49.47 27.20 44.37 31.86 45.31 C 34.28 45.15 35.89 47.13 37.14 48.92 C 40.17 52.76 37.81 57.73 38.22 62.15 C 34.19 60.24 29.78 60.70 25.47 60.30 C 22.07 59.61 21.76 55.31 22.65 52.63 Z" />
</g>
</svg>
