<?xml version="1.0" encoding="UTF-8" ?>
<!DOCTYPE svg PUBLIC "-//W3C//DTD SVG 1.1//EN" "http://www.w3.org/Graphics/SVG/1.1/DTD/svg11.dtd">
<svg width="64pt" height="64pt" viewBox="0 0 64 64" version="1.1" xmlns="http://www.w3.org/2000/svg">
<g id="#000000ff">
<path fill="#000000" opacity="1.00" d=" M 42.42 8.95 C 47.90 7.33 52.70 11.19 57.55 13.17 C 57.56 14.81 57.54 16.45 57.48 18.09 C 51.99 20.13 46.29 16.19 40.92 18.68 C 33.82 17.97 26.69 19.22 19.57 18.34 C 18.35 17.54 17.23 16.59 16.08 15.70 C 15.36 11.12 20.03 8.77 23.93 8.53 C 30.74 7.39 36.75 11.79 43.52 11.82 C 43.15 10.86 42.78 9.91 42.42 8.95 Z" />
<path fill="#000000" opacity="1.00" d=" M 5.32 17.14 C 5.66 14.96 8.55 15.48 10.15 15.18 C 9.43 17.03 6.81 19.95 5.32 17.14 Z" />
<path fill="#000000" opacity="1.00" d=" M 23.59 20.56 C 26.58 22.86 27.88 26.55 30.43 29.25 C 29.47 26.94 28.32 24.72 27.17 22.51 C 31.11 20.05 33.05 25.16 35.63 27.13 C 35.16 30.79 35.58 34.47 35.87 38.13 C 36.41 33.80 36.94 29.44 38.03 25.22 C 38.57 23.14 40.24 21.83 42.07 20.91 C 41.58 25.14 38.93 28.86 39.47 33.28 C 40.88 30.70 41.88 27.93 42.81 25.16 C 43.96 23.71 45.33 22.46 46.64 21.17 C 46.60 22.56 46.68 23.95 46.52 25.33 C 39.86 34.65 38.22 46.39 37.22 57.52 C 36.28 56.94 35.34 56.36 34.41 55.78 C 33.92 57.20 33.42 58.62 32.89 60.03 C 29.39 56.53 31.15 51.31 30.01 46.99 C 28.70 41.14 29.22 34.89 26.78 29.32 C 25.84 26.57 23.18 25.09 21.24 23.12 C 21.83 22.48 23.00 21.20 23.59 20.56 Z" />
</g>
</svg>
