<?xml version="1.0" encoding="UTF-8" ?>
<!DOCTYPE svg PUBLIC "-//W3C//DTD SVG 1.1//EN" "http://www.w3.org/Graphics/SVG/1.1/DTD/svg11.dtd">
<svg width="64pt" height="64pt" viewBox="0 0 64 64" version="1.1" xmlns="http://www.w3.org/2000/svg">
<g id="#000000ff">
<path fill="#000000" opacity="1.00" d=" M 37.84 21.75 C 39.61 19.41 41.33 16.20 44.70 16.27 C 44.00 22.47 44.72 28.78 43.10 34.88 C 46.08 34.38 49.11 34.20 52.13 34.33 C 51.99 35.53 52.53 37.44 50.87 37.82 C 47.76 39.30 44.43 40.26 41.10 41.13 C 36.15 37.72 31.23 34.26 26.16 31.02 C 27.98 26.61 33.45 28.33 36.54 30.23 C 36.84 27.39 37.13 24.52 37.84 21.75 Z" />
<path fill="#000000" opacity="1.00" d=" M 13.21 41.04 C 19.71 39.78 26.23 37.20 32.89 39.08 C 32.50 41.87 32.99 44.88 31.20 47.30 C 27.61 47.84 23.99 47.54 20.39 47.64 C 20.45 47.04 20.59 45.85 20.66 45.25 C 20.43 45.73 19.99 46.67 19.77 47.15 C 16.74 46.03 13.80 44.71 10.71 43.76 C 11.45 42.81 11.83 41.23 13.21 41.04 Z" />
<path fill="#000000" opacity="1.00" d=" M 35.20 39.83 C 37.45 37.73 39.61 40.55 40.95 42.21 C 45.09 43.88 49.80 44.64 53.02 48.01 C 55.09 50.41 58.54 52.81 57.51 56.43 C 53.37 57.00 49.23 55.97 45.37 54.58 C 42.20 53.39 40.65 50.18 38.88 47.55 C 36.51 51.05 34.98 56.26 30.26 57.10 C 31.58 51.25 31.42 44.78 35.20 39.83 Z" />
</g>
</svg>
