<?xml version="1.0" encoding="UTF-8" ?>
<!DOCTYPE svg PUBLIC "-//W3C//DTD SVG 1.1//EN" "http://www.w3.org/Graphics/SVG/1.1/DTD/svg11.dtd">
<svg width="64pt" height="64pt" viewBox="0 0 64 64" version="1.1" xmlns="http://www.w3.org/2000/svg">
<g id="#000000ff">
<path fill="#000000" opacity="1.00" d=" M 18.21 1.75 C 20.83 1.83 21.76 4.27 22.89 6.21 C 22.22 7.46 21.57 8.71 20.91 9.96 C 25.67 17.39 28.23 26.27 27.35 35.10 C 26.97 35.61 26.19 36.64 25.81 37.16 C 25.18 32.89 25.79 28.45 24.40 24.29 C 23.24 20.67 22.20 16.95 20.35 13.62 C 18.68 11.37 16.91 9.18 15.57 6.71 C 16.06 6.54 17.03 6.22 17.52 6.06 C 17.71 4.62 17.94 3.18 18.21 1.75 Z" />
<path fill="#000000" opacity="1.00" d=" M 27.29 4.04 C 27.98 3.85 29.38 3.46 30.08 3.27 C 31.13 7.42 32.32 11.73 30.85 15.94 C 31.01 21.85 32.12 27.98 30.51 33.82 C 31.19 34.32 32.55 35.32 33.23 35.82 C 34.91 32.93 34.48 29.50 35.26 26.36 C 35.79 22.77 37.59 19.21 36.51 15.56 C 36.12 13.57 35.59 10.69 38.28 10.21 C 40.00 9.16 41.31 11.21 40.79 12.77 C 39.45 21.77 36.03 30.59 36.72 39.81 C 36.12 39.84 34.92 39.90 34.33 39.93 C 33.31 36.99 31.14 34.76 28.68 32.94 C 30.28 23.29 26.93 13.73 27.29 4.04 Z" />
<path fill="#000000" opacity="1.00" d=" M 7.38 9.54 C 10.84 9.45 13.48 12.23 14.83 15.17 C 18.82 21.44 23.72 27.76 24.46 35.38 C 23.98 35.18 23.01 34.76 22.53 34.55 C 20.77 30.37 19.66 25.83 16.82 22.17 C 14.07 17.63 8.89 14.84 7.38 9.54 Z" />
<path fill="#000000" opacity="1.00" d=" M 43.51 18.42 C 43.95 15.25 44.51 11.72 47.00 9.45 C 48.16 9.96 48.80 10.81 48.93 12.01 C 45.67 20.39 42.79 28.95 38.84 37.05 C 38.59 36.52 38.08 35.47 37.82 34.94 C 40.17 29.58 41.21 23.78 43.51 18.42 Z" />
<path fill="#000000" opacity="1.00" d=" M 22.29 37.22 C 23.05 37.11 24.56 36.89 25.31 36.78 C 25.96 38.96 25.77 41.16 24.98 43.27 C 23.79 42.22 22.61 41.17 21.47 40.07 C 21.67 39.36 22.09 37.94 22.29 37.22 Z" />
<path fill="#000000" opacity="1.00" d=" M 28.05 37.45 C 29.67 36.50 30.74 38.07 31.84 39.00 C 30.61 41.41 30.33 44.09 30.42 46.76 C 29.76 47.28 28.43 48.30 27.77 48.82 C 26.75 48.00 25.26 47.37 25.25 45.83 C 24.95 44.08 26.58 42.68 27.18 41.14 C 27.59 41.57 28.41 42.42 28.82 42.84 C 27.89 41.30 26.19 38.97 28.05 37.45 Z" />
<path fill="#000000" opacity="1.00" d=" M 31.94 45.91 C 30.02 45.09 31.81 41.93 33.69 42.34 C 35.94 42.74 35.18 45.22 35.39 46.86 C 34.53 46.62 32.80 46.15 31.94 45.91 Z" />
<path fill="#000000" opacity="1.00" d=" M 37.26 43.61 C 38.35 42.66 40.03 41.26 41.37 42.66 C 42.38 44.63 40.79 46.61 40.34 48.52 C 39.33 46.87 38.31 45.23 37.26 43.61 Z" />
<path fill="#000000" opacity="1.00" d=" M 17.17 46.96 C 16.74 43.63 21.11 40.58 23.35 43.98 C 23.13 46.06 22.44 48.04 21.80 50.01 C 20.05 49.38 17.88 48.93 17.17 46.96 Z" />
<path fill="#000000" opacity="1.00" d=" M 30.72 47.55 C 31.00 47.43 31.57 47.20 31.86 47.09 C 34.29 51.39 33.05 56.91 33.93 61.71 C 33.29 61.48 31.99 61.02 31.35 60.79 C 30.59 56.46 29.84 51.92 30.72 47.55 Z" />
<path fill="#000000" opacity="1.00" d=" M 60.48 50.22 C 61.48 49.37 63.34 50.83 62.71 52.00 C 61.71 52.88 59.88 51.37 60.48 50.22 Z" />
</g>
</svg>
