<?xml version="1.0" encoding="UTF-8" ?>
<!DOCTYPE svg PUBLIC "-//W3C//DTD SVG 1.1//EN" "http://www.w3.org/Graphics/SVG/1.1/DTD/svg11.dtd">
<svg width="64pt" height="64pt" viewBox="0 0 64 64" version="1.1" xmlns="http://www.w3.org/2000/svg">
<g id="#000000ff">
<path fill="#000000" opacity="1.00" d=" M 35.38 10.38 C 35.85 8.85 37.64 9.29 38.84 9.06 C 38.94 9.80 39.15 11.27 39.25 12.00 C 37.98 17.50 38.82 23.18 38.12 28.76 C 43.84 28.47 49.63 28.96 55.20 30.34 C 56.66 30.28 57.62 32.74 56.34 33.48 C 55.07 34.96 53.12 34.31 51.51 33.99 C 47.06 33.22 42.55 32.34 38.03 32.91 C 38.54 38.26 41.74 42.72 44.46 47.16 C 45.86 49.38 41.89 51.06 41.02 48.86 C 38.23 44.60 35.29 40.39 32.99 35.85 C 27.99 37.54 25.37 42.35 22.07 46.08 C 21.47 47.03 19.27 47.29 19.43 45.66 C 19.20 44.12 18.98 42.57 18.70 41.04 C 23.12 38.35 26.39 34.20 29.24 29.99 C 26.02 28.80 22.41 27.61 20.86 24.22 C 19.64 21.72 16.48 19.23 17.41 16.29 C 19.38 14.05 21.22 17.16 22.65 18.38 C 26.02 21.31 28.01 26.39 32.93 27.00 C 34.36 21.54 33.13 15.65 35.38 10.38 Z" />
</g>
</svg>
