<?xml version="1.0" encoding="UTF-8" ?>
<!DOCTYPE svg PUBLIC "-//W3C//DTD SVG 1.1//EN" "http://www.w3.org/Graphics/SVG/1.1/DTD/svg11.dtd">
<svg width="64pt" height="64pt" viewBox="0 0 64 64" version="1.1" xmlns="http://www.w3.org/2000/svg">
<g id="#000000ff">
<path fill="#000000" opacity="1.00" d=" M 11.48 14.96 C 12.56 12.36 14.40 8.67 17.76 9.13 C 20.28 10.05 21.88 12.46 24.06 13.93 C 26.46 15.55 28.68 17.40 30.85 19.30 C 30.71 21.71 30.47 24.25 32.18 26.20 C 32.72 22.67 33.32 18.74 36.40 16.45 C 39.82 13.85 43.41 11.27 47.50 9.84 C 46.01 15.82 45.04 22.33 41.10 27.30 C 44.56 27.36 48.18 25.93 51.45 27.63 C 55.24 28.58 56.85 32.48 58.16 35.75 C 54.04 37.74 49.32 38.13 44.84 37.50 C 42.59 36.03 40.79 33.90 39.36 31.65 C 39.12 29.81 40.20 27.44 38.02 26.47 C 35.78 27.58 33.60 29.19 30.96 28.65 C 30.29 31.83 28.14 34.25 25.90 36.46 C 23.23 33.71 19.94 31.84 15.98 32.63 C 16.01 32.10 16.09 31.05 16.12 30.52 C 17.91 30.02 19.58 29.19 21.16 28.23 C 22.28 28.59 23.41 28.95 24.54 29.27 C 20.05 25.94 14.69 22.94 12.61 17.42 C 12.00 15.58 10.48 14.38 9.05 13.18 C 9.66 13.63 10.88 14.52 11.48 14.96 M 17.01 11.80 C 18.66 13.87 20.60 15.67 22.16 17.82 C 23.84 19.83 25.18 22.47 27.97 23.11 C 27.84 21.51 27.71 19.75 26.22 18.78 C 23.16 16.44 20.05 14.17 17.01 11.80 M 43.90 30.19 C 45.82 33.39 50.28 35.98 54.02 34.21 C 52.81 33.00 51.64 31.73 50.25 30.72 C 48.17 30.23 46.02 30.24 43.90 30.19 Z" />
<path fill="#000000" opacity="1.00" d=" M 5.08 29.27 C 7.94 30.53 11.01 30.99 14.06 30.12 C 14.54 30.88 15.08 31.60 15.68 32.28 C 15.08 32.33 13.88 32.44 13.29 32.50 C 13.91 32.53 15.16 32.59 15.78 32.62 C 16.45 33.54 17.13 34.45 17.82 35.35 C 19.78 35.32 21.77 35.15 23.72 35.42 C 24.88 36.49 25.87 37.71 26.93 38.87 C 23.19 40.84 19.03 39.29 15.22 38.41 C 18.00 39.64 21.06 40.47 24.12 40.20 C 25.85 39.58 27.44 38.62 29.13 37.89 C 29.82 40.65 26.86 42.57 25.14 44.31 C 20.67 47.59 15.35 44.69 11.29 42.24 C 11.83 41.41 12.40 40.61 12.96 39.80 C 9.89 37.79 9.01 33.96 8.19 30.61 C 7.15 30.18 6.11 29.75 5.08 29.27 Z" />
<path fill="#000000" opacity="1.00" d=" M 26.82 36.07 C 28.43 34.93 29.51 31.89 31.89 32.70 C 34.00 33.40 36.22 33.40 38.41 33.25 C 40.50 37.28 45.21 41.06 43.17 46.05 C 44.26 47.37 45.28 48.75 46.30 50.12 C 43.30 51.88 40.14 49.82 37.44 48.46 C 35.23 44.53 33.01 40.44 29.13 37.89 C 28.55 37.44 27.40 36.53 26.82 36.07 Z" />
</g>
</svg>
